# Blender 4.3.2
# www.blender.org
mtllib WoodenCatWalk.mtl
g WoodenCatWalk_Mesh
v -1.000000 -0.100000 1.000000
v -1.000000 0.000000 1.000000
v -1.000000 -0.100000 0.000000
v -1.000000 0.000000 0.000000
v 1.000000 -0.100000 1.000000
v 1.000000 0.000000 1.000000
v 1.000000 -0.100000 0.000000
v 1.000000 0.000000 0.000000
v -0.900000 -0.200000 1.000000
v -0.900000 0.100000 1.000000
v -0.900000 -0.200000 0.000000
v -0.900000 0.100000 0.000000
v -0.800000 -0.200000 1.000000
v -0.800000 0.100000 1.000000
v -0.800000 -0.200000 -0.000000
v -0.800000 0.100000 -0.000000
v 0.800000 -0.200000 1.000000
v 0.800000 0.100000 1.000000
v 0.800000 -0.200000 0.000000
v 0.800000 0.100000 0.000000
v 0.900000 -0.200000 1.000000
v 0.900000 0.100000 1.000000
v 0.900000 -0.200000 -0.000000
v 0.900000 0.100000 -0.000000
v 0.850000 -0.250000 0.550000
v 0.850000 1.000000 0.550000
v 0.850000 -0.250000 0.450000
v 0.850000 1.000000 0.450000
v 0.950000 -0.250000 0.550000
v 0.950000 1.000000 0.550000
v 0.950000 -0.250000 0.450000
v 0.950000 1.000000 0.450000
v 0.800000 1.000000 1.000000
v 0.800000 1.100000 1.000000
v 0.800000 1.000000 0.000000
v 0.800000 1.100000 0.000000
v 1.000000 1.000000 1.000000
v 1.000000 1.100000 1.000000
v 1.000000 1.000000 0.000000
v 1.000000 1.100000 0.000000
v 0.900000 0.450000 1.000000
v 0.900000 0.550000 1.000000
v 0.900000 0.450000 0.000000
v 0.900000 0.550000 0.000000
v 1.000000 0.450000 1.000000
v 1.000000 0.550000 1.000000
v 1.000000 0.450000 0.000000
v 1.000000 0.550000 0.000000
v -0.850001 -0.250000 0.550000
v -0.850001 1.000000 0.550000
v -0.850000 -0.250000 0.450000
v -0.850000 1.000000 0.450000
v -0.950000 -0.250000 0.550000
v -0.950000 1.000000 0.550000
v -0.950000 -0.250000 0.450000
v -0.950000 1.000000 0.450000
v -0.800001 1.000000 1.000000
v -0.800001 1.100000 1.000000
v -0.800000 1.000000 0.000000
v -0.800000 1.100000 0.000000
v -1.000000 1.000000 1.000000
v -1.000000 1.100000 1.000000
v -1.000000 1.000000 -0.000000
v -1.000000 1.100000 -0.000000
v -0.900001 0.450000 1.000000
v -0.900001 0.550000 1.000000
v -0.900000 0.450000 0.000000
v -0.900000 0.550000 0.000000
v -1.000000 0.450000 1.000000
v -1.000000 0.550000 1.000000
v -1.000000 0.450000 -0.000000
v -1.000000 0.550000 -0.000000
vn -1.0000 -0.0000 -0.0000
vn -0.0000 -1.0000 -0.0000
vn 1.0000 -0.0000 -0.0000
vn -0.0000 1.0000 -0.0000
vn -0.0000 -0.0000 1.0000
vn -0.0000 -0.0000 -1.0000
vt 0.625000 0.000000
vt 0.375000 0.250000
vt 0.375000 0.000000
vt 0.125000 0.750000
vt 0.375000 0.500000
vt 0.125000 0.500000
vt 0.625000 0.500000
vt 0.375000 0.750000
vt 0.875000 0.500000
vt 0.625000 0.750000
vt 0.375000 1.000000
vt 0.625000 0.250000
vt 0.875000 0.750000
vt 0.625000 1.000000
s 0
f 2/1/1 3/2/1 1/3/1
f 49/4/2 55/5/2 51/6/2
f 8/7/3 5/8/3 7/5/3
f 7/5/2 1/4/2 3/6/2
f 4/9/4 6/10/4 8/7/4
f 10/1/1 11/2/1 9/3/1
f 49/11/5 54/10/5 53/8/5
f 16/7/3 13/8/3 15/5/3
f 11/6/2 13/8/2 9/4/2
f 12/9/4 14/10/4 16/7/4
f 18/1/1 19/2/1 17/3/1
f 53/8/1 56/7/1 55/5/1
f 24/7/3 21/8/3 23/5/3
f 19/6/2 21/8/2 17/4/2
f 20/9/4 22/10/4 24/7/4
f 26/1/1 27/2/1 25/3/1
f 28/12/6 31/5/6 27/2/6
f 32/7/3 29/8/3 31/5/3
f 30/10/5 25/11/5 29/8/5
f 31/5/2 25/4/2 27/6/2
f 28/9/4 30/10/4 32/7/4
f 34/1/1 35/2/1 33/3/1
f 55/5/6 52/12/6 51/2/6
f 40/7/3 37/8/3 39/5/3
f 39/5/2 33/4/2 35/6/2
f 36/9/4 38/10/4 40/7/4
f 42/1/1 43/2/1 41/3/1
f 51/2/3 50/1/3 49/3/3
f 48/7/3 45/8/3 47/5/3
f 54/10/4 52/9/4 56/7/4
f 43/6/2 45/8/2 41/4/2
f 44/9/4 46/10/4 48/7/4
f 59/2/3 58/1/3 57/3/3
f 61/8/1 64/7/1 63/5/1
f 59/6/2 61/8/2 63/5/2
f 62/10/4 60/9/4 64/7/4
f 67/2/3 66/1/3 65/3/3
f 69/8/1 72/7/1 71/5/1
f 67/6/2 69/8/2 71/5/2
f 70/10/4 68/9/4 72/7/4
f 2/1/1 4/12/1 3/2/1
f 49/4/2 53/8/2 55/5/2
f 8/7/3 6/10/3 5/8/3
f 7/5/2 5/8/2 1/4/2
f 4/9/4 2/13/4 6/10/4
f 10/1/1 12/12/1 11/2/1
f 49/11/5 50/14/5 54/10/5
f 16/7/3 14/10/3 13/8/3
f 11/6/2 15/5/2 13/8/2
f 12/9/4 10/13/4 14/10/4
f 18/1/1 20/12/1 19/2/1
f 53/8/1 54/10/1 56/7/1
f 24/7/3 22/10/3 21/8/3
f 19/6/2 23/5/2 21/8/2
f 20/9/4 18/13/4 22/10/4
f 26/1/1 28/12/1 27/2/1
f 28/12/6 32/7/6 31/5/6
f 32/7/3 30/10/3 29/8/3
f 30/10/5 26/14/5 25/11/5
f 31/5/2 29/8/2 25/4/2
f 28/9/4 26/13/4 30/10/4
f 34/1/1 36/12/1 35/2/1
f 55/5/6 56/7/6 52/12/6
f 40/7/3 38/10/3 37/8/3
f 39/5/2 37/8/2 33/4/2
f 36/9/4 34/13/4 38/10/4
f 42/1/1 44/12/1 43/2/1
f 51/2/3 52/12/3 50/1/3
f 48/7/3 46/10/3 45/8/3
f 54/10/4 50/13/4 52/9/4
f 43/6/2 47/5/2 45/8/2
f 44/9/4 42/13/4 46/10/4
f 59/2/3 60/12/3 58/1/3
f 61/8/1 62/10/1 64/7/1
f 59/6/2 57/4/2 61/8/2
f 62/10/4 58/13/4 60/9/4
f 67/2/3 68/12/3 66/1/3
f 69/8/1 70/10/1 72/7/1
f 67/6/2 65/4/2 69/8/2
f 70/10/4 66/13/4 68/9/4
