# Blender 4.3.2
# www.blender.org
mtllib WoodenCatWalkXJoint.mtl
g WoodenCatWalkXJoint_Mesh
v 1.000000 -0.100000 -0.000000
v 1.000000 0.000000 -0.000000
v 1.000000 -0.100000 2.000000
v 1.000000 0.000000 2.000000
v -1.000000 -0.100000 0.000000
v -1.000000 0.000000 0.000000
v -1.000000 -0.100000 2.000000
v -1.000000 0.000000 2.000000
v 0.900000 0.550000 1.900000
v 0.900000 0.450000 1.900000
v 0.900000 0.550000 2.000000
v 0.900000 0.450000 2.000000
v 1.000000 1.100000 1.800000
v 1.000000 1.000000 1.800000
v 1.000000 1.100000 2.000000
v 1.000000 1.000000 2.000000
v -0.800000 0.100000 2.000000
v -0.800000 -0.200000 2.000000
v -0.900000 0.100000 2.000000
v -0.900000 -0.200000 2.000000
v 0.800000 1.000000 1.800000
v 0.800000 1.100000 1.800000
v 0.800000 1.000000 2.000000
v 0.800000 1.100000 2.000000
v -1.000000 0.100000 1.800000
v -1.000000 -0.200000 1.800000
v -1.000000 0.100000 1.900000
v -1.000000 -0.200000 1.900000
v -0.800000 0.100000 1.800000
v -0.800000 -0.200000 1.800000
v -0.900000 0.100000 1.900000
v -0.900000 -0.200000 1.900000
v -0.950000 1.000000 1.850000
v -0.950000 -0.250000 1.850000
v -0.950000 1.000000 1.950000
v -0.950000 -0.250000 1.950000
v -0.850000 1.000000 1.850000
v -0.850000 -0.250000 1.850000
v -0.850000 1.000000 1.950000
v -0.850000 -0.250000 1.950000
v -1.000000 0.550000 1.900000
v -1.000000 0.450000 1.900000
v -1.000000 0.550000 2.000000
v -1.000000 0.450000 2.000000
v -0.900000 0.550000 1.900000
v -0.900000 0.450000 1.900000
v -0.900000 0.550000 2.000000
v -0.900000 0.450000 2.000000
v -1.000000 1.100000 1.800000
v -1.000000 1.000000 1.800000
v -1.000000 1.100000 2.000000
v -1.000000 1.000000 2.000000
v -0.800000 1.100000 1.800000
v -0.800000 1.000000 1.800000
v -0.800000 1.100000 2.000000
v -0.800000 1.000000 2.000000
v -0.800000 1.000000 0.000000
v -0.800000 1.100000 0.000000
v -0.800000 1.000000 0.200000
v -0.800000 1.100000 0.200000
v -1.000000 1.000000 0.000000
v -1.000000 1.100000 0.000000
v -1.000000 1.000000 0.200000
v -1.000000 1.100000 0.200000
v -0.900000 0.450000 0.000000
v -0.900000 0.550000 0.000000
v -0.900000 0.450000 0.100000
v -0.900000 0.550000 0.100000
v -1.000000 0.450000 0.000000
v -1.000000 0.550000 0.000000
v -1.000000 0.450000 0.100000
v -1.000000 0.550000 0.100000
v -0.850000 -0.250000 0.050000
v -0.850000 1.000000 0.050000
v -0.850000 -0.250000 0.150000
v -0.850000 1.000000 0.150000
v -0.950000 -0.250000 0.050000
v -0.950000 1.000000 0.050000
v -0.950000 -0.250000 0.150000
v -0.950000 1.000000 0.150000
v -0.900000 -0.200000 0.100000
v -0.900000 0.100000 0.100000
v -0.800000 -0.200000 0.200000
v -0.800000 0.100000 0.200000
v -1.000000 -0.200000 0.100000
v -1.000000 0.100000 0.100000
v -1.000000 -0.200000 0.200000
v -1.000000 0.100000 0.200000
v 0.800000 1.100000 -0.000000
v 0.800000 1.000000 -0.000000
v 0.800000 1.100000 0.200000
v 0.800000 1.000000 0.200000
v -0.900000 -0.200000 0.000000
v -0.900000 0.100000 0.000000
v -0.800000 -0.200000 0.000000
v -0.800000 0.100000 0.000000
v 1.000000 1.000000 -0.000000
v 1.000000 1.100000 -0.000000
v 1.000000 1.000000 0.200000
v 1.000000 1.100000 0.200000
v 0.900000 0.450000 0.000000
v 0.900000 0.550000 0.000000
v 0.900000 0.450000 0.100000
v 0.900000 0.550000 0.100000
v 1.000000 0.450000 0.000000
v 1.000000 0.550000 0.000000
v 1.000000 0.450000 0.100000
v 1.000000 0.550000 0.100000
v 0.850000 -0.250000 0.050000
v 0.850000 1.000000 0.050000
v 0.850000 -0.250000 0.150000
v 0.850000 1.000000 0.150000
v 0.950000 -0.250000 0.050000
v 0.950000 1.000000 0.050000
v 0.950000 -0.250000 0.150000
v 0.950000 1.000000 0.150000
v 0.900000 -0.200000 0.100000
v 0.900000 0.100000 0.100000
v 0.800000 -0.200000 0.200000
v 0.800000 0.100000 0.200000
v 1.000000 -0.200000 0.100000
v 1.000000 0.100000 0.100000
v 1.000000 -0.200000 0.200000
v 1.000000 0.100000 0.200000
v 0.900000 -0.200000 0.000000
v 0.900000 0.100000 0.000000
v 0.800000 -0.200000 0.000000
v 0.800000 0.100000 0.000000
v 1.000000 0.450000 2.000000
v 1.000000 0.550000 2.000000
v 1.000000 0.450000 1.900000
v 1.000000 0.550000 1.900000
v 0.850000 -0.250000 1.950000
v 0.850000 1.000000 1.950000
v 0.850000 -0.250000 1.850000
v 0.850000 1.000000 1.850000
v 0.950000 -0.250000 1.950000
v 0.950000 1.000000 1.950000
v 0.950000 -0.250000 1.850000
v 0.950000 1.000000 1.850000
v 0.900000 -0.200000 1.899999
v 0.900000 0.100000 1.899999
v 0.800000 -0.200000 1.800000
v 0.800000 0.100000 1.800000
v 1.000000 -0.200000 1.899999
v 1.000000 0.100000 1.899999
v 1.000000 -0.200000 1.800000
v 1.000000 0.100000 1.800000
v 0.900000 -0.200000 2.000000
v 0.900000 0.100000 2.000000
v 0.800000 -0.200000 2.000000
v 0.800000 0.100000 2.000000
vn 1.0000 -0.0000 -0.0000
vn -0.0000 -0.0000 1.0000
vn -1.0000 -0.0000 -0.0000
vn -0.0000 -0.0000 -1.0000
vn -0.0000 -1.0000 -0.0000
vn -0.0000 1.0000 -0.0000
vt 0.625000 0.000000
vt 0.375000 0.250000
vt 0.375000 0.000000
vt 0.625000 0.250000
vt 0.375000 0.500000
vt 0.625000 0.500000
vt 0.375000 0.750000
vt 0.625000 0.750000
vt 0.375000 1.000000
vt 0.125000 0.750000
vt 0.125000 0.500000
vt 0.875000 0.750000
vt 0.875000 0.500000
vt 0.625000 1.000000
s 0
f 2/1/1 3/2/1 1/3/1
f 4/4/2 7/5/2 3/2/2
f 8/6/3 5/7/3 7/5/3
f 6/8/4 1/9/4 5/7/4
f 7/5/5 1/10/5 3/11/5
f 8/6/6 2/12/6 6/8/6
f 11/1/3 10/2/3 12/3/3
f 31/12/6 17/12/6 29/12/6
f 17/1/1 30/3/1 29/1/1
f 22/13/6 15/8/6 13/6/6
f 9/4/4 131/5/4 10/2/4
f 24/1/3 21/2/3 23/3/3
f 18/9/2 19/14/2 20/9/2
f 20/9/3 31/14/3 32/9/3
f 13/6/1 16/7/1 14/5/1
f 22/4/4 14/5/4 21/2/4
f 18/10/5 32/10/5 30/10/5
f 14/5/5 23/10/5 21/11/5
f 32/10/5 26/5/5 30/11/5
f 26/5/4 29/4/4 30/2/4
f 15/8/2 23/9/2 16/7/2
f 32/9/2 27/8/2 28/7/2
f 25/6/6 31/12/6 29/13/6
f 28/7/3 25/6/3 26/5/3
f 40/10/5 34/5/5 38/11/5
f 34/5/4 37/4/4 38/2/4
f 38/2/1 39/1/1 40/3/1
f 40/9/2 35/8/2 36/7/2
f 35/8/6 37/13/6 33/6/6
f 36/7/3 33/6/3 34/5/3
f 48/10/5 42/5/5 46/11/5
f 42/5/4 45/4/4 46/2/4
f 46/2/1 47/1/1 48/3/1
f 48/9/2 43/8/2 44/7/2
f 43/8/6 45/13/6 41/6/6
f 44/7/3 41/6/3 42/5/3
f 56/10/5 50/5/5 54/11/5
f 50/5/4 53/4/4 54/2/4
f 54/2/1 55/1/1 56/3/1
f 56/9/2 51/8/2 52/7/2
f 51/8/6 53/13/6 49/6/6
f 52/7/3 49/6/3 50/5/3
f 58/1/1 59/2/1 57/3/1
f 60/4/2 63/5/2 59/2/2
f 64/6/3 61/7/3 63/5/3
f 62/8/4 57/9/4 61/7/4
f 59/11/5 61/7/5 57/10/5
f 60/13/6 62/8/6 64/6/6
f 66/1/1 67/2/1 65/3/1
f 68/4/2 71/5/2 67/2/2
f 72/6/3 69/7/3 71/5/3
f 70/8/4 65/9/4 69/7/4
f 67/11/5 69/7/5 65/10/5
f 68/13/6 70/8/6 72/6/6
f 74/1/1 75/2/1 73/3/1
f 76/4/2 79/5/2 75/2/2
f 80/6/3 77/7/3 79/5/3
f 78/8/4 73/9/4 77/7/4
f 75/11/5 77/7/5 73/10/5
f 76/13/6 78/8/6 80/6/6
f 90/9/4 98/8/4 97/7/4
f 84/4/2 87/5/2 83/2/2
f 88/6/3 85/7/3 87/5/3
f 86/8/4 81/9/4 85/7/4
f 87/5/5 81/10/5 83/11/5
f 88/6/6 82/12/6 86/8/6
f 97/7/1 100/6/1 99/5/1
f 82/14/3 93/9/3 81/9/3
f 90/10/5 99/5/5 92/11/5
f 99/5/2 91/4/2 92/2/2
f 94/14/4 95/9/4 93/9/4
f 81/10/5 95/10/5 83/10/5
f 83/3/1 96/1/1 84/1/1
f 82/12/6 96/12/6 94/12/6
f 92/2/3 89/1/3 90/3/3
f 100/6/6 89/12/6 91/13/6
f 103/2/3 102/1/3 101/3/3
f 107/5/2 104/4/2 103/2/2
f 105/7/1 108/6/1 107/5/1
f 101/9/4 106/8/4 105/7/4
f 101/10/5 107/5/5 103/11/5
f 106/8/6 104/13/6 108/6/6
f 111/2/3 110/1/3 109/3/3
f 115/5/2 112/4/2 111/2/2
f 113/7/1 116/6/1 115/5/1
f 109/9/4 114/8/4 113/7/4
f 109/10/5 115/5/5 111/11/5
f 114/8/6 112/13/6 116/6/6
f 123/5/2 120/4/2 119/2/2
f 121/7/1 124/6/1 123/5/1
f 117/9/4 122/8/4 121/7/4
f 117/10/5 123/5/5 119/11/5
f 124/6/6 118/12/6 120/13/6
f 125/9/1 118/14/1 117/9/1
f 127/9/4 126/14/4 125/9/4
f 127/10/5 117/10/5 119/10/5
f 128/1/3 119/3/3 120/1/3
f 118/12/6 128/12/6 120/12/6
f 132/6/1 129/7/1 131/5/1
f 130/8/2 12/9/2 129/7/2
f 131/5/5 12/10/5 10/11/5
f 9/13/6 130/8/6 132/6/6
f 134/1/3 135/2/3 133/3/3
f 136/4/4 139/5/4 135/2/4
f 140/6/1 137/7/1 139/5/1
f 138/8/2 133/9/2 137/7/2
f 139/5/5 133/10/5 135/11/5
f 136/13/6 138/8/6 140/6/6
f 144/4/4 147/5/4 143/2/4
f 148/6/1 145/7/1 147/5/1
f 146/8/2 141/9/2 145/7/2
f 147/5/5 141/10/5 143/11/5
f 148/6/6 142/12/6 146/8/6
f 142/14/1 149/9/1 141/9/1
f 150/14/2 151/9/2 149/9/2
f 141/10/5 151/10/5 143/10/5
f 143/3/3 152/1/3 144/1/3
f 142/12/6 152/12/6 150/12/6
f 2/1/1 4/4/1 3/2/1
f 4/4/2 8/6/2 7/5/2
f 8/6/3 6/8/3 5/7/3
f 6/8/4 2/14/4 1/9/4
f 7/5/5 5/7/5 1/10/5
f 8/6/6 4/13/6 2/12/6
f 11/1/3 9/4/3 10/2/3
f 31/12/6 19/12/6 17/12/6
f 17/1/1 18/3/1 30/3/1
f 22/13/6 24/12/6 15/8/6
f 9/4/4 132/6/4 131/5/4
f 24/1/3 22/4/3 21/2/3
f 18/9/2 17/14/2 19/14/2
f 20/9/3 19/14/3 31/14/3
f 13/6/1 15/8/1 16/7/1
f 22/4/4 13/6/4 14/5/4
f 18/10/5 20/10/5 32/10/5
f 14/5/5 16/7/5 23/10/5
f 32/10/5 28/7/5 26/5/5
f 26/5/4 25/6/4 29/4/4
f 15/8/2 24/14/2 23/9/2
f 32/9/2 31/14/2 27/8/2
f 25/6/6 27/8/6 31/12/6
f 28/7/3 27/8/3 25/6/3
f 40/10/5 36/7/5 34/5/5
f 34/5/4 33/6/4 37/4/4
f 38/2/1 37/4/1 39/1/1
f 40/9/2 39/14/2 35/8/2
f 35/8/6 39/12/6 37/13/6
f 36/7/3 35/8/3 33/6/3
f 48/10/5 44/7/5 42/5/5
f 42/5/4 41/6/4 45/4/4
f 46/2/1 45/4/1 47/1/1
f 48/9/2 47/14/2 43/8/2
f 43/8/6 47/12/6 45/13/6
f 44/7/3 43/8/3 41/6/3
f 56/10/5 52/7/5 50/5/5
f 50/5/4 49/6/4 53/4/4
f 54/2/1 53/4/1 55/1/1
f 56/9/2 55/14/2 51/8/2
f 51/8/6 55/12/6 53/13/6
f 52/7/3 51/8/3 49/6/3
f 58/1/1 60/4/1 59/2/1
f 60/4/2 64/6/2 63/5/2
f 64/6/3 62/8/3 61/7/3
f 62/8/4 58/14/4 57/9/4
f 59/11/5 63/5/5 61/7/5
f 60/13/6 58/12/6 62/8/6
f 66/1/1 68/4/1 67/2/1
f 68/4/2 72/6/2 71/5/2
f 72/6/3 70/8/3 69/7/3
f 70/8/4 66/14/4 65/9/4
f 67/11/5 71/5/5 69/7/5
f 68/13/6 66/12/6 70/8/6
f 74/1/1 76/4/1 75/2/1
f 76/4/2 80/6/2 79/5/2
f 80/6/3 78/8/3 77/7/3
f 78/8/4 74/14/4 73/9/4
f 75/11/5 79/5/5 77/7/5
f 76/13/6 74/12/6 78/8/6
f 90/9/4 89/14/4 98/8/4
f 84/4/2 88/6/2 87/5/2
f 88/6/3 86/8/3 85/7/3
f 86/8/4 82/14/4 81/9/4
f 87/5/5 85/7/5 81/10/5
f 88/6/6 84/13/6 82/12/6
f 97/7/1 98/8/1 100/6/1
f 82/14/3 94/14/3 93/9/3
f 90/10/5 97/7/5 99/5/5
f 99/5/2 100/6/2 91/4/2
f 94/14/4 96/14/4 95/9/4
f 81/10/5 93/10/5 95/10/5
f 83/3/1 95/3/1 96/1/1
f 82/12/6 84/12/6 96/12/6
f 92/2/3 91/4/3 89/1/3
f 100/6/6 98/8/6 89/12/6
f 103/2/3 104/4/3 102/1/3
f 107/5/2 108/6/2 104/4/2
f 105/7/1 106/8/1 108/6/1
f 101/9/4 102/14/4 106/8/4
f 101/10/5 105/7/5 107/5/5
f 106/8/6 102/12/6 104/13/6
f 111/2/3 112/4/3 110/1/3
f 115/5/2 116/6/2 112/4/2
f 113/7/1 114/8/1 116/6/1
f 109/9/4 110/14/4 114/8/4
f 109/10/5 113/7/5 115/5/5
f 114/8/6 110/12/6 112/13/6
f 123/5/2 124/6/2 120/4/2
f 121/7/1 122/8/1 124/6/1
f 117/9/4 118/14/4 122/8/4
f 117/10/5 121/7/5 123/5/5
f 124/6/6 122/8/6 118/12/6
f 125/9/1 126/14/1 118/14/1
f 127/9/4 128/14/4 126/14/4
f 127/10/5 125/10/5 117/10/5
f 128/1/3 127/3/3 119/3/3
f 118/12/6 126/12/6 128/12/6
f 132/6/1 130/8/1 129/7/1
f 130/8/2 11/14/2 12/9/2
f 131/5/5 129/7/5 12/10/5
f 9/13/6 11/12/6 130/8/6
f 134/1/3 136/4/3 135/2/3
f 136/4/4 140/6/4 139/5/4
f 140/6/1 138/8/1 137/7/1
f 138/8/2 134/14/2 133/9/2
f 139/5/5 137/7/5 133/10/5
f 136/13/6 134/12/6 138/8/6
f 144/4/4 148/6/4 147/5/4
f 148/6/1 146/8/1 145/7/1
f 146/8/2 142/14/2 141/9/2
f 147/5/5 145/7/5 141/10/5
f 148/6/6 144/13/6 142/12/6
f 142/14/1 150/14/1 149/9/1
f 150/14/2 152/14/2 151/9/2
f 141/10/5 149/10/5 151/10/5
f 143/3/3 151/3/3 152/1/3
f 142/12/6 144/12/6 152/12/6
