# Blender 4.3.2
# www.blender.org
mtllib WoodenCatWalkSupports.mtl
g WoodenCatWalkSupports_Mesh
v -1.100000 -0.130000 -0.020000
v -1.100000 -0.370000 -0.020000
v -1.100000 -0.130000 -0.120000
v -1.100000 -0.370000 -0.120000
v 1.100000 -0.130000 -0.020000
v 1.100000 -0.370000 -0.020000
v 1.100000 -0.130000 -0.120000
v 1.100000 -0.370000 -0.120000
v 1.500000 -4.620000 -0.120000
v 1.500000 -4.380000 -0.120000
v 1.500000 -4.620000 -0.020000
v 1.500000 -4.380000 -0.020000
v -1.500000 -4.620000 -0.120000
v -1.500000 -4.380000 -0.120000
v -1.500000 -4.620000 -0.020000
v -1.500000 -4.380000 -0.020000
v -1.100000 -4.380000 0.050000
v -0.860001 -4.380000 0.050000
v -1.100000 -4.380000 -0.050000
v -0.860001 -4.380000 -0.050000
v 0.860000 -0.370000 0.050000
v 1.099999 -0.370000 0.050000
v 0.860000 -0.370000 -0.050000
v 1.099999 -0.370000 -0.050000
v 0.100000 -0.350000 0.100000
v -0.100000 -0.350000 0.100000
v 0.100000 -0.350000 -0.100000
v -0.100000 -0.350000 -0.100000
v 0.099999 -9.000001 0.100000
v -0.100001 -9.000001 0.100000
v 0.099999 -9.000001 -0.100000
v -0.100001 -9.000001 -0.100000
v 0.800000 -0.000000 0.100000
v 0.999999 -0.000000 0.100000
v 0.800000 -0.000000 -0.100000
v 0.999999 -0.000000 -0.100000
v 1.399999 -9.000001 0.100000
v 1.599999 -9.000001 0.100000
v 1.399999 -9.000001 -0.100000
v 1.599999 -9.000001 -0.100000
v -0.800001 0.000000 0.100000
v -1.000001 -0.000000 0.100000
v -0.800001 0.000000 -0.100000
v -1.000001 -0.000000 -0.100000
v -1.400002 -9.000001 0.100000
v -1.600002 -9.000001 0.100000
v -1.400002 -9.000001 -0.100000
v -1.600002 -9.000001 -0.100000
v -1.100000 -4.380000 0.050000
v -0.860001 -4.380000 0.050000
v -1.100000 -4.380000 -0.050000
v -0.860001 -4.380000 -0.050000
v 0.860000 -0.370000 0.050000
v 1.099999 -0.370000 0.050000
v 0.860000 -0.370000 -0.050000
v 1.099999 -0.370000 -0.050000
v -1.500001 -8.980000 0.050000
v -1.260001 -8.980000 0.050000
v -1.500001 -8.980000 -0.050000
v -1.260001 -8.980000 -0.050000
v 1.259999 -4.620000 0.050000
v 1.499999 -4.620000 0.050000
v 1.259999 -4.620000 -0.050000
v 1.499999 -4.620000 -0.050000
v 1.699999 -9.220000 -0.120000
v 1.699999 -8.980000 -0.120000
v 1.699999 -9.220000 0.120000
v 1.699999 -8.980000 0.120000
v -1.700001 -9.220000 -0.120000
v -1.700001 -8.980000 -0.120000
v -1.700001 -9.220000 0.120000
v -1.700001 -8.980000 0.120000
v 1.500000 -4.620000 0.020000
v 1.500000 -4.380000 0.020000
v 1.500000 -4.620000 0.120000
v 1.500000 -4.380000 0.120000
v -1.500000 -4.620000 0.020000
v -1.500000 -4.380000 0.020000
v -1.500000 -4.620000 0.120000
v -1.500000 -4.380000 0.120000
v -1.100000 -0.130000 0.120000
v -1.100000 -0.370000 0.120000
v -1.100000 -0.130000 0.020000
v -1.100000 -0.370000 0.020000
v 1.100000 -0.130000 0.120000
v 1.100000 -0.370000 0.120000
v 1.100000 -0.130000 0.020000
v 1.100000 -0.370000 0.020000
vn -1.0000 -0.0000 -0.0000
vn -0.0000 -0.0000 -1.0000
vn 1.0000 -0.0000 -0.0000
vn -0.0000 -0.0000 1.0000
vn -0.0000 1.0000 -0.0000
vn -0.0000 -1.0000 -0.0000
vn -0.8984 0.4391 -0.0000
vn 0.8984 -0.4391 -0.0000
vn -0.9978 -0.0665 -0.0000
vn 0.9978 0.0665 -0.0000
vn 0.9978 -0.0665 -0.0000
vn -0.9978 0.0665 -0.0000
vn -0.8449 0.5349 -0.0000
vn 0.8449 -0.5349 -0.0000
vt 0.375000 0.250000
vt 0.625000 0.000000
vt 0.375000 0.000000
vt 0.375000 0.500000
vt 0.625000 0.250000
vt 0.375000 0.750000
vt 0.625000 0.500000
vt 0.375000 1.000000
vt 0.625000 0.750000
vt 0.125000 0.750000
vt 0.125000 0.500000
vt 0.875000 0.500000
vt 0.625000 1.000000
vt 0.875000 0.750000
s 0
f 3/1/1 2/2/1 1/3/1
f 7/4/2 4/5/2 3/1/2
f 5/6/3 8/7/3 7/4/3
f 1/8/4 6/9/4 5/6/4
f 1/10/5 7/4/5 3/11/5
f 6/9/6 4/12/6 8/7/6
f 11/9/6 13/12/6 9/7/6
f 16/10/5 10/4/5 14/11/5
f 16/8/4 11/9/4 12/6/4
f 12/6/3 9/7/3 10/4/3
f 10/4/2 13/5/2 14/1/2
f 14/1/1 15/2/1 16/3/1
f 19/1/6 18/2/6 17/3/6
f 23/4/2 20/5/2 19/1/2
f 23/4/5 22/9/5 24/7/5
f 21/6/4 18/13/4 22/9/4
f 17/10/7 23/4/7 19/11/7
f 22/9/8 20/12/8 24/7/8
f 27/1/5 26/2/5 25/3/5
f 27/1/2 32/7/2 28/5/2
f 29/6/6 32/7/6 31/4/6
f 25/8/4 30/9/4 29/6/4
f 25/10/3 31/4/3 27/11/3
f 30/9/1 28/12/1 32/7/1
f 36/5/2 39/4/2 35/1/2
f 40/7/6 37/6/6 39/4/6
f 37/6/4 34/13/4 33/8/4
f 39/4/9 33/10/9 35/11/9
f 36/12/10 38/9/10 40/7/10
f 47/4/2 44/5/2 43/1/2
f 45/6/6 48/7/6 47/4/6
f 45/6/4 42/13/4 46/9/4
f 43/11/11 45/6/11 47/4/11
f 46/9/12 44/12/12 48/7/12
f 51/1/6 50/2/6 49/3/6
f 55/4/2 52/5/2 51/1/2
f 55/4/5 54/9/5 56/7/5
f 53/6/4 50/13/4 54/9/4
f 49/10/7 55/4/7 51/11/7
f 54/9/8 52/12/8 56/7/8
f 59/1/6 58/2/6 57/3/6
f 63/4/2 60/5/2 59/1/2
f 63/4/5 62/9/5 64/7/5
f 61/6/4 58/13/4 62/9/4
f 57/10/13 63/4/13 59/11/13
f 62/9/14 60/12/14 64/7/14
f 67/9/6 69/12/6 65/7/6
f 72/10/5 66/4/5 70/11/5
f 72/8/4 67/9/4 68/6/4
f 68/6/3 65/7/3 66/4/3
f 66/4/2 69/5/2 70/1/2
f 70/1/1 71/2/1 72/3/1
f 75/9/6 77/12/6 73/7/6
f 80/10/5 74/4/5 78/11/5
f 80/8/4 75/9/4 76/6/4
f 76/6/3 73/7/3 74/4/3
f 74/4/2 77/5/2 78/1/2
f 78/1/1 79/2/1 80/3/1
f 83/1/1 82/2/1 81/3/1
f 87/4/2 84/5/2 83/1/2
f 85/6/3 88/7/3 87/4/3
f 81/8/4 86/9/4 85/6/4
f 81/10/5 87/4/5 83/11/5
f 86/9/6 84/12/6 88/7/6
f 3/1/1 4/5/1 2/2/1
f 7/4/2 8/7/2 4/5/2
f 5/6/3 6/9/3 8/7/3
f 1/8/4 2/13/4 6/9/4
f 1/10/5 5/6/5 7/4/5
f 6/9/6 2/14/6 4/12/6
f 11/9/6 15/14/6 13/12/6
f 16/10/5 12/6/5 10/4/5
f 16/8/4 15/13/4 11/9/4
f 12/6/3 11/9/3 9/7/3
f 10/4/2 9/7/2 13/5/2
f 14/1/1 13/5/1 15/2/1
f 19/1/6 20/5/6 18/2/6
f 23/4/2 24/7/2 20/5/2
f 23/4/5 21/6/5 22/9/5
f 21/6/4 17/8/4 18/13/4
f 17/10/7 21/6/7 23/4/7
f 22/9/8 18/14/8 20/12/8
f 27/1/5 28/5/5 26/2/5
f 27/1/2 31/4/2 32/7/2
f 29/6/6 30/9/6 32/7/6
f 25/8/4 26/13/4 30/9/4
f 25/10/3 29/6/3 31/4/3
f 30/9/1 26/14/1 28/12/1
f 36/5/2 40/7/2 39/4/2
f 40/7/6 38/9/6 37/6/6
f 37/6/4 38/9/4 34/13/4
f 39/4/9 37/6/9 33/10/9
f 36/12/10 34/14/10 38/9/10
f 47/4/2 48/7/2 44/5/2
f 45/6/6 46/9/6 48/7/6
f 45/6/4 41/8/4 42/13/4
f 43/11/11 41/10/11 45/6/11
f 46/9/12 42/14/12 44/12/12
f 51/1/6 52/5/6 50/2/6
f 55/4/2 56/7/2 52/5/2
f 55/4/5 53/6/5 54/9/5
f 53/6/4 49/8/4 50/13/4
f 49/10/7 53/6/7 55/4/7
f 54/9/8 50/14/8 52/12/8
f 59/1/6 60/5/6 58/2/6
f 63/4/2 64/7/2 60/5/2
f 63/4/5 61/6/5 62/9/5
f 61/6/4 57/8/4 58/13/4
f 57/10/13 61/6/13 63/4/13
f 62/9/14 58/14/14 60/12/14
f 67/9/6 71/14/6 69/12/6
f 72/10/5 68/6/5 66/4/5
f 72/8/4 71/13/4 67/9/4
f 68/6/3 67/9/3 65/7/3
f 66/4/2 65/7/2 69/5/2
f 70/1/1 69/5/1 71/2/1
f 75/9/6 79/14/6 77/12/6
f 80/10/5 76/6/5 74/4/5
f 80/8/4 79/13/4 75/9/4
f 76/6/3 75/9/3 73/7/3
f 74/4/2 73/7/2 77/5/2
f 78/1/1 77/5/1 79/2/1
f 83/1/1 84/5/1 82/2/1
f 87/4/2 88/7/2 84/5/2
f 85/6/3 86/9/3 88/7/3
f 81/8/4 82/13/4 86/9/4
f 81/10/5 85/6/5 87/4/5
f 86/9/6 82/14/6 84/12/6
