# Blender 4.3.2
# www.blender.org
mtllib WoodenCatWalkStairs.mtl
g WoodenCatWalkStairs_Mesh
v -1.000000 -0.100000 0.500000
v -1.000000 0.000000 0.500000
v -1.000000 -0.100000 0.000000
v -1.000000 0.000000 0.000000
v 1.000000 -0.100000 0.500000
v 1.000000 0.000000 0.500000
v 1.000000 -0.100000 0.000000
v 1.000000 0.000000 0.000000
v -0.800000 -0.400000 0.900000
v -0.800000 -0.300000 0.900000
v -0.900000 -0.200000 0.000000
v -0.900000 0.100000 0.000000
v -0.800000 -0.200000 0.500000
v -0.800000 0.100000 0.500000
v -0.800000 -0.200000 -0.000000
v -0.800000 0.100000 -0.000000
v -0.800000 -0.400000 0.700000
v -0.800000 -0.300000 0.700000
v -1.000000 1.000000 0.000000
v -1.000000 1.100000 0.000000
v -0.800000 1.000000 0.500000
v -0.800000 1.100000 0.500000
v -0.800000 1.000000 -0.000000
v -0.800000 1.100000 -0.000000
v -0.950000 -0.250000 0.450000
v -0.950000 1.000000 0.450000
v -0.950000 -0.250000 0.350000
v -0.950000 1.000000 0.350000
v -0.850000 -0.250000 0.450000
v -0.850000 1.000000 0.450000
v -0.850000 -0.250000 0.350000
v -0.850000 1.000000 0.350000
v 0.800000 -0.400000 0.900000
v 0.800000 -0.300000 0.900000
v -1.000000 0.450000 0.000000
v -1.000000 0.550000 0.000000
v 0.800000 -0.400000 0.700000
v -0.900000 0.550000 0.500000
v -0.900000 0.450000 -0.000000
v -0.900000 0.550000 -0.000000
v -0.900000 -2.200000 2.500000
v -0.900000 -1.900000 2.500000
v -0.900000 -0.200000 0.500000
v -0.900000 0.100000 0.500000
v -0.800000 -2.200000 2.500000
v -0.800000 -1.900000 2.500000
v 0.800000 -0.300000 0.700000
v 0.800000 -0.100000 0.500000
v -1.000000 -1.000000 2.700000
v -1.000000 -0.900000 2.700000
v 0.800000 -0.200000 0.500000
v -1.000000 -0.900000 2.500000
v -0.800000 -1.000000 2.700000
v -0.800000 -0.900000 2.700000
v -0.800000 -1.000000 2.500000
v 0.800000 -0.100000 0.700000
v -0.950000 -2.250000 2.650000
v -0.950000 -1.000000 2.650000
v -0.950000 -2.250000 2.550000
v -0.950000 -1.000000 2.550000
v -0.850000 -2.250000 2.650000
v -0.850000 -1.000000 2.650000
v -0.850000 -2.250000 2.550000
v -0.850000 -1.000000 2.550000
v -1.000000 -1.550000 2.700000
v -1.000000 -1.450000 2.700000
v 0.800000 -0.200000 0.700000
v -0.800000 -0.100000 0.500000
v -0.900000 -1.550000 2.700000
v -0.900000 -1.450000 2.700000
v -0.900000 -1.550000 2.500000
v -0.900000 -1.450000 2.500000
v -1.000000 -1.000000 2.500000
v -0.800000 -0.200000 0.500000
v -1.000000 1.000000 0.500000
v -1.000000 1.100000 0.500000
v -0.800000 -0.100000 0.700000
v -0.800000 -0.900000 2.500000
v -0.800000 -0.200000 0.700000
v -0.800000 -2.200000 2.700000
v -1.000000 -1.550000 2.500000
v -1.000000 -1.450000 2.500000
v -1.000000 0.450000 0.500000
v -1.000000 0.550000 0.500000
v -0.800000 -1.900000 2.700000
v -0.900000 -1.900000 2.700000
v -0.900000 0.450000 0.500000
v -0.900000 -2.200000 2.700000
v -0.800000 -0.600000 1.100000
v -0.800000 -0.500000 1.100000
v -0.800000 -0.600000 0.900000
v -0.800000 -0.500000 0.900000
v 0.800000 -0.600000 1.100000
v 0.800000 -0.500000 1.100000
v 0.800000 -0.600000 0.900000
v 0.800000 -0.500000 0.900000
v -0.800000 -0.800000 1.300000
v -0.800000 -0.700000 1.300000
v -0.800000 -0.800000 1.100000
v -0.800000 -0.700000 1.100000
v 0.800000 -0.800000 1.300000
v 0.800000 -0.700000 1.300000
v 0.800000 -0.800000 1.100000
v 0.800000 -0.700000 1.100000
v -0.800000 -1.000000 1.500000
v -0.800000 -0.900000 1.500000
v -0.800000 -1.000000 1.300000
v -0.800000 -0.900000 1.300000
v 0.800000 -1.000000 1.500000
v 0.800000 -0.900000 1.500000
v 0.800000 -1.000000 1.300000
v 0.800000 -0.900000 1.300000
v -0.800000 -1.200000 1.700000
v -0.800000 -1.100000 1.700000
v -0.800000 -1.200000 1.500000
v -0.800000 -1.100000 1.500000
v 0.800000 -1.200000 1.700000
v 0.800000 -1.100000 1.700000
v 0.800000 -1.200000 1.500000
v 0.800000 -1.100000 1.500000
v -0.800000 -1.400000 1.900000
v -0.800000 -1.300000 1.900000
v -0.800000 -1.400000 1.700000
v -0.800000 -1.300000 1.700000
v 0.800000 -1.400000 1.900000
v 0.800000 -1.300000 1.900000
v 0.800000 -1.400000 1.700000
v 0.800000 -1.300000 1.700000
v -0.800000 -1.600000 2.100000
v -0.800000 -1.500000 2.100000
v -0.800000 -1.600000 1.900000
v -0.800000 -1.500000 1.900000
v 0.800000 -1.600000 2.100000
v 0.800000 -1.500000 2.100000
v 0.800000 -1.600000 1.900000
v 0.800000 -1.500000 1.900000
v -0.800000 -1.800000 2.300000
v -0.800000 -1.700000 2.300000
v -0.800000 -1.800000 2.100000
v -0.800000 -1.700000 2.100000
v 0.800000 -1.800000 2.300000
v 0.800000 -1.700000 2.300000
v 0.800000 -1.800000 2.100000
v 0.800000 -1.700000 2.100000
v -0.800000 -2.000000 2.500000
v -0.800000 -1.900000 2.500000
v -0.800000 -2.000000 2.300000
v -0.800000 -1.900000 2.300000
v 0.800000 -2.000000 2.500000
v 0.800000 -1.900000 2.500000
v 0.800000 -2.000000 2.300000
v 0.800000 -1.900000 2.300000
v -0.800000 -2.200000 2.700000
v -0.800000 -2.100000 2.700000
v -0.800000 -2.200000 2.500000
v -0.800000 -2.100000 2.500000
v 0.800000 -2.200000 2.700000
v 0.800000 -2.100000 2.700000
v 0.800000 -2.200000 2.500000
v 0.800000 -2.100000 2.500000
v -0.950000 -1.300000 1.550000
v -0.950000 0.050000 1.550000
v -0.950000 -1.300000 1.450000
v -0.950000 0.050000 1.450000
v -0.850000 -1.300000 1.550000
v -0.850000 0.050000 1.550000
v -0.850000 -1.300000 1.450000
v -0.850000 0.050000 1.450000
v 0.900000 -0.200000 0.000000
v 0.900000 0.100000 0.000000
v 0.800000 -0.200000 0.500000
v 0.800000 0.100000 0.500000
v 0.800000 -0.200000 0.000000
v 0.800000 0.100000 0.000000
v 1.000000 1.000000 0.000000
v 1.000000 1.100000 0.000000
v 0.800000 1.000000 0.500000
v 0.800000 1.100000 0.500000
v 0.800000 1.000000 0.000000
v 0.800000 1.100000 0.000000
v 0.950000 -0.250000 0.450000
v 0.950000 1.000000 0.450000
v 0.950000 -0.250000 0.350000
v 0.950000 1.000000 0.350000
v 0.850000 -0.250000 0.450000
v 0.850000 1.000000 0.450000
v 0.850000 -0.250000 0.350000
v 0.850000 1.000000 0.350000
v 1.000000 0.450000 0.000000
v 1.000000 0.550000 0.000000
v 0.900000 0.550000 0.500000
v 0.900000 0.450000 0.000000
v 0.900000 0.550000 0.000000
v 0.900000 -2.200000 2.500000
v 0.900000 -1.900000 2.500000
v 0.900000 -0.200000 0.500000
v 0.900000 0.100000 0.500000
v 0.800000 -2.200000 2.500000
v 0.800000 -1.900000 2.500000
v 1.000000 -1.000000 2.700000
v 1.000000 -0.900000 2.700000
v 1.000000 -0.900000 2.500000
v 0.800000 -1.000000 2.700000
v 0.800000 -0.900000 2.700000
v 0.800000 -1.000000 2.500000
v 0.950000 -2.250000 2.650000
v 0.950000 -1.000000 2.650000
v 0.950000 -2.250000 2.550000
v 0.950000 -1.000000 2.550000
v 0.849999 -2.250000 2.650000
v 0.849999 -1.000000 2.650000
v 0.850000 -2.250000 2.550000
v 0.850000 -1.000000 2.550000
v 1.000000 -1.550000 2.700000
v 1.000000 -1.450000 2.700000
v 0.900000 -1.550000 2.700000
v 0.900000 -1.450000 2.700000
v 0.900000 -1.550000 2.500000
v 0.900000 -1.450000 2.500000
v 1.000000 -1.000000 2.500000
v 1.000000 1.000000 0.500000
v 1.000000 1.100000 0.500000
v 0.800000 -0.900000 2.500000
v 0.800000 -2.200000 2.700000
v 1.000000 -1.550000 2.500000
v 1.000000 -1.450000 2.500000
v 1.000000 0.450000 0.500000
v 1.000000 0.550000 0.500000
v 0.800000 -1.900000 2.700000
v 0.900000 -1.900000 2.700000
v 0.900000 0.450000 0.500000
v 0.900000 -2.200000 2.700000
v 0.950000 -1.300000 1.550000
v 0.950000 0.050000 1.550000
v 0.950000 -1.300000 1.450000
v 0.950000 0.050000 1.450000
v 0.850000 -1.300000 1.550000
v 0.850000 0.050000 1.550000
v 0.850000 -1.300000 1.450000
v 0.850000 0.050000 1.450000
vn -1.0000 -0.0000 -0.0000
vn -0.0000 -0.0000 -1.0000
vn 1.0000 -0.0000 -0.0000
vn -0.0000 -0.0000 1.0000
vn -0.0000 -1.0000 -0.0000
vn -0.0000 1.0000 -0.0000
vn -0.0000 -0.7071 -0.7071
vn -0.0000 0.7071 0.7071
vt 0.625000 0.000000
vt 0.375000 0.250000
vt 0.375000 0.000000
vt 0.625000 0.250000
vt 0.375000 0.500000
vt 0.625000 0.500000
vt 0.375000 0.750000
vt 0.625000 0.750000
vt 0.375000 1.000000
vt 0.125000 0.750000
vt 0.125000 0.500000
vt 0.875000 0.500000
vt 0.875000 0.750000
vt 0.625000 1.000000
s 0
f 2/1/1 3/2/1 1/3/1
f 4/4/2 7/5/2 3/2/2
f 8/6/3 5/7/3 7/5/3
f 6/8/4 1/9/4 5/7/4
f 7/5/5 1/10/5 3/11/5
f 4/12/6 6/8/6 8/6/6
f 44/1/1 11/2/1 43/3/1
f 12/4/2 15/5/2 11/2/2
f 16/6/3 13/7/3 15/5/3
f 85/8/4 88/9/4 80/7/4
f 11/11/5 13/7/5 43/10/5
f 12/12/6 14/8/6 16/6/6
f 76/1/1 19/2/1 75/3/1
f 20/4/2 23/5/2 19/2/2
f 24/6/3 21/7/3 23/5/3
f 140/4/2 143/5/2 139/2/2
f 19/11/5 21/7/5 75/10/5
f 20/12/6 22/8/6 24/6/6
f 26/1/1 27/2/1 25/3/1
f 28/4/2 31/5/2 27/2/2
f 32/6/3 29/7/3 31/5/3
f 30/8/4 25/9/4 29/7/4
f 31/5/5 25/10/5 27/11/5
f 84/1/1 35/2/1 83/3/1
f 36/4/2 39/5/2 35/2/2
f 40/6/3 87/7/3 39/5/3
f 46/8/3 80/7/3 45/7/3
f 35/11/5 87/7/5 83/10/5
f 36/12/6 38/8/6 40/6/6
f 42/1/1 43/2/1 41/3/1
f 48/6/6 77/13/6 56/8/6
f 13/5/3 46/8/3 45/7/3
f 41/3/1 86/1/1 42/1/1
f 13/5/7 41/10/7 43/11/7
f 44/12/8 46/8/8 14/6/8
f 50/1/1 73/2/1 49/3/1
f 42/13/6 85/8/6 46/8/6
f 78/6/3 53/7/3 55/5/3
f 54/8/4 49/9/4 53/7/4
f 73/11/5 53/7/5 49/10/5
f 52/12/6 54/8/6 78/6/6
f 58/1/1 59/2/1 57/3/1
f 60/4/2 63/5/2 59/2/2
f 64/6/3 61/7/3 63/5/3
f 62/8/4 57/9/4 61/7/4
f 59/11/5 61/7/5 57/10/5
f 66/1/1 81/2/1 65/3/1
f 45/7/5 88/10/5 41/10/5
f 72/6/3 69/7/3 71/5/3
f 70/8/4 65/9/4 69/7/4
f 81/11/5 69/7/5 65/10/5
f 82/12/6 70/8/6 72/6/6
f 52/1/1 75/2/1 73/3/1
f 51/5/5 79/10/5 74/11/5
f 21/5/3 78/8/3 55/7/3
f 56/8/4 79/9/4 67/7/4
f 21/5/7 73/10/7 75/11/7
f 76/12/8 78/8/8 22/6/8
f 82/1/1 83/2/1 81/3/1
f 142/8/4 137/9/4 141/7/4
f 87/5/3 72/8/3 71/7/3
f 68/4/2 51/5/2 74/2/2
f 87/5/7 81/10/7 83/11/7
f 84/12/8 72/8/8 38/6/8
f 143/5/5 137/10/5 139/11/5
f 47/6/6 10/13/6 34/8/6
f 37/5/5 9/10/5 17/11/5
f 34/8/4 9/9/4 33/7/4
f 144/6/6 138/13/6 142/8/6
f 18/4/2 37/5/2 17/2/2
f 136/6/6 130/13/6 134/8/6
f 96/6/6 90/13/6 94/8/6
f 95/5/5 89/10/5 91/11/5
f 94/8/4 89/9/4 93/7/4
f 135/5/5 129/10/5 131/11/5
f 92/4/2 95/5/2 91/2/2
f 134/8/4 129/9/4 133/7/4
f 104/6/6 98/13/6 102/8/6
f 103/5/5 97/10/5 99/11/5
f 102/8/4 97/9/4 101/7/4
f 132/4/2 135/5/2 131/2/2
f 100/4/2 103/5/2 99/2/2
f 124/4/2 127/5/2 123/2/2
f 112/6/6 106/13/6 110/8/6
f 111/5/5 105/10/5 107/11/5
f 110/8/4 105/9/4 109/7/4
f 126/8/4 121/9/4 125/7/4
f 108/4/2 111/5/2 107/2/2
f 127/5/5 121/10/5 123/11/5
f 120/6/6 114/13/6 118/8/6
f 119/5/5 113/10/5 115/11/5
f 118/8/4 113/9/4 117/7/4
f 128/6/6 122/13/6 126/8/6
f 116/4/2 119/5/2 115/2/2
f 148/4/2 151/5/2 147/2/2
f 150/8/4 145/9/4 149/7/4
f 151/5/5 145/10/5 147/11/5
f 152/6/6 146/13/6 150/8/6
f 156/4/2 159/5/2 155/2/2
f 158/8/4 153/9/4 157/7/4
f 159/5/5 153/10/5 155/11/5
f 160/6/6 154/13/6 158/8/6
f 162/1/1 163/2/1 161/3/1
f 164/4/2 167/5/2 163/2/2
f 168/6/3 165/7/3 167/5/3
f 166/8/4 161/9/4 165/7/4
f 163/11/5 165/7/5 161/10/5
f 169/2/3 197/1/3 196/3/3
f 173/5/2 170/4/2 169/2/2
f 171/7/1 174/6/1 173/5/1
f 232/9/4 229/8/4 224/7/4
f 196/10/5 173/5/5 169/11/5
f 172/8/6 170/12/6 174/6/6
f 175/2/3 222/1/3 221/3/3
f 179/5/2 176/4/2 175/2/2
f 177/7/1 180/6/1 179/5/1
f 221/10/5 179/5/5 175/11/5
f 178/8/6 176/12/6 180/6/6
f 183/2/3 182/1/3 181/3/3
f 187/5/2 184/4/2 183/2/2
f 185/7/1 188/6/1 187/5/1
f 181/9/4 186/8/4 185/7/4
f 181/10/5 187/5/5 183/11/5
f 189/2/3 228/1/3 227/3/3
f 192/5/2 190/4/2 189/2/2
f 231/7/1 193/6/1 192/5/1
f 224/7/1 199/8/1 198/7/1
f 189/11/5 231/7/5 192/5/5
f 191/8/6 190/12/6 193/6/6
f 196/2/3 195/1/3 194/3/3
f 171/5/1 199/8/1 172/6/1
f 230/1/3 194/3/3 195/1/3
f 194/10/7 171/5/7 196/11/7
f 199/8/8 197/12/8 172/6/8
f 220/2/3 201/1/3 200/3/3
f 229/8/6 195/13/6 199/8/6
f 203/7/1 223/6/1 205/5/1
f 200/9/4 204/8/4 203/7/4
f 220/11/5 203/7/5 205/5/5
f 204/8/6 202/12/6 223/6/6
f 208/2/3 207/1/3 206/3/3
f 212/5/2 209/4/2 208/2/2
f 210/7/1 213/6/1 212/5/1
f 206/9/4 211/8/4 210/7/4
f 208/11/5 210/7/5 212/5/5
f 225/2/3 215/1/3 214/3/3
f 232/10/5 198/7/5 194/10/5
f 216/7/1 219/6/1 218/5/1
f 214/9/4 217/8/4 216/7/4
f 225/11/5 216/7/5 218/5/5
f 217/8/6 226/12/6 219/6/6
f 221/2/3 202/1/3 220/3/3
f 177/5/1 223/8/1 178/6/1
f 221/11/7 205/7/7 177/5/7
f 178/6/8 202/13/8 222/12/8
f 227/2/3 226/1/3 225/3/3
f 231/5/1 219/8/1 191/6/1
f 227/11/7 218/7/7 231/5/7
f 219/8/8 228/12/8 191/6/8
f 235/2/3 234/1/3 233/3/3
f 239/5/2 236/4/2 235/2/2
f 237/7/1 240/6/1 239/5/1
f 233/9/4 238/8/4 237/7/4
f 233/10/5 239/5/5 235/11/5
f 2/1/1 4/4/1 3/2/1
f 4/4/2 8/6/2 7/5/2
f 8/6/3 6/8/3 5/7/3
f 6/8/4 2/14/4 1/9/4
f 7/5/5 5/7/5 1/10/5
f 4/12/6 2/13/6 6/8/6
f 44/1/1 12/4/1 11/2/1
f 12/4/2 16/6/2 15/5/2
f 16/6/3 14/8/3 13/7/3
f 85/8/4 86/14/4 88/9/4
f 11/11/5 15/5/5 13/7/5
f 12/12/6 44/13/6 14/8/6
f 76/1/1 20/4/1 19/2/1
f 20/4/2 24/6/2 23/5/2
f 24/6/3 22/8/3 21/7/3
f 140/4/2 144/6/2 143/5/2
f 19/11/5 23/5/5 21/7/5
f 20/12/6 76/13/6 22/8/6
f 26/1/1 28/4/1 27/2/1
f 28/4/2 32/6/2 31/5/2
f 32/6/3 30/8/3 29/7/3
f 30/8/4 26/14/4 25/9/4
f 31/5/5 29/7/5 25/10/5
f 84/1/1 36/4/1 35/2/1
f 36/4/2 40/6/2 39/5/2
f 40/6/3 38/8/3 87/7/3
f 46/8/3 85/8/3 80/7/3
f 35/11/5 39/5/5 87/7/5
f 36/12/6 84/13/6 38/8/6
f 42/1/1 44/4/1 43/2/1
f 48/6/6 68/12/6 77/13/6
f 13/5/3 14/6/3 46/8/3
f 41/3/1 88/3/1 86/1/1
f 13/5/7 45/7/7 41/10/7
f 44/12/8 42/13/8 46/8/8
f 50/1/1 52/4/1 73/2/1
f 42/13/6 86/13/6 85/8/6
f 78/6/3 54/8/3 53/7/3
f 54/8/4 50/14/4 49/9/4
f 73/11/5 55/5/5 53/7/5
f 52/12/6 50/13/6 54/8/6
f 58/1/1 60/4/1 59/2/1
f 60/4/2 64/6/2 63/5/2
f 64/6/3 62/8/3 61/7/3
f 62/8/4 58/14/4 57/9/4
f 59/11/5 63/5/5 61/7/5
f 66/1/1 82/4/1 81/2/1
f 45/7/5 80/7/5 88/10/5
f 72/6/3 70/8/3 69/7/3
f 70/8/4 66/14/4 65/9/4
f 81/11/5 71/5/5 69/7/5
f 82/12/6 66/13/6 70/8/6
f 52/1/1 76/4/1 75/2/1
f 51/5/5 67/7/5 79/10/5
f 21/5/3 22/6/3 78/8/3
f 56/8/4 77/14/4 79/9/4
f 21/5/7 55/7/7 73/10/7
f 76/12/8 52/13/8 78/8/8
f 82/1/1 84/4/1 83/2/1
f 142/8/4 138/14/4 137/9/4
f 87/5/3 38/6/3 72/8/3
f 68/4/2 48/6/2 51/5/2
f 87/5/7 71/7/7 81/10/7
f 84/12/8 82/13/8 72/8/8
f 143/5/5 141/7/5 137/10/5
f 47/6/6 18/12/6 10/13/6
f 37/5/5 33/7/5 9/10/5
f 34/8/4 10/14/4 9/9/4
f 144/6/6 140/12/6 138/13/6
f 18/4/2 47/6/2 37/5/2
f 136/6/6 132/12/6 130/13/6
f 96/6/6 92/12/6 90/13/6
f 95/5/5 93/7/5 89/10/5
f 94/8/4 90/14/4 89/9/4
f 135/5/5 133/7/5 129/10/5
f 92/4/2 96/6/2 95/5/2
f 134/8/4 130/14/4 129/9/4
f 104/6/6 100/12/6 98/13/6
f 103/5/5 101/7/5 97/10/5
f 102/8/4 98/14/4 97/9/4
f 132/4/2 136/6/2 135/5/2
f 100/4/2 104/6/2 103/5/2
f 124/4/2 128/6/2 127/5/2
f 112/6/6 108/12/6 106/13/6
f 111/5/5 109/7/5 105/10/5
f 110/8/4 106/14/4 105/9/4
f 126/8/4 122/14/4 121/9/4
f 108/4/2 112/6/2 111/5/2
f 127/5/5 125/7/5 121/10/5
f 120/6/6 116/12/6 114/13/6
f 119/5/5 117/7/5 113/10/5
f 118/8/4 114/14/4 113/9/4
f 128/6/6 124/12/6 122/13/6
f 116/4/2 120/6/2 119/5/2
f 148/4/2 152/6/2 151/5/2
f 150/8/4 146/14/4 145/9/4
f 151/5/5 149/7/5 145/10/5
f 152/6/6 148/12/6 146/13/6
f 156/4/2 160/6/2 159/5/2
f 158/8/4 154/14/4 153/9/4
f 159/5/5 157/7/5 153/10/5
f 160/6/6 156/12/6 154/13/6
f 162/1/1 164/4/1 163/2/1
f 164/4/2 168/6/2 167/5/2
f 168/6/3 166/8/3 165/7/3
f 166/8/4 162/14/4 161/9/4
f 163/11/5 167/5/5 165/7/5
f 169/2/3 170/4/3 197/1/3
f 173/5/2 174/6/2 170/4/2
f 171/7/1 172/8/1 174/6/1
f 232/9/4 230/14/4 229/8/4
f 196/10/5 171/7/5 173/5/5
f 172/8/6 197/13/6 170/12/6
f 175/2/3 176/4/3 222/1/3
f 179/5/2 180/6/2 176/4/2
f 177/7/1 178/8/1 180/6/1
f 221/10/5 177/7/5 179/5/5
f 178/8/6 222/13/6 176/12/6
f 183/2/3 184/4/3 182/1/3
f 187/5/2 188/6/2 184/4/2
f 185/7/1 186/8/1 188/6/1
f 181/9/4 182/14/4 186/8/4
f 181/10/5 185/7/5 187/5/5
f 189/2/3 190/4/3 228/1/3
f 192/5/2 193/6/2 190/4/2
f 231/7/1 191/8/1 193/6/1
f 224/7/1 229/8/1 199/8/1
f 189/11/5 227/10/5 231/7/5
f 191/8/6 228/13/6 190/12/6
f 196/2/3 197/4/3 195/1/3
f 171/5/1 198/7/1 199/8/1
f 230/1/3 232/3/3 194/3/3
f 194/10/7 198/7/7 171/5/7
f 199/8/8 195/13/8 197/12/8
f 220/2/3 202/4/3 201/1/3
f 229/8/6 230/13/6 195/13/6
f 203/7/1 204/8/1 223/6/1
f 200/9/4 201/14/4 204/8/4
f 220/11/5 200/10/5 203/7/5
f 204/8/6 201/13/6 202/12/6
f 208/2/3 209/4/3 207/1/3
f 212/5/2 213/6/2 209/4/2
f 210/7/1 211/8/1 213/6/1
f 206/9/4 207/14/4 211/8/4
f 208/11/5 206/10/5 210/7/5
f 225/2/3 226/4/3 215/1/3
f 232/10/5 224/7/5 198/7/5
f 216/7/1 217/8/1 219/6/1
f 214/9/4 215/14/4 217/8/4
f 225/11/5 214/10/5 216/7/5
f 217/8/6 215/13/6 226/12/6
f 221/2/3 222/4/3 202/1/3
f 177/5/1 205/7/1 223/8/1
f 221/11/7 220/10/7 205/7/7
f 178/6/8 223/8/8 202/13/8
f 227/2/3 228/4/3 226/1/3
f 231/5/1 218/7/1 219/8/1
f 227/11/7 225/10/7 218/7/7
f 219/8/8 226/13/8 228/12/8
f 235/2/3 236/4/3 234/1/3
f 239/5/2 240/6/2 236/4/2
f 237/7/1 238/8/1 240/6/1
f 233/9/4 234/14/4 238/8/4
f 233/10/5 237/7/5 239/5/5
