# Blender 4.3.2
# www.blender.org
mtllib WoodenCatWalkTJoint.mtl
g WoodenCatWalkTJoint_Mesh
v 1.000000 -0.100000 -0.000000
v 1.000000 0.000000 -0.000000
v 1.000000 -0.100000 2.000000
v 1.000000 0.000000 2.000000
v -1.000000 -0.100000 0.000000
v -1.000000 0.000000 0.000000
v -1.000000 -0.100000 2.000000
v -1.000000 0.000000 2.000000
v 1.000000 -0.200000 1.800000
v 1.000000 0.100000 1.800000
v 1.000000 -0.200000 1.900000
v 1.000000 0.100000 1.900000
v -1.000000 -0.200000 1.800000
v -1.000000 0.100000 1.800000
v -1.000000 -0.200000 1.900000
v -1.000000 0.100000 1.900000
v 1.000000 0.450000 1.900000
v 1.000000 0.550000 1.900000
v 1.000000 0.450000 2.000000
v 1.000000 0.550000 2.000000
v -1.000000 0.450000 1.900000
v -1.000000 0.550000 1.900000
v -1.000000 0.450000 2.000000
v -1.000000 0.550000 2.000000
v 1.000000 1.000000 1.800000
v 1.000000 1.100000 1.800000
v 1.000000 1.000000 2.000000
v 1.000000 1.100000 2.000000
v -1.000000 1.000000 1.800000
v -1.000000 1.100000 1.800000
v -1.000000 1.000000 2.000000
v -1.000000 1.100000 2.000000
v -0.850000 -0.250000 1.850000
v -0.850000 1.000000 1.850000
v -0.850000 -0.250000 1.950000
v -0.850000 1.000000 1.950000
v -0.950000 -0.250000 1.850000
v -0.950000 1.000000 1.850000
v -0.950000 -0.250000 1.950000
v -0.950000 1.000000 1.950000
v 0.950000 -0.250000 1.850000
v 0.950000 1.000000 1.850000
v 0.950000 -0.250000 1.950000
v 0.950000 1.000000 1.950000
v 0.850000 -0.250000 1.850000
v 0.850000 1.000000 1.850000
v 0.850000 -0.250000 1.950000
v 0.850000 1.000000 1.950000
v 0.050000 -0.250000 1.850000
v 0.050000 1.000000 1.850000
v 0.050000 -0.250000 1.950000
v 0.050000 1.000000 1.950000
v -0.050000 -0.250000 1.850000
v -0.050000 1.000000 1.850000
v -0.050000 -0.250000 1.950000
v -0.050000 1.000000 1.950000
v -0.800000 1.000000 0.000000
v -0.800000 1.100000 0.000000
v -0.800000 1.000000 0.200000
v -0.800000 1.100000 0.200000
v -1.000000 1.000000 0.000000
v -1.000000 1.100000 0.000000
v -1.000000 1.000000 0.200000
v -1.000000 1.100000 0.200000
v -0.900000 0.450000 0.000000
v -0.900000 0.550000 0.000000
v -0.900000 0.450000 0.100000
v -0.900000 0.550000 0.100000
v -1.000000 0.450000 0.000000
v -1.000000 0.550000 0.000000
v -1.000000 0.450000 0.100000
v -1.000000 0.550000 0.100000
v -0.850000 -0.250000 0.050000
v -0.850000 1.000000 0.050000
v -0.850000 -0.250000 0.150000
v -0.850000 1.000000 0.150000
v -0.950000 -0.250000 0.050000
v -0.950000 1.000000 0.050000
v -0.950000 -0.250000 0.150000
v -0.950000 1.000000 0.150000
v -0.900000 -0.200000 0.100000
v -0.900000 0.100000 0.100000
v -0.800000 -0.200000 0.200000
v -0.800000 0.100000 0.200000
v -1.000000 -0.200000 0.100000
v -1.000000 0.100000 0.100000
v -1.000000 -0.200000 0.200000
v -1.000000 0.100000 0.200000
v 0.800000 1.100000 -0.000000
v 0.800000 1.000000 -0.000000
v 0.800000 1.100000 0.200000
v 0.800000 1.000000 0.200000
v -0.900000 -0.200000 0.000000
v -0.900000 0.100000 0.000000
v -0.800000 -0.200000 0.000000
v -0.800000 0.100000 0.000000
v 1.000000 1.000000 -0.000000
v 1.000000 1.100000 -0.000000
v 1.000000 1.000000 0.200000
v 1.000000 1.100000 0.200000
v 0.900000 0.450000 0.000000
v 0.900000 0.550000 0.000000
v 0.900000 0.450000 0.100000
v 0.900000 0.550000 0.100000
v 1.000000 0.450000 0.000000
v 1.000000 0.550000 0.000000
v 1.000000 0.450000 0.100000
v 1.000000 0.550000 0.100000
v 0.850000 -0.250000 0.050000
v 0.850000 1.000000 0.050000
v 0.850000 -0.250000 0.150000
v 0.850000 1.000000 0.150000
v 0.950000 -0.250000 0.050000
v 0.950000 1.000000 0.050000
v 0.950000 -0.250000 0.150000
v 0.950000 1.000000 0.150000
v 0.900000 -0.200000 0.100000
v 0.900000 0.100000 0.100000
v 0.800000 -0.200000 0.200000
v 0.800000 0.100000 0.200000
v 1.000000 -0.200000 0.100000
v 1.000000 0.100000 0.100000
v 1.000000 -0.200000 0.200000
v 1.000000 0.100000 0.200000
v 0.900000 -0.200000 0.000000
v 0.900000 0.100000 0.000000
v 0.800000 -0.200000 0.000000
v 0.800000 0.100000 0.000000
vn 1.0000 -0.0000 -0.0000
vn -0.0000 -0.0000 1.0000
vn -1.0000 -0.0000 -0.0000
vn -0.0000 -0.0000 -1.0000
vn -0.0000 -1.0000 -0.0000
vn -0.0000 1.0000 -0.0000
vt 0.625000 0.000000
vt 0.375000 0.250000
vt 0.375000 0.000000
vt 0.625000 0.250000
vt 0.375000 0.500000
vt 0.625000 0.500000
vt 0.375000 0.750000
vt 0.625000 0.750000
vt 0.375000 1.000000
vt 0.125000 0.750000
vt 0.125000 0.500000
vt 0.875000 0.750000
vt 0.875000 0.500000
vt 0.625000 1.000000
s 0
f 2/1/1 3/2/1 1/3/1
f 4/4/2 7/5/2 3/2/2
f 8/6/3 5/7/3 7/5/3
f 6/8/4 1/9/4 5/7/4
f 7/5/5 1/10/5 3/11/5
f 8/6/6 2/12/6 6/8/6
f 10/1/1 11/2/1 9/3/1
f 12/4/2 15/5/2 11/2/2
f 16/6/3 13/7/3 15/5/3
f 14/8/4 9/9/4 13/7/4
f 15/5/5 9/10/5 11/11/5
f 12/13/6 14/8/6 16/6/6
f 18/1/1 19/2/1 17/3/1
f 20/4/2 23/5/2 19/2/2
f 24/6/3 21/7/3 23/5/3
f 22/8/4 17/9/4 21/7/4
f 23/5/5 17/10/5 19/11/5
f 20/13/6 22/8/6 24/6/6
f 26/1/1 27/2/1 25/3/1
f 28/4/2 31/5/2 27/2/2
f 32/6/3 29/7/3 31/5/3
f 30/8/4 25/9/4 29/7/4
f 31/5/5 25/10/5 27/11/5
f 28/13/6 30/8/6 32/6/6
f 34/1/1 35/2/1 33/3/1
f 36/4/2 39/5/2 35/2/2
f 40/6/3 37/7/3 39/5/3
f 38/8/4 33/9/4 37/7/4
f 39/5/5 33/10/5 35/11/5
f 36/13/6 38/8/6 40/6/6
f 42/1/1 43/2/1 41/3/1
f 44/4/2 47/5/2 43/2/2
f 48/6/3 45/7/3 47/5/3
f 46/8/4 41/9/4 45/7/4
f 47/5/5 41/10/5 43/11/5
f 44/13/6 46/8/6 48/6/6
f 50/1/1 51/2/1 49/3/1
f 52/4/2 55/5/2 51/2/2
f 56/6/3 53/7/3 55/5/3
f 54/8/4 49/9/4 53/7/4
f 55/5/5 49/10/5 51/11/5
f 56/6/6 50/12/6 54/8/6
f 58/1/1 59/2/1 57/3/1
f 60/4/2 63/5/2 59/2/2
f 64/6/3 61/7/3 63/5/3
f 62/8/4 57/9/4 61/7/4
f 59/11/5 61/7/5 57/10/5
f 60/13/6 62/8/6 64/6/6
f 66/1/1 67/2/1 65/3/1
f 68/4/2 71/5/2 67/2/2
f 72/6/3 69/7/3 71/5/3
f 70/8/4 65/9/4 69/7/4
f 67/11/5 69/7/5 65/10/5
f 68/13/6 70/8/6 72/6/6
f 74/1/1 75/2/1 73/3/1
f 76/4/2 79/5/2 75/2/2
f 80/6/3 77/7/3 79/5/3
f 78/8/4 73/9/4 77/7/4
f 75/11/5 77/7/5 73/10/5
f 76/13/6 78/8/6 80/6/6
f 90/9/4 98/8/4 97/7/4
f 84/4/2 87/5/2 83/2/2
f 88/6/3 85/7/3 87/5/3
f 86/8/4 81/9/4 85/7/4
f 87/5/5 81/10/5 83/11/5
f 88/6/6 82/12/6 86/8/6
f 97/7/1 100/6/1 99/5/1
f 82/14/3 93/9/3 81/9/3
f 90/10/5 99/5/5 92/11/5
f 99/5/2 91/4/2 92/2/2
f 94/14/4 95/9/4 93/9/4
f 81/10/5 95/10/5 83/10/5
f 83/3/1 96/1/1 84/1/1
f 82/12/6 96/12/6 94/12/6
f 92/2/3 89/1/3 90/3/3
f 100/6/6 89/12/6 91/13/6
f 103/2/3 102/1/3 101/3/3
f 107/5/2 104/4/2 103/2/2
f 105/7/1 108/6/1 107/5/1
f 101/9/4 106/8/4 105/7/4
f 101/10/5 107/5/5 103/11/5
f 106/8/6 104/13/6 108/6/6
f 111/2/3 110/1/3 109/3/3
f 115/5/2 112/4/2 111/2/2
f 113/7/1 116/6/1 115/5/1
f 109/9/4 114/8/4 113/7/4
f 109/10/5 115/5/5 111/11/5
f 114/8/6 112/13/6 116/6/6
f 123/5/2 120/4/2 119/2/2
f 121/7/1 124/6/1 123/5/1
f 117/9/4 122/8/4 121/7/4
f 117/10/5 123/5/5 119/11/5
f 124/6/6 118/12/6 120/13/6
f 125/9/1 118/14/1 117/9/1
f 127/9/4 126/14/4 125/9/4
f 127/10/5 117/10/5 119/10/5
f 128/1/3 119/3/3 120/1/3
f 118/12/6 128/12/6 120/12/6
f 2/1/1 4/4/1 3/2/1
f 4/4/2 8/6/2 7/5/2
f 8/6/3 6/8/3 5/7/3
f 6/8/4 2/14/4 1/9/4
f 7/5/5 5/7/5 1/10/5
f 8/6/6 4/13/6 2/12/6
f 10/1/1 12/4/1 11/2/1
f 12/4/2 16/6/2 15/5/2
f 16/6/3 14/8/3 13/7/3
f 14/8/4 10/14/4 9/9/4
f 15/5/5 13/7/5 9/10/5
f 12/13/6 10/12/6 14/8/6
f 18/1/1 20/4/1 19/2/1
f 20/4/2 24/6/2 23/5/2
f 24/6/3 22/8/3 21/7/3
f 22/8/4 18/14/4 17/9/4
f 23/5/5 21/7/5 17/10/5
f 20/13/6 18/12/6 22/8/6
f 26/1/1 28/4/1 27/2/1
f 28/4/2 32/6/2 31/5/2
f 32/6/3 30/8/3 29/7/3
f 30/8/4 26/14/4 25/9/4
f 31/5/5 29/7/5 25/10/5
f 28/13/6 26/12/6 30/8/6
f 34/1/1 36/4/1 35/2/1
f 36/4/2 40/6/2 39/5/2
f 40/6/3 38/8/3 37/7/3
f 38/8/4 34/14/4 33/9/4
f 39/5/5 37/7/5 33/10/5
f 36/13/6 34/12/6 38/8/6
f 42/1/1 44/4/1 43/2/1
f 44/4/2 48/6/2 47/5/2
f 48/6/3 46/8/3 45/7/3
f 46/8/4 42/14/4 41/9/4
f 47/5/5 45/7/5 41/10/5
f 44/13/6 42/12/6 46/8/6
f 50/1/1 52/4/1 51/2/1
f 52/4/2 56/6/2 55/5/2
f 56/6/3 54/8/3 53/7/3
f 54/8/4 50/14/4 49/9/4
f 55/5/5 53/7/5 49/10/5
f 56/6/6 52/13/6 50/12/6
f 58/1/1 60/4/1 59/2/1
f 60/4/2 64/6/2 63/5/2
f 64/6/3 62/8/3 61/7/3
f 62/8/4 58/14/4 57/9/4
f 59/11/5 63/5/5 61/7/5
f 60/13/6 58/12/6 62/8/6
f 66/1/1 68/4/1 67/2/1
f 68/4/2 72/6/2 71/5/2
f 72/6/3 70/8/3 69/7/3
f 70/8/4 66/14/4 65/9/4
f 67/11/5 71/5/5 69/7/5
f 68/13/6 66/12/6 70/8/6
f 74/1/1 76/4/1 75/2/1
f 76/4/2 80/6/2 79/5/2
f 80/6/3 78/8/3 77/7/3
f 78/8/4 74/14/4 73/9/4
f 75/11/5 79/5/5 77/7/5
f 76/13/6 74/12/6 78/8/6
f 90/9/4 89/14/4 98/8/4
f 84/4/2 88/6/2 87/5/2
f 88/6/3 86/8/3 85/7/3
f 86/8/4 82/14/4 81/9/4
f 87/5/5 85/7/5 81/10/5
f 88/6/6 84/13/6 82/12/6
f 97/7/1 98/8/1 100/6/1
f 82/14/3 94/14/3 93/9/3
f 90/10/5 97/7/5 99/5/5
f 99/5/2 100/6/2 91/4/2
f 94/14/4 96/14/4 95/9/4
f 81/10/5 93/10/5 95/10/5
f 83/3/1 95/3/1 96/1/1
f 82/12/6 84/12/6 96/12/6
f 92/2/3 91/4/3 89/1/3
f 100/6/6 98/8/6 89/12/6
f 103/2/3 104/4/3 102/1/3
f 107/5/2 108/6/2 104/4/2
f 105/7/1 106/8/1 108/6/1
f 101/9/4 102/14/4 106/8/4
f 101/10/5 105/7/5 107/5/5
f 106/8/6 102/12/6 104/13/6
f 111/2/3 112/4/3 110/1/3
f 115/5/2 116/6/2 112/4/2
f 113/7/1 114/8/1 116/6/1
f 109/9/4 110/14/4 114/8/4
f 109/10/5 113/7/5 115/5/5
f 114/8/6 110/12/6 112/13/6
f 123/5/2 124/6/2 120/4/2
f 121/7/1 122/8/1 124/6/1
f 117/9/4 118/14/4 122/8/4
f 117/10/5 121/7/5 123/5/5
f 124/6/6 122/8/6 118/12/6
f 125/9/1 126/14/1 118/14/1
f 127/9/4 128/14/4 126/14/4
f 127/10/5 125/10/5 117/10/5
f 128/1/3 127/3/3 119/3/3
f 118/12/6 126/12/6 128/12/6
