# Blender 5.0.1
# www.blender.org
mtllib CrossPumpPipes.mtl
o BézierCurve.012
v -0.910000 2.350000 5.165359
v -0.870000 2.350000 5.165359
v -0.850000 2.350000 5.200000
v -0.870000 2.350000 5.234641
v -0.910000 2.350000 5.234641
v -0.930000 2.350000 5.200000
v -0.917285 2.223176 5.152565
v -0.877672 2.217667 5.151886
v -0.858454 2.206536 5.185153
v -0.878849 2.200912 5.219101
v -0.918462 2.206421 5.219780
v -0.937680 2.217552 5.186512
v -0.936301 2.142171 5.119172
v -0.898315 2.130149 5.115635
v -0.882384 2.105853 5.143130
v -0.904440 2.093581 5.174161
v -0.942426 2.105603 5.177698
v -0.958357 2.129898 5.150203
v -0.964330 2.093604 5.069951
v -0.929146 2.076558 5.061493
v -0.918879 2.042110 5.079042
v -0.943796 2.024709 5.105049
v -0.978979 2.041755 5.113507
v -0.989246 2.076203 5.095958
v -1.001270 2.066370 5.005080
v -0.968706 2.047159 4.992022
v -0.963732 2.008337 5.000276
v -0.991323 1.988726 5.021587
v -1.023887 2.007937 5.034645
v -1.028861 2.046759 5.026391
v -1.045966 2.054589 4.926590
v -1.015001 2.034855 4.910723
v -1.013260 1.994976 4.913300
v -1.042483 1.974831 4.931744
v -1.073448 1.994565 4.947610
v -1.075189 2.034444 4.945034
v -1.095469 2.052302 4.839658
v -1.065134 2.032510 4.822685
v -1.064665 1.992514 4.823027
v -1.094532 1.972310 4.840342
v -1.124866 1.992102 4.857315
v -1.125335 2.032098 4.856973
v -1.146681 2.051970 4.749724
v -1.116130 2.032189 4.733131
v -1.115225 1.992214 4.734240
v -1.144870 1.972021 4.751943
v -1.175421 1.991802 4.768536
v -1.176327 2.031777 4.767427
v -1.196970 2.044959 4.661413
v -1.165251 2.025404 4.646871
v -1.161985 1.985885 4.652125
v -1.190438 1.965922 4.671921
v -1.222157 1.985478 4.686463
v -1.225423 2.024997 4.681209
v -1.244008 2.021009 4.578808
v -1.209911 2.002845 4.568442
v -1.201841 1.966138 4.582133
v -1.227867 1.947595 4.606192
v -1.261964 1.965760 4.616559
v -1.270034 2.002467 4.602867
v -1.284076 1.968025 4.508446
v -1.246824 1.954277 4.503620
v -1.232378 1.926494 4.528508
v -1.255184 1.912459 4.558222
v -1.292435 1.926208 4.563048
v -1.306882 1.953990 4.538160
v -1.310799 1.878263 4.461517
v -1.271360 1.871661 4.460532
v -1.252494 1.858319 4.493182
v -1.273067 1.851579 4.526818
v -1.312506 1.858181 4.527803
v -1.331372 1.871523 4.495152
v -1.320000 1.750000 4.445359
v -1.280000 1.750000 4.445359
v -1.260000 1.750000 4.480000
v -1.280000 1.750000 4.514641
v -1.320000 1.750000 4.514641
v -1.340000 1.750000 4.480000
vn -0.4968 0.1159 -0.8601
vn 0.5268 0.0556 -0.8482
vn 0.9975 -0.0624 0.0325
vn 0.4963 -0.1187 0.8600
vn -0.4708 -0.0636 0.8800
vn -0.9980 0.0543 0.0323
vn -0.4810 0.2764 -0.8320
vn 0.5488 0.1284 -0.8260
vn 0.9885 -0.1491 0.0253
vn 0.4800 -0.2799 0.8314
vn -0.4726 -0.1519 0.8681
vn -0.9901 0.1254 0.0623
vn -0.3987 0.6072 -0.6873
vn 0.5974 0.2745 -0.7535
vn 0.9436 -0.3283 -0.0434
vn 0.3979 -0.6076 0.6874
vn -0.5096 -0.3342 0.7929
vn -0.9533 0.2678 0.1396
vn -0.2558 0.8626 -0.4364
vn 0.6563 0.3969 -0.6417
vn 0.8693 -0.4601 -0.1807
vn 0.2574 -0.8600 0.4406
vn -0.5911 -0.4684 0.6566
vn -0.8889 0.3875 0.2445
vn -0.1233 0.9712 -0.2041
vn 0.7067 0.4644 -0.5337
vn 0.8044 -0.5054 -0.3123
vn 0.1252 -0.9700 0.2083
vn -0.6725 -0.5150 0.5315
vn -0.8233 0.4541 0.3405
vn -0.0431 0.9970 -0.0635
vn 0.7377 0.4909 -0.4635
vn 0.7683 -0.5063 -0.3917
vn 0.0439 -0.9969 0.0652
vn -0.7232 -0.5164 0.4586
vn -0.7797 0.4804 0.4015
vn -0.0117 0.9999 -0.0084
vn 0.7479 0.5028 -0.4334
vn 0.7571 -0.4974 -0.4235
vn 0.0118 -0.9999 0.0087
vn -0.7453 -0.5076 0.4322
vn -0.7595 0.4925 0.4251
vn -0.0229 0.9993 -0.0282
vn 0.7369 0.5126 -0.4408
vn 0.7672 -0.4869 -0.4174
vn 0.0224 -0.9994 0.0272
vn -0.7452 -0.4973 0.4442
vn -0.7601 0.5024 0.4121
vn -0.0825 0.9876 -0.1332
vn 0.6984 0.5193 -0.4925
vn 0.8010 -0.4682 -0.3731
vn 0.0806 -0.9883 0.1292
vn -0.7237 -0.4787 0.4970
vn -0.7845 0.5094 0.3537
vn -0.2031 0.9163 -0.3452
vn 0.6224 0.4970 -0.6047
vn 0.8628 -0.4167 -0.2861
vn 0.2000 -0.9195 0.3385
vn -0.6794 -0.4267 0.5970
vn -0.8411 0.4881 0.2332
vn -0.3612 0.6938 -0.6230
vn 0.5258 0.3844 -0.7587
vn 0.9372 -0.3022 -0.1744
vn 0.3611 -0.6956 0.6211
vn -0.6196 -0.3098 0.7212
vn -0.9229 0.3778 0.0741
vn -0.4710 0.3356 -0.8158
vn 0.4703 0.1844 -0.8630
vn 0.9859 -0.1471 -0.0795
vn 0.4725 -0.3310 0.8168
vn -0.5616 -0.1507 0.8136
vn -0.9831 0.1812 -0.0250
vn -0.4946 0.1428 -0.8573
vn 0.4646 0.0774 -0.8821
vn 0.9972 -0.0639 -0.0385
vn 0.4955 -0.1377 0.8576
vn -0.5317 -0.0654 0.8444
vn -0.9963 0.0760 -0.0390
vt 0.000000 1.000000
vt 0.083333 1.000000
vt 0.083333 0.833333
vt 0.000000 0.833333
vt 0.000000 0.166667
vt 0.083333 0.166667
vt 0.083333 0.000000
vt 0.000000 0.000000
vt 0.000000 0.333333
vt 0.083333 0.333333
vt 0.000000 0.500000
vt 0.083333 0.500000
vt 0.000000 0.666667
vt 0.083333 0.666667
vt 0.166667 1.000000
vt 0.166667 0.833333
vt 0.166667 0.166667
vt 0.166667 0.000000
vt 0.166667 0.333333
vt 0.166667 0.500000
vt 0.166667 0.666667
vt 0.250000 1.000000
vt 0.250000 0.833333
vt 0.250000 0.166667
vt 0.250000 0.000000
vt 0.250000 0.333333
vt 0.250000 0.500000
vt 0.250000 0.666667
vt 0.333333 1.000000
vt 0.333333 0.833333
vt 0.333333 0.166667
vt 0.333333 0.000000
vt 0.333333 0.333333
vt 0.333333 0.500000
vt 0.333333 0.666667
vt 0.416667 1.000000
vt 0.416667 0.833333
vt 0.416667 0.166667
vt 0.416667 0.000000
vt 0.416667 0.333333
vt 0.416667 0.500000
vt 0.416667 0.666667
vt 0.500000 1.000000
vt 0.500000 0.833333
vt 0.500000 0.166667
vt 0.500000 0.000000
vt 0.500000 0.333333
vt 0.500000 0.500000
vt 0.500000 0.666667
vt 0.583333 1.000000
vt 0.583333 0.833333
vt 0.583333 0.166667
vt 0.583333 0.000000
vt 0.583333 0.333333
vt 0.583333 0.500000
vt 0.583333 0.666667
vt 0.666667 1.000000
vt 0.666667 0.833333
vt 0.666667 0.166667
vt 0.666667 0.000000
vt 0.666667 0.333333
vt 0.666667 0.500000
vt 0.666667 0.666667
vt 0.750000 1.000000
vt 0.750000 0.833333
vt 0.750000 0.166667
vt 0.750000 0.000000
vt 0.750000 0.333333
vt 0.750000 0.500000
vt 0.750000 0.666667
vt 0.833333 1.000000
vt 0.833333 0.833333
vt 0.833333 0.166667
vt 0.833333 0.000000
vt 0.833333 0.333333
vt 0.833333 0.500000
vt 0.833333 0.666667
vt 0.916667 1.000000
vt 0.916667 0.833333
vt 0.916667 0.166667
vt 0.916667 0.000000
vt 0.916667 0.333333
vt 0.916667 0.500000
vt 0.916667 0.666667
vt 1.000000 1.000000
vt 1.000000 0.833333
vt 1.000000 0.166667
vt 1.000000 0.000000
vt 1.000000 0.333333
vt 1.000000 0.500000
vt 1.000000 0.666667
s 1
f 1/1/1 7/2/7 12/3/12 6/4/6
f 2/5/2 8/6/8 7/7/7 1/8/1
f 3/9/3 9/10/9 8/6/8 2/5/2
f 4/11/4 10/12/10 9/10/9 3/9/3
f 5/13/5 11/14/11 10/12/10 4/11/4
f 6/4/6 12/3/12 11/14/11 5/13/5
f 7/2/7 13/15/13 18/16/18 12/3/12
f 8/6/8 14/17/14 13/18/13 7/7/7
f 9/10/9 15/19/15 14/17/14 8/6/8
f 10/12/10 16/20/16 15/19/15 9/10/9
f 11/14/11 17/21/17 16/20/16 10/12/10
f 12/3/12 18/16/18 17/21/17 11/14/11
f 13/15/13 19/22/19 24/23/24 18/16/18
f 14/17/14 20/24/20 19/25/19 13/18/13
f 15/19/15 21/26/21 20/24/20 14/17/14
f 16/20/16 22/27/22 21/26/21 15/19/15
f 17/21/17 23/28/23 22/27/22 16/20/16
f 18/16/18 24/23/24 23/28/23 17/21/17
f 19/22/19 25/29/25 30/30/30 24/23/24
f 20/24/20 26/31/26 25/32/25 19/25/19
f 21/26/21 27/33/27 26/31/26 20/24/20
f 22/27/22 28/34/28 27/33/27 21/26/21
f 23/28/23 29/35/29 28/34/28 22/27/22
f 24/23/24 30/30/30 29/35/29 23/28/23
f 25/29/25 31/36/31 36/37/36 30/30/30
f 26/31/26 32/38/32 31/39/31 25/32/25
f 27/33/27 33/40/33 32/38/32 26/31/26
f 28/34/28 34/41/34 33/40/33 27/33/27
f 29/35/29 35/42/35 34/41/34 28/34/28
f 30/30/30 36/37/36 35/42/35 29/35/29
f 31/36/31 37/43/37 42/44/42 36/37/36
f 32/38/32 38/45/38 37/46/37 31/39/31
f 33/40/33 39/47/39 38/45/38 32/38/32
f 34/41/34 40/48/40 39/47/39 33/40/33
f 35/42/35 41/49/41 40/48/40 34/41/34
f 36/37/36 42/44/42 41/49/41 35/42/35
f 37/43/37 43/50/43 48/51/48 42/44/42
f 38/45/38 44/52/44 43/53/43 37/46/37
f 39/47/39 45/54/45 44/52/44 38/45/38
f 40/48/40 46/55/46 45/54/45 39/47/39
f 41/49/41 47/56/47 46/55/46 40/48/40
f 42/44/42 48/51/48 47/56/47 41/49/41
f 43/50/43 49/57/49 54/58/54 48/51/48
f 44/52/44 50/59/50 49/60/49 43/53/43
f 45/54/45 51/61/51 50/59/50 44/52/44
f 46/55/46 52/62/52 51/61/51 45/54/45
f 47/56/47 53/63/53 52/62/52 46/55/46
f 48/51/48 54/58/54 53/63/53 47/56/47
f 49/57/49 55/64/55 60/65/60 54/58/54
f 50/59/50 56/66/56 55/67/55 49/60/49
f 51/61/51 57/68/57 56/66/56 50/59/50
f 52/62/52 58/69/58 57/68/57 51/61/51
f 53/63/53 59/70/59 58/69/58 52/62/52
f 54/58/54 60/65/60 59/70/59 53/63/53
f 55/64/55 61/71/61 66/72/66 60/65/60
f 56/66/56 62/73/62 61/74/61 55/67/55
f 57/68/57 63/75/63 62/73/62 56/66/56
f 58/69/58 64/76/64 63/75/63 57/68/57
f 59/70/59 65/77/65 64/76/64 58/69/58
f 60/65/60 66/72/66 65/77/65 59/70/59
f 61/71/61 67/78/67 72/79/72 66/72/66
f 62/73/62 68/80/68 67/81/67 61/74/61
f 63/75/63 69/82/69 68/80/68 62/73/62
f 64/76/64 70/83/70 69/82/69 63/75/63
f 65/77/65 71/84/71 70/83/70 64/76/64
f 66/72/66 72/79/72 71/84/71 65/77/65
f 67/78/67 73/85/73 78/86/78 72/79/72
f 68/80/68 74/87/74 73/88/73 67/81/67
f 69/82/69 75/89/75 74/87/74 68/80/68
f 70/83/70 76/90/76 75/89/75 69/82/69
f 71/84/71 77/91/77 76/90/76 70/83/70
f 72/79/72 78/86/78 77/91/77 71/84/71
o BézierCurve.012
v -0.910000 2.350000 5.165359
v -0.870000 2.350000 5.165359
v -0.850000 2.350000 5.200000
v -0.870000 2.350000 5.234641
v -0.910000 2.350000 5.234641
v -0.930000 2.350000 5.200000
v -0.917285 2.223176 5.152565
v -0.877672 2.217667 5.151886
v -0.858454 2.206536 5.185153
v -0.878849 2.200912 5.219101
v -0.918462 2.206421 5.219780
v -0.937680 2.217552 5.186512
v -0.936301 2.142171 5.119172
v -0.898315 2.130149 5.115635
v -0.882384 2.105853 5.143130
v -0.904440 2.093581 5.174161
v -0.942426 2.105603 5.177698
v -0.958357 2.129898 5.150203
v -0.964330 2.093604 5.069951
v -0.929146 2.076558 5.061493
v -0.918879 2.042110 5.079042
v -0.943796 2.024709 5.105049
v -0.978979 2.041755 5.113507
v -0.989246 2.076203 5.095958
v -1.001270 2.066370 5.005080
v -0.968706 2.047159 4.992022
v -0.963732 2.008337 5.000276
v -0.991323 1.988726 5.021587
v -1.023887 2.007937 5.034645
v -1.028861 2.046759 5.026391
v -1.045966 2.054589 4.926590
v -1.015001 2.034855 4.910723
v -1.013260 1.994976 4.913300
v -1.042483 1.974831 4.931744
v -1.073448 1.994565 4.947610
v -1.075189 2.034444 4.945034
v -1.095469 2.052302 4.839658
v -1.065134 2.032510 4.822685
v -1.064665 1.992514 4.823027
v -1.094532 1.972310 4.840342
v -1.124866 1.992102 4.857315
v -1.125335 2.032098 4.856973
v -1.146681 2.051970 4.749724
v -1.116130 2.032189 4.733131
v -1.115225 1.992214 4.734240
v -1.144870 1.972021 4.751943
v -1.175421 1.991802 4.768536
v -1.176327 2.031777 4.767427
v -1.196970 2.044959 4.661413
v -1.165251 2.025404 4.646871
v -1.161985 1.985885 4.652125
v -1.190438 1.965922 4.671921
v -1.222157 1.985478 4.686463
v -1.225423 2.024997 4.681209
v -1.244008 2.021009 4.578808
v -1.209911 2.002845 4.568442
v -1.201841 1.966138 4.582133
v -1.227867 1.947595 4.606192
v -1.261964 1.965760 4.616559
v -1.270034 2.002467 4.602867
v -1.284076 1.968025 4.508446
v -1.246824 1.954277 4.503620
v -1.232378 1.926494 4.528508
v -1.255184 1.912459 4.558222
v -1.292435 1.926208 4.563048
v -1.306882 1.953990 4.538160
v -1.310799 1.878263 4.461517
v -1.271360 1.871661 4.460532
v -1.252494 1.858319 4.493182
v -1.273067 1.851579 4.526818
v -1.312506 1.858181 4.527803
v -1.331372 1.871523 4.495152
v -1.320000 1.750000 4.445359
v -1.280000 1.750000 4.445359
v -1.260000 1.750000 4.480000
v -1.280000 1.750000 4.514641
v -1.320000 1.750000 4.514641
v -1.340000 1.750000 4.480000
vn -0.4969 0.1153 -0.8601
vn 0.5272 0.0554 -0.8480
vn 0.9976 -0.0621 0.0318
vn 0.4963 -0.1184 0.8600
vn -0.4714 -0.0633 0.8796
vn -0.9980 0.0541 0.0328
vn -0.4811 0.2759 -0.8321
vn 0.5487 0.1284 -0.8261
vn 0.9885 -0.1489 0.0251
vn 0.4800 -0.2798 0.8315
vn -0.4727 -0.1517 0.8680
vn -0.9902 0.1254 0.0622
vn -0.3987 0.6072 -0.6872
vn 0.5969 0.2749 -0.7538
vn 0.9435 -0.3286 -0.0430
vn 0.3979 -0.6076 0.6874
vn -0.5092 -0.3344 0.7930
vn -0.9533 0.2683 0.1390
vn -0.2557 0.8627 -0.4362
vn 0.6560 0.3971 -0.6419
vn 0.8692 -0.4601 -0.1808
vn 0.2574 -0.8600 0.4407
vn -0.5912 -0.4685 0.6565
vn -0.8889 0.3877 0.2441
vn -0.1230 0.9713 -0.2035
vn 0.7067 0.4645 -0.5337
vn 0.8044 -0.5051 -0.3127
vn 0.1252 -0.9701 0.2082
vn -0.6728 -0.5148 0.5313
vn -0.8233 0.4541 0.3405
vn -0.0430 0.9971 -0.0633
vn 0.7378 0.4909 -0.4635
vn 0.7683 -0.5061 -0.3918
vn 0.0439 -0.9969 0.0652
vn -0.7234 -0.5162 0.4585
vn -0.7797 0.4804 0.4016
vn -0.0116 0.9999 -0.0083
vn 0.7479 0.5028 -0.4334
vn 0.7572 -0.4973 -0.4236
vn 0.0117 -0.9999 0.0086
vn -0.7454 -0.5076 0.4322
vn -0.7595 0.4924 0.4251
vn -0.0228 0.9993 -0.0282
vn 0.7370 0.5124 -0.4407
vn 0.7672 -0.4869 -0.4175
vn 0.0223 -0.9994 0.0270
vn -0.7453 -0.4973 0.4442
vn -0.7601 0.5023 0.4122
vn -0.0824 0.9877 -0.1331
vn 0.6988 0.5190 -0.4924
vn 0.8010 -0.4682 -0.3731
vn 0.0803 -0.9884 0.1286
vn -0.7238 -0.4787 0.4970
vn -0.7845 0.5091 0.3541
vn -0.2031 0.9163 -0.3453
vn 0.6227 0.4969 -0.6044
vn 0.8628 -0.4170 -0.2859
vn 0.1995 -0.9199 0.3376
vn -0.6791 -0.4269 0.5971
vn -0.8410 0.4879 0.2336
vn -0.3613 0.6937 -0.6232
vn 0.5254 0.3847 -0.7589
vn 0.9372 -0.3027 -0.1735
vn 0.3611 -0.6955 0.6211
vn -0.6188 -0.3103 0.7216
vn -0.9228 0.3781 0.0737
vn -0.4710 0.3356 -0.8158
vn 0.4702 0.1843 -0.8631
vn 0.9859 -0.1473 -0.0791
vn 0.4725 -0.3307 0.8169
vn -0.5612 -0.1509 0.8138
vn -0.9832 0.1811 -0.0250
vn -0.4947 0.1423 -0.8573
vn 0.4655 0.0769 -0.8817
vn 0.9972 -0.0636 -0.0391
vn 0.4955 -0.1366 0.8578
vn -0.5322 -0.0651 0.8441
vn -0.9964 0.0755 -0.0380
vt 0.083333 1.000000
vt 0.000000 0.833333
vt 0.000000 1.000000
vt 0.000000 0.166667
vt 0.083333 0.000000
vt 0.000000 0.000000
vt 0.000000 0.333333
vt 0.083333 0.166667
vt 0.000000 0.500000
vt 0.083333 0.333333
vt 0.083333 0.666667
vt 0.000000 0.666667
vt 0.083333 0.833333
vt 0.166667 1.000000
vt 0.166667 0.000000
vt 0.166667 0.166667
vt 0.083333 0.500000
vt 0.166667 0.333333
vt 0.166667 0.666667
vt 0.166667 0.833333
vt 0.250000 0.833333
vt 0.250000 0.166667
vt 0.250000 0.333333
vt 0.250000 0.500000
vt 0.166667 0.500000
vt 0.250000 0.666667
vt 0.250000 1.000000
vt 0.333333 0.833333
vt 0.333333 0.166667
vt 0.250000 0.000000
vt 0.333333 0.333333
vt 0.333333 0.500000
vt 0.333333 0.666667
vt 0.333333 1.000000
vt 0.416667 0.833333
vt 0.416667 0.166667
vt 0.333333 0.000000
vt 0.416667 0.333333
vt 0.416667 0.500000
vt 0.416667 0.666667
vt 0.416667 1.000000
vt 0.500000 0.833333
vt 0.500000 0.166667
vt 0.416667 0.000000
vt 0.500000 0.333333
vt 0.500000 0.500000
vt 0.500000 0.666667
vt 0.500000 1.000000
vt 0.583333 0.833333
vt 0.583333 0.166667
vt 0.500000 0.000000
vt 0.583333 0.333333
vt 0.583333 0.500000
vt 0.583333 0.666667
vt 0.583333 1.000000
vt 0.666667 0.833333
vt 0.666667 0.166667
vt 0.583333 0.000000
vt 0.666667 0.333333
vt 0.666667 0.500000
vt 0.666667 0.666667
vt 0.666667 1.000000
vt 0.750000 0.833333
vt 0.750000 0.166667
vt 0.666667 0.000000
vt 0.750000 0.333333
vt 0.750000 0.500000
vt 0.750000 0.666667
vt 0.750000 1.000000
vt 0.833333 0.833333
vt 0.833333 0.166667
vt 0.750000 0.000000
vt 0.833333 0.333333
vt 0.833333 0.500000
vt 0.833333 0.666667
vt 0.916667 1.000000
vt 0.833333 1.000000
vt 0.916667 0.000000
vt 0.833333 0.000000
vt 0.916667 0.166667
vt 0.916667 0.333333
vt 0.916667 0.666667
vt 0.916667 0.833333
vt 1.000000 1.000000
vt 1.000000 0.000000
vt 1.000000 0.166667
vt 0.916667 0.500000
vt 1.000000 0.333333
vt 1.000000 0.666667
vt 1.000000 0.833333
vt 1.000000 0.500000
s 1
f 85/92/85 84/93/84 79/94/79
f 80/95/80 85/96/85 79/97/79
f 81/98/81 86/99/86 80/95/80
f 82/100/82 87/101/87 81/98/81
f 89/102/89 82/100/82 83/103/83
f 90/104/90 83/103/83 84/93/84
f 91/105/91 90/104/90 85/92/85
f 86/99/86 91/106/91 85/96/85
f 87/101/87 92/107/92 86/99/86
f 88/108/88 93/109/93 87/101/87
f 95/110/95 88/108/88 89/102/89
f 96/111/96 89/102/89 90/104/90
f 91/105/91 102/112/102 96/111/96
f 98/113/98 91/106/91 92/107/92
f 99/114/99 92/107/92 93/109/93
f 100/115/100 93/109/93 94/116/94
f 95/110/95 100/115/100 94/116/94
f 96/111/96 101/117/101 95/110/95
f 97/118/97 108/119/108 102/112/102
f 104/120/104 97/121/97 98/113/98
f 105/122/105 98/113/98 99/114/99
f 106/123/106 99/114/99 100/115/100
f 101/117/101 106/123/106 100/115/100
f 102/112/102 107/124/107 101/117/101
f 103/125/103 114/126/114 108/119/108
f 110/127/110 103/128/103 104/120/104
f 111/129/111 104/120/104 105/122/105
f 112/130/112 105/122/105 106/123/106
f 107/124/107 112/130/112 106/123/106
f 108/119/108 113/131/113 107/124/107
f 109/132/109 120/133/120 114/126/114
f 116/134/116 109/135/109 110/127/110
f 117/136/117 110/127/110 111/129/111
f 118/137/118 111/129/111 112/130/112
f 113/131/113 118/137/118 112/130/112
f 114/126/114 119/138/119 113/131/113
f 115/139/115 126/140/126 120/133/120
f 122/141/122 115/142/115 116/134/116
f 123/143/123 116/134/116 117/136/117
f 124/144/124 117/136/117 118/137/118
f 119/138/119 124/144/124 118/137/118
f 120/133/120 125/145/125 119/138/119
f 121/146/121 132/147/132 126/140/126
f 128/148/128 121/149/121 122/141/122
f 129/150/129 122/141/122 123/143/123
f 130/151/130 123/143/123 124/144/124
f 125/145/125 130/151/130 124/144/124
f 126/140/126 131/152/131 125/145/125
f 127/153/127 138/154/138 132/147/132
f 134/155/134 127/156/127 128/148/128
f 135/157/135 128/148/128 129/150/129
f 136/158/136 129/150/129 130/151/130
f 131/152/131 136/158/136 130/151/130
f 132/147/132 137/159/137 131/152/131
f 133/160/133 144/161/144 138/154/138
f 140/162/140 133/163/133 134/155/134
f 141/164/141 134/155/134 135/157/135
f 142/165/142 135/157/135 136/158/136
f 137/159/137 142/165/142 136/158/136
f 138/154/138 143/166/143 137/159/137
f 145/167/145 144/161/144 139/168/139
f 140/162/140 145/169/145 139/170/139
f 141/164/141 146/171/146 140/162/140
f 142/165/142 147/172/147 141/164/141
f 149/173/149 142/165/142 143/166/143
f 150/174/150 143/166/143 144/161/144
f 151/175/151 150/174/150 145/167/145
f 146/171/146 151/176/151 145/169/145
f 147/172/147 152/177/152 146/171/146
f 148/178/148 153/179/153 147/172/147
f 155/180/155 148/178/148 149/173/149
f 156/181/156 149/173/149 150/174/150
f 85/92/85 90/104/90 84/93/84
f 80/95/80 86/99/86 85/96/85
f 81/98/81 87/101/87 86/99/86
f 82/100/82 88/108/88 87/101/87
f 89/102/89 88/108/88 82/100/82
f 90/104/90 89/102/89 83/103/83
f 91/105/91 96/111/96 90/104/90
f 86/99/86 92/107/92 91/106/91
f 87/101/87 93/109/93 92/107/92
f 88/108/88 94/116/94 93/109/93
f 95/110/95 94/116/94 88/108/88
f 96/111/96 95/110/95 89/102/89
f 91/105/91 97/118/97 102/112/102
f 98/113/98 97/121/97 91/106/91
f 99/114/99 98/113/98 92/107/92
f 100/115/100 99/114/99 93/109/93
f 95/110/95 101/117/101 100/115/100
f 96/111/96 102/112/102 101/117/101
f 97/118/97 103/125/103 108/119/108
f 104/120/104 103/128/103 97/121/97
f 105/122/105 104/120/104 98/113/98
f 106/123/106 105/122/105 99/114/99
f 101/117/101 107/124/107 106/123/106
f 102/112/102 108/119/108 107/124/107
f 103/125/103 109/132/109 114/126/114
f 110/127/110 109/135/109 103/128/103
f 111/129/111 110/127/110 104/120/104
f 112/130/112 111/129/111 105/122/105
f 107/124/107 113/131/113 112/130/112
f 108/119/108 114/126/114 113/131/113
f 109/132/109 115/139/115 120/133/120
f 116/134/116 115/142/115 109/135/109
f 117/136/117 116/134/116 110/127/110
f 118/137/118 117/136/117 111/129/111
f 113/131/113 119/138/119 118/137/118
f 114/126/114 120/133/120 119/138/119
f 115/139/115 121/146/121 126/140/126
f 122/141/122 121/149/121 115/142/115
f 123/143/123 122/141/122 116/134/116
f 124/144/124 123/143/123 117/136/117
f 119/138/119 125/145/125 124/144/124
f 120/133/120 126/140/126 125/145/125
f 121/146/121 127/153/127 132/147/132
f 128/148/128 127/156/127 121/149/121
f 129/150/129 128/148/128 122/141/122
f 130/151/130 129/150/129 123/143/123
f 125/145/125 131/152/131 130/151/130
f 126/140/126 132/147/132 131/152/131
f 127/153/127 133/160/133 138/154/138
f 134/155/134 133/163/133 127/156/127
f 135/157/135 134/155/134 128/148/128
f 136/158/136 135/157/135 129/150/129
f 131/152/131 137/159/137 136/158/136
f 132/147/132 138/154/138 137/159/137
f 133/160/133 139/168/139 144/161/144
f 140/162/140 139/170/139 133/163/133
f 141/164/141 140/162/140 134/155/134
f 142/165/142 141/164/141 135/157/135
f 137/159/137 143/166/143 142/165/142
f 138/154/138 144/161/144 143/166/143
f 145/167/145 150/174/150 144/161/144
f 140/162/140 146/171/146 145/169/145
f 141/164/141 147/172/147 146/171/146
f 142/165/142 148/178/148 147/172/147
f 149/173/149 148/178/148 142/165/142
f 150/174/150 149/173/149 143/166/143
f 151/175/151 156/181/156 150/174/150
f 146/171/146 152/177/152 151/176/151
f 147/172/147 153/179/153 152/177/152
f 148/178/148 154/182/154 153/179/153
f 155/180/155 154/182/154 148/178/148
f 156/181/156 155/180/155 149/173/149
o BézierCurve.013
v -0.570000 1.934641 0.400000
v -0.610000 1.934641 0.400000
v -0.630000 1.900000 0.400000
v -0.610000 1.865359 0.400000
v -0.570000 1.865359 0.400000
v -0.550000 1.900000 0.400000
v -0.570000 1.934641 0.593342
v -0.610000 1.934641 0.593342
v -0.630000 1.900000 0.593342
v -0.610000 1.865359 0.593342
v -0.570000 1.865359 0.593342
v -0.550000 1.900000 0.593342
v -0.570000 1.934641 0.839591
v -0.610000 1.934641 0.839591
v -0.630000 1.900000 0.839591
v -0.610000 1.865359 0.839591
v -0.570000 1.865359 0.839591
v -0.550000 1.900000 0.839591
v -0.570000 1.934641 1.125964
v -0.610000 1.934641 1.125964
v -0.630000 1.900000 1.125964
v -0.610000 1.865359 1.125964
v -0.570000 1.865359 1.125964
v -0.550000 1.900000 1.125964
v -0.570000 1.934641 1.439680
v -0.610000 1.934641 1.439680
v -0.630000 1.900000 1.439680
v -0.610000 1.865359 1.439680
v -0.570000 1.865359 1.439680
v -0.550000 1.900000 1.439680
v -0.570000 1.934641 1.767958
v -0.610000 1.934641 1.767958
v -0.630000 1.900000 1.767958
v -0.610000 1.865359 1.767958
v -0.570000 1.865359 1.767958
v -0.550000 1.900000 1.767958
v -0.570000 1.934641 2.098017
v -0.610000 1.934641 2.098017
v -0.630000 1.900000 2.098017
v -0.610000 1.865359 2.098017
v -0.570000 1.865359 2.098017
v -0.550000 1.900000 2.098017
v -0.570000 1.934641 2.417074
v -0.610000 1.934641 2.417074
v -0.630000 1.900000 2.417074
v -0.610000 1.865359 2.417074
v -0.570000 1.865359 2.417074
v -0.550000 1.900000 2.417074
v -0.570000 1.934641 2.712349
v -0.610000 1.934641 2.712349
v -0.630000 1.900000 2.712349
v -0.610000 1.865359 2.712349
v -0.570000 1.865359 2.712349
v -0.550000 1.900000 2.712349
v -0.570000 1.934641 2.971060
v -0.610000 1.934641 2.971060
v -0.630000 1.900000 2.971060
v -0.610000 1.865359 2.971060
v -0.570000 1.865359 2.971060
v -0.550000 1.900000 2.971060
v -0.570000 1.934641 3.180426
v -0.610000 1.934641 3.180426
v -0.630000 1.900000 3.180426
v -0.610000 1.865359 3.180426
v -0.570000 1.865359 3.180426
v -0.550000 1.900000 3.180426
v -0.570000 1.934641 3.327666
v -0.610000 1.934641 3.327666
v -0.630000 1.900000 3.327666
v -0.610000 1.865359 3.327666
v -0.570000 1.865359 3.327666
v -0.550000 1.900000 3.327666
v -0.570015 1.934641 3.400763
v -0.609984 1.934641 3.399177
v -0.629969 1.899999 3.398413
v -0.609985 1.865358 3.399236
v -0.570016 1.865359 3.400823
v -0.550032 1.900001 3.401586
v -0.582096 1.934899 3.551834
v -0.621516 1.934894 3.545046
v -0.641225 1.900251 3.541671
v -0.621515 1.865612 3.545084
v -0.582095 1.865617 3.551872
v -0.562386 1.900260 3.555247
v -0.615836 1.934799 3.677713
v -0.653213 1.934824 3.663465
v -0.671821 1.900197 3.656071
v -0.653053 1.865544 3.662924
v -0.615676 1.865519 3.677171
v -0.597068 1.900146 3.684566
v -0.667393 1.933001 3.780028
v -0.701004 1.933192 3.758343
v -0.717362 1.898663 3.746502
v -0.700108 1.863944 3.756346
v -0.666496 1.863754 3.778030
v -0.650138 1.898282 3.789871
v -0.732701 1.928122 3.860874
v -0.761143 1.928739 3.832756
v -0.773998 1.894501 3.816556
v -0.758411 1.859644 3.828474
v -0.729968 1.859026 3.856592
v -0.717113 1.893265 3.872792
v -0.807397 1.918758 3.922392
v -0.830108 1.920139 3.889493
v -0.838405 1.886508 3.869491
v -0.823992 1.851494 3.882388
v -0.801281 1.850113 3.915287
v -0.792984 1.883745 3.935289
v -0.887008 1.903497 3.966971
v -0.904342 1.905954 3.931006
v -0.907335 1.873385 3.907979
v -0.892992 1.838357 3.920917
v -0.875658 1.835900 3.956882
v -0.872666 1.868470 3.979909
v -0.967162 1.880868 3.997236
v -0.980134 1.884602 3.959583
v -0.977278 1.853744 3.934292
v -0.961449 1.819152 3.946654
v -0.948477 1.815418 3.984308
v -0.951333 1.846276 4.009598
v -1.043632 1.849248 4.015896
v -1.053637 1.854252 3.977492
v -1.044450 1.826103 3.950599
v -1.025257 1.792950 3.962111
v -1.015252 1.787946 4.000515
v -1.024439 1.816095 4.027407
v -1.112117 1.806783 4.025634
v -1.120771 1.812653 3.987025
v -1.104904 1.788788 3.959120
v -1.080383 1.759053 3.969823
v -1.071729 1.753183 4.008432
v -1.087596 1.777048 4.036337
v -1.167758 1.751565 4.029107
v -1.176640 1.757201 3.990515
v -1.154438 1.739829 3.962138
v -1.123354 1.716819 3.972353
v -1.114472 1.711182 4.010945
v -1.136674 1.728555 4.039322
v -1.204866 1.682530 4.029072
v -1.214831 1.686111 3.990499
v -1.188159 1.677225 3.962044
v -1.151523 1.664759 3.972162
v -1.141559 1.661177 4.010735
v -1.168230 1.670063 4.039190
v -1.218065 1.602117 4.028423
v -1.228562 1.603113 3.989837
v -1.200497 1.600997 3.961415
v -1.161935 1.597883 3.971577
v -1.151438 1.596886 4.010162
v -1.179503 1.599003 4.038585
v -1.218149 1.447977 4.028418
v -1.228686 1.447977 3.989831
v -1.200537 1.447977 3.961412
v -1.161851 1.447977 3.971581
v -1.151314 1.447977 4.010169
v -1.179464 1.447977 4.038587
v -1.218149 1.315964 4.028418
v -1.228686 1.315964 3.989831
v -1.200537 1.315964 3.961412
v -1.161851 1.315964 3.971581
v -1.151314 1.315964 4.010169
v -1.179464 1.315964 4.038587
v -1.218149 1.202160 4.028418
v -1.228686 1.202160 3.989831
v -1.200537 1.202160 3.961412
v -1.161851 1.202160 3.971581
v -1.151314 1.202160 4.010169
v -1.179464 1.202160 4.038587
v -1.218149 1.104764 4.028418
v -1.228686 1.104764 3.989831
v -1.200537 1.104764 3.961412
v -1.161851 1.104764 3.971581
v -1.151314 1.104764 4.010169
v -1.179464 1.104764 4.038587
v -1.218149 1.021972 4.028418
v -1.228686 1.021972 3.989831
v -1.200537 1.021972 3.961412
v -1.161851 1.021972 3.971581
v -1.151314 1.021972 4.010169
v -1.179464 1.021972 4.038587
v -1.218149 0.951983 4.028418
v -1.228686 0.951983 3.989831
v -1.200537 0.951983 3.961412
v -1.161851 0.951983 3.971581
v -1.151314 0.951983 4.010169
v -1.179464 0.951983 4.038587
v -1.218149 0.892995 4.028418
v -1.228686 0.892995 3.989831
v -1.200537 0.892995 3.961412
v -1.161851 0.892995 3.971581
v -1.151314 0.892995 4.010169
v -1.179464 0.892995 4.038587
v -1.218149 0.843206 4.028418
v -1.228686 0.843206 3.989831
v -1.200537 0.843206 3.961412
v -1.161851 0.843206 3.971581
v -1.151314 0.843206 4.010169
v -1.179464 0.843206 4.038587
v -1.218149 0.800814 4.028418
v -1.228686 0.800814 3.989831
v -1.200537 0.800814 3.961412
v -1.161851 0.800814 3.971581
v -1.151314 0.800814 4.010169
v -1.179464 0.800814 4.038587
v -1.218149 0.764017 4.028418
v -1.228686 0.764017 3.989831
v -1.200537 0.764017 3.961412
v -1.161851 0.764017 3.971581
v -1.151314 0.764017 4.010169
v -1.179464 0.764017 4.038587
v -1.218149 0.731013 4.028418
v -1.228686 0.731013 3.989831
v -1.200537 0.731013 3.961412
v -1.161851 0.731013 3.971581
v -1.151314 0.731013 4.010169
v -1.179464 0.731013 4.038587
v -1.218108 0.703530 4.028239
v -1.228687 0.699868 3.989838
v -1.200579 0.696338 3.961598
v -1.161892 0.696470 3.971760
v -1.151313 0.700132 4.010162
v -1.179421 0.703661 4.038401
v -1.219673 0.667776 4.035066
v -1.230874 0.653596 3.999380
v -1.203366 0.639928 3.973759
v -1.164656 0.640438 3.983823
v -1.153455 0.654618 4.019508
v -1.180963 0.668287 4.045130
v -1.224089 0.640526 4.054334
v -1.236917 0.615663 4.025747
v -1.210976 0.591695 4.006968
v -1.172208 0.592591 4.016777
v -1.159380 0.617454 4.045364
v -1.185320 0.641422 4.064143
v -1.231436 0.617057 4.086394
v -1.246019 0.586244 4.065467
v -1.221771 0.556542 4.054073
v -1.182940 0.557652 4.063606
v -1.168356 0.588464 4.084532
v -1.192604 0.618167 4.095926
v -1.241335 0.598943 4.129591
v -1.257404 0.565281 4.115146
v -1.234588 0.532832 4.109999
v -1.195703 0.534045 4.119298
v -1.179633 0.567707 4.133743
v -1.202450 0.600156 4.138890
v -1.253003 0.587628 4.180507
v -1.270307 0.552720 4.171451
v -1.248682 0.519070 4.171500
v -1.209752 0.520328 4.180604
v -1.192448 0.555236 4.189661
v -1.214074 0.588886 4.189612
v -1.265558 0.583794 4.235289
v -1.283970 0.548536 4.231070
v -1.263413 0.514547 4.235781
v -1.224443 0.515818 4.244711
v -1.206031 0.551076 4.248931
v -1.226588 0.585065 4.244220
v -1.278112 0.587628 4.290071
v -1.297633 0.552720 4.290689
v -1.278144 0.519070 4.300062
v -1.239134 0.520328 4.308818
v -1.219614 0.555236 4.308201
v -1.239102 0.588886 4.298828
v -1.289780 0.598943 4.340987
v -1.310536 0.565281 4.346994
v -1.292238 0.532832 4.361562
v -1.253184 0.534045 4.370125
v -1.232428 0.567707 4.364118
v -1.250726 0.600156 4.349550
v -1.299680 0.617057 4.384185
v -1.321921 0.586244 4.396672
v -1.305054 0.556542 4.417488
v -1.265947 0.557652 4.425817
v -1.243706 0.588465 4.413329
v -1.260572 0.618167 4.392513
v -1.307027 0.640527 4.416244
v -1.331023 0.615663 4.436392
v -1.315849 0.591695 4.464593
v -1.276678 0.592591 4.472646
v -1.252682 0.617455 4.452498
v -1.267856 0.641423 4.424297
v -1.311442 0.667776 4.435513
v -1.337066 0.653597 4.462759
v -1.323460 0.639928 4.497803
v -1.284230 0.640439 4.505600
v -1.258607 0.654618 4.478353
v -1.272213 0.668287 4.443310
v -1.312965 0.700000 4.442160
v -1.339254 0.700000 4.472308
v -1.326289 0.700000 4.510149
v -1.287035 0.700000 4.517840
v -1.260747 0.700000 4.487692
v -1.273712 0.700000 4.449852
vn 0.5000 0.8660 -0.0000
vn -0.5000 0.8660 -0.0000
vn -1.0000 -0.0000 -0.0000
vn -0.5000 -0.8660 -0.0000
vn 0.5000 -0.8660 -0.0000
vn 1.0000 -0.0000 -0.0000
vn 0.5001 0.8660 0.0001
vn -0.5001 0.8660 0.0001
vn -1.0000 -0.0000 0.0002
vn -0.5001 -0.8660 0.0001
vn 0.5001 -0.8660 0.0001
vn 1.0000 -0.0000 0.0002
vn 0.5092 0.8604 0.0197
vn -0.4903 0.8713 -0.0200
vn -0.9992 -0.0003 -0.0392
vn -0.4901 -0.8715 -0.0185
vn 0.5089 -0.8605 0.0212
vn 0.9992 -0.0002 0.0402
vn 0.5133 0.8537 0.0882
vn -0.4704 0.8787 -0.0813
vn -0.9856 0.0003 -0.1692
vn -0.4708 -0.8786 -0.0804
vn 0.5135 -0.8534 0.0891
vn 0.9854 0.0005 0.1702
vn 0.4863 0.8522 0.1930
vn -0.4447 0.8810 -0.1618
vn -0.9345 0.0031 -0.3560
vn -0.4426 -0.8793 -0.1762
vn 0.4922 -0.8516 0.1802
vn 0.9343 0.0016 0.3564
vn 0.4277 0.8499 0.3078
vn -0.4076 0.8836 -0.2302
vn -0.8403 0.0102 -0.5420
vn -0.3885 -0.8768 -0.2833
vn 0.4537 -0.8521 0.2610
vn 0.8402 0.0001 0.5422
vn 0.3357 0.8441 0.4180
vn -0.3701 0.8867 -0.2771
vn -0.7112 0.0243 -0.7026
vn -0.3058 -0.8682 -0.3908
vn 0.4084 -0.8557 0.3177
vn 0.7109 -0.0075 0.7032
vn 0.2167 0.8315 0.5114
vn -0.3466 0.8890 -0.2993
vn -0.5685 0.0470 -0.8213
vn -0.1973 -0.8505 -0.4876
vn 0.3737 -0.8610 0.3449
vn 0.5670 -0.0231 0.8234
vn 0.0797 0.8084 0.5833
vn -0.3505 0.8872 -0.3001
vn -0.4357 0.0778 -0.8967
vn -0.0695 -0.8205 -0.5674
vn 0.3665 -0.8634 0.3466
vn 0.4311 -0.0462 0.9011
vn -0.0702 0.7696 0.6347
vn -0.3923 0.8740 -0.2866
vn -0.3300 0.1141 -0.9371
vn 0.0727 -0.7735 -0.6296
vn 0.3991 -0.8548 0.3319
vn 0.3188 -0.0737 0.9449
vn -0.2324 0.7065 0.6685
vn -0.4802 0.8357 -0.2666
vn -0.2620 0.1506 -0.9532
vn 0.2268 -0.7009 -0.6762
vn 0.4793 -0.8211 0.3100
vn 0.2386 -0.1004 0.9659
vn -0.4048 0.6041 0.6865
vn -0.6162 0.7476 -0.2479
vn -0.2388 0.1757 -0.9550
vn 0.3877 -0.5884 -0.7096
vn 0.6093 -0.7384 0.2891
vn 0.1942 -0.1180 0.9738
vn -0.5706 0.4447 0.6904
vn -0.7813 0.5769 -0.2383
vn -0.2584 0.1675 -0.9514
vn 0.5368 -0.4222 -0.7304
vn 0.7718 -0.5732 0.2752
vn 0.1849 -0.1133 0.9762
vn -0.6888 0.2312 0.6871
vn -0.9185 0.3138 -0.2405
vn -0.2939 0.1051 -0.9500
vn 0.6392 -0.2113 -0.7395
vn 0.9123 -0.3090 0.2689
vn 0.1998 -0.0723 0.9772
vn -0.7150 0.0557 0.6969
vn -0.9652 0.0801 -0.2489
vn -0.2853 0.0276 -0.9580
vn 0.6887 -0.0501 -0.7233
vn 0.9630 -0.0752 0.2587
vn 0.2393 -0.0222 0.9707
vn -0.7039 0.0002 0.7103
vn -0.9672 0.0003 -0.2541
vn -0.2636 0.0001 -0.9646
vn 0.7039 0.0002 -0.7103
vn 0.9672 0.0003 0.2541
vn 0.2636 0.0001 0.9646
vn -0.7037 -0.0000 0.7105
vn -0.9671 -0.0000 -0.2542
vn -0.2634 -0.0000 -0.9647
vn 0.7037 -0.0000 -0.7105
vn 0.9671 -0.0000 0.2542
vn 0.2634 -0.0000 0.9647
vn -0.7031 -0.0024 0.7111
vn -0.9671 -0.0009 -0.2542
vn -0.2628 -0.0020 -0.9649
vn 0.7032 -0.0019 -0.7110
vn 0.9671 -0.0009 0.2543
vn 0.2626 -0.0025 0.9649
vn -0.7147 0.0799 0.6949
vn -0.9584 -0.0093 -0.2854
vn -0.2494 -0.0979 -0.9634
vn 0.6900 -0.0946 -0.7176
vn 0.9749 -0.0027 0.2225
vn 0.2787 0.0830 0.9568
vn -0.7171 0.3306 0.6136
vn -0.9505 -0.0396 -0.3082
vn -0.2548 -0.3611 -0.8970
vn 0.6659 -0.3495 -0.6592
vn 0.9810 -0.0144 0.1933
vn 0.3153 0.3449 0.8841
vn -0.6689 0.5915 0.4502
vn -0.9579 -0.0576 -0.2812
vn -0.2986 -0.6268 -0.7197
vn 0.6296 -0.6064 -0.4857
vn 0.9779 -0.0131 0.2084
vn 0.3454 0.6162 0.7078
vn -0.6211 0.7344 0.2737
vn -0.9647 -0.0598 -0.2563
vn -0.3486 -0.7763 -0.5253
vn 0.5917 -0.7503 -0.2949
vn 0.9755 -0.0044 0.2199
vn 0.3815 0.7641 0.5203
vn -0.5821 0.8039 0.1225
vn -0.9689 -0.0569 -0.2406
vn -0.3900 -0.8470 -0.3612
vn 0.5591 -0.8181 -0.1344
vn 0.9746 0.0037 0.2241
vn 0.4139 0.8357 0.3609
vn -0.5506 0.8347 -0.0048
vn -0.9715 -0.0543 -0.2307
vn -0.4232 -0.8776 -0.2253
vn 0.5310 -0.8474 -0.0022
vn 0.9745 0.0085 0.2244
vn 0.4424 0.8675 0.2275
vn -0.5236 0.8435 -0.1200
vn -0.9733 -0.0534 -0.2231
vn -0.4517 -0.8862 -0.1035
vn 0.5046 -0.8556 0.1156
vn 0.9747 0.0100 0.2234
vn 0.4693 0.8765 0.1075
vn -0.4978 0.8347 -0.2355
vn -0.9750 -0.0543 -0.2154
vn -0.4790 -0.8776 0.0185
vn 0.4770 -0.8474 0.2332
vn 0.9749 0.0085 0.2223
vn 0.4974 0.8675 -0.0122
vn -0.4706 0.8039 -0.3638
vn -0.9770 -0.0569 -0.2053
vn -0.5084 -0.8470 0.1553
vn 0.4448 -0.8181 0.3644
vn 0.9749 0.0037 0.2226
vn 0.5298 0.8357 -0.1447
vn -0.4399 0.7344 -0.5169
vn -0.9801 -0.0598 -0.1894
vn -0.5425 -0.7763 0.3211
vn 0.4043 -0.7503 0.5231
vn 0.9739 -0.0044 0.2268
vn 0.5700 0.7641 -0.3022
vn -0.4061 0.5915 -0.6966
vn -0.9848 -0.0576 -0.1640
vn -0.5822 -0.6268 0.5178
vn 0.3553 -0.6064 0.7114
vn 0.9711 -0.0131 0.2382
vn 0.6192 0.6162 -0.4867
vn -0.3763 0.3359 -0.8635
vn -0.9900 -0.0380 -0.1357
vn -0.6193 -0.3579 0.6988
vn 0.3107 -0.3465 0.8851
vn 0.9672 -0.0127 0.2538
vn 0.6665 0.3504 -0.6580
vn -0.3544 0.1727 -0.9190
vn -0.9916 -0.0204 -0.1274
vn -0.6244 -0.1854 0.7588
vn 0.2889 -0.1797 0.9403
vn 0.9664 -0.0072 0.2568
vn 0.6714 0.1799 -0.7189
vt 0.000000 1.000000
vt 0.020833 1.000000
vt 0.020833 0.833333
vt 0.000000 0.833333
vt 0.000000 0.166667
vt 0.020833 0.166667
vt 0.020833 0.000000
vt 0.000000 0.000000
vt 0.000000 0.333333
vt 0.020833 0.333333
vt 0.000000 0.500000
vt 0.020833 0.500000
vt 0.000000 0.666667
vt 0.020833 0.666667
vt 0.041667 1.000000
vt 0.041667 0.833333
vt 0.041667 0.166667
vt 0.041667 0.000000
vt 0.041667 0.333333
vt 0.041667 0.500000
vt 0.041667 0.666667
vt 0.062500 1.000000
vt 0.062500 0.833333
vt 0.062500 0.166667
vt 0.062500 0.000000
vt 0.062500 0.333333
vt 0.062500 0.500000
vt 0.062500 0.666667
vt 0.083333 1.000000
vt 0.083333 0.833333
vt 0.083333 0.166667
vt 0.083333 0.000000
vt 0.083333 0.333333
vt 0.083333 0.500000
vt 0.083333 0.666667
vt 0.104167 1.000000
vt 0.104167 0.833333
vt 0.104167 0.166667
vt 0.104167 0.000000
vt 0.104167 0.333333
vt 0.104167 0.500000
vt 0.104167 0.666667
vt 0.125000 1.000000
vt 0.125000 0.833333
vt 0.125000 0.166667
vt 0.125000 0.000000
vt 0.125000 0.333333
vt 0.125000 0.500000
vt 0.125000 0.666667
vt 0.145833 1.000000
vt 0.145833 0.833333
vt 0.145833 0.166667
vt 0.145833 0.000000
vt 0.145833 0.333333
vt 0.145833 0.500000
vt 0.145833 0.666667
vt 0.166667 1.000000
vt 0.166667 0.833333
vt 0.166667 0.166667
vt 0.166667 0.000000
vt 0.166667 0.333333
vt 0.166667 0.500000
vt 0.166667 0.666667
vt 0.187500 1.000000
vt 0.187500 0.833333
vt 0.187500 0.166667
vt 0.187500 0.000000
vt 0.187500 0.333333
vt 0.187500 0.500000
vt 0.187500 0.666667
vt 0.208333 1.000000
vt 0.208333 0.833333
vt 0.208333 0.166667
vt 0.208333 0.000000
vt 0.208333 0.333333
vt 0.208333 0.500000
vt 0.208333 0.666667
vt 0.229167 1.000000
vt 0.229167 0.833333
vt 0.229167 0.166667
vt 0.229167 0.000000
vt 0.229167 0.333333
vt 0.229167 0.500000
vt 0.229167 0.666667
vt 0.250000 1.000000
vt 0.250000 0.833333
vt 0.250000 0.166667
vt 0.250000 0.000000
vt 0.250000 0.333333
vt 0.250000 0.500000
vt 0.250000 0.666667
vt 0.270833 1.000000
vt 0.270833 0.833333
vt 0.270833 0.166667
vt 0.270833 0.000000
vt 0.270833 0.333333
vt 0.270833 0.500000
vt 0.270833 0.666667
vt 0.291667 1.000000
vt 0.291667 0.833333
vt 0.291667 0.166667
vt 0.291667 0.000000
vt 0.291667 0.333333
vt 0.291667 0.500000
vt 0.291667 0.666667
vt 0.312500 1.000000
vt 0.312500 0.833333
vt 0.312500 0.166667
vt 0.312500 0.000000
vt 0.312500 0.333333
vt 0.312500 0.500000
vt 0.312500 0.666667
vt 0.333333 1.000000
vt 0.333333 0.833333
vt 0.333333 0.166667
vt 0.333333 0.000000
vt 0.333333 0.333333
vt 0.333333 0.500000
vt 0.333333 0.666667
vt 0.354167 1.000000
vt 0.354167 0.833333
vt 0.354167 0.166667
vt 0.354167 0.000000
vt 0.354167 0.333333
vt 0.354167 0.500000
vt 0.354167 0.666667
vt 0.375000 1.000000
vt 0.375000 0.833333
vt 0.375000 0.166667
vt 0.375000 0.000000
vt 0.375000 0.333333
vt 0.375000 0.500000
vt 0.375000 0.666667
vt 0.395833 1.000000
vt 0.395833 0.833333
vt 0.395833 0.166667
vt 0.395833 0.000000
vt 0.395833 0.333333
vt 0.395833 0.500000
vt 0.395833 0.666667
vt 0.416667 1.000000
vt 0.416667 0.833333
vt 0.416667 0.166667
vt 0.416667 0.000000
vt 0.416667 0.333333
vt 0.416667 0.500000
vt 0.416667 0.666667
vt 0.437500 1.000000
vt 0.437500 0.833333
vt 0.437500 0.166667
vt 0.437500 0.000000
vt 0.437500 0.333333
vt 0.437500 0.500000
vt 0.437500 0.666667
vt 0.458333 1.000000
vt 0.458333 0.833333
vt 0.458333 0.166667
vt 0.458333 0.000000
vt 0.458333 0.333333
vt 0.458333 0.500000
vt 0.458333 0.666667
vt 0.479167 1.000000
vt 0.479167 0.833333
vt 0.479167 0.166667
vt 0.479167 0.000000
vt 0.479167 0.333333
vt 0.479167 0.500000
vt 0.479167 0.666667
vt 0.500000 1.000000
vt 0.500000 0.833333
vt 0.500000 0.166667
vt 0.500000 0.000000
vt 0.500000 0.333333
vt 0.500000 0.500000
vt 0.500000 0.666667
vt 0.520833 1.000000
vt 0.520833 0.833333
vt 0.520833 0.166667
vt 0.520833 0.000000
vt 0.520833 0.333333
vt 0.520833 0.500000
vt 0.520833 0.666667
vt 0.541667 1.000000
vt 0.541667 0.833333
vt 0.541667 0.166667
vt 0.541667 0.000000
vt 0.541667 0.333333
vt 0.541667 0.500000
vt 0.541667 0.666667
vt 0.562500 1.000000
vt 0.562500 0.833333
vt 0.562500 0.166667
vt 0.562500 0.000000
vt 0.562500 0.333333
vt 0.562500 0.500000
vt 0.562500 0.666667
vt 0.583333 1.000000
vt 0.583333 0.833333
vt 0.583333 0.166667
vt 0.583333 0.000000
vt 0.583333 0.333333
vt 0.583333 0.500000
vt 0.583333 0.666667
vt 0.604167 1.000000
vt 0.604167 0.833333
vt 0.604167 0.166667
vt 0.604167 0.000000
vt 0.604167 0.333333
vt 0.604167 0.500000
vt 0.604167 0.666667
vt 0.625000 1.000000
vt 0.625000 0.833333
vt 0.625000 0.166667
vt 0.625000 0.000000
vt 0.625000 0.333333
vt 0.625000 0.500000
vt 0.625000 0.666667
vt 0.645833 1.000000
vt 0.645833 0.833333
vt 0.645833 0.166667
vt 0.645833 0.000000
vt 0.645833 0.333333
vt 0.645833 0.500000
vt 0.645833 0.666667
vt 0.666667 1.000000
vt 0.666667 0.833333
vt 0.666667 0.166667
vt 0.666667 0.000000
vt 0.666667 0.333333
vt 0.666667 0.500000
vt 0.666667 0.666667
vt 0.687500 1.000000
vt 0.687500 0.833333
vt 0.687500 0.166667
vt 0.687500 0.000000
vt 0.687500 0.333333
vt 0.687500 0.500000
vt 0.687500 0.666667
vt 0.708333 1.000000
vt 0.708333 0.833333
vt 0.708333 0.166667
vt 0.708333 0.000000
vt 0.708333 0.333333
vt 0.708333 0.500000
vt 0.708333 0.666667
vt 0.729167 1.000000
vt 0.729167 0.833333
vt 0.729167 0.166667
vt 0.729167 0.000000
vt 0.729167 0.333333
vt 0.729167 0.500000
vt 0.729167 0.666667
vt 0.750000 1.000000
vt 0.750000 0.833333
vt 0.750000 0.166667
vt 0.750000 0.000000
vt 0.750000 0.333333
vt 0.750000 0.500000
vt 0.750000 0.666667
vt 0.770833 1.000000
vt 0.770833 0.833333
vt 0.770833 0.166667
vt 0.770833 0.000000
vt 0.770833 0.333333
vt 0.770833 0.500000
vt 0.770833 0.666667
vt 0.791667 1.000000
vt 0.791667 0.833333
vt 0.791667 0.166667
vt 0.791667 0.000000
vt 0.791667 0.333333
vt 0.791667 0.500000
vt 0.791667 0.666667
vt 0.812500 1.000000
vt 0.812500 0.833333
vt 0.812500 0.166667
vt 0.812500 0.000000
vt 0.812500 0.333333
vt 0.812500 0.500000
vt 0.812500 0.666667
vt 0.833333 1.000000
vt 0.833333 0.833333
vt 0.833333 0.166667
vt 0.833333 0.000000
vt 0.833333 0.333333
vt 0.833333 0.500000
vt 0.833333 0.666667
vt 0.854167 1.000000
vt 0.854167 0.833333
vt 0.854167 0.166667
vt 0.854167 0.000000
vt 0.854167 0.333333
vt 0.854167 0.500000
vt 0.854167 0.666667
vt 0.875000 1.000000
vt 0.875000 0.833333
vt 0.875000 0.166667
vt 0.875000 0.000000
vt 0.875000 0.333333
vt 0.875000 0.500000
vt 0.875000 0.666667
vt 0.895833 1.000000
vt 0.895833 0.833333
vt 0.895833 0.166667
vt 0.895833 0.000000
vt 0.895833 0.333333
vt 0.895833 0.500000
vt 0.895833 0.666667
vt 0.916667 1.000000
vt 0.916667 0.833333
vt 0.916667 0.166667
vt 0.916667 0.000000
vt 0.916667 0.333333
vt 0.916667 0.500000
vt 0.916667 0.666667
vt 0.937500 1.000000
vt 0.937500 0.833333
vt 0.937500 0.166667
vt 0.937500 0.000000
vt 0.937500 0.333333
vt 0.937500 0.500000
vt 0.937500 0.666667
vt 0.958333 1.000000
vt 0.958333 0.833333
vt 0.958333 0.166667
vt 0.958333 0.000000
vt 0.958333 0.333333
vt 0.958333 0.500000
vt 0.958333 0.666667
vt 0.979167 1.000000
vt 0.979167 0.833333
vt 0.979167 0.166667
vt 0.979167 0.000000
vt 0.979167 0.333333
vt 0.979167 0.500000
vt 0.979167 0.666667
vt 1.000000 1.000000
vt 1.000000 0.833333
vt 1.000000 0.166667
vt 1.000000 0.000000
vt 1.000000 0.333333
vt 1.000000 0.500000
vt 1.000000 0.666667
s 1
f 157/183/157 163/184/157 168/185/162 162/186/162
f 158/187/158 164/188/158 163/189/157 157/190/157
f 159/191/159 165/192/159 164/188/158 158/187/158
f 160/193/160 166/194/160 165/192/159 159/191/159
f 161/195/161 167/196/161 166/194/160 160/193/160
f 162/186/162 168/185/162 167/196/161 161/195/161
f 163/184/157 169/197/157 174/198/162 168/185/162
f 164/188/158 170/199/158 169/200/157 163/189/157
f 165/192/159 171/201/159 170/199/158 164/188/158
f 166/194/160 172/202/160 171/201/159 165/192/159
f 167/196/161 173/203/161 172/202/160 166/194/160
f 168/185/162 174/198/162 173/203/161 167/196/161
f 169/197/157 175/204/157 180/205/162 174/198/162
f 170/199/158 176/206/158 175/207/157 169/200/157
f 171/201/159 177/208/159 176/206/158 170/199/158
f 172/202/160 178/209/160 177/208/159 171/201/159
f 173/203/161 179/210/161 178/209/160 172/202/160
f 174/198/162 180/205/162 179/210/161 173/203/161
f 175/204/157 181/211/157 186/212/162 180/205/162
f 176/206/158 182/213/158 181/214/157 175/207/157
f 177/208/159 183/215/159 182/213/158 176/206/158
f 178/209/160 184/216/160 183/215/159 177/208/159
f 179/210/161 185/217/161 184/216/160 178/209/160
f 180/205/162 186/212/162 185/217/161 179/210/161
f 181/211/157 187/218/157 192/219/162 186/212/162
f 182/213/158 188/220/158 187/221/157 181/214/157
f 183/215/159 189/222/159 188/220/158 182/213/158
f 184/216/160 190/223/160 189/222/159 183/215/159
f 185/217/161 191/224/161 190/223/160 184/216/160
f 186/212/162 192/219/162 191/224/161 185/217/161
f 187/218/157 193/225/157 198/226/162 192/219/162
f 188/220/158 194/227/158 193/228/157 187/221/157
f 189/222/159 195/229/159 194/227/158 188/220/158
f 190/223/160 196/230/160 195/229/159 189/222/159
f 191/224/161 197/231/161 196/230/160 190/223/160
f 192/219/162 198/226/162 197/231/161 191/224/161
f 193/225/157 199/232/157 204/233/162 198/226/162
f 194/227/158 200/234/158 199/235/157 193/228/157
f 195/229/159 201/236/159 200/234/158 194/227/158
f 196/230/160 202/237/160 201/236/159 195/229/159
f 197/231/161 203/238/161 202/237/160 196/230/160
f 198/226/162 204/233/162 203/238/161 197/231/161
f 199/232/157 205/239/157 210/240/162 204/233/162
f 200/234/158 206/241/158 205/242/157 199/235/157
f 201/236/159 207/243/159 206/241/158 200/234/158
f 202/237/160 208/244/160 207/243/159 201/236/159
f 203/238/161 209/245/161 208/244/160 202/237/160
f 204/233/162 210/240/162 209/245/161 203/238/161
f 205/239/157 211/246/157 216/247/162 210/240/162
f 206/241/158 212/248/158 211/249/157 205/242/157
f 207/243/159 213/250/159 212/248/158 206/241/158
f 208/244/160 214/251/160 213/250/159 207/243/159
f 209/245/161 215/252/161 214/251/160 208/244/160
f 210/240/162 216/247/162 215/252/161 209/245/161
f 211/246/157 217/253/157 222/254/162 216/247/162
f 212/248/158 218/255/158 217/256/157 211/249/157
f 213/250/159 219/257/159 218/255/158 212/248/158
f 214/251/160 220/258/160 219/257/159 213/250/159
f 215/252/161 221/259/161 220/258/160 214/251/160
f 216/247/162 222/254/162 221/259/161 215/252/161
f 217/253/157 223/260/163 228/261/168 222/254/162
f 218/255/158 224/262/164 223/263/163 217/256/157
f 219/257/159 225/264/165 224/262/164 218/255/158
f 220/258/160 226/265/166 225/264/165 219/257/159
f 221/259/161 227/266/167 226/265/166 220/258/160
f 222/254/162 228/261/168 227/266/167 221/259/161
f 223/260/163 229/267/169 234/268/174 228/261/168
f 224/262/164 230/269/170 229/270/169 223/263/163
f 225/264/165 231/271/171 230/269/170 224/262/164
f 226/265/166 232/272/172 231/271/171 225/264/165
f 227/266/167 233/273/173 232/272/172 226/265/166
f 228/261/168 234/268/174 233/273/173 227/266/167
f 229/267/169 235/274/175 240/275/180 234/268/174
f 230/269/170 236/276/176 235/277/175 229/270/169
f 231/271/171 237/278/177 236/276/176 230/269/170
f 232/272/172 238/279/178 237/278/177 231/271/171
f 233/273/173 239/280/179 238/279/178 232/272/172
f 234/268/174 240/275/180 239/280/179 233/273/173
f 235/274/175 241/281/181 246/282/186 240/275/180
f 236/276/176 242/283/182 241/284/181 235/277/175
f 237/278/177 243/285/183 242/283/182 236/276/176
f 238/279/178 244/286/184 243/285/183 237/278/177
f 239/280/179 245/287/185 244/286/184 238/279/178
f 240/275/180 246/282/186 245/287/185 239/280/179
f 241/281/181 247/288/187 252/289/192 246/282/186
f 242/283/182 248/290/188 247/291/187 241/284/181
f 243/285/183 249/292/189 248/290/188 242/283/182
f 244/286/184 250/293/190 249/292/189 243/285/183
f 245/287/185 251/294/191 250/293/190 244/286/184
f 246/282/186 252/289/192 251/294/191 245/287/185
f 247/288/187 253/295/193 258/296/198 252/289/192
f 248/290/188 254/297/194 253/298/193 247/291/187
f 249/292/189 255/299/195 254/297/194 248/290/188
f 250/293/190 256/300/196 255/299/195 249/292/189
f 251/294/191 257/301/197 256/300/196 250/293/190
f 252/289/192 258/296/198 257/301/197 251/294/191
f 253/295/193 259/302/199 264/303/204 258/296/198
f 254/297/194 260/304/200 259/305/199 253/298/193
f 255/299/195 261/306/201 260/304/200 254/297/194
f 256/300/196 262/307/202 261/306/201 255/299/195
f 257/301/197 263/308/203 262/307/202 256/300/196
f 258/296/198 264/303/204 263/308/203 257/301/197
f 259/302/199 265/309/205 270/310/210 264/303/204
f 260/304/200 266/311/206 265/312/205 259/305/199
f 261/306/201 267/313/207 266/311/206 260/304/200
f 262/307/202 268/314/208 267/313/207 261/306/201
f 263/308/203 269/315/209 268/314/208 262/307/202
f 264/303/204 270/310/210 269/315/209 263/308/203
f 265/309/205 271/316/211 276/317/216 270/310/210
f 266/311/206 272/318/212 271/319/211 265/312/205
f 267/313/207 273/320/213 272/318/212 266/311/206
f 268/314/208 274/321/214 273/320/213 267/313/207
f 269/315/209 275/322/215 274/321/214 268/314/208
f 270/310/210 276/317/216 275/322/215 269/315/209
f 271/316/211 277/323/217 282/324/222 276/317/216
f 272/318/212 278/325/218 277/326/217 271/319/211
f 273/320/213 279/327/219 278/325/218 272/318/212
f 274/321/214 280/328/220 279/327/219 273/320/213
f 275/322/215 281/329/221 280/328/220 274/321/214
f 276/317/216 282/324/222 281/329/221 275/322/215
f 277/323/217 283/330/223 288/331/228 282/324/222
f 278/325/218 284/332/224 283/333/223 277/326/217
f 279/327/219 285/334/225 284/332/224 278/325/218
f 280/328/220 286/335/226 285/334/225 279/327/219
f 281/329/221 287/336/227 286/335/226 280/328/220
f 282/324/222 288/331/228 287/336/227 281/329/221
f 283/330/223 289/337/229 294/338/234 288/331/228
f 284/332/224 290/339/230 289/340/229 283/333/223
f 285/334/225 291/341/231 290/339/230 284/332/224
f 286/335/226 292/342/232 291/341/231 285/334/225
f 287/336/227 293/343/233 292/342/232 286/335/226
f 288/331/228 294/338/234 293/343/233 287/336/227
f 289/337/229 295/344/235 300/345/240 294/338/234
f 290/339/230 296/346/236 295/347/235 289/340/229
f 291/341/231 297/348/237 296/346/236 290/339/230
f 292/342/232 298/349/238 297/348/237 291/341/231
f 293/343/233 299/350/239 298/349/238 292/342/232
f 294/338/234 300/345/240 299/350/239 293/343/233
f 295/344/235 301/351/241 306/352/246 300/345/240
f 296/346/236 302/353/242 301/354/241 295/347/235
f 297/348/237 303/355/243 302/353/242 296/346/236
f 298/349/238 304/356/244 303/355/243 297/348/237
f 299/350/239 305/357/245 304/356/244 298/349/238
f 300/345/240 306/352/246 305/357/245 299/350/239
f 301/351/241 307/358/247 312/359/252 306/352/246
f 302/353/242 308/360/248 307/361/247 301/354/241
f 303/355/243 309/362/249 308/360/248 302/353/242
f 304/356/244 310/363/250 309/362/249 303/355/243
f 305/357/245 311/364/251 310/363/250 304/356/244
f 306/352/246 312/359/252 311/364/251 305/357/245
f 307/358/247 313/365/253 318/366/258 312/359/252
f 308/360/248 314/367/254 313/368/253 307/361/247
f 309/362/249 315/369/255 314/367/254 308/360/248
f 310/363/250 316/370/256 315/369/255 309/362/249
f 311/364/251 317/371/257 316/370/256 310/363/250
f 312/359/252 318/366/258 317/371/257 311/364/251
f 313/365/253 319/372/253 324/373/258 318/366/258
f 314/367/254 320/374/254 319/375/253 313/368/253
f 315/369/255 321/376/255 320/374/254 314/367/254
f 316/370/256 322/377/256 321/376/255 315/369/255
f 317/371/257 323/378/257 322/377/256 316/370/256
f 318/366/258 324/373/258 323/378/257 317/371/257
f 319/372/253 325/379/253 330/380/258 324/373/258
f 320/374/254 326/381/254 325/382/253 319/375/253
f 321/376/255 327/383/255 326/381/254 320/374/254
f 322/377/256 328/384/256 327/383/255 321/376/255
f 323/378/257 329/385/257 328/384/256 322/377/256
f 324/373/258 330/380/258 329/385/257 323/378/257
f 325/379/253 331/386/253 336/387/258 330/380/258
f 326/381/254 332/388/254 331/389/253 325/382/253
f 327/383/255 333/390/255 332/388/254 326/381/254
f 328/384/256 334/391/256 333/390/255 327/383/255
f 329/385/257 335/392/257 334/391/256 328/384/256
f 330/380/258 336/387/258 335/392/257 329/385/257
f 331/386/253 337/393/253 342/394/258 336/387/258
f 332/388/254 338/395/254 337/396/253 331/389/253
f 333/390/255 339/397/255 338/395/254 332/388/254
f 334/391/256 340/398/256 339/397/255 333/390/255
f 335/392/257 341/399/257 340/398/256 334/391/256
f 336/387/258 342/394/258 341/399/257 335/392/257
f 337/393/253 343/400/253 348/401/258 342/394/258
f 338/395/254 344/402/254 343/403/253 337/396/253
f 339/397/255 345/404/255 344/402/254 338/395/254
f 340/398/256 346/405/256 345/404/255 339/397/255
f 341/399/257 347/406/257 346/405/256 340/398/256
f 342/394/258 348/401/258 347/406/257 341/399/257
f 343/400/253 349/407/253 354/408/258 348/401/258
f 344/402/254 350/409/254 349/410/253 343/403/253
f 345/404/255 351/411/255 350/409/254 344/402/254
f 346/405/256 352/412/256 351/411/255 345/404/255
f 347/406/257 353/413/257 352/412/256 346/405/256
f 348/401/258 354/408/258 353/413/257 347/406/257
f 349/407/253 355/414/253 360/415/258 354/408/258
f 350/409/254 356/416/254 355/417/253 349/410/253
f 351/411/255 357/418/255 356/416/254 350/409/254
f 352/412/256 358/419/256 357/418/255 351/411/255
f 353/413/257 359/420/257 358/419/256 352/412/256
f 354/408/258 360/415/258 359/420/257 353/413/257
f 355/414/253 361/421/253 366/422/258 360/415/258
f 356/416/254 362/423/254 361/424/253 355/417/253
f 357/418/255 363/425/255 362/423/254 356/416/254
f 358/419/256 364/426/256 363/425/255 357/418/255
f 359/420/257 365/427/257 364/426/256 358/419/256
f 360/415/258 366/422/258 365/427/257 359/420/257
f 361/421/253 367/428/259 372/429/264 366/422/258
f 362/423/254 368/430/260 367/431/259 361/424/253
f 363/425/255 369/432/261 368/430/260 362/423/254
f 364/426/256 370/433/262 369/432/261 363/425/255
f 365/427/257 371/434/263 370/433/262 364/426/256
f 366/422/258 372/429/264 371/434/263 365/427/257
f 367/428/259 373/435/265 378/436/270 372/429/264
f 368/430/260 374/437/266 373/438/265 367/431/259
f 369/432/261 375/439/267 374/437/266 368/430/260
f 370/433/262 376/440/268 375/439/267 369/432/261
f 371/434/263 377/441/269 376/440/268 370/433/262
f 372/429/264 378/436/270 377/441/269 371/434/263
f 373/435/265 379/442/271 384/443/276 378/436/270
f 374/437/266 380/444/272 379/445/271 373/438/265
f 375/439/267 381/446/273 380/444/272 374/437/266
f 376/440/268 382/447/274 381/446/273 375/439/267
f 377/441/269 383/448/275 382/447/274 376/440/268
f 378/436/270 384/443/276 383/448/275 377/441/269
f 379/442/271 385/449/277 390/450/282 384/443/276
f 380/444/272 386/451/278 385/452/277 379/445/271
f 381/446/273 387/453/279 386/451/278 380/444/272
f 382/447/274 388/454/280 387/453/279 381/446/273
f 383/448/275 389/455/281 388/454/280 382/447/274
f 384/443/276 390/450/282 389/455/281 383/448/275
f 385/449/277 391/456/283 396/457/288 390/450/282
f 386/451/278 392/458/284 391/459/283 385/452/277
f 387/453/279 393/460/285 392/458/284 386/451/278
f 388/454/280 394/461/286 393/460/285 387/453/279
f 389/455/281 395/462/287 394/461/286 388/454/280
f 390/450/282 396/457/288 395/462/287 389/455/281
f 391/456/283 397/463/289 402/464/294 396/457/288
f 392/458/284 398/465/290 397/466/289 391/459/283
f 393/460/285 399/467/291 398/465/290 392/458/284
f 394/461/286 400/468/292 399/467/291 393/460/285
f 395/462/287 401/469/293 400/468/292 394/461/286
f 396/457/288 402/464/294 401/469/293 395/462/287
f 397/463/289 403/470/295 408/471/300 402/464/294
f 398/465/290 404/472/296 403/473/295 397/466/289
f 399/467/291 405/474/297 404/472/296 398/465/290
f 400/468/292 406/475/298 405/474/297 399/467/291
f 401/469/293 407/476/299 406/475/298 400/468/292
f 402/464/294 408/471/300 407/476/299 401/469/293
f 403/470/295 409/477/301 414/478/306 408/471/300
f 404/472/296 410/479/302 409/480/301 403/473/295
f 405/474/297 411/481/303 410/479/302 404/472/296
f 406/475/298 412/482/304 411/481/303 405/474/297
f 407/476/299 413/483/305 412/482/304 406/475/298
f 408/471/300 414/478/306 413/483/305 407/476/299
f 409/477/301 415/484/307 420/485/312 414/478/306
f 410/479/302 416/486/308 415/487/307 409/480/301
f 411/481/303 417/488/309 416/486/308 410/479/302
f 412/482/304 418/489/310 417/488/309 411/481/303
f 413/483/305 419/490/311 418/489/310 412/482/304
f 414/478/306 420/485/312 419/490/311 413/483/305
f 415/484/307 421/491/313 426/492/318 420/485/312
f 416/486/308 422/493/314 421/494/313 415/487/307
f 417/488/309 423/495/315 422/493/314 416/486/308
f 418/489/310 424/496/316 423/495/315 417/488/309
f 419/490/311 425/497/317 424/496/316 418/489/310
f 420/485/312 426/492/318 425/497/317 419/490/311
f 421/491/313 427/498/319 432/499/324 426/492/318
f 422/493/314 428/500/320 427/501/319 421/494/313
f 423/495/315 429/502/321 428/500/320 422/493/314
f 424/496/316 430/503/322 429/502/321 423/495/315
f 425/497/317 431/504/323 430/503/322 424/496/316
f 426/492/318 432/499/324 431/504/323 425/497/317
f 427/498/319 433/505/325 438/506/330 432/499/324
f 428/500/320 434/507/326 433/508/325 427/501/319
f 429/502/321 435/509/327 434/507/326 428/500/320
f 430/503/322 436/510/328 435/509/327 429/502/321
f 431/504/323 437/511/329 436/510/328 430/503/322
f 432/499/324 438/506/330 437/511/329 431/504/323
f 433/505/325 439/512/331 444/513/336 438/506/330
f 434/507/326 440/514/332 439/515/331 433/508/325
f 435/509/327 441/516/333 440/514/332 434/507/326
f 436/510/328 442/517/334 441/516/333 435/509/327
f 437/511/329 443/518/335 442/517/334 436/510/328
f 438/506/330 444/513/336 443/518/335 437/511/329
f 439/512/331 445/519/337 450/520/342 444/513/336
f 440/514/332 446/521/338 445/522/337 439/515/331
f 441/516/333 447/523/339 446/521/338 440/514/332
f 442/517/334 448/524/340 447/523/339 441/516/333
f 443/518/335 449/525/341 448/524/340 442/517/334
f 444/513/336 450/520/342 449/525/341 443/518/335
o BézierCurve.013
v -0.570000 1.934641 0.400000
v -0.610000 1.934641 0.400000
v -0.630000 1.900000 0.400000
v -0.610000 1.865359 0.400000
v -0.570000 1.865359 0.400000
v -0.550000 1.900000 0.400000
v -0.570000 1.934641 0.593342
v -0.610000 1.934641 0.593342
v -0.630000 1.900000 0.593342
v -0.610000 1.865359 0.593342
v -0.570000 1.865359 0.593342
v -0.550000 1.900000 0.593342
v -0.570000 1.934641 0.839591
v -0.610000 1.934641 0.839591
v -0.630000 1.900000 0.839591
v -0.610000 1.865359 0.839591
v -0.570000 1.865359 0.839591
v -0.550000 1.900000 0.839591
v -0.570000 1.934641 1.125964
v -0.610000 1.934641 1.125964
v -0.630000 1.900000 1.125964
v -0.610000 1.865359 1.125964
v -0.570000 1.865359 1.125964
v -0.550000 1.900000 1.125964
v -0.570000 1.934641 1.439680
v -0.610000 1.934641 1.439680
v -0.630000 1.900000 1.439680
v -0.610000 1.865359 1.439680
v -0.570000 1.865359 1.439680
v -0.550000 1.900000 1.439680
v -0.570000 1.934641 1.767958
v -0.610000 1.934641 1.767958
v -0.630000 1.900000 1.767958
v -0.610000 1.865359 1.767958
v -0.570000 1.865359 1.767958
v -0.550000 1.900000 1.767958
v -0.570000 1.934641 2.098017
v -0.610000 1.934641 2.098017
v -0.630000 1.900000 2.098017
v -0.610000 1.865359 2.098017
v -0.570000 1.865359 2.098017
v -0.550000 1.900000 2.098017
v -0.570000 1.934641 2.417074
v -0.610000 1.934641 2.417074
v -0.630000 1.900000 2.417074
v -0.610000 1.865359 2.417074
v -0.570000 1.865359 2.417074
v -0.550000 1.900000 2.417074
v -0.570000 1.934641 2.712349
v -0.610000 1.934641 2.712349
v -0.630000 1.900000 2.712349
v -0.610000 1.865359 2.712349
v -0.570000 1.865359 2.712349
v -0.550000 1.900000 2.712349
v -0.570000 1.934641 2.971060
v -0.610000 1.934641 2.971060
v -0.630000 1.900000 2.971060
v -0.610000 1.865359 2.971060
v -0.570000 1.865359 2.971060
v -0.550000 1.900000 2.971060
v -0.570000 1.934641 3.180426
v -0.610000 1.934641 3.180426
v -0.630000 1.900000 3.180426
v -0.610000 1.865359 3.180426
v -0.570000 1.865359 3.180426
v -0.550000 1.900000 3.180426
v -0.570000 1.934641 3.327666
v -0.610000 1.934641 3.327666
v -0.630000 1.900000 3.327666
v -0.610000 1.865359 3.327666
v -0.570000 1.865359 3.327666
v -0.550000 1.900000 3.327666
v -0.570015 1.934641 3.400763
v -0.609984 1.934641 3.399177
v -0.629969 1.899999 3.398413
v -0.609985 1.865358 3.399236
v -0.570016 1.865359 3.400823
v -0.550032 1.900001 3.401586
v -0.582096 1.934899 3.551834
v -0.621516 1.934894 3.545046
v -0.641225 1.900251 3.541671
v -0.621515 1.865612 3.545084
v -0.582095 1.865617 3.551872
v -0.562386 1.900260 3.555247
v -0.615836 1.934799 3.677713
v -0.653213 1.934824 3.663465
v -0.671821 1.900197 3.656071
v -0.653053 1.865544 3.662924
v -0.615676 1.865519 3.677171
v -0.597068 1.900146 3.684566
v -0.667393 1.933001 3.780028
v -0.701004 1.933192 3.758343
v -0.717362 1.898663 3.746502
v -0.700108 1.863944 3.756346
v -0.666496 1.863754 3.778030
v -0.650138 1.898282 3.789871
v -0.732701 1.928122 3.860874
v -0.761143 1.928739 3.832756
v -0.773998 1.894501 3.816556
v -0.758411 1.859644 3.828474
v -0.729968 1.859026 3.856592
v -0.717113 1.893265 3.872792
v -0.807397 1.918758 3.922392
v -0.830108 1.920139 3.889493
v -0.838405 1.886508 3.869491
v -0.823992 1.851494 3.882388
v -0.801281 1.850113 3.915287
v -0.792984 1.883745 3.935289
v -0.887008 1.903497 3.966971
v -0.904342 1.905954 3.931006
v -0.907335 1.873385 3.907979
v -0.892992 1.838357 3.920917
v -0.875658 1.835900 3.956882
v -0.872666 1.868470 3.979909
v -0.967162 1.880868 3.997236
v -0.980134 1.884602 3.959583
v -0.977278 1.853744 3.934292
v -0.961449 1.819152 3.946654
v -0.948477 1.815418 3.984308
v -0.951333 1.846276 4.009598
v -1.043632 1.849248 4.015896
v -1.053637 1.854252 3.977492
v -1.044450 1.826103 3.950599
v -1.025257 1.792950 3.962111
v -1.015252 1.787946 4.000515
v -1.024439 1.816095 4.027407
v -1.112117 1.806783 4.025634
v -1.120771 1.812653 3.987025
v -1.104904 1.788788 3.959120
v -1.080383 1.759053 3.969823
v -1.071729 1.753183 4.008432
v -1.087596 1.777048 4.036337
v -1.167758 1.751565 4.029107
v -1.176640 1.757201 3.990515
v -1.154438 1.739829 3.962138
v -1.123354 1.716819 3.972353
v -1.114472 1.711182 4.010945
v -1.136674 1.728555 4.039322
v -1.204866 1.682530 4.029072
v -1.214831 1.686111 3.990499
v -1.188159 1.677225 3.962044
v -1.151523 1.664759 3.972162
v -1.141559 1.661177 4.010735
v -1.168230 1.670063 4.039190
v -1.218065 1.602117 4.028423
v -1.228562 1.603113 3.989837
v -1.200497 1.600997 3.961415
v -1.161935 1.597883 3.971577
v -1.151438 1.596886 4.010162
v -1.179503 1.599003 4.038585
v -1.218149 1.447977 4.028418
v -1.228686 1.447977 3.989831
v -1.200537 1.447977 3.961412
v -1.161851 1.447977 3.971581
v -1.151314 1.447977 4.010169
v -1.179464 1.447977 4.038587
v -1.218149 1.315964 4.028418
v -1.228686 1.315964 3.989831
v -1.200537 1.315964 3.961412
v -1.161851 1.315964 3.971581
v -1.151314 1.315964 4.010169
v -1.179464 1.315964 4.038587
v -1.218149 1.202160 4.028418
v -1.228686 1.202160 3.989831
v -1.200537 1.202160 3.961412
v -1.161851 1.202160 3.971581
v -1.151314 1.202160 4.010169
v -1.179464 1.202160 4.038587
v -1.218149 1.104764 4.028418
v -1.228686 1.104764 3.989831
v -1.200537 1.104764 3.961412
v -1.161851 1.104764 3.971581
v -1.151314 1.104764 4.010169
v -1.179464 1.104764 4.038587
v -1.218149 1.021972 4.028418
v -1.228686 1.021972 3.989831
v -1.200537 1.021972 3.961412
v -1.161851 1.021972 3.971581
v -1.151314 1.021972 4.010169
v -1.179464 1.021972 4.038587
v -1.218149 0.951983 4.028418
v -1.228686 0.951983 3.989831
v -1.200537 0.951983 3.961412
v -1.161851 0.951983 3.971581
v -1.151314 0.951983 4.010169
v -1.179464 0.951983 4.038587
v -1.218149 0.892995 4.028418
v -1.228686 0.892995 3.989831
v -1.200537 0.892995 3.961412
v -1.161851 0.892995 3.971581
v -1.151314 0.892995 4.010169
v -1.179464 0.892995 4.038587
v -1.218149 0.843206 4.028418
v -1.228686 0.843206 3.989831
v -1.200537 0.843206 3.961412
v -1.161851 0.843206 3.971581
v -1.151314 0.843206 4.010169
v -1.179464 0.843206 4.038587
v -1.218149 0.800814 4.028418
v -1.228686 0.800814 3.989831
v -1.200537 0.800814 3.961412
v -1.161851 0.800814 3.971581
v -1.151314 0.800814 4.010169
v -1.179464 0.800814 4.038587
v -1.218149 0.764017 4.028418
v -1.228686 0.764017 3.989831
v -1.200537 0.764017 3.961412
v -1.161851 0.764017 3.971581
v -1.151314 0.764017 4.010169
v -1.179464 0.764017 4.038587
v -1.218149 0.731013 4.028418
v -1.228686 0.731013 3.989831
v -1.200537 0.731013 3.961412
v -1.161851 0.731013 3.971581
v -1.151314 0.731013 4.010169
v -1.179464 0.731013 4.038587
v -1.218108 0.703530 4.028239
v -1.228687 0.699868 3.989838
v -1.200579 0.696338 3.961598
v -1.161892 0.696470 3.971760
v -1.151313 0.700132 4.010162
v -1.179421 0.703661 4.038401
v -1.219673 0.667776 4.035066
v -1.230874 0.653596 3.999380
v -1.203366 0.639928 3.973759
v -1.164656 0.640438 3.983823
v -1.153455 0.654618 4.019508
v -1.180963 0.668287 4.045130
v -1.224089 0.640526 4.054334
v -1.236917 0.615663 4.025747
v -1.210976 0.591695 4.006968
v -1.172208 0.592591 4.016777
v -1.159380 0.617454 4.045364
v -1.185320 0.641422 4.064143
v -1.231436 0.617057 4.086394
v -1.246019 0.586244 4.065467
v -1.221771 0.556542 4.054073
v -1.182940 0.557652 4.063606
v -1.168356 0.588464 4.084532
v -1.192604 0.618167 4.095926
v -1.241335 0.598943 4.129591
v -1.257404 0.565281 4.115146
v -1.234588 0.532832 4.109999
v -1.195703 0.534045 4.119298
v -1.179633 0.567707 4.133743
v -1.202450 0.600156 4.138890
v -1.253003 0.587628 4.180507
v -1.270307 0.552720 4.171451
v -1.248682 0.519070 4.171500
v -1.209752 0.520328 4.180604
v -1.192448 0.555236 4.189661
v -1.214074 0.588886 4.189612
v -1.265558 0.583794 4.235289
v -1.283970 0.548536 4.231070
v -1.263413 0.514547 4.235781
v -1.224443 0.515818 4.244711
v -1.206031 0.551076 4.248931
v -1.226588 0.585065 4.244220
v -1.278112 0.587628 4.290071
v -1.297633 0.552720 4.290689
v -1.278144 0.519070 4.300062
v -1.239134 0.520328 4.308818
v -1.219614 0.555236 4.308201
v -1.239102 0.588886 4.298828
v -1.289780 0.598943 4.340987
v -1.310536 0.565281 4.346994
v -1.292238 0.532832 4.361562
v -1.253184 0.534045 4.370125
v -1.232428 0.567707 4.364118
v -1.250726 0.600156 4.349550
v -1.299680 0.617057 4.384185
v -1.321921 0.586244 4.396672
v -1.305054 0.556542 4.417488
v -1.265947 0.557652 4.425817
v -1.243706 0.588465 4.413329
v -1.260572 0.618167 4.392513
v -1.307027 0.640527 4.416244
v -1.331023 0.615663 4.436392
v -1.315849 0.591695 4.464593
v -1.276678 0.592591 4.472646
v -1.252682 0.617455 4.452498
v -1.267856 0.641423 4.424297
v -1.311442 0.667776 4.435513
v -1.337066 0.653597 4.462759
v -1.323460 0.639928 4.497803
v -1.284230 0.640439 4.505600
v -1.258607 0.654618 4.478353
v -1.272213 0.668287 4.443310
v -1.312965 0.700000 4.442160
v -1.339254 0.700000 4.472308
v -1.326289 0.700000 4.510149
v -1.287035 0.700000 4.517840
v -1.260747 0.700000 4.487692
v -1.273712 0.700000 4.449852
vn 0.5000 0.8660 -0.0000
vn -0.5000 0.8660 -0.0000
vn -1.0000 -0.0000 -0.0000
vn -0.5000 -0.8660 -0.0000
vn 0.5000 -0.8660 -0.0000
vn 1.0000 -0.0000 -0.0000
vn 0.5000 0.8660 0.0001
vn -0.5001 0.8660 0.0001
vn -1.0000 -0.0000 0.0002
vn -0.5000 -0.8660 0.0001
vn 0.5000 -0.8660 0.0001
vn 1.0000 -0.0000 0.0001
vn 0.5091 0.8605 0.0197
vn -0.4902 0.8714 -0.0200
vn -0.9992 -0.0003 -0.0390
vn -0.4900 -0.8715 -0.0184
vn 0.5088 -0.8606 0.0211
vn 0.9992 -0.0002 0.0401
vn 0.5133 0.8537 0.0882
vn -0.4706 0.8786 -0.0814
vn -0.9856 0.0003 -0.1692
vn -0.4709 -0.8785 -0.0804
vn 0.5136 -0.8534 0.0892
vn 0.9854 0.0005 0.1702
vn 0.4863 0.8522 0.1930
vn -0.4447 0.8809 -0.1619
vn -0.9345 0.0031 -0.3560
vn -0.4425 -0.8793 -0.1762
vn 0.4922 -0.8516 0.1803
vn 0.9343 0.0017 0.3564
vn 0.4277 0.8499 0.3078
vn -0.4077 0.8836 -0.2302
vn -0.8403 0.0101 -0.5420
vn -0.3885 -0.8768 -0.2833
vn 0.4537 -0.8521 0.2610
vn 0.8402 0.0001 0.5422
vn 0.3357 0.8442 0.4180
vn -0.3700 0.8867 -0.2771
vn -0.7111 0.0242 -0.7026
vn -0.3059 -0.8682 -0.3908
vn 0.4084 -0.8556 0.3179
vn 0.7109 -0.0075 0.7032
vn 0.2167 0.8316 0.5114
vn -0.3465 0.8891 -0.2992
vn -0.5684 0.0469 -0.8214
vn -0.1974 -0.8504 -0.4876
vn 0.3737 -0.8609 0.3451
vn 0.5670 -0.0232 0.8234
vn 0.0797 0.8084 0.5832
vn -0.3504 0.8873 -0.3000
vn -0.4356 0.0777 -0.8968
vn -0.0696 -0.8205 -0.5674
vn 0.3665 -0.8633 0.3469
vn 0.4311 -0.0463 0.9011
vn -0.0702 0.7696 0.6347
vn -0.3923 0.8741 -0.2865
vn -0.3298 0.1140 -0.9371
vn 0.0727 -0.7735 -0.6296
vn 0.3990 -0.8547 0.3322
vn 0.3189 -0.0738 0.9449
vn -0.2324 0.7065 0.6685
vn -0.4801 0.8358 -0.2664
vn -0.2617 0.1505 -0.9534
vn 0.2268 -0.7009 -0.6763
vn 0.4790 -0.8211 0.3104
vn 0.2387 -0.1005 0.9659
vn -0.4047 0.6041 0.6865
vn -0.6162 0.7477 -0.2476
vn -0.2384 0.1757 -0.9552
vn 0.3877 -0.5884 -0.7096
vn 0.6088 -0.7386 0.2895
vn 0.1943 -0.1182 0.9738
vn -0.5706 0.4447 0.6904
vn -0.7815 0.5766 -0.2382
vn -0.2586 0.1674 -0.9514
vn 0.5371 -0.4222 -0.7303
vn 0.7719 -0.5731 0.2751
vn 0.1850 -0.1130 0.9762
vn -0.6889 0.2315 0.6868
vn -0.9184 0.3143 -0.2402
vn -0.2943 0.1054 -0.9499
vn 0.6394 -0.2117 -0.7391
vn 0.9122 -0.3096 0.2684
vn 0.2003 -0.0728 0.9770
vn -0.7148 0.0554 0.6971
vn -0.9652 0.0799 -0.2489
vn -0.2850 0.0274 -0.9581
vn 0.6884 -0.0496 -0.7236
vn 0.9630 -0.0744 0.2589
vn 0.2397 -0.0224 0.9706
vn -0.7038 0.0001 0.7104
vn -0.9672 0.0002 -0.2542
vn -0.2634 0.0001 -0.9647
vn 0.7038 0.0002 -0.7104
vn 0.9672 0.0004 0.2542
vn 0.2635 0.0001 0.9647
vn -0.7037 -0.0000 0.7105
vn -0.9671 -0.0000 -0.2542
vn -0.2634 -0.0000 -0.9647
vn 0.7037 -0.0000 -0.7105
vn 0.9671 -0.0000 0.2542
vn 0.2634 -0.0000 0.9647
vn -0.7033 -0.0029 0.7109
vn -0.9672 -0.0004 -0.2539
vn -0.2627 -0.0021 -0.9649
vn 0.7032 -0.0019 -0.7110
vn 0.9670 -0.0004 0.2546
vn 0.2629 -0.0031 0.9648
vn -0.7154 0.0785 0.6943
vn -0.9587 -0.0079 -0.2845
vn -0.2493 -0.0981 -0.9634
vn 0.6900 -0.0947 -0.7176
vn 0.9747 -0.0013 0.2234
vn 0.2797 0.0813 0.9566
vn -0.7171 0.3306 0.6136
vn -0.9508 -0.0390 -0.3074
vn -0.2539 -0.3615 -0.8971
vn 0.6651 -0.3499 -0.6597
vn 0.9809 -0.0137 0.1942
vn 0.3154 0.3449 0.8841
vn -0.6692 0.5918 0.4495
vn -0.9582 -0.0576 -0.2803
vn -0.2984 -0.6268 -0.7198
vn 0.6295 -0.6064 -0.4859
vn 0.9777 -0.0131 0.2094
vn 0.3461 0.6166 0.7071
vn -0.6212 0.7344 0.2732
vn -0.9649 -0.0596 -0.2558
vn -0.3485 -0.7763 -0.5253
vn 0.5917 -0.7503 -0.2949
vn 0.9754 -0.0042 0.2205
vn 0.3819 0.7642 0.5198
vn -0.5821 0.8038 0.1223
vn -0.9690 -0.0567 -0.2404
vn -0.3900 -0.8470 -0.3612
vn 0.5591 -0.8182 -0.1344
vn 0.9745 0.0038 0.2243
vn 0.4141 0.8357 0.3607
vn -0.5507 0.8347 -0.0049
vn -0.9715 -0.0543 -0.2306
vn -0.4232 -0.8776 -0.2253
vn 0.5310 -0.8474 -0.0022
vn 0.9744 0.0086 0.2245
vn 0.4425 0.8674 0.2275
vn -0.5236 0.8435 -0.1200
vn -0.9733 -0.0534 -0.2231
vn -0.4517 -0.8862 -0.1035
vn 0.5046 -0.8556 0.1156
vn 0.9747 0.0101 0.2234
vn 0.4693 0.8765 0.1076
vn -0.4979 0.8347 -0.2354
vn -0.9750 -0.0543 -0.2154
vn -0.4790 -0.8776 0.0185
vn 0.4770 -0.8474 0.2332
vn 0.9749 0.0086 0.2223
vn 0.4974 0.8674 -0.0121
vn -0.4708 0.8038 -0.3636
vn -0.9770 -0.0567 -0.2055
vn -0.5083 -0.8470 0.1553
vn 0.4448 -0.8182 0.3644
vn 0.9749 0.0038 0.2224
vn 0.5299 0.8357 -0.1444
vn -0.4403 0.7344 -0.5165
vn -0.9800 -0.0596 -0.1899
vn -0.5425 -0.7763 0.3211
vn 0.4042 -0.7503 0.5231
vn 0.9741 -0.0042 0.2263
vn 0.5702 0.7642 -0.3016
vn -0.4067 0.5918 -0.6960
vn -0.9846 -0.0576 -0.1649
vn -0.5821 -0.6268 0.5180
vn 0.3551 -0.6064 0.7115
vn 0.9714 -0.0131 0.2373
vn 0.6195 0.6166 -0.4858
vn -0.3764 0.3359 -0.8634
vn -0.9899 -0.0382 -0.1362
vn -0.6191 -0.3577 0.6991
vn 0.3104 -0.3463 0.8853
vn 0.9673 -0.0129 0.2532
vn 0.6665 0.3505 -0.6580
vn -0.3544 0.1727 -0.9190
vn -0.9916 -0.0205 -0.1274
vn -0.6244 -0.1854 0.7588
vn 0.2889 -0.1797 0.9404
vn 0.9665 -0.0072 0.2567
vn 0.6714 0.1799 -0.7189
vt 0.020833 1.000000
vt 0.000000 0.833333
vt 0.000000 1.000000
vt 0.020833 0.166667
vt 0.000000 0.000000
vt 0.000000 0.166667
vt 0.020833 0.333333
vt 0.000000 0.333333
vt 0.020833 0.500000
vt 0.000000 0.500000
vt 0.020833 0.666667
vt 0.000000 0.666667
vt 0.020833 0.833333
vt 0.041667 1.000000
vt 0.041667 0.166667
vt 0.020833 0.000000
vt 0.041667 0.333333
vt 0.041667 0.500000
vt 0.041667 0.666667
vt 0.041667 0.833333
vt 0.062500 1.000000
vt 0.062500 0.166667
vt 0.041667 0.000000
vt 0.062500 0.333333
vt 0.062500 0.500000
vt 0.062500 0.666667
vt 0.062500 0.833333
vt 0.083333 1.000000
vt 0.083333 0.166667
vt 0.062500 0.000000
vt 0.083333 0.333333
vt 0.083333 0.500000
vt 0.083333 0.666667
vt 0.083333 0.833333
vt 0.104167 1.000000
vt 0.104167 0.166667
vt 0.083333 0.000000
vt 0.104167 0.333333
vt 0.104167 0.500000
vt 0.104167 0.666667
vt 0.104167 0.833333
vt 0.125000 1.000000
vt 0.125000 0.166667
vt 0.104167 0.000000
vt 0.125000 0.333333
vt 0.125000 0.500000
vt 0.125000 0.666667
vt 0.125000 0.833333
vt 0.145833 1.000000
vt 0.145833 0.166667
vt 0.125000 0.000000
vt 0.145833 0.333333
vt 0.145833 0.500000
vt 0.145833 0.666667
vt 0.145833 0.833333
vt 0.166667 1.000000
vt 0.166667 0.166667
vt 0.145833 0.000000
vt 0.166667 0.333333
vt 0.166667 0.500000
vt 0.166667 0.666667
vt 0.166667 0.833333
vt 0.187500 1.000000
vt 0.187500 0.166667
vt 0.166667 0.000000
vt 0.187500 0.333333
vt 0.187500 0.500000
vt 0.187500 0.666667
vt 0.187500 0.833333
vt 0.208333 1.000000
vt 0.208333 0.166667
vt 0.187500 0.000000
vt 0.208333 0.333333
vt 0.208333 0.500000
vt 0.208333 0.666667
vt 0.208333 0.833333
vt 0.229167 1.000000
vt 0.229167 0.166667
vt 0.208333 0.000000
vt 0.229167 0.333333
vt 0.229167 0.500000
vt 0.229167 0.666667
vt 0.229167 0.833333
vt 0.250000 1.000000
vt 0.250000 0.166667
vt 0.229167 0.000000
vt 0.250000 0.333333
vt 0.250000 0.500000
vt 0.250000 0.666667
vt 0.270833 1.000000
vt 0.250000 0.833333
vt 0.270833 0.166667
vt 0.250000 0.000000
vt 0.270833 0.333333
vt 0.270833 0.500000
vt 0.270833 0.666667
vt 0.291667 1.000000
vt 0.270833 0.833333
vt 0.291667 0.166667
vt 0.270833 0.000000
vt 0.291667 0.333333
vt 0.291667 0.500000
vt 0.291667 0.666667
vt 0.312500 0.833333
vt 0.291667 0.833333
vt 0.312500 0.166667
vt 0.291667 0.000000
vt 0.312500 0.333333
vt 0.312500 0.500000
vt 0.312500 0.666667
vt 0.312500 1.000000
vt 0.333333 0.833333
vt 0.333333 0.000000
vt 0.312500 0.000000
vt 0.333333 0.333333
vt 0.333333 0.500000
vt 0.333333 0.666667
vt 0.333333 1.000000
vt 0.354167 0.833333
vt 0.333333 0.166667
vt 0.354167 0.000000
vt 0.354167 0.333333
vt 0.354167 0.500000
vt 0.354167 0.666667
vt 0.354167 1.000000
vt 0.375000 0.833333
vt 0.354167 0.166667
vt 0.375000 0.000000
vt 0.375000 0.333333
vt 0.375000 0.500000
vt 0.375000 0.666667
vt 0.375000 1.000000
vt 0.395833 0.833333
vt 0.375000 0.166667
vt 0.395833 0.000000
vt 0.395833 0.333333
vt 0.395833 0.500000
vt 0.395833 0.666667
vt 0.395833 1.000000
vt 0.416667 0.833333
vt 0.395833 0.166667
vt 0.416667 0.000000
vt 0.416667 0.333333
vt 0.416667 0.500000
vt 0.416667 0.666667
vt 0.416667 1.000000
vt 0.437500 0.833333
vt 0.416667 0.166667
vt 0.437500 0.000000
vt 0.437500 0.333333
vt 0.437500 0.500000
vt 0.437500 0.666667
vt 0.437500 1.000000
vt 0.458333 0.833333
vt 0.437500 0.166667
vt 0.458333 0.000000
vt 0.458333 0.333333
vt 0.458333 0.500000
vt 0.458333 0.666667
vt 0.458333 1.000000
vt 0.479167 0.833333
vt 0.458333 0.166667
vt 0.479167 0.000000
vt 0.479167 0.166667
vt 0.479167 0.500000
vt 0.479167 0.666667
vt 0.500000 1.000000
vt 0.479167 1.000000
vt 0.500000 0.166667
vt 0.479167 0.333333
vt 0.500000 0.333333
vt 0.500000 0.500000
vt 0.500000 0.833333
vt 0.520833 1.000000
vt 0.520833 0.166667
vt 0.500000 0.000000
vt 0.520833 0.333333
vt 0.500000 0.666667
vt 0.520833 0.500000
vt 0.520833 0.833333
vt 0.541667 1.000000
vt 0.541667 0.166667
vt 0.520833 0.000000
vt 0.541667 0.333333
vt 0.541667 0.500000
vt 0.541667 0.666667
vt 0.520833 0.666667
vt 0.541667 0.833333
vt 0.562500 1.000000
vt 0.562500 0.166667
vt 0.541667 0.000000
vt 0.562500 0.333333
vt 0.562500 0.500000
vt 0.562500 0.666667
vt 0.562500 0.833333
vt 0.583333 1.000000
vt 0.583333 0.166667
vt 0.562500 0.000000
vt 0.583333 0.333333
vt 0.583333 0.500000
vt 0.583333 0.666667
vt 0.583333 0.833333
vt 0.604167 1.000000
vt 0.604167 0.166667
vt 0.583333 0.000000
vt 0.604167 0.333333
vt 0.604167 0.500000
vt 0.604167 0.666667
vt 0.604167 0.833333
vt 0.625000 1.000000
vt 0.625000 0.166667
vt 0.604167 0.000000
vt 0.625000 0.333333
vt 0.625000 0.500000
vt 0.625000 0.666667
vt 0.625000 0.833333
vt 0.645833 1.000000
vt 0.645833 0.166667
vt 0.625000 0.000000
vt 0.645833 0.333333
vt 0.645833 0.500000
vt 0.645833 0.666667
vt 0.645833 0.833333
vt 0.666667 1.000000
vt 0.666667 0.166667
vt 0.645833 0.000000
vt 0.666667 0.333333
vt 0.666667 0.500000
vt 0.666667 0.666667
vt 0.666667 0.833333
vt 0.687500 1.000000
vt 0.687500 0.166667
vt 0.666667 0.000000
vt 0.687500 0.333333
vt 0.687500 0.500000
vt 0.687500 0.666667
vt 0.687500 0.833333
vt 0.708333 1.000000
vt 0.708333 0.166667
vt 0.687500 0.000000
vt 0.708333 0.333333
vt 0.708333 0.500000
vt 0.708333 0.666667
vt 0.708333 0.833333
vt 0.729167 1.000000
vt 0.729167 0.166667
vt 0.708333 0.000000
vt 0.729167 0.333333
vt 0.729167 0.500000
vt 0.729167 0.666667
vt 0.729167 0.833333
vt 0.750000 0.833333
vt 0.750000 0.000000
vt 0.729167 0.000000
vt 0.750000 0.166667
vt 0.750000 0.500000
vt 0.750000 0.666667
vt 0.750000 1.000000
vt 0.770833 0.833333
vt 0.770833 0.000000
vt 0.750000 0.333333
vt 0.770833 0.166667
vt 0.770833 0.500000
vt 0.770833 0.666667
vt 0.791667 1.000000
vt 0.770833 1.000000
vt 0.791667 0.166667
vt 0.791667 0.333333
vt 0.770833 0.333333
vt 0.791667 0.500000
vt 0.791667 0.666667
vt 0.812500 1.000000
vt 0.791667 0.833333
vt 0.812500 0.166667
vt 0.791667 0.000000
vt 0.812500 0.333333
vt 0.812500 0.500000
vt 0.812500 0.666667
vt 0.833333 1.000000
vt 0.812500 0.833333
vt 0.833333 0.166667
vt 0.812500 0.000000
vt 0.833333 0.333333
vt 0.833333 0.500000
vt 0.833333 0.666667
vt 0.854167 1.000000
vt 0.833333 0.833333
vt 0.854167 0.166667
vt 0.833333 0.000000
vt 0.854167 0.333333
vt 0.854167 0.500000
vt 0.854167 0.666667
vt 0.875000 1.000000
vt 0.854167 0.833333
vt 0.875000 0.166667
vt 0.854167 0.000000
vt 0.875000 0.333333
vt 0.875000 0.500000
vt 0.875000 0.666667
vt 0.895833 0.833333
vt 0.875000 0.833333
vt 0.895833 0.000000
vt 0.875000 0.000000
vt 0.895833 0.166667
vt 0.895833 0.500000
vt 0.895833 0.666667
vt 0.895833 1.000000
vt 0.916667 0.833333
vt 0.916667 0.000000
vt 0.895833 0.333333
vt 0.916667 0.166667
vt 0.916667 0.500000
vt 0.916667 0.666667
vt 0.916667 1.000000
vt 0.937500 0.833333
vt 0.937500 0.000000
vt 0.916667 0.333333
vt 0.937500 0.166667
vt 0.937500 0.500000
vt 0.937500 0.666667
vt 0.937500 1.000000
vt 0.958333 0.833333
vt 0.958333 0.000000
vt 0.937500 0.333333
vt 0.958333 0.166667
vt 0.958333 0.500000
vt 0.958333 0.666667
vt 0.958333 1.000000
vt 0.979167 0.833333
vt 0.979167 0.000000
vt 0.958333 0.333333
vt 0.979167 0.166667
vt 0.979167 0.500000
vt 0.979167 0.666667
vt 0.979167 1.000000
vt 1.000000 0.833333
vt 1.000000 0.000000
vt 0.979167 0.333333
vt 1.000000 0.166667
vt 1.000000 0.500000
vt 1.000000 0.666667
vt 1.000000 1.000000
vt 1.000000 0.333333
s 1
f 457/526/343 456/527/348 451/528/343
f 458/529/344 451/530/343 452/531/344
f 459/532/345 452/531/344 453/533/345
f 460/534/346 453/533/345 454/535/346
f 461/536/347 454/535/346 455/537/347
f 462/538/348 455/537/347 456/527/348
f 463/539/343 462/538/348 457/526/343
f 464/540/344 457/541/343 458/529/344
f 465/542/345 458/529/344 459/532/345
f 466/543/346 459/532/345 460/534/346
f 467/544/347 460/534/346 461/536/347
f 468/545/348 461/536/347 462/538/348
f 469/546/343 468/545/348 463/539/343
f 470/547/344 463/548/343 464/540/344
f 471/549/345 464/540/344 465/542/345
f 472/550/346 465/542/345 466/543/346
f 473/551/347 466/543/346 467/544/347
f 474/552/348 467/544/347 468/545/348
f 475/553/343 474/552/348 469/546/343
f 476/554/344 469/555/343 470/547/344
f 477/556/345 470/547/344 471/549/345
f 478/557/346 471/549/345 472/550/346
f 479/558/347 472/550/346 473/551/347
f 480/559/348 473/551/347 474/552/348
f 481/560/343 480/559/348 475/553/343
f 482/561/344 475/562/343 476/554/344
f 483/563/345 476/554/344 477/556/345
f 484/564/346 477/556/345 478/557/346
f 485/565/347 478/557/346 479/558/347
f 486/566/348 479/558/347 480/559/348
f 487/567/343 486/566/348 481/560/343
f 488/568/344 481/569/343 482/561/344
f 489/570/345 482/561/344 483/563/345
f 490/571/346 483/563/345 484/564/346
f 491/572/347 484/564/346 485/565/347
f 492/573/348 485/565/347 486/566/348
f 493/574/343 492/573/348 487/567/343
f 494/575/344 487/576/343 488/568/344
f 495/577/345 488/568/344 489/570/345
f 496/578/346 489/570/345 490/571/346
f 497/579/347 490/571/346 491/572/347
f 498/580/348 491/572/347 492/573/348
f 499/581/343 498/580/348 493/574/343
f 500/582/344 493/583/343 494/575/344
f 501/584/345 494/575/344 495/577/345
f 502/585/346 495/577/345 496/578/346
f 503/586/347 496/578/346 497/579/347
f 504/587/348 497/579/347 498/580/348
f 505/588/343 504/587/348 499/581/343
f 506/589/344 499/590/343 500/582/344
f 507/591/345 500/582/344 501/584/345
f 508/592/346 501/584/345 502/585/346
f 509/593/347 502/585/346 503/586/347
f 510/594/348 503/586/347 504/587/348
f 511/595/343 510/594/348 505/588/343
f 512/596/344 505/597/343 506/589/344
f 513/598/345 506/589/344 507/591/345
f 514/599/346 507/591/345 508/592/346
f 515/600/347 508/592/346 509/593/347
f 516/601/348 509/593/347 510/594/348
f 517/602/349 516/601/348 511/595/343
f 518/603/350 511/604/343 512/596/344
f 519/605/351 512/596/344 513/598/345
f 520/606/352 513/598/345 514/599/346
f 521/607/353 514/599/346 515/600/347
f 522/608/354 515/600/347 516/601/348
f 523/609/355 522/608/354 517/602/349
f 524/610/356 517/611/349 518/603/350
f 525/612/357 518/603/350 519/605/351
f 520/606/352 525/612/357 519/605/351
f 521/607/353 526/613/358 520/606/352
f 522/608/354 527/614/359 521/607/353
f 529/615/361 528/616/360 523/609/355
f 530/617/362 523/618/355 524/610/356
f 531/619/363 524/610/356 525/612/357
f 526/613/358 531/619/363 525/612/357
f 527/614/359 532/620/364 526/613/358
f 528/616/360 533/621/365 527/614/359
f 535/622/367 534/623/366 529/615/361
f 536/624/368 529/625/361 530/617/362
f 537/626/369 530/617/362 531/619/363
f 532/620/364 537/626/369 531/619/363
f 533/621/365 538/627/370 532/620/364
f 534/623/366 539/628/371 533/621/365
f 535/622/367 546/629/378 540/630/372
f 542/631/374 535/632/367 536/624/368
f 543/633/375 536/624/368 537/626/369
f 544/634/376 537/626/369 538/627/370
f 539/628/371 544/634/376 538/627/370
f 540/630/372 545/635/377 539/628/371
f 541/636/373 552/637/384 546/629/378
f 542/631/374 547/638/379 541/639/373
f 549/640/381 542/631/374 543/633/375
f 550/641/382 543/633/375 544/634/376
f 551/642/383 544/634/376 545/635/377
f 546/629/378 551/642/383 545/635/377
f 547/643/379 558/644/390 552/637/384
f 548/645/380 553/646/385 547/638/379
f 555/647/387 548/645/380 549/640/381
f 556/648/388 549/640/381 550/641/382
f 557/649/389 550/641/382 551/642/383
f 552/637/384 557/649/389 551/642/383
f 553/650/385 564/651/396 558/644/390
f 554/652/386 559/653/391 553/646/385
f 561/654/393 554/652/386 555/647/387
f 562/655/394 555/647/387 556/648/388
f 563/656/395 556/648/388 557/649/389
f 558/644/390 563/656/395 557/649/389
f 559/657/391 570/658/402 564/651/396
f 560/659/392 565/660/397 559/653/391
f 567/661/399 560/659/392 561/654/393
f 568/662/400 561/654/393 562/655/394
f 569/663/401 562/655/394 563/656/395
f 564/651/396 569/663/401 563/656/395
f 565/664/397 576/665/408 570/658/402
f 566/666/398 571/667/403 565/660/397
f 573/668/405 566/666/398 567/661/399
f 574/669/406 567/661/399 568/662/400
f 575/670/407 568/662/400 569/663/401
f 570/658/402 575/670/407 569/663/401
f 571/671/403 582/672/414 576/665/408
f 572/673/404 577/674/409 571/667/403
f 579/675/411 572/673/404 573/668/405
f 580/676/412 573/668/405 574/669/406
f 581/677/413 574/669/406 575/670/407
f 576/665/408 581/677/413 575/670/407
f 577/678/409 588/679/420 582/672/414
f 578/680/410 583/681/415 577/674/409
f 585/682/417 578/680/410 579/675/411
f 586/683/418 579/675/411 580/676/412
f 587/684/419 580/676/412 581/677/413
f 582/672/414 587/684/419 581/677/413
f 583/685/415 594/686/426 588/679/420
f 584/687/416 589/688/421 583/681/415
f 585/682/417 590/689/422 584/687/416
f 592/690/424 585/682/417 586/683/418
f 593/691/425 586/683/418 587/684/419
f 594/686/426 587/684/419 588/679/420
f 595/692/427 594/686/426 589/693/421
f 596/694/428 589/688/421 590/689/422
f 591/695/423 596/694/428 590/689/422
f 592/690/424 597/696/429 591/695/423
f 593/691/425 598/697/430 592/690/424
f 600/698/432 593/691/425 594/686/426
f 601/699/433 600/698/432 595/692/427
f 602/700/434 595/701/427 596/694/428
f 597/696/429 602/700/434 596/694/428
f 598/697/430 603/702/435 597/696/429
f 599/703/431 604/704/436 598/697/430
f 606/705/438 599/703/431 600/698/432
f 607/706/439 606/705/438 601/699/433
f 608/707/440 601/708/433 602/700/434
f 609/709/441 602/700/434 603/702/435
f 610/710/442 603/702/435 604/704/436
f 611/711/443 604/704/436 605/712/437
f 612/713/444 605/712/437 606/705/438
f 613/714/439 612/713/444 607/706/439
f 614/715/440 607/716/439 608/707/440
f 615/717/441 608/707/440 609/709/441
f 616/718/442 609/709/441 610/710/442
f 617/719/443 610/710/442 611/711/443
f 618/720/444 611/711/443 612/713/444
f 619/721/439 618/720/444 613/714/439
f 620/722/440 613/723/439 614/715/440
f 621/724/441 614/715/440 615/717/441
f 622/725/442 615/717/441 616/718/442
f 623/726/443 616/718/442 617/719/443
f 624/727/444 617/719/443 618/720/444
f 625/728/439 624/727/444 619/721/439
f 626/729/440 619/730/439 620/722/440
f 627/731/441 620/722/440 621/724/441
f 628/732/442 621/724/441 622/725/442
f 629/733/443 622/725/442 623/726/443
f 630/734/444 623/726/443 624/727/444
f 631/735/439 630/734/444 625/728/439
f 632/736/440 625/737/439 626/729/440
f 633/738/441 626/729/440 627/731/441
f 634/739/442 627/731/441 628/732/442
f 635/740/443 628/732/442 629/733/443
f 636/741/444 629/733/443 630/734/444
f 637/742/439 636/741/444 631/735/439
f 638/743/440 631/744/439 632/736/440
f 639/745/441 632/736/440 633/738/441
f 640/746/442 633/738/441 634/739/442
f 641/747/443 634/739/442 635/740/443
f 642/748/444 635/740/443 636/741/444
f 643/749/439 642/748/444 637/742/439
f 644/750/440 637/751/439 638/743/440
f 645/752/441 638/743/440 639/745/441
f 646/753/442 639/745/441 640/746/442
f 647/754/443 640/746/442 641/747/443
f 648/755/444 641/747/443 642/748/444
f 649/756/439 648/755/444 643/749/439
f 650/757/440 643/758/439 644/750/440
f 651/759/441 644/750/440 645/752/441
f 652/760/442 645/752/441 646/753/442
f 653/761/443 646/753/442 647/754/443
f 654/762/444 647/754/443 648/755/444
f 655/763/439 654/762/444 649/756/439
f 656/764/440 649/765/439 650/757/440
f 657/766/441 650/757/440 651/759/441
f 658/767/442 651/759/441 652/760/442
f 659/768/443 652/760/442 653/761/443
f 660/769/444 653/761/443 654/762/444
f 661/770/445 660/769/444 655/763/439
f 662/771/446 655/772/439 656/764/440
f 663/773/447 656/764/440 657/766/441
f 664/774/448 657/766/441 658/767/442
f 665/775/449 658/767/442 659/768/443
f 666/776/450 659/768/443 660/769/444
f 661/770/445 672/777/456 666/776/450
f 662/771/446 667/778/451 661/779/445
f 663/773/447 668/780/452 662/771/446
f 670/781/454 663/773/447 664/774/448
f 671/782/455 664/774/448 665/775/449
f 672/777/456 665/775/449 666/776/450
f 667/783/451 678/784/462 672/777/456
f 668/780/452 673/785/457 667/778/451
f 669/786/453 674/787/458 668/780/452
f 676/788/460 669/786/453 670/781/454
f 677/789/461 670/781/454 671/782/455
f 678/784/462 671/782/455 672/777/456
f 679/790/463 678/784/462 673/791/457
f 680/792/464 673/785/457 674/787/458
f 681/793/465 674/787/458 675/794/459
f 676/788/460 681/793/465 675/794/459
f 677/789/461 682/795/466 676/788/460
f 678/784/462 683/796/467 677/789/461
f 685/797/469 684/798/468 679/790/463
f 686/799/470 679/800/463 680/792/464
f 687/801/471 680/792/464 681/793/465
f 682/795/466 687/801/471 681/793/465
f 683/796/467 688/802/472 682/795/466
f 684/798/468 689/803/473 683/796/467
f 691/804/475 690/805/474 685/797/469
f 692/806/476 685/807/469 686/799/470
f 693/808/477 686/799/470 687/801/471
f 688/802/472 693/808/477 687/801/471
f 689/803/473 694/809/478 688/802/472
f 690/805/474 695/810/479 689/803/473
f 697/811/481 696/812/480 691/804/475
f 698/813/482 691/814/475 692/806/476
f 699/815/483 692/806/476 693/808/477
f 694/809/478 699/815/483 693/808/477
f 695/810/479 700/816/484 694/809/478
f 696/812/480 701/817/485 695/810/479
f 703/818/487 702/819/486 697/811/481
f 704/820/488 697/821/481 698/813/482
f 705/822/489 698/813/482 699/815/483
f 700/816/484 705/822/489 699/815/483
f 701/817/485 706/823/490 700/816/484
f 702/819/486 707/824/491 701/817/485
f 703/818/487 714/825/498 708/826/492
f 704/820/488 709/827/493 703/828/487
f 705/822/489 710/829/494 704/820/488
f 712/830/496 705/822/489 706/823/490
f 713/831/497 706/823/490 707/824/491
f 714/825/498 707/824/491 708/826/492
f 709/832/493 720/833/504 714/825/498
f 710/829/494 715/834/499 709/827/493
f 711/835/495 716/836/500 710/829/494
f 718/837/502 711/835/495 712/830/496
f 719/838/503 712/830/496 713/831/497
f 720/833/504 713/831/497 714/825/498
f 715/839/499 726/840/510 720/833/504
f 716/836/500 721/841/505 715/834/499
f 717/842/501 722/843/506 716/836/500
f 724/844/508 717/842/501 718/837/502
f 725/845/509 718/837/502 719/838/503
f 726/840/510 719/838/503 720/833/504
f 721/846/505 732/847/516 726/840/510
f 722/843/506 727/848/511 721/841/505
f 723/849/507 728/850/512 722/843/506
f 730/851/514 723/849/507 724/844/508
f 731/852/515 724/844/508 725/845/509
f 732/847/516 725/845/509 726/840/510
f 727/853/511 738/854/522 732/847/516
f 728/850/512 733/855/517 727/848/511
f 729/856/513 734/857/518 728/850/512
f 736/858/520 729/856/513 730/851/514
f 737/859/521 730/851/514 731/852/515
f 738/854/522 731/852/515 732/847/516
f 733/860/517 744/861/528 738/854/522
f 734/857/518 739/862/523 733/855/517
f 735/863/519 740/864/524 734/857/518
f 742/865/526 735/863/519 736/858/520
f 743/866/527 736/858/520 737/859/521
f 744/861/528 737/859/521 738/854/522
f 457/526/343 462/538/348 456/527/348
f 458/529/344 457/541/343 451/530/343
f 459/532/345 458/529/344 452/531/344
f 460/534/346 459/532/345 453/533/345
f 461/536/347 460/534/346 454/535/346
f 462/538/348 461/536/347 455/537/347
f 463/539/343 468/545/348 462/538/348
f 464/540/344 463/548/343 457/541/343
f 465/542/345 464/540/344 458/529/344
f 466/543/346 465/542/345 459/532/345
f 467/544/347 466/543/346 460/534/346
f 468/545/348 467/544/347 461/536/347
f 469/546/343 474/552/348 468/545/348
f 470/547/344 469/555/343 463/548/343
f 471/549/345 470/547/344 464/540/344
f 472/550/346 471/549/345 465/542/345
f 473/551/347 472/550/346 466/543/346
f 474/552/348 473/551/347 467/544/347
f 475/553/343 480/559/348 474/552/348
f 476/554/344 475/562/343 469/555/343
f 477/556/345 476/554/344 470/547/344
f 478/557/346 477/556/345 471/549/345
f 479/558/347 478/557/346 472/550/346
f 480/559/348 479/558/347 473/551/347
f 481/560/343 486/566/348 480/559/348
f 482/561/344 481/569/343 475/562/343
f 483/563/345 482/561/344 476/554/344
f 484/564/346 483/563/345 477/556/345
f 485/565/347 484/564/346 478/557/346
f 486/566/348 485/565/347 479/558/347
f 487/567/343 492/573/348 486/566/348
f 488/568/344 487/576/343 481/569/343
f 489/570/345 488/568/344 482/561/344
f 490/571/346 489/570/345 483/563/345
f 491/572/347 490/571/346 484/564/346
f 492/573/348 491/572/347 485/565/347
f 493/574/343 498/580/348 492/573/348
f 494/575/344 493/583/343 487/576/343
f 495/577/345 494/575/344 488/568/344
f 496/578/346 495/577/345 489/570/345
f 497/579/347 496/578/346 490/571/346
f 498/580/348 497/579/347 491/572/347
f 499/581/343 504/587/348 498/580/348
f 500/582/344 499/590/343 493/583/343
f 501/584/345 500/582/344 494/575/344
f 502/585/346 501/584/345 495/577/345
f 503/586/347 502/585/346 496/578/346
f 504/587/348 503/586/347 497/579/347
f 505/588/343 510/594/348 504/587/348
f 506/589/344 505/597/343 499/590/343
f 507/591/345 506/589/344 500/582/344
f 508/592/346 507/591/345 501/584/345
f 509/593/347 508/592/346 502/585/346
f 510/594/348 509/593/347 503/586/347
f 511/595/343 516/601/348 510/594/348
f 512/596/344 511/604/343 505/597/343
f 513/598/345 512/596/344 506/589/344
f 514/599/346 513/598/345 507/591/345
f 515/600/347 514/599/346 508/592/346
f 516/601/348 515/600/347 509/593/347
f 517/602/349 522/608/354 516/601/348
f 518/603/350 517/611/349 511/604/343
f 519/605/351 518/603/350 512/596/344
f 520/606/352 519/605/351 513/598/345
f 521/607/353 520/606/352 514/599/346
f 522/608/354 521/607/353 515/600/347
f 523/609/355 528/616/360 522/608/354
f 524/610/356 523/618/355 517/611/349
f 525/612/357 524/610/356 518/603/350
f 520/606/352 526/613/358 525/612/357
f 521/607/353 527/614/359 526/613/358
f 522/608/354 528/616/360 527/614/359
f 529/615/361 534/623/366 528/616/360
f 530/617/362 529/625/361 523/618/355
f 531/619/363 530/617/362 524/610/356
f 526/613/358 532/620/364 531/619/363
f 527/614/359 533/621/365 532/620/364
f 528/616/360 534/623/366 533/621/365
f 535/622/367 540/630/372 534/623/366
f 536/624/368 535/632/367 529/625/361
f 537/626/369 536/624/368 530/617/362
f 532/620/364 538/627/370 537/626/369
f 533/621/365 539/628/371 538/627/370
f 534/623/366 540/630/372 539/628/371
f 535/622/367 541/636/373 546/629/378
f 542/631/374 541/639/373 535/632/367
f 543/633/375 542/631/374 536/624/368
f 544/634/376 543/633/375 537/626/369
f 539/628/371 545/635/377 544/634/376
f 540/630/372 546/629/378 545/635/377
f 541/636/373 547/643/379 552/637/384
f 542/631/374 548/645/380 547/638/379
f 549/640/381 548/645/380 542/631/374
f 550/641/382 549/640/381 543/633/375
f 551/642/383 550/641/382 544/634/376
f 546/629/378 552/637/384 551/642/383
f 547/643/379 553/650/385 558/644/390
f 548/645/380 554/652/386 553/646/385
f 555/647/387 554/652/386 548/645/380
f 556/648/388 555/647/387 549/640/381
f 557/649/389 556/648/388 550/641/382
f 552/637/384 558/644/390 557/649/389
f 553/650/385 559/657/391 564/651/396
f 554/652/386 560/659/392 559/653/391
f 561/654/393 560/659/392 554/652/386
f 562/655/394 561/654/393 555/647/387
f 563/656/395 562/655/394 556/648/388
f 558/644/390 564/651/396 563/656/395
f 559/657/391 565/664/397 570/658/402
f 560/659/392 566/666/398 565/660/397
f 567/661/399 566/666/398 560/659/392
f 568/662/400 567/661/399 561/654/393
f 569/663/401 568/662/400 562/655/394
f 564/651/396 570/658/402 569/663/401
f 565/664/397 571/671/403 576/665/408
f 566/666/398 572/673/404 571/667/403
f 573/668/405 572/673/404 566/666/398
f 574/669/406 573/668/405 567/661/399
f 575/670/407 574/669/406 568/662/400
f 570/658/402 576/665/408 575/670/407
f 571/671/403 577/678/409 582/672/414
f 572/673/404 578/680/410 577/674/409
f 579/675/411 578/680/410 572/673/404
f 580/676/412 579/675/411 573/668/405
f 581/677/413 580/676/412 574/669/406
f 576/665/408 582/672/414 581/677/413
f 577/678/409 583/685/415 588/679/420
f 578/680/410 584/687/416 583/681/415
f 585/682/417 584/687/416 578/680/410
f 586/683/418 585/682/417 579/675/411
f 587/684/419 586/683/418 580/676/412
f 582/672/414 588/679/420 587/684/419
f 583/685/415 589/693/421 594/686/426
f 584/687/416 590/689/422 589/688/421
f 585/682/417 591/695/423 590/689/422
f 592/690/424 591/695/423 585/682/417
f 593/691/425 592/690/424 586/683/418
f 594/686/426 593/691/425 587/684/419
f 595/692/427 600/698/432 594/686/426
f 596/694/428 595/701/427 589/688/421
f 591/695/423 597/696/429 596/694/428
f 592/690/424 598/697/430 597/696/429
f 593/691/425 599/703/431 598/697/430
f 600/698/432 599/703/431 593/691/425
f 601/699/433 606/705/438 600/698/432
f 602/700/434 601/708/433 595/701/427
f 597/696/429 603/702/435 602/700/434
f 598/697/430 604/704/436 603/702/435
f 599/703/431 605/712/437 604/704/436
f 606/705/438 605/712/437 599/703/431
f 607/706/439 612/713/444 606/705/438
f 608/707/440 607/716/439 601/708/433
f 609/709/441 608/707/440 602/700/434
f 610/710/442 609/709/441 603/702/435
f 611/711/443 610/710/442 604/704/436
f 612/713/444 611/711/443 605/712/437
f 613/714/439 618/720/444 612/713/444
f 614/715/440 613/723/439 607/716/439
f 615/717/441 614/715/440 608/707/440
f 616/718/442 615/717/441 609/709/441
f 617/719/443 616/718/442 610/710/442
f 618/720/444 617/719/443 611/711/443
f 619/721/439 624/727/444 618/720/444
f 620/722/440 619/730/439 613/723/439
f 621/724/441 620/722/440 614/715/440
f 622/725/442 621/724/441 615/717/441
f 623/726/443 622/725/442 616/718/442
f 624/727/444 623/726/443 617/719/443
f 625/728/439 630/734/444 624/727/444
f 626/729/440 625/737/439 619/730/439
f 627/731/441 626/729/440 620/722/440
f 628/732/442 627/731/441 621/724/441
f 629/733/443 628/732/442 622/725/442
f 630/734/444 629/733/443 623/726/443
f 631/735/439 636/741/444 630/734/444
f 632/736/440 631/744/439 625/737/439
f 633/738/441 632/736/440 626/729/440
f 634/739/442 633/738/441 627/731/441
f 635/740/443 634/739/442 628/732/442
f 636/741/444 635/740/443 629/733/443
f 637/742/439 642/748/444 636/741/444
f 638/743/440 637/751/439 631/744/439
f 639/745/441 638/743/440 632/736/440
f 640/746/442 639/745/441 633/738/441
f 641/747/443 640/746/442 634/739/442
f 642/748/444 641/747/443 635/740/443
f 643/749/439 648/755/444 642/748/444
f 644/750/440 643/758/439 637/751/439
f 645/752/441 644/750/440 638/743/440
f 646/753/442 645/752/441 639/745/441
f 647/754/443 646/753/442 640/746/442
f 648/755/444 647/754/443 641/747/443
f 649/756/439 654/762/444 648/755/444
f 650/757/440 649/765/439 643/758/439
f 651/759/441 650/757/440 644/750/440
f 652/760/442 651/759/441 645/752/441
f 653/761/443 652/760/442 646/753/442
f 654/762/444 653/761/443 647/754/443
f 655/763/439 660/769/444 654/762/444
f 656/764/440 655/772/439 649/765/439
f 657/766/441 656/764/440 650/757/440
f 658/767/442 657/766/441 651/759/441
f 659/768/443 658/767/442 652/760/442
f 660/769/444 659/768/443 653/761/443
f 661/770/445 666/776/450 660/769/444
f 662/771/446 661/779/445 655/772/439
f 663/773/447 662/771/446 656/764/440
f 664/774/448 663/773/447 657/766/441
f 665/775/449 664/774/448 658/767/442
f 666/776/450 665/775/449 659/768/443
f 661/770/445 667/783/451 672/777/456
f 662/771/446 668/780/452 667/778/451
f 663/773/447 669/786/453 668/780/452
f 670/781/454 669/786/453 663/773/447
f 671/782/455 670/781/454 664/774/448
f 672/777/456 671/782/455 665/775/449
f 667/783/451 673/791/457 678/784/462
f 668/780/452 674/787/458 673/785/457
f 669/786/453 675/794/459 674/787/458
f 676/788/460 675/794/459 669/786/453
f 677/789/461 676/788/460 670/781/454
f 678/784/462 677/789/461 671/782/455
f 679/790/463 684/798/468 678/784/462
f 680/792/464 679/800/463 673/785/457
f 681/793/465 680/792/464 674/787/458
f 676/788/460 682/795/466 681/793/465
f 677/789/461 683/796/467 682/795/466
f 678/784/462 684/798/468 683/796/467
f 685/797/469 690/805/474 684/798/468
f 686/799/470 685/807/469 679/800/463
f 687/801/471 686/799/470 680/792/464
f 682/795/466 688/802/472 687/801/471
f 683/796/467 689/803/473 688/802/472
f 684/798/468 690/805/474 689/803/473
f 691/804/475 696/812/480 690/805/474
f 692/806/476 691/814/475 685/807/469
f 693/808/477 692/806/476 686/799/470
f 688/802/472 694/809/478 693/808/477
f 689/803/473 695/810/479 694/809/478
f 690/805/474 696/812/480 695/810/479
f 697/811/481 702/819/486 696/812/480
f 698/813/482 697/821/481 691/814/475
f 699/815/483 698/813/482 692/806/476
f 694/809/478 700/816/484 699/815/483
f 695/810/479 701/817/485 700/816/484
f 696/812/480 702/819/486 701/817/485
f 703/818/487 708/826/492 702/819/486
f 704/820/488 703/828/487 697/821/481
f 705/822/489 704/820/488 698/813/482
f 700/816/484 706/823/490 705/822/489
f 701/817/485 707/824/491 706/823/490
f 702/819/486 708/826/492 707/824/491
f 703/818/487 709/832/493 714/825/498
f 704/820/488 710/829/494 709/827/493
f 705/822/489 711/835/495 710/829/494
f 712/830/496 711/835/495 705/822/489
f 713/831/497 712/830/496 706/823/490
f 714/825/498 713/831/497 707/824/491
f 709/832/493 715/839/499 720/833/504
f 710/829/494 716/836/500 715/834/499
f 711/835/495 717/842/501 716/836/500
f 718/837/502 717/842/501 711/835/495
f 719/838/503 718/837/502 712/830/496
f 720/833/504 719/838/503 713/831/497
f 715/839/499 721/846/505 726/840/510
f 716/836/500 722/843/506 721/841/505
f 717/842/501 723/849/507 722/843/506
f 724/844/508 723/849/507 717/842/501
f 725/845/509 724/844/508 718/837/502
f 726/840/510 725/845/509 719/838/503
f 721/846/505 727/853/511 732/847/516
f 722/843/506 728/850/512 727/848/511
f 723/849/507 729/856/513 728/850/512
f 730/851/514 729/856/513 723/849/507
f 731/852/515 730/851/514 724/844/508
f 732/847/516 731/852/515 725/845/509
f 727/853/511 733/860/517 738/854/522
f 728/850/512 734/857/518 733/855/517
f 729/856/513 735/863/519 734/857/518
f 736/858/520 735/863/519 729/856/513
f 737/859/521 736/858/520 730/851/514
f 738/854/522 737/859/521 731/852/515
f 733/860/517 739/867/523 744/861/528
f 734/857/518 740/864/524 739/862/523
f 735/863/519 741/868/525 740/864/524
f 742/865/526 741/868/525 735/863/519
f 743/866/527 742/865/526 736/858/520
f 744/861/528 743/866/527 737/859/521
