# Blender 5.0.1
# www.blender.org
mtllib CrossPumpOutput.mtl
o Cube.032
v -0.890000 2.560000 5.140001
v -0.890000 2.370000 5.140000
v -0.857500 2.436350 5.143708
v -0.857500 2.463650 5.143708
v -0.833708 2.436350 5.167500
v -0.833708 2.463650 5.167500
v -0.825000 2.436350 5.200000
v -0.825000 2.463650 5.200000
v -0.833708 2.436350 5.232500
v -0.833708 2.463650 5.232500
v -0.857500 2.436350 5.256292
v -0.857500 2.463650 5.256292
v -0.890000 2.436350 5.265000
v -0.890000 2.463650 5.265000
v -0.922500 2.436350 5.256292
v -0.922500 2.463650 5.256292
v -0.946292 2.436350 5.232500
v -0.946292 2.463650 5.232500
v -0.955000 2.436350 5.200000
v -0.955000 2.463650 5.200000
v -0.946292 2.436350 5.167500
v -0.946292 2.463650 5.167500
v -0.922500 2.436350 5.143708
v -0.922500 2.463650 5.143708
v -0.890000 2.463650 5.135000
v -0.890000 2.436350 5.135000
v -0.860001 2.370000 5.148039
v -0.860001 2.560000 5.148040
v -0.838040 2.370000 5.170000
v -0.838040 2.560000 5.170001
v -0.830001 2.370000 5.199999
v -0.830001 2.560000 5.200000
v -0.838040 2.370000 5.229999
v -0.838040 2.560000 5.230000
v -0.860001 2.370000 5.251960
v -0.860001 2.560000 5.251961
v -0.890000 2.370000 5.259998
v -0.890000 2.560000 5.259999
v -0.919999 2.370000 5.251960
v -0.919999 2.560000 5.251961
v -0.941961 2.370000 5.229999
v -0.941961 2.560000 5.230000
v -0.949999 2.370000 5.199999
v -0.949999 2.560000 5.200000
v -0.941961 2.370000 5.170000
v -0.941961 2.560000 5.170001
v -0.919999 2.370000 5.148039
v -0.919999 2.560000 5.148040
v -0.925249 2.580000 5.138947
v -0.925249 2.560000 5.138946
v -0.951054 2.580000 5.164751
v -0.951054 2.560000 5.164750
v -0.960499 2.580000 5.200000
v -0.960499 2.560000 5.199999
v -0.951054 2.580000 5.235250
v -0.951054 2.560000 5.235249
v -0.925249 2.580000 5.261054
v -0.925249 2.560000 5.261053
v -0.890000 2.580000 5.270499
v -0.890000 2.560000 5.270498
v -0.854751 2.580000 5.261054
v -0.854751 2.560000 5.261053
v -0.828946 2.580000 5.235250
v -0.828946 2.560000 5.235249
v -0.819502 2.580000 5.200000
v -0.819502 2.560000 5.199999
v -0.828946 2.580000 5.164751
v -0.828946 2.560000 5.164750
v -0.854751 2.580000 5.138947
v -0.854751 2.560000 5.138946
v -0.890000 2.560000 5.129500
v -0.890000 2.580000 5.129501
v -0.925249 2.370000 5.138947
v -0.925249 2.350000 5.138946
v -0.951054 2.370000 5.164751
v -0.951054 2.350000 5.164750
v -0.960499 2.370000 5.200000
v -0.960499 2.350000 5.199999
v -0.951054 2.370000 5.235250
v -0.951054 2.350000 5.235249
v -0.925249 2.370000 5.261054
v -0.925249 2.350000 5.261053
v -0.890000 2.370000 5.270499
v -0.890000 2.350000 5.270498
v -0.854751 2.370000 5.261054
v -0.854751 2.350000 5.261053
v -0.828946 2.370000 5.235250
v -0.828946 2.350000 5.235249
v -0.819502 2.370000 5.200000
v -0.819502 2.350000 5.199999
v -0.828946 2.370000 5.164751
v -0.828946 2.350000 5.164750
v -0.854751 2.370000 5.138947
v -0.854751 2.350000 5.138946
v -0.890000 2.350000 5.129500
v -0.890000 2.370000 5.129501
v -0.820000 2.450000 5.150000
v -0.890000 2.450000 5.150000
v -0.820000 2.450000 5.100000
v -0.780000 2.450000 5.100000
v -0.820000 2.400000 5.113397
v -0.780000 2.400000 5.113397
v -0.820000 2.363398 5.150000
v -0.780000 2.363398 5.150000
v -0.820000 2.350000 5.200000
v -0.780000 2.350000 5.200000
v -0.820000 2.363398 5.250000
v -0.780000 2.363398 5.250000
v -0.820000 2.400000 5.286602
v -0.780000 2.400000 5.286602
v -0.820000 2.450000 5.300000
v -0.780000 2.450000 5.300000
v -0.820000 2.500000 5.286602
v -0.780000 2.500000 5.286602
v -0.820000 2.536602 5.250000
v -0.780000 2.536602 5.250000
v -0.820000 2.550000 5.200000
v -0.780000 2.550000 5.200000
v -0.820000 2.536602 5.150000
v -0.780000 2.536602 5.150000
v -0.820000 2.500000 5.113397
v -0.780000 2.500000 5.113397
v -0.890000 2.425000 5.156698
v -0.820000 2.425000 5.156698
v -0.890000 2.406699 5.175000
v -0.820000 2.406699 5.175000
v -0.890000 2.400000 5.200000
v -0.820000 2.400000 5.200000
v -0.890000 2.406699 5.225000
v -0.820000 2.406699 5.225000
v -0.890000 2.425000 5.243301
v -0.820000 2.425000 5.243301
v -0.890000 2.450000 5.250000
v -0.820000 2.450000 5.250000
v -0.890000 2.475000 5.243301
v -0.820000 2.475000 5.243301
v -0.890000 2.493301 5.225000
v -0.820000 2.493301 5.225000
v -0.890000 2.500000 5.200000
v -0.820000 2.500000 5.200000
v -0.890000 2.493301 5.175000
v -0.820000 2.493301 5.175000
v -0.890000 2.475000 5.156698
v -0.820000 2.475000 5.156698
vn -0.0000 -1.0000 -0.0000
vn -0.5000 -0.0000 -0.8660
vn -0.0000 -0.0000 -1.0000
vn 0.5000 -0.0000 -0.8660
vn 0.8660 -0.0000 -0.5000
vn 0.5000 0.0001 -0.8660
vn -0.8660 -0.0000 -0.5000
vn -1.0000 -0.0000 -0.0000
vn 1.0000 -0.0000 -0.0000
vn -0.8660 -0.0000 0.5000
vn -0.0000 1.0000 -0.0000
vn -0.5000 -0.0000 0.8660
vn 0.8660 -0.0000 0.5000
vn -0.0000 -0.0000 1.0000
vn 0.5000 -0.0000 0.8660
vn -0.5000 0.0001 -0.8660
vn -0.0000 -0.5000 -0.8660
vn -0.0000 0.8660 -0.5000
vn -0.0000 -0.8660 -0.5000
vn -0.0000 0.8660 0.5000
vn -0.0000 0.5000 0.8660
vn -0.0000 -0.8660 0.5000
vn -0.0000 -0.5000 0.8660
vn -0.0000 0.5000 -0.8660
vt 0.990000 0.250000
vt 0.630000 0.042154
vt 0.630000 0.457846
vt 0.083333 0.500000
vt 0.000000 1.000000
vt 0.000000 0.500000
vt 0.916667 1.000000
vt 0.833333 0.500000
vt 0.916667 0.500000
vt 0.166667 0.500000
vt 0.083333 1.000000
vt 1.000000 1.000000
vt 1.000000 0.500000
vt 0.250000 0.500000
vt 0.166667 1.000000
vt 0.250000 1.000000
vt 0.583333 1.000000
vt 0.833333 1.000000
vt 0.750000 0.500000
vt 0.333333 0.500000
vt 0.500000 0.500000
vt 0.416667 0.500000
vt 0.333333 1.000000
vt 0.750000 1.000000
vt 0.666667 0.500000
vt 0.416667 1.000000
vt 0.666667 1.000000
vt 0.583333 0.500000
vt 0.500000 1.000000
vt 0.750000 0.490000
vt 0.870000 0.457846
vt 0.957846 0.370000
vt 0.957846 0.130000
vt 0.870000 0.042154
vt 0.750000 0.010000
vt 0.542154 0.130000
vt 0.510000 0.250000
vt 0.542154 0.370000
s 1
f 66/1/1 58/2/1 50/3/1
f 47/4/2 1/5/3 2/6/3
f 69/7/4 68/8/5 70/9/6
f 45/10/7 48/11/2 47/4/2
f 72/12/3 70/9/6 71/13/3
f 43/14/8 46/15/7 45/10/7
f 7/16/1 15/17/1 23/7/1
f 67/18/5 66/19/9 68/8/5
f 41/20/10 44/16/8 43/14/8
f 22/8/11 14/21/11 6/10/11
f 61/17/11 69/7/11 53/16/11
f 39/22/12 42/23/10 41/20/10
f 5/15/5 4/4/4 6/10/5
f 65/24/9 64/25/13 66/19/9
f 37/21/14 40/26/12 39/22/12
f 26/12/3 24/9/2 25/13/3
f 63/27/13 62/28/15 64/25/13
f 36/17/15 37/21/14 35/28/15
f 23/7/2 22/8/7 24/9/2
f 61/17/15 60/21/14 62/28/15
f 34/27/13 35/28/15 33/25/13
f 3/11/4 25/6/3 4/4/4
f 60/21/14 57/26/12 58/22/12
f 32/24/9 33/25/13 31/19/9
f 21/18/7 20/19/8 22/8/7
f 90/1/1 82/2/1 74/3/1
f 30/18/5 31/19/9 29/8/5
f 19/24/8 18/25/10 20/19/8
f 1/12/3 27/9/4 2/13/3
f 28/7/4 29/8/5 27/9/4
f 17/27/10 16/28/12 18/25/10
f 58/22/12 55/23/10 56/20/10
f 15/17/12 14/21/14 16/28/12
f 13/29/14 12/22/15 14/21/14
f 56/20/10 53/16/8 54/14/8
f 54/14/8 51/15/7 52/10/7
f 52/10/7 49/11/2 50/4/16
f 50/4/16 72/5/3 71/6/3
f 93/7/4 92/8/5 94/9/6
f 96/12/3 94/9/6 95/13/3
f 91/18/5 90/19/9 92/8/5
f 85/17/11 93/7/11 77/16/11
f 89/24/9 88/25/13 90/19/9
f 87/27/13 86/28/15 88/25/13
f 85/17/15 84/21/14 86/28/15
f 84/21/14 81/26/12 82/22/12
f 82/22/12 79/23/10 80/20/10
f 80/20/10 77/16/8 78/14/8
f 78/14/8 75/15/7 76/10/7
f 76/10/7 73/11/2 74/4/16
f 74/4/16 96/5/3 95/6/3
f 9/23/13 8/14/9 10/20/13
f 100/12/3 101/9/17 99/13/3
f 140/16/11 141/10/18 139/14/11
f 101/9/17 104/18/19 103/8/19
f 138/23/20 139/14/11 137/20/20
f 103/8/19 106/24/1 105/19/1
f 136/26/21 137/20/20 135/22/21
f 106/24/1 107/25/22 105/19/1
f 134/29/14 135/22/21 133/21/14
f 108/27/22 109/28/23 107/25/22
f 132/17/23 133/21/14 131/28/23
f 110/17/23 111/21/14 109/28/23
f 130/27/22 131/28/23 129/25/22
f 112/29/14 113/22/21 111/21/14
f 128/24/1 129/25/22 127/19/1
f 114/26/21 115/20/20 113/22/21
f 7/16/9 6/10/5 8/14/9
f 126/18/19 127/19/1 125/8/19
f 116/23/20 117/14/11 115/20/20
f 144/11/24 98/6/3 143/4/24
f 124/7/17 125/8/19 123/9/17
f 117/14/11 120/15/18 119/10/18
f 11/26/15 10/20/13 12/22/15
f 97/12/3 123/9/17 98/13/3
f 119/10/18 122/11/24 121/4/24
f 142/15/18 143/4/24 141/10/18
f 122/11/24 99/6/3 121/4/24
f 105/1/8 113/2/8 121/3/8
f 50/3/1 71/30/1 70/31/1
f 70/31/1 68/32/1 66/1/1
f 66/1/1 64/33/1 62/34/1
f 62/34/1 60/35/1 58/2/1
f 58/2/1 56/36/1 54/37/1
f 54/37/1 52/38/1 50/3/1
f 50/3/1 70/31/1 66/1/1
f 66/1/1 62/34/1 58/2/1
f 58/2/1 54/37/1 50/3/1
f 47/4/2 48/11/2 1/5/3
f 69/7/4 67/18/5 68/8/5
f 45/10/7 46/15/7 48/11/2
f 72/12/3 69/7/4 70/9/6
f 43/14/8 44/16/8 46/15/7
f 23/7/1 26/12/1 3/11/1
f 3/11/1 5/15/1 7/16/1
f 7/16/1 9/23/1 11/26/1
f 11/26/1 13/29/1 15/17/1
f 15/17/1 17/27/1 19/24/1
f 19/24/1 21/18/1 23/7/1
f 23/7/1 3/11/1 7/16/1
f 7/16/1 11/26/1 15/17/1
f 15/17/1 19/24/1 23/7/1
f 67/18/5 65/24/9 66/19/9
f 41/20/10 42/23/10 44/16/8
f 6/10/11 4/4/11 25/13/11
f 25/13/11 24/9/11 22/8/11
f 22/8/11 20/19/11 18/25/11
f 18/25/11 16/28/11 14/21/11
f 14/21/11 12/22/11 10/20/11
f 10/20/11 8/14/11 6/10/11
f 6/10/11 25/13/11 22/8/11
f 22/8/11 18/25/11 14/21/11
f 14/21/11 10/20/11 6/10/11
f 53/16/11 55/23/11 57/26/11
f 57/26/11 59/29/11 61/17/11
f 61/17/11 63/27/11 65/24/11
f 65/24/11 67/18/11 69/7/11
f 69/7/11 72/5/11 49/11/11
f 49/11/11 51/15/11 53/16/11
f 53/16/11 57/26/11 61/17/11
f 61/17/11 65/24/11 69/7/11
f 69/7/11 49/11/11 53/16/11
f 39/22/12 40/26/12 42/23/10
f 5/15/5 3/11/4 4/4/4
f 65/24/9 63/27/13 64/25/13
f 37/21/14 38/29/14 40/26/12
f 26/12/3 23/7/2 24/9/2
f 63/27/13 61/17/15 62/28/15
f 36/17/15 38/29/14 37/21/14
f 23/7/2 21/18/7 22/8/7
f 61/17/15 59/29/14 60/21/14
f 34/27/13 36/17/15 35/28/15
f 3/11/4 26/5/3 25/6/3
f 60/21/14 59/29/14 57/26/12
f 32/24/9 34/27/13 33/25/13
f 21/18/7 19/24/8 20/19/8
f 74/3/1 95/30/1 94/31/1
f 94/31/1 92/32/1 90/1/1
f 90/1/1 88/33/1 86/34/1
f 86/34/1 84/35/1 82/2/1
f 82/2/1 80/36/1 78/37/1
f 78/37/1 76/38/1 74/3/1
f 74/3/1 94/31/1 90/1/1
f 90/1/1 86/34/1 82/2/1
f 82/2/1 78/37/1 74/3/1
f 30/18/5 32/24/9 31/19/9
f 19/24/8 17/27/10 18/25/10
f 1/12/3 28/7/4 27/9/4
f 28/7/4 30/18/5 29/8/5
f 17/27/10 15/17/12 16/28/12
f 58/22/12 57/26/12 55/23/10
f 15/17/12 13/29/14 14/21/14
f 13/29/14 11/26/15 12/22/15
f 56/20/10 55/23/10 53/16/8
f 54/14/8 53/16/8 51/15/7
f 52/10/7 51/15/7 49/11/2
f 50/4/16 49/11/2 72/5/3
f 93/7/4 91/18/5 92/8/5
f 96/12/3 93/7/4 94/9/6
f 91/18/5 89/24/9 90/19/9
f 77/16/11 79/23/11 81/26/11
f 81/26/11 83/29/11 85/17/11
f 85/17/11 87/27/11 89/24/11
f 89/24/11 91/18/11 93/7/11
f 93/7/11 96/5/11 73/11/11
f 73/11/11 75/15/11 77/16/11
f 77/16/11 81/26/11 85/17/11
f 85/17/11 89/24/11 93/7/11
f 93/7/11 73/11/11 77/16/11
f 89/24/9 87/27/13 88/25/13
f 87/27/13 85/17/15 86/28/15
f 85/17/15 83/29/14 84/21/14
f 84/21/14 83/29/14 81/26/12
f 82/22/12 81/26/12 79/23/10
f 80/20/10 79/23/10 77/16/8
f 78/14/8 77/16/8 75/15/7
f 76/10/7 75/15/7 73/11/2
f 74/4/16 73/11/2 96/5/3
f 9/23/13 7/16/9 8/14/9
f 100/12/3 102/7/17 101/9/17
f 140/16/11 142/15/18 141/10/18
f 101/9/17 102/7/17 104/18/19
f 138/23/20 140/16/11 139/14/11
f 103/8/19 104/18/19 106/24/1
f 136/26/21 138/23/20 137/20/20
f 106/24/1 108/27/22 107/25/22
f 134/29/14 136/26/21 135/22/21
f 108/27/22 110/17/23 109/28/23
f 132/17/23 134/29/14 133/21/14
f 110/17/23 112/29/14 111/21/14
f 130/27/22 132/17/23 131/28/23
f 112/29/14 114/26/21 113/22/21
f 128/24/1 130/27/22 129/25/22
f 114/26/21 116/23/20 115/20/20
f 7/16/9 5/15/5 6/10/5
f 126/18/19 128/24/1 127/19/1
f 116/23/20 118/16/11 117/14/11
f 144/11/24 97/5/3 98/6/3
f 124/7/17 126/18/19 125/8/19
f 117/14/11 118/16/11 120/15/18
f 11/26/15 9/23/13 10/20/13
f 97/12/3 124/7/17 123/9/17
f 119/10/18 120/15/18 122/11/24
f 142/15/18 144/11/24 143/4/24
f 122/11/24 100/5/3 99/6/3
f 121/3/8 99/30/8 101/31/8
f 101/31/8 103/32/8 105/1/8
f 105/1/8 107/33/8 109/34/8
f 109/34/8 111/35/8 113/2/8
f 113/2/8 115/36/8 117/37/8
f 117/37/8 119/38/8 121/3/8
f 121/3/8 101/31/8 105/1/8
f 105/1/8 109/34/8 113/2/8
f 113/2/8 117/37/8 121/3/8
