# Blender 5.0.1
# www.blender.org
mtllib CrossPumpMainobj.mtl
o Cube.030
v -1.400000 0.900000 4.580000
v -1.400000 1.100000 4.580000
v -1.400000 0.900000 4.380000
v -1.400000 1.100000 4.380000
v -1.200000 0.900000 4.580000
v -1.200000 1.100000 4.580000
v -1.200000 0.900000 4.380000
v -1.200000 1.100000 4.380000
v -1.300000 1.100000 4.300000
v -1.300000 1.100000 4.250000
v -1.300000 1.100000 4.310000
v -1.300000 1.100000 4.350000
v -1.250000 1.086603 4.310000
v -1.250000 1.086603 4.350000
v -1.213398 1.050000 4.310000
v -1.213398 1.050000 4.350000
v -1.200000 1.000000 4.310000
v -1.200000 1.000000 4.350000
v -1.213398 0.950000 4.310000
v -1.213398 0.950000 4.350000
v -1.250000 0.913398 4.310000
v -1.250000 0.913397 4.350000
v -1.300000 0.900000 4.310000
v -1.300000 0.900000 4.350000
v -1.350000 0.913398 4.310000
v -1.350000 0.913397 4.350000
v -1.386603 0.950000 4.310000
v -1.386603 0.950000 4.350000
v -1.400000 1.000000 4.310000
v -1.400000 1.000000 4.350000
v -1.386603 1.050000 4.310000
v -1.386603 1.050000 4.350000
v -1.350000 1.086603 4.310000
v -1.350000 1.086603 4.350000
v -1.150000 0.800000 4.300000
v -1.150000 0.800000 4.250000
v -1.150000 1.200000 4.250000
v -1.150000 1.200000 4.300000
v -1.300000 0.900000 4.250000
v -1.300000 0.900000 4.300000
v -1.350000 0.913398 4.250000
v -1.350000 0.913397 4.300000
v -1.386603 0.950000 4.250000
v -1.386603 0.950000 4.300000
v -1.400000 1.000000 4.250000
v -1.400000 1.000000 4.300000
v -1.386603 1.050000 4.250000
v -1.386603 1.050000 4.300000
v -1.350000 1.086603 4.250000
v -1.350000 1.086603 4.300000
v -1.300000 1.080000 4.670000
v -1.300000 1.080000 4.610000
v -1.300000 1.060000 3.950000
v -1.300000 1.060000 4.610000
v -1.270000 1.051962 3.950000
v -1.270000 1.051961 4.610000
v -1.248039 1.030000 3.950000
v -1.248039 1.030000 4.610000
v -1.240000 1.000000 3.950000
v -1.240000 1.000000 4.610000
v -1.248039 0.970000 3.950000
v -1.248039 0.970000 4.610000
v -1.270000 0.948039 3.950000
v -1.270000 0.948038 4.610000
v -1.300000 0.940000 3.950000
v -1.300000 0.940000 4.610000
v -1.330000 0.948039 3.950000
v -1.330000 0.948038 4.610000
v -1.351962 0.970000 3.950000
v -1.351962 0.970000 4.610000
v -1.360000 1.000000 3.950000
v -1.360000 1.000000 4.610000
v -1.351962 1.030000 3.950000
v -1.351962 1.030000 4.610000
v -1.330000 1.051962 3.950000
v -1.330000 1.051961 4.610000
v -1.260000 1.069282 4.610000
v -1.260000 1.069282 4.670000
v -1.230718 1.040000 4.610000
v -1.230718 1.040000 4.670000
v -1.220000 1.000000 4.610000
v -1.220000 1.000000 4.670000
v -1.230718 0.960000 4.610000
v -1.230718 0.960000 4.670000
v -1.260000 0.930718 4.610000
v -1.260000 0.930718 4.670000
v -1.300000 0.920000 4.610000
v -1.300000 0.920000 4.670000
v -1.340000 0.930718 4.610000
v -1.340000 0.930718 4.670000
v -1.369282 0.960000 4.610000
v -1.369282 0.960000 4.670000
v -1.380000 1.000000 4.610000
v -1.380000 1.000000 4.670000
v -1.369282 1.040000 4.610000
v -1.369282 1.040000 4.670000
v -1.340000 1.069282 4.610000
v -1.340000 1.069282 4.670000
v -1.300000 1.100000 4.630000
v -1.300000 1.100000 4.659999
v -1.250000 1.086603 4.630000
v -1.250000 1.086603 4.659999
v -1.213398 1.050000 4.630000
v -1.213398 1.050000 4.659999
v -1.200000 1.000000 4.630000
v -1.200000 1.000000 4.659999
v -1.213398 0.950000 4.630000
v -1.213398 0.950000 4.659999
v -1.250000 0.913398 4.630000
v -1.250000 0.913397 4.659999
v -1.300000 0.900000 4.630000
v -1.300000 0.900000 4.659999
v -1.350000 0.913398 4.630000
v -1.350000 0.913397 4.659999
v -1.386603 0.950000 4.630000
v -1.386603 0.950000 4.659999
v -1.400000 1.000000 4.630000
v -1.400000 1.000000 4.659999
v -1.386603 1.050000 4.630000
v -1.386603 1.050000 4.659999
v -1.350000 1.086603 4.630000
v -1.350000 1.086603 4.659999
v -1.300000 1.100000 4.670000
v -1.300000 1.100000 4.689999
v -1.250000 1.086603 4.670000
v -1.250000 1.086603 4.689999
v -1.213398 1.050000 4.670000
v -1.213398 1.050000 4.689999
v -1.200000 1.000000 4.670000
v -1.200000 1.000000 4.689999
v -1.213398 0.950000 4.670000
v -1.213398 0.950000 4.689999
v -1.250000 0.913398 4.670000
v -1.250000 0.913397 4.689999
v -1.300000 0.900000 4.670000
v -1.300000 0.900000 4.689999
v -1.350000 0.913398 4.670000
v -1.350000 0.913397 4.689999
v -1.386603 0.950000 4.670000
v -1.386603 0.950000 4.689999
v -1.400000 1.000000 4.670000
v -1.400000 1.000000 4.689999
v -1.386603 1.050000 4.670000
v -1.386603 1.050000 4.689999
v -1.350000 1.086603 4.670000
v -1.350000 1.086603 4.689999
v -1.400000 0.700000 4.580000
v -1.400000 0.730000 4.580000
v -1.400000 0.700000 4.380000
v -1.400000 0.730000 4.380000
v -1.200000 0.700000 4.580000
v -1.200000 0.730000 4.580000
v -1.200000 0.700000 4.380000
v -1.200000 0.730000 4.380000
v -1.400000 1.270000 4.580000
v -1.400000 1.300000 4.580000
v -1.400000 1.270000 4.380000
v -1.400000 1.300000 4.380000
v -1.200000 1.270000 4.580000
v -1.200000 1.300000 4.580000
v -1.200000 1.270000 4.380000
v -1.200000 1.300000 4.380000
v -1.370000 0.680000 4.570000
v -1.370000 1.320000 4.570000
v -1.370000 1.320000 4.430000
v -1.370000 0.680000 4.430000
v -1.387321 1.320000 4.420000
v -1.387321 0.680000 4.420000
v -1.387321 1.320000 4.400000
v -1.387321 0.680000 4.400000
v -1.370000 1.320000 4.390000
v -1.370000 0.680000 4.390000
v -1.352680 1.320000 4.400000
v -1.352680 0.680000 4.400000
v -1.352680 1.320000 4.420000
v -1.352680 0.680000 4.420000
v -1.387321 1.320000 4.560000
v -1.387321 0.680000 4.560000
v -1.387321 1.320000 4.539999
v -1.387321 0.680000 4.539999
v -1.370000 1.320000 4.530000
v -1.370000 0.680000 4.530000
v -1.352680 1.320000 4.539999
v -1.352680 0.680000 4.539999
v -1.352680 1.320000 4.560000
v -1.352680 0.680000 4.560000
v -1.230000 0.680000 4.570000
v -1.230000 1.320000 4.570000
v -1.230000 1.320000 4.430000
v -1.230000 0.680000 4.430000
v -1.247321 1.320000 4.420000
v -1.247321 0.680000 4.420000
v -1.247321 1.320000 4.400000
v -1.247321 0.680000 4.400000
v -1.230000 1.320000 4.390000
v -1.230000 0.680000 4.390000
v -1.212680 1.320000 4.400000
v -1.212680 0.680000 4.400000
v -1.212680 1.320000 4.420000
v -1.212680 0.680000 4.420000
v -1.247321 1.320000 4.560000
v -1.247321 0.680000 4.560000
v -1.247321 1.320000 4.539999
v -1.247321 0.680000 4.539999
v -1.230000 1.320000 4.530000
v -1.230000 0.680000 4.530000
v -1.212680 1.320000 4.539999
v -1.212680 0.680000 4.539999
v -1.212680 1.320000 4.560000
v -1.212680 0.680000 4.560000
v -1.300000 1.320000 4.540000
v -1.300000 0.730000 4.540000
v -1.270000 1.320000 4.531961
v -1.270000 0.730000 4.531961
v -1.248039 1.320000 4.510000
v -1.248039 0.730000 4.510000
v -1.240000 1.320000 4.480000
v -1.240000 0.730000 4.480000
v -1.248039 1.320000 4.450000
v -1.248039 0.730000 4.450000
v -1.270000 1.320000 4.428039
v -1.270000 0.730000 4.428039
v -1.300000 1.320000 4.420000
v -1.300000 0.730000 4.420000
v -1.330000 1.320000 4.428039
v -1.330000 0.730000 4.428039
v -1.351962 1.320000 4.450000
v -1.351962 0.730000 4.450000
v -1.360000 1.320000 4.480000
v -1.360000 0.730000 4.480000
v -1.351962 1.320000 4.510000
v -1.351962 0.730000 4.510000
v -1.330000 1.320000 4.531961
v -1.330000 0.730000 4.531961
v -1.300000 1.370000 4.580000
v -1.250000 1.370000 4.566602
v -1.213398 1.370000 4.530000
v -1.200000 1.370000 4.480000
v -1.213398 1.370000 4.430000
v -1.250000 1.370000 4.393398
v -1.300000 1.370000 4.380000
v -1.350000 1.370000 4.393398
v -1.386603 1.370000 4.430000
v -1.400000 1.370000 4.480000
v -1.386603 1.370000 4.530000
v -1.350000 1.370000 4.566602
v -1.300000 1.600000 4.580000
v -1.250000 1.600000 4.566602
v -1.213398 1.600000 4.530000
v -1.200000 1.600000 4.480000
v -1.213398 1.600000 4.430000
v -1.250000 1.600000 4.393398
v -1.300000 1.600000 4.380000
v -1.350000 1.600000 4.393398
v -1.386603 1.600000 4.430000
v -1.400000 1.600000 4.480000
v -1.386603 1.600000 4.530000
v -1.350000 1.600000 4.566602
v -1.300000 1.650000 4.540000
v -1.270000 1.650000 4.531961
v -1.248039 1.650000 4.510000
v -1.240000 1.650000 4.480000
v -1.248039 1.650000 4.450000
v -1.270000 1.650000 4.428039
v -1.300000 1.650000 4.420000
v -1.330000 1.650000 4.428039
v -1.351962 1.650000 4.450000
v -1.360000 1.650000 4.480000
v -1.351962 1.650000 4.510000
v -1.330000 1.650000 4.531961
v -1.330000 1.750000 4.531961
v -1.351962 1.750000 4.510000
v -1.360000 1.750000 4.480000
v -1.351962 1.750000 4.450000
v -1.330000 1.750000 4.428039
v -1.300000 1.750000 4.420000
v -1.270000 1.750000 4.428039
v -1.248039 1.750000 4.450000
v -1.240000 1.750000 4.480000
v -1.248039 1.750000 4.510000
v -1.270000 1.750000 4.531961
v -1.300000 1.750000 4.540000
v -1.300000 1.750000 4.550000
v -1.265000 1.750000 4.540622
v -1.239378 1.750000 4.515000
v -1.230000 1.750000 4.480000
v -1.239378 1.750000 4.445000
v -1.265000 1.750000 4.419378
v -1.300000 1.750000 4.410000
v -1.335000 1.750000 4.419378
v -1.360622 1.750000 4.445000
v -1.370000 1.750000 4.480000
v -1.360622 1.750000 4.515000
v -1.335000 1.750000 4.540622
v -1.335000 1.760000 4.540622
v -1.360622 1.760000 4.515000
v -1.370000 1.760000 4.480000
v -1.360622 1.760000 4.445000
v -1.335000 1.760000 4.419378
v -1.300000 1.760000 4.410000
v -1.265000 1.760000 4.419378
v -1.239378 1.760000 4.445000
v -1.230000 1.760000 4.480000
v -1.239378 1.760000 4.515000
v -1.265000 1.760000 4.540622
v -1.300000 1.760000 4.550000
v -1.300000 1.685000 4.550000
v -1.265000 1.685000 4.540622
v -1.239378 1.685000 4.515000
v -1.230000 1.685000 4.480000
v -1.239378 1.685000 4.445000
v -1.265000 1.685000 4.419378
v -1.300000 1.685000 4.410000
v -1.335000 1.685000 4.419378
v -1.360622 1.685000 4.445000
v -1.370000 1.685000 4.480000
v -1.360622 1.685000 4.515000
v -1.335000 1.685000 4.540622
v -1.335000 1.705000 4.540622
v -1.360622 1.705000 4.515000
v -1.370000 1.705000 4.480000
v -1.360622 1.705000 4.445000
v -1.335000 1.705000 4.419378
v -1.300000 1.705000 4.410000
v -1.265000 1.705000 4.419378
v -1.239378 1.705000 4.445000
v -1.230000 1.705000 4.480000
v -1.239378 1.705000 4.515000
v -1.265000 1.705000 4.540622
v -1.300000 1.705000 4.550000
v -1.175000 1.130000 4.320000
v -1.175000 1.130000 4.230000
v -1.192321 1.140000 4.320000
v -1.192321 1.140000 4.230000
v -1.192321 1.160000 4.320000
v -1.192321 1.160000 4.230000
v -1.175000 1.170000 4.320000
v -1.175000 1.170000 4.230000
v -1.157680 1.160000 4.320000
v -1.157680 1.160000 4.230000
v -1.157680 1.140000 4.320000
v -1.157680 1.140000 4.230000
v -1.175000 0.830000 4.320000
v -1.175000 0.830000 4.230000
v -1.192321 0.840000 4.320000
v -1.192321 0.840000 4.230000
v -1.192321 0.860000 4.320000
v -1.192321 0.860000 4.230000
v -1.175000 0.870000 4.320000
v -1.175000 0.870000 4.230000
v -1.157680 0.860000 4.320000
v -1.157680 0.860000 4.230000
v -1.157680 0.840000 4.320000
v -1.157680 0.840000 4.230000
v -1.175000 0.980000 4.320000
v -1.175000 0.980000 4.230000
v -1.192321 0.990000 4.320000
v -1.192321 0.990000 4.230000
v -1.192321 1.010000 4.320000
v -1.192321 1.010000 4.230000
v -1.175000 1.020000 4.320000
v -1.175000 1.020000 4.230000
v -1.157680 1.010000 4.320000
v -1.157680 1.010000 4.230000
v -1.157680 0.990000 4.320000
v -1.157680 0.990000 4.230000
vn -1.0000 -0.0000 -0.0000
vn -0.0000 -0.0000 -1.0000
vn 1.0000 -0.0000 -0.0000
vn -0.0000 -0.0000 1.0000
vn -0.0000 -1.0000 -0.0000
vn -0.0000 1.0000 -0.0000
vn 0.5000 0.8660 -0.0000
vn -0.8660 0.5000 -0.0000
vn 0.8660 0.5000 -0.0000
vn -0.8660 -0.5000 -0.0000
vn -0.5000 -0.8660 -0.0000
vn 0.8660 -0.5000 -0.0000
vn -0.4122 -0.9111 -0.0000
vn 0.5000 -0.8660 -0.0000
vn -0.4122 0.9111 -0.0000
vn -0.5547 0.8321 -0.0000
vn -0.5547 -0.8321 -0.0000
vn -0.5000 0.8660 -0.0000
vn -0.8660 -0.0000 0.5000
vn 0.8660 -0.0000 -0.5000
vn -0.8660 -0.0000 -0.5000
vn 0.8660 -0.0000 0.5000
vn 0.4685 -0.3494 0.8114
vn -0.0000 -0.3494 0.9370
vn 0.5000 -0.0000 0.8660
vn 0.8114 -0.3494 0.4685
vn 0.9370 -0.3494 -0.0000
vn 0.8114 -0.3494 -0.4685
vn 0.4685 -0.3494 -0.8114
vn 0.5000 -0.0000 -0.8660
vn -0.0000 -0.3494 -0.9370
vn -0.4685 -0.3494 -0.8114
vn -0.5000 -0.0000 -0.8660
vn -0.8114 -0.3494 -0.4685
vn -0.9370 -0.3494 -0.0000
vn -0.8114 -0.3494 0.4685
vn -0.4685 -0.3494 0.8114
vn -0.5000 -0.0000 0.8660
vn -0.0000 -0.3151 -0.9491
vn -0.4745 -0.3151 0.8219
vn -0.8219 0.3151 0.4745
vn -0.8219 -0.3151 0.4745
vn 0.4745 -0.3151 -0.8219
vn 0.8219 -0.3151 -0.4745
vn 0.9491 -0.3151 -0.0000
vn 0.4745 -0.3151 0.8219
vn -0.0000 -0.3151 0.9491
vn 0.8219 -0.3151 0.4745
vn -0.9491 -0.3151 -0.0000
vn -0.8219 -0.3151 -0.4745
vn -0.4745 -0.3151 -0.8219
vn 0.9491 0.3151 -0.0000
vn 0.8114 0.3494 -0.4685
vn 0.9370 0.3494 -0.0000
vn -0.0000 0.3151 0.9491
vn -0.4745 0.3151 -0.8219
vn 0.8219 0.3151 -0.4745
vn -0.4745 0.3151 0.8219
vn 0.4745 0.3151 0.8219
vn -0.8219 0.3151 -0.4745
vn 0.4745 0.3151 -0.8219
vn 0.8219 0.3151 0.4745
vn -0.9491 0.3151 -0.0000
vn -0.0000 0.3151 -0.9491
vn -0.8114 0.3494 0.4685
vn -0.0000 0.3494 0.9370
vn -0.8114 0.3494 -0.4685
vn -0.4685 0.3494 -0.8114
vn -0.4685 0.3494 0.8114
vn 0.8114 0.3494 0.4685
vn 0.4685 0.3494 0.8114
vn 0.4685 0.3494 -0.8114
vn -0.9370 0.3494 -0.0000
vn -0.0000 0.3494 -0.9370
vn -0.5000 -0.0001 0.8660
vt 0.625000 0.000000
vt 0.375000 0.250000
vt 0.375000 0.000000
vt 0.625000 0.250000
vt 0.375000 0.500000
vt 0.625000 0.500000
vt 0.375000 0.750000
vt 0.625000 0.750000
vt 0.375000 1.000000
vt 0.125000 0.750000
vt 0.125000 0.500000
vt 0.875000 0.500000
vt 1.000000 1.000000
vt 0.916667 0.500000
vt 1.000000 0.500000
vt 0.250000 1.000000
vt 0.166667 0.500000
vt 0.250000 0.500000
vt 0.916667 1.000000
vt 0.833333 0.500000
vt 0.333333 1.000000
vt 0.333333 0.500000
vt 0.833333 1.000000
vt 0.750000 0.500000
vt 0.416667 0.500000
vt 0.750000 1.000000
vt 0.666667 0.500000
vt 0.500000 0.500000
vt 0.416667 1.000000
vt 0.666667 1.000000
vt 0.583333 0.500000
vt 0.583333 1.000000
vt 0.000000 1.000000
vt 0.000000 0.500000
vt 0.500000 1.000000
vt 0.083333 1.000000
vt 0.083333 0.500000
vt 0.042154 0.370000
vt 0.250000 0.010000
vt 0.457846 0.370000
vt 0.166667 1.000000
vt 0.990000 0.250000
vt 0.630000 0.042154
vt 0.630000 0.457846
vt 0.833333 0.500000
vt 0.457846 0.130000
vt 0.042154 0.130000
vt 0.250000 0.490000
vt 0.333333 0.500000
vt 0.500000 1.000000
vt 0.500000 0.500000
vt 0.666667 0.500000
vt 0.833333 1.000000
vt 0.542154 0.370000
vt 0.750000 0.010000
vt 0.957846 0.370000
vt 0.666667 1.000000
vt -0.000000 0.500000
vt 0.166667 1.000000
vt 0.166667 0.500000
vt 0.333333 1.000000
vt -0.000000 1.000000
vt 0.625000 1.000000
vt 0.875000 0.750000
vt 0.370000 0.457846
vt 0.130000 0.457846
vt 0.010000 0.250000
vt 0.130000 0.042154
vt 0.370000 0.042154
vt 0.490000 0.250000
vt 0.750000 0.490000
vt 0.870000 0.457846
vt 0.957846 0.130000
vt 0.870000 0.042154
vt 0.542154 0.130000
vt 0.510000 0.250000
s 0
f 2/1/1 3/2/1 1/3/1
f 4/4/2 7/5/2 3/2/2
f 8/6/3 5/7/3 7/5/3
f 6/8/4 1/9/4 5/7/4
f 7/5/5 1/10/5 3/11/5
f 4/12/6 6/8/6 8/6/6
s 1
f 12/13/6 13/14/7 11/15/6
f 46/16/1 47/17/8 45/18/1
f 14/19/7 15/20/9 13/14/7
f 44/21/10 45/18/1 43/22/10
f 16/23/9 17/24/3 15/20/9
f 41/25/11 44/21/10 43/22/10
f 18/26/3 19/27/12 17/24/3
f 39/28/13 42/29/11 41/25/11
f 20/30/12 21/31/14 19/27/12
f 22/32/14 23/28/5 21/31/14
f 9/33/15 37/34/16 10/34/15
f 23/28/5 26/29/11 25/25/11
f 40/35/13 36/28/17 35/35/17
f 25/25/11 28/21/10 27/22/10
f 10/34/2 36/28/2 39/28/2
f 40/35/4 38/33/4 9/33/4
f 28/21/10 29/18/1 27/22/10
f 50/36/18 10/34/15 49/37/18
f 43/22/2 47/17/2 10/34/2
f 30/16/1 31/17/8 29/18/1
f 32/38/4 24/39/4 16/40/4
f 42/29/4 9/33/4 48/41/4
f 32/41/8 33/37/18 31/17/8
f 48/41/8 49/37/18 47/17/8
f 34/36/18 11/34/6 33/37/18
f 17/42/2 25/43/2 33/44/2
f 38/33/3 36/28/3 37/34/3
f 116/21/10 117/18/1 115/22/10
f 98/36/18 52/34/6 97/37/18
f 54/13/6 55/14/7 53/15/6
f 118/16/1 119/17/8 117/18/1
f 95/17/8 98/36/18 97/37/18
f 56/19/7 57/20/9 55/14/7
f 112/35/5 113/25/11 111/28/5
f 94/16/1 95/17/8 93/18/1
f 58/23/9 59/24/3 57/20/9
f 110/32/14 111/28/5 109/31/14
f 92/21/10 93/18/1 91/22/10
f 60/26/3 61/27/12 59/24/3
f 108/30/12 109/31/14 107/27/12
f 89/25/11 92/21/10 91/22/10
f 62/30/12 63/31/14 61/27/12
f 106/26/3 107/27/12 105/24/3
f 87/28/5 90/29/11 89/25/11
f 64/32/14 65/28/5 63/31/14
f 104/23/9 105/24/3 103/20/9
f 86/32/14 87/28/5 85/31/14
f 66/35/5 67/25/11 65/28/5
f 102/19/7 103/20/9 101/14/7
f 84/30/12 85/31/14 83/27/12
f 68/29/11 69/22/10 67/25/11
f 100/13/6 101/14/7 99/15/6
f 82/26/3 83/27/12 81/24/3
f 70/21/10 71/18/1 69/22/10
f 140/21/10 141/18/1 139/22/10
f 80/23/9 81/24/3 79/20/9
f 72/16/1 73/17/8 71/18/1
f 51/13/6 77/14/7 52/15/6
f 78/19/7 79/20/9 77/14/7
f 74/41/8 75/37/18 73/17/8
f 113/25/11 116/21/10 115/22/10
f 81/42/2 89/43/2 97/44/2
f 76/36/18 53/34/6 75/37/18
f 59/42/2 67/43/2 75/44/2
f 120/38/4 112/39/4 104/40/4
f 120/41/8 121/37/18 119/17/8
f 122/36/18 99/34/6 121/37/18
f 105/42/2 113/43/2 121/44/2
f 142/16/1 143/17/8 141/18/1
f 135/28/5 138/29/11 137/25/11
f 133/31/14 136/35/5 135/28/5
f 132/30/12 133/31/14 131/27/12
f 130/26/3 131/27/12 129/24/3
f 128/23/9 129/24/3 127/20/9
f 126/19/7 127/20/9 125/14/7
f 124/13/6 125/14/7 123/15/6
f 138/29/11 139/22/10 137/25/11
f 144/38/4 136/39/4 128/40/4
f 144/41/8 145/37/18 143/17/8
f 146/36/18 123/34/6 145/37/18
f 129/42/2 137/43/2 145/44/2
s 0
f 148/1/1 149/2/1 147/3/1
f 150/4/2 153/5/2 149/2/2
f 154/6/3 151/7/3 153/5/3
f 152/8/4 147/9/4 151/7/4
f 153/5/5 147/10/5 149/11/5
f 150/12/6 152/8/6 154/6/6
f 156/1/1 157/2/1 155/3/1
f 158/4/2 161/5/2 157/2/2
f 162/6/3 159/7/3 161/5/3
f 160/8/4 155/9/4 159/7/4
f 161/5/5 155/10/5 157/11/5
f 158/12/6 160/8/6 162/6/6
s 1
f 191/45/19 190/13/4 189/15/4
f 180/46/5 184/47/5 163/48/5
f 167/45/19 166/13/4 165/15/4
f 207/49/20 206/50/2 205/51/2
f 183/49/20 182/50/2 181/51/2
f 169/52/21 168/53/19 167/45/19
f 185/54/6 181/55/6 177/56/6
f 181/51/2 180/57/21 179/52/21
f 171/51/2 170/57/21 169/52/21
f 164/58/4 186/59/22 185/60/22
f 179/52/21 178/53/19 177/45/19
f 173/49/20 172/50/2 171/51/2
f 170/46/5 174/47/5 166/48/5
f 177/45/19 163/13/4 164/15/4
f 175/60/22 174/61/20 173/49/20
f 204/46/5 208/47/5 187/48/5
f 185/60/22 184/61/20 183/49/20
f 165/58/4 176/59/22 175/60/22
f 175/54/6 171/55/6 167/56/6
f 193/52/21 192/53/19 191/45/19
f 209/54/6 205/55/6 201/56/6
f 205/51/2 204/57/21 203/52/21
f 195/51/2 194/57/21 193/52/21
f 188/58/4 210/59/22 209/60/22
f 203/52/21 202/53/19 201/45/19
f 197/49/20 196/50/2 195/51/2
f 194/46/5 198/47/5 190/48/5
f 201/45/19 187/13/4 188/15/4
f 199/60/22 198/61/20 197/49/20
f 209/60/22 208/61/20 207/49/20
f 189/58/4 200/59/22 199/60/22
f 199/54/6 195/55/6 191/56/6
f 212/13/4 213/14/23 211/15/24
f 214/19/25 215/20/26 213/14/23
f 216/23/22 217/24/27 215/20/26
f 218/26/3 219/27/28 217/24/27
f 220/30/20 221/31/29 219/27/28
f 222/32/30 223/28/31 221/31/29
f 224/35/2 225/25/32 223/28/31
f 226/29/33 227/22/34 225/25/32
f 228/21/21 229/18/35 227/22/34
f 230/16/1 231/17/36 229/18/35
f 232/41/19 233/37/37 231/17/36
f 234/36/38 211/34/24 233/37/37
f 225/25/32 241/28/39 223/28/31
f 246/37/40 257/17/41 245/17/42
f 221/31/29 241/28/39 240/31/43
f 219/27/28 240/31/43 239/27/44
f 219/27/28 238/24/45 217/24/27
f 211/34/24 246/37/40 233/37/37
f 211/15/24 236/14/46 235/15/47
f 215/20/26 238/24/45 237/20/48
f 231/17/36 246/37/40 245/17/42
f 215/20/26 236/14/46 213/14/23
f 231/17/36 244/18/49 229/18/35
f 227/22/34 244/18/49 243/22/50
f 227/22/34 242/25/51 225/25/32
f 250/24/52 263/27/53 262/24/54
f 236/14/46 247/15/55 235/15/47
f 243/22/50 254/25/56 242/25/51
f 240/31/43 251/27/57 239/27/44
f 235/34/47 258/37/58 246/37/40
f 237/20/48 248/14/59 236/14/46
f 244/18/49 255/22/60 243/22/50
f 241/28/39 252/31/61 240/31/43
f 238/24/45 249/20/62 237/20/48
f 245/17/42 256/18/63 244/18/49
f 242/25/51 253/28/64 241/28/39
f 239/27/44 250/24/52 238/24/45
f 263/27/53 279/24/3 262/24/54
f 258/37/58 269/17/65 257/17/41
f 248/14/59 259/15/66 247/15/55
f 254/25/56 267/22/67 266/25/68
f 252/31/61 263/27/53 251/27/57
f 258/37/58 259/34/66 270/37/69
f 248/14/59 261/20/70 260/14/71
f 256/18/63 267/22/67 255/22/60
f 253/28/64 264/31/72 252/31/61
f 250/24/52 261/20/70 249/20/62
f 256/18/63 269/17/65 268/18/73
f 254/25/56 265/28/74 253/28/64
f 266/25/68 276/28/2 265/28/74
f 269/17/65 273/18/1 268/18/73
f 262/24/54 280/20/22 261/20/70
f 265/28/74 277/31/30 264/31/72
f 268/18/73 274/22/21 267/22/67
f 261/20/70 281/14/25 260/14/71
f 270/37/69 282/34/4 271/37/38
f 264/31/72 278/27/20 263/27/53
f 267/22/67 275/25/33 266/25/68
f 260/14/71 282/15/4 259/15/66
f 270/37/69 272/17/19 269/17/65
f 311/27/20 327/24/3 310/24/3
f 287/27/20 303/24/3 286/24/3
f 290/25/33 300/28/2 289/28/2
f 292/18/1 296/17/19 297/18/1
f 286/24/3 304/20/22 285/20/22
f 289/28/2 301/31/30 288/31/30
f 292/18/1 298/22/21 291/22/21
f 285/20/22 305/14/25 284/14/25
f 294/37/38 306/34/4 295/37/75
f 288/31/30 302/27/20 287/27/20
f 291/22/21 299/25/33 290/25/33
f 283/15/4 305/14/25 306/15/4
f 293/17/19 295/37/75 296/17/19
f 303/42/6 299/43/6 295/44/6
f 292/18/5 288/31/5 284/14/5
f 314/25/33 324/28/2 313/28/2
f 316/18/1 320/17/19 321/18/1
f 310/24/3 328/20/22 309/20/22
f 313/28/2 325/31/30 312/31/30
f 316/18/1 322/22/21 315/22/21
f 309/20/22 329/14/25 308/14/25
f 318/37/38 330/34/4 319/37/38
f 312/31/30 326/27/20 311/27/20
f 315/22/21 323/25/33 314/25/33
f 307/15/4 329/14/25 330/15/4
f 317/17/19 319/37/38 320/17/19
f 327/42/6 323/43/6 319/44/6
f 316/18/5 312/31/5 308/14/5
f 333/45/10 332/13/5 331/15/5
f 335/52/8 334/53/10 333/45/10
f 337/51/6 336/57/8 335/52/8
f 339/49/9 338/50/6 337/51/6
f 345/45/10 344/13/5 343/15/5
f 341/60/12 340/61/9 339/49/9
f 331/58/5 342/59/12 341/60/12
f 341/54/4 337/55/4 333/56/4
f 347/52/8 346/53/10 345/45/10
f 349/51/6 348/57/8 347/52/8
f 351/49/9 350/50/6 349/51/6
f 353/60/12 352/61/9 351/49/9
f 343/58/5 354/59/12 353/60/12
f 353/54/4 349/55/4 345/56/4
f 357/45/10 356/13/5 355/15/5
f 359/52/8 358/53/10 357/45/10
f 361/51/6 360/57/8 359/52/8
f 363/49/9 362/50/6 361/51/6
f 365/60/12 364/61/9 363/49/9
f 355/58/5 366/59/12 365/60/12
f 365/54/4 361/55/4 357/56/4
f 336/57/2 340/61/2 332/62/2
f 358/53/2 362/50/2 366/59/2
f 346/53/2 350/50/2 354/59/2
s 0
f 2/1/1 4/4/1 3/2/1
f 4/4/2 8/6/2 7/5/2
f 8/6/3 6/8/3 5/7/3
f 6/8/4 2/63/4 1/9/4
f 7/5/5 5/7/5 1/10/5
f 4/12/6 2/64/6 6/8/6
s 1
f 12/13/6 14/19/7 13/14/7
f 46/16/1 48/41/8 47/17/8
f 14/19/7 16/23/9 15/20/9
f 44/21/10 46/16/1 45/18/1
f 16/23/9 18/26/3 17/24/3
f 41/25/11 42/29/11 44/21/10
f 18/26/3 20/30/12 19/27/12
f 39/28/13 40/35/13 42/29/11
f 20/30/12 22/32/14 21/31/14
f 22/32/14 24/35/5 23/28/5
f 9/33/15 38/33/16 37/34/16
f 23/28/5 24/35/5 26/29/11
f 40/35/13 39/28/13 36/28/17
f 25/25/11 26/29/11 28/21/10
f 10/34/2 37/34/2 36/28/2
f 40/35/4 35/35/4 38/33/4
f 28/21/10 30/16/1 29/18/1
f 50/36/18 9/33/15 10/34/15
f 39/28/2 41/25/2 43/22/2
f 43/22/2 45/18/2 47/17/2
f 47/17/2 49/37/2 10/34/2
f 10/34/2 39/28/2 43/22/2
f 30/16/1 32/41/8 31/17/8
f 16/40/4 14/65/4 12/48/4
f 12/48/4 34/66/4 32/38/4
f 32/38/4 30/67/4 28/47/4
f 28/47/4 26/68/4 24/39/4
f 24/39/4 22/69/4 20/46/4
f 20/46/4 18/70/4 16/40/4
f 16/40/4 12/48/4 32/38/4
f 32/38/4 28/47/4 24/39/4
f 24/39/4 20/46/4 16/40/4
f 46/16/4 44/21/4 42/29/4
f 42/29/4 40/35/4 9/33/4
f 9/33/4 50/36/4 48/41/4
f 48/41/4 46/16/4 42/29/4
f 32/41/8 34/36/18 33/37/18
f 48/41/8 50/36/18 49/37/18
f 34/36/18 12/33/6 11/34/6
f 33/44/2 11/71/2 13/72/2
f 13/72/2 15/56/2 17/42/2
f 17/42/2 19/73/2 21/74/2
f 21/74/2 23/55/2 25/43/2
f 25/43/2 27/75/2 29/76/2
f 29/76/2 31/54/2 33/44/2
f 33/44/2 13/72/2 17/42/2
f 17/42/2 21/74/2 25/43/2
f 25/43/2 29/76/2 33/44/2
f 38/33/3 35/35/3 36/28/3
f 116/21/10 118/16/1 117/18/1
f 98/36/18 51/33/6 52/34/6
f 54/13/6 56/19/7 55/14/7
f 118/16/1 120/41/8 119/17/8
f 95/17/8 96/41/8 98/36/18
f 56/19/7 58/23/9 57/20/9
f 112/35/5 114/29/11 113/25/11
f 94/16/1 96/41/8 95/17/8
f 58/23/9 60/26/3 59/24/3
f 110/32/14 112/35/5 111/28/5
f 92/21/10 94/16/1 93/18/1
f 60/26/3 62/30/12 61/27/12
f 108/30/12 110/32/14 109/31/14
f 89/25/11 90/29/11 92/21/10
f 62/30/12 64/32/14 63/31/14
f 106/26/3 108/30/12 107/27/12
f 87/28/5 88/35/5 90/29/11
f 64/32/14 66/35/5 65/28/5
f 104/23/9 106/26/3 105/24/3
f 86/32/14 88/35/5 87/28/5
f 66/35/5 68/29/11 67/25/11
f 102/19/7 104/23/9 103/20/9
f 84/30/12 86/32/14 85/31/14
f 68/29/11 70/21/10 69/22/10
f 100/13/6 102/19/7 101/14/7
f 82/26/3 84/30/12 83/27/12
f 70/21/10 72/16/1 71/18/1
f 140/21/10 142/16/1 141/18/1
f 80/23/9 82/26/3 81/24/3
f 72/16/1 74/41/8 73/17/8
f 51/13/6 78/19/7 77/14/7
f 78/19/7 80/23/9 79/20/9
f 74/41/8 76/36/18 75/37/18
f 113/25/11 114/29/11 116/21/10
f 97/44/2 52/71/2 77/72/2
f 77/72/2 79/56/2 81/42/2
f 81/42/2 83/73/2 85/74/2
f 85/74/2 87/55/2 89/43/2
f 89/43/2 91/75/2 93/76/2
f 93/76/2 95/54/2 97/44/2
f 97/44/2 77/72/2 81/42/2
f 81/42/2 85/74/2 89/43/2
f 89/43/2 93/76/2 97/44/2
f 76/36/18 54/33/6 53/34/6
f 75/44/2 53/71/2 55/72/2
f 55/72/2 57/56/2 59/42/2
f 59/42/2 61/73/2 63/74/2
f 63/74/2 65/55/2 67/43/2
f 67/43/2 69/75/2 71/76/2
f 71/76/2 73/54/2 75/44/2
f 75/44/2 55/72/2 59/42/2
f 59/42/2 63/74/2 67/43/2
f 67/43/2 71/76/2 75/44/2
f 104/40/4 102/65/4 100/48/4
f 100/48/4 122/66/4 120/38/4
f 120/38/4 118/67/4 116/47/4
f 116/47/4 114/68/4 112/39/4
f 112/39/4 110/69/4 108/46/4
f 108/46/4 106/70/4 104/40/4
f 104/40/4 100/48/4 120/38/4
f 120/38/4 116/47/4 112/39/4
f 112/39/4 108/46/4 104/40/4
f 120/41/8 122/36/18 121/37/18
f 122/36/18 100/33/6 99/34/6
f 121/44/2 99/71/2 101/72/2
f 101/72/2 103/56/2 105/42/2
f 105/42/2 107/73/2 109/74/2
f 109/74/2 111/55/2 113/43/2
f 113/43/2 115/75/2 117/76/2
f 117/76/2 119/54/2 121/44/2
f 121/44/2 101/72/2 105/42/2
f 105/42/2 109/74/2 113/43/2
f 113/43/2 117/76/2 121/44/2
f 142/16/1 144/41/8 143/17/8
f 135/28/5 136/35/5 138/29/11
f 133/31/14 134/32/14 136/35/5
f 132/30/12 134/32/14 133/31/14
f 130/26/3 132/30/12 131/27/12
f 128/23/9 130/26/3 129/24/3
f 126/19/7 128/23/9 127/20/9
f 124/13/6 126/19/7 125/14/7
f 138/29/11 140/21/10 139/22/10
f 128/40/4 126/65/4 124/48/4
f 124/48/4 146/66/4 144/38/4
f 144/38/4 142/67/4 140/47/4
f 140/47/4 138/68/4 136/39/4
f 136/39/4 134/69/4 132/46/4
f 132/46/4 130/70/4 128/40/4
f 128/40/4 124/48/4 144/38/4
f 144/38/4 140/47/4 136/39/4
f 136/39/4 132/46/4 128/40/4
f 144/41/8 146/36/18 145/37/18
f 146/36/18 124/33/6 123/34/6
f 145/44/2 123/71/2 125/72/2
f 125/72/2 127/56/2 129/42/2
f 129/42/2 131/73/2 133/74/2
f 133/74/2 135/55/2 137/43/2
f 137/43/2 139/75/2 141/76/2
f 141/76/2 143/54/2 145/44/2
f 145/44/2 125/72/2 129/42/2
f 129/42/2 133/74/2 137/43/2
f 137/43/2 141/76/2 145/44/2
s 0
f 148/1/1 150/4/1 149/2/1
f 150/4/2 154/6/2 153/5/2
f 154/6/3 152/8/3 151/7/3
f 152/8/4 148/63/4 147/9/4
f 153/5/5 151/7/5 147/10/5
f 150/12/6 148/64/6 152/8/6
f 156/1/1 158/4/1 157/2/1
f 158/4/2 162/6/2 161/5/2
f 162/6/3 160/8/3 159/7/3
f 160/8/4 156/63/4 155/9/4
f 161/5/5 159/7/5 155/10/5
f 158/12/6 156/64/6 160/8/6
s 1
f 191/45/19 192/53/19 190/13/4
f 163/48/5 178/40/5 180/46/5
f 180/46/5 182/39/5 184/47/5
f 184/47/5 186/38/5 163/48/5
f 167/45/19 168/53/19 166/13/4
f 207/49/20 208/61/20 206/50/2
f 183/49/20 184/61/20 182/50/2
f 169/52/21 170/57/21 168/53/19
f 177/56/6 164/71/6 185/54/6
f 185/54/6 183/75/6 181/55/6
f 181/55/6 179/73/6 177/56/6
f 181/51/2 182/50/2 180/57/21
f 171/51/2 172/50/2 170/57/21
f 164/58/4 163/62/4 186/59/22
f 179/52/21 180/57/21 178/53/19
f 173/49/20 174/61/20 172/50/2
f 166/48/5 168/40/5 170/46/5
f 170/46/5 172/39/5 174/47/5
f 174/47/5 176/38/5 166/48/5
f 177/45/19 178/53/19 163/13/4
f 175/60/22 176/59/22 174/61/20
f 187/48/5 202/40/5 204/46/5
f 204/46/5 206/39/5 208/47/5
f 208/47/5 210/38/5 187/48/5
f 185/60/22 186/59/22 184/61/20
f 165/58/4 166/62/4 176/59/22
f 167/56/6 165/71/6 175/54/6
f 175/54/6 173/75/6 171/55/6
f 171/55/6 169/73/6 167/56/6
f 193/52/21 194/57/21 192/53/19
f 201/56/6 188/71/6 209/54/6
f 209/54/6 207/75/6 205/55/6
f 205/55/6 203/73/6 201/56/6
f 205/51/2 206/50/2 204/57/21
f 195/51/2 196/50/2 194/57/21
f 188/58/4 187/62/4 210/59/22
f 203/52/21 204/57/21 202/53/19
f 197/49/20 198/61/20 196/50/2
f 190/48/5 192/40/5 194/46/5
f 194/46/5 196/39/5 198/47/5
f 198/47/5 200/38/5 190/48/5
f 201/45/19 202/53/19 187/13/4
f 199/60/22 200/59/22 198/61/20
f 209/60/22 210/59/22 208/61/20
f 189/58/4 190/62/4 200/59/22
f 191/56/6 189/71/6 199/54/6
f 199/54/6 197/75/6 195/55/6
f 195/55/6 193/73/6 191/56/6
f 212/13/4 214/19/25 213/14/23
f 214/19/25 216/23/22 215/20/26
f 216/23/22 218/26/3 217/24/27
f 218/26/3 220/30/20 219/27/28
f 220/30/20 222/32/30 221/31/29
f 222/32/30 224/35/2 223/28/31
f 224/35/2 226/29/33 225/25/32
f 226/29/33 228/21/21 227/22/34
f 228/21/21 230/16/1 229/18/35
f 230/16/1 232/41/19 231/17/36
f 232/41/19 234/36/38 233/37/37
f 234/36/38 212/33/4 211/34/24
f 225/25/32 242/25/51 241/28/39
f 246/37/40 258/37/58 257/17/41
f 221/31/29 223/28/31 241/28/39
f 219/27/28 221/31/29 240/31/43
f 219/27/28 239/27/44 238/24/45
f 211/34/24 235/34/47 246/37/40
f 211/15/24 213/14/23 236/14/46
f 215/20/26 217/24/27 238/24/45
f 231/17/36 233/37/37 246/37/40
f 215/20/26 237/20/48 236/14/46
f 231/17/36 245/17/42 244/18/49
f 227/22/34 229/18/35 244/18/49
f 227/22/34 243/22/50 242/25/51
f 250/24/52 251/27/57 263/27/53
f 236/14/46 248/14/59 247/15/55
f 243/22/50 255/22/60 254/25/56
f 240/31/43 252/31/61 251/27/57
f 235/34/47 247/34/55 258/37/58
f 237/20/48 249/20/62 248/14/59
f 244/18/49 256/18/63 255/22/60
f 241/28/39 253/28/64 252/31/61
f 238/24/45 250/24/52 249/20/62
f 245/17/42 257/17/41 256/18/63
f 242/25/51 254/25/56 253/28/64
f 239/27/44 251/27/57 250/24/52
f 263/27/53 278/27/20 279/24/3
f 258/37/58 270/37/69 269/17/65
f 248/14/59 260/14/71 259/15/66
f 254/25/56 255/22/60 267/22/67
f 252/31/61 264/31/72 263/27/53
f 258/37/58 247/34/55 259/34/66
f 248/14/59 249/20/62 261/20/70
f 256/18/63 268/18/73 267/22/67
f 253/28/64 265/28/74 264/31/72
f 250/24/52 262/24/54 261/20/70
f 256/18/63 257/17/41 269/17/65
f 254/25/56 266/25/68 265/28/74
f 266/25/68 275/25/33 276/28/2
f 269/17/65 272/17/19 273/18/1
f 262/24/54 279/24/3 280/20/22
f 265/28/74 276/28/2 277/31/30
f 268/18/73 273/18/1 274/22/21
f 261/20/70 280/20/22 281/14/25
f 270/37/69 259/34/66 282/34/4
f 264/31/72 277/31/30 278/27/20
f 267/22/67 274/22/21 275/25/33
f 260/14/71 281/14/25 282/15/4
f 270/37/69 271/37/38 272/17/19
f 311/27/20 326/27/20 327/24/3
f 287/27/20 302/27/20 303/24/3
f 290/25/33 299/25/33 300/28/2
f 292/18/1 293/17/19 296/17/19
f 286/24/3 303/24/3 304/20/22
f 289/28/2 300/28/2 301/31/30
f 292/18/1 297/18/1 298/22/21
f 285/20/22 304/20/22 305/14/25
f 294/37/38 283/34/4 306/34/4
f 288/31/30 301/31/30 302/27/20
f 291/22/21 298/22/21 299/25/33
f 283/15/4 284/14/25 305/14/25
f 293/17/19 294/37/38 295/37/75
f 295/44/6 306/71/6 305/72/6
f 305/72/6 304/56/6 303/42/6
f 303/42/6 302/73/6 301/74/6
f 301/74/6 300/55/6 299/43/6
f 299/43/6 298/75/6 297/76/6
f 297/76/6 296/54/6 295/44/6
f 295/44/6 305/72/6 303/42/6
f 303/42/6 301/74/6 299/43/6
f 299/43/6 297/76/6 295/44/6
f 284/14/5 283/34/5 294/37/5
f 294/37/5 293/17/5 292/18/5
f 292/18/5 291/22/5 290/25/5
f 290/25/5 289/28/5 288/31/5
f 288/31/5 287/27/5 286/24/5
f 286/24/5 285/20/5 284/14/5
f 284/14/5 294/37/5 292/18/5
f 292/18/5 290/25/5 288/31/5
f 288/31/5 286/24/5 284/14/5
f 314/25/33 323/25/33 324/28/2
f 316/18/1 317/17/19 320/17/19
f 310/24/3 327/24/3 328/20/22
f 313/28/2 324/28/2 325/31/30
f 316/18/1 321/18/1 322/22/21
f 309/20/22 328/20/22 329/14/25
f 318/37/38 307/34/4 330/34/4
f 312/31/30 325/31/30 326/27/20
f 315/22/21 322/22/21 323/25/33
f 307/15/4 308/14/25 329/14/25
f 317/17/19 318/37/38 319/37/38
f 319/44/6 330/71/6 329/72/6
f 329/72/6 328/56/6 327/42/6
f 327/42/6 326/73/6 325/74/6
f 325/74/6 324/55/6 323/43/6
f 323/43/6 322/75/6 321/76/6
f 321/76/6 320/54/6 319/44/6
f 319/44/6 329/72/6 327/42/6
f 327/42/6 325/74/6 323/43/6
f 323/43/6 321/76/6 319/44/6
f 308/14/5 307/34/5 318/37/5
f 318/37/5 317/17/5 316/18/5
f 316/18/5 315/22/5 314/25/5
f 314/25/5 313/28/5 312/31/5
f 312/31/5 311/27/5 310/24/5
f 310/24/5 309/20/5 308/14/5
f 308/14/5 318/37/5 316/18/5
f 316/18/5 314/25/5 312/31/5
f 312/31/5 310/24/5 308/14/5
f 333/45/10 334/53/10 332/13/5
f 335/52/8 336/57/8 334/53/10
f 337/51/6 338/50/6 336/57/8
f 339/49/9 340/61/9 338/50/6
f 345/45/10 346/53/10 344/13/5
f 341/60/12 342/59/12 340/61/9
f 331/58/5 332/62/5 342/59/12
f 333/56/4 331/71/4 341/54/4
f 341/54/4 339/75/4 337/55/4
f 337/55/4 335/73/4 333/56/4
f 347/52/8 348/57/8 346/53/10
f 349/51/6 350/50/6 348/57/8
f 351/49/9 352/61/9 350/50/6
f 353/60/12 354/59/12 352/61/9
f 343/58/5 344/62/5 354/59/12
f 345/56/4 343/71/4 353/54/4
f 353/54/4 351/75/4 349/55/4
f 349/55/4 347/73/4 345/56/4
f 357/45/10 358/53/10 356/13/5
f 359/52/8 360/57/8 358/53/10
f 361/51/6 362/50/6 360/57/8
f 363/49/9 364/61/9 362/50/6
f 365/60/12 366/59/12 364/61/9
f 355/58/5 356/62/5 366/59/12
f 357/56/4 355/71/4 365/54/4
f 365/54/4 363/75/4 361/55/4
f 361/55/4 359/73/4 357/56/4
f 332/62/2 334/53/2 336/57/2
f 336/57/2 338/50/2 340/61/2
f 340/61/2 342/59/2 332/62/2
f 366/59/2 356/62/2 358/53/2
f 358/53/2 360/57/2 362/50/2
f 362/50/2 364/61/2 366/59/2
f 354/59/2 344/62/2 346/53/2
f 346/53/2 348/57/2 350/50/2
f 350/50/2 352/61/2 354/59/2
