# Blender 5.0.1
# www.blender.org
mtllib DefaultSmoke.mtl
o DefaultSmoke
v 0.218496 4.240300 6.281504
v 0.285479 4.240300 6.381751
v -0.285479 4.240300 6.618249
v -0.309000 4.240300 6.500000
v -0.218496 4.240300 6.281504
v -0.118249 4.240300 6.785479
v -0.118249 4.240300 6.214521
v 0.000000 4.240300 6.191000
v 0.118249 4.240300 6.785479
v 0.000000 4.240300 6.809000
v 0.118249 4.240300 6.214521
v 0.218496 4.240300 6.718496
v -0.218496 4.240300 6.718496
v 0.309000 4.240300 6.500000
v 0.285479 4.240300 6.618249
v -0.285479 4.240300 6.381751
v 0.212132 4.220000 6.712132
v 0.176777 3.410000 6.676777
v 0.277164 4.220000 6.614805
v 0.230970 3.410000 6.595671
v 0.300000 4.220000 6.500000
v 0.250000 3.410000 6.500000
v 0.277164 4.220000 6.385195
v 0.230970 3.410000 6.404329
v 0.212132 4.220000 6.287868
v 0.176777 3.410000 6.323223
v 0.114805 4.220000 6.222836
v -0.212132 4.220000 6.287868
v 0.095671 3.410000 6.269030
v -0.176777 3.410000 6.323223
v -0.277164 4.220000 6.385195
v -0.230970 3.410000 6.404329
v 0.000000 4.220000 6.200000
v -0.300000 4.220000 6.500000
v -0.250000 3.410000 6.500000
v -0.277164 4.220000 6.614805
v -0.230970 3.410000 6.595671
v -0.212132 4.220000 6.712132
v -0.176777 3.410000 6.676777
v -0.114805 4.220000 6.777164
v 0.000000 3.410000 6.250000
v -0.095671 3.410000 6.730970
v 0.000000 4.220000 6.800000
v 0.000000 3.410000 6.750000
v 0.114805 4.220000 6.777164
v 0.095671 3.410000 6.730970
v -0.095671 3.410000 6.269030
v -0.114805 4.220000 6.222836
v 0.258324 4.240000 6.607001
v -0.118249 4.219700 6.214521
v 0.107001 4.240000 6.241675
v 0.000000 4.240000 6.220392
v -0.218496 4.219700 6.281504
v 0.000000 4.219700 6.191000
v 0.118249 4.219700 6.214521
v -0.107001 4.240000 6.758325
v 0.218496 4.219700 6.281504
v 0.212130 3.410000 6.587867
v 0.162357 3.410000 6.662358
v 0.087867 3.410000 6.712131
v 0.000000 3.410000 6.729608
v -0.087867 3.410000 6.712131
v -0.162357 3.410000 6.662358
v -0.212130 3.410000 6.587867
v -0.229608 3.410000 6.500000
v -0.212130 3.410000 6.412133
v -0.162357 3.410000 6.337642
v -0.087867 3.410000 6.287869
v 0.000000 3.410000 6.270392
v 0.087867 3.410000 6.287869
v 0.162357 3.410000 6.337642
v 0.212130 3.410000 6.412133
v 0.229608 3.410000 6.500000
v 0.285479 4.219700 6.381751
v 0.309000 4.219700 6.500000
v -0.285479 4.219700 6.618249
v 0.279608 4.240000 6.500000
v 0.197696 4.240000 6.302304
v -0.106992 4.240000 6.241698
v -0.309000 4.219700 6.500000
v -0.285479 4.219700 6.381751
v -0.258324 4.240000 6.392999
v -0.258324 4.240000 6.607001
v 0.197696 4.240000 6.697696
v 0.107001 4.240000 6.758325
v -0.279608 4.240000 6.500000
v -0.197713 4.240000 6.302287
v 0.258324 4.240000 6.392999
v 0.285479 4.219700 6.618249
v 0.000000 4.240000 6.779608
v 0.218496 4.219700 6.718496
v 0.118249 4.219700 6.785479
v -0.197713 4.240000 6.697713
v 0.000000 4.219700 6.809000
v -0.118249 4.219700 6.785479
v -0.218496 4.219700 6.718496
vn -0.0000 -0.9994 0.0333
vn -0.0128 -0.9994 0.0308
vn -0.0308 -0.9994 -0.0127
vn -0.0333 -0.9994 -0.0000
vn 0.9221 -0.0616 0.3820
vn 0.7058 -0.0616 0.7058
vn 0.9981 -0.0616 -0.0000
vn 0.9221 -0.0616 -0.3820
vn 0.7058 -0.0616 -0.7058
vn 0.3820 -0.0616 -0.9221
vn -0.0000 -0.0616 -0.9981
vn 0.3820 -0.0616 0.9221
vn -0.0000 -0.0616 0.9981
vn -0.3820 -0.0616 0.9221
vn -0.7058 -0.0616 0.7058
vn -0.9221 -0.0616 0.3820
vn -0.9981 -0.0616 -0.0000
vn -0.9221 -0.0616 -0.3820
vn -0.7058 -0.0616 -0.7058
vn 0.9222 0.0601 0.3820
vn 0.9982 0.0601 -0.0000
vn -0.3820 -0.0616 -0.9221
vn -0.0072 0.9999 -0.0072
vn -0.0039 0.9999 -0.0094
vn 0.0308 -0.9994 -0.0127
vn 0.0235 -0.9994 -0.0235
vn -0.0000 -0.0000 1.0000
vn -0.3827 -0.0000 0.9239
vn -0.7071 -0.0000 -0.7071
vn -0.3827 -0.0000 -0.9239
vn -1.0000 -0.0000 -0.0000
vn -0.9239 -0.0000 -0.3827
vn 0.9239 -0.0000 -0.3827
vn 1.0000 -0.0000 -0.0000
vn -0.0236 -0.9994 -0.0236
vn -0.0127 -0.9994 -0.0308
vn -0.7071 -0.0000 0.7071
vn 0.9239 -0.0000 0.3827
vn 0.7071 -0.0000 0.7071
vn -0.0235 -0.9994 0.0236
vn -0.0000 -0.0000 -1.0000
vn 0.3827 -0.0000 -0.9239
vn -0.0000 -1.0000 -0.0000
vn -0.0000 0.9999 -0.0102
vn 0.0039 0.9999 -0.0094
vn 0.7058 0.0601 0.7058
vn 0.0072 0.9999 -0.0072
vn 0.0094 0.9999 -0.0039
vn 0.3820 0.0601 0.9222
vn 0.7057 0.0601 0.7059
vn 0.0102 0.9999 -0.0000
vn -0.0000 0.0601 0.9982
vn 0.0094 0.9999 0.0039
vn -0.3820 0.0601 0.9222
vn 0.0001 0.0601 0.9982
vn 0.0072 0.9999 0.0072
vn -0.7058 0.0601 0.7058
vn -0.3821 0.0601 0.9222
vn 0.0039 0.9999 0.0094
vn -0.9222 0.0601 -0.3820
vn -0.7058 0.0601 -0.7058
vn -0.9222 0.0601 -0.3821
vn -0.9222 0.0601 0.3820
vn -0.0000 0.9999 0.0102
vn -0.9982 0.0601 -0.0000
vn -0.9222 0.0601 0.3821
vn -0.0039 0.9999 0.0094
vn -0.3820 0.0601 -0.9222
vn -0.0072 0.9999 0.0072
vn -0.0000 0.0601 -0.9982
vn -0.3821 0.0601 -0.9222
vn -0.0094 0.9999 0.0039
vn 0.3820 0.0601 -0.9222
vn -0.0102 0.9999 -0.0000
vn 0.7058 0.0601 -0.7058
vn -0.0094 0.9999 -0.0039
vn 0.9222 0.0601 -0.3820
vn 0.7071 -0.0000 -0.7071
vn -0.9239 -0.0000 0.3827
vn -0.0000 -0.9994 -0.0333
vn 0.0127 -0.9994 0.0308
vn 0.3827 -0.0000 0.9239
vn 0.0333 -0.9994 -0.0000
vn -0.0308 -0.9994 0.0127
vn 0.0308 -0.9994 0.0127
vn 0.0236 -0.9994 0.0236
vn 0.0128 -0.9994 -0.0308
vt 0.687500 1.000000
vt 0.625000 1.000000
vt 0.875000 1.000000
vt 0.937500 1.000000
vt 1.000000 1.000000
vt 0.937500 0.500000
vt 1.000000 0.500000
vt 0.875000 0.500000
vt 0.812500 1.000000
vt 0.812500 0.500000
vt 0.750000 1.000000
vt 0.750000 0.500000
vt 0.687500 0.500000
vt 0.625000 0.500000
vt 0.562500 0.500000
vt 0.562500 1.000000
vt 0.500000 0.500000
vt 0.500000 1.000000
vt 0.437500 0.500000
vt 0.437500 1.000000
vt 0.375000 0.500000
vt 0.375000 1.000000
vt 0.312500 0.500000
vt 0.250000 1.000000
vt 0.250000 0.500000
vt 0.187500 0.500000
vt 0.187500 1.000000
vt 0.125000 0.500000
vt 0.546355 0.334353
vt 0.529576 0.250000
vt 0.125000 1.000000
vt 0.062500 0.500000
vt 0.062500 1.000000
vt 0.000000 0.500000
vt 0.419706 0.080294
vt 0.335601 0.043340
vt 0.341844 0.028269
vt 0.312500 1.000000
vt 0.919706 0.080294
vt 0.953645 0.165647
vt 0.971731 0.158156
vt 0.841844 0.028269
vt 0.905863 0.094137
vt 0.750000 0.010000
vt 0.834353 0.046355
vt 0.665647 0.046355
vt 0.750000 0.029576
vt 0.658156 0.028269
vt 0.594137 0.094137
vt 0.580294 0.080294
vt 0.546355 0.165647
vt 0.528269 0.158156
vt 0.528269 0.341844
vt 0.510000 0.250000
vt 0.580294 0.419706
vt 0.658156 0.471731
vt 0.594137 0.405863
vt 0.750000 0.490000
vt 0.665647 0.453645
vt 0.834353 0.453645
vt 0.750000 0.470424
vt 0.841844 0.471731
vt 0.905863 0.405863
vt 0.919706 0.419706
vt 0.953645 0.334353
vt 0.971731 0.341844
vt 0.970424 0.250000
vt 0.990000 0.250000
vt 0.250000 0.010000
vt 0.250000 0.026314
vt 0.164399 0.043340
vt 0.158156 0.028269
vt 0.091830 0.091830
vt 0.080294 0.080294
vt 0.043341 0.164399
vt 0.028269 0.158156
vt 0.010000 0.250000
vt 0.026313 0.250000
vt 0.028269 0.341844
vt 0.043341 0.335601
vt 0.080294 0.419706
vt 0.091830 0.408170
vt 0.158156 0.471731
vt 0.164399 0.456660
vt 0.250000 0.473686
vt 0.250000 0.490000
vt 0.335601 0.456660
vt 0.341844 0.471731
vt 0.419706 0.419706
vt 0.408170 0.408170
vt 0.456659 0.335601
vt 0.471731 0.341844
vt 0.473687 0.250000
vt 0.490000 0.250000
vt 0.471731 0.158156
vt 0.456659 0.164399
vt 0.408170 0.091830
vt 0.000000 1.000000
s 1
f 33/1/1 55/2/2 27/2/2
f 19/3/3 75/4/4 89/3/3
f 19/5/5 18/6/6 20/7/5
f 22/6/7 19/3/5 20/8/5
f 24/8/8 21/9/7 22/10/7
f 26/10/9 23/11/8 24/12/8
f 27/11/10 26/13/9 29/12/10
f 33/1/11 29/14/10 41/13/11
f 17/2/6 46/15/12 18/14/6
f 45/16/12 44/17/13 46/15/12
f 43/18/13 42/19/14 44/17/13
f 40/20/14 39/21/15 42/19/14
f 38/22/15 37/23/16 39/21/15
f 37/23/16 34/24/17 35/25/17
f 34/24/17 32/26/18 35/25/17
f 31/27/18 30/28/19 32/26/18
f 66/29/20 86/30/21 65/30/21
f 28/31/19 47/32/22 30/28/19
f 48/33/22 41/34/11 47/32/22
f 12/35/23 85/36/24 9/37/24
f 36/38/25 96/22/26 76/38/25
f 94/18/27 6/20/28 95/20/28
f 53/31/29 7/33/30 50/33/30
f 80/24/31 16/27/32 81/27/32
f 74/3/33 14/9/34 75/9/34
f 17/2/35 92/16/36 45/16/36
f 95/20/28 13/22/37 96/22/37
f 81/27/32 5/31/29 53/31/29
f 89/5/38 12/4/39 91/4/39
f 27/11/2 57/1/40 25/1/40
f 54/1/41 11/2/42 55/2/42
f 18/39/43 58/40/43 20/41/43
f 46/42/43 59/43/43 18/39/43
f 44/44/43 60/45/43 46/42/43
f 44/44/43 62/46/43 61/47/43
f 42/48/43 63/49/43 62/46/43
f 39/50/43 64/51/43 63/49/43
f 37/52/43 65/30/43 64/51/43
f 32/53/43 65/30/43 35/54/43
f 30/55/43 66/29/43 32/53/43
f 47/56/43 67/57/43 30/55/43
f 41/58/43 68/59/43 47/56/43
f 41/58/43 70/60/43 69/61/43
f 29/62/43 71/63/43 70/60/43
f 26/64/43 72/65/43 71/63/43
f 24/66/43 73/67/43 72/65/43
f 20/41/43 73/67/43 22/68/43
f 10/69/44 85/36/24 90/70/44
f 10/69/44 56/71/45 6/72/45
f 67/57/46 82/29/20 66/29/20
f 6/72/45 93/73/47 13/74/47
f 13/74/47 83/75/48 3/76/48
f 67/57/46 79/59/49 87/57/50
f 4/77/51 83/75/48 86/78/51
f 69/61/52 79/59/49 68/59/49
f 16/79/53 86/78/51 82/80/53
f 70/60/54 52/61/55 69/61/52
f 5/81/56 82/80/53 87/82/56
f 70/60/54 78/63/57 51/60/58
f 7/83/59 87/82/56 79/84/59
f 58/40/60 84/43/61 49/40/62
f 72/65/63 78/63/57 71/63/57
f 7/83/59 52/85/64 8/86/64
f 58/40/60 77/67/65 73/67/65
f 72/65/63 77/67/65 88/65/66
f 8/86/64 51/87/67 11/88/67
f 60/45/68 84/43/61 59/43/61
f 1/89/69 51/87/67 78/90/69
f 61/47/70 85/45/71 60/45/68
f 1/89/69 88/91/72 2/92/72
f 62/46/73 90/47/70 61/47/70
f 2/92/72 77/93/74 14/94/74
f 63/49/75 56/46/73 62/46/73
f 15/95/76 77/93/74 49/96/76
f 64/51/77 93/49/75 63/49/75
f 12/35/23 49/96/76 84/97/23
f 64/51/77 86/30/21 83/51/77
f 57/9/78 2/11/33 74/11/33
f 76/38/79 4/24/31 80/24/31
f 43/18/80 92/16/36 94/18/80
f 33/98/1 50/33/81 54/98/1
f 50/33/30 8/98/41 54/98/41
f 92/16/82 10/18/27 94/18/27
f 55/11/42 1/1/78 57/1/78
f 36/38/25 80/24/83 34/24/83
f 91/2/39 9/16/82 92/16/82
f 96/22/37 3/38/79 76/38/79
f 23/11/84 57/9/40 74/11/84
f 75/4/34 15/3/38 89/3/38
f 19/5/3 91/4/35 17/4/35
f 31/27/85 53/31/86 28/31/86
f 40/20/87 96/22/26 38/22/26
f 23/3/84 75/9/4 21/9/4
f 31/27/85 80/24/83 81/27/85
f 28/31/86 50/33/81 48/33/81
f 43/18/80 95/20/87 40/20/87
f 33/1/1 54/1/1 55/2/2
f 19/3/3 21/4/4 75/4/4
f 19/5/5 17/4/6 18/6/6
f 22/6/7 21/4/7 19/3/5
f 24/8/8 23/3/8 21/9/7
f 26/10/9 25/9/9 23/11/8
f 27/11/10 25/1/9 26/13/9
f 33/1/11 27/2/10 29/14/10
f 17/2/6 45/16/12 46/15/12
f 45/16/12 43/18/13 44/17/13
f 43/18/13 40/20/14 42/19/14
f 40/20/14 38/22/15 39/21/15
f 38/22/15 36/38/16 37/23/16
f 37/23/16 36/38/16 34/24/17
f 34/24/17 31/27/18 32/26/18
f 31/27/18 28/31/19 30/28/19
f 66/29/20 82/29/20 86/30/21
f 28/31/19 48/33/22 47/32/22
f 48/33/22 33/98/11 41/34/11
f 12/35/23 84/97/23 85/36/24
f 36/38/25 38/22/26 96/22/26
f 94/18/27 10/18/27 6/20/28
f 53/31/29 5/31/29 7/33/30
f 80/24/31 4/24/31 16/27/32
f 74/3/33 2/3/33 14/9/34
f 17/2/35 91/2/35 92/16/36
f 95/20/28 6/20/28 13/22/37
f 81/27/32 16/27/32 5/31/29
f 89/5/38 15/5/38 12/4/39
f 27/11/2 55/11/2 57/1/40
f 54/1/41 8/1/41 11/2/42
f 18/39/43 59/43/43 58/40/43
f 46/42/43 60/45/43 59/43/43
f 44/44/43 61/47/43 60/45/43
f 44/44/43 42/48/43 62/46/43
f 42/48/43 39/50/43 63/49/43
f 39/50/43 37/52/43 64/51/43
f 37/52/43 35/54/43 65/30/43
f 32/53/43 66/29/43 65/30/43
f 30/55/43 67/57/43 66/29/43
f 47/56/43 68/59/43 67/57/43
f 41/58/43 69/61/43 68/59/43
f 41/58/43 29/62/43 70/60/43
f 29/62/43 26/64/43 71/63/43
f 26/64/43 24/66/43 72/65/43
f 24/66/43 22/68/43 73/67/43
f 20/41/43 58/40/43 73/67/43
f 10/69/44 9/37/24 85/36/24
f 10/69/44 90/70/44 56/71/45
f 67/57/46 87/57/50 82/29/20
f 6/72/45 56/71/45 93/73/47
f 13/74/47 93/73/47 83/75/48
f 67/57/46 68/59/49 79/59/49
f 4/77/51 3/76/48 83/75/48
f 69/61/52 52/61/55 79/59/49
f 16/79/53 4/77/51 86/78/51
f 70/60/54 51/60/58 52/61/55
f 5/81/56 16/79/53 82/80/53
f 70/60/54 71/63/57 78/63/57
f 7/83/59 5/81/56 87/82/56
f 58/40/60 59/43/61 84/43/61
f 72/65/63 88/65/66 78/63/57
f 7/83/59 79/84/59 52/85/64
f 58/40/60 49/40/62 77/67/65
f 72/65/63 73/67/65 77/67/65
f 8/86/64 52/85/64 51/87/67
f 60/45/68 85/45/71 84/43/61
f 1/89/69 11/88/67 51/87/67
f 61/47/70 90/47/70 85/45/71
f 1/89/69 78/90/69 88/91/72
f 62/46/73 56/46/73 90/47/70
f 2/92/72 88/91/72 77/93/74
f 63/49/75 93/49/75 56/46/73
f 15/95/76 14/94/74 77/93/74
f 64/51/77 83/51/77 93/49/75
f 12/35/23 15/95/76 49/96/76
f 64/51/77 65/30/21 86/30/21
f 57/9/78 1/9/78 2/11/33
f 76/38/79 3/38/79 4/24/31
f 43/18/80 45/16/36 92/16/36
f 33/98/1 48/33/81 50/33/81
f 50/33/30 7/33/30 8/98/41
f 92/16/82 9/16/82 10/18/27
f 55/11/42 11/11/42 1/1/78
f 36/38/25 76/38/25 80/24/83
f 91/2/39 12/2/39 9/16/82
f 96/22/37 13/22/37 3/38/79
f 23/11/84 25/9/40 57/9/40
f 75/4/34 14/4/34 15/3/38
f 19/5/3 89/5/3 91/4/35
f 31/27/85 81/27/85 53/31/86
f 40/20/87 95/20/87 96/22/26
f 23/3/84 74/3/84 75/9/4
f 31/27/85 34/24/83 80/24/83
f 28/31/86 53/31/86 50/33/81
f 43/18/80 94/18/80 95/20/87
