# Blender 5.0.1
# www.blender.org
mtllib DiamondSmoke.mtl
o DiamondSmoke
v -0.095671 3.700000 6.269030
v -0.095671 3.410000 6.269030
v -0.176777 3.700000 6.323223
v -0.176777 3.410000 6.323223
v -0.230970 3.700000 6.404329
v -0.230970 3.410000 6.404329
v -0.250000 3.700000 6.500000
v -0.250000 3.410000 6.500000
v -0.230970 3.700000 6.595671
v -0.230970 3.410000 6.595671
v -0.176777 3.700000 6.676777
v -0.176777 3.410000 6.676777
v -0.095671 3.700000 6.730970
v -0.095671 3.410000 6.730970
v 0.000000 3.700000 6.750000
v 0.000000 3.410000 6.750000
v 0.095671 3.700000 6.730970
v 0.095671 3.410000 6.730970
v 0.176777 3.700000 6.676777
v 0.176777 3.410000 6.676777
v 0.230970 3.700000 6.595671
v 0.230970 3.410000 6.595671
v 0.250000 3.700000 6.500000
v 0.250000 3.410000 6.500000
v 0.230970 3.700000 6.404329
v 0.230970 3.410000 6.404329
v 0.176777 3.700000 6.323223
v 0.176777 3.410000 6.323223
v 0.095671 3.700000 6.269030
v 0.095671 3.410000 6.269030
v 0.000000 3.700000 6.250000
v 0.000000 3.410000 6.250000
v -0.000000 4.400000 5.900000
v -0.229610 4.400000 5.945672
v -0.424264 4.400000 6.075736
v -0.554328 4.400000 6.270391
v -0.600000 4.400000 6.500000
v -0.554328 4.400000 6.729609
v -0.424264 4.400000 6.924264
v -0.229610 4.400000 7.054328
v -0.000000 4.400000 7.100000
v 0.229610 4.400000 7.054328
v 0.424264 4.400000 6.924264
v 0.554327 4.400000 6.729609
v 0.600000 4.400000 6.500000
v 0.554327 4.400000 6.270391
v 0.424264 4.400000 6.075736
v 0.229610 4.400000 5.945672
v -0.000000 4.600000 5.900000
v -0.229610 4.600000 5.945672
v -0.424264 4.600000 6.075736
v -0.554328 4.600000 6.270391
v -0.600000 4.600000 6.500000
v -0.554328 4.600000 6.729609
v -0.424264 4.600000 6.924264
v -0.229610 4.600000 7.054328
v -0.000000 4.600000 7.100000
v 0.229610 4.600000 7.054328
v 0.424264 4.600000 6.924264
v 0.554327 4.600000 6.729609
v 0.600000 4.600000 6.500000
v 0.554327 4.600000 6.270391
v 0.424264 4.600000 6.075736
v 0.229610 4.600000 5.945672
v -0.000000 4.620000 6.500000
v -0.000000 4.600000 5.876000
v -0.238795 4.600000 5.923499
v -0.441235 4.600000 6.058765
v -0.576501 4.600000 6.261206
v -0.624000 4.600000 6.500000
v -0.576501 4.600000 6.738794
v -0.441235 4.600000 6.941235
v -0.238795 4.600000 7.076501
v -0.000000 4.600000 7.124000
v 0.238794 4.600000 7.076501
v 0.441234 4.600000 6.941235
v 0.576501 4.600000 6.738794
v 0.624000 4.600000 6.500000
v 0.576501 4.600000 6.261206
v 0.441234 4.600000 6.058765
v 0.238794 4.600000 5.923499
v -0.000000 4.620000 5.876000
v -0.238795 4.620000 5.923499
v -0.441235 4.620000 6.058765
v -0.576501 4.620000 6.261206
v -0.624000 4.620000 6.500000
v -0.576501 4.620000 6.738794
v -0.441235 4.620000 6.941235
v -0.238795 4.620000 7.076501
v -0.000000 4.620000 7.124000
v 0.238794 4.620000 7.076501
v 0.441234 4.620000 6.941235
v 0.576501 4.620000 6.738794
v 0.624000 4.620000 6.500000
v 0.576501 4.620000 6.261206
v 0.441234 4.620000 6.058765
v 0.238794 4.620000 5.923499
v 0.000000 4.715671 5.945672
v 0.000000 4.620000 5.900000
v 0.087868 4.850970 6.287868
v 0.162359 4.796776 6.108031
v 0.212132 4.715671 5.987868
v 0.229610 4.620000 5.945672
v 0.162359 4.850970 6.337642
v 0.300000 4.796776 6.200000
v 0.391969 4.715671 6.108031
v 0.424264 4.620000 6.075736
v 0.212132 4.850970 6.412132
v 0.391969 4.796776 6.337642
v 0.512132 4.715671 6.287868
v 0.554328 4.620000 6.270391
v 0.229610 4.850970 6.500000
v 0.424264 4.796776 6.500000
v 0.554328 4.715671 6.500000
v 0.600000 4.620000 6.500000
v 0.212132 4.850970 6.587868
v 0.391969 4.796776 6.662358
v 0.512132 4.715671 6.712132
v 0.554328 4.620000 6.729610
v 0.162359 4.850970 6.662358
v 0.300000 4.796776 6.800000
v 0.391969 4.715671 6.891969
v 0.424264 4.620000 6.924264
v 0.087868 4.850970 6.712132
v 0.162359 4.796776 6.891969
v 0.212132 4.715671 7.012132
v 0.229610 4.620000 7.054328
v -0.000000 4.850970 6.729609
v -0.000000 4.796776 6.924264
v -0.000000 4.715671 7.054328
v -0.000000 4.620000 7.100000
v 0.000000 4.870000 6.500000
v -0.087868 4.850970 6.712132
v -0.162359 4.796776 6.891969
v -0.212132 4.715671 7.012132
v -0.229610 4.620000 7.054328
v -0.162359 4.850970 6.662358
v -0.300000 4.796776 6.800000
v -0.391969 4.715671 6.891969
v -0.424264 4.620000 6.924264
v -0.212132 4.850970 6.587868
v -0.391969 4.796776 6.662358
v -0.512132 4.715671 6.712132
v -0.554328 4.620000 6.729609
v -0.229610 4.850970 6.500000
v -0.424264 4.796776 6.500000
v -0.554328 4.715671 6.500000
v -0.600000 4.620000 6.500000
v -0.212132 4.850970 6.412132
v -0.391969 4.796776 6.337641
v -0.512132 4.715671 6.287868
v -0.554327 4.620000 6.270390
v -0.162359 4.850970 6.337641
v -0.300000 4.796776 6.200000
v -0.391969 4.715671 6.108031
v -0.424264 4.620000 6.075736
v -0.087868 4.850970 6.287868
v -0.162358 4.796776 6.108031
v -0.212132 4.715671 5.987868
v -0.229610 4.620000 5.945672
v 0.000000 4.850970 6.270391
v 0.000000 4.796776 6.075736
vn -0.3718 -0.2364 -0.8977
vn -0.0000 -0.2236 -0.9747
vn -0.0000 -0.2364 -0.9717
vn -0.0000 -0.0000 -1.0000
vn -0.3827 -0.0000 -0.9239
vn -0.6871 -0.2364 -0.6871
vn -0.7071 -0.0000 -0.7071
vn -0.0000 -1.0000 -0.0000
vn -0.8977 -0.2364 -0.3718
vn -0.9239 -0.0000 -0.3827
vn -0.9717 -0.2364 -0.0000
vn -1.0000 -0.0000 -0.0000
vn -0.8977 -0.2364 0.3718
vn -0.9239 -0.0000 0.3827
vn -0.6871 -0.2364 0.6871
vn -0.7071 -0.0000 0.7071
vn -0.3718 -0.2364 0.8977
vn -0.3827 -0.0000 0.9239
vn -0.0000 -0.2364 0.9717
vn -0.0000 -0.0000 1.0000
vn 0.3718 -0.2364 0.8977
vn 0.3827 -0.0000 0.9239
vn 0.6871 -0.2364 0.6871
vn 0.7071 -0.0000 0.7071
vn 0.8977 -0.2364 0.3718
vn 0.9239 -0.0000 0.3827
vn 0.9717 -0.2364 -0.0000
vn 1.0000 -0.0000 -0.0000
vn 0.8977 -0.2364 -0.3718
vn 0.9239 -0.0000 -0.3827
vn 0.6871 -0.2364 -0.6871
vn 0.7071 -0.0000 -0.7071
vn 0.3718 -0.2364 -0.8977
vn 0.3827 -0.0000 -0.9239
vn -0.9747 -0.2236 -0.0000
vn -0.9005 -0.2236 -0.3730
vn -0.9005 -0.2236 0.3730
vn 0.9005 -0.2236 0.3730
vn 0.6892 -0.2236 0.6892
vn 0.3730 -0.2236 -0.9005
vn -0.0000 -0.2236 0.9747
vn 0.9005 -0.2236 -0.3730
vn -0.3730 -0.2236 -0.9005
vn -0.3730 -0.2236 0.9005
vn -0.6892 -0.2236 0.6892
vn 0.3730 -0.2236 0.9005
vn 0.6892 -0.2236 -0.6892
vn -0.6892 -0.2236 -0.6892
vn 0.9747 -0.2236 -0.0000
vn -0.0000 1.0000 -0.0000
vn -0.0000 0.9087 -0.4175
vn 0.0718 0.9823 -0.1733
vn 0.1598 0.9087 -0.3857
vn 0.2910 0.6495 -0.7025
vn -0.0000 0.6495 -0.7604
vn -0.0000 0.9823 -0.1876
vn -0.0000 0.4308 -0.9024
vn 0.3453 0.4308 -0.8337
vn 0.2952 0.9087 -0.2952
vn 0.5377 0.6495 -0.5377
vn 0.1326 0.9823 -0.1326
vn 0.6381 0.4308 -0.6381
vn 0.7025 0.6495 -0.2910
vn 0.8337 0.4308 -0.3454
vn 0.1733 0.9823 -0.0718
vn 0.3857 0.9087 -0.1598
vn 0.7604 0.6495 -0.0000
vn 0.9024 0.4308 -0.0000
vn 0.4175 0.9087 -0.0000
vn 0.1876 0.9823 -0.0000
vn 0.3857 0.9087 0.1598
vn 0.7025 0.6495 0.2910
vn 0.1733 0.9823 0.0718
vn 0.8337 0.4308 0.3453
vn 0.2952 0.9087 0.2952
vn 0.5377 0.6495 0.5377
vn 0.1326 0.9823 0.1326
vn 0.6381 0.4308 0.6381
vn 0.2910 0.6495 0.7025
vn 0.3453 0.4308 0.8337
vn 0.0718 0.9823 0.1733
vn 0.1598 0.9087 0.3857
vn -0.0000 0.9087 0.4175
vn -0.0000 0.6495 0.7604
vn -0.0000 0.9823 0.1876
vn -0.0000 0.4308 0.9024
vn -0.2910 0.6495 0.7025
vn -0.0718 0.9823 0.1733
vn -0.3453 0.4308 0.8337
vn -0.1598 0.9087 0.3857
vn -0.1326 0.9823 0.1326
vn -0.6381 0.4308 0.6381
vn -0.2952 0.9087 0.2952
vn -0.5377 0.6495 0.5377
vn -0.7025 0.6495 0.2910
vn -0.8337 0.4308 0.3453
vn -0.3857 0.9087 0.1598
vn -0.1733 0.9823 0.0718
vn -0.7604 0.6495 -0.0000
vn -0.1876 0.9823 -0.0000
vn -0.9024 0.4308 -0.0000
vn -0.4175 0.9087 -0.0000
vn -0.3857 0.9087 -0.1598
vn -0.7025 0.6495 -0.2910
vn -0.1733 0.9823 -0.0718
vn -0.8337 0.4308 -0.3453
vn -0.6381 0.4308 -0.6381
vn -0.1326 0.9823 -0.1326
vn -0.2952 0.9087 -0.2952
vn -0.5377 0.6495 -0.5377
vn -0.3453 0.4308 -0.8337
vn -0.1598 0.9087 -0.3857
vn -0.2910 0.6495 -0.7025
vn -0.0718 0.9823 -0.1733
vt 1.000000 1.000000
vt 0.937500 1.000000
vt 0.937500 0.500000
vt 1.000000 0.500000
vt 0.875000 0.500000
vt 0.919706 0.080294
vt 0.580294 0.080294
vt 0.580294 0.419706
vt 0.875000 1.000000
vt 0.812500 0.500000
vt 0.812500 1.000000
vt 0.750000 0.500000
vt 0.750000 1.000000
vt 0.687500 0.500000
vt 0.687500 1.000000
vt 0.625000 0.500000
vt 0.625000 1.000000
vt 0.562500 0.500000
vt 0.562500 1.000000
vt 0.500000 0.500000
vt 0.500000 1.000000
vt 0.437500 0.500000
vt 0.437500 1.000000
vt 0.375000 0.500000
vt 0.375000 1.000000
vt 0.312500 0.500000
vt 0.312500 1.000000
vt 0.250000 0.500000
vt 0.250000 1.000000
vt 0.187500 0.500000
vt 0.187500 1.000000
vt 0.125000 0.500000
vt 0.125000 1.000000
vt 0.062500 0.500000
vt 0.062500 1.000000
vt 0.000000 0.500000
vt 0.000000 1.000000
vt 0.158156 0.471731
vt 0.080294 0.419706
vt 0.419706 0.419706
vt 0.341844 0.471731
vt 0.250000 0.490000
vt 0.471731 0.341844
vt 0.490000 0.250000
vt 0.471731 0.158156
vt 0.419706 0.080294
vt 0.341844 0.028269
vt 0.028269 0.341844
vt 0.010000 0.250000
vt 0.028269 0.158156
vt 0.080294 0.080294
vt 0.158156 0.028269
vt 0.250000 0.010000
vt 0.750000 0.750000
vt 0.687500 0.875000
vt 0.687500 0.750000
vt 0.687500 0.625000
vt 0.750000 0.625000
vt 0.750000 0.875000
vt 0.718750 1.000000
vt 0.625000 0.750000
vt 0.625000 0.625000
vt 0.656250 1.000000
vt 0.625000 0.875000
vt 0.562500 0.625000
vt 0.562500 0.875000
vt 0.562500 0.750000
vt 0.593750 1.000000
vt 0.500000 0.625000
vt 0.500000 0.500000
vt 0.500000 0.750000
vt 0.531250 1.000000
vt 0.500000 0.875000
vt 0.437500 0.750000
vt 0.437500 0.625000
vt 0.468750 1.000000
vt 0.437500 0.875000
vt 0.437500 0.500000
vt 0.375000 0.750000
vt 0.375000 0.625000
vt 0.406250 1.000000
vt 0.375000 0.875000
vt 0.375000 0.500000
vt 0.312500 0.625000
vt 0.312500 0.500000
vt 0.312500 0.875000
vt 0.312500 0.750000
vt 0.343750 1.000000
vt 0.250000 0.750000
vt 0.250000 0.625000
vt 0.281250 1.000000
vt 0.250000 0.875000
vt 0.250000 0.500000
vt 0.187500 0.625000
vt 0.218750 1.000000
vt 0.187500 0.875000
vt 0.187500 0.500000
vt 0.187500 0.750000
vt 0.156250 1.000000
vt 0.125000 0.875000
vt 0.125000 0.500000
vt 0.125000 0.750000
vt 0.125000 0.625000
vt 0.062500 0.625000
vt 0.062500 0.500000
vt 0.062500 0.750000
vt 0.093750 1.000000
vt 0.062500 0.875000
vt 0.000000 0.625000
vt 0.031250 1.000000
vt 0.000000 0.875000
vt 0.000000 0.750000
vt 1.000000 0.625000
vt 0.937500 0.750000
vt 0.937500 0.625000
vt 1.000000 0.875000
vt 0.968750 1.000000
vt 0.937500 0.875000
vt 0.937500 0.500000
vt 1.000000 0.750000
vt 0.875000 0.500000
vt 0.875000 0.875000
vt 0.875000 0.750000
vt 0.875000 0.625000
vt 0.906250 1.000000
vt 0.812500 0.500000
vt 0.812500 0.750000
vt 0.812500 0.625000
vt 0.843750 1.000000
vt 0.812500 0.875000
vt 0.781250 1.000000
vt 0.658156 0.471731
vt 0.750000 0.490000
vt 0.841844 0.471731
vt 0.919706 0.419706
vt 0.971731 0.341844
vt 0.990000 0.250000
vt 0.971731 0.158156
vt 0.841844 0.028269
vt 0.750000 0.010000
vt 0.658156 0.028269
vt 0.528269 0.158156
vt 0.510000 0.250000
vt 0.528269 0.341844
s 1
f 1/1/1 33/2/2 31/2/3
f 1/1/1 32/3/4 2/4/5
f 3/2/6 2/5/5 4/3/7
f 20/6/8 12/7/8 4/8/8
f 5/9/9 4/10/7 6/5/10
f 7/11/11 6/12/10 8/10/12
f 9/13/13 8/14/12 10/12/14
f 11/15/15 10/16/14 12/14/16
f 13/17/17 12/18/16 14/16/18
f 15/19/19 14/20/18 16/18/20
f 17/21/21 16/22/20 18/20/22
f 19/23/23 18/24/22 20/22/24
f 21/25/25 20/26/24 22/24/26
f 23/27/27 22/28/26 24/26/28
f 25/29/29 24/30/28 26/28/30
f 27/31/31 26/32/30 28/30/32
f 29/33/33 28/34/32 30/32/34
f 31/35/3 30/36/34 32/34/4
f 37/11/35 52/13/10 36/13/36
f 11/15/15 38/17/37 9/17/13
f 19/27/23 44/25/38 43/27/39
f 31/35/3 48/37/40 29/37/33
f 7/11/11 36/13/36 5/13/9
f 17/21/21 41/23/41 15/23/19
f 27/31/31 46/33/42 25/33/29
f 3/2/6 34/9/43 1/9/1
f 11/19/15 40/17/44 39/19/45
f 23/27/27 44/29/38 21/29/25
f 7/15/11 38/13/37 37/15/35
f 19/23/23 42/25/46 17/25/21
f 27/35/31 48/33/40 47/35/47
f 3/11/6 36/9/36 35/11/48
f 15/19/19 40/21/44 13/21/17
f 23/31/27 46/29/42 45/31/49
f 65/38/50 83/38/50 84/39/50
f 45/27/49 60/29/26 44/29/38
f 38/13/37 53/15/12 37/15/35
f 46/29/42 61/31/28 45/31/49
f 39/15/45 54/17/14 38/17/37
f 47/31/47 62/33/30 46/33/42
f 40/17/44 55/19/16 39/19/45
f 47/35/47 64/33/34 63/35/32
f 41/19/41 56/21/18 40/21/44
f 34/1/43 49/2/4 33/2/2
f 33/35/2 64/37/34 48/37/40
f 42/21/46 57/23/20 41/23/41
f 34/9/43 51/2/7 50/9/5
f 43/23/39 58/25/22 42/25/46
f 36/9/36 51/11/7 35/11/48
f 44/25/38 59/27/24 43/27/39
f 55/19/8 73/17/8 72/19/8
f 65/40/50 96/40/50 97/41/50
f 65/42/50 82/42/50 83/38/50
f 55/15/8 71/17/8 54/17/8
f 65/43/50 95/43/50 96/40/50
f 54/13/8 70/15/8 53/15/8
f 65/44/50 94/44/50 95/43/50
f 52/13/8 70/11/8 69/13/8
f 65/45/50 93/45/50 94/44/50
f 51/11/8 69/9/8 68/11/8
f 65/46/50 92/46/50 93/45/50
f 64/37/8 66/35/8 81/37/8
f 51/2/8 67/9/8 50/9/8
f 65/47/50 91/47/50 92/46/50
f 63/35/8 81/33/8 80/35/8
f 75/21/22 90/23/20 74/23/20
f 68/2/7 83/9/5 67/9/5
f 76/23/24 91/25/22 75/25/22
f 69/9/10 84/11/7 68/11/7
f 77/25/26 92/27/24 76/27/24
f 70/11/12 85/13/10 69/13/10
f 78/27/28 93/29/26 77/29/26
f 71/13/14 86/15/12 70/15/12
f 79/29/30 94/31/28 78/31/28
f 72/15/16 87/17/14 71/17/14
f 80/31/32 95/33/30 79/33/30
f 73/17/18 88/19/16 72/19/16
f 81/33/34 96/35/32 80/35/32
f 74/19/20 89/21/18 73/21/18
f 67/1/5 82/2/4 66/2/4
f 66/35/4 97/37/34 81/37/34
f 65/41/50 97/41/50 82/42/50
f 56/21/8 74/19/8 73/21/8
f 65/39/50 84/39/50 85/48/50
f 58/21/8 74/23/8 57/23/8
f 65/48/50 85/48/50 86/49/50
f 59/23/8 75/25/8 58/25/8
f 65/49/50 86/49/50 87/50/50
f 59/27/8 77/25/8 76/27/8
f 65/50/50 87/50/50 88/51/50
f 60/29/8 78/27/8 77/29/8
f 65/51/50 88/51/50 89/52/50
f 62/29/8 78/31/8 61/31/8
f 65/52/50 89/52/50 90/53/50
f 63/31/8 79/33/8 62/33/8
f 65/53/50 90/53/50 91/47/50
f 50/1/8 66/2/8 49/2/8
f 162/54/51 100/55/52 101/56/53
f 162/54/51 102/57/54 98/58/55
f 161/59/56 132/60/50 100/55/52
f 99/12/57 102/57/54 103/14/58
f 102/57/54 105/61/59 106/62/60
f 100/55/52 132/63/50 104/64/61
f 102/57/54 107/16/62 103/14/58
f 100/55/52 105/61/59 101/56/53
f 107/16/62 110/65/63 111/18/64
f 105/61/59 108/66/65 109/67/66
f 105/61/59 110/65/63 106/62/60
f 104/64/61 132/68/50 108/66/65
f 111/18/64 114/69/67 115/70/68
f 108/66/65 113/71/69 109/67/66
f 109/67/66 114/69/67 110/65/63
f 108/66/65 132/72/50 112/73/70
f 114/69/67 117/74/71 118/75/72
f 112/73/70 132/76/50 116/77/73
f 115/70/68 118/75/72 119/78/74
f 112/73/70 117/74/71 113/71/69
f 118/75/72 121/79/75 122/80/76
f 116/77/73 132/81/50 120/82/77
f 118/75/72 123/83/78 119/78/74
f 117/74/71 120/82/77 121/79/75
f 123/83/78 126/84/79 127/85/80
f 121/79/75 124/86/81 125/87/82
f 122/80/76 125/87/82 126/84/79
f 120/82/77 132/88/50 124/86/81
f 124/86/81 129/89/83 125/87/82
f 126/84/79 129/89/83 130/90/84
f 124/86/81 132/91/50 128/92/85
f 126/84/79 131/93/86 127/85/80
f 129/89/83 135/94/87 130/90/84
f 128/92/85 132/95/50 133/96/88
f 131/93/86 135/94/87 136/97/89
f 129/89/83 133/96/88 134/98/90
f 133/96/88 132/99/50 137/100/91
f 135/94/87 140/101/92 136/97/89
f 133/96/88 138/102/93 134/98/90
f 135/94/87 138/102/93 139/103/94
f 140/101/92 143/104/95 144/105/96
f 137/100/91 142/106/97 138/102/93
f 138/102/93 143/104/95 139/103/94
f 137/100/91 132/107/50 141/108/98
f 142/106/97 147/109/99 143/104/95
f 141/108/98 132/110/50 145/111/100
f 143/104/95 148/36/101 144/105/96
f 142/106/97 145/111/100 146/112/102
f 147/113/99 150/114/103 151/115/104
f 145/116/100 132/117/50 149/118/105
f 148/4/101 151/115/104 152/119/106
f 146/120/102 149/118/105 150/114/103
f 151/115/104 156/121/107 152/119/106
f 150/114/103 153/122/108 154/123/109
f 150/114/103 155/124/110 151/115/104
f 149/118/105 132/125/50 153/122/108
f 155/124/110 160/126/111 156/121/107
f 153/122/108 158/127/112 154/123/109
f 154/123/109 159/128/113 155/124/110
f 153/122/108 132/129/50 157/130/114
f 158/127/112 98/58/55 159/128/113
f 157/130/114 132/131/50 161/59/56
f 159/128/113 99/12/57 160/126/111
f 157/130/114 162/54/51 158/127/112
f 1/1/1 34/1/43 33/2/2
f 1/1/1 31/2/3 32/3/4
f 3/2/6 1/9/1 2/5/5
f 4/8/8 2/132/8 32/133/8
f 32/133/8 30/134/8 28/135/8
f 28/135/8 26/136/8 24/137/8
f 24/137/8 22/138/8 20/6/8
f 20/6/8 18/139/8 16/140/8
f 16/140/8 14/141/8 12/7/8
f 12/7/8 10/142/8 8/143/8
f 8/143/8 6/144/8 4/8/8
f 4/8/8 32/133/8 28/135/8
f 28/135/8 24/137/8 20/6/8
f 20/6/8 16/140/8 12/7/8
f 12/7/8 8/143/8 4/8/8
f 4/8/8 28/135/8 20/6/8
f 5/9/9 3/11/6 4/10/7
f 7/11/11 5/13/9 6/12/10
f 9/13/13 7/15/11 8/14/12
f 11/15/15 9/17/13 10/16/14
f 13/17/17 11/19/15 12/18/16
f 15/19/19 13/21/17 14/20/18
f 17/21/21 15/23/19 16/22/20
f 19/23/23 17/25/21 18/24/22
f 21/25/25 19/27/23 20/26/24
f 23/27/27 21/29/25 22/28/26
f 25/29/29 23/31/27 24/30/28
f 27/31/31 25/33/29 26/32/30
f 29/33/33 27/35/31 28/34/32
f 31/35/3 29/37/33 30/36/34
f 37/11/35 53/11/12 52/13/10
f 11/15/15 39/15/45 38/17/37
f 19/27/23 21/25/25 44/25/38
f 31/35/3 33/35/2 48/37/40
f 7/11/11 37/11/35 36/13/36
f 17/21/21 42/21/46 41/23/41
f 27/31/31 47/31/47 46/33/42
f 3/2/6 35/2/48 34/9/43
f 11/19/15 13/17/17 40/17/44
f 23/27/27 45/27/49 44/29/38
f 7/15/11 9/13/13 38/13/37
f 19/23/23 43/23/39 42/25/46
f 27/35/31 29/33/33 48/33/40
f 3/11/6 5/9/9 36/9/36
f 15/19/19 41/19/41 40/21/44
f 23/31/27 25/29/29 46/29/42
f 45/27/49 61/27/28 60/29/26
f 38/13/37 54/13/14 53/15/12
f 46/29/42 62/29/30 61/31/28
f 39/15/45 55/15/16 54/17/14
f 47/31/47 63/31/32 62/33/30
f 40/17/44 56/17/18 55/19/16
f 47/35/47 48/33/40 64/33/34
f 41/19/41 57/19/20 56/21/18
f 34/1/43 50/1/5 49/2/4
f 33/35/2 49/35/4 64/37/34
f 42/21/46 58/21/22 57/23/20
f 34/9/43 35/2/48 51/2/7
f 43/23/39 59/23/24 58/25/22
f 36/9/36 52/9/10 51/11/7
f 44/25/38 60/25/26 59/27/24
f 55/19/8 56/17/8 73/17/8
f 55/15/8 72/15/8 71/17/8
f 54/13/8 71/13/8 70/15/8
f 52/13/8 53/11/8 70/11/8
f 51/11/8 52/9/8 69/9/8
f 64/37/8 49/35/8 66/35/8
f 51/2/8 68/2/8 67/9/8
f 63/35/8 64/33/8 81/33/8
f 75/21/22 91/21/22 90/23/20
f 68/2/7 84/2/7 83/9/5
f 76/23/24 92/23/24 91/25/22
f 69/9/10 85/9/10 84/11/7
f 77/25/26 93/25/26 92/27/24
f 70/11/12 86/11/12 85/13/10
f 78/27/28 94/27/28 93/29/26
f 71/13/14 87/13/14 86/15/12
f 79/29/30 95/29/30 94/31/28
f 72/15/16 88/15/16 87/17/14
f 80/31/32 96/31/32 95/33/30
f 73/17/18 89/17/18 88/19/16
f 81/33/34 97/33/34 96/35/32
f 74/19/20 90/19/20 89/21/18
f 67/1/5 83/1/5 82/2/4
f 66/35/4 82/35/4 97/37/34
f 56/21/8 57/19/8 74/19/8
f 58/21/8 75/21/8 74/23/8
f 59/23/8 76/23/8 75/25/8
f 59/27/8 60/25/8 77/25/8
f 60/29/8 61/27/8 78/27/8
f 62/29/8 79/29/8 78/31/8
f 63/31/8 80/31/8 79/33/8
f 50/1/8 67/1/8 66/2/8
f 162/54/51 161/59/56 100/55/52
f 162/54/51 101/56/53 102/57/54
f 99/12/57 98/58/55 102/57/54
f 102/57/54 101/56/53 105/61/59
f 102/57/54 106/62/60 107/16/62
f 100/55/52 104/64/61 105/61/59
f 107/16/62 106/62/60 110/65/63
f 105/61/59 104/64/61 108/66/65
f 105/61/59 109/67/66 110/65/63
f 111/18/64 110/65/63 114/69/67
f 108/66/65 112/73/70 113/71/69
f 109/67/66 113/71/69 114/69/67
f 114/69/67 113/71/69 117/74/71
f 115/70/68 114/69/67 118/75/72
f 112/73/70 116/77/73 117/74/71
f 118/75/72 117/74/71 121/79/75
f 118/75/72 122/80/76 123/83/78
f 117/74/71 116/77/73 120/82/77
f 123/83/78 122/80/76 126/84/79
f 121/79/75 120/82/77 124/86/81
f 122/80/76 121/79/75 125/87/82
f 124/86/81 128/92/85 129/89/83
f 126/84/79 125/87/82 129/89/83
f 126/84/79 130/90/84 131/93/86
f 129/89/83 134/98/90 135/94/87
f 131/93/86 130/90/84 135/94/87
f 129/89/83 128/92/85 133/96/88
f 135/94/87 139/103/94 140/101/92
f 133/96/88 137/100/91 138/102/93
f 135/94/87 134/98/90 138/102/93
f 140/101/92 139/103/94 143/104/95
f 137/100/91 141/108/98 142/106/97
f 138/102/93 142/106/97 143/104/95
f 142/106/97 146/112/102 147/109/99
f 143/104/95 147/109/99 148/36/101
f 142/106/97 141/108/98 145/111/100
f 147/113/99 146/120/102 150/114/103
f 148/4/101 147/113/99 151/115/104
f 146/120/102 145/116/100 149/118/105
f 151/115/104 155/124/110 156/121/107
f 150/114/103 149/118/105 153/122/108
f 150/114/103 154/123/109 155/124/110
f 155/124/110 159/128/113 160/126/111
f 153/122/108 157/130/114 158/127/112
f 154/123/109 158/127/112 159/128/113
f 158/127/112 162/54/51 98/58/55
f 159/128/113 98/58/55 99/12/57
f 157/130/114 161/59/56 162/54/51
