# Blender 5.0.1
# www.blender.org
mtllib ElectricLamp.mtl
o ElectricLamp
v 0.000000 3.220392 8.000000
v 0.000000 3.180000 7.949999
v 0.068733 3.234064 8.000000
v 0.084190 3.196747 7.949999
v 0.127002 3.272998 8.000000
v 0.155563 3.244437 7.949999
v 0.165936 3.331267 8.000000
v 0.203253 3.315810 7.949999
v 0.179608 3.400000 8.000000
v 0.220000 3.400000 7.949999
v 0.165936 3.468733 8.000000
v 0.203253 3.484190 7.949999
v 0.127002 3.527002 8.000000
v 0.155563 3.555564 7.949999
v 0.068733 3.565937 8.000000
v 0.084190 3.603254 7.949999
v -0.000000 3.579608 8.000000
v -0.000000 3.620000 7.949999
v -0.068733 3.565937 8.000000
v -0.084190 3.603254 7.949999
v -0.127002 3.527002 8.000000
v -0.155563 3.555564 7.949999
v -0.165936 3.468733 8.000000
v -0.203253 3.484190 7.949999
v -0.179608 3.400000 8.000000
v -0.220000 3.400000 7.949999
v -0.165936 3.331267 8.000000
v -0.203253 3.315810 7.949999
v -0.127002 3.272998 8.000000
v -0.155563 3.244437 7.949999
v -0.068733 3.234064 8.000000
v -0.084190 3.196747 7.949999
v 0.000000 3.200000 8.000000
v 0.076537 3.215225 8.000000
v 0.141421 3.258579 8.000000
v 0.184776 3.323464 8.000000
v 0.200000 3.400000 8.000000
v 0.184776 3.476537 8.000000
v 0.141421 3.541422 8.000000
v 0.076537 3.584776 8.000000
v -0.000000 3.600000 8.000000
v -0.076537 3.584776 8.000000
v -0.141421 3.541422 8.000000
v -0.184776 3.476537 8.000000
v -0.200000 3.400000 8.000000
v -0.184776 3.323464 8.000000
v -0.141421 3.258579 8.000000
v -0.076537 3.215225 8.000000
v 0.000000 3.220392 7.900000
v 0.068733 3.234064 7.900000
v 0.127002 3.272998 7.900000
v 0.165936 3.331267 7.900000
v 0.179608 3.400000 7.900000
v 0.165936 3.468733 7.900000
v 0.127002 3.527002 7.900000
v 0.068733 3.565937 7.900000
v -0.000000 3.579608 7.900000
v -0.068733 3.565937 7.900000
v -0.127002 3.527002 7.900000
v -0.165936 3.468733 7.900000
v -0.179608 3.400000 7.900000
v -0.165936 3.331267 7.900000
v -0.127002 3.272998 7.900000
v -0.068733 3.234064 7.900000
v 0.000000 3.400000 7.750000
v 0.230970 3.495671 7.930000
v -0.270000 3.390000 7.590001
v 0.250000 3.400000 7.930000
v -0.280000 3.530000 7.910000
v -0.200000 3.530000 7.590001
v -0.270000 3.390000 7.910000
v -0.200000 3.390000 7.590001
v -0.250000 3.150000 7.550000
v 0.220000 3.400000 7.950000
v 0.250000 3.400000 7.550000
v 0.203253 3.484190 7.950000
v 0.230970 3.495671 7.550000
v 0.155563 3.555563 7.950000
v 0.176777 3.576777 7.550000
v 0.084190 3.603254 7.950000
v 0.095671 3.630970 7.550000
v 0.000000 3.620000 7.950000
v -0.000000 3.650000 7.550000
v -0.084190 3.603254 7.950000
v -0.095671 3.630970 7.550000
v -0.155563 3.555563 7.950000
v -0.176777 3.576777 7.550000
v -0.203253 3.484190 7.950000
v -0.230970 3.495671 7.550000
v -0.220000 3.400000 7.950000
v -0.250000 3.400000 7.550000
v -0.200000 3.530000 7.910000
v -0.220000 3.150000 7.950000
v -0.200000 3.390000 7.910000
v 0.250000 3.150000 7.550000
v -0.280000 3.530000 7.590001
v 0.220000 3.150000 7.950000
v 0.176777 3.576777 7.930000
v 0.095671 3.630970 7.930000
v -0.000000 3.650000 7.930000
v -0.095671 3.630970 7.930000
v -0.176777 3.576777 7.930000
v -0.230970 3.495671 7.930000
v -0.250000 3.400000 7.930000
v -0.250000 3.150000 7.930000
v 0.250000 3.150000 7.930000
v 0.259952 3.400980 7.950000
v 0.260000 3.150000 7.950000
v 0.259952 3.400980 7.930000
v 0.240209 3.499498 7.950000
v 0.240209 3.499498 7.930000
v 0.183848 3.583848 7.950000
v 0.183848 3.583848 7.930000
v 0.099498 3.640209 7.950000
v 0.099498 3.640209 7.930000
v 0.000000 3.660000 7.950000
v -0.000000 3.660000 7.930000
v -0.099498 3.640209 7.950000
v -0.099498 3.640209 7.930000
v -0.183848 3.583848 7.950000
v -0.183848 3.583848 7.930000
v -0.240209 3.499498 7.950000
v -0.240209 3.499498 7.930000
v -0.259952 3.400980 7.950000
v -0.259952 3.400980 7.930000
v -0.260000 3.150000 7.950000
v -0.260000 3.150000 7.930000
v 0.260000 3.150000 7.930000
v 0.280000 3.530000 7.910000
v 0.270000 3.390000 7.590001
v -0.080000 3.200000 7.950000
v 0.080000 3.200000 7.950000
v 0.200000 3.530000 7.590001
v 0.270000 3.390000 7.910000
v 0.200000 3.390000 7.590001
v 0.200000 3.530000 7.910000
v 0.200000 3.390000 7.910000
v 0.280000 3.530000 7.590001
v 0.220000 3.100000 7.960000
v 0.220000 3.150000 7.960000
v 0.220000 3.100000 7.540000
v 0.220000 3.150000 7.540000
v 0.260000 3.100000 7.960000
v 0.260000 3.150000 7.960000
v 0.260000 3.100000 7.540000
v 0.260000 3.150000 7.540000
v -0.260000 3.100000 7.960000
v -0.260000 3.150000 7.960000
v -0.260000 3.100000 7.540000
v -0.260000 3.150000 7.540000
v -0.220000 3.100000 7.960000
v -0.220000 3.150000 7.960000
v -0.220000 3.100000 7.540000
v -0.220000 3.150000 7.540000
v -0.220000 3.140000 7.960000
v -0.220000 3.150000 7.960000
v -0.220000 3.140000 7.540000
v -0.220000 3.150000 7.540000
v 0.220000 3.140000 7.960000
v 0.220000 3.150000 7.960000
v 0.220000 3.140000 7.540000
v 0.220000 3.150000 7.540000
vn -0.0000 -0.9285 0.3714
vn 0.3553 -0.8578 0.3714
vn 0.6565 -0.6565 0.3714
vn 0.8578 -0.3553 0.3714
vn 0.9285 -0.0000 0.3714
vn 0.8578 0.3553 0.3714
vn 0.6565 0.6565 0.3714
vn 0.3553 0.8578 0.3714
vn -0.0000 0.9285 0.3714
vn -0.3553 0.8578 0.3714
vn -0.6565 0.6565 0.3714
vn -0.8578 0.3553 0.3714
vn -0.9285 -0.0000 0.3714
vn -0.8578 -0.3553 0.3714
vn -0.6565 -0.6565 0.3714
vn -0.3553 -0.8578 0.3714
vn 0.3827 0.9239 -0.0000
vn 0.6466 0.6466 0.4047
vn 0.7071 0.7071 -0.0000
vn -0.0000 -0.0000 1.0000
vn -0.9145 -0.0000 0.4047
vn -0.8448 -0.3499 0.4047
vn -0.0000 -1.0000 -0.0000
vn -0.3499 -0.8448 0.4047
vn -0.3827 -0.9239 -0.0000
vn -0.3827 0.9239 -0.0000
vn -0.0000 0.9145 0.4047
vn -0.0000 1.0000 -0.0000
vn 0.3499 0.8448 0.4047
vn 0.3827 -0.9239 -0.0000
vn -0.0000 -0.9145 0.4047
vn -0.7071 0.7071 -0.0000
vn -0.3499 0.8448 0.4047
vn 0.7071 -0.7071 -0.0000
vn 0.3499 -0.8448 0.4047
vn -0.9239 0.3827 -0.0000
vn -0.6466 0.6466 0.4047
vn 0.9239 -0.3827 -0.0000
vn 0.6466 -0.6466 0.4047
vn -1.0000 -0.0000 -0.0000
vn -0.8448 0.3499 0.4047
vn 1.0000 -0.0000 -0.0000
vn 0.8448 -0.3499 0.4047
vn -0.9239 -0.3827 -0.0000
vn 0.9239 0.3827 -0.0000
vn 0.9145 -0.0000 0.4047
vn -0.7071 -0.7071 -0.0000
vn 0.8448 0.3499 0.4047
vn -0.6466 -0.6466 0.4047
vn 0.9952 0.0980 -0.0000
vn -0.9952 0.0980 -0.0000
vn -0.0000 -0.0000 -1.0000
vn -0.9975 -0.0712 -0.0000
vn 0.9951 0.0988 -0.0000
vn 1.0000 0.0002 -0.0000
vn -0.9951 0.0988 -0.0000
vn -1.0000 0.0002 -0.0000
vn -0.9236 0.3833 -0.0000
vn 0.9236 0.3833 -0.0000
vn 0.9975 -0.0712 -0.0000
vt 1.000000 0.500000
vt 0.937500 1.000000
vt 0.937500 0.500000
vt 0.875000 0.500000
vt 0.875000 1.000000
vt 0.812500 0.500000
vt 0.812500 1.000000
vt 0.750000 0.500000
vt 0.687500 1.000000
vt 0.687500 0.500000
vt 0.625000 0.500000
vt 0.625000 1.000000
vt 0.562500 0.500000
vt 0.562500 1.000000
vt 0.500000 0.500000
vt 0.437500 1.000000
vt 0.437500 0.500000
vt 0.375000 1.000000
vt 0.375000 0.500000
vt 0.312500 0.500000
vt 0.312500 1.000000
vt 0.250000 0.500000
vt 0.187500 1.000000
vt 0.187500 0.500000
vt 0.125000 0.500000
vt 0.062500 1.000000
vt 0.062500 0.500000
vt 0.000000 0.500000
vt 0.667520 0.449124
vt 0.597597 0.402403
vt 0.750000 0.465530
vt 0.841844 0.471731
vt 0.832480 0.449123
vt 0.902402 0.402403
vt 0.919706 0.419706
vt 0.971731 0.341844
vt 0.949124 0.332480
vt 0.990000 0.250000
vt 0.965530 0.250000
vt 0.971731 0.158156
vt 0.949124 0.167520
vt 0.919706 0.080294
vt 0.902403 0.097597
vt 0.832480 0.050876
vt 0.841844 0.028269
vt 0.750000 0.010000
vt 0.750000 0.034470
vt 0.658156 0.028269
vt 0.667520 0.050876
vt 0.580294 0.080294
vt 0.597597 0.097597
vt 0.528269 0.158156
vt 0.550876 0.167520
vt 0.510000 0.250000
vt 0.534470 0.250000
vt 0.528269 0.341844
vt 0.550876 0.332480
vt 0.580294 0.419706
vt 0.658156 0.471731
vt 0.750000 0.490000
vt 0.625000 0.000000
vt 0.375000 0.250000
vt 0.375000 0.000000
vt 0.625000 0.250000
vt 0.375000 0.750000
vt 0.750000 0.525000
vt 0.750000 1.000000
vt 0.687500 0.525000
vt 0.625000 0.525000
vt 0.562500 0.525000
vt 0.500000 0.525000
vt 0.500000 1.000000
vt 0.437500 0.525000
vt 0.375000 0.525000
vt 0.312500 0.525000
vt 0.250000 0.525000
vt 0.125000 0.750000
vt 0.625000 0.750000
vt 0.250000 1.000000
vt 0.000000 0.000000
vt 1.000000 1.000000
vt 0.125000 1.000000
vt 0.000000 1.000000
vt 0.875000 0.750000
s 1
f 33/1/1 4/2/2 34/3/2
f 4/2/2 35/4/3 34/3/2
f 6/5/3 36/6/4 35/4/3
f 8/7/4 37/8/5 36/6/4
f 37/8/5 12/9/6 38/10/6
f 12/9/6 39/11/7 38/10/6
f 14/12/7 40/13/8 39/11/7
f 16/14/8 41/15/9 40/13/8
f 41/15/9 20/16/10 42/17/10
f 42/17/10 22/18/11 43/19/11
f 22/18/11 44/20/12 43/19/11
f 24/21/12 45/22/13 44/20/12
f 45/22/13 28/23/14 46/24/14
f 28/23/14 47/25/15 46/24/14
f 47/25/15 32/26/16 48/27/16
f 32/26/16 33/28/1 48/27/16
f 31/29/17 63/30/18 29/30/19
f 1/31/20 34/32/20 3/33/20
f 5/34/20 34/32/20 35/35/20
f 5/34/20 36/36/20 7/37/20
f 7/37/20 37/38/20 9/39/20
f 9/39/20 38/40/20 11/41/20
f 11/41/20 39/42/20 13/43/20
f 15/44/20 39/42/20 40/45/20
f 15/44/20 41/46/20 17/47/20
f 17/47/20 42/48/20 19/49/20
f 19/49/20 43/50/20 21/51/20
f 21/51/20 44/52/20 23/53/20
f 23/53/20 45/54/20 25/55/20
f 25/55/20 46/56/20 27/57/20
f 29/30/20 46/56/20 47/58/20
f 29/30/20 48/59/20 31/29/20
f 1/31/20 48/59/20 33/60/20
f 53/39/21 54/41/22 65/39/20
f 17/47/23 56/44/24 15/44/25
f 3/33/26 49/31/27 1/31/28
f 1/31/28 64/29/29 31/29/17
f 19/49/30 57/47/31 17/47/23
f 5/34/32 50/33/33 3/33/26
f 21/51/34 58/49/35 19/49/30
f 7/37/36 51/34/37 5/34/32
f 23/53/38 59/51/39 21/51/34
f 9/39/40 52/37/41 7/37/36
f 25/55/42 60/53/43 23/53/38
f 11/41/44 53/39/21 9/39/40
f 27/57/45 61/55/46 25/55/42
f 13/43/47 54/41/22 11/41/44
f 29/30/19 62/57/48 27/57/45
f 15/44/25 55/43/49 13/43/47
f 61/55/46 62/57/48 65/55/20
f 54/41/22 55/43/49 65/41/20
f 62/57/48 63/30/18 65/57/20
f 55/43/49 56/44/24 65/43/20
f 63/30/18 64/29/29 65/30/20
f 56/44/24 57/47/31 65/44/20
f 49/31/27 50/33/33 65/31/20
f 64/29/29 49/31/27 65/29/20
f 57/47/31 58/49/35 65/47/20
f 50/33/33 51/34/37 65/33/20
f 58/49/35 59/51/39 65/49/20
f 51/34/37 52/37/41 65/34/20
f 59/51/39 60/53/43 65/51/20
f 52/37/41 53/39/21 65/37/20
f 60/53/43 61/55/46 65/53/20
s 0
f 96/61/28 92/62/28 70/63/28
f 72/64/23 71/19/23 67/62/23
f 92/11/20 71/65/20 94/19/20
s 1
f 68/66/50 95/67/42 75/67/50
f 75/67/50 66/68/45 68/66/50
f 77/9/45 98/69/19 66/68/45
f 79/12/19 99/70/17 98/69/19
f 81/14/17 100/71/28 99/70/17
f 83/72/28 101/73/26 100/71/28
f 85/16/26 102/74/32 101/73/26
f 87/18/32 103/75/36 102/74/32
f 89/21/36 104/76/51 103/75/36
s 0
f 67/25/52 70/65/52 72/77/52
f 69/4/53 67/78/53 71/11/53
s 1
f 91/79/51 105/76/40 104/76/51
f 73/79/52 85/16/52 77/9/52
f 107/8/54 128/66/55 109/66/54
f 103/75/52 121/74/52 102/74/52
f 125/76/56 126/22/57 124/22/56
f 74/80/20 108/80/20 107/80/20
f 80/80/20 116/80/20 82/80/20
f 103/75/52 125/76/52 123/75/52
s 0
f 140/61/40 141/62/40 139/63/40
s 1
f 66/68/52 109/66/52 68/66/52
f 104/76/52 127/76/52 125/76/52
f 84/80/20 120/80/20 86/80/20
f 66/68/52 113/69/52 111/68/52
f 76/80/20 107/80/20 110/80/20
f 123/75/58 124/22/56 122/20/58
f 121/74/32 122/20/58 120/19/32
f 119/73/26 120/19/32 118/17/26
f 117/71/28 118/17/26 116/15/28
f 115/70/17 116/15/28 114/13/17
f 113/69/19 114/13/17 112/11/19
f 111/68/59 112/11/19 110/10/59
f 109/66/54 110/10/59 107/8/54
f 76/80/20 112/80/20 78/80/20
f 88/80/20 120/80/20 122/80/20
f 101/73/52 121/74/52 119/73/52
s 0
f 142/64/52 145/19/52 141/62/52
s 1
f 101/73/52 117/71/52 100/71/52
f 82/80/20 118/80/20 84/80/20
f 99/70/52 117/71/52 115/70/52
f 90/80/20 126/80/20 93/80/20
f 80/80/20 112/80/20 114/80/20
f 68/66/52 128/66/52 106/66/52
f 88/80/20 124/80/20 90/80/20
f 98/69/52 115/70/52 113/69/52
f 90/80/20 93/80/20 131/80/20
f 97/80/20 74/80/20 132/80/20
f 131/80/20 97/80/20 132/80/20
s 0
f 136/62/28 138/61/28 133/63/28
f 134/19/23 135/64/23 130/62/23
f 134/65/20 136/11/20 137/19/20
f 130/25/52 133/65/52 138/19/52
f 130/78/60 129/4/60 134/11/60
f 146/11/42 143/65/42 145/19/42
f 144/78/20 139/18/20 143/65/20
f 145/19/23 139/77/23 141/25/23
f 142/4/28 144/78/28 146/11/28
f 148/61/40 149/62/40 147/63/40
f 150/64/52 153/19/52 149/62/52
f 154/11/42 151/65/42 153/19/42
f 152/78/20 147/18/20 151/65/20
f 153/19/23 147/77/23 149/25/23
f 150/4/28 152/78/28 154/11/28
f 156/61/40 157/62/40 155/63/40
f 158/64/52 161/19/52 157/62/52
f 162/11/42 159/65/42 161/19/42
f 160/78/20 155/18/20 159/65/20
f 161/19/23 155/77/23 157/25/23
f 158/4/28 160/78/28 162/11/28
s 1
f 33/1/1 2/81/1 4/2/2
f 4/2/2 6/5/3 35/4/3
f 6/5/3 8/7/4 36/6/4
f 8/7/4 10/67/5 37/8/5
f 37/8/5 10/67/5 12/9/6
f 12/9/6 14/12/7 39/11/7
f 14/12/7 16/14/8 40/13/8
f 16/14/8 18/72/9 41/15/9
f 41/15/9 18/72/9 20/16/10
f 42/17/10 20/16/10 22/18/11
f 22/18/11 24/21/12 44/20/12
f 24/21/12 26/79/13 45/22/13
f 45/22/13 26/79/13 28/23/14
f 28/23/14 30/82/15 47/25/15
f 47/25/15 30/82/15 32/26/16
f 32/26/16 2/83/1 33/28/1
f 31/29/17 64/29/29 63/30/18
f 1/31/20 33/60/20 34/32/20
f 5/34/20 3/33/20 34/32/20
f 5/34/20 35/35/20 36/36/20
f 7/37/20 36/36/20 37/38/20
f 9/39/20 37/38/20 38/40/20
f 11/41/20 38/40/20 39/42/20
f 15/44/20 13/43/20 39/42/20
f 15/44/20 40/45/20 41/46/20
f 17/47/20 41/46/20 42/48/20
f 19/49/20 42/48/20 43/50/20
f 21/51/20 43/50/20 44/52/20
f 23/53/20 44/52/20 45/54/20
f 25/55/20 45/54/20 46/56/20
f 29/30/20 27/57/20 46/56/20
f 29/30/20 47/58/20 48/59/20
f 1/31/20 31/29/20 48/59/20
f 17/47/23 57/47/31 56/44/24
f 3/33/26 50/33/33 49/31/27
f 1/31/28 49/31/27 64/29/29
f 19/49/30 58/49/35 57/47/31
f 5/34/32 51/34/37 50/33/33
f 21/51/34 59/51/39 58/49/35
f 7/37/36 52/37/41 51/34/37
f 23/53/38 60/53/43 59/51/39
f 9/39/40 53/39/21 52/37/41
f 25/55/42 61/55/46 60/53/43
f 11/41/44 54/41/22 53/39/21
f 27/57/45 62/57/48 61/55/46
f 13/43/47 55/43/49 54/41/22
f 29/30/19 63/30/18 62/57/48
f 15/44/25 56/44/24 55/43/49
s 0
f 96/61/28 69/64/28 92/62/28
f 72/64/23 94/11/23 71/19/23
f 92/11/20 69/78/20 71/65/20
s 1
f 68/66/50 106/66/42 95/67/42
f 75/67/50 77/9/45 66/68/45
f 77/9/45 79/12/19 98/69/19
f 79/12/19 81/14/17 99/70/17
f 81/14/17 83/72/28 100/71/28
f 83/72/28 85/16/26 101/73/26
f 85/16/26 87/18/32 102/74/32
f 87/18/32 89/21/36 103/75/36
f 89/21/36 91/79/51 104/76/51
s 0
f 67/25/52 96/19/52 70/65/52
f 69/4/53 96/84/53 67/78/53
s 1
f 91/79/51 73/79/40 105/76/40
f 75/67/52 95/67/52 73/79/52
f 73/79/52 91/79/52 89/21/52
f 89/21/52 87/18/52 85/16/52
f 85/16/52 83/72/52 81/14/52
f 81/14/52 79/12/52 77/9/52
f 77/9/52 75/67/52 73/79/52
f 73/79/52 89/21/52 85/16/52
f 85/16/52 81/14/52 77/9/52
f 107/8/54 108/8/55 128/66/55
f 103/75/52 123/75/52 121/74/52
f 125/76/56 127/76/57 126/22/57
f 74/80/20 97/80/20 108/80/20
f 80/80/20 114/80/20 116/80/20
f 103/75/52 104/76/52 125/76/52
s 0
f 140/61/40 142/64/40 141/62/40
s 1
f 66/68/52 111/68/52 109/66/52
f 104/76/52 105/76/52 127/76/52
f 84/80/20 118/80/20 120/80/20
f 66/68/52 98/69/52 113/69/52
f 76/80/20 74/80/20 107/80/20
f 123/75/58 125/76/56 124/22/56
f 121/74/32 123/75/58 122/20/58
f 119/73/26 121/74/32 120/19/32
f 117/71/28 119/73/26 118/17/26
f 115/70/17 117/71/28 116/15/28
f 113/69/19 115/70/17 114/13/17
f 111/68/59 113/69/19 112/11/19
f 109/66/54 111/68/59 110/10/59
f 76/80/20 110/80/20 112/80/20
f 88/80/20 86/80/20 120/80/20
f 101/73/52 102/74/52 121/74/52
s 0
f 142/64/52 146/11/52 145/19/52
s 1
f 101/73/52 119/73/52 117/71/52
f 82/80/20 116/80/20 118/80/20
f 99/70/52 100/71/52 117/71/52
f 90/80/20 124/80/20 126/80/20
f 80/80/20 78/80/20 112/80/20
f 68/66/52 109/66/52 128/66/52
f 88/80/20 122/80/20 124/80/20
f 98/69/52 99/70/52 115/70/52
f 131/80/20 93/80/20 97/80/20
s 0
f 136/62/28 129/64/28 138/61/28
f 134/19/23 137/11/23 135/64/23
f 134/65/20 129/78/20 136/11/20
f 130/25/52 135/77/52 133/65/52
f 130/78/60 138/84/60 129/4/60
f 146/11/42 144/78/42 143/65/42
f 144/78/20 140/12/20 139/18/20
f 145/19/23 143/65/23 139/77/23
f 142/4/28 140/84/28 144/78/28
f 148/61/40 150/64/40 149/62/40
f 150/64/52 154/11/52 153/19/52
f 154/11/42 152/78/42 151/65/42
f 152/78/20 148/12/20 147/18/20
f 153/19/23 151/65/23 147/77/23
f 150/4/28 148/84/28 152/78/28
f 156/61/40 158/64/40 157/62/40
f 158/64/52 162/11/52 161/19/52
f 162/11/42 160/78/42 159/65/42
f 160/78/20 156/12/20 155/18/20
f 161/19/23 159/65/23 155/77/23
f 158/4/28 156/84/28 160/78/28
