# Blender 5.0.1
# www.blender.org
mtllib ElectricLampStand.mtl
o ElectricLampStand
v -0.300000 3.050000 8.000002
v -0.300000 3.100000 8.000002
v -0.300000 3.050000 7.550001
v -0.300000 3.100000 7.550001
v 0.300000 3.050000 8.000002
v 0.300000 3.100000 8.000002
v 0.300000 3.050000 7.550001
v 0.300000 3.100000 7.550001
v -0.270000 3.030000 7.900000
v -0.310000 3.030000 7.900000
v -0.310000 3.090000 7.900000
v -0.270000 3.090000 7.900000
v -0.270000 3.030000 7.530000
v -0.270000 3.090000 7.540000
v -0.310000 3.090000 7.540000
v -0.310000 3.030000 7.530000
v -0.310000 3.130000 7.450000
v -0.310000 3.190000 7.460000
v -0.310000 3.130000 7.430000
v -0.310000 3.190000 7.430000
v -0.270000 3.130000 7.450000
v -0.270000 3.190000 7.460000
v -0.270000 3.130000 7.430000
v -0.270000 3.190000 7.430000
v -0.260000 3.200000 7.390000
v -0.260000 3.110000 7.390000
v -0.260000 3.200000 7.430000
v -0.260000 3.110000 7.430000
v -0.320000 3.200000 7.390000
v -0.320000 3.110000 7.390000
v -0.320000 3.200000 7.430000
v -0.320000 3.110000 7.430000
v 0.310000 3.030000 7.900000
v 0.270000 3.030000 7.900000
v 0.270000 3.090000 7.900000
v 0.310000 3.090000 7.900000
v 0.310000 3.030000 7.530000
v 0.310000 3.090000 7.540000
v 0.270000 3.090000 7.540000
v 0.270000 3.030000 7.530000
v 0.270000 3.130000 7.450000
v 0.270000 3.190000 7.460000
v 0.270000 3.130000 7.430000
v 0.270000 3.190000 7.430000
v 0.310000 3.130000 7.450000
v 0.310000 3.190000 7.460000
v 0.310000 3.130000 7.430000
v 0.310000 3.190000 7.430000
v 0.320000 3.200000 7.390000
v 0.320000 3.110000 7.390000
v 0.320000 3.200000 7.430000
v 0.320000 3.110000 7.430000
v 0.260000 3.200000 7.390000
v 0.260000 3.110000 7.390000
v 0.260000 3.200000 7.430000
v 0.260000 3.110000 7.430000
vn -1.0000 -0.0000 -0.0000
vn -0.0000 -0.0000 -1.0000
vn 1.0000 -0.0000 -0.0000
vn -0.0000 -0.0000 1.0000
vn -0.0000 -1.0000 -0.0000
vn -0.0000 1.0000 -0.0000
vn -0.0000 0.6247 0.7809
vn -0.0000 -0.6247 -0.7809
vt 0.625000 0.000000
vt 0.375000 0.250000
vt 0.375000 0.000000
vt 0.625000 0.250000
vt 0.375000 0.500000
vt 0.625000 0.500000
vt 0.375000 0.750000
vt 0.625000 0.750000
vt 0.375000 1.000000
vt 0.125000 0.750000
vt 0.125000 0.500000
vt 0.875000 0.500000
vt 0.625000 1.000000
vt 0.875000 0.750000
s 0
f 2/1/1 3/2/1 1/3/1
f 4/4/2 7/5/2 3/2/2
f 8/6/3 5/7/3 7/5/3
f 6/8/4 1/9/4 5/7/4
f 7/5/5 1/10/5 3/11/5
f 4/12/6 6/8/6 8/6/6
f 15/4/6 12/2/6 14/2/6
f 14/13/3 9/9/3 13/9/3
f 13/6/5 10/5/5 16/5/5
f 12/6/4 10/7/4 9/5/4
f 21/9/3 14/13/3 13/9/3
f 18/4/7 14/2/7 22/2/7
f 21/6/8 16/5/8 17/5/8
f 15/12/1 10/6/1 11/12/1
f 17/6/1 20/14/1 19/8/1
f 24/8/3 21/9/3 23/7/3
f 17/6/1 15/12/1 18/12/1
f 23/4/5 17/5/5 19/2/5
f 20/1/6 22/2/6 24/3/6
f 29/1/6 27/2/6 25/3/6
f 26/4/5 32/5/5 30/2/5
f 27/6/4 32/7/4 28/5/4
f 25/8/3 28/9/3 26/7/3
f 29/5/2 26/10/2 30/11/2
f 31/12/1 30/8/1 32/6/1
f 39/4/6 36/2/6 38/2/6
f 38/13/3 33/9/3 37/9/3
f 37/6/5 34/5/5 40/5/5
f 36/6/4 34/7/4 33/5/4
f 45/9/3 38/13/3 37/9/3
f 42/4/7 38/2/7 46/2/7
f 45/6/8 40/5/8 41/5/8
f 39/12/1 34/6/1 35/12/1
f 41/6/1 44/14/1 43/8/1
f 48/8/3 45/9/3 47/7/3
f 41/6/1 39/12/1 42/12/1
f 47/4/5 41/5/5 43/2/5
f 44/1/6 46/2/6 48/3/6
f 53/1/6 51/2/6 49/3/6
f 50/4/5 56/5/5 54/2/5
f 51/6/4 56/7/4 52/5/4
f 49/8/3 52/9/3 50/7/3
f 53/5/2 50/10/2 54/11/2
f 55/12/1 54/8/1 56/6/1
f 2/1/1 4/4/1 3/2/1
f 4/4/2 8/6/2 7/5/2
f 8/6/3 6/8/3 5/7/3
f 6/8/4 2/13/4 1/9/4
f 7/5/5 5/7/5 1/10/5
f 4/12/6 2/14/6 6/8/6
f 15/4/6 11/4/6 12/2/6
f 14/13/3 12/13/3 9/9/3
f 13/6/5 9/6/5 10/5/5
f 12/6/4 11/8/4 10/7/4
f 21/9/3 22/13/3 14/13/3
f 18/4/7 15/4/7 14/2/7
f 21/6/8 13/6/8 16/5/8
f 15/12/1 16/6/1 10/6/1
f 17/6/1 18/12/1 20/14/1
f 24/8/3 22/13/3 21/9/3
f 17/6/1 16/6/1 15/12/1
f 23/4/5 21/6/5 17/5/5
f 20/1/6 18/4/6 22/2/6
f 29/1/6 31/4/6 27/2/6
f 26/4/5 28/6/5 32/5/5
f 27/6/4 31/8/4 32/7/4
f 25/8/3 27/13/3 28/9/3
f 29/5/2 25/7/2 26/10/2
f 31/12/1 29/14/1 30/8/1
f 39/4/6 35/4/6 36/2/6
f 38/13/3 36/13/3 33/9/3
f 37/6/5 33/6/5 34/5/5
f 36/6/4 35/8/4 34/7/4
f 45/9/3 46/13/3 38/13/3
f 42/4/7 39/4/7 38/2/7
f 45/6/8 37/6/8 40/5/8
f 39/12/1 40/6/1 34/6/1
f 41/6/1 42/12/1 44/14/1
f 48/8/3 46/13/3 45/9/3
f 41/6/1 40/6/1 39/12/1
f 47/4/5 45/6/5 41/5/5
f 44/1/6 42/4/6 46/2/6
f 53/1/6 55/4/6 51/2/6
f 50/4/5 52/6/5 56/5/5
f 51/6/4 55/8/4 56/7/4
f 49/8/3 51/13/3 52/9/3
f 53/5/2 49/7/2 50/10/2
f 55/12/1 53/14/1 54/8/1
