# Blender 5.0.1
# www.blender.org
mtllib FrontSteps.mtl
o FrontSteps
v 0.450000 0.570000 8.520001
v 0.450000 0.600000 8.520001
v 0.450000 0.570000 8.230000
v 0.450000 0.600000 8.230000
v 1.150000 0.570000 8.520001
v 1.150000 0.600000 8.520001
v 1.150000 0.570000 8.230000
v 1.150000 0.600000 8.230000
v 0.570000 0.570000 8.230000
v 0.570000 1.260000 8.230000
v 0.560000 0.570000 8.200000
v 0.560000 1.260000 8.200000
v 0.630000 0.570000 8.230000
v 0.630000 1.260000 8.230000
v 0.640000 0.570000 8.200000
v 0.640000 1.260000 8.200000
v 0.970000 0.570000 8.230000
v 0.970000 1.260000 8.230000
v 0.960000 0.570000 8.200000
v 0.960000 1.260000 8.200000
v 1.030000 0.570000 8.230000
v 1.030000 1.260000 8.230000
v 1.040000 0.570000 8.200000
v 1.040000 1.260000 8.200000
v 0.450000 0.700000 8.250000
v 1.150000 0.700000 8.250000
v 0.450000 0.700000 8.230000
v 1.150000 0.700000 8.230000
v 0.450000 0.600000 8.250000
v 1.150000 0.600000 8.250000
v 0.450000 0.600000 8.230000
v 1.150000 0.600000 8.230000
v 0.450000 0.650000 8.520000
v 0.470000 0.650000 8.520000
v 0.450000 0.700000 8.250000
v 0.470000 0.700000 8.250000
v 0.450000 0.600000 8.520000
v 0.470000 0.600000 8.520000
v 0.450000 0.600000 8.250000
v 0.470000 0.600000 8.250000
v -0.450000 0.570000 8.520001
v -0.450000 0.600000 8.520001
v -0.450000 0.570000 8.230000
v -0.450000 0.600000 8.230000
v -1.150000 0.570000 8.520001
v -1.150000 0.600000 8.520001
v -1.150000 0.570000 8.230000
v -1.150000 0.600000 8.230000
v -0.570000 0.570000 8.230000
v -0.570000 1.260000 8.230000
v -0.560000 0.570000 8.200000
v -0.560000 1.260000 8.200000
v -0.630000 0.570000 8.230000
v -0.630000 1.260000 8.230000
v -0.640000 0.570000 8.200000
v -0.640000 1.260000 8.200000
v -0.970000 0.570000 8.230000
v -0.970000 1.260000 8.230000
v -0.960000 0.570000 8.200000
v -0.960000 1.260000 8.200000
v -1.030000 0.570000 8.230000
v -1.030000 1.260000 8.230000
v -1.040000 0.570000 8.200000
v -1.040000 1.260000 8.200000
v -0.450000 0.700000 8.250000
v -1.150000 0.700000 8.250000
v -0.450000 0.700000 8.230000
v -1.150000 0.700000 8.230000
v -0.450000 0.600000 8.250000
v -1.150000 0.600000 8.250000
v -0.450000 0.600000 8.230000
v -1.150000 0.600000 8.230000
v -0.450000 0.650000 8.520000
v -0.470000 0.650000 8.520000
v -0.450000 0.700000 8.250000
v -0.470000 0.700000 8.250000
v -0.450000 0.600000 8.520000
v -0.470000 0.600000 8.520000
v -0.450000 0.600000 8.250000
v -0.470000 0.600000 8.250000
vn -1.0000 -0.0000 -0.0000
vn -0.0000 -0.0000 -1.0000
vn 1.0000 -0.0000 -0.0000
vn -0.0000 -0.0000 1.0000
vn -0.0000 -1.0000 -0.0000
vn -0.0000 1.0000 -0.0000
vn -0.9487 -0.0000 0.3162
vn 0.9487 -0.0000 0.3162
vn -0.0000 0.9833 0.1821
vt 0.625000 0.000000
vt 0.375000 0.250000
vt 0.375000 0.000000
vt 0.625000 0.250000
vt 0.375000 0.500000
vt 0.625000 0.500000
vt 0.375000 0.750000
vt 0.625000 0.750000
vt 0.375000 1.000000
vt 0.125000 0.750000
vt 0.125000 0.500000
vt 0.875000 0.500000
vt 0.875000 0.750000
vt 0.625000 1.000000
s 0
f 2/1/1 3/2/1 1/3/1
f 4/4/2 7/5/2 3/2/2
f 8/6/3 5/7/3 7/5/3
f 6/8/4 1/9/4 5/7/4
f 7/5/5 1/10/5 3/11/5
f 4/12/6 6/8/6 8/6/6
f 10/1/7 11/2/7 9/3/7
f 12/4/2 15/5/2 11/2/2
f 16/6/8 13/7/8 15/5/8
f 14/8/4 9/9/4 13/7/4
f 15/5/5 9/10/5 11/11/5
f 12/12/6 14/8/6 16/6/6
f 18/1/7 19/2/7 17/3/7
f 20/4/2 23/5/2 19/2/2
f 24/6/8 21/7/8 23/5/8
f 22/8/4 17/9/4 21/7/4
f 23/5/5 17/10/5 19/11/5
f 20/12/6 22/8/6 24/6/6
f 26/1/6 27/2/6 25/3/6
f 28/4/2 31/5/2 27/2/2
f 32/6/5 29/7/5 31/5/5
f 30/8/4 25/9/4 29/7/4
f 31/5/1 25/10/1 27/11/1
f 28/12/3 30/8/3 32/6/3
f 34/1/9 35/2/9 33/3/9
f 36/4/2 39/5/2 35/2/2
f 40/6/5 37/7/5 39/5/5
f 38/8/4 33/9/4 37/7/4
f 39/5/1 33/10/1 35/11/1
f 40/6/3 34/13/3 38/8/3
f 43/2/3 42/1/3 41/3/3
f 47/5/2 44/4/2 43/2/2
f 45/7/1 48/6/1 47/5/1
f 41/9/4 46/8/4 45/7/4
f 41/10/5 47/5/5 43/11/5
f 46/8/6 44/12/6 48/6/6
f 51/2/8 50/1/8 49/3/8
f 55/5/2 52/4/2 51/2/2
f 53/7/7 56/6/7 55/5/7
f 49/9/4 54/8/4 53/7/4
f 49/10/5 55/5/5 51/11/5
f 54/8/6 52/12/6 56/6/6
f 59/2/8 58/1/8 57/3/8
f 63/5/2 60/4/2 59/2/2
f 61/7/7 64/6/7 63/5/7
f 57/9/4 62/8/4 61/7/4
f 57/10/5 63/5/5 59/11/5
f 62/8/6 60/12/6 64/6/6
f 67/2/6 66/1/6 65/3/6
f 71/5/2 68/4/2 67/2/2
f 69/7/5 72/6/5 71/5/5
f 65/9/4 70/8/4 69/7/4
f 65/10/3 71/5/3 67/11/3
f 70/8/1 68/12/1 72/6/1
f 75/2/9 74/1/9 73/3/9
f 79/5/2 76/4/2 75/2/2
f 77/7/5 80/6/5 79/5/5
f 73/9/4 78/8/4 77/7/4
f 73/10/3 79/5/3 75/11/3
f 80/6/1 74/13/1 76/12/1
f 2/1/1 4/4/1 3/2/1
f 4/4/2 8/6/2 7/5/2
f 8/6/3 6/8/3 5/7/3
f 6/8/4 2/14/4 1/9/4
f 7/5/5 5/7/5 1/10/5
f 4/12/6 2/13/6 6/8/6
f 10/1/7 12/4/7 11/2/7
f 12/4/2 16/6/2 15/5/2
f 16/6/8 14/8/8 13/7/8
f 14/8/4 10/14/4 9/9/4
f 15/5/5 13/7/5 9/10/5
f 12/12/6 10/13/6 14/8/6
f 18/1/7 20/4/7 19/2/7
f 20/4/2 24/6/2 23/5/2
f 24/6/8 22/8/8 21/7/8
f 22/8/4 18/14/4 17/9/4
f 23/5/5 21/7/5 17/10/5
f 20/12/6 18/13/6 22/8/6
f 26/1/6 28/4/6 27/2/6
f 28/4/2 32/6/2 31/5/2
f 32/6/5 30/8/5 29/7/5
f 30/8/4 26/14/4 25/9/4
f 31/5/1 29/7/1 25/10/1
f 28/12/3 26/13/3 30/8/3
f 34/1/9 36/4/9 35/2/9
f 36/4/2 40/6/2 39/5/2
f 40/6/5 38/8/5 37/7/5
f 38/8/4 34/14/4 33/9/4
f 39/5/1 37/7/1 33/10/1
f 40/6/3 36/12/3 34/13/3
f 43/2/3 44/4/3 42/1/3
f 47/5/2 48/6/2 44/4/2
f 45/7/1 46/8/1 48/6/1
f 41/9/4 42/14/4 46/8/4
f 41/10/5 45/7/5 47/5/5
f 46/8/6 42/13/6 44/12/6
f 51/2/8 52/4/8 50/1/8
f 55/5/2 56/6/2 52/4/2
f 53/7/7 54/8/7 56/6/7
f 49/9/4 50/14/4 54/8/4
f 49/10/5 53/7/5 55/5/5
f 54/8/6 50/13/6 52/12/6
f 59/2/8 60/4/8 58/1/8
f 63/5/2 64/6/2 60/4/2
f 61/7/7 62/8/7 64/6/7
f 57/9/4 58/14/4 62/8/4
f 57/10/5 61/7/5 63/5/5
f 62/8/6 58/13/6 60/12/6
f 67/2/6 68/4/6 66/1/6
f 71/5/2 72/6/2 68/4/2
f 69/7/5 70/8/5 72/6/5
f 65/9/4 66/14/4 70/8/4
f 65/10/3 69/7/3 71/5/3
f 70/8/1 66/13/1 68/12/1
f 75/2/9 76/4/9 74/1/9
f 79/5/2 80/6/2 76/4/2
f 77/7/5 78/8/5 80/6/5
f 73/9/4 74/14/4 78/8/4
f 73/10/3 77/7/3 79/5/3
f 80/6/1 78/8/1 74/13/1
