# Blender 5.0.1
# www.blender.org
mtllib OilLamp.mtl
o OilLamp
v -0.200000 3.900000 7.800000
v -0.200000 3.400000 7.400000
v -0.200000 3.900000 7.400000
v 0.200000 3.400000 7.800000
v 0.200000 3.900000 7.800000
v 0.200000 3.400000 7.400000
v 0.200000 3.900000 7.400000
v 0.000000 3.470392 7.849999
v 0.000000 3.450000 7.799999
v 0.068733 3.484064 7.849999
v 0.076537 3.465225 7.799999
v 0.127002 3.522998 7.849999
v 0.141421 3.508579 7.799999
v 0.165936 3.581267 7.849999
v 0.184776 3.573464 7.799999
v 0.179608 3.650000 7.849999
v 0.200000 3.650000 7.799999
v 0.165936 3.718734 7.849999
v 0.184776 3.726537 7.799999
v 0.127002 3.777003 7.849999
v 0.141421 3.791422 7.799999
v 0.068733 3.815937 7.849999
v 0.076537 3.834776 7.799999
v -0.000000 3.829609 7.849999
v -0.000000 3.850000 7.799999
v -0.068733 3.815937 7.849999
v -0.076537 3.834776 7.799999
v -0.127002 3.777003 7.849999
v -0.141421 3.791422 7.799999
v -0.165936 3.718734 7.849999
v -0.184776 3.726537 7.799999
v -0.179608 3.650000 7.849999
v -0.200000 3.650000 7.799999
v -0.165936 3.581267 7.849999
v -0.184776 3.573464 7.799999
v -0.127002 3.522998 7.849999
v -0.141421 3.508579 7.799999
v -0.068733 3.484064 7.849999
v -0.076537 3.465225 7.799999
v 0.190000 3.420000 7.789999
v 0.190000 3.890000 7.789999
v 0.210000 3.420000 7.810000
v 0.210000 3.890000 7.810000
v 0.210000 3.420000 7.789999
v 0.210000 3.890000 7.789999
v -0.190000 3.890000 7.789999
v -0.190000 3.420000 7.789999
v -0.190000 3.890000 7.810000
v -0.190000 3.420000 7.810000
v -0.210000 3.890000 7.789999
v -0.210000 3.420000 7.789999
v -0.210000 3.890000 7.810000
v -0.210000 3.420000 7.810000
v -0.220500 3.400000 7.820499
v -0.210000 3.420000 7.809999
v -0.220500 3.400000 7.379499
v -0.210000 3.420000 7.389999
v 0.220500 3.400000 7.820499
v 0.210000 3.420000 7.809999
v 0.220500 3.400000 7.379499
v 0.210000 3.420000 7.389999
v 0.210000 3.910000 7.389999
v 0.210000 3.890000 7.389999
v 0.210000 3.910000 7.809999
v 0.210000 3.890000 7.809999
v -0.210000 3.910000 7.389999
v -0.210000 3.890000 7.389999
v -0.210000 3.910000 7.809999
v -0.210000 3.890000 7.809999
v 0.000000 3.650000 7.400000
v 0.200000 3.430000 7.720000
v 0.200000 3.870000 7.720000
v 0.200000 3.430000 7.480000
v 0.200000 3.870000 7.480000
v 0.240000 3.450000 7.700000
v 0.240000 3.850000 7.700000
v 0.240000 3.450000 7.500000
v 0.240000 3.850000 7.500000
v 0.200000 3.650000 7.800000
v 0.200000 3.650000 7.400000
v -0.200000 3.650000 7.400000
v -0.200000 3.650000 7.800000
v -0.140000 3.790000 7.800000
v -0.200000 3.400000 7.800000
v 0.000000 3.900000 7.400000
v 0.000000 3.400000 7.400000
v -0.200000 3.430000 7.720000
v -0.200000 3.870000 7.720000
v -0.200000 3.430000 7.480000
v -0.200000 3.870000 7.480000
v -0.240000 3.450000 7.700000
v -0.240000 3.850000 7.700000
v -0.240000 3.450000 7.500000
v -0.240000 3.850000 7.500000
v 0.000000 3.450000 7.849999
v 0.076537 3.465225 7.849999
v 0.141421 3.508579 7.849999
v 0.184776 3.573464 7.849999
v 0.200000 3.650000 7.849999
v 0.184776 3.726537 7.849999
v 0.141421 3.791422 7.849999
v 0.076537 3.834776 7.849999
v -0.000000 3.850000 7.849999
v -0.076537 3.834776 7.849999
v -0.141421 3.791422 7.849999
v -0.184776 3.726537 7.849999
v -0.200000 3.650000 7.849999
v -0.184776 3.573464 7.849999
v -0.141421 3.508579 7.849999
v -0.076537 3.465225 7.849999
v 0.000000 3.470392 7.750000
v 0.068733 3.484064 7.750000
v 0.127002 3.522998 7.750000
v 0.165936 3.581267 7.750000
v 0.179608 3.650000 7.750000
v 0.165936 3.718734 7.750000
v 0.127002 3.777003 7.750000
v 0.068733 3.815937 7.750000
v -0.000000 3.829609 7.750000
v -0.068733 3.815937 7.750000
v -0.127002 3.777003 7.750000
v -0.165936 3.718734 7.750000
v -0.179608 3.650000 7.750000
v -0.165936 3.581267 7.750000
v -0.127002 3.522998 7.750000
v -0.068733 3.484064 7.750000
v 0.000000 3.650001 7.599999
v 0.137462 3.960000 7.462539
v -0.137462 3.960000 7.462539
v -0.137462 3.960000 7.737462
v 0.171827 3.940000 7.771828
v 0.171827 3.940000 7.428173
v -0.171827 3.940000 7.428173
v -0.171827 3.940000 7.771828
v 0.190919 3.920000 7.790919
v -0.190919 3.920000 7.409081
v -0.190919 3.920000 7.790919
v 0.190919 3.920000 7.409081
v 0.200000 3.900000 7.400000
v 0.200000 3.900000 7.800000
v -0.200000 3.900000 7.400000
v -0.200000 3.900000 7.800000
v 0.137462 3.960000 7.737462
v -0.116842 3.980000 7.716843
v -0.116842 3.980000 7.483158
v 0.116842 3.980000 7.483158
v 0.116842 3.980000 7.716843
v -0.105158 4.000000 7.705159
v -0.105158 4.000000 7.494842
v 0.105158 4.000000 7.494842
v 0.105158 4.000000 7.705159
v -0.099900 4.020000 7.699901
v -0.099900 4.020000 7.500100
v 0.099900 4.020000 7.500100
v 0.099900 4.020000 7.699901
v -0.097403 4.040000 7.697403
v -0.097403 4.040000 7.502597
v 0.097403 4.040000 7.502597
v 0.097403 4.040000 7.697403
v -0.097403 4.060000 7.697403
v -0.097403 4.060000 7.502597
v 0.097403 4.060000 7.502597
v 0.097403 4.060000 7.697403
v -0.116883 4.080000 7.716884
v -0.116883 4.080000 7.483117
v 0.116883 4.080000 7.483117
v 0.116883 4.080000 7.716884
v -0.116883 4.100000 7.716884
v -0.116883 4.100000 7.483117
v 0.116883 4.100000 7.483117
v 0.116883 4.100000 7.716884
v 0.190000 3.890000 7.810000
v 0.190000 3.420000 7.810000
v 0.190000 3.420000 7.389999
v 0.190000 3.890000 7.389999
v 0.210000 3.420000 7.410000
v 0.210000 3.890000 7.410000
v 0.210000 3.420000 7.389999
v 0.210000 3.890000 7.389999
v 0.190000 3.890000 7.410000
v 0.190000 3.420000 7.410000
v -0.210000 3.420000 7.389999
v -0.210000 3.890000 7.389999
v -0.190000 3.420000 7.410000
v -0.190000 3.890000 7.410000
v -0.190000 3.420000 7.389999
v -0.190000 3.890000 7.389999
v -0.210000 3.890000 7.410000
v -0.210000 3.420000 7.410000
v -0.140000 3.510000 7.800000
v 0.000000 3.450000 7.800000
v 0.140000 3.510000 7.800000
v 0.000000 3.400000 7.800000
v 0.000000 3.850000 7.800000
v 0.140000 3.790000 7.800000
v 0.000000 3.900000 7.800000
v -0.100000 4.100000 7.500000
v 0.100000 4.100000 7.500000
v -0.100000 4.100000 7.699999
v 0.100000 4.100000 7.699999
v -0.100000 4.138268 7.692388
v 0.100000 4.138268 7.692388
v -0.100000 4.170711 7.670710
v 0.100000 4.170711 7.670710
v -0.100000 4.192388 7.638268
v 0.100000 4.192388 7.638268
v -0.100000 4.200000 7.599999
v 0.100000 4.200000 7.599999
v -0.100000 4.192388 7.561731
v 0.100000 4.192388 7.561731
v -0.100000 4.170711 7.529289
v 0.100000 4.170711 7.529289
v -0.100000 4.138268 7.507611
v 0.100000 4.138268 7.507611
v -0.100000 4.100000 7.500000
v 0.100000 4.100000 7.500000
v 0.100000 4.100000 7.699999
v -0.100000 4.100000 7.699999
v -0.100000 4.138268 7.692388
v 0.100000 4.138268 7.692388
v -0.100000 4.170711 7.670710
v 0.100000 4.170711 7.670710
v -0.100000 4.192388 7.638268
v 0.100000 4.192388 7.638268
v -0.100000 4.200000 7.599999
v 0.100000 4.200000 7.599999
v -0.100000 4.192388 7.561731
v 0.100000 4.192388 7.561731
v -0.100000 4.170711 7.529289
v 0.100000 4.170711 7.529289
v -0.100000 4.138268 7.507611
v 0.100000 4.138268 7.507611
v -0.100000 4.100000 7.529999
v 0.100000 4.100000 7.529999
v 0.100000 4.100000 7.670000
v -0.100000 4.100000 7.670000
v -0.100000 4.126788 7.664671
v 0.100000 4.126788 7.664671
v -0.100000 4.149498 7.649497
v 0.100000 4.149498 7.649497
v -0.100000 4.164671 7.626787
v 0.100000 4.164671 7.626787
v -0.100000 4.170000 7.599999
v 0.100000 4.170000 7.599999
v -0.100000 4.164671 7.573212
v 0.100000 4.164671 7.573212
v -0.100000 4.149498 7.550502
v 0.100000 4.149498 7.550502
v -0.100000 4.126788 7.535328
v 0.100000 4.126788 7.535328
vn -1.0000 -0.0000 -0.0000
vn -0.0000 -0.0000 -1.0000
vn 1.0000 -0.0000 -0.0000
vn -0.0000 -0.0000 1.0000
vn -0.0000 -1.0000 -0.0000
vn 0.3827 -0.9239 -0.0000
vn 0.7071 -0.7071 -0.0000
vn 0.9239 -0.3827 -0.0000
vn 0.9239 0.3827 -0.0000
vn 0.7071 0.7071 -0.0000
vn 0.3827 0.9239 -0.0000
vn -0.0000 1.0000 -0.0000
vn -0.3827 0.9239 -0.0000
vn -0.7071 0.7071 -0.0000
vn -0.9239 0.3827 -0.0000
vn -0.9239 -0.3827 -0.0000
vn -0.7071 -0.7071 -0.0000
vn -0.3827 -0.9239 -0.0000
vn 0.6466 0.6466 0.4047
vn -0.8854 0.4648 -0.0000
vn -0.0000 0.4648 -0.8854
vn 0.8854 0.4648 -0.0000
vn -0.0000 0.4648 0.8854
vn 0.4472 -0.0000 -0.8944
vn 0.4472 -0.0000 0.8944
vn 0.4472 -0.8944 -0.0000
vn 0.4472 0.8944 -0.0000
vn -0.4472 -0.0000 -0.8944
vn -0.4472 -0.0000 0.8944
vn -0.4472 -0.8944 -0.0000
vn -0.4472 0.8944 -0.0000
vn -0.9145 -0.0000 0.4047
vn -0.8448 -0.3499 0.4047
vn -0.3499 -0.8448 0.4047
vn -0.0000 0.9145 0.4047
vn 0.3499 0.8448 0.4047
vn -0.0000 -0.9145 0.4047
vn -0.3499 0.8448 0.4047
vn 0.3499 -0.8448 0.4047
vn -0.6466 0.6466 0.4047
vn 0.6466 -0.6466 0.4047
vn -0.8448 0.3499 0.4047
vn 0.8448 -0.3499 0.4047
vn 0.9145 -0.0000 0.4047
vn 0.8448 0.3499 0.4047
vn -0.6466 -0.6466 0.4047
vn 0.7584 0.6517 -0.0000
vn 0.9123 0.4096 -0.0000
vn -0.6663 0.7456 -0.0000
vn -0.5631 0.8264 -0.0000
vn 0.6663 0.7456 -0.0000
vn 0.5631 0.8264 -0.0000
vn -0.0000 0.7456 -0.6663
vn -0.0000 0.8264 -0.5631
vn -0.0000 0.5112 -0.8595
vn -0.0000 0.5112 0.8595
vn -0.0000 0.7456 0.6663
vn -0.8595 0.5112 -0.0000
vn -0.0000 0.8264 0.5631
vn 0.8595 0.5112 -0.0000
vn -0.0000 0.4134 -0.9105
vn 0.9105 0.4134 -0.0000
vn -0.9105 0.4134 -0.0000
vn -0.0000 0.4134 0.9105
vn -0.7584 0.6517 -0.0000
vn -0.0000 0.6517 0.7584
vn -0.0000 0.6517 -0.7584
vn -0.0000 0.4096 0.9123
vn -0.0000 0.1969 0.9804
vn -0.9123 0.4096 -0.0000
vn -0.0000 0.4096 -0.9123
vn 0.9804 0.1969 -0.0000
vn 0.9979 0.0644 -0.0000
vn -0.0000 0.1969 -0.9804
vn -0.9804 0.1969 -0.0000
vn -0.9979 0.0644 -0.0000
vn -0.0000 0.0644 0.9979
vn -0.0000 0.0644 -0.9979
vn -0.0000 -0.6978 0.7163
vn -0.0000 -0.6978 -0.7163
vn 0.7163 -0.6978 -0.0000
vn -0.7163 -0.6978 -0.0000
vn -0.0000 0.1951 0.9808
vn -0.0000 0.3827 0.9239
vn -0.0000 0.7071 0.7071
vn -0.0000 0.9239 0.3827
vn -0.0000 0.9239 -0.3827
vn -0.0000 0.7071 -0.7071
vn -0.0000 0.3827 -0.9239
vn -0.0000 0.1951 -0.9808
vn -0.0000 -0.3827 -0.9239
vn -0.0000 -0.1951 -0.9808
vn -0.0000 -0.7071 -0.7071
vn -0.0000 -0.9239 -0.3827
vn -0.0000 -0.9239 0.3827
vn -0.0000 -0.7071 0.7071
vn -0.0000 -0.3827 0.9239
vn -0.0000 -0.1951 0.9808
vt 0.625000 0.000000
vt 0.500000 0.250000
vt 0.500000 0.000000
vt 0.625000 0.375000
vt 0.500000 0.500000
vt 0.500000 0.375000
vt 0.625000 0.500000
vt 0.500000 0.750000
vt 0.000000 0.000000
vt 1.000000 1.000000
vt 0.937500 0.500000
vt 1.000000 0.500000
vt 0.937500 1.000000
vt 0.875000 0.500000
vt 0.875000 1.000000
vt 0.812500 0.500000
vt 0.812500 1.000000
vt 0.750000 0.500000
vt 0.750000 1.000000
vt 0.687500 0.500000
vt 0.687500 1.000000
vt 0.625000 1.000000
vt 0.562500 0.500000
vt 0.562500 1.000000
vt 0.500000 1.000000
vt 0.437500 0.500000
vt 0.437500 1.000000
vt 0.375000 0.500000
vt 0.375000 1.000000
vt 0.312500 0.500000
vt 0.312500 1.000000
vt 0.250000 0.500000
vt 0.250000 1.000000
vt 0.187500 0.500000
vt 0.187500 1.000000
vt 0.125000 0.500000
vt 0.125000 1.000000
vt 0.062500 0.500000
vt 0.062500 1.000000
vt 0.000000 0.500000
vt 0.667520 0.449124
vt 0.597597 0.402403
vt 0.625000 0.750000
vt 0.125000 0.750000
vt 0.375000 0.750000
vt 0.625000 0.250000
vt 0.375000 0.250000
vt 0.375000 0.000000
vt 0.375000 0.375000
vt 0.750000 0.465530
vt 0.841844 0.471731
vt 0.832480 0.449123
vt 0.902402 0.402403
vt 0.919706 0.419706
vt 0.971731 0.341844
vt 0.949124 0.332480
vt 0.965530 0.250000
vt 0.990000 0.250000
vt 0.971731 0.158156
vt 0.949124 0.167520
vt 0.919706 0.080294
vt 0.902403 0.097597
vt 0.832480 0.050876
vt 0.841844 0.028269
vt 0.750000 0.010000
vt 0.750000 0.034470
vt 0.658156 0.028269
vt 0.667520 0.050876
vt 0.580294 0.080294
vt 0.597597 0.097597
vt 0.528269 0.158156
vt 0.550876 0.167520
vt 0.510000 0.250000
vt 0.534470 0.250000
vt 0.528269 0.341844
vt 0.550876 0.332480
vt 0.580294 0.419706
vt 0.658156 0.471731
vt 0.750000 0.490000
vt 0.000000 1.000000
vt 0.875000 0.750000
s 0
f 1/1/1 81/2/1 82/3/1
f 85/4/2 80/5/2 70/6/2
f 7/7/3 79/8/3 80/5/3
f 84/9/4 190/9/4 82/3/4
s 1
f 9/10/5 96/11/6 95/12/5
f 11/13/6 97/14/7 96/11/6
f 13/15/7 98/16/8 97/14/7
f 15/17/8 99/18/3 98/16/8
f 17/19/3 100/20/9 99/18/3
f 19/21/9 101/7/10 100/20/9
f 21/22/10 102/23/11 101/7/10
f 23/24/11 103/5/12 102/23/11
f 25/25/12 104/26/13 103/5/12
f 27/27/13 105/28/14 104/26/13
f 29/29/14 106/30/15 105/28/14
f 31/31/15 107/32/1 106/30/15
f 33/33/1 108/34/16 107/32/1
f 35/35/16 109/36/17 108/34/16
f 37/37/17 110/38/18 109/36/17
f 39/39/18 95/40/5 110/38/18
f 38/41/11 125/42/19 36/42/10
s 0
f 188/14/1 182/43/1 189/7/1
f 183/28/2 186/44/2 182/36/2
f 185/7/4 189/45/4 184/28/4
f 187/43/3 184/29/3 186/45/3
f 179/43/3 176/29/3 178/45/3
f 177/7/4 181/45/4 176/28/4
f 175/28/2 178/44/2 174/36/2
f 180/14/1 174/43/1 181/7/1
f 172/14/1 40/43/1 173/7/1
f 41/28/2 44/44/2 40/36/2
f 43/7/4 173/45/4 42/28/4
f 45/43/3 42/29/3 44/45/3
f 48/7/4 53/45/4 49/28/4
f 46/43/3 49/29/3 47/45/3
f 50/28/2 47/44/2 51/36/2
f 52/14/1 51/43/1 53/7/1
f 55/14/20 56/43/20 54/7/20
f 57/28/21 60/44/21 56/36/21
f 61/43/22 58/29/22 60/45/22
f 59/7/23 54/45/23 58/28/23
f 60/46/5 54/28/5 56/47/5
f 57/1/12 59/47/12 61/48/12
f 66/1/12 64/47/12 62/48/12
f 63/46/5 69/28/5 67/47/5
f 64/7/4 69/45/4 65/28/4
f 62/43/3 65/29/3 63/45/3
f 66/28/2 63/44/2 67/36/2
f 68/14/1 67/43/1 69/7/1
f 84/48/1 81/2/1 2/47/1
f 74/46/24 77/28/24 73/47/24
f 78/7/3 75/45/3 77/28/3
f 76/43/25 71/29/25 75/45/25
f 77/28/26 71/44/26 73/36/26
f 74/14/27 76/43/27 78/7/27
f 70/6/2 6/28/2 86/49/2
f 80/5/3 4/45/3 6/28/3
f 81/2/2 86/49/2 2/47/2
f 3/46/2 70/6/2 81/2/2
f 193/9/4 190/9/4 84/9/4
f 93/28/28 90/46/28 89/47/28
f 91/45/1 94/7/1 93/28/1
f 87/29/29 92/43/29 91/45/29
f 87/44/30 93/28/30 89/36/30
f 92/43/31 90/14/31 94/7/31
s 1
f 8/50/4 96/51/4 10/52/4
f 12/53/4 96/51/4 97/54/4
f 12/53/4 98/55/4 14/56/4
f 16/57/4 98/55/4 99/58/4
f 16/57/4 100/59/4 18/60/4
f 18/60/4 101/61/4 20/62/4
f 22/63/4 101/61/4 102/64/4
f 22/63/4 103/65/4 24/66/4
f 24/66/4 104/67/4 26/68/4
f 26/68/4 105/69/4 28/70/4
f 28/70/4 106/71/4 30/72/4
f 30/72/4 107/73/4 32/74/4
f 32/74/4 108/75/4 34/76/4
f 36/42/4 108/75/4 109/77/4
f 36/42/4 110/78/4 38/41/4
f 8/50/4 110/78/4 95/79/4
f 115/57/32 116/60/33 127/57/4
f 24/66/5 118/63/34 22/63/18
f 10/52/13 111/50/35 8/50/12
f 8/50/12 126/41/36 38/41/11
f 26/68/6 119/66/37 24/66/5
f 12/53/14 112/52/38 10/52/13
f 28/70/7 120/68/39 26/68/6
f 14/56/15 113/53/40 12/53/14
f 30/72/8 121/70/41 28/70/7
f 16/57/1 114/56/42 14/56/15
f 32/74/3 122/72/43 30/72/8
f 18/60/16 115/57/32 16/57/1
f 34/76/9 123/74/44 32/74/3
f 20/62/17 116/60/33 18/60/16
f 36/42/10 124/76/45 34/76/9
f 22/63/18 117/62/46 20/62/17
f 146/7/47 151/43/48 147/43/47
f 123/74/44 124/76/45 127/74/4
f 116/60/33 117/62/46 127/60/4
f 124/76/45 125/42/19 127/76/4
f 117/62/46 118/63/34 127/62/4
f 125/42/19 126/41/36 127/42/4
f 118/63/34 119/66/37 127/63/4
f 111/50/35 112/52/38 127/50/4
f 126/41/36 111/50/35 127/41/4
f 119/66/37 120/68/39 127/66/4
f 112/52/38 113/53/40 127/52/4
f 120/68/39 121/70/41 127/68/4
f 113/53/40 114/56/42 127/53/4
f 121/70/41 122/72/43 127/70/4
f 114/56/42 115/57/32 127/56/4
f 122/72/43 123/74/44 127/72/4
f 134/1/49 129/46/50 133/46/49
f 132/7/51 143/43/52 131/43/51
f 133/46/53 128/7/54 132/7/53
f 143/43/52 146/7/47 147/43/47
f 136/46/55 132/7/53 138/7/55
f 135/43/56 134/22/57 137/22/56
f 137/1/58 133/46/49 136/46/58
f 131/43/57 130/22/59 134/22/57
f 138/7/60 131/43/51 135/43/60
f 141/46/61 138/7/55 139/7/61
f 139/7/62 135/43/60 140/43/62
f 142/1/63 136/46/58 141/46/63
f 140/43/64 137/22/56 142/22/64
f 130/1/50 145/46/65 129/46/50
f 143/43/59 144/22/66 130/22/59
f 129/46/54 146/7/67 128/7/54
f 151/43/68 152/22/69 148/22/68
f 144/1/65 149/46/70 145/46/65
f 147/43/66 148/22/68 144/22/66
f 145/46/67 150/7/71 146/7/67
f 154/7/72 159/43/73 155/43/72
f 149/46/71 154/7/74 150/7/71
f 150/7/48 155/43/72 151/43/48
f 148/1/70 153/46/75 149/46/70
f 158/7/73 163/43/3 159/43/73
f 152/1/75 157/46/76 153/46/75
f 155/43/69 156/22/77 152/22/69
f 153/46/74 158/7/78 154/7/74
f 163/43/79 164/22/79 160/22/79
f 156/1/76 161/46/1 157/46/76
f 159/43/77 160/22/4 156/22/77
f 157/46/78 162/7/2 158/7/78
f 167/43/4 168/22/4 164/22/4
f 161/46/80 166/7/80 162/7/80
f 162/7/81 167/43/81 163/43/81
f 161/46/82 164/1/82 165/46/82
f 169/14/12 171/43/12 170/7/12
f 165/46/2 170/7/2 166/7/2
f 166/7/3 171/43/3 167/43/3
f 164/1/1 169/46/1 165/46/1
s 0
f 196/9/4 83/9/4 194/9/4
f 1/9/4 82/3/4 83/9/4
f 4/9/4 79/3/4 192/9/4
f 193/9/4 192/9/4 191/9/4
f 5/9/4 195/9/4 79/3/4
f 196/9/4 195/9/4 5/9/4
s 1
f 200/25/83 201/26/84 199/5/83
f 202/27/84 203/28/85 201/26/84
f 204/29/85 205/30/86 203/28/85
f 206/31/86 207/32/12 205/30/86
f 208/33/12 209/34/87 207/32/12
f 210/35/87 211/36/88 209/34/87
f 212/37/88 213/38/89 211/36/88
f 214/39/89 197/40/90 213/38/89
f 231/38/1 247/36/1 229/36/1
f 221/28/1 237/26/1 219/26/1
f 224/31/3 244/33/3 226/33/3
f 225/32/1 241/30/1 223/30/1
f 228/35/3 248/37/3 230/37/3
f 235/25/3 220/27/3 217/25/3
f 229/36/1 245/34/1 227/34/1
f 237/26/1 218/5/1 219/26/1
f 209/34/12 225/32/12 207/32/12
f 198/80/12 215/40/12 197/40/12
f 208/33/12 228/35/12 210/35/12
f 205/30/12 221/28/12 203/28/12
f 197/40/12 231/38/12 213/38/12
f 199/5/12 217/25/12 200/25/12
f 204/29/12 224/31/12 206/31/12
f 214/39/12 216/80/12 198/80/12
f 201/26/12 218/5/12 199/5/12
f 211/36/12 227/34/12 209/34/12
f 200/25/12 220/27/12 202/27/12
f 210/35/12 230/37/12 212/37/12
f 207/32/12 223/30/12 205/30/12
f 206/31/12 226/33/12 208/33/12
f 203/28/12 219/26/12 201/26/12
f 213/38/12 229/36/12 211/36/12
f 202/27/12 222/29/12 204/29/12
f 212/37/12 232/39/12 214/39/12
f 237/26/91 235/25/92 236/5/92
f 239/28/93 238/27/91 237/26/91
f 239/28/93 242/31/94 240/29/93
f 243/32/5 242/31/94 241/30/94
f 243/32/5 246/35/95 244/33/5
f 247/36/96 246/35/95 245/34/95
f 249/38/97 248/37/96 247/36/96
f 233/40/98 250/39/97 249/38/97
f 238/27/3 222/29/3 220/27/3
f 248/37/3 232/39/3 230/37/3
f 245/34/1 225/32/1 227/34/1
f 244/33/3 228/35/3 226/33/3
f 241/30/1 221/28/1 223/30/1
f 233/40/1 231/38/1 215/40/1
f 240/29/3 224/31/3 222/29/3
f 250/39/3 216/80/3 232/39/3
s 0
f 1/1/1 3/46/1 81/2/1
f 85/4/2 7/7/2 80/5/2
f 7/7/3 5/43/3 79/8/3
s 1
f 9/10/5 11/13/6 96/11/6
f 11/13/6 13/15/7 97/14/7
f 13/15/7 15/17/8 98/16/8
f 15/17/8 17/19/3 99/18/3
f 17/19/3 19/21/9 100/20/9
f 19/21/9 21/22/10 101/7/10
f 21/22/10 23/24/11 102/23/11
f 23/24/11 25/25/12 103/5/12
f 25/25/12 27/27/13 104/26/13
f 27/27/13 29/29/14 105/28/14
f 29/29/14 31/31/15 106/30/15
f 31/31/15 33/33/1 107/32/1
f 33/33/1 35/35/16 108/34/16
f 35/35/16 37/37/17 109/36/17
f 37/37/17 39/39/18 110/38/18
f 39/39/18 9/80/5 95/40/5
f 38/41/11 126/41/36 125/42/19
s 0
f 188/14/1 183/81/1 182/43/1
f 183/28/2 187/45/2 186/44/2
f 185/7/4 188/43/4 189/45/4
f 187/43/3 185/22/3 184/29/3
f 179/43/3 177/22/3 176/29/3
f 177/7/4 180/43/4 181/45/4
f 175/28/2 179/45/2 178/44/2
f 180/14/1 175/81/1 174/43/1
f 172/14/1 41/81/1 40/43/1
f 41/28/2 45/45/2 44/44/2
f 43/7/4 172/43/4 173/45/4
f 45/43/3 43/22/3 42/29/3
f 48/7/4 52/43/4 53/45/4
f 46/43/3 48/22/3 49/29/3
f 50/28/2 46/45/2 47/44/2
f 52/14/1 50/81/1 51/43/1
f 55/14/20 57/81/20 56/43/20
f 57/28/21 61/45/21 60/44/21
f 61/43/22 59/22/22 58/29/22
f 59/7/23 55/43/23 54/45/23
f 60/46/5 58/7/5 54/28/5
f 57/1/12 55/46/12 59/47/12
f 66/1/12 68/46/12 64/47/12
f 63/46/5 65/7/5 69/28/5
f 64/7/4 68/43/4 69/45/4
f 62/43/3 64/22/3 65/29/3
f 66/28/2 62/45/2 63/44/2
f 68/14/1 66/81/1 67/43/1
f 84/48/1 82/3/1 81/2/1
f 74/46/24 78/7/24 77/28/24
f 78/7/3 76/43/3 75/45/3
f 76/43/25 72/22/25 71/29/25
f 77/28/26 75/45/26 71/44/26
f 74/14/27 72/81/27 76/43/27
f 70/6/2 80/5/2 6/28/2
f 80/5/3 79/8/3 4/45/3
f 81/2/2 70/6/2 86/49/2
f 3/46/2 85/4/2 70/6/2
f 193/9/4 191/9/4 190/9/4
f 93/28/28 94/7/28 90/46/28
f 91/45/1 92/43/1 94/7/1
f 87/29/29 88/22/29 92/43/29
f 87/44/30 91/45/30 93/28/30
f 92/43/31 88/81/31 90/14/31
s 1
f 8/50/4 95/79/4 96/51/4
f 12/53/4 10/52/4 96/51/4
f 12/53/4 97/54/4 98/55/4
f 16/57/4 14/56/4 98/55/4
f 16/57/4 99/58/4 100/59/4
f 18/60/4 100/59/4 101/61/4
f 22/63/4 20/62/4 101/61/4
f 22/63/4 102/64/4 103/65/4
f 24/66/4 103/65/4 104/67/4
f 26/68/4 104/67/4 105/69/4
f 28/70/4 105/69/4 106/71/4
f 30/72/4 106/71/4 107/73/4
f 32/74/4 107/73/4 108/75/4
f 36/42/4 34/76/4 108/75/4
f 36/42/4 109/77/4 110/78/4
f 8/50/4 38/41/4 110/78/4
f 24/66/5 119/66/37 118/63/34
f 10/52/13 112/52/38 111/50/35
f 8/50/12 111/50/35 126/41/36
f 26/68/6 120/68/39 119/66/37
f 12/53/14 113/53/40 112/52/38
f 28/70/7 121/70/41 120/68/39
f 14/56/15 114/56/42 113/53/40
f 30/72/8 122/72/43 121/70/41
f 16/57/1 115/57/32 114/56/42
f 32/74/3 123/74/44 122/72/43
f 18/60/16 116/60/33 115/57/32
f 34/76/9 124/76/45 123/74/44
f 20/62/17 117/62/46 116/60/33
f 36/42/10 125/42/19 124/76/45
f 22/63/18 118/63/34 117/62/46
f 146/7/47 150/7/48 151/43/48
f 134/1/49 130/1/50 129/46/50
f 132/7/51 128/7/52 143/43/52
f 133/46/53 129/46/54 128/7/54
f 143/43/52 128/7/52 146/7/47
f 136/46/55 133/46/53 132/7/53
f 135/43/56 131/43/57 134/22/57
f 137/1/58 134/1/49 133/46/49
f 131/43/57 143/43/59 130/22/59
f 138/7/60 132/7/51 131/43/51
f 141/46/61 136/46/55 138/7/55
f 139/7/62 138/7/60 135/43/60
f 142/1/63 137/1/58 136/46/58
f 140/43/64 135/43/56 137/22/56
f 130/1/50 144/1/65 145/46/65
f 143/43/59 147/43/66 144/22/66
f 129/46/54 145/46/67 146/7/67
f 151/43/68 155/43/69 152/22/69
f 144/1/65 148/1/70 149/46/70
f 147/43/66 151/43/68 148/22/68
f 145/46/67 149/46/71 150/7/71
f 154/7/72 158/7/73 159/43/73
f 149/46/71 153/46/74 154/7/74
f 150/7/48 154/7/72 155/43/72
f 148/1/70 152/1/75 153/46/75
f 158/7/73 162/7/3 163/43/3
f 152/1/75 156/1/76 157/46/76
f 155/43/69 159/43/77 156/22/77
f 153/46/74 157/46/78 158/7/78
f 163/43/79 167/43/79 164/22/79
f 156/1/76 160/1/1 161/46/1
f 159/43/77 163/43/4 160/22/4
f 157/46/78 161/46/2 162/7/2
f 167/43/4 171/43/4 168/22/4
f 161/46/80 165/46/80 166/7/80
f 162/7/81 166/7/81 167/43/81
f 161/46/82 160/1/82 164/1/82
f 169/14/12 168/81/12 171/43/12
f 165/46/2 169/46/2 170/7/2
f 166/7/3 170/7/3 171/43/3
f 164/1/1 168/1/1 169/46/1
s 0
f 196/9/4 1/9/4 83/9/4
f 193/9/4 4/9/4 192/9/4
f 196/9/4 194/9/4 195/9/4
s 1
f 200/25/83 202/27/84 201/26/84
f 202/27/84 204/29/85 203/28/85
f 204/29/85 206/31/86 205/30/86
f 206/31/86 208/33/12 207/32/12
f 208/33/12 210/35/87 209/34/87
f 210/35/87 212/37/88 211/36/88
f 212/37/88 214/39/89 213/38/89
f 214/39/89 198/80/90 197/40/90
f 231/38/1 249/38/1 247/36/1
f 221/28/1 239/28/1 237/26/1
f 224/31/3 242/31/3 244/33/3
f 225/32/1 243/32/1 241/30/1
f 228/35/3 246/35/3 248/37/3
f 235/25/3 238/27/3 220/27/3
f 229/36/1 247/36/1 245/34/1
f 237/26/1 236/5/1 218/5/1
f 209/34/12 227/34/12 225/32/12
f 198/80/12 216/80/12 215/40/12
f 208/33/12 226/33/12 228/35/12
f 205/30/12 223/30/12 221/28/12
f 197/40/12 215/40/12 231/38/12
f 199/5/12 218/5/12 217/25/12
f 204/29/12 222/29/12 224/31/12
f 214/39/12 232/39/12 216/80/12
f 201/26/12 219/26/12 218/5/12
f 211/36/12 229/36/12 227/34/12
f 200/25/12 217/25/12 220/27/12
f 210/35/12 228/35/12 230/37/12
f 207/32/12 225/32/12 223/30/12
f 206/31/12 224/31/12 226/33/12
f 203/28/12 221/28/12 219/26/12
f 213/38/12 231/38/12 229/36/12
f 202/27/12 220/27/12 222/29/12
f 212/37/12 230/37/12 232/39/12
f 237/26/91 238/27/91 235/25/92
f 239/28/93 240/29/93 238/27/91
f 239/28/93 241/30/94 242/31/94
f 243/32/5 244/33/5 242/31/94
f 243/32/5 245/34/95 246/35/95
f 247/36/96 248/37/96 246/35/95
f 249/38/97 250/39/97 248/37/96
f 233/40/98 234/80/98 250/39/97
f 238/27/3 240/29/3 222/29/3
f 248/37/3 250/39/3 232/39/3
f 245/34/1 243/32/1 225/32/1
f 244/33/3 246/35/3 228/35/3
f 241/30/1 239/28/1 221/28/1
f 233/40/1 249/38/1 231/38/1
f 240/29/3 242/31/3 224/31/3
f 250/39/3 234/80/3 216/80/3
