# Blender 5.0.1
# www.blender.org
mtllib OilLampStand.mtl
o OilLampStand
v -0.300000 3.350000 7.900001
v -0.300000 3.400000 7.900001
v -0.300000 3.350000 7.300001
v -0.300000 3.400000 7.300001
v 0.300000 3.350000 7.900001
v 0.300000 3.400000 7.900001
v 0.300000 3.350000 7.300001
v 0.300000 3.400000 7.300001
v -0.265000 3.240000 7.375000
v -0.265000 3.350000 7.375000
v -0.265000 3.240000 7.325001
v -0.265000 3.350000 7.325001
v -0.235000 3.240000 7.375000
v -0.235000 3.350000 7.375000
v -0.235000 3.240000 7.325001
v -0.235000 3.350000 7.325001
v -0.265000 3.099999 7.460000
v -0.265000 3.350000 7.840001
v -0.265000 3.099999 7.410001
v -0.265000 3.399999 7.840001
v -0.235000 3.099999 7.460000
v -0.235000 3.350000 7.840001
v -0.235000 3.099999 7.410001
v -0.235000 3.399999 7.840001
v -0.265000 3.160000 7.460000
v -0.265000 3.185000 7.410001
v -0.235000 3.185000 7.410001
v -0.235000 3.160000 7.460000
v 0.235000 3.240000 7.375000
v 0.235000 3.350000 7.375000
v 0.235000 3.240000 7.325001
v 0.235000 3.350000 7.325001
v 0.265000 3.240000 7.375000
v 0.265000 3.350000 7.375000
v 0.265000 3.240000 7.325001
v 0.265000 3.350000 7.325001
v 0.235000 3.099999 7.460000
v 0.235000 3.350000 7.840001
v 0.235000 3.099999 7.410001
v 0.235000 3.399999 7.840001
v 0.265000 3.099999 7.460000
v 0.265000 3.350000 7.840001
v 0.265000 3.099999 7.410001
v 0.265000 3.399999 7.840001
v 0.235000 3.160000 7.460000
v 0.235000 3.185000 7.410001
v 0.265000 3.185000 7.410001
v 0.265000 3.160000 7.460000
vn -1.0000 -0.0000 -0.0000
vn -0.0000 -0.0000 -1.0000
vn 1.0000 -0.0000 -0.0000
vn -0.0000 -0.0000 1.0000
vn -0.0000 -1.0000 -0.0000
vn -0.0000 1.0000 -0.0000
vn -0.0000 0.8944 -0.4472
vn -0.0000 -0.8944 0.4472
vt 0.625000 0.000000
vt 0.375000 0.250000
vt 0.375000 0.000000
vt 0.625000 0.250000
vt 0.375000 0.500000
vt 0.625000 0.500000
vt 0.375000 0.750000
vt 0.625000 0.750000
vt 0.375000 1.000000
vt 0.125000 0.750000
vt 0.125000 0.500000
vt 0.875000 0.500000
vt 0.437500 0.000000
vt 0.437500 0.250000
vt 0.437500 0.500000
vt 0.437500 0.750000
vt 0.437500 1.000000
vt 0.625000 1.000000
vt 0.875000 0.750000
s 0
f 2/1/1 3/2/1 1/3/1
f 4/4/2 7/5/2 3/2/2
f 8/6/3 5/7/3 7/5/3
f 6/8/4 1/9/4 5/7/4
f 7/5/5 1/10/5 3/11/5
f 4/12/6 6/8/6 8/6/6
f 10/1/1 11/2/1 9/3/1
f 12/4/2 15/5/2 11/2/2
f 16/6/3 13/7/3 15/5/3
f 14/8/4 9/9/4 13/7/4
f 36/6/3 33/7/3 35/5/3
f 32/4/2 35/5/2 31/2/2
f 25/13/1 20/4/1 26/14/1
f 20/4/7 27/15/7 26/14/7
f 24/6/3 28/16/3 27/15/3
f 22/8/8 25/17/8 28/16/8
f 23/5/5 17/10/5 19/11/5
f 28/16/4 17/9/4 21/7/4
f 23/5/3 28/16/3 21/7/3
f 30/1/1 31/2/1 29/3/1
f 25/13/1 19/2/1 17/3/1
f 34/8/4 29/9/4 33/7/4
f 45/13/1 40/4/1 46/14/1
f 40/4/7 47/15/7 46/14/7
f 44/6/3 48/16/3 47/15/3
f 42/8/8 45/17/8 48/16/8
f 43/5/5 37/10/5 39/11/5
f 48/16/4 37/9/4 41/7/4
f 43/5/3 48/16/3 41/7/3
f 45/13/1 39/2/1 37/3/1
f 2/1/1 4/4/1 3/2/1
f 4/4/2 8/6/2 7/5/2
f 8/6/3 6/8/3 5/7/3
f 6/8/4 2/18/4 1/9/4
f 7/5/5 5/7/5 1/10/5
f 4/12/6 2/19/6 6/8/6
f 10/1/1 12/4/1 11/2/1
f 12/4/2 16/6/2 15/5/2
f 16/6/3 14/8/3 13/7/3
f 14/8/4 10/18/4 9/9/4
f 36/6/3 34/8/3 33/7/3
f 32/4/2 36/6/2 35/5/2
f 25/13/1 18/1/1 20/4/1
f 20/4/7 24/6/7 27/15/7
f 24/6/3 22/8/3 28/16/3
f 22/8/8 18/18/8 25/17/8
f 23/5/5 21/7/5 17/10/5
f 28/16/4 25/17/4 17/9/4
f 23/5/3 27/15/3 28/16/3
f 30/1/1 32/4/1 31/2/1
f 25/13/1 26/14/1 19/2/1
f 34/8/4 30/18/4 29/9/4
f 45/13/1 38/1/1 40/4/1
f 40/4/7 44/6/7 47/15/7
f 44/6/3 42/8/3 48/16/3
f 42/8/8 38/18/8 45/17/8
f 43/5/5 41/7/5 37/10/5
f 48/16/4 45/17/4 37/9/4
f 43/5/3 47/15/3 48/16/3
f 45/13/1 46/14/1 39/2/1
