# Blender 5.0.1
# www.blender.org
mtllib Pilot.mtl
o Pilot
v 0.050000 0.300000 9.775000
v 0.050000 0.400000 9.775000
v 0.050000 0.300000 9.675000
v 0.050000 0.400000 9.675000
v 1.000000 0.300000 8.349999
v 1.000000 0.400000 8.349999
v 1.000000 0.300000 8.250000
v 1.000000 0.400000 8.250000
v 0.000000 0.300000 9.775000
v 0.000000 0.400000 9.775000
v 0.000000 0.300000 9.675000
v 0.000000 0.400000 9.675000
v 0.050000 0.750000 8.870000
v 0.050000 0.400000 9.675000
v 0.050000 0.800000 8.870000
v 0.050000 0.400000 9.775001
v 0.000000 0.750000 8.870000
v 0.000000 0.400000 9.675000
v 0.000000 0.800000 8.870000
v 0.000000 0.400000 9.775001
v -1.050000 1.100000 8.300000
v -1.050000 1.300000 8.300000
v -1.050000 1.100000 8.200000
v -1.050000 1.300000 8.200000
v 1.050000 1.100000 8.300000
v 1.050000 1.300000 8.300000
v 1.050000 1.100000 8.200000
v 1.050000 1.300000 8.200000
v 0.150000 0.750000 8.870000
v 0.150000 0.400000 9.525001
v 0.150000 0.800000 8.870000
v 0.150000 0.400000 9.625000
v 0.100000 0.750000 8.870000
v 0.100000 0.400000 9.600000
v 0.100000 0.800000 8.870000
v 0.100000 0.400000 9.700000
v 0.550000 1.300000 8.200000
v 0.550000 0.400000 8.925000
v 0.550000 1.300000 8.300000
v 0.550000 0.400000 9.025000
v 0.500000 1.300000 8.200000
v 0.500000 0.400000 9.000000
v 0.500000 1.300000 8.300000
v 0.500000 0.400000 9.100000
v 0.400000 0.400000 9.250000
v 0.400000 1.300000 8.300000
v 0.400000 0.400000 9.150000
v 0.400000 1.300000 8.200000
v 0.450000 0.400000 9.175000
v 0.450000 1.300000 8.300000
v 0.450000 0.400000 9.075000
v 0.450000 1.300000 8.200000
v 0.200000 0.400000 9.550000
v 0.200000 0.800000 8.870000
v 0.200000 0.400000 9.450000
v 0.200000 0.750000 8.870000
v 0.250000 0.400000 9.475000
v 0.250000 0.800000 8.870000
v 0.250000 0.400000 9.375000
v 0.250000 0.750000 8.870000
v 1.000000 0.400000 8.280000
v 1.000000 0.400000 8.350000
v 0.950000 0.400000 8.280000
v 0.950000 1.300000 8.350000
v 0.950000 0.400000 8.350000
v 1.000000 1.300000 8.350000
v 1.000000 1.300000 8.280000
v 0.950000 1.300000 8.280000
v 0.000000 0.350000 8.300000
v 0.000000 0.450000 8.300000
v 0.000000 0.350000 8.250000
v 0.000000 0.450000 8.250000
v 1.010000 0.350000 8.300000
v 1.010000 0.450000 8.300000
v 1.010000 0.350000 8.250000
v 1.010000 0.450000 8.250000
v 0.300000 0.800000 8.849999
v 0.300000 0.740000 8.849999
v 0.300000 0.800000 8.870000
v 0.300000 0.720000 8.870000
v 0.000000 0.800000 8.849999
v 0.000000 0.740000 8.849999
v 0.000000 0.800000 8.870000
v 0.000000 0.720000 8.870000
v 0.000000 1.140000 8.350000
v 0.000000 1.240000 8.350000
v 0.000000 1.140000 8.280000
v 0.000000 1.240000 8.280000
v 0.170000 1.140000 8.350000
v 0.170000 1.240000 8.350000
v 0.170000 1.140000 8.280000
v 0.170000 1.240000 8.280000
v 0.000000 0.930000 8.480000
v 0.000000 1.110000 8.480000
v 0.000000 0.900000 8.150000
v 0.000000 1.140000 8.150000
v 0.110000 0.930000 8.480000
v 0.110000 1.110000 8.480000
v 0.150000 0.900000 8.150000
v 0.150000 1.140000 8.150000
v 0.060000 1.220000 8.350000
v 0.060000 1.140000 8.350000
v 0.060000 1.140000 8.460000
v 0.040000 1.220000 8.350000
v 0.040000 1.140000 8.350000
v 0.040000 1.140000 8.460000
v 0.000000 0.900000 8.480000
v 0.000000 1.140000 8.480000
v 0.150000 1.140000 8.480000
v 0.150000 0.900000 8.480000
v 0.000000 0.930000 8.400000
v 0.000000 1.110000 8.400000
v 0.110000 1.110000 8.400000
v 0.110000 0.930000 8.400000
v 0.140000 0.905000 8.485000
v 0.140000 1.130000 8.485000
v 0.140000 0.905000 8.475000
v 0.140000 1.130000 8.475000
v 0.160000 0.905000 8.485000
v 0.160000 1.130000 8.485000
v 0.160000 0.905000 8.475000
v 0.160000 1.130000 8.475000
v 0.140000 1.145000 8.485000
v 0.140000 1.145000 8.475000
v 0.155000 1.140000 8.475000
v 0.155000 1.140000 8.485000
v 0.000000 1.130000 8.485000
v 0.000000 1.130000 8.475000
v 0.000000 1.145000 8.485000
v 0.000000 1.145000 8.475000
v 0.140000 0.890000 8.475000
v 0.140000 0.890000 8.485000
v 0.155000 0.895000 8.475000
v 0.155000 0.895000 8.485000
v 0.000000 0.905000 8.475000
v 0.000000 0.905000 8.485000
v 0.000000 0.890000 8.475000
v 0.000000 0.890000 8.485000
v 0.350000 1.300000 8.200000
v 0.350000 0.400000 9.225000
v 0.350000 1.300000 8.300000
v 0.350000 0.400000 9.325000
v 0.300000 1.300000 8.200000
v 0.300000 0.400000 9.300000
v 0.300000 1.300000 8.300000
v 0.300000 0.400000 9.400000
v 0.650000 1.300000 8.200000
v 0.650000 0.400000 8.775001
v 0.650000 1.300000 8.300000
v 0.650000 0.400000 8.875000
v 0.600000 1.300000 8.200000
v 0.600000 0.400000 8.850000
v 0.600000 1.300000 8.300000
v 0.600000 0.400000 8.950000
v 0.750000 1.300000 8.200000
v 0.750000 0.400000 8.625000
v 0.750000 1.300000 8.300000
v 0.750000 0.400000 8.725000
v 0.700000 1.300000 8.200000
v 0.700000 0.400000 8.700000
v 0.700000 1.300000 8.300000
v 0.700000 0.400000 8.800000
v 0.850000 1.300000 8.200000
v 0.850000 0.400000 8.475000
v 0.850000 1.300000 8.300000
v 0.850000 0.400000 8.575000
v 0.800000 1.300000 8.200000
v 0.800000 0.400000 8.550000
v 0.800000 1.300000 8.300000
v 0.800000 0.400000 8.650000
v 0.950000 1.300000 8.200000
v 0.950000 0.400000 8.325000
v 0.950000 1.300000 8.300000
v 0.950000 0.400000 8.425000
v 0.900000 1.300000 8.200000
v 0.900000 0.400000 8.400001
v 0.900000 1.300000 8.300000
v 0.900000 0.400000 8.500000
v -0.050000 0.300000 9.775000
v -0.050000 0.400000 9.775000
v -0.050000 0.300000 9.675000
v -0.050000 0.400000 9.675000
v -1.000000 0.300000 8.349999
v -1.000000 0.400000 8.349999
v -1.000000 0.300000 8.250000
v -1.000000 0.400000 8.250000
v -0.050000 0.750000 8.870000
v -0.050000 0.400000 9.675000
v -0.050000 0.800000 8.870000
v -0.050000 0.400000 9.775001
v 1.050000 1.100000 8.300000
v 1.050000 1.300000 8.300000
v 1.050000 1.100000 8.200000
v 1.050000 1.300000 8.200000
v -1.050000 1.100000 8.300000
v -1.050000 1.300000 8.300000
v -1.050000 1.100000 8.200000
v -1.050000 1.300000 8.200000
v -0.150000 0.750000 8.870000
v -0.150000 0.400000 9.525001
v -0.150000 0.800000 8.870000
v -0.150000 0.400000 9.625000
v -0.100000 0.750000 8.870000
v -0.100000 0.400000 9.600000
v -0.100000 0.800000 8.870000
v -0.100000 0.400000 9.700000
v -0.550000 1.300000 8.200000
v -0.550000 0.400000 8.925000
v -0.550000 1.300000 8.300000
v -0.550000 0.400000 9.025000
v -0.500000 1.300000 8.200000
v -0.500000 0.400000 9.000000
v -0.500000 1.300000 8.300000
v -0.500000 0.400000 9.100000
v -0.400000 0.400000 9.250000
v -0.400000 1.300000 8.300000
v -0.400000 0.400000 9.150000
v -0.400000 1.300000 8.200000
v -0.450000 0.400000 9.175000
v -0.450000 1.300000 8.300000
v -0.450000 0.400000 9.075000
v -0.450000 1.300000 8.200000
v -0.200000 0.400000 9.550000
v -0.200000 0.800000 8.870000
v -0.200000 0.400000 9.450000
v -0.200000 0.750000 8.870000
v -0.250000 0.400000 9.475000
v -0.250000 0.800000 8.870000
v -0.250000 0.400000 9.375000
v -0.250000 0.750000 8.870000
v -1.000000 0.400000 8.280000
v -1.000000 0.400000 8.350000
v -0.950000 0.400000 8.280000
v -0.950000 1.300000 8.350000
v -0.950000 0.400000 8.350000
v -1.000000 1.300000 8.350000
v -1.000000 1.300000 8.280000
v -0.950000 1.300000 8.280000
v -1.010000 0.350000 8.300000
v -1.010000 0.450000 8.300000
v -1.010000 0.350000 8.250000
v -1.010000 0.450000 8.250000
v -0.300000 0.800000 8.849999
v -0.300000 0.740000 8.849999
v -0.300000 0.800000 8.870000
v -0.300000 0.720000 8.870000
v -0.170000 1.140000 8.350000
v -0.170000 1.240000 8.350000
v -0.170000 1.140000 8.280000
v -0.170000 1.240000 8.280000
v -0.110000 0.930000 8.480000
v -0.110000 1.110000 8.480000
v -0.150000 0.900000 8.150000
v -0.150000 1.140000 8.150000
v -0.060000 1.220000 8.350000
v -0.060000 1.140000 8.350000
v -0.060000 1.140000 8.460000
v -0.040000 1.220000 8.350000
v -0.040000 1.140000 8.350000
v -0.040000 1.140000 8.460000
v -0.150000 1.140000 8.480000
v -0.150000 0.900000 8.480000
v -0.110000 1.110000 8.400000
v -0.110000 0.930000 8.400000
v -0.140000 0.905000 8.485000
v -0.140000 1.130000 8.485000
v -0.140000 0.905000 8.475000
v -0.140000 1.130000 8.475000
v -0.160000 0.905000 8.485000
v -0.160000 1.130000 8.485000
v -0.160000 0.905000 8.475000
v -0.160000 1.130000 8.475000
v -0.140000 1.145000 8.485000
v -0.140000 1.145000 8.475000
v -0.155000 1.140000 8.475000
v -0.155000 1.140000 8.485000
v -0.140000 0.890000 8.475000
v -0.140000 0.890000 8.485000
v -0.155000 0.895000 8.475000
v -0.155000 0.895000 8.485000
v -0.350000 1.300000 8.200000
v -0.350000 0.400000 9.225000
v -0.350000 1.300000 8.300000
v -0.350000 0.400000 9.325000
v -0.300000 1.300000 8.200000
v -0.300000 0.400000 9.300000
v -0.300000 1.300000 8.300000
v -0.300000 0.400000 9.400000
v -0.650000 1.300000 8.200000
v -0.650000 0.400000 8.775001
v -0.650000 1.300000 8.300000
v -0.650000 0.400000 8.875000
v -0.600000 1.300000 8.200000
v -0.600000 0.400000 8.850000
v -0.600000 1.300000 8.300000
v -0.600000 0.400000 8.950000
v -0.750000 1.300000 8.200000
v -0.750000 0.400000 8.625000
v -0.750000 1.300000 8.300000
v -0.750000 0.400000 8.725000
v -0.700000 1.300000 8.200000
v -0.700000 0.400000 8.700000
v -0.700000 1.300000 8.300000
v -0.700000 0.400000 8.800000
v -0.850000 1.300000 8.200000
v -0.850000 0.400000 8.475000
v -0.850000 1.300000 8.300000
v -0.850000 0.400000 8.575000
v -0.800000 1.300000 8.200000
v -0.800000 0.400000 8.550000
v -0.800000 1.300000 8.300000
v -0.800000 0.400000 8.650000
v -0.950000 1.300000 8.200000
v -0.950000 0.400000 8.325000
v -0.950000 1.300000 8.300000
v -0.950000 0.400000 8.425000
v -0.900000 1.300000 8.200000
v -0.900000 0.400000 8.400001
v -0.900000 1.300000 8.300000
v -0.900000 0.400000 8.500000
vn -0.8321 -0.0000 -0.5547
vn 1.0000 -0.0000 -0.0000
vn 0.8321 -0.0000 0.5547
vn -0.0000 -1.0000 -0.0000
vn -0.0000 1.0000 -0.0000
vn -0.0000 -0.0000 -1.0000
vn -0.0000 -0.0000 1.0000
vn -0.0000 0.9146 0.4043
vn -0.0000 -0.9171 -0.3987
vn -1.0000 -0.0000 -0.0000
vn -0.0000 0.8836 0.4682
vn -0.5441 -0.7566 -0.3627
vn -0.0000 0.6273 0.7788
vn -0.7463 -0.4422 -0.4975
vn -0.7180 -0.5053 -0.4787
vn -0.0000 0.6971 0.7170
vn -0.6126 -0.6767 -0.4084
vn -0.0000 0.8342 0.5515
vn -0.0000 -0.7071 -0.7071
vn -0.0000 0.8087 0.5882
vn 0.8944 0.4472 -0.0000
vn 0.3162 0.9487 -0.0000
vn 0.3162 -0.9487 -0.0000
vn 0.8944 -0.4472 -0.0000
vn -0.0000 0.7514 0.6598
vn -0.6887 -0.5612 -0.4591
vn -0.0000 0.5384 0.8427
vn -0.7724 -0.3719 -0.5149
vn -0.0000 0.4270 0.9042
vn -0.7951 -0.2945 -0.5301
vn -0.0000 0.2922 0.9564
vn -0.8133 -0.2109 -0.5422
vn -0.0000 0.1376 0.9905
vn -0.8258 -0.1223 -0.5505
vn 0.8321 -0.0000 -0.5547
vn -0.8321 -0.0000 0.5547
vn -0.0000 -0.8820 -0.4713
vn -0.0000 -0.6273 -0.7788
vn -0.0000 -0.6971 -0.7170
vn -0.0000 -0.8219 -0.5696
vn -0.8944 0.4472 -0.0000
vn -0.3162 0.9487 -0.0000
vn -0.3162 -0.9487 -0.0000
vn -0.8944 -0.4472 -0.0000
vn -0.0000 -0.7514 -0.6598
vn -0.0000 -0.5384 -0.8427
vn -0.0000 -0.4270 -0.9042
vn -0.0000 -0.2922 -0.9564
vn -0.0000 -0.1376 -0.9905
vn 0.5457 0.7549 0.3638
vn 0.7463 0.4422 0.4975
vn 0.7180 0.5053 0.4787
vn 0.6054 0.6861 0.4036
vn 0.6887 0.5612 0.4591
vn 0.7724 0.3719 0.5149
vn 0.7951 0.2945 0.5301
vn 0.8133 0.2109 0.5422
vn 0.8258 0.1223 0.5505
vn -0.5457 0.7549 0.3638
vn 0.5441 -0.7566 -0.3627
vn -0.7463 0.4422 0.4975
vn 0.7463 -0.4422 -0.4975
vn 0.7180 -0.5053 -0.4787
vn -0.7180 0.5053 0.4787
vn 0.6126 -0.6767 -0.4084
vn -0.6054 0.6861 0.4036
vn -0.6887 0.5612 0.4591
vn 0.6887 -0.5612 -0.4591
vn -0.7724 0.3719 0.5149
vn 0.7724 -0.3719 -0.5149
vn -0.7951 0.2945 0.5301
vn 0.7951 -0.2945 -0.5301
vn -0.8133 0.2109 0.5422
vn 0.8133 -0.2109 -0.5422
vn -0.8258 0.1223 0.5505
vn 0.8258 -0.1223 -0.5505
vt 0.625000 0.250000
vt 0.375000 0.500000
vt 0.375000 0.250000
vt 0.625000 0.500000
vt 0.375000 0.750000
vt 0.625000 0.750000
vt 0.375000 1.000000
vt 0.125000 0.500000
vt 0.125000 0.750000
vt 0.875000 0.500000
vt 0.625000 1.000000
vt 0.625000 0.000000
vt 0.375000 0.000000
vt 0.614583 0.766667
vt 0.385417 0.766667
vt 0.385417 0.983333
vt 0.614583 0.983333
vt 0.875000 0.750000
s 0
f 4/1/1 7/2/1 3/3/1
f 8/4/2 5/5/2 7/2/2
f 6/6/3 1/7/3 5/5/3
f 3/8/4 5/5/4 1/9/4
f 4/10/5 6/6/5 8/4/5
f 1/9/4 11/8/4 3/8/4
f 3/3/6 12/1/6 4/1/6
f 2/11/7 9/7/7 1/7/7
f 15/3/2 14/12/2 13/13/2
f 19/2/8 16/1/8 15/3/8
f 13/7/9 18/6/9 17/5/9
f 22/12/10 23/3/10 21/13/10
f 24/1/6 27/2/6 23/3/6
f 28/4/2 25/5/2 27/2/2
f 26/6/7 21/7/7 25/5/7
f 27/2/4 21/9/4 23/8/4
f 24/10/5 26/6/5 28/4/5
f 31/3/2 30/12/2 29/13/2
f 35/2/11 32/1/11 31/3/11
f 35/2/10 34/6/10 36/4/10
f 33/5/12 30/11/12 34/6/12
f 39/3/2 38/12/2 37/13/2
f 43/2/13 40/1/13 39/3/13
f 43/2/10 42/6/10 44/4/10
f 41/5/14 38/11/14 42/6/14
f 48/5/15 51/11/15 47/6/15
f 46/2/10 47/6/10 45/4/10
f 46/2/16 49/1/16 50/3/16
f 50/3/2 51/12/2 52/13/2
f 56/5/17 59/11/17 55/6/17
f 54/2/10 55/6/10 53/4/10
f 54/2/18 57/1/18 58/3/18
f 58/3/2 59/12/2 60/13/2
f 66/3/2 61/12/2 67/13/2
f 64/2/7 62/1/7 66/3/7
f 68/5/10 65/4/10 64/2/10
f 67/7/6 63/6/6 68/5/6
f 63/6/4 62/10/4 65/4/4
f 67/9/5 64/2/5 66/8/5
f 72/1/6 75/2/6 71/3/6
f 76/4/2 73/5/2 75/2/2
f 74/6/7 69/7/7 73/5/7
f 75/2/4 69/9/4 71/8/4
f 72/10/5 74/6/5 76/4/5
f 81/10/5 79/6/5 77/4/5
f 78/2/19 84/9/19 82/8/19
f 79/6/7 84/7/7 80/5/7
f 78/2/2 79/6/2 80/5/2
f 81/1/6 78/2/6 82/3/6
f 86/12/10 87/3/10 85/13/10
f 88/1/6 91/2/6 87/3/6
f 92/4/2 89/5/2 91/2/2
f 90/6/7 85/7/7 89/5/7
f 91/2/4 85/9/4 87/8/4
f 88/10/5 90/6/5 92/4/5
f 141/3/2 140/12/2 139/13/2
f 96/1/6 99/2/6 95/3/6
f 100/4/2 110/5/2 99/2/2
f 98/14/10 114/15/10 97/15/10
f 99/2/4 107/9/4 95/8/4
f 96/10/5 109/6/5 100/4/5
f 104/10/20 103/6/20 101/4/20
f 102/2/4 106/9/4 105/8/4
f 102/2/2 101/4/2 103/5/2
f 104/1/6 102/2/6 105/3/6
f 106/12/10 104/1/10 105/3/10
f 113/14/7 111/16/7 114/15/7
f 97/15/7 109/6/7 98/14/7
f 97/15/7 107/7/7 110/5/7
f 98/14/7 108/11/7 94/17/7
f 97/15/5 111/16/5 93/16/5
f 116/12/10 117/3/10 115/13/10
f 94/17/4 113/14/4 98/14/4
f 118/1/6 121/2/6 117/3/6
f 122/4/2 119/5/2 121/2/2
f 120/6/7 115/7/7 119/5/7
f 117/3/6 133/2/6 131/3/6
f 122/4/21 126/6/21 120/6/21
f 124/10/22 126/6/22 125/4/22
f 118/1/6 130/1/6 124/1/6
f 116/11/7 126/6/7 123/11/7
f 118/1/6 125/4/6 122/4/6
f 116/12/4 128/1/4 118/1/4
f 123/11/7 127/11/7 116/11/7
f 124/10/5 129/18/5 123/18/5
f 133/2/23 132/9/23 131/8/23
f 132/9/4 137/8/4 131/8/4
f 119/5/24 133/2/24 121/2/24
f 115/7/7 134/5/7 119/5/7
f 131/3/6 135/3/6 117/3/6
f 117/3/5 136/13/5 115/13/5
f 115/7/7 138/7/7 132/7/7
f 145/2/25 142/1/25 141/3/25
f 145/2/10 144/6/10 146/4/10
f 143/5/26 140/11/26 144/6/26
f 149/3/2 148/12/2 147/13/2
f 153/2/27 150/1/27 149/3/27
f 153/2/10 152/6/10 154/4/10
f 151/5/28 148/11/28 152/6/28
f 157/3/2 156/12/2 155/13/2
f 161/2/29 158/1/29 157/3/29
f 161/2/10 160/6/10 162/4/10
f 159/5/30 156/11/30 160/6/30
f 165/3/2 164/12/2 163/13/2
f 169/2/31 166/1/31 165/3/31
f 169/2/10 168/6/10 170/4/10
f 167/5/32 164/11/32 168/6/32
f 173/3/2 172/12/2 171/13/2
f 177/2/33 174/1/33 173/3/33
f 177/2/10 176/6/10 178/4/10
f 175/5/34 172/11/34 176/6/34
f 185/2/35 182/1/35 181/3/35
f 183/5/10 186/4/10 185/2/10
f 179/7/36 184/6/36 183/5/36
f 181/8/4 183/5/4 185/2/4
f 184/6/5 182/10/5 186/4/5
f 11/8/4 179/9/4 181/8/4
f 12/1/6 181/3/6 182/1/6
f 9/7/7 180/11/7 179/7/7
f 188/12/10 189/3/10 187/13/10
f 190/1/8 19/2/8 189/3/8
f 18/6/9 187/7/9 17/5/9
f 193/3/2 192/12/2 191/13/2
f 197/2/6 194/1/6 193/3/6
f 195/5/10 198/4/10 197/2/10
f 191/7/7 196/6/7 195/5/7
f 191/9/4 197/2/4 193/8/4
f 196/6/5 194/10/5 198/4/5
f 200/12/10 201/3/10 199/13/10
f 202/1/11 205/2/11 201/3/11
f 205/2/2 204/6/2 203/5/2
f 203/5/37 200/11/37 199/7/37
f 208/12/10 209/3/10 207/13/10
f 210/1/13 213/2/13 209/3/13
f 213/2/2 212/6/2 211/5/2
f 211/5/38 208/11/38 207/7/38
f 218/5/39 221/11/39 222/7/39
f 216/2/2 217/6/2 218/5/2
f 219/1/16 216/2/16 220/3/16
f 221/12/10 220/3/10 222/13/10
f 226/5/40 229/11/40 230/7/40
f 224/2/2 225/6/2 226/5/2
f 227/1/18 224/2/18 228/3/18
f 229/12/10 228/3/10 230/13/10
f 231/12/10 236/3/10 237/13/10
f 232/1/7 234/2/7 236/3/7
f 235/4/2 238/5/2 234/2/2
f 233/6/6 237/7/6 238/5/6
f 232/10/4 233/6/4 235/4/4
f 234/2/5 237/9/5 236/8/5
f 241/2/6 72/1/6 71/3/6
f 239/5/10 242/4/10 241/2/10
f 69/7/7 240/6/7 239/5/7
f 69/9/4 241/2/4 71/8/4
f 240/6/5 72/10/5 242/4/5
f 245/6/5 81/10/5 243/4/5
f 84/9/19 244/2/19 82/8/19
f 84/7/7 245/6/7 246/5/7
f 244/2/10 245/6/10 243/4/10
f 244/2/6 81/1/6 82/3/6
f 249/2/6 88/1/6 87/3/6
f 247/5/10 250/4/10 249/2/10
f 85/7/7 248/6/7 247/5/7
f 85/9/4 249/2/4 87/8/4
f 248/6/5 88/10/5 250/4/5
f 282/12/10 283/3/10 281/13/10
f 253/2/6 96/1/6 95/3/6
f 262/5/10 254/4/10 253/2/10
f 264/15/2 252/14/2 251/15/2
f 107/9/4 253/2/4 95/8/4
f 261/6/5 96/10/5 254/4/5
f 255/4/20 260/18/20 258/10/20
f 260/9/4 256/2/4 259/8/4
f 256/2/10 257/5/10 255/4/10
f 256/2/6 258/1/6 259/3/6
f 260/12/2 259/3/2 258/1/2
f 111/16/7 263/14/7 264/15/7
f 261/6/7 251/15/7 252/14/7
f 251/15/7 107/7/7 93/16/7
f 108/11/7 252/14/7 94/17/7
f 111/16/5 251/15/5 93/16/5
f 267/3/2 266/12/2 265/13/2
f 263/14/4 94/17/4 252/14/4
f 271/2/6 268/1/6 267/3/6
f 269/5/10 272/4/10 271/2/10
f 265/7/7 270/6/7 269/5/7
f 267/3/6 279/2/6 271/2/6
f 276/6/41 272/4/41 270/6/41
f 276/6/42 274/10/42 275/4/42
f 130/1/6 268/1/6 274/1/6
f 266/11/7 276/6/7 270/6/7
f 275/4/6 268/1/6 272/4/6
f 128/1/4 266/12/4 268/1/4
f 127/11/7 273/11/7 266/11/7
f 129/18/5 274/10/5 273/18/5
f 278/9/43 279/2/43 277/8/43
f 137/8/4 278/9/4 277/8/4
f 279/2/44 269/5/44 271/2/44
f 280/5/7 265/7/7 269/5/7
f 135/3/6 277/3/6 267/3/6
f 136/13/5 267/3/5 265/13/5
f 138/7/7 265/7/7 278/7/7
f 284/1/25 287/2/25 283/3/25
f 287/2/2 286/6/2 285/5/2
f 285/5/45 282/11/45 281/7/45
f 290/12/10 291/3/10 289/13/10
f 292/1/27 295/2/27 291/3/27
f 295/2/2 294/6/2 293/5/2
f 293/5/46 290/11/46 289/7/46
f 298/12/10 299/3/10 297/13/10
f 300/1/29 303/2/29 299/3/29
f 303/2/2 302/6/2 301/5/2
f 301/5/47 298/11/47 297/7/47
f 306/12/10 307/3/10 305/13/10
f 308/1/31 311/2/31 307/3/31
f 311/2/2 310/6/2 309/5/2
f 309/5/48 306/11/48 305/7/48
f 314/12/10 315/3/10 313/13/10
f 316/1/33 319/2/33 315/3/33
f 319/2/2 318/6/2 317/5/2
f 317/5/49 314/11/49 313/7/49
f 4/1/1 8/4/1 7/2/1
f 8/4/2 6/6/2 5/5/2
f 6/6/3 2/11/3 1/7/3
f 3/8/4 7/2/4 5/5/4
f 4/10/5 2/18/5 6/6/5
f 1/9/4 9/9/4 11/8/4
f 3/3/6 11/3/6 12/1/6
f 2/11/7 10/11/7 9/7/7
f 15/3/2 16/1/2 14/12/2
f 19/2/8 20/4/8 16/1/8
f 13/7/9 14/11/9 18/6/9
f 22/12/10 24/1/10 23/3/10
f 24/1/6 28/4/6 27/2/6
f 28/4/2 26/6/2 25/5/2
f 26/6/7 22/11/7 21/7/7
f 27/2/4 25/5/4 21/9/4
f 24/10/5 22/18/5 26/6/5
f 31/3/2 32/1/2 30/12/2
f 35/2/50 36/4/50 32/1/50
f 35/2/10 33/5/10 34/6/10
f 33/5/37 29/7/37 30/11/37
f 39/3/2 40/1/2 38/12/2
f 43/2/51 44/4/51 40/1/51
f 43/2/10 41/5/10 42/6/10
f 41/5/38 37/7/38 38/11/38
f 48/5/39 52/7/39 51/11/39
f 46/2/10 48/5/10 47/6/10
f 46/2/52 45/4/52 49/1/52
f 50/3/2 49/1/2 51/12/2
f 56/5/40 60/7/40 59/11/40
f 54/2/10 56/5/10 55/6/10
f 54/2/53 53/4/53 57/1/53
f 58/3/2 57/1/2 59/12/2
f 66/3/2 62/1/2 61/12/2
f 64/2/7 65/4/7 62/1/7
f 68/5/10 63/6/10 65/4/10
f 67/7/6 61/11/6 63/6/6
f 63/6/4 61/18/4 62/10/4
f 67/9/5 68/5/5 64/2/5
f 72/1/6 76/4/6 75/2/6
f 76/4/2 74/6/2 73/5/2
f 74/6/7 70/11/7 69/7/7
f 75/2/4 73/5/4 69/9/4
f 72/10/5 70/18/5 74/6/5
f 81/10/5 83/18/5 79/6/5
f 78/2/19 80/5/19 84/9/19
f 79/6/7 83/11/7 84/7/7
f 78/2/2 77/4/2 79/6/2
f 81/1/6 77/4/6 78/2/6
f 86/12/10 88/1/10 87/3/10
f 88/1/6 92/4/6 91/2/6
f 92/4/2 90/6/2 89/5/2
f 90/6/7 86/11/7 85/7/7
f 91/2/4 89/5/4 85/9/4
f 88/10/5 86/18/5 90/6/5
f 141/3/2 142/1/2 140/12/2
f 96/1/6 100/4/6 99/2/6
f 100/4/2 109/6/2 110/5/2
f 98/14/10 113/14/10 114/15/10
f 99/2/4 110/5/4 107/9/4
f 96/10/5 108/18/5 109/6/5
f 104/10/20 106/18/20 103/6/20
f 102/2/4 103/5/4 106/9/4
f 104/1/6 101/4/6 102/2/6
f 113/14/7 112/17/7 111/16/7
f 97/15/7 110/5/7 109/6/7
f 97/15/7 93/16/7 107/7/7
f 98/14/7 109/6/7 108/11/7
f 97/15/5 114/15/5 111/16/5
f 116/12/10 118/1/10 117/3/10
f 94/17/4 112/17/4 113/14/4
f 118/1/6 122/4/6 121/2/6
f 122/4/2 120/6/2 119/5/2
f 120/6/7 116/11/7 115/7/7
f 117/3/6 121/2/6 133/2/6
f 122/4/21 125/4/21 126/6/21
f 124/10/22 123/18/22 126/6/22
f 118/1/6 128/1/6 130/1/6
f 116/11/7 120/6/7 126/6/7
f 118/1/6 124/1/6 125/4/6
f 116/12/4 127/12/4 128/1/4
f 123/11/7 129/11/7 127/11/7
f 124/10/5 130/10/5 129/18/5
f 133/2/23 134/5/23 132/9/23
f 132/9/4 138/9/4 137/8/4
f 119/5/24 134/5/24 133/2/24
f 115/7/7 132/7/7 134/5/7
f 131/3/6 137/3/6 135/3/6
f 117/3/5 135/3/5 136/13/5
f 115/7/7 136/7/7 138/7/7
f 145/2/54 146/4/54 142/1/54
f 145/2/10 143/5/10 144/6/10
f 143/5/45 139/7/45 140/11/45
f 149/3/2 150/1/2 148/12/2
f 153/2/55 154/4/55 150/1/55
f 153/2/10 151/5/10 152/6/10
f 151/5/46 147/7/46 148/11/46
f 157/3/2 158/1/2 156/12/2
f 161/2/56 162/4/56 158/1/56
f 161/2/10 159/5/10 160/6/10
f 159/5/47 155/7/47 156/11/47
f 165/3/2 166/1/2 164/12/2
f 169/2/57 170/4/57 166/1/57
f 169/2/10 167/5/10 168/6/10
f 167/5/48 163/7/48 164/11/48
f 173/3/2 174/1/2 172/12/2
f 177/2/58 178/4/58 174/1/58
f 177/2/10 175/5/10 176/6/10
f 175/5/49 171/7/49 172/11/49
f 185/2/35 186/4/35 182/1/35
f 183/5/10 184/6/10 186/4/10
f 179/7/36 180/11/36 184/6/36
f 181/8/4 179/9/4 183/5/4
f 184/6/5 180/18/5 182/10/5
f 11/8/4 9/9/4 179/9/4
f 12/1/6 11/3/6 181/3/6
f 9/7/7 10/11/7 180/11/7
f 188/12/10 190/1/10 189/3/10
f 190/1/8 20/4/8 19/2/8
f 18/6/9 188/11/9 187/7/9
f 193/3/2 194/1/2 192/12/2
f 197/2/6 198/4/6 194/1/6
f 195/5/10 196/6/10 198/4/10
f 191/7/7 192/11/7 196/6/7
f 191/9/4 195/5/4 197/2/4
f 196/6/5 192/18/5 194/10/5
f 200/12/10 202/1/10 201/3/10
f 202/1/59 206/4/59 205/2/59
f 205/2/2 206/4/2 204/6/2
f 203/5/60 204/6/60 200/11/60
f 208/12/10 210/1/10 209/3/10
f 210/1/61 214/4/61 213/2/61
f 213/2/2 214/4/2 212/6/2
f 211/5/62 212/6/62 208/11/62
f 218/5/63 217/6/63 221/11/63
f 216/2/2 215/4/2 217/6/2
f 219/1/64 215/4/64 216/2/64
f 221/12/10 219/1/10 220/3/10
f 226/5/65 225/6/65 229/11/65
f 224/2/2 223/4/2 225/6/2
f 227/1/66 223/4/66 224/2/66
f 229/12/10 227/1/10 228/3/10
f 231/12/10 232/1/10 236/3/10
f 232/1/7 235/4/7 234/2/7
f 235/4/2 233/6/2 238/5/2
f 233/6/6 231/11/6 237/7/6
f 232/10/4 231/18/4 233/6/4
f 234/2/5 238/5/5 237/9/5
f 241/2/6 242/4/6 72/1/6
f 239/5/10 240/6/10 242/4/10
f 69/7/7 70/11/7 240/6/7
f 69/9/4 239/5/4 241/2/4
f 240/6/5 70/18/5 72/10/5
f 245/6/5 83/18/5 81/10/5
f 84/9/19 246/5/19 244/2/19
f 84/7/7 83/11/7 245/6/7
f 244/2/10 246/5/10 245/6/10
f 244/2/6 243/4/6 81/1/6
f 249/2/6 250/4/6 88/1/6
f 247/5/10 248/6/10 250/4/10
f 85/7/7 86/11/7 248/6/7
f 85/9/4 247/5/4 249/2/4
f 248/6/5 86/18/5 88/10/5
f 282/12/10 284/1/10 283/3/10
f 253/2/6 254/4/6 96/1/6
f 262/5/10 261/6/10 254/4/10
f 264/15/2 263/14/2 252/14/2
f 107/9/4 262/5/4 253/2/4
f 261/6/5 108/18/5 96/10/5
f 255/4/20 257/6/20 260/18/20
f 260/9/4 257/5/4 256/2/4
f 256/2/6 255/4/6 258/1/6
f 111/16/7 112/17/7 263/14/7
f 261/6/7 262/5/7 251/15/7
f 251/15/7 262/5/7 107/7/7
f 108/11/7 261/6/7 252/14/7
f 111/16/5 264/15/5 251/15/5
f 267/3/2 268/1/2 266/12/2
f 263/14/4 112/17/4 94/17/4
f 271/2/6 272/4/6 268/1/6
f 269/5/10 270/6/10 272/4/10
f 265/7/7 266/11/7 270/6/7
f 267/3/6 277/3/6 279/2/6
f 276/6/41 275/4/41 272/4/41
f 276/6/42 273/18/42 274/10/42
f 130/1/6 128/1/6 268/1/6
f 266/11/7 273/11/7 276/6/7
f 275/4/6 274/1/6 268/1/6
f 128/1/4 127/12/4 266/12/4
f 127/11/7 129/11/7 273/11/7
f 129/18/5 130/10/5 274/10/5
f 278/9/43 280/5/43 279/2/43
f 137/8/4 138/9/4 278/9/4
f 279/2/44 280/5/44 269/5/44
f 280/5/7 278/7/7 265/7/7
f 135/3/6 137/3/6 277/3/6
f 136/13/5 135/3/5 267/3/5
f 138/7/7 136/7/7 265/7/7
f 284/1/67 288/4/67 287/2/67
f 287/2/2 288/4/2 286/6/2
f 285/5/68 286/6/68 282/11/68
f 290/12/10 292/1/10 291/3/10
f 292/1/69 296/4/69 295/2/69
f 295/2/2 296/4/2 294/6/2
f 293/5/70 294/6/70 290/11/70
f 298/12/10 300/1/10 299/3/10
f 300/1/71 304/4/71 303/2/71
f 303/2/2 304/4/2 302/6/2
f 301/5/72 302/6/72 298/11/72
f 306/12/10 308/1/10 307/3/10
f 308/1/73 312/4/73 311/2/73
f 311/2/2 312/4/2 310/6/2
f 309/5/74 310/6/74 306/11/74
f 314/12/10 316/1/10 315/3/10
f 316/1/75 320/4/75 319/2/75
f 319/2/2 320/4/2 318/6/2
f 317/5/76 318/6/76 314/11/76
