# Blender 5.0.1
# www.blender.org
mtllib Whistle.mtl
o Whistle
v -0.100000 4.100000 2.620000
v -0.100000 4.150000 2.620000
v -0.043431 4.100000 2.643431
v -0.043431 4.150000 2.643431
v -0.020000 4.100000 2.700000
v -0.020000 4.150000 2.700000
v -0.043431 4.100000 2.756568
v -0.043431 4.150000 2.756568
v -0.100000 4.100000 2.780000
v -0.100000 4.150000 2.780000
v -0.156569 4.100000 2.756568
v -0.156569 4.150000 2.756568
v -0.180000 4.100000 2.700000
v -0.180000 4.150000 2.700000
v -0.156569 4.100000 2.643431
v -0.156569 4.150000 2.643431
v -0.100000 4.100000 2.650000
v -0.064645 4.100000 2.664644
v -0.050000 4.100000 2.700000
v -0.064645 4.100000 2.735355
v -0.100000 4.100000 2.750000
v -0.135355 4.100000 2.735355
v -0.150000 4.100000 2.700000
v -0.135355 4.100000 2.664644
v -0.100000 4.040000 2.650000
v -0.064645 4.040000 2.664644
v -0.050000 4.040000 2.700000
v -0.064645 4.040000 2.735355
v -0.100000 4.040000 2.750000
v -0.135355 4.040000 2.735355
v -0.150000 4.040000 2.700000
v -0.135355 4.040000 2.664644
v -0.100000 4.200001 2.620000
v -0.100000 4.500000 2.620000
v -0.043431 4.200001 2.643431
v -0.043431 4.500000 2.643431
v -0.020000 4.200001 2.700000
v -0.020000 4.500000 2.700000
v -0.043431 4.200001 2.756568
v -0.043431 4.500000 2.756568
v -0.100000 4.200001 2.780000
v -0.100000 4.500000 2.780000
v -0.156569 4.200001 2.756568
v -0.156569 4.500000 2.756568
v -0.180000 4.200001 2.700000
v -0.180000 4.500000 2.700000
v -0.156569 4.200001 2.643431
v -0.156569 4.500000 2.643431
v -0.100000 4.200000 2.660000
v -0.071716 4.200000 2.671715
v -0.060000 4.200000 2.700000
v -0.071716 4.200000 2.728284
v -0.100000 4.200000 2.740000
v -0.128284 4.200000 2.728284
v -0.140000 4.200000 2.700000
v -0.128284 4.200000 2.671715
v -0.100000 4.150001 2.660000
v -0.071716 4.150001 2.671715
v -0.060000 4.150001 2.700000
v -0.071716 4.150001 2.728284
v -0.100000 4.150001 2.740000
v -0.128284 4.150001 2.728284
v -0.140000 4.150001 2.700000
v -0.128284 4.150001 2.671715
v -0.100000 4.530001 2.676000
v -0.083029 4.530001 2.683029
v -0.076000 4.530001 2.700000
v -0.083029 4.530001 2.716970
v -0.100000 4.530001 2.724000
v -0.116971 4.530001 2.716970
v -0.124000 4.530001 2.700000
v -0.116971 4.530001 2.683029
v -0.100000 4.500001 2.676000
v -0.083029 4.500001 2.683029
v -0.076000 4.500001 2.700000
v -0.083029 4.500001 2.716970
v -0.100000 4.500001 2.724000
v -0.116971 4.500001 2.716970
v -0.124000 4.500001 2.700000
v -0.116971 4.500001 2.683029
v -0.100000 4.095001 2.699999
v -0.082322 4.087678 2.699999
v -0.075000 4.070001 2.699999
v -0.082322 4.052323 2.699999
v -0.100000 4.045001 2.699999
v -0.117678 4.052323 2.699999
v -0.125000 4.070001 2.699999
v -0.117678 4.087678 2.699999
v -0.100000 4.095001 2.600000
v -0.082322 4.087678 2.600000
v -0.075000 4.070001 2.600000
v -0.082322 4.052323 2.600000
v -0.100000 4.045001 2.600000
v -0.117678 4.052323 2.600000
v -0.125000 4.070001 2.600000
v -0.117678 4.087678 2.600000
v -0.084375 4.111049 2.621048
v -0.084375 4.100001 2.625625
v -0.084375 4.088953 2.621048
v -0.084375 4.084376 2.610000
v -0.084375 4.088953 2.598952
v -0.084375 4.100001 2.594375
v -0.084375 4.111049 2.598952
v -0.084375 4.115625 2.610000
v -0.090000 4.110001 2.410000
v -0.090000 4.090001 2.410000
v -0.090000 4.110001 2.610000
v -0.090000 4.090001 2.610000
v -0.110000 4.110001 2.410000
v -0.110000 4.090001 2.410000
v -0.110000 4.110001 2.610000
v -0.110000 4.090001 2.610000
v -0.115625 4.115625 2.610000
v -0.115625 4.111049 2.598952
v -0.115625 4.100001 2.594375
v -0.115625 4.088953 2.598952
v -0.115625 4.084376 2.610000
v -0.115625 4.088953 2.621048
v -0.115625 4.100001 2.625625
v -0.115625 4.111049 2.621048
vn -0.0000 -0.0000 -1.0000
vn 0.7071 -0.0000 -0.7071
vn 1.0000 -0.0000 -0.0000
vn 0.7071 -0.0000 0.7071
vn -0.0000 -0.0000 1.0000
vn -0.7071 -0.0000 0.7071
vn -1.0000 -0.0000 -0.0000
vn -0.0000 1.0000 -0.0000
vn -0.7071 -0.0000 -0.7071
vn -0.0000 -1.0000 -0.0000
vn 0.7071 0.7071 -0.0000
vn -0.7071 0.7071 -0.0000
vn -0.7071 -0.7071 -0.0000
vn 0.7071 -0.7071 -0.0000
vn -0.0000 -0.7071 0.7071
vn -0.0000 0.7071 0.7071
vn -0.0000 0.7071 -0.7071
vn -0.0000 -0.7071 -0.7071
vt 1.000000 1.000000
vt 0.875000 0.500000
vt 1.000000 0.500000
vt 0.875000 1.000000
vt 0.750000 0.500000
vt 0.750000 1.000000
vt 0.625000 0.500000
vt 0.625000 1.000000
vt 0.500000 0.500000
vt 0.500000 1.000000
vt 0.375000 0.500000
vt 0.375000 1.000000
vt 0.250000 0.500000
vt 0.010000 0.250000
vt 0.250000 0.010000
vt 0.490000 0.250000
vt 0.250000 1.000000
vt 0.125000 0.500000
vt 0.125000 1.000000
vt 0.000000 0.500000
vt 0.919706 0.080294
vt 0.580294 0.080294
vt 0.580294 0.419706
vt 0.990000 0.250000
vt 0.919706 0.419706
vt 0.510000 0.250000
vt 0.750000 0.010000
vt 0.750000 0.490000
vt 0.625000 0.000000
vt 0.375000 0.250000
vt 0.375000 0.000000
vt 0.625000 0.250000
vt 0.625000 0.750000
vt 0.375000 0.750000
vt 0.125000 0.750000
vt 0.419706 0.419706
vt 0.250000 0.490000
vt 0.080294 0.419706
vt 0.080294 0.080294
vt 0.419706 0.080294
vt 0.000000 1.000000
vt 0.875000 0.750000
s 1
f 2/1/1 3/2/2 1/3/1
f 4/4/2 5/5/3 3/2/2
f 6/6/3 7/7/4 5/5/3
f 8/8/4 9/9/5 7/7/4
f 10/10/5 11/11/6 9/9/5
f 12/12/6 13/13/7 11/11/6
f 14/14/8 10/15/8 6/16/8
f 14/17/7 15/18/9 13/13/7
f 16/19/9 1/20/1 15/18/9
f 7/21/10 11/22/10 15/23/10
f 36/4/2 37/5/3 35/2/2
f 34/1/1 35/2/2 33/3/1
f 19/24/3 26/25/2 18/25/2
f 24/23/9 31/26/7 23/26/7
f 22/22/6 29/27/5 21/27/5
f 20/21/4 27/24/3 19/24/3
f 18/25/2 25/28/1 17/28/1
f 17/28/1 32/23/9 24/23/9
f 23/26/7 30/22/6 22/22/6
f 21/27/5 28/21/4 20/21/4
f 38/6/3 39/7/4 37/5/3
f 40/8/4 41/9/5 39/7/4
f 42/10/5 43/11/6 41/9/5
f 44/12/6 45/13/7 43/11/6
f 46/14/8 42/15/8 38/16/8
f 46/17/7 47/18/9 45/13/7
f 48/19/9 33/20/1 47/18/9
f 39/21/10 43/22/10 47/23/10
f 51/24/3 58/25/2 50/25/2
f 56/23/9 63/26/7 55/26/7
f 54/22/6 61/27/5 53/27/5
f 52/21/4 59/24/3 51/24/3
f 50/25/2 57/28/1 49/28/1
f 49/28/1 64/23/9 56/23/9
f 55/26/7 62/22/6 54/22/6
f 53/27/5 60/21/4 52/21/4
f 67/24/3 74/25/2 66/25/2
f 72/23/9 79/26/7 71/26/7
f 70/22/6 77/27/5 69/27/5
f 68/21/4 75/24/3 67/24/3
f 66/25/2 73/28/1 65/28/1
f 65/28/1 80/23/9 72/23/9
f 71/26/7 78/22/6 70/22/6
f 69/27/5 76/21/4 68/21/4
f 71/26/8 69/27/8 67/24/8
f 83/24/3 90/25/11 82/25/11
f 88/23/12 95/26/7 87/26/7
f 86/22/13 93/27/10 85/27/10
f 84/21/14 91/24/3 83/24/3
f 82/25/11 89/28/8 81/28/8
f 81/28/8 96/23/12 88/23/12
f 87/26/7 94/22/13 86/22/13
f 85/27/10 92/21/14 84/21/14
f 92/21/1 94/22/1 96/23/1
f 99/22/15 117/27/10 100/27/10
f 97/23/16 119/26/5 98/26/5
f 102/24/1 114/25/17 103/25/17
s 0
f 109/29/8 107/30/8 105/31/8
f 106/32/10 112/11/10 110/30/10
f 105/33/3 108/12/3 106/34/3
f 109/11/1 106/35/1 110/18/1
f 111/2/7 110/33/7 112/7/7
s 1
f 101/21/18 115/24/1 102/24/1
f 103/25/17 113/28/8 104/28/8
f 104/28/8 120/23/16 97/23/16
f 98/26/5 118/22/15 99/22/15
f 100/27/10 116/21/18 101/21/18
f 116/21/7 118/22/7 120/23/7
f 99/22/3 101/21/3 103/25/3
f 2/1/1 4/4/2 3/2/2
f 4/4/2 6/6/3 5/5/3
f 6/6/3 8/8/4 7/7/4
f 8/8/4 10/10/5 9/9/5
f 10/10/5 12/12/6 11/11/6
f 12/12/6 14/17/7 13/13/7
f 6/16/8 4/36/8 2/37/8
f 2/37/8 16/38/8 14/14/8
f 14/14/8 12/39/8 10/15/8
f 10/15/8 8/40/8 6/16/8
f 6/16/8 2/37/8 14/14/8
f 14/17/7 16/19/9 15/18/9
f 16/19/9 2/41/1 1/20/1
f 15/23/10 1/28/10 3/25/10
f 3/25/10 5/24/10 7/21/10
f 7/21/10 9/27/10 11/22/10
f 11/22/10 13/26/10 15/23/10
f 15/23/10 3/25/10 7/21/10
f 36/4/2 38/6/3 37/5/3
f 34/1/1 36/4/2 35/2/2
f 19/24/3 27/24/3 26/25/2
f 24/23/9 32/23/9 31/26/7
f 22/22/6 30/22/6 29/27/5
f 20/21/4 28/21/4 27/24/3
f 18/25/2 26/25/2 25/28/1
f 17/28/1 25/28/1 32/23/9
f 23/26/7 31/26/7 30/22/6
f 21/27/5 29/27/5 28/21/4
f 38/6/3 40/8/4 39/7/4
f 40/8/4 42/10/5 41/9/5
f 42/10/5 44/12/6 43/11/6
f 44/12/6 46/17/7 45/13/7
f 38/16/8 36/36/8 34/37/8
f 34/37/8 48/38/8 46/14/8
f 46/14/8 44/39/8 42/15/8
f 42/15/8 40/40/8 38/16/8
f 38/16/8 34/37/8 46/14/8
f 46/17/7 48/19/9 47/18/9
f 48/19/9 34/41/1 33/20/1
f 47/23/10 33/28/10 35/25/10
f 35/25/10 37/24/10 39/21/10
f 39/21/10 41/27/10 43/22/10
f 43/22/10 45/26/10 47/23/10
f 47/23/10 35/25/10 39/21/10
f 51/24/3 59/24/3 58/25/2
f 56/23/9 64/23/9 63/26/7
f 54/22/6 62/22/6 61/27/5
f 52/21/4 60/21/4 59/24/3
f 50/25/2 58/25/2 57/28/1
f 49/28/1 57/28/1 64/23/9
f 55/26/7 63/26/7 62/22/6
f 53/27/5 61/27/5 60/21/4
f 67/24/3 75/24/3 74/25/2
f 72/23/9 80/23/9 79/26/7
f 70/22/6 78/22/6 77/27/5
f 68/21/4 76/21/4 75/24/3
f 66/25/2 74/25/2 73/28/1
f 65/28/1 73/28/1 80/23/9
f 71/26/7 79/26/7 78/22/6
f 69/27/5 77/27/5 76/21/4
f 67/24/8 66/25/8 65/28/8
f 65/28/8 72/23/8 71/26/8
f 71/26/8 70/22/8 69/27/8
f 69/27/8 68/21/8 67/24/8
f 67/24/8 65/28/8 71/26/8
f 83/24/3 91/24/3 90/25/11
f 88/23/12 96/23/12 95/26/7
f 86/22/13 94/22/13 93/27/10
f 84/21/14 92/21/14 91/24/3
f 82/25/11 90/25/11 89/28/8
f 81/28/8 89/28/8 96/23/12
f 87/26/7 95/26/7 94/22/13
f 85/27/10 93/27/10 92/21/14
f 96/23/1 89/28/1 90/25/1
f 90/25/1 91/24/1 92/21/1
f 92/21/1 93/27/1 94/22/1
f 94/22/1 95/26/1 96/23/1
f 96/23/1 90/25/1 92/21/1
f 99/22/15 118/22/15 117/27/10
f 97/23/16 120/23/16 119/26/5
f 102/24/1 115/24/1 114/25/17
s 0
f 109/29/8 111/32/8 107/30/8
f 106/32/10 108/7/10 112/11/10
f 105/33/3 107/8/3 108/12/3
f 109/11/1 105/34/1 106/35/1
f 111/2/7 109/42/7 110/33/7
s 1
f 101/21/18 116/21/18 115/24/1
f 103/25/17 114/25/17 113/28/8
f 104/28/8 113/28/8 120/23/16
f 98/26/5 119/26/5 118/22/15
f 100/27/10 117/27/10 116/21/18
f 120/23/7 113/28/7 114/25/7
f 114/25/7 115/24/7 116/21/7
f 116/21/7 117/27/7 118/22/7
f 118/22/7 119/26/7 120/23/7
f 120/23/7 114/25/7 116/21/7
f 103/25/3 104/28/3 97/23/3
f 97/23/3 98/26/3 99/22/3
f 99/22/3 100/27/3 101/21/3
f 101/21/3 102/24/3 103/25/3
f 103/25/3 97/23/3 99/22/3
