# Blender 4.3.0
# www.blender.org
mtllib Pine01.mtl
g Pine_Mesh
v 0.000000 0.000000 -1.000000
v 0.000000 0.985598 -0.899885
v 0.707107 0.000000 -0.707107
v 0.636396 0.989817 -0.636315
v 1.000000 0.000000 0.000000
v 0.900000 1.000000 -0.000000
v 0.707107 0.000000 0.707107
v 0.636396 1.010183 0.636315
v 0.000000 0.000000 1.000000
v -0.000000 1.014402 0.899885
v -0.707107 0.000000 0.707107
v -0.636396 1.010183 0.636315
v -1.000000 0.000000 0.000000
v -0.900000 1.000000 0.000000
v -0.707107 0.000000 -0.707107
v -0.636396 0.989817 -0.636315
v 0.509117 3.928735 -0.613490
v 0.000000 3.924743 -0.824336
v 0.720000 3.938371 -0.104465
v 0.509117 3.948009 0.404561
v 0.000000 3.952000 0.615406
v -0.509117 3.948009 0.404561
v -0.720000 3.938371 -0.104465
v -0.509117 3.928735 -0.613490
v 0.415601 5.938179 -0.625907
v 0.000000 5.932628 -0.797965
v 0.587749 5.951579 -0.210522
v 0.415601 5.964980 0.204864
v 0.000000 5.970531 0.376922
v -0.415601 5.964980 0.204864
v -0.587749 5.951579 -0.210522
v -0.415601 5.938179 -0.625907
v 0.332481 9.969164 -0.852102
v 0.000000 9.959224 -0.989461
v 0.470199 9.993162 -0.520488
v 0.332481 10.017159 -0.188875
v 0.000000 10.027101 -0.051516
v -0.332481 10.017159 -0.188875
v -0.470199 9.993162 -0.520488
v -0.332481 9.969164 -0.852102
v 0.265987 14.185104 -1.090316
v 0.000002 14.181535 -1.200433
v 0.376161 14.193722 -0.824471
v 0.265987 14.202338 -0.558625
v 0.000002 14.205909 -0.448509
v -0.265983 14.202338 -0.558625
v -0.376158 14.193722 -0.824471
v -0.265983 14.185104 -1.090316
v 0.212786 18.993950 -1.222722
v -0.000002 18.991093 -1.310816
v 0.300926 19.000843 -1.010046
v 0.212786 19.007736 -0.797370
v -0.000002 19.010593 -0.709276
v -0.212790 19.007736 -0.797370
v -0.300929 19.000843 -1.010046
v -0.212790 18.993950 -1.222722
v 0.191507 22.309988 -1.418983
v -0.000002 22.303066 -1.498006
v 0.270833 22.326698 -1.228204
v 0.191507 22.343409 -1.037426
v -0.000002 22.350330 -0.958402
v -0.191511 22.343409 -1.037426
v -0.270837 22.326698 -1.228204
v -0.191511 22.309988 -1.418983
v 0.172356 24.992582 -1.633941
v -0.000002 24.993155 -1.705332
v 0.243750 24.991203 -1.461589
v 0.172356 24.989824 -1.289236
v -0.000002 24.989252 -1.217845
v -0.172360 24.989824 -1.289236
v -0.243753 24.991203 -1.461589
v -0.172360 24.992582 -1.633941
v 0.137885 26.859158 -1.637748
v -0.000002 26.859615 -1.694860
v 0.194999 26.858051 -1.499865
v 0.137885 26.856949 -1.361983
v -0.000002 26.856491 -1.304870
v -0.137888 26.856949 -1.361983
v -0.195003 26.858051 -1.499865
v -0.137888 26.859158 -1.637748
v -0.000003 30.991446 -1.466033
v -2.227556 7.894746 -0.868259
v 2.481870 8.228421 -0.533192
v 0.358857 7.594048 -3.278363
v 3.638673 2.702247 -8.767213
v -3.147845 6.583287 -2.781807
v -2.505177 3.513191 -7.356264
v -1.070753 2.368571 -9.102281
v 1.001525 4.523952 -7.852820
v 3.916293 7.083801 -2.279207
v 4.558961 4.013704 -6.853662
v 1.361080 2.166996 -9.483684
v -0.126081 7.269421 -5.730230
v -0.040872 5.332847 -4.115590
v 0.437781 4.021087 -8.938211
v 0.155036 6.126661 -8.021871
v 0.639687 5.231254 -6.832290
v 0.249712 3.974911 -6.227826
v 0.169576 8.651079 -3.819022
v -0.203184 6.695117 -2.281064
v 3.413260 5.792741 -5.705959
v 2.071287 7.728581 -5.360934
v 1.975300 6.884040 -4.030583
v 1.657109 5.555289 -3.652091
v -1.166415 6.129165 -2.389882
v 1.352351 6.337567 1.389731
v 5.297282 2.139641 -3.639119
v 1.547632 3.872643 -4.321271
v 2.991868 4.738354 -2.311720
v 4.346260 4.104198 -0.121700
v -4.485148 5.343706 -7.218385
v -1.114768 7.154047 -7.527729
v 1.119310 9.760469 -4.233068
v -3.860485 7.340650 -5.881154
v -5.689500 5.353145 -5.474647
v -5.532087 6.244048 -3.482592
v -3.298008 8.850470 -0.187931
v -2.744620 5.959811 -8.171405
v -1.626407 9.947073 -2.586493
v 1.276721 10.651372 -2.241014
v -1.668158 10.044705 0.455744
v 4.286732 6.987262 -2.655035
v 2.664661 5.097375 -2.161361
v 7.267447 3.624816 -3.445209
v 6.456192 5.766531 -3.251144
v 5.440025 4.877910 -2.454245
v 4.653892 3.666655 -2.702618
v 2.685721 8.400052 -1.630323
v 0.979945 6.516736 -1.593918
v 5.355549 5.299342 0.571467
v 4.712297 7.320683 -0.434894
v 3.371567 6.522296 -0.131468
v 2.816992 5.228111 -0.394444
v -1.568079 7.489014 -2.043793
v 1.847573 7.617041 0.354460
v 1.447984 7.015159 -2.666021
v 6.007228 2.340550 -5.159071
v -1.497626 6.284453 -3.868586
v 0.813294 3.353069 -6.931659
v 2.591576 2.212522 -7.557325
v 3.758904 4.083775 -5.729093
v 3.625854 6.476495 -0.271205
v 5.936774 3.545111 -3.334278
v 4.576714 1.924769 -6.725768
v 2.057413 8.911942 0.832010
v -2.120739 9.658061 -1.213613
v -1.280921 8.548776 1.969200
v -6.666495 3.364823 4.723779
v 2.091783 7.326914 2.662837
v -0.433637 3.830671 5.961387
v -2.488343 2.618706 6.769401
v -3.806340 5.052532 5.267752
v -4.175446 8.446093 -0.405600
v -6.700865 4.949850 2.892952
v -4.880470 2.572213 6.142416
v -1.816393 7.910085 4.318434
v -1.340752 6.192264 2.433276
v -3.738203 4.387685 6.370209
v -3.027128 6.544897 6.065229
v -3.041368 5.837002 4.620174
v -2.498640 4.636207 3.970611
v -1.275097 9.513774 2.743458
v -0.409982 7.731240 1.099891
v -5.120089 6.742141 2.643996
v -3.668911 8.581635 3.230878
v -3.092274 7.893208 1.890907
v -2.707673 6.601042 1.404693
v 1.347287 8.178418 -0.236314
v -1.421031 8.016832 0.597045
v 0.440057 7.701964 1.652796
v 0.227048 4.291141 5.018335
v 2.405606 7.390883 0.537856
v 3.321205 5.321054 2.994128
v 2.995366 4.452727 4.184976
v 1.355657 5.632135 4.109067
v -1.746871 7.148504 1.787893
v -0.831271 5.078675 4.244165
v 1.721079 4.123554 4.896409
v -3.337066 8.068338 2.597230
v -4.779619 5.506205 3.082994
v 0.767254 8.804952 -1.193103
v -4.968168 4.721295 0.552022
v 0.208543 6.781797 -0.738020
v -0.524509 5.893442 3.809542
v -2.560871 4.917177 4.016607
v -2.819094 6.486712 1.489928
v -0.828322 9.323591 0.848770
v -4.135455 5.599621 -1.387336
v -4.194884 4.541047 2.606280
v 0.658201 9.772670 0.721884
v -0.747058 7.109475 -1.462977
v 0.961033 4.916415 5.247834
v 1.287654 7.987750 3.924310
v -0.198563 6.846058 2.563727
v -0.273744 5.028642 1.496688
v -2.852846 6.908341 1.066786
v -2.184996 5.244124 0.834131
v -0.184167 8.421236 -1.182302
v 4.083778 3.917973 3.264254
v 4.850420 5.050666 -2.551525
v 6.025119 3.974767 -0.766145
v 3.965922 5.766982 0.762150
v 1.938408 4.965475 3.494073
v 5.552461 3.627859 1.482390
v -0.781168 7.422227 1.595159
v 1.080688 7.572700 -2.007894
v -1.850941 7.304377 -1.251976
v -5.665118 3.516064 -5.740793
v -2.745698 6.483135 1.666389
v -6.493368 4.229449 -0.407443
v -7.526974 3.365592 -2.137740
v -5.598611 5.050692 -3.325809
v 0.047084 6.708842 -3.738190
v -3.700586 4.455156 -5.812023
v -7.045766 3.170385 -4.188127
v -3.972765 7.238764 -1.687597
v -2.915644 5.458020 -1.249783
v -6.697292 4.723985 -3.248629
v -5.815444 6.446891 -2.688015
v -4.832094 5.577437 -2.690255
v -4.640866 4.468286 -2.201555
v -0.947563 7.876190 -2.928975
v 0.348561 7.929685 1.628350
v 2.168607 7.350161 -1.342791
v 8.095143 2.119080 -0.475353
v 0.449869 6.571570 -4.535796
v 4.753525 3.343457 -5.704520
v 6.799019 2.065585 -5.032678
v 6.472262 4.122046 -2.511516
v 2.394055 6.651813 2.300192
v 6.697712 3.423698 1.131468
v 7.963521 1.704957 -2.894264
v 5.644113 4.693742 4.494974
v 2.442542 6.517062 5.560960
v -0.301886 9.302536 2.932998
v 4.832607 6.758976 3.438886
v 6.497762 4.778086 2.557933
v 5.991477 5.767318 0.695906
v 3.247050 8.552791 -1.932056
v 4.131803 5.277915 5.801305
v 2.088178 9.544450 0.810925
v -0.808167 10.291768 1.070971
v 1.557791 9.791939 -2.172399
v 0.395530 9.934350 -1.692553
v -1.216365 6.589281 4.737329
v 3.919566 7.512722 2.560225
v 2.999045 6.766589 4.540202
v 0.728860 8.179828 3.134186
v -2.403550 7.246762 2.855917
v 0.931339 6.467391 5.217976
v 3.881480 5.387683 -7.259707
v 5.553142 7.179559 -4.300367
v 3.505563 9.905335 -1.025421
v 2.991100 7.432480 -6.209192
v 1.811501 5.465130 -7.704294
v 0.080335 6.430616 -6.813103
v -1.967244 9.156391 -3.538157
v 5.460039 5.964426 -6.029137
v 0.943522 10.158255 -2.934245
v 1.774396 10.870821 -0.134233
v -1.874142 10.371527 -1.809390
v -0.029345 11.933882 -1.404741
v -7.180777 5.441272 0.483055
v -0.612853 6.750114 4.576450
v -3.274266 5.178953 4.849033
v -4.241311 7.842024 2.005454
v -6.472620 7.143594 -1.972517
v -5.732959 4.819088 3.075269
v -1.423050 8.920890 -2.884045
v 0.520799 9.162153 2.001638
v 6.197063 4.302289 -2.745021
v 2.114739 6.308554 -4.418856
v 3.267217 7.310772 -1.795974
v 4.274570 6.576622 1.009682
v 5.711848 8.081128 4.281436
v 2.539909 9.402956 5.127277
v -0.448336 11.330846 2.522079
v 4.602235 9.731539 3.116305
v 6.431960 8.099595 2.501782
v 5.776008 8.764311 0.726189
v 2.787766 10.692200 -1.879008
v 4.274558 8.525357 5.435843
v 1.613990 11.659430 0.511109
v -1.104283 11.995562 0.746486
v 1.053118 11.569798 -2.187573
v 3.077697 11.139345 4.790446
v 0.457483 12.139772 4.431110
v -1.090662 13.540962 1.557967
v 2.511177 12.461595 3.509948
v 4.102040 11.126281 3.689202
v 4.087839 11.596151 2.161711
v 2.539696 12.997340 -0.711429
v 1.681800 11.488694 5.202135
v 0.963032 13.862784 0.636807
v -1.104859 14.010834 0.030478
v 1.315380 13.648420 -1.482454
v 4.025046 12.138649 -5.855593
v 4.728350 13.167658 -3.299358
v 2.692092 14.608878 -0.738569
v 3.068794 13.498674 -4.828061
v 2.605923 12.125211 -6.364717
v 1.204035 12.608506 -5.748608
v -0.832222 14.049725 -3.187821
v 4.955468 12.497978 -4.731881
v 1.032537 14.939894 -2.267273
v 1.290204 15.092174 -0.122463
v -1.059341 14.719406 -1.755298
v 4.032825 14.845919 3.093138
v 1.761804 15.384199 3.345765
v -0.273293 16.053627 1.306163
v 3.155106 15.637825 2.093077
v 4.597127 14.799463 1.972904
v 4.187344 15.003840 0.719324
v 2.152250 15.673266 -1.320278
v 2.980100 15.053036 3.723866
v 1.120010 16.307253 0.053475
v -0.683073 16.258005 0.052582
v 0.933954 16.004433 -1.698380
v 4.989282 16.764484 -0.082784
v 3.489296 17.244192 1.185346
v 1.059737 17.840775 0.704339
v 3.883763 17.470219 -0.376176
v 4.855476 16.723087 -1.152676
v 3.962523 16.905224 -1.851162
v 1.532965 17.501802 -2.332170
v 4.539992 16.949064 0.871665
v 1.454204 18.066801 -0.857182
v 0.166786 18.022911 0.005852
v 0.482270 17.796934 -2.018488
v -3.833139 18.111732 0.558361
v -3.261163 18.581842 -1.121560
v -1.155607 19.166489 -1.879051
v -2.840391 18.803349 0.271400
v -3.231863 18.071163 1.324813
v -2.215337 18.249657 1.450491
v -0.109782 18.834299 0.693001
v -3.929081 18.292620 -0.389889
v -0.734836 19.387995 -0.486090
v -0.139082 19.344982 -1.753372
v 0.558136 19.123526 -0.038670
v 3.941441 21.926926 -0.438045
v 2.716782 22.163704 0.597316
v 0.733174 22.458168 0.204599
v 3.038843 22.275267 -0.677584
v 3.832196 21.906492 -1.311555
v 3.103147 21.996393 -1.881833
v 1.119540 22.290857 -2.274550
v 3.574620 22.018032 0.341212
v 1.055236 22.569735 -1.070301
v 0.004126 22.548071 -0.365679
v 0.261703 22.436531 -2.018446
v 2.900124 24.980715 0.399301
v 1.603413 24.725924 0.844013
v 0.145274 24.409058 -0.084250
v 2.255507 24.605871 -0.071547
v 3.084133 25.002705 -0.330365
v 2.680369 24.905964 -1.010806
v 1.222231 24.589098 -1.939069
v 2.366162 24.882675 0.906183
v 0.797368 24.289001 -0.999810
v -0.258488 24.312311 -0.764691
v 0.459483 24.432341 -2.001238
v 2.632266 26.557436 -0.878909
v 1.752181 26.116369 -0.182272
v 0.373416 25.567846 -0.501782
v 2.006263 25.908548 -1.066857
v 2.575566 26.595501 -1.492439
v 2.078435 26.428036 -1.907837
v 0.699670 25.879513 -2.227347
v 2.358063 26.387720 -0.342062
v 0.627498 25.360020 -1.386366
v -0.123714 25.400370 -0.917179
v 0.093788 25.608150 -2.067556
v 1.558812 28.336445 -0.495365
v 0.667628 28.142416 -0.334219
v -0.113090 27.499437 -0.913848
v 1.189504 27.754356 -0.653800
v 1.788600 28.165741 -0.873289
v 1.638049 27.861774 -1.259324
v 0.857332 27.218796 -1.838951
v 1.141652 28.352831 -0.256551
v 0.408785 27.111374 -1.233425
v -0.263641 27.195465 -1.299879
v 0.383307 27.008371 -1.916616
v 0.156792 29.626467 0.118663
v -0.417856 29.471424 -0.321196
v -0.495393 28.957640 -1.094304
v 0.051723 29.161337 -0.184775
v 0.503706 29.490063 0.051118
v 0.650800 29.247171 -0.245512
v 0.573262 28.733387 -1.018620
v -0.208732 29.639561 0.000662
v -0.025816 28.647549 -0.957882
v -0.348302 28.714743 -1.390931
v 0.364136 28.565243 -1.340476
v 0.168631 31.423929 -0.362103
v -0.427662 31.149204 -0.703707
v -0.541311 30.433174 -1.288576
v 0.053369 30.890968 -0.510852
v 0.513124 31.272934 -0.407305
v 0.646728 30.953985 -0.628761
v 0.533079 30.237957 -1.213629
v -0.203138 31.403076 -0.457267
v -0.060282 30.174936 -1.095719
v -0.407708 30.114222 -1.510028
v 0.308553 29.984077 -1.460065
v 0.436837 33.157166 -1.413715
v -0.436424 32.617939 -1.426231
v -0.674459 31.348587 -1.447109
v 0.281240 32.446457 -1.267933
v 0.907929 32.924290 -1.415116
v 1.062542 32.376274 -1.422914
v 0.824507 31.106926 -1.443792
v -0.091383 33.085400 -1.417325
v 0.043204 31.177107 -1.288809
v -0.519847 30.800573 -1.454903
v 0.479464 30.639463 -1.452693
v 4.959559 13.718259 -3.012997
v 4.494980 14.575292 -0.877402
v 2.026726 15.816834 0.179018
v 3.873504 14.761688 -2.653315
v 4.117426 13.726289 -3.943731
v 2.857153 14.152430 -4.049912
v 0.388900 15.393971 -2.993494
v 5.209311 14.008198 -1.828722
v 1.405252 16.003233 -1.596895
v 0.766454 16.242977 0.072834
v -0.325431 15.961068 -2.042174
v -0.647931 16.757946 -0.607125
v 4.412071 13.242114 2.732836
v 3.548878 13.654309 -2.774153
v 5.085132 12.903719 -1.374846
v 3.613370 14.669968 0.323842
v 2.539286 14.161902 3.387371
v 5.259960 12.822358 0.790712
v -0.423192 11.448185 -6.415206
v 1.699108 12.633874 -5.263584
v 1.929740 14.417696 -2.399997
v -0.440588 12.906803 -5.279498
v -1.730432 11.490176 -5.846615
v -2.305635 12.117671 -4.588696
v -2.075003 13.901491 -1.725111
v 0.939399 11.834311 -6.296538
v -0.209956 14.690625 -2.415912
v 1.354535 15.045190 -1.142082
v -1.315296 14.701056 -0.692157
v 1.397431 9.690031 -6.166868
v 3.056813 10.875720 -4.412776
v 2.386202 12.659542 -1.619283
v 1.027987 11.148649 -5.092788
v -0.021779 9.732022 -6.032634
v -0.959390 10.359517 -5.015726
v -1.630002 12.143337 -2.222234
v 2.655692 10.076157 -5.630665
v 0.357376 12.932471 -2.299296
v 1.448590 13.287036 -0.602378
v -1.228882 12.942903 -1.004346
v 6.243878 9.906035 -1.013898
v 4.707708 11.071894 1.440421
v 1.213079 12.772302 1.559016
v 4.827220 11.361705 -1.097369
v 5.637164 9.922323 -2.594767
v 4.145631 10.508605 -3.344875
v 0.651004 12.209012 -3.226280
v 6.011882 10.297848 0.595433
v 1.332592 13.062114 -0.978772
v -0.278451 13.358583 0.808905
v -0.653168 12.983058 -2.381293
v -3.418404 9.995912 3.907336
v -4.317812 11.316158 1.574203
v -2.536758 13.302862 -0.770128
v -2.637067 11.553329 3.087018
v -1.987638 10.042872 4.368738
v -0.666699 10.741833 3.802363
v 1.114355 12.728535 1.458034
v -4.421715 10.425756 2.883296
v -0.856015 13.540033 0.742688
v -1.215818 14.001822 -1.336499
v 1.218258 13.618938 0.148942
v -5.627154 9.814070 0.499184
v -4.413458 10.814497 -1.850620
v -1.188264 12.215687 -2.350443
v -4.230982 11.136318 0.392792
v -4.931195 9.801004 1.832473
v -3.486647 10.270876 2.329174
v -0.261455 11.672064 1.829352
v -5.549068 10.163418 -0.954059
v -1.005789 12.537508 -0.107031
v 0.256281 12.685558 -1.853739
v 0.874154 12.323145 0.932791
v 0.782561 13.327342 -0.878401
v -3.060183 8.651665 -5.737858
v -4.196960 9.708519 0.254410
v -5.242487 8.600862 -1.660500
v -3.195198 10.526437 -3.117328
v -0.923504 9.784727 -5.861628
v -4.628668 8.290154 -3.967851
v -3.769436 13.114593 2.393260
v -3.926602 13.971625 0.213376
v -1.856946 15.213168 -1.496837
v -2.829085 14.158022 1.741628
v -2.698819 13.122622 3.048418
v -1.459827 13.548763 2.794523
v 0.609828 14.790305 1.084312
v -4.343336 13.404531 1.327652
v -0.759430 15.399567 0.031417
v -0.617955 15.639311 -1.750729
v 1.026563 15.357402 -0.029963
v -4.902781 13.109056 -0.776438
v -3.642051 13.966089 -2.561698
v -0.957241 15.207632 -2.571761
v -3.762454 14.152486 -0.684039
v -4.490357 13.117086 0.409041
v -3.371310 13.543227 0.998358
v -0.686502 14.784769 0.988297
v -4.670852 13.398995 -1.964332
v -1.077646 15.394031 -0.694102
v 0.161804 15.633775 -1.982442
v 0.342299 15.351866 0.390930
v -0.236827 16.764484 -5.892852
v 1.351724 17.244192 -4.737596
v 1.462482 17.840775 -2.263357
v -0.258809 17.470219 -4.749275
v -1.244174 16.723087 -5.508376
v -1.710189 16.905224 -4.474897
v -1.599432 17.501802 -2.000659
v 0.797103 16.949064 -5.683509
v -0.148051 18.066801 -2.275037
v 0.996466 18.022911 -1.229879
v -1.044811 17.796934 -1.054746
v -2.517694 14.579180 -5.311112
v -0.462184 15.699045 -4.891088
v 0.919462 17.428751 -2.579992
v -1.862966 16.251272 -4.153629
v -3.243265 14.639805 -4.512614
v -3.136289 15.258215 -3.327593
v -1.754645 16.987911 -1.016497
v -1.460527 14.933688 -5.554946
v -0.481320 17.980980 -1.842532
v 1.026435 18.047155 -1.394972
v -0.756301 17.753277 -0.352640
v 4.455026 14.175756 -4.760651
v 4.443690 15.214654 -2.388424
v 2.191100 16.820137 -0.489089
v 3.388803 15.691144 -3.902219
v 3.411373 14.232381 -5.455781
v 2.123665 14.806560 -5.157568
v -0.128926 16.412043 -3.258236
v 4.958057 14.504445 -3.609682
v 1.136213 17.296631 -2.002884
v 0.903393 17.394321 -0.190879
v -0.643292 17.122255 -2.036978
v -2.931899 14.845772 -3.922864
v -1.907878 15.817844 -4.295528
v -0.353485 16.810066 -2.742110
v -2.278429 15.504835 -3.083443
v -2.889195 14.660763 -2.949491
v -2.339350 14.905614 -1.934644
v -0.784956 15.897835 -0.381227
v -2.601548 15.268915 -4.523417
v -0.724037 16.497059 -1.530024
v 0.196360 17.054914 -1.727264
v -0.091288 16.446766 -0.153339
v 0.120385 16.263214 4.229191
v -1.493724 16.797861 2.750313
v -1.305625 17.462769 -0.003638
v 0.288358 17.049774 2.965524
v 1.284238 16.217075 3.929932
v 1.930117 16.420073 2.843958
v 2.118217 17.084974 0.090009
v -0.998324 16.468933 3.867502
v 0.476457 17.714682 0.211574
v -0.659745 17.665766 -1.089609
v 1.622817 17.413908 -1.027180
v -0.193879 18.162443 -1.245148
v -3.149653 15.310272 1.109643
v 0.508124 15.954955 1.789847
v -0.657657 15.279283 2.431843
v -1.550838 16.453886 1.186217
v -3.229869 16.001442 -0.193452
v -2.066491 15.089750 2.062508
v -4.272197 18.141407 -2.662084
v -2.700584 18.611517 -3.486294
v -0.652211 19.196163 -2.585558
v -3.354745 18.833023 -2.186502
v -4.364032 18.100838 -1.692265
v -3.713502 18.279331 -0.901106
v -1.665130 18.863974 -0.000370
v -3.688753 18.322294 -3.415725
v -1.306373 19.417669 -1.285766
v -0.001683 19.374657 -1.794400
v -0.676961 19.153200 -0.070940
v 2.533351 17.832594 -4.736556
v 3.104062 18.302704 -3.056205
v 1.896784 18.887350 -1.172157
v 1.921342 18.524210 -3.903884
v 1.589478 17.792025 -4.977568
v 0.707068 17.970518 -4.457497
v -0.500210 18.555161 -2.573450
v 3.187475 18.013481 -4.043373
v 0.714064 19.108856 -2.019837
v 1.014374 19.065844 -0.652088
v -0.583623 18.844387 -1.586282
v 4.421031 17.832594 -2.126359
v 3.677246 18.302704 -0.515125
v 1.504263 18.887350 0.019013
v 3.403799 18.524210 -1.944326
v 3.902828 17.792025 -2.951252
v 2.904913 17.970518 -3.182090
v 0.731931 18.555161 -2.647952
v 4.417717 18.013481 -1.173274
v 1.230818 19.108856 -1.410188
v 0.506349 19.065844 -0.211826
v -0.008540 18.844387 -1.989804
v 3.534500 17.815792 1.716373
v 1.744576 18.298685 2.061440
v -0.003258 18.899233 0.568704
v 2.773031 18.526217 0.976825
v 3.912128 17.774120 0.789716
v 3.506678 17.957466 -0.181143
v 1.758845 18.558008 -1.673879
v 2.737393 18.001598 2.284772
v 1.025199 19.126760 -0.515911
v -0.408706 19.082579 -0.402154
v 0.766028 18.855101 -1.897210
v 0.477675 19.837111 3.029534
v -0.928150 20.139608 2.182733
v -1.217895 20.681227 0.172104
v 0.364749 20.474606 2.102971
v 1.279679 19.888201 2.655773
v 1.582168 20.097891 1.785279
v 1.292423 20.639503 -0.225350
v -0.393867 19.916012 2.920743
v 0.075004 21.016220 0.092342
v -0.915406 20.890917 -0.698390
v 0.758139 20.863106 -0.963360
v -2.159108 19.813919 2.372995
v -2.704372 20.116417 0.825060
v -1.648048 20.658035 -0.910095
v -1.656434 20.451414 1.586490
v -1.302647 19.865009 2.595213
v -0.515266 20.074699 2.116369
v 0.541058 20.616312 0.381215
v -2.762052 19.892820 1.734340
v -0.600111 20.993029 -0.148665
v -0.860668 20.867725 -1.388938
v 0.598737 20.839914 -0.528065
v -3.492939 19.783094 0.530514
v -3.040788 20.085592 -1.047135
v -1.174647 20.627211 -1.849693
v -2.627605 20.420589 0.180558
v -2.923506 19.834185 1.207754
v -2.004302 20.043875 1.273503
v -0.138161 20.585487 0.470946
v -3.614498 19.861996 -0.339339
v -0.761465 20.962204 -0.622000
v -0.255444 20.836901 -1.783943
v 0.435548 20.809090 -0.236850
v 0.398699 21.010056 -0.833991
v -2.911430 19.176802 -3.679820
v -3.004688 19.539297 0.077510
v -3.920084 19.179338 -1.045085
v -2.520201 20.111738 -1.993773
v -1.491708 19.535494 -3.874591
v -3.766026 19.070272 -2.501627
v 3.982917 19.497913 -0.317372
v 2.669291 19.697687 0.692280
v 0.691900 20.265446 0.259257
v 3.076214 20.147617 -0.500258
v 3.935885 19.629686 -1.192553
v 3.240056 19.888603 -1.777372
v 1.262666 20.456356 -2.210397
v 3.555375 19.502407 0.453883
v 1.098824 20.715372 -0.933282
v -0.003927 20.524364 -0.325562
v 0.376582 20.651642 -1.971997
v 3.208457 19.497913 -3.786627
v 3.199898 19.697687 -2.129841
v 1.644839 20.265446 -0.833934
v 2.507783 20.147617 -3.182794
v 2.488467 19.629686 -4.286394
v 1.599751 19.888603 -4.095670
v 0.044692 20.456356 -2.799764
v 3.555232 19.502407 -2.975841
v 0.952724 20.715372 -1.886888
v 0.756125 20.524364 -0.643210
v -0.310641 20.651642 -1.953763
v 2.261808 21.837868 2.109878
v 0.664750 22.074646 1.964380
v -0.447903 22.369110 0.275910
v 1.798853 22.186209 1.298869
v 2.807275 21.817434 1.418922
v 2.701706 21.907335 0.499365
v 1.589055 22.201799 -1.189104
v 1.449304 21.928974 2.395600
v 0.686201 22.480677 -0.389600
v -0.553471 22.459013 -0.643646
v 0.804501 22.347473 -1.620324
v 0.080795 21.837868 2.864393
v -1.186500 22.074646 1.881678
v -1.214650 22.369110 -0.140236
v 0.127498 22.186209 1.931719
v 0.912521 21.817434 2.575976
v 1.318813 21.907335 1.744317
v 1.290663 22.201799 -0.277596
v -0.757688 21.928974 2.667550
v 0.099348 22.480677 -0.090194
v -0.808358 22.459013 -0.971894
v 0.861852 22.347473 -1.063468
v -3.989385 22.223467 -0.890361
v -3.098083 22.460245 -2.223531
v -1.083137 22.754709 -2.393588
v -3.055734 22.571808 -0.909263
v -3.643277 22.203033 -0.080939
v -2.785142 22.292934 0.265952
v -0.770197 22.587399 0.095897
v -3.851905 22.314573 -1.740596
v -1.040788 22.866276 -1.079319
v -0.225002 22.844612 -2.046696
v -0.016375 22.733072 -0.387039
v -2.507153 22.153204 -4.495192
v -0.906467 22.389982 -4.397384
v 0.256042 22.684446 -2.742844
v -2.020220 22.501545 -3.698349
v -3.031774 22.132771 -3.788278
v -2.898830 22.222672 -2.872278
v -1.736323 22.517136 -1.217739
v -1.703530 22.244310 -4.805016
v -0.857712 22.796013 -2.043811
v 0.388984 22.774349 -1.826844
v -0.939259 22.662809 -0.810107
v 0.166859 21.923628 -5.182181
v 1.384724 22.160406 -4.138836
v 1.314242 22.454870 -2.117955
v 0.074729 22.271969 -4.252894
v -0.677944 21.903194 -4.934666
v -1.124307 21.993095 -4.123809
v -1.194789 22.287560 -2.102929
v 0.994745 22.014734 -4.944684
v 0.004248 22.566437 -2.232014
v 0.867878 22.544773 -1.307099
v -0.804810 22.433233 -1.297081
v 1.057196 24.823530 1.837200
v -0.236119 24.568739 1.382709
v -0.805345 24.251873 -0.249413
v 0.843029 24.448687 1.068200
v 1.653769 24.845520 1.378537
v 1.758517 24.748779 0.594283
v 1.189292 24.431913 -1.037839
v 0.324010 24.725491 1.904155
v 0.273803 24.131817 -0.563921
v -0.700595 24.155127 -1.033666
v 0.629163 24.275156 -1.559284
v 1.952034 24.951805 -3.971751
v 2.385251 24.697014 -2.671155
v 1.444115 24.380148 -1.221290
v 1.475499 24.576962 -3.331327
v 1.224026 24.973795 -4.162212
v 0.540037 24.877054 -3.764488
v -0.401098 24.560188 -2.314625
v 2.454170 24.853765 -3.433323
v 0.534364 24.260092 -1.881463
v 0.760126 24.283401 -0.823568
v -0.470017 24.403431 -1.552457
v -2.921043 24.793592 -3.104718
v -1.648288 24.538801 -3.613956
v -0.145395 24.221935 -2.760050
v -2.253605 24.418749 -2.666819
v -3.068196 24.815582 -2.366736
v -2.630788 24.718842 -1.707419
v -1.127896 24.401976 -0.853513
v -2.413195 24.695553 -3.637762
v -0.750713 24.101879 -1.812914
v 0.292011 24.125189 -2.100732
v -0.362989 24.245218 -0.829707
v -3.280495 24.793592 -0.639734
v -2.655084 24.538801 -1.859606
v -0.960921 24.221935 -2.202612
v -2.489579 24.418749 -0.747813
v -2.906827 24.815582 0.013445
v -2.143977 24.718842 0.223410
v -0.449815 24.401976 -0.119595
v -3.247565 24.695553 -1.375234
v -0.795418 24.101879 -1.090819
v -0.198072 24.125189 -1.992645
v 0.142666 24.245218 -0.603967
v 0.009239 26.653994 1.323936
v -0.851224 26.212927 0.603202
v -0.817615 25.664404 -0.811701
v 0.066489 26.005106 0.672839
v 0.598566 26.692059 1.144137
v 0.904655 26.524593 0.573170
v 0.938265 25.976070 -0.841733
v -0.572022 26.484278 1.164158
v 0.100098 25.456577 -0.742064
v -0.511525 25.496927 -1.382667
v 0.659062 25.704708 -1.402689
v -2.595340 26.653994 -1.707948
v -1.860727 26.212927 -2.556592
v -0.446556 25.664404 -2.500009
v -1.945258 26.005106 -1.640131
v -2.425135 26.692059 -1.115779
v -1.859215 26.524593 -0.800457
v -0.445045 25.976070 -0.743873
v -2.426143 26.484278 -2.286537
v -0.531088 25.456577 -1.583547
v 0.119363 25.496927 -2.184686
v 0.120372 25.704708 -1.013928
v -1.216177 26.517218 -3.756719
v -0.105948 26.076151 -3.591660
v 0.604545 25.527628 -2.367618
v -0.924859 25.868330 -3.171622
v -1.624767 26.555283 -3.295537
v -1.587494 26.387817 -2.648772
v -0.877001 25.839294 -1.424730
v -0.637069 26.347502 -3.924129
v -0.214366 25.319801 -1.947580
v 0.641817 25.360151 -1.720854
v -0.345880 25.567932 -1.092261
v -1.077398 28.422995 -0.018917
v -1.230924 28.228966 -0.911445
v -0.644646 27.585987 -1.687182
v -0.915814 27.840906 -0.386857
v -0.701451 28.252291 0.214092
v -0.314144 27.948324 0.066845
v 0.272133 27.305346 -0.708892
v -1.312639 28.439381 -0.438102
v -0.329539 27.197924 -1.162595
v -0.257343 27.282015 -1.834429
v 0.353844 27.094921 -1.182236
v -0.237638 28.285238 -3.340985
v 0.478570 28.091209 -2.786708
v 0.570459 27.448231 -1.818696
v -0.108170 27.703150 -2.960554
v -0.672228 28.114534 -3.258765
v -0.858280 27.810568 -2.888531
v -0.766390 27.167589 -1.920521
v 0.219007 28.301624 -3.190883
v -0.016279 27.060167 -1.992544
v 0.384410 27.144258 -1.448465
v -0.506824 26.957165 -1.516347
v -1.520789 29.376827 -1.500158
v -0.999184 29.221785 -2.001778
v -0.223233 28.708000 -1.961657
v -1.204964 28.911697 -1.558191
v -1.506417 29.240423 -1.147022
v -1.235407 28.997532 -0.956814
v -0.459457 28.483747 -0.916693
v -1.348935 29.389921 -1.843667
v -0.429014 28.397909 -1.518072
v 0.047775 28.465103 -1.771451
v -0.109707 28.315603 -1.074808
v 0.679744 29.376827 -2.871118
v 0.952366 29.221785 -2.200766
v 0.627565 28.708000 -1.494923
v 0.616612 28.911697 -2.556272
v 0.346421 29.240423 -2.988626
v 0.069329 28.997532 -2.807394
v -0.255472 28.483747 -2.101552
v 0.935114 29.389921 -2.584207
v 0.291814 28.397909 -1.850429
v 0.350475 28.465103 -1.313692
v -0.238217 28.315603 -1.718110
v -0.807601 31.387323 -0.661071
v -0.862379 31.112598 -1.346095
v -0.443852 30.396568 -1.770150
v -0.749921 30.854362 -0.840193
v -0.575770 31.236328 -0.402280
v -0.317556 30.917379 -0.417063
v 0.100971 30.201351 -0.841118
v -0.938987 31.366470 -1.021634
v -0.331397 30.138330 -1.264248
v -0.185642 30.077616 -1.784933
v 0.177575 29.947472 -1.165579
v -0.891273 31.352264 -2.172491
v -0.218492 31.077539 -2.312580
v 0.254613 30.361509 -1.950422
v -0.706340 30.819304 -2.137685
v -1.119011 31.201269 -1.910091
v -1.072024 30.882320 -1.655758
v -0.598919 30.166292 -1.293601
v -0.549990 31.331411 -2.347975
v -0.233234 30.103271 -1.775529
v 0.301599 30.042557 -1.696093
v -0.267422 29.912413 -1.258211
v 0.856567 31.181894 -2.194583
v 0.856265 30.907169 -1.507372
v 0.405097 30.191139 -1.118225
v 0.784717 30.648933 -2.020660
v 0.646223 31.030899 -2.471122
v 0.387655 30.711950 -2.477082
v -0.063512 29.995922 -2.087935
v 0.958632 31.161041 -1.824648
v 0.333551 29.932901 -1.631513
v 0.146534 29.872187 -1.124185
v -0.165874 29.742043 -1.770658
v 0.517699 18.408049 -1.337879
v -0.019937 21.047810 -0.818555
v -4.382991 18.266586 -2.110713
v -1.992489 17.460014 -1.932938
v -2.103239 18.858755 -1.251483
v -2.589862 20.393082 -1.355911
v 0.128267 23.681795 -5.289357
v 0.421907 20.873829 -4.909121
v 0.164006 21.402176 -0.810735
v -0.133982 24.209723 -1.191164
v 3.243596 21.310728 -4.247925
v 2.799504 18.580505 -3.566642
v 0.000545 19.740288 -0.744736
v 0.441480 22.470335 -1.429037
v 4.987425 18.745699 -0.060058
v 4.058245 15.550743 0.206696
v -0.492944 16.779058 -0.939561
v 0.437281 19.973370 -1.211288
v -3.681148 15.461040 2.835666
v -3.010172 12.387787 1.718898
v 0.446619 14.191835 -1.167620
v -0.220906 17.264561 -0.047105
v -1.419651 14.220655 -7.864418
v -2.965607 6.524008 -4.653512
v -3.573596 7.752110 -5.183142
v -5.011204 8.474145 -5.221243
v -5.293763 6.350053 -6.034011
v -1.482808 8.016756 -3.350276
v -3.323847 9.771881 -3.861235
v 0.118581 26.334295 -1.706810
v 0.133628 24.570166 -1.197096
v -0.061626 25.307232 1.360520
v -0.079483 27.071241 0.850642
v -0.074443 10.324915 -5.732324
v 0.756718 13.757078 0.013299
v -0.595269 17.651573 -2.117017
v -2.090112 22.072294 2.558342
v -1.836169 19.248713 2.278394
v 0.269707 19.787817 -1.245393
v 0.019515 22.611576 -0.963208
v 2.572374 23.650909 2.168011
v 2.106734 20.842943 2.049759
v -0.217585 21.371290 -1.335625
v 0.251597 24.178837 -1.219902
v -0.139461 28.894146 -1.114984
v 0.142621 27.676369 -1.731993
v 0.953511 28.661381 -3.305771
v 0.673352 29.879087 -2.687828
v -2.774966 16.989077 -5.477599
v -1.893171 14.134273 -3.989374
v 0.312706 16.648132 -0.475030
v -0.573448 19.503073 -1.960573
v 3.747898 11.572337 1.855680
v 2.535261 9.467539 1.116873
v 6.883737 8.668532 3.452399
v 5.867415 10.673985 2.974919
v 4.726331 9.606031 2.853715
v 4.520043 8.335319 2.154023
v -1.663839 13.074194 2.484738
v -1.064338 11.543319 1.502813
v -2.961686 10.748566 4.663711
v -2.573245 12.303657 4.003446
v -2.443408 11.550247 3.101576
v -1.907134 10.602682 2.912419
vn -0.0000 0.1011 -0.9949
vn -0.0000 0.0640 -0.9979
vn 0.7034 0.1007 -0.7036
vn 0.7071 0.0689 -0.7037
vn 0.9950 0.0998 -0.0003
vn 0.9967 0.0806 0.0032
vn 0.7038 0.0989 0.7035
vn 0.7026 0.0924 0.7056
vn -0.0000 0.0984 0.9951
vn -0.0000 0.0973 0.9953
vn -0.7038 0.0989 0.7035
vn -0.7026 0.0924 0.7056
vn -0.9950 0.0998 -0.0003
vn -0.9967 0.0806 0.0032
vn -0.7034 0.1007 -0.7036
vn -0.7071 0.0689 -0.7037
vn 0.7073 0.0324 -0.7062
vn -0.0000 0.0195 -0.9998
vn 0.9980 0.0634 0.0006
vn 0.7039 0.0940 0.7040
vn -0.0000 0.1067 0.9943
vn -0.7039 0.0940 0.7040
vn -0.9980 0.0634 0.0006
vn -0.7073 0.0324 -0.7062
vn 0.7083 0.0020 -0.7059
vn -0.0000 -0.0171 -0.9999
vn 0.9989 0.0477 0.0012
vn 0.7040 0.0928 0.7041
vn -0.0000 0.1114 0.9938
vn -0.7040 0.0928 0.7041
vn -0.9989 0.0477 0.0012
vn -0.7083 0.0020 -0.7059
vn 0.7066 -0.0269 -0.7071
vn -0.0000 -0.0487 -0.9988
vn 0.9997 0.0256 -0.0024
vn 0.7071 0.0781 0.7028
vn -0.0000 0.0999 0.9950
vn -0.7071 0.0781 0.7028
vn -0.9997 0.0256 -0.0024
vn -0.7066 -0.0269 -0.7071
vn 0.7051 -0.0204 -0.7089
vn -0.0000 -0.0364 -0.9993
vn 0.9998 0.0187 -0.0048
vn 0.7088 0.0581 0.7030
vn -0.0000 0.0746 0.9972
vn -0.7088 0.0581 0.7030
vn -0.9998 0.0187 -0.0048
vn -0.7051 -0.0204 -0.7089
vn 0.7088 -0.0243 -0.7050
vn -0.0000 -0.0397 -0.9992
vn 0.9999 0.0126 0.0028
vn 0.7053 0.0492 0.7072
vn -0.0000 0.0642 0.9979
vn -0.7053 0.0492 0.7072
vn -0.9999 0.0126 0.0028
vn -0.7088 -0.0243 -0.7050
vn 0.7083 -0.0443 -0.7045
vn -0.0000 -0.0666 -0.9978
vn 1.0000 0.0098 0.0019
vn 0.7057 0.0638 0.7056
vn -0.0000 0.0861 0.9963
vn -0.7057 0.0638 0.7056
vn -1.0000 0.0098 0.0019
vn -0.7083 -0.0443 -0.7045
vn 0.7030 -0.0202 -0.7109
vn -0.0000 -0.0352 -0.9994
vn 0.9998 0.0172 -0.0081
vn 0.7101 0.0561 0.7018
vn -0.0000 0.0726 0.9974
vn -0.7101 0.0561 0.7018
vn -0.9998 0.0172 -0.0081
vn -0.7030 -0.0202 -0.7109
vn 0.7051 0.0321 -0.7084
vn -0.0000 0.0303 -0.9995
vn 0.9993 0.0365 -0.0033
vn 0.7081 0.0409 0.7049
vn -0.0000 0.0428 0.9991
vn -0.7081 0.0409 0.7049
vn -0.9993 0.0365 -0.0033
vn -0.7051 0.0321 -0.7084
vn -0.0002 1.0000 0.0073
vn -0.2105 0.9165 -0.3402
vn 0.1231 0.9418 -0.3129
vn -0.0350 0.8960 -0.4426
vn 0.2141 0.6678 -0.7129
vn -0.3043 0.8069 -0.5062
vn -0.2982 0.7356 -0.6083
vn -0.2032 0.6299 -0.7496
vn -0.0068 0.7441 -0.6680
vn 0.2515 0.8510 -0.4610
vn 0.2698 0.7825 -0.5611
vn 0.0197 0.5709 -0.8208
vn 0.9491 0.2900 0.1230
vn 0.9673 0.0846 0.2391
vn 0.9955 -0.0007 -0.0950
vn 0.9403 0.3030 -0.1550
vn 0.9966 0.0717 0.0398
vn 0.9615 -0.2176 0.1681
vn 0.5819 0.5198 0.6254
vn 0.5733 0.3307 0.7496
vn 0.8109 0.2786 0.5145
vn 0.7303 0.5517 0.4029
vn 0.7163 0.3315 0.6140
vn 0.6847 0.0433 0.7275
vn 0.3009 0.8790 -0.3699
vn 0.4104 0.8892 -0.2024
vn 0.5655 0.7132 -0.4141
vn 0.3417 0.7487 -0.5681
vn 0.4740 0.8027 -0.3618
vn 0.6129 0.7749 -0.1546
vn -0.6160 0.5622 -0.5518
vn -0.2687 0.7986 -0.5386
vn -0.2129 0.8656 -0.4531
vn -0.5368 0.7340 -0.4161
vn -0.7257 0.5983 -0.3397
vn -0.6964 0.6981 -0.1662
vn -0.6307 0.7711 -0.0870
vn -0.4098 0.6790 -0.6091
vn -0.4032 0.8853 -0.2316
vn -0.1994 0.9464 -0.2541
vn -0.4502 0.8922 -0.0348
vn 0.2204 0.2112 0.9523
vn 0.1054 0.0059 0.9944
vn 0.4248 -0.0926 0.9005
vn 0.4808 0.2130 0.8506
vn 0.3029 -0.0132 0.9529
vn 0.1545 -0.2937 0.9433
vn -0.3671 0.4947 0.7877
vn -0.4970 0.3071 0.8116
vn -0.1963 0.2294 0.9533
vn -0.1070 0.5052 0.8564
vn -0.3205 0.2938 0.9005
vn -0.4523 0.0126 0.8918
vn 0.0548 0.9044 -0.4231
vn 0.3318 0.9158 -0.2264
vn 0.2601 0.8699 -0.4192
vn 0.6021 0.6069 -0.5187
vn 0.0541 0.7891 -0.6119
vn 0.1077 0.7105 -0.6955
vn 0.2547 0.5898 -0.7663
vn 0.3925 0.6993 -0.5974
vn 0.5141 0.8088 -0.2856
vn 0.5783 0.7315 -0.3613
vn 0.4817 0.5111 -0.7119
vn 0.0892 0.8427 0.5310
vn -0.2131 0.9038 0.3712
vn -0.1159 0.8248 0.5535
vn -0.4682 0.5779 0.6685
vn 0.1072 0.6980 0.7080
vn 0.0579 0.6090 0.7911
vn -0.0920 0.4863 0.8689
vn -0.2409 0.6381 0.7313
vn -0.3946 0.8032 0.4463
vn -0.4545 0.7212 0.5228
vn -0.3348 0.4390 0.8338
vn -0.8047 0.4135 -0.4260
vn -0.7860 0.2297 -0.5739
vn -0.9503 0.1017 -0.2942
vn -0.9071 0.3815 -0.1780
vn -0.8929 0.1900 -0.4083
vn -0.8274 -0.0728 -0.5568
vn -0.2662 0.6654 -0.6974
vn -0.2162 0.5040 -0.8362
vn -0.5227 0.4451 -0.7271
vn -0.4803 0.6788 -0.5554
vn -0.3966 0.4980 -0.7712
vn -0.3375 0.2419 -0.9097
vn 0.2264 0.9131 0.3390
vn -0.0990 0.8922 0.4406
vn 0.0978 0.8604 0.5002
vn -0.0098 0.5668 0.8238
vn 0.3831 0.8065 0.4503
vn 0.4219 0.7276 0.5408
vn 0.3982 0.5984 0.6953
vn 0.1720 0.6850 0.7079
vn -0.1568 0.7704 0.6180
vn -0.1303 0.6891 0.7129
vn 0.2257 0.4932 0.8401
vn -0.7256 0.4181 -0.5465
vn -0.7583 0.1210 -0.6405
vn -0.4028 0.8865 0.2276
vn -0.6694 0.7220 0.1748
vn -0.4939 0.1812 -0.8504
vn -0.2776 0.8284 0.4865
vn -0.4330 0.7452 0.5071
vn -0.4932 0.8184 0.2950
vn -0.5397 0.3848 -0.7488
vn -0.6007 0.7990 0.0285
vn -0.6257 0.6708 0.3981
vn -0.8761 0.4131 0.2488
vn -0.9642 0.2215 0.1458
vn -0.8774 0.1193 0.4648
vn -0.7669 0.4051 0.4978
vn -0.9199 0.1962 0.3396
vn -0.9751 -0.0809 0.2065
vn -0.6561 0.1806 -0.7327
vn -0.5753 -0.1177 -0.8094
vn 0.4466 0.8652 0.2279
vn 0.5221 0.6975 0.4908
vn 0.6090 0.7931 -0.0089
vn 0.7003 0.7040 0.1180
vn 0.5478 0.7900 0.2753
vn 0.3647 0.7849 0.5009
vn 0.6953 0.6313 0.3435
vn -0.2969 0.9522 0.0721
vn -0.1448 0.9649 -0.2192
vn -0.3242 0.9375 -0.1267
vn -0.4966 0.7387 -0.4557
vn -0.4922 0.8655 0.0926
vn -0.5875 0.8078 0.0472
vn -0.6874 0.7201 -0.0944
vn -0.5286 0.8148 -0.2381
vn -0.2378 0.8877 -0.3942
vn -0.3274 0.8313 -0.4491
vn -0.6736 0.6657 -0.3212
vn 0.5125 0.2336 -0.8263
vn 0.6015 0.0185 -0.7987
vn 0.2988 -0.0289 -0.9539
vn 0.2512 0.2865 -0.9245
vn 0.4281 0.0291 -0.9033
vn 0.4995 -0.2758 -0.8213
vn 0.2922 0.9175 -0.2697
vn 0.3840 0.9217 0.0555
vn 0.4496 0.8824 -0.1387
vn 0.7815 0.6238 -0.0092
vn 0.4115 0.8094 -0.4189
vn 0.5064 0.7345 -0.4517
vn 0.6666 0.6176 -0.4174
vn 0.6658 0.7194 -0.1980
vn 0.5642 0.8166 0.1216
vn 0.6625 0.7422 0.1013
vn 0.8098 0.5370 -0.2363
vn 0.7257 0.5172 0.4537
vn 0.3842 0.7631 0.5197
vn 0.3137 0.8368 0.4487
vn 0.6244 0.7011 0.3443
vn 0.7928 0.5670 0.2235
vn 0.7317 0.6786 0.0638
vn 0.6527 0.7576 0.0019
vn 0.5346 0.6355 0.5570
vn 0.4585 0.8672 0.1942
vn 0.2630 0.9295 0.2585
vn 0.4676 0.8839 -0.0098
vn -0.0247 0.9390 0.3430
vn -0.2065 0.8083 0.5514
vn 0.2545 0.8882 0.3826
vn 0.1874 0.8275 0.5292
vn -0.0172 0.8895 0.4567
vn -0.2936 0.8630 0.4111
vn -0.0021 0.7725 0.6350
vn 0.2940 0.5349 -0.7921
vn 0.4253 0.7745 -0.4683
vn 0.3698 0.8460 -0.3842
vn 0.2062 0.7148 -0.6683
vn 0.0558 0.5827 -0.8108
vn -0.0889 0.6908 -0.7176
vn -0.1341 0.7674 -0.6270
vn 0.4323 0.6504 -0.6246
vn 0.0920 0.8756 -0.4742
vn 0.1935 0.9355 -0.2955
vn -0.1090 0.8904 -0.4420
vn -0.4247 0.7962 0.4308
vn -0.6951 0.6146 0.3730
vn -0.2637 0.6961 0.6678
vn -0.4145 0.5897 0.6932
vn -0.5081 0.7027 0.4981
vn -0.6456 0.7268 0.2345
vn -0.6237 0.5157 0.5874
vn 0.3712 0.8790 -0.2993
vn 0.4435 0.8892 -0.1127
vn 0.6392 0.7132 -0.2877
vn 0.4522 0.7487 -0.4848
vn 0.5388 0.8027 -0.2555
vn 0.6316 0.7749 -0.0240
vn 0.6307 0.6835 0.3676
vn 0.2749 0.8634 0.4230
vn 0.1971 0.9151 0.3517
vn 0.5070 0.8251 0.2493
vn 0.6852 0.7139 0.1443
vn 0.6122 0.7904 -0.0192
vn 0.5266 0.8460 -0.0837
vn 0.4373 0.7711 0.4628
vn 0.3276 0.9397 0.0986
vn 0.1348 0.9778 0.1607
vn 0.3311 0.9383 -0.1000
vn 0.4440 0.7142 0.5411
vn 0.0717 0.8810 0.4676
vn 0.0188 0.9301 0.3668
vn 0.3653 0.8509 0.3775
vn 0.5792 0.7369 0.3486
vn 0.5754 0.8025 0.1577
vn 0.5182 0.8533 0.0582
vn 0.2228 0.7940 0.5657
vn 0.2450 0.9565 0.1585
vn 0.0280 0.9889 0.1460
vn 0.3289 0.9435 -0.0408
vn 0.3265 0.7051 -0.6295
vn 0.4097 0.8758 -0.2552
vn 0.3372 0.9268 -0.1653
vn 0.2067 0.8455 -0.4924
vn 0.0941 0.7280 -0.6791
vn -0.0827 0.7949 -0.6011
vn -0.1532 0.8471 -0.5088
vn 0.4391 0.7860 -0.4351
vn 0.0505 0.9546 -0.2935
vn 0.1261 0.9883 -0.0853
vn -0.1708 0.9408 -0.2926
vn 0.4409 0.8506 0.2866
vn 0.0929 0.9507 0.2958
vn 0.0217 0.9749 0.2215
vn 0.3195 0.9350 0.1540
vn 0.5061 0.8579 0.0881
vn 0.4466 0.8915 -0.0759
vn 0.3680 0.9181 -0.1472
vn 0.2494 0.9028 0.3505
vn 0.1565 0.9877 -0.0054
vn -0.0273 0.9990 0.0358
vn 0.1771 0.9665 -0.1859
vn 0.5396 0.8419 -0.0081
vn 0.2501 0.9473 0.2003
vn 0.1464 0.9731 0.1778
vn 0.3614 0.9310 -0.0514
vn 0.4820 0.8496 -0.2143
vn 0.3382 0.8847 -0.3208
vn 0.2306 0.9127 -0.3373
vn 0.4146 0.8965 0.1564
vn 0.1310 0.9869 -0.0944
vn -0.0028 0.9989 0.0466
vn 0.0450 0.9641 -0.2617
vn -0.4847 0.8210 0.3018
vn -0.3415 0.9387 -0.0461
vn -0.2344 0.9686 -0.0832
vn -0.3023 0.9213 0.2447
vn -0.3213 0.8294 0.4571
vn -0.1335 0.8680 0.4783
vn -0.0262 0.8994 0.4362
vn -0.4653 0.8810 0.0856
vn -0.0686 0.9850 0.1586
vn -0.0233 0.9987 -0.0448
vn 0.1036 0.9581 0.2669
vn 0.3609 0.9326 -0.0039
vn 0.1559 0.9798 0.1251
vn 0.0899 0.9899 0.1093
vn 0.2349 0.9714 -0.0348
vn 0.3202 0.9363 -0.1439
vn 0.2186 0.9532 -0.2091
vn 0.1462 0.9654 -0.2158
vn 0.2657 0.9586 0.1023
vn 0.0828 0.9947 -0.0609
vn -0.0016 0.9996 0.0283
vn 0.0277 0.9864 -0.1618
vn -0.4102 0.8989 -0.1540
vn -0.1244 0.9685 -0.2156
vn -0.0552 0.9842 -0.1684
vn -0.2837 0.9567 -0.0654
vn -0.4265 0.9043 0.0211
vn -0.3435 0.9285 0.1413
vn -0.2654 0.9467 0.1824
vn -0.2599 0.9364 -0.2357
vn -0.1228 0.9919 0.0326
vn 0.0148 0.9994 -0.0324
vn -0.1056 0.9788 0.1757
vn -0.7187 0.6953 -0.0064
vn -0.3657 0.8772 -0.3111
vn -0.2181 0.9343 -0.2821
vn -0.5101 0.8587 0.0499
vn -0.6575 0.7067 0.2611
vn -0.4894 0.7601 0.4275
vn -0.3504 0.8100 0.4703
vn -0.5832 0.7786 -0.2317
vn -0.1962 0.9724 0.1264
vn 0.0076 0.9973 -0.0737
vn -0.0822 0.9140 0.3974
vn -0.5131 0.5129 -0.6882
vn -0.0330 0.6085 -0.7929
vn 0.0785 0.6946 -0.7151
vn -0.3550 0.7153 -0.6020
vn -0.6105 0.6407 -0.4655
vn -0.5590 0.7821 -0.2753
vn -0.4630 0.8659 -0.1893
vn -0.2670 0.5180 -0.8126
vn -0.1269 0.8974 -0.4227
vn 0.1550 0.8705 -0.4671
vn -0.1903 0.9718 -0.1394
vn 0.1634 0.5129 -0.8428
vn 0.5640 0.6085 -0.5582
vn 0.5817 0.6946 -0.4234
vn 0.2061 0.7153 -0.6677
vn -0.0668 0.6407 -0.7648
vn -0.1728 0.7821 -0.5987
vn -0.1717 0.8659 -0.4698
vn 0.4211 0.5180 -0.7445
vn 0.2271 0.8974 -0.3784
vn 0.4497 0.8705 -0.1998
vn -0.0250 0.9718 -0.2346
vn 0.1080 0.2455 -0.9634
vn 0.5226 0.4187 -0.7427
vn 0.5466 0.5402 -0.6399
vn 0.1575 0.4899 -0.8574
vn -0.1194 0.3911 -0.9126
vn -0.2178 0.5749 -0.7887
vn -0.2107 0.6925 -0.6900
vn 0.3706 0.2784 -0.8861
vn 0.1922 0.7482 -0.6351
vn 0.4249 0.7738 -0.4697
vn -0.0525 0.8618 -0.5046
vn -0.0313 -0.1943 -0.9805
vn 0.2001 -0.0651 -0.9776
vn 0.2194 0.0178 -0.9755
vn -0.0018 -0.0579 -0.9983
vn -0.1476 -0.1092 -0.9830
vn -0.1937 0.0096 -0.9810
vn -0.1860 0.0900 -0.9784
vn 0.1109 -0.1645 -0.9801
vn 0.0291 0.1250 -0.9917
vn 0.1671 0.1779 -0.9698
vn -0.0945 0.2193 -0.9711
vn 0.5685 0.7255 -0.3880
vn 0.4733 0.8778 -0.0735
vn 0.3844 0.9224 -0.0377
vn 0.4191 0.8444 -0.3336
vn 0.4099 0.7477 -0.5224
vn 0.2442 0.8111 -0.5315
vn 0.1559 0.8588 -0.4881
vn 0.5697 0.7989 -0.1929
vn 0.2249 0.9425 -0.2474
vn 0.2006 0.9776 -0.0636
vn 0.0622 0.9416 -0.3310
vn 0.4407 0.8976 -0.0040
vn 0.5990 0.7601 0.2519
vn 0.5399 0.7964 -0.2723
vn 0.6730 0.7207 -0.1663
vn 0.5614 0.8272 0.0229
vn 0.4417 0.8472 0.2954
vn 0.7365 0.6732 0.0664
vn -0.2068 0.5995 -0.7732
vn 0.1070 0.8045 -0.5843
vn 0.1147 0.8712 -0.4774
vn -0.2028 0.7640 -0.6125
vn -0.4105 0.6355 -0.6539
vn -0.4871 0.7251 -0.4868
vn -0.4762 0.7931 -0.3797
vn 0.0068 0.6927 -0.7212
vn -0.1824 0.9075 -0.3784
vn 0.0146 0.9585 -0.2847
vn -0.3427 0.9120 -0.2253
vn 0.0437 0.5995 -0.7992
vn 0.2832 0.8045 -0.5221
vn 0.2573 0.8712 -0.4181
vn -0.0025 0.7640 -0.6452
vn -0.1869 0.6355 -0.7491
vn -0.3117 0.7251 -0.6141
vn -0.3347 0.7931 -0.5089
vn 0.2306 0.6927 -0.6834
vn -0.0558 0.9075 -0.4164
vn 0.1024 0.9585 -0.2661
vn -0.2558 0.9120 -0.3206
vn 0.7118 0.6835 -0.1616
vn 0.4896 0.8634 0.1217
vn 0.3841 0.9151 0.1226
vn 0.5408 0.8251 -0.1637
vn 0.5994 0.7139 -0.3621
vn 0.4345 0.7904 -0.4318
vn 0.3279 0.8460 -0.4205
vn 0.6354 0.7711 0.0399
vn 0.3068 0.9397 -0.1514
vn 0.2082 0.9778 0.0255
vn 0.1738 0.9383 -0.2990
vn -0.3617 0.5700 0.7377
vn -0.4717 0.7853 0.4010
vn -0.4086 0.8548 0.3200
vn -0.2616 0.7381 0.6220
vn -0.1328 0.6075 0.7832
vn 0.0307 0.7018 0.7117
vn 0.0906 0.7732 0.6276
vn -0.4865 0.6684 0.5626
vn -0.1267 0.8885 0.4411
vn -0.2120 0.9456 0.2467
vn 0.0895 0.8975 0.4319
vn -0.6583 0.7142 0.2378
vn -0.4647 0.8810 -0.0886
vn -0.3520 0.9301 -0.1048
vn -0.4778 0.8509 0.2182
vn -0.5220 0.7369 0.4296
vn -0.3408 0.8025 0.4897
vn -0.2279 0.8533 0.4690
vn -0.6076 0.7940 0.0211
vn -0.2313 0.9565 0.1780
vn -0.1470 0.9889 -0.0224
vn -0.0714 0.9435 0.3236
vn -0.4668 0.8521 -0.2367
vn -0.5238 0.6798 -0.5133
vn -0.6431 0.7657 -0.0053
vn -0.7293 0.6697 -0.1397
vn -0.5677 0.7693 -0.2932
vn -0.3661 0.7764 -0.5129
vn -0.7097 0.5971 -0.3738
vn -0.4358 0.7255 0.5327
vn -0.4333 0.8778 0.2041
vn -0.3581 0.9224 0.1447
vn -0.3079 0.8444 0.4383
vn -0.2457 0.7477 0.6169
vn -0.0842 0.8111 0.5788
vn -0.0117 0.8588 0.5122
vn -0.4921 0.7989 0.3458
vn -0.1459 0.9425 0.3008
vn -0.1745 0.9776 0.1177
vn 0.0337 0.9416 0.3351
vn -0.6748 0.7255 0.1356
vn -0.4645 0.8778 -0.1169
vn -0.3686 0.9224 -0.1152
vn -0.5160 0.8444 0.1437
vn -0.5812 0.7477 0.3212
vn -0.4321 0.8111 0.3942
vn -0.3339 0.8588 0.3886
vn -0.5998 0.7989 -0.0446
vn -0.3036 0.9425 0.1401
vn -0.2096 0.9776 -0.0197
vn -0.1864 0.9416 0.2805
vn -0.1363 0.8419 -0.5222
vn 0.1351 0.9473 -0.2906
vn 0.1379 0.9731 -0.1845
vn -0.1359 0.9310 -0.3388
vn -0.3228 0.8496 -0.4172
vn -0.3921 0.8847 -0.2522
vn -0.3825 0.9127 -0.1437
vn 0.0532 0.8965 -0.4399
vn -0.1228 0.9869 -0.1048
vn 0.0459 0.9989 -0.0083
vn -0.2649 0.9641 0.0186
vn -0.4767 0.6188 -0.6243
vn -0.0414 0.7605 -0.6480
vn 0.0390 0.8340 -0.5504
vn -0.4016 0.7791 -0.4814
vn -0.6293 0.6379 -0.4439
vn -0.6846 0.6949 -0.2199
vn -0.6499 0.7540 -0.0954
vn -0.2553 0.6667 -0.7002
vn -0.2685 0.9346 -0.2334
vn 0.0276 0.9712 -0.2366
vn -0.4220 0.9046 0.0604
vn 0.5158 0.6673 -0.5373
vn 0.5648 0.8137 -0.1375
vn 0.4767 0.8773 -0.0560
vn 0.3815 0.8158 -0.4347
vn 0.3115 0.6950 -0.6481
vn 0.1057 0.7596 -0.6418
vn 0.0040 0.8156 -0.5787
vn 0.6077 0.7223 -0.3301
vn 0.1773 0.9451 -0.2744
vn 0.2119 0.9770 -0.0254
vn -0.0846 0.9322 -0.3520
vn -0.7632 0.6395 0.0920
vn -0.5967 0.8021 0.0247
vn -0.5468 0.8358 0.0487
vn -0.6896 0.7098 0.1439
vn -0.7768 0.5949 0.2067
vn -0.7237 0.6268 0.2886
vn -0.6763 0.6673 0.3122
vn -0.6849 0.7278 0.0345
vn -0.5950 0.7778 0.2023
vn -0.4887 0.8594 0.1501
vn -0.5803 0.7593 0.2945
vn 0.0766 0.8419 0.5342
vn -0.1669 0.9473 0.2735
vn -0.1578 0.9731 0.1678
vn 0.0968 0.9310 0.3520
vn 0.2737 0.8496 0.4509
vn 0.3612 0.8847 0.2948
vn 0.3638 0.9127 0.1859
vn -0.1025 0.8965 0.4311
vn 0.1102 0.9869 0.1180
vn -0.0465 0.9989 0.0031
vn 0.2653 0.9641 0.0114
vn -0.2350 0.8521 0.4676
vn -0.5114 0.6798 0.5256
vn -0.0030 0.7657 0.6432
vn -0.1371 0.6697 0.7298
vn -0.2912 0.7693 0.5687
vn -0.5116 0.7764 0.3680
vn -0.3712 0.5971 0.7111
vn -0.5593 0.8210 -0.1149
vn -0.2159 0.9387 -0.2686
vn -0.1127 0.9686 -0.2218
vn -0.3877 0.9213 -0.0307
vn -0.5477 0.8294 0.1102
vn -0.4262 0.8680 0.2549
vn -0.3194 0.8994 0.2983
vn -0.3964 0.8810 -0.2583
vn -0.1590 0.9850 0.0678
vn 0.0140 0.9987 -0.0485
vn -0.1086 0.9581 0.2649
vn 0.2002 0.8210 -0.5347
vn 0.2988 0.9387 -0.1717
vn 0.2366 0.9686 -0.0770
vn 0.0904 0.9213 -0.3783
vn -0.0239 0.8294 -0.5582
vn -0.1858 0.8680 -0.4606
vn -0.2452 0.8994 -0.3618
vn 0.3166 0.8810 -0.3515
vn -0.0423 0.9850 -0.1675
vn 0.0458 0.9987 0.0214
vn -0.2448 0.9581 -0.1484
vn 0.5135 0.8210 -0.2497
vn 0.3349 0.9387 0.0814
vn 0.2245 0.9686 0.1072
vn 0.3261 0.9213 -0.2119
vn 0.3671 0.8294 -0.4211
vn 0.1826 0.8680 -0.4619
vn 0.0715 0.8994 -0.4312
vn 0.4717 0.8810 -0.0367
vn 0.0848 0.9850 -0.1506
vn 0.0185 0.9987 0.0470
vn -0.0753 0.9581 -0.2762
vn 0.5024 0.8210 0.2714
vn 0.1292 0.9387 0.3195
vn 0.0439 0.9686 0.2448
vn 0.3624 0.9213 0.1412
vn 0.5562 0.8294 0.0525
vn 0.4816 0.8680 -0.1212
vn 0.3919 0.8994 -0.1935
vn 0.3050 0.8810 0.3617
vn 0.1718 0.9850 -0.0190
vn -0.0274 0.9987 0.0424
vn 0.1804 0.9581 -0.2223
vn 0.1005 0.8253 0.5556
vn -0.2163 0.9156 0.3390
vn -0.2311 0.9461 0.2268
vn 0.0761 0.9272 0.3668
vn 0.2869 0.8550 0.4321
vn 0.3459 0.9030 0.2549
vn 0.3261 0.9347 0.1414
vn -0.1107 0.8655 0.4885
vn 0.0389 0.9919 0.1209
vn -0.1494 0.9883 0.0306
vn 0.1853 0.9824 -0.0226
vn -0.2762 0.8253 0.4925
vn -0.3826 0.9156 0.1238
vn -0.3227 0.9461 0.0278
vn -0.1748 0.9272 0.3314
vn -0.0538 0.8550 0.5159
vn 0.1046 0.9030 0.4167
vn 0.1615 0.9347 0.3166
vn -0.3963 0.8655 0.3063
vn -0.0470 0.9919 0.1180
vn -0.1347 0.9883 -0.0715
vn 0.1573 0.9824 0.1005
vn -0.5104 0.8253 0.2415
vn -0.3836 0.9156 -0.1207
vn -0.2791 0.9461 -0.1642
vn -0.3344 0.9272 0.1689
vn -0.3427 0.8550 0.3894
vn -0.1561 0.9030 0.4003
vn -0.0517 0.9347 0.3517
vn -0.5005 0.8655 0.0201
vn -0.1066 0.9919 0.0690
vn -0.0684 0.9883 -0.1364
vn 0.0700 0.9824 0.1730
vn -0.2573 0.9614 -0.0971
vn -0.3869 0.8416 -0.3769
vn -0.4229 0.8940 0.1481
vn -0.5452 0.8381 0.0192
vn -0.3817 0.9127 -0.1460
vn -0.2108 0.8964 -0.3899
vn -0.5711 0.7907 -0.2206
vn 0.5461 0.8158 0.1905
vn 0.2260 0.8834 0.4104
vn 0.1162 0.9155 0.3851
vn 0.3611 0.9201 0.1519
vn 0.5011 0.8650 -0.0249
vn 0.3584 0.9228 -0.1412
vn 0.2455 0.9557 -0.1623
vn 0.4046 0.8389 0.3641
vn 0.1186 0.9879 0.1005
vn -0.0356 0.9700 0.2403
vn 0.0404 0.9952 -0.0891
vn 0.4855 0.8158 -0.3144
vn 0.4628 0.8834 0.0733
vn 0.3754 0.9155 0.1445
vn 0.3415 0.9201 -0.1920
vn 0.2877 0.8650 -0.4110
vn 0.1084 0.9228 -0.3696
vn 0.0224 0.9557 -0.2934
vn 0.5357 0.8389 -0.0961
vn 0.1521 0.9879 -0.0320
vn 0.1679 0.9700 0.1755
vn -0.0456 0.9952 -0.0865
vn 0.2561 0.9326 0.2543
vn 0.0203 0.9798 0.1988
vn -0.0148 0.9899 0.1408
vn 0.1897 0.9714 0.1429
vn 0.3273 0.9363 0.1270
vn 0.3023 0.9532 0.0089
vn 0.2563 0.9654 -0.0473
vn 0.1136 0.9586 0.2611
vn 0.1014 0.9947 0.0162
vn -0.0213 0.9996 0.0187
vn 0.1347 0.9864 -0.0938
vn 0.0788 0.9326 0.3523
vn -0.0900 0.9798 0.1785
vn -0.0883 0.9899 0.1107
vn 0.0829 0.9714 0.2225
vn 0.2074 0.9363 0.2833
vn 0.2499 0.9532 0.1704
vn 0.2414 0.9654 0.0982
vn -0.0448 0.9586 0.2812
vn 0.0767 0.9947 0.0683
vn -0.0280 0.9996 0.0043
vn 0.1640 0.9864 -0.0065
vn -0.3459 0.9326 0.1034
vn -0.1843 0.9798 -0.0772
vn -0.1166 0.9899 -0.0803
vn -0.2162 0.9714 0.0983
vn -0.2680 0.9363 0.2267
vn -0.1524 0.9532 0.2613
vn -0.0810 0.9654 0.2477
vn -0.2836 0.9586 -0.0250
vn -0.0627 0.9947 0.0813
vn -0.0063 0.9996 -0.0277
vn 0.0180 0.9864 0.1631
vn -0.2636 0.9326 -0.2466
vn -0.0262 0.9798 -0.1981
vn 0.0106 0.9899 -0.1412
vn -0.1938 0.9714 -0.1371
vn -0.3309 0.9363 -0.1172
vn -0.3025 0.9532 0.0001
vn -0.2548 0.9654 0.0549
vn -0.1214 0.9586 -0.2576
vn -0.1019 0.9947 -0.0132
vn 0.0207 0.9996 -0.0193
vn -0.1318 0.9864 0.0978
vn -0.0616 0.9326 -0.3557
vn 0.0986 0.9798 -0.1739
vn 0.0936 0.9899 -0.1062
vn -0.0719 0.9714 -0.2263
vn -0.1933 0.9363 -0.2931
vn -0.2413 0.9532 -0.1823
vn -0.2364 0.9654 -0.1099
vn 0.0585 0.9586 -0.2786
vn -0.0733 0.9947 -0.0720
vn 0.0282 0.9996 -0.0029
vn -0.1641 0.9864 -0.0015
vn -0.2265 0.8989 -0.3751
vn 0.0360 0.9685 -0.2463
vn 0.0610 0.9842 -0.1664
vn -0.1822 0.9567 -0.2271
vn -0.3478 0.9043 -0.2477
vn -0.3571 0.9285 -0.1020
vn -0.3213 0.9467 -0.0213
vn -0.0579 0.9364 -0.3460
vn -0.1165 0.9919 -0.0505
vn 0.0317 0.9994 -0.0162
vn -0.1918 0.9788 0.0725
vn -0.1576 0.8989 0.4088
vn -0.2167 0.9685 0.1225
vn -0.1689 0.9842 0.0537
vn -0.0679 0.9567 0.2831
vn 0.0174 0.9043 0.4266
vn 0.1382 0.9285 0.3447
vn 0.1801 0.9467 0.2670
vn -0.2380 0.9364 0.2578
vn 0.0315 0.9919 0.1231
vn -0.0323 0.9994 -0.0151
vn 0.1748 0.9788 0.1072
vn 0.4174 0.8989 0.1332
vn 0.1351 0.9685 0.2091
vn 0.0636 0.9842 0.1654
vn 0.2866 0.9567 0.0510
vn 0.4249 0.9043 -0.0425
vn 0.3360 0.9285 -0.1583
vn 0.2559 0.9467 -0.1955
vn 0.2714 0.9364 0.2224
vn 0.1210 0.9919 -0.0387
vn -0.0132 0.9994 0.0331
vn 0.0967 0.9788 -0.1808
vn 0.4023 0.8989 -0.1737
vn 0.2392 0.9685 0.0690
vn 0.1566 0.9842 0.0830
vn 0.2497 0.9567 -0.1497
vn 0.2925 0.9043 -0.3111
vn 0.1494 0.9285 -0.3400
vn 0.0646 0.9467 -0.3155
vn 0.3507 0.9364 -0.0106
vn 0.0658 0.9919 -0.1086
vn 0.0118 0.9994 0.0336
vn -0.0458 0.9788 -0.1999
vn -0.1393 0.6952 -0.7051
vn 0.2306 0.8772 -0.4212
vn 0.2321 0.9343 -0.2707
vn -0.1521 0.8587 -0.4894
vn -0.3889 0.7067 -0.5910
vn -0.5178 0.7601 -0.3927
vn -0.5315 0.8100 -0.2479
vn 0.1087 0.7786 -0.6180
vn -0.1636 0.9724 -0.1665
vn 0.0737 0.9973 -0.0075
vn -0.4058 0.9140 -0.0000
vn 0.7073 0.6952 -0.1278
vn 0.4174 0.8772 0.2374
vn 0.2669 0.9343 0.2365
vn 0.4918 0.8587 -0.1442
vn 0.5973 0.7067 -0.3793
vn 0.4010 0.7601 -0.5113
vn 0.2565 0.8100 -0.5274
vn 0.6162 0.7786 0.1187
vn 0.1692 0.9724 -0.1608
vn 0.0063 0.9973 0.0738
vn 0.0066 0.9140 -0.4057
vn 0.4872 0.6952 0.5285
vn 0.0234 0.8772 0.4796
vn -0.0565 0.9343 0.3521
vn 0.3854 0.8587 0.3378
vn 0.6404 0.7067 0.3008
vn 0.6466 0.7601 0.0643
vn 0.5827 0.8100 -0.0663
vn 0.2302 0.7786 0.5838
vn 0.2265 0.9724 0.0565
vn -0.0589 0.9973 0.0449
vn 0.3460 0.9140 -0.2119
vn 0.6926 0.5129 -0.5072
vn 0.7931 0.6085 -0.0263
vn 0.7144 0.6946 0.0847
vn 0.6050 0.7153 -0.3498
vn 0.4707 0.6407 -0.6065
vn 0.2801 0.7821 -0.5566
vn 0.1933 0.8659 -0.4613
vn 0.8149 0.5180 -0.2601
vn 0.4237 0.8974 -0.1233
vn 0.4657 0.8705 0.1590
vn 0.1410 0.9718 -0.1891
vn -0.1679 0.5129 0.8419
vn -0.5670 0.6085 0.5552
vn -0.5839 0.6946 0.4203
vn -0.2097 0.7153 0.6666
vn 0.0628 0.6407 0.7652
vn 0.1696 0.7821 0.5996
vn 0.1692 0.8659 0.4707
vn -0.4250 0.5180 0.7423
vn -0.2291 0.8974 0.3772
vn -0.4508 0.8705 0.1974
vn 0.0238 0.9718 0.2347
vn 0.8084 0.5129 0.2889
vn 0.4666 0.6085 0.6418
vn 0.3307 0.6946 0.6389
vn 0.6290 0.7153 0.3046
vn 0.7662 0.6407 0.0494
vn 0.6179 0.7821 -0.0804
vn 0.4903 0.8659 -0.0988
vn 0.6724 0.5180 0.5287
vn 0.3398 0.8974 0.2816
vn 0.1296 0.8705 0.4747
vn 0.2357 0.9718 0.0107
vn -0.5678 0.5129 0.6438
vn -0.7691 0.6085 0.1956
vn -0.7160 0.6946 0.0704
vn -0.5160 0.7153 0.4713
vn -0.3298 0.6407 0.6933
vn -0.1543 0.7821 0.6037
vn -0.0900 0.8659 0.4920
vn -0.7402 0.5180 0.4286
vn -0.3875 0.8974 0.2112
vn -0.4890 0.8705 -0.0555
vn -0.0972 0.9718 0.2149
vn 0.8560 0.2455 -0.4549
vn 0.9080 0.4187 0.0119
vn 0.8368 0.5402 0.0897
vn 0.7966 0.4899 -0.3542
vn 0.6858 0.3911 -0.6138
vn 0.5280 0.5749 -0.6251
vn 0.4505 0.6925 -0.5635
vn 0.9406 0.2784 -0.1945
vn 0.6327 0.7482 -0.2000
vn 0.6276 0.7738 0.0855
vn 0.3868 0.8618 -0.3282
vn 0.5585 0.2455 0.7924
vn 0.1019 0.4187 0.9024
vn 0.0157 0.5402 0.8414
vn 0.4511 0.4899 0.7460
vn 0.6948 0.3911 0.6035
vn 0.6863 0.5749 0.4456
vn 0.6154 0.6925 0.3764
vn 0.3107 0.2784 0.9089
vn 0.2776 0.7482 0.6026
vn -0.0062 0.7738 0.6334
vn 0.3741 0.8618 0.3427
vn -0.8897 0.2455 0.3848
vn -0.9042 0.4187 -0.0846
vn -0.8269 0.5402 -0.1565
vn -0.8224 0.4899 0.2892
vn -0.7327 0.3911 0.5569
vn -0.5764 0.5749 0.5808
vn -0.4942 0.6925 0.5255
vn -0.9531 0.2784 0.1184
vn -0.6466 0.7482 0.1487
vn -0.6187 0.7738 -0.1355
vn -0.4119 0.8618 0.2962
vn -0.0158 -0.2763 0.9609
vn -0.0770 -0.1224 0.9895
vn -0.2824 -0.2549 0.9248
vn -0.1310 -0.4426 0.8871
vn -0.1779 -0.2337 0.9559
vn -0.2622 -0.0175 0.9649
vn -0.9926 -0.1110 -0.0486
vn -0.9927 -0.1103 -0.0482
vn -0.9926 -0.1114 -0.0488
vn -0.9925 -0.1120 -0.0491
vn -0.7200 -0.0561 -0.6917
vn -0.7202 -0.0554 -0.6916
vn -0.7199 -0.0565 -0.6918
vn -0.7197 -0.0572 -0.6919
vn 0.2061 -0.1414 -0.9683
vn 0.2059 -0.1407 -0.9684
vn 0.2063 -0.1418 -0.9682
vn 0.2065 -0.1425 -0.9680
vn 0.6720 -0.1195 0.7308
vn 0.6722 -0.1188 0.7308
vn 0.6719 -0.1199 0.7308
vn 0.6718 -0.1206 0.7309
vn -0.9490 -0.1911 0.2509
vn 0.6018 -0.0459 -0.7973
vn 0.4594 0.2208 -0.8604
vn 0.2318 0.4152 -0.8797
vn 0.3480 0.1360 -0.9276
vn 0.6191 0.2545 -0.7429
vn 0.4740 0.4404 -0.7625
vn 0.9972 0.0285 0.0690
vn 0.9972 0.0289 0.0685
vn 0.9973 0.0296 0.0676
vn 0.9972 0.0292 0.0681
vn -0.9491 -0.1904 0.2510
vn -0.9489 -0.1915 0.2509
vn -0.9488 -0.1922 0.2508
vn 0.8562 0.0252 0.5160
vn 0.8564 0.0259 0.5157
vn 0.8561 0.0249 0.5162
vn 0.8560 0.0242 0.5165
vn 0.8114 -0.1110 -0.5739
vn 0.8112 -0.1103 -0.5742
vn 0.8115 -0.1114 -0.5737
vn 0.8116 -0.1120 -0.5734
vn -0.8934 0.0205 -0.4489
vn -0.8937 0.0208 -0.4483
vn -0.8941 0.0213 -0.4474
vn -0.8938 0.0210 -0.4479
vn -0.8506 0.0106 0.5257
vn -0.8506 0.0114 0.5258
vn -0.8506 0.0102 0.5257
vn -0.8506 0.0095 0.5257
vn -0.5366 0.1541 0.8296
vn -0.6173 -0.0663 0.7840
vn -0.3127 -0.1177 0.9425
vn -0.2828 0.1956 0.9390
vn -0.4466 -0.0581 0.8929
vn -0.5039 -0.3524 0.7886
vn -0.8065 0.1854 -0.5614
vn -0.7569 -0.0299 -0.6528
vn -0.9281 -0.0991 -0.3588
vn -0.9267 0.2119 -0.3104
vn -0.8730 -0.0317 -0.4867
vn -0.7657 -0.3222 -0.5567
vt 0.181586 0.052037
vt 0.169234 0.014909
vt 0.192653 0.022356
vt 0.160260 0.045827
vt 0.145616 0.008979
vt 0.138568 0.040665
vt 0.121681 0.004395
vt 0.116619 0.036683
vt 0.097434 0.001395
vt 0.072233 0.032673
vt 0.073041 -0.000000
vt 0.049927 0.032656
vt 0.048672 0.000220
vt 0.068339 0.127556
vt 0.050698 0.127624
vt 0.027661 0.033845
vt 0.024374 0.001820
vt 0.005568 0.036132
vt -0.000000 0.004948
vt 0.080032 0.193982
vt 0.065500 0.193087
vt 0.085945 0.128546
vt 0.094487 0.034003
vt 0.033057 0.128534
vt 0.120786 0.133957
vt 0.015416 0.130074
vt 0.137978 0.138015
vt 0.103443 0.130728
vt 0.036407 0.193237
vt 0.045079 0.323550
vt 0.033504 0.323104
vt 0.094490 0.195706
vt 0.155058 0.142692
vt 0.123085 0.201069
vt 0.021891 0.193723
vt 0.050947 0.192931
vt 0.108835 0.198161
vt 0.046714 0.459520
vt 0.037439 0.459073
vt 0.068181 0.325141
vt 0.056639 0.324225
vt 0.079700 0.326309
vt 0.137278 0.204149
vt 0.102662 0.329353
vt 0.021913 0.322872
vt 0.091194 0.327717
vt 0.092772 0.465144
vt 0.064102 0.617376
vt 0.083598 0.463768
vt 0.055976 0.460212
vt 0.074417 0.462414
vt 0.028164 0.458760
vt 0.065213 0.461191
vt 0.114106 0.331202
vt 0.018892 0.458468
vt 0.019811 0.613374
vt 0.019037 0.720801
vt 0.012387 0.720245
vt 0.012400 0.613014
vt 0.034623 0.614173
vt 0.027221 0.613737
vt 0.042012 0.614754
vt 0.056747 0.616405
vt 0.049386 0.615507
vt 0.052248 0.723847
vt 0.036544 0.808854
vt 0.045606 0.723201
vt 0.032321 0.722012
vt 0.025680 0.721404
vt 0.038963 0.722605
vt 0.071457 0.618350
vt 0.005726 0.719783
vt 0.000575 0.806601
vt 0.004805 0.866692
vt -0.000000 0.866801
vt 0.012599 0.806690
vt 0.006586 0.806716
vt 0.024633 0.807092
vt 0.018618 0.806742
vt 0.030614 0.807826
vt 0.058885 0.724586
vt 0.042455 0.809957
vt 0.014410 0.866877
vt 0.009610 0.866710
vt 0.019200 0.867218
vt 0.028727 0.868437
vt 0.023974 0.867741
vt 0.048389 0.810921
vt 0.033457 0.869281
vt 0.007203 1.000000
vt 0.038165 0.870249
vt 0.466978 0.940245
vt 0.466978 0.769127
vt 0.564350 0.854686
vt 0.761930 0.854686
vt 0.860744 0.761861
vt 0.888441 0.854686
vt 0.769283 0.996987
vt 0.860744 0.947510
vt 0.551698 0.990298
vt 0.769282 0.712385
vt 0.551698 0.719074
vt 0.399478 0.725807
vt 0.399478 0.506777
vt 0.579162 0.616292
vt 0.604974 0.739501
vt 0.771775 0.616291
vt 0.604974 0.493083
vt 0.480943 0.540783
vt 0.480943 0.321753
vt 0.660627 0.431268
vt 0.686440 0.554477
vt 0.853241 0.431267
vt 0.686440 0.308059
vt 0.555522 0.218514
vt 0.661298 0.119148
vt 0.690947 0.218514
vt 0.563392 0.370842
vt 0.661298 0.317879
vt 0.344019 0.218514
vt 0.563392 0.066185
vt 0.619281 0.193846
vt 0.725057 0.094480
vt 0.754706 0.193846
vt 0.627151 0.346174
vt 0.725057 0.293211
vt 0.407778 0.193846
vt 0.627151 0.041517
vt 0.734041 0.485946
vt 0.734059 0.713516
vt 0.403313 0.713516
vt 0.403292 0.485941
vt 0.765822 0.301832
vt 0.765841 0.529402
vt 0.435095 0.529401
vt 0.435074 0.301826
s 1
usemtl Pine
f 2/1/2 3/2/3 1/3/1
f 4/4/4 5/5/5 3/2/3
f 6/6/6 7/7/7 5/5/5
f 8/8/8 9/9/9 7/7/7
f 9/9/9 12/10/12 11/11/11
f 11/11/11 14/12/14 13/13/13
f 14/12/14 22/14/22 23/15/23
f 13/13/13 16/16/16 15/17/15
f 15/17/15 2/18/2 1/19/1
f 22/14/22 29/20/29 30/21/30
f 8/8/8 21/22/21 10/23/10
f 16/16/16 23/15/23 24/24/24
f 4/4/4 19/25/19 6/6/6
f 12/10/12 21/22/21 22/14/22
f 2/18/2 24/24/24 18/26/18
f 2/1/2 17/27/17 4/4/4
f 6/6/6 20/28/20 8/8/8
f 32/29/32 39/30/39 40/31/40
f 19/25/19 28/32/28 20/28/20
f 18/33/18 25/34/25 17/27/17
f 18/26/18 32/29/32 26/35/26
f 23/15/23 30/21/30 31/36/31
f 20/28/20 29/20/29 21/22/21
f 17/27/17 27/37/27 19/25/19
f 24/24/24 31/36/31 32/29/32
f 39/30/39 46/38/46 47/39/47
f 30/21/30 37/40/37 38/41/38
f 27/37/27 36/42/36 28/32/28
f 26/43/26 33/44/33 25/34/25
f 26/35/26 40/31/40 34/45/34
f 31/36/31 38/41/38 39/30/39
f 28/32/28 37/40/37 29/20/29
f 25/34/25 35/46/35 27/37/27
f 42/47/42 49/48/49 41/49/41
f 36/42/36 45/50/45 37/40/37
f 33/44/33 43/51/43 35/46/35
f 40/31/40 47/39/47 48/52/48
f 38/41/38 45/50/45 46/38/46
f 35/46/35 44/53/44 36/42/36
f 34/54/34 41/49/41 33/44/33
f 34/45/34 48/52/48 42/55/42
f 56/56/56 63/57/63 64/58/64
f 42/55/42 56/56/56 50/59/50
f 47/39/47 54/60/54 55/61/55
f 44/53/44 53/62/53 45/50/45
f 41/49/41 51/63/51 43/51/43
f 48/52/48 55/61/55 56/56/56
f 46/38/46 53/62/53 54/60/54
f 43/51/43 52/64/52 44/53/44
f 57/65/57 67/66/67 59/67/59
f 54/60/54 61/68/61 62/69/62
f 51/63/51 60/70/60 52/64/52
f 50/71/50 57/65/57 49/48/49
f 50/59/50 64/58/64 58/72/58
f 55/61/55 62/69/62 63/57/63
f 52/64/52 61/68/61 53/62/53
f 49/48/49 59/67/59 51/63/51
f 66/73/66 80/74/80 74/75/74
f 64/58/64 71/76/71 72/77/72
f 62/69/62 69/78/69 70/79/70
f 59/67/59 68/80/68 60/70/60
f 58/81/58 65/82/65 57/65/57
f 58/72/58 72/77/72 66/73/66
f 63/57/63 70/79/70 71/76/71
f 60/70/60 69/78/69 61/68/61
f 71/76/71 78/83/78 79/84/79
f 68/80/68 77/85/77 69/78/69
f 65/82/65 75/86/75 67/66/67
f 72/77/72 79/84/79 80/74/80
f 70/79/70 77/85/77 78/83/78
f 67/66/67 76/87/76 68/80/68
f 66/88/66 73/89/73 65/82/65
f 76/87/76 75/86/75 81/90/81
f 73/89/73 74/91/74 81/90/81
f 74/75/74 80/74/80 81/90/81
f 79/84/79 78/83/78 81/90/81
f 77/85/77 76/87/76 81/90/81
f 75/86/75 73/89/73 81/90/81
f 80/74/80 79/84/79 81/90/81
f 78/83/78 77/85/77 81/90/81
f 82/92/82 83/93/83 84/94/84
f 89/95/89 85/96/85 92/97/92
f 87/98/87 89/95/89 88/99/88
f 87/98/87 84/94/84 89/95/89
f 84/94/84 87/98/87 86/100/86
f 82/92/82 84/94/84 86/100/86
f 91/101/91 85/96/85 89/95/89
f 91/101/91 89/95/89 84/94/84
f 84/94/84 90/102/90 91/101/91
f 83/93/83 90/102/90 84/94/84
f 88/99/88 89/95/89 92/97/92
f 93/103/93 94/104/94 97/105/97
f 96/106/96 97/105/97 95/107/95
f 93/103/93 97/105/97 96/106/96
f 98/108/98 95/107/95 97/105/97
f 94/104/94 98/108/98 97/105/97
f 99/109/99 100/110/100 103/111/103
f 102/112/102 103/111/103 101/113/101
f 99/109/99 103/111/103 102/112/102
f 104/114/104 101/113/101 103/111/103
f 100/110/100 104/114/104 103/111/103
f 105/109/105 106/110/106 109/111/109
f 108/112/108 109/111/109 107/113/107
f 105/109/105 109/111/109 108/112/108
f 110/114/110 107/113/107 109/111/109
f 106/110/106 110/114/110 109/111/109
f 115/99/115 114/95/114 111/97/111
f 120/93/120 113/102/113 119/94/119
f 119/94/119 113/102/113 112/101/112
f 112/101/112 114/95/114 119/94/119
f 112/101/112 118/96/118 114/95/114
f 121/92/121 119/94/119 117/100/117
f 119/94/119 116/98/116 117/100/117
f 116/98/116 119/94/119 114/95/114
f 116/98/116 114/95/114 115/99/115
f 114/95/114 118/96/118 111/97/111
f 121/92/121 120/93/120 119/94/119
f 122/103/122 123/104/123 126/105/126
f 125/106/125 126/105/126 124/107/124
f 122/103/122 126/105/126 125/106/125
f 127/108/127 124/107/124 126/105/126
f 123/104/123 127/108/127 126/105/126
f 128/109/128 129/110/129 132/111/132
f 131/112/131 132/111/132 130/113/130
f 128/109/128 132/111/132 131/112/131
f 133/114/133 130/113/130 132/111/132
f 129/110/129 133/114/133 132/111/132
f 134/92/134 135/93/135 136/94/136
f 141/95/141 137/96/137 144/97/144
f 139/98/139 141/95/141 140/99/140
f 139/98/139 136/94/136 141/95/141
f 136/94/136 139/98/139 138/100/138
f 134/92/134 136/94/136 138/100/138
f 143/101/143 137/96/137 141/95/141
f 143/101/143 141/95/141 136/94/136
f 136/94/136 142/102/142 143/101/143
f 135/93/135 142/102/142 136/94/136
f 140/99/140 141/95/141 144/97/144
f 145/92/145 146/93/146 147/94/147
f 152/95/152 148/96/148 155/97/155
f 150/98/150 152/95/152 151/99/151
f 150/98/150 147/94/147 152/95/152
f 147/94/147 150/98/150 149/100/149
f 145/92/145 147/94/147 149/100/149
f 154/101/154 148/96/148 152/95/152
f 154/101/154 152/95/152 147/94/147
f 147/94/147 153/102/153 154/101/154
f 146/93/146 153/102/153 147/94/147
f 151/99/151 152/95/152 155/97/155
f 156/103/156 157/104/157 160/105/160
f 159/106/159 160/105/160 158/107/158
f 156/103/156 160/105/160 159/106/159
f 161/108/161 158/107/158 160/105/160
f 157/104/157 161/108/161 160/105/160
f 162/109/162 163/110/163 166/111/166
f 165/112/165 166/111/166 164/113/164
f 162/109/162 166/111/166 165/112/165
f 167/114/167 164/113/164 166/111/166
f 163/110/163 167/114/167 166/111/166
f 168/92/168 169/93/169 170/94/170
f 175/95/175 171/96/171 178/97/178
f 173/98/173 175/95/175 174/99/174
f 173/98/173 170/94/170 175/95/175
f 170/94/170 173/98/173 172/100/172
f 168/92/168 170/94/170 172/100/172
f 177/101/177 171/96/171 175/95/175
f 177/101/177 175/95/175 170/94/170
f 170/94/170 176/102/176 177/101/177
f 169/93/169 176/102/176 170/94/170
f 174/99/174 175/95/175 178/97/178
f 183/110/183 197/114/197 196/111/196
f 186/115/186 182/116/182 189/117/189
f 184/118/184 186/115/186 185/119/185
f 184/118/184 181/120/181 186/115/186
f 197/114/197 180/113/180 196/111/196
f 187/109/187 196/111/196 179/112/179
f 188/121/188 182/116/182 186/115/186
f 188/121/188 186/115/186 181/120/181
f 179/112/179 196/111/196 180/113/180
f 187/109/187 183/110/183 196/111/196
f 185/119/185 186/115/186 189/117/189
f 190/103/190 191/104/191 194/105/194
f 193/106/193 194/105/194 192/107/192
f 190/103/190 194/105/194 193/106/193
f 195/108/195 192/107/192 194/105/194
f 191/104/191 195/108/195 194/105/194
f 202/115/202 199/116/199 204/117/204
f 200/118/200 202/115/202 201/119/201
f 200/118/200 198/120/198 202/115/202
f 203/121/203 199/116/199 202/115/202
f 203/121/203 202/115/202 198/120/198
f 201/119/201 202/115/202 204/117/204
f 205/92/205 206/93/206 207/94/207
f 212/95/212 208/96/208 215/97/215
f 210/98/210 212/95/212 211/99/211
f 210/98/210 207/94/207 212/95/212
f 207/94/207 210/98/210 209/100/209
f 205/92/205 207/94/207 209/100/209
f 214/101/214 208/96/208 212/95/212
f 214/101/214 212/95/212 207/94/207
f 207/94/207 213/102/213 214/101/214
f 206/93/206 213/102/213 207/94/207
f 211/99/211 212/95/212 215/97/215
f 216/103/216 217/104/217 220/105/220
f 219/106/219 220/105/220 218/107/218
f 216/103/216 220/105/220 219/106/219
f 221/108/221 218/107/218 220/105/220
f 217/104/217 221/108/221 220/105/220
f 222/92/222 223/93/223 224/94/224
f 229/95/229 225/96/225 232/97/232
f 227/98/227 229/95/229 228/99/228
f 227/98/227 224/94/224 229/95/229
f 224/94/224 227/98/227 226/100/226
f 222/92/222 224/94/224 226/100/226
f 231/101/231 225/96/225 229/95/229
f 231/101/231 229/95/229 224/94/224
f 224/94/224 230/102/230 231/101/231
f 223/93/223 230/102/230 224/94/224
f 228/99/228 229/95/229 232/97/232
f 237/99/237 236/95/236 233/97/233
f 242/93/242 235/102/235 241/94/241
f 241/94/241 235/102/235 234/101/234
f 234/101/234 236/95/236 241/94/241
f 234/101/234 240/96/240 236/95/236
f 243/92/243 241/94/241 239/100/239
f 241/94/241 238/98/238 239/100/239
f 238/98/238 241/94/241 236/95/236
f 238/98/238 236/95/236 237/99/237
f 236/95/236 240/96/240 233/97/233
f 243/92/243 242/93/242 241/94/241
f 248/115/248 245/116/245 250/117/250
f 246/118/246 248/115/248 247/119/247
f 246/118/246 244/120/244 248/115/248
f 249/121/249 245/116/245 248/115/248
f 249/121/249 248/115/248 244/120/244
f 247/119/247 248/115/248 250/117/250
f 255/99/255 254/95/254 251/97/251
f 260/93/260 253/102/253 259/94/259
f 259/94/259 253/102/253 252/101/252
f 252/101/252 254/95/254 259/94/259
f 252/101/252 258/96/258 254/95/254
f 261/92/261 259/94/259 257/100/257
f 259/94/259 256/98/256 257/100/257
f 256/98/256 259/94/259 254/95/254
f 256/98/256 254/95/254 255/99/255
f 254/95/254 258/96/258 251/97/251
f 261/92/261 260/93/260 259/94/259
f 266/122/266 263/123/263 268/124/268
f 264/125/264 266/122/266 265/126/265
f 264/125/264 262/127/262 266/122/266
f 267/128/267 263/123/263 266/122/266
f 267/128/267 266/122/266 262/127/262
f 265/126/265 266/122/266 268/124/268
f 269/109/269 270/110/270 273/111/273
f 272/112/272 273/111/273 271/113/271
f 269/109/269 273/111/273 272/112/272
f 274/114/274 271/113/271 273/111/273
f 270/110/270 274/114/274 273/111/273
f 279/99/279 278/95/278 275/97/275
f 284/93/284 277/102/277 283/94/283
f 283/94/283 277/102/277 276/101/276
f 276/101/276 278/95/278 283/94/283
f 276/101/276 282/96/282 278/95/278
f 285/92/285 283/94/283 281/100/281
f 283/94/283 280/98/280 281/100/281
f 280/98/280 283/94/283 278/95/278
f 280/98/280 278/95/278 279/99/279
f 278/95/278 282/96/282 275/97/275
f 285/92/285 284/93/284 283/94/283
f 290/99/290 289/95/289 286/97/286
f 295/93/295 288/102/288 294/94/294
f 294/94/294 288/102/288 287/101/287
f 287/101/287 289/95/289 294/94/294
f 287/101/287 293/96/293 289/95/289
f 296/92/296 294/94/294 292/100/292
f 294/94/294 291/98/291 292/100/292
f 291/98/291 294/94/294 289/95/289
f 291/98/291 289/95/289 290/99/290
f 289/95/289 293/96/293 286/97/286
f 296/92/296 295/93/295 294/94/294
f 301/99/301 300/95/300 297/97/297
f 306/93/306 299/102/299 305/94/305
f 305/94/305 299/102/299 298/101/298
f 298/101/298 300/95/300 305/94/305
f 298/101/298 304/96/304 300/95/300
f 307/92/307 305/94/305 303/100/303
f 305/94/305 302/98/302 303/100/303
f 302/98/302 305/94/305 300/95/300
f 302/98/302 300/95/300 301/99/301
f 300/95/300 304/96/304 297/97/297
f 307/92/307 306/93/306 305/94/305
f 312/99/312 311/95/311 308/97/308
f 317/93/317 310/102/310 316/94/316
f 316/94/316 310/102/310 309/101/309
f 309/101/309 311/95/311 316/94/316
f 309/101/309 315/96/315 311/95/311
f 318/92/318 316/94/316 314/100/314
f 316/94/316 313/98/313 314/100/314
f 313/98/313 316/94/316 311/95/311
f 313/98/313 311/95/311 312/99/312
f 311/95/311 315/96/315 308/97/308
f 318/92/318 317/93/317 316/94/316
f 323/99/323 322/95/322 319/97/319
f 328/93/328 321/102/321 327/94/327
f 327/94/327 321/102/321 320/101/320
f 320/101/320 322/95/322 327/94/327
f 320/101/320 326/96/326 322/95/322
f 329/92/329 327/94/327 325/100/325
f 327/94/327 324/98/324 325/100/325
f 324/98/324 327/94/327 322/95/322
f 324/98/324 322/95/322 323/99/323
f 322/95/322 326/96/326 319/97/319
f 329/92/329 328/93/328 327/94/327
f 334/99/334 333/95/333 330/97/330
f 339/93/339 332/102/332 338/94/338
f 338/94/338 332/102/332 331/101/331
f 331/101/331 333/95/333 338/94/338
f 331/101/331 337/96/337 333/95/333
f 340/92/340 338/94/338 336/100/336
f 338/94/338 335/98/335 336/100/336
f 335/98/335 338/94/338 333/95/333
f 335/98/335 333/95/333 334/99/334
f 333/95/333 337/96/337 330/97/330
f 340/92/340 339/93/339 338/94/338
f 345/99/345 344/95/344 341/97/341
f 350/93/350 343/102/343 349/94/349
f 349/94/349 343/102/343 342/101/342
f 342/101/342 344/95/344 349/94/349
f 342/101/342 348/96/348 344/95/344
f 351/92/351 349/94/349 347/100/347
f 349/94/349 346/98/346 347/100/347
f 346/98/346 349/94/349 344/95/344
f 346/98/346 344/95/344 345/99/345
f 344/95/344 348/96/348 341/97/341
f 351/92/351 350/93/350 349/94/349
f 356/99/356 355/95/355 352/97/352
f 361/93/361 354/102/354 360/94/360
f 360/94/360 354/102/354 353/101/353
f 353/101/353 355/95/355 360/94/360
f 353/101/353 359/96/359 355/95/355
f 362/92/362 360/94/360 358/100/358
f 360/94/360 357/98/357 358/100/358
f 357/98/357 360/94/360 355/95/355
f 357/98/357 355/95/355 356/99/356
f 355/95/355 359/96/359 352/97/352
f 362/92/362 361/93/361 360/94/360
f 367/99/367 366/95/366 363/97/363
f 372/93/372 365/102/365 371/94/371
f 371/94/371 365/102/365 364/101/364
f 364/101/364 366/95/366 371/94/371
f 364/101/364 370/96/370 366/95/366
f 373/92/373 371/94/371 369/100/369
f 371/94/371 368/98/368 369/100/369
f 368/98/368 371/94/371 366/95/366
f 368/98/368 366/95/366 367/99/367
f 366/95/366 370/96/370 363/97/363
f 373/92/373 372/93/372 371/94/371
f 378/99/378 377/95/377 374/97/374
f 383/93/383 376/102/376 382/94/382
f 382/94/382 376/102/376 375/101/375
f 375/101/375 377/95/377 382/94/382
f 375/101/375 381/96/381 377/95/377
f 384/92/384 382/94/382 380/100/380
f 382/94/382 379/98/379 380/100/380
f 379/98/379 382/94/382 377/95/377
f 379/98/379 377/95/377 378/99/378
f 377/95/377 381/96/381 374/97/374
f 384/92/384 383/93/383 382/94/382
f 389/99/389 388/95/388 385/97/385
f 394/93/394 387/102/387 393/94/393
f 393/94/393 387/102/387 386/101/386
f 386/101/386 388/95/388 393/94/393
f 386/101/386 392/96/392 388/95/388
f 395/92/395 393/94/393 391/100/391
f 393/94/393 390/98/390 391/100/391
f 390/98/390 393/94/393 388/95/388
f 390/98/390 388/95/388 389/99/389
f 388/95/388 392/96/392 385/97/385
f 395/92/395 394/93/394 393/94/393
f 400/99/400 399/95/399 396/97/396
f 405/93/405 398/102/398 404/94/404
f 404/94/404 398/102/398 397/101/397
f 397/101/397 399/95/399 404/94/404
f 397/101/397 403/96/403 399/95/399
f 406/92/406 404/94/404 402/100/402
f 404/94/404 401/98/401 402/100/402
f 401/98/401 404/94/404 399/95/399
f 401/98/401 399/95/399 400/99/400
f 399/95/399 403/96/403 396/97/396
f 406/92/406 405/93/405 404/94/404
f 411/99/411 410/95/410 407/97/407
f 416/93/416 409/102/409 415/94/415
f 415/94/415 409/102/409 408/101/408
f 408/101/408 410/95/410 415/94/415
f 408/101/408 414/96/414 410/95/410
f 417/92/417 415/94/415 413/100/413
f 415/94/415 412/98/412 413/100/413
f 412/98/412 415/94/415 410/95/410
f 412/98/412 410/95/410 411/99/411
f 410/95/410 414/96/414 407/97/407
f 417/92/417 416/93/416 415/94/415
f 422/99/422 421/95/421 418/97/418
f 427/93/427 420/102/420 426/94/426
f 426/94/426 420/102/420 419/101/419
f 419/101/419 421/95/421 426/94/426
f 419/101/419 425/96/425 421/95/421
f 428/92/428 426/94/426 424/100/424
f 426/94/426 423/98/423 424/100/424
f 423/98/423 426/94/426 421/95/421
f 423/98/423 421/95/421 422/99/422
f 421/95/421 425/96/425 418/97/418
f 428/92/428 427/93/427 426/94/426
f 433/122/433 430/123/430 435/124/435
f 431/125/431 433/122/433 432/126/432
f 431/125/431 429/127/429 433/122/433
f 434/128/434 430/123/430 433/122/433
f 434/128/434 433/122/433 429/127/429
f 432/126/432 433/122/433 435/124/435
f 440/99/440 439/95/439 436/97/436
f 445/93/445 438/102/438 444/94/444
f 444/94/444 438/102/438 437/101/437
f 437/101/437 439/95/439 444/94/444
f 437/101/437 443/96/443 439/95/439
f 446/92/446 444/94/444 442/100/442
f 444/94/444 441/98/441 442/100/442
f 441/98/441 444/94/444 439/95/439
f 441/98/441 439/95/439 440/99/440
f 439/95/439 443/96/443 436/97/436
f 446/92/446 445/93/445 444/94/444
f 451/99/451 450/95/450 447/97/447
f 456/93/456 449/102/449 455/94/455
f 455/94/455 449/102/449 448/101/448
f 448/101/448 450/95/450 455/94/455
f 448/101/448 454/96/454 450/95/450
f 457/92/457 455/94/455 453/100/453
f 455/94/455 452/98/452 453/100/453
f 452/98/452 455/94/455 450/95/450
f 452/98/452 450/95/450 451/99/451
f 450/95/450 454/96/454 447/97/447
f 457/92/457 456/93/456 455/94/455
f 462/99/462 461/95/461 458/97/458
f 467/93/467 460/102/460 466/94/466
f 466/94/466 460/102/460 459/101/459
f 459/101/459 461/95/461 466/94/466
f 459/101/459 465/96/465 461/95/461
f 468/92/468 466/94/466 464/100/464
f 466/94/466 463/98/463 464/100/464
f 463/98/463 466/94/466 461/95/461
f 463/98/463 461/95/461 462/99/462
f 461/95/461 465/96/465 458/97/458
f 468/92/468 467/93/467 466/94/466
f 473/99/473 472/95/472 469/97/469
f 478/93/478 471/102/471 477/94/477
f 477/94/477 471/102/471 470/101/470
f 470/101/470 472/95/472 477/94/477
f 470/101/470 476/96/476 472/95/472
f 479/92/479 477/94/477 475/100/475
f 477/94/477 474/98/474 475/100/475
f 474/98/474 477/94/477 472/95/472
f 474/98/474 472/95/472 473/99/473
f 472/95/472 476/96/476 469/97/469
f 479/92/479 478/93/478 477/94/477
f 484/99/484 483/95/483 480/97/480
f 489/93/489 482/102/482 488/94/488
f 488/94/488 482/102/482 481/101/481
f 481/101/481 483/95/483 488/94/488
f 481/101/481 487/96/487 483/95/483
f 490/92/490 488/94/488 486/100/486
f 488/94/488 485/98/485 486/100/486
f 485/98/485 488/94/488 483/95/483
f 485/98/485 483/95/483 484/99/484
f 483/95/483 487/96/487 480/97/480
f 490/92/490 489/93/489 488/94/488
f 495/122/495 492/123/492 497/124/497
f 493/125/493 495/122/495 494/126/494
f 493/125/493 491/127/491 495/122/495
f 496/128/496 492/123/492 495/122/495
f 496/128/496 495/122/495 491/127/491
f 494/126/494 495/122/495 497/124/497
f 502/99/502 501/95/501 498/97/498
f 507/93/507 500/102/500 506/94/506
f 506/94/506 500/102/500 499/101/499
f 499/101/499 501/95/501 506/94/506
f 499/101/499 505/96/505 501/95/501
f 508/92/508 506/94/506 504/100/504
f 506/94/506 503/98/503 504/100/504
f 503/98/503 506/94/506 501/95/501
f 503/98/503 501/95/501 502/99/502
f 501/95/501 505/96/505 498/97/498
f 508/92/508 507/93/507 506/94/506
f 513/99/513 512/95/512 509/97/509
f 518/93/518 511/102/511 517/94/517
f 517/94/517 511/102/511 510/101/510
f 510/101/510 512/95/512 517/94/517
f 510/101/510 516/96/516 512/95/512
f 519/92/519 517/94/517 515/100/515
f 517/94/517 514/98/514 515/100/515
f 514/98/514 517/94/517 512/95/512
f 514/98/514 512/95/512 513/99/513
f 512/95/512 516/96/516 509/97/509
f 519/92/519 518/93/518 517/94/517
f 524/99/524 523/95/523 520/97/520
f 529/93/529 522/102/522 528/94/528
f 528/94/528 522/102/522 521/101/521
f 521/101/521 523/95/523 528/94/528
f 521/101/521 527/96/527 523/95/523
f 530/92/530 528/94/528 526/100/526
f 528/94/528 525/98/525 526/100/526
f 525/98/525 528/94/528 523/95/523
f 525/98/525 523/95/523 524/99/524
f 523/95/523 527/96/527 520/97/520
f 530/92/530 529/93/529 528/94/528
f 535/99/535 534/95/534 531/97/531
f 540/93/540 533/102/533 539/94/539
f 539/94/539 533/102/533 532/101/532
f 532/101/532 534/95/534 539/94/539
f 532/101/532 538/96/538 534/95/534
f 541/92/541 539/94/539 537/100/537
f 539/94/539 536/98/536 537/100/537
f 536/98/536 539/94/539 534/95/534
f 536/98/536 534/95/534 535/99/535
f 534/95/534 538/96/538 531/97/531
f 541/92/541 540/93/540 539/94/539
f 546/99/546 545/95/545 542/97/542
f 551/93/551 544/102/544 550/94/550
f 550/94/550 544/102/544 543/101/543
f 543/101/543 545/95/545 550/94/550
f 543/101/543 549/96/549 545/95/545
f 552/92/552 550/94/550 548/100/548
f 550/94/550 547/98/547 548/100/548
f 547/98/547 550/94/550 545/95/545
f 547/98/547 545/95/545 546/99/546
f 545/95/545 549/96/549 542/97/542
f 552/92/552 551/93/551 550/94/550
f 557/99/557 556/95/556 553/97/553
f 562/93/562 555/102/555 561/94/561
f 561/94/561 555/102/555 554/101/554
f 554/101/554 556/95/556 561/94/561
f 554/101/554 560/96/560 556/95/556
f 563/92/563 561/94/561 559/100/559
f 561/94/561 558/98/558 559/100/559
f 558/98/558 561/94/561 556/95/556
f 558/98/558 556/95/556 557/99/557
f 556/95/556 560/96/560 553/97/553
f 563/92/563 562/93/562 561/94/561
f 568/99/568 567/95/567 564/97/564
f 573/93/573 566/102/566 572/94/572
f 572/94/572 566/102/566 565/101/565
f 565/101/565 567/95/567 572/94/572
f 565/101/565 571/96/571 567/95/567
f 574/92/574 572/94/572 570/100/570
f 572/94/572 569/98/569 570/100/570
f 569/98/569 572/94/572 567/95/567
f 569/98/569 567/95/567 568/99/568
f 567/95/567 571/96/571 564/97/564
f 574/92/574 573/93/573 572/94/572
f 579/122/579 576/123/576 581/124/581
f 577/125/577 579/122/579 578/126/578
f 577/125/577 575/127/575 579/122/579
f 580/128/580 576/123/576 579/122/579
f 580/128/580 579/122/579 575/127/575
f 578/126/578 579/122/579 581/124/581
f 586/99/586 585/95/585 582/97/582
f 591/93/591 584/102/584 590/94/590
f 590/94/590 584/102/584 583/101/583
f 583/101/583 585/95/585 590/94/590
f 583/101/583 589/96/589 585/95/585
f 592/92/592 590/94/590 588/100/588
f 590/94/590 587/98/587 588/100/588
f 587/98/587 590/94/590 585/95/585
f 587/98/587 585/95/585 586/99/586
f 585/95/585 589/96/589 582/97/582
f 592/92/592 591/93/591 590/94/590
f 597/99/597 596/95/596 593/97/593
f 602/93/602 595/102/595 601/94/601
f 601/94/601 595/102/595 594/101/594
f 594/101/594 596/95/596 601/94/601
f 594/101/594 600/96/600 596/95/596
f 603/92/603 601/94/601 599/100/599
f 601/94/601 598/98/598 599/100/599
f 598/98/598 601/94/601 596/95/596
f 598/98/598 596/95/596 597/99/597
f 596/95/596 600/96/600 593/97/593
f 603/92/603 602/93/602 601/94/601
f 608/99/608 607/95/607 604/97/604
f 613/93/613 606/102/606 612/94/612
f 612/94/612 606/102/606 605/101/605
f 605/101/605 607/95/607 612/94/612
f 605/101/605 611/96/611 607/95/607
f 614/92/614 612/94/612 610/100/610
f 612/94/612 609/98/609 610/100/610
f 609/98/609 612/94/612 607/95/607
f 609/98/609 607/95/607 608/99/608
f 607/95/607 611/96/611 604/97/604
f 614/92/614 613/93/613 612/94/612
f 619/99/619 618/95/618 615/97/615
f 624/93/624 617/102/617 623/94/623
f 623/94/623 617/102/617 616/101/616
f 616/101/616 618/95/618 623/94/623
f 616/101/616 622/96/622 618/95/618
f 625/92/625 623/94/623 621/100/621
f 623/94/623 620/98/620 621/100/621
f 620/98/620 623/94/623 618/95/618
f 620/98/620 618/95/618 619/99/619
f 618/95/618 622/96/622 615/97/615
f 625/92/625 624/93/624 623/94/623
f 630/99/630 629/95/629 626/97/626
f 635/93/635 628/102/628 634/94/634
f 634/94/634 628/102/628 627/101/627
f 627/101/627 629/95/629 634/94/634
f 627/101/627 633/96/633 629/95/629
f 636/92/636 634/94/634 632/100/632
f 634/94/634 631/98/631 632/100/632
f 631/98/631 634/94/634 629/95/629
f 631/98/631 629/95/629 630/99/630
f 629/95/629 633/96/633 626/97/626
f 636/92/636 635/93/635 634/94/634
f 641/99/641 640/95/640 637/97/637
f 646/93/646 639/102/639 645/94/645
f 645/94/645 639/102/639 638/101/638
f 638/101/638 640/95/640 645/94/645
f 638/101/638 644/96/644 640/95/640
f 647/92/647 645/94/645 643/100/643
f 645/94/645 642/98/642 643/100/643
f 642/98/642 645/94/645 640/95/640
f 642/98/642 640/95/640 641/99/641
f 640/95/640 644/96/644 637/97/637
f 647/92/647 646/93/646 645/94/645
f 652/99/652 651/95/651 648/97/648
f 657/93/657 650/102/650 656/94/656
f 656/94/656 650/102/650 649/101/649
f 649/101/649 651/95/651 656/94/656
f 649/101/649 655/96/655 651/95/651
f 658/92/658 656/94/656 654/100/654
f 656/94/656 653/98/653 654/100/654
f 653/98/653 656/94/656 651/95/651
f 653/98/653 651/95/651 652/99/652
f 651/95/651 655/96/655 648/97/648
f 658/92/658 657/93/657 656/94/656
f 663/122/663 660/123/660 665/124/665
f 661/125/661 663/122/663 662/126/662
f 661/125/661 659/127/659 663/122/663
f 664/128/664 660/123/660 663/122/663
f 664/128/664 663/122/663 659/127/659
f 662/126/662 663/122/663 665/124/665
f 670/99/670 669/95/669 666/97/666
f 675/93/675 668/102/668 674/94/674
f 674/94/674 668/102/668 667/101/667
f 667/101/667 669/95/669 674/94/674
f 667/101/667 673/96/673 669/95/669
f 676/92/676 674/94/674 672/100/672
f 674/94/674 671/98/671 672/100/672
f 671/98/671 674/94/674 669/95/669
f 671/98/671 669/95/669 670/99/670
f 669/95/669 673/96/673 666/97/666
f 676/92/676 675/93/675 674/94/674
f 681/99/681 680/95/680 677/97/677
f 686/93/686 679/102/679 685/94/685
f 685/94/685 679/102/679 678/101/678
f 678/101/678 680/95/680 685/94/685
f 678/101/678 684/96/684 680/95/680
f 687/92/687 685/94/685 683/100/683
f 685/94/685 682/98/682 683/100/683
f 682/98/682 685/94/685 680/95/680
f 682/98/682 680/95/680 681/99/681
f 680/95/680 684/96/684 677/97/677
f 687/92/687 686/93/686 685/94/685
f 692/99/692 691/95/691 688/97/688
f 697/93/697 690/102/690 696/94/696
f 696/94/696 690/102/690 689/101/689
f 689/101/689 691/95/691 696/94/696
f 689/101/689 695/96/695 691/95/691
f 698/92/698 696/94/696 694/100/694
f 696/94/696 693/98/693 694/100/694
f 693/98/693 696/94/696 691/95/691
f 693/98/693 691/95/691 692/99/692
f 691/95/691 695/96/695 688/97/688
f 698/92/698 697/93/697 696/94/696
f 703/99/703 702/95/702 699/97/699
f 708/93/708 701/102/701 707/94/707
f 707/94/707 701/102/701 700/101/700
f 700/101/700 702/95/702 707/94/707
f 700/101/700 706/96/706 702/95/702
f 709/92/709 707/94/707 705/100/705
f 707/94/707 704/98/704 705/100/705
f 704/98/704 707/94/707 702/95/702
f 704/98/704 702/95/702 703/99/703
f 702/95/702 706/96/706 699/97/699
f 709/92/709 708/93/708 707/94/707
f 714/99/714 713/95/713 710/97/710
f 719/93/719 712/102/712 718/94/718
f 718/94/718 712/102/712 711/101/711
f 711/101/711 713/95/713 718/94/718
f 711/101/711 717/96/717 713/95/713
f 720/92/720 718/94/718 716/100/716
f 718/94/718 715/98/715 716/100/716
f 715/98/715 718/94/718 713/95/713
f 715/98/715 713/95/713 714/99/714
f 713/95/713 717/96/717 710/97/710
f 720/92/720 719/93/719 718/94/718
f 725/99/725 724/95/724 721/97/721
f 730/93/730 723/102/723 729/94/729
f 729/94/729 723/102/723 722/101/722
f 722/101/722 724/95/724 729/94/729
f 722/101/722 728/96/728 724/95/724
f 731/92/731 729/94/729 727/100/727
f 729/94/729 726/98/726 727/100/727
f 726/98/726 729/94/729 724/95/724
f 726/98/726 724/95/724 725/99/725
f 724/95/724 728/96/728 721/97/721
f 731/92/731 730/93/730 729/94/729
f 736/99/736 735/95/735 732/97/732
f 741/93/741 734/102/734 740/94/740
f 740/94/740 734/102/734 733/101/733
f 733/101/733 735/95/735 740/94/740
f 733/101/733 739/96/739 735/95/735
f 742/92/742 740/94/740 738/100/738
f 740/94/740 737/98/737 738/100/738
f 737/98/737 740/94/740 735/95/735
f 737/98/737 735/95/735 736/99/736
f 735/95/735 739/96/739 732/97/732
f 742/92/742 741/93/741 740/94/740
f 747/99/747 746/95/746 743/97/743
f 752/93/752 745/102/745 751/94/751
f 751/94/751 745/102/745 744/101/744
f 744/101/744 746/95/746 751/94/751
f 744/101/744 750/96/750 746/95/746
f 753/92/753 751/94/751 749/100/749
f 751/94/751 748/98/748 749/100/749
f 748/98/748 751/94/751 746/95/746
f 748/98/748 746/95/746 747/99/747
f 746/95/746 750/96/750 743/97/743
f 753/92/753 752/93/752 751/94/751
f 758/99/758 757/95/757 754/97/754
f 763/93/763 756/102/756 762/94/762
f 762/94/762 756/102/756 755/101/755
f 755/101/755 757/95/757 762/94/762
f 755/101/755 761/96/761 757/95/757
f 764/92/764 762/94/762 760/100/760
f 762/94/762 759/98/759 760/100/760
f 759/98/759 762/94/762 757/95/757
f 759/98/759 757/95/757 758/99/758
f 757/95/757 761/96/761 754/97/754
f 764/92/764 763/93/763 762/94/762
f 769/99/769 768/95/768 765/97/765
f 774/93/774 767/102/767 773/94/773
f 773/94/773 767/102/767 766/101/766
f 766/101/766 768/95/768 773/94/773
f 766/101/766 772/96/772 768/95/768
f 775/92/775 773/94/773 771/100/771
f 773/94/773 770/98/770 771/100/771
f 770/98/770 773/94/773 768/95/768
f 770/98/770 768/95/768 769/99/769
f 768/95/768 772/96/772 765/97/765
f 775/92/775 774/93/774 773/94/773
f 780/99/780 779/95/779 776/97/776
f 785/93/785 778/102/778 784/94/784
f 784/94/784 778/102/778 777/101/777
f 777/101/777 779/95/779 784/94/784
f 777/101/777 783/96/783 779/95/779
f 786/92/786 784/94/784 782/100/782
f 784/94/784 781/98/781 782/100/782
f 781/98/781 784/94/784 779/95/779
f 781/98/781 779/95/779 780/99/780
f 779/95/779 783/96/783 776/97/776
f 786/92/786 785/93/785 784/94/784
f 791/99/791 790/95/790 787/97/787
f 796/93/796 789/102/789 795/94/795
f 795/94/795 789/102/789 788/101/788
f 788/101/788 790/95/790 795/94/795
f 788/101/788 794/96/794 790/95/790
f 797/92/797 795/94/795 793/100/793
f 795/94/795 792/98/792 793/100/793
f 792/98/792 795/94/795 790/95/790
f 792/98/792 790/95/790 791/99/791
f 790/95/790 794/96/794 787/97/787
f 797/92/797 796/93/796 795/94/795
f 802/99/802 801/95/801 798/97/798
f 807/93/807 800/102/800 806/94/806
f 806/94/806 800/102/800 799/101/799
f 799/101/799 801/95/801 806/94/806
f 799/101/799 805/96/805 801/95/801
f 808/92/808 806/94/806 804/100/804
f 806/94/806 803/98/803 804/100/804
f 803/98/803 806/94/806 801/95/801
f 803/98/803 801/95/801 802/99/802
f 801/95/801 805/96/805 798/97/798
f 808/92/808 807/93/807 806/94/806
f 813/99/813 812/95/812 809/97/809
f 818/93/818 811/102/811 817/94/817
f 817/94/817 811/102/811 810/101/810
f 810/101/810 812/95/812 817/94/817
f 810/101/810 816/96/816 812/95/812
f 819/92/819 817/94/817 815/100/815
f 817/94/817 814/98/814 815/100/815
f 814/98/814 817/94/817 812/95/812
f 814/98/814 812/95/812 813/99/813
f 812/95/812 816/96/816 809/97/809
f 819/92/819 818/93/818 817/94/817
f 824/99/824 823/95/823 820/97/820
f 829/93/829 822/102/822 828/94/828
f 828/94/828 822/102/822 821/101/821
f 821/101/821 823/95/823 828/94/828
f 821/101/821 827/96/827 823/95/823
f 830/92/830 828/94/828 826/100/826
f 828/94/828 825/98/825 826/100/826
f 825/98/825 828/94/828 823/95/823
f 825/98/825 823/95/823 824/99/824
f 823/95/823 827/96/827 820/97/820
f 830/92/830 829/93/829 828/94/828
f 835/99/835 834/95/834 831/97/831
f 840/93/840 833/102/833 839/94/839
f 839/94/839 833/102/833 832/101/832
f 832/101/832 834/95/834 839/94/839
f 832/101/832 838/96/838 834/95/834
f 841/92/841 839/94/839 837/100/837
f 839/94/839 836/98/836 837/100/837
f 836/98/836 839/94/839 834/95/834
f 836/98/836 834/95/834 835/99/835
f 834/95/834 838/96/838 831/97/831
f 841/92/841 840/93/840 839/94/839
f 846/99/846 845/95/845 842/97/842
f 851/93/851 844/102/844 850/94/850
f 850/94/850 844/102/844 843/101/843
f 843/101/843 845/95/845 850/94/850
f 843/101/843 849/96/849 845/95/845
f 852/92/852 850/94/850 848/100/848
f 850/94/850 847/98/847 848/100/848
f 847/98/847 850/94/850 845/95/845
f 847/98/847 845/95/845 846/99/846
f 845/95/845 849/96/849 842/97/842
f 852/92/852 851/93/851 850/94/850
f 857/99/857 856/95/856 853/97/853
f 862/93/862 855/102/855 861/94/861
f 861/94/861 855/102/855 854/101/854
f 854/101/854 856/95/856 861/94/861
f 854/101/854 860/96/860 856/95/856
f 863/92/863 861/94/861 859/100/859
f 861/94/861 858/98/858 859/100/859
f 858/98/858 861/94/861 856/95/856
f 858/98/858 856/95/856 857/99/857
f 856/95/856 860/96/860 853/97/853
f 863/92/863 862/93/862 861/94/861
f 868/99/868 867/95/867 864/97/864
f 873/93/873 866/102/866 872/94/872
f 872/94/872 866/102/866 865/101/865
f 865/101/865 867/95/867 872/94/872
f 865/101/865 871/96/871 867/95/867
f 874/92/874 872/94/872 870/100/870
f 872/94/872 869/98/869 870/100/870
f 869/98/869 872/94/872 867/95/867
f 869/98/869 867/95/867 868/99/868
f 867/95/867 871/96/871 864/97/864
f 874/92/874 873/93/873 872/94/872
f 879/99/879 878/95/878 875/97/875
f 884/93/884 877/102/877 883/94/883
f 883/94/883 877/102/877 876/101/876
f 876/101/876 878/95/878 883/94/883
f 876/101/876 882/96/882 878/95/878
f 885/92/885 883/94/883 881/100/881
f 883/94/883 880/98/880 881/100/881
f 880/98/880 883/94/883 878/95/878
f 880/98/880 878/95/878 879/99/879
f 878/95/878 882/96/882 875/97/875
f 885/92/885 884/93/884 883/94/883
f 890/99/890 889/95/889 886/97/886
f 895/93/895 888/102/888 894/94/894
f 894/94/894 888/102/888 887/101/887
f 887/101/887 889/95/889 894/94/894
f 887/101/887 893/96/893 889/95/889
f 896/92/896 894/94/894 892/100/892
f 894/94/894 891/98/891 892/100/892
f 891/98/891 894/94/894 889/95/889
f 891/98/891 889/95/889 890/99/890
f 889/95/889 893/96/893 886/97/886
f 896/92/896 895/93/895 894/94/894
f 897/103/897 898/104/898 901/105/901
f 900/106/900 901/105/901 899/107/899
f 897/103/897 901/105/901 900/106/900
f 902/108/902 899/107/899 901/105/901
f 898/104/898 902/108/902 901/105/901
f 903/129/903 904/130/904 905/131/905
f 903/129/903 905/131/905 906/132/906
f 907/129/907 908/130/908 909/131/909
f 907/129/907 909/131/909 910/132/910
f 911/129/911 912/130/912 913/131/913
f 911/129/911 913/131/913 914/132/914
f 915/133/915 916/134/916 917/135/917
f 915/133/915 917/135/917 918/136/918
f 919/129/919 931/131/931 932/132/932
f 919/129/919 930/130/930 931/131/931
f 924/104/924 920/108/920 921/105/921
f 920/108/920 923/107/923 921/105/921
f 925/103/925 921/105/921 922/106/922
f 922/106/922 921/105/921 923/107/923
f 925/103/925 924/104/924 921/105/921
f 929/129/929 927/131/927 926/132/926
f 929/129/929 928/130/928 927/131/927
f 933/129/933 934/130/934 935/131/935
f 933/129/933 935/131/935 936/132/936
f 937/129/937 938/130/938 939/131/939
f 937/129/937 939/131/939 940/132/940
f 944/129/944 942/131/942 941/132/941
f 944/129/944 943/130/943 942/131/942
f 945/133/945 946/134/946 947/135/947
f 945/133/945 947/135/947 948/136/948
f 949/103/949 950/104/950 953/105/953
f 952/106/952 953/105/953 951/107/951
f 949/103/949 953/105/953 952/106/952
f 954/108/954 951/107/951 953/105/953
f 950/104/950 954/108/954 953/105/953
f 955/103/955 956/104/956 959/105/959
f 958/106/958 959/105/959 957/107/957
f 955/103/955 959/105/959 958/106/958
f 960/108/960 957/107/957 959/105/959
f 956/104/956 960/108/960 959/105/959
f 2/1/2 4/4/4 3/2/3
f 4/4/4 6/6/6 5/5/5
f 6/6/6 8/8/8 7/7/7
f 8/8/8 10/23/10 9/9/9
f 9/9/9 10/23/10 12/10/12
f 11/11/11 12/10/12 14/12/14
f 14/12/14 12/10/12 22/14/22
f 13/13/13 14/12/14 16/16/16
f 15/17/15 16/16/16 2/18/2
f 22/14/22 21/22/21 29/20/29
f 8/8/8 20/28/20 21/22/21
f 16/16/16 14/12/14 23/15/23
f 4/4/4 17/27/17 19/25/19
f 12/10/12 10/23/10 21/22/21
f 2/18/2 16/16/16 24/24/24
f 2/1/2 18/33/18 17/27/17
f 6/6/6 19/25/19 20/28/20
f 32/29/32 31/36/31 39/30/39
f 19/25/19 27/37/27 28/32/28
f 18/33/18 26/43/26 25/34/25
f 18/26/18 24/24/24 32/29/32
f 23/15/23 22/14/22 30/21/30
f 20/28/20 28/32/28 29/20/29
f 17/27/17 25/34/25 27/37/27
f 24/24/24 23/15/23 31/36/31
f 39/30/39 38/41/38 46/38/46
f 30/21/30 29/20/29 37/40/37
f 27/37/27 35/46/35 36/42/36
f 26/43/26 34/54/34 33/44/33
f 26/35/26 32/29/32 40/31/40
f 31/36/31 30/21/30 38/41/38
f 28/32/28 36/42/36 37/40/37
f 25/34/25 33/44/33 35/46/35
f 42/47/42 50/71/50 49/48/49
f 36/42/36 44/53/44 45/50/45
f 33/44/33 41/49/41 43/51/43
f 40/31/40 39/30/39 47/39/47
f 38/41/38 37/40/37 45/50/45
f 35/46/35 43/51/43 44/53/44
f 34/54/34 42/47/42 41/49/41
f 34/45/34 40/31/40 48/52/48
f 56/56/56 55/61/55 63/57/63
f 42/55/42 48/52/48 56/56/56
f 47/39/47 46/38/46 54/60/54
f 44/53/44 52/64/52 53/62/53
f 41/49/41 49/48/49 51/63/51
f 48/52/48 47/39/47 55/61/55
f 46/38/46 45/50/45 53/62/53
f 43/51/43 51/63/51 52/64/52
f 57/65/57 65/82/65 67/66/67
f 54/60/54 53/62/53 61/68/61
f 51/63/51 59/67/59 60/70/60
f 50/71/50 58/81/58 57/65/57
f 50/59/50 56/56/56 64/58/64
f 55/61/55 54/60/54 62/69/62
f 52/64/52 60/70/60 61/68/61
f 49/48/49 57/65/57 59/67/59
f 66/73/66 72/77/72 80/74/80
f 64/58/64 63/57/63 71/76/71
f 62/69/62 61/68/61 69/78/69
f 59/67/59 67/66/67 68/80/68
f 58/81/58 66/88/66 65/82/65
f 58/72/58 64/58/64 72/77/72
f 63/57/63 62/69/62 70/79/70
f 60/70/60 68/80/68 69/78/69
f 71/76/71 70/79/70 78/83/78
f 68/80/68 76/87/76 77/85/77
f 65/82/65 73/89/73 75/86/75
f 72/77/72 71/76/71 79/84/79
f 70/79/70 69/78/69 77/85/77
f 67/66/67 75/86/75 76/87/76
f 66/88/66 74/91/74 73/89/73
