# Blender 4.5.1 LTS
# www.blender.org
mtllib Rock01.mtl
o Cube
v 0.474834 2.135299 1.012747
v -0.128557 2.118103 -1.149045
v -0.375069 1.232957 -1.201652
v 0.721534 0.568805 3.450334
v 0.000268 1.249179 2.201313
v 0.993635 0.001314 0.697833
v -1.989479 1.373197 1.626951
v -0.177219 3.860494 -0.840010
v -0.122203 2.373799 1.091065
v 1.618587 1.447407 0.233820
v -1.498358 1.551242 2.335484
v 0.995779 1.919742 -0.075567
v 1.460956 1.393298 -0.604677
v 0.341425 3.607969 -1.012023
v 0.996025 3.231393 -1.225841
v 1.746252 -0.007280 -0.405437
v -0.509669 3.148421 0.344430
v 0.893562 1.853104 -1.143153
v 0.861513 1.446105 -1.108952
v 0.530109 3.924973 -0.811944
v 1.013698 0.000942 1.335303
v 1.121342 0.808082 1.096993
v -0.422882 2.840460 0.864053
v 0.284383 3.000373 -1.019368
v -1.949773 1.829950 1.608567
v 0.675299 3.805317 0.109346
v 1.120969 3.549521 -0.096360
v -0.601340 3.811044 0.010893
v 1.021843 2.975484 -0.001092
v -0.478940 0.000000 -0.881124
v 0.959552 0.950878 -1.310400
v 0.993810 1.645534 0.715711
v 1.549733 0.000000 0.477386
v -0.914157 2.271637 0.721770
v -1.065130 0.953750 -0.263865
v -1.077996 2.058901 0.227376
v 0.671827 -0.000199 -0.894818
v -1.026074 0.005090 -0.100934
v 0.600512 0.987103 2.225221
v -1.024587 0.691999 0.234338
v -1.909730 1.975956 1.026404
v 0.583954 2.740882 0.933048
v 1.133909 0.278162 2.396433
v 0.705486 1.668649 2.095692
v 1.275499 -0.012825 3.026304
v -0.021845 1.006358 2.958656
v -1.218120 1.245889 0.525090
v 0.970388 2.080915 0.927504
v -0.673120 -0.001295 2.965290
v 0.600017 0.010551 3.406243
v -1.711566 1.764148 1.828608
v -0.998337 2.013890 1.122299
v -2.044250 1.520974 0.819744
v -1.312567 1.824695 1.756587
v 0.160767 0.722187 3.362225
v -1.804025 0.000088 0.306716
v -2.047150 0.633525 0.807902
v 0.976565 0.787248 3.043436
v -1.763488 0.876084 0.512583
v -1.050341 0.462411 2.889322
v -1.002153 0.956339 -0.914053
v 0.089944 2.849737 0.268830
v 0.546534 2.289077 -1.363436
v -0.974940 3.563774 -0.376023
v -1.024951 2.136640 -0.683990
v -0.998684 1.506861 -0.251905
v -0.885807 1.943000 -1.120973
v -0.583143 3.014913 -1.069368
v 0.985040 4.005574 -0.435779
v 0.943176 2.794821 0.662234
v -0.193090 4.001869 -0.312242
v -0.998257 2.797046 0.330041
v -1.064945 3.219687 -0.313004
v -1.576909 1.661063 0.739815
v 0.996482 1.275022 2.243106
v 0.999279 0.662695 2.146554
v -1.524351 1.993671 0.945564
v -1.077882 1.229800 2.477235
v -2.157792 0.924196 1.473766
v -0.192444 1.579898 2.002805
v -1.266268 1.895312 1.083184
v 0.988443 0.000108 2.302829
v -2.185223 0.744302 1.185675
v -1.916552 0.552362 1.994779
v -2.154069 0.362265 1.021945
v -1.581918 0.006076 2.011215
v -2.055546 -0.008937 1.054624
v -1.958284 0.166897 1.593921
v -1.621288 0.677806 2.225428
v -0.501162 0.485161 3.456310
v -0.020151 1.787505 1.542529
v -1.923601 1.283362 2.023199
v -0.997354 -0.000020 -0.729133
v -1.014704 1.697559 2.216455
vn 0.3375 0.0157 0.9412
vn 0.2353 0.1212 0.9643
vn 0.2002 0.0407 0.9789
vn 0.4784 -0.1721 0.8611
vn -0.9963 0.0077 0.0851
vn -0.9901 0.0814 -0.1146
vn -0.9990 -0.0431 -0.0112
vn -0.5555 -0.4968 0.6667
vn -0.7037 -0.4878 0.5165
vn -0.5960 -0.1721 0.7843
vn -0.0915 -0.3734 -0.9232
vn -0.0513 -0.2196 -0.9742
vn -0.0156 -0.0825 -0.9965
vn 0.0119 0.9549 0.2967
vn -0.0037 0.9266 0.3759
vn -0.2201 0.8926 0.3934
vn -0.0616 0.9436 0.3253
vn 0.0443 0.9684 0.2453
vn 0.5919 0.5873 0.5521
vn 0.3132 0.4104 -0.8564
vn 0.4428 0.4117 -0.7965
vn 0.6432 0.2726 -0.7155
vn -0.0055 0.9238 0.3828
vn 0.0211 0.8870 0.4613
vn -0.0215 0.9423 0.3339
vn 0.9957 0.0599 -0.0713
vn 0.9986 -0.0536 -0.0026
vn 0.9921 0.0491 0.1151
vn 0.8031 0.5474 -0.2354
vn 0.8719 0.4649 -0.1538
vn 0.8806 0.4521 -0.1416
vn 0.0354 0.2795 0.9595
vn -0.2711 0.4268 -0.8627
vn 0.1875 0.6030 -0.7754
vn -0.0703 0.3437 -0.9364
vn -0.3962 -0.5791 0.7125
vn -0.2449 -0.6445 0.7243
vn 0.9979 0.0102 -0.0635
vn 0.9978 0.0647 0.0144
vn -0.4269 0.4063 0.8079
vn -0.5144 0.6947 0.5029
vn -0.5649 0.6016 0.5647
vn -0.7719 -0.2089 0.6005
vn -0.8259 -0.4425 0.3493
vn -0.6911 -0.3715 0.6200
vn 0.9760 -0.0099 0.2174
vn 0.9910 0.0606 -0.1195
vn 0.9926 0.1098 -0.0517
vn -0.5127 0.6921 0.5081
vn -0.9979 -0.0210 -0.0606
vn -0.9925 -0.0261 -0.1193
vn -0.3292 -0.1870 -0.9256
vn -0.1762 -0.1117 -0.9780
vn -0.1656 -0.2226 -0.9607
vn -0.0931 0.1220 -0.9882
vn -0.4307 0.2235 -0.8744
vn -0.1614 0.1422 -0.9766
vn 0.9963 -0.0287 -0.0808
vn 0.9724 0.1734 -0.1564
vn 0.9943 -0.0202 -0.1043
vn -0.5017 0.2383 -0.8316
vn -0.2286 0.4140 -0.8811
vn -0.3542 0.3192 -0.8790
vn -0.9995 -0.0016 -0.0319
vn -0.9695 0.0841 -0.2303
vn -0.7475 0.6632 -0.0377
vn -0.8100 0.2161 0.5451
vn -0.7661 0.5009 0.4028
vn -0.9086 0.3671 0.1991
vn -0.9834 0.1151 0.1405
vn 0.6210 0.7838 0.0035
vn 0.6702 0.7295 -0.1367
vn 0.6870 0.7182 -0.1106
vn 0.2811 0.2424 0.9286
vn -0.2189 0.3675 0.9039
vn 0.1738 0.0977 0.9799
vn 0.6715 0.6377 0.3773
vn -0.9052 0.3938 -0.1597
vn -0.9847 0.1238 0.1228
vn 0.9988 -0.0382 -0.0322
vn 0.5655 0.0720 0.8216
vn 0.4464 0.0213 0.8946
vn 0.6274 0.1001 0.7722
vn -0.8191 0.1337 -0.5579
vn -0.7750 0.3042 0.5539
vn -0.7527 0.2584 0.6056
vn -0.7449 0.2439 0.6210
vn 0.5420 0.3108 0.7808
vn 0.3293 0.1851 0.9259
vn 0.0070 0.8179 0.5753
vn 0.1718 0.9150 0.3650
vn 0.0430 0.9129 0.4059
vn 0.9883 -0.0994 -0.1153
vn -0.2439 0.4991 -0.8315
vn -0.2365 0.4071 -0.8822
vn -0.2672 0.3881 -0.8821
vn -0.8688 0.0594 -0.4916
vn -0.9728 0.0813 -0.2169
vn -0.9740 0.1660 -0.1542
vn 0.1048 0.9748 0.1972
vn 0.0645 0.8652 0.4973
vn -0.3269 0.1775 -0.9282
vn -0.6942 0.5112 0.5067
vn -0.1769 0.8585 0.4813
vn 0.5849 0.8090 0.0576
vn 0.8114 -0.2460 -0.5302
vn 0.8727 -0.3380 -0.3523
vn 0.8356 -0.2775 -0.4741
vn 0.8694 0.1795 -0.4603
vn 0.0406 0.9685 0.2457
vn -0.1340 0.0113 -0.9909
vn 0.3378 0.6105 0.7164
vn -0.7257 0.2774 -0.6297
vn -0.3556 0.2975 -0.8860
vn -0.2151 0.3481 -0.9125
vn -0.0847 -0.3077 -0.9477
vn -0.1562 0.7535 0.6387
vn 0.9984 0.0025 0.0557
vn 0.9996 -0.0102 0.0261
vn 0.9947 -0.0984 0.0307
vn -0.1358 0.9119 0.3872
vn 0.6336 -0.1142 -0.7652
vn 0.7462 0.2657 0.6104
vn -0.9758 0.0963 -0.1963
vn -0.9965 0.0624 -0.0562
vn -0.9651 -0.0136 -0.2616
vn -0.0670 0.4412 0.8949
vn 0.0309 0.9683 0.2477
vn -0.0371 0.9782 -0.2042
vn -0.3073 0.9271 -0.2145
vn -0.0223 0.9828 -0.1836
vn -0.1323 -0.5289 -0.8383
vn 0.4487 0.7997 0.3990
vn 0.2836 0.9234 0.2587
vn 0.1363 0.9654 0.2223
vn -0.5382 0.3539 0.7649
vn 0.1432 0.8318 0.5363
vn 0.4537 -0.0869 -0.8869
vn -0.2456 0.9345 -0.2577
vn -0.4719 0.8661 -0.1649
vn -0.1280 -0.2343 -0.9637
vn -0.2765 -0.1838 -0.9433
vn -0.4170 0.5079 0.7538
vn -0.9246 0.1373 -0.3553
vn 0.4508 0.0698 0.8899
vn 0.0560 0.8271 0.5592
vn -0.9950 0.0288 0.0961
vn -0.4809 0.8718 -0.0928
vn -0.9962 -0.0589 0.0646
vn 0.0219 0.9891 0.1458
vn -0.0378 0.9752 0.2181
vn -0.1381 0.7474 0.6498
vn 0.9928 -0.0792 -0.0901
vn -0.9234 -0.0594 -0.3792
vn -0.1967 0.5381 -0.8196
vn -0.7328 0.2223 0.6431
vn 0.2426 0.6121 -0.7527
vn 0.3648 -0.4633 -0.8076
vn -0.9752 0.2045 0.0844
vn -0.9595 0.2816 0.0046
vn 0.4413 0.5035 -0.7428
vn 0.3076 0.6332 -0.7103
vn 0.3745 0.5725 -0.7294
vn -0.4664 -0.0457 0.8834
vn -0.6664 0.3340 0.6665
vn -0.6563 0.3385 0.6743
vn -0.6761 0.3296 0.6590
vn -0.9529 0.0944 0.2881
vn -0.6628 0.0875 0.7437
vn 0.0971 0.1210 0.9879
vn -0.0502 0.0307 0.9983
vn 0.0187 0.0732 0.9971
vn 0.0425 0.9246 0.3786
vn -0.0628 0.9116 0.4062
vn 0.1629 0.9182 0.3610
vn 0.4096 0.6544 -0.6356
vn 0.3685 -0.0101 0.9296
vn 0.1841 0.9742 0.1307
vn 0.9353 0.3505 -0.0483
vn -0.0560 0.9650 0.2562
vn 0.5821 0.5765 0.5735
vn -0.9551 0.0629 0.2894
vn -0.6858 0.3251 0.6512
vn 0.1797 0.4872 0.8546
vn 0.0900 0.5210 0.8488
vn 0.2016 0.4560 0.8668
vn -0.4120 0.9087 0.0670
vn -0.4207 0.8856 0.1970
vn 0.9999 0.0070 -0.0155
vn -0.9346 -0.1598 -0.3176
vn -0.6838 0.1191 -0.7199
vn 0.4839 0.8265 0.2876
vn -0.1577 0.9209 0.3564
vn -0.1662 -0.0416 0.9852
vn 0.5436 0.3777 -0.7495
vn 0.7383 -0.1662 -0.6536
vn 0.1582 0.9814 0.1085
vn -0.0877 0.2577 0.9622
vn 0.0126 0.1035 0.9945
vn -0.0992 0.0748 0.9923
vn -0.3636 -0.0659 0.9292
vn 0.0968 0.4808 0.8715
vn 0.0683 -0.1551 0.9855
vn 0.0707 0.4784 0.8753
vn -0.9466 -0.2122 0.2427
vn -0.9423 -0.2286 0.2445
vn -0.9678 -0.1617 0.1931
vn -0.6608 -0.6703 0.3377
vn -0.9118 -0.2693 -0.3099
vt 0.823930 0.248571
vt 0.920648 0.274729
vt 0.822477 0.360124
vt 0.982057 0.780597
vt 0.969271 0.861358
vt 0.919624 0.788560
vt 0.697519 0.360043
vt 0.747777 0.319299
vt 0.751216 0.430061
vt 0.269839 0.880489
vt 0.306742 0.843579
vt 0.379693 0.870658
vt 0.361774 0.200910
vt 0.479595 0.232134
vt 0.475712 0.279205
vt 0.640166 0.703782
vt 0.594529 0.580718
vt 0.710700 0.658411
vt 0.636433 0.750874
vt 0.733084 0.761920
vt 0.888006 0.225874
vt 0.949463 0.228432
vt 0.488362 0.332787
vt 0.492744 0.473801
vt 0.490188 0.665351
vt 0.439828 0.526631
vt 0.143401 0.289013
vt 0.203470 0.125389
vt 0.238448 0.196123
vt 0.201058 0.468005
vt 0.247463 0.555534
vt 0.154366 0.539395
vt 0.866066 0.423819
vt 0.354017 0.006373
vt 0.435375 0.000000
vt 0.414946 0.032985
vt 0.939002 0.649046
vt 0.982057 0.638113
vt 0.100601 0.386625
vt 0.197166 0.273827
vt 0.439828 0.849101
vt 0.501282 0.867357
vt 0.488968 0.925064
vt 0.014661 0.751098
vt 0.049419 0.805134
vt 0.000000 0.810726
vt 0.927794 0.430061
vt 0.927794 0.530924
vt 0.760457 0.456091
vt 0.566350 0.942807
vt 0.822477 0.416145
vt 0.733889 0.256676
vt 0.259632 0.336798
vt 0.333769 0.301153
vt 0.319818 0.447137
vt 0.308776 0.099197
vt 0.408467 0.102335
vt 0.131719 0.000000
vt 0.259066 0.008801
vt 0.246029 0.073614
vt 0.594345 0.894508
vt 0.676674 0.927538
vt 0.665186 1.000000
vt 0.821432 0.303824
vt 0.768253 0.175754
vt 0.573270 0.244683
vt 0.606379 0.191972
vt 0.666798 0.205632
vt 0.030588 0.668246
vt 0.066001 0.618523
vt 0.077173 0.668854
vt 0.106500 0.199741
vt 0.021760 0.196432
vt 0.018715 0.112296
vt 0.837224 0.176988
vt 0.885829 0.096899
vt 0.907870 0.167805
vt 0.228366 0.449195
vt 0.250295 0.405062
vt 0.109404 0.751911
vt 0.081868 0.724000
vt 0.753459 0.774883
vt 0.687238 0.955445
vt 0.676674 0.786422
vt 0.792768 0.065257
vt 0.701321 0.061988
vt 0.700771 0.021158
vt 0.652229 0.000000
vt 0.822476 0.220278
vt 0.909499 0.225874
vt 0.778846 0.736486
vt 0.803343 0.638113
vt 0.830937 0.748894
vt -0.000000 0.413449
vt 0.596134 0.774884
vt 0.629838 0.813562
vt 0.573270 0.820157
vt 0.149570 0.773770
vt 0.171504 0.673739
vt 0.717244 0.689662
vt 0.737491 0.716660
vt 0.491830 0.073244
vt 0.004420 0.628248
vt 0.758382 0.641611
vt 0.996986 0.484835
vt 0.927794 0.525239
vt 0.948696 0.430061
vt 0.177845 0.616645
vt 0.122787 0.551996
vt 0.815417 0.638113
vt 0.758382 0.614777
vt 0.765597 0.553669
vt 0.665435 0.774883
vt 0.274306 0.220778
vt 0.963004 0.108621
vt 0.440980 0.178535
vt 0.663711 0.865109
vt 0.452575 0.447864
vt 0.775538 0.815600
vt 0.828845 0.061192
vt 0.168085 0.487793
vt 0.048837 0.468564
vt 0.259066 0.046941
vt 0.573270 0.734524
vt 0.541555 0.293614
vt 0.259066 0.606278
vt 0.651437 0.305108
vt 0.949463 0.417803
vt 0.582286 0.676406
vt 0.547616 0.513909
vt 0.515373 0.608328
vt 0.323512 0.801241
vt 0.259066 0.765948
vt 0.329591 0.769319
vt 0.516795 0.802211
vt 0.891337 0.009771
vt 0.822476 -0.000000
vt 0.758382 0.675129
vt 0.571881 0.592280
vt 0.542009 0.697883
vt 0.259066 0.449104
vt 0.822477 0.186917
vt 0.638432 0.124086
vt 0.449301 0.733798
vt 0.487344 0.697883
vt 0.904621 0.860464
vt 0.117932 0.799027
vt 0.640866 0.780233
vt 0.629928 0.082030
vt 0.573270 0.457187
vt 0.190380 0.753186
vt 0.091383 0.617865
vt 0.160805 0.616645
vt 0.666733 0.798930
vt 0.424146 0.751789
vt 0.405084 0.798458
vt 0.381204 0.706873
vt 0.284405 0.712540
vt 0.218533 0.621451
vt 0.190380 0.665207
vt 0.190380 0.616645
vt 0.259066 0.801241
vt 0.904621 0.723360
vt 0.705423 0.487347
vt 0.573270 0.478262
vt 0.708033 0.430061
vt 0.571881 0.457187
vt 0.753459 0.959586
vt 0.904621 0.667368
vt 0.566350 0.700771
vt 0.347202 0.512650
vt 0.259066 0.457187
vt 0.309587 0.467719
vt 0.397649 0.801240
vt 0.425557 0.597941
vt 0.439828 0.694131
vt 0.573270 0.989209
vt 0.996986 0.579177
vt 0.647279 0.553549
vt 0.426280 0.495468
vt 0.376079 0.465865
vt 0.381920 0.579866
vt 0.104976 0.839484
vt 0.190380 0.857191
vt 0.353304 0.947486
s 1
f 29/1/1 26/2/2 62/3/3
f 50/4/4 45/5/4 4/6/4
f 40/7/5 35/8/6 38/9/7
f 49/10/8 60/11/9 89/12/10
f 2/13/11 18/14/12 19/15/13
f 54/16/14 80/17/15 52/18/16
f 51/19/17 54/16/14 41/20/18
f 26/2/19 27/21/19 69/22/19
f 2/13/20 19/15/21 31/23/22
f 69/24/23 28/25/24 26/26/25
f 32/27/26 29/28/27 70/29/28
f 39/30/29 58/31/30 43/32/31
f 17/33/32 62/3/3 26/2/2
f 8/34/33 20/35/34 14/36/35
f 90/37/36 49/38/8 50/4/37
f 22/39/38 32/27/26 48/40/39
f 23/41/40 17/42/41 72/43/42
f 84/44/43 88/45/44 86/46/45
f 33/47/46 16/48/47 10/49/48
f 72/43/42 17/42/41 73/50/49
f 93/51/50 35/8/6 66/52/51
f 61/53/52 3/54/53 30/55/54
f 2/13/55 68/56/56 24/57/57
f 15/58/58 69/59/59 27/60/60
f 59/61/61 40/62/62 38/63/63
f 61/64/64 66/52/51 65/65/65
f 81/66/66 34/67/66 36/68/66
f 92/69/67 51/70/68 7/71/69
f 40/7/5 66/52/70 35/8/6
f 12/72/71 13/73/72 18/74/73
f 42/75/74 9/76/75 1/77/76
f 29/28/27 15/58/58 27/60/60
f 75/78/77 48/40/77 44/79/77
f 83/80/78 79/81/79 7/71/69
f 29/28/27 12/72/80 15/58/58
f 32/82/81 33/83/82 10/84/83
f 68/85/56 65/65/65 73/86/84
f 64/87/85 73/86/86 28/88/87
f 70/89/88 42/75/74 48/90/89
f 55/91/90 58/92/91 46/93/92
f 32/27/26 22/39/38 6/94/93
f 41/95/94 74/96/95 53/97/96
f 57/98/97 83/80/98 53/99/99
f 41/20/18 81/100/100 77/101/101
f 14/36/35 15/102/102 24/57/57
f 93/51/50 38/9/7 35/8/6
f 51/70/68 92/69/67 11/103/103
f 52/18/16 80/17/15 34/104/104
f 12/105/71 10/106/105 13/107/72
f 43/32/106 45/108/107 82/109/108
f 31/110/22 19/111/21 13/112/109
f 51/19/17 41/20/18 25/113/110
f 67/114/111 2/13/55 3/54/53
f 9/76/112 91/115/112 1/77/112
f 41/20/18 54/16/14 81/100/100
f 68/85/56 73/86/84 64/87/113
f 13/112/109 10/49/48 16/48/47
f 2/13/55 24/57/57 63/116/114
f 47/117/115 59/61/61 74/96/95
f 3/54/53 37/118/116 30/55/54
f 90/119/117 55/91/90 46/93/92
f 42/75/74 23/120/40 9/76/75
f 76/121/118 82/109/119 21/122/120
f 64/123/113 8/34/33 68/56/56
f 51/19/17 11/124/121 54/16/14
f 19/15/122 18/14/122 13/125/122
f 58/31/123 4/126/123 45/108/123
f 81/66/124 36/68/125 47/127/126
f 26/2/2 28/128/127 17/33/32
f 54/16/14 11/124/121 94/129/128
f 14/36/35 24/57/57 68/56/56
f 20/130/129 71/131/130 69/24/131
f 22/39/38 48/40/39 76/121/118
f 84/132/43 86/133/45 89/134/10
f 18/14/12 2/13/11 63/116/132
f 17/42/133 23/41/134 62/135/135
f 34/136/136 23/120/40 72/137/42
f 55/91/90 4/138/137 58/92/91
f 18/14/138 63/116/138 15/102/138
f 2/13/55 67/114/111 68/56/56
f 24/57/57 15/102/102 63/116/114
f 8/139/139 71/131/130 20/130/129
f 64/140/140 71/131/130 8/139/139
f 31/23/141 37/118/116 3/54/53
f 30/55/54 93/141/142 61/53/52
f 9/76/75 34/136/136 91/115/143
f 68/85/56 67/142/144 65/65/65
f 26/2/2 29/1/1 27/21/145
f 69/24/23 71/131/146 28/25/24
f 72/143/147 65/65/65 36/68/125
f 64/140/140 28/25/148 71/131/130
f 72/143/147 73/86/149 65/65/65
f 42/144/150 70/145/151 62/135/135
f 8/34/33 14/36/35 68/56/56
f 78/146/152 90/119/117 46/93/92
f 15/58/58 12/72/80 18/74/153
f 83/80/98 57/98/97 85/147/154
f 9/76/75 23/120/40 34/136/136
f 74/96/95 41/95/94 77/148/155
f 73/86/86 17/149/156 28/88/87
f 20/35/34 15/102/157 14/36/35
f 16/150/158 37/118/158 31/23/158
f 53/99/99 59/151/61 57/98/97
f 25/152/159 41/153/160 53/99/99
f 2/13/55 31/23/141 3/54/53
f 25/152/159 53/99/99 83/80/98
f 23/41/134 42/144/150 62/135/135
f 16/48/47 31/110/22 13/112/109
f 66/52/51 47/127/126 36/68/125
f 81/154/161 47/117/162 74/96/163
f 3/54/53 61/53/52 67/114/111
f 11/155/164 92/156/67 89/134/10
f 61/64/64 93/51/50 66/52/51
f 78/157/165 89/134/166 60/158/167
f 21/122/120 22/39/38 76/121/118
f 7/71/168 25/152/159 83/80/98
f 25/159/169 7/160/169 51/161/169
f 49/10/8 90/162/36 60/11/9
f 90/37/170 50/4/171 55/163/172
f 32/27/26 12/72/80 29/28/27
f 1/164/173 44/165/174 48/166/175
f 20/130/34 69/24/176 15/167/157
f 33/83/82 32/82/81 6/168/177
f 46/93/92 58/92/91 39/169/178
f 58/31/30 45/108/179 43/32/31
f 70/145/151 29/170/180 62/135/135
f 70/29/28 48/40/39 32/27/26
f 59/61/61 47/117/115 40/62/62
f 94/129/128 80/17/15 54/16/14
f 6/94/93 22/39/38 21/122/120
f 42/75/74 1/77/76 48/90/89
f 39/171/181 43/172/181 76/173/181
f 34/67/182 72/143/147 36/68/125
f 90/162/183 78/174/165 60/11/167
f 78/157/184 80/175/185 94/176/186
f 54/16/187 52/18/16 81/100/188
f 48/40/39 75/78/189 76/121/118
f 53/97/96 74/96/95 59/61/61
f 40/7/190 47/127/126 66/52/51
f 59/61/61 38/63/63 56/177/191
f 10/106/105 12/105/71 32/178/192
f 81/100/188 52/18/16 34/104/104
f 34/104/104 80/17/15 91/179/193
f 4/6/194 55/163/172 50/4/171
f 74/96/163 77/148/195 81/154/161
f 84/132/43 89/134/10 92/156/67
f 43/32/106 82/109/108 76/121/196
f 78/146/197 46/93/92 39/169/178
f 44/180/198 39/171/199 75/181/200
f 66/52/51 36/68/125 65/65/65
f 11/155/164 89/134/10 78/157/201
f 39/171/199 5/182/202 78/157/184
f 1/164/173 91/179/193 80/17/15
f 44/165/174 1/164/173 80/17/15
f 5/182/202 39/171/199 44/180/198
f 80/175/185 5/182/202 44/180/198
f 39/171/199 76/173/203 75/181/200
f 80/175/185 78/157/184 5/182/202
f 92/69/67 79/81/79 84/44/43
f 11/155/204 78/157/184 94/176/186
f 61/64/64 65/65/65 67/142/144
f 88/45/44 85/147/205 87/183/206
f 83/80/207 85/147/205 79/81/79
f 79/81/79 88/45/44 84/44/43
f 85/147/205 88/45/44 79/81/79
f 92/69/67 7/71/69 79/81/79
f 57/98/97 59/151/61 56/184/191
f 88/45/44 87/183/208 86/46/45
f 85/147/154 57/98/97 56/184/191
f 87/183/209 85/147/154 56/184/191
f 86/185/45 49/10/8 89/12/10
