# Blender 4.5.4 LTS
# www.blender.org
mtllib BreakLever.mtl
g BreakLever_Mesh
v -0.015000 -0.030000 0.020000
v -0.015000 -0.010000 0.020000
v -0.015000 -0.030000 -0.040000
v -0.015000 -0.010000 -0.040000
v 0.015000 -0.030000 0.020000
v 0.015000 -0.010000 0.020000
v 0.015000 -0.030000 -0.040000
v 0.015000 -0.010000 -0.040000
v -0.015000 -0.030000 -0.060000
v -0.015000 -0.050000 -0.060000
v 0.015000 -0.050000 -0.060000
v 0.015000 -0.030000 -0.060000
v -0.015000 -0.030000 -0.090000
v -0.015000 -0.050000 -0.090000
v 0.015000 -0.050000 -0.090000
v 0.015000 -0.030000 -0.090000
v -0.000000 -0.030000 -0.190000
v -0.000000 -0.030000 -0.090000
v 0.010607 -0.032929 -0.190000
v 0.010607 -0.032929 -0.090000
v 0.015000 -0.040000 -0.190000
v 0.015000 -0.040000 -0.090000
v 0.010607 -0.047071 -0.190000
v 0.010607 -0.047071 -0.090000
v -0.000000 -0.050000 -0.190000
v -0.000000 -0.050000 -0.090000
v -0.010607 -0.047071 -0.190000
v -0.010607 -0.047071 -0.090000
v -0.015000 -0.040000 -0.190000
v -0.015000 -0.040000 -0.090000
v -0.010607 -0.032929 -0.190000
v -0.010607 -0.032929 -0.090000
vn -1.0000 -0.0000 -0.0000
vn 1.0000 -0.0000 -0.0000
vn -0.0000 -0.0000 1.0000
vn -0.0000 -1.0000 -0.0000
vn -0.0000 1.0000 -0.0000
vn -0.0000 -0.7071 0.7071
vn -0.0000 0.7071 -0.7071
vn -0.0000 -0.0000 -1.0000
vn 0.2662 0.9639 -0.0000
vn 0.8494 0.5277 -0.0000
vn 0.8494 -0.5277 -0.0000
vn 0.2662 -0.9639 -0.0000
vn -0.2662 -0.9639 -0.0000
vn -0.8494 -0.5277 -0.0000
vn -0.8494 0.5277 -0.0000
vn -0.2662 0.9639 -0.0000
vt 0.625000 0.000000
vt 0.375000 0.250000
vt 0.375000 0.000000
vt 0.375000 0.500000
vt 0.625000 0.500000
vt 0.375000 0.750000
vt 0.625000 0.750000
vt 0.375000 1.000000
vt 0.125000 0.750000
vt 0.125000 0.500000
vt 0.875000 0.500000
vt 0.625000 0.250000
vt 1.000000 1.000000
vt 1.000000 0.500000
vt 0.875000 1.000000
vt 0.750000 0.500000
vt 0.750000 1.000000
vt 0.625000 1.000000
vt 0.500000 0.500000
vt 0.500000 1.000000
vt 0.250000 0.500000
vt 0.250000 1.000000
vt 0.125000 1.000000
vt 0.000000 0.500000
vt 0.919706 0.080294
vt 0.580294 0.080294
vt 0.580294 0.419706
vt 0.875000 0.750000
vt 0.000000 1.000000
vt 0.750000 0.490000
vt 0.919706 0.419706
vt 0.990000 0.250000
vt 0.750000 0.010000
vt 0.510000 0.250000
s 0
f 2/1/1 3/2/1 1/3/1
f 7/4/2 12/5/2 8/5/2
f 8/5/2 5/6/2 7/4/2
f 6/7/3 1/8/3 5/6/3
f 7/4/4 1/9/4 3/10/4
f 4/11/5 6/7/5 8/5/5
f 11/4/2 16/5/2 12/5/2
f 3/10/6 11/4/6 7/4/6
f 8/5/7 9/11/7 4/11/7
f 3/2/1 9/12/1 10/2/1
f 13/12/8 15/4/8 14/2/8
f 10/10/4 15/4/4 11/4/4
f 12/5/5 13/11/5 9/11/5
f 9/12/1 14/2/1 10/2/1
f 18/13/9 19/11/9 17/14/9
f 20/15/10 21/16/10 19/11/10
f 22/17/11 23/5/11 21/16/11
f 24/18/12 25/19/12 23/5/12
f 26/20/13 27/4/13 25/19/13
f 28/8/14 29/21/14 27/4/14
f 30/22/15 31/10/15 29/21/15
f 32/23/16 17/24/16 31/10/16
f 23/25/8 27/26/8 31/27/8
f 2/1/1 4/12/1 3/2/1
f 7/4/2 11/4/2 12/5/2
f 8/5/2 6/7/2 5/6/2
f 6/7/3 2/18/3 1/8/3
f 7/4/4 5/6/4 1/9/4
f 4/11/5 2/28/5 6/7/5
f 11/4/2 15/4/2 16/5/2
f 3/10/6 10/10/6 11/4/6
f 8/5/7 12/5/7 9/11/7
f 3/2/1 4/12/1 9/12/1
f 13/12/8 16/5/8 15/4/8
f 10/10/4 14/10/4 15/4/4
f 12/5/5 16/5/5 13/11/5
f 9/12/1 13/12/1 14/2/1
f 18/13/9 20/15/9 19/11/9
f 20/15/10 22/17/10 21/16/10
f 22/17/11 24/18/11 23/5/11
f 24/18/12 26/20/12 25/19/12
f 26/20/13 28/8/13 27/4/13
f 28/8/14 30/22/14 29/21/14
f 30/22/15 32/23/15 31/10/15
f 32/23/16 18/29/16 17/24/16
f 31/27/8 17/30/8 19/31/8
f 19/31/8 21/32/8 23/25/8
f 23/25/8 25/33/8 27/26/8
f 27/26/8 29/34/8 31/27/8
f 31/27/8 19/31/8 23/25/8
