# Blender 4.3.2
# www.blender.org
mtllib LeadTruck.mtl
g LeadTruck_Mesh
v -0.600000 0.350000 1.350000
v -0.600000 0.350000 0.850000
v 0.600000 0.350000 1.350000
v 0.600000 0.350000 0.850000
v -0.600000 0.850000 1.350000
v -0.600000 0.850000 0.850000
v 0.600000 0.850000 1.350000
v 0.600000 0.850000 0.850000
v -0.200000 0.600000 0.850000
v -0.200000 0.800000 0.850000
v -0.200000 0.600000 -0.100000
v -0.200000 0.800000 -0.100000
v 0.200000 0.600000 0.850000
v 0.200000 0.800000 0.850000
v 0.200000 0.600000 -0.100000
v 0.200000 0.800000 -0.100000
vn -0.0000 1.0000 -0.0000
vn 1.0000 -0.0000 -0.0000
vn -1.0000 -0.0000 -0.0000
vn -0.0000 -1.0000 -0.0000
vn -0.0000 -0.0000 -1.0000
vn -0.0000 -0.0000 1.0000
vt 0.875000 0.546875
vt 0.625000 0.703125
vt 0.625000 0.546875
vt 0.375000 0.750000
vt 0.375000 0.500000
vt 0.625000 0.046875
vt 0.375000 0.250000
vt 0.375000 0.000000
vt 0.125000 0.750000
vt 0.125000 0.500000
vt 0.571429 0.250000
vt 0.571429 0.750000
vt 0.375000 1.000000
vt 0.625000 0.000000
vt 0.625000 0.250000
vt 0.625000 0.500000
vt 0.625000 0.750000
vt 0.875000 0.500000
vt 0.875000 0.703125
vt 0.571429 0.500000
vt 0.571429 1.000000
vt 0.625000 1.000000
vt 0.875000 0.750000
s 0
f 6/1/1 7/2/1 8/3/1
f 8/3/2 3/4/2 4/5/2
f 5/6/3 2/7/3 1/8/3
f 4/5/4 1/9/4 2/10/4
f 6/11/5 4/5/5 2/7/5
f 7/12/6 1/13/6 3/4/6
f 10/14/3 11/7/3 9/8/3
f 12/15/5 15/5/5 11/7/5
f 16/16/2 13/4/2 15/5/2
f 14/17/6 9/13/6 13/4/6
f 15/5/4 9/9/4 11/10/4
f 12/18/1 14/17/1 16/16/1
f 6/1/1 5/19/1 7/2/1
f 8/3/2 7/12/2 3/4/2
f 5/6/3 6/11/3 2/7/3
f 4/5/4 3/4/4 1/9/4
f 6/11/5 8/20/5 4/5/5
f 7/12/6 5/21/6 1/13/6
f 10/14/3 12/15/3 11/7/3
f 12/15/5 16/16/5 15/5/5
f 16/16/2 14/17/2 13/4/2
f 14/17/6 10/22/6 9/13/6
f 15/5/4 13/4/4 9/9/4
f 12/18/1 10/23/1 14/17/1
