# Blender 4.5.4 LTS
# www.blender.org
mtllib LocoCollision.mtl
g LocoCollision_Mesh
v 0.000000 0.000000 -0.600000
v 0.000000 1.650000 -0.600000
v 0.000000 0.000000 -2.600000
v 0.000000 1.650000 -2.600000
v 1.200000 0.000000 -0.600000
v 1.200000 1.850000 -0.600000
v 1.200000 0.000000 -2.600000
v 1.200000 1.850000 -2.600000
v 0.700000 0.000000 -2.600000
v 0.550000 1.650000 -2.600000
v 0.700000 0.000000 -0.600000
v 0.550000 1.650000 -0.600000
v 0.800000 1.850000 -2.600000
v 0.550000 1.650000 6.000000
v 0.700000 2.150000 5.400000
v 0.800000 1.850000 -0.600000
v 1.200000 1.850000 0.400000
v 1.200000 0.000000 0.400000
v 0.700000 0.000000 0.400000
v 0.700000 0.000000 5.800000
v 0.700000 1.850000 0.400000
v 1.200000 2.150000 2.000000
v 1.200000 0.000000 2.000000
v 0.700000 0.000000 2.000000
v 0.700000 2.150000 2.000000
v 1.200000 0.000000 5.800000
v 1.200000 2.150000 5.400000
v 1.200000 2.500000 0.400000
v 0.700000 2.500000 0.400000
v 1.200000 2.500000 2.000000
v 0.700000 2.500000 2.000000
v 0.700000 0.000000 6.100000
v 1.200000 1.650000 6.000000
v 1.200000 0.000000 6.000000
v 0.700000 0.000000 7.000000
v 0.550000 1.650000 7.000000
v 1.200000 1.650000 7.000000
v 1.300000 1.650000 6.000000
v 1.300000 0.000000 6.000000
v 1.300000 1.650000 7.000000
v 1.300000 0.000000 7.000000
v 0.000000 0.000000 8.200001
v 0.000000 1.300000 8.200001
v 0.000000 0.000000 7.000000
v 0.000000 1.300000 7.000000
v 1.200000 0.000000 8.200001
v 1.200000 1.300000 8.200001
v 1.200000 0.000000 7.000000
v 1.200000 1.300000 7.000000
v 0.000000 2.500000 0.400000
v 0.000000 2.500000 2.000000
v 0.000000 1.850000 0.400000
v 0.000000 1.850000 -0.600000
v 0.000000 1.300000 7.400000
v 0.000000 1.300000 -1.500000
v 0.800000 1.300000 -1.500000
v 0.800000 1.300000 7.400000
v 0.800000 2.500000 7.400000
v 0.800000 2.500000 -1.500000
v 0.692820 2.900000 7.400000
v 0.692820 2.900000 -1.500000
v 0.400000 3.192820 7.400000
v 0.400000 3.192820 -1.500000
v 0.000000 3.300000 7.400000
v 0.000000 3.300000 -1.500000
v 0.000000 2.150000 5.400000
v 0.000000 0.000000 6.100000
v 0.000000 0.000000 5.800000
v 0.000000 1.650000 6.000000
v 0.000000 0.000000 2.000000
v 0.000000 0.000000 0.400000
v 0.000000 2.150000 2.000000
v 0.000000 1.650000 7.000000
v 0.180848 4.042104 -0.400000
v 0.176490 3.992294 -0.400000
v 0.176490 3.992294 -3.500000
v 0.180848 4.042104 -3.500000
v 0.360320 4.018476 -0.400000
v 0.351638 3.969236 -0.400000
v 0.351638 3.969236 -3.500000
v 0.360320 4.018476 -3.500000
v 0.524109 3.931000 -0.400000
v 0.524109 3.931000 -3.500000
v 0.537049 3.979296 -3.500000
v 0.709692 3.924862 -0.400000
v 0.692591 3.877878 -3.500000
v 0.709692 3.924862 -3.500000
v 0.855802 3.810273 -3.500000
v 0.876933 3.855589 -3.500000
v 1.037500 3.772003 -0.400000
v 1.012500 3.728702 -0.400000
v 1.012500 3.728702 -3.500000
v 1.037500 3.772003 -3.500000
v 1.190171 3.674741 -0.400000
v 1.161492 3.633783 -3.500000
v 1.190171 3.674741 -3.500000
v 1.301645 3.526240 -3.500000
v 1.333784 3.564542 -3.500000
v 0.000000 4.000000 -3.500000
v 0.000000 4.050000 -3.500000
v -0.180848 4.042104 -0.400000
v -0.176490 3.992294 -0.400000
v -0.176490 3.992294 -3.500000
v -0.180848 4.042104 -3.500000
v -0.360320 4.018476 -0.400000
v -0.351638 3.969236 -3.500000
v -0.360320 4.018476 -3.500000
v -0.537049 3.979296 -0.400000
v -0.524109 3.931000 -0.400000
v -0.524109 3.931000 -3.500000
v -0.537049 3.979296 -3.500000
v -0.709692 3.924862 -0.400000
v -0.692591 3.877878 -0.400000
v -0.692591 3.877878 -3.500000
v -0.709692 3.924862 -3.500000
v -0.876933 3.855589 -0.400000
v -0.855802 3.810273 -0.400000
v -0.855802 3.810273 -3.500000
v -0.876933 3.855589 -3.500000
v -1.037500 3.772003 -0.400000
v -1.012500 3.728702 -0.400000
v -1.012500 3.728702 -3.500000
v -1.037500 3.772003 -3.500000
v -1.190171 3.674741 -0.400000
v -1.161492 3.633783 -0.400000
v -1.161492 3.633783 -3.500000
v -1.190171 3.674741 -3.500000
v -1.333784 3.564542 -0.400000
v -1.301645 3.526240 -0.400000
v -1.301645 3.526240 -3.500000
v -1.333784 3.564542 -3.500000
v 0.537049 3.979296 -0.400000
v 0.692591 3.877878 -0.400000
v 0.876933 3.855589 -0.400000
v 0.855802 3.810273 -0.400000
v 1.161492 3.633783 -0.400000
v 1.333784 3.564542 -0.400000
v 1.301645 3.526240 -0.400000
v 0.000000 4.000000 -0.400000
v -0.351638 3.969236 -0.400000
v 0.000000 4.050000 -0.400000
v -1.200000 0.000000 -0.600000
v -1.200000 1.850000 -0.600000
v -1.200000 0.000000 -2.600000
v -1.200000 1.850000 -2.600000
v -0.700000 0.000000 -2.600000
v -0.550000 1.650000 -2.600000
v -0.700000 0.000000 -0.600000
v -0.550000 1.650000 -0.600000
v -0.800000 1.850000 -2.600000
v -0.550000 1.650000 6.000000
v -0.700000 2.150000 5.400000
v -0.800000 1.850000 -0.600000
v -1.200000 1.850000 0.400000
v -1.200000 0.000000 0.400000
v -0.700000 0.000000 0.400000
v -0.700000 0.000000 5.800000
v -0.700000 1.850000 0.400000
v -1.200000 2.150000 2.000000
v -1.200000 0.000000 2.000000
v -0.700000 0.000000 2.000000
v -0.700000 2.150000 2.000000
v -1.200000 0.000000 5.800000
v -1.200000 2.150000 5.400000
v -1.200000 2.500000 0.400000
v -0.700000 2.500000 0.400000
v -1.200000 2.500000 2.000000
v -0.700000 2.500000 2.000000
v -0.700000 0.000000 6.100000
v -1.200000 1.650000 6.000000
v -1.200000 0.000000 6.000000
v -0.700000 0.000000 7.000000
v -0.550000 1.650000 7.000000
v -1.200000 1.650000 7.000000
v -1.300000 1.650000 6.000000
v -1.300000 0.000000 6.000000
v -1.300000 1.650000 7.000000
v -1.300000 0.000000 7.000000
v -1.200000 0.000000 8.200001
v -1.200000 1.300000 8.200001
v -1.200000 0.000000 7.000000
v -1.200000 1.300000 7.000000
v -0.800000 1.300000 -1.500000
v -0.800000 1.300000 7.400000
v -0.800000 2.500000 7.400000
v -0.800000 2.500000 -1.500000
v -0.692820 2.900000 7.400000
v -0.692820 2.900000 -1.500000
v -0.400000 3.192820 7.400000
v -0.400000 3.192820 -1.500000
v -0.180848 4.042104 -0.400000
v -0.176490 3.992294 -0.400000
v -0.176490 3.992294 -3.500000
v -0.180848 4.042104 -3.500000
v -0.360320 4.018476 -0.400000
v -0.351638 3.969236 -0.400000
v -0.351638 3.969236 -3.500000
v -0.360320 4.018476 -3.500000
v -0.524109 3.931000 -0.400000
v -0.524109 3.931000 -3.500000
v -0.537049 3.979296 -3.500000
v -0.709692 3.924862 -0.400000
v -0.692591 3.877878 -3.500000
v -0.709692 3.924862 -3.500000
v -0.855802 3.810273 -3.500000
v -0.876933 3.855589 -3.500000
v -1.037500 3.772003 -0.400000
v -1.012500 3.728702 -0.400000
v -1.012500 3.728702 -3.500000
v -1.037500 3.772003 -3.500000
v -1.190171 3.674741 -0.400000
v -1.161492 3.633783 -3.500000
v -1.190171 3.674741 -3.500000
v -1.301645 3.526240 -3.500000
v -1.333784 3.564542 -3.500000
v 0.180848 4.042104 -0.400000
v 0.176490 3.992294 -0.400000
v 0.176490 3.992294 -3.500000
v 0.180848 4.042104 -3.500000
v 0.360320 4.018476 -0.400000
v 0.351638 3.969236 -3.500000
v 0.360320 4.018476 -3.500000
v 0.537049 3.979296 -0.400000
v 0.524109 3.931000 -0.400000
v 0.524109 3.931000 -3.500000
v 0.537049 3.979296 -3.500000
v 0.709692 3.924862 -0.400000
v 0.692591 3.877878 -0.400000
v 0.692591 3.877878 -3.500000
v 0.709692 3.924862 -3.500000
v 0.876933 3.855589 -0.400000
v 0.855802 3.810273 -0.400000
v 0.855802 3.810273 -3.500000
v 0.876933 3.855589 -3.500000
v 1.037500 3.772003 -0.400000
v 1.012500 3.728702 -0.400000
v 1.012500 3.728702 -3.500000
v 1.037500 3.772003 -3.500000
v 1.190171 3.674741 -0.400000
v 1.161492 3.633783 -0.400000
v 1.161492 3.633783 -3.500000
v 1.190171 3.674741 -3.500000
v 1.333784 3.564542 -0.400000
v 1.301645 3.526240 -0.400000
v 1.301645 3.526240 -3.500000
v 1.333784 3.564542 -3.500000
v -0.537049 3.979296 -0.400000
v -0.692591 3.877878 -0.400000
v -0.876933 3.855589 -0.400000
v -0.855802 3.810273 -0.400000
v -1.161492 3.633783 -0.400000
v -1.333784 3.564542 -0.400000
v -1.301645 3.526240 -0.400000
v 0.351638 3.969236 -0.400000
vn -0.0000 -0.0000 -1.0000
vn 1.0000 -0.0000 -0.0000
vn -0.0000 -1.0000 -0.0000
vn -0.0000 1.0000 -0.0000
vn -0.6247 0.7809 -0.0000
vn -0.0000 -0.0000 1.0000
vn -0.0000 0.7682 0.6402
vn 0.9659 0.2588 -0.0000
vn 0.7071 0.7071 -0.0000
vn 0.2588 0.9659 -0.0000
vn -0.7660 -0.6428 -0.0000
vn 0.7660 -0.6428 -0.0000
vn 0.0872 0.9962 -0.0000
vn 0.0436 0.9990 -0.0000
vn 0.1736 0.9848 -0.0000
vn 0.3420 0.9397 -0.0000
vn 0.4226 0.9063 -0.0000
vn 0.5000 0.8660 -0.0000
vn 0.5736 0.8192 -0.0000
vn 0.6088 0.7934 -0.0000
vn -0.0436 0.9990 -0.0000
vn -0.0872 0.9962 -0.0000
vn -0.1736 0.9848 -0.0000
vn -0.2588 0.9659 -0.0000
vn -0.3420 0.9397 -0.0000
vn -0.4226 0.9063 -0.0000
vn -0.5000 0.8660 -0.0000
vn -0.5736 0.8192 -0.0000
vn -0.6088 0.7934 -0.0000
vn 0.5736 -0.8192 -0.0000
vn 0.6088 -0.7934 -0.0000
vn 0.5000 -0.8660 -0.0000
vn 0.4226 -0.9063 -0.0000
vn 0.3420 -0.9397 -0.0000
vn 0.2588 -0.9659 -0.0000
vn 0.1736 -0.9848 -0.0000
vn 0.0872 -0.9962 -0.0000
vn 0.0436 -0.9990 -0.0000
vn -0.6088 -0.7934 -0.0000
vn -0.5736 -0.8192 -0.0000
vn -0.5000 -0.8660 -0.0000
vn -0.4226 -0.9063 -0.0000
vn -0.3420 -0.9397 -0.0000
vn -0.2588 -0.9659 -0.0000
vn -0.1736 -0.9848 -0.0000
vn -0.0872 -0.9962 -0.0000
vn -0.0436 -0.9990 -0.0000
vn -1.0000 -0.0000 -0.0000
vn 0.6247 0.7809 -0.0000
vn -0.9659 0.2588 -0.0000
vn -0.7071 0.7071 -0.0000
vt 0.625000 0.500000
vt 0.625000 0.387500
vt 0.375000 0.500000
vt 0.375000 0.387500
vt 0.375000 0.750000
vt 0.262500 0.750000
vt 0.262500 0.500000
vt 0.875000 0.500000
vt 0.737500 0.750000
vt 0.737500 0.500000
vt 0.125000 0.750000
vt 0.125000 0.500000
vt 0.625000 0.750000
vt 0.375000 0.250000
vt 0.625000 0.862500
vt 0.375000 0.862500
vt 0.625000 0.250000
vt 0.375000 1.000000
vt 0.750000 0.500000
vt 0.583333 0.500000
vt 0.750000 1.000000
vt 0.666667 0.500000
vt 0.666667 1.000000
vt 0.583333 1.000000
vt 0.500000 0.500000
vt 0.500000 1.000000
vt 0.000000 0.000000
vt 0.875000 0.750000
vt 0.625000 1.000000
s 0
f 8/1/1 10/2/1 13/2/1
f 10/2/1 7/3/1 9/4/1
f 8/1/2 5/5/2 7/3/2
f 7/3/3 11/6/3 9/7/3
f 4/8/4 12/9/4 10/10/4
f 9/7/3 1/11/3 3/12/3
f 6/13/2 18/5/2 5/5/2
f 3/14/1 10/2/1 9/4/1
f 13/10/4 6/13/4 8/1/4
f 12/9/5 13/10/5 10/10/5
f 23/5/3 20/6/3 24/6/3
f 16/9/4 17/13/4 6/13/4
f 31/15/6 72/15/6 25/15/6
f 36/15/6 44/16/6 35/16/6
f 19/6/3 1/6/3 11/6/3
f 21/9/4 53/9/4 52/9/4
f 5/5/3 19/6/3 11/6/3
f 35/6/3 67/6/3 32/6/3
f 25/15/4 27/13/4 22/13/4
f 15/15/7 33/13/7 27/13/7
f 18/5/3 24/6/3 19/6/3
f 23/5/2 27/13/2 26/5/2
f 22/13/6 31/15/6 25/15/6
f 17/13/2 23/5/2 18/5/2
f 29/9/4 30/13/4 28/13/4
f 25/15/4 66/15/4 15/15/4
f 21/9/1 28/13/1 17/13/1
f 22/13/2 28/13/2 30/13/2
f 14/15/4 37/13/4 33/13/4
f 21/9/1 50/9/1 29/9/1
f 26/5/2 33/13/2 34/5/2
f 20/6/3 34/5/3 32/6/3
f 37/13/6 35/16/6 48/5/6
f 32/6/3 48/5/3 35/6/3
f 33/13/1 39/5/1 34/5/1
f 32/6/3 68/6/3 20/6/3
f 38/13/2 41/5/2 39/5/2
f 34/5/3 41/5/3 48/5/3
f 37/13/4 38/13/4 33/13/4
f 48/5/6 40/13/6 37/13/6
f 45/17/1 48/3/1 44/14/1
f 49/1/2 46/5/2 48/3/2
f 47/13/6 42/18/6 46/5/6
f 48/3/3 42/11/3 44/12/3
f 45/8/4 47/13/4 49/1/4
f 54/19/6 58/19/6 62/20/6
f 57/19/3 55/21/3 56/21/3
f 58/19/2 56/21/2 59/21/2
f 14/15/4 73/15/4 36/15/4
f 59/21/8 60/22/8 58/19/8
f 14/15/7 66/15/7 69/15/7
f 61/23/9 62/20/9 60/22/9
f 12/9/1 53/9/1 16/9/1
f 63/24/10 64/25/10 62/20/10
f 24/6/3 71/6/3 19/6/3
f 20/6/3 70/6/3 24/6/3
f 29/9/4 51/9/4 31/9/4
f 65/26/1 61/23/1 56/21/1
s 1
f 131/27/11 129/27/11 128/27/11
f 138/27/12 98/27/12 137/27/12
f 100/27/1 76/27/1 99/27/1
f 75/27/6 141/27/6 139/27/6
f 74/27/13 100/27/14 141/27/14
f 78/27/15 77/27/13 74/27/13
f 79/27/6 74/27/6 75/27/6
f 77/27/1 80/27/1 76/27/1
f 82/27/6 78/27/6 79/27/6
f 84/27/1 80/27/1 81/27/1
f 132/27/10 81/27/15 78/27/15
f 85/27/16 84/27/10 132/27/10
f 133/27/6 132/27/6 82/27/6
f 84/27/1 86/27/1 83/27/1
f 134/27/17 87/27/16 85/27/16
f 135/27/6 85/27/6 133/27/6
f 87/27/1 88/27/1 86/27/1
f 91/27/6 134/27/6 135/27/6
f 89/27/1 92/27/1 88/27/1
f 90/27/18 89/27/17 134/27/17
f 94/27/19 93/27/18 90/27/18
f 136/27/6 90/27/6 91/27/6
f 93/27/1 95/27/1 92/27/1
f 137/27/20 96/27/19 94/27/19
f 138/27/6 94/27/6 136/27/6
f 96/27/1 97/27/1 95/27/1
f 100/27/1 103/27/1 104/27/1
f 141/27/6 102/27/6 139/27/6
f 100/27/21 101/27/22 141/27/21
f 104/27/22 105/27/23 101/27/22
f 101/27/6 140/27/6 102/27/6
f 104/27/1 106/27/1 107/27/1
f 105/27/6 109/27/6 140/27/6
f 107/27/1 110/27/1 111/27/1
f 107/27/23 108/27/24 105/27/23
f 111/27/24 112/27/25 108/27/24
f 108/27/6 113/27/6 109/27/6
f 111/27/1 114/27/1 115/27/1
f 115/27/25 116/27/26 112/27/25
f 112/27/6 117/27/6 113/27/6
f 115/27/1 118/27/1 119/27/1
f 116/27/6 121/27/6 117/27/6
f 119/27/1 122/27/1 123/27/1
f 119/27/26 120/27/27 116/27/26
f 123/27/27 124/27/28 120/27/27
f 120/27/6 125/27/6 121/27/6
f 123/27/1 126/27/1 127/27/1
f 127/27/28 128/27/29 124/27/28
f 124/27/6 129/27/6 125/27/6
f 127/27/1 130/27/1 131/27/1
f 125/27/30 130/27/31 126/27/30
f 121/27/32 126/27/30 122/27/32
f 117/27/33 122/27/32 118/27/33
f 113/27/34 118/27/33 114/27/34
f 109/27/35 114/27/34 110/27/35
f 140/27/36 110/27/35 106/27/36
f 102/27/37 106/27/36 103/27/37
f 139/27/38 103/27/37 99/27/38
f 97/27/39 136/27/40 95/27/40
f 95/27/40 91/27/41 92/27/41
f 92/27/41 135/27/42 88/27/42
f 88/27/42 133/27/43 86/27/43
f 86/27/43 82/27/44 83/27/44
f 83/27/44 79/27/45 80/27/45
f 80/27/45 75/27/46 76/27/46
f 76/27/46 139/27/47 99/27/47
s 0
f 145/1/1 150/2/1 147/2/1
f 144/3/1 147/2/1 146/4/1
f 142/5/48 145/1/48 144/3/48
f 148/6/3 144/3/3 146/7/3
f 149/9/4 4/8/4 147/10/4
f 1/11/3 146/7/3 3/12/3
f 155/5/48 143/13/48 142/5/48
f 3/14/1 147/2/1 4/17/1
f 143/13/4 150/10/4 145/1/4
f 150/10/49 149/9/49 147/10/49
f 157/6/3 160/5/3 161/6/3
f 154/13/4 153/9/4 143/13/4
f 72/15/6 168/15/6 162/15/6
f 44/16/6 173/15/6 172/16/6
f 1/6/3 156/6/3 148/6/3
f 158/9/4 53/9/4 153/9/4
f 156/6/3 142/5/3 148/6/3
f 67/6/3 172/6/3 169/6/3
f 164/13/4 162/15/4 159/13/4
f 170/13/7 152/15/7 164/13/7
f 161/6/3 155/5/3 156/6/3
f 160/5/48 164/13/48 159/13/48
f 168/15/6 159/13/6 162/15/6
f 160/5/48 154/13/48 155/5/48
f 167/13/4 166/9/4 165/13/4
f 66/15/4 162/15/4 152/15/4
f 165/13/1 158/9/1 154/13/1
f 159/13/48 165/13/48 154/13/48
f 174/13/4 151/15/4 170/13/4
f 50/9/1 158/9/1 166/9/1
f 163/5/48 170/13/48 164/13/48
f 157/6/3 171/5/3 163/5/3
f 172/16/6 174/13/6 181/5/6
f 169/6/3 181/5/3 171/5/3
f 176/5/1 170/13/1 171/5/1
f 68/6/3 169/6/3 157/6/3
f 178/5/48 175/13/48 176/5/48
f 178/5/3 171/5/3 181/5/3
f 175/13/4 174/13/4 170/13/4
f 177/13/6 181/5/6 174/13/6
f 181/3/1 45/17/1 44/14/1
f 179/5/48 182/1/48 181/3/48
f 42/18/6 180/13/6 179/5/6
f 42/11/3 181/3/3 44/12/3
f 180/13/4 45/8/4 182/1/4
f 189/20/6 185/19/6 54/19/6
f 55/21/3 184/19/3 183/21/3
f 183/21/48 185/19/48 186/21/48
f 73/15/4 151/15/4 173/15/4
f 187/22/50 186/21/50 185/19/50
f 151/15/7 66/15/7 152/15/7
f 189/20/51 188/23/51 187/22/51
f 53/9/1 149/9/1 153/9/1
f 64/25/24 190/24/24 189/20/24
f 71/6/3 161/6/3 156/6/3
f 70/6/3 157/6/3 161/6/3
f 51/9/4 166/9/4 168/9/4
f 183/21/1 188/23/1 65/26/1
s 1
f 244/27/12 246/27/12 243/27/12
f 215/27/11 253/27/11 252/27/11
f 100/27/1 193/27/1 194/27/1
f 141/27/6 192/27/6 139/27/6
f 100/27/21 191/27/22 141/27/21
f 194/27/22 195/27/23 191/27/22
f 191/27/6 196/27/6 192/27/6
f 194/27/1 197/27/1 198/27/1
f 195/27/6 199/27/6 196/27/6
f 198/27/1 200/27/1 201/27/1
f 198/27/23 247/27/24 195/27/23
f 201/27/24 202/27/25 247/27/24
f 247/27/6 248/27/6 199/27/6
f 201/27/1 203/27/1 204/27/1
f 204/27/25 249/27/26 202/27/25
f 202/27/6 250/27/6 248/27/6
f 204/27/1 205/27/1 206/27/1
f 249/27/6 208/27/6 250/27/6
f 206/27/1 209/27/1 210/27/1
f 206/27/26 207/27/27 249/27/26
f 210/27/27 211/27/28 207/27/27
f 207/27/6 251/27/6 208/27/6
f 210/27/1 212/27/1 213/27/1
f 213/27/28 252/27/29 211/27/28
f 211/27/6 253/27/6 251/27/6
f 213/27/1 214/27/1 215/27/1
f 100/27/1 218/27/1 99/27/1
f 217/27/6 141/27/6 139/27/6
f 216/27/13 100/27/14 141/27/14
f 220/27/15 219/27/13 216/27/13
f 254/27/6 216/27/6 217/27/6
f 219/27/1 221/27/1 218/27/1
f 224/27/6 220/27/6 254/27/6
f 226/27/1 221/27/1 222/27/1
f 223/27/10 222/27/15 220/27/15
f 227/27/16 226/27/10 223/27/10
f 228/27/6 223/27/6 224/27/6
f 226/27/1 229/27/1 225/27/1
f 231/27/17 230/27/16 227/27/16
f 232/27/6 227/27/6 228/27/6
f 230/27/1 233/27/1 229/27/1
f 236/27/6 231/27/6 232/27/6
f 234/27/1 237/27/1 233/27/1
f 235/27/18 234/27/17 231/27/17
f 239/27/19 238/27/18 235/27/18
f 240/27/6 235/27/6 236/27/6
f 238/27/1 241/27/1 237/27/1
f 243/27/20 242/27/19 239/27/19
f 244/27/6 239/27/6 240/27/6
f 242/27/1 245/27/1 241/27/1
f 245/27/39 240/27/40 241/27/40
f 241/27/40 236/27/41 237/27/41
f 237/27/41 232/27/42 233/27/42
f 233/27/42 228/27/43 229/27/43
f 229/27/43 224/27/44 225/27/44
f 225/27/44 254/27/45 221/27/45
f 221/27/45 217/27/46 218/27/46
f 218/27/46 139/27/47 99/27/47
f 251/27/30 214/27/31 212/27/30
f 208/27/32 212/27/30 209/27/32
f 250/27/33 209/27/32 205/27/33
f 248/27/34 205/27/33 203/27/34
f 199/27/35 203/27/34 200/27/35
f 196/27/36 200/27/35 197/27/36
f 192/27/37 197/27/36 193/27/37
f 139/27/38 193/27/37 99/27/38
s 0
f 10/2/1 8/1/1 7/3/1
f 8/1/2 6/13/2 5/5/2
f 7/3/3 5/5/3 11/6/3
f 4/8/4 2/28/4 12/9/4
f 9/7/3 11/6/3 1/11/3
f 6/13/2 17/13/2 18/5/2
f 3/14/1 4/17/1 10/2/1
f 13/10/4 16/9/4 6/13/4
f 12/9/5 16/9/5 13/10/5
f 23/5/3 26/5/3 20/6/3
f 16/9/4 21/9/4 17/13/4
f 31/15/6 51/15/6 72/15/6
f 36/15/6 73/15/6 44/16/6
f 19/6/3 71/6/3 1/6/3
f 21/9/4 16/9/4 53/9/4
f 5/5/3 18/5/3 19/6/3
f 35/6/3 44/6/3 67/6/3
f 25/15/4 15/15/4 27/13/4
f 15/15/7 14/15/7 33/13/7
f 18/5/3 23/5/3 24/6/3
f 23/5/2 22/13/2 27/13/2
f 22/13/6 30/13/6 31/15/6
f 17/13/2 22/13/2 23/5/2
f 29/9/4 31/9/4 30/13/4
f 25/15/4 72/15/4 66/15/4
f 21/9/1 29/9/1 28/13/1
f 22/13/2 17/13/2 28/13/2
f 14/15/4 36/15/4 37/13/4
f 21/9/1 52/9/1 50/9/1
f 26/5/2 27/13/2 33/13/2
f 20/6/3 26/5/3 34/5/3
f 37/13/6 36/15/6 35/16/6
f 32/6/3 34/5/3 48/5/3
f 33/13/1 38/13/1 39/5/1
f 32/6/3 67/6/3 68/6/3
f 38/13/2 40/13/2 41/5/2
f 34/5/3 39/5/3 41/5/3
f 37/13/4 40/13/4 38/13/4
f 48/5/6 41/5/6 40/13/6
f 45/17/1 49/1/1 48/3/1
f 49/1/2 47/13/2 46/5/2
f 47/13/6 43/29/6 42/18/6
f 48/3/3 46/5/3 42/11/3
f 45/8/4 43/28/4 47/13/4
f 62/20/6 64/25/6 54/19/6
f 54/19/6 57/19/6 58/19/6
f 58/19/6 60/22/6 62/20/6
f 57/19/3 54/19/3 55/21/3
f 58/19/2 57/19/2 56/21/2
f 14/15/4 69/15/4 73/15/4
f 59/21/8 61/23/8 60/22/8
f 14/15/7 15/15/7 66/15/7
f 61/23/9 63/24/9 62/20/9
f 12/9/1 2/9/1 53/9/1
f 63/24/10 65/26/10 64/25/10
f 24/6/3 70/6/3 71/6/3
f 20/6/3 68/6/3 70/6/3
f 29/9/4 50/9/4 51/9/4
f 56/21/1 55/21/1 65/26/1
f 65/26/1 63/24/1 61/23/1
f 61/23/1 59/21/1 56/21/1
s 1
f 131/27/11 130/27/11 129/27/11
f 138/27/12 97/27/12 98/27/12
f 100/27/1 77/27/1 76/27/1
f 75/27/6 74/27/6 141/27/6
f 74/27/13 77/27/13 100/27/14
f 78/27/15 81/27/15 77/27/13
f 79/27/6 78/27/6 74/27/6
f 77/27/1 81/27/1 80/27/1
f 82/27/6 132/27/6 78/27/6
f 84/27/1 83/27/1 80/27/1
f 132/27/10 84/27/10 81/27/15
f 85/27/16 87/27/16 84/27/10
f 133/27/6 85/27/6 132/27/6
f 84/27/1 87/27/1 86/27/1
f 134/27/17 89/27/17 87/27/16
f 135/27/6 134/27/6 85/27/6
f 87/27/1 89/27/1 88/27/1
f 91/27/6 90/27/6 134/27/6
f 89/27/1 93/27/1 92/27/1
f 90/27/18 93/27/18 89/27/17
f 94/27/19 96/27/19 93/27/18
f 136/27/6 94/27/6 90/27/6
f 93/27/1 96/27/1 95/27/1
f 137/27/20 98/27/20 96/27/19
f 138/27/6 137/27/6 94/27/6
f 96/27/1 98/27/1 97/27/1
f 100/27/1 99/27/1 103/27/1
f 141/27/6 101/27/6 102/27/6
f 100/27/21 104/27/22 101/27/22
f 104/27/22 107/27/23 105/27/23
f 101/27/6 105/27/6 140/27/6
f 104/27/1 103/27/1 106/27/1
f 105/27/6 108/27/6 109/27/6
f 107/27/1 106/27/1 110/27/1
f 107/27/23 111/27/24 108/27/24
f 111/27/24 115/27/25 112/27/25
f 108/27/6 112/27/6 113/27/6
f 111/27/1 110/27/1 114/27/1
f 115/27/25 119/27/26 116/27/26
f 112/27/6 116/27/6 117/27/6
f 115/27/1 114/27/1 118/27/1
f 116/27/6 120/27/6 121/27/6
f 119/27/1 118/27/1 122/27/1
f 119/27/26 123/27/27 120/27/27
f 123/27/27 127/27/28 124/27/28
f 120/27/6 124/27/6 125/27/6
f 123/27/1 122/27/1 126/27/1
f 127/27/28 131/27/29 128/27/29
f 124/27/6 128/27/6 129/27/6
f 127/27/1 126/27/1 130/27/1
f 125/27/30 129/27/31 130/27/31
f 121/27/32 125/27/30 126/27/30
f 117/27/33 121/27/32 122/27/32
f 113/27/34 117/27/33 118/27/33
f 109/27/35 113/27/34 114/27/34
f 140/27/36 109/27/35 110/27/35
f 102/27/37 140/27/36 106/27/36
f 139/27/38 102/27/37 103/27/37
f 97/27/39 138/27/39 136/27/40
f 95/27/40 136/27/40 91/27/41
f 92/27/41 91/27/41 135/27/42
f 88/27/42 135/27/42 133/27/43
f 86/27/43 133/27/43 82/27/44
f 83/27/44 82/27/44 79/27/45
f 80/27/45 79/27/45 75/27/46
f 76/27/46 75/27/46 139/27/47
s 0
f 144/3/1 145/1/1 147/2/1
f 142/5/48 143/13/48 145/1/48
f 148/6/3 142/5/3 144/3/3
f 149/9/4 2/28/4 4/8/4
f 1/11/3 148/6/3 146/7/3
f 155/5/48 154/13/48 143/13/48
f 3/14/1 146/4/1 147/2/1
f 143/13/4 153/9/4 150/10/4
f 150/10/49 153/9/49 149/9/49
f 157/6/3 163/5/3 160/5/3
f 154/13/4 158/9/4 153/9/4
f 72/15/6 51/15/6 168/15/6
f 44/16/6 73/15/6 173/15/6
f 1/6/3 71/6/3 156/6/3
f 158/9/4 52/9/4 53/9/4
f 156/6/3 155/5/3 142/5/3
f 67/6/3 44/6/3 172/6/3
f 164/13/4 152/15/4 162/15/4
f 170/13/7 151/15/7 152/15/7
f 161/6/3 160/5/3 155/5/3
f 160/5/48 163/5/48 164/13/48
f 168/15/6 167/13/6 159/13/6
f 160/5/48 159/13/48 154/13/48
f 167/13/4 168/9/4 166/9/4
f 66/15/4 72/15/4 162/15/4
f 165/13/1 166/9/1 158/9/1
f 159/13/48 167/13/48 165/13/48
f 174/13/4 173/15/4 151/15/4
f 50/9/1 52/9/1 158/9/1
f 163/5/48 171/5/48 170/13/48
f 157/6/3 169/6/3 171/5/3
f 172/16/6 173/15/6 174/13/6
f 169/6/3 172/6/3 181/5/3
f 176/5/1 175/13/1 170/13/1
f 68/6/3 67/6/3 169/6/3
f 178/5/48 177/13/48 175/13/48
f 178/5/3 176/5/3 171/5/3
f 175/13/4 177/13/4 174/13/4
f 177/13/6 178/5/6 181/5/6
f 181/3/1 182/1/1 45/17/1
f 179/5/48 180/13/48 182/1/48
f 42/18/6 43/29/6 180/13/6
f 42/11/3 179/5/3 181/3/3
f 180/13/4 43/28/4 45/8/4
f 54/19/6 64/25/6 189/20/6
f 189/20/6 187/22/6 185/19/6
f 185/19/6 184/19/6 54/19/6
f 55/21/3 54/19/3 184/19/3
f 183/21/48 184/19/48 185/19/48
f 73/15/4 69/15/4 151/15/4
f 187/22/50 188/23/50 186/21/50
f 151/15/7 69/15/7 66/15/7
f 189/20/51 190/24/51 188/23/51
f 53/9/1 2/9/1 149/9/1
f 64/25/24 65/26/24 190/24/24
f 71/6/3 70/6/3 161/6/3
f 70/6/3 68/6/3 157/6/3
f 51/9/4 50/9/4 166/9/4
f 65/26/1 55/21/1 183/21/1
f 183/21/1 186/21/1 188/23/1
f 188/23/1 190/24/1 65/26/1
s 1
f 244/27/12 245/27/12 246/27/12
f 215/27/11 214/27/11 253/27/11
f 100/27/1 99/27/1 193/27/1
f 141/27/6 191/27/6 192/27/6
f 100/27/21 194/27/22 191/27/22
f 194/27/22 198/27/23 195/27/23
f 191/27/6 195/27/6 196/27/6
f 194/27/1 193/27/1 197/27/1
f 195/27/6 247/27/6 199/27/6
f 198/27/1 197/27/1 200/27/1
f 198/27/23 201/27/24 247/27/24
f 201/27/24 204/27/25 202/27/25
f 247/27/6 202/27/6 248/27/6
f 201/27/1 200/27/1 203/27/1
f 204/27/25 206/27/26 249/27/26
f 202/27/6 249/27/6 250/27/6
f 204/27/1 203/27/1 205/27/1
f 249/27/6 207/27/6 208/27/6
f 206/27/1 205/27/1 209/27/1
f 206/27/26 210/27/27 207/27/27
f 210/27/27 213/27/28 211/27/28
f 207/27/6 211/27/6 251/27/6
f 210/27/1 209/27/1 212/27/1
f 213/27/28 215/27/29 252/27/29
f 211/27/6 252/27/6 253/27/6
f 213/27/1 212/27/1 214/27/1
f 100/27/1 219/27/1 218/27/1
f 217/27/6 216/27/6 141/27/6
f 216/27/13 219/27/13 100/27/14
f 220/27/15 222/27/15 219/27/13
f 254/27/6 220/27/6 216/27/6
f 219/27/1 222/27/1 221/27/1
f 224/27/6 223/27/6 220/27/6
f 226/27/1 225/27/1 221/27/1
f 223/27/10 226/27/10 222/27/15
f 227/27/16 230/27/16 226/27/10
f 228/27/6 227/27/6 223/27/6
f 226/27/1 230/27/1 229/27/1
f 231/27/17 234/27/17 230/27/16
f 232/27/6 231/27/6 227/27/6
f 230/27/1 234/27/1 233/27/1
f 236/27/6 235/27/6 231/27/6
f 234/27/1 238/27/1 237/27/1
f 235/27/18 238/27/18 234/27/17
f 239/27/19 242/27/19 238/27/18
f 240/27/6 239/27/6 235/27/6
f 238/27/1 242/27/1 241/27/1
f 243/27/20 246/27/20 242/27/19
f 244/27/6 243/27/6 239/27/6
f 242/27/1 246/27/1 245/27/1
f 245/27/39 244/27/39 240/27/40
f 241/27/40 240/27/40 236/27/41
f 237/27/41 236/27/41 232/27/42
f 233/27/42 232/27/42 228/27/43
f 229/27/43 228/27/43 224/27/44
f 225/27/44 224/27/44 254/27/45
f 221/27/45 254/27/45 217/27/46
f 218/27/46 217/27/46 139/27/47
f 251/27/30 253/27/31 214/27/31
f 208/27/32 251/27/30 212/27/30
f 250/27/33 208/27/32 209/27/32
f 248/27/34 250/27/33 205/27/33
f 199/27/35 248/27/34 203/27/34
f 196/27/36 199/27/35 200/27/35
f 192/27/37 196/27/36 197/27/36
f 139/27/38 192/27/37 193/27/37
