# Blender 4.4.3
# www.blender.org
mtllib LocoTender.mtl
g TenderBase_Mesh
v 1.000000 1.100000 3.650000
v 1.000000 1.300000 3.650000
v 1.000000 1.100000 3.500000
v 1.000000 1.300000 3.500000
v 0.840000 1.100000 3.500000
v 0.840000 1.300000 3.500000
v 0.840000 1.100000 -2.900000
v 0.840000 1.300000 -2.900000
v 1.000000 1.100000 3.500000
v 1.000000 1.300000 3.500000
v 1.000000 1.100000 -2.900000
v 1.000000 1.300000 -2.900000
v 0.840000 1.120000 3.500000
v 0.840000 1.280000 3.500000
v 0.840000 1.280000 -2.900000
v 0.840000 1.120000 -2.900000
v 1.000000 1.280000 -2.900000
v 1.000000 1.120000 -2.900000
v 1.000000 1.280000 3.500000
v 1.000000 1.120000 3.500000
v 0.910000 1.120000 3.500000
v 0.910000 1.280000 3.500000
v 0.910000 1.280000 -2.900000
v 0.910000 1.120000 -2.900000
v 0.930000 1.280000 -2.900000
v 0.930000 1.120000 -2.900000
v 0.930000 1.280000 3.500000
v 0.930000 1.120000 3.500000
v 1.000000 1.100000 -2.900000
v 1.000000 1.300000 -2.900000
v 1.000000 1.100000 -3.049999
v 1.000000 1.300000 -3.049999
v 1.000000 1.470000 3.430000
v 1.000000 1.570000 3.430000
v 1.000000 1.470000 3.400000
v 1.000000 1.570000 3.400000
v 1.050000 1.470000 3.430000
v 1.050000 1.570000 3.430000
v 1.050000 1.470000 3.400000
v 1.050000 1.570000 3.400000
v 1.120000 1.470000 3.400000
v 1.120000 1.470000 3.430000
v 1.050000 0.550000 3.430000
v 1.050000 0.550000 3.400000
v 1.120000 0.550000 3.430000
v 1.120000 0.550000 3.400000
v 1.120000 0.550000 3.070000
v 1.120000 0.550000 3.100000
v 1.050000 0.550000 3.070000
v 1.050000 0.550000 3.100000
v 1.120000 1.470000 3.100000
v 1.120000 1.470000 3.070000
v 1.050000 1.570000 3.070000
v 1.050000 1.470000 3.070000
v 1.050000 1.570000 3.100000
v 1.050000 1.470000 3.100000
v 1.000000 1.570000 3.070000
v 1.000000 1.470000 3.070000
v 1.000000 1.570000 3.100000
v 1.000000 1.470000 3.100000
v 1.050000 1.450000 3.400000
v 1.050000 1.470000 3.400000
v 1.050000 1.450000 3.100000
v 1.050000 1.470000 3.100000
v 1.120000 1.450000 3.400000
v 1.120000 1.470000 3.400000
v 1.120000 1.450000 3.100000
v 1.120000 1.470000 3.100000
v 1.050000 0.850000 3.400000
v 1.050000 0.870000 3.400000
v 1.050000 0.850000 3.100000
v 1.050000 0.870000 3.100000
v 1.120000 0.850000 3.400000
v 1.120000 0.870000 3.400000
v 1.120000 0.850000 3.100000
v 1.120000 0.870000 3.100000
v 1.120000 0.570000 3.100000
v 1.120000 0.550000 3.100000
v 1.120000 0.570000 3.400000
v 1.120000 0.550000 3.400000
v 1.050000 0.570000 3.100000
v 1.050000 0.550000 3.100000
v 1.050000 0.570000 3.400000
v 1.050000 0.550000 3.400000
v 1.120000 1.170000 3.100000
v 1.120000 1.150000 3.100000
v 1.120000 1.170000 3.400000
v 1.120000 1.150000 3.400000
v 1.050000 1.170000 3.100000
v 1.050000 1.150000 3.100000
v 1.050000 1.170000 3.400000
v 1.050000 1.150000 3.400000
v 1.050000 1.570000 3.400000
v 1.120000 1.470000 3.400000
v 1.076788 1.562388 3.400000
v 1.099498 1.540711 3.400000
v 1.114672 1.508268 3.400000
v 1.120000 1.470000 3.430000
v 1.050000 1.570000 3.430000
v 1.114672 1.508268 3.430000
v 1.099498 1.540711 3.430000
v 1.076788 1.562388 3.430000
v 1.120000 1.470000 3.100000
v 1.050000 1.570000 3.100000
v 1.114672 1.508268 3.100000
v 1.099498 1.540711 3.100000
v 1.076788 1.562388 3.100000
v 1.050000 1.570000 3.070000
v 1.120000 1.470000 3.070000
v 1.076788 1.562388 3.070000
v 1.099498 1.540711 3.070000
v 1.114672 1.508268 3.070000
v -1.000000 1.100000 3.650000
v -1.000000 1.300000 3.650000
v -1.000000 1.100000 3.500000
v -1.000000 1.300000 3.500000
v -0.840000 1.100000 3.500000
v -0.840000 1.300000 3.500000
v -0.840000 1.100000 -2.900000
v -0.840000 1.300000 -2.900000
v -1.000000 1.100000 3.500000
v -1.000000 1.300000 3.500000
v -1.000000 1.100000 -2.900000
v -1.000000 1.300000 -2.900000
v -0.840000 1.120000 3.500000
v -0.840000 1.280000 3.500000
v -0.840000 1.280000 -2.900000
v -0.840000 1.120000 -2.900000
v -1.000000 1.280000 -2.900000
v -1.000000 1.120000 -2.900000
v -1.000000 1.280000 3.500000
v -1.000000 1.120000 3.500000
v -0.910000 1.120000 3.500000
v -0.910000 1.280000 3.500000
v -0.910000 1.280000 -2.900000
v -0.910000 1.120000 -2.900000
v -0.930000 1.280000 -2.900000
v -0.930000 1.120000 -2.900000
v -0.930000 1.280000 3.500000
v -0.930000 1.120000 3.500000
v -1.000000 1.100000 -2.900000
v -1.000000 1.300000 -2.900000
v -1.000000 1.100000 -3.049999
v -1.000000 1.300000 -3.049999
v -1.000000 1.470000 3.430000
v -1.000000 1.570000 3.430000
v -1.000000 1.470000 3.400000
v -1.000000 1.570000 3.400000
v -1.050000 1.470000 3.430000
v -1.050000 1.570000 3.430000
v -1.050000 1.470000 3.400000
v -1.050000 1.570000 3.400000
v -1.120000 1.470000 3.400000
v -1.120000 1.470000 3.430000
v -1.050000 0.550000 3.430000
v -1.050000 0.550000 3.400000
v -1.120000 0.550000 3.430000
v -1.120000 0.550000 3.400000
v -1.120000 0.550000 3.070000
v -1.120000 0.550000 3.100000
v -1.050000 0.550000 3.070000
v -1.050000 0.550000 3.100000
v -1.120000 1.470000 3.100000
v -1.120000 1.470000 3.070000
v -1.050000 1.570000 3.070000
v -1.050000 1.470000 3.070000
v -1.050000 1.570000 3.100000
v -1.050000 1.470000 3.100000
v -1.000000 1.570000 3.070000
v -1.000000 1.470000 3.070000
v -1.000000 1.570000 3.100000
v -1.000000 1.470000 3.100000
v -1.050000 1.450000 3.400000
v -1.050000 1.470000 3.400000
v -1.050000 1.450000 3.100000
v -1.050000 1.470000 3.100000
v -1.120000 1.450000 3.400000
v -1.120000 1.470000 3.400000
v -1.120000 1.450000 3.100000
v -1.120000 1.470000 3.100000
v -1.050000 0.850000 3.400000
v -1.050000 0.870000 3.400000
v -1.050000 0.850000 3.100000
v -1.050000 0.870000 3.100000
v -1.120000 0.850000 3.400000
v -1.120000 0.870000 3.400000
v -1.120000 0.850000 3.100000
v -1.120000 0.870000 3.100000
v -1.120000 0.570000 3.100000
v -1.120000 0.550000 3.100000
v -1.120000 0.570000 3.400000
v -1.120000 0.550000 3.400000
v -1.050000 0.570000 3.100000
v -1.050000 0.550000 3.100000
v -1.050000 0.570000 3.400000
v -1.050000 0.550000 3.400000
v -1.120000 1.170000 3.100000
v -1.120000 1.150000 3.100000
v -1.120000 1.170000 3.400000
v -1.120000 1.150000 3.400000
v -1.050000 1.170000 3.100000
v -1.050000 1.150000 3.100000
v -1.050000 1.170000 3.400000
v -1.050000 1.150000 3.400000
v -1.050000 1.570000 3.400000
v -1.120000 1.470000 3.400000
v -1.076788 1.562388 3.400000
v -1.099498 1.540711 3.400000
v -1.114672 1.508268 3.400000
v -1.120000 1.470000 3.430000
v -1.050000 1.570000 3.430000
v -1.114672 1.508268 3.430000
v -1.099498 1.540711 3.430000
v -1.076788 1.562388 3.430000
v -1.120000 1.470000 3.100000
v -1.050000 1.570000 3.100000
v -1.114672 1.508268 3.100000
v -1.099498 1.540711 3.100000
v -1.076788 1.562388 3.100000
v -1.050000 1.570000 3.070000
v -1.120000 1.470000 3.070000
v -1.076788 1.562388 3.070000
v -1.099498 1.540711 3.070000
v -1.114672 1.508268 3.070000
v -1.000000 1.300000 3.500000
v -1.000000 1.600000 3.500000
v -1.000000 1.300000 -3.000000
v -1.000000 1.600000 -3.000000
v 1.000000 1.300000 3.500000
v 1.000000 1.600000 3.500000
v 1.000000 1.300000 -3.000000
v 1.000000 1.600000 -3.000000
v -1.200000 1.600000 3.700000
v -1.200000 1.650000 3.700000
v -1.200000 1.600000 -3.200000
v -1.200000 1.650000 -3.200000
v 1.200000 1.600000 3.700000
v 1.200000 1.650000 3.700000
v 1.200000 1.600000 -3.200000
v 1.200000 1.650000 -3.200000
v 0.500000 1.649999 -2.500000
v -0.500000 1.649999 -2.500000
v -0.500000 3.000000 -2.500000
v 0.500000 3.000000 -2.500000
v -1.000000 1.649999 -1.150001
v -1.000000 3.000000 -1.150001
v 1.000000 1.649999 -1.150001
v 1.000000 3.000000 -1.150001
v 0.500000 3.000000 -1.150001
v -0.500000 3.000000 -1.150001
v -0.500000 1.650000 -1.150001
v 0.500000 1.650000 -1.150001
v -0.750000 1.649999 -2.500000
v -0.750000 3.000000 -1.150001
v 0.750000 3.000000 2.500000
v 0.750000 3.000000 -1.150001
v -0.500000 1.649999 2.250000
v -0.750000 3.000000 2.250000
v 0.500000 3.000000 2.250000
v 0.750000 3.000000 2.250000
v 1.000000 1.649999 -2.250000
v 1.000000 3.000000 -2.250000
v 0.500000 3.000000 -2.250000
v -0.500000 3.000000 -2.250000
v -0.750000 3.000000 -2.250000
v 0.750000 3.000000 -2.250000
v -1.000000 1.649999 2.250000
v -0.845671 1.649999 2.480970
v -0.926777 1.649999 2.426777
v -0.980970 1.649999 2.345671
v -1.000000 3.000000 2.250000
v -0.750000 3.000000 2.500000
v -0.980970 3.000000 2.345671
v -0.926777 3.000000 2.426777
v -0.845671 3.000000 2.480970
v -1.000000 1.649999 -2.250000
v -0.980970 1.649999 -2.345671
v -0.926777 1.649999 -2.426777
v -0.845671 1.649999 -2.480969
v -0.750000 3.000000 -2.500000
v -1.000000 3.000000 -2.250000
v -0.845671 3.000000 -2.480969
v -0.926777 3.000000 -2.426777
v -0.980970 3.000000 -2.345671
v 1.000000 1.649999 2.250000
v 1.000000 3.200000 -2.350000
v 0.980970 1.649999 2.345671
v 0.926777 1.649999 2.426777
v 0.845671 1.649999 2.480970
v 1.000000 3.000000 -2.250000
v 1.000000 3.000000 2.250000
v 0.845671 3.000000 2.480970
v 0.926777 3.000000 2.426777
v 0.980970 3.000000 2.345671
v 0.750000 1.649999 -2.500000
v 0.845671 1.649999 -2.480969
v 0.926777 1.649999 -2.426777
v 0.980970 1.649999 -2.345671
v 1.000000 3.000000 2.090000
v 0.750000 3.000000 -2.500000
v 0.980970 3.000000 -2.345671
v 0.926777 3.000000 -2.426777
v 0.845671 3.000000 -2.480969
v 0.950000 3.200000 -2.350000
v -0.750000 1.649999 2.500000
v -0.519030 1.649999 2.345671
v -0.573223 1.649999 2.426777
v -0.654329 1.649999 2.480970
v 0.750000 1.649999 2.500000
v 0.500000 1.649999 2.250000
v 0.654329 1.649999 2.480970
v 0.573223 1.649999 2.426777
v 0.519030 1.649999 2.345671
v 0.950000 3.000000 -2.250000
v 0.519030 3.000000 2.345671
v 0.573223 3.000000 2.426777
v 0.654329 3.000000 2.480970
v 0.950000 3.000000 2.090000
v -0.500000 3.000000 2.250000
v -0.654329 3.000000 2.480970
v -0.573223 3.000000 2.426777
v -0.519030 3.000000 2.345671
v 0.980970 3.200000 -2.445671
v 0.980970 3.000000 -2.345671
v 0.934776 3.200000 -2.426537
v 0.934776 3.000000 -2.326536
v 0.926777 3.200000 -2.526776
v 0.926777 3.000000 -2.426776
v 0.891421 3.200000 -2.491421
v 0.891421 3.000000 -2.391420
v 0.845671 3.200000 -2.580969
v 0.845671 3.000000 -2.480968
v 0.826537 3.200000 -2.534775
v 0.826537 3.000000 -2.434774
v 0.750001 3.200000 -2.599999
v 0.750001 3.000000 -2.499999
v 0.750000 3.200000 -2.549999
v 0.750000 3.000000 -2.449999
v -1.000000 3.200000 -2.350000
v -1.000000 3.000000 -2.250000
v -1.000000 3.000000 2.090000
v -0.950000 3.200000 -2.350000
v -0.950000 3.000000 -2.250000
v -0.950000 3.000000 2.090000
v -0.980970 3.200000 -2.445671
v -0.980970 3.000000 -2.345671
v -0.934776 3.200000 -2.426537
v -0.934776 3.000000 -2.326536
v -0.926777 3.200000 -2.526776
v -0.926777 3.000000 -2.426776
v -0.891421 3.200000 -2.491421
v -0.891421 3.000000 -2.391420
v -0.845671 3.200000 -2.580969
v -0.845671 3.000000 -2.480968
v -0.826537 3.200000 -2.534775
v -0.826537 3.000000 -2.434774
v -0.750001 3.200000 -2.599999
v -0.750001 3.000000 -2.499999
v -0.750000 3.200000 -2.549999
v -0.750000 3.000000 -2.449999
v -0.000001 3.200000 -2.600006
v -0.000001 3.000000 -2.500006
v -0.000000 3.200000 -2.550006
v -0.000000 3.000000 -2.450006
v 1.000000 3.100000 2.100000
v 1.000000 3.100000 -2.300000
v 0.950000 3.100000 -2.300000
v 0.980970 3.100000 -2.395671
v 0.934776 3.100000 -2.376536
v 0.926777 3.100000 -2.476776
v 0.891421 3.100000 -2.441421
v 0.845671 3.100000 -2.530969
v 0.826537 3.100000 -2.484775
v 0.750001 3.100000 -2.549999
v 0.750000 3.100000 -2.499999
v -1.000000 3.100000 2.100000
v -1.000000 3.100000 -2.300000
v -0.000000 3.100000 -2.500006
v -0.950000 3.100000 -2.300000
v -0.950000 3.100000 2.100000
v -0.980970 3.100000 -2.395671
v -0.934776 3.100000 -2.376536
v -0.926777 3.100000 -2.476776
v -0.891421 3.100000 -2.441421
v -0.845671 3.100000 -2.530969
v -0.000001 3.100000 -2.550006
v -0.826537 3.100000 -2.484775
v -0.750001 3.100000 -2.549999
v -0.750000 3.100000 -2.499999
v 1.000000 3.200000 2.000000
v 1.000000 3.192388 2.038269
v 1.000000 3.170711 2.070711
v 1.000000 3.138268 2.092388
v 0.950000 3.100000 2.100000
v 0.950000 3.200000 2.000000
v 0.950000 3.138268 2.092388
v 0.950000 3.170711 2.070711
v 0.950000 3.192388 2.038269
v -1.000000 3.200000 2.000000
v -1.000000 3.138268 2.092388
v -1.000000 3.170711 2.070711
v -1.000000 3.192388 2.038269
v -0.950000 3.200000 2.000000
v -0.950000 3.192388 2.038269
v -0.950000 3.170711 2.070711
v -0.950000 3.138268 2.092388
v 0.000000 3.000000 -2.000000
v 0.000000 3.250000 -1.979608
v 0.114805 3.000000 -1.977163
v 0.107001 3.250000 -1.958324
v 0.212132 3.000000 -1.912132
v 0.197713 3.250000 -1.897713
v 0.277164 3.000000 -1.814805
v 0.258324 3.250000 -1.807001
v 0.300000 3.000000 -1.700000
v 0.279608 3.250000 -1.700000
v 0.277164 3.000000 -1.585195
v 0.258324 3.250000 -1.592998
v 0.212132 3.000000 -1.487868
v 0.197713 3.250000 -1.502287
v 0.114805 3.000000 -1.422836
v 0.107001 3.250000 -1.441675
v 0.000000 3.000000 -1.400000
v 0.000000 3.250000 -1.420391
v -0.114805 3.000000 -1.422836
v -0.107001 3.250000 -1.441675
v -0.212132 3.000000 -1.487868
v -0.197713 3.250000 -1.502287
v -0.277164 3.000000 -1.585195
v -0.258324 3.250000 -1.592998
v -0.300000 3.000000 -1.700000
v -0.279608 3.250000 -1.700000
v -0.277164 3.000000 -1.814805
v -0.258324 3.250000 -1.807001
v -0.212132 3.000000 -1.912132
v -0.197713 3.250000 -1.897713
v -0.114805 3.000000 -1.977163
v -0.107001 3.250000 -1.958324
v -0.075000 3.250000 -2.025000
v 0.075000 3.250000 -2.025000
v -0.075000 3.232322 -2.017677
v 0.075000 3.232322 -2.017677
v -0.075000 3.225000 -2.000000
v 0.075000 3.225000 -2.000000
v -0.075000 3.232322 -1.982323
v 0.075000 3.232322 -1.982323
v -0.075000 3.250000 -1.975000
v 0.075000 3.250000 -1.975000
v -0.075000 3.267678 -1.982323
v 0.075000 3.267678 -1.982323
v -0.075000 3.275000 -2.000000
v 0.075000 3.275000 -2.000000
v -0.075000 3.267678 -2.017677
v 0.075000 3.267678 -2.017677
v 0.542055 2.337500 2.326516
v 0.542055 2.362500 2.326516
v 0.599413 2.337500 2.408431
v 0.599412 2.362499 2.408431
v 0.474892 2.337500 2.422375
v 0.484715 2.337500 2.366666
v 0.468265 2.337500 2.392486
v 0.484715 2.362500 2.366666
v 0.474892 2.362500 2.422375
v 0.468265 2.362500 2.392486
v 0.542072 2.337500 2.448581
v 0.486363 2.337500 2.438758
v 0.512183 2.337500 2.455208
v 0.486363 2.362500 2.438758
v 0.542072 2.362499 2.448581
v 0.512183 2.362499 2.455208
v 0.510000 1.650000 2.379999
v 0.510000 1.690000 2.379999
v 0.531213 1.650000 2.388787
v 0.531213 1.690000 2.388787
v 0.540000 1.650000 2.410000
v 0.540000 1.690000 2.410000
v 0.531213 1.650000 2.431213
v 0.531213 1.690000 2.431213
v 0.510000 1.650000 2.440001
v 0.510000 1.690000 2.440001
v 0.488787 1.650000 2.431213
v 0.488787 1.690000 2.431213
v 0.480000 1.650000 2.410000
v 0.480000 1.690000 2.410000
v 0.488787 1.650000 2.388787
v 0.488787 1.690000 2.388787
v 0.550000 3.000000 1.900000
v 0.550000 3.250000 1.900000
v 0.550000 3.000000 1.000000
v 0.550000 3.250000 1.000000
v 0.950000 3.000000 1.900000
v 0.950000 3.250000 1.900000
v 0.950000 3.000000 1.000000
v 0.950000 3.250000 1.000000
v 0.850000 3.000000 1.000000
v 0.850000 3.349999 1.000000
v 0.850000 3.000000 1.900000
v 0.850000 3.349999 1.900000
v 0.831026 3.343675 1.020000
v 0.568974 3.256324 1.020000
v 0.568974 3.256324 1.880000
v 0.831026 3.343675 1.880000
v 0.600596 3.161456 1.020000
v 0.862649 3.248807 1.020000
v 0.862649 3.248807 1.880000
v 0.600596 3.161456 1.880000
v 0.852000 3.348000 1.920000
v 0.852000 3.357999 1.920000
v 0.852000 3.348000 0.980000
v 0.852000 3.357999 0.980000
v 0.960000 3.240000 1.920000
v 0.960000 3.250000 1.920000
v 0.960000 3.240000 0.980000
v 0.960000 3.250000 0.980000
v 0.855000 3.370000 1.610000
v 0.855000 3.370000 1.790000
v 0.865607 3.365606 1.610000
v 0.865607 3.365606 1.790000
v 0.870000 3.355000 1.610000
v 0.870000 3.355000 1.790000
v 0.865607 3.344393 1.610000
v 0.865607 3.344393 1.790000
v 0.855000 3.340000 1.610000
v 0.855000 3.340000 1.790000
v 0.844394 3.344393 1.610000
v 0.844394 3.344393 1.790000
v 0.840000 3.355000 1.610000
v 0.840000 3.355000 1.790000
v 0.844394 3.365606 1.610000
v 0.844394 3.365606 1.790000
v 0.855000 3.370000 1.110000
v 0.855000 3.370000 1.290000
v 0.865607 3.365606 1.110000
v 0.865607 3.365606 1.290000
v 0.870000 3.355000 1.110000
v 0.870000 3.355000 1.290000
v 0.865607 3.344393 1.110000
v 0.865607 3.344393 1.290000
v 0.855000 3.340000 1.110000
v 0.855000 3.340000 1.290000
v 0.844394 3.344393 1.110000
v 0.844394 3.344393 1.290000
v 0.840000 3.355000 1.110000
v 0.840000 3.355000 1.290000
v 0.844394 3.365606 1.110000
v 0.844394 3.365606 1.290000
v 0.535000 3.244999 1.920000
v 0.535000 3.254999 1.920000
v 0.535000 3.244999 0.980000
v 0.535000 3.254999 0.980000
v 0.850000 3.350000 1.920000
v 0.850000 3.359999 1.920000
v 0.850000 3.350000 0.980000
v 0.850000 3.359999 0.980000
v 0.640000 3.290000 1.720001
v 0.645000 3.300000 1.720001
v 0.640000 3.290000 1.680000
v 0.645000 3.300000 1.680000
v 0.850000 3.360000 1.720001
v 0.855000 3.370000 1.720001
v 0.850000 3.360000 1.680000
v 0.855000 3.370000 1.680000
v 0.640000 3.290000 1.220001
v 0.645000 3.300000 1.220001
v 0.640000 3.290000 1.180000
v 0.645000 3.300000 1.180000
v 0.850000 3.360000 1.220001
v 0.855000 3.370000 1.220001
v 0.850000 3.360000 1.180000
v 0.855000 3.370000 1.180000
v 1.100000 1.655000 3.620000
v 1.100000 1.640000 3.620000
v 1.100000 1.650000 3.800000
v 1.100000 1.635000 3.800000
v -1.100000 1.655000 3.620000
v -1.100000 1.640000 3.620000
v -1.100000 1.650000 3.800000
v -1.100000 1.635000 3.800000
v 0.114805 3.250000 -1.977163
v 0.000000 3.250000 -2.000000
v 0.212132 3.250000 -1.912132
v 0.277164 3.250000 -1.814805
v 0.300000 3.250000 -1.700000
v 0.277164 3.250000 -1.585195
v 0.212132 3.250000 -1.487868
v 0.114805 3.250000 -1.422836
v 0.000000 3.250000 -1.400000
v -0.114805 3.250000 -1.422836
v -0.212132 3.250000 -1.487868
v -0.277164 3.250000 -1.585195
v -0.300000 3.250000 -1.700000
v -0.277164 3.250000 -1.814805
v -0.212132 3.250000 -1.912132
v -0.114805 3.250000 -1.977163
v 0.107001 2.950000 -1.958324
v -0.000000 2.950000 -1.979608
v 0.197713 2.950000 -1.897713
v 0.258324 2.950000 -1.807001
v 0.279608 2.950000 -1.700000
v 0.258324 2.950000 -1.592998
v 0.197713 2.950000 -1.502287
v 0.107001 2.950000 -1.441675
v -0.000000 2.950000 -1.420391
v -0.107002 2.950000 -1.441675
v -0.197713 2.950000 -1.502287
v -0.258324 2.950000 -1.592998
v -0.279608 2.950000 -1.700000
v -0.258324 2.950000 -1.807001
v -0.197713 2.950000 -1.897713
v -0.107002 2.950000 -1.958324
v 0.000000 3.000000 -1.994001
v -0.172809 3.000000 -1.937852
v -0.279611 3.000000 -1.790852
v -0.279611 3.000000 -1.609150
v -0.172809 3.000000 -1.462150
v 0.000000 3.000000 -1.406001
v 0.172809 3.000000 -1.462150
v 0.279611 3.000000 -1.609150
v 0.279611 3.000000 -1.790852
v 0.172809 3.000000 -1.937852
v 0.600000 1.649999 -2.400000
v -0.600000 1.650000 -2.400000
v -0.600000 3.000000 -2.400000
v 0.600000 3.000000 -2.400000
v -0.900000 1.649999 -1.250000
v -0.900000 3.000000 -1.250000
v 0.900000 1.649999 -1.250000
v 0.900000 3.000000 -1.250000
v 0.600000 3.000000 -1.250000
v -0.600000 3.000000 -1.250000
v -0.600000 1.650000 -1.250000
v 0.600000 1.650000 -1.250000
v -0.740198 1.649999 -2.400481
v -0.600000 1.649999 2.250000
v 0.600000 3.000000 2.250000
v 0.900482 1.649999 -2.240198
v 0.900482 3.000000 -2.240198
v -0.900000 1.649999 2.250000
v -0.900000 3.000000 2.250000
v -0.900482 1.649999 -2.240198
v -0.888582 1.649999 -2.307402
v -0.856066 1.649999 -2.356066
v -0.807403 1.649999 -2.388582
v -0.740198 3.000000 -2.400481
v -0.900482 3.000000 -2.240198
v -0.807403 3.000000 -2.388582
v -0.856066 3.000000 -2.356066
v -0.888582 3.000000 -2.307402
v 0.900000 1.649999 2.250000
v 0.900000 3.000000 2.250000
v 0.740198 1.649999 -2.400481
v 0.807403 1.649999 -2.388582
v 0.856066 1.649999 -2.356066
v 0.888582 1.649999 -2.307402
v 0.740198 3.000000 -2.400481
v 0.888582 3.000000 -2.307402
v 0.856066 3.000000 -2.356066
v 0.807403 3.000000 -2.388582
v 0.600000 1.649999 2.250000
v -0.600000 3.000000 2.250000
vn 1.0000 -0.0000 -0.0000
vn -1.0000 -0.0000 -0.0000
vn -0.0000 1.0000 -0.0000
vn -0.0000 -1.0000 -0.0000
vn -0.0000 -0.0000 -1.0000
vn -0.0000 -0.0000 1.0000
vn 0.2733 0.9619 -0.0000
vn 0.6905 0.7234 -0.0000
vn 0.9058 0.4237 -0.0000
vn 0.9904 0.1379 -0.0000
vn -0.2733 0.9619 -0.0000
vn -0.6905 0.7234 -0.0000
vn -0.9058 0.4237 -0.0000
vn -0.9904 0.1379 -0.0000
vn 0.9762 -0.0971 -0.1942
vn -0.1951 -0.0000 0.9808
vn -0.5556 -0.0000 0.8315
vn -0.8315 -0.0000 0.5556
vn -0.9808 -0.0000 0.1951
vn -0.1951 -0.0000 -0.9808
vn -0.5556 -0.0000 -0.8315
vn -0.8315 -0.0000 -0.5556
vn -0.9808 -0.0000 -0.1951
vn 0.9808 -0.0000 -0.1951
vn 0.8315 -0.0000 -0.5556
vn 0.5556 -0.0000 -0.8315
vn 0.1951 -0.0000 -0.9808
vn 0.1951 -0.0000 0.9808
vn 0.5556 -0.0000 0.8315
vn 0.8315 -0.0000 0.5556
vn 0.9808 -0.0000 0.1951
vn -0.9762 0.0971 0.1942
vn -0.0000 0.4472 0.8944
vn -0.5130 0.3839 0.7678
vn 0.8011 -0.2677 -0.5353
vn -0.8011 0.2677 0.5353
vn -0.0000 -0.4472 -0.8944
vn 0.5130 -0.3839 -0.7678
vn 0.1752 -0.4403 -0.8806
vn -0.1752 0.4403 0.8806
vn -0.9762 -0.0971 -0.1942
vn 0.9762 0.0971 0.1942
vn 0.5130 0.3839 0.7678
vn -0.8011 -0.2677 -0.5353
vn 0.8011 0.2677 0.5353
vn -0.5130 -0.3839 -0.7678
vn -0.1752 -0.4403 -0.8806
vn 0.1752 0.4403 0.8806
vn -0.0000 -0.0995 0.9950
vn -0.0000 0.9808 0.1951
vn -0.0000 0.8315 0.5556
vn -0.0000 0.5556 0.8315
vn -0.0000 0.1951 0.9808
vn 0.3827 -0.0000 -0.9239
vn 0.7071 -0.0000 -0.7071
vn 0.9239 -0.0000 -0.3827
vn 0.9239 -0.0000 0.3827
vn 0.7071 -0.0000 0.7071
vn 0.3827 -0.0000 0.9239
vn -0.3827 -0.0000 0.9239
vn -0.7071 -0.0000 0.7071
vn -0.9239 -0.0000 0.3827
vn -0.9239 -0.0000 -0.3827
vn -0.7071 -0.0000 -0.7071
vn -0.3827 -0.0000 -0.9239
vn -0.0000 -0.3827 -0.9239
vn -0.0000 -0.9239 -0.3827
vn -0.0000 -0.9239 0.3827
vn -0.0000 -0.3827 0.9239
vn -0.0000 0.3827 0.9239
vn -0.0000 0.9239 0.3827
vn -0.0000 0.9239 -0.3827
vn -0.0000 0.3827 -0.9239
vn -0.8192 -0.0000 0.5736
vn -0.5736 -0.0000 -0.8191
vn 0.5736 -0.0000 0.8192
vn -0.9763 -0.0000 0.2164
vn -0.8434 -0.0000 -0.5373
vn -0.5373 -0.0000 0.8434
vn 0.2165 -0.0000 0.9763
vn 0.9487 0.3162 -0.0000
vn 0.7071 0.7071 -0.0000
vn -0.3162 0.9487 -0.0000
vn -0.3163 0.9487 -0.0000
vn -0.9487 -0.3162 -0.0000
vn -0.7071 -0.7071 -0.0000
vn 0.3827 0.9239 -0.0000
vn 0.9239 0.3827 -0.0000
vn 0.9239 -0.3827 -0.0000
vn 0.3827 -0.9239 -0.0000
vn -0.3827 -0.9239 -0.0000
vn -0.9239 -0.3827 -0.0000
vn -0.9239 0.3827 -0.0000
vn -0.3827 0.9239 -0.0000
vn 0.3162 -0.9487 -0.0000
vn -0.8944 0.4472 -0.0000
vn -0.0000 0.9996 0.0278
vn -0.0000 -0.9996 -0.0278
vn 0.0035 -0.0000 -1.0000
vn 0.0034 -0.0000 -1.0000
vn 0.0003 -0.0001 1.0000
vn -0.0003 -0.0002 1.0000
vn -0.0000 0.0003 1.0000
vn 1.0000 -0.0000 0.0005
vn -1.0000 -0.0000 0.0003
vn -1.0000 -0.0001 -0.0003
vn -1.0000 0.0003 -0.0000
vn -0.0035 -0.0000 -1.0000
vn -0.0034 -0.0000 -1.0000
vn 1.0000 0.0002 0.0006
vn 1.0000 -0.0004 0.0004
vn 1.0000 0.0006 -0.0000
vn -1.0000 0.0006 0.0002
vn -1.0000 -0.0000 0.0006
vn 1.0000 -0.0000 -0.0003
vn 1.0000 -0.0001 0.0003
vn 1.0000 0.0003 -0.0000
vn -1.0000 -0.0000 0.0005
vn -0.1744 -0.0000 -0.9847
vn -0.5555 -0.0000 -0.8315
vn -0.8314 -0.0000 -0.5556
vn -0.9847 -0.0000 -0.1744
vn 0.9847 -0.0000 -0.1744
vn 0.8315 -0.0000 -0.5555
vn 0.5556 -0.0000 -0.8314
vn 0.1744 -0.0000 -0.9847
vn 0.0003 0.0002 -1.0000
vn -0.0001 0.0003 1.0000
vn 0.0003 -0.0000 1.0000
vn -0.0000 0.0003 -1.0000
vn -0.0000 -0.0000 -0.0000
vn -0.5736 -0.0000 -0.8192
vn 0.5736 -0.0000 0.8191
vn 0.2164 -0.0000 0.9763
vn -0.0001 -1.0000 -0.0000
vn 0.0003 0.0002 1.0000
vn -0.0000 -0.0003 1.0000
vn -0.0003 0.0001 1.0000
vn -1.0000 0.0001 0.0003
vn -1.0000 -0.0003 -0.0000
vn -1.0000 -0.0000 -0.0003
vn 1.0000 -0.0000 0.0006
vn 1.0000 0.0001 0.0006
vn -1.0000 0.0006 -0.0001
vn 1.0000 0.0001 -0.0003
vn 1.0000 -0.0003 -0.0000
vn 1.0000 -0.0000 0.0003
vn -0.5556 -0.0000 -0.8314
vn -0.8315 -0.0000 -0.5555
vn 0.8314 -0.0000 -0.5556
vn 0.5555 -0.0000 -0.8315
vn 0.0003 -0.0000 -1.0000
vn -0.0001 0.0003 -1.0000
vn -0.0003 -0.0000 -1.0000
vt 0.625000 0.500000
vt 0.375000 0.750000
vt 0.375000 0.500000
vt 0.625000 0.000000
vt 0.541667 0.250000
vt 0.541667 0.000000
vt 0.458333 0.000000
vt 0.458333 0.250000
vt 0.541667 0.750000
vt 0.541667 0.500000
vt 0.125000 0.750000
vt 0.125000 0.500000
vt 0.875000 0.500000
vt 0.625000 0.750000
vt 0.458333 0.750000
vt 0.458333 0.500000
vt 0.375000 0.250000
vt 0.375000 0.000000
vt 0.625000 0.250000
vt 0.470671 0.750000
vt 0.375000 1.000000
vt 0.618657 0.500000
vt 0.618657 0.750000
vt 0.600592 0.500000
vt 0.600592 0.750000
vt 0.470671 0.500000
vt 0.849278 0.502379
vt 0.871828 0.519291
vt 0.833333 0.531250
vt 0.628172 0.519291
vt 0.650721 0.502379
vt 0.666667 0.531250
vt 0.666667 0.656250
vt 0.650722 0.742864
vt 0.628172 0.692127
vt 0.875000 0.656250
vt 0.862796 0.722541
vt 0.833333 0.750000
vt 0.833333 0.656250
vt 0.817388 0.742864
vt 0.794838 0.692127
vt 0.708333 0.656250
vt 0.696129 0.722541
vt 0.666667 0.750000
vt 0.625000 0.291667
vt 0.375000 0.333333
vt 0.375000 0.291667
vt 0.625000 0.333333
vt 0.375000 0.416667
vt 0.000000 0.000000
vt 0.708333 0.531250
vt 0.666667 0.562500
vt 0.875000 0.531250
vt 0.833333 0.562500
vt 0.791667 0.562500
vt 0.708333 0.562500
vt 0.625000 0.531250
vt 0.375000 0.562500
vt 0.375000 0.531250
vt 0.625000 0.093750
vt 0.375000 0.187500
vt 0.375000 0.093750
vt 0.791667 0.531250
vt 0.625000 0.562500
vt 0.615485 0.996528
vt 0.547835 0.999570
vt 0.625000 0.416667
vt 0.375000 0.458333
vt 0.791667 0.656250
vt 0.708333 0.739583
vt 0.875000 0.562500
vt 0.625000 0.656250
vt 0.666667 0.697917
vt 0.375000 0.656250
vt 0.375000 0.244382
vt 0.833333 0.500000
vt 0.791667 0.500000
vt 0.797835 0.500430
vt 0.865485 0.503472
vt 0.875000 0.750000
vt 0.500000 0.750000
vt 0.708333 0.500000
vt 0.666667 0.500000
vt 0.625000 0.187500
vt 0.375000 0.218750
vt 0.625000 0.958333
vt 0.375000 0.974278
vt 0.375000 0.958333
vt 0.625000 0.974278
vt 0.375000 0.057873
vt 0.625000 0.057873
vt 0.625000 0.275722
vt 0.375000 0.275722
vt 0.625000 0.230709
vt 0.375000 0.230709
vt 0.625000 0.218750
vt 0.625000 0.519291
vt 0.375000 0.519291
vt 0.625000 0.474278
vt 0.375000 0.474278
vt 0.625000 0.458333
vt 0.375000 0.791667
vt 0.625000 0.775721
vt 0.625000 0.791667
vt 0.375000 0.775721
vt 0.625000 0.692127
vt 0.375000 0.692127
vt 0.541667 0.697917
vt 0.650722 0.749738
vt 0.477886 0.749738
vt 0.625000 0.833333
vt 0.375000 0.833333
vt 0.625000 0.807612
vt 0.375000 0.807612
vt 0.625000 0.942388
vt 0.375000 0.942388
vt 0.625000 0.916667
vt 0.375000 0.916667
vt 0.676443 0.807350
vt 0.503608 0.807350
vt 0.750000 0.750000
vt 0.500000 1.000000
vt 0.588388 0.998347
vt 0.625000 0.994382
vt 0.375000 0.244382
vt 0.875000 0.505618
vt 0.838389 0.501653
vt 0.750000 0.500000
vt 0.500000 0.500000
vt 0.625000 0.244382
vt 0.375000 0.246532
vt 0.625000 0.246532
vt 0.547835 0.500000
vt 0.547835 0.750000
vt 1.000000 1.000000
vt 0.937500 0.500000
vt 1.000000 0.500000
vt 0.937500 1.000000
vt 0.875000 1.000000
vt 0.812500 0.500000
vt 0.812500 1.000000
vt 0.750000 1.000000
vt 0.687500 0.500000
vt 0.687500 1.000000
vt 0.625000 1.000000
vt 0.562500 0.500000
vt 0.562500 1.000000
vt 0.437500 0.500000
vt 0.437500 1.000000
vt 0.312500 0.500000
vt 0.312500 1.000000
vt 0.250000 0.500000
vt 0.250000 1.000000
vt 0.187500 0.500000
vt 0.187500 1.000000
vt 0.335601 0.043341
vt 0.408170 0.091830
vt 0.125000 1.000000
vt 0.062500 0.500000
vt 0.062500 1.000000
vt 0.000000 0.500000
vt 0.010000 0.250000
vt 0.250000 0.010000
vt 0.490000 0.250000
vt 0.919706 0.080294
vt 0.580294 0.080294
vt 0.580294 0.419706
vt 0.625000 0.850000
vt 0.375000 0.900000
vt 0.375000 0.850000
vt 0.845711 0.723372
vt 0.724999 0.750000
vt 0.625000 0.659090
vt 0.375000 0.090910
vt 0.375000 0.659090
vt 0.625000 0.900000
vt 0.625000 0.659090
vt 0.345711 0.723374
vt 0.224999 0.750000
vt 0.125000 0.659090
vt 0.375000 0.437500
vt 0.375000 0.812500
vt 0.312500 0.750000
vt 0.863141 0.744444
vt 0.863141 0.505556
vt 0.687500 0.500000
vt 0.699358 0.505556
vt 0.687500 0.750000
vt 0.699358 0.744444
vt 0.919706 0.080294
vt 0.580294 0.080294
vt 0.580294 0.419706
vt 0.250000 0.473687
vt 0.341844 0.471731
vt 0.250000 0.490000
vt 0.408170 0.408170
vt 0.335601 0.456659
vt 0.471731 0.341844
vt 0.419706 0.419706
vt 0.473687 0.250000
vt 0.456659 0.335601
vt 0.456659 0.164399
vt 0.471731 0.158156
vt 0.419706 0.080294
vt 0.250000 0.026313
vt 0.341844 0.028269
vt 0.158156 0.028269
vt 0.164399 0.043341
vt 0.080294 0.080294
vt 0.043341 0.164399
vt 0.091830 0.091830
vt 0.028269 0.158156
vt 0.026313 0.250000
vt 0.028269 0.341844
vt 0.091830 0.408170
vt 0.043341 0.335601
vt 0.158156 0.471731
vt 0.080294 0.419706
vt 0.164399 0.456659
vt 0.583333 0.739583
vt 0.862796 0.509153
vt 0.637204 0.509153
vt 0.637204 0.722541
vt 0.871828 0.692127
vt 0.849278 0.742864
vt 0.803871 0.722541
vt 0.705162 0.692127
vt 0.682612 0.742864
vt 0.588388 0.998347
vt 0.838388 0.501653
vt 0.547835 0.999570
vt 0.615485 0.996528
vt 0.625000 0.244382
vt 0.000000 1.000000
vt 0.750000 0.490000
vt 0.919706 0.419706
vt 0.990000 0.250000
vt 0.750000 0.010000
vt 0.510000 0.250000
vt 0.875000 0.659090
vt 0.775000 0.750000
vt 0.654289 0.723374
vt 0.625000 0.090910
vt 0.375000 0.659090
vt 0.275000 0.750000
vt 0.154288 0.723373
vt 0.419706 0.419706
vt 0.080294 0.419706
vt 0.080294 0.080294
vt 0.419706 0.080294
vt 0.625000 0.437500
vt 0.625000 0.812500
vt 0.919706 0.419706
s 0
f 4/1/1 1/2/1 3/3/1
f 6/4/2 15/5/2 14/6/2
f 13/7/3 24/8/3 16/8/3
f 12/1/1 19/9/1 17/10/1
f 19/9/4 25/10/4 17/10/4
f 11/3/4 5/11/4 7/12/4
f 8/13/3 10/14/3 12/1/3
f 22/6/2 24/8/2 21/7/2
f 25/10/1 28/15/1 26/16/1
f 18/16/1 9/2/1 11/3/1
f 15/5/4 22/6/4 14/6/4
f 13/7/2 7/17/2 5/18/2
f 18/16/3 28/15/3 20/15/3
f 32/1/1 29/2/1 31/3/1
f 34/4/2 35/17/2 33/18/2
f 36/19/5 39/3/5 35/17/5
f 56/2/6 51/2/6 105/20/6
f 38/14/6 33/21/6 37/2/6
f 39/3/4 33/11/4 35/12/4
f 36/13/3 38/14/3 40/1/3
f 40/1/3 99/14/3 93/1/3
f 39/3/2 43/2/2 37/2/2
f 37/2/6 42/2/6 100/20/6
f 41/3/3 98/2/3 42/2/3
f 44/3/4 45/2/4 43/2/4
f 41/3/5 44/3/5 39/3/5
f 37/2/6 45/2/6 42/2/6
f 42/2/1 46/3/1 41/3/1
f 51/2/1 47/3/1 52/3/1
f 56/2/6 48/2/6 51/2/6
f 52/3/5 49/3/5 54/3/5
f 49/3/4 48/2/4 50/2/4
f 54/3/5 53/1/5 110/22/5
f 54/3/2 50/2/2 56/2/2
f 53/1/3 104/14/3 108/1/3
f 57/13/3 55/14/3 53/1/3
f 54/3/4 60/11/4 58/12/4
f 55/14/6 60/21/6 56/2/6
f 52/3/3 103/2/3 51/2/3
f 57/19/5 54/3/5 58/17/5
f 59/4/2 58/17/2 60/18/2
f 62/4/2 63/17/2 61/18/2
f 68/1/1 65/2/1 67/3/1
f 67/3/4 61/11/4 63/12/4
f 64/13/3 66/14/3 68/1/3
f 70/4/2 71/17/2 69/18/2
f 76/1/1 73/2/1 75/3/1
f 75/3/4 69/11/4 71/12/4
f 72/13/3 74/14/3 76/1/3
f 81/13/3 79/14/3 77/1/3
f 78/3/4 84/11/4 82/12/4
f 77/1/1 80/2/1 78/3/1
f 83/4/2 82/17/2 84/18/2
f 89/13/3 87/14/3 85/1/3
f 86/3/4 92/11/4 90/12/4
f 85/1/1 88/2/1 86/3/1
f 91/4/2 90/17/2 92/18/2
f 99/14/7 95/22/7 93/1/7
f 102/23/8 96/24/8 95/22/8
f 101/25/9 97/26/9 96/24/9
f 100/20/10 94/3/10 97/26/10
f 104/14/7 110/22/7 108/1/7
f 107/23/8 111/24/8 110/22/8
f 106/25/9 112/26/9 111/24/9
f 105/20/10 109/3/10 112/26/10
f 39/3/5 40/1/5 95/22/5
f 115/3/5 4/19/5 3/17/5
f 113/2/2 116/1/2 115/3/2
f 1/21/6 114/14/6 113/2/6
f 1/11/4 115/3/4 3/12/4
f 114/14/3 4/13/3 116/1/3
f 127/5/1 118/4/1 126/6/1
f 136/8/3 125/7/3 128/8/3
f 131/9/2 124/1/2 129/10/2
f 137/10/4 131/9/4 129/10/4
f 117/11/4 123/3/4 119/12/4
f 122/14/3 120/13/3 124/1/3
f 136/8/1 134/6/1 133/7/1
f 140/15/2 137/10/2 138/16/2
f 121/2/2 130/16/2 123/3/2
f 134/6/4 127/5/4 126/6/4
f 119/17/1 125/7/1 117/18/1
f 140/15/3 130/16/3 132/15/3
f 143/3/5 32/19/5 31/17/5
f 141/2/2 144/1/2 143/3/2
f 29/21/6 142/14/6 141/2/6
f 29/11/4 143/3/4 31/12/4
f 142/14/3 32/13/3 144/1/3
f 147/17/1 146/4/1 145/18/1
f 151/3/5 148/19/5 147/17/5
f 167/14/6 219/23/6 168/2/6
f 145/21/6 150/14/6 149/2/6
f 145/11/4 151/3/4 147/12/4
f 150/14/3 148/13/3 152/1/3
f 152/1/3 211/14/3 150/14/3
f 155/2/1 151/3/1 149/2/1
f 150/14/6 214/23/6 149/2/6
f 153/3/3 210/2/3 206/3/3
f 157/2/4 156/3/4 155/2/4
f 156/3/5 153/3/5 151/3/5
f 157/2/6 149/2/6 154/2/6
f 158/3/2 154/2/2 153/3/2
f 159/3/2 163/2/2 164/3/2
f 160/2/6 168/2/6 163/2/6
f 161/3/5 164/3/5 166/3/5
f 160/2/4 161/3/4 162/2/4
f 166/3/5 164/3/5 224/26/5
f 162/2/1 166/3/1 168/2/1
f 165/1/3 216/14/3 167/14/3
f 167/14/3 169/13/3 165/1/3
f 172/11/4 166/3/4 170/12/4
f 172/21/6 167/14/6 168/2/6
f 164/3/3 215/2/3 221/3/3
f 166/3/5 169/19/5 170/17/5
f 170/17/1 171/4/1 172/18/1
f 175/17/1 174/4/1 173/18/1
f 177/2/2 180/1/2 179/3/2
f 173/11/4 179/3/4 175/12/4
f 178/14/3 176/13/3 180/1/3
f 183/17/1 182/4/1 181/18/1
f 185/2/2 188/1/2 187/3/2
f 181/11/4 187/3/4 183/12/4
f 186/14/3 184/13/3 188/1/3
f 191/14/3 193/13/3 189/1/3
f 196/11/4 190/3/4 194/12/4
f 192/2/2 189/1/2 190/3/2
f 194/17/1 195/4/1 196/18/1
f 199/14/3 201/13/3 197/1/3
f 204/11/4 198/3/4 202/12/4
f 200/2/2 197/1/2 198/3/2
f 202/17/1 203/4/1 204/18/1
f 207/22/11 211/14/11 205/1/11
f 208/24/12 214/23/12 207/22/12
f 209/26/13 213/25/13 208/24/13
f 206/3/14 212/20/14 209/26/14
f 222/22/11 216/14/11 220/1/11
f 223/24/12 219/23/12 222/22/12
f 224/26/13 218/25/13 223/24/13
f 221/3/14 217/20/14 224/26/14
f 151/3/5 153/3/5 209/26/5
f 226/4/2 227/17/2 225/18/2
f 228/19/5 231/3/5 227/17/5
f 232/1/1 229/2/1 231/3/1
f 230/14/6 225/21/6 229/2/6
f 231/3/4 225/11/4 227/12/4
f 228/13/3 230/14/3 232/1/3
f 282/27/3 284/28/3 265/29/3
f 301/30/3 303/31/3 266/32/3
f 260/33/3 292/34/3 294/35/3
f 271/36/3 274/37/3 272/38/3
f 234/4/2 235/17/2 233/18/2
f 236/19/5 239/3/5 235/17/5
f 240/1/1 237/2/1 239/3/1
f 238/14/6 233/21/6 237/2/6
f 239/3/4 233/11/4 235/12/4
f 236/13/3 238/14/3 240/1/3
f 258/39/3 320/40/3 322/41/3
f 259/42/3 316/43/3 255/44/3
f 280/45/5 242/46/5 253/47/5
f 243/48/5 241/49/5 242/46/5
f 616/50/3 615/50/3 250/50/3
f 263/51/3 256/52/3 266/32/3
f 281/53/3 254/54/3 265/29/3
f 250/55/6 252/56/6 249/56/6
f 262/57/1 247/58/1 261/59/1
f 271/60/2 245/61/2 267/62/2
f 265/29/3 250/55/3 264/63/3
f 266/32/3 248/64/3 262/57/3
f 286/14/1 391/65/1 393/66/1
f 244/67/5 295/68/5 241/49/5
f 254/54/3 319/69/3 250/55/3
f 319/70/1 251/55/1 250/55/1
f 246/71/3 258/39/3 254/54/3
f 256/52/3 291/72/3 248/64/3
f 252/56/2 259/73/2 249/56/2
f 249/56/3 260/33/3 256/52/3
f 248/64/1 285/74/1 247/58/1
f 304/4/3 390/75/3 286/18/3
f 280/76/3 264/63/3 243/77/3
f 396/78/2 398/79/2 304/80/2
f 366/81/15 324/2/15 368/81/15
f 244/82/3 266/32/3 300/83/3
f 243/77/3 263/51/3 244/82/3
f 246/84/2 276/85/2 245/61/2
f 272/86/16 268/87/16 305/88/16
f 275/89/17 269/21/17 268/87/17
f 274/4/18 270/90/18 269/18/18
f 273/91/19 267/62/19 270/90/19
f 253/47/20 282/92/20 280/45/20
f 279/93/21 283/19/21 282/92/21
f 278/17/22 284/94/22 283/19/22
f 277/95/23 281/96/23 284/94/23
f 261/59/24 301/97/24 262/57/24
f 298/98/25 302/1/25 301/97/25
f 297/3/26 303/99/26 302/1/26
f 296/100/27 300/101/27 303/99/27
f 309/102/28 292/103/28 255/104/28
f 289/105/29 293/14/29 292/103/29
f 288/2/30 294/106/30 293/14/30
f 287/107/31 291/72/31 294/106/31
f 310/108/19 315/109/19 259/73/19
f 313/110/18 316/111/18 315/109/18
f 312/112/17 317/113/17 316/111/17
f 311/114/16 255/104/16 317/113/16
f 305/88/28 320/115/28 272/86/28
f 308/116/29 321/117/29 320/115/29
f 307/118/30 322/119/30 321/117/30
f 306/120/31 319/70/31 322/119/31
f 335/18/3 363/4/3 337/4/3
f 304/80/32 369/121/32 367/121/32
f 286/18/3 325/4/3 304/4/3
f 337/80/33 378/121/33 375/121/33
f 329/80/34 373/121/34 371/121/34
f 368/81/35 328/2/35 370/81/35
f 325/80/36 371/121/36 369/121/36
f 323/18/3 329/4/3 325/4/3
f 374/81/37 362/2/37 386/81/37
f 329/4/3 331/18/3 333/4/3
f 370/81/38 332/2/38 372/81/38
f 336/50/4 364/50/4 362/50/4
f 372/81/39 336/2/39 374/81/39
f 333/80/40 375/121/40 373/121/40
f 331/18/3 337/4/3 333/4/3
f 376/122/2 401/123/2 399/124/2
f 399/125/3 342/4/3 339/18/3
f 379/121/1 403/126/1 405/127/1
f 377/81/41 346/2/41 340/2/41
f 363/4/3 357/18/3 359/4/3
f 382/121/42 342/80/42 379/121/42
f 347/4/3 339/18/3 342/4/3
f 378/121/33 359/80/33 389/121/33
f 387/121/43 351/80/43 384/121/43
f 381/81/44 350/2/44 346/2/44
f 384/121/45 347/80/45 382/121/45
f 351/4/3 345/18/3 347/4/3
f 388/81/37 362/2/37 358/2/37
f 351/4/3 353/18/3 349/18/3
f 383/81/46 354/2/46 350/2/46
f 362/50/4 360/50/4 358/50/4
f 385/81/47 358/2/47 354/2/47
f 389/121/48 355/80/48 387/121/48
f 359/4/3 353/18/3 355/4/3
f 360/14/48 387/121/48 356/14/48
f 353/14/47 388/81/47 385/81/47
f 349/14/46 385/81/46 383/81/46
f 357/14/37 386/81/37 388/81/37
f 352/14/45 382/121/45 348/14/45
f 345/14/44 383/81/44 381/81/44
f 356/14/43 384/121/43 352/14/43
f 364/14/33 389/121/33 360/14/33
f 348/14/42 379/121/42 343/14/42
f 343/14/1 380/128/1 344/1/1
f 339/14/41 381/81/41 377/81/41
f 340/2/2 376/122/2 377/81/2
f 344/2/49 376/129/49 341/3/49
f 373/121/40 338/14/40 334/14/40
f 331/14/39 374/81/39 335/14/39
f 327/14/38 372/81/38 331/14/38
f 335/14/37 386/81/37 361/14/37
f 369/121/36 330/14/36 326/14/36
f 323/14/35 370/81/35 327/14/35
f 371/121/34 334/14/34 330/14/34
f 375/121/33 364/14/33 338/14/33
f 367/121/32 326/14/32 314/14/32
f 394/128/2 314/14/2 318/1/2
f 286/14/15 368/81/15 323/14/15
f 290/2/1 365/122/1 299/21/1
f 365/129/49 318/2/49 299/3/49
f 395/130/50 391/131/50 390/75/50
f 398/132/51 392/17/51 391/131/51
f 397/14/52 393/133/52 392/1/52
f 396/134/53 365/129/53 393/133/53
f 380/81/53 400/133/53 376/129/53
f 406/134/52 401/1/52 400/133/52
f 405/19/51 402/131/51 401/17/51
f 404/132/50 399/125/50 402/131/50
s 1
f 580/135/5 409/136/54 407/137/5
f 579/138/54 411/13/55 409/136/54
f 581/139/55 413/140/56 411/13/55
f 582/141/56 415/128/1 413/140/56
f 583/142/1 417/143/57 415/128/1
f 584/144/57 419/1/58 417/143/57
f 585/145/58 421/146/59 419/1/58
f 586/147/59 423/129/6 421/146/59
f 587/122/6 425/148/60 423/129/6
f 588/149/60 427/3/61 425/148/60
f 589/21/61 429/150/62 427/3/61
f 590/151/62 431/152/2 429/150/62
f 591/153/2 433/154/63 431/152/2
f 592/155/63 435/12/64 433/154/63
f 422/156/65 601/157/64 602/156/65
f 593/158/64 437/159/65 435/12/64
f 594/160/65 407/161/5 437/159/65
s 0
f 440/135/66 441/13/66 439/137/66
f 442/139/67 443/128/67 441/13/67
f 444/142/68 445/1/68 443/128/68
f 446/145/69 447/129/69 445/1/69
f 448/122/70 449/3/70 447/129/70
f 450/21/71 451/152/71 449/3/71
f 452/162/1 448/163/1 444/164/1
f 452/153/72 453/12/72 451/152/72
f 454/158/73 439/161/73 453/12/73
f 445/165/2 449/166/2 453/167/2
f 468/168/74 459/169/74 466/170/74
f 464/171/3 468/172/3 469/173/3
f 460/174/75 456/19/75 455/17/75
f 458/1/76 465/175/76 457/3/76
f 463/176/77 461/21/77 459/169/77
f 464/4/78 460/174/78 461/18/78
f 466/170/79 470/14/79 468/168/79
f 467/2/80 469/177/80 470/14/80
f 467/178/4 459/179/4 460/180/4
f 472/135/54 473/13/54 471/137/54
f 474/139/56 475/128/56 473/13/56
f 476/142/57 477/1/57 475/128/57
f 478/145/59 479/129/59 477/1/59
f 480/122/60 481/3/60 479/129/60
f 482/21/62 483/152/62 481/3/62
f 484/162/3 480/163/3 476/164/3
f 484/153/63 485/12/63 483/152/63
f 486/158/65 471/161/65 485/12/65
f 488/4/2 489/17/2 487/18/2
f 495/181/5 494/1/5 493/3/5
f 494/1/1 491/2/1 493/3/1
f 497/182/6 488/145/6 487/21/6
f 493/3/4 497/183/4 495/150/4
f 501/184/81 503/185/81 500/185/81
f 496/186/82 492/14/82 494/1/82
f 495/150/4 487/11/4 489/12/4
f 492/14/6 497/182/6 491/2/6
f 490/19/5 495/181/5 489/17/5
f 490/13/83 499/187/83 496/186/83
f 488/80/83 500/185/83 490/13/83
f 498/188/83 501/184/83 488/80/83
f 496/186/84 502/189/84 498/188/84
f 503/185/83 505/189/83 504/187/83
f 500/185/6 504/187/6 499/187/6
f 502/189/5 506/184/5 501/184/5
f 499/187/85 505/189/85 502/189/85
f 508/4/2 509/17/2 507/18/2
f 509/17/5 514/1/5 513/3/5
f 514/1/1 511/2/1 513/3/1
f 512/14/6 507/21/6 511/2/6
f 513/3/86 507/11/86 509/12/86
f 510/13/82 512/14/82 514/1/82
f 516/135/87 517/13/87 515/137/87
f 518/139/88 519/128/88 517/13/88
f 520/142/89 521/1/89 519/128/89
f 522/145/90 523/129/90 521/1/90
f 524/122/91 525/3/91 523/129/91
f 526/21/92 527/152/92 525/3/92
f 528/162/6 524/163/6 520/164/6
f 528/153/93 529/12/93 527/152/93
f 530/158/94 515/161/94 529/12/94
f 521/190/5 525/191/5 529/192/5
f 532/135/87 533/13/87 531/137/87
f 534/139/88 535/128/88 533/13/88
f 536/142/89 537/1/89 535/128/89
f 538/145/90 539/129/90 537/1/90
f 540/122/91 541/3/91 539/129/91
f 542/21/92 543/152/92 541/3/92
f 544/162/6 540/163/6 536/164/6
f 544/153/93 545/12/93 543/152/93
f 546/158/94 531/161/94 545/12/94
f 537/190/5 541/191/5 545/192/5
f 548/4/2 549/17/2 547/18/2
f 550/19/5 553/3/5 549/17/5
f 554/1/1 551/2/1 553/3/1
f 551/2/6 548/145/6 547/21/6
f 553/3/95 547/11/95 549/12/95
f 550/13/83 552/14/83 554/1/83
f 556/4/96 557/17/96 555/18/96
f 558/19/5 561/3/5 557/17/5
f 559/2/6 556/145/6 555/21/6
f 558/13/83 560/14/83 562/1/83
f 564/4/96 565/17/96 563/18/96
f 566/19/5 569/3/5 565/17/5
f 567/2/6 564/145/6 563/21/6
f 566/13/83 568/14/83 570/1/83
f 575/4/97 573/17/97 571/18/97
f 572/19/98 578/3/98 576/17/98
f 573/1/6 578/2/6 574/3/6
f 572/2/1 573/145/1 574/21/1
f 575/3/5 572/11/5 576/12/5
f 577/13/2 576/14/2 578/1/2
s 1
f 408/193/3 579/194/3 580/195/3
f 412/196/3 579/194/3 410/197/3
f 412/196/3 582/198/3 581/199/3
f 416/200/3 582/198/3 414/201/3
f 418/202/3 583/164/3 416/200/3
f 420/157/3 584/203/3 418/202/3
f 422/156/3 585/204/3 420/157/3
f 424/205/3 586/206/3 422/156/3
f 424/205/3 588/207/3 587/163/3
f 426/208/3 589/209/3 588/207/3
f 430/210/3 589/209/3 428/211/3
f 430/210/3 591/162/3 590/212/3
f 432/213/3 592/214/3 591/162/3
f 436/215/3 592/214/3 434/216/3
f 436/215/3 594/217/3 593/218/3
f 408/193/3 594/217/3 438/219/3
f 436/215/58 610/219/59 438/219/59
f 424/205/5 602/156/65 603/205/5
f 408/193/6 595/197/60 410/197/60
f 438/219/59 596/193/6 408/193/6
f 426/208/54 603/205/5 604/208/54
f 410/197/60 597/196/61 412/196/61
f 428/211/55 604/208/54 605/211/55
f 412/196/61 598/201/62 414/201/62
f 430/210/56 605/211/55 606/210/56
f 414/201/62 599/200/2 416/200/2
f 430/210/56 607/213/1 432/213/1
f 416/200/2 600/202/63 418/202/63
f 432/213/1 608/216/57 434/216/57
f 420/157/64 600/202/63 601/157/64
f 434/216/57 609/215/58 436/215/58
s 0
f 616/50/3 249/50/3 617/50/3
f 617/50/3 249/50/3 618/50/3
f 620/50/3 619/50/3 263/50/3
f 620/50/3 263/50/3 611/50/3
f 612/50/3 264/50/3 613/50/3
f 611/50/3 264/50/3 612/50/3
f 615/50/3 614/50/3 250/50/3
f 250/50/3 249/50/3 616/50/3
f 263/50/3 618/50/3 249/50/3
f 264/50/3 614/50/3 613/50/3
f 264/50/3 611/50/3 263/50/3
f 622/46/99 644/45/100 633/47/100
f 622/46/5 624/67/5 623/48/5
f 632/56/101 630/55/102 629/56/103
f 627/58/104 637/57/104 636/59/104
f 625/61/105 639/60/106 638/62/107
f 651/68/108 624/67/108 621/49/109
f 631/55/110 660/70/111 630/55/112
f 635/73/113 632/56/107 629/56/114
f 649/74/115 628/64/116 627/58/117
f 640/85/118 626/84/118 625/61/118
f 646/92/119 633/47/119 644/45/119
f 647/19/120 643/93/21 646/92/21
f 648/94/121 642/17/22 647/19/22
f 645/96/122 641/95/122 648/94/122
f 656/97/123 636/59/123 637/57/123
f 657/1/124 654/98/25 656/97/25
f 658/99/125 653/3/26 657/1/26
f 655/101/126 652/100/126 658/99/126
f 639/60/127 634/220/128 638/62/129
f 649/74/130 635/73/6 650/72/6
f 4/1/1 2/14/1 1/2/1
f 6/4/2 8/19/2 15/5/2
f 13/7/3 21/7/3 24/8/3
f 12/1/1 10/14/1 19/9/1
f 19/9/4 27/9/4 25/10/4
f 11/3/4 9/2/4 5/11/4
f 8/13/3 6/80/3 10/14/3
f 22/6/2 23/5/2 24/8/2
f 25/10/1 27/9/1 28/15/1
f 18/16/1 20/15/1 9/2/1
f 15/5/4 23/5/4 22/6/4
f 13/7/2 16/8/2 7/17/2
f 18/16/3 26/16/3 28/15/3
f 32/1/1 30/14/1 29/2/1
f 34/4/2 36/19/2 35/17/2
f 36/19/5 40/1/5 39/3/5
f 105/20/6 106/25/6 107/23/6
f 104/14/131 55/14/131 56/2/131
f 105/20/6 107/23/6 104/14/6
f 105/20/6 104/14/6 56/2/6
f 51/2/3 103/2/3 105/20/3
f 38/14/6 34/145/6 33/21/6
f 39/3/4 37/2/4 33/11/4
f 36/13/3 34/80/3 38/14/3
f 40/1/3 38/14/3 99/14/3
f 39/3/2 44/3/2 43/2/2
f 100/20/6 101/25/6 102/23/6
f 99/14/131 38/14/131 37/2/131
f 100/20/6 102/23/6 99/14/6
f 100/20/6 99/14/6 37/2/6
f 42/2/3 98/2/3 100/20/3
f 41/3/3 94/3/3 98/2/3
f 44/3/4 46/3/4 45/2/4
f 41/3/5 46/3/5 44/3/5
f 37/2/6 43/2/6 45/2/6
f 42/2/1 45/2/1 46/3/1
f 51/2/1 48/2/1 47/3/1
f 56/2/6 50/2/6 48/2/6
f 52/3/5 47/3/5 49/3/5
f 49/3/4 47/3/4 48/2/4
f 110/22/5 111/24/5 112/26/5
f 109/3/3 52/3/3 54/3/3
f 110/22/5 112/26/5 109/3/5
f 110/22/5 109/3/5 54/3/5
f 53/1/3 108/1/3 110/22/3
f 54/3/2 49/3/2 50/2/2
f 53/1/3 55/14/3 104/14/3
f 57/13/3 59/80/3 55/14/3
f 54/3/4 56/2/4 60/11/4
f 55/14/6 59/145/6 60/21/6
f 52/3/3 109/3/3 103/2/3
f 57/19/5 53/1/5 54/3/5
f 59/4/2 57/19/2 58/17/2
f 62/4/2 64/19/2 63/17/2
f 68/1/1 66/14/1 65/2/1
f 67/3/4 65/2/4 61/11/4
f 64/13/3 62/80/3 66/14/3
f 70/4/2 72/19/2 71/17/2
f 76/1/1 74/14/1 73/2/1
f 75/3/4 73/2/4 69/11/4
f 72/13/3 70/80/3 74/14/3
f 81/13/3 83/80/3 79/14/3
f 78/3/4 80/2/4 84/11/4
f 77/1/1 79/14/1 80/2/1
f 83/4/2 81/19/2 82/17/2
f 89/13/3 91/80/3 87/14/3
f 86/3/4 88/2/4 92/11/4
f 85/1/1 87/14/1 88/2/1
f 91/4/2 89/19/2 90/17/2
f 99/14/7 102/23/7 95/22/7
f 102/23/8 101/25/8 96/24/8
f 101/25/9 100/20/9 97/26/9
f 100/20/10 98/2/10 94/3/10
f 104/14/7 107/23/7 110/22/7
f 107/23/8 106/25/8 111/24/8
f 106/25/9 105/20/9 112/26/9
f 105/20/10 103/2/10 109/3/10
f 95/22/5 96/24/5 97/26/5
f 94/3/3 41/3/3 39/3/3
f 95/22/5 97/26/5 94/3/5
f 95/22/5 94/3/5 39/3/5
f 40/1/3 93/1/3 95/22/3
f 115/3/5 116/1/5 4/19/5
f 113/2/2 114/14/2 116/1/2
f 1/21/6 2/145/6 114/14/6
f 1/11/4 113/2/4 115/3/4
f 114/14/3 2/80/3 4/13/3
f 127/5/1 120/19/1 118/4/1
f 136/8/3 133/7/3 125/7/3
f 131/9/2 122/14/2 124/1/2
f 137/10/4 139/9/4 131/9/4
f 117/11/4 121/2/4 123/3/4
f 122/14/3 118/80/3 120/13/3
f 136/8/1 135/5/1 134/6/1
f 140/15/2 139/9/2 137/10/2
f 121/2/2 132/15/2 130/16/2
f 134/6/4 135/5/4 127/5/4
f 119/17/1 128/8/1 125/7/1
f 140/15/3 138/16/3 130/16/3
f 143/3/5 144/1/5 32/19/5
f 141/2/2 142/14/2 144/1/2
f 29/21/6 30/145/6 142/14/6
f 29/11/4 141/2/4 143/3/4
f 142/14/3 30/80/3 32/13/3
f 147/17/1 148/19/1 146/4/1
f 151/3/5 152/1/5 148/19/5
f 219/23/6 218/25/6 217/20/6
f 215/2/3 163/2/3 168/2/3
f 219/23/6 217/20/6 215/2/6
f 219/23/6 215/2/6 168/2/6
f 167/14/3 216/14/3 219/23/3
f 145/21/6 146/145/6 150/14/6
f 145/11/4 149/2/4 151/3/4
f 150/14/3 146/80/3 148/13/3
f 152/1/3 205/1/3 211/14/3
f 155/2/1 156/3/1 151/3/1
f 214/23/6 213/25/6 212/20/6
f 210/2/3 154/2/3 149/2/3
f 214/23/6 212/20/6 210/2/6
f 214/23/6 210/2/6 149/2/6
f 150/14/3 211/14/3 214/23/3
f 153/3/3 154/2/3 210/2/3
f 157/2/4 158/3/4 156/3/4
f 156/3/5 158/3/5 153/3/5
f 157/2/6 155/2/6 149/2/6
f 158/3/2 157/2/2 154/2/2
f 159/3/2 160/2/2 163/2/2
f 160/2/6 162/2/6 168/2/6
f 161/3/5 159/3/5 164/3/5
f 160/2/4 159/3/4 161/3/4
f 224/26/5 223/24/5 222/22/5
f 220/1/131 165/1/131 166/3/131
f 224/26/5 222/22/5 220/1/5
f 224/26/5 220/1/5 166/3/5
f 164/3/3 221/3/3 224/26/3
f 162/2/1 161/3/1 166/3/1
f 165/1/3 220/1/3 216/14/3
f 167/14/3 171/80/3 169/13/3
f 172/11/4 168/2/4 166/3/4
f 172/21/6 171/145/6 167/14/6
f 164/3/3 163/2/3 215/2/3
f 166/3/5 165/1/5 169/19/5
f 170/17/1 169/19/1 171/4/1
f 175/17/1 176/19/1 174/4/1
f 177/2/2 178/14/2 180/1/2
f 173/11/4 177/2/4 179/3/4
f 178/14/3 174/80/3 176/13/3
f 183/17/1 184/19/1 182/4/1
f 185/2/2 186/14/2 188/1/2
f 181/11/4 185/2/4 187/3/4
f 186/14/3 182/80/3 184/13/3
f 191/14/3 195/80/3 193/13/3
f 196/11/4 192/2/4 190/3/4
f 192/2/2 191/14/2 189/1/2
f 194/17/1 193/19/1 195/4/1
f 199/14/3 203/80/3 201/13/3
f 204/11/4 200/2/4 198/3/4
f 200/2/2 199/14/2 197/1/2
f 202/17/1 201/19/1 203/4/1
f 207/22/11 214/23/11 211/14/11
f 208/24/12 213/25/12 214/23/12
f 209/26/13 212/20/13 213/25/13
f 206/3/14 210/2/14 212/20/14
f 222/22/11 219/23/11 216/14/11
f 223/24/12 218/25/12 219/23/12
f 224/26/13 217/20/13 218/25/13
f 221/3/14 215/2/14 217/20/14
f 209/26/5 208/24/5 207/22/5
f 205/1/131 152/1/131 151/3/131
f 209/26/5 207/22/5 205/1/5
f 209/26/5 205/1/5 151/3/5
f 153/3/3 206/3/3 209/26/3
f 226/4/2 228/19/2 227/17/2
f 228/19/5 232/1/5 231/3/5
f 232/1/1 230/14/1 229/2/1
f 230/14/6 226/145/6 225/21/6
f 231/3/4 229/2/4 225/11/4
f 228/13/3 226/80/3 230/14/3
f 265/29/3 280/76/3 282/27/3
f 282/27/3 283/221/3 284/28/3
f 284/28/3 281/53/3 265/29/3
f 266/32/3 262/57/3 301/30/3
f 301/30/3 302/222/3 303/31/3
f 303/31/3 300/83/3 266/32/3
f 294/35/3 291/72/3 260/33/3
f 260/33/3 255/44/3 292/34/3
f 292/34/3 293/223/3 294/35/3
f 272/38/3 258/39/3 271/36/3
f 271/36/3 273/224/3 274/37/3
f 274/37/3 275/225/3 272/38/3
f 234/4/2 236/19/2 235/17/2
f 236/19/5 240/1/5 239/3/5
f 240/1/1 238/14/1 237/2/1
f 238/14/6 234/145/6 233/21/6
f 239/3/4 237/2/4 233/11/4
f 236/13/3 234/80/3 238/14/3
f 322/41/3 319/69/3 258/39/3
f 258/39/3 272/38/3 320/40/3
f 320/40/3 321/226/3 322/41/3
f 255/44/3 260/33/3 259/42/3
f 259/42/3 315/227/3 316/43/3
f 316/43/3 317/228/3 255/44/3
f 280/45/5 243/48/5 242/46/5
f 243/48/5 244/67/5 241/49/5
f 263/51/3 249/56/3 256/52/3
f 281/53/3 246/71/3 254/54/3
f 250/55/6 251/55/6 252/56/6
f 262/57/1 248/64/1 247/58/1
f 271/60/2 246/84/2 245/61/2
f 265/29/3 254/54/3 250/55/3
f 266/32/3 256/52/3 248/64/3
f 365/122/1 366/81/1 286/14/1
f 286/14/1 390/124/1 391/65/1
f 391/65/1 392/229/1 393/66/1
f 393/66/1 365/122/1 286/14/1
f 244/67/5 300/101/5 295/68/5
f 254/54/3 258/39/3 319/69/3
f 319/70/1 257/220/1 251/55/1
f 246/71/3 271/36/3 258/39/3
f 256/52/3 260/33/3 291/72/3
f 252/56/2 310/108/2 259/73/2
f 249/56/3 259/42/3 260/33/3
f 248/64/1 291/72/1 285/74/1
f 304/4/3 395/130/3 390/75/3
f 280/76/3 265/29/3 264/63/3
f 367/121/2 394/128/2 396/78/2
f 396/78/2 397/230/2 398/79/2
f 398/79/2 395/126/2 304/80/2
f 304/80/2 367/121/2 396/78/2
f 366/81/15 290/2/15 324/2/15
f 244/82/3 263/51/3 266/32/3
f 243/77/3 264/63/3 263/51/3
f 246/84/2 281/96/2 276/85/2
f 272/86/16 275/89/16 268/87/16
f 275/89/17 274/145/17 269/21/17
f 274/4/18 273/91/18 270/90/18
f 273/91/19 271/60/19 267/62/19
f 253/47/20 279/93/20 282/92/20
f 279/93/21 278/17/21 283/19/21
f 278/17/22 277/95/22 284/94/22
f 277/95/23 276/85/23 281/96/23
f 261/59/24 298/98/24 301/97/24
f 298/98/25 297/3/25 302/1/25
f 297/3/26 296/100/26 303/99/26
f 296/100/27 295/68/27 300/101/27
f 309/102/28 289/105/28 292/103/28
f 289/105/29 288/2/29 293/14/29
f 288/2/30 287/107/30 294/106/30
f 287/107/31 285/74/31 291/72/31
f 310/108/19 313/110/19 315/109/19
f 313/110/18 312/112/18 316/111/18
f 312/112/17 311/114/17 317/113/17
f 311/114/16 309/102/16 255/104/16
f 305/88/28 308/116/28 320/115/28
f 308/116/29 307/118/29 321/117/29
f 307/118/30 306/120/30 322/119/30
f 306/120/31 257/220/31 319/70/31
f 335/18/3 361/18/3 363/4/3
f 304/80/32 325/80/32 369/121/32
f 286/18/3 323/18/3 325/4/3
f 337/80/33 363/80/33 378/121/33
f 329/80/34 333/80/34 373/121/34
f 368/81/35 324/2/35 328/2/35
f 325/80/36 329/80/36 371/121/36
f 323/18/3 327/18/3 329/4/3
f 374/81/37 336/2/37 362/2/37
f 329/4/3 327/18/3 331/18/3
f 370/81/38 328/2/38 332/2/38
f 336/50/4 338/50/4 364/50/4
f 372/81/39 332/2/39 336/2/39
f 333/80/40 337/80/40 375/121/40
f 331/18/3 335/18/3 337/4/3
f 339/14/2 377/81/2 376/122/2
f 376/122/2 400/231/2 401/123/2
f 401/123/2 402/232/2 399/124/2
f 399/124/2 339/14/2 376/122/2
f 399/125/3 403/233/3 342/4/3
f 406/78/1 380/128/1 379/121/1
f 379/121/1 342/80/1 403/126/1
f 403/126/1 404/79/1 405/127/1
f 405/127/1 406/78/1 379/121/1
f 377/81/41 381/81/41 346/2/41
f 363/4/3 361/18/3 357/18/3
f 382/121/42 347/80/42 342/80/42
f 347/4/3 345/18/3 339/18/3
f 378/121/33 363/80/33 359/80/33
f 387/121/43 355/80/43 351/80/43
f 381/81/44 383/81/44 350/2/44
f 384/121/45 351/80/45 347/80/45
f 351/4/3 349/18/3 345/18/3
f 388/81/37 386/81/37 362/2/37
f 351/4/3 355/4/3 353/18/3
f 383/81/46 385/81/46 354/2/46
f 362/50/4 364/50/4 360/50/4
f 385/81/47 388/81/47 358/2/47
f 389/121/48 359/80/48 355/80/48
f 359/4/3 357/18/3 353/18/3
f 360/14/48 389/121/48 387/121/48
f 353/14/47 357/14/47 388/81/47
f 349/14/46 353/14/46 385/81/46
f 357/14/37 361/14/37 386/81/37
f 352/14/45 384/121/45 382/121/45
f 345/14/44 349/14/44 383/81/44
f 356/14/43 387/121/43 384/121/43
f 364/14/33 378/121/33 389/121/33
f 348/14/42 382/121/42 379/121/42
f 343/14/1 379/121/1 380/128/1
f 339/14/41 345/14/41 381/81/41
f 340/2/2 341/21/2 376/122/2
f 344/2/49 380/81/49 376/129/49
f 373/121/40 375/121/40 338/14/40
f 331/14/39 372/81/39 374/81/39
f 327/14/38 370/81/38 372/81/38
f 335/14/37 374/81/37 386/81/37
f 369/121/36 371/121/36 330/14/36
f 323/14/35 368/81/35 370/81/35
f 371/121/34 373/121/34 334/14/34
f 375/121/33 378/121/33 364/14/33
f 367/121/32 369/121/32 326/14/32
f 394/128/2 367/121/2 314/14/2
f 286/14/15 366/81/15 368/81/15
f 290/2/1 366/81/1 365/122/1
f 365/129/49 394/81/49 318/2/49
f 395/130/50 398/132/50 391/131/50
f 398/132/51 397/19/51 392/17/51
f 397/14/52 396/134/52 393/133/52
f 396/134/53 394/81/53 365/129/53
f 380/81/53 406/134/53 400/133/53
f 406/134/52 405/14/52 401/1/52
f 405/19/51 404/132/51 402/131/51
f 404/132/50 403/233/50 399/125/50
s 1
f 580/135/5 579/138/54 409/136/54
f 579/138/54 581/139/55 411/13/55
f 581/139/55 582/141/56 413/140/56
f 582/141/56 583/142/1 415/128/1
f 583/142/1 584/144/57 417/143/57
f 584/144/57 585/145/58 419/1/58
f 585/145/58 586/147/59 421/146/59
f 586/147/59 587/122/6 423/129/6
f 587/122/6 588/149/60 425/148/60
f 588/149/60 589/21/61 427/3/61
f 589/21/61 590/151/62 429/150/62
f 590/151/62 591/153/2 431/152/2
f 591/153/2 592/155/63 433/154/63
f 592/155/63 593/158/64 435/12/64
f 422/156/65 420/157/64 601/157/64
f 593/158/64 594/160/65 437/159/65
f 594/160/65 580/234/5 407/161/5
s 0
f 440/135/66 442/139/66 441/13/66
f 442/139/67 444/142/67 443/128/67
f 444/142/68 446/145/68 445/1/68
f 446/145/69 448/122/69 447/129/69
f 448/122/70 450/21/70 449/3/70
f 450/21/71 452/153/71 451/152/71
f 444/164/1 442/199/1 440/195/1
f 440/195/1 454/218/1 452/162/1
f 452/162/1 450/209/1 448/163/1
f 448/163/1 446/204/1 444/164/1
f 444/164/1 440/195/1 452/162/1
f 452/153/72 454/158/72 453/12/72
f 454/158/73 440/234/73 439/161/73
f 453/167/2 439/235/2 441/236/2
f 441/236/2 443/237/2 445/165/2
f 445/165/2 447/238/2 449/166/2
f 449/166/2 451/239/2 453/167/2
f 453/167/2 441/236/2 445/165/2
f 468/168/74 463/176/74 459/169/74
f 469/173/3 458/1/3 456/13/3
f 456/13/3 462/240/3 464/171/3
f 464/171/3 463/241/3 468/172/3
f 468/172/3 470/242/3 469/173/3
f 469/173/3 456/13/3 464/171/3
f 460/174/132 462/243/132 456/19/132
f 458/1/133 469/177/133 465/175/133
f 463/176/77 464/145/77 461/21/77
f 464/4/78 462/243/78 460/174/78
f 466/170/79 467/2/79 470/14/79
f 467/2/134 465/175/134 469/177/134
f 460/180/4 455/12/4 457/3/4
f 457/3/4 465/244/4 467/178/4
f 467/178/135 466/245/135 459/179/135
f 459/179/4 461/246/4 460/180/4
f 460/180/4 457/3/4 467/178/4
f 472/135/54 474/139/54 473/13/54
f 474/139/56 476/142/56 475/128/56
f 476/142/57 478/145/57 477/1/57
f 478/145/59 480/122/59 479/129/59
f 480/122/60 482/21/60 481/3/60
f 482/21/62 484/153/62 483/152/62
f 476/164/3 474/247/3 472/195/3
f 472/195/3 486/248/3 484/162/3
f 484/162/3 482/249/3 480/163/3
f 480/163/3 478/250/3 476/164/3
f 476/164/3 472/195/3 484/162/3
f 484/153/63 486/158/63 485/12/63
f 486/158/65 472/234/65 471/161/65
f 488/4/2 490/19/2 489/17/2
f 495/181/5 496/251/5 494/1/5
f 494/1/1 492/14/1 491/2/1
f 497/182/6 498/252/6 488/145/6
f 493/3/4 491/2/4 497/183/4
f 501/184/81 506/184/81 503/185/81
f 496/186/82 498/188/82 492/14/82
f 495/150/4 497/183/4 487/11/4
f 492/14/6 498/252/6 497/182/6
f 490/19/5 496/251/5 495/181/5
f 490/13/83 500/185/83 499/187/83
f 488/80/83 501/184/83 500/185/83
f 498/188/83 502/189/83 501/184/83
f 496/186/83 499/187/83 502/189/83
f 503/185/83 506/184/83 505/189/83
f 500/185/6 503/185/6 504/187/6
f 502/189/5 505/189/5 506/184/5
f 499/187/85 504/187/85 505/189/85
f 508/4/2 510/19/2 509/17/2
f 509/17/5 510/19/5 514/1/5
f 514/1/1 512/14/1 511/2/1
f 512/14/6 508/145/6 507/21/6
f 513/3/86 511/2/86 507/11/86
f 510/13/82 508/80/82 512/14/82
f 516/135/87 518/139/87 517/13/87
f 518/139/88 520/142/88 519/128/88
f 520/142/89 522/145/89 521/1/89
f 522/145/90 524/122/90 523/129/90
f 524/122/91 526/21/91 525/3/91
f 526/21/92 528/153/92 527/152/92
f 520/164/6 518/247/6 516/195/6
f 516/195/6 530/248/6 528/162/6
f 528/162/6 526/249/6 524/163/6
f 524/163/6 522/250/6 520/164/6
f 520/164/6 516/195/6 528/162/6
f 528/153/93 530/158/93 529/12/93
f 530/158/94 516/234/94 515/161/94
f 529/192/5 515/235/5 517/253/5
f 517/253/5 519/237/5 521/190/5
f 521/190/5 523/238/5 525/191/5
f 525/191/5 527/239/5 529/192/5
f 529/192/5 517/253/5 521/190/5
f 532/135/87 534/139/87 533/13/87
f 534/139/88 536/142/88 535/128/88
f 536/142/89 538/145/89 537/1/89
f 538/145/90 540/122/90 539/129/90
f 540/122/91 542/21/91 541/3/91
f 542/21/92 544/153/92 543/152/92
f 536/164/6 534/247/6 532/195/6
f 532/195/6 546/248/6 544/162/6
f 544/162/6 542/249/6 540/163/6
f 540/163/6 538/250/6 536/164/6
f 536/164/6 532/195/6 544/162/6
f 544/153/93 546/158/93 545/12/93
f 546/158/94 532/234/94 531/161/94
f 545/192/5 531/235/5 533/253/5
f 533/253/5 535/237/5 537/190/5
f 537/190/5 539/238/5 541/191/5
f 541/191/5 543/239/5 545/192/5
f 545/192/5 533/253/5 537/190/5
f 548/4/2 550/19/2 549/17/2
f 550/19/5 554/1/5 553/3/5
f 554/1/1 552/14/1 551/2/1
f 551/2/6 552/14/6 548/145/6
f 553/3/95 551/2/95 547/11/95
f 550/13/83 548/80/83 552/14/83
f 556/4/96 558/19/96 557/17/96
f 558/19/5 562/1/5 561/3/5
f 559/2/6 560/14/6 556/145/6
f 558/13/83 556/80/83 560/14/83
f 564/4/96 566/19/96 565/17/96
f 566/19/5 570/1/5 569/3/5
f 567/2/6 568/14/6 564/145/6
f 566/13/83 564/80/83 568/14/83
f 575/4/97 577/19/97 573/17/97
f 572/19/98 574/1/98 578/3/98
f 573/1/6 577/14/6 578/2/6
f 572/2/1 571/14/1 573/145/1
f 575/3/5 571/2/5 572/11/5
f 577/13/2 575/80/2 576/14/2
s 1
f 408/193/3 410/197/3 579/194/3
f 412/196/3 581/199/3 579/194/3
f 412/196/3 414/201/3 582/198/3
f 416/200/3 583/164/3 582/198/3
f 418/202/3 584/203/3 583/164/3
f 420/157/3 585/204/3 584/203/3
f 422/156/3 586/206/3 585/204/3
f 424/205/3 587/163/3 586/206/3
f 424/205/3 426/208/3 588/207/3
f 426/208/3 428/211/3 589/209/3
f 430/210/3 590/212/3 589/209/3
f 430/210/3 432/213/3 591/162/3
f 432/213/3 434/216/3 592/214/3
f 436/215/3 593/218/3 592/214/3
f 436/215/3 438/219/3 594/217/3
f 408/193/3 580/195/3 594/217/3
f 436/215/58 609/215/58 610/219/59
f 424/205/5 422/156/65 602/156/65
f 408/193/6 596/193/6 595/197/60
f 438/219/59 610/219/59 596/193/6
f 426/208/54 424/205/5 603/205/5
f 410/197/60 595/197/60 597/196/61
f 428/211/55 426/208/54 604/208/54
f 412/196/61 597/196/61 598/201/62
f 430/210/56 428/211/55 605/211/55
f 414/201/62 598/201/62 599/200/2
f 430/210/56 606/210/56 607/213/1
f 416/200/2 599/200/2 600/202/63
f 432/213/1 607/213/1 608/216/57
f 420/157/64 418/202/63 600/202/63
f 434/216/57 608/216/57 609/215/58
s 0
f 263/50/3 619/50/3 618/50/3
f 264/50/3 250/50/3 614/50/3
f 622/46/99 623/48/100 644/45/99
f 622/46/5 621/49/5 624/67/5
f 632/56/136 631/55/137 630/55/138
f 627/58/104 628/64/104 637/57/104
f 625/61/139 626/84/140 639/60/141
f 651/68/109 655/101/109 624/67/108
f 631/55/142 634/220/117 660/70/143
f 635/73/144 659/108/114 632/56/139
f 649/74/145 650/72/146 628/64/147
f 640/85/118 645/96/118 626/84/118
f 646/92/119 643/93/119 633/47/119
f 647/19/21 642/17/21 643/93/148
f 648/94/22 641/95/22 642/17/149
f 645/96/122 640/85/122 641/95/122
f 656/97/123 654/98/123 636/59/123
f 657/1/25 653/3/25 654/98/150
f 658/99/26 652/100/26 653/3/151
f 655/101/126 651/68/126 652/100/126
f 639/60/130 660/70/152 634/220/103
f 649/74/153 659/108/154 635/73/6
