# Blender 4.5.4 LTS
# www.blender.org
mtllib Reverser.mtl
g Reverser_Mesh
v -0.010000 -0.030000 0.020000
v -0.010000 0.890000 0.020000
v -0.010000 -0.030000 -0.020000
v -0.010000 0.890000 -0.020000
v 0.010000 -0.030000 0.020000
v 0.010000 0.890000 0.020000
v 0.010000 -0.030000 -0.020000
v 0.010000 0.890000 -0.020000
v -0.010000 0.920000 0.020000
v -0.010000 0.920000 -0.010000
v 0.010000 0.920000 -0.010000
v 0.010000 0.920000 0.020000
v -0.010000 1.000000 0.020000
v -0.010000 1.000000 -0.010000
v 0.010000 1.000000 -0.010000
v 0.010000 1.000000 0.020000
v -0.020000 0.900000 -0.010000
v 0.020000 0.900000 -0.010000
v -0.020000 0.892929 -0.007071
v 0.020000 0.892929 -0.007071
v -0.020000 0.890000 0.000000
v 0.020000 0.890000 0.000000
v -0.020000 0.892929 0.007071
v 0.020000 0.892929 0.007071
v -0.020000 0.900000 0.010000
v 0.020000 0.900000 0.010000
v -0.020000 0.907071 0.007071
v 0.020000 0.907071 0.007071
v -0.020000 0.910000 0.000000
v 0.020000 0.910000 0.000000
v -0.020000 0.907071 -0.007071
v 0.020000 0.907071 -0.007071
v 0.010000 0.915000 -0.030000
v 0.010000 0.915000 -0.040000
v 0.015000 0.915000 -0.035000
v 0.015000 0.915000 -0.025000
v 0.010000 0.930000 -0.030000
v 0.010000 0.930000 -0.040000
v 0.015000 0.930000 -0.035000
v 0.015000 0.930000 -0.025000
v 0.010000 0.885000 -0.030000
v 0.010000 0.885000 -0.040000
v 0.015000 0.885000 -0.035000
v 0.015000 0.885000 -0.030000
v 0.015000 0.915000 0.015000
v 0.010000 0.915000 0.015000
v 0.015000 0.885000 0.015000
v 0.010000 0.885000 0.015000
v -0.010000 0.915000 -0.030000
v -0.010000 0.915000 -0.040000
v -0.010000 0.930000 -0.030000
v -0.010000 0.930000 -0.040000
v -0.010000 0.885000 -0.030000
v -0.010000 0.885000 -0.040000
v -0.015000 0.915000 -0.025000
v -0.015000 0.915000 -0.035000
v -0.015000 0.930000 -0.025000
v -0.015000 0.930000 -0.035000
v -0.015000 0.885000 -0.030000
v -0.015000 0.885000 -0.035000
v -0.010000 0.915000 0.015000
v -0.015000 0.915000 0.015000
v -0.010000 0.885000 0.015000
v -0.015000 0.885000 0.015000
v 0.010000 0.970000 -0.020000
v 0.010000 0.970000 -0.030000
v 0.015000 0.970000 -0.025000
v 0.015000 0.970000 -0.015000
v -0.010000 0.970000 -0.020000
v -0.010000 0.970000 -0.030000
v -0.015000 0.970000 -0.015000
v -0.015000 0.970000 -0.025000
v 0.015000 1.000000 -0.015000
v 0.015000 1.000000 -0.025000
v 0.010000 1.000000 -0.030000
v 0.010000 1.000000 -0.020000
v -0.010000 1.000000 -0.020000
v -0.010000 1.000000 -0.030000
v -0.015000 1.000000 -0.015000
v -0.015000 1.000000 -0.025000
v 0.000000 0.885000 -0.035000
v 0.000000 0.885000 -0.045000
v 0.000000 0.930000 -0.035000
v 0.000000 0.915000 -0.035000
v 0.000000 0.930000 -0.045000
v 0.000000 0.915000 -0.045000
v 0.000000 0.970000 -0.025000
v 0.000000 0.970000 -0.035000
v 0.000000 1.000000 -0.035000
v 0.000000 1.000000 -0.025000
v -0.020000 0.900000 -0.040000
v 0.020000 0.900000 -0.040000
v -0.020000 0.892929 -0.037071
v 0.020000 0.892929 -0.037071
v -0.020000 0.890000 -0.030000
v 0.020000 0.890000 -0.030000
v -0.020000 0.892929 -0.022929
v 0.020000 0.892929 -0.022929
v -0.020000 0.900000 -0.020000
v 0.020000 0.900000 -0.020000
v -0.020000 0.907071 -0.022929
v 0.020000 0.907071 -0.022929
v -0.020000 0.910000 -0.030000
v 0.020000 0.910000 -0.030000
v -0.020000 0.907071 -0.037071
v 0.020000 0.907071 -0.037071
v -0.010000 0.280000 -0.025000
v -0.010000 0.280000 -0.035000
v 0.010000 0.280000 -0.035000
v 0.010000 0.280000 -0.025000
v -0.010000 0.900000 -0.025000
v -0.010000 0.900000 -0.035000
v 0.010000 0.900000 -0.035000
v 0.010000 0.900000 -0.025000
v -0.025000 0.260000 -0.025000
v -0.025000 0.260000 -0.035000
v 0.025000 0.260000 -0.035000
v 0.025000 0.260000 -0.025000
v -0.025000 0.230000 -0.025000
v -0.025000 0.230000 -0.035000
v 0.025000 0.230000 -0.035000
v 0.025000 0.230000 -0.025000
v -0.010000 1.005000 0.010000
v -0.010000 1.005000 0.000000
v 0.010000 1.005000 0.000000
v 0.010000 1.005000 0.010000
v 0.016200 0.915000 -0.030000
v 0.016200 0.930000 -0.030000
v 0.012000 0.885000 -0.035000
v 0.016200 0.885000 -0.032500
v -0.012000 0.885000 -0.035000
v -0.016200 0.915000 -0.030000
v -0.016200 0.930000 -0.030000
v -0.016200 0.885000 -0.032500
v 0.016200 0.970000 -0.020000
v -0.016200 0.970000 -0.020000
v -0.016200 1.000000 -0.020000
v -0.012000 1.000000 -0.025000
v 0.016200 1.000000 -0.020000
v 0.012000 1.000000 -0.025000
v 0.000000 1.000000 -0.030000
v 0.000000 0.885000 -0.040000
vn -0.0000 -0.0000 -1.0000
vn 1.0000 -0.0000 -0.0000
vn -0.0000 -0.0000 1.0000
vn -0.0000 -1.0000 -0.0000
vn -0.0000 0.3162 -0.9487
vn -1.0000 -0.0000 -0.0000
vn -0.0000 0.8944 0.4472
vn -0.0000 -0.3827 -0.9239
vn -0.0000 -0.9239 -0.3827
vn -0.0000 -0.9239 0.3827
vn -0.0000 -0.3827 0.9239
vn -0.0000 0.3827 0.9239
vn -0.0000 0.9239 0.3827
vn -0.0000 0.9239 -0.3827
vn -0.0000 0.3827 -0.9239
vn 0.9724 -0.0000 -0.2334
vn -0.6963 0.1741 -0.6963
vn 0.4472 -0.0000 0.8944
vn -0.7071 -0.0000 0.7071
vn 0.7071 -0.0000 -0.7071
vn 0.9009 -0.0360 0.4324
vn -0.0000 1.0000 -0.0000
vn 0.9707 0.0582 -0.2330
vn -0.4472 -0.0000 -0.8944
vn -0.9724 -0.0000 0.2334
vn -0.9722 0.0194 -0.2333
vn 0.7071 -0.0000 0.7071
vn -0.7071 -0.0000 -0.7071
vn -0.9707 -0.0582 0.2330
vn -0.6963 -0.1741 0.6963
vn 0.6963 -0.1741 0.6963
vn -0.4364 0.2182 -0.8729
vn 0.6963 0.1741 -0.6963
vn -0.4364 -0.2182 0.8729
vn -0.4472 -0.0000 0.8944
vn 0.4364 -0.2182 0.8729
vn 0.4364 0.2182 -0.8729
vn 0.4472 -0.0000 -0.8944
vn 0.8000 0.6000 -0.0000
vn -0.8000 0.6000 -0.0000
vn -0.0000 0.8944 -0.4472
vn -0.9724 -0.0000 -0.2334
vn 0.9724 -0.0000 0.2334
vn -0.9707 0.0582 -0.2330
vn -0.9717 -0.0389 0.2332
vn 0.9707 -0.0582 0.2330
vn 0.9015 -0.0000 -0.4327
vn 0.9717 -0.0389 0.2332
vn -0.9015 -0.0000 -0.4327
vn -0.9009 -0.0360 0.4324
vn 0.9722 0.0194 -0.2333
vt 0.625000 0.250000
vt 0.375000 0.500000
vt 0.375000 0.250000
vt 0.625000 0.666667
vt 0.375000 0.750000
vt 0.375000 0.666667
vt 0.625000 0.750000
vt 0.375000 1.000000
vt 0.125000 0.750000
vt 0.125000 0.666667
vt 0.625000 0.500000
vt 0.625000 0.583333
vt 0.625000 0.000000
vt 0.625000 0.083333
vt 0.625000 1.000000
vt 0.875000 0.666667
vt 1.000000 1.000000
vt 0.875000 0.500000
vt 1.000000 0.500000
vt 0.875000 1.000000
vt 0.750000 0.500000
vt 0.750000 1.000000
vt 0.500000 0.500000
vt 0.500000 1.000000
vt 0.250000 0.500000
vt 0.010000 0.250000
vt 0.250000 0.010000
vt 0.490000 0.250000
vt 0.250000 1.000000
vt 0.125000 0.500000
vt 0.125000 1.000000
vt 0.000000 0.500000
vt 0.919706 0.080294
vt 0.580294 0.080294
vt 0.580294 0.419706
vt 0.625000 0.625000
vt 0.000000 0.000000
vt 0.625000 0.125000
vt 0.875000 0.625000
vt 0.312500 0.125000
vt 0.312500 0.250000
vt 0.625000 0.166667
vt 0.875000 0.583333
vt 0.375000 0.083333
vt 0.375000 0.000000
vt 0.875000 0.750000
vt 0.419706 0.419706
vt 0.250000 0.490000
vt 0.080294 0.419706
vt 0.080294 0.080294
vt 0.419706 0.080294
vt 0.000000 1.000000
vt 0.750000 0.490000
vt 0.919706 0.419706
vt 0.990000 0.250000
vt 0.750000 0.010000
vt 0.510000 0.250000
s 0
f 4/1/1 7/2/1 3/3/1
f 8/4/2 5/5/2 7/6/2
f 6/7/3 1/8/3 5/5/3
f 7/6/4 1/9/4 3/10/4
f 4/1/5 11/11/5 8/11/5
f 11/11/2 15/11/2 125/12/2
f 2/13/6 10/14/6 4/14/6
f 6/7/3 9/15/3 2/15/3
f 123/16/7 16/7/7 126/4/7
f 10/14/6 13/13/6 123/14/6
f 12/7/3 13/15/3 9/15/3
f 10/1/1 15/11/1 11/11/1
f 18/17/8 19/18/8 17/19/8
f 20/20/9 21/21/9 19/18/9
f 22/22/10 23/11/10 21/21/10
f 24/15/11 25/23/11 23/11/11
f 26/24/12 27/2/12 25/23/12
f 28/8/13 29/25/13 27/2/13
f 30/26/2 26/27/2 22/28/2
f 30/29/14 31/30/14 29/25/14
f 32/31/15 17/32/15 31/30/15
f 23/33/6 27/34/6 31/35/6
f 35/11/16 128/36/16 127/36/16
f 58/1/17 70/1/17 52/1/17
f 83/15/18 49/15/18 84/15/18
f 36/7/19 37/15/19 33/15/19
f 34/1/20 39/11/20 35/11/20
f 35/11/20 42/1/20 34/1/20
f 127/36/21 44/7/21 130/36/21
f 81/37/4 131/37/4 142/37/4
f 41/13/6 46/13/6 33/13/6
f 46/15/3 47/7/3 45/7/3
f 44/37/4 48/37/4 41/37/4
f 36/7/2 47/7/2 44/7/2
f 36/7/22 46/15/22 45/7/22
f 131/37/4 59/37/4 134/37/4
f 49/13/2 63/13/2 53/13/2
f 84/13/18 53/13/18 81/13/18
f 128/36/23 67/11/23 135/36/23
f 86/1/24 52/1/24 85/1/24
f 82/1/24 50/1/24 86/1/24
f 55/13/25 133/38/25 132/38/25
f 56/1/26 134/38/26 132/38/26
f 51/15/27 55/15/27 49/15/27
f 54/1/28 56/1/28 50/1/28
f 50/1/28 58/1/28 52/1/28
f 57/13/29 136/38/29 133/38/29
f 61/13/3 64/13/3 63/13/3
f 55/15/22 61/15/22 49/15/22
f 55/13/6 64/13/6 62/13/6
f 53/37/4 64/37/4 59/37/4
f 70/1/24 89/1/24 88/1/24
f 69/15/27 79/15/27 71/15/27
f 66/1/20 74/11/20 67/11/20
f 40/7/30 65/15/30 37/15/30
f 57/15/31 69/15/31 71/15/31
f 52/1/32 88/1/32 85/1/32
f 39/11/33 66/1/33 67/11/33
f 37/15/34 87/15/34 83/15/34
f 140/36/22 74/11/22 75/1/22
f 138/39/22 80/18/22 137/39/22
f 141/39/22 78/18/22 138/39/22
f 68/7/19 76/15/19 65/15/19
f 67/11/16 139/36/16 135/36/16
f 72/1/28 78/1/28 70/1/28
f 71/13/25 137/38/25 136/38/25
f 65/15/35 90/15/35 87/15/35
f 87/15/18 77/15/18 69/15/18
f 75/18/22 141/39/22 140/39/22
f 51/15/36 87/15/36 69/15/36
f 38/1/37 88/1/37 66/1/37
f 88/1/38 75/1/38 66/1/38
f 42/1/38 86/1/38 34/1/38
f 34/1/38 85/1/38 38/1/38
f 33/13/35 81/13/35 41/13/35
f 129/37/4 81/37/4 142/37/4
f 37/15/35 84/15/35 33/15/35
f 129/40/4 43/11/4 130/41/4
f 92/17/8 93/18/8 91/19/8
f 94/20/9 95/21/9 93/18/9
f 96/22/10 97/11/10 95/21/10
f 98/15/11 99/23/11 97/11/11
f 100/24/12 101/2/12 99/23/12
f 102/8/13 103/25/13 101/2/13
f 104/26/2 100/27/2 96/28/2
f 104/29/14 105/30/14 103/25/14
f 106/31/15 91/32/15 105/30/15
f 97/33/6 101/34/6 105/35/6
f 109/11/2 114/7/2 110/7/2
f 107/13/6 112/1/6 108/1/6
f 110/7/3 111/15/3 107/15/3
f 108/1/1 113/11/1 109/11/1
f 110/7/39 117/11/39 109/11/39
f 108/1/40 115/13/40 107/13/40
f 107/15/3 118/7/3 110/7/3
f 109/11/1 116/1/1 108/1/1
f 118/7/2 121/11/2 117/11/2
f 116/1/6 119/13/6 115/13/6
f 115/15/3 122/7/3 118/7/3
f 117/11/1 120/1/1 116/1/1
f 120/1/4 122/7/4 119/15/4
f 10/42/6 124/42/6 14/1/6
f 10/14/6 123/14/6 124/42/6
f 14/18/41 125/12/41 15/11/41
f 124/43/22 126/4/22 125/12/22
f 6/7/2 11/4/2 12/7/2
f 11/4/2 16/7/2 12/7/2
f 11/12/2 125/12/2 126/4/2
f 2/13/6 3/44/6 1/45/6
f 129/40/4 44/37/4 41/37/4
f 42/37/4 142/37/4 82/37/4
f 140/39/22 90/46/22 76/46/22
f 136/38/42 80/1/42 72/1/42
f 135/36/43 73/7/43 68/7/43
f 90/46/22 138/39/22 77/46/22
f 77/46/22 137/39/22 79/46/22
f 76/15/22 139/36/22 140/36/22
f 133/38/44 72/1/44 58/1/44
f 132/38/45 59/13/45 55/13/45
f 132/38/42 58/1/42 56/1/42
f 40/7/46 135/36/46 68/7/46
f 131/37/4 60/37/4 54/37/4
f 142/37/4 54/37/4 82/37/4
f 35/11/47 130/36/47 43/11/47
f 127/36/43 40/7/43 36/7/43
f 4/1/1 8/11/1 7/2/1
f 8/4/2 6/7/2 5/5/2
f 6/7/3 2/15/3 1/8/3
f 7/6/4 5/5/4 1/9/4
f 4/1/5 10/1/5 11/11/5
f 2/13/6 9/13/6 10/14/6
f 6/7/3 12/7/3 9/15/3
f 123/16/7 13/46/7 16/7/7
f 10/14/6 9/13/6 13/13/6
f 12/7/3 16/7/3 13/15/3
f 10/1/1 14/1/1 15/11/1
f 18/17/8 20/20/8 19/18/8
f 20/20/9 22/22/9 21/21/9
f 22/22/10 24/15/10 23/11/10
f 24/15/11 26/24/11 25/23/11
f 26/24/12 28/8/12 27/2/12
f 28/8/13 30/29/13 29/25/13
f 22/28/2 20/47/2 18/48/2
f 18/48/2 32/49/2 30/26/2
f 30/26/2 28/50/2 26/27/2
f 26/27/2 24/51/2 22/28/2
f 22/28/2 18/48/2 30/26/2
f 30/29/14 32/31/14 31/30/14
f 32/31/15 18/52/15 17/32/15
f 31/35/6 17/53/6 19/54/6
f 19/54/6 21/55/6 23/33/6
f 23/33/6 25/56/6 27/34/6
f 27/34/6 29/57/6 31/35/6
f 31/35/6 19/54/6 23/33/6
f 35/11/16 39/11/16 128/36/16
f 58/1/17 72/1/17 70/1/17
f 83/15/18 51/15/18 49/15/18
f 36/7/19 40/7/19 37/15/19
f 34/1/20 38/1/20 39/11/20
f 35/11/20 43/11/20 42/1/20
f 127/36/48 36/7/48 44/7/48
f 81/37/4 53/37/4 131/37/4
f 41/13/6 48/13/6 46/13/6
f 46/15/3 48/15/3 47/7/3
f 44/37/4 47/37/4 48/37/4
f 36/7/2 45/7/2 47/7/2
f 36/7/22 33/15/22 46/15/22
f 131/37/4 53/37/4 59/37/4
f 49/13/2 61/13/2 63/13/2
f 84/13/18 49/13/18 53/13/18
f 128/36/23 39/11/23 67/11/23
f 86/1/24 50/1/24 52/1/24
f 82/1/24 54/1/24 50/1/24
f 55/13/25 57/13/25 133/38/25
f 56/1/49 60/1/49 134/38/49
f 51/15/27 57/15/27 55/15/27
f 54/1/28 60/1/28 56/1/28
f 50/1/28 56/1/28 58/1/28
f 57/13/29 71/13/29 136/38/29
f 61/13/3 62/13/3 64/13/3
f 55/15/22 62/15/22 61/15/22
f 55/13/6 59/13/6 64/13/6
f 53/37/4 63/37/4 64/37/4
f 70/1/24 78/1/24 89/1/24
f 69/15/27 77/15/27 79/15/27
f 66/1/20 75/1/20 74/11/20
f 40/7/30 68/7/30 65/15/30
f 57/15/31 51/15/31 69/15/31
f 52/1/32 70/1/32 88/1/32
f 39/11/33 38/1/33 66/1/33
f 37/15/34 65/15/34 87/15/34
f 140/36/22 139/36/22 74/11/22
f 138/39/22 78/18/22 80/18/22
f 141/39/22 89/18/22 78/18/22
f 68/7/19 73/7/19 76/15/19
f 67/11/16 74/11/16 139/36/16
f 72/1/28 80/1/28 78/1/28
f 71/13/25 79/13/25 137/38/25
f 65/15/35 76/15/35 90/15/35
f 87/15/18 90/15/18 77/15/18
f 75/18/22 89/18/22 141/39/22
f 51/15/36 83/15/36 87/15/36
f 38/1/37 85/1/37 88/1/37
f 88/1/38 89/1/38 75/1/38
f 42/1/38 82/1/38 86/1/38
f 34/1/38 86/1/38 85/1/38
f 33/13/35 84/13/35 81/13/35
f 129/37/4 41/37/4 81/37/4
f 37/15/35 83/15/35 84/15/35
f 129/40/4 42/1/4 43/11/4
f 92/17/8 94/20/8 93/18/8
f 94/20/9 96/22/9 95/21/9
f 96/22/10 98/15/10 97/11/10
f 98/15/11 100/24/11 99/23/11
f 100/24/12 102/8/12 101/2/12
f 102/8/13 104/29/13 103/25/13
f 96/28/2 94/47/2 92/48/2
f 92/48/2 106/49/2 104/26/2
f 104/26/2 102/50/2 100/27/2
f 100/27/2 98/51/2 96/28/2
f 96/28/2 92/48/2 104/26/2
f 104/29/14 106/31/14 105/30/14
f 106/31/15 92/52/15 91/32/15
f 105/35/6 91/53/6 93/54/6
f 93/54/6 95/55/6 97/33/6
f 97/33/6 99/56/6 101/34/6
f 101/34/6 103/57/6 105/35/6
f 105/35/6 93/54/6 97/33/6
f 109/11/2 113/11/2 114/7/2
f 107/13/6 111/13/6 112/1/6
f 110/7/3 114/7/3 111/15/3
f 108/1/1 112/1/1 113/11/1
f 110/7/39 118/7/39 117/11/39
f 108/1/40 116/1/40 115/13/40
f 107/15/3 115/15/3 118/7/3
f 109/11/1 117/11/1 116/1/1
f 118/7/2 122/7/2 121/11/2
f 116/1/6 120/1/6 119/13/6
f 115/15/3 119/15/3 122/7/3
f 117/11/1 121/11/1 120/1/1
f 120/1/4 121/11/4 122/7/4
f 14/18/41 124/43/41 125/12/41
f 124/43/22 123/16/22 126/4/22
f 6/7/2 8/4/2 11/4/2
f 11/4/2 126/4/2 16/7/2
f 2/13/6 4/14/6 3/44/6
f 129/40/4 130/41/4 44/37/4
f 42/37/4 129/37/4 142/37/4
f 140/39/22 141/39/22 90/46/22
f 136/38/42 137/38/42 80/1/42
f 135/36/43 139/36/43 73/7/43
f 90/46/22 141/39/22 138/39/22
f 77/46/22 138/39/22 137/39/22
f 76/15/22 73/7/22 139/36/22
f 133/38/44 136/38/44 72/1/44
f 132/38/50 134/38/50 59/13/50
f 132/38/42 133/38/42 58/1/42
f 40/7/46 128/36/46 135/36/46
f 131/37/4 134/37/4 60/37/4
f 142/37/4 131/37/4 54/37/4
f 35/11/51 127/36/51 130/36/51
f 127/36/43 128/36/43 40/7/43
