# Blender 4.5.0
# www.blender.org
mtllib TenderFuel.mtl
g TenderFuel_Mesh
v 0.250000 1.330345 0.981818
v 0.250000 1.221035 1.286364
v 0.250000 1.087622 1.590909
v 0.250000 0.924801 1.895455
v 0.250000 0.609880 2.200000
v 0.000000 0.541560 2.200000
v -0.250000 0.525521 2.200000
v -0.351496 1.654843 -1.312938
v 0.048010 1.659437 -1.343236
v 0.358233 1.692639 -1.331957
v 0.250000 0.312100 2.600000
v 0.000000 0.236746 2.600000
v -0.250000 0.215623 2.600000
v 0.250000 0.427853 2.400000
v 0.000000 0.437995 2.400000
v -0.250000 0.388620 2.400000
v 0.750000 0.557281 2.200000
v 0.750000 0.330256 2.600000
v 0.750000 0.463209 2.400000
v -0.750000 0.233433 2.600000
v -0.750000 0.400955 2.200000
v -0.750000 0.290152 2.400000
v 0.500000 0.498188 2.400000
v -0.500000 0.506094 2.400000
v -1.000000 0.223386 2.400000
v 1.000000 0.321960 2.400000
v 1.000000 0.274541 2.200000
v 1.000000 0.248293 2.600000
v -1.000000 0.318653 2.200000
v -1.000000 0.220696 2.600000
v -0.500000 0.312384 2.600000
v 0.500000 0.335726 2.600000
v 0.628309 1.664930 -1.265073
v -0.840279 1.662601 -1.311330
v 0.500000 0.753922 2.200000
v -0.500000 0.597938 2.200000
v 0.250000 1.407289 0.530589
v 0.250000 1.537102 0.372657
v 0.250000 1.515169 0.070058
v 0.250701 1.558011 -0.237222
v 0.423390 1.726945 -0.590038
v 0.333618 1.754122 -0.975807
v 0.000000 0.875448 1.895455
v 0.000000 1.059201 1.590909
v 0.000000 1.265667 1.285553
v 0.000000 1.417625 0.981818
v 0.000000 1.452644 0.567083
v 0.000000 1.440509 0.342209
v 0.000000 1.519847 0.267822
v 0.000000 1.559240 -0.236364
v 0.000521 1.733001 -0.560986
v -0.083655 1.802722 -0.962852
v -0.250000 0.814129 1.895455
v -0.250000 0.972683 1.590909
v -0.250000 1.222450 1.112293
v -0.250000 1.378239 0.981818
v -0.250000 1.423909 0.676714
v -0.250000 1.397324 0.347165
v -0.250000 1.489827 0.294343
v -0.250000 1.560464 -0.236364
v -0.317625 1.689228 -0.543514
v -0.495180 1.772815 -1.051538
v 0.500000 0.921905 1.895455
v 0.500000 1.047739 1.590909
v 0.500000 1.224634 1.286364
v 0.500000 1.310980 1.097565
v 0.500000 1.366241 0.677273
v 0.500000 1.515851 0.372727
v 0.500000 1.501688 0.068182
v 0.502280 1.550534 -0.239156
v 0.572099 1.678580 -0.595234
v 0.600701 1.679050 -0.968784
v -0.659205 1.671371 -0.863208
v -0.523502 1.664849 -0.540909
v -0.500000 1.525976 -0.236364
v -0.500000 1.398282 0.069008
v -0.500000 1.295641 0.372727
v -0.500000 1.259948 0.677273
v -0.500000 1.368283 0.981818
v -0.500000 1.080976 1.107852
v -0.500000 0.969502 1.590909
v -0.500000 0.767836 1.895455
vn -0.0924 0.8281 0.5530
vn 0.1116 0.8782 0.4650
vn 0.0029 0.8923 0.4514
vn -0.1017 0.6854 0.7211
vn -0.2480 0.6734 0.6965
vn 0.0949 0.7987 0.5943
vn -0.0758 0.8168 0.5719
vn -0.1014 0.7790 0.6188
vn -0.1006 0.8119 0.5750
vn -0.0135 0.7482 0.6633
vn 0.1018 0.7716 0.6280
vn -0.1493 0.7118 0.6863
vn -0.0897 0.8226 0.5615
vn -0.0459 0.8120 0.5818
vn 0.1319 0.9894 -0.0614
vn -0.0116 0.9545 -0.2979
vn 0.0053 0.9974 -0.0712
vn -0.0009 0.9203 -0.3912
vn -0.1603 0.9845 -0.0710
vn -0.1851 0.9688 -0.1651
vn -0.3044 0.9337 0.1888
vn 0.4857 0.7199 0.4958
vn 0.3455 0.8363 0.4257
vn -0.0796 0.7878 0.6107
vn -0.3765 0.8391 0.3926
vn -0.2282 0.9506 0.2103
vn -0.1373 0.8178 0.5589
vn -0.4656 0.7803 0.4175
vn 0.6028 0.7979 0.0008
vn -0.1877 0.9445 0.2695
vn -0.0509 0.9986 0.0134
vn 0.2105 0.8404 0.4995
vn 0.4406 0.8902 0.1163
vn -0.2539 0.8613 0.4401
vn 0.0990 0.7526 0.6510
vn 0.1949 0.9755 -0.1022
vn 0.0151 0.9855 -0.1691
vn 0.0178 0.9028 0.4296
vn 0.0367 0.9131 0.4061
vn -0.0278 0.9576 0.2867
vn 0.1304 0.9620 0.2399
vn -0.0042 0.9678 0.2517
vn 0.0104 0.9395 0.3425
vn 0.0182 0.9682 0.2494
vn -0.0815 0.9363 0.3416
vn 0.0455 0.9980 0.0439
vn 0.0489 0.9975 0.0507
vn 0.0254 0.9526 0.3030
vn 0.0634 0.9502 0.3052
vn 0.1662 0.9594 0.2277
vn 0.2755 0.9613 -0.0060
vn -0.0599 0.8614 0.5044
vn -0.1139 0.8101 0.5752
vn -0.1564 0.8448 0.5117
vn -0.0411 0.9298 0.3658
vn -0.1926 0.8793 0.4356
vn -0.3209 0.7194 0.6160
vn -0.3153 0.7205 0.6176
vn -0.2576 0.8509 0.4579
vn -0.2654 0.9641 -0.0027
vn -0.5464 0.8329 -0.0876
vn -0.4101 0.9015 0.1386
vn -0.3617 0.8614 0.3566
vn -0.3862 0.8819 0.2705
vn -0.1152 0.9437 0.3102
vn -0.1215 0.9098 0.3968
vn -0.1275 0.9465 0.2963
vn -0.1116 0.9671 0.2284
vn -0.1841 0.7697 0.6113
vn -0.1100 0.8756 0.4703
vn 0.0525 0.9490 0.3110
vn -0.0859 0.8656 0.4934
vn 0.0413 0.9990 0.0196
vn -0.1506 0.8791 0.4521
vn -0.3570 0.7523 0.5537
vn -0.0934 0.9267 0.3641
vn -0.0155 0.9540 0.2994
vn -0.1743 0.8469 0.5024
vn 0.0135 0.9572 0.2890
vn 0.0104 0.9012 0.4332
vn 0.2940 0.8969 0.3304
vn 0.3096 0.9314 0.1912
vt 0.614960 0.505647
vt 0.722769 0.647699
vt 0.613450 0.655529
vt 0.730184 0.353296
vt 0.608920 0.317652
vt 0.385475 0.299090
vt 0.495547 0.207230
vt 0.495777 0.302585
vt 0.602059 0.203300
vt 0.715133 0.211609
vt 0.388757 0.194174
vt 0.492987 0.085273
vt 0.596282 0.104363
vt 0.694713 0.103220
vt 0.696134 1.826593
vt 0.585829 1.999143
vt 0.515602 1.830080
vt 0.415261 2.000569
vt 0.343379 1.881916
vt 0.204655 2.015414
vt 0.256295 1.805377
vt 0.847687 0.265365
vt 0.819805 0.173596
vt 0.285448 0.102531
vt 0.156085 0.144143
vt 0.187837 0.059255
vt 0.275170 0.220356
vt 0.129577 0.241264
vt 0.981695 0.164672
vt 0.055936 0.094975
vt 0.091120 0.015414
vt 0.789182 0.073391
vt 0.921417 0.099677
vt 0.024768 0.186799
vt 0.391526 0.078912
vt 0.833098 1.947710
vt 0.717602 1.982094
vt 0.722732 0.799633
vt 0.614575 0.800215
vt 0.724384 0.889518
vt 0.617110 0.942460
vt 0.728896 1.073490
vt 0.622453 1.142626
vt 0.737107 1.221598
vt 0.629886 1.230392
vt 0.636360 1.360216
vt 0.744636 1.354890
vt 0.641989 1.493587
vt 0.751670 1.489212
vt 0.724076 1.658961
vt 0.816010 1.818592
vt 0.269212 0.315420
vt 0.390765 0.479785
vt 0.279642 0.470536
vt 0.281624 0.624735
vt 0.390118 0.629932
vt 0.264912 0.833433
vt 0.384835 0.865288
vt 0.287545 0.961176
vt 0.400364 1.089010
vt 0.270500 1.095935
vt 0.283986 1.225295
vt 0.401186 1.232519
vt 0.299206 1.363330
vt 0.422259 1.504600
vt 0.311741 1.506646
vt 0.399589 1.651758
vt 0.309939 1.655543
vt 0.503509 0.495243
vt 0.505496 0.809114
vt 0.502964 0.954224
vt 0.394434 0.954308
vt 0.511288 1.133251
vt 0.515252 1.230507
vt 0.418039 1.274857
vt 0.524621 1.278807
vt 0.540437 1.655288
vt 0.504076 0.649551
vt 0.532048 1.498122
vt 0.723757 0.506053
vt 0.883615 0.015414
vt 0.791088 1.653993
s 1
f 4/1/1 64/2/2 3/3/3
f 35/4/4 4/1/1 5/5/5
f 7/6/6 15/7/7 6/8/8
f 6/8/8 14/9/9 5/5/5
f 5/5/5 23/10/10 35/4/4
f 16/11/11 12/12/12 15/7/7
f 15/7/7 11/13/13 14/9/9
f 14/9/9 32/14/14 23/10/10
f 42/15/15 9/16/16 52/17/17
f 52/17/17 8/18/18 62/19/19
f 62/19/19 34/20/20 73/21/21
f 23/10/10 17/22/22 35/4/4
f 32/14/14 19/23/23 23/10/10
f 31/24/24 22/25/25 20/26/26
f 24/27/27 21/28/28 22/25/25
f 19/23/23 27/29/29 17/22/22
f 20/26/26 25/30/30 30/31/31
f 7/6/6 24/27/27 16/11/11
f 18/32/32 26/33/33 19/23/23
f 22/25/25 29/34/34 25/30/30
f 16/11/11 31/24/24 13/35/35
f 42/15/15 33/36/36 10/37/37
f 3/3/3 65/38/38 2/39/39
f 2/39/39 66/40/40 1/41/41
f 1/41/41 67/42/42 37/43/43
f 37/43/43 68/44/44 38/45/45
f 68/44/44 39/46/46 38/45/45
f 69/47/47 40/48/48 39/46/46
f 70/49/49 41/50/50 40/48/48
f 41/50/50 72/51/51 42/15/15
f 36/52/52 53/53/53 82/54/54
f 53/53/53 81/55/55 82/54/54
f 54/56/56 80/57/57 81/55/55
f 55/58/58 79/59/59 80/57/57
f 79/59/59 57/60/60 78/61/61
f 57/60/60 77/62/62 78/61/61
f 58/63/63 76/64/64 77/62/62
f 76/64/64 60/65/65 75/66/66
f 75/66/66 61/67/67 74/68/68
f 61/67/67 73/21/21 74/68/68
f 6/8/8 53/53/53 7/6/6
f 43/69/69 54/56/56 53/53/53
f 54/56/56 45/70/70 55/58/58
f 55/58/58 46/71/71 56/72/72
f 46/71/71 57/60/60 56/72/72
f 47/73/73 58/63/63 57/60/60
f 48/74/74 59/75/75 58/63/63
f 49/76/76 60/65/65 59/75/75
f 60/65/65 51/77/77 61/67/67
f 61/67/67 52/17/17 62/19/19
f 5/5/5 43/69/69 6/8/8
f 4/1/1 44/78/78 43/69/69
f 44/78/78 2/39/39 45/70/70
f 45/70/70 1/41/41 46/71/71
f 1/41/41 47/73/73 46/71/71
f 37/43/43 48/74/74 47/73/73
f 38/45/45 49/76/76 48/74/74
f 39/46/46 50/79/79 49/76/76
f 40/48/48 51/77/77 50/79/79
f 51/77/77 42/15/15 52/17/17
f 4/1/1 63/80/80 64/2/2
f 35/4/4 63/80/80 4/1/1
f 7/6/6 16/11/11 15/7/7
f 6/8/8 15/7/7 14/9/9
f 5/5/5 14/9/9 23/10/10
f 16/11/11 13/35/35 12/12/12
f 15/7/7 12/12/12 11/13/13
f 14/9/9 11/13/13 32/14/14
f 42/15/15 10/37/37 9/16/16
f 52/17/17 9/16/16 8/18/18
f 62/19/19 8/18/18 34/20/20
f 23/10/10 19/23/23 17/22/22
f 32/14/14 18/32/32 19/23/23
f 31/24/24 24/27/27 22/25/25
f 24/27/27 36/52/52 21/28/28
f 19/23/23 26/33/33 27/29/29
f 20/26/26 22/25/25 25/30/30
f 7/6/6 36/52/52 24/27/27
f 18/32/32 28/81/81 26/33/33
f 22/25/25 21/28/28 29/34/34
f 16/11/11 24/27/27 31/24/24
f 42/15/15 72/51/51 33/36/36
f 3/3/3 64/2/2 65/38/38
f 2/39/39 65/38/38 66/40/40
f 1/41/41 66/40/40 67/42/42
f 37/43/43 67/42/42 68/44/44
f 68/44/44 69/47/47 39/46/46
f 69/47/47 70/49/49 40/48/48
f 70/49/49 71/82/82 41/50/50
f 41/50/50 71/82/82 72/51/51
f 36/52/52 7/6/6 53/53/53
f 53/53/53 54/56/56 81/55/55
f 54/56/56 55/58/58 80/57/57
f 55/58/58 56/72/72 79/59/59
f 79/59/59 56/72/72 57/60/60
f 57/60/60 58/63/63 77/62/62
f 58/63/63 59/75/75 76/64/64
f 76/64/64 59/75/75 60/65/65
f 75/66/66 60/65/65 61/67/67
f 61/67/67 62/19/19 73/21/21
f 6/8/8 43/69/69 53/53/53
f 43/69/69 44/78/78 54/56/56
f 54/56/56 44/78/78 45/70/70
f 55/58/58 45/70/70 46/71/71
f 46/71/71 47/73/73 57/60/60
f 47/73/73 48/74/74 58/63/63
f 48/74/74 49/76/76 59/75/75
f 49/76/76 50/79/79 60/65/65
f 60/65/65 50/79/79 51/77/77
f 61/67/67 51/77/77 52/17/17
f 5/5/5 4/1/1 43/69/69
f 4/1/1 3/3/3 44/78/78
f 44/78/78 3/3/3 2/39/39
f 45/70/70 2/39/39 1/41/41
f 1/41/41 37/43/43 47/73/73
f 37/43/43 38/45/45 48/74/74
f 38/45/45 39/46/46 49/76/76
f 39/46/46 40/48/48 50/79/79
f 40/48/48 41/50/50 51/77/77
f 51/77/77 41/50/50 42/15/15
