# Blender 4.4.3
# www.blender.org
mtllib TenderWater.mtl
g TenderWater_Mesh
v -0.600000 0.000000 2.250000
v 0.900198 0.000000 -2.400481
v 0.300000 0.000000 -1.250000
v 0.300000 0.000000 -2.400000
v 0.000000 0.000000 -1.250000
v 0.900000 0.000000 2.250000
v -0.900198 0.000000 -2.400481
v 0.300000 0.000000 -2.016667
v 0.300000 0.000000 -1.633333
v -0.300000 0.000000 -2.400000
v -0.300000 0.000000 -1.250000
v -0.900000 0.000000 2.250000
v -0.000000 0.000000 -2.400000
v 0.600000 0.000000 2.250000
v -0.600000 0.000000 -1.250000
v 0.600000 0.000000 -1.250000
v 0.900000 0.000000 -1.250000
v -0.900000 0.000000 -1.250000
v 0.600000 0.000000 -2.400000
v -0.600000 0.000000 -2.400000
v 0.000000 0.000000 -1.633333
v 0.000000 0.000000 -2.016667
v -0.600000 0.000000 -1.633333
v -0.600000 0.000000 -2.016667
v 0.900132 0.000000 -2.016988
v 0.900066 0.000000 -1.633494
v 0.600000 0.000000 -2.016667
v 0.600000 0.000000 -1.633333
v -0.900066 0.000000 -1.633494
v -0.900132 0.000000 -2.016988
v -0.300000 0.000000 -1.633333
v -0.300000 0.000000 -2.016667
v -0.600000 0.000000 -0.900000
v -0.900000 0.000000 -0.900000
v 0.600000 0.000000 -0.900000
v 0.900000 0.000000 -0.900000
vn -0.0000 1.0000 -0.0000
vt 0.064552 0.677349
vt 0.000043 0.752610
vt 0.000043 0.677349
vt 0.387099 0.752610
vt 0.322590 0.677349
vt 0.387099 0.677349
vt 0.322590 0.835039
vt 0.387113 0.835073
vt 0.064552 0.835039
vt 0.000028 0.835073
vt 0.258080 0.752610
vt 0.258080 0.835039
vt 0.129062 0.752610
vt 0.193571 0.835039
vt 0.129061 0.835039
vt 0.193571 0.752610
vt 0.064552 0.752610
vt 0.064552 0.917468
vt 0.129061 0.999896
vt 0.064552 0.999896
vt 0.129061 0.917468
vt 0.193571 0.917468
vt 0.258080 0.999896
vt 0.193571 0.999896
vt 0.258080 0.917468
vt 0.322590 0.999896
vt 0.322590 0.917468
vt 0.000014 0.917537
vt -0.000000 1.000000
vt 0.387128 0.917537
vt 0.387142 1.000000
vt 0.000043 0.000000
vt 0.064552 0.000000
vt 0.322590 -0.000000
vt 0.387099 -0.000000
vt 0.322590 0.752610
s 1
f 33/1/1 18/2/1 34/3/1
f 17/4/1 35/5/1 36/6/1
f 28/7/1 17/4/1 26/8/1
f 18/2/1 23/9/1 29/10/1
f 3/11/1 28/7/1 9/12/1
f 11/13/1 21/14/1 31/15/1
f 5/16/1 9/12/1 21/14/1
f 15/17/1 31/15/1 23/9/1
f 24/18/1 10/19/1 20/20/1
f 23/9/1 32/21/1 24/18/1
f 22/22/1 4/23/1 13/24/1
f 21/14/1 8/25/1 22/22/1
f 32/21/1 13/24/1 10/19/1
f 31/15/1 22/22/1 32/21/1
f 8/25/1 19/26/1 4/23/1
f 9/12/1 27/27/1 8/25/1
f 30/28/1 20/20/1 7/29/1
f 29/10/1 24/18/1 30/28/1
f 19/26/1 25/30/1 2/31/1
f 27/27/1 26/8/1 25/30/1
f 33/1/1 12/32/1 1/33/1
f 36/6/1 14/34/1 6/35/1
f 33/1/1 15/17/1 18/2/1
f 17/4/1 16/36/1 35/5/1
f 28/7/1 16/36/1 17/4/1
f 18/2/1 15/17/1 23/9/1
f 3/11/1 16/36/1 28/7/1
f 11/13/1 5/16/1 21/14/1
f 5/16/1 3/11/1 9/12/1
f 15/17/1 11/13/1 31/15/1
f 24/18/1 32/21/1 10/19/1
f 23/9/1 31/15/1 32/21/1
f 22/22/1 8/25/1 4/23/1
f 21/14/1 9/12/1 8/25/1
f 32/21/1 22/22/1 13/24/1
f 31/15/1 21/14/1 22/22/1
f 8/25/1 27/27/1 19/26/1
f 9/12/1 28/7/1 27/27/1
f 30/28/1 24/18/1 20/20/1
f 29/10/1 23/9/1 24/18/1
f 19/26/1 27/27/1 25/30/1
f 27/27/1 28/7/1 26/8/1
f 33/1/1 34/3/1 12/32/1
f 36/6/1 35/5/1 14/34/1
