# Blender 4.4.3
# www.blender.org
mtllib TenderHatch.mtl
g TenderHatch_Mesh
v 0.000000 -0.000000 0.000000
v 0.114805 -0.000000 0.022837
v 0.212132 -0.000000 0.087868
v 0.277164 -0.000000 0.185195
v 0.300000 -0.000000 0.300000
v 0.277164 -0.000000 0.414806
v 0.212132 -0.000000 0.512132
v 0.114805 -0.000000 0.577164
v 0.000000 -0.000000 0.600001
v -0.114805 -0.000000 0.577164
v -0.212132 -0.000000 0.512132
v -0.277164 -0.000000 0.414806
v -0.300000 -0.000000 0.300000
v -0.277164 -0.000000 0.185195
v -0.212132 -0.000000 0.087868
v -0.114805 -0.000000 0.022837
v 0.114805 0.020000 0.022837
v 0.000000 0.020000 0.000000
v 0.212132 0.020000 0.087868
v 0.277164 0.020000 0.185195
v 0.300000 0.020000 0.300000
v 0.277164 0.020000 0.414806
v 0.212132 0.020000 0.512132
v 0.114805 0.020000 0.577164
v 0.000000 0.020000 0.600001
v -0.114805 0.020000 0.577164
v -0.212132 0.020000 0.512132
v -0.277164 0.020000 0.414806
v -0.300000 0.020000 0.300000
v -0.277164 0.020000 0.185195
v -0.212132 0.020000 0.087868
v -0.114805 0.020000 0.022837
v 0.110000 0.020000 0.275000
v 0.110000 0.050000 0.275000
v 0.127678 0.020000 0.282322
v 0.127678 0.050000 0.282322
v 0.135000 0.020000 0.300000
v 0.135000 0.050000 0.300000
v 0.127678 0.020000 0.317679
v 0.127678 0.050000 0.317679
v 0.110000 0.020000 0.325001
v 0.110000 0.050000 0.325001
v 0.092322 0.020000 0.317679
v 0.092322 0.050000 0.317679
v 0.085000 0.020000 0.300000
v 0.085000 0.050000 0.300000
v 0.092322 0.020000 0.282322
v 0.092322 0.050000 0.282322
v 0.107716 0.061480 0.275000
v 0.124048 0.068245 0.282322
v 0.130813 0.071047 0.300000
v 0.124048 0.068245 0.317679
v 0.107716 0.061480 0.325001
v 0.091384 0.054716 0.317679
v 0.084619 0.051913 0.300000
v 0.091384 0.054716 0.282322
v 0.101213 0.071213 0.275000
v 0.113713 0.083713 0.282322
v 0.118891 0.088891 0.300000
v 0.113713 0.083713 0.317679
v 0.101213 0.071213 0.325001
v 0.088713 0.058713 0.317679
v 0.083536 0.053536 0.300000
v 0.088713 0.058713 0.282322
v 0.091480 0.077716 0.275000
v 0.098246 0.094048 0.282322
v 0.101048 0.100813 0.300000
v 0.098246 0.094048 0.317679
v 0.091480 0.077716 0.325001
v 0.084716 0.061384 0.317679
v 0.081913 0.054620 0.300000
v 0.084716 0.061384 0.282322
v 0.080000 0.080000 0.275000
v 0.080000 0.105000 0.300000
v 0.080000 0.080000 0.325001
v 0.080000 0.062322 0.282322
v 0.080000 0.055000 0.300000
v -0.110000 0.020000 0.275000
v -0.110000 0.050000 0.275000
v -0.127677 0.020000 0.282322
v -0.127677 0.050000 0.282322
v -0.135000 0.020000 0.300000
v -0.135000 0.050000 0.300000
v -0.127677 0.020000 0.317679
v -0.127677 0.050000 0.317679
v -0.110000 0.020000 0.325001
v -0.110000 0.050000 0.325001
v -0.092322 0.020000 0.317679
v -0.092322 0.050000 0.317679
v -0.085000 0.020000 0.300000
v -0.085000 0.050000 0.300000
v -0.092322 0.020000 0.282322
v -0.092322 0.050000 0.282322
v -0.107716 0.061480 0.275000
v -0.124048 0.068245 0.282322
v -0.130813 0.071047 0.300000
v -0.124048 0.068245 0.317679
v -0.107716 0.061480 0.325001
v -0.091384 0.054716 0.317679
v -0.084619 0.051913 0.300000
v -0.091384 0.054716 0.282322
v -0.101213 0.071213 0.275000
v -0.113713 0.083713 0.282322
v -0.118891 0.088891 0.300000
v -0.113713 0.083713 0.317679
v -0.101213 0.071213 0.325001
v -0.088713 0.058713 0.317679
v -0.083535 0.053536 0.300000
v -0.088713 0.058713 0.282322
v -0.091480 0.077716 0.275000
v -0.098245 0.094048 0.282322
v -0.101048 0.100813 0.300000
v -0.098245 0.094048 0.317679
v -0.091480 0.077716 0.325001
v -0.084716 0.061384 0.317679
v -0.081913 0.054620 0.300000
v -0.084716 0.061384 0.282322
v -0.080000 0.080000 0.275000
v -0.080000 0.097677 0.282322
v -0.080000 0.105000 0.300000
v -0.080000 0.097677 0.317679
v -0.080000 0.080000 0.325001
v -0.080000 0.062322 0.317679
v -0.080000 0.055000 0.300000
v -0.080000 0.062322 0.282322
v 0.080000 0.097678 0.282322
v 0.080000 0.097678 0.317679
v 0.080000 0.062323 0.317679
vn -0.0000 -1.0000 -0.0000
vn -0.0000 1.0000 -0.0000
vn 0.3827 -0.0000 -0.9239
vn 0.7071 -0.0000 -0.7071
vn -0.3827 -0.0000 0.9239
vn -0.7071 -0.0000 0.7071
vn 0.9239 -0.0000 -0.3827
vn -0.9239 -0.0000 0.3827
vn 1.0000 -0.0000 -0.0000
vn -1.0000 -0.0000 -0.0000
vn 0.9239 -0.0000 0.3827
vn -0.9239 -0.0000 -0.3827
vn 0.7071 -0.0000 0.7071
vn -0.7071 -0.0000 -0.7071
vn 0.3827 -0.0000 0.9239
vn -0.3827 -0.0000 -0.9239
vn -0.0000 -0.0000 1.0000
vn -0.0000 -0.0000 -1.0000
vn 0.9087 0.1807 -0.3764
vn 0.3235 0.2162 0.9212
vn -0.3816 -0.0759 0.9212
vn -0.3816 -0.0759 -0.9212
vn 0.3816 0.0759 -0.9212
vn 0.9087 0.1807 0.3764
vn -0.9087 -0.1807 0.3764
vn 0.3816 0.0759 0.9212
vn -0.9087 -0.1807 -0.3764
vn -0.2161 -0.3235 -0.9212
vn 0.7703 0.5147 -0.3764
vn -0.7703 -0.5147 -0.3764
vn -0.3235 -0.2161 0.9212
vn 0.7703 0.5147 0.3764
vn 0.3235 0.2161 -0.9212
vn -0.3235 -0.2161 -0.9212
vn -0.7703 -0.5147 0.3764
vn -0.0759 -0.3816 0.9212
vn -0.5147 -0.7703 0.3764
vn 0.2161 0.3235 0.9212
vn 0.5147 0.7703 -0.3764
vn -0.5147 -0.7703 -0.3764
vn -0.2162 -0.3235 0.9212
vn 0.5147 0.7703 0.3764
vn 0.2161 0.3235 -0.9212
vn 0.1808 0.9087 0.3764
vn 0.0759 0.3816 -0.9212
vn -0.0759 -0.3816 -0.9212
vn -0.1808 -0.9087 0.3764
vn 0.0759 0.3816 0.9212
vn 0.1807 0.9087 -0.3764
vn -0.1807 -0.9087 -0.3764
vn -0.9087 0.1807 -0.3764
vn -0.3235 0.2161 0.9212
vn 0.3816 -0.0759 0.9212
vn 0.3816 -0.0759 -0.9212
vn -0.3816 0.0759 -0.9212
vn -0.9087 0.1807 0.3764
vn 0.9087 -0.1807 0.3764
vn -0.3816 0.0759 0.9212
vn 0.9087 -0.1807 -0.3764
vn 0.2162 -0.3235 -0.9212
vn -0.7703 0.5147 -0.3764
vn 0.7703 -0.5147 -0.3764
vn 0.3235 -0.2161 0.9212
vn -0.7703 0.5147 0.3764
vn -0.3235 0.2161 -0.9212
vn 0.3235 -0.2161 -0.9212
vn 0.7703 -0.5147 0.3764
vn 0.0759 -0.3816 0.9212
vn 0.5147 -0.7703 0.3764
vn -0.2161 0.3235 0.9212
vn -0.5147 0.7703 -0.3764
vn 0.5147 -0.7703 -0.3764
vn 0.2162 -0.3235 0.9212
vn -0.5147 0.7703 0.3764
vn -0.2161 0.3235 -0.9212
vn -0.0000 -0.9239 -0.3827
vn -0.1807 0.9087 0.3764
vn -0.0759 0.3816 -0.9212
vn 0.0759 -0.3816 -0.9212
vn 0.1807 -0.9087 0.3764
vn -0.0759 0.3816 0.9212
vn -0.1807 0.9087 -0.3764
vn 0.1807 -0.9087 -0.3764
vn -0.0000 -0.3827 0.9239
vn -0.0000 0.9239 0.3827
vn -0.0000 0.3827 -0.9239
vn -0.0000 -0.3827 -0.9239
vn -0.0000 -0.9239 0.3827
vn -0.0000 0.3827 0.9239
vn -0.0000 0.9239 -0.3827
vn 0.3235 0.2161 0.9212
vn -0.2162 -0.3235 -0.9212
vn -0.2161 -0.3235 0.9212
vn 0.1807 0.9087 0.3764
vn 0.1808 0.9087 -0.3764
vn -0.1808 -0.9087 -0.3764
vn -0.3235 0.2162 0.9212
vn 0.2161 -0.3235 -0.9212
vn 0.2161 -0.3235 0.9212
vt 0.250000 0.010000
vt 0.010000 0.250000
vt 0.250000 0.490000
vt 0.080294 0.080294
vt 0.419706 0.080294
vt 0.419706 0.419706
vt 0.341844 0.471731
vt 0.158156 0.028269
vt 0.471731 0.341844
vt 0.028269 0.158156
vt 0.490000 0.250000
vt 0.471731 0.158156
vt 0.028269 0.341844
vt 0.080294 0.419706
vt 0.341844 0.028269
vt 0.158156 0.471731
vt 1.000000 1.000000
vt 0.875000 0.500000
vt 1.000000 0.500000
vt 0.875000 1.000000
vt 0.750000 0.500000
vt 0.750000 1.000000
vt 0.625000 0.500000
vt 0.625000 1.000000
vt 0.500000 0.500000
vt 0.500000 1.000000
vt 0.375000 0.500000
vt 0.375000 1.000000
vt 0.250000 0.500000
vt 0.250000 1.000000
vt 0.125000 0.500000
vt 0.125000 1.000000
vt 0.000000 0.500000
vt 0.000000 1.000000
s 1
f 9/1/1 13/2/1 1/3/1
f 27/4/2 23/5/2 19/6/2
f 2/7/3 19/6/4 3/6/4
f 10/8/5 27/4/6 11/4/6
f 3/6/4 20/9/7 4/9/7
f 11/4/6 28/10/8 12/10/8
f 4/9/7 21/11/9 5/11/9
f 12/10/8 29/2/10 13/2/10
f 5/11/9 22/12/11 6/12/11
f 13/2/10 30/13/12 14/13/12
f 6/12/11 23/5/13 7/5/13
f 14/13/12 31/14/14 15/14/14
f 7/5/13 24/15/15 8/15/15
f 15/14/14 32/16/16 16/16/16
f 8/15/15 25/1/17 9/1/17
f 1/3/18 17/7/3 2/7/3
f 16/16/16 18/3/18 1/3/18
f 9/1/17 26/8/5 10/8/5
s 0
f 34/17/3 35/18/3 33/19/3
f 36/20/7 37/21/7 35/18/7
f 38/22/11 39/23/11 37/21/11
f 40/24/15 41/25/15 39/23/15
f 42/26/5 43/27/5 41/25/5
f 44/28/8 45/29/8 43/27/8
f 38/22/19 50/20/19 51/22/19
f 46/30/12 47/31/12 45/29/12
f 48/32/16 33/33/16 47/31/16
f 53/26/20 60/24/20 61/26/20
f 42/26/21 54/28/21 44/28/21
f 34/34/22 56/32/22 49/34/22
f 36/20/23 49/17/23 50/20/23
f 38/22/24 52/24/24 40/24/24
f 44/28/25 55/30/25 46/30/25
f 40/24/26 53/26/26 42/26/26
f 48/32/27 55/30/27 56/32/27
f 57/34/28 72/32/28 65/34/28
f 50/20/29 59/22/29 51/22/29
f 55/30/30 64/32/30 56/32/30
f 54/28/31 61/26/31 62/28/31
f 51/22/32 60/24/32 52/24/32
f 49/17/33 58/20/33 50/20/33
f 56/32/34 57/34/34 49/34/34
f 55/30/35 62/28/35 63/30/35
f 69/26/36 128/28/36 70/28/36
f 63/30/37 70/28/37 71/30/37
f 61/26/38 68/24/38 69/26/38
f 59/22/39 66/20/39 67/22/39
f 63/30/40 72/32/40 64/32/40
f 61/26/41 70/28/41 62/28/41
f 59/22/42 68/24/42 60/24/42
f 57/17/43 66/20/43 58/20/43
f 68/24/44 74/22/44 127/24/44
f 66/20/45 73/17/45 126/20/45
f 65/34/46 76/32/46 73/34/46
f 70/28/47 77/30/47 71/30/47
f 68/24/48 75/26/48 69/26/48
f 66/20/49 74/22/49 67/22/49
f 72/32/50 77/30/50 76/32/50
f 80/18/16 79/17/16 78/19/16
f 82/21/12 81/20/12 80/18/12
f 84/23/8 83/22/8 82/21/8
f 86/25/5 85/24/5 84/23/5
f 88/27/15 87/26/15 86/25/15
f 90/29/11 89/28/11 88/27/11
f 83/22/51 95/20/51 81/20/51
f 92/31/7 91/30/7 90/29/7
f 78/33/3 93/32/3 92/31/3
f 98/26/52 105/24/52 97/24/52
f 99/28/53 87/26/53 89/28/53
f 79/34/54 101/32/54 93/32/54
f 81/20/55 94/17/55 79/17/55
f 97/24/56 83/22/56 85/24/56
f 100/30/57 89/28/57 91/30/57
f 98/26/58 85/24/58 87/26/58
f 93/32/59 100/30/59 91/30/59
f 102/34/60 117/32/60 109/32/60
f 104/22/61 95/20/61 96/22/61
f 109/32/62 100/30/62 101/32/62
f 99/28/63 106/26/63 98/26/63
f 97/24/64 104/22/64 96/22/64
f 103/20/65 94/17/65 95/20/65
f 102/34/66 101/32/66 94/34/66
f 100/30/67 107/28/67 99/28/67
f 123/28/68 114/26/68 115/28/68
f 108/30/69 115/28/69 107/28/69
f 106/26/70 113/24/70 105/24/70
f 104/22/71 111/20/71 103/20/71
f 117/32/72 108/30/72 109/32/72
f 115/28/73 106/26/73 107/28/73
f 113/24/74 104/22/74 105/24/74
f 111/20/75 102/17/75 103/20/75
f 76/32/76 124/30/76 125/32/76
f 121/24/77 112/22/77 113/24/77
f 119/20/78 110/17/78 111/20/78
f 110/34/79 125/32/79 117/32/79
f 116/30/80 123/28/80 115/28/80
f 114/26/81 121/24/81 113/24/81
f 112/22/82 119/20/82 111/20/82
f 125/32/83 116/30/83 117/32/83
f 128/28/84 122/26/84 123/28/84
f 127/24/85 120/22/85 121/24/85
f 126/20/86 118/17/86 119/20/86
f 73/34/87 125/32/87 118/34/87
f 124/30/88 128/28/88 123/28/88
f 122/26/89 127/24/89 121/24/89
f 120/22/90 126/20/90 119/20/90
s 1
f 1/3/1 2/7/1 3/6/1
f 3/6/1 4/9/1 5/11/1
f 5/11/1 6/12/1 7/5/1
f 7/5/1 8/15/1 9/1/1
f 9/1/1 10/8/1 11/4/1
f 11/4/1 12/10/1 13/2/1
f 13/2/1 14/13/1 15/14/1
f 15/14/1 16/16/1 1/3/1
f 1/3/1 3/6/1 5/11/1
f 5/11/1 7/5/1 9/1/1
f 9/1/1 11/4/1 13/2/1
f 13/2/1 15/14/1 1/3/1
f 1/3/1 5/11/1 9/1/1
f 19/6/2 17/7/2 18/3/2
f 18/3/2 32/16/2 31/14/2
f 31/14/2 30/13/2 29/2/2
f 29/2/2 28/10/2 27/4/2
f 27/4/2 26/8/2 25/1/2
f 25/1/2 24/15/2 23/5/2
f 23/5/2 22/12/2 21/11/2
f 21/11/2 20/9/2 19/6/2
f 19/6/2 18/3/2 31/14/2
f 31/14/2 29/2/2 27/4/2
f 27/4/2 25/1/2 23/5/2
f 23/5/2 21/11/2 19/6/2
f 19/6/2 31/14/2 27/4/2
f 2/7/3 17/7/3 19/6/4
f 10/8/5 26/8/5 27/4/6
f 3/6/4 19/6/4 20/9/7
f 11/4/6 27/4/6 28/10/8
f 4/9/7 20/9/7 21/11/9
f 12/10/8 28/10/8 29/2/10
f 5/11/9 21/11/9 22/12/11
f 13/2/10 29/2/10 30/13/12
f 6/12/11 22/12/11 23/5/13
f 14/13/12 30/13/12 31/14/14
f 7/5/13 23/5/13 24/15/15
f 15/14/14 31/14/14 32/16/16
f 8/15/15 24/15/15 25/1/17
f 1/3/18 18/3/18 17/7/3
f 16/16/16 32/16/16 18/3/18
f 9/1/17 25/1/17 26/8/5
s 0
f 34/17/3 36/20/3 35/18/3
f 36/20/7 38/22/7 37/21/7
f 38/22/11 40/24/11 39/23/11
f 40/24/15 42/26/15 41/25/15
f 42/26/5 44/28/5 43/27/5
f 44/28/8 46/30/8 45/29/8
f 38/22/19 36/20/19 50/20/19
f 46/30/12 48/32/12 47/31/12
f 48/32/16 34/34/16 33/33/16
f 53/26/91 52/24/91 60/24/91
f 42/26/21 53/26/21 54/28/21
f 34/34/22 48/32/22 56/32/22
f 36/20/23 34/17/23 49/17/23
f 38/22/24 51/22/24 52/24/24
f 44/28/25 54/28/25 55/30/25
f 40/24/26 52/24/26 53/26/26
f 48/32/27 46/30/27 55/30/27
f 57/34/92 64/32/92 72/32/92
f 50/20/29 58/20/29 59/22/29
f 55/30/30 63/30/30 64/32/30
f 54/28/31 53/26/31 61/26/31
f 51/22/32 59/22/32 60/24/32
f 49/17/33 57/17/33 58/20/33
f 56/32/34 64/32/34 57/34/34
f 55/30/35 54/28/35 62/28/35
f 69/26/36 75/26/36 128/28/36
f 63/30/37 62/28/37 70/28/37
f 61/26/38 60/24/38 68/24/38
f 59/22/39 58/20/39 66/20/39
f 63/30/40 71/30/40 72/32/40
f 61/26/93 69/26/93 70/28/93
f 59/22/42 67/22/42 68/24/42
f 57/17/43 65/17/43 66/20/43
f 68/24/94 67/22/94 74/22/94
f 66/20/45 65/17/45 73/17/45
f 65/34/46 72/32/46 76/32/46
f 70/28/47 128/28/47 77/30/47
f 68/24/48 127/24/48 75/26/48
f 66/20/95 126/20/95 74/22/95
f 72/32/96 71/30/96 77/30/96
f 80/18/16 81/20/16 79/17/16
f 82/21/12 83/22/12 81/20/12
f 84/23/8 85/24/8 83/22/8
f 86/25/5 87/26/5 85/24/5
f 88/27/15 89/28/15 87/26/15
f 90/29/11 91/30/11 89/28/11
f 83/22/51 96/22/51 95/20/51
f 92/31/7 93/32/7 91/30/7
f 78/33/3 79/34/3 93/32/3
f 98/26/97 106/26/97 105/24/97
f 99/28/53 98/26/53 87/26/53
f 79/34/54 94/34/54 101/32/54
f 81/20/55 95/20/55 94/17/55
f 97/24/56 96/22/56 83/22/56
f 100/30/57 99/28/57 89/28/57
f 98/26/58 97/24/58 85/24/58
f 93/32/59 101/32/59 100/30/59
f 102/34/98 110/34/98 117/32/98
f 104/22/61 103/20/61 95/20/61
f 109/32/62 108/30/62 100/30/62
f 99/28/63 107/28/63 106/26/63
f 97/24/64 105/24/64 104/22/64
f 103/20/65 102/17/65 94/17/65
f 102/34/66 109/32/66 101/32/66
f 100/30/67 108/30/67 107/28/67
f 123/28/68 122/26/68 114/26/68
f 108/30/69 116/30/69 115/28/69
f 106/26/70 114/26/70 113/24/70
f 104/22/71 112/22/71 111/20/71
f 117/32/72 116/30/72 108/30/72
f 115/28/99 114/26/99 106/26/99
f 113/24/74 112/22/74 104/22/74
f 111/20/75 110/17/75 102/17/75
f 76/32/76 77/30/76 124/30/76
f 121/24/77 120/22/77 112/22/77
f 119/20/78 118/17/78 110/17/78
f 110/34/79 118/34/79 125/32/79
f 116/30/80 124/30/80 123/28/80
f 114/26/81 122/26/81 121/24/81
f 112/22/82 120/22/82 119/20/82
f 125/32/83 124/30/83 116/30/83
f 128/28/84 75/26/84 122/26/84
f 127/24/85 74/22/85 120/22/85
f 126/20/86 73/17/86 118/17/86
f 73/34/87 76/32/87 125/32/87
f 124/30/88 77/30/88 128/28/88
f 122/26/89 75/26/89 127/24/89
f 120/22/90 74/22/90 126/20/90
