# Blender 4.5.4 LTS
# www.blender.org
mtllib TenderCollision.mtl
g TenderCollision_Mesh
v -1.200000 0.000000 3.900000
v -1.200000 1.650000 3.900000
v -1.200000 0.000000 -3.200000
v -1.200000 1.650000 -3.200000
v 1.200000 0.000000 3.900000
v 1.200000 1.650000 3.900000
v 1.200000 0.000000 -3.200000
v 1.200000 1.650000 -3.200000
v -1.000000 1.650000 -1.150000
v -1.000000 3.000000 -1.150000
v 1.000000 1.650000 -1.150000
v 1.000000 3.000000 -1.150000
v 0.500000 1.650000 -2.500000
v -0.500000 1.650000 -2.500000
v -0.500000 3.000000 -2.500000
v 0.500000 3.000000 -2.500000
v -0.500000 1.650000 -1.150000
v 0.500000 1.650000 -1.150000
v 0.500000 3.000000 -1.150000
v -0.500000 3.000000 -1.150000
v -1.000000 1.650000 -2.250000
v -0.750000 1.650000 -2.500000
v -0.926777 1.650000 -2.426777
v -0.750000 3.000000 -2.500000
v -1.000000 3.000000 -2.250000
v -0.926777 3.000000 -2.426777
v 0.750000 1.650000 -2.500000
v 1.000000 1.650000 -2.250000
v 0.926777 1.650000 -2.426777
v 1.000000 3.000000 -2.250000
v 0.750000 3.000000 -2.500000
v 0.926777 3.000000 -2.426777
v -1.000000 1.650000 2.250000
v -0.926777 1.650000 2.426777
v -1.000000 3.000000 2.250000
v -0.926777 3.000000 2.426777
v 1.000000 3.000000 2.250000
v 0.926777 3.000000 2.426777
v 1.000000 1.650000 2.250000
v 0.926777 1.650000 2.426777
v 0.750000 1.650000 2.500000
v 0.500000 1.650000 2.250000
v 0.573223 1.650000 2.426777
v -0.750000 3.000000 2.500000
v -0.500000 3.000000 2.250000
v -0.573223 3.000000 2.426777
v -0.500000 1.650000 2.250000
v -0.750000 1.650000 2.500000
v -0.573223 1.650000 2.426777
v 0.500000 3.000000 2.250000
v 0.750000 3.000000 2.500000
v 0.573223 3.000000 2.426777
vn -1.0000 -0.0000 -0.0000
vn -0.0000 -0.0000 -1.0000
vn 1.0000 -0.0000 -0.0000
vn -0.0000 -0.0000 1.0000
vn -0.0000 -1.0000 -0.0000
vn -0.0000 1.0000 -0.0000
vn -0.3827 -0.0000 -0.9239
vn -0.9239 -0.0000 -0.3827
vn 0.9239 -0.0000 -0.3827
vn 0.3827 -0.0000 -0.9239
vn -0.3827 -0.0000 0.9239
vn -0.9239 -0.0000 0.3827
vn 0.3827 -0.0000 0.9239
vn 0.9239 -0.0000 0.3827
vt 0.625000 0.000000
vt 0.375000 0.250000
vt 0.375000 0.000000
vt 0.625000 0.250000
vt 0.375000 0.500000
vt 0.625000 0.500000
vt 0.375000 0.750000
vt 0.625000 0.750000
vt 0.375000 1.000000
vt 0.125000 0.750000
vt 0.125000 0.500000
vt 0.875000 0.500000
vt 0.791667 0.500000
vt 0.708333 0.750000
vt 0.708333 0.500000
vt 0.291667 0.500000
vt 0.208333 0.750000
vt 0.208333 0.500000
vt 0.625000 0.833333
vt 0.375000 0.916667
vt 0.375000 0.833333
vt 0.625000 0.333333
vt 0.375000 0.416667
vt 0.375000 0.333333
vt 0.375000 0.291667
vt 0.625000 0.250000
vt 0.625000 0.291667
vt 0.625000 0.203704
vt 0.375000 0.546296
vt 0.631830 0.507589
vt 0.625000 0.546296
vt 0.368170 0.507589
vt 0.646846 0.480179
vt 0.625000 0.958333
vt 0.375000 0.958333
vt 0.338592 0.755259
vt 0.634469 0.750000
vt 0.661408 0.755259
vt 0.365531 0.750000
vt 0.625000 0.750000
vt 0.375000 0.833333
vt 0.625000 0.833333
vt 0.625000 0.833333
vt 0.625000 0.791667
vt 0.625000 0.916667
vt 0.625000 0.958333
vt 0.137204 0.513560
vt 0.375000 0.203704
vt 0.833333 0.500000
vt 0.875000 0.546296
vt 0.791667 0.750000
vt 0.353154 0.480179
vt 0.291667 0.750000
vt 0.625000 0.416667
vt 0.625000 0.000000
vt 0.196129 0.750000
vt 0.137204 0.750000
vt 0.875000 0.750000
vt 0.862796 0.750000
vt 0.803871 0.750000
vt 0.696129 0.750000
vt 0.375000 0.750000
vt 0.303871 0.750000
vt 0.625000 1.000000
vt 0.375000 0.791667
vt 0.125000 0.546296
vt 0.166667 0.500000
vt 0.862796 0.513560
vt 0.166667 0.750000
vt 0.833333 0.750000
vt 0.291667 0.750000
vt 0.333333 0.750000
s 0
f 2/1/1 3/2/1 1/3/1
f 4/4/2 7/5/2 3/2/2
f 8/6/3 5/7/3 7/5/3
f 6/8/4 1/9/4 5/7/4
f 7/5/5 1/10/5 3/11/5
f 4/12/6 6/8/6 8/6/6
f 15/13/6 19/14/6 16/15/6
f 13/16/5 17/17/5 14/18/5
f 19/19/4 17/20/4 18/21/4
f 15/22/2 13/23/2 14/24/2
f 22/25/7 26/26/7 24/27/7
f 23/2/8 25/28/8 26/26/8
f 28/29/9 32/30/9 30/31/9
f 29/32/10 31/33/10 32/30/10
f 44/34/11 34/9/11 48/35/11
f 36/1/12 33/3/12 34/3/12
f 41/36/13 38/37/13 51/38/13
f 40/39/14 37/40/14 38/37/14
f 42/41/12 52/42/12 50/43/12
f 43/41/11 51/44/11 52/42/11
f 48/35/13 46/45/13 44/46/13
f 49/20/14 45/45/14 46/45/14
f 23/47/5 14/18/5 9/10/5
f 10/1/1 21/48/1 9/3/1
f 24/27/2 14/24/2 22/25/2
f 24/49/6 25/50/6 20/51/6
f 30/31/3 11/7/3 28/29/3
f 27/52/5 28/29/5 18/53/5
f 16/54/2 27/52/2 13/23/2
f 32/30/6 16/15/6 12/8/6
f 9/3/1 35/55/1 10/1/1
f 17/17/5 49/56/5 34/57/5
f 10/58/6 36/59/6 46/60/6
f 19/14/6 52/61/6 38/37/6
f 12/8/3 39/62/3 11/7/3
f 11/7/5 40/39/5 43/63/5
f 18/21/1 50/43/1 19/19/1
f 20/45/3 47/20/3 17/20/3
f 2/1/1 4/4/1 3/2/1
f 4/4/2 8/6/2 7/5/2
f 8/6/3 6/8/3 5/7/3
f 6/8/4 2/64/4 1/9/4
f 7/5/5 5/7/5 1/10/5
f 4/12/6 2/58/6 6/8/6
f 15/13/6 20/51/6 19/14/6
f 13/16/5 18/53/5 17/17/5
f 19/19/4 20/45/4 17/20/4
f 15/22/2 16/54/2 13/23/2
f 22/25/7 23/2/7 26/26/7
f 23/2/8 21/48/8 25/28/8
f 28/29/9 29/32/9 32/30/9
f 29/32/10 27/52/10 31/33/10
f 44/34/11 36/64/11 34/9/11
f 36/1/12 35/55/12 33/3/12
f 41/36/13 40/39/13 38/37/13
f 40/39/14 39/62/14 37/40/14
f 42/41/12 43/41/12 52/42/12
f 43/41/11 41/65/11 51/44/11
f 48/35/13 49/20/13 46/45/13
f 49/20/14 47/20/14 45/45/14
f 9/10/5 21/66/5 23/47/5
f 23/47/5 22/67/5 14/18/5
f 14/18/5 17/17/5 9/10/5
f 10/1/1 25/28/1 21/48/1
f 24/27/2 15/22/2 14/24/2
f 20/51/6 15/13/6 24/49/6
f 24/49/6 26/68/6 25/50/6
f 25/50/6 10/58/6 20/51/6
f 30/31/3 12/8/3 11/7/3
f 18/53/5 13/16/5 27/52/5
f 27/52/5 29/32/5 28/29/5
f 28/29/5 11/7/5 18/53/5
f 16/54/2 31/33/2 27/52/2
f 12/8/6 30/31/6 32/30/6
f 32/30/6 31/33/6 16/15/6
f 16/15/6 19/14/6 12/8/6
f 9/3/1 33/3/1 35/55/1
f 33/10/5 9/10/5 17/17/5
f 17/17/5 47/17/5 49/56/5
f 49/56/5 48/69/5 34/57/5
f 34/57/5 33/10/5 17/17/5
f 45/51/6 20/51/6 10/58/6
f 10/58/6 35/58/6 36/59/6
f 36/59/6 44/70/6 46/60/6
f 46/60/6 45/51/6 10/58/6
f 37/40/6 12/8/6 19/14/6
f 19/14/6 50/14/6 52/61/6
f 52/61/6 51/38/6 38/37/6
f 38/37/6 37/40/6 19/14/6
f 12/8/3 37/40/3 39/62/3
f 42/71/5 18/53/5 11/7/5
f 11/7/5 39/62/5 40/39/5
f 40/39/5 41/72/5 43/63/5
f 43/63/5 42/71/5 11/7/5
f 18/21/1 42/41/1 50/43/1
f 20/45/3 45/45/3 47/20/3
