# Blender 4.5.4 LTS
# www.blender.org
mtllib Throttle.mtl
g Throttle_Mesh
v -0.900000 -0.012500 0.012500
v -0.900000 0.012500 0.012500
v -0.900000 -0.012500 -0.012500
v -0.900000 0.012500 -0.012500
v 0.000000 -0.012500 0.012500
v 0.000000 0.012500 0.012500
v 0.000000 -0.012500 -0.012500
v 0.000000 0.012500 -0.012500
v -0.875000 -0.022500 0.007500
v -0.875000 0.022500 0.007500
v -0.869697 0.022500 0.005303
v -0.869697 -0.022500 0.005303
v -0.867500 0.022500 -0.000000
v -0.867500 -0.022500 -0.000000
v -0.869697 0.022500 -0.005303
v -0.869697 -0.022500 -0.005303
v -0.875000 0.022500 -0.007500
v -0.875000 -0.022500 -0.007500
v -0.880303 0.022500 -0.005303
v -0.880303 -0.022500 -0.005303
v -0.882500 0.022500 -0.000000
v -0.882500 -0.022500 -0.000000
v -0.880303 0.022500 0.005303
v -0.880303 -0.022500 0.005303
v -0.925000 -0.009375 -0.009375
v -0.925000 -0.009375 0.009375
v -0.925000 0.009375 0.009375
v -0.925000 0.009375 -0.009375
v -0.925000 -0.000000 0.009375
v -1.000000 -0.000000 0.009375
v -1.000000 0.006629 0.006629
v -0.925000 0.006629 0.006629
v -1.000000 0.009374 -0.000000
v -0.925000 0.009374 -0.000000
v -1.000000 0.006629 -0.006629
v -0.925000 0.006629 -0.006629
v -1.000000 -0.000000 -0.009375
v -0.925000 -0.000000 -0.009375
v -1.000000 -0.006629 -0.006629
v -0.925000 -0.006629 -0.006629
v -1.000000 -0.009375 -0.000000
v -0.925000 -0.009375 -0.000000
v -1.000000 -0.006629 0.006629
v -0.925000 -0.006629 0.006629
v -0.900000 -0.022500 0.032500
v -0.900000 0.022500 0.032500
v -0.894697 0.022500 0.030303
v -0.894697 -0.022500 0.030303
v -0.892500 0.022500 0.025000
v -0.892500 -0.022500 0.025000
v -0.894697 0.022500 0.019697
v -0.894697 -0.022500 0.019697
v -0.900000 0.022500 0.017500
v -0.900000 -0.022500 0.017500
v -0.905303 0.022500 0.019697
v -0.905303 -0.022500 0.019697
v -0.907500 0.022500 0.025000
v -0.907500 -0.022500 0.025000
v -0.905303 0.022500 0.030303
v -0.905303 -0.022500 0.030303
v -0.912500 0.012500 0.025000
v -0.912500 0.018750 0.025000
v -0.875000 0.012500 -0.012500
v -0.875000 0.018750 -0.012500
v -0.900000 0.012500 0.037500
v -0.900000 0.018750 0.037500
v -0.862500 0.012500 0.000000
v -0.862500 0.018750 0.000000
v -0.912500 -0.018750 0.025000
v -0.912500 -0.012500 0.025000
v -0.875000 -0.018750 -0.012500
v -0.875000 -0.012500 -0.012500
v -0.900000 -0.018750 0.037500
v -0.900000 -0.012500 0.037500
v -0.862500 -0.018750 0.000000
v -0.862500 -0.012500 0.000000
v -0.997500 -0.007500 0.034500
v -0.997500 0.007500 0.034500
v -1.000000 -0.007500 0.020000
v -1.000000 0.007500 0.020000
v -0.892500 -0.007500 0.032500
v -0.892500 0.007500 0.032500
v -0.892500 -0.007500 0.017500
v -0.892500 0.007500 0.017500
v -0.912500 -0.007500 0.017500
v -0.937500 -0.007500 0.012500
v -0.962500 -0.007500 0.012500
v -0.987500 -0.007500 0.017500
v -0.987500 0.007500 0.017500
v -0.962500 0.007500 0.012500
v -0.937500 0.007500 0.012500
v -0.912500 0.007500 0.017500
v -0.987500 -0.007500 0.032500
v -0.962500 -0.007500 0.027500
v -0.937500 -0.007500 0.027500
v -0.912500 -0.007500 0.032500
v -0.912500 0.007500 0.032500
v -0.937500 0.007500 0.027500
v -0.962500 0.007500 0.027500
v -0.987500 0.007500 0.032500
vn -0.1240 -0.0000 -0.9923
vn -0.0000 -0.0000 -1.0000
vn 1.0000 -0.0000 -0.0000
vn -0.0000 -0.0000 1.0000
vn -0.0000 -1.0000 -0.0000
vn -0.0000 1.0000 -0.0000
vn 0.3827 -0.0000 -0.9239
vn -0.9239 -0.0000 -0.3827
vn -0.9239 -0.0000 0.3827
vn -0.3827 -0.0000 0.9239
vn -0.3827 -0.0000 -0.9239
vn 0.9239 -0.0000 -0.3827
vn 0.3827 -0.0000 0.9239
vn 0.9239 -0.0000 0.3827
vn -1.0000 -0.0000 -0.0000
vn -0.1240 -0.0000 0.9923
vn -0.1240 0.9923 -0.0000
vn -0.1240 -0.9923 -0.0000
vn -0.0000 0.3827 -0.9239
vn -0.0000 -0.9239 -0.3827
vn -0.0000 -0.9239 0.3826
vn -0.0000 -0.3827 0.9239
vn -0.0000 -0.3827 -0.9239
vn -0.0000 0.9239 -0.3827
vn -0.0000 0.3827 0.9239
vn -0.0000 0.9239 0.3827
vn -0.7071 -0.0000 -0.7071
vn 0.7071 -0.0000 -0.7071
vn 0.7071 -0.0000 0.7071
vn -0.7071 -0.0000 0.7071
vn -0.9855 -0.0000 0.1699
vn 0.1961 -0.0000 0.9806
vn -0.1961 -0.0000 0.9806
vn -0.1961 -0.0000 -0.9806
vn 0.1961 -0.0000 -0.9806
vt 0.375000 0.250000
vt 0.625000 0.250000
vt 0.375000 0.500000
vt 0.625000 0.500000
vt 0.375000 0.750000
vt 0.625000 0.750000
vt 0.375000 1.000000
vt 0.125000 0.750000
vt 0.125000 0.500000
vt 0.875000 0.500000
vt 0.625000 1.000000
vt 0.500000 0.500000
vt 0.250000 0.500000
vt 0.250000 1.000000
vt 0.125000 1.000000
vt 0.000000 0.500000
vt 0.500000 1.000000
vt 0.750000 1.000000
vt 0.750000 0.500000
vt 1.000000 1.000000
vt 1.000000 0.500000
vt 0.875000 1.000000
vt 0.919706 0.080294
vt 0.580294 0.080294
vt 0.580294 0.419706
vt 0.000000 1.000000
vt 0.625000 0.000000
vt 0.375000 0.000000
vt 0.875000 0.750000
vt 0.625000 0.008332
vt 0.375000 0.008332
vt 0.625000 0.450000
vt 0.375000 0.450000
vt 0.625000 0.950000
vt 0.375000 0.990000
vt 0.375000 0.950000
vt 0.325000 0.750000
vt 0.325000 0.500000
vt 0.825000 0.750000
vt 0.825000 0.500000
vt 0.675000 0.500000
vt 0.725000 0.750000
vt 0.675000 0.750000
vt 0.775000 0.500000
vt 0.725000 0.500000
vt 0.775000 0.750000
vt 0.175000 0.750000
vt 0.135000 0.750000
vt 0.175000 0.500000
vt 0.225000 0.750000
vt 0.275000 0.500000
vt 0.225000 0.500000
vt 0.275000 0.750000
vt 0.375000 0.800000
vt 0.625000 0.800000
vt 0.375000 0.850000
vt 0.625000 0.850000
vt 0.375000 0.900000
vt 0.625000 0.900000
vt 0.375000 0.300000
vt 0.625000 0.300000
vt 0.375000 0.350000
vt 0.625000 0.350000
vt 0.375000 0.400000
vt 0.625000 0.400000
vt 0.750000 0.490000
vt 0.919706 0.419706
vt 0.990000 0.250000
vt 0.750000 0.010000
vt 0.510000 0.250000
vt 0.625000 0.990000
vt 0.865000 0.750000
s 0
f 3/1/1 28/2/1 4/2/1
f 4/2/2 7/3/2 3/1/2
f 8/4/3 5/5/3 7/3/3
f 6/6/4 1/7/4 5/5/4
f 7/3/5 1/8/5 3/9/5
f 4/10/6 6/6/6 8/4/6
f 16/11/7 17/12/7 15/4/7
f 20/7/8 21/13/8 19/3/8
f 22/14/9 23/9/9 21/13/9
f 24/15/10 10/16/10 23/9/10
f 18/17/11 19/3/11 17/12/11
f 14/18/12 15/4/12 13/19/12
f 9/20/13 11/10/13 10/21/13
f 12/22/14 13/19/14 11/10/14
f 15/23/6 19/24/6 23/25/6
f 14/18/5 9/26/5 22/14/5
f 27/27/15 25/1/15 26/28/15
f 1/7/16 27/11/16 26/7/16
f 4/10/17 27/29/17 2/29/17
f 1/8/18 25/9/18 3/9/18
f 36/11/19 37/12/19 35/4/19
f 40/7/20 41/13/20 39/3/20
f 42/14/21 43/9/21 41/13/21
f 44/15/22 30/16/22 43/9/22
f 38/17/23 39/3/23 37/12/23
f 34/18/24 35/4/24 33/19/24
f 29/20/25 31/10/25 30/21/25
f 32/22/26 33/19/26 31/10/26
f 35/23/15 39/24/15 43/25/15
f 34/18/3 29/26/3 42/14/3
f 52/11/7 53/12/7 51/4/7
f 56/7/8 57/13/8 55/3/8
f 58/14/9 59/9/9 57/13/9
f 60/15/10 46/16/10 59/9/10
f 54/17/11 55/3/11 53/12/11
f 50/18/12 51/4/12 49/19/12
f 45/20/13 47/10/13 46/21/13
f 48/22/14 49/19/14 47/10/14
f 51/23/6 55/24/6 59/25/6
f 50/18/5 45/26/5 58/14/5
f 62/27/27 63/1/27 61/28/27
f 64/2/28 67/3/28 63/1/28
f 68/4/29 65/5/29 67/3/29
f 66/6/30 61/7/30 65/5/30
f 63/9/5 65/5/5 61/8/5
f 64/10/6 66/6/6 68/4/6
f 70/27/27 71/1/27 69/28/27
f 72/2/28 75/3/28 71/1/28
f 76/4/29 73/5/29 75/3/29
f 74/6/30 69/7/30 73/5/30
f 71/9/5 73/5/5 69/8/5
f 72/10/6 74/6/6 76/4/6
f 78/30/31 79/1/31 77/31/31
f 92/32/2 83/3/2 85/33/2
f 84/4/3 81/5/3 83/3/3
f 100/34/32 77/35/32 93/36/32
f 83/3/5 96/37/5 85/38/5
f 80/10/6 100/39/6 89/40/6
f 92/41/6 82/6/6 84/4/6
f 92/41/6 98/42/6 97/43/6
f 90/44/6 98/42/6 91/45/6
f 89/40/6 99/46/6 90/44/6
f 79/9/5 93/47/5 77/48/5
f 88/49/5 94/50/5 93/47/5
f 86/51/5 94/50/5 87/52/5
f 85/38/5 95/53/5 86/51/5
f 82/6/4 96/54/4 81/5/4
f 97/55/33 95/56/33 96/54/33
f 98/57/4 94/58/4 95/56/4
f 99/59/32 93/36/32 94/58/32
f 80/2/34 88/60/34 79/1/34
f 89/61/34 87/62/34 88/60/34
f 90/63/2 86/64/2 87/62/2
f 91/65/35 85/33/35 86/64/35
f 3/1/1 25/1/1 28/2/1
f 4/2/2 8/4/2 7/3/2
f 8/4/3 6/6/3 5/5/3
f 6/6/4 2/11/4 1/7/4
f 7/3/5 5/5/5 1/8/5
f 4/10/6 2/29/6 6/6/6
f 16/11/7 18/17/7 17/12/7
f 20/7/8 22/14/8 21/13/8
f 22/14/9 24/15/9 23/9/9
f 24/15/10 9/26/10 10/16/10
f 18/17/11 20/7/11 19/3/11
f 14/18/12 16/11/12 15/4/12
f 9/20/13 12/22/13 11/10/13
f 12/22/14 14/18/14 13/19/14
f 23/25/6 10/66/6 11/67/6
f 11/67/6 13/68/6 15/23/6
f 15/23/6 17/69/6 19/24/6
f 19/24/6 21/70/6 23/25/6
f 23/25/6 11/67/6 15/23/6
f 22/14/5 20/7/5 18/17/5
f 18/17/5 16/11/5 14/18/5
f 14/18/5 12/22/5 9/26/5
f 9/26/5 24/15/5 22/14/5
f 22/14/5 18/17/5 14/18/5
f 27/27/15 28/2/15 25/1/15
f 1/7/16 2/11/16 27/11/16
f 4/10/17 28/10/17 27/29/17
f 1/8/18 26/8/18 25/9/18
f 36/11/19 38/17/19 37/12/19
f 40/7/20 42/14/20 41/13/20
f 42/14/21 44/15/21 43/9/21
f 44/15/22 29/26/22 30/16/22
f 38/17/23 40/7/23 39/3/23
f 34/18/24 36/11/24 35/4/24
f 29/20/25 32/22/25 31/10/25
f 32/22/26 34/18/26 33/19/26
f 43/25/15 30/66/15 31/67/15
f 31/67/15 33/68/15 35/23/15
f 35/23/15 37/69/15 39/24/15
f 39/24/15 41/70/15 43/25/15
f 43/25/15 31/67/15 35/23/15
f 42/14/3 40/7/3 38/17/3
f 38/17/3 36/11/3 34/18/3
f 34/18/3 32/22/3 29/26/3
f 29/26/3 44/15/3 42/14/3
f 42/14/3 38/17/3 34/18/3
f 52/11/7 54/17/7 53/12/7
f 56/7/8 58/14/8 57/13/8
f 58/14/9 60/15/9 59/9/9
f 60/15/10 45/26/10 46/16/10
f 54/17/11 56/7/11 55/3/11
f 50/18/12 52/11/12 51/4/12
f 45/20/13 48/22/13 47/10/13
f 48/22/14 50/18/14 49/19/14
f 59/25/6 46/66/6 47/67/6
f 47/67/6 49/68/6 51/23/6
f 51/23/6 53/69/6 55/24/6
f 55/24/6 57/70/6 59/25/6
f 59/25/6 47/67/6 51/23/6
f 58/14/5 56/7/5 54/17/5
f 54/17/5 52/11/5 50/18/5
f 50/18/5 48/22/5 45/26/5
f 45/26/5 60/15/5 58/14/5
f 58/14/5 54/17/5 50/18/5
f 62/27/27 64/2/27 63/1/27
f 64/2/28 68/4/28 67/3/28
f 68/4/29 66/6/29 65/5/29
f 66/6/30 62/11/30 61/7/30
f 63/9/5 67/3/5 65/5/5
f 64/10/6 62/29/6 66/6/6
f 70/27/27 72/2/27 71/1/27
f 72/2/28 76/4/28 75/3/28
f 76/4/29 74/6/29 73/5/29
f 74/6/30 70/11/30 69/7/30
f 71/9/5 75/3/5 73/5/5
f 72/10/6 70/29/6 74/6/6
f 78/30/31 80/2/31 79/1/31
f 92/32/2 84/4/2 83/3/2
f 84/4/3 82/6/3 81/5/3
f 100/34/32 78/71/32 77/35/32
f 83/3/5 81/5/5 96/37/5
f 80/10/6 78/72/6 100/39/6
f 92/41/6 97/43/6 82/6/6
f 92/41/6 91/45/6 98/42/6
f 90/44/6 99/46/6 98/42/6
f 89/40/6 100/39/6 99/46/6
f 79/9/5 88/49/5 93/47/5
f 88/49/5 87/52/5 94/50/5
f 86/51/5 95/53/5 94/50/5
f 85/38/5 96/37/5 95/53/5
f 82/6/4 97/55/4 96/54/4
f 97/55/33 98/57/33 95/56/33
f 98/57/4 99/59/4 94/58/4
f 99/59/32 100/34/32 93/36/32
f 80/2/34 89/61/34 88/60/34
f 89/61/34 90/63/34 87/62/34
f 90/63/2 91/65/2 86/64/2
f 91/65/35 92/32/35 85/33/35
