# Blender 5.0.1
# www.blender.org
mtllib GrenadeLauncherAmmo.mtl
g LauncherAmmo_Mesh
v 0.000000 0.018000 0.005000
v 0.000000 0.018000 0.050000
v 0.009000 0.015588 0.005000
v 0.009000 0.015588 0.050000
v 0.015588 0.009000 0.005000
v 0.015588 0.009000 0.050000
v 0.018000 0.000000 0.005000
v 0.018000 0.000000 0.050000
v 0.015588 -0.009000 0.005000
v 0.015588 -0.009000 0.050000
v 0.009000 -0.015588 0.005000
v 0.009000 -0.015588 0.050000
v 0.000000 -0.018000 0.005000
v 0.000000 -0.018000 0.050000
v -0.009000 -0.015588 0.005000
v -0.009000 -0.015588 0.050000
v -0.015588 -0.009000 0.005000
v -0.015588 -0.009000 0.050000
v -0.018000 0.000000 0.005000
v -0.018000 0.000000 0.050000
v -0.015588 0.009000 0.005000
v -0.015588 0.009000 0.050000
v -0.009000 0.015588 0.005000
v -0.009000 0.015588 0.050000
v 0.000000 0.017000 0.050000
v 0.000000 0.017000 0.075000
v 0.008500 0.014722 0.050000
v 0.008500 0.014722 0.075000
v 0.014722 0.008500 0.050000
v 0.014722 0.008500 0.075000
v 0.017000 0.000000 0.050000
v 0.017000 0.000000 0.075000
v 0.014722 -0.008500 0.050000
v 0.014722 -0.008500 0.075000
v 0.008500 -0.014722 0.050000
v 0.008500 -0.014722 0.075000
v 0.000000 -0.017000 0.050000
v 0.000000 -0.017000 0.075000
v -0.008500 -0.014722 0.050000
v -0.008500 -0.014722 0.075000
v -0.014722 -0.008500 0.050000
v -0.014722 -0.008500 0.075000
v -0.017000 0.000000 0.050000
v -0.017000 0.000000 0.075000
v -0.014722 0.008500 0.050000
v -0.014722 0.008500 0.075000
v -0.008500 0.014722 0.050000
v -0.008500 0.014722 0.075000
v 0.000000 0.000000 0.088600
v 0.000000 0.008500 0.086778
v 0.000000 0.014722 0.081800
v 0.000000 0.017000 0.075000
v 0.004250 0.007361 0.086778
v 0.007361 0.012750 0.081800
v 0.008500 0.014722 0.075000
v 0.007361 0.004250 0.086778
v 0.012750 0.007361 0.081800
v 0.014722 0.008500 0.075000
v 0.008500 -0.000000 0.086778
v 0.014722 -0.000000 0.081800
v 0.017000 0.000000 0.075000
v 0.007361 -0.004250 0.086778
v 0.012750 -0.007361 0.081800
v 0.014722 -0.008500 0.075000
v 0.004250 -0.007361 0.086778
v 0.007361 -0.012750 0.081800
v 0.008500 -0.014722 0.075000
v 0.000000 -0.008500 0.086778
v -0.000000 -0.014722 0.081800
v 0.000000 -0.017000 0.075000
v -0.004250 -0.007361 0.086778
v -0.007361 -0.012750 0.081800
v -0.008500 -0.014722 0.075000
v -0.007361 -0.004250 0.086778
v -0.012750 -0.007361 0.081800
v -0.014722 -0.008500 0.075000
v -0.008500 -0.000000 0.086778
v -0.014722 0.000000 0.081800
v -0.017000 0.000000 0.075000
v -0.007361 0.004250 0.086778
v -0.012750 0.007361 0.081800
v -0.014722 0.008500 0.075000
v -0.004250 0.007361 0.086778
v -0.007361 0.012750 0.081800
v -0.008500 0.014722 0.075000
v 0.000000 0.018900 0.000000
v 0.000000 0.018900 0.002000
v 0.009450 0.016368 0.000000
v 0.009450 0.016368 0.002000
v 0.016368 0.009450 0.000000
v 0.016368 0.009450 0.002000
v 0.018900 0.000000 0.000000
v 0.018900 0.000000 0.002000
v 0.016368 -0.009450 0.000000
v 0.016368 -0.009450 0.002000
v 0.009450 -0.016368 0.000000
v 0.009450 -0.016368 0.002000
v 0.000000 -0.018900 0.000000
v 0.000000 -0.018900 0.002000
v -0.009450 -0.016368 0.000000
v -0.009450 -0.016368 0.002000
v -0.016368 -0.009450 0.000000
v -0.016368 -0.009450 0.002000
v -0.018900 0.000000 0.000000
v -0.018900 0.000000 0.002000
v -0.016368 0.009450 0.000000
v -0.016368 0.009450 0.002000
v -0.009450 0.016368 0.000000
v -0.009450 0.016368 0.002000
v 0.000000 0.017000 0.002000
v 0.000000 0.017000 0.005000
v 0.008500 0.014722 0.002000
v 0.008500 0.014722 0.005000
v 0.014722 0.008500 0.002000
v 0.014722 0.008500 0.005000
v 0.017000 0.000000 0.002000
v 0.017000 0.000000 0.005000
v 0.014722 -0.008500 0.002000
v 0.014722 -0.008500 0.005000
v 0.008500 -0.014722 0.002000
v 0.008500 -0.014722 0.005000
v 0.000000 -0.017000 0.002000
v 0.000000 -0.017000 0.005000
v -0.008500 -0.014722 0.002000
v -0.008500 -0.014722 0.005000
v -0.014722 -0.008500 0.002000
v -0.014722 -0.008500 0.005000
v -0.017000 0.000000 0.002000
v -0.017000 0.000000 0.005000
v -0.014722 0.008500 0.002000
v -0.014722 0.008500 0.005000
v -0.008500 0.014722 0.002000
v -0.008500 0.014722 0.005000
vn -0.0000 1.0000 -0.0000
vn 0.5000 0.8660 -0.0000
vn 0.8660 0.5000 -0.0000
vn 1.0000 -0.0000 -0.0000
vn 0.8660 -0.5000 -0.0000
vn 0.5000 -0.8660 -0.0000
vn -0.0000 -1.0000 -0.0000
vn -0.5000 -0.8660 -0.0000
vn -0.8660 -0.5000 -0.0000
vn -1.0000 -0.0000 -0.0000
vn -0.8660 0.5000 -0.0000
vn -0.0000 -0.0000 1.0000
vn -0.5000 0.8660 -0.0000
vn -0.0000 -0.0000 -1.0000
vn -0.0000 0.8341 0.5516
vn 0.4741 0.8212 0.3176
vn -0.0000 0.9482 0.3176
vn -0.0000 0.4588 0.8885
vn 0.2294 0.3973 0.8885
vn 0.4171 0.7223 0.5516
vn 0.7223 0.4170 0.5516
vn 0.8212 0.4741 0.3176
vn 0.3973 0.2294 0.8885
vn 0.8341 -0.0000 0.5516
vn 0.9482 -0.0000 0.3176
vn 0.4588 -0.0000 0.8885
vn 0.3973 -0.2294 0.8885
vn 0.7223 -0.4170 0.5516
vn 0.8212 -0.4741 0.3176
vn 0.4171 -0.7223 0.5516
vn 0.4741 -0.8212 0.3176
vn 0.2294 -0.3973 0.8885
vn -0.0000 -0.8341 0.5516
vn -0.0000 -0.9482 0.3176
vn -0.0000 -0.4588 0.8885
vn -0.4741 -0.8212 0.3176
vn -0.2294 -0.3973 0.8885
vn -0.4171 -0.7223 0.5516
vn -0.8212 -0.4741 0.3176
vn -0.3973 -0.2294 0.8885
vn -0.7223 -0.4170 0.5516
vn -0.8341 -0.0000 0.5516
vn -0.9482 -0.0000 0.3176
vn -0.4588 -0.0000 0.8885
vn -0.8212 0.4741 0.3176
vn -0.3973 0.2294 0.8885
vn -0.7223 0.4170 0.5516
vn -0.4170 0.7223 0.5516
vn -0.4741 0.8212 0.3176
vn -0.2294 0.3973 0.8885
vt 1.000000 1.000000
vt 0.916667 0.500000
vt 1.000000 0.500000
vt 0.916667 1.000000
vt 0.833333 0.500000
vt 0.833333 1.000000
vt 0.750000 0.500000
vt 0.750000 1.000000
vt 0.666667 0.500000
vt 0.666667 1.000000
vt 0.583333 0.500000
vt 0.583333 1.000000
vt 0.500000 0.500000
vt 0.500000 1.000000
vt 0.416667 0.500000
vt 0.416667 1.000000
vt 0.333333 0.500000
vt 0.333333 1.000000
vt 0.250000 0.500000
vt 0.250000 1.000000
vt 0.166667 0.500000
vt 0.042154 0.370000
vt 0.250000 0.010000
vt 0.457846 0.370000
vt 0.166667 1.000000
vt 0.083333 0.500000
vt 0.083333 1.000000
vt 0.000000 0.500000
vt 0.990000 0.250000
vt 0.630000 0.042154
vt 0.630000 0.457846
vt 0.750000 0.666667
vt 0.666667 0.500000
vt 0.750000 0.500000
vt 0.750000 0.833333
vt 0.708333 1.000000
vt 0.666667 0.833333
vt 0.666667 0.666667
vt 0.583333 0.666667
vt 0.583333 0.500000
vt 0.625000 1.000000
vt 0.583333 0.833333
vt 0.500000 0.666667
vt 0.500000 0.500000
vt 0.541667 1.000000
vt 0.500000 0.833333
vt 0.416667 0.833333
vt 0.416667 0.666667
vt 0.416667 0.500000
vt 0.458333 1.000000
vt 0.333333 0.666667
vt 0.333333 0.500000
vt 0.375000 1.000000
vt 0.333333 0.833333
vt 0.250000 0.666667
vt 0.250000 0.500000
vt 0.291667 1.000000
vt 0.250000 0.833333
vt 0.166667 0.500000
vt 0.208333 1.000000
vt 0.166667 0.833333
vt 0.166667 0.666667
vt 0.083333 0.500000
vt 0.125000 1.000000
vt 0.083333 0.833333
vt 0.083333 0.666667
vt 0.000000 0.666667
vt 0.000000 0.500000
vt 0.041667 1.000000
vt 0.000000 0.833333
vt 1.000000 0.666667
vt 0.916667 0.500000
vt 1.000000 0.833333
vt 0.958333 1.000000
vt 0.916667 0.833333
vt 0.916667 0.666667
vt 0.833333 0.666667
vt 0.875000 1.000000
vt 0.833333 0.833333
vt 0.791667 1.000000
vt 0.370000 0.457846
vt 0.250000 0.490000
vt 0.130000 0.457846
vt 0.010000 0.250000
vt 0.042154 0.130000
vt 0.130000 0.042154
vt 0.370000 0.042154
vt 0.457846 0.130000
vt 0.490000 0.250000
vt 0.000000 1.000000
vt 0.750000 0.490000
vt 0.870000 0.457846
vt 0.957846 0.370000
vt 0.957846 0.130000
vt 0.870000 0.042154
vt 0.750000 0.010000
vt 0.542154 0.130000
vt 0.510000 0.250000
vt 0.542154 0.370000
s 1
f 2/1/1 3/2/2 1/3/1
f 4/4/2 5/5/3 3/2/2
f 6/6/3 7/7/4 5/5/3
f 8/8/4 9/9/5 7/7/4
f 10/10/5 11/11/6 9/9/5
f 12/12/6 13/13/7 11/11/6
f 14/14/7 15/15/8 13/13/7
f 16/16/8 17/17/9 15/15/8
f 18/18/9 19/19/10 17/17/9
f 20/20/10 21/21/11 19/19/10
f 22/22/12 14/23/12 6/24/12
f 22/25/11 23/26/13 21/21/11
f 24/27/13 1/28/1 23/26/13
f 7/29/14 15/30/14 23/31/14
f 26/1/1 27/2/2 25/3/1
f 28/4/2 29/5/3 27/2/2
f 30/6/3 31/7/4 29/5/3
f 32/8/4 33/9/5 31/7/4
f 34/10/5 35/11/6 33/9/5
f 36/12/6 37/13/7 35/11/6
f 38/14/7 39/15/8 37/13/7
f 40/16/8 41/17/9 39/15/8
f 42/18/9 43/19/10 41/17/9
f 44/20/10 45/21/11 43/19/10
f 46/22/12 38/23/12 30/24/12
f 46/25/11 47/26/13 45/21/11
f 48/27/13 25/28/1 47/26/13
f 51/32/15 55/33/16 52/34/17
f 50/35/18 49/36/12 53/37/19
f 51/32/15 53/37/19 54/38/20
f 53/37/19 57/39/21 54/38/20
f 54/38/20 58/40/22 55/33/16
f 53/37/19 49/41/12 56/42/23
f 56/42/23 60/43/24 57/39/21
f 58/40/22 60/43/24 61/44/25
f 56/42/23 49/45/12 59/46/26
f 60/43/24 62/47/27 63/48/28
f 60/43/24 64/49/29 61/44/25
f 59/46/26 49/50/12 62/47/27
f 62/47/27 66/51/30 63/48/28
f 64/49/29 66/51/30 67/52/31
f 62/47/27 49/53/12 65/54/32
f 65/54/32 69/55/33 66/51/30
f 67/52/31 69/55/33 70/56/34
f 65/54/32 49/57/12 68/58/35
f 69/55/33 73/59/36 70/56/34
f 68/58/35 49/60/12 71/61/37
f 69/55/33 71/61/37 72/62/38
f 72/62/38 76/63/39 73/59/36
f 71/61/37 49/64/12 74/65/40
f 71/61/37 75/66/41 72/62/38
f 76/63/39 78/67/42 79/68/43
f 74/65/40 49/69/12 77/70/44
f 74/65/40 78/67/42 75/66/41
f 78/71/42 82/72/45 79/3/43
f 77/73/44 49/74/12 80/75/46
f 78/71/42 80/75/46 81/76/47
f 82/72/45 84/77/48 85/5/49
f 80/75/46 49/78/12 83/79/50
f 80/75/46 84/77/48 81/76/47
f 83/79/50 49/80/12 50/35/18
f 83/79/50 51/32/15 84/77/48
f 84/77/48 52/34/17 85/5/49
f 87/1/1 88/2/2 86/3/1
f 89/4/2 90/5/3 88/2/2
f 91/6/3 92/7/4 90/5/3
f 93/8/4 94/9/5 92/7/4
f 95/10/5 96/11/6 94/9/5
f 97/12/6 98/13/7 96/11/6
f 99/14/7 100/15/8 98/13/7
f 101/16/8 102/17/9 100/15/8
f 103/18/9 104/19/10 102/17/9
f 105/20/10 106/21/11 104/19/10
f 107/22/12 99/23/12 91/24/12
f 107/25/11 108/26/13 106/21/11
f 109/27/13 86/28/1 108/26/13
f 92/29/14 100/30/14 108/31/14
f 111/1/1 112/2/2 110/3/1
f 113/4/2 114/5/3 112/2/2
f 115/6/3 116/7/4 114/5/3
f 117/8/4 118/9/5 116/7/4
f 119/10/5 120/11/6 118/9/5
f 121/12/6 122/13/7 120/11/6
f 123/14/7 124/15/8 122/13/7
f 125/16/8 126/17/9 124/15/8
f 127/18/9 128/19/10 126/17/9
f 129/20/10 130/21/11 128/19/10
f 131/25/11 132/26/13 130/21/11
f 133/27/13 110/28/1 132/26/13
f 2/1/1 4/4/2 3/2/2
f 4/4/2 6/6/3 5/5/3
f 6/6/3 8/8/4 7/7/4
f 8/8/4 10/10/5 9/9/5
f 10/10/5 12/12/6 11/11/6
f 12/12/6 14/14/7 13/13/7
f 14/14/7 16/16/8 15/15/8
f 16/16/8 18/18/9 17/17/9
f 18/18/9 20/20/10 19/19/10
f 20/20/10 22/25/11 21/21/11
f 6/24/12 4/81/12 2/82/12
f 2/82/12 24/83/12 22/22/12
f 22/22/12 20/84/12 18/85/12
f 18/85/12 16/86/12 14/23/12
f 14/23/12 12/87/12 10/88/12
f 10/88/12 8/89/12 6/24/12
f 6/24/12 2/82/12 22/22/12
f 22/22/12 18/85/12 14/23/12
f 14/23/12 10/88/12 6/24/12
f 22/25/11 24/27/13 23/26/13
f 24/27/13 2/90/1 1/28/1
f 23/31/14 1/91/14 3/92/14
f 3/92/14 5/93/14 7/29/14
f 7/29/14 9/94/14 11/95/14
f 11/95/14 13/96/14 15/30/14
f 15/30/14 17/97/14 19/98/14
f 19/98/14 21/99/14 23/31/14
f 23/31/14 3/92/14 7/29/14
f 7/29/14 11/95/14 15/30/14
f 15/30/14 19/98/14 23/31/14
f 26/1/1 28/4/2 27/2/2
f 28/4/2 30/6/3 29/5/3
f 30/6/3 32/8/4 31/7/4
f 32/8/4 34/10/5 33/9/5
f 34/10/5 36/12/6 35/11/6
f 36/12/6 38/14/7 37/13/7
f 38/14/7 40/16/8 39/15/8
f 40/16/8 42/18/9 41/17/9
f 42/18/9 44/20/10 43/19/10
f 44/20/10 46/25/11 45/21/11
f 30/24/12 28/81/12 26/82/12
f 26/82/12 48/83/12 46/22/12
f 46/22/12 44/84/12 42/85/12
f 42/85/12 40/86/12 38/23/12
f 38/23/12 36/87/12 34/88/12
f 34/88/12 32/89/12 30/24/12
f 30/24/12 26/82/12 46/22/12
f 46/22/12 42/85/12 38/23/12
f 38/23/12 34/88/12 30/24/12
f 46/25/11 48/27/13 47/26/13
f 48/27/13 26/90/1 25/28/1
f 51/32/15 54/38/20 55/33/16
f 51/32/15 50/35/18 53/37/19
f 53/37/19 56/42/23 57/39/21
f 54/38/20 57/39/21 58/40/22
f 56/42/23 59/46/26 60/43/24
f 58/40/22 57/39/21 60/43/24
f 60/43/24 59/46/26 62/47/27
f 60/43/24 63/48/28 64/49/29
f 62/47/27 65/54/32 66/51/30
f 64/49/29 63/48/28 66/51/30
f 65/54/32 68/58/35 69/55/33
f 67/52/31 66/51/30 69/55/33
f 69/55/33 72/62/38 73/59/36
f 69/55/33 68/58/35 71/61/37
f 72/62/38 75/66/41 76/63/39
f 71/61/37 74/65/40 75/66/41
f 76/63/39 75/66/41 78/67/42
f 74/65/40 77/70/44 78/67/42
f 78/71/42 81/76/47 82/72/45
f 78/71/42 77/73/44 80/75/46
f 82/72/45 81/76/47 84/77/48
f 80/75/46 83/79/50 84/77/48
f 83/79/50 50/35/18 51/32/15
f 84/77/48 51/32/15 52/34/17
f 87/1/1 89/4/2 88/2/2
f 89/4/2 91/6/3 90/5/3
f 91/6/3 93/8/4 92/7/4
f 93/8/4 95/10/5 94/9/5
f 95/10/5 97/12/6 96/11/6
f 97/12/6 99/14/7 98/13/7
f 99/14/7 101/16/8 100/15/8
f 101/16/8 103/18/9 102/17/9
f 103/18/9 105/20/10 104/19/10
f 105/20/10 107/25/11 106/21/11
f 91/24/12 89/81/12 87/82/12
f 87/82/12 109/83/12 107/22/12
f 107/22/12 105/84/12 103/85/12
f 103/85/12 101/86/12 99/23/12
f 99/23/12 97/87/12 95/88/12
f 95/88/12 93/89/12 91/24/12
f 91/24/12 87/82/12 107/22/12
f 107/22/12 103/85/12 99/23/12
f 99/23/12 95/88/12 91/24/12
f 107/25/11 109/27/13 108/26/13
f 109/27/13 87/90/1 86/28/1
f 108/31/14 86/91/14 88/92/14
f 88/92/14 90/93/14 92/29/14
f 92/29/14 94/94/14 96/95/14
f 96/95/14 98/96/14 100/30/14
f 100/30/14 102/97/14 104/98/14
f 104/98/14 106/99/14 108/31/14
f 108/31/14 88/92/14 92/29/14
f 92/29/14 96/95/14 100/30/14
f 100/30/14 104/98/14 108/31/14
f 111/1/1 113/4/2 112/2/2
f 113/4/2 115/6/3 114/5/3
f 115/6/3 117/8/4 116/7/4
f 117/8/4 119/10/5 118/9/5
f 119/10/5 121/12/6 120/11/6
f 121/12/6 123/14/7 122/13/7
f 123/14/7 125/16/8 124/15/8
f 125/16/8 127/18/9 126/17/9
f 127/18/9 129/20/10 128/19/10
f 129/20/10 131/25/11 130/21/11
f 131/25/11 133/27/13 132/26/13
f 133/27/13 111/90/1 110/28/1
