# Blender 5.0.1
# www.blender.org
mtllib GrenadeLauncher.mtl
g Launcher_Barrel_Mesh
v 0.011525 0.017619 -0.000841
v 0.011525 0.003369 0.010580
v 0.011525 0.011439 0.008423
v 0.011525 -0.006443 0.008007
v -0.000000 -0.009726 0.006816
v 0.009210 -0.008764 0.007231
v 0.000000 0.017619 -0.000841
v 0.000000 0.003369 0.010580
v 0.000000 0.011439 0.008423
v -0.000000 -0.006443 0.008544
v -0.000000 -0.008764 0.008062
v -0.011525 0.017619 -0.000841
v -0.011525 0.003369 0.010580
v -0.011525 0.011439 0.008423
v -0.011525 -0.006443 0.008007
v -0.009210 -0.008764 0.007231
v 0.000000 0.050000 -0.080000
v 0.000000 0.050000 0.350000
v 0.007654 0.048478 -0.080000
v 0.007654 0.048478 0.350000
v 0.014142 0.044142 -0.080000
v 0.014142 0.044142 0.350000
v 0.018478 0.037654 -0.080000
v 0.018478 0.037654 0.350000
v 0.020000 0.030000 -0.080000
v 0.020000 0.030000 0.350000
v 0.018478 0.022346 -0.080000
v 0.018478 0.022346 0.350000
v 0.014142 0.015858 -0.080000
v 0.014142 0.015858 0.350000
v 0.007654 0.011522 -0.080000
v 0.007654 0.011522 0.350000
v -0.000000 0.010000 -0.080000
v -0.000000 0.010000 0.350000
v -0.007654 0.011522 -0.080000
v -0.007654 0.011522 0.350000
v -0.014142 0.015858 -0.080000
v -0.014142 0.015858 0.350000
v -0.018478 0.022346 -0.080000
v -0.018478 0.022346 0.350000
v -0.020000 0.030000 -0.080000
v -0.020000 0.030000 0.350000
v -0.018478 0.037654 -0.080000
v -0.018478 0.037654 0.350000
v -0.014142 0.044142 -0.080000
v -0.014142 0.044142 0.350000
v -0.007654 0.048478 -0.080000
v -0.007654 0.048478 0.350000
v 0.011525 0.011439 0.090000
v 0.011525 0.017619 0.090000
v 0.011525 0.003369 0.090000
v 0.009210 -0.008764 0.090000
v 0.011525 -0.006443 0.090000
v -0.000000 -0.009726 0.090000
v 0.009210 0.016236 0.230000
v 0.000000 0.017619 0.090000
v 0.011525 0.028369 0.230000
v 0.011525 0.042619 0.230000
v 0.011525 0.036439 0.230000
v -0.011525 0.011439 0.090000
v -0.011525 0.017619 0.090000
v -0.011525 0.003369 0.090000
v -0.009210 -0.008764 0.090000
v -0.011525 -0.006443 0.090000
v 0.011525 0.011439 0.190000
v 0.011525 0.017619 0.190000
v 0.011525 0.003369 0.190000
v 0.009210 -0.008764 0.190000
v 0.011525 -0.006443 0.190000
v 0.000000 -0.009726 0.190000
v 0.000000 0.054000 0.154800
v 0.000000 0.017619 0.190000
v 0.000000 0.054000 0.145200
v -0.011525 0.011439 0.190000
v -0.011525 0.017619 0.190000
v -0.011525 0.003369 0.190000
v -0.009210 -0.008764 0.190000
v -0.011525 -0.006443 0.190000
v 0.011525 0.018557 0.230000
v 0.000000 0.036439 0.230000
v 0.000000 0.042619 0.230000
v 0.000000 0.028369 0.230000
v 0.000000 0.016236 0.230000
v 0.000000 0.018557 0.230000
v -0.011525 0.036439 0.230000
v -0.011525 0.042619 0.230000
v -0.011525 0.028369 0.230000
v -0.009210 0.016236 0.230000
v -0.011525 0.018557 0.230000
v 0.009184 0.052173 0.145200
v 0.009184 0.052173 0.154800
v 0.016971 0.046971 0.145200
v 0.016971 0.046971 0.154800
v 0.022173 0.039184 0.145200
v 0.022173 0.039184 0.154800
v 0.024000 0.030000 0.145200
v 0.024000 0.030000 0.154800
v 0.022173 0.020816 0.145200
v 0.022173 0.020816 0.154800
v 0.016971 0.013029 0.145200
v 0.016971 0.013029 0.154800
v 0.009184 0.007827 0.145200
v 0.009184 0.007827 0.154800
v -0.000000 0.006000 0.145200
v -0.000000 0.006000 0.154800
v -0.009184 0.007827 0.145200
v -0.009184 0.007827 0.154800
v -0.016971 0.013029 0.145200
v -0.016971 0.013029 0.154800
v -0.022173 0.020816 0.145200
v -0.022173 0.020816 0.154800
v -0.024000 0.030000 0.145200
v -0.024000 0.030000 0.154800
v -0.022173 0.039184 0.145200
v -0.022173 0.039184 0.154800
v -0.016971 0.046971 0.145200
v -0.016971 0.046971 0.154800
v -0.009184 0.052173 0.145200
v -0.009184 0.052173 0.154800
v 0.013080 0.060100 0.145200
v 0.016920 0.060100 0.145200
v 0.013080 0.060100 0.154800
v 0.016920 0.060100 0.154800
v 0.013080 0.063494 0.153394
v 0.016920 0.063494 0.153394
v 0.013080 0.064900 0.150000
v 0.016920 0.064900 0.150000
v 0.013080 0.063494 0.146606
v 0.016920 0.063494 0.146606
v 0.016920 0.042100 0.154800
v 0.013080 0.042100 0.154800
v 0.016920 0.042100 0.145200
v 0.013080 0.042100 0.145200
v -0.016920 0.060100 0.145200
v -0.013080 0.060100 0.145200
v -0.016920 0.060100 0.154800
v -0.013080 0.060100 0.154800
v -0.016920 0.063494 0.153394
v -0.013080 0.063494 0.153394
v -0.016920 0.064900 0.150000
v -0.013080 0.064900 0.150000
v -0.016920 0.063494 0.146606
v -0.013080 0.063494 0.146606
v -0.013080 0.042100 0.154800
v -0.016920 0.042100 0.154800
v -0.013080 0.042100 0.145200
v -0.016920 0.042100 0.145200
v -0.008000 0.045000 0.348000
v -0.008000 0.060000 0.348000
v -0.008000 0.045000 0.328000
v -0.008000 0.060000 0.328000
v 0.008000 0.045000 0.348000
v 0.008000 0.060000 0.348000
v 0.008000 0.045000 0.328000
v 0.008000 0.060000 0.328000
v -0.005000 0.060000 0.348000
v 0.005000 0.060000 0.348000
v 0.005000 0.045000 0.348000
v -0.005000 0.045000 0.348000
v 0.005000 0.060000 0.328000
v -0.005000 0.060000 0.328000
v -0.005000 0.045000 0.328000
v 0.005000 0.045000 0.328000
v 0.005000 0.070000 0.338000
v 0.005000 0.065000 0.346660
v 0.005000 0.068660 0.343000
v -0.005000 0.070000 0.338000
v -0.005000 0.065000 0.329340
v -0.005000 0.068660 0.333000
v -0.005000 0.068660 0.343000
v -0.005000 0.065000 0.346660
v 0.008000 0.070000 0.338000
v 0.008000 0.068660 0.343000
v 0.008000 0.065000 0.346660
v 0.008000 0.065000 0.329340
v 0.008000 0.068660 0.333000
v 0.005000 0.068660 0.333000
v 0.005000 0.065000 0.329340
v -0.008000 0.070000 0.338000
v -0.008000 0.068660 0.333000
v -0.008000 0.065000 0.329340
v -0.008000 0.065000 0.346660
v -0.008000 0.068660 0.343000
v 0.025087 0.039184 0.154800
v 0.025087 0.039184 0.145200
v 0.025087 0.030000 0.145200
v 0.025087 0.030000 0.154800
v 0.025087 0.020816 0.145200
v 0.025087 0.020816 0.154800
v -0.025087 0.020816 0.154800
v -0.025087 0.020816 0.145200
v -0.025087 0.030000 0.145200
v -0.025087 0.030000 0.154800
v -0.025087 0.039184 0.145200
v -0.025087 0.039184 0.154800
v -0.010000 0.040000 -0.010000
v -0.010000 0.055000 -0.040000
v -0.010000 0.040000 -0.080000
v -0.010000 0.055000 -0.080000
v 0.010000 0.040000 -0.010000
v 0.010000 0.055000 -0.040000
v 0.010000 0.040000 -0.080000
v 0.010000 0.055000 -0.080000
v -0.011400 0.060000 0.148200
v -0.018600 0.060000 0.148200
v 0.011400 0.060000 0.148200
v 0.018600 0.060000 0.148200
v 0.011400 0.058441 0.149100
v 0.018600 0.058441 0.149100
v 0.011400 0.058441 0.150900
v 0.018600 0.058441 0.150900
v 0.011400 0.060000 0.151800
v 0.018600 0.060000 0.151800
v 0.011400 0.061559 0.150900
v 0.018600 0.061559 0.150900
v 0.011400 0.061559 0.149100
v 0.018600 0.061559 0.149100
v -0.018600 0.058441 0.149100
v -0.011400 0.058441 0.149100
v -0.018600 0.058441 0.150900
v -0.011400 0.058441 0.150900
v -0.018600 0.060000 0.151800
v -0.011400 0.060000 0.151800
v -0.018600 0.061559 0.150900
v -0.011400 0.061559 0.150900
v -0.018600 0.061559 0.149100
v -0.011400 0.061559 0.149100
vn -0.0494 0.3743 -0.9260
vn -0.0000 0.2280 -0.9737
vn -0.0446 0.2893 -0.9562
vn -0.0127 -0.0142 -0.9998
vn -0.0000 -0.0283 -0.9996
vn -0.0000 -0.5826 -0.8128
vn -0.0000 0.2898 -0.9571
vn 0.5426 0.2435 -0.8039
vn -0.0000 0.7915 -0.6111
vn -0.0000 0.5218 -0.8531
vn 0.0494 0.3743 -0.9260
vn 0.0446 0.2893 -0.9562
vn 0.0127 -0.0142 -0.9998
vn -0.5426 0.2435 -0.8039
vn -0.0000 0.9816 0.1908
vn 0.2813 0.9460 0.1611
vn 0.2812 0.9460 0.1611
vn 0.7833 0.6049 0.1432
vn 0.9331 0.3124 0.1781
vn 0.9816 0.1908 -0.0000
vn 0.9246 -0.3328 -0.1851
vn 0.9246 -0.3329 -0.1851
vn 0.6520 -0.7362 -0.1813
vn 0.2813 -0.9460 -0.1611
vn -0.0000 -0.9816 -0.1908
vn -0.2813 -0.9460 -0.1611
vn -0.6520 -0.7362 -0.1813
vn -0.9246 -0.3328 -0.1851
vn -0.9816 0.1908 -0.0000
vn -0.9331 0.3124 0.1781
vn -0.7833 0.6049 0.1432
vn -0.0000 -0.0000 1.0000
vn -0.7833 0.6049 0.1431
vn -0.2813 0.9460 0.1611
vn -0.0000 -0.0000 -1.0000
vn -0.0000 0.9612 -0.2757
vn 0.7071 0.7071 -0.0000
vn -0.0000 1.0000 -0.0000
vn -1.0000 -0.0000 -0.0000
vn -0.7071 0.7071 -0.0000
vn 1.0000 -0.0000 -0.0000
vn -0.0000 -1.0000 -0.0000
vn -0.4308 -0.9025 -0.0000
vn 0.9241 -0.3821 -0.0000
vn 0.7747 0.6078 -0.1743
vn -0.9241 -0.3821 -0.0000
vn 0.4308 -0.9025 -0.0000
vn -0.7747 0.6078 -0.1743
vn 0.8975 -0.4411 -0.0000
vn -0.4005 -0.9163 -0.0000
vn -0.8975 -0.4411 -0.0000
vn 0.4005 -0.9163 -0.0000
vn -0.9547 -0.2525 0.1578
vn -0.8370 -0.4640 0.2900
vn -0.0000 0.8746 0.4848
vn -0.0000 -0.4838 0.8752
vn -0.3336 -0.7946 0.5074
vn -0.0000 -0.8388 0.5444
vn 0.9547 -0.2525 0.1578
vn 0.8370 -0.4640 0.2900
vn -0.2577 -0.5281 0.8092
vn 0.3336 -0.7946 0.5074
vn -0.5535 0.7284 0.4038
vn 0.2577 -0.5281 0.8092
vn 0.5535 0.7284 0.4037
vn 0.3827 0.9239 -0.0000
vn 0.8315 0.5556 -0.0000
vn 0.8315 -0.5556 -0.0000
vn 0.7071 -0.7071 -0.0000
vn 0.3827 -0.9239 -0.0000
vn -0.3827 -0.9239 -0.0000
vn -0.7071 -0.7071 -0.0000
vn -0.8315 -0.5556 -0.0000
vn -0.8315 0.5556 -0.0000
vn -0.3827 0.9239 -0.0000
vn -0.0000 0.1951 0.9808
vn -0.0000 0.3827 0.9239
vn -0.0000 0.9239 0.3827
vn -0.0000 0.9239 -0.3827
vn -0.0000 0.3827 -0.9239
vn -0.0000 0.1951 -0.9808
vn -0.0000 0.0869 -0.9962
vn -0.0000 0.0869 0.9962
vn -0.0000 0.1305 -0.9914
vn -0.0000 0.1305 0.9914
vn -0.0000 0.8660 -0.5000
vn -0.0000 0.7071 -0.7071
vn -0.0000 0.2588 -0.9659
vn -0.0000 0.8660 0.5000
vn -0.0000 0.7071 0.7071
vn -0.0000 0.2588 0.9659
vn -0.0000 0.8944 0.4472
vn -0.0000 -0.8660 -0.5000
vn -0.0000 -0.8660 0.5000
vt 0.000000 0.000000
vt 0.375000 0.250000
vt 0.443884 0.250000
vt 1.000000 1.000000
vt 0.937500 0.500000
vt 1.000000 0.500000
vt 0.937500 1.000000
vt 0.875000 0.500000
vt 0.875000 1.000000
vt 0.812500 0.500000
vt 0.812500 1.000000
vt 0.750000 0.500000
vt 0.750000 1.000000
vt 0.687500 0.500000
vt 0.687500 1.000000
vt 0.625000 0.500000
vt 0.625000 1.000000
vt 0.562500 0.500000
vt 0.562500 1.000000
vt 0.500000 0.500000
vt 0.500000 1.000000
vt 0.437500 0.500000
vt 0.437500 1.000000
vt 0.375000 0.500000
vt 0.375000 1.000000
vt 0.312500 0.500000
vt 0.312500 1.000000
vt 0.250000 0.500000
vt 0.250000 1.000000
vt 0.187500 0.500000
vt 0.187500 1.000000
vt 0.125000 0.500000
vt 0.080294 0.080294
vt 0.419706 0.080294
vt 0.419706 0.419706
vt 0.125000 1.000000
vt 0.062500 0.500000
vt 0.062500 1.000000
vt 0.000000 0.500000
vt 0.841844 0.028269
vt 0.528269 0.158156
vt 0.658156 0.471731
vt 0.990000 0.250000
vt 0.971731 0.158156
vt 0.510000 0.250000
vt 0.528269 0.341844
vt 0.000000 1.000000
vt 0.625000 0.000000
vt 0.375000 0.000000
vt 0.625000 0.416667
vt 0.375000 0.416667
vt 0.375000 0.750000
vt 0.625000 0.916667
vt 0.375000 0.916667
vt 0.291667 0.750000
vt 0.291667 0.500000
vt 0.625000 0.333333
vt 0.375000 0.333333
vt 0.625000 0.250000
vt 0.625000 0.833333
vt 0.375000 0.833333
vt 0.625000 0.750000
vt 0.208333 0.750000
vt 0.208333 0.500000
vt 0.125000 0.750000
vt 0.791667 0.500000
vt 0.708333 0.750000
vt 0.708333 0.500000
vt 0.791667 0.625000
vt 0.875000 0.625000
vt 0.625000 0.244418
vt 0.625000 0.218750
vt 0.708333 0.625000
vt 0.625000 0.729167
vt 0.625000 0.625000
vt 0.625000 0.744418
vt 0.791667 0.718750
vt 0.708333 0.531250
vt 0.625000 0.520833
vt 0.625000 0.505582
vt 0.708333 0.718750
vt 0.791667 0.531250
vt 0.625000 0.062500
vt 0.490000 0.250000
vt 0.471731 0.341844
vt 0.471731 0.158156
vt 0.971731 0.341844
vt 0.010000 0.250000
vt 0.028269 0.158156
vt 0.028269 0.341844
vt 0.250000 0.490000
vt 0.042154 0.130000
vt 0.457846 0.130000
vt 0.833333 1.000000
vt 0.833333 0.500000
vt 0.500000 1.000000
vt 0.333333 0.500000
vt 0.500000 0.500000
vt 0.666667 0.500000
vt 0.957846 0.370000
vt 0.750000 0.010000
vt 0.542154 0.370000
vt 0.666667 1.000000
vt 0.166667 0.500000
vt -0.000000 1.000000
vt -0.000000 0.500000
vt 0.333333 1.000000
vt 0.341844 0.471731
vt 0.158156 0.471731
vt 0.080294 0.419706
vt 0.158156 0.028269
vt 0.250000 0.010000
vt 0.341844 0.028269
vt 0.750000 0.490000
vt 0.841844 0.471731
vt 0.919706 0.419706
vt 0.919706 0.080294
vt 0.658156 0.028269
vt 0.580294 0.080294
vt 0.580294 0.419706
vt 0.791667 0.750000
vt 0.875000 0.750000
vt 0.708333 0.516747
vt 0.708333 0.733253
vt 0.791667 0.733253
vt 0.791667 0.516747
vt 0.625000 0.016747
vt 0.625000 0.125000
vt 0.457846 0.370000
vt 0.042154 0.370000
vt 0.957846 0.130000
vt 0.542154 0.130000
vt 0.166667 1.000000
s 1
f 6/1/1 10/1/2 4/1/3
f 2/1/4 10/1/2 8/1/5
f 3/1/6 7/1/7 1/1/8
f 2/1/4 9/1/6 3/1/6
f 6/2/1 5/3/9 11/2/10
f 10/1/2 16/1/11 15/1/12
f 13/1/13 10/1/2 15/1/12
f 7/1/7 14/1/6 12/1/14
f 9/1/6 13/1/13 14/1/6
f 16/2/11 11/2/10 5/3/9
f 18/4/15 19/5/16 17/6/15
f 20/7/17 21/8/18 19/5/16
f 22/9/18 23/10/19 21/8/18
f 24/11/19 25/12/20 23/10/19
f 26/13/20 27/14/21 25/12/20
f 28/15/22 29/16/23 27/14/21
f 30/17/23 31/18/24 29/16/23
f 32/19/24 33/20/25 31/18/24
f 34/21/25 35/22/26 33/20/25
f 36/23/26 37/24/27 35/22/26
f 38/25/27 39/26/28 37/24/27
f 40/27/28 41/28/29 39/26/28
f 42/29/29 43/30/30 41/28/29
f 44/31/30 45/32/31 43/30/30
f 38/33/32 30/34/32 22/35/32
f 46/36/33 47/37/34 45/32/31
f 48/38/34 17/39/15 47/37/34
f 31/40/35 39/41/35 47/42/35
f 72/1/36 50/1/37 56/1/38
f 74/1/39 61/1/40 60/1/39
f 65/1/41 51/1/41 49/1/41
f 70/3/42 63/2/43 54/3/42
f 67/1/41 53/1/44 51/1/41
f 66/1/45 49/1/41 50/1/37
f 77/1/43 64/1/46 63/1/43
f 68/2/47 54/3/42 52/2/47
f 75/1/48 56/1/38 61/1/40
f 76/1/39 60/1/39 62/1/39
f 2/1/41 53/1/44 4/1/49
f 54/3/42 16/2/50 5/3/42
f 49/1/41 2/1/41 3/1/41
f 14/1/39 61/1/40 12/1/14
f 56/1/38 1/1/8 7/1/7
f 64/1/46 13/1/39 15/1/51
f 4/1/49 52/1/47 6/1/52
f 13/1/39 60/1/39 14/1/39
f 61/1/40 7/1/7 12/1/14
f 6/2/52 54/3/42 5/3/42
f 63/1/43 15/1/51 16/1/50
f 50/1/37 3/1/41 1/1/8
f 89/1/53 76/1/39 78/1/54
f 81/1/55 66/1/45 72/1/36
f 85/1/39 75/1/48 74/1/39
f 65/1/41 57/1/41 67/1/41
f 83/3/56 77/2/57 70/3/58
f 67/1/41 79/1/59 69/1/60
f 66/1/45 59/1/41 65/1/41
f 88/1/61 78/1/54 77/1/57
f 68/2/62 83/3/56 70/3/58
f 86/1/63 72/1/36 75/1/48
f 78/1/46 62/1/39 64/1/46
f 69/1/44 52/1/47 53/1/44
f 84/1/32 55/1/64 79/1/32
f 82/1/32 79/1/32 57/1/32
f 81/1/55 59/1/32 58/1/65
f 80/1/32 57/1/32 59/1/32
f 88/1/61 84/1/32 89/1/32
f 89/1/32 82/1/32 87/1/32
f 85/1/32 81/1/55 86/1/63
f 87/1/32 80/1/32 85/1/32
f 69/1/60 55/1/64 68/1/62
f 87/1/39 74/1/39 76/1/39
f 71/4/38 90/5/66 73/6/38
f 91/7/66 92/8/37 90/5/66
f 92/8/37 95/11/67 94/10/67
f 96/43/35 188/44/35 98/44/35
f 98/14/42 189/15/42 99/15/42
f 98/14/68 101/17/69 100/16/69
f 101/17/69 102/18/70 100/16/69
f 102/18/70 105/21/42 104/20/42
f 105/21/42 106/22/71 104/20/42
f 107/23/71 108/24/72 106/22/71
f 109/25/72 110/26/73 108/24/72
f 112/45/35 194/46/35 114/46/35
f 114/30/38 195/31/38 115/31/38
f 115/31/74 116/32/40 114/30/74
f 109/33/32 101/34/32 93/35/32
f 117/36/40 118/37/75 116/32/40
f 118/37/75 71/47/38 73/39/38
f 102/40/35 110/41/35 118/42/35
f 123/21/76 124/24/77 122/20/76
f 125/25/78 126/28/78 124/24/78
f 121/47/41 127/29/41 123/21/41
f 126/28/79 129/36/79 128/32/79
f 128/32/80 121/47/81 120/39/81
f 121/47/81 133/39/35 120/39/81
f 133/39/39 122/20/39 126/28/39
f 122/20/76 130/21/32 123/21/76
f 137/21/76 138/24/77 136/20/76
f 139/25/78 140/28/78 138/24/78
f 135/47/41 141/29/41 137/21/41
f 140/28/79 143/36/79 142/32/79
f 142/32/80 135/47/81 134/39/81
f 135/47/81 147/39/35 134/39/81
f 147/39/39 136/20/39 140/28/39
f 136/20/76 144/21/32 137/21/76
f 149/48/39 150/2/39 148/49/39
f 160/50/82 154/24/35 163/51/35
f 155/16/41 152/52/41 154/24/41
f 156/53/83 148/25/32 159/54/32
f 154/24/42 158/55/42 163/56/42
f 161/57/82 163/51/35 162/58/35
f 151/59/84 162/58/35 150/2/35
f 157/60/83 159/54/32 158/61/32
f 153/62/85 158/61/32 152/52/32
f 163/56/42 159/63/42 162/64/42
f 162/64/42 148/65/42 150/32/42
f 161/66/38 157/67/38 160/68/38
f 167/69/38 180/8/86 179/70/38
f 169/57/86 181/71/87 180/72/86
f 168/57/88 151/59/84 181/71/88
f 164/73/38 173/74/89 172/75/38
f 166/60/89 174/76/90 173/74/89
f 165/60/91 153/62/85 174/76/91
f 179/70/38 170/77/89 167/69/38
f 183/17/89 171/53/90 170/53/89
f 182/17/91 156/53/83 171/53/91
f 172/75/38 177/78/86 164/73/38
f 176/79/86 178/50/87 177/50/86
f 175/80/88 160/50/82 178/50/88
f 157/67/39 166/81/39 177/78/39
f 161/66/41 169/82/41 170/77/41
f 155/16/41 176/79/41 173/74/41
f 149/48/39 183/83/39 180/72/39
f 184/11/41 186/12/41 185/10/41
f 187/13/41 188/14/41 186/12/41
f 97/84/32 184/85/32 95/85/32
f 95/11/38 185/10/38 94/10/38
f 97/84/32 189/86/32 187/84/32
f 96/43/35 185/87/35 186/43/35
f 191/26/39 193/29/39 192/28/39
f 192/28/39 195/31/39 194/30/39
f 113/88/32 190/89/32 111/89/32
f 111/27/42 191/26/42 110/26/42
f 113/88/32 195/90/32 193/88/32
f 112/45/35 191/41/35 192/45/35
s 0
f 197/48/39 198/2/39 196/49/39
f 199/59/35 202/24/35 198/2/35
f 202/24/41 201/62/41 200/52/41
f 201/62/92 196/25/92 200/52/92
f 202/24/42 196/65/42 198/32/42
f 199/8/38 201/62/38 203/16/38
s 1
f 204/91/41 225/92/41 221/93/41
f 206/6/35 209/94/93 208/95/93
f 223/96/32 224/97/89 222/98/32
f 209/94/93 210/99/94 208/95/93
f 218/100/39 222/101/39 226/102/39
f 221/103/94 222/98/32 220/99/94
f 211/103/94 212/98/32 210/99/94
f 226/104/86 204/105/35 205/106/35
f 219/94/93 220/99/94 218/95/93
f 213/96/32 214/97/89 212/98/32
f 207/91/41 215/92/41 211/93/41
f 205/6/35 219/94/93 218/95/93
f 215/107/89 216/104/86 214/97/89
f 225/107/89 226/104/86 224/97/89
f 216/104/86 207/105/35 206/106/35
f 208/100/39 212/101/39 216/102/39
f 6/1/1 11/1/10 10/1/2
f 2/1/4 4/1/3 10/1/2
f 3/1/6 9/1/6 7/1/7
f 2/1/4 8/1/5 9/1/6
f 10/1/2 11/1/10 16/1/11
f 13/1/13 8/1/5 10/1/2
f 7/1/7 9/1/6 14/1/6
f 9/1/6 8/1/5 13/1/13
f 18/4/15 20/7/17 19/5/16
f 20/7/17 22/9/18 21/8/18
f 22/9/18 24/11/19 23/10/19
f 24/11/19 26/13/20 25/12/20
f 26/13/20 28/15/22 27/14/21
f 28/15/22 30/17/23 29/16/23
f 30/17/23 32/19/24 31/18/24
f 32/19/24 34/21/25 33/20/25
f 34/21/25 36/23/26 35/22/26
f 36/23/26 38/25/27 37/24/27
f 38/25/27 40/27/28 39/26/28
f 40/27/28 42/29/29 41/28/29
f 42/29/29 44/31/30 43/30/30
f 44/31/30 46/36/33 45/32/31
f 22/35/32 20/108/32 18/91/32
f 18/91/32 48/109/32 46/110/32
f 46/110/32 44/90/32 42/88/32
f 42/88/32 40/89/32 38/33/32
f 38/33/32 36/111/32 34/112/32
f 34/112/32 32/113/32 30/34/32
f 30/34/32 28/86/32 26/84/32
f 26/84/32 24/85/32 22/35/32
f 22/35/32 18/91/32 46/110/32
f 46/110/32 42/88/32 38/33/32
f 38/33/32 34/112/32 30/34/32
f 30/34/32 26/84/32 22/35/32
f 22/35/32 46/110/32 38/33/32
f 46/36/33 48/38/34 47/37/34
f 48/38/34 18/47/15 17/39/15
f 47/42/35 17/114/35 19/115/35
f 19/115/35 21/116/35 23/87/35
f 23/87/35 25/43/35 27/44/35
f 27/44/35 29/117/35 31/40/35
f 31/40/35 33/101/35 35/118/35
f 35/118/35 37/119/35 39/41/35
f 39/41/35 41/45/35 43/46/35
f 43/46/35 45/120/35 47/42/35
f 47/42/35 19/115/35 23/87/35
f 23/87/35 27/44/35 31/40/35
f 31/40/35 35/118/35 39/41/35
f 39/41/35 43/46/35 47/42/35
f 47/42/35 23/87/35 31/40/35
f 72/1/36 66/1/45 50/1/37
f 74/1/39 75/1/48 61/1/40
f 65/1/41 67/1/41 51/1/41
f 70/3/42 77/2/43 63/2/43
f 67/1/41 69/1/44 53/1/44
f 66/1/45 65/1/41 49/1/41
f 77/1/43 78/1/46 64/1/46
f 68/2/47 70/3/42 54/3/42
f 75/1/48 72/1/36 56/1/38
f 76/1/39 74/1/39 60/1/39
f 2/1/41 51/1/41 53/1/44
f 54/3/42 63/2/43 16/2/50
f 49/1/41 51/1/41 2/1/41
f 14/1/39 60/1/39 61/1/40
f 56/1/38 50/1/37 1/1/8
f 64/1/46 62/1/39 13/1/39
f 4/1/49 53/1/44 52/1/47
f 13/1/39 62/1/39 60/1/39
f 61/1/40 56/1/38 7/1/7
f 6/2/52 52/2/47 54/3/42
f 63/1/43 64/1/46 15/1/51
f 50/1/37 49/1/41 3/1/41
f 89/1/53 87/1/39 76/1/39
f 81/1/55 58/1/65 66/1/45
f 85/1/39 86/1/63 75/1/48
f 65/1/41 59/1/41 57/1/41
f 83/3/56 88/2/61 77/2/57
f 67/1/41 57/1/41 79/1/59
f 66/1/45 58/1/65 59/1/41
f 88/1/61 89/1/53 78/1/54
f 68/2/62 55/2/64 83/3/56
f 86/1/63 81/1/55 72/1/36
f 78/1/46 76/1/39 62/1/39
f 69/1/44 68/1/47 52/1/47
f 84/1/32 83/1/56 55/1/64
f 82/1/32 84/1/32 79/1/32
f 81/1/55 80/1/32 59/1/32
f 80/1/32 82/1/32 57/1/32
f 88/1/61 83/1/56 84/1/32
f 89/1/32 84/1/32 82/1/32
f 85/1/32 80/1/32 81/1/55
f 87/1/32 82/1/32 80/1/32
f 69/1/60 79/1/59 55/1/64
f 87/1/39 85/1/39 74/1/39
f 71/4/38 91/7/66 90/5/66
f 91/7/66 93/9/37 92/8/37
f 92/8/37 93/9/37 95/11/67
f 96/43/35 186/43/35 188/44/35
f 98/14/42 188/14/42 189/15/42
f 98/14/68 99/15/68 101/17/69
f 101/17/69 103/19/70 102/18/70
f 102/18/70 103/19/70 105/21/42
f 105/21/42 107/23/71 106/22/71
f 107/23/71 109/25/72 108/24/72
f 109/25/72 111/27/73 110/26/73
f 112/45/35 192/45/35 194/46/35
f 114/30/38 194/30/38 195/31/38
f 115/31/74 117/36/40 116/32/40
f 93/35/32 91/108/32 71/91/32
f 71/91/32 119/109/32 117/110/32
f 117/110/32 115/90/32 113/88/32
f 113/88/32 111/89/32 109/33/32
f 109/33/32 107/111/32 105/112/32
f 105/112/32 103/113/32 101/34/32
f 101/34/32 99/86/32 97/84/32
f 97/84/32 95/85/32 93/35/32
f 93/35/32 71/91/32 117/110/32
f 117/110/32 113/88/32 109/33/32
f 109/33/32 105/112/32 101/34/32
f 101/34/32 97/84/32 93/35/32
f 93/35/32 117/110/32 109/33/32
f 117/36/40 119/38/75 118/37/75
f 118/37/75 119/38/75 71/47/38
f 118/42/35 73/114/35 90/115/35
f 90/115/35 92/116/35 94/87/35
f 94/87/35 96/43/35 98/44/35
f 98/44/35 100/117/35 102/40/35
f 102/40/35 104/101/35 106/118/35
f 106/118/35 108/119/35 110/41/35
f 110/41/35 112/45/35 114/46/35
f 114/46/35 116/120/35 118/42/35
f 118/42/35 90/115/35 94/87/35
f 94/87/35 98/44/35 102/40/35
f 102/40/35 106/118/35 110/41/35
f 110/41/35 114/46/35 118/42/35
f 118/42/35 94/87/35 102/40/35
f 123/21/76 125/25/77 124/24/77
f 125/25/78 127/29/78 126/28/78
f 130/21/41 132/47/41 121/47/41
f 121/47/41 129/36/41 127/29/41
f 127/29/41 125/25/41 123/21/41
f 123/21/41 130/21/41 121/47/41
f 126/28/79 127/29/79 129/36/79
f 128/32/80 129/36/80 121/47/81
f 121/47/81 132/47/35 133/39/35
f 128/32/39 120/39/39 133/39/39
f 133/39/39 131/20/39 122/20/39
f 122/20/39 124/24/39 126/28/39
f 126/28/39 128/32/39 133/39/39
f 122/20/76 131/20/32 130/21/32
f 137/21/76 139/25/77 138/24/77
f 139/25/78 141/29/78 140/28/78
f 144/21/41 146/47/41 135/47/41
f 135/47/41 143/36/41 141/29/41
f 141/29/41 139/25/41 137/21/41
f 137/21/41 144/21/41 135/47/41
f 140/28/79 141/29/79 143/36/79
f 142/32/80 143/36/80 135/47/81
f 135/47/81 146/47/35 147/39/35
f 142/32/39 134/39/39 147/39/39
f 147/39/39 145/20/39 136/20/39
f 136/20/39 138/24/39 140/28/39
f 140/28/39 142/32/39 147/39/39
f 136/20/76 145/20/32 144/21/32
f 149/48/39 151/59/39 150/2/39
f 160/50/82 155/16/84 154/24/35
f 155/16/41 153/62/41 152/52/41
f 156/53/83 149/17/85 148/25/32
f 154/24/42 152/52/42 158/55/42
f 161/57/82 160/50/82 163/51/35
f 151/59/84 161/57/82 162/58/35
f 157/60/83 156/53/83 159/54/32
f 153/62/85 157/60/83 158/61/32
f 163/56/42 158/55/42 159/63/42
f 162/64/42 159/63/42 148/65/42
f 161/66/38 156/121/38 157/67/38
f 167/69/38 169/82/86 180/8/86
f 169/57/86 168/57/87 181/71/87
f 168/57/88 161/57/82 151/59/84
f 164/73/38 166/81/89 173/74/89
f 166/60/89 165/60/90 174/76/90
f 165/60/91 157/60/83 153/62/85
f 179/70/38 183/122/89 170/77/89
f 183/17/89 182/17/90 171/53/90
f 182/17/91 149/17/85 156/53/83
f 172/75/38 176/79/86 177/78/86
f 176/79/86 175/80/87 178/50/87
f 175/80/88 155/16/84 160/50/82
f 178/123/39 160/68/39 157/67/39
f 157/67/39 165/124/39 166/81/39
f 166/81/39 164/73/39 177/78/39
f 177/78/39 178/123/39 157/67/39
f 171/125/41 156/121/41 161/66/41
f 161/66/41 168/126/41 169/82/41
f 169/82/41 167/69/41 170/77/41
f 170/77/41 171/125/41 161/66/41
f 174/76/41 153/62/41 155/16/41
f 155/16/41 175/80/41 176/79/41
f 176/79/41 172/75/41 173/74/41
f 173/74/41 174/76/41 155/16/41
f 181/71/39 151/59/39 149/48/39
f 149/48/39 182/127/39 183/83/39
f 183/83/39 179/128/39 180/72/39
f 180/72/39 181/71/39 149/48/39
f 184/11/41 187/13/41 186/12/41
f 187/13/41 189/15/41 188/14/41
f 97/84/32 187/84/32 184/85/32
f 95/11/38 184/11/38 185/10/38
f 97/84/32 99/86/32 189/86/32
f 96/43/35 94/87/35 185/87/35
f 191/26/39 190/27/39 193/29/39
f 192/28/39 193/29/39 195/31/39
f 113/88/32 193/88/32 190/89/32
f 111/27/42 190/27/42 191/26/42
f 113/88/32 115/90/32 195/90/32
f 112/45/35 110/41/35 191/41/35
s 0
f 197/48/39 199/59/39 198/2/39
f 199/59/35 203/16/35 202/24/35
f 202/24/41 203/16/41 201/62/41
f 201/62/92 197/17/92 196/25/92
f 202/24/42 200/52/42 196/65/42
f 199/8/38 197/122/38 201/62/38
s 1
f 221/93/41 219/129/41 204/91/41
f 204/91/41 227/130/41 225/92/41
f 225/92/41 223/112/41 221/93/41
f 206/6/35 207/4/35 209/94/93
f 223/96/32 225/107/89 224/97/89
f 209/94/93 211/103/94 210/99/94
f 226/102/39 205/114/39 218/100/39
f 218/100/39 220/131/39 222/101/39
f 222/101/39 224/132/39 226/102/39
f 221/103/94 223/96/32 222/98/32
f 211/103/94 213/96/32 212/98/32
f 226/104/86 227/133/86 204/105/35
f 219/94/93 221/103/94 220/99/94
f 213/96/32 215/107/89 214/97/89
f 211/93/41 209/129/41 207/91/41
f 207/91/41 217/130/41 215/92/41
f 215/92/41 213/112/41 211/93/41
f 205/6/35 204/4/35 219/94/93
f 215/107/89 217/133/86 216/104/86
f 225/107/89 227/133/86 226/104/86
f 216/104/86 217/133/86 207/105/35
f 216/102/39 206/114/39 208/100/39
f 208/100/39 210/131/39 212/101/39
f 212/101/39 214/132/39 216/102/39
g Launcher_Base_Mesh
v 0.000000 -0.019704 -0.506000
v 0.000000 -0.158000 -0.506000
v 0.000000 -0.001493 -0.258423
v 0.000000 -0.073361 -0.281750
v 0.011525 -0.009726 -0.108329
v 0.000000 -0.009726 -0.108329
v 0.011525 0.022519 -0.154454
v 0.011525 -0.009726 -0.090317
v 0.000000 -0.009726 -0.090317
v 0.000000 0.031686 -0.119533
v 0.011525 0.031686 -0.119533
v 0.000000 0.038658 -0.113773
v 0.011525 0.038658 -0.113773
v 0.009210 -0.008764 0.004782
v 0.011525 0.017619 -0.022398
v 0.000000 0.041602 -0.101687
v 0.011525 0.041602 -0.101687
v 0.017287 0.017619 -0.079749
v 0.011525 -0.009726 -0.031169
v 0.000000 -0.009726 -0.031169
v 0.017287 0.017619 -0.024017
v 0.000000 0.017619 -0.022398
v 0.000000 -0.009726 0.004003
v 0.000000 0.043975 -0.082638
v 0.011525 0.043975 -0.082638
v -0.000009 0.006950 -0.079229
v 0.011516 0.010039 -0.079229
v 0.019953 0.018475 -0.079229
v 0.023041 0.030000 -0.079229
v 0.019953 0.041525 -0.079229
v 0.011516 0.049962 -0.079229
v -0.000009 0.053050 -0.079229
v -0.011533 0.049962 -0.079229
v -0.019970 0.041525 -0.079229
v -0.023058 0.030000 -0.079229
v -0.019970 0.018475 -0.079229
v -0.011533 0.010039 -0.079229
v -0.011004 0.010956 -0.082609
v -0.018602 0.019005 -0.082609
v -0.021999 0.030000 -0.082609
v -0.018602 0.040996 -0.082609
v -0.011004 0.049045 -0.082609
v -0.000009 0.051991 -0.082609
v 0.010987 0.049045 -0.082609
v 0.019036 0.040996 -0.082609
v 0.021982 0.030000 -0.082609
v 0.019036 0.019005 -0.082609
v 0.010987 0.010956 -0.082609
v -0.000009 0.008009 -0.082609
v -0.010132 0.012466 -0.085990
v -0.017543 0.019876 -0.085990
v -0.020256 0.030000 -0.085990
v -0.017543 0.040124 -0.085990
v -0.010132 0.047535 -0.085990
v -0.000009 0.050248 -0.085990
v 0.010115 0.047535 -0.085990
v 0.017526 0.040124 -0.085990
v 0.020239 0.030000 -0.085990
v 0.017526 0.019876 -0.085990
v 0.010115 0.012466 -0.085990
v -0.000009 0.009753 -0.085990
v -0.008403 0.015460 -0.089370
v -0.014549 0.021605 -0.089370
v -0.016798 0.030000 -0.089370
v -0.014549 0.038395 -0.089370
v -0.008403 0.044540 -0.089370
v -0.000009 0.046790 -0.089370
v 0.008386 0.044540 -0.089370
v 0.014531 0.038395 -0.089370
v 0.016781 0.030000 -0.089370
v 0.014531 0.021605 -0.089370
v 0.008386 0.015460 -0.089370
v -0.000009 0.013211 -0.089370
v -0.006098 0.019453 -0.092751
v -0.010556 0.023910 -0.092751
v -0.012188 0.030000 -0.092751
v -0.010556 0.036090 -0.092751
v -0.006098 0.040548 -0.092751
v -0.000009 0.042179 -0.092751
v 0.006081 0.040548 -0.092751
v 0.010539 0.036090 -0.092751
v 0.012171 0.030000 -0.092751
v 0.010539 0.023910 -0.092751
v 0.006081 0.019453 -0.092751
v -0.000009 0.017821 -0.092751
v -0.000009 0.030000 -0.095219
v -0.000009 0.030000 -0.095219
v -0.000009 0.030000 -0.095219
v -0.000009 0.030000 -0.095219
v -0.000009 0.030000 -0.095219
v -0.000009 0.030000 -0.095219
v -0.000009 0.030000 -0.095219
v -0.000009 0.030000 -0.095219
v -0.000009 0.030000 -0.095219
v -0.000009 0.030000 -0.095219
v -0.000009 0.030000 -0.095219
v -0.000009 0.030000 -0.095219
v 0.011525 -0.006443 0.005857
v 0.011525 0.011439 0.007653
v 0.011525 0.003369 0.009810
v 0.011525 0.017619 -0.001611
v 0.000000 -0.045576 -0.139798
v 0.000000 -0.027911 -0.142235
v 0.000000 -0.033089 -0.142945
v 0.000000 -0.039078 -0.142539
v 0.000000 -0.022936 -0.139088
v 0.000000 -0.011061 -0.122762
v 0.002305 -0.045576 -0.139798
v 0.002305 -0.027911 -0.142235
v 0.002305 -0.033089 -0.142945
v 0.002305 -0.039078 -0.142539
v 0.002305 -0.022936 -0.139088
v 0.002305 -0.011061 -0.122762
v 0.000000 -0.022006 -0.145233
v 0.000000 -0.016426 -0.153767
v 0.000000 -0.025640 -0.144209
v 0.000000 -0.033004 -0.145400
v 0.000000 -0.039646 -0.144929
v 0.000000 -0.045822 -0.140243
v 0.002305 -0.022006 -0.145233
v 0.002305 -0.016426 -0.153767
v 0.002305 -0.025640 -0.144209
v 0.002305 -0.033004 -0.145400
v 0.002305 -0.039646 -0.144929
v 0.002305 -0.045822 -0.140243
v 0.000000 -0.012387 -0.124861
v 0.004264 -0.019096 -0.108211
v 0.000000 -0.014747 -0.114263
v 0.000000 -0.019096 -0.108211
v 0.000000 -0.025035 -0.104954
v 0.000000 -0.032338 -0.104932
v 0.000000 -0.038613 -0.109232
v 0.000000 -0.042755 -0.117394
v 0.000000 -0.047628 -0.136764
v 0.000000 -0.049577 -0.157596
v 0.000000 -0.046454 -0.167363
v 0.000000 -0.037530 -0.174255
v 0.000000 -0.035154 -0.175894
v 0.004264 -0.014747 -0.114263
v 0.004264 -0.012387 -0.124861
v 0.000000 -0.030451 -0.180621
v 0.000000 -0.026106 -0.188060
v 0.004264 -0.025035 -0.104954
v 0.004264 -0.032338 -0.104932
v 0.004264 -0.038613 -0.109232
v 0.004264 -0.042755 -0.117394
v 0.004264 -0.047628 -0.136764
v 0.004264 -0.049577 -0.157596
v 0.004264 -0.046454 -0.167363
v 0.004264 -0.037530 -0.174255
v 0.004264 -0.035154 -0.175894
v 0.004264 -0.030451 -0.180621
v 0.004264 -0.026106 -0.188060
v 0.004264 -0.017545 -0.106460
v 0.004264 -0.024451 -0.102689
v 0.000000 -0.010104 -0.124352
v 0.000000 -0.012613 -0.113307
v 0.000000 -0.017545 -0.106460
v 0.000000 -0.024451 -0.102689
v 0.000000 -0.033027 -0.102696
v 0.000000 -0.040372 -0.107690
v 0.000000 -0.044946 -0.116575
v 0.000000 -0.049933 -0.136369
v 0.000000 -0.051913 -0.157726
v 0.000000 -0.048508 -0.168482
v 0.000000 -0.040161 -0.175455
v 0.000000 -0.035948 -0.178111
v 0.004264 -0.012613 -0.113307
v 0.004264 -0.010104 -0.124352
v 0.000000 -0.032375 -0.181951
v 0.000000 -0.028225 -0.189052
v 0.004264 -0.033027 -0.102696
v 0.004264 -0.040372 -0.107690
v 0.004264 -0.044946 -0.116575
v 0.004264 -0.049933 -0.136369
v 0.004264 -0.051913 -0.157726
v 0.004264 -0.048508 -0.168482
v 0.004264 -0.040161 -0.175455
v 0.004264 -0.035948 -0.178111
v 0.004264 -0.032375 -0.181951
v 0.004264 -0.028225 -0.189052
v 0.000000 -0.030509 -0.173035
v 0.000000 -0.029896 -0.174820
v 0.004264 -0.030509 -0.173035
v 0.004264 -0.029896 -0.174820
v 0.000000 -0.025781 -0.170531
v 0.000000 -0.025168 -0.172316
v 0.004264 -0.025781 -0.170531
v 0.004264 -0.025168 -0.172316
v 0.000000 -0.020204 -0.166000
v 0.000000 -0.019590 -0.167785
v 0.004264 -0.020204 -0.166000
v 0.004264 -0.019590 -0.167785
v 0.000000 -0.028575 -0.266527
v 0.000000 -0.053192 -0.231851
v 0.000000 -0.029898 -0.190851
v 0.000000 -0.004115 -0.229404
v 0.000000 0.007229 -0.198207
v 0.000000 -0.018596 -0.159762
v 0.000000 0.022519 -0.154454
v 0.011525 -0.040881 -0.249185
v 0.000000 -0.073624 -0.286858
v 0.011525 -0.017004 -0.210122
v 0.011525 -0.007362 -0.193914
v 0.003013 -0.028891 -0.266289
v 0.011525 -0.034364 -0.258481
v 0.009032 -0.030494 -0.264002
v 0.003013 -0.065369 -0.296048
v 0.003013 -0.054358 -0.296089
v 0.011525 -0.060292 -0.288863
v 0.003013 -0.059780 -0.298905
v 0.007927 -0.059963 -0.296921
v 0.009032 -0.056190 -0.293824
v 0.009032 -0.063976 -0.293796
v 0.011525 -0.047163 -0.240221
v 0.003013 -0.052870 -0.232080
v 0.009032 -0.051198 -0.234465
v 0.003013 -0.081272 -0.277159
v 0.011525 -0.074809 -0.271621
v 0.003013 -0.081137 -0.264254
v 0.009032 -0.079389 -0.275525
v 0.007928 -0.081956 -0.270877
v 0.009013 -0.079455 -0.266586
v 0.003013 -0.083503 -0.270682
v 0.000000 -0.054114 -0.296400
v 0.000000 -0.065615 -0.296358
v 0.000000 -0.059877 -0.299152
v 0.000000 -0.081617 -0.277354
v 0.000000 -0.081477 -0.264051
v 0.000000 -0.083899 -0.270678
v 0.011525 -0.023930 -0.199565
v 0.003013 -0.029539 -0.191017
v 0.009032 -0.027896 -0.193521
v 0.003013 -0.004469 -0.229227
v 0.011525 -0.009810 -0.221086
v 0.009032 -0.006033 -0.226842
v 0.003013 0.006857 -0.198072
v 0.011525 -0.000718 -0.195857
v 0.009032 0.004638 -0.197423
v 0.011525 -0.014071 -0.172860
v 0.003013 -0.018213 -0.159862
v 0.009032 -0.017000 -0.163670
v 0.003013 -0.009726 -0.108329
v 0.011525 -0.008810 -0.141467
v 0.009032 -0.009458 -0.118035
v 0.011525 0.006551 -0.175541
v 0.003013 0.022519 -0.154454
v 0.009032 0.017842 -0.160630
v 0.011525 -0.067677 -0.280093
v 0.003013 -0.073321 -0.286603
v 0.009032 -0.071668 -0.284696
v 0.000000 -0.004151 -0.211343
v 0.015843 0.021955 -0.155199
v 0.017287 0.021651 -0.152434
v 0.017287 -0.003318 -0.090289
v 0.016001 -0.006091 -0.094336
v 0.017287 -0.001135 -0.178663
v 0.015983 -0.003704 -0.185767
v 0.015667 0.031686 -0.119533
v 0.017287 0.030503 -0.118592
v 0.015667 0.038658 -0.113773
v 0.017287 0.037237 -0.113011
v 0.015667 0.041602 -0.101687
v 0.017287 0.040078 -0.101316
v 0.015999 -0.006093 -0.031169
v 0.017287 -0.003314 -0.031169
v 0.011525 -0.005344 -0.023866
v 0.011525 -0.002376 -0.022398
v 0.015998 -0.001712 -0.023866
v 0.017287 0.000983 -0.024017
v 0.015667 0.000987 -0.022398
v 0.015667 0.017619 -0.022398
v 0.017287 0.042443 -0.082303
v 0.015667 0.043975 -0.082638
v 0.000000 -0.008764 0.004782
v 0.000000 -0.006443 0.005857
v 0.000000 0.011439 0.007653
v 0.000000 0.003369 0.009810
v 0.000000 0.017619 -0.001611
v 0.003459 -0.019704 -0.506000
v 0.007745 -0.023909 -0.506000
v 0.006490 -0.020936 -0.506000
v 0.007745 -0.153419 -0.506000
v 0.003459 -0.158000 -0.506000
v 0.006490 -0.156658 -0.506000
v 0.003459 -0.001493 -0.258423
v 0.007745 -0.005798 -0.259820
v 0.006490 -0.002754 -0.258832
v 0.003459 -0.073361 -0.281750
v 0.007745 -0.065925 -0.274185
v 0.006490 -0.071183 -0.279534
v 0.007745 -0.008294 -0.215557
v 0.003459 -0.004151 -0.211343
v 0.006490 -0.005365 -0.212578
v 0.000000 0.048972 -0.097458
v 0.004680 0.048972 -0.097458
v 0.004680 0.041428 -0.097458
v 0.000000 0.047457 -0.108469
v 0.004680 0.047457 -0.108469
v 0.004680 0.039913 -0.108469
v 0.000000 0.045100 -0.129380
v 0.002064 0.045100 -0.129380
v 0.002064 0.032770 -0.129522
v 0.000000 0.046092 -0.135381
v 0.002064 0.046092 -0.135381
v 0.002064 0.033047 -0.139229
v 0.000000 0.045592 -0.138524
v 0.002064 0.045592 -0.138524
v 0.000000 0.043314 -0.140953
v 0.002064 0.043314 -0.140953
v 0.000000 0.033047 -0.139229
v 0.000000 0.039885 -0.142668
v 0.002064 0.039885 -0.142668
v 0.010286 -0.000003 -0.003303
v 0.012744 -0.000003 -0.003303
v 0.010286 -0.002338 -0.002335
v 0.012744 -0.002338 -0.002335
v 0.010286 -0.003306 0.000000
v 0.012744 -0.003306 0.000000
v 0.010286 -0.002338 0.002336
v 0.012744 -0.002338 0.002336
v 0.010286 -0.000003 0.003304
v 0.012744 -0.000003 0.003304
v 0.010286 0.002333 0.002336
v 0.012744 0.002333 0.002336
v 0.010286 0.003301 0.000000
v 0.012744 0.003301 0.000000
v 0.010286 0.002333 -0.002335
v 0.012744 0.002333 -0.002335
v 0.000000 0.017619 -0.079749
v 0.000000 0.034618 -0.082638
v -0.011525 -0.009726 -0.108329
v -0.011525 0.022519 -0.154454
v -0.011525 -0.009726 -0.090317
v -0.011525 0.031686 -0.119533
v -0.011525 0.038658 -0.113773
v -0.009210 -0.008764 0.004782
v -0.011525 0.017619 -0.022398
v -0.011525 0.041602 -0.101687
v -0.017287 0.017619 -0.079749
v -0.011525 -0.009726 -0.031169
v -0.017287 0.017619 -0.024017
v -0.011525 0.043975 -0.082638
v -0.011525 -0.006443 0.005857
v -0.011525 0.011439 0.007653
v -0.011525 0.003369 0.009810
v -0.011525 0.017619 -0.001611
v -0.002305 -0.045576 -0.139798
v -0.002305 -0.027911 -0.142235
v -0.002305 -0.033089 -0.142945
v -0.002305 -0.039078 -0.142539
v -0.002305 -0.022936 -0.139088
v -0.002305 -0.011061 -0.122762
v -0.002305 -0.022006 -0.145233
v -0.002305 -0.016426 -0.153767
v -0.002305 -0.025640 -0.144209
v -0.002305 -0.033004 -0.145400
v -0.002305 -0.039646 -0.144929
v -0.002305 -0.045822 -0.140243
v -0.004264 -0.019096 -0.108211
v -0.004264 -0.014747 -0.114263
v -0.004264 -0.012387 -0.124861
v -0.004264 -0.025035 -0.104954
v -0.004264 -0.032338 -0.104932
v -0.004264 -0.038613 -0.109232
v -0.004264 -0.042755 -0.117394
v -0.004264 -0.047628 -0.136764
v -0.004264 -0.049577 -0.157596
v -0.004264 -0.046454 -0.167363
v -0.004264 -0.037530 -0.174255
v -0.004264 -0.035154 -0.175894
v -0.004264 -0.030451 -0.180621
v -0.004264 -0.026106 -0.188060
v -0.004264 -0.017545 -0.106460
v -0.004264 -0.024451 -0.102689
v -0.004264 -0.012613 -0.113307
v -0.004264 -0.010104 -0.124352
v -0.004264 -0.033027 -0.102696
v -0.004264 -0.040372 -0.107690
v -0.004264 -0.044946 -0.116575
v -0.004264 -0.049933 -0.136369
v -0.004264 -0.051913 -0.157726
v -0.004264 -0.048508 -0.168482
v -0.004264 -0.040161 -0.175455
v -0.004264 -0.035948 -0.178111
v -0.004264 -0.032375 -0.181951
v -0.004264 -0.028225 -0.189052
v -0.004264 -0.030509 -0.173035
v -0.004264 -0.029896 -0.174820
v -0.004264 -0.025781 -0.170531
v -0.004264 -0.025168 -0.172316
v -0.004264 -0.020204 -0.166000
v -0.004264 -0.019590 -0.167785
v -0.011525 -0.040881 -0.249185
v -0.011525 -0.017004 -0.210122
v -0.011525 -0.007362 -0.193914
v -0.003013 -0.028891 -0.266289
v -0.011525 -0.034364 -0.258481
v -0.009032 -0.030494 -0.264002
v -0.003013 -0.065369 -0.296048
v -0.003013 -0.054358 -0.296089
v -0.011525 -0.060292 -0.288863
v -0.003013 -0.059780 -0.298905
v -0.007927 -0.059963 -0.296921
v -0.009032 -0.056190 -0.293824
v -0.009032 -0.063976 -0.293796
v -0.011525 -0.047163 -0.240221
v -0.003013 -0.052870 -0.232080
v -0.009032 -0.051198 -0.234465
v -0.003013 -0.081272 -0.277159
v -0.011525 -0.074809 -0.271621
v -0.003013 -0.081137 -0.264254
v -0.009032 -0.079389 -0.275525
v -0.007928 -0.081956 -0.270877
v -0.009013 -0.079455 -0.266586
v -0.003013 -0.083503 -0.270682
v -0.011525 -0.023930 -0.199565
v -0.003013 -0.029539 -0.191017
v -0.009032 -0.027896 -0.193521
v -0.003013 -0.004469 -0.229227
v -0.011525 -0.009810 -0.221086
v -0.009032 -0.006033 -0.226842
v -0.003013 0.006857 -0.198072
v -0.011525 -0.000718 -0.195857
v -0.009032 0.004638 -0.197423
v -0.011525 -0.014071 -0.172860
v -0.003013 -0.018213 -0.159862
v -0.009032 -0.017000 -0.163670
v -0.003013 -0.009726 -0.108329
v -0.011525 -0.008810 -0.141467
v -0.009032 -0.009458 -0.118035
v -0.011525 0.006551 -0.175541
v -0.003013 0.022519 -0.154454
v -0.009032 0.017842 -0.160630
v -0.011525 -0.067677 -0.280093
v -0.003013 -0.073321 -0.286603
v -0.009032 -0.071668 -0.284696
v -0.015843 0.021955 -0.155199
v -0.017287 0.021651 -0.152434
v -0.017287 -0.003318 -0.090289
v -0.016001 -0.006091 -0.094336
v -0.017287 -0.001135 -0.178663
v -0.015983 -0.003704 -0.185767
v -0.015667 0.031686 -0.119533
v -0.017287 0.030503 -0.118592
v -0.015667 0.038658 -0.113773
v -0.017287 0.037237 -0.113011
v -0.015667 0.041602 -0.101687
v -0.017287 0.040078 -0.101316
v -0.015999 -0.006093 -0.031169
v -0.017287 -0.003314 -0.031169
v -0.011525 -0.005344 -0.023866
v -0.011525 -0.002376 -0.022398
v -0.015998 -0.001712 -0.023866
v -0.017287 0.000983 -0.024017
v -0.015667 0.000987 -0.022398
v -0.015667 0.017619 -0.022398
v -0.017287 0.042443 -0.082303
v -0.015667 0.043975 -0.082638
v -0.003459 -0.019704 -0.506000
v -0.007745 -0.023909 -0.506000
v -0.006490 -0.020936 -0.506000
v -0.007745 -0.153419 -0.506000
v -0.003459 -0.158000 -0.506000
v -0.006490 -0.156658 -0.506000
v -0.003459 -0.001493 -0.258423
v -0.007745 -0.005798 -0.259820
v -0.006490 -0.002754 -0.258832
v -0.003459 -0.073361 -0.281750
v -0.007745 -0.065925 -0.274185
v -0.006490 -0.071183 -0.279534
v -0.007745 -0.008294 -0.215557
v -0.003459 -0.004151 -0.211343
v -0.006490 -0.005365 -0.212578
v -0.004680 0.048972 -0.097458
v -0.004680 0.041428 -0.097458
v -0.004680 0.047457 -0.108469
v -0.004680 0.039913 -0.108469
v -0.002064 0.045100 -0.129380
v -0.002064 0.032770 -0.129522
v -0.002064 0.046092 -0.135381
v -0.002064 0.033047 -0.139229
v -0.002064 0.045592 -0.138524
v -0.002064 0.043314 -0.140953
v -0.002064 0.039885 -0.142668
v -0.010286 -0.000003 -0.003303
v -0.012744 -0.000003 -0.003303
v -0.010286 -0.002338 -0.002335
v -0.012744 -0.002338 -0.002335
v -0.010286 -0.003306 0.000000
v -0.012744 -0.003306 0.000000
v -0.010286 -0.002338 0.002336
v -0.012744 -0.002338 0.002336
v -0.010286 -0.000003 0.003304
v -0.012744 -0.000003 0.003304
v -0.010286 0.002333 0.002336
v -0.012744 0.002333 0.002336
v -0.010286 0.003301 0.000000
v -0.012744 0.003301 0.000000
v -0.010286 0.002333 -0.002335
v -0.012744 0.002333 -0.002335
v -0.010000 0.035000 -0.080000
v -0.010000 0.055000 -0.080000
v -0.010000 0.035000 -0.105000
v -0.010000 0.055000 -0.105000
v 0.010000 0.035000 -0.080000
v 0.010000 0.055000 -0.080000
v 0.010000 0.035000 -0.105000
v 0.010000 0.055000 -0.105000
vn 0.1857 -0.9193 0.3470
vn -0.0000 -0.6903 0.7235
vn -0.0000 -0.9356 0.3531
vn -0.0000 0.9984 0.0564
vn 0.1822 0.9809 -0.0687
vn -0.0000 0.9973 -0.0729
vn -0.0000 -0.0000 -1.0000
vn -0.0000 0.9973 -0.0734
vn 0.1930 0.9785 -0.0720
vn 0.0216 0.9037 -0.4277
vn 0.3918 0.7794 -0.4889
vn 0.4356 0.7798 -0.4497
vn 0.7598 -0.6241 0.1821
vn 0.3344 -0.9424 -0.0000
vn 0.7932 -0.6090 -0.0054
vn 0.9017 -0.0074 -0.4323
vn 0.6458 -0.7632 -0.0202
vn 0.6567 -0.7539 -0.0208
vn -0.0000 0.9672 -0.2539
vn -0.0000 0.8427 -0.5384
vn 0.8855 0.4359 -0.1609
vn 0.9765 -0.2156 -0.0011
vn 0.9887 -0.0354 -0.1458
vn 0.8945 0.3760 -0.2418
vn 0.9154 0.3961 -0.0719
vn 0.2677 0.7444 -0.6118
vn 0.3538 -0.9352 -0.0170
vn -0.0000 -1.0000 -0.0000
vn -0.0000 0.9836 -0.1804
vn 0.3567 0.7932 -0.4936
vn -0.0000 0.8474 -0.5309
vn -0.0000 0.8475 -0.5309
vn 0.3815 0.9173 -0.1142
vn 0.3700 0.9137 -0.1681
vn 0.9443 0.2755 -0.1801
vn 0.9440 0.3281 0.0350
vn 0.3542 0.8871 0.2961
vn 0.4034 -0.1395 0.9043
vn 0.2970 0.6306 0.7170
vn 0.9652 -0.2479 0.0833
vn 0.7275 0.6759 0.1176
vn 0.9058 -0.1458 0.3977
vn 0.5110 -0.6294 0.5854
vn 0.5283 -0.8446 0.0868
vn -0.0000 0.9923 -0.1236
vn -0.7482 -0.4374 0.4990
vn -0.9267 -0.0000 -0.3759
vn -0.7878 -0.4823 -0.3830
vn -0.4309 -0.7280 0.5332
vn -0.4751 -0.7961 -0.3749
vn -0.7482 0.4374 0.4990
vn -0.8442 -0.0000 0.5360
vn -0.4309 0.7280 0.5332
vn -0.7878 0.4823 -0.3830
vn -0.0000 0.9270 -0.3751
vn -0.4751 0.7961 -0.3749
vn 0.4221 0.7311 0.5360
vn -0.0000 0.8443 0.5359
vn 0.7311 0.4221 0.5360
vn 0.4635 0.8028 -0.3752
vn 0.8442 -0.0000 0.5360
vn 0.8028 0.4635 -0.3752
vn 0.4221 -0.7311 0.5360
vn -0.0000 -0.9270 -0.3751
vn 0.4635 -0.8028 -0.3752
vn -0.0000 -0.8443 0.5359
vn 0.7311 -0.4221 0.5360
vn 0.8028 -0.4635 -0.3752
vn 0.9270 -0.0000 -0.3752
vn -0.0000 0.8132 -0.5820
vn -0.4132 0.7031 -0.5787
vn -0.7246 0.4220 -0.5449
vn 0.8132 -0.0000 -0.5820
vn 0.7042 0.4066 -0.5820
vn 0.4066 0.7042 -0.5820
vn -0.7246 -0.4220 -0.5449
vn -0.4132 -0.7031 -0.5787
vn 0.7042 -0.4066 -0.5820
vn -0.0000 -0.8132 -0.5820
vn 0.4066 -0.7042 -0.5820
vn -0.8132 -0.0000 -0.5820
vn -0.0000 0.6535 -0.7569
vn 0.5660 -0.3268 -0.7569
vn 0.6535 -0.0000 -0.7569
vn -0.0000 -0.6535 -0.7569
vn 0.3268 -0.5660 -0.7569
vn -0.5660 0.3268 -0.7569
vn -0.6535 -0.0000 -0.7569
vn -0.3268 0.5660 -0.7569
vn 0.5660 0.3268 -0.7569
vn -0.5660 -0.3268 -0.7569
vn 0.3268 0.5660 -0.7569
vn -0.3268 -0.5660 -0.7569
vn -0.3754 -0.2167 -0.9012
vn -0.2167 -0.3753 -0.9012
vn -0.0000 0.4335 -0.9012
vn 0.3754 -0.2167 -0.9012
vn 0.4334 -0.0000 -0.9012
vn -0.0000 -0.4334 -0.9012
vn 0.2167 -0.3753 -0.9012
vn -0.3753 0.2168 -0.9012
vn -0.4334 -0.0000 -0.9012
vn 0.3754 0.2167 -0.9012
vn -0.2167 0.3753 -0.9012
vn 0.2167 0.3753 -0.9012
vn -0.0088 0.9866 -0.1629
vn 0.0088 0.9866 -0.1629
vn -0.0240 0.9866 -0.1615
vn 0.0083 0.9882 -0.1530
vn -0.0083 0.9882 -0.1530
vn 0.0322 0.9867 -0.1591
vn 0.0317 0.9872 -0.1564
vn 0.0240 0.9866 -0.1615
vn -0.0317 0.9872 -0.1564
vn -0.0322 0.9867 -0.1591
vn -0.0229 0.9878 -0.1542
vn 0.0229 0.9878 -0.1542
vn -0.0000 -0.0343 0.9994
vn -0.0000 -0.3431 0.9393
vn -0.0000 0.3887 0.9214
vn -0.0000 0.2313 0.9729
vn -0.0000 -0.6838 0.7296
vn -0.0000 -0.8087 0.5882
vn -0.0000 -0.0344 0.9994
vn -0.0000 -0.0571 -0.9984
vn -0.0000 0.0447 -0.9990
vn -0.0000 -0.3522 -0.9359
vn -0.0000 -0.6044 -0.7966
vn -0.0000 -0.8370 -0.5472
vn -0.0000 -0.5917 -0.8062
vn 1.0000 -0.0000 -0.0000
vn -1.0000 -0.0000 -0.0000
vn -0.0000 0.9854 -0.1705
vn -0.0000 -0.8748 0.4844
vn -0.0000 -0.8749 0.4844
vn -0.0000 -0.8748 0.4845
vn -0.0000 0.7926 0.6097
vn -0.0000 0.8635 0.5043
vn -0.0000 0.9856 -0.1691
vn -0.0000 0.9942 0.1079
vn -0.0000 -0.9761 -0.2174
vn -0.0000 -0.9126 -0.4088
vn -0.0000 0.8189 0.5739
vn -0.0000 -0.6629 -0.7487
vn -0.0000 0.6113 0.7914
vn -0.0000 -0.2497 -0.9683
vn -0.0000 0.2945 -0.9557
vn -0.0000 0.7520 -0.6592
vn -0.0000 0.9366 -0.3504
vn -0.0000 0.7089 0.7053
vn -0.0000 -0.8634 -0.5046
vn -0.0000 -0.8026 -0.5965
vn -0.0000 -0.9943 -0.1069
vn -0.0000 -0.9856 0.1688
vn -0.0000 0.9115 0.4113
vn -0.0000 0.9752 0.2215
vn -0.0000 -0.8306 -0.5569
vn -0.0000 0.6617 0.7497
vn -0.0000 -0.5885 -0.8085
vn -0.0000 0.2469 0.9690
vn -0.0000 0.6618 0.7497
vn -0.0000 -0.6380 -0.7700
vn -0.0000 -0.2946 0.9556
vn -0.0000 -0.7488 0.6628
vn -0.0000 -0.2945 0.9556
vn -0.0000 -0.9355 0.3533
vn -0.0000 0.2177 -0.9760
vn -0.0000 0.2176 -0.9760
vn -0.0000 0.4239 -0.9057
vn -0.0000 -0.3237 0.9462
vn -0.0000 -0.5519 0.8339
vn -0.0000 0.2000 -0.9798
vn -0.0000 0.3375 -0.9413
vn -0.0000 -0.1713 0.9852
vn -0.0000 0.5519 -0.8339
vn -0.0000 0.6305 -0.7762
vn -0.0000 0.9457 0.3250
vn -0.0000 0.9457 0.3249
vn -0.0000 -0.6305 0.7762
vn 0.4477 -0.8927 0.0527
vn 0.9577 -0.2865 0.0254
vn -0.0000 -0.9996 0.0269
vn 0.6470 0.7297 0.2210
vn 0.2503 -0.6053 -0.7556
vn -0.0000 -0.7650 -0.6441
vn -0.0000 -0.6146 -0.7888
vn 0.2626 -0.8784 0.3993
vn -0.0000 -0.9674 0.2533
vn -0.0000 -0.9078 0.4193
vn 0.9692 -0.2459 -0.0091
vn 0.9808 -0.1492 -0.1256
vn 0.9860 -0.1339 0.0994
vn 0.9838 -0.1606 0.0798
vn -0.0000 0.7992 -0.6011
vn 0.2560 0.8606 -0.4402
vn 0.2692 0.7677 -0.5815
vn 0.2444 0.9127 -0.3274
vn -0.0000 0.9413 -0.3376
vn 0.1142 0.9350 -0.3357
vn 0.9765 0.1964 -0.0887
vn 0.2596 -0.8214 0.5078
vn -0.0000 -0.8146 0.5800
vn -0.0000 -0.8595 0.5111
vn 0.9779 0.1967 -0.0706
vn 0.9805 -0.1869 0.0600
vn 0.8872 -0.4552 0.0753
vn 0.9289 0.3486 -0.1251
vn -0.0000 0.9419 -0.3358
vn 0.2714 0.6063 -0.7474
vn -0.0000 0.6180 -0.7862
vn 0.2432 -0.8373 -0.4898
vn -0.0000 -0.8702 -0.4927
vn 0.0835 -0.9824 0.1672
vn -0.0000 -0.9855 0.1700
vn 0.6398 -0.0034 -0.7686
vn 0.7236 -0.4101 -0.5552
vn 0.2269 0.0053 -0.9739
vn 0.7429 0.3954 -0.5401
vn 0.9715 -0.0077 -0.2369
vn 0.5849 -0.8111 0.0016
vn 0.2132 -0.9769 0.0134
vn 0.7008 -0.6233 -0.3470
vn 0.7215 -0.6010 0.3438
vn -0.0000 -0.9999 0.0105
vn 0.7429 -0.5453 0.3884
vn 0.2777 -0.7851 0.5536
vn 0.2589 -0.7387 -0.6223
vn 0.7069 -0.5407 -0.4560
vn 0.7151 0.5585 -0.4205
vn 0.9814 0.1550 -0.1135
vn -0.0000 -0.0191 -0.9998
vn 0.6916 0.6465 -0.3219
vn 0.7212 -0.6287 0.2910
vn 0.6872 0.6834 -0.2463
vn 0.6689 -0.7195 0.1867
vn 0.2280 -0.9454 0.2329
vn 0.3451 -0.9261 0.1526
vn 0.4391 0.8456 -0.3036
vn -0.0000 -0.9996 -0.0276
vn -0.0000 0.7972 -0.6037
vn 0.4096 0.7273 -0.5507
vn 0.6527 -0.4894 0.5784
vn 0.2485 -0.3061 0.9190
vn 0.9226 0.3828 -0.0476
vn -0.0000 -0.0609 0.9981
vn -0.0000 -0.3971 0.9178
vn -0.0000 -0.3900 0.9208
vn 0.7540 0.6287 0.1905
vn -0.0000 0.5826 0.8128
vn -0.0000 -0.4324 0.9017
vn -0.0000 -0.5288 0.8488
vn -0.0000 -0.6293 0.7772
vn 0.9936 -0.0958 0.0604
vn 0.9762 0.0725 -0.2044
vn 0.9986 0.0085 -0.0520
vn 0.9810 0.1840 0.0612
vn 0.6526 0.7559 -0.0521
vn 0.7105 0.7018 -0.0516
vn 0.1593 -0.7565 0.6343
vn 0.6580 -0.7045 0.2659
vn 0.8396 -0.5082 0.1918
vn 0.9868 -0.1565 0.0421
vn 0.5964 0.8014 0.0452
vn 0.9984 -0.0000 -0.0573
vn -0.0000 0.9907 -0.1363
vn -0.0000 0.9923 -0.1242
vn 0.9975 0.0002 -0.0707
vn 0.9981 0.0006 -0.0615
vn -0.0000 0.9998 0.0206
vn -0.0000 0.9997 0.0258
vn 0.9985 0.0006 -0.0549
vn -0.0000 1.0000 0.0031
vn -0.0000 0.9876 -0.1571
vn -0.0000 -0.4493 -0.8934
vn -0.0000 0.7293 -0.6842
vn -0.0000 0.5976 -0.8018
vn -0.0000 0.4472 -0.8944
vn -0.0000 -0.7071 -0.7071
vn -0.0000 -0.7071 0.7071
vn -0.0000 -0.0000 1.0000
vn -0.0000 0.7071 0.7071
vn -0.0000 1.0000 -0.0000
vn -0.0000 0.7071 -0.7071
vn 0.3157 0.9081 0.2751
vn 0.3541 0.8872 0.2959
vn 0.0807 0.7054 0.7042
vn 0.1833 0.9440 0.2744
vn 0.4850 0.7731 0.4087
vn -0.1857 -0.9193 0.3470
vn -0.1867 0.9800 -0.0694
vn -0.1930 0.9785 -0.0720
vn -0.0216 0.9037 -0.4277
vn -0.3918 0.7794 -0.4889
vn -0.3344 -0.9424 -0.0000
vn -0.7598 -0.6241 0.1821
vn -0.7932 -0.6090 -0.0054
vn -0.6458 -0.7632 -0.0202
vn -0.9017 -0.0074 -0.4323
vn -0.6567 -0.7539 -0.0208
vn -0.8855 0.4359 -0.1609
vn -0.9887 -0.0354 -0.1458
vn -0.9765 -0.2156 -0.0011
vn -0.8945 0.3760 -0.2418
vn -0.9154 0.3961 -0.0719
vn -0.2677 0.7444 -0.6118
vn -0.4356 0.7798 -0.4497
vn -0.3538 -0.9352 -0.0170
vn -0.3567 0.7932 -0.4936
vn -0.3815 0.9173 -0.1142
vn -0.3700 0.9137 -0.1681
vn -0.9443 0.2755 -0.1801
vn -0.9440 0.3281 0.0350
vn -0.9226 0.3828 -0.0476
vn -0.4034 -0.1395 0.9043
vn -0.3542 0.8871 0.2961
vn -0.2972 0.6306 0.7169
vn -0.9652 -0.2479 0.0833
vn -0.9058 -0.1458 0.3977
vn -0.7275 0.6760 0.1176
vn -0.5110 -0.6294 0.5854
vn -0.5283 -0.8446 0.0868
vn -0.4477 -0.8927 0.0527
vn -0.9577 -0.2865 0.0254
vn -0.6470 0.7298 0.2210
vn -0.2503 -0.6053 -0.7556
vn -0.2626 -0.8784 0.3993
vn -0.9692 -0.2459 -0.0091
vn -0.9808 -0.1492 -0.1256
vn -0.9860 -0.1339 0.0994
vn -0.2560 0.8606 -0.4402
vn -0.2692 0.7677 -0.5815
vn -0.2444 0.9127 -0.3274
vn -0.9765 0.1964 -0.0887
vn -0.9814 0.1550 -0.1135
vn -0.2596 -0.8214 0.5078
vn -0.2777 -0.7851 0.5536
vn -0.9779 0.1967 -0.0706
vn -0.9838 -0.1606 0.0798
vn -0.8872 -0.4552 0.0753
vn -0.9805 -0.1869 0.0600
vn -0.9289 0.3486 -0.1251
vn -0.0000 0.8935 -0.4490
vn -0.2714 0.6063 -0.7474
vn -0.2432 -0.8373 -0.4898
vn -0.2589 -0.7387 -0.6223
vn -0.0835 -0.9824 0.1672
vn -0.2280 -0.9454 0.2329
vn -0.6398 -0.0034 -0.7686
vn -0.2269 0.0053 -0.9739
vn -0.7429 0.3954 -0.5401
vn -0.7236 -0.4101 -0.5552
vn -0.9715 -0.0077 -0.2369
vn -0.5849 -0.8111 0.0016
vn -0.7008 -0.6233 -0.3470
vn -0.7215 -0.6010 0.3438
vn -0.2132 -0.9769 0.0134
vn -0.7429 -0.5453 0.3884
vn -0.7069 -0.5407 -0.4560
vn -0.7151 0.5585 -0.4205
vn -0.6916 0.6465 -0.3219
vn -0.7212 -0.6287 0.2910
vn -0.6872 0.6834 -0.2463
vn -0.6689 -0.7195 0.1867
vn -0.3451 -0.9261 0.1526
vn -0.4391 0.8456 -0.3036
vn -0.4096 0.7273 -0.5507
vn -0.6526 -0.4894 0.5784
vn -0.2485 -0.3061 0.9190
vn -0.7540 0.6287 0.1903
vn -0.9762 0.0725 -0.2043
vn -0.9936 -0.0958 0.0604
vn -0.9986 0.0086 -0.0520
vn -0.9810 0.1840 0.0611
vn -0.6526 0.7559 -0.0521
vn -0.7105 0.7018 -0.0516
vn -0.1593 -0.7565 0.6343
vn -0.6580 -0.7045 0.2659
vn -0.8396 -0.5082 0.1918
vn -0.9868 -0.1565 0.0421
vn -0.5964 0.8014 0.0452
vn -0.1745 0.9831 0.0555
vn -0.9984 -0.0000 -0.0573
vn -0.9981 0.0006 -0.0615
vn -0.9975 0.0002 -0.0707
vn -0.0000 0.9922 -0.1247
vn -0.9985 0.0006 -0.0549
vn -0.3541 0.8872 0.2958
vn -0.0806 0.7054 0.7042
vn -0.1833 0.9440 0.2743
vn -0.4850 0.7731 0.4088
vn -0.0000 -0.9996 -0.0285
vn -0.0000 -0.9470 0.3213
vn 0.1745 0.9831 0.0555
vn 0.3545 0.8870 0.2958
vn -0.3546 0.8870 0.2957
vn -0.1142 0.9350 -0.3357
vt 0.486666 0.250000
vt 0.375000 0.500000
vt 0.375000 0.250000
vt 0.625000 0.250000
vt 0.513334 0.250000
vt 0.372773 0.709483
vt 0.133281 0.750000
vt 0.125000 0.611666
vt 0.625000 0.000000
vt 0.513334 0.000000
vt 0.000000 0.000000
vt 0.375000 0.000000
vt 0.042154 0.370000
vt 0.010000 0.250000
vt 0.130000 0.457846
vt 0.042154 0.130000
vt 0.130000 0.042154
vt 0.250000 0.010000
vt 0.370000 0.042154
vt 0.457846 0.130000
vt 0.490000 0.250000
vt 0.370000 0.457846
vt 0.250000 0.490000
vt 0.457846 0.370000
vt 0.440370 0.301008
vt 0.375000 0.375000
vt 0.375000 0.301008
vt 0.625000 0.684630
vt 0.625000 0.750000
vt 0.625000 0.875000
vt 0.417759 0.941530
vt 0.418499 0.875000
vt 0.625000 0.940504
vt 0.625000 0.944071
vt 0.375000 0.565370
vt 0.375000 0.565370
vt 0.559630 0.000000
vt 0.625000 0.803263
vt 0.416447 0.684630
vt 0.416447 0.750000
vt 0.625000 0.816592
vt 0.625000 0.952285
vt 0.169598 0.565370
vt 0.169598 0.500000
vt 0.440370 0.448991
vt 0.375000 0.448991
vt 0.559630 0.250000
vt 0.546966 0.250000
vt 0.625000 0.305956
vt 0.147200 0.750000
vt 0.125000 0.565370
vt 0.375000 0.805956
vt 0.422382 0.750000
vt 0.419516 0.806067
vt 0.625000 0.480429
vt 0.440370 0.500000
vt 0.389580 1.000000
vt 0.375000 0.949211
vt 0.375000 0.578032
vt 0.413317 0.500000
vt 0.375000 0.684630
vt 0.375000 0.750000
vt 0.621649 0.500000
vt 0.625000 0.684630
vt 0.413318 1.000000
vt 0.621649 1.000000
vt 0.440370 0.375000
vt 0.625000 0.375000
vt 0.375000 0.875000
vt 0.625000 0.807060
vt 0.172381 0.750000
vt 0.440370 0.250000
vt 0.625000 0.500000
vt 0.625000 1.000000
vt 0.625000 0.377361
vt 0.625000 0.449211
vt 0.617397 0.750000
vt 0.610026 1.000000
vt 0.610026 0.500000
vt 0.375000 0.264963
vt 0.375000 0.249496
vt 0.486666 0.500000
vt 0.625000 0.250494
vt 1.000000 1.000000
vt 0.875000 0.500000
vt 1.000000 0.500000
vt 0.875000 1.000000
vt 0.750000 0.500000
vt 0.750000 1.000000
vt 0.500000 0.500000
vt 0.500000 1.000000
vt 0.375000 1.000000
vt 0.250000 0.500000
vt 0.250000 1.000000
vt 0.125000 0.500000
vt 0.125000 1.000000
vt 0.000000 0.500000
vt 0.375000 0.877362
vt 0.625000 0.999496
vt 0.381171 0.256171
vt 0.125000 0.750000
vt 0.375000 0.611666
vt 0.367397 0.750000
vt 0.127425 0.709483
vt 0.375000 0.776137
vt 0.419706 0.419706
vt 0.080294 0.419706
vt 0.080294 0.080294
vt 0.419706 0.080294
vt 0.000000 1.000000
vt 0.875000 0.750000
s 1
f 511/134/95 231/135/96 229/136/97
f 479/137/98 513/138/99 230/137/100
f 509/139/101 510/140/101 511/141/101
f 228/142/102 513/138/99 507/143/103
f 234/144/104 486/144/105 480/144/106
f 492/144/107 235/144/108 483/144/109
f 485/144/110 471/144/111 431/144/112
f 427/142/113 238/145/114 234/145/104
f 481/144/115 482/144/116 484/144/117
f 489/144/118 491/144/119 482/144/116
f 234/144/104 480/144/106 473/144/120
f 232/136/121 236/137/122 233/137/122
f 244/144/123 488/144/124 240/144/125
f 237/142/114 240/145/125 238/145/114
f 240/144/125 486/144/105 238/144/114
f 239/142/126 244/145/123 240/145/125
f 232/144/121 471/144/111 483/144/109
f 244/144/123 501/144/127 490/144/128
f 487/144/129 489/144/118 482/144/116
f 491/144/119 245/144/130 482/144/116
f 235/136/108 247/137/122 236/137/122
f 242/144/131 498/144/132 499/144/133
f 493/144/134 248/144/135 497/144/136
f 492/144/107 494/144/137 246/144/138
f 243/142/123 252/145/139 244/145/123
f 245/144/130 493/144/134 482/144/116
f 263/146/140 267/147/141 266/146/142
f 264/148/143 266/146/142 265/148/144
f 261/149/145 267/147/141 262/147/146
f 260/150/147 268/149/148 261/149/145
f 260/150/147 270/151/149 269/150/150
f 258/152/151 270/151/149 259/151/152
f 257/153/153 271/152/154 258/152/151
f 256/154/155 272/153/156 257/153/153
f 254/155/157 276/156/158 275/155/159
f 264/148/143 276/156/158 253/156/160
f 255/157/161 275/155/159 274/157/162
f 256/154/155 274/157/162 273/154/163
f 271/152/154 282/151/164 270/151/149
f 269/150/150 282/151/164 281/150/165
f 268/149/148 281/150/165 280/149/166
f 272/153/156 285/154/167 284/153/168
f 271/152/154 284/153/168 283/152/169
f 267/147/141 278/146/170 266/146/142
f 266/146/142 277/148/171 265/148/144
f 275/155/159 286/157/172 274/157/162
f 275/155/159 288/156/173 287/155/174
f 274/157/162 285/154/167 273/154/163
f 265/148/144 288/156/173 276/156/158
f 267/147/141 280/149/166 279/147/175
f 283/152/169 294/151/176 282/151/164
f 285/154/167 298/157/177 297/154/178
f 287/155/174 300/156/179 299/155/180
f 279/147/175 292/149/181 291/147/182
f 280/149/166 293/150/183 292/149/181
f 285/154/167 296/153/184 284/153/168
f 281/150/165 294/151/176 293/150/183
f 279/147/175 290/146/185 278/146/170
f 286/157/172 299/155/180 298/157/177
f 284/153/168 295/152/186 283/152/169
f 277/148/171 300/156/179 288/156/173
f 278/146/170 289/148/187 277/148/171
f 289/148/187 302/146/188 301/148/189
f 295/152/186 306/151/190 294/151/176
f 297/154/178 310/157/191 309/154/192
f 299/155/180 312/156/193 311/155/194
f 291/147/182 304/149/195 303/147/196
f 293/150/183 304/149/195 292/149/181
f 297/154/178 308/153/197 296/153/184
f 293/150/183 306/151/190 305/150/198
f 291/147/182 302/146/188 290/146/185
f 299/155/180 310/157/191 298/157/177
f 295/152/186 308/153/197 307/152/199
f 289/148/187 312/156/193 300/156/179
f 312/156/193 313/148/200 324/156/201
f 301/148/189 314/146/202 313/148/200
f 306/151/190 319/152/203 318/151/204
f 309/154/192 322/157/205 321/154/206
f 311/155/194 324/156/201 323/155/207
f 303/147/196 316/149/208 315/147/209
f 304/149/195 317/150/210 316/149/208
f 308/153/197 321/154/206 320/153/211
f 305/150/198 318/151/204 317/150/210
f 302/146/188 315/147/209 314/146/202
f 310/157/191 323/155/207 322/157/205
f 307/152/199 320/153/211 319/152/203
f 257/153/153 261/149/145 253/156/160
f 331/144/212 336/144/213 330/144/213
f 329/144/214 338/144/215 332/144/215
f 333/144/216 340/144/217 334/144/217
f 332/144/215 337/144/218 331/144/212
f 330/144/213 339/144/216 333/144/216
f 349/144/219 344/144/220 343/144/219
f 351/144/221 346/144/222 345/144/221
f 348/144/223 341/144/224 342/144/223
f 350/144/220 345/144/221 344/144/220
f 347/144/224 343/144/219 341/144/224
f 347/144/225 340/144/225 339/144/225
f 330/144/226 344/144/226 331/144/226
f 352/144/225 338/144/225 335/144/225
f 349/144/225 339/144/225 336/144/225
f 344/144/226 332/144/226 331/144/226
f 334/144/226 341/144/226 333/144/226
f 350/144/225 336/144/225 337/144/225
f 348/144/227 334/144/227 340/144/227
f 332/144/226 346/144/226 329/144/226
f 346/144/228 335/144/229 329/144/230
f 333/144/226 343/144/226 330/144/226
f 338/144/225 350/144/225 337/144/225
f 379/144/231 369/144/232 368/144/231
f 374/144/233 362/144/234 361/144/233
f 367/144/235 355/144/236 353/144/235
f 375/144/234 363/144/237 362/144/234
f 366/144/236 356/144/238 355/144/236
f 376/144/237 364/144/239 363/144/237
f 354/144/238 357/144/240 356/144/238
f 365/144/226 409/144/226 410/144/226
f 370/144/240 358/144/241 357/144/240
f 371/144/241 359/144/242 358/144/241
f 372/144/242 360/144/243 359/144/242
f 378/144/244 368/144/231 365/144/244
f 373/144/243 361/144/233 360/144/243
f 398/144/245 407/144/246 397/144/246
f 391/144/247 402/144/248 390/144/248
f 384/144/249 396/144/250 383/144/250
f 392/144/251 403/144/247 391/144/247
f 385/144/252 395/144/249 384/144/249
f 393/144/253 404/144/251 392/144/251
f 386/144/254 381/144/255 385/144/252
f 394/144/256 405/144/253 393/144/253
f 387/144/257 382/144/254 386/144/254
f 388/144/258 399/144/259 387/144/257
f 389/144/260 400/144/258 388/144/258
f 397/144/246 406/144/256 394/144/256
f 390/144/248 401/144/260 389/144/260
f 366/144/225 396/144/225 395/144/225
f 370/144/225 381/144/225 382/144/225
f 368/144/226 394/144/226 365/144/226
f 355/144/226 383/144/226 353/144/226
f 368/144/226 398/144/226 397/144/226
f 356/144/226 384/144/226 355/144/226
f 371/144/225 382/144/225 399/144/225
f 357/144/226 385/144/226 356/144/226
f 371/144/225 400/144/225 372/144/225
f 358/144/226 386/144/226 357/144/226
f 353/144/261 396/144/262 367/144/262
f 372/144/225 401/144/225 373/144/225
f 358/144/226 388/144/226 387/144/226
f 373/144/225 402/144/225 374/144/225
f 359/144/226 389/144/226 388/144/226
f 375/144/225 402/144/225 403/144/225
f 360/144/226 390/144/226 389/144/226
f 375/144/225 404/144/225 376/144/225
f 362/144/226 390/144/226 361/144/226
f 376/144/225 405/144/225 377/144/225
f 362/144/226 392/144/226 391/144/226
f 377/144/225 406/144/225 378/144/225
f 363/144/226 393/144/226 392/144/226
f 379/144/225 406/144/225 407/144/225
f 364/144/226 394/144/226 393/144/226
f 379/144/225 408/144/225 380/144/225
f 354/144/225 395/144/225 381/144/225
f 380/144/263 398/144/263 369/144/263
f 411/144/264 413/144/265 409/144/264
f 365/144/266 412/144/267 378/144/266
f 378/144/225 411/144/225 377/144/225
f 377/144/268 409/144/264 364/144/268
f 414/144/269 420/144/270 416/144/269
f 409/144/226 414/144/226 410/144/226
f 410/144/267 416/144/269 412/144/267
f 411/144/225 416/144/225 415/144/225
f 419/144/271 418/144/272 417/144/272
f 415/144/225 420/144/225 419/144/225
f 415/144/265 417/144/273 413/144/265
f 413/144/226 418/144/226 414/144/226
f 241/144/274 246/144/138 325/144/275
f 250/144/276 246/144/138 241/144/274
f 247/137/122 246/136/138 250/144/276
f 325/144/275 326/144/225 327/144/225
f 246/144/138 328/144/277 326/144/225
f 435/158/278 429/159/279 453/160/280
f 459/161/281 426/162/282 423/162/283
f 428/163/225 446/164/284 476/165/285
f 442/166/286 430/163/225 458/167/287
f 421/135/288 461/168/289 432/169/290
f 464/170/291 427/142/292 474/170/293
f 428/163/225 462/171/294 430/163/225
f 447/172/295 422/162/296 456/173/297
f 430/163/225 465/174/298 431/163/225
f 458/167/287 431/163/225 467/175/299
f 471/144/300 467/144/299 431/144/225
f 431/144/225 465/144/298 473/144/301
f 461/168/289 425/135/302 464/168/291
f 421/135/288 436/176/303 452/177/304
f 422/162/296 459/161/281 423/162/283
f 429/159/279 445/178/305 455/179/306
f 426/137/282 470/180/307 233/137/308
f 435/158/278 439/181/309 441/182/310
f 436/176/303 439/183/309 438/184/311
f 441/185/310 440/186/312 437/187/313
f 445/178/305 449/188/314 451/189/315
f 446/164/284 449/190/314 448/191/316
f 447/172/295 449/192/314 450/193/317
f 455/179/306 451/189/315 457/135/318
f 451/194/315 456/173/297 457/195/318
f 447/172/295 444/196/319 443/197/320
f 450/198/317 442/166/286 444/199/319
f 477/200/321 441/182/310 478/201/322
f 478/202/322 437/187/313 476/165/285
f 437/187/313 434/162/323 433/203/324
f 440/204/312 432/169/290 434/195/323
f 435/158/278 454/136/325 438/205/311
f 438/184/311 452/177/304 436/176/303
f 461/168/289 434/195/323 432/169/290
f 463/162/326 433/203/324 434/162/323
f 443/197/320 460/206/327 459/161/281
f 444/207/319 458/167/287 460/207/327
f 464/168/291 463/195/326 461/168/289
f 466/162/328 462/171/294 463/162/326
f 459/161/281 469/206/329 468/197/330
f 460/207/327 467/175/299 469/207/329
f 471/144/300 469/144/329 467/144/299
f 472/136/331 468/180/330 469/136/329
f 473/144/301 466/144/328 475/144/332
f 475/145/332 464/170/291 474/170/293
f 445/178/305 478/208/322 448/209/316
f 448/191/316 476/165/285 446/164/284
f 433/203/324 476/165/285 437/187/313
f 470/180/333 472/136/333 232/144/121
f 472/136/333 471/144/111 232/144/121
f 473/144/120 475/144/334 234/144/104
f 475/144/334 474/170/334 234/144/104
f 483/144/109 235/144/108 232/144/121
f 473/144/120 485/144/110 431/144/335
f 496/144/336 497/144/136 498/144/132
f 483/144/109 484/144/117 482/144/116
f 484/144/117 480/144/106 481/144/115
f 496/144/336 493/144/134 497/144/136
f 481/144/115 486/144/105 487/144/129
f 486/144/105 489/144/118 487/144/129
f 248/144/135 498/144/132 497/144/136
f 496/144/336 495/144/337 494/144/137
f 482/144/116 492/144/107 483/144/109
f 489/144/118 490/144/128 491/144/119
f 491/144/119 501/144/127 500/144/338
f 481/144/115 487/144/129 482/144/116
f 327/144/339 503/144/340 325/144/341
f 328/144/342 504/144/343 326/144/343
f 241/144/344 503/144/340 502/144/345
f 250/144/346 241/144/344 502/144/345
f 326/144/343 505/144/339 327/144/339
f 517/144/347 508/210/348 514/211/349
f 517/144/347 514/212/349 519/213/350
f 507/143/103 515/214/351 509/145/352
f 509/162/352 514/211/349 508/210/348
f 516/215/353 512/216/354 518/206/355
f 518/144/355 510/144/356 517/144/347
f 513/138/99 521/136/357 515/136/351
f 515/206/351 519/213/350 514/212/349
f 524/144/225 526/144/358 523/144/225
f 523/144/359 525/144/360 522/144/359
f 527/144/361 529/144/362 526/144/358
f 525/144/360 529/144/363 528/144/364
f 530/144/365 532/144/225 529/144/362
f 529/144/363 531/144/366 528/144/364
f 532/144/225 533/144/225 535/144/225
f 532/144/366 534/144/367 531/144/366
f 540/144/368 538/144/368 539/144/368
f 535/144/369 536/144/370 534/144/369
f 537/144/370 539/144/371 536/144/370
f 540/144/225 537/144/225 533/144/225
f 535/144/225 533/144/225 537/144/225
f 542/217/101 543/218/372 541/219/101
f 544/220/372 545/221/122 543/218/372
f 546/222/122 547/206/373 545/221/122
f 548/207/373 549/223/374 547/206/373
f 550/224/374 551/135/375 549/223/374
f 552/225/375 553/226/376 551/135/375
f 554/147/225 550/151/225 546/154/225
f 554/227/376 555/228/377 553/226/376
f 556/229/377 541/230/101 555/228/377
f 328/144/342 249/144/376 506/144/378
f 242/144/379 557/144/376 249/144/376
f 242/144/379 499/144/380 557/144/376
f 557/144/376 499/144/380 245/144/381
f 245/144/381 499/144/380 248/144/382
f 252/145/374 251/142/374 558/144/374
f 231/135/96 691/134/383 229/136/97
f 693/138/384 479/137/98 230/137/100
f 690/140/101 689/139/101 228/135/101
f 693/138/384 228/142/102 687/143/385
f 560/144/386 671/144/387 562/144/114
f 561/144/388 677/144/389 668/144/390
f 657/144/391 670/144/392 623/144/393
f 562/145/114 427/142/113 560/145/386
f 666/144/394 669/144/395 667/144/396
f 674/144/397 667/144/396 676/144/398
f 560/144/386 659/144/399 665/144/400
f 236/137/122 559/136/401 233/137/122
f 673/144/402 566/144/123 563/144/125
f 563/145/125 237/142/114 562/145/114
f 671/144/387 563/144/125 562/144/114
f 566/145/123 239/142/126 563/145/125
f 559/144/401 668/144/390 657/144/391
f 686/144/403 566/144/123 675/144/404
f 672/144/405 667/144/396 674/144/397
f 676/144/398 567/144/406 685/144/407
f 247/137/122 561/136/388 236/137/122
f 683/144/408 565/144/409 684/144/410
f 678/144/411 682/144/412 569/144/413
f 679/144/414 677/144/389 568/144/415
f 570/145/139 243/142/123 566/145/123
f 567/144/406 678/144/411 569/144/413
f 576/144/213 331/144/212 330/144/213
f 578/144/215 329/144/214 332/144/215
f 580/144/217 333/144/216 334/144/217
f 577/144/218 332/144/215 331/144/212
f 579/144/216 330/144/213 333/144/216
f 344/144/220 583/144/219 343/144/219
f 346/144/222 585/144/221 345/144/221
f 341/144/224 582/144/223 342/144/223
f 345/144/221 584/144/220 344/144/220
f 343/144/219 581/144/224 341/144/224
f 580/144/226 581/144/226 579/144/226
f 578/144/226 586/144/226 575/144/226
f 579/144/226 583/144/226 576/144/226
f 576/144/226 584/144/226 577/144/226
f 334/144/227 582/144/227 580/144/227
f 575/144/229 346/144/228 329/144/230
f 578/144/226 584/144/226 585/144/226
f 369/144/232 599/144/231 368/144/231
f 362/144/234 594/144/233 361/144/233
f 355/144/236 589/144/235 353/144/235
f 363/144/237 595/144/234 362/144/234
f 356/144/238 588/144/236 355/144/236
f 364/144/239 596/144/237 363/144/237
f 357/144/240 587/144/238 356/144/238
f 358/144/241 590/144/240 357/144/240
f 359/144/242 591/144/241 358/144/241
f 360/144/243 592/144/242 359/144/242
f 368/144/231 598/144/244 365/144/244
f 361/144/233 593/144/243 360/144/243
f 613/144/246 398/144/245 397/144/246
f 608/144/248 391/144/247 390/144/248
f 604/144/250 384/144/249 383/144/250
f 609/144/247 392/144/251 391/144/247
f 603/144/249 385/144/252 384/144/249
f 610/144/251 393/144/253 392/144/251
f 601/144/255 386/144/254 385/144/252
f 611/144/253 394/144/256 393/144/253
f 602/144/254 387/144/257 386/144/254
f 605/144/259 388/144/258 387/144/257
f 606/144/258 389/144/260 388/144/258
f 612/144/256 397/144/246 394/144/256
f 607/144/260 390/144/248 389/144/260
f 588/144/226 604/144/226 589/144/226
f 590/144/226 601/144/226 587/144/226
f 591/144/226 602/144/226 590/144/226
f 606/144/226 591/144/226 592/144/226
f 604/144/262 353/144/261 589/144/262
f 607/144/226 592/144/226 593/144/226
f 608/144/226 593/144/226 594/144/226
f 595/144/226 608/144/226 594/144/226
f 610/144/226 595/144/226 596/144/226
f 611/144/226 596/144/226 597/144/226
f 612/144/226 597/144/226 598/144/226
f 599/144/226 612/144/226 598/144/226
f 614/144/226 599/144/226 600/144/226
f 587/144/226 603/144/226 588/144/226
f 398/144/263 600/144/263 369/144/263
f 413/144/265 615/144/264 409/144/264
f 616/144/267 365/144/266 598/144/266
f 615/144/226 598/144/226 597/144/226
f 409/144/264 597/144/268 364/144/268
f 620/144/270 414/144/269 618/144/269
f 618/144/269 410/144/267 616/144/267
f 615/144/226 618/144/226 616/144/226
f 418/144/272 619/144/271 417/144/272
f 617/144/226 620/144/226 618/144/226
f 417/144/273 617/144/265 413/144/265
f 564/144/416 571/144/417 568/144/415
f 250/144/276 564/144/416 568/144/415
f 247/137/122 250/144/276 568/136/415
f 571/144/417 572/144/226 568/144/415
f 574/144/418 568/144/415 572/144/226
f 429/159/279 627/158/419 453/160/280
f 426/162/282 645/161/420 423/162/283
f 638/164/421 621/163/226 662/165/422
f 634/166/423 622/163/226 621/163/226
f 647/168/424 421/135/288 624/169/425
f 650/170/426 427/142/292 425/142/302
f 621/163/226 648/171/427 625/203/428
f 639/172/429 422/162/296 635/197/430
f 622/163/226 651/174/431 648/171/427
f 644/167/432 623/163/226 622/163/226
f 657/144/433 623/144/226 653/144/434
f 623/144/226 659/144/435 651/144/431
f 647/168/424 425/135/302 424/135/436
f 628/176/437 421/135/288 452/177/304
f 422/162/296 645/161/420 635/197/430
f 429/159/279 637/178/438 663/200/439
f 426/137/282 656/180/440 654/180/441
f 627/158/419 631/181/442 630/205/443
f 628/176/437 631/183/442 632/204/444
f 632/186/444 633/185/445 629/187/446
f 637/178/438 641/188/447 640/209/448
f 638/164/421 641/190/447 642/198/449
f 639/172/429 641/192/447 643/194/450
f 455/179/306 643/189/450 637/178/438
f 456/173/297 643/194/450 457/195/318
f 636/196/451 639/172/429 635/197/430
f 634/166/423 642/198/449 636/199/451
f 663/200/439 633/182/445 627/158/419
f 664/202/452 629/187/446 633/185/445
f 626/162/453 629/187/446 625/203/428
f 624/169/425 632/204/444 626/195/453
f 627/158/419 454/136/325 453/160/280
f 630/184/443 452/177/304 454/228/325
f 626/195/453 647/168/424 624/169/425
f 625/203/428 649/162/454 626/162/453
f 646/206/455 635/197/430 645/161/420
f 644/167/432 636/207/451 646/207/455
f 649/195/454 650/168/426 647/168/424
f 648/171/427 652/162/456 649/162/454
f 655/206/457 645/161/420 654/197/441
f 653/175/434 646/207/455 655/207/457
f 655/144/457 657/144/433 653/144/434
f 654/180/441 658/136/458 655/136/457
f 659/144/435 652/144/456 651/144/431
f 661/145/459 650/170/426 652/145/456
f 637/178/438 664/208/452 663/200/439
f 640/191/448 662/165/422 664/231/452
f 662/165/422 625/203/428 629/187/446
f 656/180/333 559/144/401 658/136/333
f 658/136/333 559/144/401 657/144/391
f 659/144/399 560/144/386 661/144/334
f 661/144/334 560/144/386 660/170/334
f 668/144/390 559/144/401 561/144/388
f 670/144/392 659/144/399 623/144/460
f 681/144/461 683/144/408 682/144/412
f 668/144/390 669/144/395 670/144/392
f 665/144/400 669/144/395 666/144/394
f 681/144/461 678/144/411 677/144/389
f 671/144/387 666/144/394 672/144/405
f 671/144/387 674/144/397 673/144/402
f 683/144/408 569/144/413 682/144/412
f 680/144/462 681/144/461 679/144/414
f 667/144/396 677/144/389 678/144/411
f 675/144/404 674/144/397 676/144/398
f 686/144/403 676/144/398 685/144/407
f 666/144/394 667/144/396 672/144/405
f 503/144/340 573/144/339 571/144/341
f 504/144/343 574/144/463 572/144/343
f 564/144/344 503/144/340 571/144/341
f 250/144/346 502/144/345 564/144/344
f 505/144/339 572/144/343 573/144/339
f 688/210/464 697/144/465 694/211/466
f 697/144/465 699/213/467 694/212/466
f 687/143/385 695/214/468 693/138/384
f 689/162/469 694/211/466 695/232/468
f 696/215/470 692/216/471 691/134/383
f 698/144/472 690/144/473 692/144/471
f 693/138/384 701/136/474 700/138/475
f 695/206/468 699/213/467 701/233/474
f 704/144/476 703/144/226 702/144/226
f 525/144/360 702/144/359 522/144/359
f 706/144/477 705/144/478 704/144/476
f 525/144/360 706/144/363 704/144/479
f 708/144/226 707/144/480 706/144/477
f 531/144/366 706/144/363 528/144/364
f 708/144/226 710/144/226 709/144/226
f 534/144/367 708/144/366 531/144/366
f 538/144/368 712/144/368 539/144/368
f 536/144/370 710/144/369 534/144/369
f 539/144/371 711/144/370 536/144/370
f 712/144/226 709/144/226 711/144/226
f 710/144/226 711/144/226 709/144/226
f 715/218/372 714/217/101 713/219/101
f 717/221/122 716/220/372 715/218/372
f 719/206/373 718/222/122 717/221/122
f 721/223/374 720/207/373 719/206/373
f 723/135/375 722/224/374 721/223/374
f 725/226/376 724/225/375 723/135/375
f 722/151/226 726/147/226 714/156/226
f 727/228/377 726/227/376 725/226/376
f 713/230/101 728/229/377 727/228/377
f 249/144/376 574/144/463 506/144/378
f 565/144/481 249/144/376 557/144/376
f 565/144/481 557/144/376 684/144/482
f 557/144/376 567/144/483 684/144/482
f 567/144/483 569/144/484 684/144/482
f 570/145/374 558/144/374 251/142/374
s 0
f 730/142/226 731/136/226 729/145/226
f 732/137/101 735/135/101 731/136/101
f 736/206/225 733/195/225 735/135/225
f 734/162/374 729/225/374 733/195/374
f 735/135/122 729/234/122 731/228/122
f 732/218/376 734/162/376 736/206/376
s 1
f 707/144/485 538/144/485 533/144/485
f 527/144/486 707/144/486 530/144/486
f 511/134/95 516/215/353 231/135/96
f 479/137/98 520/138/487 513/138/99
f 511/141/101 229/228/101 228/135/101
f 228/135/101 507/235/101 509/139/101
f 509/139/101 508/236/101 510/140/101
f 510/140/101 512/237/101 511/141/101
f 511/141/101 228/135/101 509/139/101
f 228/142/102 230/137/100 513/138/99
f 234/144/104 238/144/114 486/144/105
f 492/144/107 246/144/138 235/144/108
f 485/144/110 483/144/109 471/144/111
f 427/142/113 237/142/114 238/145/114
f 232/136/121 235/136/108 236/137/122
f 244/144/123 490/144/128 488/144/124
f 237/142/114 239/142/126 240/145/125
f 240/144/125 488/144/124 486/144/105
f 239/142/126 243/142/123 244/145/123
f 244/144/123 252/144/139 501/144/127
f 491/144/119 500/144/338 245/144/130
f 235/136/108 246/136/138 247/137/122
f 242/144/131 495/144/337 498/144/132
f 492/144/107 496/144/336 494/144/137
f 243/142/123 251/142/139 252/145/139
f 245/144/130 248/144/135 493/144/134
f 263/146/140 262/147/146 267/147/141
f 264/148/143 263/146/140 266/146/142
f 261/149/145 268/149/148 267/147/141
f 260/150/147 269/150/150 268/149/148
f 260/150/147 259/151/152 270/151/149
f 258/152/151 271/152/154 270/151/149
f 257/153/153 272/153/156 271/152/154
f 256/154/155 273/154/163 272/153/156
f 254/155/157 253/156/160 276/156/158
f 264/148/143 265/148/144 276/156/158
f 255/157/161 254/155/157 275/155/159
f 256/154/155 255/157/161 274/157/162
f 271/152/154 283/152/169 282/151/164
f 269/150/150 270/151/149 282/151/164
f 268/149/148 269/150/150 281/150/165
f 272/153/156 273/154/163 285/154/167
f 271/152/154 272/153/156 284/153/168
f 267/147/141 279/147/175 278/146/170
f 266/146/142 278/146/170 277/148/171
f 275/155/159 287/155/174 286/157/172
f 275/155/159 276/156/158 288/156/173
f 274/157/162 286/157/172 285/154/167
f 265/148/144 277/148/171 288/156/173
f 267/147/141 268/149/148 280/149/166
f 283/152/169 295/152/186 294/151/176
f 285/154/167 286/157/172 298/157/177
f 287/155/174 288/156/173 300/156/179
f 279/147/175 280/149/166 292/149/181
f 280/149/166 281/150/165 293/150/183
f 285/154/167 297/154/178 296/153/184
f 281/150/165 282/151/164 294/151/176
f 279/147/175 291/147/182 290/146/185
f 286/157/172 287/155/174 299/155/180
f 284/153/168 296/153/184 295/152/186
f 277/148/171 289/148/187 300/156/179
f 278/146/170 290/146/185 289/148/187
f 289/148/187 290/146/185 302/146/188
f 295/152/186 307/152/199 306/151/190
f 297/154/178 298/157/177 310/157/191
f 299/155/180 300/156/179 312/156/193
f 291/147/182 292/149/181 304/149/195
f 293/150/183 305/150/198 304/149/195
f 297/154/178 309/154/192 308/153/197
f 293/150/183 294/151/176 306/151/190
f 291/147/182 303/147/196 302/146/188
f 299/155/180 311/155/194 310/157/191
f 295/152/186 296/153/184 308/153/197
f 289/148/187 301/148/189 312/156/193
f 312/156/193 301/148/189 313/148/200
f 301/148/189 302/146/188 314/146/202
f 306/151/190 307/152/199 319/152/203
f 309/154/192 310/157/191 322/157/205
f 311/155/194 312/156/193 324/156/201
f 303/147/196 304/149/195 316/149/208
f 304/149/195 305/150/198 317/150/210
f 308/153/197 309/154/192 321/154/206
f 305/150/198 306/151/190 318/151/204
f 302/146/188 303/147/196 315/147/209
f 310/157/191 311/155/194 323/155/207
f 307/152/199 308/153/197 320/153/211
f 253/156/160 254/155/157 255/157/161
f 255/157/161 256/154/155 257/153/153
f 257/153/153 258/152/151 259/151/152
f 259/151/152 260/150/147 261/149/145
f 261/149/145 262/147/146 263/146/140
f 263/146/140 264/148/143 253/156/160
f 253/156/160 255/157/161 257/153/153
f 257/153/153 259/151/152 261/149/145
f 261/149/145 263/146/140 253/156/160
f 331/144/212 337/144/218 336/144/213
f 329/144/214 335/144/214 338/144/215
f 333/144/216 339/144/216 340/144/217
f 332/144/215 338/144/215 337/144/218
f 330/144/213 336/144/213 339/144/216
f 349/144/219 350/144/220 344/144/220
f 351/144/221 352/144/222 346/144/222
f 348/144/223 347/144/224 341/144/224
f 350/144/220 351/144/221 345/144/221
f 347/144/224 349/144/219 343/144/219
f 347/144/225 348/144/225 340/144/225
f 330/144/226 343/144/226 344/144/226
f 352/144/225 351/144/225 338/144/225
f 349/144/225 347/144/225 339/144/225
f 344/144/226 345/144/226 332/144/226
f 334/144/226 342/144/226 341/144/226
f 350/144/225 349/144/225 336/144/225
f 348/144/227 342/144/227 334/144/227
f 332/144/226 345/144/226 346/144/226
f 346/144/228 352/144/229 335/144/229
f 333/144/226 341/144/226 343/144/226
f 338/144/225 351/144/225 350/144/225
f 379/144/231 380/144/232 369/144/232
f 374/144/233 375/144/234 362/144/234
f 367/144/235 366/144/236 355/144/236
f 375/144/234 376/144/237 363/144/237
f 366/144/236 354/144/238 356/144/238
f 376/144/237 377/144/239 364/144/239
f 354/144/238 370/144/240 357/144/240
f 365/144/226 364/144/226 409/144/226
f 370/144/240 371/144/241 358/144/241
f 371/144/241 372/144/242 359/144/242
f 372/144/242 373/144/243 360/144/243
f 378/144/244 379/144/231 368/144/231
f 373/144/243 374/144/233 361/144/233
f 398/144/245 408/144/245 407/144/246
f 391/144/247 403/144/247 402/144/248
f 384/144/249 395/144/249 396/144/250
f 392/144/251 404/144/251 403/144/247
f 385/144/252 381/144/255 395/144/249
f 393/144/253 405/144/253 404/144/251
f 386/144/254 382/144/254 381/144/255
f 394/144/256 406/144/256 405/144/253
f 387/144/257 399/144/259 382/144/254
f 388/144/258 400/144/258 399/144/259
f 389/144/260 401/144/260 400/144/258
f 397/144/246 407/144/246 406/144/256
f 390/144/248 402/144/248 401/144/260
f 366/144/225 367/144/225 396/144/225
f 370/144/225 354/144/225 381/144/225
f 368/144/226 397/144/226 394/144/226
f 355/144/226 384/144/226 383/144/226
f 368/144/226 369/144/226 398/144/226
f 356/144/226 385/144/226 384/144/226
f 371/144/225 370/144/225 382/144/225
f 357/144/226 386/144/226 385/144/226
f 371/144/225 399/144/225 400/144/225
f 358/144/226 387/144/226 386/144/226
f 353/144/261 383/144/261 396/144/262
f 372/144/225 400/144/225 401/144/225
f 358/144/226 359/144/226 388/144/226
f 373/144/225 401/144/225 402/144/225
f 359/144/226 360/144/226 389/144/226
f 375/144/225 374/144/225 402/144/225
f 360/144/226 361/144/226 390/144/226
f 375/144/225 403/144/225 404/144/225
f 362/144/226 391/144/226 390/144/226
f 376/144/225 404/144/225 405/144/225
f 362/144/226 363/144/226 392/144/226
f 377/144/225 405/144/225 406/144/225
f 363/144/226 364/144/226 393/144/226
f 379/144/225 378/144/225 406/144/225
f 364/144/226 365/144/226 394/144/226
f 379/144/225 407/144/225 408/144/225
f 354/144/225 366/144/225 395/144/225
f 380/144/263 408/144/263 398/144/263
f 411/144/264 415/144/265 413/144/265
f 365/144/266 410/144/267 412/144/267
f 378/144/225 412/144/225 411/144/225
f 377/144/268 411/144/264 409/144/264
f 414/144/269 418/144/270 420/144/270
f 409/144/226 413/144/226 414/144/226
f 410/144/267 414/144/269 416/144/269
f 411/144/225 412/144/225 416/144/225
f 419/144/271 420/144/271 418/144/272
f 415/144/225 416/144/225 420/144/225
f 415/144/265 419/144/273 417/144/273
f 413/144/226 417/144/226 418/144/226
f 325/144/275 246/144/138 326/144/225
f 246/144/138 242/144/488 328/144/277
f 435/158/278 477/200/321 429/159/279
f 459/161/281 468/197/330 426/162/282
f 428/163/225 442/166/286 446/164/284
f 442/166/286 428/163/225 430/163/225
f 421/135/288 424/135/436 461/168/289
f 464/170/291 425/142/302 427/142/292
f 428/163/225 433/203/324 462/171/294
f 447/172/295 443/197/320 422/162/296
f 430/163/225 462/171/294 465/174/298
f 458/167/287 430/163/225 431/163/225
f 461/168/289 424/135/436 425/135/302
f 421/135/288 432/169/290 436/176/303
f 422/162/296 443/197/320 459/161/281
f 429/159/279 477/200/321 445/178/305
f 426/137/282 468/180/330 470/180/307
f 435/158/278 438/205/311 439/181/309
f 436/176/303 440/204/312 439/183/309
f 441/185/310 439/238/309 440/186/312
f 445/178/305 448/209/316 449/188/314
f 446/164/284 450/198/317 449/190/314
f 447/172/295 451/194/315 449/192/314
f 455/179/306 445/178/305 451/189/315
f 451/194/315 447/172/295 456/173/297
f 447/172/295 450/193/317 444/196/319
f 450/198/317 446/164/284 442/166/286
f 477/200/321 435/158/278 441/182/310
f 478/202/322 441/185/310 437/187/313
f 437/187/313 440/186/312 434/162/323
f 440/204/312 436/176/303 432/169/290
f 435/158/278 453/160/280 454/136/325
f 438/184/311 454/228/325 452/177/304
f 461/168/289 463/195/326 434/195/323
f 463/162/326 462/171/294 433/203/324
f 443/197/320 444/206/319 460/206/327
f 444/207/319 442/166/286 458/167/287
f 464/168/291 466/195/328 463/195/326
f 466/162/328 465/174/298 462/171/294
f 459/161/281 460/206/327 469/206/329
f 460/207/327 458/167/287 467/175/299
f 471/144/300 472/144/331 469/144/329
f 472/136/331 470/180/307 468/180/330
f 473/144/301 465/144/298 466/144/328
f 475/145/332 466/145/328 464/170/291
f 445/178/305 477/200/321 478/208/322
f 448/191/316 478/231/322 476/165/285
f 433/203/324 428/163/225 476/165/285
f 473/144/120 480/144/106 485/144/110
f 483/144/109 485/144/110 484/144/117
f 484/144/117 485/144/110 480/144/106
f 496/144/336 492/144/107 493/144/134
f 481/144/115 480/144/106 486/144/105
f 486/144/105 488/144/124 489/144/118
f 248/144/135 499/144/133 498/144/132
f 496/144/336 498/144/132 495/144/337
f 482/144/116 493/144/134 492/144/107
f 489/144/118 488/144/124 490/144/128
f 491/144/119 490/144/128 501/144/127
f 327/144/339 505/144/339 503/144/340
f 328/144/342 506/144/378 504/144/343
f 241/144/344 325/144/341 503/144/340
f 326/144/343 504/144/343 505/144/339
f 517/144/347 510/140/356 508/210/348
f 507/143/103 513/138/99 515/214/351
f 509/162/352 515/232/351 514/211/349
f 516/215/353 511/134/95 512/216/354
f 518/144/355 512/144/354 510/144/356
f 513/138/99 520/138/487 521/136/357
f 515/206/351 521/233/357 519/213/350
f 524/144/225 527/144/361 526/144/358
f 523/144/359 526/144/479 525/144/360
f 527/144/361 530/144/365 529/144/362
f 525/144/360 526/144/479 529/144/363
f 530/144/365 533/144/225 532/144/225
f 529/144/363 532/144/366 531/144/366
f 532/144/366 535/144/367 534/144/367
f 540/144/368 533/144/368 538/144/368
f 535/144/369 537/144/370 536/144/370
f 537/144/370 540/144/371 539/144/371
f 542/217/101 544/220/372 543/218/372
f 544/220/372 546/222/122 545/221/122
f 546/222/122 548/207/373 547/206/373
f 548/207/373 550/224/374 549/223/374
f 550/224/374 552/225/375 551/135/375
f 552/225/375 554/227/376 553/226/376
f 546/154/225 544/239/225 542/156/225
f 542/156/225 556/240/225 554/147/225
f 554/147/225 552/241/225 550/151/225
f 550/151/225 548/242/225 546/154/225
f 546/154/225 542/156/225 554/147/225
f 554/227/376 556/229/377 555/228/377
f 556/229/377 542/243/101 541/230/101
f 328/144/342 242/144/379 249/144/376
f 231/135/96 696/215/470 691/134/383
f 693/138/384 700/138/475 479/137/98
f 228/135/101 229/228/101 691/141/101
f 691/141/101 692/237/101 690/140/101
f 690/140/101 688/236/101 689/139/101
f 689/139/101 687/235/101 228/135/101
f 228/135/101 691/141/101 690/140/101
f 693/138/384 230/137/100 228/142/102
f 560/144/386 665/144/400 671/144/387
f 561/144/388 568/144/415 677/144/389
f 657/144/391 668/144/390 670/144/392
f 562/145/114 237/142/114 427/142/113
f 236/137/122 561/136/388 559/136/401
f 673/144/402 675/144/404 566/144/123
f 563/145/125 239/142/126 237/142/114
f 671/144/387 673/144/402 563/144/125
f 566/145/123 243/142/123 239/142/126
f 686/144/403 570/144/139 566/144/123
f 676/144/398 667/144/396 567/144/406
f 247/137/122 568/136/415 561/136/388
f 683/144/408 680/144/462 565/144/409
f 679/144/414 681/144/461 677/144/389
f 570/145/139 251/142/139 243/142/123
f 567/144/406 667/144/396 678/144/411
f 576/144/213 577/144/218 331/144/212
f 578/144/215 575/144/214 329/144/214
f 580/144/217 579/144/216 333/144/216
f 577/144/218 578/144/215 332/144/215
f 579/144/216 576/144/213 330/144/213
f 344/144/220 584/144/220 583/144/219
f 346/144/222 586/144/222 585/144/221
f 341/144/224 581/144/224 582/144/223
f 345/144/221 585/144/221 584/144/220
f 343/144/219 583/144/219 581/144/224
f 580/144/226 582/144/226 581/144/226
f 578/144/226 585/144/226 586/144/226
f 579/144/226 581/144/226 583/144/226
f 576/144/226 583/144/226 584/144/226
f 334/144/227 342/144/227 582/144/227
f 575/144/229 586/144/229 346/144/228
f 578/144/226 577/144/226 584/144/226
f 369/144/232 600/144/232 599/144/231
f 362/144/234 595/144/234 594/144/233
f 355/144/236 588/144/236 589/144/235
f 363/144/237 596/144/237 595/144/234
f 356/144/238 587/144/238 588/144/236
f 364/144/239 597/144/239 596/144/237
f 357/144/240 590/144/240 587/144/238
f 358/144/241 591/144/241 590/144/240
f 359/144/242 592/144/242 591/144/241
f 360/144/243 593/144/243 592/144/242
f 368/144/231 599/144/231 598/144/244
f 361/144/233 594/144/233 593/144/243
f 613/144/246 614/144/245 398/144/245
f 608/144/248 609/144/247 391/144/247
f 604/144/250 603/144/249 384/144/249
f 609/144/247 610/144/251 392/144/251
f 603/144/249 601/144/255 385/144/252
f 610/144/251 611/144/253 393/144/253
f 601/144/255 602/144/254 386/144/254
f 611/144/253 612/144/256 394/144/256
f 602/144/254 605/144/259 387/144/257
f 605/144/259 606/144/258 388/144/258
f 606/144/258 607/144/260 389/144/260
f 612/144/256 613/144/246 397/144/246
f 607/144/260 608/144/248 390/144/248
f 588/144/226 603/144/226 604/144/226
f 590/144/226 602/144/226 601/144/226
f 591/144/226 605/144/226 602/144/226
f 606/144/226 605/144/226 591/144/226
f 604/144/262 383/144/261 353/144/261
f 607/144/226 606/144/226 592/144/226
f 608/144/226 607/144/226 593/144/226
f 595/144/226 609/144/226 608/144/226
f 610/144/226 609/144/226 595/144/226
f 611/144/226 610/144/226 596/144/226
f 612/144/226 611/144/226 597/144/226
f 599/144/226 613/144/226 612/144/226
f 614/144/226 613/144/226 599/144/226
f 587/144/226 601/144/226 603/144/226
f 398/144/263 614/144/263 600/144/263
f 413/144/265 617/144/265 615/144/264
f 616/144/267 410/144/267 365/144/266
f 615/144/226 616/144/226 598/144/226
f 409/144/264 615/144/264 597/144/268
f 620/144/270 418/144/270 414/144/269
f 618/144/269 414/144/269 410/144/267
f 615/144/226 617/144/226 618/144/226
f 418/144/272 620/144/271 619/144/271
f 617/144/226 619/144/226 620/144/226
f 417/144/273 619/144/273 617/144/265
f 571/144/417 573/144/226 572/144/226
f 574/144/418 565/144/489 568/144/415
f 429/159/279 663/200/439 627/158/419
f 426/162/282 654/197/441 645/161/420
f 638/164/421 634/166/423 621/163/226
f 634/166/423 644/167/432 622/163/226
f 647/168/424 424/135/436 421/135/288
f 650/170/426 660/170/490 427/142/292
f 621/163/226 622/163/226 648/171/427
f 639/172/429 456/173/297 422/162/296
f 622/163/226 623/163/226 651/174/431
f 644/167/432 653/175/434 623/163/226
f 647/168/424 650/168/426 425/135/302
f 628/176/437 624/169/425 421/135/288
f 422/162/296 423/162/283 645/161/420
f 429/159/279 455/179/306 637/178/438
f 426/137/282 233/137/308 656/180/440
f 627/158/419 633/182/445 631/181/442
f 628/176/437 630/184/443 631/183/442
f 632/186/444 631/238/442 633/185/445
f 637/178/438 643/189/450 641/188/447
f 638/164/421 640/191/448 641/190/447
f 639/172/429 642/193/449 641/192/447
f 455/179/306 457/135/318 643/189/450
f 456/173/297 639/172/429 643/194/450
f 636/196/451 642/193/449 639/172/429
f 634/166/423 638/164/421 642/198/449
f 663/200/439 664/201/452 633/182/445
f 664/202/452 662/165/422 629/187/446
f 626/162/453 632/186/444 629/187/446
f 624/169/425 628/176/437 632/204/444
f 627/158/419 630/205/443 454/136/325
f 630/184/443 628/176/437 452/177/304
f 626/195/453 649/195/454 647/168/424
f 625/203/428 648/171/427 649/162/454
f 646/206/455 636/206/451 635/197/430
f 644/167/432 634/166/423 636/207/451
f 649/195/454 652/195/456 650/168/426
f 648/171/427 651/174/431 652/162/456
f 655/206/457 646/206/455 645/161/420
f 653/175/434 644/167/432 646/207/455
f 655/144/457 658/144/458 657/144/433
f 654/180/441 656/180/440 658/136/458
f 659/144/435 661/144/459 652/144/456
f 661/145/459 660/170/490 650/170/426
f 637/178/438 640/209/448 664/208/452
f 640/191/448 638/164/421 662/165/422
f 662/165/422 621/163/226 625/203/428
f 670/144/392 665/144/400 659/144/399
f 668/144/390 667/144/396 669/144/395
f 665/144/400 670/144/392 669/144/395
f 681/144/461 682/144/412 678/144/411
f 671/144/387 665/144/400 666/144/394
f 671/144/387 672/144/405 674/144/397
f 683/144/408 684/144/410 569/144/413
f 680/144/462 683/144/408 681/144/461
f 667/144/396 668/144/390 677/144/389
f 675/144/404 673/144/402 674/144/397
f 686/144/403 675/144/404 676/144/398
f 503/144/340 505/144/339 573/144/339
f 504/144/343 506/144/378 574/144/463
f 564/144/344 502/144/345 503/144/340
f 505/144/339 504/144/343 572/144/343
f 688/210/464 690/140/473 697/144/465
f 687/143/385 689/145/469 695/214/468
f 689/162/469 688/210/464 694/211/466
f 696/215/470 698/206/472 692/216/471
f 698/144/472 697/144/465 690/144/473
f 693/138/384 695/136/468 701/136/474
f 695/206/468 694/212/466 699/213/467
f 704/144/476 705/144/478 703/144/226
f 525/144/360 704/144/479 702/144/359
f 706/144/477 707/144/480 705/144/478
f 525/144/360 528/144/364 706/144/363
f 708/144/226 709/144/226 707/144/480
f 531/144/366 708/144/366 706/144/363
f 534/144/367 710/144/367 708/144/366
f 538/144/368 709/144/368 712/144/368
f 536/144/370 711/144/370 710/144/369
f 539/144/371 712/144/371 711/144/370
f 715/218/372 716/220/372 714/217/101
f 717/221/122 718/222/122 716/220/372
f 719/206/373 720/207/373 718/222/122
f 721/223/374 722/224/374 720/207/373
f 723/135/375 724/225/375 722/224/374
f 725/226/376 726/227/376 724/225/375
f 714/156/226 716/239/226 718/154/226
f 718/154/226 720/242/226 722/151/226
f 722/151/226 724/241/226 726/147/226
f 726/147/226 728/240/226 714/156/226
f 714/156/226 718/154/226 722/151/226
f 727/228/377 728/229/377 726/227/376
f 713/230/101 714/243/101 728/229/377
f 249/144/376 565/144/481 574/144/463
s 0
f 730/142/226 732/137/226 731/136/226
f 732/137/101 736/206/101 735/135/101
f 736/206/225 734/162/225 733/195/225
f 734/162/374 730/207/374 729/225/374
f 735/135/122 733/195/122 729/234/122
f 732/218/376 730/244/376 734/162/376
s 1
f 533/144/485 530/144/485 707/144/485
f 707/144/485 709/144/485 538/144/485
f 527/144/486 705/144/486 707/144/486
g Launcher_Sigth_Mesh
v -0.013000 -0.002000 0.003000
v -0.013000 -0.002000 -0.010000
v 0.013000 -0.002000 -0.010000
v 0.013000 -0.002000 -0.006000
v 0.017000 -0.002000 -0.006000
v 0.017000 -0.002000 -0.010000
v 0.017000 0.112000 -0.006000
v 0.013000 0.112000 -0.006000
v 0.017000 0.112000 -0.010000
v 0.013000 0.112000 -0.010000
v -0.019000 0.057500 -0.005500
v -0.019000 0.052500 -0.005500
v -0.019000 0.052500 -0.010500
v -0.019000 0.057500 -0.010500
v 0.019000 0.052500 -0.005500
v 0.019000 0.057500 -0.005500
v 0.019000 0.052500 -0.010500
v 0.019000 0.057500 -0.010500
v -0.009000 0.002000 0.003000
v 0.009000 0.002000 0.003000
v 0.013000 0.002000 0.003000
v -0.017000 -0.002000 -0.006000
v -0.013000 -0.002000 -0.006000
v -0.017000 -0.002000 -0.010000
v -0.017000 0.112000 -0.006000
v -0.017000 0.112000 -0.010000
v 0.009000 0.002000 -0.006000
v -0.013000 0.002000 0.003000
v 0.009000 -0.002000 -0.006000
v -0.013000 0.112000 -0.006000
v -0.013000 0.108000 -0.006000
v -0.013000 0.108000 -0.010000
v -0.013000 0.112000 -0.010000
v 0.013000 0.108000 -0.006000
v 0.013000 0.108000 -0.010000
v 0.009000 -0.002000 0.003000
v -0.013000 0.002000 -0.010000
v 0.013000 -0.002000 0.003000
v -0.009000 -0.002000 -0.006000
v -0.013000 0.002000 -0.006000
v 0.013000 0.002000 -0.010000
v 0.013000 0.002000 -0.006000
v -0.015000 0.111800 -0.005000
v -0.015000 0.111800 -0.011000
v 0.015000 0.111800 -0.011000
v 0.015000 0.111800 -0.005000
v 0.016559 0.110900 -0.011000
v 0.016559 0.110900 -0.005000
v 0.016559 0.109100 -0.011000
v 0.016559 0.109100 -0.005000
v 0.015000 0.108200 -0.011000
v 0.015000 0.108200 -0.005000
v 0.013441 0.109100 -0.011000
v 0.013441 0.109100 -0.005000
v 0.013441 0.110900 -0.011000
v 0.013441 0.110900 -0.005000
v -0.013441 0.110900 -0.011000
v -0.013441 0.110900 -0.005000
v -0.013441 0.109100 -0.011000
v -0.013441 0.109100 -0.005000
v -0.015000 0.108200 -0.011000
v -0.015000 0.108200 -0.005000
v -0.016559 0.109100 -0.011000
v -0.016559 0.109100 -0.005000
v -0.016559 0.110900 -0.011000
v -0.016559 0.110900 -0.005000
v -0.009000 -0.002000 0.003000
v -0.009000 0.002000 -0.006000
vn -0.0000 -1.0000 -0.0000
vn -1.0000 -0.0000 -0.0000
vn -0.0000 -0.0000 1.0000
vn -0.0000 -0.0000 -1.0000
vn 1.0000 -0.0000 -0.0000
vn -0.0000 1.0000 -0.0000
vn 0.5000 0.8660 -0.0000
vn -0.5000 -0.8660 -0.0000
vn 0.5000 -0.8660 -0.0000
vn -0.5000 0.8660 -0.0000
vt 0.625000 0.250000
vt 0.375000 0.500000
vt 0.375000 0.250000
vt 0.625000 0.000000
vt 0.375000 0.000000
vt 0.625000 0.500000
vt 0.375000 0.750000
vt 0.875000 0.750000
vt 0.625000 0.750000
vt 0.125000 0.750000
vt 0.125000 0.500000
vt 0.375000 1.000000
vt 0.875000 0.500000
vt 0.250000 0.490000
vt 0.042154 0.130000
vt 0.457846 0.130000
vt 1.000000 1.000000
vt 0.833333 0.500000
vt 1.000000 0.500000
vt 0.500000 1.000000
vt 0.333333 0.500000
vt 0.500000 0.500000
vt 0.833333 1.000000
vt 0.666667 0.500000
vt 0.957846 0.370000
vt 0.750000 0.010000
vt 0.542154 0.370000
vt 0.666667 1.000000
vt 0.166667 1.000000
vt -0.000000 0.500000
vt 0.166667 0.500000
vt 0.333333 1.000000
vt 0.625000 1.000000
vt 0.457846 0.370000
vt 0.042154 0.370000
vt 0.250000 0.010000
vt 0.750000 0.490000
vt 0.957846 0.130000
vt 0.542154 0.130000
vt -0.000000 1.000000
s 0
f 753/245/491 748/246/491 749/247/491
f 739/248/492 744/247/492 746/249/492
f 752/250/493 748/251/493 751/246/493
f 741/250/491 739/252/491 742/253/491
f 739/246/494 745/254/494 742/255/494
f 775/255/495 755/251/495 803/254/495
f 746/253/496 743/256/496 745/251/496
f 737/246/492 776/253/492 759/251/492
f 744/250/493 741/251/493 743/246/493
f 804/248/496 764/247/496 755/249/496
f 775/247/491 737/250/491 759/246/491
f 750/248/496 752/247/496 754/249/496
f 745/245/495 741/246/495 742/247/495
f 754/253/495 751/256/495 753/251/495
f 750/246/494 753/254/494 749/255/494
f 747/257/492 749/253/492 748/250/492
f 740/247/491 772/250/491 765/246/491
f 760/248/492 761/247/492 762/249/492
f 758/257/491 738/253/491 759/250/491
f 760/246/494 769/254/494 738/255/494
f 762/253/496 766/256/496 769/251/496
f 761/250/493 759/251/493 766/246/493
f 769/245/495 759/246/495 738/247/495
f 756/250/492 765/251/492 772/246/492
f 771/245/491 767/246/491 768/247/491
f 744/250/493 767/251/493 770/246/493
f 769/248/496 744/247/496 746/249/496
f 746/253/495 770/256/495 771/251/495
f 768/255/494 746/251/494 771/254/494
f 766/257/492 768/253/492 767/250/492
f 778/248/496 756/247/496 757/249/496
f 740/255/495 757/251/495 774/254/495
f 738/255/494 777/251/494 739/254/494
f 773/248/496 778/247/496 777/249/496
f 778/250/493 759/251/493 740/246/493
f 738/247/491 740/250/491 759/246/491
s 1
f 779/258/493 800/259/493 796/260/493
f 782/261/497 783/262/497 781/263/497
f 798/264/498 799/265/498 797/266/498
f 784/267/495 785/268/495 783/262/495
f 793/269/494 797/270/494 801/271/494
f 796/272/499 797/266/499 795/268/499
f 786/272/499 787/266/499 785/268/499
f 802/273/500 780/274/500 801/275/500
f 794/267/495 795/268/495 793/262/495
f 788/264/498 789/265/498 787/266/498
f 782/258/493 790/259/493 786/260/493
f 779/261/497 793/262/497 780/263/497
f 790/276/492 791/275/492 789/265/492
f 800/276/492 801/275/492 799/265/492
f 792/273/500 781/274/500 791/275/500
f 783/269/494 787/270/494 791/271/494
s 0
f 803/245/493 764/250/493 737/250/493
f 756/250/493 774/254/493 757/251/493
f 753/245/491 751/250/491 748/246/491
f 739/248/492 740/245/492 744/247/492
f 752/250/493 747/253/493 748/251/493
f 741/250/491 740/257/491 739/252/491
f 739/246/494 746/251/494 745/254/494
f 775/255/495 804/246/495 755/251/495
f 746/253/496 744/277/496 743/256/496
f 737/246/492 764/250/492 776/253/492
f 744/250/493 740/253/493 741/251/493
f 804/248/496 776/245/496 764/247/496
f 775/247/491 803/245/491 737/250/491
f 750/248/496 747/245/496 752/247/496
f 745/245/495 743/250/495 741/246/495
f 754/253/495 752/277/495 751/256/495
f 750/246/494 754/251/494 753/254/494
f 747/257/492 750/252/492 749/253/492
f 740/247/491 774/245/491 772/250/491
f 760/248/492 758/245/492 761/247/492
f 758/257/491 760/252/491 738/253/491
f 760/246/494 762/251/494 769/254/494
f 762/253/496 761/277/496 766/256/496
f 761/250/493 758/253/493 759/251/493
f 769/245/495 766/250/495 759/246/495
f 756/250/492 763/253/492 765/251/492
f 771/245/491 770/250/491 767/246/491
f 744/250/493 766/253/493 767/251/493
f 769/248/496 766/245/496 744/247/496
f 746/253/495 744/277/495 770/256/495
f 768/255/494 769/246/494 746/251/494
f 766/257/492 769/252/492 768/253/492
f 778/248/496 763/245/496 756/247/496
f 740/255/495 778/246/495 757/251/495
f 738/255/494 773/246/494 777/251/494
f 773/248/496 776/245/496 778/247/496
f 778/250/493 776/253/493 759/251/493
f 738/247/491 739/245/491 740/250/491
s 1
f 796/260/493 794/278/493 779/258/493
f 779/258/493 802/279/493 800/259/493
f 800/259/493 798/280/493 796/260/493
f 782/261/497 784/267/497 783/262/497
f 798/264/498 800/276/498 799/265/498
f 784/267/495 786/272/495 785/268/495
f 801/271/494 780/281/494 793/269/494
f 793/269/494 795/282/494 797/270/494
f 797/270/494 799/283/494 801/271/494
f 796/272/499 798/264/499 797/266/499
f 786/272/499 788/264/499 787/266/499
f 802/273/500 779/284/500 780/274/500
f 794/267/495 796/272/495 795/268/495
f 788/264/498 790/276/498 789/265/498
f 786/260/493 784/278/493 782/258/493
f 782/258/493 792/279/493 790/259/493
f 790/259/493 788/280/493 786/260/493
f 779/261/497 794/267/497 793/262/497
f 790/276/492 792/273/492 791/275/492
f 800/276/492 802/273/492 801/275/492
f 792/273/500 782/284/500 781/274/500
f 791/271/494 781/281/494 783/269/494
f 783/269/494 785/282/494 787/270/494
f 787/270/494 789/283/494 791/271/494
s 0
f 803/245/493 755/249/493 764/250/493
f 756/250/493 772/250/493 774/254/493
