# Blender 5.1.0
# www.blender.org
mtllib HealthKit.mtl
g Medkit_Mesh
v -0.100000 0.100000 0.100000
v 0.100000 -0.000000 -0.090000
v -0.100000 0.100000 -0.100000
v 0.100000 -0.000000 0.090000
v 0.100000 0.100000 0.100000
v -0.100000 -0.000000 -0.090000
v 0.100000 0.100000 -0.100000
v -0.100000 -0.000000 0.090000
v -0.100000 0.150000 0.100000
v -0.100000 0.200000 0.050000
v -0.100000 0.200000 -0.050000
v -0.100000 0.150000 -0.100000
v 0.100000 0.200000 0.050000
v 0.100000 0.150000 0.100000
v 0.100000 0.150000 -0.100000
v 0.100000 0.200000 -0.050000
v -0.100000 0.098000 0.100000
v 0.100000 0.098000 0.100000
v -0.100000 0.098000 -0.100000
v 0.100000 0.098000 -0.100000
v 0.055000 0.200000 0.040000
v 0.055000 0.209000 0.040000
v 0.055000 0.200000 -0.040000
v 0.055000 0.209000 -0.040000
v 0.080000 0.200000 0.040000
v 0.080000 0.209000 0.040000
v 0.080000 0.200000 -0.040000
v 0.080000 0.209000 -0.040000
v -0.080000 0.200000 0.040000
v -0.080000 0.209000 0.040000
v -0.080000 0.200000 -0.040000
v -0.080000 0.209000 -0.040000
v -0.055000 0.200000 0.040000
v -0.055000 0.209000 0.040000
v -0.055000 0.200000 -0.040000
v -0.055000 0.209000 -0.040000
v 0.000000 0.250000 -0.005000
v 0.035000 0.250000 -0.005000
v 0.000000 0.247500 -0.004330
v 0.035000 0.247500 -0.004330
v 0.000000 0.245670 -0.002500
v 0.035000 0.245670 -0.002500
v 0.000000 0.245000 0.000000
v 0.035000 0.245000 0.000000
v 0.000000 0.245670 0.002500
v 0.035000 0.245670 0.002500
v 0.000000 0.247500 0.004330
v 0.035000 0.247500 0.004330
v 0.000000 0.250000 0.005000
v 0.035000 0.250000 0.005000
v 0.000000 0.252500 0.004330
v 0.035000 0.252500 0.004330
v 0.035000 0.254330 0.002500
v 0.035000 0.255000 0.000000
v 0.035000 0.254330 -0.002500
v 0.000000 0.252500 -0.004330
v 0.035000 0.252500 -0.004330
v 0.042071 0.247071 -0.005000
v 0.040303 0.245303 -0.004330
v 0.039009 0.244009 -0.002500
v 0.038536 0.243536 0.000000
v 0.039009 0.244009 0.002500
v 0.040303 0.245303 0.004330
v 0.042071 0.247071 0.005000
v 0.043839 0.248839 0.004330
v 0.045133 0.250133 0.002500
v 0.045607 0.250607 0.000000
v 0.045133 0.250133 -0.002500
v 0.043839 0.248839 -0.004330
v 0.045000 0.240000 -0.005000
v 0.042500 0.240000 -0.004330
v 0.040670 0.240000 -0.002500
v 0.040000 0.240000 0.000000
v 0.040670 0.240000 0.002500
v 0.042500 0.240000 0.004330
v 0.045000 0.240000 0.005000
v 0.047500 0.240000 0.004330
v 0.049330 0.240000 0.002500
v 0.050000 0.240000 0.000000
v 0.049330 0.240000 -0.002500
v 0.047500 0.240000 -0.004330
v 0.047500 0.220000 -0.004330
v 0.049330 0.220000 -0.002500
v 0.050000 0.220000 0.000000
v 0.049330 0.220000 0.002500
v 0.047500 0.220000 0.004330
v 0.042500 0.220000 0.004330
v 0.040670 0.220000 0.002500
v 0.040670 0.220000 -0.002500
v 0.042500 0.220000 -0.004330
v 0.047929 0.212929 -0.005000
v 0.049697 0.214697 -0.004330
v 0.050991 0.215991 -0.002500
v 0.051464 0.216464 0.000000
v 0.050991 0.215991 0.002500
v 0.049697 0.214697 0.004330
v 0.047929 0.212929 0.005000
v 0.046161 0.211161 0.004330
v 0.044867 0.209867 0.002500
v 0.044393 0.209393 -0.000000
v 0.044867 0.209867 -0.002500
v 0.046161 0.211161 -0.004330
v 0.055000 0.210000 -0.005000
v 0.055000 0.212500 -0.004330
v 0.055000 0.214330 -0.002500
v 0.055000 0.215000 0.000000
v 0.055000 0.214330 0.002500
v 0.055000 0.212500 0.004330
v 0.055000 0.210000 0.005000
v 0.055000 0.207500 0.004330
v 0.055000 0.205670 0.002500
v 0.055000 0.205000 0.000000
v 0.055000 0.205670 -0.002500
v 0.055000 0.207500 -0.004330
v 0.085000 0.212500 -0.004330
v 0.085000 0.210000 -0.005000
v 0.085000 0.214330 -0.002500
v 0.085000 0.215000 0.000000
v 0.085000 0.214330 0.002500
v 0.085000 0.212500 0.004330
v 0.085000 0.210000 0.005000
v 0.085000 0.207500 0.004330
v 0.085000 0.205670 0.002500
v 0.085000 0.205000 0.000000
v 0.085000 0.205670 -0.002500
v 0.085000 0.207500 -0.004330
v 0.045000 0.220000 -0.005000
v 0.040000 0.220000 -0.000000
v 0.080000 0.206250 -0.006495
v 0.045000 0.220000 0.005000
v 0.055000 0.206250 -0.006495
v 0.080000 0.210000 -0.007500
v 0.055000 0.210000 -0.007500
v 0.055000 0.206250 0.006495
v 0.080000 0.206250 0.006495
v 0.055000 0.210000 0.007500
v 0.080000 0.210000 0.007500
v 0.055000 0.213750 0.006495
v 0.080000 0.213750 0.006495
v 0.055000 0.216495 0.003750
v 0.080000 0.216495 0.003750
v 0.055000 0.217500 0.000000
v 0.080000 0.217500 0.000000
v 0.055000 0.216495 -0.003750
v 0.080000 0.216495 -0.003750
v 0.055000 0.213750 -0.006495
v 0.080000 0.213750 -0.006495
v -0.035000 0.250000 -0.005000
v -0.035000 0.247500 -0.004330
v -0.035000 0.245670 -0.002500
v -0.035000 0.245000 0.000000
v -0.035000 0.245670 0.002500
v -0.035000 0.247500 0.004330
v -0.035000 0.250000 0.005000
v -0.035000 0.252500 0.004330
v 0.000000 0.254330 0.002500
v -0.035000 0.254330 0.002500
v 0.000000 0.255000 0.000000
v -0.035000 0.255000 0.000000
v 0.000000 0.254330 -0.002500
v -0.035000 0.254330 -0.002500
v -0.035000 0.252500 -0.004330
v -0.042071 0.247071 -0.005000
v -0.040303 0.245303 -0.004330
v -0.039009 0.244009 -0.002500
v -0.038536 0.243536 0.000000
v -0.039009 0.244009 0.002500
v -0.040303 0.245303 0.004330
v -0.042071 0.247071 0.005000
v -0.043839 0.248839 0.004330
v -0.045133 0.250133 0.002500
v -0.045607 0.250607 0.000000
v -0.045133 0.250133 -0.002500
v -0.043839 0.248839 -0.004330
v -0.045000 0.240000 -0.005000
v -0.042500 0.240000 -0.004330
v -0.040670 0.240000 -0.002500
v -0.040000 0.240000 0.000000
v -0.040670 0.240000 0.002500
v -0.042500 0.240000 0.004330
v -0.045000 0.240000 0.005000
v -0.047500 0.240000 0.004330
v -0.049330 0.240000 0.002500
v -0.050000 0.240000 0.000000
v -0.049330 0.240000 -0.002500
v -0.047500 0.240000 -0.004330
v -0.047500 0.220000 -0.004330
v -0.049330 0.220000 -0.002500
v -0.050000 0.220000 0.000000
v -0.049330 0.220000 0.002500
v -0.047500 0.220000 0.004330
v -0.042500 0.220000 0.004330
v -0.040670 0.220000 0.002500
v -0.040670 0.220000 -0.002500
v -0.042500 0.220000 -0.004330
v -0.047929 0.212929 -0.005000
v -0.049697 0.214697 -0.004330
v -0.050991 0.215991 -0.002500
v -0.051464 0.216464 0.000000
v -0.050991 0.215991 0.002500
v -0.049697 0.214697 0.004330
v -0.047929 0.212929 0.005000
v -0.046161 0.211161 0.004330
v -0.044867 0.209867 0.002500
v -0.044393 0.209393 -0.000000
v -0.044867 0.209867 -0.002500
v -0.046161 0.211161 -0.004330
v -0.055000 0.210000 -0.005000
v -0.055000 0.212500 -0.004330
v -0.055000 0.214330 -0.002500
v -0.055000 0.215000 0.000000
v -0.055000 0.214330 0.002500
v -0.055000 0.212500 0.004330
v -0.055000 0.210000 0.005000
v -0.055000 0.207500 0.004330
v -0.055000 0.205670 0.002500
v -0.055000 0.205000 0.000000
v -0.055000 0.205670 -0.002500
v -0.055000 0.207500 -0.004330
v -0.085000 0.212500 -0.004330
v -0.085000 0.210000 -0.005000
v -0.085000 0.214330 -0.002500
v -0.085000 0.215000 0.000000
v -0.085000 0.214330 0.002500
v -0.085000 0.212500 0.004330
v -0.085000 0.210000 0.005000
v -0.085000 0.207500 0.004330
v -0.085000 0.205670 0.002500
v -0.085000 0.205000 0.000000
v -0.085000 0.205670 -0.002500
v -0.085000 0.207500 -0.004330
v -0.045000 0.220000 -0.005000
v -0.040000 0.220000 -0.000000
v -0.045000 0.220000 0.005000
v -0.090000 0.070000 -0.098000
v -0.090000 0.098000 -0.100000
v -0.090000 0.070000 -0.108000
v -0.090000 0.098000 -0.110000
v -0.050000 0.070000 -0.098000
v -0.050000 0.098000 -0.100000
v -0.050000 0.070000 -0.108000
v -0.050000 0.098000 -0.110000
v -0.090000 0.100000 -0.100000
v -0.090000 0.130000 -0.100000
v -0.090000 0.100000 -0.110000
v -0.090000 0.130000 -0.110000
v -0.050000 0.100000 -0.100000
v -0.050000 0.130000 -0.100000
v -0.050000 0.100000 -0.110000
v -0.050000 0.130000 -0.110000
v 0.050000 0.098000 -0.100000
v 0.050000 0.070000 -0.098000
v -0.090000 0.100000 -0.120000
v -0.050000 0.100000 -0.120000
v -0.090000 0.092929 -0.117071
v -0.050000 0.092929 -0.117071
v -0.090000 0.090000 -0.110000
v -0.050000 0.090000 -0.110000
v -0.090000 0.092929 -0.102929
v -0.050000 0.092929 -0.102929
v -0.090000 0.100000 -0.100000
v -0.050000 0.100000 -0.100000
v -0.090000 0.107071 -0.102929
v -0.050000 0.107071 -0.102929
v -0.090000 0.110000 -0.110000
v -0.050000 0.110000 -0.110000
v -0.090000 0.107071 -0.117071
v -0.050000 0.107071 -0.117071
v 0.050000 0.070000 -0.108000
v 0.050000 0.098000 -0.110000
v 0.090000 0.070000 -0.098000
v 0.090000 0.098000 -0.100000
v 0.090000 0.070000 -0.108000
v 0.090000 0.098000 -0.110000
v 0.050000 0.100000 -0.100000
v 0.050000 0.130000 -0.100000
v 0.050000 0.100000 -0.110000
v 0.050000 0.130000 -0.110000
v 0.090000 0.100000 -0.100000
v 0.090000 0.130000 -0.100000
v 0.090000 0.100000 -0.110000
v 0.090000 0.130000 -0.110000
v 0.050000 0.100000 -0.120000
v 0.090000 0.100000 -0.120000
v 0.050000 0.092929 -0.117071
v 0.090000 0.092929 -0.117071
v 0.050000 0.090000 -0.110000
v 0.090000 0.090000 -0.110000
v 0.050000 0.092929 -0.102929
v 0.090000 0.092929 -0.102929
v 0.050000 0.100000 -0.100000
v 0.090000 0.100000 -0.100000
v 0.050000 0.107071 -0.102929
v 0.090000 0.107071 -0.102929
v 0.050000 0.110000 -0.110000
v 0.090000 0.110000 -0.110000
v 0.050000 0.107071 -0.117071
v 0.090000 0.107071 -0.117071
v -0.020000 0.100000 0.110000
v -0.020000 0.120000 0.110000
v -0.020000 0.100000 0.100000
v -0.020000 0.120000 0.100000
v 0.020000 0.100000 0.110000
v 0.020000 0.120000 0.110000
v 0.020000 0.100000 0.100000
v 0.020000 0.120000 0.100000
v -0.020000 0.063000 0.106000
v -0.020000 0.098000 0.110000
v -0.020000 0.063000 0.096000
v -0.020000 0.098000 0.100000
v 0.020000 0.063000 0.106000
v 0.020000 0.098000 0.110000
v 0.020000 0.063000 0.096000
v 0.020000 0.098000 0.100000
v -0.055000 0.206250 -0.006495
v -0.080000 0.206250 -0.006495
v -0.055000 0.210000 -0.007500
v -0.080000 0.210000 -0.007500
v -0.080000 0.206250 0.006495
v -0.055000 0.206250 0.006495
v -0.080000 0.210000 0.007500
v -0.055000 0.210000 0.007500
v -0.080000 0.213750 0.006495
v -0.055000 0.213750 0.006495
v -0.080000 0.216495 0.003750
v -0.055000 0.216495 0.003750
v -0.080000 0.217500 0.000000
v -0.055000 0.217500 0.000000
v -0.080000 0.216495 -0.003750
v -0.055000 0.216495 -0.003750
v -0.080000 0.213750 -0.006495
v -0.055000 0.213750 -0.006495
v -0.007500 0.160000 0.100000
v -0.007500 0.200000 0.060000
v -0.007500 0.155000 0.095000
v -0.007500 0.195000 0.055000
v 0.007500 0.160000 0.100000
v 0.007500 0.200000 0.060000
v 0.007500 0.155000 0.095000
v 0.007500 0.195000 0.055000
v -0.007500 0.174333 0.085667
v -0.007500 0.185667 0.074333
v -0.007500 0.180667 0.069333
v -0.007500 0.169333 0.080667
v 0.007500 0.180667 0.069333
v 0.007500 0.169333 0.080667
v 0.007500 0.185667 0.074333
v 0.007500 0.174333 0.085667
v 0.029500 0.180667 0.069333
v 0.029500 0.169333 0.080667
v 0.029500 0.185667 0.074333
v 0.029500 0.174333 0.085667
v -0.029500 0.174333 0.085667
v -0.029500 0.185667 0.074333
v -0.029500 0.180667 0.069333
v -0.029500 0.169333 0.080667
v -0.007500 0.160000 -0.100000
v -0.007500 0.200000 -0.060000
v -0.007500 0.155000 -0.095000
v -0.007500 0.195000 -0.055000
v 0.007500 0.160000 -0.100000
v 0.007500 0.200000 -0.060000
v 0.007500 0.155000 -0.095000
v 0.007500 0.195000 -0.055000
v -0.007500 0.174333 -0.085667
v -0.007500 0.185667 -0.074333
v -0.007500 0.180667 -0.069333
v -0.007500 0.169333 -0.080667
v 0.007500 0.180667 -0.069333
v 0.007500 0.169333 -0.080667
v 0.007500 0.185667 -0.074333
v 0.007500 0.174333 -0.085667
v 0.029500 0.180667 -0.069333
v 0.029500 0.169333 -0.080667
v 0.029500 0.185667 -0.074333
v 0.029500 0.174333 -0.085667
v -0.029500 0.174333 -0.085667
v -0.029500 0.185667 -0.074333
v -0.029500 0.180667 -0.069333
v -0.029500 0.169333 -0.080667
v -0.100000 0.100000 -0.100000
v -0.100000 0.100000 -0.100000
v -0.100000 0.100000 0.100000
v -0.100000 0.100000 0.100000
v 0.100000 0.098000 -0.100000
v 0.100000 0.098000 -0.100000
v -0.100000 0.098000 -0.100000
v -0.100000 0.098000 -0.100000
v 0.100000 0.098000 0.100000
v 0.100000 0.098000 0.100000
v -0.100000 0.098000 0.100000
v -0.100000 0.098000 0.100000
v 0.100000 0.100000 -0.100000
v 0.100000 0.100000 -0.100000
v -0.100000 -0.000000 0.090000
v -0.100000 -0.000000 0.090000
v 0.100000 -0.000000 0.090000
v 0.100000 -0.000000 0.090000
v -0.100000 -0.000000 -0.090000
v -0.100000 -0.000000 -0.090000
v 0.100000 0.100000 0.100000
v 0.100000 0.100000 0.100000
v 0.100000 -0.000000 -0.090000
v 0.100000 -0.000000 -0.090000
v -0.100000 0.150000 -0.100000
v -0.100000 0.200000 -0.050000
v 0.100000 0.200000 -0.050000
v 0.100000 0.150000 -0.100000
v 0.100000 0.150000 0.100000
v 0.100000 0.200000 0.050000
v -0.100000 0.200000 0.050000
v -0.100000 0.150000 0.100000
v 0.055000 0.200000 -0.040000
v 0.055000 0.200000 -0.040000
v 0.055000 0.200000 0.040000
v 0.055000 0.200000 0.040000
v 0.055000 0.209000 0.040000
v 0.055000 0.209000 0.040000
v 0.055000 0.209000 -0.040000
v 0.055000 0.209000 -0.040000
v 0.080000 0.200000 -0.040000
v 0.080000 0.200000 -0.040000
v 0.080000 0.209000 -0.040000
v 0.080000 0.209000 -0.040000
v 0.080000 0.200000 0.040000
v 0.080000 0.200000 0.040000
v 0.080000 0.209000 0.040000
v 0.080000 0.209000 0.040000
v -0.080000 0.200000 -0.040000
v -0.080000 0.200000 -0.040000
v -0.080000 0.200000 0.040000
v -0.080000 0.200000 0.040000
v -0.080000 0.209000 0.040000
v -0.080000 0.209000 0.040000
v -0.080000 0.209000 -0.040000
v -0.080000 0.209000 -0.040000
v -0.055000 0.200000 -0.040000
v -0.055000 0.200000 -0.040000
v -0.055000 0.209000 -0.040000
v -0.055000 0.209000 -0.040000
v -0.055000 0.200000 0.040000
v -0.055000 0.200000 0.040000
v -0.055000 0.209000 0.040000
v -0.055000 0.209000 0.040000
v 0.055000 0.206250 0.006495
v 0.055000 0.210000 0.007500
v 0.085000 0.212500 -0.004330
v 0.085000 0.210000 -0.005000
v 0.085000 0.214330 -0.002500
v 0.085000 0.215000 0.000000
v 0.085000 0.214330 0.002500
v 0.085000 0.212500 0.004330
v 0.085000 0.210000 0.005000
v 0.085000 0.207500 0.004330
v 0.085000 0.205670 0.002500
v 0.085000 0.205000 0.000000
v 0.085000 0.205670 -0.002500
v 0.085000 0.207500 -0.004330
v 0.080000 0.206250 -0.006495
v 0.080000 0.210000 -0.007500
v 0.055000 0.210000 -0.007500
v 0.055000 0.206250 -0.006495
v 0.080000 0.210000 0.007500
v 0.080000 0.206250 0.006495
v 0.055000 0.213750 0.006495
v 0.080000 0.213750 0.006495
v 0.055000 0.216495 0.003750
v 0.080000 0.216495 0.003750
v 0.055000 0.217500 0.000000
v 0.080000 0.217500 0.000000
v 0.055000 0.216495 -0.003750
v 0.080000 0.216495 -0.003750
v 0.055000 0.213750 -0.006495
v 0.080000 0.213750 -0.006495
v -0.085000 0.212500 -0.004330
v -0.085000 0.210000 -0.005000
v -0.085000 0.214330 -0.002500
v -0.085000 0.215000 0.000000
v -0.085000 0.214330 0.002500
v -0.085000 0.212500 0.004330
v -0.085000 0.210000 0.005000
v -0.085000 0.207500 0.004330
v -0.085000 0.205670 0.002500
v -0.085000 0.205000 0.000000
v -0.085000 0.205670 -0.002500
v -0.085000 0.207500 -0.004330
v -0.090000 0.070000 -0.108000
v -0.090000 0.070000 -0.108000
v -0.090000 0.070000 -0.098000
v -0.090000 0.070000 -0.098000
v -0.090000 0.098000 -0.100000
v -0.090000 0.098000 -0.100000
v -0.090000 0.098000 -0.110000
v -0.090000 0.098000 -0.110000
v -0.050000 0.070000 -0.108000
v -0.050000 0.070000 -0.108000
v -0.050000 0.098000 -0.110000
v -0.050000 0.098000 -0.110000
v -0.050000 0.070000 -0.098000
v -0.050000 0.070000 -0.098000
v -0.050000 0.098000 -0.100000
v -0.050000 0.098000 -0.100000
v -0.090000 0.100000 -0.110000
v -0.090000 0.100000 -0.110000
v -0.090000 0.100000 -0.100000
v -0.090000 0.100000 -0.100000
v -0.090000 0.130000 -0.100000
v -0.090000 0.130000 -0.100000
v -0.090000 0.130000 -0.110000
v -0.090000 0.130000 -0.110000
v -0.050000 0.100000 -0.110000
v -0.050000 0.100000 -0.110000
v -0.050000 0.130000 -0.110000
v -0.050000 0.130000 -0.110000
v -0.050000 0.100000 -0.100000
v -0.050000 0.100000 -0.100000
v -0.050000 0.130000 -0.100000
v -0.050000 0.130000 -0.100000
v 0.050000 0.130000 -0.110000
v 0.050000 0.130000 -0.110000
v 0.050000 0.100000 -0.110000
v 0.050000 0.100000 -0.110000
v 0.050000 0.130000 -0.100000
v 0.050000 0.130000 -0.100000
v -0.090000 0.100000 -0.120000
v -0.090000 0.092929 -0.117071
v 0.090000 0.070000 -0.098000
v 0.090000 0.070000 -0.098000
v 0.090000 0.070000 -0.108000
v 0.090000 0.070000 -0.108000
v 0.090000 0.098000 -0.110000
v 0.090000 0.098000 -0.110000
v -0.050000 0.092929 -0.117071
v -0.050000 0.100000 -0.120000
v 0.050000 0.100000 -0.100000
v 0.050000 0.100000 -0.100000
v -0.090000 0.090000 -0.110000
v 0.050000 0.098000 -0.110000
v 0.050000 0.098000 -0.110000
v -0.050000 0.090000 -0.110000
v -0.090000 0.092929 -0.102929
v 0.050000 0.070000 -0.108000
v 0.050000 0.070000 -0.108000
v -0.050000 0.092929 -0.102929
v 0.090000 0.098000 -0.100000
v 0.090000 0.098000 -0.100000
v 0.050000 0.098000 -0.100000
v 0.050000 0.098000 -0.100000
v -0.090000 0.100000 -0.100000
v -0.050000 0.100000 -0.100000
v 0.050000 0.070000 -0.098000
v 0.050000 0.070000 -0.098000
v -0.090000 0.107071 -0.102929
v -0.050000 0.107071 -0.102929
v -0.090000 0.110000 -0.110000
v -0.050000 0.110000 -0.110000
v -0.090000 0.107071 -0.117071
v -0.050000 0.107071 -0.117071
v 0.090000 0.100000 -0.110000
v 0.090000 0.100000 -0.110000
v 0.090000 0.130000 -0.110000
v 0.090000 0.130000 -0.110000
v 0.090000 0.100000 -0.100000
v 0.090000 0.100000 -0.100000
v 0.090000 0.130000 -0.100000
v 0.090000 0.130000 -0.100000
v 0.050000 0.100000 -0.120000
v 0.050000 0.092929 -0.117071
v 0.090000 0.092929 -0.117071
v 0.090000 0.100000 -0.120000
v 0.050000 0.090000 -0.110000
v 0.090000 0.090000 -0.110000
v 0.050000 0.092929 -0.102929
v 0.090000 0.092929 -0.102929
v 0.050000 0.100000 -0.100000
v 0.090000 0.100000 -0.100000
v 0.050000 0.107071 -0.102929
v 0.090000 0.107071 -0.102929
v 0.050000 0.110000 -0.110000
v 0.090000 0.110000 -0.110000
v 0.050000 0.107071 -0.117071
v 0.090000 0.107071 -0.117071
v -0.020000 0.100000 0.100000
v -0.020000 0.100000 0.100000
v -0.020000 0.100000 0.110000
v -0.020000 0.100000 0.110000
v -0.020000 0.120000 0.110000
v -0.020000 0.120000 0.110000
v -0.020000 0.120000 0.100000
v -0.020000 0.120000 0.100000
v 0.020000 0.100000 0.100000
v 0.020000 0.100000 0.100000
v 0.020000 0.120000 0.100000
v 0.020000 0.120000 0.100000
v 0.020000 0.100000 0.110000
v 0.020000 0.100000 0.110000
v 0.020000 0.120000 0.110000
v 0.020000 0.120000 0.110000
v -0.020000 0.063000 0.096000
v -0.020000 0.063000 0.096000
v -0.020000 0.063000 0.106000
v -0.020000 0.063000 0.106000
v -0.020000 0.098000 0.110000
v -0.020000 0.098000 0.110000
v -0.020000 0.098000 0.100000
v -0.020000 0.098000 0.100000
v 0.020000 0.063000 0.096000
v 0.020000 0.063000 0.096000
v 0.020000 0.098000 0.100000
v 0.020000 0.098000 0.100000
v 0.020000 0.063000 0.106000
v 0.020000 0.063000 0.106000
v 0.020000 0.098000 0.110000
v 0.020000 0.098000 0.110000
v -0.080000 0.206250 0.006495
v -0.080000 0.210000 0.007500
v -0.055000 0.206250 -0.006495
v -0.055000 0.210000 -0.007500
v -0.080000 0.210000 -0.007500
v -0.080000 0.206250 -0.006495
v -0.055000 0.210000 0.007500
v -0.055000 0.206250 0.006495
v -0.080000 0.213750 0.006495
v -0.055000 0.213750 0.006495
v -0.080000 0.216495 0.003750
v -0.055000 0.216495 0.003750
v -0.080000 0.217500 0.000000
v -0.055000 0.217500 0.000000
v -0.080000 0.216495 -0.003750
v -0.055000 0.216495 -0.003750
v -0.080000 0.213750 -0.006495
v -0.055000 0.213750 -0.006495
v -0.007500 0.155000 0.095000
v -0.007500 0.160000 0.100000
v -0.007500 0.160000 0.100000
v -0.007500 0.185667 0.074333
v -0.007500 0.185667 0.074333
v -0.007500 0.200000 0.060000
v -0.007500 0.200000 0.060000
v -0.007500 0.195000 0.055000
v 0.007500 0.160000 0.100000
v 0.007500 0.160000 0.100000
v 0.007500 0.155000 0.095000
v 0.007500 0.195000 0.055000
v 0.007500 0.200000 0.060000
v 0.007500 0.200000 0.060000
v 0.007500 0.174333 0.085667
v 0.007500 0.174333 0.085667
v -0.007500 0.174333 0.085667
v -0.007500 0.174333 0.085667
v -0.007500 0.200000 -0.060000
v -0.007500 0.200000 -0.060000
v -0.007500 0.195000 -0.055000
v 0.007500 0.185667 0.074333
v 0.007500 0.185667 0.074333
v 0.007500 0.169333 0.080667
v 0.007500 0.180667 0.069333
v -0.007500 0.185667 -0.074333
v -0.007500 0.185667 -0.074333
v -0.007500 0.155000 -0.095000
v -0.007500 0.160000 -0.100000
v -0.007500 0.160000 -0.100000
v -0.007500 0.169333 0.080667
v -0.007500 0.180667 0.069333
v 0.029500 0.185667 0.074333
v 0.029500 0.185667 0.074333
v 0.029500 0.174333 0.085667
v 0.029500 0.174333 0.085667
v 0.029500 0.169333 0.080667
v 0.029500 0.180667 0.069333
v -0.029500 0.174333 0.085667
v -0.029500 0.174333 0.085667
v -0.029500 0.185667 0.074333
v -0.029500 0.185667 0.074333
v -0.029500 0.169333 0.080667
v -0.029500 0.180667 0.069333
v 0.007500 0.160000 -0.100000
v 0.007500 0.160000 -0.100000
v 0.007500 0.155000 -0.095000
v 0.007500 0.195000 -0.055000
v 0.007500 0.200000 -0.060000
v 0.007500 0.200000 -0.060000
v 0.007500 0.174333 -0.085667
v 0.007500 0.174333 -0.085667
v -0.007500 0.174333 -0.085667
v -0.007500 0.174333 -0.085667
v 0.007500 0.185667 -0.074333
v 0.007500 0.185667 -0.074333
v 0.007500 0.169333 -0.080667
v 0.007500 0.180667 -0.069333
v -0.007500 0.169333 -0.080667
v -0.007500 0.180667 -0.069333
v 0.029500 0.185667 -0.074333
v 0.029500 0.185667 -0.074333
v 0.029500 0.174333 -0.085667
v 0.029500 0.174333 -0.085667
v 0.029500 0.169333 -0.080667
v 0.029500 0.180667 -0.069333
v -0.029500 0.174333 -0.085667
v -0.029500 0.174333 -0.085667
v -0.029500 0.185667 -0.074333
v -0.029500 0.185667 -0.074333
v -0.029500 0.169333 -0.080667
v -0.029500 0.180667 -0.069333
vn -0.0000 1.0000 -0.0000
vn 1.0000 -0.0000 -0.0000
vn -0.0000 -0.1015 0.9948
vn -0.0000 -0.1015 -0.9948
vn -0.0000 -1.0000 -0.0000
vn -0.0000 0.7071 -0.7071
vn -0.0000 0.7071 0.7071
vn -0.0000 -0.0000 1.0000
vn -1.0000 -0.0000 -0.0000
vn -0.0000 -0.0000 -1.0000
vn 0.0133 0.0322 -0.9994
vn -0.0000 -0.5000 -0.8660
vn -0.1730 -0.8443 -0.5071
vn -0.0000 -0.8660 -0.5000
vn -0.2015 -0.9795 -0.0000
vn -0.0000 -0.8660 0.5000
vn -0.1730 -0.8443 0.5071
vn -0.0000 -0.5000 0.8660
vn -0.0932 -0.4723 0.8765
vn 0.0133 0.0322 0.9994
vn -0.0000 0.5000 0.8660
vn 0.1089 0.5190 0.8478
vn -0.0000 0.8660 0.5000
vn 0.1693 0.8603 0.4809
vn 0.1892 0.9819 -0.0000
vn -0.0000 0.8660 -0.5000
vn -0.5998 -0.5998 0.5296
vn -0.3172 -0.3172 0.8937
vn 0.1693 0.8603 -0.4809
vn -0.0000 0.5000 -0.8660
vn 0.1089 0.5190 -0.8478
vn -0.5998 -0.5998 -0.5296
vn -0.9795 -0.2015 -0.0000
vn -0.7071 -0.7071 -0.0000
vn 0.3855 0.3855 -0.8383
vn 0.0456 0.0456 -0.9979
vn -0.0932 -0.4723 -0.8765
vn -0.3172 -0.3172 -0.8937
vn 0.6225 0.6225 -0.4744
vn 0.6225 0.6225 0.4744
vn 0.7071 0.7071 -0.0000
vn 0.3855 0.3855 0.8383
vn 0.0456 0.0456 0.9979
vn -0.4723 -0.0932 0.8765
vn -0.0322 -0.0133 0.9994
vn 0.0322 0.0133 0.9994
vn 0.8603 0.1693 -0.4809
vn 0.5190 0.1089 0.8478
vn -0.8444 -0.1730 0.5071
vn 0.5190 0.1089 -0.8478
vn 0.0322 0.0133 -0.9994
vn -0.4723 -0.0932 -0.8765
vn 0.8603 0.1693 0.4809
vn -0.8444 -0.1730 -0.5071
vn 0.9819 0.1892 -0.0000
vn 0.4723 0.0932 0.8765
vn 0.5998 0.5998 0.5296
vn 0.8444 0.1730 0.5071
vn 0.2015 0.9795 -0.0000
vn 0.5998 0.5998 -0.5296
vn 0.9795 0.2015 -0.0000
vn -0.0456 -0.0456 -0.9979
vn -0.5190 -0.1089 -0.8478
vn -0.0322 -0.0133 -0.9994
vn 0.3172 0.3172 -0.8937
vn 0.4723 0.0932 -0.8765
vn 0.8444 0.1730 -0.5071
vn -0.3855 -0.3855 -0.8383
vn -0.8603 -0.1693 -0.4809
vn -0.9819 -0.1892 -0.0000
vn -0.8603 -0.1693 0.4809
vn -0.3855 -0.3855 0.8383
vn -0.5190 -0.1089 0.8478
vn -0.0456 -0.0456 0.9979
vn 0.1730 0.8444 0.5071
vn -0.6225 -0.6225 -0.4744
vn -0.1892 -0.9819 -0.0000
vn -0.0133 -0.0322 0.9994
vn -0.1089 -0.5190 -0.8478
vn -0.0133 -0.0322 -0.9994
vn -0.6225 -0.6225 0.4744
vn -0.1089 -0.5190 0.8478
vn 0.3172 0.3172 0.8937
vn 0.0932 0.4723 -0.8765
vn -0.1693 -0.8603 -0.4809
vn -0.1693 -0.8603 0.4809
vn 0.0932 0.4723 0.8765
vn 0.1730 0.8444 -0.5071
vn -0.0000 -0.2588 -0.9659
vn -0.0000 -0.2588 0.9659
vn -0.0133 0.0322 -0.9994
vn 0.1730 -0.8443 -0.5071
vn 0.0932 -0.4723 -0.8765
vn 0.2015 -0.9795 -0.0000
vn 0.1730 -0.8443 0.5071
vn 0.0932 -0.4723 0.8765
vn -0.0133 0.0322 0.9994
vn -0.1089 0.5190 0.8478
vn -0.1693 0.8603 0.4809
vn -0.1892 0.9819 -0.0000
vn 0.5998 -0.5998 0.5296
vn -0.1693 0.8603 -0.4809
vn -0.1089 0.5190 -0.8478
vn 0.9795 -0.2015 -0.0000
vn 0.5998 -0.5998 -0.5296
vn 0.7071 -0.7071 -0.0000
vn -0.3855 0.3855 -0.8383
vn -0.0456 0.0456 -0.9979
vn -0.6225 0.6225 -0.4744
vn -0.6225 0.6225 0.4744
vn -0.3855 0.3855 0.8383
vn -0.0456 0.0456 0.9979
vn 0.0322 -0.0133 0.9994
vn 0.4723 -0.0932 0.8765
vn -0.0322 0.0133 0.9994
vn -0.8603 0.1693 -0.4809
vn -0.7071 0.7071 -0.0000
vn -0.5190 0.1089 0.8478
vn -0.5190 0.1089 -0.8478
vn 0.3172 -0.3172 -0.8937
vn -0.0322 0.0133 -0.9994
vn 0.3172 -0.3172 0.8937
vn 0.4723 -0.0932 -0.8765
vn -0.8603 0.1693 0.4809
vn -0.4723 0.0932 0.8765
vn -0.5998 0.5998 0.5296
vn -0.3172 0.3172 0.8937
vn -0.5998 0.5998 -0.5296
vn -0.2015 0.9795 -0.0000
vn -0.8444 0.1730 0.5071
vn 0.5190 -0.1089 -0.8478
vn 0.0456 -0.0456 -0.9979
vn 0.0322 -0.0133 -0.9994
vn -0.3172 0.3172 -0.8937
vn -0.4723 0.0932 -0.8765
vn -0.8444 0.1730 -0.5071
vn -0.9795 0.2015 -0.0000
vn 0.8603 -0.1693 -0.4809
vn 0.3855 -0.3855 -0.8383
vn 0.6225 -0.6225 -0.4744
vn 0.8603 -0.1693 0.4809
vn 0.9819 -0.1892 -0.0000
vn 0.3855 -0.3855 0.8383
vn 0.6225 -0.6225 0.4744
vn 0.5190 -0.1089 0.8478
vn 0.0456 -0.0456 0.9979
vn -0.1730 0.8444 0.5071
vn 0.1892 -0.9819 -0.0000
vn 0.1693 -0.8603 -0.4809
vn 0.0133 -0.0322 0.9994
vn 0.1089 -0.5190 0.8478
vn 0.1089 -0.5190 -0.8478
vn 0.0133 -0.0322 -0.9994
vn -0.0932 0.4723 -0.8765
vn 0.1693 -0.8603 0.4809
vn -0.0932 0.4723 0.8765
vn -0.1730 0.8444 -0.5071
vn 0.8443 -0.1730 -0.5071
vn -0.9819 0.1892 -0.0000
vn 0.8444 -0.1730 0.5071
vn -0.0000 -0.0712 -0.9975
vn -0.0000 0.0712 0.9975
vn -0.0000 -0.7071 -0.7071
vn -0.0000 -0.7071 0.7071
vn -0.0000 0.1135 -0.9935
vn -0.0000 -0.1135 0.9935
vt 0.125000 0.750000
vt 0.375000 0.500000
vt 0.125000 0.500000
vt 0.375000 0.750000
vt 0.625000 0.541667
vt 0.562500 0.250000
vt 0.625000 0.218750
vt 0.625000 1.000000
vt 0.562500 0.750000
vt 0.625000 0.708333
vt 0.375000 1.000000
vt 0.562500 0.000000
vt 0.375000 0.250000
vt 0.875000 0.562500
vt 0.562500 0.500000
vt 0.625000 0.000000
vt 0.375000 0.000000
vt 0.625000 0.250000
vt 0.625000 0.500000
vt 0.625000 0.750000
vt 0.875000 0.500000
vt 1.000000 1.000000
vt 0.916667 0.500000
vt 1.000000 0.500000
vt 0.833333 1.000000
vt 0.833333 0.500000
vt 0.750000 0.500000
vt 0.750000 1.000000
vt 0.666667 0.500000
vt 0.666667 1.000000
vt 0.583333 0.500000
vt 0.583333 1.000000
vt 0.500000 0.500000
vt 0.500000 1.000000
vt 0.416667 0.500000
vt 0.416667 1.000000
vt 0.333333 0.500000
vt 0.333333 1.000000
vt 0.250000 0.500000
vt 0.250000 1.000000
vt 0.166667 0.500000
vt 0.166667 1.000000
vt 0.083333 0.500000
vt 0.083333 1.000000
vt 0.000000 0.500000
vt 0.000000 1.000000
vt 0.916667 1.000000
vt 0.457846 0.130000
vt 0.042154 0.130000
vt 0.250000 0.490000
vt 0.250000 0.010000
vt 0.870000 0.457846
vt 0.542154 0.130000
vt 0.542154 0.370000
vt 0.042154 0.370000
vt 0.457846 0.370000
vt 0.875000 1.000000
vt 0.750000 0.500000
vt 0.750000 1.000000
vt 0.500000 0.500000
vt 0.500000 1.000000
vt 0.250000 0.500000
vt 0.010000 0.250000
vt 0.490000 0.250000
vt 0.250000 1.000000
vt 0.125000 1.000000
vt 0.000000 0.500000
vt 0.919706 0.080294
vt 0.580294 0.080294
vt 0.580294 0.419706
vt 0.541667 0.250000
vt 0.541667 0.000000
vt 0.541667 0.750000
vt 0.541667 0.500000
vt 0.541667 1.000000
vt 0.458333 0.750000
vt 0.458333 1.000000
vt 0.458333 0.500000
vt 0.458333 0.250000
vt 0.458333 0.000000
vt 0.562500 1.000000
vt 0.625000 0.062500
vt 0.875000 0.687500
vt 0.875000 0.750000
vt 0.370000 0.457846
vt 0.370000 0.042154
vt 0.130000 0.042154
vt 0.130000 0.457846
vt 0.630000 0.457846
vt 0.750000 0.490000
vt 0.870000 0.042154
vt 0.750000 0.010000
vt 0.630000 0.042154
vt 0.510000 0.250000
vt 0.419706 0.419706
vt 0.080294 0.419706
vt 0.080294 0.080294
vt 0.419706 0.080294
vt 0.000000 1.000000
vt 0.919706 0.419706
vt 0.990000 0.250000
s 0
f 391/1/1 385/2/1 387/3/1
f 386/2/2 398/4/2 403/2/2
f 18/4/3 395/1/3 397/4/3
f 388/3/4 404/2/4 400/3/4
f 393/2/5 383/1/5 381/3/5
f 2/2/5 396/1/5 399/3/5
f 407/5/6 405/6/6 406/7/6
f 411/8/7 409/9/7 410/10/7
f 409/9/8 384/11/8 402/4/8
f 9/12/9 11/7/9 382/13/9
f 406/14/1 410/10/1 407/5/1
f 405/6/10 394/2/10 3/13/10
f 15/15/2 13/10/2 5/4/2
f 17/1/9 6/3/9 8/1/9
f 417/16/9 413/13/9 415/17/9
f 420/18/10 421/2/10 414/13/10
f 424/19/2 425/4/2 422/2/2
f 428/20/8 416/11/8 426/4/8
f 27/2/5 21/1/5 23/3/5
f 24/21/1 26/20/1 28/19/1
f 433/16/9 429/13/9 431/17/9
f 436/18/10 437/2/10 430/13/10
f 440/19/2 441/4/2 438/2/2
f 444/20/8 432/11/8 442/4/8
f 35/2/5 29/1/5 31/3/5
f 32/21/1 34/20/1 36/19/1
s 1
f 38/22/11 39/23/12 37/24/10
f 39/23/12 42/25/13 41/26/14
f 42/25/13 43/27/5 41/26/14
f 44/28/15 45/29/16 43/27/5
f 46/30/17 47/31/18 45/29/16
f 48/32/19 49/33/8 47/31/18
f 50/34/20 51/35/21 49/33/8
f 52/36/22 156/37/23 51/35/21
f 53/38/24 158/39/1 156/37/23
f 54/40/25 160/41/26 158/39/1
f 48/32/19 62/30/27 63/32/28
f 55/42/29 56/43/30 160/41/26
f 57/44/31 37/45/10 56/43/30
f 60/25/32 73/28/33 61/28/34
f 46/30/17 61/28/34 62/30/27
f 38/46/11 69/44/35 58/46/36
f 40/47/37 58/22/36 59/47/38
f 42/25/13 61/28/34 44/28/15
f 55/42/29 69/44/35 57/44/31
f 40/47/37 60/25/32 42/25/13
f 54/40/25 68/42/39 55/42/29
f 54/40/25 66/38/40 67/40/41
f 53/38/24 65/36/42 66/38/40
f 50/34/20 65/36/42 52/36/22
f 48/32/19 64/34/43 50/34/20
f 75/32/44 130/34/45 76/34/46
f 67/40/41 80/42/47 68/42/39
f 64/34/43 77/36/48 65/36/42
f 62/30/27 73/28/33 74/30/49
f 68/42/39 81/44/50 69/44/35
f 59/47/38 70/22/51 71/47/52
f 66/38/40 77/36/48 78/38/53
f 62/30/27 75/32/44 63/32/28
f 58/46/36 81/44/50 70/46/51
f 60/25/32 71/47/52 72/25/54
f 67/40/41 78/38/53 79/40/55
f 63/32/28 76/34/46 64/34/43
f 86/32/56 95/30/57 85/30/58
f 106/28/59 93/25/60 94/28/41
f 85/30/58 94/28/41 84/28/61
f 91/46/62 90/44/63 127/46/64
f 92/47/65 127/22/64 82/47/66
f 94/28/41 83/25/67 84/28/61
f 102/44/68 89/42/69 90/44/63
f 93/25/60 82/47/66 83/25/67
f 89/42/69 100/40/34 128/40/70
f 100/40/34 88/38/71 128/40/70
f 88/38/71 98/36/72 87/36/73
f 87/36/73 97/34/74 130/34/45
f 97/34/74 86/32/56 130/34/45
f 107/30/75 118/28/1 106/28/59
f 101/42/76 112/40/77 100/40/34
f 98/36/72 109/34/78 97/34/74
f 95/30/57 106/28/59 94/28/41
f 114/44/79 101/42/76 102/44/68
f 92/47/65 103/22/80 91/22/62
f 99/38/81 110/36/82 98/36/72
f 96/32/83 107/30/75 95/30/57
f 91/46/62 114/44/79 102/44/68
f 93/25/60 104/47/84 92/47/65
f 112/40/77 99/38/81 100/40/34
f 109/34/78 96/32/83 97/34/74
f 119/48/2 455/49/2 448/50/2
f 113/42/85 126/44/12 125/42/14
f 104/47/84 116/22/10 103/22/80
f 111/38/86 122/36/18 110/36/82
f 108/32/87 451/30/23 107/30/75
f 103/46/80 126/44/12 114/44/79
f 105/25/88 115/47/30 104/47/84
f 112/40/77 123/38/16 111/38/86
f 108/32/87 121/34/8 120/32/21
f 105/25/88 118/28/1 117/25/26
f 113/42/85 124/40/5 112/40/77
f 110/36/82 121/34/8 109/34/78
f 72/25/54 128/28/70 73/28/33
f 79/40/55 83/42/67 80/42/47
f 76/34/46 86/36/56 77/36/48
f 74/30/49 128/28/70 88/30/71
f 80/42/47 82/44/66 81/44/50
f 71/47/52 127/22/64 90/47/63
f 78/38/53 86/36/56 85/38/58
f 74/30/49 87/32/73 75/32/44
f 81/44/50 127/46/64 70/46/51
f 72/25/54 90/47/63 89/25/69
f 78/38/53 84/40/61 79/40/55
f 460/22/10 131/23/89 461/24/10
f 464/32/90 446/33/8 445/31/90
f 463/34/8 465/35/21 446/33/8
f 466/36/21 467/37/23 465/35/21
f 468/38/23 469/39/1 467/37/23
f 470/40/1 471/41/26 469/39/1
f 132/50/2 141/49/2 137/51/2
f 472/42/26 473/43/30 471/41/26
f 147/44/30 461/45/10 473/43/30
f 462/52/9 140/53/9 144/54/9
f 39/23/12 148/22/91 37/24/10
f 39/23/12 150/25/92 149/47/93
f 43/27/5 150/25/92 41/26/14
f 45/29/16 151/28/94 43/27/5
f 47/31/18 152/30/95 45/29/16
f 49/33/8 153/32/96 47/31/18
f 51/35/21 154/34/97 49/33/8
f 156/37/23 155/36/98 51/35/21
f 158/39/1 157/38/99 156/37/23
f 160/41/26 159/40/100 158/39/1
f 153/32/96 167/30/101 152/30/95
f 56/43/30 161/42/102 160/41/26
f 37/45/10 162/44/103 56/43/30
f 178/28/104 165/25/105 166/28/106
f 152/30/95 166/28/106 151/28/94
f 148/46/91 174/44/107 162/44/103
f 149/47/93 163/22/108 148/22/91
f 166/28/106 150/25/92 151/28/94
f 174/44/107 161/42/102 162/44/103
f 165/25/105 149/47/93 150/25/92
f 173/42/109 159/40/100 161/42/102
f 159/40/100 171/38/110 157/38/99
f 157/38/99 170/36/111 155/36/98
f 170/36/111 154/34/97 155/36/98
f 169/34/112 153/32/96 154/34/97
f 234/34/113 180/32/114 181/34/115
f 185/42/116 172/40/117 173/42/109
f 182/36/118 169/34/112 170/36/111
f 167/30/101 178/28/104 166/28/106
f 186/44/119 173/42/109 174/44/107
f 164/47/120 175/22/121 163/22/108
f 171/38/110 182/36/118 170/36/111
f 180/32/114 167/30/101 168/32/122
f 163/46/108 186/44/119 174/44/107
f 165/25/105 176/47/123 164/47/120
f 172/40/117 183/38/124 171/38/110
f 181/34/115 168/32/122 169/34/112
f 191/32/125 200/30/126 201/32/127
f 198/25/128 211/28/129 199/28/117
f 190/30/130 199/28/117 200/30/126
f 195/44/131 196/46/132 232/46/133
f 232/22/133 197/47/134 187/47/135
f 188/25/136 199/28/117 189/28/137
f 194/42/138 207/44/139 195/44/131
f 187/47/135 198/25/128 188/25/136
f 194/42/138 205/40/106 206/42/140
f 193/38/141 205/40/106 233/40/142
f 193/38/141 203/36/143 204/38/144
f 192/36/145 202/34/146 203/36/143
f 191/32/125 202/34/146 234/34/113
f 223/28/1 212/30/147 211/28/129
f 206/42/140 217/40/148 218/42/149
f 203/36/143 214/34/150 215/36/151
f 200/30/126 211/28/129 212/30/147
f 206/42/140 219/44/152 207/44/139
f 197/47/134 208/22/153 209/47/154
f 204/38/144 215/36/151 216/38/155
f 201/32/127 212/30/147 213/32/156
f 196/46/132 219/44/152 208/46/153
f 198/25/128 209/47/154 210/25/157
f 204/38/144 217/40/148 205/40/106
f 201/32/127 214/34/150 202/34/146
f 485/55/9 481/51/9 477/56/9
f 218/42/149 231/44/12 219/44/152
f 221/22/10 209/47/154 208/22/153
f 227/36/18 216/38/155 215/36/151
f 479/30/23 213/32/156 212/30/147
f 231/44/12 208/46/153 219/44/152
f 220/47/30 210/25/157 209/47/154
f 228/38/16 217/40/148 216/38/155
f 213/32/156 226/34/8 214/34/150
f 210/25/157 223/28/1 211/28/129
f 229/40/5 218/42/149 217/40/148
f 226/34/8 215/36/151 214/34/150
f 233/28/142 177/25/158 178/28/104
f 188/42/136 184/40/159 185/42/116
f 191/36/125 181/34/115 182/36/118
f 179/30/160 233/28/142 178/28/104
f 187/44/135 185/42/116 186/44/119
f 176/47/123 232/22/133 175/22/121
f 183/38/124 191/36/125 182/36/118
f 192/32/145 179/30/160 180/32/114
f 232/46/133 186/44/119 175/46/121
f 177/25/158 195/47/131 176/47/123
f 189/40/137 183/38/124 184/40/159
f 491/16/9 487/13/9 489/17/9
f 494/18/161 495/2/161 488/13/161
f 496/2/2 501/20/2 499/4/2
f 502/20/162 490/11/162 500/4/162
f 241/2/5 235/1/5 237/3/5
f 238/21/1 240/20/1 242/19/1
f 507/16/9 503/13/9 505/17/9
f 510/18/10 511/2/10 504/13/10
f 514/19/2 515/4/2 512/2/2
f 518/20/8 506/11/8 516/4/8
f 249/2/5 243/1/5 245/3/5
f 246/21/1 248/20/1 250/19/1
f 569/57/163 571/58/5 568/21/163
f 523/16/9 521/13/9 535/17/9
f 534/22/10 526/21/163 525/24/10
f 572/59/5 573/19/164 571/58/5
f 538/21/1 545/20/1 532/19/1
f 533/57/163 537/58/5 526/21/163
f 520/21/1 565/20/1 561/19/1
f 529/2/5 551/1/5 542/3/5
f 540/59/5 541/19/164 537/58/5
f 559/2/5 536/1/5 522/3/5
f 546/20/162 552/11/162 528/4/162
f 544/8/164 549/60/8 541/19/164
f 566/20/8 275/11/8 564/4/8
f 530/2/2 272/20/2 271/4/2
f 550/61/8 553/2/7 549/60/8
f 562/19/2 279/4/2 560/2/2
f 539/18/161 273/2/161 543/13/161
f 554/11/7 555/62/1 553/2/7
f 266/63/2 262/51/2 258/64/2
f 251/16/9 269/13/9 252/17/9
f 556/65/1 557/3/6 555/62/1
f 570/22/10 568/21/163 567/24/10
f 278/18/10 281/2/10 277/13/10
f 268/66/6 525/67/10 557/3/6
f 259/68/9 263/69/9 267/70/9
f 574/8/164 575/60/8 573/19/164
f 576/61/8 577/2/7 575/60/8
f 578/11/7 579/62/1 577/2/7
f 296/63/2 292/51/2 288/64/2
f 580/65/1 581/3/6 579/62/1
f 298/66/6 567/67/10 581/3/6
f 289/68/9 293/69/9 297/70/9
f 587/16/9 583/13/9 585/17/9
f 590/18/10 591/2/10 584/13/10
f 594/19/2 595/4/2 592/2/2
f 598/20/8 586/11/8 596/4/8
f 305/2/5 299/1/5 301/3/5
f 302/21/1 304/20/1 306/19/1
f 601/17/9 605/18/9 599/13/9
f 606/18/165 607/2/165 600/13/165
f 610/19/2 611/4/2 608/2/2
f 614/20/166 602/11/166 612/4/166
f 313/2/5 307/1/5 309/3/5
f 310/21/1 312/20/1 314/19/1
f 618/22/10 316/23/89 619/24/10
f 622/32/90 616/33/8 615/31/90
f 621/34/8 623/35/21 616/33/8
f 624/36/21 625/37/23 623/35/21
f 626/38/23 627/39/1 625/37/23
f 628/40/1 629/41/26 627/39/1
f 317/50/2 326/49/2 322/51/2
f 630/42/26 631/43/30 629/41/26
f 332/44/30 619/45/10 631/43/30
f 620/52/9 325/53/9 329/54/9
s 0
f 638/16/9 664/71/9 636/72/9
f 681/20/7 653/21/7 680/19/7
f 340/19/2 654/73/2 657/74/2
f 655/73/7 639/8/7 637/75/7
f 643/2/164 634/1/164 633/3/164
f 336/21/6 338/20/6 644/19/6
f 647/76/7 635/11/7 642/4/7
f 647/76/7 637/75/7 649/77/7
f 656/78/2 337/4/2 339/2/2
f 346/78/164 668/76/164 348/76/164
f 661/1/163 679/2/163 359/3/163
f 687/73/6 652/8/6 682/20/6
f 333/17/9 663/79/9 335/13/9
f 343/71/6 674/72/6 342/72/6
f 670/74/2 667/76/2 669/78/2
f 347/73/6 349/74/6 345/74/6
f 647/76/7 351/73/7 655/73/7
f 688/73/2 364/19/2 690/74/2
f 673/72/9 675/79/9 671/80/9
f 692/71/9 358/16/9 659/72/9
f 341/80/164 356/79/164 344/79/164
f 637/75/7 353/77/7 649/77/7
f 662/11/6 683/76/6 678/4/6
f 683/76/6 658/75/6 687/73/6
f 361/4/2 689/78/2 363/2/2
f 696/76/163 370/78/163 372/76/163
f 357/17/9 691/79/9 686/80/9
f 702/72/7 367/71/7 366/72/7
f 695/76/2 698/74/2 697/78/2
f 373/74/7 371/73/7 369/74/7
f 375/73/6 683/76/6 687/73/6
f 703/79/9 701/72/9 699/80/9
f 380/79/163 365/80/163 368/79/163
f 377/77/6 658/75/6 685/77/6
f 391/1/1 389/4/1 385/2/1
f 386/2/2 390/4/2 398/4/2
f 18/4/3 392/1/3 395/1/3
f 388/3/4 20/2/4 404/2/4
f 393/2/5 401/4/5 383/1/5
f 2/2/5 4/4/5 396/1/5
f 407/5/6 408/15/6 405/6/6
f 411/8/7 412/81/7 409/9/7
f 409/9/8 412/81/8 384/11/8
f 382/13/9 1/17/9 9/12/9
f 9/12/9 10/82/9 11/7/9
f 11/7/9 12/6/9 382/13/9
f 406/14/1 411/83/1 410/10/1
f 405/6/10 408/15/10 394/2/10
f 5/4/2 7/2/2 15/15/2
f 15/15/2 16/5/2 13/10/2
f 13/10/2 14/9/2 5/4/2
f 17/1/9 19/3/9 6/3/9
f 417/16/9 419/18/9 413/13/9
f 420/18/10 423/19/10 421/2/10
f 424/19/2 427/20/2 425/4/2
f 428/20/8 418/8/8 416/11/8
f 27/2/5 25/4/5 21/1/5
f 24/21/1 22/84/1 26/20/1
f 433/16/9 435/18/9 429/13/9
f 436/18/10 439/19/10 437/2/10
f 440/19/2 443/20/2 441/4/2
f 444/20/8 434/8/8 432/11/8
f 35/2/5 33/4/5 29/1/5
f 32/21/1 30/84/1 34/20/1
s 1
f 38/22/11 40/47/37 39/23/12
f 39/23/12 40/47/37 42/25/13
f 42/25/13 44/28/15 43/27/5
f 44/28/15 46/30/17 45/29/16
f 46/30/17 48/32/19 47/31/18
f 48/32/19 50/34/20 49/33/8
f 50/34/20 52/36/22 51/35/21
f 52/36/22 53/38/24 156/37/23
f 53/38/24 54/40/25 158/39/1
f 54/40/25 55/42/29 160/41/26
f 48/32/19 46/30/17 62/30/27
f 55/42/29 57/44/31 56/43/30
f 57/44/31 38/46/11 37/45/10
f 60/25/32 72/25/54 73/28/33
f 46/30/17 44/28/15 61/28/34
f 38/46/11 57/44/31 69/44/35
f 40/47/37 38/22/11 58/22/36
f 42/25/13 60/25/32 61/28/34
f 55/42/29 68/42/39 69/44/35
f 40/47/37 59/47/38 60/25/32
f 54/40/25 67/40/41 68/42/39
f 54/40/25 53/38/24 66/38/40
f 53/38/24 52/36/22 65/36/42
f 50/34/20 64/34/43 65/36/42
f 48/32/19 63/32/28 64/34/43
f 75/32/44 87/32/73 130/34/45
f 67/40/41 79/40/55 80/42/47
f 64/34/43 76/34/46 77/36/48
f 62/30/27 61/28/34 73/28/33
f 68/42/39 80/42/47 81/44/50
f 59/47/38 58/22/36 70/22/51
f 66/38/40 65/36/42 77/36/48
f 62/30/27 74/30/49 75/32/44
f 58/46/36 69/44/35 81/44/50
f 60/25/32 59/47/38 71/47/52
f 67/40/41 66/38/40 78/38/53
f 63/32/28 75/32/44 76/34/46
f 86/32/56 96/32/83 95/30/57
f 106/28/59 105/25/88 93/25/60
f 85/30/58 95/30/57 94/28/41
f 91/46/62 102/44/68 90/44/63
f 92/47/65 91/22/62 127/22/64
f 94/28/41 93/25/60 83/25/67
f 102/44/68 101/42/76 89/42/69
f 93/25/60 92/47/65 82/47/66
f 89/42/69 101/42/76 100/40/34
f 100/40/34 99/38/81 88/38/71
f 88/38/71 99/38/81 98/36/72
f 87/36/73 98/36/72 97/34/74
f 97/34/74 96/32/83 86/32/56
f 107/30/75 451/30/23 118/28/1
f 101/42/76 113/42/85 112/40/77
f 98/36/72 110/36/82 109/34/78
f 95/30/57 107/30/75 106/28/59
f 114/44/79 113/42/85 101/42/76
f 92/47/65 104/47/84 103/22/80
f 99/38/81 111/38/86 110/36/82
f 96/32/83 108/32/87 107/30/75
f 91/46/62 103/46/80 114/44/79
f 93/25/60 105/25/88 104/47/84
f 112/40/77 111/38/86 99/38/81
f 109/34/78 108/32/87 96/32/83
f 448/50/2 447/85/2 449/56/2
f 449/56/2 450/64/2 119/48/2
f 119/48/2 452/86/2 453/51/2
f 453/51/2 454/87/2 455/49/2
f 455/49/2 456/63/2 457/55/2
f 457/55/2 458/88/2 448/50/2
f 448/50/2 449/56/2 119/48/2
f 119/48/2 453/51/2 455/49/2
f 455/49/2 457/55/2 448/50/2
f 113/42/85 114/44/79 126/44/12
f 104/47/84 115/47/30 116/22/10
f 111/38/86 123/38/16 122/36/18
f 108/32/87 120/32/21 451/30/23
f 103/46/80 116/46/10 126/44/12
f 105/25/88 117/25/26 115/47/30
f 112/40/77 124/40/5 123/38/16
f 108/32/87 109/34/78 121/34/8
f 105/25/88 106/28/59 118/28/1
f 113/42/85 125/42/14 124/40/5
f 110/36/82 122/36/18 121/34/8
f 72/25/54 89/25/69 128/28/70
f 79/40/55 84/40/61 83/42/67
f 76/34/46 130/34/45 86/36/56
f 74/30/49 73/28/33 128/28/70
f 80/42/47 83/42/67 82/44/66
f 71/47/52 70/22/51 127/22/64
f 78/38/53 77/36/48 86/36/56
f 74/30/49 88/30/71 87/32/73
f 81/44/50 82/44/66 127/46/64
f 72/25/54 71/47/52 90/47/63
f 78/38/53 85/38/58 84/40/61
f 460/22/10 129/47/89 131/23/89
f 464/32/90 463/34/8 446/33/8
f 463/34/8 466/36/21 465/35/21
f 466/36/21 468/38/23 467/37/23
f 468/38/23 470/40/1 469/39/1
f 470/40/1 472/42/26 471/41/26
f 135/86/2 459/85/2 132/50/2
f 132/50/2 474/88/2 145/55/2
f 145/55/2 143/63/2 141/49/2
f 141/49/2 139/87/2 137/51/2
f 137/51/2 135/86/2 132/50/2
f 132/50/2 145/55/2 141/49/2
f 472/42/26 147/44/30 473/43/30
f 147/44/30 460/46/10 461/45/10
f 146/89/9 133/90/9 462/52/9
f 462/52/9 134/91/9 136/92/9
f 136/92/9 138/93/9 140/53/9
f 140/53/9 142/94/9 144/54/9
f 144/54/9 146/89/9 462/52/9
f 462/52/9 136/92/9 140/53/9
f 39/23/12 149/47/93 148/22/91
f 39/23/12 41/26/14 150/25/92
f 43/27/5 151/28/94 150/25/92
f 45/29/16 152/30/95 151/28/94
f 47/31/18 153/32/96 152/30/95
f 49/33/8 154/34/97 153/32/96
f 51/35/21 155/36/98 154/34/97
f 156/37/23 157/38/99 155/36/98
f 158/39/1 159/40/100 157/38/99
f 160/41/26 161/42/102 159/40/100
f 153/32/96 168/32/122 167/30/101
f 56/43/30 162/44/103 161/42/102
f 37/45/10 148/46/91 162/44/103
f 178/28/104 177/25/158 165/25/105
f 152/30/95 167/30/101 166/28/106
f 148/46/91 163/46/108 174/44/107
f 149/47/93 164/47/120 163/22/108
f 166/28/106 165/25/105 150/25/92
f 174/44/107 173/42/109 161/42/102
f 165/25/105 164/47/120 149/47/93
f 173/42/109 172/40/117 159/40/100
f 159/40/100 172/40/117 171/38/110
f 157/38/99 171/38/110 170/36/111
f 170/36/111 169/34/112 154/34/97
f 169/34/112 168/32/122 153/32/96
f 234/34/113 192/32/145 180/32/114
f 185/42/116 184/40/159 172/40/117
f 182/36/118 181/34/115 169/34/112
f 167/30/101 179/30/160 178/28/104
f 186/44/119 185/42/116 173/42/109
f 164/47/120 176/47/123 175/22/121
f 171/38/110 183/38/124 182/36/118
f 180/32/114 179/30/160 167/30/101
f 163/46/108 175/46/121 186/44/119
f 165/25/105 177/25/158 176/47/123
f 172/40/117 184/40/159 183/38/124
f 181/34/115 180/32/114 168/32/122
f 191/32/125 190/30/130 200/30/126
f 198/25/128 210/25/157 211/28/129
f 190/30/130 189/28/137 199/28/117
f 195/44/131 207/44/139 196/46/132
f 232/22/133 196/22/132 197/47/134
f 188/25/136 198/25/128 199/28/117
f 194/42/138 206/42/140 207/44/139
f 187/47/135 197/47/134 198/25/128
f 194/42/138 233/40/142 205/40/106
f 193/38/141 204/38/144 205/40/106
f 193/38/141 192/36/145 203/36/143
f 192/36/145 234/34/113 202/34/146
f 191/32/125 201/32/127 202/34/146
f 223/28/1 479/30/23 212/30/147
f 206/42/140 205/40/106 217/40/148
f 203/36/143 202/34/146 214/34/150
f 200/30/126 199/28/117 211/28/129
f 206/42/140 218/42/149 219/44/152
f 197/47/134 196/22/132 208/22/153
f 204/38/144 203/36/143 215/36/151
f 201/32/127 200/30/126 212/30/147
f 196/46/132 207/44/139 219/44/152
f 198/25/128 197/47/134 209/47/154
f 204/38/144 216/38/155 217/40/148
f 201/32/127 213/32/156 214/34/150
f 477/56/9 475/85/9 476/50/9
f 476/50/9 486/88/9 485/55/9
f 485/55/9 484/63/9 483/49/9
f 483/49/9 482/87/9 481/51/9
f 481/51/9 480/86/9 224/48/9
f 224/48/9 478/64/9 477/56/9
f 477/56/9 476/50/9 485/55/9
f 485/55/9 483/49/9 481/51/9
f 481/51/9 224/48/9 477/56/9
f 218/42/149 230/42/14 231/44/12
f 221/22/10 220/47/30 209/47/154
f 227/36/18 228/38/16 216/38/155
f 479/30/23 225/32/21 213/32/156
f 231/44/12 221/46/10 208/46/153
f 220/47/30 222/25/26 210/25/157
f 228/38/16 229/40/5 217/40/148
f 213/32/156 225/32/21 226/34/8
f 210/25/157 222/25/26 223/28/1
f 229/40/5 230/42/14 218/42/149
f 226/34/8 227/36/18 215/36/151
f 233/28/142 194/25/138 177/25/158
f 188/42/136 189/40/137 184/40/159
f 191/36/125 234/34/113 181/34/115
f 179/30/160 193/30/141 233/28/142
f 187/44/135 188/42/136 185/42/116
f 176/47/123 195/47/131 232/22/133
f 183/38/124 190/38/130 191/36/125
f 192/32/145 193/30/141 179/30/160
f 232/46/133 187/44/135 186/44/119
f 177/25/158 194/25/138 195/47/131
f 189/40/137 190/38/130 183/38/124
f 491/16/9 493/18/9 487/13/9
f 494/18/161 497/19/161 495/2/161
f 496/2/2 498/19/2 501/20/2
f 502/20/162 492/8/162 490/11/162
f 241/2/5 239/4/5 235/1/5
f 238/21/1 236/84/1 240/20/1
f 507/16/9 509/18/9 503/13/9
f 510/18/10 513/19/10 511/2/10
f 514/19/2 517/20/2 515/4/2
f 518/20/8 508/8/8 506/11/8
f 249/2/5 247/4/5 243/1/5
f 246/21/1 244/84/1 248/20/1
f 569/57/163 572/59/5 571/58/5
f 523/16/9 519/18/9 521/13/9
f 534/22/10 533/57/163 526/21/163
f 572/59/5 574/8/164 573/19/164
f 538/21/1 547/84/1 545/20/1
f 533/57/163 540/59/5 537/58/5
f 520/21/1 524/84/1 565/20/1
f 529/2/5 527/4/5 551/1/5
f 540/59/5 544/8/164 541/19/164
f 559/2/5 563/4/5 536/1/5
f 546/20/162 548/8/162 552/11/162
f 544/8/164 550/61/8 549/60/8
f 566/20/8 276/8/8 275/11/8
f 530/2/2 531/19/2 272/20/2
f 550/61/8 554/11/7 553/2/7
f 562/19/2 280/20/2 279/4/2
f 539/18/161 274/19/161 273/2/161
f 554/11/7 556/65/1 555/62/1
f 258/64/2 256/95/2 254/50/2
f 254/50/2 558/96/2 266/63/2
f 266/63/2 264/97/2 262/51/2
f 262/51/2 260/98/2 258/64/2
f 258/64/2 254/50/2 266/63/2
f 251/16/9 270/18/9 269/13/9
f 556/65/1 268/66/6 557/3/6
f 570/22/10 569/57/163 568/21/163
f 278/18/10 282/19/10 281/2/10
f 268/66/6 534/99/10 525/67/10
f 267/70/9 253/90/9 255/100/9
f 255/100/9 257/101/9 259/68/9
f 259/68/9 261/92/9 263/69/9
f 263/69/9 265/94/9 267/70/9
f 267/70/9 255/100/9 259/68/9
f 574/8/164 576/61/8 575/60/8
f 576/61/8 578/11/7 577/2/7
f 578/11/7 580/65/1 579/62/1
f 288/64/2 286/95/2 284/50/2
f 284/50/2 582/96/2 296/63/2
f 296/63/2 294/97/2 292/51/2
f 292/51/2 290/98/2 288/64/2
f 288/64/2 284/50/2 296/63/2
f 580/65/1 298/66/6 581/3/6
f 298/66/6 570/99/10 567/67/10
f 297/70/9 283/90/9 285/100/9
f 285/100/9 287/101/9 289/68/9
f 289/68/9 291/92/9 293/69/9
f 293/69/9 295/94/9 297/70/9
f 297/70/9 285/100/9 289/68/9
f 587/16/9 589/18/9 583/13/9
f 590/18/10 593/19/10 591/2/10
f 594/19/2 597/20/2 595/4/2
f 598/20/8 588/8/8 586/11/8
f 305/2/5 303/4/5 299/1/5
f 302/21/1 300/84/1 304/20/1
f 601/17/9 603/16/9 605/18/9
f 606/18/165 609/19/165 607/2/165
f 610/19/2 613/20/2 611/4/2
f 614/20/166 604/8/166 602/11/166
f 313/2/5 311/4/5 307/1/5
f 310/21/1 308/84/1 312/20/1
f 618/22/10 315/47/89 316/23/89
f 622/32/90 621/34/8 616/33/8
f 621/34/8 624/36/21 623/35/21
f 624/36/21 626/38/23 625/37/23
f 626/38/23 628/40/1 627/39/1
f 628/40/1 630/42/26 629/41/26
f 320/86/2 617/85/2 317/50/2
f 317/50/2 632/88/2 330/55/2
f 330/55/2 328/63/2 326/49/2
f 326/49/2 324/87/2 322/51/2
f 322/51/2 320/86/2 317/50/2
f 317/50/2 330/55/2 326/49/2
f 630/42/26 332/44/30 631/43/30
f 332/44/30 618/46/10 619/45/10
f 331/89/9 318/90/9 620/52/9
f 620/52/9 319/91/9 321/92/9
f 321/92/9 323/93/9 325/53/9
f 325/53/9 327/94/9 329/54/9
f 329/54/9 331/89/9 620/52/9
f 620/52/9 321/92/9 325/53/9
s 0
f 638/16/9 640/18/9 664/71/9
f 681/20/7 651/84/7 653/21/7
f 340/19/2 645/20/2 654/73/2
f 655/73/7 646/20/7 639/8/7
f 643/2/164 641/4/164 634/1/164
f 336/21/6 334/84/6 338/20/6
f 647/76/7 649/77/7 635/11/7
f 647/76/7 655/73/7 637/75/7
f 656/78/2 648/76/2 337/4/2
f 346/78/164 350/78/164 668/76/164
f 661/1/163 677/4/163 679/2/163
f 687/73/6 658/75/6 652/8/6
f 333/17/9 650/80/9 663/79/9
f 343/71/6 355/71/6 674/72/6
f 670/74/2 665/73/2 667/76/2
f 347/73/6 666/73/6 349/74/6
f 647/76/7 352/76/7 351/73/7
f 688/73/2 362/20/2 364/19/2
f 673/72/9 676/71/9 675/79/9
f 692/71/9 360/18/9 358/16/9
f 341/80/164 672/80/164 356/79/164
f 637/75/7 354/75/7 353/77/7
f 662/11/6 685/77/6 683/76/6
f 683/76/6 685/77/6 658/75/6
f 361/4/2 684/76/2 689/78/2
f 696/76/163 374/78/163 370/78/163
f 357/17/9 660/13/9 691/79/9
f 702/72/7 379/71/7 367/71/7
f 695/76/2 693/73/2 698/74/2
f 373/74/7 694/73/7 371/73/7
f 375/73/6 376/76/6 683/76/6
f 703/79/9 704/71/9 701/72/9
f 380/79/163 700/80/163 365/80/163
f 377/77/6 378/75/6 658/75/6
