# Blender 5.1.0
# www.blender.org
mtllib ItemPocket.mtl
g ItemPocket_Mesh
v -0.030000 0.060000 -0.040000
v -0.030000 0.070000 -0.040000
v -0.030000 0.060000 -0.050000
v -0.030000 0.070000 -0.050000
v 0.030000 0.060000 -0.040000
v 0.030000 0.070000 -0.040000
v 0.030000 0.060000 -0.050000
v 0.030000 0.070000 -0.050000
v -0.023000 0.100000 -0.040000
v -0.018000 0.100000 -0.040000
v -0.023000 0.100000 -0.045000
v -0.018000 0.100000 -0.045000
v -0.023000 0.060000 -0.040000
v -0.018000 0.060000 -0.040000
v -0.023000 0.060000 -0.045000
v -0.018000 0.060000 -0.045000
v 0.018000 0.100000 -0.040000
v 0.023000 0.100000 -0.040000
v 0.018000 0.100000 -0.045000
v 0.023000 0.100000 -0.045000
v 0.018000 0.060000 -0.040000
v 0.023000 0.060000 -0.040000
v 0.018000 0.060000 -0.045000
v 0.023000 0.060000 -0.045000
v -0.030000 0.085000 -0.040000
v -0.030000 0.095000 -0.040000
v -0.030000 0.085000 -0.050000
v -0.030000 0.095000 -0.050000
v 0.030000 0.085000 -0.040000
v 0.030000 0.095000 -0.040000
v 0.030000 0.085000 -0.050000
v 0.030000 0.095000 -0.050000
v -0.015000 0.105000 -0.035000
v -0.010000 0.105000 -0.035000
v -0.015000 0.105000 -0.040000
v -0.010000 0.105000 -0.040000
v -0.015000 0.055000 -0.035000
v -0.010000 0.055000 -0.035000
v -0.015000 0.055000 -0.040000
v -0.010000 0.055000 -0.040000
v 0.010000 0.105000 -0.035000
v 0.015000 0.105000 -0.035000
v 0.010000 0.105000 -0.040000
v 0.015000 0.105000 -0.040000
v 0.010000 0.055000 -0.035000
v 0.015000 0.055000 -0.035000
v 0.010000 0.055000 -0.040000
v 0.015000 0.055000 -0.040000
v -0.022000 0.085000 -0.033000
v -0.022000 0.095000 -0.033000
v -0.022000 0.085000 -0.035000
v -0.022000 0.095000 -0.035000
v 0.022000 0.085000 -0.033000
v 0.022000 0.095000 -0.033000
v 0.022000 0.085000 -0.035000
v 0.022000 0.095000 -0.035000
v -0.022000 0.060000 -0.033000
v -0.022000 0.070000 -0.033000
v -0.022000 0.060000 -0.035000
v -0.022000 0.070000 -0.035000
v 0.022000 0.060000 -0.033000
v 0.022000 0.070000 -0.033000
v 0.022000 0.060000 -0.035000
v 0.022000 0.070000 -0.035000
v 0.040000 0.106296 -0.033000
v 0.038353 0.002477 -0.029611
v 0.040000 0.100000 0.013899
v 0.040000 0.000000 0.020946
v -0.040000 0.106296 -0.033000
v -0.039543 0.000503 -0.031866
v -0.040000 0.100000 0.013899
v -0.040000 0.000000 0.021632
v 0.040056 0.071380 0.020238
v 0.040000 0.033333 0.021601
v 0.038836 0.066667 -0.030156
v 0.038596 0.033333 -0.029459
v -0.039347 0.066667 -0.029969
v -0.039124 0.033333 -0.028816
v -0.040000 0.033333 0.021632
v -0.039737 0.070559 0.021117
v 0.034101 0.100000 0.013899
v -0.034101 0.100000 0.013899
v -0.034101 0.002691 0.027000
v 0.034101 0.002691 0.027000
v -0.034101 0.106296 -0.033000
v 0.034101 0.106296 -0.033000
v 0.034101 0.000000 -0.033000
v -0.034101 0.000000 -0.033000
v -0.034101 0.033333 -0.033000
v 0.034101 0.033333 -0.033000
v -0.034101 0.066667 -0.033000
v 0.034101 0.066667 -0.033000
v 0.034101 0.033333 0.027000
v -0.034101 0.033333 0.027000
v 0.034101 0.076311 0.026464
v -0.034101 0.076311 0.028429
v -0.040502 0.094644 -0.031181
v -0.040502 0.102272 -0.031181
v -0.040502 0.094644 -0.034567
v -0.040502 0.102272 -0.034567
v 0.040502 0.094866 -0.031181
v 0.040502 0.102494 -0.031181
v 0.040502 0.094866 -0.034567
v 0.040502 0.102494 -0.034567
v -0.040502 0.105074 -0.030300
v -0.040502 0.107013 -0.033076
v 0.040502 0.105296 -0.030300
v 0.040502 0.107235 -0.033076
v -0.040502 0.106866 -0.027973
v -0.040502 0.110045 -0.029138
v 0.040502 0.107088 -0.027973
v 0.040502 0.110267 -0.029138
v -0.040502 0.107003 -0.025038
v -0.040502 0.110277 -0.024173
v 0.040502 0.107225 -0.025038
v 0.040502 0.110498 -0.024173
v -0.040502 0.096042 0.015404
v -0.040502 0.099315 0.016269
v 0.040502 0.099537 0.016269
v 0.040502 0.096263 0.015404
v -0.040502 0.093548 0.018497
v -0.040502 0.095845 0.020985
v 0.040502 0.096066 0.020985
v 0.040502 0.093770 0.018497
v 0.040000 0.104722 -0.020354
v 0.036099 0.103148 -0.007709
v 0.040000 0.101574 0.004937
v 0.040000 0.000000 0.007459
v 0.036099 0.000000 -0.006027
v 0.040000 0.000000 -0.019514
v -0.040000 0.101574 0.004937
v -0.036111 0.103148 -0.007709
v -0.040000 0.104722 -0.020354
v -0.040000 0.000000 -0.019750
v -0.036111 0.000000 -0.006500
v -0.040000 0.000000 0.008382
v -0.040000 0.033333 0.008382
v -0.036111 0.033333 -0.006500
v -0.040000 0.033333 -0.019750
v -0.040177 0.064576 0.004371
v -0.036218 0.066452 -0.006586
v -0.040059 0.066881 -0.021400
v 0.040000 0.033333 -0.019514
v 0.036099 0.033333 -0.006027
v 0.040000 0.033333 0.007459
v 0.040000 0.066988 -0.021121
v 0.036099 0.066667 -0.006027
v 0.040000 0.064898 0.005209
v -0.034101 0.000000 -0.018000
v -0.030786 0.000000 -0.003000
v -0.034101 0.000000 0.012000
v 0.034101 0.000000 -0.018000
v 0.030775 0.000000 -0.003000
v 0.034101 0.000000 0.012000
v 0.034101 0.104722 -0.020354
v 0.030775 0.103148 -0.007709
v 0.034101 0.101574 0.004937
v -0.034101 0.104722 -0.020354
v -0.030786 0.103148 -0.007709
v -0.034101 0.101574 0.004937
v 0.020251 0.096810 -0.034567
v 0.000000 0.095516 -0.034567
v -0.020251 0.096850 -0.034567
v -0.020251 0.104477 -0.034567
v 0.000000 0.103144 -0.034567
v 0.020251 0.104438 -0.034567
v -0.020251 0.096850 -0.031181
v 0.000000 0.095516 -0.031181
v 0.020251 0.096810 -0.031181
v 0.020251 0.104438 -0.031181
v 0.000000 0.103144 -0.031181
v -0.020251 0.104477 -0.031181
v -0.020251 0.109218 -0.033076
v 0.000000 0.107885 -0.033076
v 0.020251 0.109179 -0.033076
v 0.020251 0.107240 -0.030300
v 0.000000 0.105946 -0.030300
v -0.020251 0.107279 -0.030300
v -0.020251 0.112251 -0.029138
v 0.000000 0.110917 -0.029138
v 0.020251 0.112211 -0.029138
v 0.020251 0.109032 -0.027973
v 0.000000 0.107738 -0.027973
v -0.020251 0.109072 -0.027973
v -0.020251 0.112482 -0.024173
v 0.000000 0.111148 -0.024173
v 0.020251 0.112442 -0.024173
v 0.020251 0.109169 -0.025038
v 0.000000 0.107875 -0.025038
v -0.020251 0.109208 -0.025038
v -0.020251 0.101521 0.016269
v 0.000000 0.100187 0.016269
v 0.020251 0.101481 0.016269
v 0.020251 0.098208 0.015404
v 0.000000 0.096914 0.015404
v -0.020251 0.098247 0.015404
v -0.020251 0.098050 0.020985
v 0.000000 0.096717 0.020985
v 0.020251 0.098011 0.020985
v 0.020251 0.095714 0.018497
v 0.000000 0.094420 0.018497
v -0.020251 0.095754 0.018497
v -0.012324 0.098233 0.019835
v -0.012324 0.101007 0.020290
v 0.012324 0.098233 0.019835
v 0.012324 0.101007 0.020290
v -0.012324 0.094889 0.023224
v -0.012324 0.096482 0.025451
v 0.012324 0.096482 0.025451
v 0.012324 0.094889 0.023224
v -0.012324 0.090437 0.024706
v -0.012324 0.090813 0.026963
v 0.012324 0.090813 0.026963
v 0.012324 0.090437 0.024706
v -0.012324 0.100482 0.012868
v -0.008958 0.101675 0.009172
v -0.008958 0.104279 0.010013
v -0.012324 0.103086 0.013709
v 0.008958 0.101675 0.009172
v 0.012324 0.100482 0.012868
v 0.012324 0.103086 0.013709
v 0.008958 0.104279 0.010013
v -0.008958 0.065232 0.027352
v -0.012324 0.069116 0.026944
v -0.012324 0.068904 0.029245
v -0.008958 0.065019 0.029651
v 0.008958 0.065019 0.029651
v 0.012324 0.068904 0.029245
v 0.012324 0.069116 0.026944
v 0.008958 0.065232 0.027352
v -0.000068 0.080220 0.021289
v -0.000068 0.080220 0.031989
v 0.004565 0.077545 0.021289
v 0.004565 0.077545 0.031989
v 0.004565 0.072195 0.021289
v 0.004565 0.072195 0.031989
v -0.000068 0.069520 0.021289
v -0.000068 0.069520 0.031989
v -0.004701 0.072195 0.021289
v -0.004701 0.072195 0.031989
v -0.004701 0.077545 0.021289
v -0.004701 0.077545 0.031989
v -0.008143 0.099906 0.011800
v -0.008143 0.104804 0.013377
v -0.005915 0.099511 0.013025
v -0.005915 0.104409 0.014601
v -0.005915 0.098723 0.015474
v -0.005915 0.103621 0.017050
v -0.008143 0.098329 0.016698
v -0.008143 0.103227 0.018275
v -0.010371 0.098723 0.015474
v -0.010371 0.103621 0.017050
v -0.010371 0.099511 0.013025
v -0.010371 0.104409 0.014601
v 0.008132 0.099906 0.011800
v 0.008132 0.104804 0.013377
v 0.010360 0.099511 0.013025
v 0.010360 0.104409 0.014601
v 0.010360 0.098723 0.015474
v 0.010360 0.103621 0.017050
v 0.008132 0.098329 0.016698
v 0.008132 0.103227 0.018275
v 0.005904 0.098723 0.015474
v 0.005904 0.103621 0.017050
v 0.005904 0.099511 0.013025
v 0.005904 0.104409 0.014601
v -0.029849 0.098888 -0.032025
v -0.030014 0.099667 -0.037109
v -0.027552 0.100043 -0.031923
v -0.027717 0.100821 -0.037006
v -0.027405 0.102583 -0.031538
v -0.027570 0.103361 -0.036622
v -0.029555 0.103968 -0.031256
v -0.029719 0.104746 -0.036340
v -0.031852 0.102813 -0.031359
v -0.032016 0.103592 -0.036443
v -0.031999 0.100274 -0.031743
v -0.032164 0.101052 -0.036827
v 0.030172 0.098888 -0.032025
v 0.030007 0.099667 -0.037109
v 0.032469 0.100043 -0.031923
v 0.032304 0.100821 -0.037006
v 0.032616 0.102583 -0.031538
v 0.032451 0.103361 -0.036622
v 0.030467 0.103968 -0.031256
v 0.030302 0.104746 -0.036340
v 0.028170 0.102813 -0.031359
v 0.028005 0.103592 -0.036443
v 0.028022 0.100274 -0.031743
v 0.027857 0.101052 -0.036827
v -0.030000 0.060000 -0.050000
v -0.030000 0.060000 -0.050000
v -0.030000 0.060000 -0.040000
v -0.030000 0.060000 -0.040000
v -0.030000 0.070000 -0.040000
v -0.030000 0.070000 -0.040000
v -0.030000 0.070000 -0.050000
v -0.030000 0.070000 -0.050000
v 0.030000 0.060000 -0.050000
v 0.030000 0.060000 -0.050000
v 0.030000 0.070000 -0.050000
v 0.030000 0.070000 -0.050000
v 0.030000 0.060000 -0.040000
v 0.030000 0.060000 -0.040000
v 0.030000 0.070000 -0.040000
v 0.030000 0.070000 -0.040000
v -0.010000 0.055000 -0.035000
v -0.010000 0.055000 -0.035000
v -0.010000 0.105000 -0.035000
v -0.010000 0.105000 -0.035000
v -0.015000 0.105000 -0.035000
v -0.015000 0.105000 -0.035000
v -0.015000 0.055000 -0.035000
v -0.015000 0.055000 -0.035000
v -0.010000 0.055000 -0.040000
v -0.010000 0.055000 -0.040000
v -0.015000 0.055000 -0.040000
v -0.015000 0.055000 -0.040000
v -0.010000 0.105000 -0.040000
v -0.010000 0.105000 -0.040000
v -0.015000 0.105000 -0.040000
v -0.015000 0.105000 -0.040000
v -0.030000 0.085000 -0.050000
v -0.030000 0.085000 -0.050000
v -0.030000 0.085000 -0.040000
v -0.030000 0.085000 -0.040000
v -0.030000 0.095000 -0.040000
v -0.030000 0.095000 -0.040000
v -0.030000 0.095000 -0.050000
v -0.030000 0.095000 -0.050000
v 0.030000 0.085000 -0.050000
v 0.030000 0.085000 -0.050000
v 0.030000 0.095000 -0.050000
v 0.030000 0.095000 -0.050000
v 0.030000 0.085000 -0.040000
v 0.030000 0.085000 -0.040000
v 0.030000 0.095000 -0.040000
v 0.030000 0.095000 -0.040000
v 0.015000 0.055000 -0.035000
v 0.015000 0.055000 -0.035000
v 0.015000 0.105000 -0.035000
v 0.015000 0.105000 -0.035000
v 0.010000 0.105000 -0.035000
v 0.010000 0.105000 -0.035000
v 0.010000 0.055000 -0.035000
v 0.010000 0.055000 -0.035000
v 0.015000 0.055000 -0.040000
v 0.015000 0.055000 -0.040000
v 0.010000 0.055000 -0.040000
v 0.010000 0.055000 -0.040000
v 0.015000 0.105000 -0.040000
v 0.015000 0.105000 -0.040000
v 0.010000 0.105000 -0.040000
v 0.010000 0.105000 -0.040000
v -0.022000 0.085000 -0.035000
v -0.022000 0.085000 -0.035000
v -0.022000 0.085000 -0.033000
v -0.022000 0.085000 -0.033000
v -0.022000 0.095000 -0.033000
v -0.022000 0.095000 -0.033000
v -0.022000 0.095000 -0.035000
v -0.022000 0.095000 -0.035000
v 0.022000 0.085000 -0.035000
v 0.022000 0.085000 -0.035000
v 0.022000 0.095000 -0.035000
v 0.022000 0.095000 -0.035000
v 0.022000 0.085000 -0.033000
v 0.022000 0.085000 -0.033000
v 0.022000 0.095000 -0.033000
v 0.022000 0.095000 -0.033000
v -0.022000 0.060000 -0.035000
v -0.022000 0.060000 -0.035000
v -0.022000 0.060000 -0.033000
v -0.022000 0.060000 -0.033000
v -0.022000 0.070000 -0.033000
v -0.022000 0.070000 -0.033000
v -0.022000 0.070000 -0.035000
v -0.022000 0.070000 -0.035000
v 0.022000 0.060000 -0.035000
v 0.022000 0.060000 -0.035000
v 0.022000 0.070000 -0.035000
v 0.022000 0.070000 -0.035000
v 0.022000 0.060000 -0.033000
v 0.022000 0.060000 -0.033000
v 0.022000 0.070000 -0.033000
v 0.022000 0.070000 -0.033000
v 0.034101 0.002691 0.027000
v 0.040000 0.000000 0.020946
v 0.040000 0.101574 0.004937
v 0.040000 0.000000 -0.019514
v 0.038353 0.002477 -0.029611
v 0.034101 0.106296 -0.033000
v 0.040000 0.106296 -0.033000
v 0.040000 0.106296 -0.033000
v -0.034101 0.000000 -0.033000
v -0.039543 0.000503 -0.031866
v -0.040000 0.104722 -0.020354
v -0.040000 0.106296 -0.033000
v -0.040000 0.106296 -0.033000
v -0.040000 0.000000 0.008382
v -0.040000 0.000000 0.021632
v -0.034101 0.002691 0.027000
v -0.034101 0.106296 -0.033000
v 0.034101 0.000000 -0.033000
v -0.040502 0.094644 -0.034567
v -0.040502 0.094644 -0.034567
v -0.040502 0.094644 -0.031181
v -0.040502 0.094644 -0.031181
v -0.040502 0.102272 -0.031181
v -0.040502 0.102272 -0.034567
v -0.020251 0.096850 -0.034567
v 0.040502 0.102494 -0.034567
v 0.040502 0.094866 -0.034567
v 0.040502 0.094866 -0.034567
v 0.040502 0.094866 -0.031181
v 0.040502 0.094866 -0.031181
v 0.040502 0.102494 -0.031181
v 0.020251 0.096810 -0.031181
v 0.040502 0.107235 -0.033076
v 0.040502 0.105296 -0.030300
v -0.040502 0.105074 -0.030300
v -0.040502 0.107013 -0.033076
v 0.040502 0.110267 -0.029138
v 0.040502 0.107088 -0.027973
v -0.040502 0.106866 -0.027973
v -0.040502 0.110045 -0.029138
v 0.040502 0.107225 -0.025038
v -0.040502 0.107003 -0.025038
v -0.040502 0.110277 -0.024173
v 0.040502 0.110498 -0.024173
v 0.040502 0.099537 0.016269
v 0.040502 0.096263 0.015404
v -0.040502 0.096042 0.015404
v -0.040502 0.099315 0.016269
v -0.040502 0.093548 0.018497
v -0.040502 0.093548 0.018497
v -0.040502 0.095845 0.020985
v -0.040502 0.095845 0.020985
v 0.020251 0.098011 0.020985
v 0.040502 0.096066 0.020985
v 0.040502 0.096066 0.020985
v 0.040502 0.093770 0.018497
v 0.040502 0.093770 0.018497
v -0.020251 0.095754 0.018497
v 0.040000 0.104722 -0.020354
v 0.036099 0.103148 -0.007709
v 0.040000 0.000000 0.007459
v 0.036099 0.000000 -0.006027
v -0.040000 0.101574 0.004937
v -0.036111 0.103148 -0.007709
v -0.040000 0.000000 -0.019750
v -0.036111 0.000000 -0.006500
v 0.020251 0.096810 -0.034567
v 0.000000 0.095516 -0.034567
v -0.020251 0.096850 -0.031181
v 0.000000 0.095516 -0.031181
v -0.020251 0.098050 0.020985
v 0.000000 0.096717 0.020985
v 0.020251 0.095714 0.018497
v 0.000000 0.094420 0.018497
v -0.012324 0.098233 0.019835
v -0.012324 0.094889 0.023224
v -0.012324 0.096482 0.025451
v -0.012324 0.101007 0.020290
v 0.012324 0.098233 0.019835
v 0.012324 0.094889 0.023224
v 0.012324 0.096482 0.025451
v 0.012324 0.101007 0.020290
v 0.012324 0.090437 0.024706
v -0.012324 0.090437 0.024706
v -0.012324 0.090813 0.026963
v 0.012324 0.090813 0.026963
v -0.012324 0.103086 0.013709
v -0.008958 0.104279 0.010013
v -0.008958 0.101675 0.009172
v -0.012324 0.100482 0.012868
v 0.008958 0.104279 0.010013
v 0.012324 0.103086 0.013709
v 0.012324 0.100482 0.012868
v 0.008958 0.101675 0.009172
v -0.012324 0.069116 0.026944
v -0.008958 0.065232 0.027352
v -0.008958 0.065019 0.029651
v -0.012324 0.068904 0.029245
v 0.012324 0.068904 0.029245
v 0.008958 0.065019 0.029651
v 0.008958 0.065232 0.027352
v 0.012324 0.069116 0.026944
v 0.004565 0.077545 0.031989
v -0.000068 0.080220 0.031989
v 0.004565 0.072195 0.031989
v -0.000068 0.069520 0.031989
v -0.004701 0.072195 0.031989
v -0.004701 0.077545 0.031989
v -0.005915 0.104409 0.014601
v -0.008143 0.104804 0.013377
v -0.005915 0.103621 0.017050
v -0.008143 0.103227 0.018275
v -0.010371 0.103621 0.017050
v -0.010371 0.104409 0.014601
v 0.010360 0.104409 0.014601
v 0.008132 0.104804 0.013377
v 0.010360 0.103621 0.017050
v 0.008132 0.103227 0.018275
v 0.005904 0.103621 0.017050
v 0.005904 0.104409 0.014601
v -0.027717 0.100821 -0.037006
v -0.030014 0.099667 -0.037109
v -0.027570 0.103361 -0.036622
v -0.029719 0.104746 -0.036340
v -0.032016 0.103592 -0.036443
v -0.032164 0.101052 -0.036827
v 0.032304 0.100821 -0.037006
v 0.030007 0.099667 -0.037109
v 0.032451 0.103361 -0.036622
v 0.030302 0.104746 -0.036340
v 0.028005 0.103592 -0.036443
v 0.027857 0.101052 -0.036827
vn -1.0000 -0.0000 -0.0000
vn -0.0000 -0.0000 -1.0000
vn 1.0000 -0.0000 -0.0000
vn -0.0000 -0.0000 1.0000
vn -0.0000 -1.0000 -0.0000
vn -0.0000 1.0000 -0.0000
vn -0.0000 0.9886 0.1509
vn 0.0051 0.8248 0.5654
vn -0.0000 0.9889 0.1483
vn -0.0250 -0.9978 0.0608
vn -0.1966 -0.9719 0.1296
vn -0.0849 -0.9807 0.1759
vn -0.3930 0.2068 0.8960
vn -0.6281 0.6338 0.4515
vn -0.9367 0.0204 0.3495
vn 0.9857 -0.0058 -0.1687
vn 0.9265 0.0326 0.3750
vn 0.9859 -0.0023 -0.1675
vn 0.0227 -0.0331 -0.9992
vn 0.8381 -0.0064 -0.5455
vn 0.2671 -0.0000 -0.9637
vn -0.9911 -0.0106 0.1327
vn -0.8519 -0.0243 -0.5232
vn -0.9965 0.0030 0.0832
vn -0.9926 0.0067 0.1210
vn -0.8917 0.0115 -0.4525
vn -0.7595 0.0157 -0.6503
vn -0.9955 -0.0013 0.0952
vn 0.3245 -0.0052 -0.9459
vn 0.8530 -0.0007 -0.5219
vn 0.2778 -0.0000 -0.9606
vn 0.8684 -0.0097 -0.4957
vn 0.9905 -0.0048 -0.1372
vn 0.9430 -0.0065 0.3327
vn 0.9901 -0.0000 -0.1403
vn 0.9135 0.0063 0.4067
vn -0.3944 -0.0000 0.9189
vn -0.9133 0.0037 0.4072
vn -0.9340 -0.0000 0.3572
vn -0.3636 -0.0019 0.9316
vn 0.3640 0.0095 0.9313
vn 0.3742 0.2026 0.9050
vn 0.4173 -0.0070 0.9088
vn -0.3237 0.0118 -0.9461
vn -0.2474 -0.0176 -0.9687
vn -0.0995 -0.0000 -0.9950
vn -0.0486 -0.0072 -0.9988
vn 0.6230 0.6246 0.4710
vn 0.0254 -0.9979 0.0598
vn 0.2129 -0.9683 0.1304
vn 0.0957 -0.9798 0.1758
vn -0.0000 0.8089 0.5879
vn 0.0137 0.1428 -0.9897
vn 0.0154 -0.1416 0.9898
vn -0.0956 -0.9954 -0.0000
vn -0.0160 -0.9999 -0.0000
vn -0.0027 -0.1593 0.9872
vn -0.0537 -0.5593 0.8272
vn -0.0094 -0.5826 0.8127
vn -0.0036 0.1600 -0.9871
vn -0.0607 0.5573 -0.8281
vn -0.0126 0.5835 -0.8120
vn -0.0148 -0.9405 0.3394
vn -0.0950 -0.9894 -0.1094
vn -0.0157 -0.9940 -0.1080
vn -0.0896 -0.9329 0.3488
vn -0.1014 0.9315 -0.3493
vn -0.0198 0.9406 -0.3389
vn -0.1076 0.9882 0.1094
vn -0.0211 0.9939 0.1079
vn -0.0142 -0.8929 -0.4501
vn -0.0192 0.9024 0.4305
vn 0.0798 -0.7325 0.6761
vn 0.0163 -0.7347 0.6781
vn 0.0151 -0.7348 0.6782
vn -0.0850 -0.8850 -0.4577
vn -0.0128 -0.7785 -0.6275
vn -0.0973 0.8939 0.4375
vn -0.0178 0.8053 0.5926
vn -0.0000 0.9923 0.1235
vn 0.1983 -0.9801 -0.0000
vn -0.0328 -0.9994 -0.0146
vn -0.0138 -0.9999 -0.0061
vn -0.1013 -0.9938 -0.0451
vn 0.9982 0.0032 0.0604
vn 0.9975 -0.0022 0.0707
vn 0.9991 0.0039 -0.0411
vn 1.0000 -0.0040 -0.0030
vn 0.9969 -0.0000 0.0783
vn -0.9865 -0.0004 -0.1637
vn -0.9924 -0.0104 -0.1224
vn -0.9999 -0.0085 0.0095
vn -0.9990 0.0056 -0.0441
vn -0.9918 -0.0000 -0.1275
vn -0.9999 -0.0000 0.0149
vn -0.9861 0.0005 -0.1660
vn -0.9997 -0.0044 0.0225
vn 0.9916 -0.0164 0.1280
vn 0.9997 -0.0074 0.0248
vn 0.3924 -0.9183 -0.0522
vn 0.0230 -0.9991 -0.0358
vn 0.0859 0.8952 0.4373
vn 0.0133 0.8054 0.5926
vn 0.0771 0.8030 0.5909
vn 0.0009 0.8992 0.4375
vn 0.0143 0.9023 0.4309
vn 0.0008 0.8054 0.5927
vn 0.0962 -0.8837 -0.4580
vn 0.0172 -0.7784 -0.6275
vn 0.0845 -0.7758 -0.6253
vn -0.0009 -0.8891 -0.4577
vn 0.0190 -0.8930 -0.4497
vn -0.0007 -0.7786 -0.6276
vn -0.0704 -0.7330 0.6766
vn -0.0121 -0.7348 0.6782
vn -0.0007 -0.7348 0.6782
vn -0.0113 -0.7348 0.6782
vn 0.0950 0.9894 0.1094
vn 0.0010 0.9940 0.1095
vn 0.0157 0.9940 0.1080
vn 0.1076 -0.9882 -0.1094
vn -0.0010 -0.9940 -0.1095
vn 0.0211 -0.9939 -0.1079
vn 0.0148 0.9405 -0.3394
vn 0.0896 0.9329 -0.3488
vn 0.0009 0.9374 -0.3483
vn 0.0094 0.5826 -0.8127
vn 0.0537 0.5593 -0.8272
vn 0.0005 0.5642 -0.8256
vn 0.0126 -0.5835 0.8120
vn 0.1014 -0.9315 0.3493
vn 0.0607 -0.5573 0.8281
vn -0.0009 -0.9374 0.3483
vn 0.0198 -0.9406 0.3389
vn -0.0005 -0.5642 0.8256
vn 0.0027 0.1593 -0.9872
vn 0.0001 0.1457 -0.9893
vn 0.0036 -0.1600 0.9871
vn -0.0001 -0.1457 0.9893
vn 0.0214 -0.9998 -0.0000
vn 0.1083 -0.9941 -0.0000
vn -0.0010 -1.0000 -0.0000
vn -0.0137 -0.1428 0.9897
vn -0.0154 0.1415 -0.9898
vn -0.4154 0.2795 -0.8656
vn 0.4154 0.2795 -0.8656
vn 0.0008 0.9528 0.3034
vn -0.0001 0.9529 0.3033
vn 0.0005 0.8710 0.4914
vn -0.9493 -0.3130 -0.0289
vn -0.9201 -0.3899 -0.0360
vn -0.9369 0.1074 -0.3326
vn 0.9369 0.1074 -0.3326
vn -0.0000 -0.5284 -0.8490
vn -0.0000 -0.2114 -0.9774
vn -0.0000 -0.8549 -0.5188
vn -0.0000 -0.8549 -0.5189
vn -0.0000 0.8713 0.4907
vn -0.0000 0.5276 0.8495
vn 0.9493 -0.3130 -0.0289
vn -0.0000 0.5277 0.8495
vn -0.0000 0.1812 0.9834
vn -0.0000 -0.1044 -0.9945
vn -0.0001 0.1036 0.9946
vn -0.0000 0.1037 0.9946
vn 0.4308 -0.8986 -0.0830
vn -0.3918 -0.9162 -0.0847
vn -0.4308 -0.8986 -0.0830
vn -0.9372 0.1071 -0.3319
vn 0.9372 0.1071 -0.3319
vn 0.9201 -0.3899 -0.0360
vn 0.3918 -0.9162 -0.0847
vn -0.0000 -0.9516 -0.3072
vn 0.8660 0.5000 -0.0000
vn 0.8660 -0.5000 -0.0000
vn -0.8660 -0.5000 -0.0000
vn -0.8660 0.5000 -0.0000
vn -0.0000 0.3064 -0.9519
vn 0.8660 0.1532 -0.4759
vn 0.8660 -0.1532 0.4759
vn -0.0000 -0.3064 0.9519
vn -0.8660 -0.1532 0.4759
vn -0.0000 0.9519 0.3064
vn -0.8660 0.1532 -0.4759
vn 0.8660 0.1532 -0.4760
vn -0.8660 -0.1532 0.4760
vn -0.0573 -0.9871 -0.1493
vn 0.8355 -0.5384 -0.1096
vn 0.8928 0.4487 0.0398
vn 0.0573 0.9871 0.1493
vn -0.8355 0.5384 0.1096
vn -0.0320 0.1513 -0.9880
vn -0.8928 -0.4487 -0.0398
vn -0.0000 -0.0716 -0.9974
vn -0.9999 -0.0166 -0.0021
vn -0.0745 -0.7764 -0.6258
vn -0.0874 0.8024 0.5904
vn 0.9996 -0.0296 -0.0037
vn -0.0363 -0.9893 -0.1416
vn 0.0073 0.9535 0.3012
vn -0.0000 0.9516 0.3072
vn -0.0004 0.1036 0.9946
vn -0.0000 0.1039 0.9946
vt 0.625000 0.000000
vt 0.375000 0.250000
vt 0.375000 0.000000
vt 0.625000 0.250000
vt 0.375000 0.500000
vt 0.625000 0.500000
vt 0.375000 0.750000
vt 0.625000 0.750000
vt 0.375000 1.000000
vt 0.125000 0.750000
vt 0.125000 0.500000
vt 0.875000 0.500000
vt 0.625000 0.187500
vt 0.541667 0.250000
vt 0.541667 0.187500
vt 0.541667 0.437500
vt 0.541667 0.500000
vt 0.541667 0.666667
vt 0.541667 0.750000
vt 0.625000 0.937500
vt 0.541667 1.000000
vt 0.541667 0.937500
vt 0.375000 0.666667
vt 0.291667 0.750000
vt 0.291667 0.666667
vt 0.875000 0.687500
vt 0.791667 0.750000
vt 0.791667 0.687500
vt 0.625000 0.687500
vt 0.708333 0.750000
vt 0.708333 0.687500
vt 0.208333 0.666667
vt 0.125000 0.666667
vt 0.208333 0.750000
vt 0.458333 0.937500
vt 0.375000 0.937500
vt 0.458333 1.000000
vt 0.458333 0.750000
vt 0.458333 0.666667
vt 0.458333 0.583333
vt 0.458333 0.500000
vt 0.541667 0.583333
vt 0.375000 0.583333
vt 0.291667 0.500000
vt 0.208333 0.583333
vt 0.208333 0.500000
vt 0.291667 0.583333
vt 0.125000 0.583333
vt 0.625000 0.666667
vt 0.458333 0.437500
vt 0.375000 0.437500
vt 0.458333 0.187500
vt 0.375000 0.187500
vt 0.458333 0.250000
vt 0.625000 1.000000
vt 0.312500 0.750000
vt 0.312500 0.500000
vt 0.625000 0.812500
vt 0.625000 0.312500
vt 0.812500 0.750000
vt 0.812500 0.500000
vt 0.541667 0.000000
vt 0.458333 0.062500
vt 0.458333 0.000000
vt 0.541667 0.062500
vt 0.458333 0.125000
vt 0.375000 0.062500
vt 0.375000 0.125000
vt 0.458333 0.312500
vt 0.541667 0.375000
vt 0.458333 0.375000
vt 0.375000 0.312500
vt 0.375000 0.375000
vt 0.541667 0.812500
vt 0.458333 0.812500
vt 0.541667 0.875000
vt 0.458333 0.875000
vt 0.375000 0.812500
vt 0.375000 0.875000
vt 0.708333 0.500000
vt 0.791667 0.562500
vt 0.708333 0.562500
vt 0.708333 0.625000
vt 0.791667 0.625000
vt 0.625000 0.562500
vt 0.625000 0.625000
vt 0.791667 0.500000
vt 0.875000 0.562500
vt 0.875000 0.625000
vt 0.625000 0.875000
vt 0.541667 0.312500
vt 0.625000 0.375000
vt 0.625000 0.437500
vt 0.625000 0.125000
vt 0.541667 0.125000
vt 0.687500 0.750000
vt 0.750000 0.500000
vt 0.687500 0.500000
vt 0.750000 0.750000
vt 0.187500 0.500000
vt 0.250000 0.500000
vt 0.187500 0.750000
vt 0.250000 0.750000
vt 0.625000 0.284141
vt 0.375000 0.465859
vt 0.375000 0.284141
vt 0.659141 0.500000
vt 0.875000 0.586667
vt 0.375000 0.163333
vt 0.375000 0.586667
vt 0.875000 0.750000
vt 0.340859 0.750000
vt 0.840859 0.750000
vt 0.375000 0.784141
vt 0.625000 0.965859
vt 0.375000 0.965859
vt 0.625000 0.163333
vt 0.625000 0.465859
vt 0.625000 0.586667
vt 0.601584 1.000000
vt 0.625000 0.784141
vt 0.159141 0.500000
vt 1.000000 1.000000
vt 0.833333 0.500000
vt 1.000000 0.500000
vt 0.833333 1.000000
vt 0.666667 0.500000
vt 0.666667 1.000000
vt 0.500000 0.500000
vt 0.500000 1.000000
vt 0.333333 0.500000
vt 0.250000 0.490000
vt 0.042154 0.130000
vt 0.457846 0.130000
vt 0.333333 1.000000
vt 0.166667 0.500000
vt 0.166667 1.000000
vt -0.000000 0.500000
vt -0.000000 1.000000
vt 0.625000 0.583333
vt 0.625000 0.062500
vt 0.840859 0.500000
vt 0.159141 0.750000
vt 0.659141 0.750000
vt 0.125000 0.586667
vt 0.340859 0.500000
vt 0.457846 0.370000
vt 0.042154 0.370000
vt 0.250000 0.010000
s 1
f 295/1/1 291/2/1 293/3/1
f 298/4/2 299/5/2 292/2/2
f 302/6/3 303/7/3 300/5/3
f 306/8/4 294/9/4 304/7/4
f 7/5/5 1/10/5 3/11/5
f 4/12/6 6/8/6 8/6/6
f 317/5/1 311/10/1 321/11/1
f 319/4/2 318/5/2 322/2/2
f 310/1/6 35/2/6 312/3/6
f 307/8/4 33/9/4 314/7/4
f 36/12/3 308/8/3 315/6/3
f 40/6/5 37/7/5 39/5/5
f 327/1/1 323/2/1 325/3/1
f 330/4/2 331/5/2 324/2/2
f 334/6/3 335/7/3 332/5/3
f 338/8/4 326/9/4 336/7/4
f 31/5/5 25/10/5 27/11/5
f 28/12/6 30/8/6 32/6/6
f 349/5/1 343/10/1 353/11/1
f 351/4/2 350/5/2 354/2/2
f 342/1/6 43/2/6 344/3/6
f 339/8/4 41/9/4 346/7/4
f 44/12/3 340/8/3 347/6/3
f 48/6/5 45/7/5 47/5/5
f 359/1/1 355/2/1 357/3/1
f 362/4/2 363/5/2 356/2/2
f 366/6/3 367/7/3 364/5/3
f 370/8/4 358/9/4 368/7/4
f 55/5/5 49/10/5 51/11/5
f 52/12/6 54/8/6 56/6/6
f 375/1/1 371/2/1 373/3/1
f 378/4/2 379/5/2 372/2/2
f 382/6/3 383/7/3 380/5/3
f 386/8/4 374/9/4 384/7/4
f 63/5/5 57/10/5 59/11/5
f 60/12/6 62/8/6 64/6/6
f 449/13/7 82/14/8 160/15/9
f 154/16/10 388/6/11 387/17/12
f 96/18/13 71/8/14 80/19/15
f 389/20/16 73/21/17 148/22/18
f 392/23/19 75/24/20 92/25/21
f 397/26/22 77/27/23 142/28/24
f 451/29/25 78/30/26 396/8/27
f 142/28/24 78/30/26 139/31/28
f 90/32/29 391/10/30 404/33/31
f 90/32/29 75/24/20 76/34/32
f 145/35/33 68/9/34 128/36/35
f 148/22/18 74/37/36 145/35/33
f 402/23/37 79/38/38 72/7/39
f 94/39/40 80/19/15 79/38/38
f 73/17/17 93/40/41 74/41/36
f 95/42/42 94/39/40 93/40/41
f 74/41/36 84/43/43 68/5/34
f 93/40/41 402/23/37 84/43/43
f 77/44/23 89/45/44 78/46/26
f 91/47/45 90/32/29 89/45/44
f 396/11/27 89/45/44 395/48/46
f 89/45/44 404/33/31 395/48/46
f 399/5/47 91/47/45 77/44/23
f 403/43/2 92/25/21 91/47/45
f 67/6/48 95/42/42 73/17/17
f 95/42/42 82/49/8 96/18/13
f 151/50/49 401/5/50 400/51/5
f 154/16/10 83/41/51 151/50/49
f 157/52/9 67/2/48 127/53/7
f 160/15/9 81/54/52 157/52/9
f 409/1/1 405/2/1 407/3/1
f 453/51/2 412/6/53 413/5/2
f 104/6/3 415/7/3 414/5/3
f 455/36/4 98/55/54 408/9/4
f 103/5/55 418/56/56 161/57/56
f 417/8/3 108/6/3 420/8/3
f 420/8/3 112/6/3 424/8/3
f 409/1/1 422/4/1 410/4/1
f 170/58/57 107/8/58 176/58/59
f 164/59/60 106/4/61 173/59/62
f 182/58/63 115/8/64 188/58/65
f 421/1/1 426/4/1 422/4/1
f 176/58/59 111/8/66 182/58/63
f 173/59/62 110/4/67 179/59/68
f 427/8/3 119/6/3 432/8/3
f 179/59/68 114/4/69 185/59/70
f 424/8/3 116/6/3 427/8/3
f 425/1/1 429/4/1 426/4/1
f 433/1/1 437/4/1 434/4/1
f 428/1/1 434/4/1 429/4/1
f 115/8/64 194/58/71 188/58/65
f 114/4/69 191/59/72 185/59/70
f 438/12/73 444/60/74 457/61/75
f 120/8/76 459/58/77 194/58/71
f 118/4/78 197/59/79 191/59/72
f 432/8/3 441/6/3 442/8/3
f 85/62/80 155/63/80 86/64/80
f 158/65/80 156/66/80 155/63/80
f 156/66/80 160/15/9 157/52/9
f 86/64/80 445/67/80 394/3/80
f 155/63/80 446/68/80 445/67/80
f 446/68/80 157/52/9 127/53/7
f 87/14/81 149/69/5 88/54/82
f 149/69/5 153/70/5 150/71/5
f 153/70/5 151/50/49 150/71/5
f 88/54/82 134/72/83 70/2/84
f 149/69/5 452/73/5 134/72/83
f 150/71/5 400/51/5 452/73/5
f 76/38/32 146/74/85 143/75/86
f 143/75/86 147/76/87 144/77/88
f 144/77/88 148/22/18 145/35/33
f 391/7/30 143/75/86 390/78/89
f 143/75/86 448/79/3 390/78/89
f 144/77/88 128/36/35 448/79/3
f 79/80/38 140/81/90 137/82/91
f 140/81/90 138/83/92 137/82/91
f 141/84/93 139/31/28 138/83/92
f 79/80/38 136/85/94 72/6/39
f 137/82/91 135/86/95 136/85/94
f 135/86/95 139/31/28 451/29/25
f 71/12/14 140/81/90 80/87/15
f 131/88/96 141/84/93 140/81/90
f 450/89/97 142/28/24 141/84/93
f 75/19/20 125/58/98 146/74/85
f 146/74/85 126/90/99 147/76/87
f 147/76/87 389/20/16 148/22/18
f 66/4/100 152/91/101 87/14/81
f 152/91/101 129/92/5 153/70/5
f 153/70/5 447/93/5 154/16/10
f 69/1/80 158/65/80 85/62/80
f 158/65/80 132/94/80 159/95/80
f 132/94/80 160/15/9 159/95/80
f 431/6/102 439/93/103 440/6/104
f 192/92/105 439/93/103 193/93/106
f 192/92/105 197/59/79 458/92/107
f 117/55/108 202/20/109 121/55/110
f 195/90/111 202/20/109 196/20/112
f 195/90/111 459/58/77 460/90/113
f 123/6/114 200/96/115 124/8/114
f 198/97/116 200/96/115 199/98/117
f 198/97/116 444/60/74 201/99/116
f 430/6/118 193/93/106 431/6/102
f 186/92/119 193/93/106 187/93/120
f 186/92/119 191/59/72 192/92/105
f 113/55/121 196/20/112 117/55/108
f 189/90/122 196/20/112 190/20/123
f 189/90/122 194/58/71 195/90/111
f 181/93/124 430/6/118 423/6/125
f 181/93/124 186/92/119 187/93/120
f 179/59/68 186/92/119 180/92/126
f 175/93/127 423/6/125 419/6/128
f 175/93/127 180/92/126 181/93/124
f 173/59/62 180/92/126 174/92/129
f 178/20/130 109/55/131 105/55/132
f 178/20/130 183/90/133 184/20/134
f 176/58/59 183/90/133 177/90/135
f 184/20/134 113/55/121 109/55/131
f 184/20/134 189/90/122 190/20/123
f 182/58/63 189/90/122 183/90/133
f 166/93/136 419/6/128 412/6/53
f 166/93/136 174/92/129 175/93/127
f 164/59/60 174/92/129 165/92/137
f 172/20/138 105/55/132 98/55/54
f 172/20/138 177/90/135 178/20/130
f 170/58/57 177/90/135 171/90/139
f 411/100/140 97/10/141 406/11/141
f 454/101/142 167/102/140 411/100/140
f 161/57/56 456/103/142 454/101/142
f 102/8/143 169/78/4 101/7/4
f 169/78/4 171/90/139 168/79/4
f 171/90/139 455/36/4 168/79/4
f 100/4/144 163/72/2 99/2/2
f 163/72/2 165/92/137 162/73/2
f 165/92/137 453/51/2 162/73/2
f 217/104/145 480/105/146 475/106/145
f 477/107/147 473/108/148 206/8/149
f 471/1/1 224/3/150 225/1/151
f 461/3/1 463/1/1 464/1/1
f 464/1/1 476/109/152 461/3/1
f 479/110/153 468/8/3 465/7/3
f 210/7/154 211/10/155 207/10/154
f 205/7/156 207/10/154 203/10/157
f 204/111/158 209/8/159 206/8/149
f 465/7/3 467/8/3 466/7/3
f 472/8/3 229/7/160 469/7/3
f 462/3/1 471/1/1 463/1/1
f 208/111/161 213/8/162 209/8/159
f 466/7/3 472/8/3 469/7/3
f 214/7/155 230/112/163 481/10/163
f 212/111/162 226/113/164 485/8/165
f 487/114/166 483/115/167 223/116/168
f 217/104/145 476/109/152 218/117/169
f 479/110/153 222/118/146 221/119/170
f 223/116/168 225/120/151 224/9/150
f 487/114/166 228/8/171 227/121/172
f 216/122/173 220/110/173 203/10/157
f 490/123/6 233/124/174 231/125/6
f 489/126/174 235/127/175 233/124/174
f 491/128/175 237/129/5 235/127/175
f 492/130/5 239/131/176 237/129/5
f 232/132/4 240/133/4 236/134/4
f 493/135/176 241/136/177 239/131/176
f 242/137/177 231/138/6 241/136/177
f 243/125/178 495/126/179 245/124/179
f 495/126/179 247/127/180 245/124/179
f 247/127/180 498/130/181 249/129/181
f 498/130/181 251/131/182 249/129/181
f 244/132/183 252/133/183 248/134/183
f 251/131/182 254/137/184 253/136/184
f 254/137/184 243/138/178 253/136/184
f 502/123/178 257/124/179 255/125/178
f 501/126/185 259/127/180 257/124/179
f 259/127/180 504/130/181 261/129/181
f 261/129/181 505/135/182 263/131/186
f 256/132/183 264/133/183 260/134/183
f 263/131/186 266/137/184 265/136/184
f 266/137/184 255/138/178 265/136/184
f 508/123/187 269/124/188 267/125/187
f 507/126/188 271/127/189 269/124/188
f 509/128/189 273/129/190 271/127/189
f 510/130/190 275/131/191 273/129/190
f 268/132/192 276/133/192 272/134/192
f 511/135/191 277/136/193 275/131/191
f 277/136/193 508/139/187 267/138/187
f 514/123/187 281/124/188 279/125/187
f 281/124/188 515/128/189 283/127/189
f 515/128/189 285/129/190 283/127/189
f 285/129/190 517/135/191 287/131/191
f 280/132/192 288/133/192 284/134/192
f 517/135/191 289/136/193 287/131/191
f 289/136/193 514/139/187 279/138/187
f 295/1/1 297/4/1 291/2/1
f 298/4/2 301/6/2 299/5/2
f 302/6/3 305/8/3 303/7/3
f 306/8/4 296/55/4 294/9/4
f 7/5/5 5/7/5 1/10/5
f 4/12/6 2/111/6 6/8/6
f 317/5/1 313/7/1 311/10/1
f 319/4/2 316/6/2 318/5/2
f 310/1/6 320/4/6 35/2/6
f 307/8/4 309/55/4 33/9/4
f 36/12/3 34/111/3 308/8/3
f 40/6/5 38/8/5 37/7/5
f 327/1/1 329/4/1 323/2/1
f 330/4/2 333/6/2 331/5/2
f 334/6/3 337/8/3 335/7/3
f 338/8/4 328/55/4 326/9/4
f 31/5/5 29/7/5 25/10/5
f 28/12/6 26/111/6 30/8/6
f 349/5/1 345/7/1 343/10/1
f 351/4/2 348/6/2 350/5/2
f 342/1/6 352/4/6 43/2/6
f 339/8/4 341/55/4 41/9/4
f 44/12/3 42/111/3 340/8/3
f 48/6/5 46/8/5 45/7/5
f 359/1/1 361/4/1 355/2/1
f 362/4/2 365/6/2 363/5/2
f 366/6/3 369/8/3 367/7/3
f 370/8/4 360/55/4 358/9/4
f 55/5/5 53/7/5 49/10/5
f 52/12/6 50/111/6 54/8/6
f 375/1/1 377/4/1 371/2/1
f 378/4/2 381/6/2 379/5/2
f 382/6/3 385/8/3 383/7/3
f 386/8/4 376/55/4 374/9/4
f 63/5/5 61/7/5 57/10/5
f 60/12/6 58/111/6 62/8/6
f 449/13/7 71/4/14 82/14/8
f 154/16/10 447/93/5 388/6/11
f 96/18/13 82/49/8 71/8/14
f 389/20/16 67/55/48 73/21/17
f 392/23/19 393/7/194 75/24/20
f 397/26/22 398/111/195 77/27/23
f 451/29/25 139/31/28 78/30/26
f 142/28/24 77/27/23 78/30/26
f 90/32/29 76/34/32 391/10/30
f 90/32/29 92/25/21 75/24/20
f 145/35/33 74/37/36 68/9/34
f 148/22/18 73/21/17 74/37/36
f 402/23/37 94/39/40 79/38/38
f 94/39/40 96/18/13 80/19/15
f 73/17/17 95/42/42 93/40/41
f 95/42/42 96/18/13 94/39/40
f 74/41/36 93/40/41 84/43/43
f 93/40/41 94/39/40 402/23/37
f 77/44/23 91/47/45 89/45/44
f 91/47/45 92/25/21 90/32/29
f 396/11/27 78/46/26 89/45/44
f 89/45/44 90/32/29 404/33/31
f 399/5/47 403/43/2 91/47/45
f 403/43/2 392/23/19 92/25/21
f 67/6/48 81/140/52 95/42/42
f 95/42/42 81/140/52 82/49/8
f 151/50/49 83/41/51 401/5/50
f 154/16/10 387/17/12 83/41/51
f 157/52/9 81/54/52 67/2/48
f 160/15/9 82/14/8 81/54/52
f 409/1/1 410/4/1 405/2/1
f 453/51/2 166/93/136 412/6/53
f 104/6/3 417/8/3 415/7/3
f 455/36/4 172/20/138 98/55/54
f 103/5/55 416/7/55 418/56/56
f 417/8/3 104/6/3 108/6/3
f 420/8/3 108/6/3 112/6/3
f 409/1/1 421/1/1 422/4/1
f 170/58/57 102/8/143 107/8/58
f 164/59/60 100/4/144 106/4/61
f 182/58/63 111/8/66 115/8/64
f 421/1/1 425/1/1 426/4/1
f 176/58/59 107/8/58 111/8/66
f 173/59/62 106/4/61 110/4/67
f 427/8/3 116/6/3 119/6/3
f 179/59/68 110/4/67 114/4/69
f 424/8/3 112/6/3 116/6/3
f 425/1/1 428/1/1 429/4/1
f 433/1/1 435/1/1 437/4/1
f 428/1/1 433/1/1 434/4/1
f 115/8/64 120/8/76 194/58/71
f 114/4/69 118/4/78 191/59/72
f 438/12/73 436/111/73 444/60/74
f 120/8/76 443/8/196 459/58/77
f 118/4/78 122/4/197 197/59/79
f 432/8/3 119/6/3 441/6/3
f 85/62/80 158/65/80 155/63/80
f 158/65/80 159/95/80 156/66/80
f 156/66/80 159/95/80 160/15/9
f 86/64/80 155/63/80 445/67/80
f 155/63/80 156/66/80 446/68/80
f 446/68/80 156/66/80 157/52/9
f 87/14/81 152/91/101 149/69/5
f 149/69/5 152/91/101 153/70/5
f 153/70/5 154/16/10 151/50/49
f 88/54/82 149/69/5 134/72/83
f 149/69/5 150/71/5 452/73/5
f 150/71/5 151/50/49 400/51/5
f 76/38/32 75/19/20 146/74/85
f 143/75/86 146/74/85 147/76/87
f 144/77/88 147/76/87 148/22/18
f 391/7/30 76/38/32 143/75/86
f 143/75/86 144/77/88 448/79/3
f 144/77/88 145/35/33 128/36/35
f 79/80/38 80/87/15 140/81/90
f 140/81/90 141/84/93 138/83/92
f 141/84/93 142/28/24 139/31/28
f 79/80/38 137/82/91 136/85/94
f 137/82/91 138/83/92 135/86/95
f 135/86/95 138/83/92 139/31/28
f 71/12/14 131/88/96 140/81/90
f 131/88/96 450/89/97 141/84/93
f 450/89/97 397/26/22 142/28/24
f 75/19/20 65/8/198 125/58/98
f 146/74/85 125/58/98 126/90/99
f 147/76/87 126/90/99 389/20/16
f 66/4/100 130/59/199 152/91/101
f 152/91/101 130/59/199 129/92/5
f 153/70/5 129/92/5 447/93/5
f 69/1/80 133/141/80 158/65/80
f 158/65/80 133/141/80 132/94/80
f 132/94/80 449/13/7 160/15/9
f 431/6/102 193/93/106 439/93/103
f 192/92/105 458/92/107 439/93/103
f 192/92/105 191/59/72 197/59/79
f 117/55/108 196/20/112 202/20/109
f 195/90/111 460/90/113 202/20/109
f 195/90/111 194/58/71 459/58/77
f 123/6/114 199/98/117 200/96/115
f 198/97/116 201/99/116 200/96/115
f 198/97/116 457/61/75 444/60/74
f 430/6/118 187/93/120 193/93/106
f 186/92/119 192/92/105 193/93/106
f 186/92/119 185/59/70 191/59/72
f 113/55/121 190/20/123 196/20/112
f 189/90/122 195/90/111 196/20/112
f 189/90/122 188/58/65 194/58/71
f 181/93/124 187/93/120 430/6/118
f 181/93/124 180/92/126 186/92/119
f 179/59/68 185/59/70 186/92/119
f 175/93/127 181/93/124 423/6/125
f 175/93/127 174/92/129 180/92/126
f 173/59/62 179/59/68 180/92/126
f 178/20/130 184/20/134 109/55/131
f 178/20/130 177/90/135 183/90/133
f 176/58/59 182/58/63 183/90/133
f 184/20/134 190/20/123 113/55/121
f 184/20/134 183/90/133 189/90/122
f 182/58/63 188/58/65 189/90/122
f 166/93/136 175/93/127 419/6/128
f 166/93/136 165/92/137 174/92/129
f 164/59/60 173/59/62 174/92/129
f 172/20/138 178/20/130 105/55/132
f 172/20/138 171/90/139 177/90/135
f 170/58/57 176/58/59 177/90/135
f 411/100/140 167/102/140 97/10/141
f 454/101/142 456/103/142 167/102/140
f 161/57/56 418/56/56 456/103/142
f 102/8/143 170/58/57 169/78/4
f 169/78/4 170/58/57 171/90/139
f 171/90/139 172/20/138 455/36/4
f 100/4/144 164/59/60 163/72/2
f 163/72/2 164/59/60 165/92/137
f 165/92/137 166/93/136 453/51/2
f 217/104/145 222/118/146 480/105/146
f 206/8/149 478/119/200 477/107/147
f 477/107/147 474/142/201 473/108/148
f 473/108/148 204/111/158 206/8/149
f 471/1/1 470/3/1 224/3/150
f 461/3/1 462/3/1 463/1/1
f 464/1/1 218/117/169 476/109/152
f 479/110/153 221/119/170 468/8/3
f 210/7/154 214/7/155 211/10/155
f 205/7/156 210/7/154 207/10/154
f 204/111/158 208/111/161 209/8/159
f 465/7/3 468/8/3 467/8/3
f 472/8/3 228/8/171 229/7/160
f 462/3/1 470/3/1 471/1/1
f 208/111/161 212/111/162 213/8/162
f 466/7/3 467/8/3 472/8/3
f 481/10/163 211/10/155 214/7/155
f 214/7/155 488/7/163 230/112/163
f 230/112/163 482/143/163 481/10/163
f 485/8/165 213/8/162 212/111/162
f 212/111/162 484/111/202 226/113/164
f 226/113/164 486/144/203 485/8/165
f 487/114/166 227/121/172 483/115/167
f 217/104/145 475/106/145 476/109/152
f 479/110/153 480/105/146 222/118/146
f 223/116/168 483/115/167 225/120/151
f 487/114/166 229/7/160 228/8/171
f 203/10/157 215/145/173 216/122/173
f 216/122/173 219/146/173 220/110/173
f 220/110/173 205/7/156 203/10/157
f 490/123/6 489/126/174 233/124/174
f 489/126/174 491/128/175 235/127/175
f 491/128/175 492/130/5 237/129/5
f 492/130/5 493/135/176 239/131/176
f 236/134/4 234/147/4 232/132/4
f 232/132/4 494/148/4 240/133/4
f 240/133/4 238/149/4 236/134/4
f 493/135/176 242/137/177 241/136/177
f 242/137/177 490/139/6 231/138/6
f 243/125/178 496/123/178 495/126/179
f 495/126/179 497/128/180 247/127/180
f 247/127/180 497/128/180 498/130/181
f 498/130/181 499/135/182 251/131/182
f 248/134/183 246/147/183 244/132/183
f 244/132/183 500/148/183 252/133/183
f 252/133/183 250/149/183 248/134/183
f 251/131/182 499/135/182 254/137/184
f 254/137/184 496/139/178 243/138/178
f 502/123/178 501/126/185 257/124/179
f 501/126/185 503/128/180 259/127/180
f 259/127/180 503/128/180 504/130/181
f 261/129/181 504/130/181 505/135/182
f 260/134/183 258/147/183 256/132/183
f 256/132/183 506/148/183 264/133/183
f 264/133/183 262/149/183 260/134/183
f 263/131/186 505/135/182 266/137/184
f 266/137/184 502/139/178 255/138/178
f 508/123/187 507/126/188 269/124/188
f 507/126/188 509/128/189 271/127/189
f 509/128/189 510/130/190 273/129/190
f 510/130/190 511/135/191 275/131/191
f 272/134/192 270/147/192 268/132/192
f 268/132/192 512/148/192 276/133/192
f 276/133/192 274/149/192 272/134/192
f 511/135/191 278/137/193 277/136/193
f 277/136/193 278/137/193 508/139/187
f 514/123/187 513/126/188 281/124/188
f 281/124/188 513/126/188 515/128/189
f 515/128/189 516/130/190 285/129/190
f 285/129/190 516/130/190 517/135/191
f 284/134/192 282/147/192 280/132/192
f 280/132/192 518/148/192 288/133/192
f 288/133/192 286/149/192 284/134/192
f 517/135/191 290/137/193 289/136/193
f 289/136/193 290/137/193 514/139/187
