# Blender 4.5.1 LTS
# www.blender.org
mtllib MiniPrint.mtl
g MiniPrint_Mesh
v -0.050000 0.100000 0.020000
v -0.050000 0.100000 -0.020000
v 0.050000 0.000000 0.020000
v 0.050000 0.100000 0.020000
v 0.050000 0.000000 -0.020000
v 0.050000 0.100000 -0.020000
v 0.050000 0.120000 0.002679
v -0.050000 0.120000 0.002679
v -0.045000 0.100000 -0.045000
v 0.045000 0.100000 -0.045000
v -0.045000 0.090000 -0.042321
v 0.045000 0.090000 -0.042321
v -0.045000 0.082680 -0.035000
v 0.045000 0.082680 -0.035000
v -0.045000 0.080000 -0.025000
v 0.045000 0.080000 -0.025000
v -0.045000 0.082680 -0.015000
v 0.045000 0.082680 -0.015000
v -0.045000 0.090000 -0.007680
v 0.045000 0.090000 -0.007680
v -0.045000 0.100000 -0.005000
v 0.045000 0.100000 -0.005000
v -0.045000 0.110000 -0.007680
v 0.045000 0.110000 -0.007680
v -0.045000 0.117321 -0.015000
v 0.045000 0.117321 -0.015000
v -0.045000 0.120000 -0.025000
v 0.045000 0.120000 -0.025000
v -0.045000 0.117321 -0.035000
v 0.045000 0.117321 -0.035000
v -0.045000 0.110000 -0.042321
v 0.045000 0.110000 -0.042321
v 0.050000 0.127321 0.010000
v -0.050000 0.127321 0.010000
v 0.050000 0.130000 0.020000
v -0.050000 0.130000 0.020000
v 0.050000 0.127321 0.030000
v -0.050000 0.127321 0.030000
v 0.050000 0.120000 0.037321
v -0.050000 0.120000 0.037321
v 0.050000 0.110000 0.040000
v -0.050000 0.110000 0.040000
v 0.050000 0.100000 0.037321
v -0.050000 0.100000 0.037321
v 0.050000 0.092680 0.030000
v -0.050000 0.092680 0.030000
v 0.050000 0.090000 0.020000
v -0.050000 0.090000 0.020000
v 0.050000 0.092680 0.010000
v -0.050000 0.092680 0.010000
v 0.050000 0.100000 0.002679
v -0.050000 0.100000 0.002679
v 0.050000 0.110000 0.000000
v -0.050000 0.110000 0.000000
v -0.047000 0.085000 0.000000
v -0.047000 0.110000 -0.025000
v -0.047000 0.075000 -0.010000
v -0.047000 0.100000 -0.035000
v 0.047000 0.085000 0.000000
v 0.047000 0.110000 -0.025000
v 0.047000 0.075000 -0.010000
v 0.047000 0.100000 -0.035000
v 0.050000 0.070000 -0.020000
v 0.050000 0.070000 0.020000
v -0.060000 0.115000 0.018000
v -0.060000 0.070000 0.018000
v -0.060000 0.115000 0.022000
v -0.060000 0.070000 0.022000
v -0.064000 0.115000 0.018000
v -0.064000 0.070000 0.018000
v -0.064000 0.115000 0.022000
v -0.064000 0.070000 0.022000
v -0.040000 0.070000 0.016000
v -0.040000 0.060000 0.016000
v -0.040000 0.070000 0.024000
v -0.040000 0.060000 0.024000
v -0.066000 0.070000 0.016000
v -0.066000 0.060000 0.016000
v -0.066000 0.070000 0.024000
v -0.066000 0.060000 0.024000
v -0.061000 0.145000 0.019000
v -0.061000 0.115000 0.019000
v -0.061000 0.145000 0.021000
v -0.061000 0.115000 0.021000
v -0.063000 0.145000 0.019000
v -0.063000 0.115000 0.019000
v -0.063000 0.145000 0.021000
v -0.063000 0.115000 0.021000
v -0.053000 0.085000 0.005000
v -0.053000 0.110000 0.030000
v -0.053000 0.095000 -0.005000
v -0.053000 0.120000 0.020000
v 0.053000 0.085000 0.005000
v 0.053000 0.110000 0.030000
v 0.053000 0.095000 -0.005000
v 0.053000 0.120000 0.020000
v -0.050000 0.070000 -0.020000
v -0.050000 0.000000 -0.020000
v -0.050000 0.000000 0.020000
v -0.050000 0.070000 0.020000
v -0.070000 0.060000 0.020000
v -0.070000 0.060000 -0.020000
v -0.070000 0.000000 0.020000
v -0.070000 0.000000 -0.020000
v 0.054000 0.110000 -0.005000
v 0.054000 0.083000 -0.005000
v 0.054000 0.110000 0.005000
v 0.054000 0.083000 0.005000
v 0.050000 0.110000 -0.005000
v 0.050000 0.083000 -0.005000
v 0.050000 0.110000 0.005000
v 0.050000 0.083000 0.005000
v -0.060000 0.110000 0.010000
v -0.050000 0.110000 0.010000
v -0.060000 0.105000 0.011340
v -0.050000 0.105000 0.011340
v -0.060000 0.101340 0.015000
v -0.050000 0.101340 0.015000
v -0.060000 0.100000 0.020000
v -0.050000 0.100000 0.020000
v -0.060000 0.101340 0.025000
v -0.050000 0.101340 0.025000
v -0.060000 0.105000 0.028660
v -0.050000 0.105000 0.028660
v -0.060000 0.110000 0.030000
v -0.050000 0.110000 0.030000
v -0.060000 0.115000 0.028660
v -0.050000 0.115000 0.028660
v -0.060000 0.118660 0.025000
v -0.050000 0.118660 0.025000
v -0.060000 0.120000 0.020000
v -0.050000 0.120000 0.020000
v -0.060000 0.118660 0.015000
v -0.050000 0.118660 0.015000
v -0.060000 0.115000 0.011340
v -0.050000 0.115000 0.011340
v -0.045000 0.105000 -0.033660
v -0.060000 0.105000 -0.033660
v -0.045000 0.108660 -0.030000
v -0.060000 0.108660 -0.030000
v -0.045000 0.110000 -0.025000
v -0.060000 0.110000 -0.025000
v -0.045000 0.108660 -0.020000
v -0.060000 0.108660 -0.020000
v -0.045000 0.105000 -0.016340
v -0.060000 0.105000 -0.016340
v -0.045000 0.100000 -0.015000
v -0.060000 0.100000 -0.015000
v -0.045000 0.095000 -0.016340
v -0.060000 0.095000 -0.016340
v -0.045000 0.091340 -0.020000
v -0.060000 0.091340 -0.020000
v -0.045000 0.090000 -0.025000
v -0.060000 0.090000 -0.025000
v -0.045000 0.091340 -0.030000
v -0.060000 0.091340 -0.030000
v -0.045000 0.095000 -0.033660
v -0.060000 0.095000 -0.033660
v -0.045000 0.100000 -0.035000
v -0.060000 0.100000 -0.035000
v -0.059000 0.118000 0.020000
v -0.059000 0.120000 0.020000
v -0.059000 0.108000 -0.025000
v -0.059000 0.110000 -0.025000
v -0.052000 0.118000 0.020000
v -0.052000 0.120000 0.020000
v -0.052000 0.108000 -0.025000
v -0.052000 0.110000 -0.025000
v -0.059000 0.100000 0.020000
v -0.059000 0.102000 0.020000
v -0.059000 0.090000 -0.025000
v -0.059000 0.092000 -0.025000
v -0.052000 0.100000 0.020000
v -0.052000 0.102000 0.020000
v -0.052000 0.090000 -0.025000
v -0.052000 0.092000 -0.025000
v -0.059000 0.108606 -0.019375
v -0.059000 0.108464 -0.013750
v -0.059000 0.108425 -0.008125
v -0.059000 0.109000 -0.002500
v -0.059000 0.110906 0.003125
v -0.059000 0.113436 0.008750
v -0.059000 0.116084 0.014375
v -0.059000 0.118106 0.014375
v -0.059000 0.115464 0.008750
v -0.059000 0.112924 0.003125
v -0.059000 0.111000 -0.002500
v -0.059000 0.110406 -0.008125
v -0.059000 0.110436 -0.013750
v -0.059000 0.110584 -0.019375
v -0.052000 0.116084 0.014375
v -0.052000 0.113436 0.008750
v -0.052000 0.110906 0.003125
v -0.052000 0.109000 -0.002500
v -0.052000 0.108424 -0.008125
v -0.052000 0.108464 -0.013750
v -0.052000 0.108606 -0.019375
v -0.052000 0.110584 -0.019375
v -0.052000 0.110436 -0.013750
v -0.052000 0.110406 -0.008125
v -0.052000 0.111000 -0.002500
v -0.052000 0.112924 0.003125
v -0.052000 0.115464 0.008750
v -0.052000 0.118106 0.014375
v 0.070000 0.080000 -0.010000
v 0.070000 0.075000 -0.010000
v 0.070000 0.020000 -0.008000
v 0.070000 0.075000 -0.008000
v 0.075657 0.020000 -0.005657
v 0.075657 0.075000 -0.005657
v 0.078000 0.020000 0.000000
v 0.078000 0.075000 0.000000
v 0.075657 0.020000 0.005657
v 0.075657 0.075000 0.005657
v 0.070000 0.020000 0.008000
v 0.070000 0.075000 0.008000
v 0.064343 0.020000 0.005657
v 0.064343 0.075000 0.005657
v 0.062000 0.020000 0.000000
v 0.062000 0.075000 0.000000
v 0.064343 0.020000 -0.005657
v 0.064343 0.075000 -0.005657
v 0.077071 0.075000 -0.007071
v 0.077071 0.080000 -0.007071
v 0.080000 0.075000 0.000000
v 0.080000 0.080000 0.000000
v 0.077071 0.075000 0.007071
v 0.077071 0.080000 0.007071
v 0.070000 0.075000 0.010000
v 0.070000 0.080000 0.010000
v 0.062929 0.075000 0.007071
v 0.062929 0.080000 0.007071
v 0.060000 0.075000 0.000000
v 0.060000 0.080000 0.000000
v 0.062929 0.075000 -0.007071
v 0.062929 0.080000 -0.007071
v 0.070000 0.020000 -0.010000
v 0.070000 0.015000 -0.010000
v 0.077071 0.015000 -0.007071
v 0.077071 0.020000 -0.007071
v 0.080000 0.015000 0.000000
v 0.080000 0.020000 0.000000
v 0.077071 0.015000 0.007071
v 0.077071 0.020000 0.007071
v 0.070000 0.015000 0.010000
v 0.070000 0.020000 0.010000
v 0.062929 0.015000 0.007071
v 0.062929 0.020000 0.007071
v 0.060000 0.015000 0.000000
v 0.060000 0.020000 0.000000
v 0.062929 0.015000 -0.007071
v 0.062929 0.020000 -0.007071
v 0.050000 0.080000 0.011000
v 0.050000 0.083000 0.011000
v 0.050000 0.080000 -0.011000
v 0.050000 0.083000 -0.011000
v 0.050000 0.015000 -0.011000
v 0.050000 0.012000 -0.011000
v 0.050000 0.015000 0.011000
v 0.050000 0.012000 0.011000
v 0.082000 0.080000 0.006000
v 0.077000 0.080000 0.011000
v 0.080536 0.080000 0.009536
v 0.077000 0.083000 0.011000
v 0.082000 0.083000 0.006000
v 0.080536 0.083000 0.009536
v 0.077000 0.080000 -0.011000
v 0.082000 0.080000 -0.006000
v 0.080536 0.080000 -0.009535
v 0.082000 0.083000 -0.006000
v 0.077000 0.083000 -0.011000
v 0.080536 0.083000 -0.009535
v 0.082000 0.012000 0.006000
v 0.077000 0.012000 0.011000
v 0.080536 0.012000 0.009536
v 0.077000 0.015000 0.011000
v 0.082000 0.015000 0.006000
v 0.080536 0.015000 0.009536
v 0.077000 0.012000 -0.011000
v 0.082000 0.012000 -0.006000
v 0.080536 0.012000 -0.009535
v 0.082000 0.015000 -0.006000
v 0.077000 0.015000 -0.011000
v 0.080536 0.015000 -0.009535
v 0.060000 0.120000 -0.003000
v 0.060000 0.083000 -0.003000
v 0.060000 0.120000 0.003000
v 0.060000 0.083000 0.003000
v 0.057000 0.120000 -0.003000
v 0.057000 0.083000 -0.003000
v 0.057000 0.120000 0.003000
v 0.057000 0.083000 0.003000
v 0.057000 0.110000 -0.001000
v 0.057000 0.108000 -0.001000
v 0.057000 0.110000 0.001000
v 0.057000 0.108000 0.001000
v 0.055000 0.110000 -0.001000
v 0.055000 0.108000 -0.001000
v 0.055000 0.110000 0.001000
v 0.055000 0.108000 0.001000
vn -1.0000 -0.0000 -0.0000
vn -0.0000 -0.0000 -1.0000
vn 1.0000 -0.0000 -0.0000
vn -0.0000 -0.0000 1.0000
vn -0.0000 -1.0000 -0.0000
vn -0.0000 1.0000 -0.0000
vn -0.0000 -0.5000 -0.8660
vn -0.0000 0.5000 -0.8660
vn -0.0000 -0.8660 -0.5000
vn -0.0000 0.7071 -0.7071
vn -0.0000 0.8660 -0.5000
vn -0.0000 -0.7071 0.7071
vn -0.0000 -0.8660 0.5000
vn -0.0000 0.7071 0.7071
vn -0.0000 -0.5000 0.8660
vn -0.0000 0.8660 0.5000
vn -0.0000 -0.7071 -0.7071
vn -0.0000 0.5000 0.8660
vn -0.4472 0.8944 -0.0000
vn -0.0000 -0.9466 0.3225
vn -0.0000 0.9477 -0.3191
vn -0.0000 -0.9762 0.2169
vn -0.0000 0.9762 -0.2169
vn -0.0000 0.9947 -0.1032
vn -0.0000 0.9997 0.0262
vn -0.0000 1.0000 0.0053
vn -0.0000 0.9945 -0.1050
vn -0.0000 0.9462 -0.3237
vn -0.0000 0.9114 -0.4115
vn -0.0000 0.9052 -0.4251
vn -0.0000 -0.9942 0.1071
vn -0.0000 -0.9997 -0.0252
vn -0.0000 -1.0000 -0.0071
vn -0.0000 -0.9948 0.1018
vn -0.0000 -0.9471 0.3209
vn -0.0000 -0.9120 0.4102
vn -0.0000 -0.9048 0.4259
vn 0.9239 -0.0000 0.3827
vn 0.3827 -0.0000 -0.9239
vn -0.3827 -0.0000 -0.9239
vn -0.9239 -0.0000 0.3827
vn 0.9239 -0.0000 -0.3827
vn 0.3827 -0.0000 0.9239
vn -0.3827 -0.0000 0.9239
vn -0.9239 -0.0000 -0.3827
vt 0.625000 0.000000
vt 0.537500 0.250000
vt 0.537500 0.000000
vt 0.625000 0.250000
vt 0.537500 0.500000
vt 0.625000 0.500000
vt 0.537500 0.750000
vt 0.625000 0.750000
vt 0.537500 1.000000
vt 0.375000 0.500000
vt 0.125000 0.750000
vt 0.125000 0.500000
vt 0.875000 0.500000
vt 0.990000 0.250000
vt 0.630000 0.042154
vt 0.630000 0.457846
vt 1.000000 1.000000
vt 0.916667 0.500000
vt 1.000000 0.500000
vt 0.083333 1.000000
vt 0.000000 0.500000
vt 0.083333 0.500000
vt 0.916667 1.000000
vt 0.833333 0.500000
vt 0.375000 0.250000
vt 0.375000 0.000000
vt 0.166667 1.000000
vt 0.166667 0.500000
vt 0.833333 1.000000
vt 0.750000 0.500000
vt 0.042154 0.370000
vt 0.250000 0.010000
vt 0.457846 0.370000
vt 0.750000 1.000000
vt 0.666667 0.500000
vt 0.375000 0.750000
vt 0.250000 1.000000
vt 0.250000 0.500000
vt 0.666667 1.000000
vt 0.583333 0.500000
vt 0.625000 1.000000
vt 0.375000 1.000000
vt 0.333333 1.000000
vt 0.333333 0.500000
vt 0.583333 1.000000
vt 0.500000 0.500000
vt 0.416667 1.000000
vt 0.416667 0.500000
vt 0.500000 1.000000
vt 0.375000 0.218750
vt 0.625000 0.718750
vt 0.375000 0.718750
vt 0.125000 0.718750
vt 0.875000 0.750000
vt 0.875000 0.531250
vt 0.625000 0.531250
vt 0.625000 0.562500
vt 0.875000 0.562500
vt 0.625000 0.593750
vt 0.875000 0.625000
vt 0.625000 0.625000
vt 0.875000 0.656250
vt 0.625000 0.656250
vt 0.875000 0.687500
vt 0.625000 0.687500
vt 0.875000 0.718750
vt 0.125000 0.531250
vt 0.375000 0.531250
vt 0.125000 0.562500
vt 0.375000 0.562500
vt 0.125000 0.593750
vt 0.375000 0.625000
vt 0.125000 0.625000
vt 0.375000 0.656250
vt 0.125000 0.656250
vt 0.375000 0.687500
vt 0.125000 0.687500
vt 0.375000 0.593750
vt 0.625000 0.031250
vt 0.375000 0.031250
vt 0.625000 0.062500
vt 0.375000 0.062500
vt 0.625000 0.093750
vt 0.375000 0.093750
vt 0.625000 0.125000
vt 0.375000 0.125000
vt 0.625000 0.156250
vt 0.375000 0.156250
vt 0.375000 0.187500
vt 0.625000 0.187500
vt 0.750000 1.000000
vt 0.750000 0.500000
vt 0.125000 1.000000
vt 0.000000 0.500000
vt 0.250000 0.500000
vt 0.875000 1.000000
vt 0.500000 0.500000
vt 0.500000 1.000000
vt 0.919706 0.080294
vt 0.580294 0.080294
vt 0.580294 0.419706
vt 0.250000 1.000000
vt 0.010000 0.250000
vt 0.250000 0.010000
vt 0.490000 0.250000
vt 0.339144 0.753207
vt 0.636193 0.733720
vt 0.660856 0.753207
vt 0.363807 0.516280
vt 0.660856 0.496793
vt 0.636193 0.516280
vt 0.375000 0.556818
vt 0.625000 0.556818
vt 0.363807 0.733720
vt 0.625000 0.693182
vt 0.375000 0.693182
vt 0.339144 0.496793
vt 0.750000 0.490000
vt 0.870000 0.457846
vt 0.957846 0.370000
vt 0.957846 0.130000
vt 0.870000 0.042154
vt 0.750000 0.010000
vt 0.542154 0.130000
vt 0.510000 0.250000
vt 0.542154 0.370000
vt 0.000000 1.000000
vt 0.370000 0.457846
vt 0.250000 0.490000
vt 0.130000 0.457846
vt 0.042154 0.130000
vt 0.130000 0.042154
vt 0.370000 0.042154
vt 0.457846 0.130000
vt 0.625000 0.218750
vt 0.875000 0.593750
vt 0.000000 1.000000
vt 0.919706 0.419706
vt 0.750000 0.010000
vt 0.419706 0.419706
vt 0.080294 0.419706
vt 0.080294 0.080294
vt 0.419706 0.080294
s 0
f 1/1/1 97/2/1 100/3/1
f 2/4/2 63/5/2 97/2/2
f 6/6/3 64/7/3 63/5/3
f 4/8/4 100/9/4 64/7/4
f 5/10/5 99/11/5 98/12/5
f 2/13/6 4/8/6 6/6/6
s 1
f 48/14/1 40/15/1 8/16/1
f 10/17/2 11/18/7 9/19/2
f 7/20/8 54/21/2 8/22/8
f 12/23/7 13/24/9 11/18/7
s 0
f 58/1/10 60/25/10 62/26/10
s 1
f 33/27/11 8/22/8 34/28/11
f 14/29/9 15/30/5 13/24/9
s 0
f 61/4/12 55/10/12 57/25/12
s 1
f 33/31/3 41/32/3 49/33/3
f 16/34/5 17/35/13 15/30/5
s 0
f 60/6/14 55/36/14 59/10/14
s 1
f 35/37/6 34/28/11 36/38/6
f 18/39/13 19/40/15 17/35/13
s 0
f 61/36/3 60/41/3 59/42/3
s 1
f 37/43/16 36/38/6 38/44/16
f 20/45/15 21/46/4 19/40/15
s 0
f 58/10/17 61/11/17 57/12/17
s 1
f 39/47/18 38/44/16 40/48/18
f 22/49/4 23/48/18 21/46/4
s 0
f 56/13/1 57/8/1 55/6/1
s 1
f 41/49/4 40/48/18 42/46/4
f 24/47/18 25/44/16 23/48/18
f 43/45/15 42/46/4 44/40/15
f 45/39/13 44/40/15 46/35/13
f 26/43/16 27/38/6 25/44/16
f 47/34/5 46/35/13 48/30/5
f 49/29/9 48/30/5 50/24/9
f 28/37/6 29/28/11 27/38/6
f 30/31/3 22/32/3 14/33/3
f 51/23/7 50/24/9 52/18/7
f 30/27/11 31/22/8 29/28/11
f 53/17/2 52/18/7 54/19/2
f 32/20/8 9/21/2 31/22/8
f 15/14/1 23/15/1 31/16/1
s 0
f 64/7/4 99/42/4 3/36/4
f 63/5/3 3/36/3 5/10/3
f 97/2/2 5/10/2 98/25/2
f 107/1/4 112/25/4 108/26/4
f 69/1/6 67/25/6 65/26/6
f 85/1/6 83/25/6 81/26/6
f 67/6/4 72/36/4 68/10/4
f 65/8/3 68/42/3 66/36/3
f 69/10/2 66/11/2 70/12/2
f 71/13/1 70/8/1 72/6/1
f 77/1/6 75/25/6 73/26/6
f 74/4/5 80/10/5 78/25/5
f 75/6/4 80/36/4 76/10/4
f 73/8/3 76/42/3 74/36/3
f 77/10/2 74/11/2 78/12/2
f 79/13/1 78/8/1 80/6/1
f 83/6/4 88/36/4 84/10/4
f 81/8/3 84/42/3 82/36/3
f 85/10/2 82/11/2 86/12/2
f 87/13/1 86/8/1 88/6/1
f 92/1/14 94/25/14 96/26/14
f 95/4/17 89/10/17 91/25/17
f 94/6/12 89/36/12 93/10/12
f 95/36/3 94/41/3 93/42/3
f 92/10/10 95/11/10 91/12/10
f 90/13/1 91/8/1 89/6/1
f 99/42/4 101/9/4 103/42/4
f 98/25/2 102/2/2 97/2/2
f 109/4/6 107/10/6 105/25/6
f 105/8/3 108/42/3 106/36/3
f 99/11/5 104/12/5 98/12/5
f 103/42/1 102/2/1 104/25/1
f 97/2/19 101/3/19 100/3/19
f 109/10/2 106/11/2 110/12/2
f 111/13/1 110/8/1 112/6/1
s 1
f 114/17/2 115/18/7 113/19/2
f 116/23/7 117/24/9 115/18/7
f 118/29/9 119/30/5 117/24/9
f 120/34/5 121/35/13 119/30/5
f 122/39/13 123/40/15 121/35/13
f 124/45/15 125/46/4 123/40/15
f 126/49/4 127/48/18 125/46/4
f 128/47/18 129/44/16 127/48/18
f 130/43/16 131/38/6 129/44/16
f 132/37/6 133/28/11 131/38/6
f 134/31/3 126/32/3 118/33/3
f 134/27/11 135/22/8 133/28/11
f 136/20/8 113/21/2 135/22/8
f 119/14/1 127/15/1 135/16/1
f 154/14/1 146/15/1 138/16/1
f 137/20/8 160/21/2 138/22/8
f 139/27/11 138/22/8 140/28/11
f 139/31/3 147/32/3 155/33/3
f 141/37/6 140/28/11 142/38/6
f 143/43/16 142/38/6 144/44/16
f 145/47/18 144/44/16 146/48/18
f 147/49/4 146/48/18 148/46/4
f 149/45/15 148/46/4 150/40/15
f 151/39/13 150/40/15 152/35/13
f 153/34/5 152/35/13 154/30/5
f 155/29/9 154/30/5 156/24/9
f 157/23/7 156/24/9 158/18/7
f 159/17/2 158/18/7 160/19/2
s 0
f 177/50/1 164/4/1 163/25/1
f 164/4/2 167/10/2 163/25/2
f 204/51/3 165/36/3 191/52/3
f 166/8/4 161/42/4 165/36/4
f 191/52/20 161/11/20 183/53/20
f 204/51/21 162/54/21 166/8/21
f 169/26/1 172/4/1 171/25/1
f 172/4/2 175/10/2 171/25/2
f 176/6/3 173/36/3 175/10/3
f 174/8/4 169/42/4 173/36/4
f 175/10/22 169/11/22 171/12/22
f 172/13/23 174/8/23 176/6/23
f 168/6/24 190/55/24 198/56/24
f 190/55/25 199/57/25 198/56/25
f 189/58/26 200/59/26 199/57/26
f 200/59/27 187/60/27 201/61/27
f 201/61/28 186/62/28 202/63/28
f 202/63/29 185/64/29 203/65/29
f 203/65/30 184/66/30 204/51/30
f 167/10/31 177/67/31 163/12/31
f 197/68/32 178/69/32 177/67/32
f 196/70/33 179/71/33 178/69/33
f 179/71/34 194/72/34 180/73/34
f 180/73/35 193/74/35 181/75/35
f 181/75/36 192/76/36 182/77/36
f 182/77/37 191/52/37 183/53/37
f 168/6/3 197/68/3 167/10/3
f 197/68/3 199/57/3 196/70/3
f 196/70/3 200/59/3 195/78/3
f 200/59/3 194/72/3 195/78/3
f 201/61/3 193/74/3 194/72/3
f 202/63/3 192/76/3 193/74/3
f 203/65/3 191/52/3 192/76/3
f 161/26/1 184/79/1 183/80/1
f 183/80/1 185/81/1 182/82/1
f 182/82/1 186/83/1 181/84/1
f 181/84/1 187/85/1 180/86/1
f 180/86/1 188/87/1 179/88/1
f 188/87/1 178/89/1 179/88/1
f 189/90/1 177/50/1 178/89/1
f 242/91/38 243/6/38 241/92/38
f 208/17/39 209/13/39 207/19/39
f 252/93/40 238/94/40 251/12/40
f 232/42/41 233/95/41 231/10/41
f 210/96/42 211/92/42 209/13/42
f 244/41/43 245/97/43 243/6/43
f 230/98/44 231/10/44 229/97/44
f 212/91/38 213/6/38 211/92/38
f 246/98/44 247/10/44 245/97/44
f 228/41/43 229/97/43 227/6/43
f 214/41/43 215/97/43 213/6/43
f 227/99/5 231/100/5 235/101/5
f 226/91/38 227/6/38 225/92/38
f 216/98/44 217/10/44 215/97/44
f 236/93/40 206/94/40 235/12/40
f 224/96/42 225/92/42 223/13/42
f 218/42/41 219/95/41 217/10/41
f 248/42/41 249/95/41 247/10/41
f 205/17/39 223/13/39 206/19/39
f 220/102/45 221/12/45 219/95/45
f 234/102/45 235/12/45 233/95/45
f 222/93/40 207/94/40 221/12/40
f 250/103/6 246/104/6 242/105/6
f 240/96/42 241/92/42 239/13/42
f 237/17/39 239/13/39 238/19/39
f 250/102/45 251/12/45 249/95/45
f 274/106/43 278/107/43 276/108/43
f 281/109/39 283/110/39 284/111/39
f 280/112/42 284/111/42 282/113/42
f 280/112/5 275/114/5 260/11/5
f 275/114/38 277/115/38 278/107/38
f 268/112/42 272/111/42 270/113/42
f 269/109/39 271/110/39 272/111/39
f 262/106/43 266/107/43 264/108/43
f 263/114/38 265/115/38 266/107/38
f 268/112/5 263/114/5 253/11/5
f 270/113/3 261/116/3 268/112/3
f 264/108/4 253/42/4 262/106/4
f 256/13/6 264/108/6 265/115/6
f 256/4/2 267/117/2 255/25/2
f 282/113/3 273/116/3 280/112/3
f 276/108/4 260/42/4 274/106/4
f 257/13/6 276/108/6 277/115/6
f 257/4/2 279/117/2 258/25/2
f 287/1/4 292/25/4 288/26/4
f 289/4/6 287/10/6 285/25/6
f 285/8/3 288/42/3 286/36/3
f 289/10/2 286/11/2 290/12/2
f 291/13/1 290/8/1 292/6/1
f 295/1/4 300/25/4 296/26/4
f 297/4/6 295/10/6 293/25/6
f 297/10/2 294/11/2 298/12/2
f 299/13/1 298/8/1 300/6/1
f 300/6/5 294/36/5 296/42/5
f 1/1/1 2/4/1 97/2/1
f 2/4/2 6/6/2 63/5/2
f 6/6/3 4/8/3 64/7/3
f 4/8/4 1/41/4 100/9/4
f 5/10/5 3/36/5 99/11/5
f 2/13/6 1/54/6 4/8/6
s 1
f 8/16/1 54/118/1 52/119/1
f 52/119/1 50/120/1 48/14/1
f 48/14/1 46/121/1 44/122/1
f 44/122/1 42/123/1 40/15/1
f 40/15/1 38/124/1 36/125/1
f 36/125/1 34/126/1 8/16/1
f 8/16/1 52/119/1 48/14/1
f 48/14/1 44/122/1 40/15/1
f 40/15/1 36/125/1 8/16/1
f 10/17/2 12/23/7 11/18/7
f 7/20/8 53/127/2 54/21/2
f 12/23/7 14/29/9 13/24/9
s 0
f 58/1/10 56/4/10 60/25/10
s 1
f 33/27/11 7/20/8 8/22/8
f 14/29/9 16/34/5 15/30/5
s 0
f 61/4/12 59/6/12 55/10/12
s 1
f 49/33/3 51/128/3 53/129/3
f 53/129/3 7/130/3 33/31/3
f 33/31/3 35/103/3 37/131/3
f 37/131/3 39/132/3 41/32/3
f 41/32/3 43/133/3 45/134/3
f 45/134/3 47/105/3 49/33/3
f 49/33/3 53/129/3 33/31/3
f 33/31/3 37/131/3 41/32/3
f 41/32/3 45/134/3 49/33/3
f 16/34/5 18/39/13 17/35/13
s 0
f 60/6/14 56/8/14 55/36/14
s 1
f 35/37/6 33/27/11 34/28/11
f 18/39/13 20/45/15 19/40/15
s 0
f 61/36/3 62/8/3 60/41/3
s 1
f 37/43/16 35/37/6 36/38/6
f 20/45/15 22/49/4 21/46/4
s 0
f 58/10/17 62/36/17 61/11/17
s 1
f 39/47/18 37/43/16 38/44/16
f 22/49/4 24/47/18 23/48/18
s 0
f 56/13/1 58/54/1 57/8/1
s 1
f 41/49/4 39/47/18 40/48/18
f 24/47/18 26/43/16 25/44/16
f 43/45/15 41/49/4 42/46/4
f 45/39/13 43/45/15 44/40/15
f 26/43/16 28/37/6 27/38/6
f 47/34/5 45/39/13 46/35/13
f 49/29/9 47/34/5 48/30/5
f 28/37/6 30/27/11 29/28/11
f 14/33/3 12/128/3 10/129/3
f 10/129/3 32/130/3 30/31/3
f 30/31/3 28/103/3 26/131/3
f 26/131/3 24/132/3 22/32/3
f 22/32/3 20/133/3 18/134/3
f 18/134/3 16/105/3 14/33/3
f 14/33/3 10/129/3 30/31/3
f 30/31/3 26/131/3 22/32/3
f 22/32/3 18/134/3 14/33/3
f 51/23/7 49/29/9 50/24/9
f 30/27/11 32/20/8 31/22/8
f 53/17/2 51/23/7 52/18/7
f 32/20/8 10/127/2 9/21/2
f 31/16/1 9/118/1 11/119/1
f 11/119/1 13/120/1 15/14/1
f 15/14/1 17/121/1 19/122/1
f 19/122/1 21/123/1 23/15/1
f 23/15/1 25/124/1 27/125/1
f 27/125/1 29/126/1 31/16/1
f 31/16/1 11/119/1 15/14/1
f 15/14/1 19/122/1 23/15/1
f 23/15/1 27/125/1 31/16/1
s 0
f 64/7/4 100/9/4 99/42/4
f 63/5/3 64/7/3 3/36/3
f 97/2/2 63/5/2 5/10/2
f 107/1/4 111/4/4 112/25/4
f 69/1/6 71/4/6 67/25/6
f 85/1/6 87/4/6 83/25/6
f 67/6/4 71/8/4 72/36/4
f 65/8/3 67/41/3 68/42/3
f 69/10/2 65/36/2 66/11/2
f 71/13/1 69/54/1 70/8/1
f 77/1/6 79/4/6 75/25/6
f 74/4/5 76/6/5 80/10/5
f 75/6/4 79/8/4 80/36/4
f 73/8/3 75/41/3 76/42/3
f 77/10/2 73/36/2 74/11/2
f 79/13/1 77/54/1 78/8/1
f 83/6/4 87/8/4 88/36/4
f 81/8/3 83/41/3 84/42/3
f 85/10/2 81/36/2 82/11/2
f 87/13/1 85/54/1 86/8/1
f 92/1/14 90/4/14 94/25/14
f 95/4/17 93/6/17 89/10/17
f 94/6/12 90/8/12 89/36/12
f 95/36/3 96/8/3 94/41/3
f 92/10/10 96/36/10 95/11/10
f 90/13/1 92/54/1 91/8/1
f 99/42/4 100/9/4 101/9/4
f 98/25/2 104/25/2 102/2/2
f 109/4/6 111/6/6 107/10/6
f 105/8/3 107/41/3 108/42/3
f 99/11/5 103/11/5 104/12/5
f 103/42/1 101/3/1 102/2/1
f 97/2/19 102/2/19 101/3/19
f 109/10/2 105/36/2 106/11/2
f 111/13/1 109/54/1 110/8/1
s 1
f 114/17/2 116/23/7 115/18/7
f 116/23/7 118/29/9 117/24/9
f 118/29/9 120/34/5 119/30/5
f 120/34/5 122/39/13 121/35/13
f 122/39/13 124/45/15 123/40/15
f 124/45/15 126/49/4 125/46/4
f 126/49/4 128/47/18 127/48/18
f 128/47/18 130/43/16 129/44/16
f 130/43/16 132/37/6 131/38/6
f 132/37/6 134/27/11 133/28/11
f 118/33/3 116/128/3 114/129/3
f 114/129/3 136/130/3 134/31/3
f 134/31/3 132/103/3 130/131/3
f 130/131/3 128/132/3 126/32/3
f 126/32/3 124/133/3 122/134/3
f 122/134/3 120/105/3 118/33/3
f 118/33/3 114/129/3 134/31/3
f 134/31/3 130/131/3 126/32/3
f 126/32/3 122/134/3 118/33/3
f 134/27/11 136/20/8 135/22/8
f 136/20/8 114/127/2 113/21/2
f 135/16/1 113/118/1 115/119/1
f 115/119/1 117/120/1 119/14/1
f 119/14/1 121/121/1 123/122/1
f 123/122/1 125/123/1 127/15/1
f 127/15/1 129/124/1 131/125/1
f 131/125/1 133/126/1 135/16/1
f 135/16/1 115/119/1 119/14/1
f 119/14/1 123/122/1 127/15/1
f 127/15/1 131/125/1 135/16/1
f 138/16/1 160/118/1 158/119/1
f 158/119/1 156/120/1 154/14/1
f 154/14/1 152/121/1 150/122/1
f 150/122/1 148/123/1 146/15/1
f 146/15/1 144/124/1 142/125/1
f 142/125/1 140/126/1 138/16/1
f 138/16/1 158/119/1 154/14/1
f 154/14/1 150/122/1 146/15/1
f 146/15/1 142/125/1 138/16/1
f 137/20/8 159/127/2 160/21/2
f 139/27/11 137/20/8 138/22/8
f 155/33/3 157/128/3 159/129/3
f 159/129/3 137/130/3 139/31/3
f 139/31/3 141/103/3 143/131/3
f 143/131/3 145/132/3 147/32/3
f 147/32/3 149/133/3 151/134/3
f 151/134/3 153/105/3 155/33/3
f 155/33/3 159/129/3 139/31/3
f 139/31/3 143/131/3 147/32/3
f 147/32/3 151/134/3 155/33/3
f 141/37/6 139/27/11 140/28/11
f 143/43/16 141/37/6 142/38/6
f 145/47/18 143/43/16 144/44/16
f 147/49/4 145/47/18 146/48/18
f 149/45/15 147/49/4 148/46/4
f 151/39/13 149/45/15 150/40/15
f 153/34/5 151/39/13 152/35/13
f 155/29/9 153/34/5 154/30/5
f 157/23/7 155/29/9 156/24/9
f 159/17/2 157/23/7 158/18/7
s 0
f 177/50/1 190/135/1 164/4/1
f 164/4/2 168/6/2 167/10/2
f 204/51/3 166/8/3 165/36/3
f 166/8/4 162/41/4 161/42/4
f 191/52/20 165/36/20 161/11/20
f 204/51/21 184/66/21 162/54/21
f 169/26/1 170/1/1 172/4/1
f 172/4/2 176/6/2 175/10/2
f 176/6/3 174/8/3 173/36/3
f 174/8/4 170/41/4 169/42/4
f 175/10/22 173/36/22 169/11/22
f 172/13/23 170/54/23 174/8/23
f 168/6/24 164/13/24 190/55/24
f 190/55/25 189/58/25 199/57/25
f 189/58/26 188/136/26 200/59/26
f 200/59/27 188/136/27 187/60/27
f 201/61/28 187/60/28 186/62/28
f 202/63/29 186/62/29 185/64/29
f 203/65/30 185/64/30 184/66/30
f 167/10/31 197/68/31 177/67/31
f 197/68/32 196/70/32 178/69/32
f 196/70/33 195/78/33 179/71/33
f 179/71/34 195/78/34 194/72/34
f 180/73/35 194/72/35 193/74/35
f 181/75/36 193/74/36 192/76/36
f 182/77/37 192/76/37 191/52/37
f 168/6/3 198/56/3 197/68/3
f 197/68/3 198/56/3 199/57/3
f 196/70/3 199/57/3 200/59/3
f 200/59/3 201/61/3 194/72/3
f 201/61/3 202/63/3 193/74/3
f 202/63/3 203/65/3 192/76/3
f 203/65/3 204/51/3 191/52/3
f 161/26/1 162/1/1 184/79/1
f 183/80/1 184/79/1 185/81/1
f 182/82/1 185/81/1 186/83/1
f 181/84/1 186/83/1 187/85/1
f 180/86/1 187/85/1 188/87/1
f 188/87/1 189/90/1 178/89/1
f 189/90/1 190/135/1 177/50/1
f 242/91/38 244/41/38 243/6/38
f 208/17/39 210/96/39 209/13/39
f 252/93/40 237/137/40 238/94/40
f 232/42/41 234/102/41 233/95/41
f 210/96/42 212/91/42 211/92/42
f 244/41/43 246/98/43 245/97/43
f 230/98/44 232/42/44 231/10/44
f 212/91/38 214/41/38 213/6/38
f 246/98/44 248/42/44 247/10/44
f 228/41/43 230/98/43 229/97/43
f 214/41/43 216/98/43 215/97/43
f 235/101/5 206/118/5 223/138/5
f 223/138/5 225/14/5 227/99/5
f 227/99/5 229/139/5 231/100/5
f 231/100/5 233/125/5 235/101/5
f 235/101/5 223/138/5 227/99/5
f 226/91/38 228/41/38 227/6/38
f 216/98/44 218/42/44 217/10/44
f 236/93/40 205/137/40 206/94/40
f 224/96/42 226/91/42 225/92/42
f 218/42/41 220/102/41 219/95/41
f 248/42/41 250/102/41 249/95/41
f 205/17/39 224/96/39 223/13/39
f 220/102/45 222/93/45 221/12/45
f 234/102/45 236/93/45 235/12/45
f 222/93/40 208/137/40 207/94/40
f 242/105/6 240/140/6 237/129/6
f 237/129/6 252/141/6 250/103/6
f 250/103/6 248/142/6 246/104/6
f 246/104/6 244/143/6 242/105/6
f 242/105/6 237/129/6 250/103/6
f 240/96/42 242/91/42 241/92/42
f 237/17/39 240/96/39 239/13/39
f 250/102/45 252/93/45 251/12/45
f 274/106/43 275/114/43 278/107/43
f 281/109/39 279/117/39 283/110/39
f 280/112/42 281/109/42 284/111/42
f 260/11/5 258/12/5 279/117/5
f 279/117/5 281/109/5 280/112/5
f 280/112/5 273/116/5 275/114/5
f 275/114/5 274/106/5 260/11/5
f 260/11/5 279/117/5 280/112/5
f 275/114/38 273/116/38 277/115/38
f 268/112/42 269/109/42 272/111/42
f 269/109/39 267/117/39 271/110/39
f 262/106/43 263/114/43 266/107/43
f 263/114/38 261/116/38 265/115/38
f 253/11/5 255/12/5 267/117/5
f 267/117/5 269/109/5 268/112/5
f 268/112/5 261/116/5 263/114/5
f 263/114/5 262/106/5 253/11/5
f 253/11/5 267/117/5 268/112/5
f 270/113/3 265/115/3 261/116/3
f 264/108/4 254/41/4 253/42/4
f 265/115/6 270/113/6 272/111/6
f 272/111/6 271/110/6 256/13/6
f 256/13/6 254/54/6 264/108/6
f 264/108/6 266/107/6 265/115/6
f 265/115/6 272/111/6 256/13/6
f 256/4/2 271/110/2 267/117/2
f 282/113/3 277/115/3 273/116/3
f 276/108/4 259/41/4 260/42/4
f 277/115/6 282/113/6 284/111/6
f 284/111/6 283/110/6 257/13/6
f 257/13/6 259/54/6 276/108/6
f 276/108/6 278/107/6 277/115/6
f 277/115/6 284/111/6 257/13/6
f 257/4/2 283/110/2 279/117/2
f 287/1/4 291/4/4 292/25/4
f 289/4/6 291/6/6 287/10/6
f 285/8/3 287/41/3 288/42/3
f 289/10/2 285/36/2 286/11/2
f 291/13/1 289/54/1 290/8/1
f 295/1/4 299/4/4 300/25/4
f 297/4/6 299/6/6 295/10/6
f 297/10/2 293/36/2 294/11/2
f 299/13/1 297/54/1 298/8/1
f 300/6/5 298/12/5 294/36/5
