# Blender 4.4.1
# www.blender.org
mtllib ShotGunAmmo.mtl
g ShotGunAmmo_ShotGunAmmo
v 0.000000 -0.009937 0.050000
v 0.000000 -0.009937 0.000000
v 0.004968 -0.008605 0.050000
v 0.004968 -0.008605 0.000000
v 0.008605 -0.004968 0.050000
v 0.008605 -0.004968 0.000000
v 0.009937 0.000000 0.050000
v 0.009937 0.000000 0.000000
v 0.008605 0.004968 0.050000
v 0.008605 0.004968 0.000000
v 0.004968 0.008605 0.050000
v 0.004968 0.008605 0.000000
v 0.000000 0.009937 0.050000
v -0.000000 0.009937 0.000000
v -0.004968 0.008605 0.050000
v -0.004968 0.008605 0.000000
v -0.008605 0.004968 0.050000
v -0.008605 0.004968 0.000000
v -0.009937 0.000000 0.050000
v -0.009937 0.000000 0.000000
v -0.008605 -0.004968 0.050000
v -0.008605 -0.004968 0.000000
v -0.004968 -0.008605 0.050000
v -0.004968 -0.008605 0.000000
v 0.000000 -0.010144 0.000000
v 0.000000 -0.010144 -0.010000
v 0.005072 -0.008785 0.000000
v 0.005072 -0.008785 -0.010000
v 0.008785 -0.005072 0.000000
v 0.008785 -0.005072 -0.010000
v 0.010144 0.000000 0.000000
v 0.010144 0.000000 -0.010000
v 0.008785 0.005072 0.000000
v 0.008785 0.005072 -0.010000
v 0.005072 0.008785 0.000000
v 0.005072 0.008785 -0.010000
v 0.000000 0.010144 0.000000
v -0.000000 0.010144 -0.010000
v -0.005072 0.008785 0.000000
v -0.005072 0.008785 -0.010000
v -0.008785 0.005072 0.000000
v -0.008785 0.005072 -0.010000
v -0.010144 0.000000 0.000000
v -0.010144 0.000000 -0.010000
v -0.008785 -0.005072 0.000000
v -0.008785 -0.005072 -0.010000
v -0.005072 -0.008785 0.000000
v -0.005072 -0.008785 -0.010000
v 0.000000 -0.010930 -0.010000
v 0.000000 -0.010930 -0.011000
v 0.005465 -0.009466 -0.010000
v 0.005465 -0.009466 -0.011000
v 0.009466 -0.005465 -0.010000
v 0.009466 -0.005465 -0.011000
v 0.010930 0.000000 -0.010000
v 0.010930 0.000000 -0.011000
v 0.009466 0.005465 -0.010000
v 0.009466 0.005465 -0.011000
v 0.005465 0.009466 -0.010000
v 0.005465 0.009466 -0.011000
v 0.000000 0.010930 -0.010000
v -0.000000 0.010930 -0.011000
v -0.005465 0.009466 -0.010000
v -0.005465 0.009466 -0.011000
v -0.009466 0.005465 -0.010000
v -0.009466 0.005465 -0.011000
v -0.010930 0.000000 -0.010000
v -0.010930 0.000000 -0.011000
v -0.009466 -0.005465 -0.010000
v -0.009466 -0.005465 -0.011000
v -0.005465 -0.009466 -0.010000
v -0.005465 -0.009466 -0.011000
vn -0.0000 -1.0000 -0.0000
vn 0.5000 -0.8660 -0.0000
vn 0.8660 -0.5000 -0.0000
vn 1.0000 -0.0000 -0.0000
vn 0.8660 0.5000 -0.0000
vn 0.5000 0.8660 -0.0000
vn -0.0000 1.0000 -0.0000
vn -0.5000 0.8660 -0.0000
vn -0.8660 0.5000 -0.0000
vn -1.0000 -0.0000 -0.0000
vn -0.8660 -0.5000 -0.0000
vn -0.5000 -0.8660 -0.0000
vn -0.0000 -0.0000 1.0000
vn -0.0000 -0.0000 -1.0000
vt 1.000000 0.500000
vt 1.000000 1.000000
vt 0.916667 1.000000
vt 0.916667 0.500000
vt 0.833333 1.000000
vt 0.833333 0.500000
vt 0.750000 1.000000
vt 0.750000 0.500000
vt 0.666667 1.000000
vt 0.666667 0.500000
vt 0.583333 1.000000
vt 0.583333 0.500000
vt 0.500000 1.000000
vt 0.500000 0.500000
vt 0.416667 1.000000
vt 0.416667 0.500000
vt 0.333333 1.000000
vt 0.333333 0.500000
vt 0.250000 1.000000
vt 0.250000 0.500000
vt 0.166667 1.000000
vt 0.166667 0.500000
vt 0.083333 1.000000
vt 0.083333 0.500000
vt 0.000000 1.000000
vt 0.000000 0.500000
vt 0.750000 0.490000
vt 0.870000 0.457846
vt 0.957846 0.370000
vt 0.990000 0.250000
vt 0.957846 0.130000
vt 0.870000 0.042154
vt 0.750000 0.010000
vt 0.630000 0.042154
vt 0.542154 0.130000
vt 0.510000 0.250000
vt 0.542154 0.370000
vt 0.630000 0.457846
vt 0.370000 0.457846
vt 0.250000 0.490000
vt 0.130000 0.457846
vt 0.042154 0.370000
vt 0.010000 0.250000
vt 0.042154 0.130000
vt 0.130000 0.042154
vt 0.250000 0.010000
vt 0.370000 0.042154
vt 0.457846 0.130000
vt 0.490000 0.250000
vt 0.457846 0.370000
s 1
f 1/1/1 2/2/1 4/3/2 3/4/2
f 3/4/2 4/3/2 6/5/3 5/6/3
f 5/6/3 6/5/3 8/7/4 7/8/4
f 7/8/4 8/7/4 10/9/5 9/10/5
f 9/10/5 10/9/5 12/11/6 11/12/6
f 11/12/6 12/11/6 14/13/7 13/14/7
f 13/14/7 14/13/7 16/15/8 15/16/8
f 15/16/8 16/15/8 18/17/9 17/18/9
f 17/18/9 18/17/9 20/19/10 19/20/10
f 19/20/10 20/19/10 22/21/11 21/22/11
f 21/22/11 22/21/11 24/23/12 23/24/12
f 23/24/12 24/23/12 2/25/1 1/26/1
f 1/27/13 3/28/13 5/29/13 7/30/13 9/31/13 11/32/13 13/33/13 15/34/13 17/35/13 19/36/13 21/37/13 23/38/13
f 25/1/1 26/2/1 28/3/2 27/4/2
f 27/4/2 28/3/2 30/5/3 29/6/3
f 29/6/3 30/5/3 32/7/4 31/8/4
f 31/8/4 32/7/4 34/9/5 33/10/5
f 33/10/5 34/9/5 36/11/6 35/12/6
f 35/12/6 36/11/6 38/13/7 37/14/7
f 37/14/7 38/13/7 40/15/8 39/16/8
f 39/16/8 40/15/8 42/17/9 41/18/9
f 41/18/9 42/17/9 44/19/10 43/20/10
f 43/20/10 44/19/10 46/21/11 45/22/11
f 45/22/11 46/21/11 48/23/12 47/24/12
f 47/24/12 48/23/12 26/25/1 25/26/1
f 25/27/13 27/28/13 29/29/13 31/30/13 33/31/13 35/32/13 37/33/13 39/34/13 41/35/13 43/36/13 45/37/13 47/38/13
f 49/1/1 50/2/1 52/3/2 51/4/2
f 51/4/2 52/3/2 54/5/3 53/6/3
f 53/6/3 54/5/3 56/7/4 55/8/4
f 55/8/4 56/7/4 58/9/5 57/10/5
f 57/10/5 58/9/5 60/11/6 59/12/6
f 59/12/6 60/11/6 62/13/7 61/14/7
f 61/14/7 62/13/7 64/15/8 63/16/8
f 63/16/8 64/15/8 66/17/9 65/18/9
f 65/18/9 66/17/9 68/19/10 67/20/10
f 67/20/10 68/19/10 70/21/11 69/22/11
f 52/39/14 50/40/14 72/41/14 70/42/14 68/43/14 66/44/14 64/45/14 62/46/14 60/47/14 58/48/14 56/49/14 54/50/14
f 69/22/11 70/21/11 72/23/12 71/24/12
f 71/24/12 72/23/12 50/25/1 49/26/1
f 49/27/13 51/28/13 53/29/13 55/30/13 57/31/13 59/32/13 61/33/13 63/34/13 65/35/13 67/36/13 69/37/13 71/38/13
