# Blender 4.4.0
# www.blender.org
mtllib Shotgun_base.mtl
g Shotgun_base_Mesh
v 0.000000 -0.019704 -0.506000
v 0.000000 -0.158000 -0.506000
v 0.000000 -0.001493 -0.258423
v 0.000000 -0.073361 -0.281750
v 0.011525 -0.009726 -0.108329
v 0.000000 -0.009726 -0.108329
v 0.011525 0.022519 -0.154454
v 0.011525 -0.009726 -0.090317
v 0.000000 -0.009726 -0.090317
v 0.000000 0.031686 -0.119533
v 0.011525 0.031686 -0.119533
v 0.000000 0.038658 -0.113773
v 0.011525 0.038658 -0.113773
v 0.009210 -0.008764 0.004782
v 0.011525 0.017619 -0.022398
v 0.000000 0.041602 -0.101687
v 0.011525 0.041602 -0.101687
v 0.017287 0.017619 -0.079749
v 0.011525 -0.009726 -0.031169
v 0.000000 -0.009726 -0.031169
v 0.017287 0.017619 -0.024017
v 0.000000 0.017619 -0.022398
v 0.000000 -0.009726 0.004003
v 0.000000 0.043975 -0.082638
v 0.011525 0.043975 -0.082638
v 0.012677 0.015341 -0.078772
v 0.020535 0.017447 -0.078772
v 0.026287 0.023199 -0.078772
v 0.028393 0.031057 -0.078772
v 0.026287 0.038915 -0.078772
v 0.020535 0.044667 -0.078772
v 0.012677 0.046773 -0.078772
v 0.004819 0.044667 -0.078772
v -0.000933 0.038915 -0.078772
v -0.003039 0.031057 -0.078772
v -0.000933 0.023199 -0.078772
v 0.004819 0.017447 -0.078772
v 0.005180 0.018072 -0.081077
v 0.000000 0.023560 -0.081077
v -0.002317 0.031057 -0.081077
v 0.000000 0.038554 -0.081077
v 0.005180 0.044042 -0.081077
v 0.012677 0.046051 -0.081077
v 0.020174 0.044042 -0.081077
v 0.025662 0.038554 -0.081077
v 0.027671 0.031057 -0.081077
v 0.025662 0.023560 -0.081077
v 0.020174 0.018072 -0.081077
v 0.012677 0.016063 -0.081077
v 0.005775 0.019101 -0.083382
v 0.000722 0.024154 -0.083382
v -0.001128 0.031057 -0.083382
v 0.000722 0.037959 -0.083382
v 0.005775 0.043012 -0.083382
v 0.012677 0.044862 -0.083382
v 0.019580 0.043012 -0.083382
v 0.024632 0.037959 -0.083382
v 0.026482 0.031057 -0.083382
v 0.024632 0.024154 -0.083382
v 0.019580 0.019101 -0.083382
v 0.012677 0.017252 -0.083382
v 0.006953 0.021143 -0.085687
v 0.002763 0.025333 -0.085687
v 0.001230 0.031057 -0.085687
v 0.002763 0.036781 -0.085687
v 0.006953 0.040970 -0.085687
v 0.012677 0.042504 -0.085687
v 0.018401 0.040970 -0.085687
v 0.022591 0.036781 -0.085687
v 0.024124 0.031057 -0.085687
v 0.022591 0.025333 -0.085687
v 0.018401 0.021143 -0.085687
v 0.012677 0.019609 -0.085687
v 0.008525 0.023865 -0.087992
v 0.005486 0.026905 -0.087992
v 0.004373 0.031057 -0.087992
v 0.005486 0.035209 -0.087992
v 0.008525 0.038248 -0.087992
v 0.012677 0.039361 -0.087992
v 0.016829 0.038248 -0.087992
v 0.019869 0.035209 -0.087992
v 0.020981 0.031057 -0.087992
v 0.019869 0.026905 -0.087992
v 0.016829 0.023865 -0.087992
v 0.012677 0.022753 -0.087992
v 0.012677 0.031057 -0.089675
v 0.012677 0.031057 -0.089675
v 0.012677 0.031057 -0.089675
v 0.012677 0.031057 -0.089675
v 0.012677 0.031057 -0.089675
v 0.012677 0.031057 -0.089675
v 0.012677 0.031057 -0.089675
v 0.012677 0.031057 -0.089675
v 0.012677 0.031057 -0.089675
v 0.012677 0.031057 -0.089675
v 0.012677 0.031057 -0.089675
v 0.012677 0.031057 -0.089675
v 0.011525 -0.006443 0.005857
v 0.011525 0.011439 0.007653
v 0.011525 0.003369 0.009810
v 0.011525 0.017619 -0.001611
v 0.000000 -0.045576 -0.139798
v 0.000000 -0.027911 -0.142235
v 0.000000 -0.033089 -0.142945
v 0.000000 -0.039078 -0.142539
v 0.000000 -0.022936 -0.139088
v 0.000000 -0.011061 -0.122762
v 0.002305 -0.045576 -0.139798
v 0.002305 -0.027911 -0.142235
v 0.002305 -0.033089 -0.142945
v 0.002305 -0.039078 -0.142539
v 0.002305 -0.022936 -0.139088
v 0.002305 -0.011061 -0.122762
v 0.000000 -0.022006 -0.145233
v 0.000000 -0.016426 -0.153767
v 0.000000 -0.025640 -0.144209
v 0.000000 -0.033004 -0.145400
v 0.000000 -0.039646 -0.144929
v 0.000000 -0.045822 -0.140243
v 0.002305 -0.022006 -0.145233
v 0.002305 -0.016426 -0.153767
v 0.002305 -0.025640 -0.144209
v 0.002305 -0.033004 -0.145400
v 0.002305 -0.039646 -0.144929
v 0.002305 -0.045822 -0.140243
v 0.000000 -0.012387 -0.124861
v 0.004264 -0.019096 -0.108211
v 0.000000 -0.014747 -0.114263
v 0.000000 -0.019096 -0.108211
v 0.000000 -0.025035 -0.104954
v 0.000000 -0.032338 -0.104932
v 0.000000 -0.038613 -0.109232
v 0.000000 -0.042755 -0.117394
v 0.000000 -0.047628 -0.136764
v 0.000000 -0.049577 -0.157596
v 0.000000 -0.046454 -0.167363
v 0.000000 -0.037530 -0.174255
v 0.000000 -0.035154 -0.175894
v 0.004264 -0.014747 -0.114263
v 0.004264 -0.012387 -0.124861
v 0.000000 -0.030451 -0.180621
v 0.000000 -0.026106 -0.188060
v 0.004264 -0.025035 -0.104954
v 0.004264 -0.032338 -0.104932
v 0.004264 -0.038613 -0.109232
v 0.004264 -0.042755 -0.117394
v 0.004264 -0.047628 -0.136764
v 0.004264 -0.049577 -0.157596
v 0.004264 -0.046454 -0.167363
v 0.004264 -0.037530 -0.174255
v 0.004264 -0.035154 -0.175894
v 0.004264 -0.030451 -0.180621
v 0.004264 -0.026106 -0.188060
v 0.004264 -0.017545 -0.106460
v 0.004264 -0.024451 -0.102689
v 0.000000 -0.010104 -0.124352
v 0.000000 -0.012613 -0.113307
v 0.000000 -0.017545 -0.106460
v 0.000000 -0.024451 -0.102689
v 0.000000 -0.033027 -0.102696
v 0.000000 -0.040372 -0.107690
v 0.000000 -0.044946 -0.116575
v 0.000000 -0.049933 -0.136369
v 0.000000 -0.051913 -0.157726
v 0.000000 -0.048508 -0.168482
v 0.000000 -0.040161 -0.175455
v 0.000000 -0.035948 -0.178111
v 0.004264 -0.012613 -0.113307
v 0.004264 -0.010104 -0.124352
v 0.000000 -0.032375 -0.181951
v 0.000000 -0.028225 -0.189052
v 0.004264 -0.033027 -0.102696
v 0.004264 -0.040372 -0.107690
v 0.004264 -0.044946 -0.116575
v 0.004264 -0.049933 -0.136369
v 0.004264 -0.051913 -0.157726
v 0.004264 -0.048508 -0.168482
v 0.004264 -0.040161 -0.175455
v 0.004264 -0.035948 -0.178111
v 0.004264 -0.032375 -0.181951
v 0.004264 -0.028225 -0.189052
v 0.000000 -0.030509 -0.173035
v 0.000000 -0.029896 -0.174820
v 0.004264 -0.030509 -0.173035
v 0.004264 -0.029896 -0.174820
v 0.000000 -0.025781 -0.170531
v 0.000000 -0.025168 -0.172316
v 0.004264 -0.025781 -0.170531
v 0.004264 -0.025168 -0.172316
v 0.000000 -0.020204 -0.166000
v 0.000000 -0.019590 -0.167785
v 0.004264 -0.020204 -0.166000
v 0.004264 -0.019590 -0.167785
v 0.000000 -0.028575 -0.266527
v 0.000000 -0.053192 -0.231851
v 0.000000 -0.029898 -0.190851
v 0.000000 -0.004115 -0.229404
v 0.000000 0.007229 -0.198207
v 0.000000 -0.018596 -0.159762
v 0.000000 0.022519 -0.154454
v 0.011525 -0.040881 -0.249185
v 0.000000 -0.073624 -0.286858
v 0.011525 -0.017004 -0.210122
v 0.011525 -0.007362 -0.193914
v 0.003013 -0.028891 -0.266289
v 0.011525 -0.034364 -0.258481
v 0.009032 -0.030494 -0.264002
v 0.003013 -0.065369 -0.296048
v 0.003013 -0.054358 -0.296089
v 0.011525 -0.060292 -0.288863
v 0.003013 -0.059780 -0.298905
v 0.007927 -0.059963 -0.296921
v 0.009032 -0.056190 -0.293824
v 0.009032 -0.063976 -0.293796
v 0.011525 -0.047163 -0.240221
v 0.003013 -0.052870 -0.232080
v 0.009032 -0.051198 -0.234465
v 0.003013 -0.081272 -0.277159
v 0.011525 -0.074809 -0.271621
v 0.003013 -0.081137 -0.264254
v 0.009032 -0.079389 -0.275525
v 0.007928 -0.081956 -0.270877
v 0.009013 -0.079455 -0.266586
v 0.003013 -0.083503 -0.270682
v 0.000000 -0.054114 -0.296400
v 0.000000 -0.065615 -0.296358
v 0.000000 -0.059877 -0.299152
v 0.000000 -0.081617 -0.277354
v 0.000000 -0.081477 -0.264051
v 0.000000 -0.083899 -0.270678
v 0.011525 -0.023930 -0.199565
v 0.003013 -0.029539 -0.191017
v 0.009032 -0.027896 -0.193521
v 0.003013 -0.004469 -0.229227
v 0.011525 -0.009810 -0.221086
v 0.009032 -0.006033 -0.226842
v 0.003013 0.006857 -0.198072
v 0.011525 -0.000718 -0.195857
v 0.009032 0.004638 -0.197423
v 0.011525 -0.014071 -0.172860
v 0.003013 -0.018213 -0.159862
v 0.009032 -0.017000 -0.163670
v 0.003013 -0.009726 -0.108329
v 0.011525 -0.008810 -0.141467
v 0.009032 -0.009458 -0.118035
v 0.011525 0.006551 -0.175541
v 0.003013 0.022519 -0.154454
v 0.009032 0.017842 -0.160630
v 0.011525 -0.067677 -0.280093
v 0.003013 -0.073321 -0.286603
v 0.009032 -0.071668 -0.284696
v 0.000000 -0.004151 -0.211343
v 0.015843 0.021955 -0.155199
v 0.017287 0.021651 -0.152434
v 0.017287 -0.003318 -0.090289
v 0.016001 -0.006091 -0.094336
v 0.017287 -0.001135 -0.178663
v 0.015983 -0.003704 -0.185767
v 0.015667 0.031686 -0.119533
v 0.017287 0.030503 -0.118592
v 0.015667 0.038658 -0.113773
v 0.017287 0.037237 -0.113011
v 0.015667 0.041602 -0.101687
v 0.017287 0.040078 -0.101316
v 0.015999 -0.006093 -0.031169
v 0.017287 -0.003314 -0.031169
v 0.011525 -0.005344 -0.023866
v 0.011525 -0.002376 -0.022398
v 0.015998 -0.001712 -0.023866
v 0.017287 0.000983 -0.024017
v 0.015667 0.000987 -0.022398
v 0.015667 0.017619 -0.022398
v 0.017287 0.042443 -0.082303
v 0.015667 0.043975 -0.082638
v 0.000000 -0.008764 0.004782
v 0.000000 -0.006443 0.005857
v 0.000000 0.011439 0.007653
v 0.000000 0.003369 0.009810
v 0.000000 0.017619 -0.001611
v 0.003459 -0.019704 -0.506000
v 0.007745 -0.023909 -0.506000
v 0.006490 -0.020936 -0.506000
v 0.007745 -0.153419 -0.506000
v 0.003459 -0.158000 -0.506000
v 0.006490 -0.156658 -0.506000
v 0.003459 -0.001493 -0.258423
v 0.007745 -0.005798 -0.259820
v 0.006490 -0.002754 -0.258832
v 0.003459 -0.073361 -0.281750
v 0.007745 -0.065925 -0.274185
v 0.006490 -0.071183 -0.279534
v 0.007745 -0.008294 -0.215557
v 0.003459 -0.004151 -0.211343
v 0.006490 -0.005365 -0.212578
v 0.000000 0.037972 -0.108458
v 0.004680 0.037972 -0.108458
v 0.004680 0.030428 -0.108458
v 0.000000 0.036457 -0.119469
v 0.004680 0.036457 -0.119469
v 0.004680 0.028913 -0.119469
v 0.000000 0.034100 -0.140380
v 0.002064 0.034100 -0.140380
v 0.002064 0.023770 -0.139522
v 0.000000 0.035092 -0.146381
v 0.002064 0.035092 -0.146381
v 0.002064 0.020047 -0.152229
v 0.000000 0.034592 -0.149524
v 0.002064 0.034592 -0.149524
v 0.000000 0.032314 -0.151953
v 0.002064 0.032314 -0.151953
v 0.000000 0.020047 -0.152229
v 0.000000 0.028885 -0.153668
v 0.002064 0.028885 -0.153668
v 0.010286 -0.000003 -0.003303
v 0.012744 -0.000003 -0.003303
v 0.010286 -0.002338 -0.002335
v 0.012744 -0.002338 -0.002335
v 0.010286 -0.003306 0.000000
v 0.012744 -0.003306 0.000000
v 0.010286 -0.002338 0.002336
v 0.012744 -0.002338 0.002336
v 0.010286 -0.000003 0.003304
v 0.012744 -0.000003 0.003304
v 0.010286 0.002333 0.002336
v 0.012744 0.002333 0.002336
v 0.010286 0.003301 0.000000
v 0.012744 0.003301 0.000000
v 0.010286 0.002333 -0.002335
v 0.012744 0.002333 -0.002335
v 0.000000 0.017619 -0.079749
v 0.000000 0.034618 -0.082638
v -0.011525 -0.009726 -0.108329
v -0.011525 0.022519 -0.154454
v -0.011525 -0.009726 -0.090317
v -0.011525 0.031686 -0.119533
v -0.011525 0.038658 -0.113773
v -0.009210 -0.008764 0.004782
v -0.011525 0.017619 -0.022398
v -0.011525 0.041602 -0.101687
v -0.017287 0.017619 -0.079749
v -0.011525 -0.009726 -0.031169
v -0.017287 0.017619 -0.024017
v -0.011525 0.043975 -0.082638
v -0.012677 0.015341 -0.078772
v -0.020535 0.017447 -0.078772
v -0.026287 0.023199 -0.078772
v -0.028393 0.031057 -0.078772
v -0.026287 0.038915 -0.078772
v -0.020535 0.044667 -0.078772
v -0.012677 0.046773 -0.078772
v -0.004819 0.044667 -0.078772
v 0.000933 0.038915 -0.078772
v 0.003039 0.031057 -0.078772
v 0.000933 0.023199 -0.078772
v -0.004819 0.017447 -0.078772
v -0.005180 0.018072 -0.081077
v 0.002317 0.031057 -0.081077
v -0.005180 0.044042 -0.081077
v -0.012677 0.046051 -0.081077
v -0.020174 0.044042 -0.081077
v -0.025662 0.038554 -0.081077
v -0.027671 0.031057 -0.081077
v -0.025662 0.023560 -0.081077
v -0.020174 0.018072 -0.081077
v -0.012677 0.016063 -0.081077
v -0.005775 0.019101 -0.083382
v -0.000722 0.024154 -0.083382
v 0.001128 0.031057 -0.083382
v -0.000722 0.037959 -0.083382
v -0.005775 0.043012 -0.083382
v -0.012677 0.044862 -0.083382
v -0.019580 0.043012 -0.083382
v -0.024632 0.037959 -0.083382
v -0.026482 0.031057 -0.083382
v -0.024632 0.024154 -0.083382
v -0.019580 0.019101 -0.083382
v -0.012677 0.017252 -0.083382
v -0.006953 0.021143 -0.085687
v -0.002763 0.025333 -0.085687
v -0.001230 0.031057 -0.085687
v -0.002763 0.036781 -0.085687
v -0.006953 0.040970 -0.085687
v -0.012677 0.042504 -0.085687
v -0.018401 0.040970 -0.085687
v -0.022591 0.036781 -0.085687
v -0.024124 0.031057 -0.085687
v -0.022591 0.025333 -0.085687
v -0.018401 0.021143 -0.085687
v -0.012677 0.019609 -0.085687
v -0.008525 0.023865 -0.087992
v -0.005486 0.026905 -0.087992
v -0.004373 0.031057 -0.087992
v -0.005486 0.035209 -0.087992
v -0.008525 0.038248 -0.087992
v -0.012677 0.039361 -0.087992
v -0.016829 0.038248 -0.087992
v -0.019869 0.035209 -0.087992
v -0.020981 0.031057 -0.087992
v -0.019869 0.026905 -0.087992
v -0.016829 0.023865 -0.087992
v -0.012677 0.022753 -0.087992
v -0.012677 0.031057 -0.089675
v -0.012677 0.031057 -0.089675
v -0.012677 0.031057 -0.089675
v -0.012677 0.031057 -0.089675
v -0.012677 0.031057 -0.089675
v -0.012677 0.031057 -0.089675
v -0.012677 0.031057 -0.089675
v -0.012677 0.031057 -0.089675
v -0.012677 0.031057 -0.089675
v -0.012677 0.031057 -0.089675
v -0.012677 0.031057 -0.089675
v -0.012677 0.031057 -0.089675
v -0.011525 -0.006443 0.005857
v -0.011525 0.011439 0.007653
v -0.011525 0.003369 0.009810
v -0.011525 0.017619 -0.001611
v -0.002305 -0.045576 -0.139798
v -0.002305 -0.027911 -0.142235
v -0.002305 -0.033089 -0.142945
v -0.002305 -0.039078 -0.142539
v -0.002305 -0.022936 -0.139088
v -0.002305 -0.011061 -0.122762
v -0.002305 -0.022006 -0.145233
v -0.002305 -0.016426 -0.153767
v -0.002305 -0.025640 -0.144209
v -0.002305 -0.033004 -0.145400
v -0.002305 -0.039646 -0.144929
v -0.002305 -0.045822 -0.140243
v -0.004264 -0.019096 -0.108211
v -0.004264 -0.014747 -0.114263
v -0.004264 -0.012387 -0.124861
v -0.004264 -0.025035 -0.104954
v -0.004264 -0.032338 -0.104932
v -0.004264 -0.038613 -0.109232
v -0.004264 -0.042755 -0.117394
v -0.004264 -0.047628 -0.136764
v -0.004264 -0.049577 -0.157596
v -0.004264 -0.046454 -0.167363
v -0.004264 -0.037530 -0.174255
v -0.004264 -0.035154 -0.175894
v -0.004264 -0.030451 -0.180621
v -0.004264 -0.026106 -0.188060
v -0.004264 -0.017545 -0.106460
v -0.004264 -0.024451 -0.102689
v -0.004264 -0.012613 -0.113307
v -0.004264 -0.010104 -0.124352
v -0.004264 -0.033027 -0.102696
v -0.004264 -0.040372 -0.107690
v -0.004264 -0.044946 -0.116575
v -0.004264 -0.049933 -0.136369
v -0.004264 -0.051913 -0.157726
v -0.004264 -0.048508 -0.168482
v -0.004264 -0.040161 -0.175455
v -0.004264 -0.035948 -0.178111
v -0.004264 -0.032375 -0.181951
v -0.004264 -0.028225 -0.189052
v -0.004264 -0.030509 -0.173035
v -0.004264 -0.029896 -0.174820
v -0.004264 -0.025781 -0.170531
v -0.004264 -0.025168 -0.172316
v -0.004264 -0.020204 -0.166000
v -0.004264 -0.019590 -0.167785
v -0.011525 -0.040881 -0.249185
v -0.011525 -0.017004 -0.210122
v -0.011525 -0.007362 -0.193914
v -0.003013 -0.028891 -0.266289
v -0.011525 -0.034364 -0.258481
v -0.009032 -0.030494 -0.264002
v -0.003013 -0.065369 -0.296048
v -0.003013 -0.054358 -0.296089
v -0.011525 -0.060292 -0.288863
v -0.003013 -0.059780 -0.298905
v -0.007927 -0.059963 -0.296921
v -0.009032 -0.056190 -0.293824
v -0.009032 -0.063976 -0.293796
v -0.011525 -0.047163 -0.240221
v -0.003013 -0.052870 -0.232080
v -0.009032 -0.051198 -0.234465
v -0.003013 -0.081272 -0.277159
v -0.011525 -0.074809 -0.271621
v -0.003013 -0.081137 -0.264254
v -0.009032 -0.079389 -0.275525
v -0.007928 -0.081956 -0.270877
v -0.009013 -0.079455 -0.266586
v -0.003013 -0.083503 -0.270682
v -0.011525 -0.023930 -0.199565
v -0.003013 -0.029539 -0.191017
v -0.009032 -0.027896 -0.193521
v -0.003013 -0.004469 -0.229227
v -0.011525 -0.009810 -0.221086
v -0.009032 -0.006033 -0.226842
v -0.003013 0.006857 -0.198072
v -0.011525 -0.000718 -0.195857
v -0.009032 0.004638 -0.197423
v -0.011525 -0.014071 -0.172860
v -0.003013 -0.018213 -0.159862
v -0.009032 -0.017000 -0.163670
v -0.003013 -0.009726 -0.108329
v -0.011525 -0.008810 -0.141467
v -0.009032 -0.009458 -0.118035
v -0.011525 0.006551 -0.175541
v -0.003013 0.022519 -0.154454
v -0.009032 0.017842 -0.160630
v -0.011525 -0.067677 -0.280093
v -0.003013 -0.073321 -0.286603
v -0.009032 -0.071668 -0.284696
v -0.015843 0.021955 -0.155199
v -0.017287 0.021651 -0.152434
v -0.017287 -0.003318 -0.090289
v -0.016001 -0.006091 -0.094336
v -0.017287 -0.001135 -0.178663
v -0.015983 -0.003704 -0.185767
v -0.015667 0.031686 -0.119533
v -0.017287 0.030503 -0.118592
v -0.015667 0.038658 -0.113773
v -0.017287 0.037237 -0.113011
v -0.015667 0.041602 -0.101687
v -0.017287 0.040078 -0.101316
v -0.015999 -0.006093 -0.031169
v -0.017287 -0.003314 -0.031169
v -0.011525 -0.005344 -0.023866
v -0.011525 -0.002376 -0.022398
v -0.015998 -0.001712 -0.023866
v -0.017287 0.000983 -0.024017
v -0.015667 0.000987 -0.022398
v -0.015667 0.017619 -0.022398
v -0.017287 0.042443 -0.082303
v -0.015667 0.043975 -0.082638
v -0.003459 -0.019704 -0.506000
v -0.007745 -0.023909 -0.506000
v -0.006490 -0.020936 -0.506000
v -0.007745 -0.153419 -0.506000
v -0.003459 -0.158000 -0.506000
v -0.006490 -0.156658 -0.506000
v -0.003459 -0.001493 -0.258423
v -0.007745 -0.005798 -0.259820
v -0.006490 -0.002754 -0.258832
v -0.003459 -0.073361 -0.281750
v -0.007745 -0.065925 -0.274185
v -0.006490 -0.071183 -0.279534
v -0.007745 -0.008294 -0.215557
v -0.003459 -0.004151 -0.211343
v -0.006490 -0.005365 -0.212578
v -0.004680 0.037972 -0.108458
v -0.004680 0.030428 -0.108458
v -0.004680 0.036457 -0.119469
v -0.004680 0.028913 -0.119469
v -0.002064 0.034100 -0.140380
v -0.002064 0.023770 -0.139522
v -0.002064 0.035092 -0.146381
v -0.002064 0.020047 -0.152229
v -0.002064 0.034592 -0.149524
v -0.002064 0.032314 -0.151953
v -0.002064 0.028885 -0.153668
v -0.010286 -0.000003 -0.003303
v -0.012744 -0.000003 -0.003303
v -0.010286 -0.002338 -0.002335
v -0.012744 -0.002338 -0.002335
v -0.010286 -0.003306 0.000000
v -0.012744 -0.003306 0.000000
v -0.010286 -0.002338 0.002336
v -0.012744 -0.002338 0.002336
v -0.010286 -0.000003 0.003304
v -0.012744 -0.000003 0.003304
v -0.010286 0.002333 0.002336
v -0.012744 0.002333 0.002336
v -0.010286 0.003301 0.000000
v -0.012744 0.003301 0.000000
v -0.010286 0.002333 -0.002335
v -0.012744 0.002333 -0.002335
vn 0.1857 -0.9193 0.3470
vn -0.0000 -0.6903 0.7235
vn -0.0000 -0.9356 0.3531
vn -0.0000 0.9984 0.0564
vn 0.1822 0.9809 -0.0687
vn -0.0000 0.9973 -0.0729
vn -0.0000 -0.0000 -1.0000
vn -0.0000 0.9973 -0.0734
vn 0.1930 0.9785 -0.0720
vn 0.0216 0.9037 -0.4277
vn 0.3918 0.7794 -0.4889
vn 0.4356 0.7798 -0.4497
vn 0.7598 -0.6241 0.1821
vn 0.3344 -0.9424 -0.0000
vn 0.7932 -0.6090 -0.0054
vn 0.9017 -0.0074 -0.4323
vn 0.6458 -0.7632 -0.0202
vn 0.6567 -0.7539 -0.0208
vn -0.0000 0.9672 -0.2539
vn -0.0000 0.8427 -0.5384
vn 0.8855 0.4359 -0.1609
vn 0.9765 -0.2156 -0.0011
vn 0.9887 -0.0354 -0.1458
vn 0.8945 0.3760 -0.2418
vn 0.9154 0.3961 -0.0719
vn 0.2677 0.7444 -0.6118
vn 0.3538 -0.9352 -0.0170
vn -0.0000 -1.0000 -0.0000
vn -0.0000 0.9836 -0.1804
vn 0.3567 0.7932 -0.4936
vn -0.0000 0.8474 -0.5309
vn -0.0000 0.8475 -0.5309
vn 0.3815 0.9173 -0.1142
vn 0.3700 0.9137 -0.1681
vn 0.9443 0.2755 -0.1801
vn 0.9440 0.3282 0.0350
vn 0.3542 0.8871 0.2960
vn 0.4034 -0.1395 0.9043
vn 0.2970 0.6306 0.7170
vn 0.9652 -0.2479 0.0833
vn 0.7275 0.6759 0.1176
vn 0.9058 -0.1458 0.3977
vn 0.5110 -0.6294 0.5854
vn 0.5283 -0.8446 0.0868
vn -0.0000 0.9923 -0.1236
vn -0.7482 -0.4374 0.4990
vn -0.9267 -0.0000 -0.3759
vn -0.7878 -0.4823 -0.3830
vn -0.4309 -0.7280 0.5332
vn -0.4751 -0.7961 -0.3749
vn -0.7482 0.4374 0.4990
vn -0.8442 -0.0000 0.5360
vn -0.4309 0.7280 0.5332
vn -0.7878 0.4823 -0.3830
vn -0.0000 0.9270 -0.3751
vn -0.4751 0.7961 -0.3749
vn 0.4221 0.7311 0.5360
vn -0.0000 0.8443 0.5359
vn 0.8028 0.4635 -0.3752
vn 0.4635 0.8028 -0.3751
vn 0.8442 -0.0000 0.5360
vn 0.7312 0.4221 0.5359
vn -0.0000 -0.8442 0.5360
vn 0.4635 -0.8028 -0.3752
vn 0.4221 -0.7311 0.5360
vn -0.0000 -0.9270 -0.3751
vn 0.7311 -0.4221 0.5360
vn 0.8028 -0.4635 -0.3752
vn 0.9270 -0.0000 -0.3752
vn -0.0000 0.8132 -0.5820
vn -0.4132 0.7031 -0.5787
vn -0.7246 0.4220 -0.5449
vn 0.8132 -0.0000 -0.5820
vn 0.7042 0.4066 -0.5820
vn 0.4066 0.7042 -0.5820
vn -0.7246 -0.4220 -0.5449
vn -0.4132 -0.7031 -0.5787
vn 0.7042 -0.4066 -0.5820
vn -0.0000 -0.8132 -0.5820
vn 0.4066 -0.7042 -0.5820
vn -0.8132 -0.0000 -0.5820
vn -0.0000 0.6535 -0.7569
vn 0.5660 -0.3268 -0.7569
vn 0.6535 -0.0000 -0.7569
vn -0.0000 -0.6535 -0.7569
vn 0.3268 -0.5660 -0.7569
vn -0.5660 0.3268 -0.7569
vn -0.6535 -0.0000 -0.7569
vn -0.3268 0.5660 -0.7569
vn 0.5660 0.3268 -0.7569
vn -0.5660 -0.3268 -0.7569
vn 0.3268 0.5660 -0.7569
vn -0.3268 -0.5660 -0.7569
vn -0.2167 -0.3753 -0.9012
vn -0.0000 0.4334 -0.9012
vn 0.3754 -0.2167 -0.9012
vn 0.4334 0.0001 -0.9012
vn -0.0000 -0.4334 -0.9012
vn 0.2167 -0.3753 -0.9012
vn -0.3753 0.2168 -0.9012
vn -0.4334 0.0001 -0.9012
vn -0.2167 0.3753 -0.9012
vn 0.3754 0.2167 -0.9012
vn -0.3754 -0.2167 -0.9012
vn 0.2167 0.3753 -0.9012
vn -0.0088 0.9866 -0.1629
vn 0.0088 0.9866 -0.1629
vn -0.0240 0.9866 -0.1615
vn 0.0083 0.9882 -0.1530
vn -0.0083 0.9882 -0.1530
vn 0.0322 0.9867 -0.1591
vn 0.0317 0.9872 -0.1564
vn 0.0240 0.9866 -0.1615
vn -0.0317 0.9872 -0.1564
vn -0.0322 0.9867 -0.1591
vn -0.0229 0.9878 -0.1542
vn 0.0229 0.9878 -0.1542
vn -0.0000 -0.0343 0.9994
vn -0.0000 -0.3431 0.9393
vn -0.0000 0.3887 0.9214
vn -0.0000 0.2313 0.9729
vn -0.0000 -0.6838 0.7296
vn -0.0000 -0.8087 0.5882
vn -0.0000 -0.0344 0.9994
vn -0.0000 -0.0571 -0.9984
vn -0.0000 0.0447 -0.9990
vn -0.0000 -0.3522 -0.9359
vn -0.0000 -0.6044 -0.7966
vn -0.0000 -0.8370 -0.5472
vn -0.0000 -0.5917 -0.8062
vn 1.0000 -0.0000 -0.0000
vn -1.0000 -0.0000 -0.0000
vn -0.0000 0.9854 -0.1705
vn -0.0000 -0.8748 0.4844
vn -0.0000 -0.8749 0.4844
vn -0.0000 -0.8748 0.4845
vn -0.0000 0.7926 0.6097
vn -0.0000 0.8635 0.5043
vn -0.0000 0.9856 -0.1691
vn -0.0000 0.9942 0.1079
vn -0.0000 -0.9761 -0.2174
vn -0.0000 -0.9126 -0.4088
vn -0.0000 0.8189 0.5739
vn -0.0000 -0.6629 -0.7487
vn -0.0000 0.6113 0.7914
vn -0.0000 -0.2497 -0.9683
vn -0.0000 0.2945 -0.9557
vn -0.0000 0.7520 -0.6592
vn -0.0000 0.9366 -0.3504
vn -0.0000 0.7089 0.7053
vn -0.0000 -0.8634 -0.5046
vn -0.0000 -0.8026 -0.5965
vn -0.0000 -0.9943 -0.1069
vn -0.0000 -0.9856 0.1688
vn -0.0000 0.9115 0.4113
vn -0.0000 0.9752 0.2215
vn -0.0000 -0.8306 -0.5569
vn -0.0000 0.6617 0.7497
vn -0.0000 -0.5885 -0.8085
vn -0.0000 0.2469 0.9690
vn -0.0000 0.6618 0.7497
vn -0.0000 -0.6380 -0.7700
vn -0.0000 -0.2946 0.9556
vn -0.0000 -0.7488 0.6628
vn -0.0000 -0.2945 0.9556
vn -0.0000 -0.9355 0.3533
vn -0.0000 0.2177 -0.9760
vn -0.0000 0.2176 -0.9760
vn -0.0000 0.4239 -0.9057
vn -0.0000 -0.3237 0.9462
vn -0.0000 -0.5519 0.8339
vn -0.0000 0.2000 -0.9798
vn -0.0000 0.3375 -0.9413
vn -0.0000 -0.1713 0.9852
vn -0.0000 0.5519 -0.8339
vn -0.0000 0.6305 -0.7762
vn -0.0000 0.9457 0.3250
vn -0.0000 0.9457 0.3249
vn -0.0000 -0.6305 0.7762
vn 0.4477 -0.8927 0.0527
vn 0.9577 -0.2865 0.0254
vn -0.0000 -0.9996 0.0269
vn 0.6471 0.7297 0.2210
vn 0.2503 -0.6053 -0.7556
vn -0.0000 -0.7650 -0.6441
vn -0.0000 -0.6146 -0.7888
vn 0.2626 -0.8784 0.3993
vn -0.0000 -0.9674 0.2533
vn -0.0000 -0.9078 0.4193
vn 0.9692 -0.2459 -0.0091
vn 0.9808 -0.1492 -0.1256
vn 0.9860 -0.1339 0.0994
vn 0.9838 -0.1606 0.0798
vn -0.0000 0.7992 -0.6011
vn 0.2560 0.8606 -0.4402
vn 0.2692 0.7677 -0.5815
vn 0.2444 0.9127 -0.3274
vn -0.0000 0.9413 -0.3376
vn 0.1142 0.9350 -0.3357
vn 0.9765 0.1964 -0.0887
vn 0.2596 -0.8214 0.5078
vn -0.0000 -0.8146 0.5800
vn -0.0000 -0.8595 0.5111
vn 0.9779 0.1967 -0.0706
vn 0.9805 -0.1869 0.0600
vn 0.8872 -0.4552 0.0753
vn 0.9289 0.3486 -0.1251
vn -0.0000 0.9419 -0.3358
vn 0.2714 0.6063 -0.7474
vn -0.0000 0.6180 -0.7862
vn 0.2432 -0.8373 -0.4898
vn -0.0000 -0.8702 -0.4927
vn 0.0835 -0.9824 0.1672
vn -0.0000 -0.9855 0.1700
vn 0.6398 -0.0034 -0.7686
vn 0.7236 -0.4101 -0.5552
vn 0.2269 0.0053 -0.9739
vn 0.7429 0.3954 -0.5401
vn 0.9715 -0.0077 -0.2369
vn 0.5849 -0.8111 0.0016
vn 0.2132 -0.9769 0.0134
vn 0.7008 -0.6233 -0.3470
vn 0.7215 -0.6010 0.3438
vn -0.0000 -0.9999 0.0105
vn 0.7429 -0.5453 0.3884
vn 0.2777 -0.7851 0.5536
vn 0.2589 -0.7387 -0.6223
vn 0.7069 -0.5407 -0.4560
vn 0.7151 0.5585 -0.4205
vn 0.9814 0.1550 -0.1135
vn -0.0000 -0.0191 -0.9998
vn 0.6916 0.6465 -0.3219
vn 0.7212 -0.6287 0.2910
vn 0.6872 0.6834 -0.2463
vn 0.6689 -0.7195 0.1867
vn 0.2280 -0.9454 0.2329
vn 0.3451 -0.9261 0.1526
vn 0.4391 0.8456 -0.3036
vn -0.0000 -0.9996 -0.0276
vn -0.0000 0.7972 -0.6037
vn 0.4096 0.7273 -0.5507
vn 0.6527 -0.4894 0.5784
vn 0.2485 -0.3061 0.9190
vn 0.9226 0.3828 -0.0476
vn -0.0000 -0.0609 0.9981
vn -0.0000 -0.3971 0.9178
vn -0.0000 -0.3900 0.9208
vn 0.7539 0.6287 0.1905
vn -0.0000 0.5826 0.8128
vn -0.0000 -0.4324 0.9017
vn -0.0000 -0.5288 0.8488
vn -0.0000 -0.6293 0.7772
vn 0.9930 -0.0917 0.0743
vn 0.9762 0.0725 -0.2044
vn 0.9986 0.0085 -0.0520
vn 0.9810 0.1839 0.0612
vn 0.6526 0.7559 -0.0521
vn 0.7105 0.7018 -0.0516
vn 0.1593 -0.7564 0.6344
vn 0.6580 -0.7045 0.2659
vn 0.8396 -0.5082 0.1918
vn 0.9892 -0.1463 0.0119
vn 0.5964 0.8014 0.0452
vn 0.9984 -0.0000 -0.0573
vn -0.0000 0.9907 -0.1363
vn -0.0000 0.9923 -0.1242
vn 0.9975 -0.0016 -0.0699
vn 0.9982 -0.0038 -0.0592
vn -0.0000 0.9998 0.0206
vn -0.0000 0.9997 0.0258
vn 0.9984 -0.0047 -0.0561
vn -0.0000 1.0000 0.0031
vn -0.0000 0.8980 -0.4400
vn -0.0000 0.1506 -0.9886
vn -0.0000 -0.1607 -0.9870
vn -0.0000 0.5976 -0.8018
vn -0.0000 -0.7071 -0.7071
vn -0.0000 -0.7071 0.7071
vn -0.0000 -0.0000 1.0000
vn -0.0000 0.7071 0.7071
vn -0.0000 1.0000 -0.0000
vn -0.0000 0.7071 -0.7071
vn 0.3158 0.9081 0.2751
vn 0.3541 0.8872 0.2958
vn 0.0807 0.7054 0.7042
vn 0.1834 0.9440 0.2744
vn 0.4849 0.7732 0.4087
vn -0.1857 -0.9193 0.3470
vn -0.1867 0.9800 -0.0694
vn -0.1930 0.9785 -0.0720
vn -0.0216 0.9037 -0.4277
vn -0.3918 0.7794 -0.4889
vn -0.3344 -0.9424 -0.0000
vn -0.7598 -0.6241 0.1821
vn -0.7932 -0.6090 -0.0054
vn -0.6458 -0.7632 -0.0202
vn -0.9017 -0.0074 -0.4323
vn -0.6567 -0.7539 -0.0208
vn -0.8855 0.4359 -0.1609
vn -0.9887 -0.0354 -0.1458
vn -0.9765 -0.2156 -0.0011
vn -0.8945 0.3760 -0.2418
vn -0.9154 0.3961 -0.0719
vn -0.2677 0.7444 -0.6118
vn -0.4356 0.7798 -0.4497
vn -0.3538 -0.9352 -0.0170
vn -0.3567 0.7932 -0.4936
vn -0.3815 0.9173 -0.1142
vn -0.3700 0.9137 -0.1681
vn -0.9443 0.2755 -0.1801
vn -0.9440 0.3281 0.0350
vn -0.9226 0.3828 -0.0476
vn -0.4034 -0.1395 0.9043
vn -0.3542 0.8871 0.2961
vn -0.2973 0.6306 0.7169
vn -0.9652 -0.2479 0.0833
vn -0.9058 -0.1458 0.3977
vn -0.7275 0.6759 0.1176
vn -0.5110 -0.6294 0.5854
vn -0.5283 -0.8446 0.0868
vn 0.7482 -0.4374 0.4990
vn 0.9267 -0.0000 -0.3759
vn 0.4309 -0.7280 0.5332
vn 0.7878 -0.4823 -0.3830
vn 0.7482 0.4374 0.4990
vn 0.7878 0.4823 -0.3830
vn 0.4309 0.7280 0.5332
vn -0.4221 0.7311 0.5360
vn -0.4635 0.8028 -0.3752
vn -0.7311 0.4221 0.5360
vn -0.8028 0.4635 -0.3752
vn -0.4221 -0.7311 0.5360
vn -0.0000 -0.8443 0.5359
vn -0.7311 -0.4221 0.5360
vn -0.4635 -0.8028 -0.3751
vn -0.8028 -0.4635 -0.3752
vn 0.4751 0.7961 -0.3749
vn 0.4132 0.7031 -0.5787
vn -0.9270 -0.0000 -0.3752
vn -0.7042 0.4066 -0.5820
vn 0.7246 -0.4220 -0.5449
vn 0.4132 -0.7031 -0.5787
vn 0.4751 -0.7961 -0.3749
vn -0.7042 -0.4066 -0.5820
vn 0.7246 0.4220 -0.5449
vn -0.4066 0.7042 -0.5820
vn -0.4066 -0.7042 -0.5820
vn 0.3753 0.2168 -0.9012
vn -0.3754 0.2167 -0.9012
vn -0.4477 -0.8927 0.0527
vn -0.9577 -0.2865 0.0254
vn -0.6470 0.7297 0.2210
vn -0.2503 -0.6053 -0.7556
vn -0.2626 -0.8784 0.3993
vn -0.9692 -0.2459 -0.0091
vn -0.9808 -0.1492 -0.1256
vn -0.9860 -0.1339 0.0994
vn -0.2560 0.8606 -0.4402
vn -0.2692 0.7677 -0.5815
vn -0.2444 0.9127 -0.3274
vn -0.9765 0.1964 -0.0887
vn -0.9814 0.1550 -0.1135
vn -0.2596 -0.8214 0.5078
vn -0.2777 -0.7851 0.5536
vn -0.9779 0.1967 -0.0706
vn -0.9838 -0.1606 0.0798
vn -0.8872 -0.4552 0.0753
vn -0.9805 -0.1869 0.0600
vn -0.9289 0.3486 -0.1251
vn -0.0000 0.8935 -0.4490
vn -0.2714 0.6063 -0.7474
vn -0.2432 -0.8373 -0.4898
vn -0.2589 -0.7387 -0.6223
vn -0.0835 -0.9824 0.1672
vn -0.2280 -0.9454 0.2329
vn -0.6398 -0.0034 -0.7686
vn -0.2269 0.0053 -0.9739
vn -0.7429 0.3954 -0.5401
vn -0.7236 -0.4101 -0.5552
vn -0.9715 -0.0077 -0.2369
vn -0.5849 -0.8111 0.0016
vn -0.7008 -0.6233 -0.3470
vn -0.7215 -0.6010 0.3438
vn -0.2132 -0.9769 0.0134
vn -0.7429 -0.5453 0.3884
vn -0.7069 -0.5407 -0.4560
vn -0.7151 0.5585 -0.4205
vn -0.6916 0.6465 -0.3219
vn -0.7212 -0.6287 0.2910
vn -0.6872 0.6834 -0.2463
vn -0.6689 -0.7195 0.1867
vn -0.3451 -0.9261 0.1526
vn -0.4391 0.8456 -0.3036
vn -0.4096 0.7273 -0.5507
vn -0.6526 -0.4894 0.5784
vn -0.2485 -0.3061 0.9190
vn -0.7540 0.6287 0.1903
vn -0.9762 0.0725 -0.2044
vn -0.9936 -0.0958 0.0604
vn -0.9986 0.0085 -0.0520
vn -0.9810 0.1840 0.0612
vn -0.6526 0.7559 -0.0521
vn -0.7105 0.7018 -0.0516
vn -0.1593 -0.7565 0.6343
vn -0.6580 -0.7045 0.2659
vn -0.8396 -0.5082 0.1918
vn -0.9868 -0.1565 0.0421
vn -0.5964 0.8014 0.0452
vn -0.1745 0.9831 0.0555
vn -0.9984 -0.0000 -0.0573
vn -0.9982 -0.0038 -0.0592
vn -0.9975 -0.0016 -0.0699
vn -0.0000 0.9922 -0.1247
vn -0.9984 -0.0047 -0.0561
vn -0.3541 0.8872 0.2958
vn -0.0806 0.7054 0.7042
vn -0.1833 0.9440 0.2744
vn -0.4849 0.7731 0.4088
vn 0.1745 0.9831 0.0555
vn 0.3545 0.8871 0.2958
vn -0.3545 0.8870 0.2957
vn -0.1142 0.9350 -0.3357
vt 0.486666 0.250000
vt 0.375000 0.500000
vt 0.375000 0.250000
vt 0.625000 0.250000
vt 0.513334 0.250000
vt 0.372773 0.709483
vt 0.133281 0.750000
vt 0.125000 0.611666
vt 0.625000 0.000000
vt 0.513334 0.000000
vt 0.000000 0.000000
vt 0.375000 0.000000
vt 0.042154 0.370000
vt 0.010000 0.250000
vt 0.130000 0.457846
vt 0.042154 0.130000
vt 0.130000 0.042154
vt 0.250000 0.010000
vt 0.370000 0.042154
vt 0.457846 0.130000
vt 0.490000 0.250000
vt 0.250000 0.490000
vt 0.370000 0.457846
vt 0.457846 0.370000
vt 0.440370 0.301008
vt 0.375000 0.375000
vt 0.375000 0.301008
vt 0.625000 0.684630
vt 0.625000 0.750000
vt 0.625000 0.875000
vt 0.417759 0.941530
vt 0.418499 0.875000
vt 0.625000 0.940504
vt 0.625000 0.944071
vt 0.375000 0.565370
vt 0.375000 0.565370
vt 0.559630 0.000000
vt 0.625000 0.803263
vt 0.416447 0.684630
vt 0.416447 0.750000
vt 0.625000 0.816592
vt 0.625000 0.952285
vt 0.169598 0.565370
vt 0.169598 0.500000
vt 0.625000 0.684630
vt 0.440370 0.448991
vt 0.375000 0.448991
vt 0.559630 0.250000
vt 0.546966 0.250000
vt 0.625000 0.305956
vt 0.147200 0.750000
vt 0.125000 0.565370
vt 0.375000 0.805956
vt 0.422382 0.750000
vt 0.419516 0.806067
vt 0.625000 0.480429
vt 0.440370 0.500000
vt 0.389580 1.000000
vt 0.375000 0.949211
vt 0.375000 0.578032
vt 0.413317 0.500000
vt 0.375000 0.684630
vt 0.375000 0.750000
vt 0.621649 0.500000
vt 0.413318 1.000000
vt 0.625000 0.940504
vt 0.621649 1.000000
vt 0.440370 0.375000
vt 0.625000 0.375000
vt 0.375000 0.875000
vt 0.625000 0.807060
vt 0.172381 0.750000
vt 0.440370 0.250000
vt 0.625000 0.750000
vt 0.625000 0.500000
vt 0.625000 1.000000
vt 0.625000 0.803263
vt 0.625000 0.377361
vt 0.625000 0.449211
vt 0.617397 0.750000
vt 0.610026 1.000000
vt 0.610026 0.500000
vt 0.375000 0.264963
vt 0.375000 0.249496
vt 0.486666 0.500000
vt 0.625000 0.250494
vt 1.000000 1.000000
vt 0.875000 0.500000
vt 1.000000 0.500000
vt 0.875000 1.000000
vt 0.750000 0.500000
vt 0.750000 1.000000
vt 0.500000 0.500000
vt 0.500000 1.000000
vt 0.375000 1.000000
vt 0.250000 0.500000
vt 0.250000 1.000000
vt 0.125000 0.500000
vt 0.125000 1.000000
vt 0.000000 0.500000
vt 0.375000 0.877362
vt 0.625000 0.999496
vt 0.381171 0.256171
vt 0.375000 0.611666
vt 0.367397 0.750000
vt 0.127425 0.709483
vt 0.375000 0.776137
vt 0.419706 0.419706
vt 0.080294 0.419706
vt 0.080294 0.080294
vt 0.419706 0.080294
vt 0.000000 1.000000
s 1
f 284/1/1 4/2/2 2/3/3
f 252/4/4 286/5/5 3/4/6
f 282/6/7 283/7/7 284/8/7
f 1/9/8 286/5/5 280/10/9
f 7/11/10 259/11/11 253/11/12
f 265/11/13 8/11/14 256/11/15
f 258/11/16 244/11/17 204/11/18
f 200/9/19 11/12/20 7/12/10
f 254/11/21 255/11/22 257/11/23
f 262/11/24 264/11/25 255/11/22
f 7/11/10 253/11/12 246/11/26
f 5/3/27 9/4/28 6/4/28
f 17/11/29 261/11/30 13/11/31
f 10/9/20 13/12/31 11/12/20
f 13/11/31 259/11/11 11/11/20
f 12/9/32 17/12/29 13/12/31
f 5/11/27 244/11/17 256/11/15
f 17/11/29 274/11/33 263/11/34
f 260/11/35 262/11/24 255/11/22
f 264/11/25 18/11/36 255/11/22
f 8/3/14 20/4/28 9/4/28
f 15/11/37 271/11/38 272/11/39
f 266/11/40 21/11/41 270/11/42
f 265/11/13 267/11/43 19/11/44
f 16/9/29 25/12/45 17/12/29
f 18/11/36 266/11/40 255/11/22
f 36/13/46 40/14/47 39/13/48
f 37/15/49 39/13/48 38/15/50
f 34/16/51 40/14/47 35/14/52
f 33/17/53 41/16/54 34/16/51
f 33/17/53 43/18/55 42/17/56
f 31/19/57 43/18/55 32/18/58
f 31/19/57 45/20/59 44/19/60
f 29/21/61 45/20/59 30/20/62
f 26/22/63 48/23/64 27/23/65
f 37/15/49 49/22/66 26/22/63
f 28/24/67 48/23/64 47/24/68
f 29/21/61 47/24/68 46/21/69
f 44/19/60 55/18/70 43/18/55
f 42/17/56 55/18/70 54/17/71
f 41/16/54 54/17/71 53/16/72
f 45/20/59 58/21/73 57/20/74
f 44/19/60 57/20/74 56/19/75
f 40/14/47 51/13/76 39/13/48
f 39/13/48 50/15/77 38/15/50
f 48/23/64 59/24/78 47/24/68
f 48/23/64 61/22/79 60/23/80
f 47/24/68 58/21/73 46/21/69
f 38/15/50 61/22/79 49/22/66
f 40/14/47 53/16/72 52/14/81
f 56/19/75 67/18/82 55/18/70
f 58/21/73 71/24/83 70/21/84
f 60/23/80 73/22/85 72/23/86
f 52/14/81 65/16/87 64/14/88
f 53/16/72 66/17/89 65/16/87
f 58/21/73 69/20/90 57/20/74
f 54/17/71 67/18/82 66/17/89
f 52/14/81 63/13/91 51/13/76
f 59/24/78 72/23/86 71/24/83
f 56/19/75 69/20/90 68/19/92
f 50/15/77 73/22/85 61/22/79
f 51/13/76 62/15/93 50/15/77
f 63/13/91 74/15/94 62/15/93
f 68/19/92 79/18/95 67/18/82
f 70/21/84 83/24/96 82/21/97
f 72/23/86 85/22/98 84/23/99
f 64/14/88 77/16/100 76/14/101
f 65/16/87 78/17/102 77/16/100
f 70/21/84 81/20/103 69/20/90
f 66/17/89 79/18/95 78/17/102
f 64/14/88 75/13/104 63/13/91
f 71/24/83 84/23/99 83/24/96
f 69/20/90 80/19/105 68/19/92
f 62/15/93 85/22/98 73/22/85
f 85/22/98 86/15/106 97/22/107
f 74/15/94 87/13/108 86/15/106
f 79/18/95 92/19/109 91/18/110
f 82/21/97 95/24/111 94/21/112
f 84/23/99 97/22/107 96/23/113
f 76/14/101 89/16/114 88/14/115
f 77/16/100 90/17/116 89/16/114
f 81/20/103 94/21/112 93/20/117
f 78/17/102 91/18/110 90/17/116
f 75/13/104 88/14/115 87/13/108
f 83/24/96 96/23/113 95/24/111
f 80/19/105 93/20/117 92/19/109
f 30/20/62 34/16/51 26/22/63
f 104/11/118 109/11/119 103/11/119
f 102/11/120 111/11/121 105/11/121
f 106/11/122 113/11/123 107/11/123
f 105/11/121 110/11/124 104/11/118
f 103/11/119 112/11/122 106/11/122
f 122/11/125 117/11/126 116/11/125
f 124/11/127 119/11/128 118/11/127
f 121/11/129 114/11/130 115/11/129
f 123/11/126 118/11/127 117/11/126
f 120/11/130 116/11/125 114/11/130
f 120/11/131 113/11/131 112/11/131
f 103/11/132 117/11/132 104/11/132
f 125/11/131 111/11/131 108/11/131
f 122/11/131 112/11/131 109/11/131
f 117/11/132 105/11/132 104/11/132
f 107/11/132 114/11/132 106/11/132
f 123/11/131 109/11/131 110/11/131
f 121/11/133 107/11/133 113/11/133
f 105/11/132 119/11/132 102/11/132
f 119/11/134 108/11/135 102/11/136
f 106/11/132 116/11/132 103/11/132
f 111/11/131 123/11/131 110/11/131
f 152/11/137 142/11/138 141/11/137
f 147/11/139 135/11/140 134/11/139
f 140/11/141 128/11/142 126/11/141
f 148/11/140 136/11/143 135/11/140
f 139/11/142 129/11/144 128/11/142
f 149/11/143 137/11/145 136/11/143
f 127/11/144 130/11/146 129/11/144
f 138/11/132 182/11/132 183/11/132
f 143/11/146 131/11/147 130/11/146
f 144/11/147 132/11/148 131/11/147
f 145/11/148 133/11/149 132/11/148
f 151/11/150 141/11/137 138/11/150
f 146/11/149 134/11/139 133/11/149
f 171/11/151 180/11/152 170/11/152
f 164/11/153 175/11/154 163/11/154
f 157/11/155 169/11/156 156/11/156
f 165/11/157 176/11/153 164/11/153
f 158/11/158 168/11/155 157/11/155
f 166/11/159 177/11/157 165/11/157
f 159/11/160 154/11/161 158/11/158
f 167/11/162 178/11/159 166/11/159
f 160/11/163 155/11/160 159/11/160
f 161/11/164 172/11/165 160/11/163
f 162/11/166 173/11/164 161/11/164
f 170/11/152 179/11/162 167/11/162
f 163/11/154 174/11/166 162/11/166
f 139/11/131 169/11/131 168/11/131
f 143/11/131 154/11/131 155/11/131
f 141/11/132 167/11/132 138/11/132
f 128/11/132 156/11/132 126/11/132
f 141/11/132 171/11/132 170/11/132
f 129/11/132 157/11/132 128/11/132
f 144/11/131 155/11/131 172/11/131
f 130/11/132 158/11/132 129/11/132
f 144/11/131 173/11/131 145/11/131
f 131/11/132 159/11/132 130/11/132
f 126/11/167 169/11/168 140/11/168
f 145/11/131 174/11/131 146/11/131
f 131/11/132 161/11/132 160/11/132
f 146/11/131 175/11/131 147/11/131
f 132/11/132 162/11/132 161/11/132
f 148/11/131 175/11/131 176/11/131
f 133/11/132 163/11/132 162/11/132
f 148/11/131 177/11/131 149/11/131
f 135/11/132 163/11/132 134/11/132
f 149/11/131 178/11/131 150/11/131
f 135/11/132 165/11/132 164/11/132
f 150/11/131 179/11/131 151/11/131
f 136/11/132 166/11/132 165/11/132
f 152/11/131 179/11/131 180/11/131
f 137/11/132 167/11/132 166/11/132
f 152/11/131 181/11/131 153/11/131
f 127/11/131 168/11/131 154/11/131
f 153/11/169 171/11/169 142/11/169
f 184/11/170 186/11/171 182/11/170
f 138/11/172 185/11/173 151/11/172
f 151/11/131 184/11/131 150/11/131
f 150/11/174 182/11/170 137/11/174
f 187/11/175 193/11/176 189/11/175
f 182/11/132 187/11/132 183/11/132
f 183/11/173 189/11/175 185/11/173
f 184/11/131 189/11/131 188/11/131
f 192/11/177 191/11/178 190/11/178
f 188/11/131 193/11/131 192/11/131
f 188/11/171 190/11/179 186/11/171
f 186/11/132 191/11/132 187/11/132
f 14/11/180 19/11/44 98/11/181
f 23/11/182 19/11/44 14/11/180
f 20/4/28 19/3/44 23/11/182
f 98/11/181 99/11/131 100/11/131
f 19/11/44 101/11/183 99/11/131
f 208/25/184 202/26/185 226/27/186
f 232/28/187 199/29/188 196/29/189
f 201/30/131 219/31/190 249/32/191
f 215/33/192 203/30/131 231/34/193
f 194/2/194 234/35/195 205/36/196
f 237/37/197 200/9/198 247/37/199
f 201/30/131 235/38/200 203/30/131
f 220/39/201 195/29/202 229/40/203
f 203/30/131 238/41/204 204/30/131
f 231/34/193 204/30/131 240/42/205
f 244/11/206 240/11/205 204/11/131
f 204/11/131 238/11/204 246/11/207
f 234/36/195 198/2/208 237/35/197
f 194/2/194 209/43/209 225/44/210
f 195/29/202 232/45/187 196/29/189
f 202/26/185 218/46/211 228/47/212
f 199/4/188 243/48/213 6/4/214
f 208/25/184 212/49/215 214/50/216
f 209/43/209 212/51/215 211/52/217
f 214/53/216 213/54/218 210/55/219
f 218/46/211 222/56/220 224/57/221
f 219/31/190 222/58/220 221/59/222
f 220/39/201 222/60/220 223/61/223
f 228/47/212 224/57/221 230/2/224
f 224/62/221 229/40/203 230/63/224
f 220/39/201 217/64/225 216/45/226
f 223/65/223 215/66/192 217/67/225
f 250/68/227 214/50/216 251/69/228
f 251/70/228 210/55/219 249/32/191
f 210/55/219 207/29/229 206/71/230
f 213/72/218 205/35/196 207/63/229
f 208/25/184 227/3/231 211/73/217
f 211/52/217 225/44/210 209/43/209
f 234/35/195 207/63/229 205/36/196
f 236/29/232 206/71/230 207/74/229
f 216/28/226 233/75/233 232/45/187
f 217/76/225 231/34/193 233/76/233
f 237/35/197 236/63/232 234/36/195
f 239/29/234 235/77/200 236/29/232
f 232/28/187 242/75/235 241/45/236
f 233/76/233 240/42/205 242/76/235
f 244/11/206 242/11/235 240/11/205
f 245/3/237 241/48/236 242/3/235
f 246/11/207 239/11/234 248/11/238
f 248/12/238 237/37/197 247/37/199
f 218/46/211 251/78/228 221/79/222
f 221/59/222 249/32/191 219/31/190
f 206/71/230 249/32/191 210/55/219
f 243/48/239 245/3/239 5/11/27
f 245/3/239 244/11/17 5/11/27
f 246/11/26 248/11/240 7/11/10
f 248/11/240 247/37/240 7/11/10
f 256/11/15 8/11/14 5/11/27
f 246/11/26 258/11/16 204/11/241
f 269/11/242 270/11/42 271/11/38
f 256/11/15 257/11/23 255/11/22
f 257/11/23 253/11/12 254/11/21
f 269/11/242 266/11/40 270/11/42
f 254/11/21 259/11/11 260/11/35
f 259/11/11 262/11/24 260/11/35
f 21/11/41 271/11/38 270/11/42
f 269/11/242 268/11/243 267/11/43
f 255/11/22 265/11/13 256/11/15
f 262/11/24 263/11/34 264/11/25
f 264/11/25 274/11/33 273/11/244
f 254/11/21 260/11/35 255/11/22
f 100/11/245 276/11/246 98/11/247
f 101/11/248 277/11/249 99/11/249
f 14/11/250 276/11/246 275/11/251
f 23/11/252 14/11/250 275/11/251
f 99/11/249 278/11/245 100/11/245
f 290/11/253 281/80/254 287/81/255
f 290/11/253 287/82/255 292/83/256
f 280/10/9 288/84/257 282/12/258
f 282/29/258 287/81/255 281/80/254
f 289/85/259 285/86/260 291/75/261
f 291/11/261 283/11/262 290/11/253
f 286/5/5 294/3/263 288/3/257
f 288/75/257 292/83/256 287/82/255
f 297/11/131 299/11/264 296/11/131
f 296/11/265 298/11/266 295/11/265
f 300/11/267 302/11/268 299/11/264
f 298/11/266 302/11/269 301/11/270
f 303/11/271 305/11/131 302/11/268
f 302/11/269 304/11/272 301/11/270
f 305/11/131 306/11/131 308/11/131
f 305/11/272 307/11/273 304/11/272
f 313/11/274 311/11/275 312/11/274
f 308/11/273 309/11/276 307/11/273
f 310/11/276 312/11/274 309/11/276
f 313/11/131 310/11/131 306/11/131
f 308/11/131 306/11/131 310/11/131
f 315/87/7 316/88/277 314/89/7
f 317/90/277 318/91/28 316/88/277
f 319/92/28 320/75/278 318/91/28
f 321/76/278 322/93/279 320/75/278
f 323/94/279 324/2/280 322/93/279
f 325/95/280 326/96/281 324/2/280
f 327/14/131 323/18/131 319/21/131
f 327/97/281 328/98/282 326/96/281
f 329/99/282 314/100/7 328/98/282
f 101/11/248 22/11/281 279/11/283
f 15/11/284 330/11/281 22/11/281
f 15/11/284 272/11/285 330/11/281
f 330/11/281 272/11/285 18/11/286
f 18/11/286 272/11/285 21/11/287
f 25/12/279 24/9/279 331/11/279
f 4/2/2 534/1/288 2/3/3
f 536/5/289 252/4/4 3/4/6
f 533/7/7 532/6/7 1/2/7
f 536/5/289 1/9/8 530/10/290
f 333/11/291 514/11/292 335/11/20
f 334/11/293 520/11/294 511/11/295
f 500/11/296 513/11/297 466/11/298
f 335/12/20 200/9/19 333/12/291
f 509/11/299 512/11/300 510/11/301
f 517/11/302 510/11/301 519/11/303
f 333/11/291 502/11/304 508/11/305
f 9/4/28 332/3/306 6/4/28
f 516/11/307 339/11/29 336/11/31
f 336/12/31 10/9/20 335/12/20
f 514/11/292 336/11/31 335/11/20
f 339/12/29 12/9/32 336/12/31
f 332/11/306 511/11/295 500/11/296
f 529/11/308 339/11/29 518/11/309
f 515/11/310 510/11/301 517/11/302
f 519/11/303 340/11/311 528/11/312
f 20/4/28 334/3/293 9/4/28
f 526/11/313 338/11/314 527/11/315
f 521/11/316 525/11/317 342/11/318
f 522/11/319 520/11/294 341/11/320
f 343/12/45 16/9/29 339/12/29
f 340/11/311 521/11/316 342/11/318
f 354/13/321 357/14/322 353/14/61
f 355/15/323 39/13/324 354/13/321
f 357/14/322 352/16/325 353/14/61
f 41/16/326 351/17/327 352/16/325
f 351/17/327 359/18/55 350/18/58
f 359/18/55 349/19/328 350/18/58
f 360/19/329 348/20/330 349/19/328
f 361/20/331 347/21/52 348/20/330
f 345/23/332 365/22/66 344/22/333
f 365/22/66 355/15/323 344/22/333
f 346/24/334 364/23/335 345/23/332
f 347/21/52 363/24/336 346/24/334
f 371/18/70 360/19/329 359/18/55
f 358/17/337 371/18/70 359/18/55
f 41/16/326 370/17/338 358/17/337
f 361/20/331 374/21/81 362/21/339
f 360/19/329 373/20/340 361/20/331
f 367/13/341 357/14/322 39/13/324
f 366/15/342 39/13/324 356/15/343
f 375/24/344 364/23/335 363/24/336
f 364/23/335 377/22/79 365/22/66
f 374/21/81 363/24/336 362/21/339
f 377/22/79 356/15/343 365/22/66
f 357/14/322 369/16/345 41/16/326
f 383/18/82 372/19/346 371/18/70
f 374/21/81 387/24/91 375/24/344
f 376/23/347 389/22/85 377/22/79
f 368/14/73 381/16/90 369/16/345
f 369/16/345 382/17/92 370/17/338
f 385/20/87 374/21/81 373/20/340
f 370/17/338 383/18/82 371/18/70
f 379/13/83 368/14/73 367/13/341
f 375/24/344 388/23/93 376/23/347
f 384/19/89 373/20/340 372/19/346
f 389/22/85 366/15/342 377/22/79
f 378/15/86 367/13/341 366/15/342
f 390/15/99 379/13/83 378/15/86
f 395/18/95 384/19/89 383/18/82
f 386/21/88 399/24/104 387/24/91
f 388/23/93 401/22/98 389/22/85
f 380/14/84 393/16/348 381/16/90
f 381/16/90 394/17/105 382/17/92
f 397/20/349 386/21/88 385/20/87
f 382/17/92 395/18/95 383/18/82
f 391/13/96 380/14/84 379/13/83
f 387/24/91 400/23/94 388/23/93
f 396/19/102 385/20/87 384/19/89
f 401/22/98 378/15/86 389/22/85
f 401/22/98 402/15/107 390/15/99
f 390/15/99 403/13/113 391/13/96
f 395/18/95 408/19/110 396/19/102
f 398/21/101 411/24/115 399/24/104
f 400/23/94 413/22/106 401/22/98
f 392/14/97 405/16/112 393/16/348
f 393/16/348 406/17/117 394/17/105
f 397/20/349 410/21/114 398/21/101
f 394/17/105 407/18/109 395/18/95
f 391/13/96 404/14/111 392/14/97
f 399/24/104 412/23/108 400/23/94
f 396/19/102 409/20/116 397/20/349
f 354/13/321 350/18/58 346/24/334
f 419/11/119 104/11/118 103/11/119
f 421/11/121 102/11/120 105/11/121
f 423/11/123 106/11/122 107/11/123
f 420/11/124 105/11/121 104/11/118
f 422/11/122 103/11/119 106/11/122
f 117/11/126 426/11/125 116/11/125
f 119/11/128 428/11/127 118/11/127
f 114/11/130 425/11/129 115/11/129
f 118/11/127 427/11/126 117/11/126
f 116/11/125 424/11/130 114/11/130
f 423/11/132 424/11/132 422/11/132
f 421/11/132 429/11/132 418/11/132
f 422/11/132 426/11/132 419/11/132
f 419/11/132 427/11/132 420/11/132
f 107/11/133 425/11/133 423/11/133
f 418/11/135 119/11/134 102/11/136
f 421/11/132 427/11/132 428/11/132
f 142/11/138 442/11/137 141/11/137
f 135/11/140 437/11/139 134/11/139
f 128/11/142 432/11/141 126/11/141
f 136/11/143 438/11/140 135/11/140
f 129/11/144 431/11/142 128/11/142
f 137/11/145 439/11/143 136/11/143
f 130/11/146 430/11/144 129/11/144
f 131/11/147 433/11/146 130/11/146
f 132/11/148 434/11/147 131/11/147
f 133/11/149 435/11/148 132/11/148
f 141/11/137 441/11/150 138/11/150
f 134/11/139 436/11/149 133/11/149
f 456/11/152 171/11/151 170/11/152
f 451/11/154 164/11/153 163/11/154
f 447/11/156 157/11/155 156/11/156
f 452/11/153 165/11/157 164/11/153
f 446/11/155 158/11/158 157/11/155
f 453/11/157 166/11/159 165/11/157
f 444/11/161 159/11/160 158/11/158
f 454/11/159 167/11/162 166/11/159
f 445/11/160 160/11/163 159/11/160
f 448/11/165 161/11/164 160/11/163
f 449/11/164 162/11/166 161/11/164
f 455/11/162 170/11/152 167/11/162
f 450/11/166 163/11/154 162/11/166
f 431/11/132 447/11/132 432/11/132
f 433/11/132 444/11/132 430/11/132
f 434/11/132 445/11/132 433/11/132
f 449/11/132 434/11/132 435/11/132
f 447/11/168 126/11/167 432/11/168
f 450/11/132 435/11/132 436/11/132
f 451/11/132 436/11/132 437/11/132
f 438/11/132 451/11/132 437/11/132
f 453/11/132 438/11/132 439/11/132
f 454/11/132 439/11/132 440/11/132
f 455/11/132 440/11/132 441/11/132
f 442/11/132 455/11/132 441/11/132
f 457/11/132 442/11/132 443/11/132
f 430/11/132 446/11/132 431/11/132
f 171/11/169 443/11/169 142/11/169
f 186/11/171 458/11/170 182/11/170
f 459/11/173 138/11/172 441/11/172
f 458/11/132 441/11/132 440/11/132
f 182/11/170 440/11/174 137/11/174
f 463/11/176 187/11/175 461/11/175
f 461/11/175 183/11/173 459/11/173
f 458/11/132 461/11/132 459/11/132
f 191/11/178 462/11/177 190/11/178
f 460/11/132 463/11/132 461/11/132
f 190/11/179 460/11/171 186/11/171
f 337/11/350 414/11/351 341/11/320
f 23/11/182 337/11/350 341/11/320
f 20/4/28 23/11/182 341/3/320
f 414/11/351 415/11/132 341/11/320
f 417/11/352 341/11/320 415/11/132
f 202/26/185 470/25/353 226/27/186
f 199/29/188 488/28/354 196/29/189
f 481/31/355 464/30/132 505/32/356
f 477/33/357 465/30/132 464/30/132
f 490/35/358 194/2/194 467/36/359
f 493/37/360 200/9/198 198/9/208
f 464/30/132 491/38/361 468/71/362
f 482/39/363 195/29/202 478/45/364
f 465/30/132 494/41/365 491/77/361
f 487/34/366 466/30/132 465/30/132
f 500/11/367 466/11/132 496/11/368
f 466/11/132 502/11/369 494/11/365
f 490/36/358 198/2/208 197/2/370
f 471/43/371 194/2/194 225/44/210
f 195/29/202 488/45/354 478/28/364
f 202/26/185 480/46/372 506/68/373
f 199/4/188 499/48/374 497/48/375
f 470/25/353 474/49/376 473/73/377
f 471/43/371 474/51/376 475/72/378
f 475/54/378 476/53/379 472/55/380
f 480/46/372 484/56/381 483/79/382
f 481/31/355 484/58/381 485/65/383
f 482/39/363 484/60/381 486/62/384
f 228/47/212 486/57/384 480/46/372
f 229/40/203 486/62/384 230/63/224
f 479/64/385 482/39/363 478/45/364
f 477/66/357 485/65/383 479/67/385
f 506/68/373 476/50/379 470/25/353
f 507/70/386 472/55/380 476/53/379
f 469/29/387 472/55/380 468/71/362
f 467/35/359 475/72/378 469/63/387
f 470/25/353 227/3/231 226/27/186
f 473/52/377 225/44/210 227/98/231
f 469/63/387 490/35/358 467/36/359
f 468/71/362 492/29/388 469/74/387
f 489/75/389 478/28/364 488/45/354
f 487/34/366 479/76/385 489/76/389
f 492/63/388 493/35/360 490/36/358
f 491/77/361 495/29/390 492/29/388
f 498/75/391 488/28/354 497/45/375
f 496/42/368 489/76/389 498/76/391
f 498/11/391 500/11/367 496/11/368
f 497/48/375 501/3/392 498/3/391
f 502/11/369 495/11/390 494/11/365
f 504/12/393 493/37/360 495/12/390
f 480/46/372 507/78/386 506/68/373
f 483/59/382 505/32/356 507/101/386
f 505/32/356 468/71/362 472/55/380
f 499/48/239 332/11/306 501/3/239
f 501/3/239 332/11/306 500/11/296
f 502/11/304 333/11/291 504/11/240
f 504/11/240 333/11/291 503/37/240
f 511/11/295 332/11/306 334/11/293
f 513/11/297 502/11/304 466/11/394
f 524/11/395 526/11/313 525/11/317
f 511/11/295 512/11/300 513/11/297
f 508/11/305 512/11/300 509/11/299
f 524/11/395 521/11/316 520/11/294
f 514/11/292 509/11/299 515/11/310
f 514/11/292 517/11/302 516/11/307
f 526/11/313 342/11/318 525/11/317
f 523/11/396 524/11/395 522/11/319
f 510/11/301 520/11/294 521/11/316
f 518/11/309 517/11/302 519/11/303
f 529/11/308 519/11/303 528/11/312
f 509/11/299 510/11/301 515/11/310
f 276/11/246 416/11/245 414/11/247
f 277/11/249 417/11/397 415/11/249
f 337/11/250 276/11/246 414/11/247
f 23/11/252 275/11/251 337/11/250
f 278/11/245 415/11/249 416/11/245
f 531/80/398 540/11/399 537/81/400
f 540/11/399 542/83/401 537/82/400
f 530/10/290 538/84/402 536/5/289
f 532/29/403 537/81/400 538/102/402
f 539/85/404 535/86/405 534/1/288
f 541/11/406 533/11/407 535/11/405
f 536/5/289 544/3/408 543/5/409
f 538/75/402 542/83/401 544/103/408
f 547/11/410 546/11/132 545/11/132
f 298/11/266 545/11/265 295/11/265
f 549/11/411 548/11/412 547/11/410
f 298/11/266 549/11/269 547/11/413
f 551/11/132 550/11/414 549/11/411
f 304/11/272 549/11/269 301/11/270
f 551/11/132 553/11/132 552/11/132
f 307/11/273 551/11/272 304/11/272
f 311/11/275 555/11/274 312/11/274
f 309/11/276 553/11/273 307/11/273
f 312/11/274 554/11/276 309/11/276
f 555/11/132 552/11/132 554/11/132
f 553/11/132 554/11/132 552/11/132
f 558/88/277 557/87/7 556/89/7
f 560/91/28 559/90/277 558/88/277
f 562/75/278 561/92/28 560/91/28
f 564/93/279 563/76/278 562/75/278
f 566/2/280 565/94/279 564/93/279
f 568/96/281 567/95/280 566/2/280
f 565/18/132 569/14/132 557/22/132
f 570/98/282 569/97/281 568/96/281
f 556/100/7 571/99/282 570/98/282
f 22/11/281 417/11/397 279/11/283
f 338/11/415 22/11/281 330/11/281
f 338/11/415 330/11/281 527/11/416
f 330/11/281 340/11/417 527/11/416
f 340/11/417 342/11/418 527/11/416
f 343/12/279 331/11/279 24/9/279
f 284/1/1 289/85/259 4/2/2
f 252/4/4 293/5/419 286/5/5
f 284/8/7 2/98/7 1/2/7
f 1/2/7 280/104/7 282/6/7
f 282/6/7 281/105/7 283/7/7
f 283/7/7 285/106/7 284/8/7
f 284/8/7 1/2/7 282/6/7
f 1/9/8 3/4/6 286/5/5
f 7/11/10 11/11/20 259/11/11
f 265/11/13 19/11/44 8/11/14
f 258/11/16 256/11/15 244/11/17
f 200/9/19 10/9/20 11/12/20
f 5/3/27 8/3/14 9/4/28
f 17/11/29 263/11/34 261/11/30
f 10/9/20 12/9/32 13/12/31
f 13/11/31 261/11/30 259/11/11
f 12/9/32 16/9/29 17/12/29
f 17/11/29 25/11/45 274/11/33
f 264/11/25 273/11/244 18/11/36
f 8/3/14 19/3/44 20/4/28
f 15/11/37 268/11/243 271/11/38
f 265/11/13 269/11/242 267/11/43
f 16/9/29 24/9/45 25/12/45
f 18/11/36 21/11/41 266/11/40
f 36/13/46 35/14/52 40/14/47
f 37/15/49 36/13/46 39/13/48
f 34/16/51 41/16/54 40/14/47
f 33/17/53 42/17/56 41/16/54
f 33/17/53 32/18/58 43/18/55
f 31/19/57 44/19/60 43/18/55
f 31/19/57 30/20/62 45/20/59
f 29/21/61 46/21/69 45/20/59
f 26/22/63 49/22/66 48/23/64
f 37/15/49 38/15/50 49/22/66
f 28/24/67 27/23/65 48/23/64
f 29/21/61 28/24/67 47/24/68
f 44/19/60 56/19/75 55/18/70
f 42/17/56 43/18/55 55/18/70
f 41/16/54 42/17/56 54/17/71
f 45/20/59 46/21/69 58/21/73
f 44/19/60 45/20/59 57/20/74
f 40/14/47 52/14/81 51/13/76
f 39/13/48 51/13/76 50/15/77
f 48/23/64 60/23/80 59/24/78
f 48/23/64 49/22/66 61/22/79
f 47/24/68 59/24/78 58/21/73
f 38/15/50 50/15/77 61/22/79
f 40/14/47 41/16/54 53/16/72
f 56/19/75 68/19/92 67/18/82
f 58/21/73 59/24/78 71/24/83
f 60/23/80 61/22/79 73/22/85
f 52/14/81 53/16/72 65/16/87
f 53/16/72 54/17/71 66/17/89
f 58/21/73 70/21/84 69/20/90
f 54/17/71 55/18/70 67/18/82
f 52/14/81 64/14/88 63/13/91
f 59/24/78 60/23/80 72/23/86
f 56/19/75 57/20/74 69/20/90
f 50/15/77 62/15/93 73/22/85
f 51/13/76 63/13/91 62/15/93
f 63/13/91 75/13/104 74/15/94
f 68/19/92 80/19/105 79/18/95
f 70/21/84 71/24/83 83/24/96
f 72/23/86 73/22/85 85/22/98
f 64/14/88 65/16/87 77/16/100
f 65/16/87 66/17/89 78/17/102
f 70/21/84 82/21/97 81/20/103
f 66/17/89 67/18/82 79/18/95
f 64/14/88 76/14/101 75/13/104
f 71/24/83 72/23/86 84/23/99
f 69/20/90 81/20/103 80/19/105
f 62/15/93 74/15/94 85/22/98
f 85/22/98 74/15/94 86/15/106
f 74/15/94 75/13/104 87/13/108
f 79/18/95 80/19/105 92/19/109
f 82/21/97 83/24/96 95/24/111
f 84/23/99 85/22/98 97/22/107
f 76/14/101 77/16/100 89/16/114
f 77/16/100 78/17/102 90/17/116
f 81/20/103 82/21/97 94/21/112
f 78/17/102 79/18/95 91/18/110
f 75/13/104 76/14/101 88/14/115
f 83/24/96 84/23/99 96/23/113
f 80/19/105 81/20/103 93/20/117
f 26/22/63 27/23/65 28/24/67
f 28/24/67 29/21/61 30/20/62
f 30/20/62 31/19/57 32/18/58
f 32/18/58 33/17/53 34/16/51
f 34/16/51 35/14/52 36/13/46
f 36/13/46 37/15/49 26/22/63
f 26/22/63 28/24/67 30/20/62
f 30/20/62 32/18/58 34/16/51
f 34/16/51 36/13/46 26/22/63
f 104/11/118 110/11/124 109/11/119
f 102/11/120 108/11/120 111/11/121
f 106/11/122 112/11/122 113/11/123
f 105/11/121 111/11/121 110/11/124
f 103/11/119 109/11/119 112/11/122
f 122/11/125 123/11/126 117/11/126
f 124/11/127 125/11/128 119/11/128
f 121/11/129 120/11/130 114/11/130
f 123/11/126 124/11/127 118/11/127
f 120/11/130 122/11/125 116/11/125
f 120/11/131 121/11/131 113/11/131
f 103/11/132 116/11/132 117/11/132
f 125/11/131 124/11/131 111/11/131
f 122/11/131 120/11/131 112/11/131
f 117/11/132 118/11/132 105/11/132
f 107/11/132 115/11/132 114/11/132
f 123/11/131 122/11/131 109/11/131
f 121/11/133 115/11/133 107/11/133
f 105/11/132 118/11/132 119/11/132
f 119/11/134 125/11/135 108/11/135
f 106/11/132 114/11/132 116/11/132
f 111/11/131 124/11/131 123/11/131
f 152/11/137 153/11/138 142/11/138
f 147/11/139 148/11/140 135/11/140
f 140/11/141 139/11/142 128/11/142
f 148/11/140 149/11/143 136/11/143
f 139/11/142 127/11/144 129/11/144
f 149/11/143 150/11/145 137/11/145
f 127/11/144 143/11/146 130/11/146
f 138/11/132 137/11/132 182/11/132
f 143/11/146 144/11/147 131/11/147
f 144/11/147 145/11/148 132/11/148
f 145/11/148 146/11/149 133/11/149
f 151/11/150 152/11/137 141/11/137
f 146/11/149 147/11/139 134/11/139
f 171/11/151 181/11/151 180/11/152
f 164/11/153 176/11/153 175/11/154
f 157/11/155 168/11/155 169/11/156
f 165/11/157 177/11/157 176/11/153
f 158/11/158 154/11/161 168/11/155
f 166/11/159 178/11/159 177/11/157
f 159/11/160 155/11/160 154/11/161
f 167/11/162 179/11/162 178/11/159
f 160/11/163 172/11/165 155/11/160
f 161/11/164 173/11/164 172/11/165
f 162/11/166 174/11/166 173/11/164
f 170/11/152 180/11/152 179/11/162
f 163/11/154 175/11/154 174/11/166
f 139/11/131 140/11/131 169/11/131
f 143/11/131 127/11/131 154/11/131
f 141/11/132 170/11/132 167/11/132
f 128/11/132 157/11/132 156/11/132
f 141/11/132 142/11/132 171/11/132
f 129/11/132 158/11/132 157/11/132
f 144/11/131 143/11/131 155/11/131
f 130/11/132 159/11/132 158/11/132
f 144/11/131 172/11/131 173/11/131
f 131/11/132 160/11/132 159/11/132
f 126/11/167 156/11/167 169/11/168
f 145/11/131 173/11/131 174/11/131
f 131/11/132 132/11/132 161/11/132
f 146/11/131 174/11/131 175/11/131
f 132/11/132 133/11/132 162/11/132
f 148/11/131 147/11/131 175/11/131
f 133/11/132 134/11/132 163/11/132
f 148/11/131 176/11/131 177/11/131
f 135/11/132 164/11/132 163/11/132
f 149/11/131 177/11/131 178/11/131
f 135/11/132 136/11/132 165/11/132
f 150/11/131 178/11/131 179/11/131
f 136/11/132 137/11/132 166/11/132
f 152/11/131 151/11/131 179/11/131
f 137/11/132 138/11/132 167/11/132
f 152/11/131 180/11/131 181/11/131
f 127/11/131 139/11/131 168/11/131
f 153/11/169 181/11/169 171/11/169
f 184/11/170 188/11/171 186/11/171
f 138/11/172 183/11/173 185/11/173
f 151/11/131 185/11/131 184/11/131
f 150/11/174 184/11/170 182/11/170
f 187/11/175 191/11/176 193/11/176
f 182/11/132 186/11/132 187/11/132
f 183/11/173 187/11/175 189/11/175
f 184/11/131 185/11/131 189/11/131
f 192/11/177 193/11/177 191/11/178
f 188/11/131 189/11/131 193/11/131
f 188/11/171 192/11/179 190/11/179
f 186/11/132 190/11/132 191/11/132
f 98/11/181 19/11/44 99/11/131
f 19/11/44 15/11/420 101/11/183
f 208/25/184 250/68/227 202/26/185
f 232/28/187 241/45/236 199/29/188
f 201/30/131 215/66/192 219/31/190
f 215/33/192 201/30/131 203/30/131
f 194/2/194 197/2/370 234/35/195
f 237/37/197 198/9/208 200/9/198
f 201/30/131 206/71/230 235/38/200
f 220/39/201 216/45/226 195/29/202
f 203/30/131 235/77/200 238/41/204
f 231/34/193 203/30/131 204/30/131
f 234/36/195 197/2/370 198/2/208
f 194/2/194 205/35/196 209/43/209
f 195/29/202 216/28/226 232/45/187
f 202/26/185 250/68/227 218/46/211
f 199/4/188 241/48/236 243/48/213
f 208/25/184 211/73/217 212/49/215
f 209/43/209 213/72/218 212/51/215
f 214/53/216 212/107/215 213/54/218
f 218/46/211 221/79/222 222/56/220
f 219/31/190 223/65/223 222/58/220
f 220/39/201 224/62/221 222/60/220
f 228/47/212 218/46/211 224/57/221
f 224/62/221 220/39/201 229/40/203
f 220/39/201 223/61/223 217/64/225
f 223/65/223 219/31/190 215/66/192
f 250/68/227 208/25/184 214/50/216
f 251/70/228 214/53/216 210/55/219
f 210/55/219 213/54/218 207/29/229
f 213/72/218 209/43/209 205/35/196
f 208/25/184 226/27/186 227/3/231
f 211/52/217 227/98/231 225/44/210
f 234/35/195 236/63/232 207/63/229
f 236/29/232 235/38/200 206/71/230
f 216/28/226 217/75/225 233/75/233
f 217/76/225 215/33/192 231/34/193
f 237/35/197 239/63/234 236/63/232
f 239/29/234 238/41/204 235/77/200
f 232/28/187 233/75/233 242/75/235
f 233/76/233 231/34/193 240/42/205
f 244/11/206 245/11/237 242/11/235
f 245/3/237 243/48/213 241/48/236
f 246/11/207 238/11/204 239/11/234
f 248/12/238 239/12/234 237/37/197
f 218/46/211 250/68/227 251/78/228
f 221/59/222 251/101/228 249/32/191
f 206/71/230 201/30/131 249/32/191
f 246/11/26 253/11/12 258/11/16
f 256/11/15 258/11/16 257/11/23
f 257/11/23 258/11/16 253/11/12
f 269/11/242 265/11/13 266/11/40
f 254/11/21 253/11/12 259/11/11
f 259/11/11 261/11/30 262/11/24
f 21/11/41 272/11/39 271/11/38
f 269/11/242 271/11/38 268/11/243
f 255/11/22 266/11/40 265/11/13
f 262/11/24 261/11/30 263/11/34
f 264/11/25 263/11/34 274/11/33
f 100/11/245 278/11/245 276/11/246
f 101/11/248 279/11/283 277/11/249
f 14/11/250 98/11/247 276/11/246
f 99/11/249 277/11/249 278/11/245
f 290/11/253 283/7/262 281/80/254
f 280/10/9 286/5/5 288/84/257
f 282/29/258 288/102/257 287/81/255
f 289/85/259 284/1/1 285/86/260
f 291/11/261 285/11/260 283/11/262
f 286/5/5 293/5/419 294/3/263
f 288/75/257 294/103/263 292/83/256
f 297/11/131 300/11/267 299/11/264
f 296/11/265 299/11/413 298/11/266
f 300/11/267 303/11/271 302/11/268
f 298/11/266 299/11/413 302/11/269
f 303/11/271 306/11/131 305/11/131
f 302/11/269 305/11/272 304/11/272
f 305/11/272 308/11/273 307/11/273
f 313/11/274 306/11/275 311/11/275
f 308/11/273 310/11/276 309/11/276
f 310/11/276 313/11/274 312/11/274
f 315/87/7 317/90/277 316/88/277
f 317/90/277 319/92/28 318/91/28
f 319/92/28 321/76/278 320/75/278
f 321/76/278 323/94/279 322/93/279
f 323/94/279 325/95/280 324/2/280
f 325/95/280 327/97/281 326/96/281
f 319/21/131 317/108/131 315/22/131
f 315/22/131 329/109/131 327/14/131
f 327/14/131 325/110/131 323/18/131
f 323/18/131 321/111/131 319/21/131
f 319/21/131 315/22/131 327/14/131
f 327/97/281 329/99/282 328/98/282
f 329/99/282 315/112/7 314/100/7
f 101/11/248 15/11/284 22/11/281
f 4/2/2 539/85/404 534/1/288
f 536/5/289 543/5/409 252/4/4
f 1/2/7 2/98/7 534/8/7
f 534/8/7 535/106/7 533/7/7
f 533/7/7 531/105/7 532/6/7
f 532/6/7 530/104/7 1/2/7
f 1/2/7 534/8/7 533/7/7
f 536/5/289 3/4/6 1/9/8
f 333/11/291 508/11/305 514/11/292
f 334/11/293 341/11/320 520/11/294
f 500/11/296 511/11/295 513/11/297
f 335/12/20 10/9/20 200/9/19
f 9/4/28 334/3/293 332/3/306
f 516/11/307 518/11/309 339/11/29
f 336/12/31 12/9/32 10/9/20
f 514/11/292 516/11/307 336/11/31
f 339/12/29 16/9/29 12/9/32
f 529/11/308 343/11/45 339/11/29
f 519/11/303 510/11/301 340/11/311
f 20/4/28 341/3/320 334/3/293
f 526/11/313 523/11/396 338/11/314
f 522/11/319 524/11/395 520/11/294
f 343/12/45 24/9/45 16/9/29
f 340/11/311 510/11/301 521/11/316
f 354/13/321 39/13/324 357/14/322
f 355/15/323 356/15/343 39/13/324
f 357/14/322 41/16/326 352/16/325
f 41/16/326 358/17/337 351/17/327
f 351/17/327 358/17/337 359/18/55
f 359/18/55 360/19/329 349/19/328
f 360/19/329 361/20/331 348/20/330
f 361/20/331 362/21/339 347/21/52
f 345/23/332 364/23/335 365/22/66
f 365/22/66 356/15/343 355/15/323
f 346/24/334 363/24/336 364/23/335
f 347/21/52 362/21/339 363/24/336
f 371/18/70 372/19/346 360/19/329
f 358/17/337 370/17/338 371/18/70
f 41/16/326 369/16/345 370/17/338
f 361/20/331 373/20/340 374/21/81
f 360/19/329 372/19/346 373/20/340
f 367/13/341 368/14/73 357/14/322
f 366/15/342 367/13/341 39/13/324
f 375/24/344 376/23/347 364/23/335
f 364/23/335 376/23/347 377/22/79
f 374/21/81 375/24/344 363/24/336
f 377/22/79 366/15/342 356/15/343
f 357/14/322 368/14/73 369/16/345
f 383/18/82 384/19/89 372/19/346
f 374/21/81 386/21/88 387/24/91
f 376/23/347 388/23/93 389/22/85
f 368/14/73 380/14/84 381/16/90
f 369/16/345 381/16/90 382/17/92
f 385/20/87 386/21/88 374/21/81
f 370/17/338 382/17/92 383/18/82
f 379/13/83 380/14/84 368/14/73
f 375/24/344 387/24/91 388/23/93
f 384/19/89 385/20/87 373/20/340
f 389/22/85 378/15/86 366/15/342
f 378/15/86 379/13/83 367/13/341
f 390/15/99 391/13/96 379/13/83
f 395/18/95 396/19/102 384/19/89
f 386/21/88 398/21/101 399/24/104
f 388/23/93 400/23/94 401/22/98
f 380/14/84 392/14/97 393/16/348
f 381/16/90 393/16/348 394/17/105
f 397/20/349 398/21/101 386/21/88
f 382/17/92 394/17/105 395/18/95
f 391/13/96 392/14/97 380/14/84
f 387/24/91 399/24/104 400/23/94
f 396/19/102 397/20/349 385/20/87
f 401/22/98 390/15/99 378/15/86
f 401/22/98 413/22/106 402/15/107
f 390/15/99 402/15/107 403/13/113
f 395/18/95 407/18/109 408/19/110
f 398/21/101 410/21/114 411/24/115
f 400/23/94 412/23/108 413/22/106
f 392/14/97 404/14/111 405/16/112
f 393/16/348 405/16/112 406/17/117
f 397/20/349 409/20/116 410/21/114
f 394/17/105 406/17/117 407/18/109
f 391/13/96 403/13/113 404/14/111
f 399/24/104 411/24/115 412/23/108
f 396/19/102 408/19/110 409/20/116
f 346/24/334 345/23/332 344/22/333
f 344/22/333 355/15/323 354/13/321
f 354/13/321 353/14/61 352/16/325
f 352/16/325 351/17/327 350/18/58
f 350/18/58 349/19/328 348/20/330
f 348/20/330 347/21/52 346/24/334
f 346/24/334 344/22/333 354/13/321
f 354/13/321 352/16/325 350/18/58
f 350/18/58 348/20/330 346/24/334
f 419/11/119 420/11/124 104/11/118
f 421/11/121 418/11/120 102/11/120
f 423/11/123 422/11/122 106/11/122
f 420/11/124 421/11/121 105/11/121
f 422/11/122 419/11/119 103/11/119
f 117/11/126 427/11/126 426/11/125
f 119/11/128 429/11/128 428/11/127
f 114/11/130 424/11/130 425/11/129
f 118/11/127 428/11/127 427/11/126
f 116/11/125 426/11/125 424/11/130
f 423/11/132 425/11/132 424/11/132
f 421/11/132 428/11/132 429/11/132
f 422/11/132 424/11/132 426/11/132
f 419/11/132 426/11/132 427/11/132
f 107/11/133 115/11/133 425/11/133
f 418/11/135 429/11/135 119/11/134
f 421/11/132 420/11/132 427/11/132
f 142/11/138 443/11/138 442/11/137
f 135/11/140 438/11/140 437/11/139
f 128/11/142 431/11/142 432/11/141
f 136/11/143 439/11/143 438/11/140
f 129/11/144 430/11/144 431/11/142
f 137/11/145 440/11/145 439/11/143
f 130/11/146 433/11/146 430/11/144
f 131/11/147 434/11/147 433/11/146
f 132/11/148 435/11/148 434/11/147
f 133/11/149 436/11/149 435/11/148
f 141/11/137 442/11/137 441/11/150
f 134/11/139 437/11/139 436/11/149
f 456/11/152 457/11/151 171/11/151
f 451/11/154 452/11/153 164/11/153
f 447/11/156 446/11/155 157/11/155
f 452/11/153 453/11/157 165/11/157
f 446/11/155 444/11/161 158/11/158
f 453/11/157 454/11/159 166/11/159
f 444/11/161 445/11/160 159/11/160
f 454/11/159 455/11/162 167/11/162
f 445/11/160 448/11/165 160/11/163
f 448/11/165 449/11/164 161/11/164
f 449/11/164 450/11/166 162/11/166
f 455/11/162 456/11/152 170/11/152
f 450/11/166 451/11/154 163/11/154
f 431/11/132 446/11/132 447/11/132
f 433/11/132 445/11/132 444/11/132
f 434/11/132 448/11/132 445/11/132
f 449/11/132 448/11/132 434/11/132
f 447/11/168 156/11/167 126/11/167
f 450/11/132 449/11/132 435/11/132
f 451/11/132 450/11/132 436/11/132
f 438/11/132 452/11/132 451/11/132
f 453/11/132 452/11/132 438/11/132
f 454/11/132 453/11/132 439/11/132
f 455/11/132 454/11/132 440/11/132
f 442/11/132 456/11/132 455/11/132
f 457/11/132 456/11/132 442/11/132
f 430/11/132 444/11/132 446/11/132
f 171/11/169 457/11/169 443/11/169
f 186/11/171 460/11/171 458/11/170
f 459/11/173 183/11/173 138/11/172
f 458/11/132 459/11/132 441/11/132
f 182/11/170 458/11/170 440/11/174
f 463/11/176 191/11/176 187/11/175
f 461/11/175 187/11/175 183/11/173
f 458/11/132 460/11/132 461/11/132
f 191/11/178 463/11/177 462/11/177
f 460/11/132 462/11/132 463/11/132
f 190/11/179 462/11/179 460/11/171
f 414/11/351 416/11/132 415/11/132
f 417/11/352 338/11/421 341/11/320
f 202/26/185 506/68/373 470/25/353
f 199/29/188 497/45/375 488/28/354
f 481/31/355 477/66/357 464/30/132
f 477/33/357 487/34/366 465/30/132
f 490/35/358 197/2/370 194/2/194
f 493/37/360 503/37/422 200/9/198
f 464/30/132 465/30/132 491/38/361
f 482/39/363 229/40/203 195/29/202
f 465/30/132 466/30/132 494/41/365
f 487/34/366 496/42/368 466/30/132
f 490/36/358 493/35/360 198/2/208
f 471/43/371 467/35/359 194/2/194
f 195/29/202 196/29/189 488/45/354
f 202/26/185 228/47/212 480/46/372
f 199/4/188 6/4/214 499/48/374
f 470/25/353 476/50/379 474/49/376
f 471/43/371 473/52/377 474/51/376
f 475/54/378 474/107/376 476/53/379
f 480/46/372 486/57/384 484/56/381
f 481/31/355 483/59/382 484/58/381
f 482/39/363 485/61/383 484/60/381
f 228/47/212 230/2/224 486/57/384
f 229/40/203 482/39/363 486/62/384
f 479/64/385 485/61/383 482/39/363
f 477/66/357 481/31/355 485/65/383
f 506/68/373 507/69/386 476/50/379
f 507/70/386 505/32/356 472/55/380
f 469/29/387 475/54/378 472/55/380
f 467/35/359 471/43/371 475/72/378
f 470/25/353 473/73/377 227/3/231
f 473/52/377 471/43/371 225/44/210
f 469/63/387 492/63/388 490/35/358
f 468/71/362 491/38/361 492/29/388
f 489/75/389 479/75/385 478/28/364
f 487/34/366 477/33/357 479/76/385
f 492/63/388 495/63/390 493/35/360
f 491/77/361 494/41/365 495/29/390
f 498/75/391 489/75/389 488/28/354
f 496/42/368 487/34/366 489/76/389
f 498/11/391 501/11/392 500/11/367
f 497/48/375 499/48/374 501/3/392
f 502/11/369 504/11/393 495/11/390
f 504/12/393 503/37/422 493/37/360
f 480/46/372 483/79/382 507/78/386
f 483/59/382 481/31/355 505/32/356
f 505/32/356 464/30/132 468/71/362
f 513/11/297 508/11/305 502/11/304
f 511/11/295 510/11/301 512/11/300
f 508/11/305 513/11/297 512/11/300
f 524/11/395 525/11/317 521/11/316
f 514/11/292 508/11/305 509/11/299
f 514/11/292 515/11/310 517/11/302
f 526/11/313 527/11/315 342/11/318
f 523/11/396 526/11/313 524/11/395
f 510/11/301 511/11/295 520/11/294
f 518/11/309 516/11/307 517/11/302
f 529/11/308 518/11/309 519/11/303
f 276/11/246 278/11/245 416/11/245
f 277/11/249 279/11/283 417/11/397
f 337/11/250 275/11/251 276/11/246
f 278/11/245 277/11/249 415/11/249
f 531/80/398 533/7/407 540/11/399
f 530/10/290 532/12/403 538/84/402
f 532/29/403 531/80/398 537/81/400
f 539/85/404 541/75/406 535/86/405
f 541/11/406 540/11/399 533/11/407
f 536/5/289 538/3/402 544/3/408
f 538/75/402 537/82/400 542/83/401
f 547/11/410 548/11/412 546/11/132
f 298/11/266 547/11/413 545/11/265
f 549/11/411 550/11/414 548/11/412
f 298/11/266 301/11/270 549/11/269
f 551/11/132 552/11/132 550/11/414
f 304/11/272 551/11/272 549/11/269
f 307/11/273 553/11/273 551/11/272
f 311/11/275 552/11/275 555/11/274
f 309/11/276 554/11/276 553/11/273
f 312/11/274 555/11/274 554/11/276
f 558/88/277 559/90/277 557/87/7
f 560/91/28 561/92/28 559/90/277
f 562/75/278 563/76/278 561/92/28
f 564/93/279 565/94/279 563/76/278
f 566/2/280 567/95/280 565/94/279
f 568/96/281 569/97/281 567/95/280
f 557/22/132 559/108/132 561/21/132
f 561/21/132 563/111/132 565/18/132
f 565/18/132 567/110/132 569/14/132
f 569/14/132 571/109/132 557/22/132
f 557/22/132 561/21/132 565/18/132
f 570/98/282 571/99/282 569/97/281
f 556/100/7 557/112/7 571/99/282
f 22/11/281 338/11/415 417/11/397
