# Blender 4.4.0
# www.blender.org
mtllib Shotgun_barrel.mtl
g Shotgun_barrel_Mesh
v 0.011525 0.017619 -0.000841
v 0.005332 0.018335 0.651449
v 0.012677 0.016366 -0.078772
v 0.000000 0.023712 0.651449
v 0.020022 0.018335 -0.078772
v 0.025399 0.023712 -0.078772
v 0.000000 0.038402 0.651449
v 0.027367 0.031057 -0.078772
v 0.005332 0.043779 0.651449
v 0.025399 0.038402 -0.078772
v 0.012677 0.045747 0.651449
v 0.020022 0.043779 -0.078772
v 0.020022 0.043779 0.651449
v 0.012677 0.045747 -0.078772
v 0.025399 0.038402 0.651449
v 0.005332 0.043779 -0.078772
v 0.027367 0.031057 0.651449
v 0.000000 0.038402 -0.078772
v 0.025399 0.023712 0.651449
v 0.000000 0.023712 -0.078772
v 0.012677 0.016366 0.651449
v 0.020022 0.018335 0.651449
v 0.005332 0.018335 -0.078772
v 0.000000 0.010741 0.218635
v 0.011525 0.021142 0.205332
v 0.000000 0.021142 0.205332
v 0.011525 0.003369 0.010580
v 0.011525 0.015941 0.211984
v 0.000000 0.015941 0.211984
v 0.011525 0.011439 0.008423
v 0.011525 0.018542 0.208658
v 0.000000 0.018542 0.208658
v 0.011525 -0.006443 0.008007
v -0.000000 -0.009726 0.006816
v 0.009210 -0.008764 0.007231
v 0.011525 0.013580 0.215004
v 0.009210 0.011572 0.217572
v 0.000000 0.017619 -0.000841
v 0.000000 0.003369 0.010580
v 0.000000 0.011439 0.008423
v -0.000000 -0.006443 0.008544
v -0.000000 -0.008764 0.008062
v -0.011525 0.017619 -0.000841
v -0.005332 0.018335 0.651449
v -0.012677 0.016366 -0.078772
v -0.020022 0.018335 -0.078772
v -0.025399 0.023712 -0.078772
v -0.027367 0.031057 -0.078772
v -0.005332 0.043779 0.651449
v -0.025399 0.038402 -0.078772
v -0.012677 0.045747 0.651449
v -0.020022 0.043779 -0.078772
v -0.020022 0.043779 0.651449
v -0.012677 0.045747 -0.078772
v -0.025399 0.038402 0.651449
v -0.005332 0.043779 -0.078772
v -0.027367 0.031057 0.651449
v -0.025399 0.023712 0.651449
v -0.012677 0.016366 0.651449
v -0.020022 0.018335 0.651449
v -0.005332 0.018335 -0.078772
v -0.011525 0.021142 0.205332
v -0.011525 0.003369 0.010580
v -0.011525 0.015941 0.211984
v -0.011525 0.011439 0.008423
v -0.011525 0.018542 0.208658
v -0.011525 -0.006443 0.008007
v -0.009210 -0.008764 0.007231
v -0.011525 0.013580 0.215004
v -0.009210 0.011572 0.217572
vn -0.5018 -0.8650 -0.0000
vn 0.3285 -0.6516 -0.6837
vn -0.3801 -0.6552 -0.6528
vn 1.0000 -0.0000 -0.0000
vn 0.6557 -0.3786 -0.6532
vn 0.7572 -0.0000 -0.6532
vn 0.5000 -0.8660 -0.0000
vn -0.0000 -0.7572 -0.6532
vn 0.3786 -0.6557 -0.6532
vn -0.0000 -1.0000 -0.0000
vn 0.8660 0.5000 -0.0000
vn 0.6557 0.3786 -0.6532
vn 0.5000 0.8660 -0.0000
vn 0.3786 0.6557 -0.6532
vn -0.0000 1.0000 -0.0000
vn -0.0000 0.7572 -0.6532
vn -0.5018 0.8650 -0.0000
vn -0.3801 0.6552 -0.6528
vn -0.0000 0.9519 0.3063
vn -0.0000 0.7049 -0.7093
vn -0.0000 -0.0000 1.0000
vn 0.8660 -0.5000 -0.0000
vn 0.8819 -0.4693 0.0454
vn 0.7071 0.5570 0.4355
vn 0.7940 0.1434 0.5908
vn 0.8429 0.4239 0.3314
vn -0.0000 0.7878 0.6159
vn -0.0000 0.7878 0.6160
vn 0.4283 -0.2563 0.8666
vn 0.3812 -0.9202 0.0890
vn -0.0000 -0.9954 0.0962
vn -0.0494 0.3743 -0.9260
vn -0.0000 0.2280 -0.9737
vn -0.0446 0.2893 -0.9562
vn -0.0127 -0.0142 -0.9998
vn -0.0000 -0.0283 -0.9996
vn -0.0000 -0.5826 -0.8128
vn -0.0000 -0.8319 -0.5549
vn -0.0000 0.7915 -0.6111
vn -0.0000 0.5218 -0.8531
vn 0.5018 -0.8650 -0.0000
vn 0.3801 -0.6552 -0.6528
vn -0.6557 -0.3786 -0.6532
vn -1.0000 -0.0000 -0.0000
vn -0.7572 -0.0000 -0.6532
vn -0.5000 -0.8660 -0.0000
vn -0.3786 -0.6557 -0.6532
vn -0.8660 0.5000 -0.0000
vn -0.6557 0.3786 -0.6532
vn -0.5000 0.8660 -0.0000
vn -0.3786 0.6557 -0.6532
vn 0.5018 0.8650 -0.0000
vn 0.3801 0.6552 -0.6528
vn -0.8660 -0.5000 -0.0000
vn -0.8819 -0.4693 0.0454
vn -0.7071 0.5570 0.4355
vn -0.8429 0.4239 0.3314
vn -0.7940 0.1434 0.5908
vn -0.0000 -0.3071 0.9517
vn -0.3812 -0.9202 0.0890
vn -0.4283 -0.2563 0.8665
vn 0.0494 0.3743 -0.9260
vn 0.0446 0.2893 -0.9562
vn 0.0127 -0.0142 -0.9998
vn -0.0000 -0.9036 0.4284
vt 0.130000 0.457846
vt 0.042154 0.370000
vt 0.490000 0.250000
vt 0.457846 0.370000
vt 0.370000 0.457846
vt 0.250000 0.490000
vt 0.457846 0.130000
vt 0.370000 0.042154
vt 0.250000 0.010000
vt 0.130000 0.042154
vt 0.042154 0.130000
vt 0.000000 0.000000
vt 0.156250 0.062500
vt 0.312500 0.125000
vt 0.043060 0.017224
vt 0.375000 0.250000
vt 0.443884 0.250000
vt 0.172210 0.068884
vt 0.010000 0.250000
s 1
f 2/1/1 20/2/2 23/1/3
f 17/3/4 6/4/5 8/3/6
f 22/5/7 3/6/8 5/5/9
f 21/6/10 23/1/3 3/6/8
f 15/7/11 8/3/6 10/7/12
f 13/8/13 10/7/12 12/8/14
f 11/9/15 12/8/14 14/9/16
f 9/10/17 14/9/16 16/10/18
f 7/11/19 16/10/18 18/11/20
f 19/4/21 11/9/21 2/1/21
f 19/4/22 5/5/9 6/4/5
f 33/12/23 28/12/24 36/12/25
f 30/12/4 25/12/26 31/12/24
f 32/13/27 28/12/24 31/12/24
f 29/14/28 37/15/29 36/12/25
f 26/12/27 31/12/24 25/12/26
f 27/12/4 31/12/24 28/12/24
f 36/12/25 35/12/30 33/12/23
f 37/16/29 34/17/31 35/16/30
f 35/12/32 41/12/33 33/12/34
f 27/12/35 41/12/33 39/12/36
f 30/12/37 38/12/38 1/12/38
f 27/12/35 40/12/37 30/12/37
f 35/16/32 34/17/39 42/16/40
f 3/6/8 16/10/18 8/3/6
f 20/2/2 44/1/41 61/1/42
f 47/4/43 57/3/44 48/3/45
f 45/6/8 60/5/46 46/5/47
f 61/1/42 59/6/10 45/6/8
f 48/3/45 55/7/48 50/7/49
f 50/7/49 53/8/50 52/8/51
f 52/8/51 51/9/15 54/9/16
f 54/9/16 49/10/52 56/10/53
f 56/10/53 7/11/19 18/11/20
f 59/6/21 49/10/21 57/3/21
f 46/5/47 58/4/54 47/4/43
f 67/12/55 64/12/56 63/12/44
f 65/12/44 62/12/57 43/12/44
f 64/12/56 32/13/27 66/12/56
f 69/12/58 24/18/59 29/14/28
f 66/12/56 26/12/27 62/12/57
f 63/12/44 66/12/56 65/12/44
f 68/12/60 69/12/58 67/12/55
f 34/17/31 70/16/61 68/16/60
f 41/12/33 68/12/62 67/12/63
f 63/12/64 41/12/33 67/12/63
f 38/12/38 65/12/37 43/12/38
f 40/12/37 63/12/64 65/12/37
f 68/16/62 42/16/40 34/17/39
f 47/4/43 54/9/16 61/1/42
f 2/1/1 4/2/65 20/2/2
f 17/3/4 19/4/22 6/4/5
f 22/5/7 21/6/10 3/6/8
f 21/6/10 2/1/1 23/1/3
f 15/7/11 17/3/4 8/3/6
f 13/8/13 15/7/11 10/7/12
f 11/9/15 13/8/13 12/8/14
f 9/10/17 11/9/15 14/9/16
f 7/11/19 9/10/17 16/10/18
f 21/6/21 22/5/21 19/4/21
f 19/4/21 17/3/21 15/7/21
f 15/7/21 13/8/21 11/9/21
f 11/9/21 9/10/21 7/11/21
f 7/11/21 4/2/21 2/1/21
f 2/1/21 21/6/21 19/4/21
f 19/4/21 15/7/21 11/9/21
f 11/9/21 7/11/21 2/1/21
f 19/4/22 22/5/7 5/5/9
f 33/12/23 27/12/4 28/12/24
f 30/12/4 1/12/4 25/12/26
f 32/13/27 29/14/28 28/12/24
f 36/12/25 28/12/24 29/14/28
f 29/14/28 24/18/59 37/15/29
f 26/12/27 32/13/27 31/12/24
f 27/12/4 30/12/4 31/12/24
f 36/12/25 37/12/29 35/12/30
f 37/16/29 24/17/59 34/17/31
f 35/12/32 42/12/40 41/12/33
f 27/12/35 33/12/34 41/12/33
f 30/12/37 40/12/37 38/12/38
f 27/12/35 39/12/36 40/12/37
f 6/4/5 5/5/9 3/6/8
f 3/6/8 23/1/3 20/19/2
f 20/19/2 18/11/20 16/10/18
f 16/10/18 14/9/16 12/8/14
f 12/8/14 10/7/12 8/3/6
f 8/3/6 6/4/5 3/6/8
f 3/6/8 20/19/2 16/10/18
f 16/10/18 12/8/14 8/3/6
f 20/2/2 4/2/65 44/1/41
f 47/4/43 58/4/54 57/3/44
f 45/6/8 59/6/10 60/5/46
f 61/1/42 44/1/41 59/6/10
f 48/3/45 57/3/44 55/7/48
f 50/7/49 55/7/48 53/8/50
f 52/8/51 53/8/50 51/9/15
f 54/9/16 51/9/15 49/10/52
f 56/10/53 49/10/52 7/11/19
f 58/4/21 60/5/21 59/6/21
f 59/6/21 44/1/21 4/2/21
f 4/2/21 7/11/21 49/10/21
f 49/10/21 51/9/21 53/8/21
f 53/8/21 55/7/21 57/3/21
f 57/3/21 58/4/21 59/6/21
f 59/6/21 4/2/21 49/10/21
f 49/10/21 53/8/21 57/3/21
f 46/5/47 60/5/46 58/4/54
f 67/12/55 69/12/58 64/12/56
f 65/12/44 66/12/56 62/12/57
f 64/12/56 29/14/28 32/13/27
f 29/14/28 64/12/56 69/12/58
f 69/12/58 70/15/61 24/18/59
f 66/12/56 32/13/27 26/12/27
f 63/12/44 64/12/56 66/12/56
f 68/12/60 70/12/61 69/12/58
f 34/17/31 24/17/59 70/16/61
f 41/12/33 42/12/40 68/12/62
f 63/12/64 39/12/36 41/12/33
f 38/12/38 40/12/37 65/12/37
f 40/12/37 39/12/36 63/12/64
f 45/6/8 46/5/47 47/4/43
f 47/4/43 48/3/45 50/7/49
f 50/7/49 52/8/51 54/9/16
f 54/9/16 56/10/53 18/11/20
f 18/11/20 20/19/2 61/1/42
f 61/1/42 45/6/8 47/4/43
f 47/4/43 50/7/49 54/9/16
f 54/9/16 18/11/20 61/1/42
