# Blender 4.5.3 LTS
# www.blender.org
mtllib Whrench.mtl
g Whrench_Mesh
v -0.013500 -0.090000 0.016500
v -0.012000 0.060000 0.015000
v -0.013500 -0.090000 -0.016500
v -0.012000 0.060000 -0.015000
v 0.013500 -0.090000 0.016500
v 0.012000 0.060000 0.015000
v 0.013500 -0.090000 -0.016500
v 0.012000 0.060000 -0.015000
v -0.013800 0.060000 0.036000
v -0.018000 0.060000 -0.018000
v 0.018000 0.060000 -0.018000
v 0.013800 0.060000 0.036000
v -0.013800 0.075000 0.036000
v -0.018000 0.075000 -0.018000
v 0.018000 0.075000 -0.018000
v 0.013800 0.075000 0.036000
v -0.012000 0.075000 0.009000
v -0.012000 0.075000 -0.015000
v 0.012000 0.075000 -0.015000
v 0.012000 0.075000 0.009000
v -0.012000 0.270000 0.009000
v -0.012000 0.270000 -0.015000
v 0.012000 0.270000 -0.015000
v 0.012000 0.270000 0.009000
v -0.021000 0.270000 0.075000
v -0.021000 0.270000 -0.024000
v 0.021000 0.270000 -0.024000
v 0.021000 0.270000 0.075000
v -0.021000 0.300000 0.030000
v -0.021000 0.300000 -0.024000
v 0.021000 0.300000 -0.024000
v 0.021000 0.300000 0.030000
v -0.018000 0.237000 0.045000
v -0.018000 0.266000 0.075000
v -0.018000 0.237000 -0.018000
v -0.018000 0.267000 -0.018000
v 0.018000 0.237000 0.045000
v 0.018000 0.266000 0.075000
v 0.018000 0.237000 -0.018000
v 0.018000 0.267000 -0.018000
v -0.015000 0.177000 0.036000
v -0.015000 0.237000 0.042000
v -0.015000 0.177000 0.012000
v -0.015000 0.237000 0.012000
v 0.015000 0.177000 0.036000
v 0.015000 0.237000 0.042000
v 0.015000 0.177000 0.012000
v 0.015000 0.237000 0.012000
v -0.018000 0.156000 0.039000
v -0.018000 0.177000 0.039000
v -0.018000 0.156000 -0.018000
v -0.018000 0.177000 -0.018000
v 0.018000 0.156000 0.039000
v 0.018000 0.177000 0.039000
v 0.018000 0.156000 -0.018000
v 0.018000 0.177000 -0.018000
v 0.000000 0.084000 0.012000
v 0.000000 0.075000 0.012000
v 0.000000 0.084000 0.015000
v 0.000000 0.156000 0.013500
v 0.004243 0.084000 0.016757
v 0.005303 0.156000 0.015697
v 0.006000 0.084000 0.021000
v 0.007500 0.156000 0.021000
v 0.004243 0.084000 0.025243
v 0.005303 0.156000 0.026303
v 0.000000 0.084000 0.027000
v 0.000000 0.156000 0.028500
v -0.004243 0.084000 0.025243
v -0.005303 0.156000 0.026303
v -0.006000 0.084000 0.021000
v -0.007500 0.156000 0.021000
v -0.004243 0.084000 0.016757
v -0.005303 0.156000 0.015697
v 0.006364 0.075000 0.014636
v 0.006364 0.084000 0.014636
v 0.009000 0.075000 0.021000
v 0.009000 0.084000 0.021000
v 0.006364 0.075000 0.027364
v 0.006364 0.084000 0.027364
v 0.000000 0.075000 0.030000
v 0.000000 0.084000 0.030000
v -0.006364 0.075000 0.027364
v -0.006364 0.084000 0.027364
v -0.009000 0.075000 0.021000
v -0.009000 0.084000 0.021000
v -0.006364 0.075000 0.014636
v -0.006364 0.084000 0.014636
v 0.000000 0.096000 0.013500
v 0.005303 0.096000 0.015697
v 0.007500 0.096000 0.021000
v 0.005303 0.096000 0.026303
v 0.000000 0.096000 0.028500
v -0.005303 0.096000 0.026303
v -0.007500 0.096000 0.021000
v -0.005303 0.096000 0.015697
v -0.013500 -0.120000 -0.016500
v -0.013500 -0.120000 0.016500
v 0.013500 -0.120000 -0.016500
v 0.013500 -0.120000 0.016500
v 0.021000 0.282000 -0.024000
v 0.021000 0.282000 0.075000
v -0.021000 0.282000 0.075000
v -0.021000 0.282000 -0.024000
v -0.018000 0.258000 0.075000
v -0.018000 0.258000 -0.018000
v 0.018000 0.258000 -0.018000
v 0.018000 0.258000 0.075000
vn -1.0000 0.0100 -0.0000
vn -0.0000 0.0100 -1.0000
vn 0.9999 0.0100 -0.0000
vn -0.0000 0.0100 0.9999
vn -0.0000 -0.0000 -1.0000
vn -0.0000 -1.0000 -0.0000
vn -0.0000 -0.0000 1.0000
vn -0.0000 1.0000 -0.0000
vn 0.9970 -0.0000 0.0775
vn -0.9970 -0.0000 0.0775
vn -1.0000 -0.0000 -0.0000
vn 1.0000 -0.0000 -0.0000
vn -0.0000 0.9285 0.3714
vn -0.0000 0.9999 0.0108
vn -0.0000 -0.0995 0.9950
vn -0.0000 -0.0612 0.9981
vn -0.7016 -0.1240 0.7016
vn -0.0000 -0.1240 0.9923
vn 0.7058 -0.0612 -0.7058
vn -0.0000 -0.0612 -0.9981
vn 0.7058 -0.0612 0.7058
vn 0.7016 -0.1240 0.7016
vn -0.7071 -0.0000 0.7071
vn 0.7071 -0.0000 -0.7071
vn 0.9981 -0.0612 -0.0000
vn -0.9981 -0.0612 -0.0000
vn -0.7016 -0.1240 -0.7016
vn -0.9923 -0.1240 -0.0000
vn -0.7058 -0.0612 -0.7058
vn -0.0000 -0.1240 -0.9923
vn 0.7071 -0.0000 0.7071
vn -0.7058 -0.0612 0.7058
vn -0.7071 -0.0000 -0.7071
vn 0.9923 -0.1240 -0.0000
vn 0.7016 -0.1240 -0.7016
vn -0.0000 -0.8192 0.5735
vt 0.625000 0.000000
vt 0.375000 0.250000
vt 0.375000 0.000000
vt 0.625000 0.250000
vt 0.375000 0.500000
vt 0.625000 0.500000
vt 0.375000 0.750000
vt 0.625000 0.750000
vt 0.375000 1.000000
vt 0.625000 1.000000
vt 0.875000 0.500000
vt 0.500000 0.250000
vt 0.500000 0.000000
vt 0.500000 0.500000
vt 0.500000 0.750000
vt 0.500000 1.000000
vt 0.125000 0.750000
vt 0.125000 0.500000
vt 0.500000 0.600000
vt 0.010000 0.250000
vt 0.250000 0.010000
vt 0.490000 0.250000
vt 1.000000 1.000000
vt 0.875000 0.600000
vt 1.000000 0.600000
vt 0.625000 0.600000
vt 0.250000 0.500000
vt 0.875000 1.000000
vt 0.750000 0.600000
vt 0.250000 0.600000
vt 0.750000 1.000000
vt 0.125000 0.600000
vt 0.000000 0.500000
vt 0.750000 0.500000
vt 0.375000 0.600000
vt 0.125000 1.000000
vt 1.000000 0.500000
vt 0.250000 1.000000
vt 0.000000 0.600000
vt 0.875000 0.750000
vt 0.419706 0.419706
vt 0.250000 0.490000
vt 0.080294 0.419706
vt 0.080294 0.080294
vt 0.419706 0.080294
vt 0.000000 1.000000
s 0
f 2/1/1 3/2/1 1/3/1
f 4/4/2 7/5/2 3/2/2
f 8/6/3 5/7/3 7/5/3
f 6/8/4 1/9/4 5/7/4
f 7/5/5 97/2/5 3/2/5
f 6/8/6 11/6/6 12/8/6
f 12/8/7 13/10/7 9/10/7
f 2/1/6 10/4/6 4/4/6
f 6/8/6 9/10/6 2/10/6
f 4/4/6 11/6/6 8/6/6
f 15/6/8 20/8/8 16/8/8
f 10/4/5 15/6/5 11/6/5
f 11/6/9 16/8/9 12/8/9
f 9/1/10 14/4/10 10/4/10
f 17/1/11 22/4/11 18/4/11
f 14/4/8 17/1/8 18/4/8
f 16/8/8 17/10/8 13/10/8
f 14/4/8 19/6/8 15/6/8
f 24/8/6 25/10/6 21/10/6
f 20/8/7 21/10/7 17/10/7
f 18/4/5 23/6/5 19/6/5
f 19/6/12 24/8/12 20/8/12
f 101/6/12 32/8/12 102/8/12
f 22/4/6 27/6/6 23/6/6
f 24/8/6 27/6/6 28/8/6
f 21/1/6 26/4/6 22/4/6
f 30/11/8 32/8/8 31/6/8
f 104/4/11 29/1/11 30/4/11
f 102/8/13 29/10/13 103/10/13
f 104/4/5 31/6/5 101/6/5
f 34/1/11 106/12/11 105/13/11
f 36/4/5 107/14/5 106/12/5
f 107/14/12 38/8/12 108/15/12
f 38/8/7 105/16/7 108/15/7
f 39/5/6 33/17/6 35/18/6
f 36/11/14 38/8/14 40/6/14
f 41/3/11 44/4/11 43/2/11
f 44/4/5 47/5/5 43/2/5
f 48/6/12 45/7/12 47/5/12
f 46/8/15 41/9/15 45/7/15
f 47/5/6 41/17/6 43/18/6
f 44/11/8 46/8/8 48/6/8
f 50/1/11 51/2/11 49/3/11
f 52/4/5 55/5/5 51/2/5
f 56/6/12 53/7/12 55/5/12
f 54/8/7 49/9/7 53/7/7
f 55/5/6 49/17/6 51/18/6
f 52/11/8 54/8/8 56/6/8
s 1
f 93/19/16 69/5/17 67/14/18
f 86/20/8 82/21/8 78/22/8
f 60/23/5 90/24/19 89/25/20
f 92/26/21 67/14/18 65/6/22
f 84/9/23 85/27/11 83/5/23
f 62/28/24 91/29/25 90/24/19
f 95/30/26 73/18/27 71/27/28
f 82/16/7 83/5/23 81/14/7
f 64/31/12 92/26/21 91/29/25
f 96/32/29 59/33/30 73/18/27
f 80/10/31 81/14/7 79/6/31
f 66/10/31 93/19/16 92/26/21
f 78/31/12 79/6/31 77/34/12
f 68/16/7 94/35/32 93/19/16
f 88/36/33 58/33/5 87/18/33
f 76/28/24 77/34/12 75/11/24
f 70/9/23 95/30/26 94/35/32
f 57/23/5 75/11/24 58/37/5
f 72/38/11 96/32/29 95/30/26
f 94/35/32 71/27/28 69/5/17
f 86/38/11 87/18/33 85/27/11
f 74/36/33 89/39/20 96/32/29
f 91/29/25 65/6/22 63/34/34
f 90/24/19 63/34/34 61/11/35
f 89/25/20 61/11/35 59/37/30
s 0
f 99/5/6 98/17/6 97/18/6
f 3/2/11 98/3/11 1/3/11
f 5/7/12 99/5/12 7/5/12
f 1/9/7 100/7/7 5/7/7
f 26/4/5 101/6/5 27/6/5
f 28/8/7 103/10/7 25/10/7
f 25/1/11 104/4/11 26/4/11
f 27/6/12 102/8/12 28/8/12
f 108/15/36 33/9/36 37/7/36
f 107/14/12 37/7/12 39/5/12
f 106/12/5 39/5/5 35/2/5
f 33/3/11 106/12/11 35/2/11
f 2/1/1 4/4/1 3/2/1
f 4/4/2 8/6/2 7/5/2
f 8/6/3 6/8/3 5/7/3
f 6/8/4 2/10/4 1/9/4
f 7/5/5 99/5/5 97/2/5
f 6/8/6 8/6/6 11/6/6
f 12/8/7 16/8/7 13/10/7
f 2/1/6 9/1/6 10/4/6
f 6/8/6 12/8/6 9/10/6
f 4/4/6 10/4/6 11/6/6
f 15/6/8 19/6/8 20/8/8
f 10/4/5 14/4/5 15/6/5
f 11/6/9 15/6/9 16/8/9
f 9/1/10 13/1/10 14/4/10
f 17/1/11 21/1/11 22/4/11
f 14/4/8 13/1/8 17/1/8
f 16/8/8 20/8/8 17/10/8
f 14/4/8 18/4/8 19/6/8
f 24/8/6 28/8/6 25/10/6
f 20/8/7 24/8/7 21/10/7
f 18/4/5 22/4/5 23/6/5
f 19/6/12 23/6/12 24/8/12
f 101/6/12 31/6/12 32/8/12
f 22/4/6 26/4/6 27/6/6
f 24/8/6 23/6/6 27/6/6
f 21/1/6 25/1/6 26/4/6
f 30/11/8 29/40/8 32/8/8
f 104/4/11 103/1/11 29/1/11
f 102/8/13 32/8/13 29/10/13
f 104/4/5 30/4/5 31/6/5
f 34/1/11 36/4/11 106/12/11
f 36/4/5 40/6/5 107/14/5
f 107/14/12 40/6/12 38/8/12
f 38/8/7 34/10/7 105/16/7
f 39/5/6 37/7/6 33/17/6
f 36/11/14 34/40/14 38/8/14
f 41/3/11 42/1/11 44/4/11
f 44/4/5 48/6/5 47/5/5
f 48/6/12 46/8/12 45/7/12
f 46/8/15 42/10/15 41/9/15
f 47/5/6 45/7/6 41/17/6
f 44/11/8 42/40/8 46/8/8
f 50/1/11 52/4/11 51/2/11
f 52/4/5 56/6/5 55/5/5
f 56/6/12 54/8/12 53/7/12
f 54/8/7 50/10/7 49/9/7
f 55/5/6 53/7/6 49/17/6
f 52/11/8 50/40/8 54/8/8
s 1
f 93/19/16 94/35/32 69/5/17
f 78/22/8 76/41/8 57/42/8
f 57/42/8 88/43/8 86/20/8
f 86/20/8 84/44/8 82/21/8
f 82/21/8 80/45/8 78/22/8
f 78/22/8 57/42/8 86/20/8
f 60/23/5 62/28/24 90/24/19
f 92/26/21 93/19/16 67/14/18
f 84/9/23 86/38/11 85/27/11
f 62/28/24 64/31/12 91/29/25
f 95/30/26 96/32/29 73/18/27
f 82/16/7 84/9/23 83/5/23
f 64/31/12 66/10/31 92/26/21
f 96/32/29 89/39/20 59/33/30
f 80/10/31 82/16/7 81/14/7
f 66/10/31 68/16/7 93/19/16
f 78/31/12 80/10/31 79/6/31
f 68/16/7 70/9/23 94/35/32
f 88/36/33 57/46/5 58/33/5
f 76/28/24 78/31/12 77/34/12
f 70/9/23 72/38/11 95/30/26
f 57/23/5 76/28/24 75/11/24
f 72/38/11 74/36/33 96/32/29
f 94/35/32 95/30/26 71/27/28
f 86/38/11 88/36/33 87/18/33
f 74/36/33 60/46/5 89/39/20
f 91/29/25 92/26/21 65/6/22
f 90/24/19 91/29/25 63/34/34
f 89/25/20 90/24/19 61/11/35
s 0
f 99/5/6 100/7/6 98/17/6
f 3/2/11 97/2/11 98/3/11
f 5/7/12 100/7/12 99/5/12
f 1/9/7 98/9/7 100/7/7
f 26/4/5 104/4/5 101/6/5
f 28/8/7 102/8/7 103/10/7
f 25/1/11 103/1/11 104/4/11
f 27/6/12 101/6/12 102/8/12
f 108/15/36 105/16/36 33/9/36
f 107/14/12 108/15/12 37/7/12
f 106/12/5 107/14/5 39/5/5
f 33/3/11 105/13/11 106/12/11
