# Blender 5.0.1
# www.blender.org
mtllib FireWood0.mtl
g FireWood0_Mesh
v -0.029200 -0.250000 -0.119668
v -0.029200 0.250000 -0.119668
v 0.036056 -0.250000 -0.118765
v 0.036056 0.250000 -0.118765
v 0.098856 -0.250000 -0.101003
v 0.098856 0.250000 -0.101003
v 0.131724 -0.250000 -0.066421
v 0.131724 0.250000 -0.066421
v 0.131724 0.125000 -0.066421
v 0.036778 0.250000 -0.123713
v 0.036792 -0.250097 -0.123710
v -0.029688 -0.250153 -0.124641
v -0.058675 0.122604 0.041267
v -0.064956 -0.250000 0.022384
v -0.059616 0.247331 0.031459
v -0.064899 -0.124570 0.022865
v -0.055860 -0.003053 0.066583
v -0.130894 -0.125000 -0.079527
v -0.130894 0.000000 -0.079527
v -0.128494 0.124046 -0.079477
v 0.001097 -0.124140 0.125258
v 0.000000 0.000000 0.128621
v 0.002407 0.123091 0.128572
v 0.027651 0.254276 0.094314
v 0.066354 -0.250000 0.028937
v 0.072457 -0.123968 0.036770
v 0.132784 -0.127474 -0.070682
v 0.132784 -0.002474 -0.070682
v 0.002095 0.253817 0.112439
v 0.000983 -0.250000 0.124295
v 0.065966 0.000129 0.053644
v 0.043332 0.124130 0.092030
v -0.130894 -0.250000 -0.079527
v -0.115309 0.248859 -0.077680
v -0.092467 -0.250000 -0.103650
v -0.092467 0.250000 -0.103650
v -0.029784 0.250000 -0.124633
v -0.029736 0.125077 -0.124638
v 0.081320 -0.127887 -0.118941
v 0.101375 -0.250125 -0.105321
v 0.101441 0.250000 -0.105284
v 0.135347 -0.250151 -0.069864
v 0.135348 0.250000 -0.069866
v 0.136408 -0.127550 -0.074126
v 0.136408 -0.002401 -0.074126
v 0.135348 0.125072 -0.069865
v 0.102388 -0.002414 -0.109611
v 0.101408 0.125061 -0.105302
v -0.029042 -0.008716 -0.129109
v -0.094752 0.250101 -0.108096
v -0.118553 0.249058 -0.081480
v -0.131566 0.124198 -0.083419
v -0.094674 0.125130 -0.108135
v -0.133858 0.000054 -0.083554
v -0.093602 -0.035474 -0.114046
v -0.133825 -0.125041 -0.083578
v -0.089898 -0.158330 -0.117285
v -0.133740 -0.250081 -0.083638
v -0.094546 -0.250141 -0.108195
vn -0.0025 0.9997 0.0246
vn 0.0002 1.0000 0.0005
vn -0.0021 0.9997 0.0238
vn -0.0134 -0.9997 0.0211
vn -0.0024 -0.9998 0.0194
vn -0.0133 -0.9997 0.0212
vn -0.8219 -0.0008 0.5696
vn -0.8103 -0.0000 0.5860
vn -0.8222 -0.0008 0.5691
vn -0.0000 -1.0000 -0.0000
vn 0.6890 0.0096 0.7247
vn 0.6890 -0.0092 0.7247
vn 0.0102 -0.9996 0.0260
vn 0.0035 -0.9995 0.0301
vn 0.0036 -0.9995 0.0304
vn 0.0035 0.9989 0.0465
vn 0.0048 0.9988 0.0481
vn 0.6892 0.0192 0.7243
vn -0.7871 0.0434 0.6153
vn -0.7576 0.0706 0.6489
vn -0.7872 0.0429 0.6152
vn 0.7716 0.0277 0.6356
vn 0.7398 -0.0322 0.6721
vn 0.8265 -0.0242 0.5624
vn 0.7724 -0.0180 0.6348
vn 0.8355 -0.0402 0.5480
vn 0.8030 -0.0426 0.5944
vn 0.8360 -0.0522 0.5462
vn -0.8329 -0.0129 0.5533
vn -0.8223 -0.0479 0.5671
vn -0.7430 -0.0043 0.6692
vn -0.8041 0.0675 0.5907
vn -0.8448 0.0581 0.5319
vn -0.8060 0.0536 0.5894
vn -0.8395 0.0502 0.5411
vn 0.0090 -0.9999 0.0146
vn 0.0105 -0.9996 0.0262
vn -0.0218 0.9997 0.0065
vn -0.0368 0.9991 -0.0208
vn 0.0072 0.9998 -0.0171
vn 0.5986 0.0647 0.7984
vn 0.6650 0.0381 0.7459
vn -0.8489 -0.0442 0.5267
vn -0.8400 -0.0025 0.5425
vn -0.0000 1.0000 -0.0000
vn -0.0024 -0.9998 0.0195
vn -0.8051 0.0075 0.5932
vn -0.8053 0.0075 0.5928
vn -0.0217 -0.9996 0.0206
vn -0.0219 -0.9995 0.0208
vn -0.8102 -0.0000 0.5862
vn 0.6889 -0.0000 0.7248
vn 0.8602 0.0362 0.5086
vn 0.8754 -0.0003 0.4835
vn 0.8610 -0.0163 0.5084
vn 0.8247 0.0125 0.5654
vn 0.8785 -0.0089 0.4777
vn -0.8403 -0.0004 0.5421
vn -0.8398 -0.0013 0.5429
vn -0.8711 0.0378 0.4896
vn -0.8868 0.0871 0.4538
vn -0.8718 -0.0028 0.4899
vn -0.0620 0.0043 -0.9981
vn -0.1175 0.0001 -0.9931
vn 0.1452 -0.0219 -0.9892
vn 0.4687 0.0041 -0.8833
vn 0.5162 -0.0000 -0.8565
vn 0.7221 0.0144 -0.6916
vn -0.4204 0.0269 -0.9069
vn -0.0507 0.0248 -0.9984
vn -0.4282 0.0166 -0.9036
vn -0.3905 -0.0177 -0.9204
vn -0.0852 -0.0252 -0.9960
vn 0.3580 -0.0081 -0.9337
vn 0.4645 0.0236 -0.8853
vn 0.1160 -0.0035 -0.9932
vn 0.5247 -0.0370 -0.8505
vn 0.7218 0.0146 -0.6919
vn 0.6537 -0.0156 -0.7566
vn 0.7217 -0.0303 -0.6915
vn -0.5902 0.0163 -0.8071
vn -0.3999 -0.0702 -0.9139
vn -0.6073 0.0013 -0.7945
vn -0.7098 0.0147 -0.7043
vn -0.5568 0.0397 -0.8297
vn -0.5580 -0.0374 -0.8290
vn -0.7569 0.0706 0.6498
vn 0.0087 -0.9999 0.0138
vn -0.0215 0.9995 0.0250
vn -0.0993 0.9944 0.0364
vn -0.0484 0.9979 -0.0430
vn 0.0166 0.9997 -0.0158
vn 0.7118 0.0735 0.6985
vn -0.8396 -0.0000 0.5432
vn 0.7223 -0.0000 -0.6915
vn -0.5164 -0.0001 -0.8564
vt 0.041666 1.000000
vt -0.000000 1.000000
vt 0.916667 0.500000
vt 0.958333 0.500000
vt 0.125000 0.500000
vt 0.125000 0.625000
vt 0.083333 0.500000
vt 0.875000 0.625000
vt 0.875000 0.750000
vt 0.041666 0.500000
vt -0.000000 0.500000
vt 0.125000 1.000000
vt 0.875000 0.500000
vt 0.125000 0.875000
vt 0.875000 0.875000
vt 0.125000 0.750000
vt 0.875000 1.000000
vt 0.916667 1.000000
vt 0.958333 1.000000
vt 1.000000 0.875000
vt 1.000000 1.000000
vt 0.916667 0.875000
vt 0.958333 0.875000
vt 0.041666 0.875000
vt -0.000000 0.750000
vt 0.041666 0.750000
vt 0.041666 0.625000
vt -0.000000 0.625000
vt 0.958333 0.625000
vt 0.958333 0.750000
vt 0.916667 0.750000
vt 0.916667 0.625000
vt 0.083333 0.750000
vt 0.083333 0.625000
vt 0.083333 1.000000
vt 0.083333 0.875000
vt -0.000000 0.875000
vt 1.000000 0.625000
vt 0.500000 0.500000
vt 0.104166 0.500000
vt 0.500000 1.000000
s 1
f 36/1/1 37/2/2 50/1/3
f 5/3/4 11/4/5 40/3/6
f 33/5/7 56/6/8 58/5/9
f 3/4/10 30/5/10 33/7/10
f 27/8/11 45/9/12 28/9/12
f 35/10/13 12/11/14 1/11/15
f 36/1/1 51/12/16 34/12/17
f 27/8/11 42/13/18 44/8/11
f 20/14/19 51/12/20 52/14/21
f 32/15/22 22/9/23 31/9/24
f 31/9/24 21/8/25 26/8/26
f 26/8/26 30/13/27 25/13/28
f 17/16/29 21/6/30 22/16/31
f 17/16/29 23/14/32 13/14/33
f 13/14/33 29/12/34 15/12/35
f 35/10/13 58/7/36 59/10/37
f 36/1/38 24/17/39 6/18/40
f 32/15/22 29/17/41 23/15/42
f 16/6/43 30/5/44 21/6/30
f 4/19/45 37/2/2 2/2/45
f 6/18/45 43/17/45 41/18/45
f 3/4/46 12/11/14 11/4/5
f 20/14/19 54/16/47 19/16/48
f 5/3/4 42/13/49 7/13/50
f 19/16/48 56/6/8 18/6/51
f 8/17/52 46/15/12 43/17/52
f 6/18/45 10/19/45 4/19/45
f 28/9/12 46/15/12 9/15/12
f 8/17/53 32/15/22 9/15/54
f 27/8/55 25/13/28 7/13/56
f 28/9/57 26/8/26 27/8/55
f 9/15/54 31/9/24 28/9/57
f 18/6/58 14/5/59 16/6/43
f 20/14/60 15/12/35 34/12/61
f 19/16/62 13/14/33 20/14/60
f 19/16/62 16/6/43 17/16/29
f 38/20/63 37/21/64 10/19/65
f 10/19/65 48/22/66 38/23/63
f 41/18/67 46/15/68 48/22/66
f 53/24/69 49/25/70 55/26/71
f 57/27/72 49/25/70 12/28/73
f 39/29/74 49/30/70 47/31/75
f 11/4/76 39/32/74 40/3/77
f 48/22/66 45/9/78 47/31/75
f 47/31/75 44/8/79 39/32/74
f 40/3/77 44/8/79 42/13/80
f 54/33/81 53/24/69 55/26/71
f 59/10/82 57/27/72 12/11/73
f 56/34/83 55/26/71 57/27/72
f 51/35/84 53/24/69 52/36/85
f 53/24/69 37/2/64 38/37/63
f 58/7/86 57/27/72 59/10/82
f 38/23/63 47/31/75 49/30/70
f 12/38/73 39/29/74 11/4/76
f 12/38/73 49/30/70 39/29/74
f 36/1/1 2/2/45 37/2/2
f 5/3/4 3/4/46 11/4/5
f 33/5/7 18/6/51 56/6/8
f 35/10/10 1/11/10 3/4/10
f 3/4/10 5/3/10 7/13/10
f 7/13/10 25/39/10 30/5/10
f 30/5/10 14/40/10 33/7/10
f 33/7/10 35/10/10 3/4/10
f 3/4/10 7/13/10 30/5/10
f 27/8/11 44/8/11 45/9/12
f 35/10/13 59/10/37 12/11/14
f 36/1/1 50/1/3 51/12/16
f 27/8/11 7/13/18 42/13/18
f 20/14/19 34/12/87 51/12/20
f 32/15/22 23/15/42 22/9/23
f 31/9/24 22/9/23 21/8/25
f 26/8/26 21/8/25 30/13/27
f 17/16/29 16/6/43 21/6/30
f 17/16/29 22/16/31 23/14/32
f 13/14/33 23/14/32 29/12/34
f 35/10/13 33/7/88 58/7/36
f 4/19/45 2/2/45 36/1/38
f 36/1/38 34/12/89 15/41/90
f 15/41/90 29/17/91 24/17/39
f 24/17/39 8/17/92 6/18/40
f 6/18/40 4/19/45 36/1/38
f 36/1/38 15/41/90 24/17/39
f 32/15/22 24/17/93 29/17/41
f 16/6/43 14/5/59 30/5/44
f 4/19/45 10/19/45 37/2/2
f 6/18/45 8/17/45 43/17/45
f 3/4/46 1/11/15 12/11/14
f 20/14/19 52/14/21 54/16/47
f 5/3/4 40/3/6 42/13/49
f 19/16/48 54/16/47 56/6/8
f 8/17/52 9/15/12 46/15/12
f 6/18/45 41/18/45 10/19/45
f 28/9/12 45/9/12 46/15/12
f 8/17/53 24/17/93 32/15/22
f 27/8/55 26/8/26 25/13/28
f 28/9/57 31/9/24 26/8/26
f 9/15/54 32/15/22 31/9/24
f 18/6/58 33/5/94 14/5/59
f 20/14/60 13/14/33 15/12/35
f 19/16/62 17/16/29 13/14/33
f 19/16/62 18/6/58 16/6/43
f 10/19/65 41/18/67 48/22/66
f 41/18/67 43/17/95 46/15/68
f 53/24/69 38/37/63 49/25/70
f 57/27/72 55/26/71 49/25/70
f 48/22/66 46/15/68 45/9/78
f 47/31/75 45/9/78 44/8/79
f 40/3/77 39/32/74 44/8/79
f 54/33/81 52/36/85 53/24/69
f 56/34/83 54/33/81 55/26/71
f 51/35/84 50/1/96 53/24/69
f 53/24/69 50/1/96 37/2/64
f 58/7/86 56/34/83 57/27/72
f 38/23/63 48/22/66 47/31/75
