# Blender 5.1.0
# www.blender.org
mtllib Scrap.mtl
o Plane.001
v -1.290000 1.229170 3.180000
v -1.290374 1.201521 -3.180854
v 1.287566 1.209902 -3.185558
v -0.302933 1.211935 3.179793
v 1.290000 1.199275 3.179996
v -0.034977 1.250957 -3.217486
v -0.651808 1.227699 -3.195546
v -1.289964 1.142983 -1.076869
v -1.296333 1.227037 -0.026370
v -1.295730 1.165462 1.061018
v -1.295492 1.197126 2.120975
v 1.287477 1.207411 2.172591
v 1.288708 1.195703 0.926771
v 1.293421 1.270246 -1.204464
v -0.658060 1.286527 2.122319
v -0.683563 1.199225 1.064268
v -0.673567 1.261087 -0.056626
v -0.689993 1.136698 -1.166352
v -0.036731 1.211334 2.126524
v -0.087514 1.082698 1.075544
v -0.008138 1.251939 -0.028336
v 0.002220 1.268602 -1.069175
v -0.001136 1.238562 -2.135079
v 0.632233 1.271963 1.062267
v 0.638071 1.233111 -0.007657
v 0.654654 1.334206 -1.099905
v 0.647682 1.248408 -2.134877
v -0.589585 1.571843 1.844582
v -0.589521 1.589833 1.835845
v -0.728852 1.139637 0.953626
v -0.728789 1.157627 0.944888
v -0.411340 1.560380 1.822281
v -0.411276 1.578371 1.813543
v -0.550608 1.128174 0.931324
v -0.550544 1.146164 0.922587
v -0.659535 1.135179 0.944953
v -0.590095 1.427919 1.914479
v -0.590159 1.409929 1.923217
v -0.729363 0.995713 1.023523
v -0.729426 0.977723 1.032260
v -0.411850 1.416457 1.892178
v -0.411914 1.398466 1.900915
v -0.551118 0.984250 1.001222
v -0.551182 0.966260 1.009959
v -0.620435 0.988708 1.009895
v -0.660045 0.991255 1.014850
v -0.520778 1.423462 1.905807
v -0.481168 1.420914 1.900851
v -0.619925 1.132632 0.939997
v -0.520267 1.567385 1.835909
v -0.480658 1.564838 1.830953
v -0.558166 1.668279 2.317217
v -0.555743 1.688070 2.315653
v -0.377070 1.666355 2.317734
v -0.379493 1.646564 2.319299
v -0.579978 1.490161 2.331293
v -0.577554 1.509951 2.329729
v -0.398881 1.488237 2.331810
v -0.401304 1.468446 2.333375
v -0.468365 1.496681 2.331001
v -0.508070 1.501507 2.330538
v -0.448977 1.655009 2.318489
v -0.488682 1.659834 2.318027
v -0.553896 1.648619 2.712933
v -0.551838 1.668474 2.714183
v -0.372835 1.650241 2.709152
v -0.374892 1.630386 2.707902
v -0.572414 1.469929 2.701678
v -0.570356 1.489783 2.702929
v -0.391353 1.471550 2.697898
v -0.393410 1.451695 2.696648
v -0.460965 1.478641 2.699855
v -0.500744 1.482692 2.700972
v -0.444505 1.637477 2.709859
v -0.484283 1.641529 2.710977
v -0.738709 0.932444 0.314225
v -0.708992 0.971704 0.357954
v -0.830418 1.378970 -0.057881
v -0.828296 1.424452 0.001164
v -0.789748 0.965448 0.355298
v -0.895610 1.416629 -0.021776
v -0.880007 1.479488 -0.301942
v -0.884302 1.546120 -0.277370
v -0.950935 1.520972 -0.295309
v -0.921924 1.632836 -0.498375
v -0.921195 1.655636 -0.482414
v -0.886487 1.680943 -0.460305
v -0.874112 1.678182 -0.460622
v -0.848971 1.662485 -0.468288
v -0.843332 1.637449 -0.484981
v -0.860498 1.617739 -0.500922
v -1.669083 1.459546 -0.476261
v -1.672225 1.478687 -0.471388
v -1.498721 1.495770 -0.426618
v -1.495579 1.476629 -0.431491
v -1.640805 1.287276 -0.520115
v -1.643947 1.306417 -0.515242
v -1.470443 1.323500 -0.470472
v -1.467301 1.304359 -0.475345
v -1.537917 1.316856 -0.487883
v -1.576473 1.313060 -0.497832
v -1.563053 1.469985 -0.448901
v -1.601609 1.466189 -0.458850
v -1.407679 1.602143 -1.031379
v -1.415104 1.620487 -1.028486
v -1.275158 1.660434 -0.922566
v -1.267732 1.642090 -0.925459
v -1.340851 1.437049 -1.057412
v -1.348276 1.455393 -1.054519
v -1.208329 1.495339 -0.948598
v -1.200904 1.476995 -0.951491
v -1.262753 1.479804 -0.989790
v -1.293852 1.470927 -1.013328
v -1.322156 1.626555 -0.966649
v -1.353256 1.617678 -0.990187
v -1.146124 1.499245 -1.386346
v -1.145796 1.517777 -1.393860
v -0.999375 1.554878 -1.295959
v -0.999703 1.536346 -1.288446
v -1.149074 1.332456 -1.318726
v -1.148747 1.350988 -1.326239
v -1.002326 1.388090 -1.228338
v -1.002654 1.369557 -1.220825
v -1.059268 1.373661 -1.266411
v -1.091805 1.365417 -1.288167
v -1.056645 1.521918 -1.326518
v -1.089182 1.513673 -1.348274
v -0.781610 1.080752 -1.808280
v -0.777816 1.097229 -1.818963
v -0.628653 1.125560 -1.722279
v -0.632447 1.109084 -1.711597
v -0.815760 0.932460 -1.712140
v -0.811966 0.948937 -1.722822
v -0.662802 0.977268 -1.626138
v -0.666597 0.960791 -1.615456
v -0.720811 0.966251 -1.663737
v -0.753958 0.959955 -1.685223
v -0.690455 1.098066 -1.749196
v -0.723602 1.091770 -1.770681
v -0.494199 1.087931 -1.882529
v -0.476172 1.107549 -1.842510
v -0.413973 1.095167 -1.864873
v -0.437030 1.073367 -1.910032
v -0.389814 1.635457 -2.183505
v -0.366757 1.657257 -2.138346
v -0.309589 1.642692 -2.165848
v -0.327615 1.623074 -2.205868
v 0.251393 1.098310 0.492592
v 0.241170 1.114661 0.487289
v 0.160839 1.116670 0.648358
v 0.171063 1.100320 0.653660
v 0.343409 0.951153 0.540320
v 0.333185 0.967504 0.535016
v 0.252855 0.969513 0.696085
v 0.263079 0.953163 0.701388
v 0.284094 0.968732 0.633447
v 0.301946 0.968285 0.597654
v 0.202303 1.099538 0.591023
v 0.220154 1.099091 0.555230
v 0.835165 1.555914 0.778033
v 0.824941 1.572265 0.772730
v 0.744611 1.574274 0.933798
v 0.754835 1.557923 0.939101
v 0.927181 1.408757 0.825760
v 0.916957 1.425108 0.820457
v 0.836626 1.427117 0.981525
v 0.846850 1.410766 0.986829
v 0.867866 1.426336 0.918888
v 0.885717 1.425889 0.883095
v 0.786074 1.557142 0.876463
v 0.803926 1.556695 0.840670
v 0.453974 0.860149 -1.919842
v 0.435016 0.875402 -1.923192
v 0.439404 0.927999 -1.708526
v 0.458363 0.912746 -1.705177
v 0.624599 0.722871 -1.889694
v 0.605641 0.738124 -1.893044
v 0.610029 0.790721 -1.678379
v 0.628987 0.775468 -1.675029
v 0.608322 0.770267 -1.761860
v 0.607347 0.758579 -1.809563
v 0.456656 0.892291 -1.788658
v 0.455681 0.880603 -1.836361
v 1.074257 1.589099 -2.111125
v 1.055298 1.604352 -2.114475
v 1.059687 1.656949 -1.899809
v 1.078645 1.641696 -1.896459
v 1.244882 1.451821 -2.080977
v 1.225923 1.467074 -2.084327
v 1.230311 1.519671 -1.869661
v 1.249269 1.504418 -1.866311
v 1.228604 1.499216 -1.953142
v 1.227629 1.487529 -2.000846
v 1.076938 1.621241 -1.979940
v 1.075963 1.609553 -2.027644
v 0.531803 1.133266 -0.065359
v 0.527191 1.149617 -0.054805
v 0.693238 1.151626 0.014652
v 0.697850 1.135275 0.004098
v 0.573315 0.986109 -0.160341
v 0.568702 1.002460 -0.149787
v 0.734749 1.004469 -0.080329
v 0.739362 0.988118 -0.090883
v 0.670175 1.003688 -0.107340
v 0.633276 1.003241 -0.122776
v 0.633276 1.134493 -0.022912
v 0.596377 1.134047 -0.038348
v 0.703783 1.453121 -0.485750
v 0.699171 1.469472 -0.475196
v 0.865218 1.471481 -0.405739
v 0.869830 1.455130 -0.416293
v 0.745295 1.305964 -0.580732
v 0.740682 1.322315 -0.570178
v 0.906729 1.324324 -0.500721
v 0.911342 1.307973 -0.511274
v 0.842155 1.323542 -0.527732
v 0.805256 1.323096 -0.543167
v 0.805256 1.454348 -0.443304
v 0.768357 1.453902 -0.458739
v 0.948996 1.578798 -0.845400
v 0.947336 1.598691 -0.844160
v 1.086009 1.603120 -0.729486
v 1.087669 1.583228 -0.730726
v 0.963940 1.399767 -0.856555
v 0.962279 1.419659 -0.855315
v 1.100952 1.424089 -0.740641
v 1.102613 1.404197 -0.741881
v 1.047024 1.422367 -0.785237
v 1.016208 1.421382 -0.810720
v 1.033740 1.581505 -0.775321
v 1.002924 1.580521 -0.800804
v 1.286534 1.538632 -1.160334
v 1.287864 1.557949 -1.165343
v 1.382853 1.590162 -1.015879
v 1.381524 1.570844 -1.010871
v 1.274567 1.364779 -1.115260
v 1.275897 1.384096 -1.120269
v 1.370886 1.416308 -0.970805
v 1.369557 1.396991 -0.965797
v 1.333946 1.403781 -1.028929
v 1.312837 1.396623 -1.062144
v 1.344583 1.558317 -1.068996
v 1.323475 1.551159 -1.102210
v -0.066235 1.286964 -2.005795
v -0.072049 1.304855 -2.012583
v -0.243353 1.262783 -1.976737
v -0.237538 1.244892 -1.969948
v -0.013903 1.125940 -1.944699
v -0.019718 1.143832 -1.951488
v -0.191021 1.101760 -1.915642
v -0.185207 1.083868 -1.908853
v -0.124403 1.118121 -1.929582
v -0.086336 1.127470 -1.937548
v -0.170920 1.261253 -1.983889
v -0.132853 1.270602 -1.991855
v 0.012303 1.589710 -1.275149
v 0.006488 1.607602 -1.281937
v -0.164816 1.565530 -1.246091
v -0.159001 1.547638 -1.239302
v 0.064634 1.428686 -1.214053
v 0.058820 1.446578 -1.220842
v -0.112484 1.404506 -1.184996
v -0.106670 1.386615 -1.178207
v -0.045866 1.420867 -1.198936
v -0.007798 1.430217 -1.206902
v -0.092383 1.563999 -1.253243
v -0.054315 1.573349 -1.261209
v 0.209638 1.583197 -0.458979
v 0.203048 1.602006 -0.457311
v 0.041217 1.540896 -0.407548
v 0.047808 1.522087 -0.409215
v 0.268948 1.413913 -0.473987
v 0.262358 1.432723 -0.472319
v 0.100527 1.371612 -0.422555
v 0.107117 1.352803 -0.424223
v 0.163461 1.395377 -0.441908
v 0.199424 1.408958 -0.452967
v 0.110741 1.545852 -0.428568
v 0.146704 1.559432 -0.439626
v 0.112682 1.432720 0.771135
v 0.114258 1.452655 0.770804
v -0.063085 1.467125 0.798008
v -0.064661 1.447190 0.798340
v 0.098500 1.253304 0.774115
v 0.100076 1.273240 0.773784
v -0.077268 1.287710 0.800988
v -0.078843 1.267775 0.801320
v -0.008301 1.282082 0.790409
v 0.031109 1.278867 0.784363
v 0.004306 1.441563 0.787760
v 0.043715 1.438347 0.781714
v 0.474665 1.398901 2.099391
v 0.476107 1.418836 2.098674
v 0.311320 1.433306 2.169638
v 0.309879 1.413371 2.170356
v 0.461690 1.219486 2.105845
v 0.463131 1.239421 2.105128
v 0.298344 1.253891 2.176092
v 0.296903 1.233956 2.176810
v 0.362428 1.248263 2.148495
v 0.399048 1.245048 2.132725
v 0.373962 1.407744 2.142758
v 0.410581 1.404528 2.126988
v 0.813265 1.402673 2.884894
v 0.814707 1.422608 2.884177
v 0.649920 1.437078 2.955142
v 0.648478 1.417143 2.955859
v 0.800290 1.223258 2.891348
v 0.801731 1.243193 2.890631
v 0.636944 1.257663 2.961596
v 0.635503 1.237728 2.962313
v 0.701028 1.252035 2.933998
v 0.737647 1.248820 2.918229
v 0.712562 1.411516 2.928261
v 0.749181 1.408300 2.912492
v 0.631348 1.282798 -2.283365
v 0.633157 1.300689 -2.292118
v 0.499958 1.258617 -2.405643
v 0.498148 1.240726 -2.396889
v 0.615065 1.121774 -2.204586
v 0.616875 1.139665 -2.213339
v 0.483675 1.097594 -2.326864
v 0.481866 1.079702 -2.318111
v 0.535475 1.113955 -2.282716
v 0.565075 1.123304 -2.257488
v 0.549948 1.257087 -2.352741
v 0.579548 1.266436 -2.327513
v -0.019374 1.673630 -1.664710
v -0.021183 1.655739 -1.655957
v -0.154382 1.613667 -1.769481
v -0.152573 1.631559 -1.778235
v -0.035656 1.512607 -1.585931
v -0.037466 1.494715 -1.577178
v -0.170665 1.452643 -1.690703
v -0.168856 1.470535 -1.699456
v -0.117056 1.486896 -1.655308
v -0.087456 1.496246 -1.630080
v -0.102582 1.630028 -1.725333
v -0.072982 1.639378 -1.700106
v -0.466554 1.701407 -1.067552
v -0.461746 1.682320 -1.064012
v -0.615409 1.629274 -1.141302
v -0.620217 1.648362 -1.144843
v -0.423278 1.529618 -1.035689
v -0.418470 1.510530 -1.032148
v -0.572133 1.457484 -1.109439
v -0.576941 1.476572 -1.112979
v -0.517183 1.497201 -1.082922
v -0.483036 1.508989 -1.065746
v -0.555651 1.649903 -1.111245
v -0.521503 1.661691 -1.094069
v -0.560657 1.519268 -0.333241
v -0.553153 1.500742 -0.333911
v -0.717433 1.435434 -0.367780
v -0.724936 1.453960 -0.367109
v -0.493125 1.352527 -0.339276
v -0.485622 1.334000 -0.339946
v -0.649901 1.268691 -0.373815
v -0.657405 1.287218 -0.373145
v -0.593518 1.312616 -0.359974
v -0.557012 1.327129 -0.352447
v -0.653546 1.460831 -0.354609
v -0.617040 1.475344 -0.347083
v -0.533654 1.178073 0.606629
v -0.526605 1.160356 0.600596
v -0.694601 1.096215 0.592652
v -0.701651 1.113932 0.598684
v -0.470206 1.018616 0.552336
v -0.463157 1.000899 0.546304
v -0.631153 0.936757 0.538359
v -0.638203 0.954475 0.544392
v -0.572871 0.979419 0.547481
v -0.535538 0.993672 0.549247
v -0.629269 1.121158 0.595741
v -0.591937 1.135412 0.597506
v -0.062587 1.114570 2.420195
v 0.017525 1.123328 2.430285
v -0.008667 1.116167 2.370158
v -0.097480 1.346346 2.432448
v -0.035900 1.369313 2.400669
v -0.091119 1.349488 2.354200
v -0.085617 1.571458 2.527205
v -0.004119 1.601965 2.530053
v -0.050779 1.631922 2.494511
v -0.039110 1.745284 2.706413
v -0.019595 1.704405 2.730382
v 0.039725 1.747892 2.705277
v 0.204721 1.030258 -3.119967
v 0.251557 1.012137 -3.068303
v 0.265699 1.033795 -3.149624
v 0.242321 1.367211 -2.977676
v 0.314971 1.404870 -2.996114
v 0.270691 1.415001 -3.048572
v 0.271785 1.613343 -3.046986
v 0.254250 1.635989 -2.991649
v 0.309528 1.642221 -2.977060
v 0.329500 1.630307 -3.026995
v 0.258240 1.743488 -3.236517
v 0.273086 1.762335 -3.126180
v 0.329631 1.748786 -3.145211
v 0.297149 1.687436 -3.159418
v 0.297438 1.686687 -3.273302
v 0.286238 1.760287 -3.296062
v 0.350890 1.733984 -3.284120
v 0.336968 1.567113 -3.361158
v 0.344990 1.590097 -3.430348
v 0.407615 1.589233 -3.398998
v 0.383508 1.439656 -3.334576
v 0.401528 1.434227 -3.395014
v 0.441976 1.453501 -3.388819
v 0.430518 1.463372 -3.321548
v -0.790391 1.139681 -2.257212
v -0.793533 1.158822 -2.252339
v -0.620029 1.175905 -2.207569
v -0.616887 1.156764 -2.212442
v -0.762114 0.967410 -2.301066
v -0.765256 0.986551 -2.296193
v -0.591751 1.003634 -2.251423
v -0.588609 0.984493 -2.256296
v -0.659225 0.996991 -2.268833
v -0.697782 0.993195 -2.278783
v -0.684361 1.150120 -2.229852
v -0.722917 1.146324 -2.239801
v -0.600387 1.523109 -3.166730
v -0.603529 1.542250 -3.161857
v -0.430025 1.559333 -3.117087
v -0.426883 1.540192 -3.121959
v -0.572110 1.350838 -3.210584
v -0.575252 1.369980 -3.205711
v -0.401747 1.387062 -3.160941
v -0.398605 1.367921 -3.165814
v -0.469221 1.380419 -3.178351
v -0.507778 1.376623 -3.188300
v -0.494357 1.533548 -3.139370
v -0.532914 1.529752 -3.149319
v -0.728852 1.139637 0.953626
v -0.589585 1.571843 1.844582
v -0.589521 1.589833 1.835845
v -0.728789 1.157627 0.944888
v -0.411340 1.560380 1.822281
v -0.550608 1.128174 0.931324
v -0.550544 1.146164 0.922587
v -0.411276 1.578371 1.813543
v -0.729363 0.995713 1.023523
v -0.590095 1.427919 1.914479
v -0.590159 1.409929 1.923217
v -0.729426 0.977723 1.032260
v -0.411850 1.416457 1.892178
v -0.551118 0.984250 1.001222
v -0.551182 0.966260 1.009959
v -0.411914 1.398466 1.900915
v -0.520778 1.423462 1.905807
v -0.660045 0.991255 1.014850
v -0.620435 0.988708 1.009895
v -0.481168 1.420914 1.900851
v -0.619925 1.132632 0.939997
v -0.480658 1.564838 1.830953
v -0.659535 1.135179 0.944953
v -0.520267 1.567385 1.835909
v -0.377070 1.666355 2.317734
v -0.379493 1.646564 2.319299
v -0.488682 1.659834 2.318027
v -0.558166 1.668279 2.317217
v -0.508070 1.501507 2.330538
v -0.398881 1.488237 2.331810
v -0.401304 1.468446 2.333375
v -0.555743 1.688070 2.315653
v -0.577554 1.509951 2.329729
v -0.448977 1.655009 2.318489
v -0.468365 1.496681 2.331001
v -0.579978 1.490161 2.331293
v -0.553896 1.648619 2.712933
v -0.553896 1.648619 2.712933
v -0.551838 1.668474 2.714183
v -0.551838 1.668474 2.714183
v -0.372835 1.650241 2.709152
v -0.372835 1.650241 2.709152
v -0.374892 1.630386 2.707902
v -0.374892 1.630386 2.707902
v -0.572414 1.469929 2.701678
v -0.572414 1.469929 2.701678
v -0.570356 1.489783 2.702929
v -0.570356 1.489783 2.702929
v -0.391353 1.471550 2.697898
v -0.391353 1.471550 2.697898
v -0.393410 1.451695 2.696648
v -0.393410 1.451695 2.696648
v -0.460965 1.478641 2.699855
v -0.460965 1.478641 2.699855
v -0.500744 1.482692 2.700972
v -0.500744 1.482692 2.700972
v -0.444505 1.637477 2.709859
v -0.444505 1.637477 2.709859
v -0.484283 1.641529 2.710977
v -0.484283 1.641529 2.710977
v -0.890415 1.614902 -0.506773
v -0.915556 1.630599 -0.499107
v -0.904029 1.675345 -0.466473
v -0.840414 1.632246 -0.488223
v -1.669083 1.459546 -0.476261
v -1.669083 1.459546 -0.476261
v -1.672225 1.478687 -0.471388
v -1.672225 1.478687 -0.471388
v -1.498721 1.495770 -0.426618
v -1.498721 1.495770 -0.426618
v -1.495579 1.476629 -0.431491
v -1.495579 1.476629 -0.431491
v -1.640805 1.287276 -0.520115
v -1.640805 1.287276 -0.520115
v -1.643947 1.306417 -0.515242
v -1.643947 1.306417 -0.515242
v -1.470443 1.323500 -0.470472
v -1.470443 1.323500 -0.470472
v -1.467301 1.304359 -0.475345
v -1.467301 1.304359 -0.475345
v -1.537917 1.316856 -0.487883
v -1.537917 1.316856 -0.487883
v -1.576473 1.313060 -0.497832
v -1.576473 1.313060 -0.497832
v -1.563053 1.469985 -0.448901
v -1.563053 1.469985 -0.448901
v -1.601609 1.466189 -0.458850
v -1.601609 1.466189 -0.458850
v -1.322156 1.626555 -0.966649
v -1.262753 1.479804 -0.989790
v -1.208329 1.495339 -0.948598
v -1.415104 1.620487 -1.028486
v -1.275158 1.660434 -0.922566
v -1.293852 1.470927 -1.013328
v -1.353256 1.617678 -0.990187
v -1.200904 1.476995 -0.951491
v -1.340851 1.437049 -1.057412
v -1.348276 1.455393 -1.054519
v -1.267732 1.642090 -0.925459
v -1.407679 1.602143 -1.031379
v -1.149074 1.332456 -1.318726
v -1.148747 1.350988 -1.326239
v -0.999703 1.536346 -1.288446
v -1.056645 1.521918 -1.326518
v -1.146124 1.499245 -1.386346
v -1.145796 1.517777 -1.393860
v -1.091805 1.365417 -1.288167
v -1.002326 1.388090 -1.228338
v -1.002654 1.369557 -1.220825
v -1.089182 1.513673 -1.348274
v -0.999375 1.554878 -1.295959
v -1.059268 1.373661 -1.266411
v -0.666597 0.960791 -1.615456
v -0.815760 0.932460 -1.712140
v -0.811966 0.948937 -1.722822
v -0.632447 1.109084 -1.711597
v -0.690455 1.098066 -1.749196
v -0.781610 1.080752 -1.808280
v -0.777816 1.097229 -1.818963
v -0.753958 0.959955 -1.685223
v -0.662802 0.977268 -1.626138
v -0.723602 1.091770 -1.770681
v -0.628653 1.125560 -1.722279
v -0.720811 0.966251 -1.663737
v -0.350537 1.622068 -2.209224
v -0.378364 1.628074 -2.197960
v -0.389021 1.640854 -2.172263
v -0.376265 1.652921 -2.147185
v -0.347569 1.657207 -2.137416
v -0.319743 1.651201 -2.148679
v -0.309086 1.638421 -2.174377
v -0.321841 1.626353 -2.199455
v 0.835165 1.555914 0.778033
v 0.835165 1.555914 0.778033
v 0.824941 1.572265 0.772730
v 0.824941 1.572265 0.772730
v 0.744611 1.574274 0.933798
v 0.744611 1.574274 0.933798
v 0.754835 1.557923 0.939101
v 0.754835 1.557923 0.939101
v 0.927181 1.408757 0.825760
v 0.927181 1.408757 0.825760
v 0.916957 1.425108 0.820457
v 0.916957 1.425108 0.820457
v 0.836626 1.427117 0.981525
v 0.836626 1.427117 0.981525
v 0.846850 1.410766 0.986829
v 0.846850 1.410766 0.986829
v 0.867866 1.426336 0.918888
v 0.867866 1.426336 0.918888
v 0.885717 1.425889 0.883095
v 0.885717 1.425889 0.883095
v 0.786074 1.557142 0.876463
v 0.786074 1.557142 0.876463
v 0.803926 1.556695 0.840670
v 0.803926 1.556695 0.840670
v 0.241170 1.114661 0.487289
v 0.160839 1.116670 0.648358
v 0.301946 0.968285 0.597654
v 0.220154 1.099091 0.555230
v 0.263079 0.953163 0.701388
v 0.343409 0.951153 0.540320
v 0.333185 0.967504 0.535016
v 0.171063 1.100320 0.653660
v 0.202303 1.099538 0.591023
v 0.251393 1.098310 0.492592
v 0.252855 0.969513 0.696085
v 0.284094 0.968732 0.633447
v 1.074257 1.589099 -2.111125
v 1.074257 1.589099 -2.111125
v 1.055298 1.604352 -2.114475
v 1.055298 1.604352 -2.114475
v 1.059687 1.656949 -1.899809
v 1.059687 1.656949 -1.899809
v 1.078645 1.641696 -1.896459
v 1.078645 1.641696 -1.896459
v 1.244882 1.451821 -2.080977
v 1.244882 1.451821 -2.080977
v 1.225923 1.467074 -2.084327
v 1.225923 1.467074 -2.084327
v 1.230311 1.519671 -1.869661
v 1.230311 1.519671 -1.869661
v 1.249269 1.504418 -1.866311
v 1.249269 1.504418 -1.866311
v 1.228604 1.499216 -1.953142
v 1.228604 1.499216 -1.953142
v 1.227629 1.487529 -2.000846
v 1.227629 1.487529 -2.000846
v 1.076938 1.621241 -1.979940
v 1.076938 1.621241 -1.979940
v 1.075963 1.609553 -2.027644
v 1.075963 1.609553 -2.027644
v 0.435016 0.875402 -1.923192
v 0.439404 0.927999 -1.708526
v 0.607347 0.758579 -1.809563
v 0.455681 0.880603 -1.836361
v 0.628987 0.775468 -1.675029
v 0.624599 0.722871 -1.889694
v 0.605641 0.738124 -1.893044
v 0.458363 0.912746 -1.705177
v 0.456656 0.892291 -1.788658
v 0.453974 0.860149 -1.919842
v 0.610029 0.790721 -1.678379
v 0.608322 0.770267 -1.761860
v 0.734749 1.004469 -0.080329
v 0.906729 1.324324 -0.500721
v 0.842155 1.323542 -0.527732
v 0.670175 1.003688 -0.107340
v 0.693238 1.151626 0.014652
v 0.865218 1.471481 -0.405739
v 0.699171 1.469472 -0.475196
v 0.527191 1.149617 -0.054805
v 0.596377 1.134047 -0.038348
v 0.768357 1.453902 -0.458739
v 0.805256 1.323096 -0.543167
v 0.633276 1.003241 -0.122776
v 0.573315 0.986109 -0.160341
v 0.745295 1.305964 -0.580732
v 0.911342 1.307973 -0.511274
v 0.739362 0.988118 -0.090883
v 0.568702 1.002460 -0.149787
v 0.740682 1.322315 -0.570178
v 0.633276 1.134493 -0.022912
v 0.805256 1.454348 -0.443304
v 0.869830 1.455130 -0.416293
v 0.697850 1.135275 0.004098
v 0.703783 1.453121 -0.485750
v 0.531803 1.133266 -0.065359
v 0.962279 1.419659 -0.855315
v 0.963940 1.399767 -0.856555
v 1.033740 1.581505 -0.775321
v 1.087669 1.583228 -0.730726
v 0.947336 1.598691 -0.844160
v 0.948996 1.578798 -0.845400
v 1.016208 1.421382 -0.810720
v 1.102613 1.404197 -0.741881
v 1.100952 1.424089 -0.740641
v 1.002924 1.580521 -0.800804
v 1.086009 1.603120 -0.729486
v 1.047024 1.422367 -0.785237
v 1.286534 1.538632 -1.160334
v 1.286534 1.538632 -1.160334
v 1.287864 1.557949 -1.165343
v 1.287864 1.557949 -1.165343
v 1.382853 1.590162 -1.015879
v 1.382853 1.590162 -1.015879
v 1.381524 1.570844 -1.010871
v 1.381524 1.570844 -1.010871
v 1.274567 1.364779 -1.115260
v 1.274567 1.364779 -1.115260
v 1.275897 1.384096 -1.120269
v 1.275897 1.384096 -1.120269
v 1.370886 1.416308 -0.970805
v 1.370886 1.416308 -0.970805
v 1.369557 1.396991 -0.965797
v 1.369557 1.396991 -0.965797
v 1.333946 1.403781 -1.028929
v 1.333946 1.403781 -1.028929
v 1.312837 1.396623 -1.062144
v 1.312837 1.396623 -1.062144
v 1.344583 1.558317 -1.068996
v 1.344583 1.558317 -1.068996
v 1.323475 1.551159 -1.102210
v 1.323475 1.551159 -1.102210
v -0.072049 1.304855 -2.012583
v -0.072049 1.304855 -2.012583
v -0.066235 1.286964 -2.005795
v -0.066235 1.286964 -2.005795
v -0.237538 1.244892 -1.969948
v -0.237538 1.244892 -1.969948
v -0.243353 1.262783 -1.976737
v -0.243353 1.262783 -1.976737
v -0.019718 1.143832 -1.951488
v -0.019718 1.143832 -1.951488
v -0.013903 1.125940 -1.944699
v -0.013903 1.125940 -1.944699
v -0.185207 1.083868 -1.908853
v -0.185207 1.083868 -1.908853
v -0.191021 1.101760 -1.915642
v -0.191021 1.101760 -1.915642
v -0.124403 1.118121 -1.929582
v -0.124403 1.118121 -1.929582
v -0.086336 1.127470 -1.937548
v -0.086336 1.127470 -1.937548
v -0.170920 1.261253 -1.983889
v -0.170920 1.261253 -1.983889
v -0.132853 1.270602 -1.991855
v -0.132853 1.270602 -1.991855
v 0.006488 1.607602 -1.281937
v -0.164816 1.565530 -1.246091
v -0.007798 1.430217 -1.206902
v -0.054315 1.573349 -1.261209
v -0.106670 1.386615 -1.178207
v 0.064634 1.428686 -1.214053
v 0.058820 1.446578 -1.220842
v -0.159001 1.547638 -1.239302
v -0.092383 1.563999 -1.253243
v 0.012303 1.589710 -1.275149
v -0.112484 1.404506 -1.184996
v -0.045866 1.420867 -1.198936
v 0.107117 1.352803 -0.424223
v 0.100527 1.371612 -0.422555
v 0.209638 1.583197 -0.458979
v 0.146704 1.559432 -0.439626
v 0.047808 1.522087 -0.409215
v 0.041217 1.540896 -0.407548
v 0.163461 1.395377 -0.441908
v 0.110741 1.545852 -0.428568
v 0.203048 1.602006 -0.457311
v 0.199424 1.408958 -0.452967
v 0.268948 1.413913 -0.473987
v 0.262358 1.432723 -0.472319
v -0.078843 1.267775 0.801320
v -0.077268 1.287710 0.800988
v 0.112682 1.432720 0.771135
v 0.043715 1.438347 0.781714
v -0.064661 1.447190 0.798340
v -0.063085 1.467125 0.798008
v -0.008301 1.282082 0.790409
v 0.004306 1.441563 0.787760
v 0.114258 1.452655 0.770804
v 0.031109 1.278867 0.784363
v 0.098500 1.253304 0.774115
v 0.100076 1.273240 0.773784
v 0.399048 1.245048 2.132725
v 0.463131 1.239421 2.105128
v 0.296903 1.233956 2.176810
v 0.298344 1.253891 2.176092
v 0.474665 1.398901 2.099391
v 0.410581 1.404528 2.126988
v 0.309879 1.413371 2.170356
v 0.311320 1.433306 2.169638
v 0.362428 1.248263 2.148495
v 0.373962 1.407744 2.142758
v 0.476107 1.418836 2.098674
v 0.461690 1.219486 2.105845
v 0.813265 1.402673 2.884894
v 0.813265 1.402673 2.884894
v 0.814707 1.422608 2.884177
v 0.814707 1.422608 2.884177
v 0.649920 1.437078 2.955142
v 0.649920 1.437078 2.955142
v 0.648478 1.417143 2.955859
v 0.648478 1.417143 2.955859
v 0.800290 1.223258 2.891348
v 0.800290 1.223258 2.891348
v 0.801731 1.243193 2.890631
v 0.801731 1.243193 2.890631
v 0.636944 1.257663 2.961596
v 0.636944 1.257663 2.961596
v 0.635503 1.237728 2.962313
v 0.635503 1.237728 2.962313
v 0.701028 1.252035 2.933998
v 0.701028 1.252035 2.933998
v 0.737647 1.248820 2.918229
v 0.737647 1.248820 2.918229
v 0.712562 1.411516 2.928261
v 0.712562 1.411516 2.928261
v 0.749181 1.408300 2.912492
v 0.749181 1.408300 2.912492
v 0.633157 1.300689 -2.292118
v 0.633157 1.300689 -2.292118
v 0.631348 1.282798 -2.283365
v 0.631348 1.282798 -2.283365
v 0.498148 1.240726 -2.396889
v 0.498148 1.240726 -2.396889
v 0.499958 1.258617 -2.405643
v 0.499958 1.258617 -2.405643
v 0.616875 1.139665 -2.213339
v 0.616875 1.139665 -2.213339
v 0.615065 1.121774 -2.204586
v 0.615065 1.121774 -2.204586
v 0.481866 1.079702 -2.318111
v 0.481866 1.079702 -2.318111
v 0.483675 1.097594 -2.326864
v 0.483675 1.097594 -2.326864
v 0.535475 1.113955 -2.282716
v 0.535475 1.113955 -2.282716
v 0.565075 1.123304 -2.257488
v 0.565075 1.123304 -2.257488
v 0.549948 1.257087 -2.352741
v 0.549948 1.257087 -2.352741
v 0.579548 1.266436 -2.327513
v 0.579548 1.266436 -2.327513
v -0.037466 1.494715 -1.577178
v -0.035656 1.512607 -1.585931
v -0.154382 1.613667 -1.769481
v -0.102582 1.630028 -1.725333
v -0.021183 1.655739 -1.655957
v -0.019374 1.673630 -1.664710
v -0.087456 1.496246 -1.630080
v -0.168856 1.470535 -1.699456
v -0.170665 1.452643 -1.690703
v -0.072982 1.639378 -1.700106
v -0.152573 1.631559 -1.778235
v -0.117056 1.486896 -1.655308
v -0.517183 1.497201 -1.082922
v -0.555651 1.649903 -1.111245
v -0.576941 1.476572 -1.112979
v -0.620217 1.648362 -1.144843
v -0.466554 1.701407 -1.067552
v -0.521503 1.661691 -1.094069
v -0.483036 1.508989 -1.065746
v -0.418470 1.510530 -1.032148
v -0.572133 1.457484 -1.109439
v -0.423278 1.529618 -1.035689
v -0.615409 1.629274 -1.141302
v -0.461746 1.682320 -1.064012
v -0.717433 1.435434 -0.367780
v -0.724936 1.453960 -0.367109
v -0.593518 1.312616 -0.359974
v -0.653546 1.460831 -0.354609
v -0.657405 1.287218 -0.373145
v -0.560657 1.519268 -0.333241
v -0.617040 1.475344 -0.347083
v -0.557012 1.327129 -0.352447
v -0.485622 1.334000 -0.339946
v -0.649901 1.268691 -0.373815
v -0.493125 1.352527 -0.339276
v -0.553153 1.500742 -0.333911
v -0.526605 1.160356 0.600596
v -0.591937 1.135412 0.597506
v -0.694601 1.096215 0.592652
v -0.701651 1.113932 0.598684
v -0.572871 0.979419 0.547481
v -0.629269 1.121158 0.595741
v -0.638203 0.954475 0.544392
v -0.533654 1.178073 0.606629
v -0.535538 0.993672 0.549247
v -0.463157 1.000899 0.546304
v -0.631153 0.936757 0.538359
v -0.470206 1.018616 0.552336
v -0.025632 1.759702 2.697574
v -0.037313 1.735310 2.711922
v -0.025562 1.710933 2.726237
v 0.002737 1.700851 2.732135
v 0.031007 1.710970 2.726160
v 0.042687 1.735362 2.711813
v 0.030936 1.759739 2.697497
v 0.002637 1.769821 2.691599
v 0.418971 1.458861 -3.318784
v 0.392528 1.445470 -3.326446
v 0.380567 1.434433 -3.352376
v 0.390096 1.432212 -3.381384
v 0.415533 1.440111 -3.396480
v 0.453347 1.461656 -3.374530
v 0.453937 1.464539 -3.362888
v 0.444408 1.466760 -3.333879
v -0.790391 1.139681 -2.257212
v -0.790391 1.139681 -2.257212
v -0.793533 1.158822 -2.252339
v -0.793533 1.158822 -2.252339
v -0.620029 1.175905 -2.207569
v -0.620029 1.175905 -2.207569
v -0.616887 1.156764 -2.212442
v -0.616887 1.156764 -2.212442
v -0.762114 0.967410 -2.301066
v -0.762114 0.967410 -2.301066
v -0.765256 0.986551 -2.296193
v -0.765256 0.986551 -2.296193
v -0.591751 1.003634 -2.251423
v -0.591751 1.003634 -2.251423
v -0.588609 0.984493 -2.256296
v -0.588609 0.984493 -2.256296
v -0.659225 0.996991 -2.268833
v -0.659225 0.996991 -2.268833
v -0.697782 0.993195 -2.278783
v -0.697782 0.993195 -2.278783
v -0.684361 1.150120 -2.229852
v -0.684361 1.150120 -2.229852
v -0.722917 1.146324 -2.239801
v -0.722917 1.146324 -2.239801
v -0.600387 1.523109 -3.166730
v -0.600387 1.523109 -3.166730
v -0.603529 1.542250 -3.161857
v -0.603529 1.542250 -3.161857
v -0.430025 1.559333 -3.117087
v -0.430025 1.559333 -3.117087
v -0.426883 1.540192 -3.121959
v -0.426883 1.540192 -3.121959
v -0.572110 1.350838 -3.210584
v -0.572110 1.350838 -3.210584
v -0.575252 1.369980 -3.205711
v -0.575252 1.369980 -3.205711
v -0.401747 1.387062 -3.160941
v -0.401747 1.387062 -3.160941
v -0.398605 1.367921 -3.165814
v -0.398605 1.367921 -3.165814
v -0.469221 1.380419 -3.178351
v -0.469221 1.380419 -3.178351
v -0.507778 1.376623 -3.188300
v -0.507778 1.376623 -3.188300
v -0.494357 1.533548 -3.139370
v -0.494357 1.533548 -3.139370
v -0.532914 1.529752 -3.149319
v -0.532914 1.529752 -3.149319
vn -0.0444 0.9986 0.0276
vn -0.0130 0.9993 0.0360
vn 0.0213 0.9995 -0.0236
vn 0.0067 0.9998 0.0183
vn 0.0056 1.0000 0.0044
vn -0.0317 0.9994 0.0113
vn -0.0427 0.9985 0.0345
vn -0.0235 0.9991 -0.0363
vn -0.0432 0.9989 -0.0178
vn -0.0757 0.9971 0.0006
vn -0.0713 0.9974 -0.0137
vn -0.0066 1.0000 0.0007
vn 0.0979 0.9952 -0.0066
vn 0.0545 0.9985 -0.0099
vn 0.0263 0.9993 -0.0265
vn 0.0242 0.9997 0.0009
vn -0.0200 0.9998 0.0022
vn -0.0688 0.9973 -0.0247
vn 0.0414 0.9990 -0.0184
vn 0.0144 0.9998 0.0127
vn -0.0384 0.9984 0.0421
vn -0.0885 0.9959 -0.0187
vn -0.0650 0.9979 -0.0002
vn -0.0152 0.9999 0.0043
vn -0.0123 0.9989 0.0459
vn 0.0077 1.0000 -0.0044
vn 0.0014 0.9995 -0.0315
vn -0.0426 -0.9472 0.3178
vn 0.0428 0.9484 -0.3141
vn -0.0032 -0.8995 0.4369
vn 0.0032 0.8995 -0.4369
vn -0.0415 -0.9482 0.3148
vn 0.0412 0.9467 -0.3194
vn 0.9902 -0.0637 -0.1239
vn -0.9902 0.0637 0.1239
vn 0.0434 0.9492 -0.3118
vn -0.0439 -0.9511 0.3058
vn 0.0416 0.9496 -0.3108
vn -0.0412 -0.9482 0.3149
vn -0.9947 0.0699 0.0758
vn 0.9947 -0.0699 -0.0758
vn -0.0409 -0.9455 0.3232
vn 0.9941 -0.0689 -0.0836
vn -0.0957 -0.9922 0.0797
vn 0.0960 0.9924 -0.0771
vn 0.0968 0.9928 -0.0708
vn -0.0971 -0.9930 0.0671
vn -0.0966 -0.9931 0.0671
vn 0.0962 0.9927 -0.0721
vn 0.0973 0.9934 -0.0606
vn -0.0971 -0.9933 0.0633
vn 0.9952 -0.0939 -0.0277
vn -0.9952 0.0939 0.0276
vn -0.0963 -0.9927 0.0729
vn -0.0966 -0.9926 0.0734
vn -0.1113 -0.9927 -0.0466
vn 0.1112 0.9928 0.0437
vn 0.9935 -0.1124 -0.0159
vn -0.9933 0.1125 0.0258
vn 0.1112 0.9928 0.0447
vn -0.1113 -0.9926 -0.0477
vn -0.9934 0.1124 0.0207
vn 0.9934 -0.1124 -0.0208
vn 0.2329 -0.5989 -0.7662
vn 0.8273 0.4402 0.3490
vn 0.4966 -0.6303 -0.5967
vn 0.5418 0.7078 0.4533
vn -0.9417 0.0451 0.3335
vn -0.9361 0.1773 0.3039
vn 0.4295 -0.8179 -0.3828
vn 0.4948 0.7441 0.4488
vn -0.9962 -0.0396 0.0774
vn -0.8297 -0.3173 -0.4593
vn 0.1058 0.5680 -0.8162
vn -0.0735 0.8717 0.4845
vn 0.2442 -0.9588 -0.1450
vn -0.8797 -0.1548 -0.4497
vn 0.8786 0.1540 0.4520
vn -0.8508 -0.1346 -0.5080
vn -0.2442 0.9588 0.1451
vn 0.8463 0.1316 0.5162
vn -0.2598 0.9484 0.1815
vn 0.2598 -0.9484 -0.1815
vn 0.1389 -0.9854 0.0983
vn -0.1446 0.9856 -0.0879
vn -0.1591 0.9857 -0.0559
vn 0.1619 -0.9856 0.0488
vn 0.1199 -0.9855 0.1199
vn -0.1190 0.9851 -0.1241
vn -0.1413 0.9868 -0.0785
vn 0.1330 -0.9867 0.0934
vn 0.8383 0.1913 0.5106
vn -0.8385 -0.1916 -0.5101
vn 0.1473 -0.9858 0.0809
vn 0.1528 -0.9859 0.0678
vn -0.0914 -0.8840 0.4585
vn 0.0898 0.8851 -0.4566
vn 0.0874 0.8867 -0.4540
vn -0.0904 -0.8845 0.4576
vn -0.1207 -0.8621 0.4921
vn 0.1161 0.8657 -0.4869
vn 0.1134 0.8677 -0.4841
vn -0.1165 -0.8653 0.4875
vn 0.8241 0.1991 0.5302
vn -0.8242 -0.1991 -0.5301
vn -0.0930 -0.8828 0.4604
vn -0.0889 -0.8857 0.4557
vn -0.2153 -0.7789 0.5890
vn 0.2159 0.7783 -0.5896
vn -0.2179 -0.7760 0.5919
vn -0.2240 -0.7689 0.5988
vn 0.2218 0.7714 -0.5964
vn 0.2244 0.7684 -0.5993
vn 0.8284 0.1784 0.5310
vn -0.8284 -0.1784 -0.5310
vn -0.9380 -0.0057 -0.3465
vn -0.4014 0.4968 0.7695
vn 0.9104 0.0462 0.4111
vn 0.2872 -0.5003 -0.8169
vn -0.9104 -0.0462 -0.4111
vn -0.2872 0.5003 0.8169
vn 0.9380 0.0057 0.3465
vn 0.4014 -0.4968 -0.7695
vn 0.5112 -0.8175 0.2652
vn -0.5112 0.8175 -0.2652
vn -0.4463 0.0112 0.8948
vn 0.4463 -0.0112 -0.8948
vn 0.7719 -0.6210 0.1364
vn -0.7719 0.6210 -0.1364
vn 0.0198 0.2379 0.9711
vn -0.0198 -0.2379 -0.9711
vn 0.0199 0.2379 0.9711
vn 0.6355 0.7468 -0.1960
vn 0.2306 -0.8175 -0.5277
vn -0.2306 0.8175 0.5277
vn 0.9225 0.0112 0.3859
vn -0.9225 -0.0112 -0.3859
vn 0.2013 -0.8958 -0.3962
vn -0.2042 0.8931 0.4008
vn -0.2003 0.9017 0.3832
vn 0.2032 -0.8991 -0.3878
vn 0.2013 -0.8947 -0.3987
vn -0.1986 0.8974 0.3939
vn -0.1997 0.9031 0.3803
vn 0.1950 -0.9074 -0.3722
vn 0.8689 -0.0211 0.4945
vn -0.8693 0.0207 -0.4939
vn 0.2068 -0.8904 -0.4055
vn 0.1969 -0.9049 -0.3774
vn 0.0903 -0.9942 -0.0579
vn -0.0999 0.9926 0.0686
vn -0.0984 0.9930 0.0648
vn 0.1079 -0.9913 -0.0751
vn 0.0977 -0.9929 -0.0685
vn -0.0874 0.9946 0.0562
vn -0.1029 0.9926 0.0638
vn 0.0898 -0.9948 -0.0483
vn 0.7481 0.0138 0.6635
vn -0.7480 -0.0147 -0.6636
vn 0.1099 -0.9907 -0.0803
vn 0.0882 -0.9947 -0.0527
vn 0.0132 -0.9919 0.1260
vn -0.0259 0.9930 -0.1149
vn 0.6919 0.0748 0.7181
vn 0.0245 -0.9929 0.1161
vn -0.0105 0.9917 -0.1283
vn -0.0401 0.9939 -0.1024
vn -0.6690 -0.0767 -0.7393
vn 0.6695 0.0767 0.7388
vn -0.0988 -0.3809 -0.9193
vn 0.2900 -0.9480 0.1312
vn -0.2896 0.9484 -0.1290
vn -0.2897 0.9479 -0.1326
vn 0.2888 -0.9487 0.1285
vn 0.2871 -0.9509 0.1155
vn -0.2882 0.9499 -0.1207
vn -0.2870 0.9502 -0.1213
vn 0.2875 -0.9497 0.1239
vn -0.9401 -0.2608 0.2193
vn 0.9402 0.2608 -0.2193
vn 0.2886 -0.9493 0.1243
vn 0.2902 -0.9474 0.1351
vn 0.2087 -0.9740 -0.0883
vn -0.2096 0.9742 0.0832
vn -0.1868 0.9789 0.0828
vn 0.1882 -0.9792 -0.0758
vn 0.2075 -0.9735 -0.0964
vn -0.2071 0.9734 0.0984
vn -0.1857 0.9790 0.0836
vn 0.1837 -0.9786 -0.0925
vn -0.9767 -0.2066 0.0574
vn 0.9768 0.2064 -0.0577
vn 0.2102 -0.9744 -0.0802
vn 0.1847 -0.9785 -0.0914
vn 0.0172 -0.9984 -0.0530
vn -0.0193 0.9989 0.0430
vn -0.0123 0.9991 0.0402
vn 0.0142 -0.9994 -0.0307
vn 0.0211 -0.9988 -0.0436
vn -0.0186 0.9984 0.0535
vn -0.0122 0.9995 0.0301
vn 0.0098 -0.9992 -0.0392
vn -0.9965 -0.0176 0.0814
vn 0.9964 0.0172 -0.0830
vn 0.0222 -0.9992 -0.0331
vn 0.0103 -0.9987 -0.0495
vn -0.0788 -0.9968 0.0161
vn 0.0787 0.9968 -0.0162
vn 0.0782 0.9968 -0.0179
vn -0.0781 -0.9968 0.0180
vn -0.0787 -0.9968 0.0163
vn 0.0788 0.9968 -0.0161
vn 0.0781 0.9968 -0.0180
vn -0.0782 -0.9968 0.0179
vn -0.9403 0.0802 0.3309
vn 0.9403 -0.0802 -0.3308
vn -0.0787 -0.9968 0.0164
vn -0.0782 -0.9968 0.0178
vn -0.0721 -0.9968 0.0359
vn 0.0721 0.9968 -0.0359
vn 0.9155 -0.0804 -0.3942
vn -0.0905 -0.8946 0.4377
vn 0.0905 0.8946 -0.4377
vn -0.7400 -0.2337 -0.6307
vn 0.7400 0.2337 0.6307
vn -0.0581 0.9479 -0.3132
vn 0.0572 -0.9476 0.3144
vn 0.0533 -0.9471 0.3165
vn -0.0514 0.9463 -0.3191
vn -0.0635 0.9497 -0.3065
vn 0.0660 -0.9507 0.3031
vn 0.0563 -0.9484 0.3120
vn -0.0573 0.9488 -0.3108
vn -0.7680 -0.2433 -0.5924
vn 0.7679 0.2433 0.5926
vn 0.0604 -0.9488 0.3102
vn 0.0504 -0.9459 0.3204
vn -0.3059 0.9521 -0.0007
vn 0.3055 -0.9522 0.0009
vn 0.3026 -0.9531 0.0066
vn -0.3007 0.9537 -0.0101
vn -0.3131 0.9496 0.0154
vn 0.3154 -0.9488 -0.0196
vn 0.3072 -0.9516 -0.0045
vn -0.3079 0.9514 0.0050
vn -0.8843 -0.2941 -0.3626
vn 0.8845 0.2942 0.3621
vn 0.3079 -0.9514 -0.0030
vn 0.2998 -0.9539 0.0111
vn -0.3883 0.8874 0.2485
vn 0.3885 -0.8865 -0.2515
vn 0.3887 -0.8881 -0.2454
vn -0.3886 0.8880 0.2459
vn -0.3898 0.8829 0.2618
vn 0.3900 -0.8830 -0.2611
vn 0.3905 -0.8838 -0.2579
vn -0.3902 0.8848 0.2547
vn -0.9301 -0.3389 -0.1420
vn 0.9302 0.3389 0.1412
vn 0.3884 -0.8875 -0.2479
vn 0.3888 -0.8871 -0.2486
vn -0.3786 0.8683 0.3204
vn 0.3785 -0.8669 -0.3243
vn 0.3786 -0.8691 -0.3181
vn -0.3784 0.8644 0.3311
vn 0.3785 -0.8653 -0.3287
vn -0.3785 0.8668 0.3246
vn -0.9294 -0.3537 -0.1056
vn 0.9294 0.3537 0.1055
vn -0.8821 -0.3419 0.3240
vn 0.8900 0.1650 0.4251
vn 0.1785 -0.0606 -0.9821
vn -0.6733 -0.1339 0.7272
vn 0.9955 0.0905 -0.0298
vn -0.3675 0.1732 -0.9137
vn -0.8619 -0.1725 0.4768
vn 0.9754 -0.2003 -0.0918
vn -0.1822 0.6489 -0.7387
vn -0.7730 0.6246 -0.1111
vn -0.2227 -0.7474 0.6260
vn 0.9615 0.2098 -0.1773
vn -0.9775 0.0636 -0.2009
vn 0.2545 -0.3943 0.8830
vn 0.5812 0.0792 -0.8099
vn -0.6520 -0.0457 0.7569
vn 0.9350 -0.1073 0.3380
vn -0.2043 0.1046 -0.9733
vn -0.4272 -0.4908 -0.7593
vn -0.8105 0.2324 0.5377
vn 0.3931 0.3821 0.8363
vn 0.9852 -0.1141 -0.1279
vn -0.9808 0.1684 -0.0986
vn -0.3887 0.8678 0.3095
vn 0.8549 0.4972 0.1481
vn 0.1389 -0.9264 -0.3500
vn 0.1162 -0.7704 0.6269
vn -0.4431 0.7536 -0.4855
vn 0.9086 0.4123 -0.0672
vn -0.7486 -0.3289 0.5756
vn -0.3682 0.1294 -0.9207
vn 0.8776 0.4139 -0.2417
vn -0.8486 -0.2093 0.4859
vn -0.3935 -0.3268 -0.8593
vn 0.3963 -0.8963 0.1988
vn 0.3244 0.3622 0.8739
vn 0.1808 -0.9192 -0.3498
vn -0.1808 0.9192 0.3498
vn 0.9653 0.0967 0.2424
vn -0.9653 -0.0967 -0.2424
vn -0.9937 0.0723 0.0853
vn -0.9933 0.0710 0.0910
vn 0.9938 -0.0724 -0.0850
vn 0.9933 -0.0709 -0.0914
vn -0.9951 0.0664 0.0739
vn -0.9957 0.0669 0.0648
vn 0.9949 -0.0666 -0.0754
vn 0.9956 -0.0672 -0.0652
vn 0.0408 0.9465 -0.3201
vn 0.0442 0.9523 -0.3019
vn -0.0433 -0.9501 0.3091
vn -0.9941 0.0689 0.0834
vn 0.9948 -0.0960 -0.0340
vn 0.9948 -0.0962 -0.0338
vn -0.9952 0.0937 0.0277
vn -0.9948 0.0961 0.0338
vn 0.0968 0.9930 -0.0679
vn 0.9956 -0.0910 -0.0208
vn 0.9956 -0.0915 -0.0209
vn -0.9957 0.0909 0.0198
vn 0.9952 -0.0937 -0.0278
vn 0.0968 0.9932 -0.0645
vn -0.9956 0.0911 0.0199
vn 0.0214 -0.0651 0.9977
vn -0.9935 0.1124 0.0158
vn -0.1112 -0.9929 -0.0416
vn 0.1113 0.9925 0.0499
vn 0.9933 -0.1125 -0.0262
vn 0.9199 -0.3077 -0.2432
vn -0.2149 -0.2739 0.9374
vn -0.2518 0.9540 0.1627
vn 0.2518 -0.9540 -0.1628
vn 0.8641 0.1437 0.4824
vn -0.8647 -0.1441 -0.4812
vn 0.8477 0.1747 0.5009
vn -0.1281 0.9861 -0.1055
vn 0.8391 0.1660 0.5180
vn -0.8563 -0.1815 -0.4835
vn 0.8549 0.1816 0.4860
vn -0.1323 0.9864 -0.0971
vn -0.8482 -0.1748 -0.5000
vn 0.8344 0.1860 0.5188
vn -0.8365 -0.1882 -0.5147
vn -0.8424 -0.1670 -0.5122
vn 0.8427 0.1947 0.5019
vn -0.8427 -0.1958 -0.5014
vn -0.8291 -0.1977 -0.5231
vn -0.8284 -0.2026 -0.5222
vn 0.8201 0.2009 0.5358
vn 0.8233 0.2032 0.5301
vn -0.8203 -0.2009 -0.5355
vn -0.8195 -0.2041 -0.5356
vn 0.1121 0.8687 -0.4825
vn 0.8279 0.2027 0.5230
vn 0.8286 0.1977 0.5238
vn -0.8233 -0.2032 -0.5299
vn 0.8192 0.2042 0.5359
vn 0.1174 0.8646 -0.4885
vn 0.8315 0.1759 0.5269
vn -0.8316 -0.1759 -0.5268
vn 0.8254 0.1808 0.5348
vn -0.8254 -0.1808 -0.5348
vn 0.0157 0.8979 -0.4400
vn 0.7345 0.5758 0.3591
vn 0.8689 -0.0232 0.4945
vn -0.2051 0.8910 0.4050
vn 0.8854 -0.0107 0.4648
vn -0.8871 0.0095 -0.4615
vn -0.8801 0.0149 -0.4746
vn -0.1921 0.9098 0.3679
vn -0.8599 0.0275 -0.5097
vn 0.8564 -0.0301 0.5155
vn -0.8737 0.0199 -0.4861
vn 0.8795 -0.0153 0.4757
vn 0.8771 -0.0150 0.4801
vn -0.8778 0.0143 -0.4788
vn -0.7271 -0.0092 -0.6865
vn -0.7257 -0.0105 -0.6879
vn 0.7460 0.0157 0.6658
vn 0.7686 0.0176 0.6395
vn -0.7663 -0.0200 -0.6422
vn -0.7660 -0.0202 -0.6425
vn -0.0801 0.9960 0.0385
vn 0.7222 0.0052 0.6916
vn 0.7183 0.0092 0.6956
vn -0.7469 -0.0156 -0.6647
vn 0.7645 0.0209 0.6443
vn -0.1099 0.9905 0.0827
vn 0.8468 -0.1874 -0.4978
vn -0.6870 -0.0753 -0.7227
vn 0.0393 -0.9939 0.1031
vn -0.6459 -0.0784 -0.7594
vn 0.6451 0.0785 0.7601
vn 0.9517 0.2337 -0.1991
vn -0.2907 0.8946 -0.3394
vn 0.2907 -0.8946 0.3394
vn -0.9517 -0.2337 0.1991
vn 0.9440 0.2553 -0.2088
vn -0.9441 -0.2550 0.2089
vn -0.2885 0.9488 -0.1283
vn 0.9432 0.2541 -0.2143
vn -0.9387 -0.2593 0.2273
vn 0.9387 0.2592 -0.2271
vn 0.9421 0.2528 -0.2201
vn -0.9414 -0.2622 0.2122
vn -0.9432 -0.2540 0.2143
vn 0.9415 0.2621 -0.2119
vn -0.9423 -0.2526 0.2199
vn -0.2866 0.9513 -0.1133
vn -0.9774 -0.2056 0.0497
vn -0.9777 -0.2047 0.0474
vn 0.9759 0.2076 -0.0666
vn 0.9768 0.2064 -0.0576
vn -0.9758 -0.2085 0.0655
vn -0.9763 -0.2070 0.0625
vn -0.2084 0.9738 0.0913
vn -0.9769 -0.2062 0.0564
vn 0.9758 0.2080 -0.0675
vn -0.1823 0.9782 0.0990
vn 0.9775 0.2047 -0.0511
vn 0.9772 0.2056 -0.0534
vn -0.9977 -0.0177 0.0649
vn -0.9985 -0.0252 0.0492
vn 0.9950 0.0174 -0.0987
vn 0.9975 0.0268 -0.0647
vn -0.9956 -0.0194 0.0921
vn -0.9965 -0.0262 0.0799
vn -0.0237 0.9992 0.0335
vn -0.9976 -0.0264 0.0647
vn 0.9964 0.0282 -0.0799
vn -0.0084 0.9988 0.0485
vn 0.9972 0.0158 -0.0725
vn 0.9984 0.0272 -0.0493
vn 0.0782 0.9968 -0.0178
vn 0.9409 -0.0802 -0.3292
vn -0.9402 0.0802 0.3310
vn -0.9408 0.0802 0.3293
vn 0.9403 -0.0802 -0.3307
vn 0.9408 -0.0802 -0.3292
vn 0.0787 0.9968 -0.0164
vn -0.9408 0.0802 0.3292
vn 0.9409 -0.0802 -0.3291
vn 0.3958 0.0044 0.9183
vn -0.9155 0.0804 0.3942
vn 0.6665 -0.3809 -0.6408
vn 0.7723 0.2419 0.5873
vn 0.7650 0.2401 0.5975
vn -0.7641 -0.2445 -0.5970
vn -0.7617 -0.2411 -0.6014
vn 0.7631 0.2447 0.5982
vn 0.7581 0.2423 0.6055
vn -0.0542 0.9476 -0.3148
vn -0.7652 -0.2399 -0.5974
vn -0.7730 -0.2418 -0.5866
vn 0.7616 0.2412 0.6015
vn -0.7586 -0.2420 -0.6049
vn -0.0668 0.9509 -0.3021
vn -0.3154 0.9488 0.0191
vn -0.8673 -0.2858 -0.4076
vn -0.8716 -0.2836 -0.4000
vn -0.8618 -0.2870 -0.4183
vn 0.8627 0.2878 0.4159
vn 0.8675 0.2860 0.4069
vn -0.3050 0.9524 0.0004
vn 0.8900 0.2929 0.3494
vn -0.8889 -0.2928 -0.3523
vn 0.8730 0.2842 0.3963
vn -0.8789 -0.2949 -0.3751
vn 0.8794 0.2952 0.3736
vn -0.9292 -0.3392 -0.1465
vn -0.9287 -0.3343 -0.1603
vn -0.3897 0.8841 0.2578
vn -0.9300 -0.3338 -0.1540
vn -0.9307 -0.3333 -0.1508
vn 0.9294 0.3342 0.1566
vn 0.9301 0.3338 0.1531
vn -0.3903 0.8837 0.2584
vn 0.9311 0.3384 0.1364
vn -0.9305 -0.3384 -0.1402
vn 0.9315 0.3332 0.1460
vn 0.9297 0.3393 0.1433
vn 0.9295 0.3543 0.1023
vn -0.9295 -0.3542 -0.1027
vn -0.9293 -0.3530 -0.1090
vn 0.9293 0.3530 0.1087
vn 0.0008 0.5067 0.8621
vn 0.8858 0.2283 -0.4039
vn 0.2149 0.2739 -0.9374
vt 0.382624 0.000000
vt 0.500000 0.166667
vt 0.250000 0.166667
vt 0.750000 0.333333
vt 1.000000 0.354299
vt 0.750000 0.500000
vt 0.750000 0.666667
vt 1.000000 0.687893
vt 0.750000 0.833333
vt 0.625000 0.750000
vt 0.875000 0.750000
vt 0.125000 0.750000
vt 0.208333 0.750000
vt 0.625000 0.000000
vt 0.375000 0.750000
vt 0.291667 0.750000
vt 0.853148 1.000000
vt 0.767634 1.000000
vt 0.554946 1.000000
vt 0.919546 0.500000
vt 0.873945 1.000000
vt 0.644773 0.500000
vt 0.451922 1.000000
vt 0.232171 1.000000
vt 0.142633 1.000000
vt 0.000000 1.000000
vt 0.051316 0.252922
vt 0.226419 0.447463
vt 0.359628 0.444591
vt 0.410607 0.124424
vt 0.458226 0.173290
vt 0.111641 0.113601
vt 0.365196 0.442284
vt 0.134856 0.442306
vt 0.431390 0.171504
vt 0.061813 0.268127
vt 0.387833 0.115363
vt 1.000000 1.000000
vt 0.493267 1.000000
vt 0.367304 0.401160
vt 0.265483 0.442683
vt 0.456587 0.169334
vt 0.243700 0.062937
vt 0.086398 0.145027
vt 0.045148 0.334854
vt 0.164155 0.454442
vt 0.462742 0.315807
vt 0.344130 0.048990
vt 0.051703 0.149321
vt 0.168159 0.043900
vt 0.010000 0.250000
vt 0.251325 0.438238
vt 0.457746 0.172131
vt 0.152113 0.449454
vt 0.446687 0.244248
vt 0.173076 0.041863
vt 0.051577 0.350376
vt 0.111145 0.379072
vt 0.171566 0.042488
vt 0.317190 0.462169
vt 0.446675 0.247083
vt 0.000000 0.669270
vt 0.250000 0.681054
vt 0.250000 1.000000
vt 0.500000 0.833333
vt 0.999908 0.166667
vt 1.000000 0.000000
vt 0.500000 0.333333
vt 0.500000 0.500000
vt 0.500000 0.666667
vt 0.250000 0.333333
vt 0.250000 0.500000
vt 0.000000 0.166667
vt 0.000000 0.000000
vt 0.000000 0.333333
vt 0.000000 0.500000
vt 0.625000 0.250000
vt 0.375000 0.250000
vt 0.375000 0.000000
vt 0.375000 0.500000
vt 0.625000 0.500000
vt 0.291667 0.500000
vt 0.875000 0.500000
vt 0.125000 0.500000
vt 0.208333 0.500000
vt 0.554711 1.000000
vt 0.245725 1.000000
vt 0.246735 0.500000
vt 0.250000 0.490000
vt 0.080294 0.419706
vt 0.080294 0.080294
vt 0.250000 0.010000
vt 0.419706 0.080294
vt 0.490000 0.250000
vt 0.419706 0.419706
vt 0.036207 0.313269
vt 0.030930 0.300530
vt 0.124182 0.062115
vt 0.148694 0.051962
vt 0.375815 0.437886
vt 0.351305 0.448038
vt 0.469068 0.199465
vt 0.463792 0.186728
vt 0.029433 0.203085
vt 0.166479 0.044596
vt 0.464444 0.188302
s 1
f 4/1/4 19/2/19 15/3/15
f 24/4/24 13/5/13 25/6/25
f 26/7/26 14/8/14 27/9/27
f 476/10/333 474/11/333 472/12/333 494/13/333 490/13/333 482/12/333 480/14/333 486/10/333 484/15/333 488/16/333 492/16/333 478/15/333
f 82/17/70 499/18/338 83/19/71
f 76/20/64 78/21/66 77/22/65
f 83/19/71 87/23/75 84/24/72
f 84/24/72 85/25/73 82/26/70
f 504/10/339 502/11/339 500/12/339 522/13/339 518/13/339 510/12/339 508/14/339 514/10/339 512/15/339 516/16/339 520/16/339 506/15/339
f 376/27/270 381/28/275 378/29/272
f 377/30/271 380/31/274 379/32/273
f 384/33/278 385/34/279 387/35/281
f 379/32/273 382/36/276 381/28/275
f 380/31/274 383/37/277 379/32/273
f 381/28/275 382/36/276 384/33/278
f 3/38/3 6/39/6 27/9/27 14/8/14
f 390/40/284 393/41/287 392/42/286
f 389/43/283 391/44/285 388/45/282
f 388/45/282 391/44/285 393/41/287
f 393/41/287 394/46/288 397/47/291
f 392/42/286 397/47/291 396/48/290
f 392/42/286 396/48/290 391/44/285
f 395/49/289 399/50/293 398/51/292
f 394/46/288 401/52/295 397/47/291
f 397/47/291 400/53/294 396/48/290
f 401/52/295 398/51/292 402/54/296
f 401/52/295 404/55/298 400/53/294
f 401/52/295 402/54/296 404/55/298
f 409/56/303 408/57/302 405/58/299 406/59/300
f 405/58/299 408/57/302 411/60/305
f 405/58/299 411/60/305 407/61/301
f 888/10/339 886/11/339 884/12/339 906/13/339 902/13/339 894/12/339 892/14/339 898/10/339 896/15/339 900/16/339 904/16/339 890/15/339
f 2/26/2 8/62/8 18/63/18 7/64/7
f 7/64/7 18/63/18 23/65/23 6/39/6
f 12/66/12 19/2/19 4/1/4 5/67/5
f 23/65/23 27/9/27 6/39/6
f 24/4/24 20/68/20 19/2/19 12/66/12
f 21/69/21 20/68/20 24/4/24 25/6/25
f 22/70/22 21/69/21 25/6/25 26/7/26
f 23/65/23 22/70/22 26/7/26 27/9/27
f 20/68/20 16/71/16 15/3/15 19/2/19
f 21/69/21 17/72/17 16/71/16 20/68/20
f 22/70/22 18/63/18 17/72/17 21/69/21
f 15/3/15 11/73/11 1/74/1 4/1/4
f 18/63/18 22/70/22 23/65/23
f 16/71/16 10/75/10 11/73/11 15/3/15
f 9/76/9 10/75/10 16/71/16 17/72/17
f 8/62/8 9/76/9 17/72/17 18/63/18
f 14/8/14 26/7/26 25/6/25 13/5/13
f 12/66/12 13/5/13 24/4/24
f 439/77/35 436/78/35 437/79/310 438/14/311
f 443/10/313 440/15/312 441/80/34 35/81/34
f 457/16/320 456/82/30 34/80/30 32/15/32
f 33/10/33 442/81/31 31/83/31 29/11/29
f 28/12/28 30/84/30 458/85/30 50/13/42
f 446/14/315 445/79/314 444/78/35 447/77/35
f 451/10/317 44/81/34 449/80/34 448/15/316
f 43/80/31 454/82/31 455/16/319 41/15/38
f 38/11/37 40/83/30 450/81/30 42/10/39
f 453/85/31 39/84/31 37/12/36 452/13/318
f 51/16/43 48/16/41 45/82/34 49/82/34
f 36/85/35 46/85/35 47/13/40 459/13/321
f 460/10/322 461/15/323 440/15/312 443/10/313
f 633/14/131 634/12/131 614/12/131 612/14/131
f 493/16/335 62/16/54 55/15/47 479/15/335
f 63/13/55 52/12/44 28/12/28 50/13/42
f 462/13/324 459/13/321 47/13/40 61/13/53
f 465/15/327 466/10/328 451/10/317 448/15/316
f 54/10/46 33/10/33 29/11/29 53/11/45
f 464/13/326 452/13/318 37/12/36 57/12/49
f 55/15/47 62/16/54 457/16/320 32/15/32
f 58/15/50 41/15/38 455/16/319 470/16/331
f 468/79/329 445/79/314 446/14/315 471/14/332
f 469/16/330 60/16/52 48/16/41 51/16/43
f 467/14/325 438/14/311 437/79/310 463/79/325
f 59/10/51 56/11/48 38/11/37 42/10/39
f 475/14/334 467/14/325 463/79/325 473/79/334
f 483/12/336 491/13/336 464/13/326 57/12/49
f 485/15/337 487/10/337 466/10/328 465/15/327
f 64/12/56 52/12/44 63/13/55 495/13/56
f 477/10/58 67/15/58 461/15/323 460/10/322
f 74/16/63 489/16/63 60/16/52 469/16/330
f 72/16/60 70/15/60 58/15/50 470/16/331
f 65/11/57 66/10/57 54/10/46 53/11/45
f 75/13/62 462/13/324 61/13/53 73/13/62
f 481/11/61 56/11/48 59/10/51 71/10/61
f 69/79/59 468/79/329 471/14/332 68/14/59
f 83/19/71 79/86/67 78/21/66 82/17/70
f 83/19/71 499/18/338 87/23/75
f 83/19/71 84/24/72 81/87/69 79/86/67
f 78/21/66 79/86/67 77/22/65
f 80/88/68 77/22/65 79/86/67 81/87/69
f 496/89/74 497/90/74 86/51/74 498/91/74 88/92/74 89/93/74 90/94/74 91/95/74
f 84/24/72 82/26/70 78/26/66 81/87/69
f 78/26/66 76/76/64 80/88/68 81/87/69
f 84/24/72 87/23/75 85/25/73
f 82/17/70 85/38/73 499/18/338
f 607/11/129 173/11/129 174/10/129 609/10/129
f 532/14/352 533/12/353 537/12/357 536/14/356
f 524/16/344 521/16/342 517/16/342 112/16/92
f 525/16/345 100/16/82 513/15/82 110/15/90
f 105/11/85 503/11/340 505/10/340 106/10/86
f 519/13/343 523/13/343 530/13/350 113/13/93
f 515/10/341 509/14/341 108/14/88 111/10/91
f 96/14/79 511/12/79 533/12/353 532/14/352
f 507/15/83 102/16/83 114/16/94 107/15/87
f 501/12/77 93/11/77 527/11/347 535/12/355
f 109/12/89 97/12/80 101/13/80 529/13/349
f 526/15/346 98/15/81 99/10/81 531/10/351
f 103/13/76 92/12/76 104/12/84 115/13/95
f 528/10/348 94/10/78 95/15/78 534/15/354
f 135/10/111 123/10/103 120/14/100 132/14/111
f 119/15/99 107/15/87 114/16/94 126/16/106
f 535/12/355 527/11/347 541/11/361 540/12/360
f 109/12/89 529/13/349 542/13/362 121/12/101
f 543/15/363 526/15/346 531/10/351 544/10/364
f 127/13/107 115/13/95 104/12/84 116/12/96
f 546/10/366 528/10/348 534/15/354 538/15/358
f 539/16/359 524/16/344 112/16/92 124/16/104
f 525/16/345 110/15/90 122/15/102 547/16/367
f 105/11/85 106/10/86 118/10/98 117/11/97
f 113/13/93 530/13/350 545/13/365 125/13/105
f 123/10/103 111/10/91 108/14/88 120/14/100
f 179/10/128 176/14/128 613/14/128 619/10/128
f 536/14/356 537/12/357 550/12/369 549/14/369
f 131/15/110 119/15/99 126/16/106 138/16/110
f 540/12/360 541/11/361 554/11/371 553/12/371
f 121/12/101 542/13/362 555/13/112 133/12/112
f 556/15/368 543/15/363 544/10/364 548/10/368
f 139/13/108 127/13/107 116/12/96 128/12/108
f 558/10/370 546/10/366 538/15/358 551/15/370
f 552/16/114 539/16/359 124/16/104 136/16/114
f 547/16/367 122/15/102 134/15/113 559/16/113
f 117/11/97 118/10/98 130/10/109 129/11/109
f 125/13/105 545/13/365 557/13/115 137/13/115
f 626/13/133 604/12/133 606/11/133 608/10/133 610/15/133 624/16/133 620/16/133 616/15/133 618/10/133 188/14/133 615/12/133 622/13/133
f 144/96/120 140/97/116 141/98/117 145/99/121
f 562/51/372 563/91/372 564/92/372 565/93/372 566/94/372 567/95/372 560/89/372 561/90/372
f 144/96/120 147/100/123 143/101/119 140/97/116
f 147/100/123 146/102/122 142/103/118 143/101/119
f 145/99/121 141/98/117 142/103/118 146/102/122
f 623/13/131 181/13/131 631/13/131 627/13/131
f 571/11/125 149/11/125 150/10/125 573/10/125
f 590/13/373 568/12/373 570/11/373 572/10/373 574/15/373 588/16/373 584/16/373 580/15/373 582/10/373 576/14/373 578/12/373 586/13/373
f 587/13/127 157/13/127 595/13/127 591/13/127
f 155/10/124 152/14/124 577/14/124 583/10/124
f 597/14/127 598/12/127 579/12/127 164/14/127
f 151/15/124 158/16/124 589/16/124 575/15/124
f 601/12/127 592/11/127 161/11/127 569/12/127
f 165/12/125 153/12/125 594/13/125 169/13/125
f 581/15/126 602/15/126 596/10/126 167/10/126
f 159/13/124 148/12/124 160/12/124 171/13/124
f 162/10/126 593/10/126 599/15/126 163/15/126
f 600/16/126 156/16/126 585/16/126 170/16/126
f 168/16/125 603/16/125 154/15/125 166/15/125
f 175/15/128 182/16/128 625/16/128 611/15/128
f 605/12/131 637/12/131 628/11/131 185/11/131
f 189/12/129 177/12/129 630/13/129 193/13/129
f 617/15/130 638/15/130 632/10/130 191/10/130
f 183/13/128 172/12/128 184/12/128 195/13/128
f 186/10/132 629/10/132 635/15/132 187/15/132
f 636/16/130 180/16/130 621/16/130 194/16/130
f 192/16/129 639/16/129 178/15/129 190/15/129
f 737/15/420 734/15/417 728/10/411 736/10/419
f 664/12/386 665/14/387 653/14/380 657/12/382
f 642/16/375 643/16/135 202/15/135 214/15/144
f 209/11/139 197/11/135 198/10/135 210/10/140
f 217/13/147 205/13/137 648/13/137 649/13/378
f 212/14/142 215/10/145 203/10/134 200/14/134
f 653/14/380 652/14/137 656/12/137 657/12/382
f 218/16/148 211/15/141 199/15/134 206/16/134
f 662/12/385 663/12/137 647/11/137 646/11/377
f 213/12/143 201/12/135 651/13/135 650/13/379
f 641/15/374 640/15/136 655/10/136 654/10/381
f 208/12/138 219/13/149 207/13/134 196/12/134
f 645/10/376 644/10/136 661/15/136 660/15/384
f 216/16/146 659/16/383 658/16/136 204/16/136
f 686/12/401 684/14/401 665/14/387 664/12/386
f 230/16/160 223/15/153 211/15/141 218/16/148
f 668/11/390 669/12/391 662/12/385 646/11/377
f 225/12/155 213/12/143 650/13/379 670/13/392
f 672/15/394 641/15/374 654/10/381 671/10/393
f 220/12/150 231/13/161 219/13/149 208/12/138
f 674/10/396 645/10/376 660/15/384 667/15/389
f 666/16/388 659/16/383 216/16/146 228/16/158
f 675/16/397 642/16/375 214/15/144 226/15/156
f 221/11/151 209/11/139 210/10/140 222/10/152
f 673/13/395 229/13/159 217/13/147 649/13/378
f 224/14/154 227/10/157 215/10/145 212/14/142
f 683/15/400 223/15/153 230/16/160 697/16/400
f 698/13/398 676/12/398 678/11/398 680/10/398 682/15/398 696/16/398 692/16/398 688/15/398 690/10/398 685/14/398 687/12/398 694/13/398
f 679/11/399 677/12/399 669/12/391 668/11/390
f 237/12/166 225/12/155 670/13/392 695/13/166
f 691/10/402 689/15/402 672/15/394 671/10/393
f 699/13/162 231/13/161 220/12/150 232/12/162
f 235/15/164 681/10/164 674/10/396 667/15/389
f 693/16/169 242/16/169 666/16/388 228/16/158
f 240/16/167 675/16/397 226/15/156 238/15/167
f 234/10/163 233/11/163 221/11/151 222/10/152
f 243/13/168 241/13/168 229/13/159 673/13/395
f 236/14/165 239/10/165 227/10/157 224/14/154
f 257/11/172 701/11/404 707/10/404 258/10/173
f 265/13/180 719/13/403 722/13/403 727/13/410
f 713/10/405 711/14/405 260/14/175 263/10/178
f 710/14/403 708/12/403 730/12/413 729/14/412
f 705/15/405 721/16/405 266/16/181 259/15/174
f 733/12/416 702/12/403 700/11/403 724/11/407
f 261/12/176 709/12/404 718/13/404 726/13/409
f 734/15/417 714/15/406 712/10/406 728/10/411
f 723/13/405 703/12/405 256/12/171 267/13/182
f 725/10/408 706/10/406 704/15/406 731/15/414
f 720/16/406 717/16/406 264/16/179 732/16/415
f 735/16/418 716/16/404 715/15/404 262/15/177
f 749/15/432 737/15/420 736/10/419 748/10/431
f 268/12/183 279/13/194 267/13/182 256/12/171
f 741/10/424 725/10/408 731/15/414 740/15/423
f 743/16/426 732/16/415 264/16/179 276/16/191
f 274/15/189 742/16/425 735/16/418 262/15/177
f 269/11/184 257/11/172 258/10/173 270/10/185
f 739/13/422 277/13/192 265/13/180 727/13/410
f 275/10/190 263/10/178 260/14/175 272/14/187
f 747/12/430 746/14/429 729/14/412 730/12/413
f 278/16/193 271/15/186 259/15/174 266/16/181
f 744/11/427 738/12/421 733/12/416 724/11/407
f 745/13/428 273/12/188 261/12/176 726/13/409
f 297/12/212 285/12/200 757/13/440 760/13/443
f 280/12/195 291/13/206 279/13/194 268/12/183
f 753/10/436 741/10/424 740/15/423 752/15/435
f 755/16/438 743/16/426 276/16/191 288/16/203
f 754/16/437 742/16/425 274/15/189 286/15/201
f 281/11/196 269/11/184 270/10/185 282/10/197
f 751/13/434 289/13/204 277/13/192 739/13/422
f 284/14/199 287/10/202 275/10/190 272/14/187
f 759/12/442 758/14/441 746/14/429 747/12/430
f 290/16/205 283/15/198 271/15/186 278/16/193
f 756/11/439 750/12/433 738/12/421 744/11/427
f 285/12/200 273/12/188 745/13/428 757/13/440
f 772/12/221 764/12/447 770/11/451 774/11/221
f 763/15/446 749/15/432 748/10/431 762/10/445
f 292/12/207 303/13/218 291/13/206 280/12/195
f 767/10/446 753/10/436 752/15/435 766/15/215
f 769/16/450 755/16/438 288/16/203 300/16/215
f 768/16/449 754/16/437 286/15/201 298/15/213
f 293/11/208 281/11/196 282/10/197 294/10/209
f 765/13/448 301/13/216 289/13/204 751/13/434
f 296/14/211 299/10/214 287/10/202 284/14/199
f 761/12/444 771/14/216 758/14/441 759/12/442
f 302/16/217 295/15/210 283/15/198 290/16/205
f 770/11/451 764/12/447 750/12/433 756/11/439
f 783/12/220 297/12/212 760/13/443 791/13/220
f 794/13/452 773/12/452 775/11/452 776/10/452 778/15/452 792/16/452 788/16/452 784/15/452 786/10/452 780/14/452 782/12/452 790/13/452
f 787/10/453 785/15/453 763/15/446 762/10/445
f 304/12/219 795/13/219 303/13/218 292/12/207
f 777/10/453 767/10/446 766/15/215 779/15/453
f 789/16/453 793/16/453 769/16/450 300/16/215
f 312/16/220 768/16/449 298/15/213 310/15/220
f 305/11/220 293/11/208 294/10/209 306/10/220
f 313/13/221 301/13/216 765/13/448 315/13/221
f 781/14/219 311/10/219 299/10/214 296/14/211
f 309/12/221 308/14/221 771/14/216 761/12/444
f 314/16/219 307/15/219 295/15/210 302/16/217
f 248/14/170 251/10/170 250/15/170 252/16/170 254/16/170 247/15/170 246/10/170 245/11/170 244/12/170 255/13/170 253/13/170 249/12/170
f 806/14/454 808/10/454 810/15/454 812/16/454 816/16/454 800/15/454 802/10/454 796/11/454 798/12/454 818/13/454 814/13/454 804/12/454
f 833/16/468 823/16/458 336/16/234 348/16/246
f 807/14/225 805/12/225 821/12/456 820/14/455
f 801/15/222 817/16/222 338/16/236 330/15/228
f 824/12/459 799/12/225 797/11/225 825/11/460
f 332/12/230 321/12/223 815/13/223 826/13/461
f 811/15/224 809/10/224 828/10/463 827/15/462
f 819/13/222 316/12/222 329/12/227 339/13/237
f 830/10/465 803/10/224 319/15/224 822/15/457
f 326/16/224 813/16/224 336/16/234 823/16/458
f 324/16/223 322/15/223 335/15/233 831/16/466
f 317/11/223 318/10/223 331/10/229 328/11/226
f 337/13/235 325/13/225 327/13/225 829/13/464
f 323/10/222 320/14/222 333/14/231 334/10/232
f 845/10/480 835/10/470 842/15/477 844/15/479
f 832/16/467 831/16/466 335/15/233 347/15/245
f 340/11/238 328/11/226 331/10/229 343/10/241
f 837/13/472 349/13/247 337/13/235 829/13/464
f 345/14/243 346/10/244 334/10/232 333/14/231
f 841/12/476 839/14/474 820/14/455 821/12/456
f 350/16/248 342/15/240 330/15/228 338/16/236
f 836/11/471 843/12/478 824/12/459 825/11/460
f 344/12/242 332/12/230 826/13/461 838/13/473
f 834/15/469 827/15/462 828/10/463 840/10/475
f 341/12/239 351/13/249 339/13/237 329/12/227
f 835/10/470 830/10/465 822/15/457 842/15/477
f 375/13/263 363/13/261 353/12/251 365/12/263
f 847/16/482 833/16/468 348/16/246 360/16/258
f 359/15/257 846/16/481 832/16/467 347/15/245
f 355/10/253 352/11/250 340/11/238 343/10/241
f 850/13/485 361/13/259 349/13/247 837/13/472
f 358/10/256 346/10/244 345/14/243 357/14/255
f 854/12/489 852/14/487 839/14/474 841/12/476
f 354/15/252 342/15/240 350/16/248 362/16/260
f 849/11/484 855/12/490 843/12/478 836/11/471
f 851/13/486 356/12/254 344/12/242 838/13/473
f 848/15/483 834/15/469 840/10/475 853/10/488
f 363/13/261 351/13/249 341/12/239 353/12/251
f 859/10/492 845/10/480 844/15/479 858/15/492
f 861/16/268 847/16/482 360/16/258 372/16/268
f 371/15/267 860/16/267 846/16/481 359/15/257
f 367/10/262 364/11/262 352/11/250 355/10/253
f 857/13/269 373/13/269 361/13/259 850/13/485
f 370/10/266 358/10/256 357/14/255 369/14/266
f 867/12/494 865/14/494 852/14/487 854/12/489
f 366/15/264 354/15/252 362/16/260 374/16/264
f 863/11/491 856/12/491 855/12/490 849/11/484
f 864/13/265 368/12/265 356/12/254 851/13/486
f 862/15/493 848/15/483 853/10/488 866/10/493
f 380/31/274 377/30/271 378/29/272 381/28/275
f 379/32/273 383/37/277 382/36/276
f 376/27/270 377/30/271 379/32/273
f 376/27/270 379/32/273 381/28/275
f 384/33/278 383/37/277 380/31/274 381/28/275
f 868/89/495 869/90/495 870/51/495 871/91/495 872/92/495 873/93/495 874/94/495 875/95/495
f 386/104/280 382/36/276 383/37/277 387/35/281
f 394/46/288 393/41/287 391/44/285 395/49/289
f 382/36/276 386/104/280 385/34/279
f 383/37/277 384/33/278 387/35/281
f 384/33/278 382/36/276 385/34/279
f 389/43/283 392/42/286 391/44/285
f 390/40/284 388/45/282 393/41/287
f 389/43/283 390/40/284 392/42/286
f 397/47/291 401/52/295 400/53/294
f 391/44/285 396/48/290 395/49/289
f 398/51/292 401/52/295 394/46/288 395/49/289
f 392/42/286 393/41/287 397/47/291
f 396/48/290 400/53/294 399/50/293
f 395/49/289 396/48/290 399/50/293
f 405/58/299 407/61/301 404/55/298 402/54/296
f 403/105/297 399/50/293 400/53/294 404/55/298
f 409/56/303 406/59/300 407/61/301 881/106/496
f 398/51/292 399/50/293 403/105/297
f 406/59/300 403/105/297 404/55/298 407/61/301
f 402/54/296 398/51/292 405/58/299
f 406/59/300 405/58/299 398/51/292 403/105/297
f 876/89/304 877/90/304 878/51/304 879/91/304 880/92/304 410/93/304 882/94/304 883/95/304
f 407/61/301 411/60/305 881/106/496
f 917/14/309 893/14/309 895/12/309 919/12/309
f 930/13/497 908/12/497 910/11/497 912/10/497 914/15/497 928/16/497 924/16/497 920/15/497 922/10/497 916/14/497 918/12/497 926/13/497
f 915/15/306 891/15/306 905/16/306 929/16/306
f 909/12/309 885/12/309 887/11/309 911/11/309
f 417/12/307 903/13/307 927/13/307 429/12/307
f 897/15/308 899/10/308 923/10/308 921/15/308
f 931/13/306 907/13/306 412/12/306 424/12/306
f 889/10/308 415/15/308 427/15/308 913/10/308
f 422/16/308 901/16/308 925/16/308 434/16/308
f 420/16/307 418/15/307 430/15/307 432/16/307
f 413/11/307 414/10/307 426/10/307 425/11/307
f 433/13/309 421/13/309 423/13/309 435/13/309
f 431/10/306 419/10/306 416/14/306 428/14/306
