# Blender 5.0.1
# www.blender.org
mtllib LampPost.mtl
g LampPost_Mesh
v -0.167002 2.427114 -0.232901
v 0.041650 3.730899 1.302125
v -0.136366 2.408973 -0.232240
v 0.083450 3.732846 1.318132
v -0.109972 2.379889 -0.211087
v 0.116844 3.697444 1.346244
v -0.122532 2.354006 -0.170933
v 0.092827 3.652436 1.361417
v -0.160097 2.364333 -0.137657
v 0.052385 3.638974 1.378508
v -0.213729 2.371206 -0.142419
v 0.000101 3.639157 1.362885
v -0.227756 2.386506 -0.183684
v -0.012398 3.684937 1.348667
v -0.218857 2.417112 -0.195544
v -0.001328 3.707346 1.306331
v 0.064908 3.572911 -0.116595
v -0.084124 3.544059 -0.081836
v -0.083108 3.480000 -0.020000
v -0.082126 3.415271 0.080387
v 0.000000 3.397205 0.089488
v 0.086565 3.419884 0.079529
v 0.218818 3.428428 -0.016491
v 0.230788 3.569824 -0.102544
v 0.067450 3.613524 -0.086741
v -0.081256 3.604102 -0.081463
v -0.083108 3.520000 0.020000
v -0.085542 3.469418 0.101027
v 0.015682 3.432608 0.116028
v 0.125434 3.425672 0.097240
v 0.230764 3.423772 0.026936
v 0.220217 3.572903 -0.064343
v 0.235078 3.574601 -0.099210
v 0.227264 3.570851 -0.089810
v 0.231644 3.575655 -0.086247
v 0.223741 3.571877 -0.077076
v 0.228213 3.576684 -0.073296
v 0.067735 3.611614 -0.098033
v 0.066603 3.599987 -0.096692
v 0.066226 3.598114 -0.107995
v 0.065755 3.586449 -0.106644
v 0.064737 3.584579 -0.117915
v 0.094114 3.413194 0.084548
v 0.099521 3.421813 0.085433
v 0.106694 3.415184 0.090803
v 0.112478 3.423742 0.091336
v 0.119326 3.417184 0.096985
v 0.234567 3.419032 0.019674
v 0.226782 3.425324 0.012460
v 0.230493 3.420491 0.005107
v 0.222800 3.426876 -0.002016
v 0.226404 3.421937 -0.009440
v -0.088921 3.421931 0.088260
v -0.083265 3.433320 0.087267
v -0.090164 3.440063 0.095035
v -0.084404 3.451369 0.094147
v -0.091397 3.458189 0.101815
v 0.012318 3.421697 0.117796
v 0.010455 3.420807 0.107181
v 0.007459 3.409698 0.108818
v 0.005227 3.409006 0.098335
v 0.002706 3.397662 0.099773
v -0.089983 3.555652 -0.086392
v -0.083168 3.564073 -0.081711
v -0.088815 3.575734 -0.086522
v -0.082212 3.584088 -0.081587
v -0.087640 3.595809 -0.086642
v -0.091107 3.513373 0.013236
v -0.083108 3.506667 0.006667
v -0.091108 3.500001 -0.000026
v -0.083108 3.493333 -0.006667
v -0.091108 3.486629 -0.013283
v 0.083946 3.573489 1.028570
v -0.033639 3.508295 1.041378
v -0.054948 3.470671 1.091866
v -0.026405 3.431868 1.131182
v 0.080204 3.427827 1.135042
v 0.224731 3.423508 1.131326
v 0.226888 3.572241 1.072701
v -0.079755 2.563587 -0.087231
v 0.070580 3.576601 1.071833
v -0.028254 3.537240 1.092203
v -0.047504 3.511096 1.133621
v -0.018185 3.472068 1.173336
v 0.080493 3.426086 1.183440
v 0.222957 3.429112 1.170897
v 0.230610 3.570918 1.111824
v -0.189460 2.545546 -0.087009
v -0.214374 2.504420 -0.032510
v -0.171245 2.474293 0.030243
v -0.071773 2.451757 0.094959
v 0.085670 2.471514 0.083679
v 0.084209 2.539728 -0.087861
v -0.079755 2.601821 -0.086066
v -0.189460 2.585546 -0.047009
v -0.204009 2.545226 0.007563
v -0.171245 2.514292 0.070243
v -0.070797 2.505472 0.086704
v 0.084149 2.523823 0.086968
v 0.084209 2.579728 -0.080703
v -0.194533 2.555822 -0.085366
v -0.189460 2.558880 -0.073676
v -0.194971 2.568918 -0.071727
v -0.189460 2.572213 -0.060342
v -0.195371 2.582005 -0.058068
v -0.213660 2.538352 0.001984
v -0.207464 2.531624 -0.005794
v -0.217117 2.524763 -0.011387
v -0.210919 2.518022 -0.019152
v -0.220574 2.511175 -0.024758
v 0.089906 2.547080 -0.092242
v 0.084209 2.553062 -0.085475
v 0.089946 2.560409 -0.089816
v 0.084209 2.566395 -0.083089
v 0.089986 2.573737 -0.087389
v -0.080216 2.572276 -0.094680
v -0.079755 2.576332 -0.086843
v -0.080567 2.585000 -0.094269
v -0.079755 2.589076 -0.086454
v -0.080900 2.597713 -0.093847
v -0.073593 2.459764 0.101275
v -0.071447 2.469662 0.092207
v -0.072835 2.477602 0.098614
v -0.071122 2.487567 0.089455
v -0.072005 2.495450 0.095938
v 0.090058 2.515458 0.092067
v 0.084656 2.506387 0.085872
v 0.090641 2.498020 0.090894
v 0.085163 2.488950 0.084775
v 0.091221 2.480582 0.089721
v -0.176340 2.505170 0.069233
v -0.171245 2.500959 0.056909
v -0.176675 2.491884 0.055601
v -0.171245 2.487626 0.043576
v -0.176949 2.478589 0.041993
v 0.235897 3.576529 1.105080
v 0.229369 3.571359 1.098783
v 0.234599 3.577032 1.092030
v 0.228129 3.571800 1.085742
v 0.233300 3.577535 1.078980
v 0.078990 3.418722 1.177189
v 0.080397 3.426666 1.167308
v 0.079340 3.419230 1.161055
v 0.080301 3.427247 1.151175
v 0.079703 3.419760 1.144904
v 0.229949 3.418646 1.138037
v 0.224140 3.425376 1.144516
v 0.229372 3.420528 1.151231
v 0.223548 3.427244 1.157706
v 0.228794 3.422410 1.164425
v -0.056651 3.504964 1.127724
v -0.049986 3.497621 1.119703
v -0.059131 3.491420 1.113854
v -0.052467 3.484146 1.105785
v -0.061610 3.477887 1.099975
v -0.029658 3.433195 1.141917
v -0.023665 3.445268 1.145233
v -0.027333 3.446895 1.155848
v -0.020925 3.458668 1.159285
v -0.024977 3.460614 1.169775
v 0.071183 3.583785 1.063197
v 0.075035 3.575564 1.057412
v 0.075484 3.582714 1.048777
v 0.079491 3.574526 1.042991
v 0.079800 3.581643 1.034358
v -0.038692 3.518101 1.047910
v -0.031844 3.517943 1.058319
v -0.036773 3.527870 1.064790
v -0.030049 3.527591 1.075261
v -0.034829 3.537657 1.081661
v -0.075000 -0.500000 0.075000
v -0.077525 4.100000 0.068263
v -0.046056 4.100000 0.086684
v -0.075000 -0.500000 -0.075000
v -0.051239 4.100000 -0.073251
v -0.079054 4.100000 -0.076332
v 0.075000 -0.500000 0.075000
v 0.055353 4.100000 0.080000
v 0.080000 4.100000 0.070000
v 0.075000 -0.500000 -0.075000
v 0.080000 4.100000 -0.070000
v 0.031343 4.100000 -0.080000
v 0.090000 3.430000 -0.250000
v 0.080000 3.440000 -0.250000
v 0.080000 3.459230 1.500000
v 0.090000 3.430000 1.500000
v 0.087440 3.554945 -0.254839
v 0.103173 3.556511 -0.257908
v 0.144770 3.570000 1.500000
v 0.080000 3.560000 1.500000
v 0.220000 3.440000 -0.250000
v 0.210000 3.430000 -0.250000
v 0.212787 3.430000 1.500000
v 0.220000 3.492724 1.500000
v 0.210000 3.570000 -0.250000
v 0.220000 3.560000 -0.250000
v 0.224601 3.561849 1.500000
v 0.181496 3.553386 1.500000
vn -0.0383 0.7627 -0.6456
vn 0.6384 0.5397 -0.5488
vn 0.0259 0.7597 -0.6498
vn 0.5911 0.5701 -0.5706
vn 0.9714 0.0938 -0.2183
vn 0.7345 -0.5673 0.3724
vn 0.8082 -0.5004 0.3105
vn 0.1148 -0.7666 0.6318
vn -0.6635 -0.5236 0.5344
vn -0.7291 -0.4692 0.4983
vn -0.9941 0.0578 0.0915
vn -0.9943 0.0652 0.0845
vn -0.0333 0.5108 0.8591
vn -0.8045 0.5029 -0.3161
vn -0.7628 0.5417 -0.3532
vn -0.3254 -0.7308 -0.6001
vn 0.0794 0.6149 -0.7846
vn 0.3871 0.6881 0.6137
vn 0.7866 0.5922 -0.1747
vn 0.7359 -0.3178 0.5979
vn 0.0367 -0.9060 0.4217
vn 0.7070 -0.7001 -0.1001
vn -0.0641 -0.6170 0.7844
vn -0.6059 0.3734 0.7025
vn -0.7969 -0.2498 0.5501
vn -0.7592 0.5413 0.3613
vn -0.7624 0.1677 -0.6250
vn -0.9994 -0.0112 -0.0329
vn 0.0649 0.1341 0.9888
vn -0.5381 0.7155 -0.4455
vn -0.8200 0.1636 -0.5485
vn -0.0534 -0.1210 -0.9912
vn -0.4767 -0.5167 -0.7112
vn -0.6753 -0.0115 -0.7374
vn -0.0569 0.6056 -0.7937
vn 0.0060 0.6101 -0.7923
vn -0.0398 0.5962 -0.8018
vn -0.6543 -0.0145 -0.7561
vn -0.7896 0.1645 -0.5911
vn 0.0292 0.5827 -0.8122
vn -0.6000 -0.7897 0.1281
vn -0.9992 -0.0304 -0.0277
vn -0.7608 -0.5041 -0.4086
vn -0.7925 -0.2999 0.5311
vn -0.7748 -0.2713 0.5710
vn -0.9994 -0.0203 -0.0294
vn -0.9993 0.0343 0.0170
vn -0.8065 -0.2997 0.5096
vn -0.7865 -0.2600 0.5601
vn -0.9994 0.0356 0.0044
vn -0.1411 -0.7164 -0.6833
vn 0.0449 -0.6748 0.7367
vn -0.0229 -0.9985 0.0504
vn 0.1019 -0.9209 0.3763
vn -0.0336 -0.6026 0.7973
vn 0.1646 -0.9850 0.0527
vn -0.0165 -0.6443 0.7646
vn 0.0679 -0.9133 0.4017
vn -0.0706 -0.5943 0.8011
vn 0.1164 -0.9863 0.1172
vn 0.7660 0.6085 -0.2073
vn 0.0834 -0.6891 -0.7199
vn 0.5263 0.1017 -0.8442
vn 0.7290 0.6729 -0.1254
vn 0.6804 -0.7241 -0.1130
vn 0.7758 0.6014 -0.1907
vn 0.6241 -0.7698 -0.1340
vn 0.7385 0.6671 -0.0984
vn 0.6947 -0.7113 -0.1072
vn 0.6280 -0.7667 -0.1333
vn -0.1759 -0.9750 0.1355
vn 0.5124 -0.3224 0.7960
vn -0.1340 -0.6253 0.7688
vn -0.6553 -0.5108 0.5565
vn -0.6847 0.5202 0.5104
vn -0.9883 0.0797 0.1302
vn -0.7200 0.6009 -0.3471
vn -0.1831 0.7690 0.6125
vn -0.1953 0.9549 -0.2235
vn 0.3673 0.5546 0.7467
vn 0.7469 0.6634 -0.0450
vn 0.7068 -0.7013 0.0932
vn -0.4580 -0.0196 0.8887
vn -0.4196 0.8626 0.2825
vn -0.9881 -0.0141 0.1529
vn -0.5378 0.8428 0.0209
vn -0.7301 0.4514 -0.5130
vn -0.1241 0.2438 -0.9619
vn 0.4316 0.6748 0.5986
vn -0.1242 -0.0364 0.9916
vn 0.7191 -0.0228 0.6945
vn 0.5323 0.8059 -0.2594
vn 0.7275 0.1051 -0.6780
vn -0.6405 -0.4372 0.6313
vn -0.6792 0.5589 0.4758
vn -0.4973 0.2127 0.8411
vn -0.1704 -0.6493 0.7412
vn -0.7163 -0.4095 0.5650
vn -0.4897 -0.8676 0.0865
vn -0.2207 -0.0295 0.9749
vn -0.6940 -0.4114 0.5909
vn -0.1863 -0.0379 0.9818
vn -0.1950 0.1058 0.9751
vn -0.6562 -0.4354 0.6163
vn -0.6762 -0.4284 0.5993
vn -0.1440 0.0891 0.9856
vn 0.3893 -0.6743 -0.6275
vn 0.7383 -0.0271 0.6739
vn 0.6045 -0.6635 0.4409
vn 0.7185 0.1104 -0.6867
vn 0.6872 0.1005 0.7195
vn 0.7210 0.0682 -0.6896
vn 0.7289 -0.0250 0.6842
vn 0.7230 0.1078 -0.6823
vn 0.6824 0.0955 0.7247
vn 0.7285 0.0735 -0.6811
vn -0.9892 -0.0119 0.1462
vn -0.8366 -0.4838 -0.2571
vn -0.9770 0.1010 0.1880
vn -0.9887 -0.0131 0.1495
vn -0.9777 0.0929 0.1881
vn -0.0281 0.2694 -0.9626
vn 0.0015 -0.6508 -0.7593
vn -0.0771 0.2566 -0.9634
vn -0.0564 0.1201 -0.9912
vn -0.1061 0.1239 -0.9866
vn -0.4722 -0.1185 -0.8735
vn -0.6708 0.4990 -0.5487
vn -0.6379 0.4924 -0.5921
vn -0.7160 0.4547 -0.5297
vn -0.6863 0.4726 -0.5529
vn -0.8497 -0.4234 -0.3143
vn -0.7490 0.5688 -0.3398
vn -0.6498 0.1611 -0.7429
vn -0.9881 0.0585 0.1423
vn -0.6957 0.7016 -0.1543
vn -0.9908 0.0418 0.1290
vn -0.7360 0.5836 -0.3432
vn -0.9883 0.0682 0.1368
vn -0.6753 0.7170 -0.1728
vn -0.9917 0.0471 0.1199
vn -0.4737 -0.8790 -0.0545
vn -0.0610 -0.9900 0.1269
vn -0.5699 -0.5884 0.5736
vn -0.6044 -0.6095 0.5130
vn -0.1193 -0.9840 0.1322
vn -0.6148 -0.5500 0.5653
vn -0.6503 -0.5853 0.4843
vn 0.3662 -0.5951 -0.7153
vn 0.7306 0.6817 -0.0385
vn 0.7025 -0.7050 0.0971
vn 0.7232 0.6905 -0.0142
vn 0.6595 -0.7498 -0.0528
vn 0.7389 0.6725 -0.0418
vn 0.7047 -0.7031 0.0952
vn 0.7233 0.6905 -0.0020
vn 0.6624 -0.7478 -0.0443
vn 0.5413 0.2840 -0.7914
vn -0.2271 0.9489 -0.2192
vn -0.2120 0.9520 -0.2208
vn -0.0303 0.5683 -0.8223
vn -0.2218 0.9724 -0.0721
vn -0.1979 0.9780 -0.0657
vn -0.0230 -0.7733 -0.6337
vn -0.0924 -0.9929 0.0744
vn -0.1501 -0.9863 0.0679
vn -0.5052 0.0010 0.8630
vn 0.1101 -0.0002 -0.9939
vn 0.2013 0.0008 -0.9795
vn 0.3760 0.0006 0.9266
vn -0.7071 -0.7071 -0.0000
vn -0.1526 0.9883 -0.0035
vn -0.1926 0.9813 0.0062
vn 0.9934 -0.1142 0.0034
vn -1.0000 -0.0005 -0.0000
vn -0.0000 -0.0025 1.0000
vn -0.0000 1.0000 -0.0000
vn -0.0000 -0.0011 -1.0000
vn 1.0000 -0.0011 -0.0000
vn -0.0000 -0.0000 -1.0000
vn -0.9979 0.0644 -0.0044
vn -0.0000 -1.0000 -0.0000
vn -0.0000 -0.0000 1.0000
vn -0.1249 0.9922 -0.0047
vn 1.0000 -0.0000 -0.0000
vn 0.9804 0.0549 -0.1892
vn 0.1804 -0.7652 0.6180
vn -0.3483 0.3590 0.8659
vn -0.4279 0.8403 0.3329
vn -0.2789 0.2145 0.9360
vn 0.3503 0.1260 0.9281
vn -0.0595 0.7440 0.6656
vn -0.3642 -0.6397 -0.6769
vn -0.3446 -0.7363 -0.5824
vn -0.1386 -0.9793 0.1475
vn 0.8120 -0.4006 -0.4245
vn -0.3337 -0.7381 -0.5864
vn 0.1061 0.9809 -0.1633
vn 0.4008 -0.3143 0.8606
vn -0.0744 0.8864 -0.4570
vn -0.0712 0.6806 0.7292
vn -0.9462 -0.3237 0.0036
vn -0.1000 0.9950 -0.0053
vn 0.7071 0.7071 -0.0026
vn 0.7071 -0.7071 -0.0011
vn -0.9999 -0.0009 0.0106
vn 0.0658 -0.0008 0.9978
vn -0.0815 0.0008 -0.9967
vn -0.1886 -0.0291 -0.9816
vn 0.0654 0.0654 -0.9957
vn 0.0697 -0.0813 -0.9942
vn -1.0000 -0.0000 -0.0000
vn 0.4121 0.9110 0.0154
vn 0.9978 -0.0664 -0.0026
vt 1.000000 1.000000
vt 0.875000 0.500000
vt 1.000000 0.500000
vt 0.875000 1.000000
vt 0.750000 0.500000
vt 0.625000 1.000000
vt 0.625000 0.500000
vt 0.500000 0.500000
vt 0.375000 1.000000
vt 0.375000 0.500000
vt 0.250000 1.000000
vt 0.250000 0.500000
vt 0.010000 0.250000
vt 0.250000 0.010000
vt 0.490000 0.250000
vt 0.125000 0.500000
vt 0.125000 1.000000
vt 0.000000 0.500000
vt 0.919706 0.080294
vt 0.580294 0.080294
vt 0.580294 0.419706
vt 0.000000 0.000000
vt 0.375000 0.000000
vt 0.625000 0.000000
vt 0.625000 0.015625
vt 0.625000 0.265625
vt 0.375000 0.234375
vt 0.625000 0.234375
vt 0.625000 0.515625
vt 0.369792 0.489583
vt 0.630208 0.489583
vt 0.630208 0.760417
vt 0.375000 0.734375
vt 0.625000 0.734375
vt 0.625000 0.982143
vt 0.375000 0.982143
vt 0.625000 0.267857
vt 0.375000 0.232143
vt 0.625000 0.232143
vt 0.625000 0.517857
vt 0.369048 0.488095
vt 0.630952 0.488095
vt 0.630952 0.761905
vt 0.375000 0.732143
vt 0.625000 0.732143
vt 0.375000 0.015625
vt 0.369792 0.760417
vt 0.625000 0.984375
vt 0.375000 0.984375
vt 0.859375 0.500000
vt 0.859375 0.750000
vt 0.375000 0.265625
vt 0.375000 0.515625
vt 0.375000 0.517857
vt 0.369048 0.761905
vt 0.125000 0.732143
vt 0.375000 0.017857
vt 0.875000 0.517857
vt 0.857143 0.750000
vt 0.375000 0.267857
vt 0.750000 1.000000
vt 0.500000 1.000000
vt 0.419706 0.419706
vt 0.250000 0.490000
vt 0.080294 0.419706
vt 0.080294 0.080294
vt 0.419706 0.080294
vt 0.000000 1.000000
vt 0.750000 0.490000
vt 0.919706 0.419706
vt 0.990000 0.250000
vt 0.750000 0.010000
vt 0.510000 0.250000
vt 0.875000 0.515625
vt 0.875000 0.734375
vt 0.125000 0.517857
vt 0.142857 0.500000
vt 0.142857 0.750000
vt 0.625000 0.017857
vt 0.857143 0.500000
vt 0.875000 0.732143
s 1
f 2/1/1 3/2/2 1/3/3
f 4/4/4 5/5/5 3/2/2
f 5/5/5 8/6/6 7/7/7
f 8/6/6 9/8/8 7/7/7
f 9/8/8 12/9/9 11/10/10
f 11/10/10 14/11/11 13/12/12
s 0
f 14/13/13 10/14/13 6/15/13
s 1
f 14/11/11 15/16/14 13/12/12
f 16/17/15 1/18/3 15/16/14
s 0
f 7/19/16 11/20/16 15/21/16
s 1
f 38/22/17 32/22/18 37/22/19
f 31/22/20 47/22/21 48/22/22
f 58/22/23 28/22/24 57/22/25
f 27/22/26 67/22/27 68/22/28
f 32/22/18 48/22/22 37/22/19
f 47/22/21 29/22/29 58/22/23
f 28/22/24 68/22/28 57/22/25
f 26/22/30 38/22/17 67/22/27
f 63/22/31 17/22/32 18/22/33
f 64/22/34 42/22/35 63/22/31
f 64/22/34 40/22/36 41/22/37
f 66/22/38 40/22/36 65/22/39
f 66/22/38 38/22/17 39/22/40
f 20/22/41 72/22/42 19/22/43
f 54/22/44 72/22/42 53/22/45
f 54/22/44 70/22/46 71/22/47
f 56/22/48 70/22/46 55/22/49
f 56/22/48 68/22/28 69/22/50
f 22/22/51 62/22/52 21/22/53
f 43/22/54 61/22/55 62/22/52
f 44/22/56 60/22/57 61/22/55
f 45/22/58 59/22/59 60/22/57
f 46/22/60 58/22/23 59/22/59
f 33/22/61 23/22/62 24/22/63
f 34/22/64 52/22/65 33/22/61
f 35/22/66 51/22/67 34/22/64
f 36/22/68 50/22/69 35/22/66
f 37/22/19 49/22/70 36/22/68
f 72/22/42 18/22/33 19/22/43
f 71/22/47 63/22/31 72/22/42
f 70/22/46 64/22/34 71/22/47
f 69/22/50 65/22/39 70/22/46
f 68/22/28 66/22/38 69/22/50
f 62/22/52 20/22/41 21/22/53
f 62/22/52 54/22/44 53/22/45
f 60/22/57 54/22/44 61/22/55
f 60/22/57 56/22/48 55/22/49
f 58/22/23 56/22/48 59/22/59
f 23/22/62 43/22/54 22/22/51
f 51/22/67 43/22/54 52/22/65
f 51/22/67 45/22/58 44/22/56
f 49/22/70 45/22/58 50/22/69
f 49/22/70 47/22/21 46/22/60
f 42/22/35 24/22/63 17/22/32
f 42/22/35 34/22/64 33/22/61
f 40/22/36 34/22/64 41/22/37
f 40/22/36 36/22/68 35/22/66
f 38/22/17 36/22/68 39/22/40
f 141/22/71 86/22/72 85/22/73
f 160/22/74 83/22/75 151/22/76
f 170/22/77 81/22/78 161/22/79
f 161/22/79 87/22/80 136/22/81
f 150/22/82 87/22/80 86/22/72
f 141/22/71 84/22/83 160/22/74
f 151/22/76 82/22/84 170/22/77
f 106/22/85 95/22/86 105/22/87
f 95/22/86 120/22/88 105/22/87
f 99/22/89 125/22/90 126/22/91
f 120/22/88 100/22/92 115/22/93
f 131/22/94 96/22/95 106/22/85
f 115/22/93 99/22/89 126/22/91
f 125/22/90 97/22/96 131/22/94
f 91/22/97 135/22/98 90/22/99
f 121/22/100 134/22/101 135/22/98
f 123/22/102 134/22/101 122/22/103
f 123/22/102 132/22/104 133/22/105
f 125/22/90 132/22/104 124/22/106
f 93/22/107 130/22/108 92/22/109
f 111/22/110 129/22/111 130/22/108
f 112/22/112 128/22/113 129/22/111
f 113/22/114 127/22/115 128/22/113
f 114/22/116 126/22/91 127/22/115
f 90/22/99 110/22/117 89/22/118
f 135/22/98 109/22/119 110/22/117
f 134/22/101 108/22/120 109/22/119
f 133/22/105 107/22/121 108/22/120
f 132/22/104 106/22/85 107/22/121
f 116/22/122 93/22/107 80/22/123
f 116/22/122 112/22/112 111/22/110
f 118/22/124 112/22/112 117/22/125
f 118/22/124 114/22/116 113/22/114
f 120/22/88 114/22/116 119/22/126
f 92/22/109 121/22/100 91/22/97
f 129/22/111 121/22/100 130/22/108
f 129/22/111 123/22/102 122/22/103
f 127/22/115 123/22/102 128/22/113
f 127/22/115 125/22/90 124/22/106
f 88/22/127 116/22/122 80/22/123
f 102/22/128 116/22/122 101/22/129
f 102/22/128 118/22/124 117/22/125
f 104/22/130 118/22/124 103/22/131
f 104/22/130 120/22/88 119/22/126
f 89/22/118 101/22/129 88/22/127
f 110/22/117 102/22/128 101/22/129
f 109/22/119 103/22/131 102/22/128
f 108/22/120 104/22/130 103/22/131
f 107/22/121 105/22/87 104/22/130
f 75/22/132 166/22/133 74/22/134
f 155/22/135 167/22/136 166/22/133
f 154/22/137 168/22/138 167/22/136
f 153/22/139 169/22/140 168/22/138
f 152/22/141 170/22/77 169/22/140
f 76/22/142 145/22/143 156/22/144
f 145/22/143 157/22/145 156/22/144
f 157/22/145 143/22/146 158/22/147
f 143/22/146 159/22/148 158/22/147
f 159/22/148 141/22/71 160/22/74
f 78/22/149 140/22/150 146/22/151
f 146/22/151 139/22/152 147/22/153
f 147/22/153 138/22/154 148/22/155
f 148/22/155 137/22/156 149/22/157
f 149/22/157 136/22/81 150/22/82
f 79/22/158 165/22/159 140/22/150
f 165/22/159 139/22/152 140/22/150
f 139/22/152 163/22/160 138/22/154
f 163/22/160 137/22/156 138/22/154
f 137/22/156 161/22/79 136/22/81
f 74/22/134 165/22/159 73/22/161
f 166/22/133 164/22/162 165/22/159
f 167/22/136 163/22/160 164/22/162
f 168/22/138 162/22/163 163/22/160
f 169/22/140 161/22/79 162/22/163
f 76/22/142 155/22/135 75/22/132
f 156/22/144 154/22/137 155/22/135
f 157/22/145 153/22/139 154/22/137
f 158/22/147 152/22/141 153/22/139
f 159/22/148 151/22/76 152/22/141
f 78/22/149 145/22/143 77/22/164
f 145/22/143 147/22/153 144/22/165
f 147/22/153 143/22/146 144/22/165
f 143/22/146 149/22/157 142/22/166
f 149/22/157 141/22/71 142/22/166
s 0
f 171/23/167 173/24/167 172/25/167
f 175/26/168 174/27/168 176/28/168
f 181/29/169 180/30/169 182/31/169
f 178/32/170 177/33/170 179/34/170
f 186/35/171 184/9/171 183/36/171
f 189/37/172 187/38/172 190/39/172
f 197/40/173 195/41/173 198/42/173
f 193/43/174 191/44/174 194/45/174
f 172/25/175 174/27/175 171/46/175
f 177/47/176 173/48/176 171/49/176
f 175/50/177 173/51/177 179/34/177
f 174/52/178 182/31/178 180/30/178
f 181/29/179 177/33/179 180/53/179
f 196/54/180 192/55/180 184/56/180
f 184/57/181 190/39/181 187/38/181
f 192/55/182 186/35/182 183/36/182
f 190/58/183 186/59/183 194/45/183
f 189/37/184 195/41/184 188/60/184
f 196/54/185 194/45/185 191/44/185
s 1
f 2/1/1 4/4/4 3/2/2
f 4/4/4 6/61/186 5/5/5
f 5/5/5 6/61/186 8/6/6
f 8/6/6 10/62/187 9/8/8
f 9/8/8 10/62/187 12/9/9
f 11/10/10 12/9/9 14/11/11
s 0
f 6/15/188 4/63/188 2/64/188
f 2/64/189 16/65/189 14/13/189
f 14/13/190 12/66/190 10/14/190
f 10/14/191 8/67/191 6/15/191
f 6/15/192 2/64/192 14/13/192
s 1
f 14/11/11 16/17/15 15/16/14
f 16/17/15 2/68/1 1/18/3
s 0
f 15/21/193 1/69/193 3/70/193
f 3/70/194 5/71/194 7/19/194
f 7/19/195 9/72/195 11/20/195
f 11/20/196 13/73/196 15/21/196
f 15/21/197 3/70/197 7/19/197
s 1
f 38/22/17 25/22/198 32/22/18
f 31/22/20 30/22/199 47/22/21
f 58/22/23 29/22/29 28/22/24
f 27/22/26 26/22/30 67/22/27
f 32/22/18 31/22/20 48/22/22
f 47/22/21 30/22/199 29/22/29
f 28/22/24 27/22/26 68/22/28
f 26/22/30 25/22/198 38/22/17
f 63/22/31 42/22/35 17/22/32
f 64/22/34 41/22/37 42/22/35
f 64/22/34 65/22/39 40/22/36
f 66/22/38 39/22/40 40/22/36
f 66/22/38 67/22/27 38/22/17
f 20/22/41 53/22/45 72/22/42
f 54/22/44 71/22/47 72/22/42
f 54/22/44 55/22/49 70/22/46
f 56/22/48 69/22/50 70/22/46
f 56/22/48 57/22/25 68/22/28
f 22/22/51 43/22/54 62/22/52
f 43/22/54 44/22/56 61/22/55
f 44/22/56 45/22/58 60/22/57
f 45/22/58 46/22/60 59/22/59
f 46/22/60 47/22/21 58/22/23
f 33/22/61 52/22/65 23/22/62
f 34/22/64 51/22/67 52/22/65
f 35/22/66 50/22/69 51/22/67
f 36/22/68 49/22/70 50/22/69
f 37/22/19 48/22/22 49/22/70
f 72/22/42 63/22/31 18/22/33
f 71/22/47 64/22/34 63/22/31
f 70/22/46 65/22/39 64/22/34
f 69/22/50 66/22/38 65/22/39
f 68/22/28 67/22/27 66/22/38
f 62/22/52 53/22/45 20/22/41
f 62/22/52 61/22/55 54/22/44
f 60/22/57 55/22/49 54/22/44
f 60/22/57 59/22/59 56/22/48
f 58/22/23 57/22/25 56/22/48
f 23/22/62 52/22/65 43/22/54
f 51/22/67 44/22/56 43/22/54
f 51/22/67 50/22/69 45/22/58
f 49/22/70 46/22/60 45/22/58
f 49/22/70 48/22/22 47/22/21
f 42/22/35 33/22/61 24/22/63
f 42/22/35 41/22/37 34/22/64
f 40/22/36 35/22/66 34/22/64
f 40/22/36 39/22/40 36/22/68
f 38/22/17 37/22/19 36/22/68
f 141/22/71 150/22/82 86/22/72
f 160/22/74 84/22/83 83/22/75
f 170/22/77 82/22/84 81/22/78
f 161/22/79 81/22/78 87/22/80
f 150/22/82 136/22/81 87/22/80
f 141/22/71 85/22/73 84/22/83
f 151/22/76 83/22/75 82/22/84
f 106/22/85 96/22/95 95/22/86
f 95/22/86 94/22/200 120/22/88
f 99/22/89 98/22/201 125/22/90
f 120/22/88 94/22/200 100/22/92
f 131/22/94 97/22/96 96/22/95
f 115/22/93 100/22/92 99/22/89
f 125/22/90 98/22/201 97/22/96
f 91/22/97 121/22/100 135/22/98
f 121/22/100 122/22/103 134/22/101
f 123/22/102 133/22/105 134/22/101
f 123/22/102 124/22/106 132/22/104
f 125/22/90 131/22/94 132/22/104
f 93/22/107 111/22/110 130/22/108
f 111/22/110 112/22/112 129/22/111
f 112/22/112 113/22/114 128/22/113
f 113/22/114 114/22/116 127/22/115
f 114/22/116 115/22/93 126/22/91
f 90/22/99 135/22/98 110/22/117
f 135/22/98 134/22/101 109/22/119
f 134/22/101 133/22/105 108/22/120
f 133/22/105 132/22/104 107/22/121
f 132/22/104 131/22/94 106/22/85
f 116/22/122 111/22/110 93/22/107
f 116/22/122 117/22/125 112/22/112
f 118/22/124 113/22/114 112/22/112
f 118/22/124 119/22/126 114/22/116
f 120/22/88 115/22/93 114/22/116
f 92/22/109 130/22/108 121/22/100
f 129/22/111 122/22/103 121/22/100
f 129/22/111 128/22/113 123/22/102
f 127/22/115 124/22/106 123/22/102
f 127/22/115 126/22/91 125/22/90
f 88/22/127 101/22/129 116/22/122
f 102/22/128 117/22/125 116/22/122
f 102/22/128 103/22/131 118/22/124
f 104/22/130 119/22/126 118/22/124
f 104/22/130 105/22/87 120/22/88
f 89/22/118 110/22/117 101/22/129
f 110/22/117 109/22/119 102/22/128
f 109/22/119 108/22/120 103/22/131
f 108/22/120 107/22/121 104/22/130
f 107/22/121 106/22/85 105/22/87
f 75/22/132 155/22/135 166/22/133
f 155/22/135 154/22/137 167/22/136
f 154/22/137 153/22/139 168/22/138
f 153/22/139 152/22/141 169/22/140
f 152/22/141 151/22/76 170/22/77
f 76/22/142 77/22/164 145/22/143
f 145/22/143 144/22/165 157/22/145
f 157/22/145 144/22/165 143/22/146
f 143/22/146 142/22/166 159/22/148
f 159/22/148 142/22/166 141/22/71
f 78/22/149 79/22/158 140/22/150
f 146/22/151 140/22/150 139/22/152
f 147/22/153 139/22/152 138/22/154
f 148/22/155 138/22/154 137/22/156
f 149/22/157 137/22/156 136/22/81
f 79/22/158 73/22/161 165/22/159
f 165/22/159 164/22/162 139/22/152
f 139/22/152 164/22/162 163/22/160
f 163/22/160 162/22/163 137/22/156
f 137/22/156 162/22/163 161/22/79
f 74/22/134 166/22/133 165/22/159
f 166/22/133 167/22/136 164/22/162
f 167/22/136 168/22/138 163/22/160
f 168/22/138 169/22/140 162/22/163
f 169/22/140 170/22/77 161/22/79
f 76/22/142 156/22/144 155/22/135
f 156/22/144 157/22/145 154/22/137
f 157/22/145 158/22/147 153/22/139
f 158/22/147 159/22/148 152/22/141
f 159/22/148 160/22/74 151/22/76
f 78/22/149 146/22/151 145/22/143
f 145/22/143 146/22/151 147/22/153
f 147/22/153 148/22/155 143/22/146
f 143/22/146 148/22/155 149/22/157
f 149/22/157 150/22/82 141/22/71
s 0
f 186/35/202 185/6/202 184/9/202
f 189/37/203 188/60/203 187/38/203
f 197/40/204 196/54/204 195/41/204
f 193/43/205 192/55/205 191/44/205
f 172/25/206 176/28/206 174/27/206
f 177/47/207 178/32/207 173/48/207
f 179/34/177 181/29/177 182/31/177
f 175/50/177 176/74/177 172/75/177
f 179/34/177 182/31/177 175/50/177
f 173/51/177 178/32/177 179/34/177
f 175/50/177 172/75/177 173/51/177
f 174/52/208 175/26/208 182/31/208
f 181/29/179 179/34/179 177/33/179
f 184/56/209 187/76/209 188/77/209
f 188/77/210 195/41/210 196/54/210
f 196/54/180 191/44/180 192/55/180
f 192/55/180 183/78/180 184/56/180
f 184/56/211 188/77/211 196/54/211
f 184/57/212 185/79/212 190/39/212
f 192/55/182 193/43/182 186/35/182
f 194/45/183 197/40/183 198/42/183
f 198/42/183 189/80/183 190/58/183
f 190/58/183 185/81/183 186/59/183
f 186/59/183 193/43/183 194/45/183
f 194/45/183 198/42/183 190/58/183
f 189/37/213 198/42/213 195/41/213
f 196/54/214 197/40/214 194/45/214
