# Blender 4.4.3
# www.blender.org
mtllib Platform_4m.mtl
g Platform_4m_Mesh
v -2.000000 0.900000 2.000000
v -2.000000 1.000000 2.000000
v -2.000000 0.900000 -2.000000
v -2.000000 1.000000 -2.000000
v 2.000000 0.900000 2.000000
v 2.000000 1.000000 2.000000
v 2.000000 0.900000 -2.000000
v 2.000000 1.000000 -2.000000
v -1.900000 0.700000 2.000000
v -1.900000 0.900000 2.000000
v -1.900000 0.700000 -2.000000
v -1.900000 0.900000 -2.000000
v -1.800000 0.700000 2.000000
v -1.800000 0.900000 2.000000
v -1.800000 0.700000 -2.000000
v -1.800000 0.900000 -2.000000
v -2.000000 0.500000 1.900000
v -2.000000 0.700000 1.900000
v -2.000000 0.500000 1.700000
v -2.000000 0.700000 1.700000
v 2.000000 0.500000 1.900000
v 2.000000 0.700000 1.900000
v 2.000000 0.500000 1.700000
v 2.000000 0.700000 1.700000
v -0.050000 0.900000 2.000000
v -0.050000 0.700000 2.000000
v -1.800000 -0.600000 1.700000
v -1.800000 0.500000 1.700000
v -1.729289 -0.600000 1.729290
v -1.729289 0.500000 1.729290
v -1.700000 -0.600000 1.800000
v -1.700000 0.500000 1.800000
v -1.729289 -0.600000 1.870711
v -1.729289 0.500000 1.870711
v -1.800000 -0.600000 1.900000
v -1.800000 0.500000 1.900000
v -1.870711 -0.600000 1.870711
v -1.870711 0.500000 1.870711
v -1.900000 -0.600000 1.800000
v -1.900000 0.500000 1.800000
v -1.870711 -0.600000 1.729290
v -1.870711 0.500000 1.729290
v -0.050000 0.700000 -2.000000
v -0.050000 0.900000 -2.000000
v 0.050000 0.700000 2.000000
v 0.050000 0.900000 2.000000
v 0.050000 0.700000 -2.000000
v 0.050000 0.900000 -2.000000
v 1.800000 0.900000 2.000000
v 1.800000 0.700000 2.000000
v 1.800000 0.700000 -2.000000
v 1.800000 0.900000 -2.000000
v 1.900000 0.700000 2.000000
v 1.900000 0.900000 2.000000
v 1.900000 0.700000 -2.000000
v 1.900000 0.900000 -2.000000
v 0.900000 0.900000 2.000000
v 0.900000 0.700000 2.000000
v 0.900000 0.700000 -2.000000
v 0.900000 0.900000 -2.000000
v 0.999999 0.700000 2.000000
v 0.999999 0.900000 2.000000
v 0.999999 0.700000 -2.000000
v 0.999999 0.900000 -2.000000
v -1.000000 0.900000 2.000000
v -1.000000 0.700000 2.000000
v -1.000000 0.700000 -2.000000
v -1.000000 0.900000 -2.000000
v -0.900001 0.700000 2.000000
v -0.900001 0.900000 2.000000
v -0.900001 0.700000 -2.000000
v -0.900001 0.900000 -2.000000
v -0.000000 -0.600000 1.700000
v -0.000000 0.500000 1.700000
v 0.070711 -0.600000 1.729290
v 0.070711 0.500000 1.729290
v 0.100000 -0.600000 1.800000
v 0.100000 0.500000 1.800000
v 0.070711 -0.600000 1.870711
v 0.070711 0.500000 1.870711
v -0.000000 -0.600000 1.900000
v -0.000000 0.500000 1.900000
v -0.070711 -0.600000 1.870711
v -0.070711 0.500000 1.870711
v -0.100000 -0.600000 1.800000
v -0.100000 0.500000 1.800000
v -0.070711 -0.600000 1.729290
v -0.070711 0.500000 1.729290
v 1.729289 0.500000 1.729290
v 1.729289 -0.600000 1.729290
v 1.700000 0.500000 1.800000
v 1.700000 -0.600000 1.800000
v 1.729289 0.500000 1.870711
v 1.729289 -0.600000 1.870711
v 1.800000 0.500000 1.900000
v 1.800000 -0.600000 1.900000
v 1.870710 0.500000 1.870711
v 1.870710 -0.600000 1.870711
v 1.900000 0.500000 1.800000
v 1.900000 -0.600000 1.800000
v 1.870710 0.500000 1.729290
v 1.870710 -0.600000 1.729290
v 1.800000 0.500000 1.700000
v 1.800000 -0.600000 1.700000
v -2.000000 0.500000 0.100000
v -2.000000 0.700000 0.100000
v -2.000000 0.500000 -0.100000
v -2.000000 0.700000 -0.100000
v 2.000000 0.500000 0.100000
v 2.000000 0.700000 0.100000
v 2.000000 0.500000 -0.100000
v 2.000000 0.700000 -0.100000
v -1.800000 -0.600000 -0.100000
v -1.800000 0.500000 -0.100000
v -1.729289 -0.600000 -0.070711
v -1.729289 0.500000 -0.070711
v -1.700000 -0.600000 0.000000
v -1.700000 0.500000 0.000000
v -1.729289 -0.600000 0.070711
v -1.729289 0.500000 0.070711
v -1.800000 -0.600000 0.100000
v -1.800000 0.500000 0.100000
v -1.870711 -0.600000 0.070711
v -1.870711 0.500000 0.070711
v -1.900000 -0.600000 0.000000
v -1.900000 0.500000 0.000000
v -1.870711 -0.600000 -0.070711
v -1.870711 0.500000 -0.070711
v -0.000000 -0.600000 -0.100000
v -0.000000 0.500000 -0.100000
v 0.070711 -0.600000 -0.070711
v 0.070711 0.500000 -0.070711
v 0.100000 -0.600000 0.000000
v 0.100000 0.500000 0.000000
v 0.070711 -0.600000 0.070711
v 0.070711 0.500000 0.070711
v -0.000000 -0.600000 0.100000
v -0.000000 0.500000 0.100000
v -0.070711 -0.600000 0.070711
v -0.070711 0.500000 0.070711
v -0.100000 -0.600000 0.000000
v -0.100000 0.500000 0.000000
v -0.070711 -0.600000 -0.070711
v -0.070711 0.500000 -0.070711
v 1.729289 0.500000 -0.070711
v 1.729289 -0.600000 -0.070711
v 1.700000 0.500000 0.000000
v 1.700000 -0.600000 0.000000
v 1.729289 0.500000 0.070711
v 1.729289 -0.600000 0.070711
v 1.800000 0.500000 0.100000
v 1.800000 -0.600000 0.100000
v 1.870710 0.500000 0.070711
v 1.870710 -0.600000 0.070711
v 1.900000 0.500000 0.000000
v 1.900000 -0.600000 0.000000
v 1.870710 0.500000 -0.070711
v 1.870710 -0.600000 -0.070711
v 1.800000 0.500000 -0.100000
v 1.800000 -0.600000 -0.100000
v -2.000000 0.500000 -1.700000
v -2.000000 0.700000 -1.700000
v -2.000000 0.500000 -1.900001
v -2.000000 0.700000 -1.900001
v 2.000000 0.500000 -1.700000
v 2.000000 0.700000 -1.700000
v 2.000000 0.500000 -1.900001
v 2.000000 0.700000 -1.900001
v -1.800000 -0.600000 -1.900000
v -1.800000 0.500000 -1.900000
v -1.729289 -0.600000 -1.870711
v -1.729289 0.500000 -1.870711
v -1.700000 -0.600000 -1.800000
v -1.700000 0.500000 -1.800000
v -1.729289 -0.600000 -1.729290
v -1.729289 0.500000 -1.729290
v -1.800000 -0.600000 -1.700000
v -1.800000 0.500000 -1.700000
v -1.870711 -0.600000 -1.729290
v -1.870711 0.500000 -1.729290
v -1.900000 -0.600000 -1.800000
v -1.900000 0.500000 -1.800000
v -1.870711 -0.600000 -1.870711
v -1.870711 0.500000 -1.870711
v -0.000000 -0.600000 -1.900000
v -0.000000 0.500000 -1.900000
v 0.070711 -0.600000 -1.870711
v 0.070711 0.500000 -1.870711
v 0.100000 -0.600000 -1.800000
v 0.100000 0.500000 -1.800000
v 0.070711 -0.600000 -1.729290
v 0.070711 0.500000 -1.729290
v -0.000000 -0.600000 -1.700000
v -0.000000 0.500000 -1.700000
v -0.070711 -0.600000 -1.729290
v -0.070711 0.500000 -1.729290
v -0.100000 -0.600000 -1.800000
v -0.100000 0.500000 -1.800000
v -0.070711 -0.600000 -1.870711
v -0.070711 0.500000 -1.870711
v 1.729289 0.500000 -1.870711
v 1.729289 -0.600000 -1.870711
v 1.700000 0.500000 -1.800000
v 1.700000 -0.600000 -1.800000
v 1.729289 0.500000 -1.729290
v 1.729289 -0.600000 -1.729290
v 1.800000 0.500000 -1.700000
v 1.800000 -0.600000 -1.700000
v 1.870710 0.500000 -1.729290
v 1.870710 -0.600000 -1.729290
v 1.900000 0.500000 -1.800000
v 1.900000 -0.600000 -1.800000
v 1.870710 0.500000 -1.870711
v 1.870710 -0.600000 -1.870711
v 1.800000 0.500000 -1.900000
v 1.800000 -0.600000 -1.900000
v -2.000000 1.000000 0.000000
v -2.000000 0.900000 0.000000
v 2.000000 0.900000 0.000000
v 2.000000 1.000000 0.000000
vn -1.0000 -0.0000 -0.0000
vn -0.0000 -0.0000 -1.0000
vn 1.0000 -0.0000 -0.0000
vn -0.0000 -0.0000 1.0000
vn -0.0000 -1.0000 -0.0000
vn -0.0000 1.0000 -0.0000
vn 0.3827 -0.0000 -0.9239
vn 0.9239 -0.0000 -0.3827
vn 0.9239 -0.0000 0.3827
vn 0.3827 -0.0000 0.9239
vn -0.3827 -0.0000 0.9239
vn -0.9239 -0.0000 0.3827
vn -0.9239 -0.0000 -0.3827
vn -0.3827 -0.0000 -0.9239
vt 0.240445 0.500000
vt 0.265445 0.000000
vt 0.265445 0.500000
vt 0.265445 1.000000
vt 0.290445 0.000000
vt 0.290445 1.000000
vt 0.290445 0.500000
vt 0.315445 0.000000
vt 0.315445 0.500000
vt 0.315445 1.000000
vt 0.340445 0.000000
vt 0.340445 1.000000
vt 0.187344 0.305990
vt 0.388543 0.708387
vt 0.187344 0.708387
vt 0.203986 0.315856
vt 0.376021 0.659926
vt 0.203986 0.659926
vt 0.206706 0.733282
vt 0.230034 0.266718
vt 0.230034 0.733282
vt 0.375747 0.265247
vt 0.387411 0.288575
vt 0.375747 0.288575
vt 0.230034 0.733282
vt 0.253363 0.266718
vt 0.253363 0.733282
vt 0.387411 0.311904
vt 0.375747 0.311904
vt 0.259106 0.731812
vt 0.270771 0.265247
vt 0.270771 0.731812
vt 0.270771 0.731812
vt 0.282435 0.265247
vt 0.282435 0.731812
vt 0.353565 0.415242
vt 0.374462 0.394345
vt 0.374462 0.415242
vt 0.290872 0.707809
vt 0.311769 0.289856
vt 0.311769 0.707809
vt 0.353565 0.310754
vt 0.374462 0.289856
vt 0.374462 0.310754
vt 0.332060 0.707809
vt 0.352958 0.289856
vt 0.352958 0.707809
vt 0.227572 0.707809
vt 0.206674 0.289856
vt 0.227572 0.289856
vt 0.248469 0.707809
vt 0.227572 0.289856
vt 0.248469 0.289856
vt 0.253363 0.733282
vt 0.276691 0.266718
vt 0.276691 0.733282
vt 0.305763 0.731812
vt 0.317427 0.265247
vt 0.317427 0.731812
vt 0.310917 0.370087
vt 0.322458 0.535954
vt 0.310917 0.535954
vt 0.375747 0.358560
vt 0.387411 0.381888
vt 0.375747 0.381888
vt 0.294099 0.265247
vt 0.294099 0.731812
vt 0.322458 0.370087
vt 0.330618 0.535954
vt 0.276691 0.733282
vt 0.300019 0.266718
vt 0.300019 0.733282
vt 0.305763 0.265247
vt 0.330618 0.370087
vt 0.342159 0.535954
vt 0.387411 0.405216
vt 0.375747 0.405216
vt 0.375747 0.311904
vt 0.387411 0.335232
vt 0.375747 0.335232
vt 0.191640 0.538469
vt 0.199800 0.704337
vt 0.191640 0.704337
vt 0.300019 0.733282
vt 0.323348 0.266718
vt 0.323347 0.733282
vt 0.323348 0.733282
vt 0.346676 0.266718
vt 0.346676 0.733282
vt 0.199800 0.538469
vt 0.211341 0.704337
vt 0.375747 0.405217
vt 0.387411 0.428545
vt 0.375747 0.428545
vt 0.375747 0.335232
vt 0.387411 0.358560
vt 0.211341 0.538469
vt 0.219502 0.704337
vt 0.353565 0.373447
vt 0.374462 0.352549
vt 0.374462 0.373447
vt 0.370004 0.266718
vt 0.370004 0.733282
vt 0.365241 0.370087
vt 0.376782 0.535954
vt 0.365241 0.535954
vt 0.329091 0.265247
vt 0.329091 0.731812
vt 0.340755 0.265247
vt 0.340755 0.731812
vt 0.302756 0.370087
vt 0.302756 0.535954
vt 0.260959 0.918582
vt 0.269120 0.898880
vt 0.288821 0.907041
vt 0.189122 0.731812
vt 0.212450 0.265247
vt 0.212450 0.731812
vt 0.387411 0.451873
vt 0.375747 0.451873
vt 0.352419 0.265247
vt 0.352419 0.731812
vt 0.235778 0.265247
vt 0.235778 0.731812
vt 0.375747 0.451873
vt 0.387411 0.475201
vt 0.375747 0.475201
vt 0.352419 0.731812
vt 0.364083 0.265247
vt 0.364083 0.731812
vt 0.235778 0.731812
vt 0.259107 0.265247
vt 0.375747 0.475201
vt 0.387411 0.498529
vt 0.375747 0.498529
vt 0.375747 0.731812
vt 0.366973 0.538469
vt 0.378514 0.704337
vt 0.366973 0.704337
vt 0.173993 0.733013
vt 0.182153 0.898880
vt 0.173993 0.898880
vt 0.182153 0.733013
vt 0.193694 0.898880
vt 0.204249 0.370087
vt 0.212409 0.535954
vt 0.204249 0.535954
vt 0.212409 0.370087
vt 0.223950 0.535954
vt 0.201855 0.733013
vt 0.210015 0.898880
vt 0.201855 0.898880
vt 0.311769 0.707809
vt 0.332667 0.289856
vt 0.332667 0.707809
vt 0.210015 0.733013
vt 0.221556 0.898880
vt 0.358812 0.538469
vt 0.358812 0.704337
vt 0.173993 0.918582
vt 0.182153 0.898880
vt 0.201855 0.907041
vt 0.249418 0.898880
vt 0.257579 0.918582
vt 0.237878 0.926742
vt 0.221556 0.733013
vt 0.229717 0.898880
vt 0.249418 0.733013
vt 0.260959 0.898880
vt 0.249418 0.898880
vt 0.353565 0.331652
vt 0.374463 0.310754
vt 0.374463 0.331652
vt 0.241258 0.733013
vt 0.241258 0.898880
vt 0.342159 0.370087
vt 0.353700 0.535954
vt 0.342159 0.535954
vt 0.350651 0.538469
vt 0.350651 0.704337
vt 0.339111 0.538469
vt 0.339111 0.704337
vt 0.330950 0.538469
vt 0.330950 0.704337
vt 0.229717 0.733013
vt 0.249076 0.707809
vt 0.269974 0.289856
vt 0.269974 0.707809
vt 0.290265 0.707809
vt 0.269367 0.289856
vt 0.290265 0.289856
vt 0.269367 0.707809
vt 0.248469 0.289856
vt 0.269367 0.289856
vt 0.269120 0.733013
vt 0.280661 0.898880
vt 0.269120 0.898880
vt 0.280661 0.733013
vt 0.288821 0.898880
vt 0.288821 0.733013
vt 0.300362 0.898880
vt 0.219502 0.538469
vt 0.227662 0.704337
vt 0.227662 0.538469
vt 0.239203 0.704337
vt 0.239203 0.538469
vt 0.247364 0.704337
vt 0.367447 0.313895
vt 0.378988 0.479763
vt 0.367447 0.479763
vt 0.260959 0.733013
vt 0.288821 0.918582
vt 0.296982 0.898880
vt 0.316683 0.907041
vt 0.308523 0.733013
vt 0.320064 0.898880
vt 0.308523 0.898880
vt 0.320064 0.733013
vt 0.328224 0.898880
vt 0.328224 0.733013
vt 0.339765 0.898880
vt 0.339765 0.733013
vt 0.347926 0.898880
vt 0.347926 0.733013
vt 0.359466 0.898880
vt 0.359466 0.733013
vt 0.367627 0.898880
vt 0.367627 0.733013
vt 0.379168 0.898880
vt 0.300362 0.733013
vt 0.237697 0.479763
vt 0.245858 0.499464
vt 0.226156 0.507625
vt 0.336385 0.898881
vt 0.344545 0.918582
vt 0.324844 0.926743
vt 0.224756 0.313895
vt 0.232917 0.479763
vt 0.224756 0.479763
vt 0.252618 0.313895
vt 0.264159 0.479763
vt 0.252618 0.479763
vt 0.244458 0.313895
vt 0.244458 0.479763
vt 0.344365 0.313895
vt 0.355906 0.479763
vt 0.344365 0.479763
vt 0.294927 0.538469
vt 0.303088 0.704337
vt 0.294927 0.704337
vt 0.283387 0.538469
vt 0.283387 0.704337
vt 0.275226 0.538469
vt 0.275226 0.704337
vt 0.232917 0.313895
vt 0.353565 0.394345
vt 0.374462 0.394345
vt 0.332667 0.707809
vt 0.353565 0.289856
vt 0.353565 0.707809
vt 0.353565 0.352549
vt 0.374462 0.331652
vt 0.269974 0.707809
vt 0.290872 0.289856
vt 0.290872 0.707809
vt 0.311162 0.707809
vt 0.290265 0.289856
vt 0.311162 0.289856
vt 0.311162 0.289856
vt 0.332060 0.289856
vt 0.272320 0.313895
vt 0.283860 0.479763
vt 0.272320 0.479763
vt 0.223950 0.370087
vt 0.232111 0.535954
vt 0.232111 0.370087
vt 0.243652 0.535954
vt 0.247364 0.538469
vt 0.255525 0.704337
vt 0.255525 0.538469
vt 0.267065 0.704337
vt 0.267065 0.538469
vt 0.355906 0.313895
vt 0.264159 0.313895
vt 0.344545 0.907041
vt 0.364247 0.898880
vt 0.372407 0.918582
vt 0.293421 0.313895
vt 0.304962 0.479763
vt 0.293421 0.479763
vt 0.243652 0.370087
vt 0.251812 0.535954
vt 0.251812 0.370087
vt 0.263353 0.535954
vt 0.304962 0.313895
vt 0.313123 0.479763
vt 0.313123 0.313895
vt 0.324664 0.479763
vt 0.263353 0.370087
vt 0.271514 0.535954
vt 0.271514 0.370087
vt 0.283055 0.535954
vt 0.285261 0.313895
vt 0.285261 0.479763
vt 0.221556 0.898880
vt 0.229717 0.918582
vt 0.210015 0.926742
vt 0.254018 0.479763
vt 0.273720 0.487924
vt 0.265559 0.507625
vt 0.324664 0.313895
vt 0.332824 0.479763
vt 0.291215 0.370087
vt 0.291215 0.535954
vt 0.283055 0.370087
vt 0.353700 0.370087
vt 0.365241 0.535954
vt 0.353700 0.535954
vt 0.322789 0.538469
vt 0.322789 0.704337
vt 0.311249 0.538469
vt 0.311249 0.704337
vt 0.303088 0.538469
vt 0.332824 0.313895
vt 0.240445 1.000000
vt 0.265445 1.000000
vt 0.290445 1.000000
vt 0.315445 1.000000
vt 0.387263 0.305990
vt 0.387263 0.708387
vt 0.373652 0.315856
vt 0.373652 0.659926
vt 0.240445 0.000000
vt 0.265445 0.000000
vt 0.290445 0.000000
vt 0.315445 0.000000
vt 0.388543 0.305990
vt 0.376021 0.315856
vt 0.206706 0.266718
vt 0.387411 0.265247
vt 0.230034 0.266718
vt 0.387411 0.288575
vt 0.259106 0.265247
vt 0.270771 0.265247
vt 0.353565 0.394345
vt 0.290872 0.289856
vt 0.353565 0.289856
vt 0.332060 0.289856
vt 0.206674 0.707809
vt 0.227572 0.707809
vt 0.253363 0.266718
vt 0.387411 0.358560
vt 0.276691 0.266718
vt 0.342159 0.370087
vt 0.387411 0.311904
vt 0.300019 0.266718
vt 0.323348 0.266718
vt 0.387411 0.405217
vt 0.353565 0.352549
vt 0.346676 0.266718
vt 0.376782 0.370087
vt 0.288821 0.918582
vt 0.280660 0.926742
vt 0.269120 0.926742
vt 0.260959 0.907041
vt 0.280660 0.898880
vt 0.189122 0.265247
vt 0.387411 0.451873
vt 0.352419 0.265247
vt 0.235778 0.265247
vt 0.387411 0.475201
vt 0.378514 0.538469
vt 0.193694 0.733013
vt 0.311769 0.289856
vt 0.201855 0.918582
vt 0.193694 0.926742
vt 0.182153 0.926742
vt 0.173993 0.907041
vt 0.193694 0.898880
vt 0.229717 0.907041
vt 0.237878 0.898880
vt 0.257579 0.907041
vt 0.249418 0.926742
vt 0.353565 0.310754
vt 0.353700 0.370087
vt 0.249076 0.289856
vt 0.269367 0.707809
vt 0.248469 0.707809
vt 0.378988 0.313895
vt 0.316683 0.918582
vt 0.308523 0.926742
vt 0.296982 0.926742
vt 0.288821 0.907041
vt 0.379168 0.733013
vt 0.217996 0.499464
vt 0.217996 0.487923
vt 0.226156 0.479763
vt 0.245858 0.487923
vt 0.237697 0.507625
vt 0.316683 0.918582
vt 0.316683 0.907041
vt 0.324844 0.898881
vt 0.344545 0.907041
vt 0.336385 0.926743
vt 0.269974 0.289856
vt 0.290265 0.707809
vt 0.311162 0.707809
vt 0.283860 0.313895
vt 0.364247 0.926742
vt 0.352706 0.926742
vt 0.344545 0.918582
vt 0.352706 0.898880
vt 0.372407 0.907041
vt 0.201855 0.918582
vt 0.210015 0.898880
vt 0.221556 0.926742
vt 0.254018 0.507625
vt 0.245858 0.499464
vt 0.245858 0.487924
vt 0.265559 0.479763
vt 0.273720 0.499464
vt 0.365241 0.370087
s 0
usemtl LumberMetal
f 217/1/1 3/2/1 218/3/1
f 4/4/2 7/5/2 3/6/2
f 220/7/3 5/8/3 219/9/3
f 6/10/4 1/11/4 5/12/4
f 219/13/5 1/14/5 218/15/5
f 217/16/6 6/17/6 220/18/6
f 10/19/1 11/20/1 9/21/1
f 12/22/2 15/23/2 11/24/2
f 16/25/3 13/26/3 15/27/3
f 14/24/4 9/28/4 13/29/4
f 15/30/5 9/31/5 11/32/5
f 12/33/6 14/34/6 16/35/6
f 18/36/1 19/37/1 17/38/1
f 20/39/2 23/40/2 19/41/2
f 24/42/3 21/43/3 23/44/3
f 22/45/4 17/46/4 21/47/4
f 23/48/5 17/49/5 19/50/5
f 20/51/6 22/52/6 24/53/6
f 57/54/1 59/55/1 58/56/1
f 52/57/6 54/58/6 56/59/6
f 28/60/7 29/61/7 27/62/7
f 60/63/2 63/64/2 59/65/2
f 44/35/6 46/66/6 48/67/6
f 30/68/8 31/69/8 29/61/8
f 49/70/1 51/71/1 50/72/1
f 47/67/5 26/73/5 43/57/5
f 32/74/9 33/75/9 31/69/9
f 52/65/2 55/76/2 51/77/2
f 46/78/4 26/79/4 45/80/4
f 34/81/10 35/82/10 33/83/10
f 56/84/3 53/85/3 55/86/3
f 48/87/3 45/88/3 47/89/3
f 36/90/11 37/91/11 35/82/11
f 54/92/4 50/93/4 53/94/4
f 44/95/2 47/96/2 43/63/2
f 38/97/12 39/98/12 37/91/12
f 112/99/3 109/100/3 111/101/3
f 25/89/1 43/102/1 26/103/1
f 40/104/13 41/105/13 39/106/13
f 60/59/6 62/107/6 64/108/6
f 55/108/5 50/109/5 51/110/5
f 42/111/14 27/62/14 41/112/14
f 33/113/5 37/114/5 41/115/5
f 64/116/3 61/117/3 63/118/3
f 62/94/4 58/119/4 61/120/4
f 63/110/5 58/121/5 59/122/5
f 65/118/1 67/123/1 66/124/1
f 68/125/2 71/126/2 67/127/2
f 68/128/6 70/129/6 72/130/6
f 72/131/3 69/132/3 71/30/3
f 70/133/4 66/134/4 69/135/4
f 71/130/5 66/22/5 67/136/5
f 74/137/7 75/138/7 73/139/7
f 76/140/8 77/141/8 75/142/8
f 78/143/9 79/144/9 77/141/9
f 80/145/10 81/146/10 79/147/10
f 82/148/11 83/149/11 81/146/11
f 84/150/12 85/151/12 83/152/12
f 108/153/2 111/154/2 107/155/2
f 86/156/13 87/157/13 85/151/13
f 88/158/14 73/139/14 87/159/14
f 79/160/5 83/161/5 87/162/5
f 98/163/5 94/164/5 90/165/5
f 89/166/14 104/167/14 90/157/14
f 91/168/13 90/169/13 92/170/13
f 106/171/1 107/172/1 105/173/1
f 93/174/12 92/170/12 94/175/12
f 95/176/11 94/177/11 96/178/11
f 97/179/10 96/159/10 98/180/10
f 99/181/9 98/180/9 100/182/9
f 101/183/8 100/182/8 102/184/8
f 103/185/7 102/175/7 104/167/7
f 110/186/4 105/187/4 109/188/4
f 111/189/5 105/190/5 107/191/5
f 108/192/6 110/193/6 112/194/6
f 114/195/7 115/196/7 113/197/7
f 116/198/8 117/199/8 115/196/8
f 118/200/9 119/201/9 117/199/9
f 120/202/10 121/203/10 119/98/10
f 122/204/11 123/205/11 121/203/11
f 124/206/12 125/207/12 123/205/12
f 126/208/13 127/209/13 125/210/13
f 128/211/14 113/197/14 127/169/14
f 119/212/5 123/213/5 127/214/5
f 130/215/7 131/216/7 129/217/7
f 132/218/8 133/219/8 131/216/8
f 134/220/9 135/221/9 133/219/9
f 136/222/10 137/223/10 135/221/10
f 138/224/11 139/225/11 137/223/11
f 140/226/12 141/227/12 139/225/12
f 142/228/13 143/229/13 141/227/13
f 144/230/14 129/217/14 143/201/14
f 135/231/5 139/232/5 143/233/5
f 154/234/5 150/235/5 146/236/5
f 145/237/14 160/238/14 146/239/14
f 147/240/13 146/241/13 148/242/13
f 149/243/12 148/242/12 150/244/12
f 151/245/11 150/246/11 152/247/11
f 153/248/10 152/249/10 154/250/10
f 155/251/9 154/250/9 156/252/9
f 157/253/8 156/252/8 158/254/8
f 159/255/7 158/244/7 160/238/7
f 168/256/3 165/101/3 167/257/3
f 164/258/2 167/259/2 163/260/2
f 162/261/1 163/262/1 161/100/1
f 166/263/4 161/264/4 165/265/4
f 167/266/5 161/267/5 163/268/5
f 164/45/6 166/269/6 168/270/6
f 170/271/7 171/272/7 169/273/7
f 172/274/8 173/275/8 171/149/8
f 174/276/9 175/277/9 173/275/9
f 176/278/10 177/279/10 175/207/10
f 178/280/11 179/281/11 177/279/11
f 180/282/12 181/254/12 179/281/12
f 182/283/13 183/210/13 181/246/13
f 184/284/14 169/273/14 183/241/14
f 175/285/5 179/286/5 183/287/5
f 186/288/7 187/289/7 185/290/7
f 188/291/8 189/292/8 187/277/8
f 190/293/9 191/294/9 189/292/9
f 192/295/10 193/296/10 191/289/10
f 194/297/11 195/298/11 193/296/11
f 196/299/12 197/300/12 195/294/12
f 198/301/13 199/302/13 197/300/13
f 200/303/14 185/290/14 199/304/14
f 191/305/5 195/306/5 199/307/5
f 210/308/5 206/309/5 202/310/5
f 201/311/14 216/312/14 202/298/14
f 203/313/13 202/112/13 204/314/13
f 205/315/12 204/314/12 206/302/12
f 207/316/11 206/317/11 208/318/11
f 209/319/10 208/184/10 210/320/10
f 211/321/9 210/320/9 212/322/9
f 213/323/8 212/322/8 214/249/8
f 215/324/7 214/247/7 216/312/7
f 2/325/1 218/3/1 1/326/1
f 8/327/3 219/9/3 7/328/3
f 7/329/5 218/15/5 3/330/5
f 4/331/6 220/18/6 8/332/6
f 217/1/1 4/333/1 3/2/1
f 4/4/2 8/334/2 7/5/2
f 220/7/3 6/335/3 5/8/3
f 6/10/4 2/336/4 1/11/4
f 219/13/5 5/337/5 1/14/5
f 217/16/6 2/338/6 6/17/6
f 10/19/1 12/339/1 11/20/1
f 12/22/2 16/340/2 15/23/2
f 16/25/3 14/341/3 13/26/3
f 14/24/4 10/342/4 9/28/4
f 15/30/5 13/343/5 9/31/5
f 12/33/6 10/344/6 14/34/6
f 18/36/1 20/345/1 19/37/1
f 20/39/2 24/346/2 23/40/2
f 24/42/3 22/347/3 21/43/3
f 22/45/4 18/348/4 17/46/4
f 23/48/5 21/349/5 17/49/5
f 20/51/6 18/350/6 22/52/6
f 57/54/1 60/351/1 59/55/1
f 52/57/6 49/73/6 54/58/6
f 28/60/7 30/68/7 29/61/7
f 60/63/2 64/352/2 63/64/2
f 44/35/6 25/34/6 46/66/6
f 30/68/8 32/74/8 31/69/8
f 49/70/1 52/353/1 51/71/1
f 47/67/5 45/66/5 26/73/5
f 32/74/9 34/354/9 33/75/9
f 52/65/2 56/64/2 55/76/2
f 46/78/4 25/355/4 26/79/4
f 34/81/10 36/90/10 35/82/10
f 56/84/3 54/356/3 53/85/3
f 48/87/3 46/357/3 45/88/3
f 36/90/11 38/97/11 37/91/11
f 54/92/4 49/358/4 50/93/4
f 44/95/2 48/79/2 47/96/2
f 38/97/12 40/202/12 39/98/12
f 112/99/3 110/359/3 109/100/3
f 25/89/1 44/360/1 43/102/1
f 40/104/13 42/361/13 41/105/13
f 60/59/6 57/58/6 62/107/6
f 55/108/5 53/107/5 50/109/5
f 42/111/14 28/60/14 27/62/14
f 41/115/5 27/362/5 29/363/5
f 29/363/5 31/364/5 33/113/5
f 33/113/5 35/365/5 37/114/5
f 37/114/5 39/366/5 41/115/5
f 41/115/5 29/363/5 33/113/5
f 64/116/3 62/367/3 61/117/3
f 62/94/4 57/93/4 58/119/4
f 63/110/5 61/109/5 58/121/5
f 65/118/1 68/117/1 67/123/1
f 68/125/2 72/368/2 71/126/2
f 68/128/6 65/369/6 70/129/6
f 72/131/3 70/370/3 69/132/3
f 70/133/4 65/371/4 66/134/4
f 71/130/5 69/129/5 66/22/5
f 74/137/7 76/372/7 75/138/7
f 76/140/8 78/143/8 77/141/8
f 78/143/9 80/373/9 79/144/9
f 80/145/10 82/148/10 81/146/10
f 82/148/11 84/274/11 83/149/11
f 84/150/12 86/156/12 85/151/12
f 108/153/2 112/374/2 111/154/2
f 86/156/13 88/166/13 87/157/13
f 88/158/14 74/137/14 73/139/14
f 87/162/5 73/375/5 75/376/5
f 75/376/5 77/377/5 79/160/5
f 79/160/5 81/378/5 83/161/5
f 83/161/5 85/379/5 87/162/5
f 87/162/5 75/376/5 79/160/5
f 90/165/5 104/306/5 102/380/5
f 102/380/5 100/381/5 98/163/5
f 98/163/5 96/382/5 94/164/5
f 94/164/5 92/383/5 90/165/5
f 90/165/5 102/380/5 98/163/5
f 89/166/14 103/185/14 104/167/14
f 91/168/13 89/211/13 90/169/13
f 106/171/1 108/384/1 107/172/1
f 93/174/12 91/168/12 92/170/12
f 95/176/11 93/385/11 94/177/11
f 97/179/10 95/158/10 96/159/10
f 99/181/9 97/179/9 98/180/9
f 101/183/8 99/181/8 100/182/8
f 103/185/7 101/174/7 102/175/7
f 110/186/4 106/386/4 105/187/4
f 111/189/5 109/387/5 105/190/5
f 108/192/6 106/388/6 110/193/6
f 114/195/7 116/198/7 115/196/7
f 116/198/8 118/200/8 117/199/8
f 118/200/9 120/230/9 119/201/9
f 120/202/10 122/204/10 121/203/10
f 122/204/11 124/206/11 123/205/11
f 124/206/12 126/278/12 125/207/12
f 126/208/13 128/389/13 127/209/13
f 128/211/14 114/195/14 113/197/14
f 127/214/5 113/390/5 115/391/5
f 115/391/5 117/392/5 119/212/5
f 119/212/5 121/393/5 123/213/5
f 123/213/5 125/217/5 127/214/5
f 127/214/5 115/391/5 119/212/5
f 130/215/7 132/218/7 131/216/7
f 132/218/8 134/220/8 133/219/8
f 134/220/9 136/222/9 135/221/9
f 136/222/10 138/224/10 137/223/10
f 138/224/11 140/226/11 139/225/11
f 140/226/12 142/228/12 141/227/12
f 142/228/13 144/394/13 143/229/13
f 144/230/14 130/215/14 129/217/14
f 143/233/5 129/395/5 131/396/5
f 131/396/5 133/397/5 135/231/5
f 135/231/5 137/398/5 139/232/5
f 139/232/5 141/399/5 143/233/5
f 143/233/5 131/396/5 135/231/5
f 146/236/5 160/400/5 158/401/5
f 158/401/5 156/402/5 154/234/5
f 154/234/5 152/403/5 150/235/5
f 150/235/5 148/404/5 146/236/5
f 146/236/5 158/401/5 154/234/5
f 145/237/14 159/255/14 160/238/14
f 147/240/13 145/284/13 146/241/13
f 149/243/12 147/240/12 148/242/12
f 151/245/11 149/283/11 150/246/11
f 153/248/10 151/323/10 152/249/10
f 155/251/9 153/248/9 154/250/9
f 157/253/8 155/251/8 156/252/8
f 159/255/7 157/243/7 158/244/7
f 168/256/3 166/99/3 165/101/3
f 164/258/2 168/154/2 167/259/2
f 162/261/1 164/171/1 163/262/1
f 166/263/4 162/405/4 161/264/4
f 167/266/5 165/406/5 161/267/5
f 164/45/6 162/407/6 166/269/6
f 170/271/7 172/408/7 171/272/7
f 172/274/8 174/276/8 173/275/8
f 174/276/9 176/291/9 175/277/9
f 176/278/10 178/280/10 177/279/10
f 178/280/11 180/282/11 179/281/11
f 180/282/12 182/253/12 181/254/12
f 182/283/13 184/208/13 183/210/13
f 184/284/14 170/271/14 169/273/14
f 183/287/5 169/409/5 171/410/5
f 171/410/5 173/411/5 175/285/5
f 175/285/5 177/412/5 179/286/5
f 179/286/5 181/413/5 183/287/5
f 183/287/5 171/410/5 175/285/5
f 186/288/7 188/295/7 187/289/7
f 188/291/8 190/293/8 189/292/8
f 190/293/9 192/299/9 191/294/9
f 192/295/10 194/297/10 193/296/10
f 194/297/11 196/311/11 195/298/11
f 196/299/12 198/301/12 197/300/12
f 198/301/13 200/315/13 199/302/13
f 200/303/14 186/288/14 185/290/14
f 199/307/5 185/414/5 187/162/5
f 187/162/5 189/415/5 191/305/5
f 191/305/5 193/380/5 195/306/5
f 195/306/5 197/416/5 199/307/5
f 199/307/5 187/162/5 191/305/5
f 202/310/5 216/417/5 214/418/5
f 214/418/5 212/419/5 210/308/5
f 210/308/5 208/420/5 206/309/5
f 206/309/5 204/421/5 202/310/5
f 202/310/5 214/418/5 210/308/5
f 201/311/14 215/324/14 216/312/14
f 203/313/13 201/111/13 202/112/13
f 205/315/12 203/313/12 204/314/12
f 207/316/11 205/422/11 206/317/11
f 209/319/10 207/183/10 208/184/10
f 211/321/9 209/319/9 210/320/9
f 213/323/8 211/321/8 212/322/8
f 215/324/7 213/245/7 214/247/7
f 2/325/1 217/1/1 218/3/1
f 8/327/3 220/7/3 219/9/3
f 7/329/5 219/13/5 218/15/5
f 4/331/6 217/16/6 220/18/6
