# Blender 5.0.1
# www.blender.org
mtllib SlidingDoor.mtl
g SlidingDoor_Mesh
v -2.000000 0.250000 -0.480000
v -2.000000 6.000000 -0.480000
v -2.000000 0.250000 -0.580000
v -2.000000 6.000000 -0.580000
v 0.000000 0.250000 -0.480000
v 0.000000 6.000000 -0.480000
v 0.000000 0.250000 -0.580000
v 0.000000 6.000000 -0.580000
v -0.200000 6.430000 -0.580000
v -0.200000 6.430000 -0.440000
v -0.125000 6.409904 -0.580000
v -0.125000 6.409904 -0.440000
v -0.070096 6.355000 -0.580000
v -0.070096 6.355000 -0.440000
v -0.050000 6.280000 -0.580000
v -0.050000 6.280000 -0.440000
v -0.070096 6.205000 -0.580000
v -0.070096 6.205000 -0.440000
v -0.125000 6.150096 -0.580000
v -0.125000 6.150096 -0.440000
v -0.200000 6.130000 -0.580000
v -0.200000 6.130000 -0.440000
v -0.275000 6.150096 -0.580000
v -0.275000 6.150096 -0.440000
v -0.329904 6.205000 -0.580000
v -0.329904 6.205000 -0.440000
v -0.350000 6.280000 -0.580000
v -0.350000 6.280000 -0.440000
v -0.329904 6.355000 -0.580000
v -0.329904 6.355000 -0.440000
v -0.275000 6.409904 -0.580000
v -0.275000 6.409904 -0.440000
v -0.200000 6.430000 -0.550000
v -0.200000 6.430000 -0.470000
v -0.125000 6.409904 -0.470000
v -0.125000 6.409904 -0.550000
v -0.070096 6.355000 -0.470000
v -0.070096 6.355000 -0.550000
v -0.050000 6.280000 -0.470000
v -0.050000 6.280000 -0.550000
v -0.070096 6.205000 -0.470000
v -0.070096 6.205000 -0.550000
v -0.125000 6.150096 -0.470000
v -0.125000 6.150096 -0.550000
v -0.200000 6.130000 -0.470000
v -0.200000 6.130000 -0.550000
v -0.275000 6.150096 -0.470000
v -0.275000 6.150096 -0.550000
v -0.329904 6.205000 -0.470000
v -0.329904 6.205000 -0.550000
v -0.350000 6.280000 -0.470000
v -0.350000 6.280000 -0.550000
v -0.329904 6.355000 -0.470000
v -0.329904 6.355000 -0.550000
v -0.275000 6.409904 -0.470000
v -0.275000 6.409904 -0.550000
v -0.200000 6.399889 -0.550000
v -0.200000 6.399889 -0.470000
v -0.140056 6.383826 -0.470000
v -0.140056 6.383826 -0.550000
v -0.096173 6.339944 -0.470000
v -0.096173 6.339944 -0.550000
v -0.080111 6.280000 -0.470000
v -0.080111 6.280000 -0.550000
v -0.096173 6.220055 -0.470000
v -0.096173 6.220055 -0.550000
v -0.140056 6.176173 -0.470000
v -0.140056 6.176173 -0.550000
v -0.200000 6.160111 -0.470000
v -0.200000 6.160111 -0.550000
v -0.259944 6.176173 -0.470000
v -0.259944 6.176173 -0.550000
v -0.303827 6.220055 -0.470000
v -0.303827 6.220055 -0.550000
v -0.319889 6.280000 -0.470000
v -0.319889 6.280000 -0.550000
v -0.303827 6.339944 -0.470000
v -0.303827 6.339944 -0.550000
v -0.259944 6.383826 -0.470000
v -0.259944 6.383826 -0.550000
v -0.240000 5.900000 -0.580000
v -0.240000 6.450000 -0.580000
v -0.240000 5.900000 -0.600000
v -0.240000 6.450000 -0.600000
v -0.160000 5.900000 -0.580000
v -0.160000 6.450000 -0.580000
v -0.160000 5.900000 -0.600000
v -0.160000 6.450000 -0.600000
v -0.240000 6.464142 -0.594142
v -0.160000 6.464142 -0.594142
v -0.240000 6.469999 -0.580000
v -0.160000 6.469999 -0.580000
v -0.240000 6.449999 -0.440000
v -0.240000 6.469999 -0.440000
v -0.240000 6.230000 -0.440000
v -0.240000 6.464142 -0.425857
v -0.160000 6.464142 -0.425857
v -0.240000 6.450000 -0.420000
v -0.160000 6.449999 -0.440000
v -0.240000 6.230000 -0.420000
v -0.160000 6.469999 -0.440000
v -0.160000 6.230000 -0.420000
v -0.160000 6.450000 -0.420000
v -0.160000 6.230000 -0.440000
v -1.859944 6.383826 -0.550000
v -1.859944 6.383826 -0.470000
v -1.903827 6.339944 -0.550000
v -1.903827 6.339944 -0.470000
v -1.919889 6.280000 -0.550000
v -1.919889 6.280000 -0.470000
v -1.903827 6.220055 -0.550000
v -1.903827 6.220055 -0.470000
v -1.859944 6.176173 -0.550000
v -1.859944 6.176173 -0.470000
v -1.800000 6.160111 -0.550000
v -1.800000 6.160111 -0.470000
v -1.740056 6.176173 -0.550000
v -1.740056 6.176173 -0.470000
v -1.696173 6.220055 -0.550000
v -1.696173 6.220055 -0.470000
v -1.680111 6.280000 -0.550000
v -1.680111 6.280000 -0.470000
v -1.696173 6.339944 -0.550000
v -1.696173 6.339944 -0.470000
v -1.740056 6.383826 -0.550000
v -1.740056 6.383826 -0.470000
v -1.800000 6.399889 -0.470000
v -1.800000 6.399889 -0.550000
v -1.875000 6.409904 -0.550000
v -1.875000 6.409904 -0.470000
v -1.929904 6.355000 -0.550000
v -1.929904 6.355000 -0.470000
v -1.950000 6.280000 -0.550000
v -1.950000 6.280000 -0.470000
v -1.929904 6.205000 -0.550000
v -1.929904 6.205000 -0.470000
v -1.875000 6.150096 -0.550000
v -1.875000 6.150096 -0.470000
v -1.800000 6.130000 -0.550000
v -1.800000 6.130000 -0.470000
v -1.725000 6.150096 -0.550000
v -1.725000 6.150096 -0.470000
v -1.670096 6.205000 -0.550000
v -1.670096 6.205000 -0.470000
v -1.650000 6.280000 -0.550000
v -1.650000 6.280000 -0.470000
v -1.670096 6.355000 -0.550000
v -1.670096 6.355000 -0.470000
v -1.725000 6.409904 -0.550000
v -1.725000 6.409904 -0.470000
v -1.800000 6.430000 -0.470000
v -1.800000 6.430000 -0.550000
v -1.875000 6.409904 -0.440000
v -1.875000 6.409904 -0.580000
v -1.929904 6.355000 -0.440000
v -1.929904 6.355000 -0.580000
v -1.950000 6.280000 -0.440000
v -1.950000 6.280000 -0.580000
v -1.929904 6.205000 -0.440000
v -1.929904 6.205000 -0.580000
v -1.875000 6.150096 -0.440000
v -1.875000 6.150096 -0.580000
v -1.800000 6.130000 -0.440000
v -1.800000 6.130000 -0.580000
v -1.725000 6.150096 -0.440000
v -1.725000 6.150096 -0.580000
v -1.670096 6.205000 -0.440000
v -1.670096 6.205000 -0.580000
v -1.650000 6.280000 -0.440000
v -1.650000 6.280000 -0.580000
v -1.670096 6.355000 -0.440000
v -1.670096 6.355000 -0.580000
v -1.725000 6.409904 -0.440000
v -1.725000 6.409904 -0.580000
v -1.800000 6.430000 -0.440000
v -1.800000 6.430000 -0.580000
v -1.840000 5.900000 -0.580000
v -1.840000 6.450000 -0.580000
v -1.840000 5.900000 -0.600000
v -1.840000 6.450000 -0.600000
v -1.760000 5.900000 -0.580000
v -1.760000 6.450000 -0.580000
v -1.760000 5.900000 -0.600000
v -1.760000 6.450000 -0.600000
v -1.840000 6.464142 -0.594142
v -1.760000 6.464142 -0.594142
v -1.840000 6.469999 -0.580000
v -1.760000 6.469999 -0.580000
v -1.840000 6.449999 -0.440000
v -1.840000 6.469999 -0.440000
v -1.840000 6.230000 -0.440000
v -1.840000 6.464142 -0.425857
v -1.760000 6.464142 -0.425857
v -1.840000 6.450000 -0.420000
v -1.760000 6.449999 -0.440000
v -1.840000 6.230000 -0.420000
v -1.760000 6.469999 -0.440000
v -1.760000 6.230000 -0.420000
v -1.760000 6.450000 -0.420000
v -1.760000 6.230000 -0.440000
v -1.800000 6.295000 -0.405000
v -1.800000 6.295000 -0.615000
v -0.200000 6.295000 -0.615000
v -0.200000 6.295000 -0.405000
v -0.187010 6.287500 -0.615000
v -0.187010 6.287500 -0.405000
v -0.187010 6.272500 -0.615000
v -0.187010 6.272500 -0.405000
v -0.200000 6.265000 -0.615000
v -0.200000 6.265000 -0.405000
v -0.212990 6.272500 -0.615000
v -0.212990 6.272500 -0.405000
v -0.212990 6.287500 -0.615000
v -0.212990 6.287500 -0.405000
v -1.787010 6.287500 -0.615000
v -1.787010 6.287500 -0.405000
v -1.787010 6.272500 -0.615000
v -1.787010 6.272500 -0.405000
v -1.800000 6.265000 -0.615000
v -1.800000 6.265000 -0.405000
v -1.812990 6.272500 -0.615000
v -1.812990 6.272500 -0.405000
v -1.812990 6.287500 -0.615000
v -1.812990 6.287500 -0.405000
v -1.800000 6.295000 -0.405000
v -1.787010 6.287500 -0.405000
v -1.787010 6.272500 -0.405000
v -1.800000 6.265000 -0.405000
v -1.812990 6.272500 -0.405000
v -1.812990 6.287500 -0.405000
vn -1.0000 -0.0000 -0.0000
vn -0.0000 -0.0000 -1.0000
vn 1.0000 -0.0000 -0.0000
vn -0.0000 -0.0000 1.0000
vn -0.0000 -1.0000 -0.0000
vn -0.0000 1.0000 -0.0000
vn 0.5000 0.8660 -0.0000
vn 0.8660 0.5000 -0.0000
vn 0.8660 -0.5000 -0.0000
vn 0.5000 -0.8660 -0.0000
vn -0.5000 -0.8660 -0.0000
vn -0.8660 -0.5000 -0.0000
vn -0.8660 0.5000 -0.0000
vn -0.5000 0.8660 -0.0000
vn -0.0000 0.1951 -0.9808
vn -0.0000 0.7071 -0.7071
vn -0.0000 0.9808 -0.1951
vn -0.0000 0.9808 0.1951
vn -0.0000 0.7071 0.7071
vn -0.0000 0.3827 0.9239
vn 0.4999 -0.8661 -0.0000
vn -0.4999 -0.8661 -0.0000
vt 0.625000 0.000000
vt 0.375000 0.250000
vt 0.375000 0.000000
vt 0.625000 0.250000
vt 0.375000 0.500000
vt 0.625000 0.500000
vt 0.375000 0.750000
vt 0.625000 0.750000
vt 0.375000 1.000000
vt 0.125000 0.750000
vt 0.125000 0.500000
vt 0.875000 0.500000
vt 1.000000 1.000000
vt 0.916667 0.833333
vt 1.000000 0.833333
vt 0.916667 1.000000
vt 0.833333 0.833333
vt 0.833333 1.000000
vt 0.750000 0.833333
vt 0.750000 1.000000
vt 0.666667 0.833333
vt 0.666667 1.000000
vt 0.583333 0.833333
vt 0.583333 1.000000
vt 0.500000 0.833333
vt 0.500000 1.000000
vt 0.416667 0.833333
vt 0.416667 1.000000
vt 0.333333 0.833333
vt 0.333333 1.000000
vt 0.250000 0.833333
vt 0.250000 1.000000
vt 0.166667 0.833333
vt 0.042154 0.370000
vt 0.250000 0.010000
vt 0.457846 0.370000
vt 0.166667 1.000000
vt 0.083333 0.833333
vt 0.083333 1.000000
vt 0.000000 0.833333
vt 0.990000 0.250000
vt 0.630000 0.042154
vt 0.630000 0.457846
vt 0.083333 0.666667
vt 0.000000 0.500000
vt 0.083333 0.500000
vt 0.166667 0.666667
vt 0.166667 0.500000
vt 0.416667 0.666667
vt 0.333333 0.666667
vt 0.250000 0.666667
vt 0.250000 0.500000
vt 0.333333 0.500000
vt 0.000000 0.666667
vt 0.416667 0.500000
vt 0.916667 0.666667
vt 1.000000 0.666667
vt 0.500000 0.666667
vt 0.500000 0.500000
vt 0.583333 0.666667
vt 0.583333 0.500000
vt 0.666667 0.666667
vt 0.666667 0.500000
vt 0.750000 0.666667
vt 0.750000 0.500000
vt 0.833333 0.666667
vt 0.833333 0.500000
vt 0.916667 0.500000
vt 1.000000 0.500000
vt 0.625000 1.000000
vt 0.250000 0.490000
vt 0.042154 0.130000
vt 0.457846 0.130000
vt 0.833333 0.500000
vt 0.500000 1.000000
vt 0.333333 0.500000
vt 0.500000 0.500000
vt 0.833333 1.000000
vt 0.666667 0.500000
vt 0.957846 0.370000
vt 0.750000 0.010000
vt 0.542154 0.370000
vt 0.666667 1.000000
vt 0.166667 1.000000
vt -0.000000 0.500000
vt 0.166667 0.500000
vt 0.333333 1.000000
vt 0.875000 0.750000
vt 0.370000 0.457846
vt 0.130000 0.457846
vt 0.010000 0.250000
vt 0.130000 0.042154
vt 0.370000 0.042154
vt 0.490000 0.250000
vt 0.000000 1.000000
vt 0.750000 0.490000
vt 0.870000 0.457846
vt 0.957846 0.130000
vt 0.870000 0.042154
vt 0.542154 0.130000
vt 0.510000 0.250000
vt -0.000000 1.000000
s 0
f 2/1/1 3/2/1 1/3/1
f 4/4/2 7/5/2 3/2/2
f 8/6/3 5/7/3 7/5/3
f 6/8/4 1/9/4 5/7/4
f 7/5/5 1/10/5 3/11/5
f 4/12/6 6/8/6 8/6/6
s 1
f 10/13/6 35/14/7 34/15/6
f 12/16/7 37/17/8 35/14/7
f 14/18/8 39/19/3 37/17/8
f 16/20/3 41/21/9 39/19/3
f 18/22/9 43/23/10 41/21/9
f 20/24/10 45/25/5 43/23/10
f 22/26/5 47/27/11 45/25/5
f 24/28/11 49/29/12 47/27/11
f 26/30/12 51/31/1 49/29/12
f 28/32/1 53/33/13 51/31/1
f 30/34/4 22/35/4 14/36/4
f 30/37/13 55/38/14 53/33/13
f 32/39/14 34/40/6 55/38/14
f 15/41/2 23/42/2 31/43/2
f 56/44/14 9/45/6 31/46/14
f 35/14/2 58/15/2 34/15/2
f 54/47/13 31/46/14 29/48/13
f 48/49/4 74/50/4 50/50/4
f 52/51/1 29/48/13 27/52/1
f 43/23/2 65/21/2 41/21/2
f 50/50/12 27/52/1 25/53/12
f 56/44/4 57/54/4 33/54/4
f 48/49/11 25/53/12 23/55/11
f 36/56/4 57/57/4 60/56/4
f 46/58/5 23/55/11 21/59/5
f 49/29/2 75/31/2 73/29/2
f 44/60/10 21/59/5 19/61/10
f 44/60/4 66/62/4 68/60/4
f 42/62/9 19/61/10 17/63/9
f 35/14/2 61/17/2 59/14/2
f 40/64/3 17/63/9 15/65/3
f 50/50/4 76/51/4 52/51/4
f 38/66/8 15/65/3 13/67/8
f 43/23/2 69/25/2 67/23/2
f 36/56/7 13/67/8 11/68/7
f 36/56/4 62/66/4 38/66/4
f 33/57/6 11/68/7 9/69/6
f 53/33/2 75/31/2 51/31/2
f 79/38/14 57/54/6 80/44/14
f 77/33/13 80/44/14 78/47/13
f 75/31/1 78/47/13 76/51/1
f 73/29/12 76/51/1 74/50/12
f 71/27/11 74/50/12 72/49/11
f 69/25/5 72/49/11 70/58/5
f 67/23/10 70/58/5 68/60/10
f 65/21/9 68/60/10 66/62/9
f 63/19/3 66/62/9 64/64/3
f 61/17/8 64/64/3 62/66/8
f 59/14/7 62/66/8 60/56/7
f 58/15/6 60/56/7 57/57/6
f 55/38/2 58/40/2 79/38/2
f 42/62/4 64/64/4 66/62/4
f 47/27/2 73/29/2 71/27/2
f 56/44/4 78/47/4 80/44/4
f 41/21/2 63/19/2 39/19/2
f 48/49/4 70/58/4 72/49/4
f 55/38/2 77/33/2 53/33/2
f 38/66/4 64/64/4 40/64/4
f 47/27/2 69/25/2 45/25/2
f 54/47/4 76/51/4 78/47/4
f 37/17/2 63/19/2 61/17/2
f 44/60/4 70/58/4 46/58/4
f 82/1/1 83/2/1 81/3/1
f 84/4/15 87/5/2 83/2/2
f 88/6/3 85/7/3 87/5/3
f 86/8/4 81/9/4 85/7/4
f 87/5/5 81/10/5 83/11/5
f 84/4/15 90/6/16 88/6/15
f 86/8/3 90/6/3 92/6/3
f 86/8/3 88/6/3 90/6/3
f 84/4/1 82/1/1 89/4/1
f 91/4/17 101/6/18 92/6/17
f 89/4/1 82/1/1 91/4/1
f 89/4/16 92/6/17 90/6/16
f 94/4/18 97/6/19 101/6/18
f 99/8/3 97/6/3 103/6/3
f 99/8/3 101/6/3 97/6/3
f 94/4/1 93/1/1 96/4/1
f 98/12/5 99/8/5 103/6/5
f 96/4/1 93/1/1 98/4/1
f 96/4/19 103/6/20 97/6/19
f 100/3/1 93/4/1 95/2/1
f 86/8/5 93/70/5 82/70/5
f 92/6/3 99/8/3 86/8/3
f 91/4/1 93/1/1 94/4/1
f 93/4/2 104/5/2 95/2/2
f 99/6/3 102/7/3 104/5/3
f 103/8/4 100/9/4 102/7/4
f 141/60/4 115/58/4 139/58/4
f 148/17/2 122/19/2 124/17/2
f 131/47/4 109/51/4 107/47/4
f 138/27/2 116/25/2 140/25/2
f 147/66/4 121/64/4 145/64/4
f 130/38/2 108/33/2 132/33/2
f 137/49/4 115/58/4 113/49/4
f 144/21/2 122/19/2 146/19/2
f 129/44/4 107/47/4 105/44/4
f 138/27/2 112/29/2 114/27/2
f 143/62/4 121/64/4 119/62/4
f 130/38/2 127/40/2 106/38/2
f 127/15/6 125/56/7 128/57/6
f 126/14/7 123/66/8 125/56/7
f 124/17/8 121/64/3 123/66/8
f 122/19/3 119/62/9 121/64/3
f 120/21/9 117/60/10 119/62/9
f 118/23/10 115/58/5 117/60/10
f 116/25/5 113/49/11 115/58/5
f 114/27/11 111/50/12 113/49/11
f 112/29/12 109/51/1 111/50/12
f 110/31/1 107/47/13 109/51/1
f 108/33/13 105/44/14 107/47/13
f 106/38/14 128/54/6 105/44/14
f 132/33/2 110/31/2 134/31/2
f 152/57/6 174/68/7 176/69/6
f 149/56/4 123/66/4 147/66/4
f 149/56/7 172/67/8 174/68/7
f 142/23/2 116/25/2 118/23/2
f 147/66/8 170/65/3 172/67/8
f 135/50/4 109/51/4 133/51/4
f 145/64/3 168/63/9 170/65/3
f 150/14/2 124/17/2 126/14/2
f 143/62/9 166/61/10 168/63/9
f 141/60/4 119/62/4 117/60/4
f 141/60/10 164/59/5 166/61/10
f 136/29/2 110/31/2 112/29/2
f 139/58/5 162/55/11 164/59/5
f 149/56/4 128/57/4 125/56/4
f 137/49/11 160/53/12 162/55/11
f 129/44/4 128/54/4 152/54/4
f 135/50/12 158/52/1 160/53/12
f 142/23/2 120/21/2 144/21/2
f 133/51/1 156/48/13 158/52/1
f 137/49/4 111/50/4 135/50/4
f 131/47/13 154/46/14 156/48/13
f 150/14/2 127/15/2 151/15/2
f 129/44/14 176/45/6 154/46/14
f 170/41/2 162/42/2 154/43/2
f 153/39/14 151/40/6 130/38/14
f 155/37/13 130/38/14 132/33/13
f 155/34/4 163/35/4 171/36/4
f 157/32/1 132/33/13 134/31/1
f 159/30/12 134/31/1 136/29/12
f 161/28/11 136/29/12 138/27/11
f 163/26/5 138/27/11 140/25/5
f 165/24/10 140/25/5 142/23/10
f 167/22/9 142/23/10 144/21/9
f 169/20/3 144/21/9 146/19/3
f 171/18/8 146/19/3 148/17/8
f 173/16/7 148/17/8 150/14/7
f 175/13/6 150/14/7 151/15/6
f 178/1/1 179/2/1 177/3/1
f 180/4/15 183/5/2 179/2/2
f 184/6/3 181/7/3 183/5/3
f 182/8/4 177/9/4 181/7/4
f 183/5/5 177/10/5 179/11/5
f 180/4/15 186/6/16 184/6/15
f 182/8/3 186/6/3 188/6/3
f 182/8/3 184/6/3 186/6/3
f 180/4/1 178/1/1 185/4/1
f 187/4/17 197/6/18 188/6/17
f 185/4/1 178/1/1 187/4/1
f 185/4/16 188/6/17 186/6/16
f 190/4/18 193/6/19 197/6/18
f 195/8/3 193/6/3 199/6/3
f 195/8/3 197/6/3 193/6/3
f 190/4/1 189/1/1 192/4/1
f 194/12/5 195/8/5 199/6/5
f 192/4/1 189/1/1 194/4/1
f 192/4/19 199/6/20 193/6/19
f 196/3/1 189/4/1 191/2/1
f 182/8/5 189/70/5 178/70/5
f 188/6/3 195/8/3 182/8/3
f 187/4/1 189/1/1 190/4/1
f 189/4/2 200/5/2 191/2/2
f 195/6/3 198/7/3 200/5/3
f 199/8/4 196/9/4 198/7/4
s 0
f 201/71/4 222/72/4 218/73/4
f 204/13/7 205/74/7 203/69/7
f 220/75/11 221/76/11 219/77/11
f 206/78/3 207/79/3 205/74/3
f 215/80/2 219/81/2 223/82/2
f 218/83/21 219/77/21 217/79/21
f 208/83/21 209/77/21 207/79/21
f 224/84/14 202/85/14 223/86/14
f 216/78/3 217/79/3 215/74/3
f 210/75/11 211/76/11 209/77/11
f 204/71/4 212/72/4 208/73/4
f 201/13/7 215/74/7 202/69/7
f 212/87/1 213/86/1 211/76/1
f 222/87/1 223/86/1 221/76/1
f 214/84/14 203/85/14 213/86/14
f 205/80/2 209/81/2 213/82/2
f 225/71/4 229/72/4 227/73/4
f 2/1/1 4/4/1 3/2/1
f 4/4/2 8/6/2 7/5/2
f 8/6/3 6/8/3 5/7/3
f 6/8/4 2/70/4 1/9/4
f 7/5/5 5/7/5 1/10/5
f 4/12/6 2/88/6 6/8/6
s 1
f 10/13/6 12/16/7 35/14/7
f 12/16/7 14/18/8 37/17/8
f 14/18/8 16/20/3 39/19/3
f 16/20/3 18/22/9 41/21/9
f 18/22/9 20/24/10 43/23/10
f 20/24/10 22/26/5 45/25/5
f 22/26/5 24/28/11 47/27/11
f 24/28/11 26/30/12 49/29/12
f 26/30/12 28/32/1 51/31/1
f 28/32/1 30/37/13 53/33/13
f 14/36/4 12/89/4 10/71/4
f 10/71/4 32/90/4 30/34/4
f 30/34/4 28/91/4 26/72/4
f 26/72/4 24/92/4 22/35/4
f 22/35/4 20/93/4 18/73/4
f 18/73/4 16/94/4 14/36/4
f 14/36/4 10/71/4 30/34/4
f 30/34/4 26/72/4 22/35/4
f 22/35/4 18/73/4 14/36/4
f 30/37/13 32/39/14 55/38/14
f 32/39/14 10/95/6 34/40/6
f 31/43/2 9/96/2 11/97/2
f 11/97/2 13/80/2 15/41/2
f 15/41/2 17/98/2 19/99/2
f 19/99/2 21/81/2 23/42/2
f 23/42/2 25/100/2 27/101/2
f 27/101/2 29/82/2 31/43/2
f 31/43/2 11/97/2 15/41/2
f 15/41/2 19/99/2 23/42/2
f 23/42/2 27/101/2 31/43/2
f 56/44/14 33/54/6 9/45/6
f 35/14/2 59/14/2 58/15/2
f 54/47/13 56/44/14 31/46/14
f 48/49/4 72/49/4 74/50/4
f 52/51/1 54/47/13 29/48/13
f 43/23/2 67/23/2 65/21/2
f 50/50/12 52/51/1 27/52/1
f 56/44/4 80/44/4 57/54/4
f 48/49/11 50/50/12 25/53/12
f 36/56/4 33/57/4 57/57/4
f 46/58/5 48/49/11 23/55/11
f 49/29/2 51/31/2 75/31/2
f 44/60/10 46/58/5 21/59/5
f 44/60/4 42/62/4 66/62/4
f 42/62/9 44/60/10 19/61/10
f 35/14/2 37/17/2 61/17/2
f 40/64/3 42/62/9 17/63/9
f 50/50/4 74/50/4 76/51/4
f 38/66/8 40/64/3 15/65/3
f 43/23/2 45/25/2 69/25/2
f 36/56/7 38/66/8 13/67/8
f 36/56/4 60/56/4 62/66/4
f 33/57/6 36/56/7 11/68/7
f 53/33/2 77/33/2 75/31/2
f 79/38/14 58/40/6 57/54/6
f 77/33/13 79/38/14 80/44/14
f 75/31/1 77/33/13 78/47/13
f 73/29/12 75/31/1 76/51/1
f 71/27/11 73/29/12 74/50/12
f 69/25/5 71/27/11 72/49/11
f 67/23/10 69/25/5 70/58/5
f 65/21/9 67/23/10 68/60/10
f 63/19/3 65/21/9 66/62/9
f 61/17/8 63/19/3 64/64/3
f 59/14/7 61/17/8 62/66/8
f 58/15/6 59/14/7 60/56/7
f 55/38/2 34/40/2 58/40/2
f 42/62/4 40/64/4 64/64/4
f 47/27/2 49/29/2 73/29/2
f 56/44/4 54/47/4 78/47/4
f 41/21/2 65/21/2 63/19/2
f 48/49/4 46/58/4 70/58/4
f 55/38/2 79/38/2 77/33/2
f 38/66/4 62/66/4 64/64/4
f 47/27/2 71/27/2 69/25/2
f 54/47/4 52/51/4 76/51/4
f 37/17/2 39/19/2 63/19/2
f 44/60/4 68/60/4 70/58/4
f 82/1/1 84/4/1 83/2/1
f 84/4/15 88/6/15 87/5/2
f 88/6/3 86/8/3 85/7/3
f 86/8/4 82/70/4 81/9/4
f 87/5/5 85/7/5 81/10/5
f 84/4/15 89/4/16 90/6/16
f 91/4/17 94/4/18 101/6/18
f 89/4/16 91/4/17 92/6/17
f 94/4/18 96/4/19 97/6/19
f 98/12/5 93/88/5 99/8/5
f 96/4/19 98/4/20 103/6/20
f 100/3/1 98/1/1 93/4/1
f 86/8/5 99/8/5 93/70/5
f 92/6/3 101/6/3 99/8/3
f 91/4/1 82/1/1 93/1/1
f 93/4/2 99/6/2 104/5/2
f 99/6/3 103/8/3 102/7/3
f 103/8/4 98/70/4 100/9/4
f 141/60/4 117/60/4 115/58/4
f 148/17/2 146/19/2 122/19/2
f 131/47/4 133/51/4 109/51/4
f 138/27/2 114/27/2 116/25/2
f 147/66/4 123/66/4 121/64/4
f 130/38/2 106/38/2 108/33/2
f 137/49/4 139/58/4 115/58/4
f 144/21/2 120/21/2 122/19/2
f 129/44/4 131/47/4 107/47/4
f 138/27/2 136/29/2 112/29/2
f 143/62/4 145/64/4 121/64/4
f 130/38/2 151/40/2 127/40/2
f 127/15/6 126/14/7 125/56/7
f 126/14/7 124/17/8 123/66/8
f 124/17/8 122/19/3 121/64/3
f 122/19/3 120/21/9 119/62/9
f 120/21/9 118/23/10 117/60/10
f 118/23/10 116/25/5 115/58/5
f 116/25/5 114/27/11 113/49/11
f 114/27/11 112/29/12 111/50/12
f 112/29/12 110/31/1 109/51/1
f 110/31/1 108/33/13 107/47/13
f 108/33/13 106/38/14 105/44/14
f 106/38/14 127/40/6 128/54/6
f 132/33/2 108/33/2 110/31/2
f 152/57/6 149/56/7 174/68/7
f 149/56/4 125/56/4 123/66/4
f 149/56/7 147/66/8 172/67/8
f 142/23/2 140/25/2 116/25/2
f 147/66/8 145/64/3 170/65/3
f 135/50/4 111/50/4 109/51/4
f 145/64/3 143/62/9 168/63/9
f 150/14/2 148/17/2 124/17/2
f 143/62/9 141/60/10 166/61/10
f 141/60/4 143/62/4 119/62/4
f 141/60/10 139/58/5 164/59/5
f 136/29/2 134/31/2 110/31/2
f 139/58/5 137/49/11 162/55/11
f 149/56/4 152/57/4 128/57/4
f 137/49/11 135/50/12 160/53/12
f 129/44/4 105/44/4 128/54/4
f 135/50/12 133/51/1 158/52/1
f 142/23/2 118/23/2 120/21/2
f 133/51/1 131/47/13 156/48/13
f 137/49/4 113/49/4 111/50/4
f 131/47/13 129/44/14 154/46/14
f 150/14/2 126/14/2 127/15/2
f 129/44/14 152/54/6 176/45/6
f 154/43/2 176/96/2 174/97/2
f 174/97/2 172/80/2 170/41/2
f 170/41/2 168/98/2 166/99/2
f 166/99/2 164/81/2 162/42/2
f 162/42/2 160/100/2 158/101/2
f 158/101/2 156/82/2 154/43/2
f 154/43/2 174/97/2 170/41/2
f 170/41/2 166/99/2 162/42/2
f 162/42/2 158/101/2 154/43/2
f 153/39/14 175/95/6 151/40/6
f 155/37/13 153/39/14 130/38/14
f 171/36/4 173/89/4 175/71/4
f 175/71/4 153/90/4 155/34/4
f 155/34/4 157/91/4 159/72/4
f 159/72/4 161/92/4 163/35/4
f 163/35/4 165/93/4 167/73/4
f 167/73/4 169/94/4 171/36/4
f 171/36/4 175/71/4 155/34/4
f 155/34/4 159/72/4 163/35/4
f 163/35/4 167/73/4 171/36/4
f 157/32/1 155/37/13 132/33/13
f 159/30/12 157/32/1 134/31/1
f 161/28/11 159/30/12 136/29/12
f 163/26/5 161/28/11 138/27/11
f 165/24/10 163/26/5 140/25/5
f 167/22/9 165/24/10 142/23/10
f 169/20/3 167/22/9 144/21/9
f 171/18/8 169/20/3 146/19/3
f 173/16/7 171/18/8 148/17/8
f 175/13/6 173/16/7 150/14/7
f 178/1/1 180/4/1 179/2/1
f 180/4/15 184/6/15 183/5/2
f 184/6/3 182/8/3 181/7/3
f 182/8/4 178/70/4 177/9/4
f 183/5/5 181/7/5 177/10/5
f 180/4/15 185/4/16 186/6/16
f 187/4/17 190/4/18 197/6/18
f 185/4/16 187/4/17 188/6/17
f 190/4/18 192/4/19 193/6/19
f 194/12/5 189/88/5 195/8/5
f 192/4/19 194/4/20 199/6/20
f 196/3/1 194/1/1 189/4/1
f 182/8/5 195/8/5 189/70/5
f 188/6/3 197/6/3 195/8/3
f 187/4/1 178/1/1 189/1/1
f 189/4/2 195/6/2 200/5/2
f 195/6/3 199/8/3 198/7/3
f 199/8/4 194/70/4 196/9/4
s 0
f 218/73/4 216/36/4 201/71/4
f 201/71/4 224/34/4 222/72/4
f 222/72/4 220/35/4 218/73/4
f 204/13/7 206/78/7 205/74/7
f 220/75/22 222/87/22 221/76/22
f 206/78/3 208/83/3 207/79/3
f 223/82/2 202/96/2 215/80/2
f 215/80/2 217/98/2 219/81/2
f 219/81/2 221/100/2 223/82/2
f 218/83/10 220/75/10 219/77/10
f 208/83/10 210/75/10 209/77/10
f 224/84/14 201/102/14 202/85/14
f 216/78/3 218/83/3 217/79/3
f 210/75/22 212/87/22 211/76/22
f 208/73/4 206/36/4 204/71/4
f 204/71/4 214/34/4 212/72/4
f 212/72/4 210/35/4 208/73/4
f 201/13/7 216/78/7 215/74/7
f 212/87/1 214/84/1 213/86/1
f 222/87/1 224/84/1 223/86/1
f 214/84/14 204/102/14 203/85/14
f 213/82/2 203/96/2 205/80/2
f 205/80/2 207/98/2 209/81/2
f 209/81/2 211/100/2 213/82/2
f 227/73/4 226/36/4 225/71/4
f 225/71/4 230/34/4 229/72/4
f 229/72/4 228/35/4 227/73/4
