# Blender 4.3.2
# www.blender.org
mtllib StampMill.mtl
g StampMill_Mesh
v -15.000000 0.000000 6.000000
v -15.000000 0.100000 6.000000
v -15.000000 0.000000 -6.000000
v -15.000000 0.100000 -6.000000
v 0.000000 0.000000 6.000000
v 0.000000 0.100000 6.000000
v 0.000000 0.000000 -6.000000
v 0.000000 0.100000 -6.000000
v -15.000000 2.900000 6.000000
v -15.000000 3.100000 6.000000
v -15.000000 2.900000 2.000000
v -15.000000 3.100000 2.000000
v -10.000000 2.900000 6.000000
v -10.000000 3.100000 6.000000
v -10.000000 2.900000 2.000000
v -10.000000 3.100000 2.000000
v -15.000000 6.100000 0.000000
v -15.000000 6.000000 0.000000
v -15.000000 6.100000 6.000000
v -15.000000 6.000000 6.000000
v -21.000000 6.100000 0.000000
v -21.000000 6.000000 0.000000
v -21.000000 6.100000 6.000000
v -21.000000 6.000000 6.000000
v -15.000000 0.000000 -0.000000
v -15.000000 6.000000 -0.000000
v -14.900000 0.000000 -0.000000
v -14.900000 6.000000 -0.000000
v -15.000000 0.000000 6.000000
v -15.000000 6.000000 6.000000
v -14.900001 0.000000 6.000000
v -14.900001 6.000000 6.000000
v -6.000000 3.000000 6.000000
v -6.000000 7.000000 6.000000
v -6.000000 3.000000 5.900000
v -6.000000 7.000000 5.900000
v 0.000000 3.000000 6.000000
v 0.000000 4.000000 6.000000
v 0.000000 3.000000 5.900000
v 0.000000 4.000000 5.900000
v -12.000000 10.000000 6.000000
v -12.000000 10.100000 6.000000
v -12.000000 10.000000 -6.000000
v -12.000000 10.100000 -6.000000
v 0.000000 4.000000 6.000000
v 0.000000 4.100000 6.000000
v 0.000000 4.000000 -6.000000
v 0.000000 4.100000 -6.000000
v -12.000000 10.000000 0.000000
v -12.000000 10.100000 0.000000
v -12.000000 10.000000 -6.000000
v -12.000000 10.100000 -6.000000
v -15.000000 8.500000 0.000000
v -15.000000 8.600000 0.000000
v -15.000000 8.500000 -6.000000
v -15.000000 8.600000 -6.000000
v -21.000000 11.500000 3.000000
v -21.000000 11.600000 3.000000
v -12.000000 11.500000 3.000000
v -12.000000 11.600000 3.000000
v -21.000000 10.000000 0.000000
v -21.000000 10.100000 0.000000
v -12.000000 10.000000 0.000000
v -12.000000 10.100000 0.000000
v -21.000000 11.500000 3.000000
v -21.000000 11.600000 3.000000
v -12.000000 11.500000 3.000000
v -12.000000 11.600000 3.000000
v -21.000000 10.000000 6.000000
v -21.000000 10.100000 6.000000
v -12.000000 10.000000 6.000000
v -12.000000 10.100000 6.000000
v -15.000000 0.000000 6.000000
v -15.000000 3.000000 6.000000
v -15.000000 0.000000 5.900000
v -15.000000 3.000000 5.900000
v -9.000000 0.000000 6.000000
v -9.000000 3.000000 6.000000
v -9.000000 0.000000 5.900000
v -9.000000 3.000000 5.900000
v -8.000000 3.100000 2.000000
v -8.000000 2.900000 2.000000
v -8.000000 2.900000 6.000000
v -8.000000 3.100000 6.000000
v -10.000000 3.100000 0.000000
v -10.000000 2.900000 0.000000
v -8.000000 3.100000 0.000000
v -8.000000 2.900000 0.000000
v -12.000000 6.000000 6.000000
v -12.000000 10.000000 6.000000
v -12.000000 6.000000 5.900000
v -12.000000 10.000000 5.900000
v -6.000000 6.000000 6.000000
v -6.000000 7.000000 6.000000
v -6.000000 6.000000 5.900000
v -6.000000 7.000000 5.900000
v 0.000000 4.000000 -6.000000
v 0.000000 3.000000 -6.000000
v 0.000000 4.000000 -5.900000
v 0.000000 3.000000 -5.900000
v -6.000000 7.000000 -6.000000
v -6.000000 3.000000 -6.000000
v -6.000000 7.000000 -5.900000
v -6.000000 3.000000 -5.900000
v -12.000000 10.000000 -5.900000
v -12.000000 10.000000 -6.000000
v -6.000000 6.000000 -5.900000
v -6.000000 7.000000 -5.900000
v -6.000000 6.000000 -6.000000
v -6.000000 7.000000 -6.000000
v -12.000000 6.000000 -6.000000
v -12.000000 6.000000 -5.900000
v -15.000000 6.000000 -5.900000
v -15.000000 8.500000 -5.900000
v -15.000000 6.000000 -6.000000
v -15.000000 8.500000 -6.000000
v -0.100000 3.000000 -6.000000
v -0.100000 4.000000 -6.000000
v 0.000000 3.000000 -6.000000
v 0.000000 4.000000 -6.000000
v -0.100000 3.000000 6.000000
v -0.100000 4.000000 6.000000
v -0.000001 3.000000 6.000000
v -0.000001 4.000000 6.000000
v -15.000000 6.000000 -6.000000
v -15.000000 8.500000 -6.000000
v -14.900000 6.000000 -6.000000
v -14.900000 8.500000 -6.000000
v -15.000000 6.000000 0.000000
v -15.000000 8.500000 0.000000
v -14.900001 6.000000 0.000000
v -14.900001 8.500000 0.000000
v -15.000000 6.000000 -0.000000
v -15.000000 8.500000 -0.000000
v -14.900000 6.000000 -0.000000
v -14.900000 8.500000 -0.000000
v -15.000000 6.000000 0.100000
v -15.000000 8.500000 0.100000
v -14.900001 6.000000 0.100000
v -14.900001 8.500000 0.100000
v -21.000000 9.000000 6.000000
v -21.000000 10.000000 6.000000
v -21.000000 9.000000 5.900000
v -21.000000 10.000000 5.900000
v -12.000000 9.000000 6.000000
v -12.000000 10.000000 6.000000
v -12.000000 9.000000 5.900000
v -12.000000 10.000000 5.900000
v -21.000000 9.000000 0.100000
v -21.000000 10.000000 0.100000
v -21.000000 9.000000 0.000000
v -21.000000 10.000000 0.000000
v -15.000000 9.000000 0.100000
v -15.000000 10.000000 0.100000
v -15.000000 9.000000 0.000000
v -15.000000 10.000000 0.000000
v -15.000000 8.500000 0.100000
v -15.000000 10.000000 0.100000
v -15.000000 8.500000 0.000000
v -15.000000 10.000000 0.000000
v -12.000000 10.000000 0.100000
v -12.000000 10.000000 0.000000
v -21.000000 9.000000 0.000000
v -21.000000 10.000000 0.000000
v -20.900000 9.000000 0.000000
v -20.900000 10.000000 0.000000
v -21.000000 9.000000 6.000000
v -21.000000 10.000000 6.000000
v -20.900002 9.000000 6.000000
v -20.900002 10.000000 6.000000
v -12.100000 10.000000 0.000000
v -21.000000 11.500000 3.000000
v -20.900002 11.500000 3.000000
v -12.000000 10.000000 0.000000
v -12.100000 10.000000 6.000000
v -12.000002 10.000000 6.000000
v -12.100000 11.500000 3.000000
v -12.000002 11.500000 3.000000
vn -0.0000 -0.0000 -1.0000
vn 1.0000 -0.0000 -0.0000
vn -0.0000 -0.0000 1.0000
vn -0.0000 -1.0000 -0.0000
vn -0.0000 1.0000 -0.0000
vn -1.0000 -0.0000 -0.0000
vn -0.4472 -0.8944 -0.0000
vn 0.4472 0.8944 -0.0000
vn 0.4472 -0.8944 -0.0000
vn -0.4472 0.8944 -0.0000
vn -0.0000 -0.8944 0.4472
vn -0.0000 0.8944 -0.4472
vn -0.0000 -0.8944 -0.4472
vn -0.0000 0.8944 0.4472
vt 0.625000 0.250000
vt 0.375000 0.500000
vt 0.375000 0.250000
vt 0.625000 0.500000
vt 0.375000 0.750000
vt 0.625000 0.750000
vt 0.375000 1.000000
vt 0.125000 0.750000
vt 0.125000 0.500000
vt 0.875000 0.500000
vt 0.625000 0.000000
vt 0.375000 0.000000
vt 0.875000 0.750000
vt 0.625000 1.000000
s 0
f 12/1/1 15/2/1 11/3/1
f 4/1/1 7/2/1 3/3/1
f 8/4/2 5/5/2 7/2/2
f 6/6/3 1/7/3 5/5/3
f 7/2/4 1/8/4 3/9/4
f 4/10/5 6/6/5 8/4/5
f 15/2/4 83/5/4 13/5/4
f 14/6/3 9/7/3 13/5/3
f 15/2/4 9/8/4 11/9/4
f 12/10/5 14/6/5 16/4/5
f 9/7/6 12/1/6 11/3/6
f 24/7/6 21/1/6 22/3/6
f 21/10/5 19/6/5 17/4/5
f 18/2/4 24/8/4 22/9/4
f 19/6/3 24/7/3 20/5/3
f 17/4/2 20/5/2 18/2/2
f 21/1/1 18/2/1 22/3/1
f 1/7/6 4/1/6 3/3/6
f 26/11/1 27/3/1 25/12/1
f 28/1/2 31/2/2 27/3/2
f 32/4/3 29/5/3 31/2/3
f 30/6/6 25/7/6 29/5/6
f 31/2/4 25/8/4 27/9/4
f 28/10/5 30/6/5 32/4/5
f 108/6/3 112/7/3 107/5/3
f 35/3/1 40/4/1 39/2/1
f 111/3/1 110/4/1 109/2/1
f 38/6/3 33/7/3 37/5/3
f 99/6/3 104/7/3 100/5/3
f 102/3/1 97/4/1 98/2/1
f 42/11/6 43/3/6 41/12/6
f 43/3/1 48/4/1 47/2/1
f 48/4/2 45/5/2 47/2/2
f 46/6/3 41/7/3 45/5/3
f 47/2/7 41/8/7 43/9/7
f 44/10/8 46/6/8 48/4/8
f 51/3/2 50/11/2 49/12/2
f 51/3/1 56/4/1 52/1/1
f 53/5/6 56/4/6 55/2/6
f 49/7/3 54/6/3 53/5/3
f 49/8/9 55/2/9 51/9/9
f 54/6/10 52/10/10 56/4/10
f 59/3/3 58/11/3 57/12/3
f 59/3/2 64/4/2 60/1/2
f 61/5/1 64/4/1 63/2/1
f 57/7/6 62/6/6 61/5/6
f 57/8/11 63/2/11 59/9/11
f 62/6/12 60/10/12 64/4/12
f 66/11/1 67/3/1 65/12/1
f 67/3/2 72/4/2 71/2/2
f 72/4/3 69/5/3 71/2/3
f 70/6/6 65/7/6 69/5/6
f 71/2/13 65/8/13 67/9/13
f 68/10/14 70/6/14 72/4/14
f 74/11/6 75/3/6 73/12/6
f 76/1/1 79/2/1 75/3/1
f 80/4/2 77/5/2 79/2/2
f 78/6/3 73/7/3 77/5/3
f 79/2/4 73/8/4 75/9/4
f 76/10/5 78/6/5 80/4/5
f 81/4/2 83/5/2 82/2/2
f 14/6/5 81/4/5 16/4/5
f 81/4/5 85/4/5 16/4/5
f 13/5/3 84/6/3 14/6/3
f 85/4/1 88/2/1 86/2/1
f 16/4/6 86/2/6 15/2/6
f 15/2/4 88/2/4 82/2/4
f 82/2/2 87/4/2 81/4/2
f 91/3/1 96/4/1 95/2/1
f 94/6/3 89/7/3 93/5/3
f 111/3/1 116/4/1 106/1/1
f 112/7/3 114/6/3 113/5/3
f 136/1/2 139/2/2 135/3/2
f 120/1/2 123/2/2 119/3/2
f 134/11/1 135/3/1 133/12/1
f 122/6/6 117/7/6 121/5/6
f 130/6/6 125/7/6 129/5/6
f 128/1/2 131/2/2 127/3/2
f 140/4/3 137/5/3 139/2/3
f 138/6/6 133/7/6 137/5/6
f 139/2/4 133/8/4 135/9/4
f 140/4/5 134/13/5 138/6/5
f 159/3/1 160/1/1 162/2/1
f 144/1/1 147/2/1 143/3/1
f 161/6/3 158/14/3 157/7/3
f 146/6/3 141/7/3 145/5/3
f 154/6/3 149/7/3 153/5/3
f 152/1/1 155/2/1 151/3/1
f 162/2/9 157/7/9 159/3/9
f 168/6/6 163/7/6 167/5/6
f 166/1/2 169/2/2 165/3/2
f 164/14/6 168/6/6 172/14/6
f 170/4/2 166/1/2 173/4/2
f 175/6/4 174/1/4 176/4/4
f 171/14/6 175/6/6 177/14/6
f 176/4/2 174/1/2 178/4/2
f 12/1/1 16/4/1 15/2/1
f 4/1/1 8/4/1 7/2/1
f 8/4/2 6/6/2 5/5/2
f 6/6/3 2/14/3 1/7/3
f 7/2/4 5/5/4 1/8/4
f 4/10/5 2/13/5 6/6/5
f 15/2/4 82/2/4 83/5/4
f 14/6/3 10/14/3 9/7/3
f 15/2/4 13/5/4 9/8/4
f 12/10/5 10/13/5 14/6/5
f 9/7/6 10/13/6 12/1/6
f 24/7/6 23/13/6 21/1/6
f 21/10/5 23/13/5 19/6/5
f 18/2/4 20/5/4 24/8/4
f 19/6/3 23/14/3 24/7/3
f 17/4/2 19/6/2 20/5/2
f 21/1/1 17/4/1 18/2/1
f 1/7/6 2/13/6 4/1/6
f 26/11/1 28/1/1 27/3/1
f 28/1/2 32/4/2 31/2/2
f 32/4/3 30/6/3 29/5/3
f 30/6/6 26/14/6 25/7/6
f 31/2/4 29/5/4 25/8/4
f 28/10/5 26/13/5 30/6/5
f 108/6/3 105/14/3 112/7/3
f 35/3/1 36/1/1 40/4/1
f 111/3/1 106/1/1 110/4/1
f 38/6/3 34/14/3 33/7/3
f 99/6/3 103/14/3 104/7/3
f 102/3/1 101/1/1 97/4/1
f 42/11/6 44/1/6 43/3/6
f 43/3/1 44/1/1 48/4/1
f 48/4/2 46/6/2 45/5/2
f 46/6/3 42/14/3 41/7/3
f 47/2/7 45/5/7 41/8/7
f 44/10/8 42/13/8 46/6/8
f 51/3/2 52/1/2 50/11/2
f 51/3/1 55/2/1 56/4/1
f 53/5/6 54/6/6 56/4/6
f 49/7/3 50/14/3 54/6/3
f 49/8/9 53/5/9 55/2/9
f 54/6/10 50/13/10 52/10/10
f 59/3/3 60/1/3 58/11/3
f 59/3/2 63/2/2 64/4/2
f 61/5/1 62/6/1 64/4/1
f 57/7/6 58/14/6 62/6/6
f 57/8/11 61/5/11 63/2/11
f 62/6/12 58/13/12 60/10/12
f 66/11/1 68/1/1 67/3/1
f 67/3/2 68/1/2 72/4/2
f 72/4/3 70/6/3 69/5/3
f 70/6/6 66/14/6 65/7/6
f 71/2/13 69/5/13 65/8/13
f 68/10/14 66/13/14 70/6/14
f 74/11/6 76/1/6 75/3/6
f 76/1/1 80/4/1 79/2/1
f 80/4/2 78/6/2 77/5/2
f 78/6/3 74/14/3 73/7/3
f 79/2/4 77/5/4 73/8/4
f 76/10/5 74/13/5 78/6/5
f 81/4/2 84/6/2 83/5/2
f 14/6/5 84/6/5 81/4/5
f 81/4/5 87/4/5 85/4/5
f 13/5/3 83/5/3 84/6/3
f 85/4/1 87/4/1 88/2/1
f 16/4/6 85/4/6 86/2/6
f 15/2/4 86/2/4 88/2/4
f 82/2/2 88/2/2 87/4/2
f 91/3/1 92/1/1 96/4/1
f 94/6/3 90/14/3 89/7/3
f 111/3/1 115/2/1 116/4/1
f 112/7/3 105/14/3 114/6/3
f 136/1/2 140/4/2 139/2/2
f 120/1/2 124/4/2 123/2/2
f 134/11/1 136/1/1 135/3/1
f 122/6/6 118/14/6 117/7/6
f 130/6/6 126/14/6 125/7/6
f 128/1/2 132/4/2 131/2/2
f 140/4/3 138/6/3 137/5/3
f 138/6/6 134/14/6 133/7/6
f 139/2/4 137/5/4 133/8/4
f 140/4/5 136/10/5 134/13/5
f 144/1/1 148/4/1 147/2/1
f 146/6/3 142/14/3 141/7/3
f 154/6/3 150/14/3 149/7/3
f 152/1/1 156/4/1 155/2/1
f 162/2/9 161/5/9 157/7/9
f 168/6/6 164/14/6 163/7/6
f 166/1/2 170/4/2 169/2/2
f 175/6/4 171/14/4 174/1/4
