# Blender 4.3.2
# www.blender.org
mtllib StampMillSupport.mtl
g StampMillSupport_Mesh
v -16.000000 -10.000000 7.000000
v -15.000000 0.000000 6.000000
v -16.000000 -10.000000 -7.000000
v -15.000000 0.000000 -6.000000
v 1.000000 -10.000000 7.000000
v 0.000000 0.000000 6.000000
v 1.000000 -10.000000 -7.000000
v 0.000000 0.000000 -6.000000
vn -0.9950 0.0995 -0.0000
vn -0.0000 0.0995 -0.9950
vn 0.9950 0.0995 -0.0000
vn -0.0000 0.0995 0.9950
vt 0.625000 0.000000
vt 0.375000 0.250000
vt 0.375000 0.000000
vt 0.625000 0.250000
vt 0.375000 0.500000
vt 0.625000 0.500000
vt 0.375000 0.750000
vt 0.625000 0.750000
vt 0.375000 1.000000
vt 0.625000 1.000000
s 0
f 2/1/1 3/2/1 1/3/1
f 4/4/2 7/5/2 3/2/2
f 8/6/3 5/7/3 7/5/3
f 6/8/4 1/9/4 5/7/4
f 2/1/1 4/4/1 3/2/1
f 4/4/2 8/6/2 7/5/2
f 8/6/3 6/8/3 5/7/3
f 6/8/4 2/10/4 1/9/4
