# Blender 5.1.0
# www.blender.org
mtllib BridgeSupport.mtl
g BridgeSupport_Mesh
v -2.900000 -0.500000 0.300000
v -2.900000 -0.300000 0.300000
v -2.900000 -0.500000 0.000000
v -2.900000 -0.300000 0.000000
v 2.800000 -0.500000 0.300000
v 2.800000 -0.300000 0.300000
v 2.800000 -0.500000 0.000000
v 2.800000 -0.300000 0.000000
v -2.900000 -1.200000 0.050000
v -2.900000 -1.000000 0.050000
v -2.900000 -1.200000 0.000000
v -2.900000 -1.000000 0.000000
v 2.800000 -1.200000 0.050000
v 2.800000 -1.000000 0.050000
v 2.800000 -1.200000 0.000000
v 2.800000 -1.000000 0.000000
v -0.150000 -0.500000 0.250000
v 0.150000 -0.500000 0.250000
v -0.150000 -0.500000 0.050000
v 0.150000 -0.500000 0.050000
v -0.150000 -6.000000 0.250000
v 0.150000 -6.000000 0.250000
v -0.150000 -6.000000 0.050000
v 0.150000 -6.000000 0.050000
v -1.350000 -6.000000 0.050000
v -1.650000 -6.000000 0.050000
v -1.350000 -6.000000 0.250000
v -1.650000 -6.000000 0.250000
v -1.050000 -0.500000 0.050000
v -1.350000 -0.500000 0.050000
v -1.050000 -0.500000 0.250000
v -1.350000 -0.500000 0.250000
v -2.950000 -6.000000 0.050000
v -3.250000 -6.000000 0.050000
v -2.950000 -6.000000 0.250000
v -3.250000 -6.000000 0.250000
v -2.350000 -0.500000 0.050000
v -2.650000 -0.500000 0.050000
v -2.350000 -0.500000 0.250000
v -2.650000 -0.500000 0.250000
v 3.000000 -3.000000 0.000000
v 3.000000 -3.200000 0.000000
v 3.000000 -3.000000 0.050000
v 3.000000 -3.200000 0.050000
v -3.000000 -0.900000 0.350000
v -3.000000 -1.100000 0.300000
v -3.000000 -0.900000 0.300000
v -3.000000 -1.100000 0.350000
v 3.100001 -3.100000 0.350000
v 3.100001 -3.300000 0.350000
v 3.100001 -3.100000 0.300000
v 3.100001 -3.300000 0.300000
v -3.100000 -3.000000 0.000000
v -3.100000 -3.200000 0.000000
v -3.100000 -3.000000 0.050000
v -3.100000 -3.200000 0.050000
v 3.400001 -6.000000 0.300000
v 3.400001 -5.800000 0.300000
v 3.400001 -6.000000 0.350000
v 3.400001 -5.800000 0.350000
v -3.200000 -3.100000 0.350000
v -3.200000 -2.900000 0.300000
v -3.200000 -3.100000 0.300000
v -3.200000 -2.900000 0.350000
v 2.900001 -0.900000 -0.050000
v 2.900001 -1.100000 -0.050000
v 2.900001 -0.900000 -0.000000
v 2.900001 -1.100000 -0.000000
v -3.200001 -3.100000 -0.000000
v -3.200001 -3.300000 -0.050000
v -3.200001 -3.100000 -0.050000
v -3.200001 -3.300000 -0.000000
v 2.550000 -0.500000 0.250000
v 2.250000 -0.500000 0.250000
v 2.550000 -0.500000 0.050000
v 2.250000 -0.500000 0.050000
v 3.150000 -6.000000 0.250000
v 2.850000 -6.000000 0.250000
v 3.150000 -6.000000 0.050000
v 2.850000 -6.000000 0.050000
v 1.350000 -0.500000 0.250000
v 1.050000 -0.500000 0.250000
v 1.350000 -0.500000 0.050000
v 1.050000 -0.500000 0.050000
v 1.450000 -6.000000 0.250000
v 1.350000 -6.000000 0.250000
v 1.450000 -6.000000 0.050000
v 1.350000 -6.000000 0.050000
v -2.680000 -0.800000 0.000000
v -2.680000 -1.000000 0.000000
v -2.729999 -0.800000 0.000000
v -2.729999 -1.000000 0.000000
v -2.680000 -0.800000 5.000000
v -2.680000 -1.000000 5.000000
v -2.730000 -0.800000 5.000000
v -2.730000 -1.000000 5.000000
v 2.850000 -3.000000 5.000000
v 2.850000 -2.800000 5.000000
v 2.800000 -3.000000 5.000000
v 2.800000 -2.800000 5.000000
v 2.849999 -3.000000 0.000000
v 2.849999 -2.800000 0.000000
v 2.800000 -3.000000 0.000000
v 2.800000 -2.800000 0.000000
v 2.630000 -1.000000 5.000000
v 2.630000 -0.800000 5.000000
v 2.580000 -1.000000 5.000000
v 2.580000 -0.800000 5.000000
v 2.629999 -1.000000 0.000000
v 2.629999 -0.800000 0.000000
v 2.580000 -1.000000 0.000000
v 2.580000 -0.800000 0.000000
v -2.900000 -2.800000 0.000000
v -2.900000 -3.000000 0.000000
v -2.949999 -2.800000 0.000000
v -2.949999 -3.000000 0.000000
v -2.900000 -2.800000 5.000000
v -2.900000 -3.000000 5.000000
v -2.950000 -2.800000 5.000000
v -2.950000 -3.000000 5.000000
v 2.800000 -1.200000 0.250000
v 2.800000 -1.000000 0.250000
v 2.800000 -1.200000 0.300000
v 2.800000 -1.000000 0.300000
v -2.900000 -1.200000 0.250000
v -2.900000 -1.000000 0.250000
v -2.900000 -1.200000 0.300000
v -2.900000 -1.000000 0.300000
v 3.000000 -3.200000 0.250000
v 3.000000 -3.000000 0.250000
v 3.000000 -3.200000 0.300000
v 3.000000 -3.000000 0.300000
v -3.100000 -3.200000 0.250000
v -3.100000 -3.000000 0.250000
v -3.100000 -3.200000 0.300000
v -3.100000 -3.000000 0.300000
v 3.100001 -2.900000 -0.050000
v 3.100001 -3.100000 -0.050000
v 3.100001 -2.900000 -0.000000
v 3.100001 -3.100000 -0.000000
v -3.500000 -5.800000 -0.000000
v -3.500000 -6.000000 -0.050000
v -3.500000 -5.800000 -0.050000
v -3.500000 -6.000000 -0.000000
vn -1.0000 -0.0000 -0.0000
vn -0.0000 -0.0000 -1.0000
vn 1.0000 -0.0000 -0.0000
vn -0.0000 -0.0000 1.0000
vn -0.0000 -1.0000 -0.0000
vn -0.0000 1.0000 -0.0000
vn -0.3393 -0.9407 -0.0000
vn 0.9985 -0.0545 -0.0000
vn -0.9985 0.0545 -0.0000
vn 0.9941 -0.1084 -0.0000
vn -0.9941 0.1084 -0.0000
vn 0.3393 0.9407 -0.0000
vn 0.4023 0.9155 -0.0000
vn -0.4023 -0.9155 -0.0000
vn 0.3393 -0.9407 -0.0000
vn -0.3393 0.9407 -0.0000
vn 0.9941 0.1084 -0.0000
vn -0.9941 -0.1084 -0.0000
vn 0.9998 0.0182 -0.0000
vn -0.9985 -0.0545 -0.0000
vn 0.4023 -0.9155 -0.0000
vn -0.4023 0.9155 -0.0000
vt 0.940955 0.038724
vt 0.861127 0.000334
vt 0.940955 0.000334
vt 0.861127 0.038724
vt 0.769157 0.959871
vt 0.778053 0.038724
vt 0.851702 0.959871
vt 0.929546 0.999756
vt 0.851702 0.999756
vt 0.929546 0.959871
vt 0.977735 0.038724
vt 0.977813 0.959871
vt 0.720492 0.038724
vt 0.815991 0.992168
vt 0.850168 0.974909
vt 0.850168 0.992168
vt 0.815991 0.974909
vt 0.858918 0.010414
vt 0.815991 0.010414
vt 0.858918 0.000480
vt 0.778422 0.010414
vt 0.729489 0.974909
vt 0.739177 0.010414
vt 0.866235 0.974909
vt 0.911967 0.982123
vt 0.940950 0.015416
vt 0.915831 0.015416
vt 0.942057 0.000058
vt 0.850421 0.999973
vt 0.862710 0.000058
vt 0.871002 0.005312
vt 0.873141 0.015416
vt 0.715151 0.999973
vt 0.778724 0.000058
vt 0.769687 0.999973
vt 0.991319 0.999973
vt 0.930586 0.999973
vt 0.912701 0.999370
vt 0.867414 0.982123
vt 0.869787 0.999370
vt 0.697523 0.002913
vt 0.604351 0.997041
vt 0.688686 0.997041
vt 0.980903 0.982123
vt 0.982887 0.015416
vt 0.769022 0.997041
vt 0.860767 0.002913
vt 0.778055 0.002913
vt 0.927748 0.997041
vt 0.850504 0.997041
vt 0.778123 0.001469
vt 0.717540 0.998485
vt 0.768699 0.998485
vt 0.852777 0.998485
vt 0.942183 0.001469
vt 0.859847 0.001469
vt 0.998890 0.998485
vt 0.929597 0.998485
vt 0.852310 0.982123
vt 0.873141 0.989266
vt 0.866200 0.022558
vt 0.881304 0.022558
vt 0.905910 0.989266
vt 0.931029 0.989266
vt 0.980903 0.022558
vt 0.982887 0.989266
vt 0.916638 0.005312
vt 0.883677 0.005312
vt 0.871002 0.999370
vt 0.915904 0.022558
vt 0.921437 0.010860
vt 0.932247 0.990364
vt 0.943166 0.010860
vt 0.886841 0.990364
vt 0.865305 0.010860
vt 0.858217 0.990364
vt 0.889028 0.010860
vt 0.971913 0.000802
vt 0.971913 0.010860
vt 0.971913 0.990364
vt 0.932247 1.000000
vt 0.971913 0.999680
vt 0.577726 0.992297
vt 0.556038 0.999014
vt 0.555962 0.992176
vt 0.604578 0.992300
vt 0.635753 0.027092
vt 0.635753 0.992166
vt 0.591602 0.008060
vt 0.552463 0.026746
vt 0.556184 0.008060
vt 0.594583 0.026975
vt 0.525980 0.027500
vt 0.529473 0.992798
vt 0.612734 0.027052
vt 0.863728 0.022558
vt 0.878833 0.022558
vt 0.909879 0.989266
vt 0.911967 0.022558
vt 0.930037 0.989266
vt 0.912701 0.005312
vt 0.881205 0.005312
vt 0.711563 0.959871
vt 0.815991 0.000480
vt 0.768735 0.974909
vt 0.874985 0.010414
vt 0.930538 0.982123
vt 0.914979 0.005312
vt 0.724176 0.000058
vt 0.991319 0.000058
vt 0.613526 0.002913
vt 0.938670 0.002913
vt 0.716919 0.001469
vt 0.998890 0.001469
vt 0.861979 0.015416
vt 0.858010 0.989266
vt 0.940460 0.022558
vt 0.905057 0.999370
vt 0.910187 0.990364
vt 0.943166 0.000802
vt 0.578172 0.999266
vt 0.861979 0.989266
vt 0.939988 0.022558
vt 0.909026 0.999370
s 0
usemtl WoodSupports
f 2/1/1 3/2/1 1/3/1
f 4/4/2 7/5/2 3/6/2
f 8/7/3 5/8/3 7/9/3
f 6/10/4 1/11/4 5/12/4
f 7/5/5 1/13/5 3/6/5
f 4/4/6 6/10/6 8/7/6
f 10/14/1 11/15/1 9/16/1
f 12/17/2 15/18/2 11/15/2
f 16/19/3 13/20/3 15/18/3
f 14/21/4 9/22/4 13/23/4
f 15/18/5 9/24/5 11/15/5
f 12/17/6 14/21/6 16/19/6
f 52/25/7 48/26/7 46/27/7
f 20/28/2 23/29/2 19/30/2
f 46/27/1 45/31/1 47/32/1
f 22/33/4 17/34/4 21/35/4
f 23/29/1 17/34/1 19/30/1
f 20/28/3 22/36/3 24/37/3
f 50/38/3 51/39/3 49/40/3
f 29/41/8 27/42/8 25/43/8
f 48/26/4 49/44/4 45/45/4
f 26/46/9 32/47/9 30/48/9
f 27/49/4 32/47/4 28/50/4
f 30/48/2 25/43/2 26/46/2
f 51/39/2 46/27/2 47/32/2
f 37/51/10 35/52/10 33/53/10
f 53/17/6 43/21/6 41/19/6
f 34/54/11 40/55/11 38/56/11
f 35/57/4 40/55/4 36/58/4
f 38/56/2 33/53/2 34/54/2
f 47/32/12 49/59/12 51/39/12
f 42/18/5 56/24/5 54/15/5
f 43/21/4 56/22/4 44/23/4
f 41/19/3 44/20/3 42/18/3
f 53/17/2 42/18/2 54/15/2
f 55/14/1 54/15/1 56/16/1
f 62/60/13 60/61/13 58/62/13
f 58/62/2 63/63/2 62/60/2
f 61/64/4 60/65/4 64/66/4
f 59/67/3 58/62/3 60/68/3
f 63/63/1 64/69/1 62/60/1
f 57/70/14 61/64/14 63/63/14
f 68/59/15 70/32/15 66/39/15
f 66/39/2 71/27/2 65/25/2
f 68/44/4 69/26/4 72/45/4
f 66/39/3 67/38/3 68/40/3
f 72/31/1 71/27/1 70/32/1
f 69/26/16 65/25/16 71/27/16
f 75/48/2 80/43/2 76/41/2
f 73/47/4 78/49/4 77/50/4
f 73/47/17 79/46/17 75/48/17
f 78/42/18 76/41/18 80/43/18
f 83/56/2 88/53/2 84/51/2
f 81/55/4 86/57/4 85/58/4
f 81/55/19 87/54/19 83/56/19
f 86/52/20 84/51/20 88/53/20
f 91/71/6 93/72/6 89/73/6
f 96/74/5 90/75/5 94/76/5
f 96/74/1 91/71/1 92/77/1
f 92/78/2 89/73/2 90/79/2
f 90/79/3 93/72/3 94/80/3
f 94/80/4 95/81/4 96/82/4
f 98/83/4 99/84/4 97/85/4
f 100/86/1 103/87/1 99/88/1
f 104/89/2 101/90/2 103/91/2
f 102/92/3 97/85/3 101/90/3
f 103/93/5 97/85/5 99/94/5
f 100/86/6 102/92/6 104/95/6
f 106/81/4 107/80/4 105/82/4
f 108/72/1 111/79/1 107/80/1
f 112/73/2 109/78/2 111/79/2
f 110/71/3 105/74/3 109/77/3
f 111/75/5 105/74/5 107/76/5
f 108/72/6 110/71/6 112/73/6
f 115/92/6 117/86/6 113/95/6
f 120/85/5 114/93/5 118/94/5
f 120/85/1 115/92/1 116/90/1
f 116/90/2 113/89/2 114/91/2
f 114/87/3 117/86/3 118/88/3
f 118/84/4 119/83/4 120/85/4
f 122/14/3 123/15/3 121/16/3
f 124/17/4 127/18/4 123/15/4
f 128/19/1 125/20/1 127/18/1
f 126/21/2 121/22/2 125/23/2
f 127/18/5 121/24/5 123/15/5
f 124/17/6 126/21/6 128/19/6
f 130/14/3 131/15/3 129/16/3
f 132/17/4 135/18/4 131/15/4
f 136/19/1 133/20/1 135/18/1
f 134/21/2 129/22/2 133/23/2
f 135/18/5 129/24/5 131/15/5
f 132/17/6 134/21/6 136/19/6
f 140/96/21 142/60/21 138/97/21
f 138/97/2 143/98/2 137/99/2
f 140/65/4 141/100/4 144/66/4
f 138/97/3 139/101/3 140/102/3
f 144/69/1 143/98/1 142/60/1
f 141/100/22 137/99/22 143/98/22
f 2/1/1 4/4/1 3/2/1
f 4/4/2 8/7/2 7/5/2
f 8/7/3 6/10/3 5/8/3
f 6/10/4 2/1/4 1/11/4
f 7/5/5 5/103/5 1/13/5
f 4/4/6 2/1/6 6/10/6
f 10/14/1 12/17/1 11/15/1
f 12/17/2 16/19/2 15/18/2
f 16/19/3 14/104/3 13/20/3
f 14/21/4 10/105/4 9/22/4
f 15/18/5 13/106/5 9/24/5
f 12/17/6 10/105/6 14/21/6
f 52/25/7 50/107/7 48/26/7
f 20/28/2 24/37/2 23/29/2
f 46/27/1 48/108/1 45/31/1
f 22/33/4 18/109/4 17/34/4
f 23/29/1 21/35/1 17/34/1
f 20/28/3 18/110/3 22/36/3
f 50/38/3 52/25/3 51/39/3
f 29/41/8 31/111/8 27/42/8
f 48/26/4 50/107/4 49/44/4
f 26/46/9 28/50/9 32/47/9
f 27/49/4 31/112/4 32/47/4
f 30/48/2 29/41/2 25/43/2
f 51/39/2 52/25/2 46/27/2
f 37/51/10 39/113/10 35/52/10
f 53/17/6 55/105/6 43/21/6
f 34/54/11 36/58/11 40/55/11
f 35/57/4 39/114/4 40/55/4
f 38/56/2 37/51/2 33/53/2
f 47/32/12 45/115/12 49/59/12
f 42/18/5 44/106/5 56/24/5
f 43/21/4 55/105/4 56/22/4
f 41/19/3 43/104/3 44/20/3
f 53/17/2 41/19/2 42/18/2
f 55/14/1 53/17/1 54/15/1
f 62/60/13 64/116/13 60/61/13
f 58/62/2 57/70/2 63/63/2
f 61/64/4 59/117/4 60/65/4
f 59/67/3 57/70/3 58/62/3
f 63/63/1 61/118/1 64/69/1
f 57/70/14 59/117/14 61/64/14
f 68/59/15 72/115/15 70/32/15
f 66/39/2 70/32/2 71/27/2
f 68/44/4 67/107/4 69/26/4
f 66/39/3 65/25/3 67/38/3
f 72/31/1 69/108/1 71/27/1
f 69/26/16 67/107/16 65/25/16
f 75/48/2 79/46/2 80/43/2
f 73/47/4 74/112/4 78/49/4
f 73/47/17 77/50/17 79/46/17
f 78/42/18 74/111/18 76/41/18
f 83/56/2 87/54/2 88/53/2
f 81/55/4 82/114/4 86/57/4
f 81/55/19 85/58/19 87/54/19
f 86/52/20 82/113/20 84/51/20
f 91/71/6 95/119/6 93/72/6
f 96/74/5 92/77/5 90/75/5
f 96/74/1 95/119/1 91/71/1
f 92/78/2 91/120/2 89/73/2
f 90/79/3 89/73/3 93/72/3
f 94/80/4 93/72/4 95/81/4
f 98/83/4 100/121/4 99/84/4
f 100/86/1 104/95/1 103/87/1
f 104/89/2 102/92/2 101/90/2
f 102/92/3 98/83/3 97/85/3
f 103/93/5 101/90/5 97/85/5
f 100/86/6 98/83/6 102/92/6
f 106/81/4 108/72/4 107/80/4
f 108/72/1 112/73/1 111/79/1
f 112/73/2 110/120/2 109/78/2
f 110/71/3 106/119/3 105/74/3
f 111/75/5 109/77/5 105/74/5
f 108/72/6 106/119/6 110/71/6
f 115/92/6 119/83/6 117/86/6
f 120/85/5 116/90/5 114/93/5
f 120/85/1 119/83/1 115/92/1
f 116/90/2 115/92/2 113/89/2
f 114/87/3 113/95/3 117/86/3
f 118/84/4 117/121/4 119/83/4
f 122/14/3 124/17/3 123/15/3
f 124/17/4 128/19/4 127/18/4
f 128/19/1 126/104/1 125/20/1
f 126/21/2 122/105/2 121/22/2
f 127/18/5 125/106/5 121/24/5
f 124/17/6 122/105/6 126/21/6
f 130/14/3 132/17/3 131/15/3
f 132/17/4 136/19/4 135/18/4
f 136/19/1 134/104/1 133/20/1
f 134/21/2 130/105/2 129/22/2
f 135/18/5 133/106/5 129/24/5
f 132/17/6 130/105/6 134/21/6
f 140/96/21 144/122/21 142/60/21
f 138/97/2 142/60/2 143/98/2
f 140/65/4 139/123/4 141/100/4
f 138/97/3 137/99/3 139/101/3
f 144/69/1 141/124/1 143/98/1
f 141/100/22 139/123/22 137/99/22
