# Blender 5.1.0
# www.blender.org
mtllib BridgeBase.mtl
g Bridge_Mesh
v -2.600000 -0.100000 1.000000
v -2.600000 -0.020000 1.000000
v -2.600000 -0.100000 0.000000
v -2.600000 -0.020000 0.000000
v 2.600000 -0.100000 1.000000
v 2.600000 -0.020000 1.000000
v 2.600000 -0.100000 0.000000
v 2.600000 -0.020000 0.000000
v 1.000000 0.020000 1.000000
v 1.000000 -0.300000 0.000000
v 1.000000 -0.300000 1.000000
v 1.000000 0.020000 0.000000
v 0.900000 0.020000 1.000000
v 0.900000 0.020000 0.000000
v 0.900000 -0.300000 0.000000
v 0.900000 -0.300000 1.000000
v -2.400000 0.050000 1.000000
v -2.400000 0.050000 0.000000
v -2.400000 -0.300000 0.000000
v -2.400000 -0.300000 1.000000
v -2.500000 -0.300000 0.000000
v -2.500000 0.050000 1.000000
v -2.500000 0.050000 0.000000
v -2.500000 -0.300000 1.000000
v 2.500000 -0.300000 1.000000
v 2.500000 0.050000 0.000000
v 2.500000 0.050000 1.000000
v 2.500000 -0.300000 0.000000
v 2.400000 -0.300000 1.000000
v 2.400000 -0.300000 0.000000
v 2.400000 0.050000 0.000000
v 2.400000 0.050000 1.000000
v -0.900000 -0.300000 1.000000
v -0.900000 -0.300000 0.000000
v -0.900000 0.020000 0.000000
v -0.900000 0.020000 1.000000
v -1.000000 0.020000 0.000000
v -1.000000 -0.300000 1.000000
v -1.000000 -0.300000 0.000000
v -1.000000 0.020000 1.000000
vn -1.0000 -0.0000 -0.0000
vn -0.0000 1.0000 -0.0000
vn 1.0000 -0.0000 -0.0000
vn -0.0000 -1.0000 -0.0000
vt 0.661612 0.250000
vt 0.621612 0.750000
vt 0.621612 0.250000
vt 0.590000 0.175000
vt 0.540000 0.675000
vt 0.540000 0.175000
vt 0.838125 0.251875
vt 0.798125 0.751875
vt 0.798125 0.251875
vt 0.709375 0.234375
vt 0.759375 0.734375
vt 0.709375 0.734375
vt 0.612237 0.000000
vt 0.851119 1.000000
vt 0.603212 1.000000
vt 0.612637 0.000000
vt 0.851947 1.000000
vt 0.604024 1.000000
vt 0.935265 0.475211
vt 0.768698 0.975211
vt 0.771674 0.475211
vt 0.937968 0.250000
vt 0.771093 0.750000
vt 0.776093 0.250000
vt 0.661612 0.750000
vt 0.590000 0.675000
vt 0.838125 0.751875
vt 0.759375 0.234375
vt 0.860923 -0.000000
vt 0.860062 -0.000000
vt 0.929955 0.975211
vt 0.931093 0.750000
s 0
usemtl WoodSupports
f 2/1/1 3/2/1 1/3/1
f 14/4/2 9/5/2 12/6/2
f 8/7/3 5/8/3 7/9/3
f 11/10/4 15/11/4 10/12/4
f 7/13/4 1/14/4 3/15/4
f 4/16/2 6/17/2 8/18/2
f 15/19/1 13/20/1 14/21/1
f 22/22/1 21/23/1 24/24/1
f 18/19/3 20/20/3 19/21/3
f 11/22/3 12/23/3 9/24/3
f 25/5/4 30/4/4 28/6/4
f 31/11/2 27/10/2 26/12/2
f 29/20/1 31/19/1 30/21/1
f 22/10/2 18/11/2 23/12/2
f 19/4/4 24/5/4 21/6/4
f 28/23/3 27/22/3 25/24/3
f 37/23/1 38/22/1 40/24/1
f 36/20/3 34/19/3 35/21/3
f 34/11/4 38/10/4 39/12/4
f 40/5/2 35/4/2 37/6/2
f 2/1/1 4/25/1 3/2/1
f 14/4/2 13/26/2 9/5/2
f 8/7/3 6/27/3 5/8/3
f 11/10/4 16/28/4 15/11/4
f 7/13/4 5/29/4 1/14/4
f 4/16/2 2/30/2 6/17/2
f 15/19/1 16/31/1 13/20/1
f 22/22/1 23/32/1 21/23/1
f 18/19/3 17/31/3 20/20/3
f 11/22/3 10/32/3 12/23/3
f 25/5/4 29/26/4 30/4/4
f 31/11/2 32/28/2 27/10/2
f 29/20/1 32/31/1 31/19/1
f 22/10/2 17/28/2 18/11/2
f 19/4/4 20/26/4 24/5/4
f 28/23/3 26/32/3 27/22/3
f 37/23/1 39/32/1 38/22/1
f 36/20/3 33/31/3 34/19/3
f 34/11/4 33/28/4 38/10/4
f 40/5/2 36/26/2 35/4/2
