# Blender 4.4.0
# www.blender.org
mtllib Sleeper04.mtl
o Sleeper04
v 1.080000 -0.000000 0.200000
v 1.080000 0.050000 0.200000
v 1.080000 -0.000000 -0.000000
v 1.080000 0.050000 -0.000000
v -1.090000 -0.000000 0.200000
v -1.090000 0.050000 0.200000
v -1.090000 -0.000000 -0.000000
v -1.090000 0.050000 -0.000000
vn 1.0000 -0.0000 -0.0000
vn -0.0000 -0.0000 -1.0000
vn -1.0000 -0.0000 -0.0000
vn -0.0000 -0.0000 1.0000
vn -0.0000 1.0000 -0.0000
vt 0.170367 0.313523
vt 0.204768 0.175918
vt 0.204768 0.313523
vt 0.138249 1.000000
vt 0.115208 -0.000000
vt 0.138249 0.000000
vt 0.170367 0.014051
vt 0.204768 0.151656
vt 0.170367 0.151656
vt 0.115208 1.000000
vt 0.092166 0.000000
vt 0.115207 0.000000
vt 0.000000 1.000000
vt 0.092166 -0.000000
vt 0.092166 1.000000
vt 0.170367 0.175918
vt 0.115208 1.000000
vt 0.204768 0.014051
vt 0.092166 1.000000
vt 0.000000 -0.000000
s 0
usemtl Rail
f 4/1/1 1/2/1 3/3/1
f 7/4/2 4/5/2 3/6/2
f 5/7/3 8/8/3 7/9/3
f 1/10/4 6/11/4 5/12/4
f 6/13/5 4/14/5 8/15/5
f 4/1/1 2/16/1 1/2/1
f 7/4/2 8/17/2 4/5/2
f 5/7/3 6/18/3 8/8/3
f 1/10/4 2/19/4 6/11/4
f 6/13/5 2/20/5 4/14/5
o Nails
v 0.840539 0.076583 0.067031
v 0.813768 0.086878 0.067031
v 0.820698 0.085690 0.071250
v 0.820698 0.085690 0.048750
v 0.813768 0.086878 0.052969
v 0.834559 0.083315 0.071250
v 0.841489 0.082127 0.067031
v 0.841489 0.082127 0.052969
v 0.834559 0.083315 0.048750
v 0.812818 0.081333 0.052969
v 0.819748 0.080146 0.048750
v 0.819748 0.080146 0.071250
v 0.812818 0.081333 0.067031
v 0.833609 0.077771 0.048750
v 0.840539 0.076583 0.052969
v 0.833609 0.077771 0.071250
v 0.824147 0.030883 0.140000
v 0.839153 0.076820 0.132969
v 0.839153 0.076820 0.147031
v 0.825292 0.079196 0.132969
v 0.825292 0.079196 0.147031
v 0.833609 0.077771 0.151250
v 0.840539 0.076583 0.132969
v 0.833609 0.077771 0.128750
v 0.812818 0.081333 0.147031
v 0.819748 0.080146 0.151250
v 0.819748 0.080146 0.128750
v 0.812818 0.081333 0.132969
v 0.834559 0.083315 0.128750
v 0.841489 0.082127 0.132969
v 0.841489 0.082127 0.147031
v 0.834559 0.083315 0.151250
v 0.813768 0.086878 0.132969
v 0.820698 0.085690 0.128750
v 0.820698 0.085690 0.151250
v 0.813768 0.086878 0.147031
v 0.840539 0.076583 0.147031
v 0.900000 0.050000 0.040000
v 0.830000 0.070000 0.040000
v 0.840000 0.060000 0.040000
v 0.900000 0.053000 0.040000
v 0.822000 0.070000 0.040000
v 0.819000 0.067000 0.040000
v 0.840000 0.060000 0.160000
v 0.830000 0.070000 0.160000
v 0.600000 0.050000 0.040000
v 0.670000 0.070000 0.040000
v 0.660000 0.060000 0.040000
v 0.600000 0.053000 0.040000
v 0.678000 0.070000 0.040000
v 0.681000 0.067000 0.040000
v 0.819000 0.067000 0.160000
v 0.822000 0.070000 0.160000
v 0.900000 0.053000 0.160000
v 0.900000 0.050000 0.160000
v 0.678000 0.070000 0.160000
v 0.681000 0.067000 0.160000
v 0.670000 0.070000 0.160000
v 0.660000 0.060000 0.160000
v 0.600000 0.053000 0.160000
v 0.600000 0.050000 0.160000
v 0.825292 0.079196 0.067031
v 0.825292 0.079196 0.052969
v 0.839153 0.076820 0.067031
v 0.839153 0.076820 0.052969
v 0.824147 0.030883 0.060000
v 0.659461 0.076583 0.067031
v 0.686232 0.086878 0.067031
v 0.679302 0.085690 0.071250
v 0.679302 0.085690 0.048750
v 0.686232 0.086878 0.052969
v 0.665441 0.083315 0.071250
v 0.658511 0.082127 0.067031
v 0.658511 0.082127 0.052969
v 0.665441 0.083315 0.048750
v 0.687182 0.081333 0.052969
v 0.680252 0.080146 0.048750
v 0.680252 0.080146 0.071250
v 0.687182 0.081333 0.067031
v 0.666391 0.077771 0.048750
v 0.659461 0.076583 0.052969
v 0.666391 0.077771 0.071250
v 0.675853 0.030883 0.140000
v 0.660847 0.076820 0.132969
v 0.660847 0.076820 0.147031
v 0.674708 0.079196 0.132969
v 0.674708 0.079196 0.147031
v 0.666391 0.077771 0.151250
v 0.659461 0.076583 0.132969
v 0.666391 0.077771 0.128750
v 0.687182 0.081333 0.147031
v 0.680252 0.080146 0.151250
v 0.680252 0.080146 0.128750
v 0.687182 0.081333 0.132969
v 0.665441 0.083315 0.128750
v 0.658511 0.082127 0.132969
v 0.658511 0.082127 0.147031
v 0.665441 0.083315 0.151250
v 0.686232 0.086878 0.132969
v 0.679302 0.085690 0.128750
v 0.679302 0.085690 0.151250
v 0.686232 0.086878 0.147031
v 0.659461 0.076583 0.147031
v 0.674708 0.079196 0.067031
v 0.674708 0.079196 0.052969
v 0.660847 0.076820 0.067031
v 0.660847 0.076820 0.052969
v 0.675853 0.030883 0.060000
v -0.840539 0.076583 0.067031
v -0.813768 0.086878 0.067031
v -0.820698 0.085690 0.071250
v -0.820698 0.085690 0.048750
v -0.813768 0.086878 0.052969
v -0.834559 0.083315 0.071250
v -0.841489 0.082127 0.067031
v -0.841489 0.082127 0.052969
v -0.834559 0.083315 0.048750
v -0.812818 0.081333 0.052969
v -0.819748 0.080146 0.048750
v -0.819748 0.080146 0.071250
v -0.812818 0.081333 0.067031
v -0.833609 0.077771 0.048750
v -0.840539 0.076583 0.052969
v -0.833609 0.077771 0.071250
v -0.824147 0.030883 0.140000
v -0.839153 0.076820 0.132969
v -0.839153 0.076820 0.147031
v -0.825292 0.079196 0.132969
v -0.825292 0.079196 0.147031
v -0.833609 0.077771 0.151250
v -0.840539 0.076583 0.132969
v -0.833609 0.077771 0.128750
v -0.812818 0.081333 0.147031
v -0.819748 0.080146 0.151250
v -0.819748 0.080146 0.128750
v -0.812818 0.081333 0.132969
v -0.834559 0.083315 0.128750
v -0.841489 0.082127 0.132969
v -0.841489 0.082127 0.147031
v -0.834559 0.083315 0.151250
v -0.813768 0.086878 0.132969
v -0.820698 0.085690 0.128750
v -0.820698 0.085690 0.151250
v -0.813768 0.086878 0.147031
v -0.840539 0.076583 0.147031
v -0.900000 0.050000 0.040000
v -0.830000 0.070000 0.040000
v -0.840000 0.060000 0.040000
v -0.900000 0.053000 0.040000
v -0.822000 0.070000 0.040000
v -0.819000 0.067000 0.040000
v -0.840000 0.060000 0.160000
v -0.830000 0.070000 0.160000
v -0.600000 0.050000 0.040000
v -0.670000 0.070000 0.040000
v -0.660000 0.060000 0.040000
v -0.600000 0.053000 0.040000
v -0.678000 0.070000 0.040000
v -0.681000 0.067000 0.040000
v -0.819000 0.067000 0.160000
v -0.822000 0.070000 0.160000
v -0.900000 0.053000 0.160000
v -0.900000 0.050000 0.160000
v -0.678000 0.070000 0.160000
v -0.681000 0.067000 0.160000
v -0.670000 0.070000 0.160000
v -0.660000 0.060000 0.160000
v -0.600000 0.053000 0.160000
v -0.600000 0.050000 0.160000
v -0.825292 0.079196 0.067031
v -0.825292 0.079196 0.052969
v -0.839153 0.076820 0.067031
v -0.839153 0.076820 0.052969
v -0.824147 0.030883 0.060000
v -0.659461 0.076583 0.067031
v -0.686232 0.086878 0.067031
v -0.679302 0.085690 0.071250
v -0.679302 0.085690 0.048750
v -0.686232 0.086878 0.052969
v -0.665441 0.083315 0.071250
v -0.658511 0.082127 0.067031
v -0.658511 0.082127 0.052969
v -0.665441 0.083315 0.048750
v -0.687182 0.081333 0.052969
v -0.680252 0.080146 0.048750
v -0.680252 0.080146 0.071250
v -0.687182 0.081333 0.067031
v -0.666391 0.077771 0.048750
v -0.659461 0.076583 0.052969
v -0.666391 0.077771 0.071250
v -0.675853 0.030883 0.140000
v -0.660847 0.076820 0.132969
v -0.660847 0.076820 0.147031
v -0.674708 0.079196 0.132969
v -0.674708 0.079196 0.147031
v -0.666391 0.077771 0.151250
v -0.659461 0.076583 0.132969
v -0.666391 0.077771 0.128750
v -0.687182 0.081333 0.147031
v -0.680252 0.080146 0.151250
v -0.680252 0.080146 0.128750
v -0.687182 0.081333 0.132969
v -0.665441 0.083315 0.128750
v -0.658511 0.082127 0.132969
v -0.658511 0.082127 0.147031
v -0.665441 0.083315 0.151250
v -0.686232 0.086878 0.132969
v -0.679302 0.085690 0.128750
v -0.679302 0.085690 0.151250
v -0.686232 0.086878 0.147031
v -0.659461 0.076583 0.147031
v -0.674708 0.079196 0.067031
v -0.674708 0.079196 0.052969
v -0.660847 0.076820 0.067031
v -0.660847 0.076820 0.052969
v -0.675853 0.030883 0.060000
vn 0.1689 0.9856 -0.0000
vn 0.9856 -0.1689 -0.0000
vn -0.9856 0.1689 -0.0000
vn -0.0000 -0.0000 -1.0000
vn -0.1689 -0.9856 -0.0000
vn -0.5071 0.0869 0.8575
vn -0.5071 0.0869 -0.8575
vn 0.5071 -0.0869 -0.8575
vn 0.5071 -0.0869 0.8575
vn -0.0000 -0.0000 1.0000
vn -0.0003 -0.0020 -1.0000
vn -0.0006 -0.0020 -1.0000
vn -0.0004 -0.0020 1.0000
vn -0.0001 -0.0021 1.0000
vn -0.9860 0.1669 -0.0000
vn -0.9860 0.1669 0.0002
vn 0.9853 -0.1709 -0.0000
vn 0.9853 -0.1709 -0.0002
vn 0.7071 0.7071 -0.0000
vn 0.9473 0.3204 -0.0006
vn 0.3827 0.9239 -0.0000
vn 0.4357 0.9001 -0.0000
vn -0.3827 0.9239 -0.0000
vn -0.0000 1.0000 -0.0000
vn 0.1159 0.9933 -0.0000
vn -0.4357 0.9001 -0.0000
vn 1.0000 -0.0000 -0.0000
vn -0.1159 0.9933 -0.0000
vn -1.0000 -0.0000 -0.0000
vn -0.9536 0.3011 -0.0000
vn -0.7071 0.7071 -0.0000
vn -0.9562 0.2928 -0.0000
vn -0.1689 0.9856 -0.0000
vn -0.9856 -0.1689 -0.0000
vn 0.9856 0.1689 -0.0000
vn 0.1689 -0.9856 -0.0000
vn 0.5071 0.0869 0.8575
vn 0.5071 0.0869 -0.8575
vn -0.5071 -0.0869 -0.8575
vn -0.5071 -0.0869 0.8575
vn 0.1677 -0.1381 -0.9761
vn 0.0001 -0.0021 -1.0000
vn -0.1122 -0.1860 -0.9761
vn -0.1122 -0.1861 0.9761
vn 0.0006 -0.0020 1.0000
vn 0.1677 -0.1381 0.9761
vn 0.9899 0.0028 0.1420
vn 0.9860 0.1669 -0.0002
vn 0.9899 0.0028 -0.1420
vn -0.9343 -0.3269 -0.1420
vn -0.9853 -0.1709 0.0002
vn -0.9343 -0.3269 0.1420
vn 0.9591 0.2831 -0.0000
vn 0.0003 -0.0021 -1.0000
vn 0.0006 -0.0020 -1.0000
vn 0.0004 -0.0021 1.0000
vn 0.0001 -0.0021 1.0000
vn 0.9860 0.1668 -0.0000
vn 0.9860 0.1668 0.0002
vn -0.9853 -0.1710 -0.0000
vn -0.9853 -0.1710 -0.0002
vn -0.9473 0.3204 -0.0006
vn 0.9536 0.3011 -0.0000
vn 0.9562 0.2928 -0.0000
vn -0.1677 -0.1381 -0.9761
vn 0.1121 -0.1860 -0.9761
vn -0.0001 -0.0021 -1.0000
vn 0.1121 -0.1860 0.9761
vn -0.1677 -0.1381 0.9761
vn -0.0006 -0.0020 1.0000
vn -0.9899 0.0028 0.1419
vn -0.9899 0.0028 -0.1419
vn -0.9860 0.1668 -0.0002
vn 0.9343 -0.3269 -0.1419
vn 0.9343 -0.3269 0.1419
vn 0.9853 -0.1710 0.0002
vn -0.9591 0.2831 -0.0002
vt 0.481268 0.975818
vt 0.471622 0.991894
vt 0.429824 0.975818
vt 0.197676 0.868849
vt 0.184815 0.901001
vt 0.184815 0.868849
vt 0.197676 0.767050
vt 0.184814 0.799202
vt 0.184815 0.767050
vt 0.197675 0.817950
vt 0.184815 0.850101
vt 0.184814 0.817950
vt 0.481268 0.862496
vt 0.481268 0.894648
vt 0.429824 0.862496
vt 0.184815 0.951901
vt 0.197676 0.970648
vt 0.184815 0.970648
vt 0.197675 0.799202
vt 0.197676 0.850101
vt 0.197676 0.919749
vt 0.197676 0.901001
vt 0.184815 0.919749
vt 0.197676 0.951900
vt 0.346098 0.737289
vt 0.375277 0.750793
vt 0.314281 0.844316
vt 0.399398 0.772051
vt 0.416461 0.799302
vt 0.314281 0.733841
vt 0.220066 0.920083
vt 0.232927 0.952235
vt 0.220066 0.952235
vt 0.232927 0.920083
vt 0.220066 0.901336
vt 0.232927 0.901335
vt 0.220066 0.869184
vt 0.232927 0.850436
vt 0.232927 0.869184
vt 0.220065 0.818284
vt 0.232926 0.799536
vt 0.232926 0.818284
vt 0.232927 0.970982
vt 0.220066 0.970983
vt 0.480802 0.699130
vt 0.480802 0.731282
vt 0.429359 0.699130
vt 0.220066 0.850436
vt 0.232927 0.767384
vt 0.220065 0.799536
vt 0.220066 0.767384
vt 0.480802 0.812452
vt 0.471156 0.828528
vt 0.429359 0.812452
vt 0.251131 0.666737
vt 0.237418 0.337630
vt 0.251131 0.419906
vt 0.200652 0.666737
vt 0.200652 0.419906
vt 0.210251 0.448703
vt 0.470250 0.656685
vt 0.305696 0.662503
vt 0.305696 0.656685
vt 0.470250 0.393549
vt 0.305696 0.412942
vt 0.305696 0.393549
vt 0.470250 0.645715
vt 0.305696 0.645715
vt 0.470250 0.412942
vt 0.305696 0.495777
vt 0.470250 0.626322
vt 0.305696 0.626322
vt 0.470250 0.495777
vt 0.305696 0.499890
vt 0.470250 0.543487
vt 0.305696 0.543487
vt 0.470250 0.539374
vt 0.305696 0.539374
vt 0.470250 0.376761
vt 0.305696 0.382579
vt 0.305696 0.376761
vt 0.470250 0.382579
vt 0.371774 0.880427
vt 0.395895 0.901685
vt 0.310778 0.973950
vt 0.310778 0.862294
vt 0.342595 0.866923
vt 0.412958 0.928936
vt 0.429037 0.294807
vt 0.429037 0.326959
vt 0.480480 0.294807
vt 0.233756 0.148752
vt 0.246616 0.116600
vt 0.233756 0.116600
vt 0.233755 0.046952
vt 0.246617 0.014800
vt 0.233756 0.014800
vt 0.233756 0.097852
vt 0.246616 0.065700
vt 0.233755 0.065700
vt 0.429037 0.245789
vt 0.438683 0.261865
vt 0.480480 0.245789
vt 0.233756 0.199651
vt 0.246616 0.218398
vt 0.246616 0.199651
vt 0.246616 0.046952
vt 0.246616 0.097852
vt 0.246616 0.167499
vt 0.233756 0.167499
vt 0.345432 0.080283
vt 0.313616 0.187310
vt 0.374611 0.093787
vt 0.398732 0.115046
vt 0.415796 0.142297
vt 0.313616 0.075654
vt 0.269007 0.167834
vt 0.281867 0.199985
vt 0.281867 0.167834
vt 0.269007 0.149086
vt 0.281867 0.098186
vt 0.269007 0.116934
vt 0.281867 0.116934
vt 0.281867 0.047287
vt 0.269006 0.066034
vt 0.281867 0.066035
vt 0.269007 0.199985
vt 0.281867 0.218733
vt 0.428571 0.082422
vt 0.438217 0.098499
vt 0.480015 0.082423
vt 0.269007 0.098186
vt 0.269006 0.047286
vt 0.281868 0.015135
vt 0.269007 0.015135
vt 0.428571 0.131441
vt 0.428571 0.163593
vt 0.480015 0.131441
vt 0.371108 0.223421
vt 0.310113 0.316944
vt 0.395229 0.244680
vt 0.310113 0.205288
vt 0.341930 0.209918
vt 0.412293 0.271931
vt 0.439470 0.991894
vt 0.429824 0.943667
vt 0.481268 0.943667
vt 0.439470 0.927590
vt 0.471622 0.927590
vt 0.471622 0.910724
vt 0.439470 0.910724
vt 0.429824 0.894648
vt 0.439470 0.846420
vt 0.471622 0.846420
vt 0.471156 0.747358
vt 0.439004 0.747358
vt 0.429359 0.731282
vt 0.439004 0.683054
vt 0.471156 0.683054
vt 0.439004 0.828528
vt 0.429359 0.780300
vt 0.480802 0.780300
vt 0.439004 0.764224
vt 0.471156 0.764224
vt 0.264843 0.433619
vt 0.264843 0.444589
vt 0.260730 0.448703
vt 0.260730 0.637940
vt 0.264844 0.642054
vt 0.264844 0.653024
vt 0.241532 0.337630
vt 0.241532 0.749013
vt 0.237418 0.749013
vt 0.210251 0.637940
vt 0.214365 0.642054
vt 0.214365 0.653024
vt 0.191053 0.749013
vt 0.186940 0.749013
vt 0.214365 0.433619
vt 0.214365 0.444589
vt 0.186939 0.337630
vt 0.191053 0.337630
vt 0.470250 0.662503
vt 0.470250 0.499890
vt 0.438683 0.343035
vt 0.470835 0.343035
vt 0.480480 0.326959
vt 0.470835 0.278731
vt 0.438683 0.278731
vt 0.246616 0.148751
vt 0.470835 0.261865
vt 0.480480 0.213637
vt 0.429037 0.213637
vt 0.470835 0.197561
vt 0.438683 0.197561
vt 0.233756 0.218399
vt 0.281867 0.149086
vt 0.269007 0.218733
vt 0.470369 0.098499
vt 0.480015 0.050271
vt 0.428571 0.050271
vt 0.470369 0.034195
vt 0.438217 0.034195
vt 0.438217 0.179669
vt 0.470369 0.179669
vt 0.480015 0.163593
vt 0.470369 0.115365
vt 0.438217 0.115365
s 0
usemtl Rail
f 14/21/6 15/22/6 17/23/6
f 16/24/7 9/25/7 23/26/7
f 10/27/8 18/28/8 21/29/8
f 12/30/9 22/31/9 19/32/9
f 24/33/10 20/34/10 22/35/10
f 20/36/11 10/37/11 21/38/11
f 19/32/12 13/39/12 12/30/12
f 23/26/13 17/40/13 16/24/13
f 14/41/14 9/25/14 15/42/14
f 24/43/15 11/44/15 20/36/15
f 28/45/16 26/46/16 25/47/17
f 27/48/18 29/49/18 25/47/19
f 29/50/20 28/45/20 25/47/21
f 26/46/22 27/48/22 25/47/23
f 30/51/15 43/52/15 34/53/15
f 40/54/14 45/55/14 39/56/14
f 31/57/13 37/58/13 38/59/13
f 35/60/12 41/61/12 42/62/12
f 34/53/11 44/63/11 33/64/11
f 30/65/10 34/66/10 32/67/10
f 42/62/9 32/68/9 35/60/9
f 44/69/8 36/70/8 33/71/8
f 38/59/7 45/55/7 31/57/7
f 40/72/6 39/73/6 37/74/6
s 1
f 67/75/15 63/76/15 52/77/15
f 48/78/9 56/79/9 59/80/9
f 64/81/24 59/82/25 58/83/24
f 53/84/26 48/85/27 47/86/26
f 66/87/28 58/83/29 55/88/28
f 52/89/27 49/90/30 48/85/27
f 67/91/31 55/88/28 56/92/31
f 62/93/32 46/94/32 49/90/32
f 68/95/33 56/92/31 57/96/33
f 69/97/34 57/96/34 54/98/34
f 60/99/35 50/100/36 51/101/37
f 61/102/29 47/86/26 50/100/29
s 0
f 73/103/22 72/104/22 74/105/23
f 70/106/20 71/107/20 74/105/21
f 72/104/18 70/108/18 74/105/19
f 71/107/16 73/103/16 74/105/17
f 78/109/38 83/110/38 77/111/38
f 75/112/39 82/113/39 89/114/39
f 84/115/40 76/116/40 87/117/40
f 88/118/9 78/119/9 85/120/9
f 85/121/41 84/122/41 86/123/41
f 86/124/42 76/125/42 77/126/42
f 79/127/43 85/120/43 78/119/43
f 83/128/44 89/114/44 82/113/44
f 80/129/45 75/112/45 90/130/45
f 90/130/15 77/126/15 80/129/15
f 94/131/46 91/132/47 92/133/48
f 93/134/49 91/132/50 95/135/51
f 95/136/52 91/132/53 94/131/54
f 92/133/55 91/132/56 93/134/57
f 96/137/15 109/138/15 106/139/15
f 106/139/45 111/140/45 96/137/45
f 103/141/44 97/142/44 104/143/44
f 107/144/43 101/145/43 108/146/43
f 100/147/42 110/148/42 109/138/42
f 101/149/41 102/150/41 100/151/41
f 98/152/9 108/146/9 101/145/9
f 102/153/40 110/154/40 99/155/40
f 111/140/39 104/143/39 97/142/39
f 108/156/38 103/157/38 109/158/38
f 115/159/55 116/160/56 114/161/57
f 112/162/52 116/160/53 113/163/54
f 114/161/49 116/160/50 112/164/51
f 113/163/46 116/160/47 115/159/48
f 15/22/6 16/165/6 17/23/6
f 17/23/6 12/166/6 11/167/6
f 12/166/6 13/168/6 11/167/6
f 13/168/6 10/169/6 11/167/6
f 11/167/6 14/21/6 17/23/6
f 16/24/7 15/42/7 9/25/7
f 10/27/8 13/39/8 18/28/8
f 12/30/9 17/40/9 22/31/9
f 20/34/10 21/170/10 18/171/10
f 18/171/10 19/172/10 20/34/10
f 19/172/10 22/35/10 20/34/10
f 22/35/10 23/173/10 9/174/10
f 9/174/10 24/33/10 22/35/10
f 20/36/11 11/44/11 10/37/11
f 19/32/12 18/28/12 13/39/12
f 23/26/13 22/31/13 17/40/13
f 14/41/14 24/43/14 9/25/14
f 24/43/15 14/41/15 11/44/15
f 30/51/15 40/54/15 43/52/15
f 40/54/14 30/51/14 45/55/14
f 31/57/13 32/68/13 37/58/13
f 35/60/12 36/70/12 41/61/12
f 34/53/11 43/52/11 44/63/11
f 34/66/10 33/175/10 36/176/10
f 36/176/10 35/177/10 34/66/10
f 35/177/10 32/67/10 34/66/10
f 32/67/10 31/178/10 45/179/10
f 45/179/10 30/65/10 32/67/10
f 42/62/9 37/58/9 32/68/9
f 44/69/8 41/61/8 36/70/8
f 38/59/7 39/56/7 45/55/7
f 39/73/6 38/180/6 37/74/6
f 37/74/6 42/181/6 43/182/6
f 42/181/6 41/183/6 43/182/6
f 41/183/6 44/184/6 43/182/6
f 43/182/6 40/72/6 37/74/6
s 1
f 53/185/15 61/186/15 60/187/15
f 65/188/15 64/189/15 66/190/15
f 52/77/15 53/185/15 60/187/15
f 65/188/15 66/190/15 67/75/15
f 52/77/15 60/187/15 65/188/15
f 63/76/15 62/191/15 52/77/15
f 68/192/15 69/193/15 67/75/15
f 69/193/15 63/76/15 67/75/15
f 52/77/15 65/188/15 67/75/15
f 51/194/9 50/195/9 47/196/9
f 48/78/9 49/197/9 46/198/9
f 51/194/9 47/196/9 48/78/9
f 55/199/9 58/200/9 59/80/9
f 59/80/9 51/194/9 48/78/9
f 48/78/9 46/198/9 54/201/9
f 54/201/9 57/202/9 56/79/9
f 56/79/9 55/199/9 59/80/9
f 48/78/9 54/201/9 56/79/9
f 64/81/24 65/203/58 59/82/25
f 53/84/26 52/89/27 48/85/27
f 66/87/28 64/81/29 58/83/29
f 52/89/27 62/93/30 49/90/30
f 67/91/31 66/87/28 55/88/28
f 62/93/32 63/204/32 46/94/32
f 68/95/33 67/91/31 56/92/31
f 69/97/34 68/95/34 57/96/34
f 60/99/35 61/102/36 50/100/36
f 61/102/29 53/84/26 47/86/26
s 0
f 83/110/38 82/205/38 81/206/38
f 81/206/38 80/207/38 83/110/38
f 80/207/38 77/111/38 83/110/38
f 77/111/38 76/208/38 79/209/38
f 79/209/38 78/109/38 77/111/38
f 75/112/39 81/210/39 82/113/39
f 84/115/40 79/127/40 76/116/40
f 88/118/9 83/128/9 78/119/9
f 84/122/41 87/211/41 86/123/41
f 86/123/41 90/212/41 88/213/41
f 90/212/41 75/214/41 88/213/41
f 75/214/41 89/215/41 88/213/41
f 88/213/41 85/121/41 86/123/41
f 86/124/42 87/216/42 76/125/42
f 79/127/43 84/115/43 85/120/43
f 83/128/44 88/118/44 89/114/44
f 80/129/45 81/210/45 75/112/45
f 90/130/15 86/124/15 77/126/15
f 96/137/15 100/147/15 109/138/15
f 106/139/45 105/217/45 111/140/45
f 103/141/44 98/152/44 97/142/44
f 107/144/43 102/153/43 101/145/43
f 100/147/42 99/218/42 110/148/42
f 102/150/41 99/219/41 100/151/41
f 100/151/41 96/220/41 98/221/41
f 96/220/41 111/222/41 98/221/41
f 111/222/41 97/223/41 98/221/41
f 98/221/41 101/149/41 100/151/41
f 98/152/9 103/141/9 108/146/9
f 102/153/40 107/144/40 110/154/40
f 111/140/39 105/217/39 104/143/39
f 103/157/38 104/224/38 105/225/38
f 105/225/38 106/226/38 103/157/38
f 106/226/38 109/158/38 103/157/38
f 109/158/38 110/227/38 107/228/38
f 107/228/38 108/156/38 109/158/38
f 122/21/38 125/23/38 123/22/38
f 124/24/39 131/26/39 117/25/39
f 118/27/40 129/29/40 126/28/40
f 120/30/9 127/32/9 130/31/9
f 132/33/41 130/35/41 128/34/41
f 128/36/42 129/38/42 118/37/42
f 127/32/43 120/30/43 121/39/43
f 131/26/44 124/24/44 125/40/44
f 122/41/45 123/42/45 117/25/45
f 132/43/15 128/36/15 119/44/15
f 136/45/59 133/47/60 134/46/59
f 135/48/61 133/47/62 137/49/61
f 137/50/63 133/47/64 136/45/63
f 134/46/65 133/47/66 135/48/65
f 138/51/15 142/53/15 151/52/15
f 148/54/45 147/56/45 153/55/45
f 139/57/44 146/59/44 145/58/44
f 143/60/43 150/62/43 149/61/43
f 142/53/42 141/64/42 152/63/42
f 138/65/41 140/67/41 142/66/41
f 150/62/9 143/60/9 140/68/9
f 152/69/40 141/71/40 144/70/40
f 146/59/39 139/57/39 153/55/39
f 148/72/38 145/74/38 147/73/38
s 1
f 175/75/15 160/77/15 171/76/15
f 156/78/9 167/80/9 164/79/9
f 172/81/36 166/83/36 167/82/67
f 161/84/28 155/86/28 156/85/31
f 174/87/26 163/88/26 166/83/29
f 160/89/31 156/85/31 157/90/33
f 175/91/27 164/92/27 163/88/26
f 170/93/34 157/90/34 154/94/34
f 176/95/30 165/96/30 164/92/27
f 177/97/32 162/98/32 165/96/32
f 168/99/68 159/101/69 158/100/24
f 169/102/29 158/100/29 155/86/28
s 0
f 181/103/65 182/105/66 180/104/65
f 178/106/63 182/105/64 179/107/63
f 180/104/61 182/105/62 178/108/61
f 179/107/59 182/105/60 181/103/59
f 186/109/6 185/111/6 191/110/6
f 183/112/7 197/114/7 190/113/7
f 192/115/8 195/117/8 184/116/8
f 196/118/9 193/120/9 186/119/9
f 193/121/10 194/123/10 192/122/10
f 194/124/11 185/126/11 184/125/11
f 187/127/12 186/119/12 193/120/12
f 191/128/13 190/113/13 197/114/13
f 188/129/14 198/130/14 183/112/14
f 198/130/15 188/129/15 185/126/15
f 202/131/70 200/133/71 199/132/72
f 201/134/73 203/135/74 199/132/75
f 203/136/76 202/131/77 199/132/78
f 200/133/79 201/134/80 199/132/81
f 204/137/15 214/139/15 217/138/15
f 214/139/14 204/137/14 219/140/14
f 211/141/13 212/143/13 205/142/13
f 215/144/12 216/146/12 209/145/12
f 208/147/11 217/138/11 218/148/11
f 209/149/10 208/151/10 210/150/10
f 206/152/9 209/145/9 216/146/9
f 210/153/8 207/155/8 218/154/8
f 219/140/7 205/142/7 212/143/7
f 216/156/6 217/158/6 211/157/6
f 223/159/79 222/161/80 224/160/81
f 220/162/76 221/163/77 224/160/78
f 222/161/73 220/164/74 224/160/75
f 221/163/70 223/159/71 224/160/72
f 123/22/38 125/23/38 124/165/38
f 125/23/38 119/167/38 120/166/38
f 120/166/38 119/167/38 121/168/38
f 121/168/38 119/167/38 118/169/38
f 119/167/38 125/23/38 122/21/38
f 124/24/39 117/25/39 123/42/39
f 118/27/40 126/28/40 121/39/40
f 120/30/9 130/31/9 125/40/9
f 128/34/41 126/171/41 129/170/41
f 126/171/41 128/34/41 127/172/41
f 127/172/41 128/34/41 130/35/41
f 130/35/41 117/174/41 131/173/41
f 117/174/41 130/35/41 132/33/41
f 128/36/42 118/37/42 119/44/42
f 127/32/43 121/39/43 126/28/43
f 131/26/44 125/40/44 130/31/44
f 122/41/45 117/25/45 132/43/45
f 132/43/15 119/44/15 122/41/15
f 138/51/15 151/52/15 148/54/15
f 148/54/45 153/55/45 138/51/45
f 139/57/44 145/58/44 140/68/44
f 143/60/43 149/61/43 144/70/43
f 142/53/42 152/63/42 151/52/42
f 142/66/41 144/176/41 141/175/41
f 144/176/41 142/66/41 143/177/41
f 143/177/41 142/66/41 140/67/41
f 140/67/41 153/179/41 139/178/41
f 153/179/41 140/67/41 138/65/41
f 150/62/9 140/68/9 145/58/9
f 152/69/40 144/70/40 149/61/40
f 146/59/39 153/55/39 147/56/39
f 147/73/38 145/74/38 146/180/38
f 145/74/38 151/182/38 150/181/38
f 150/181/38 151/182/38 149/183/38
f 149/183/38 151/182/38 152/184/38
f 151/182/38 145/74/38 148/72/38
s 1
f 161/185/15 168/187/15 169/186/15
f 173/188/15 174/190/15 172/189/15
f 160/77/15 168/187/15 161/185/15
f 173/188/15 175/75/15 174/190/15
f 160/77/15 173/188/15 168/187/15
f 171/76/15 160/77/15 170/191/15
f 176/192/15 175/75/15 177/193/15
f 177/193/15 175/75/15 171/76/15
f 160/77/15 175/75/15 173/188/15
f 159/194/9 155/196/9 158/195/9
f 156/78/9 154/198/9 157/197/9
f 159/194/9 156/78/9 155/196/9
f 163/199/9 167/80/9 166/200/9
f 167/80/9 156/78/9 159/194/9
f 156/78/9 162/201/9 154/198/9
f 162/201/9 164/79/9 165/202/9
f 164/79/9 167/80/9 163/199/9
f 156/78/9 164/79/9 162/201/9
f 172/81/36 167/82/67 173/203/82
f 161/84/28 156/85/31 160/89/31
f 174/87/26 166/83/29 172/81/29
f 160/89/31 157/90/33 170/93/33
f 175/91/27 163/88/26 174/87/26
f 170/93/34 154/94/34 171/204/34
f 176/95/30 164/92/27 175/91/27
f 177/97/32 165/96/32 176/95/32
f 168/99/68 158/100/24 169/102/24
f 169/102/29 155/86/28 161/84/28
s 0
f 191/110/6 189/206/6 190/205/6
f 189/206/6 191/110/6 188/207/6
f 188/207/6 191/110/6 185/111/6
f 185/111/6 187/209/6 184/208/6
f 187/209/6 185/111/6 186/109/6
f 183/112/7 190/113/7 189/210/7
f 192/115/8 184/116/8 187/127/8
f 196/118/9 186/119/9 191/128/9
f 192/122/10 194/123/10 195/211/10
f 194/123/10 196/213/10 198/212/10
f 198/212/10 196/213/10 183/214/10
f 183/214/10 196/213/10 197/215/10
f 196/213/10 194/123/10 193/121/10
f 194/124/11 184/125/11 195/216/11
f 187/127/12 193/120/12 192/115/12
f 191/128/13 197/114/13 196/118/13
f 188/129/14 183/112/14 189/210/14
f 198/130/15 185/126/15 194/124/15
f 204/137/15 217/138/15 208/147/15
f 214/139/14 219/140/14 213/217/14
f 211/141/13 205/142/13 206/152/13
f 215/144/12 209/145/12 210/153/12
f 208/147/11 218/148/11 207/218/11
f 210/150/10 208/151/10 207/219/10
f 208/151/10 206/221/10 204/220/10
f 204/220/10 206/221/10 219/222/10
f 219/222/10 206/221/10 205/223/10
f 206/221/10 208/151/10 209/149/10
f 206/152/9 216/146/9 211/141/9
f 210/153/8 218/154/8 215/144/8
f 219/140/7 212/143/7 213/217/7
f 211/157/6 213/225/6 212/224/6
f 213/225/6 211/157/6 214/226/6
f 214/226/6 211/157/6 217/158/6
f 217/158/6 215/228/6 218/227/6
f 215/228/6 217/158/6 216/156/6
