# Blender 4.3.0
# www.blender.org
mtllib Sleeper03.mtl
g Sleeper03_Cube.020
v 1.080000 -0.000000 0.200000
v 1.080000 0.050000 0.200000
v 1.080000 -0.000000 -0.000000
v 1.080000 0.050000 -0.000000
v -1.090000 -0.000000 0.200000
v -1.090000 0.050000 0.200000
v -1.090000 -0.000000 -0.000000
v -1.090000 0.050000 -0.000000
v 0.825292 0.079196 0.147031
v 0.825292 0.079196 0.132969
v 0.839153 0.076820 0.147031
v 0.839153 0.076820 0.132969
v 0.824147 0.030883 0.140000
v 0.813768 0.086878 0.147031
v 0.820698 0.085690 0.151250
v 0.820698 0.085690 0.128750
v 0.813768 0.086878 0.132969
v 0.834559 0.083315 0.151250
v 0.841489 0.082127 0.147031
v 0.841489 0.082127 0.132969
v 0.834559 0.083315 0.128750
v 0.812818 0.081333 0.132969
v 0.819748 0.080146 0.128750
v 0.819748 0.080146 0.151250
v 0.812818 0.081333 0.147031
v 0.833609 0.077771 0.128750
v 0.840539 0.076583 0.132969
v 0.840539 0.076583 0.147031
v 0.833609 0.077771 0.151250
v 0.900000 0.050000 0.040000
v 0.830000 0.070000 0.040000
v 0.840000 0.060000 0.040000
v 0.900000 0.053000 0.040000
v 0.822000 0.070000 0.040000
v 0.819000 0.067000 0.040000
v 0.840000 0.060000 0.160000
v 0.830000 0.070000 0.160000
v 0.600000 0.050000 0.040000
v 0.670000 0.070000 0.040000
v 0.660000 0.060000 0.040000
v 0.600000 0.053000 0.040000
v 0.678000 0.070000 0.040000
v 0.681000 0.067000 0.040000
v 0.819000 0.067000 0.160000
v 0.822000 0.070000 0.160000
v 0.900000 0.053000 0.160000
v 0.900000 0.050000 0.160000
v 0.678000 0.070000 0.160000
v 0.681000 0.067000 0.160000
v 0.670000 0.070000 0.160000
v 0.660000 0.060000 0.160000
v 0.600000 0.053000 0.160000
v 0.600000 0.050000 0.160000
v -0.825292 0.079196 0.147031
v -0.825292 0.079196 0.132969
v -0.839153 0.076820 0.147031
v -0.839153 0.076820 0.132969
v -0.824147 0.030883 0.140000
v -0.813768 0.086878 0.147031
v -0.820698 0.085690 0.151250
v -0.820698 0.085690 0.128750
v -0.813768 0.086878 0.132969
v -0.834559 0.083315 0.151250
v -0.841489 0.082127 0.147031
v -0.841489 0.082127 0.132969
v -0.834559 0.083315 0.128750
v -0.812818 0.081333 0.132969
v -0.819748 0.080146 0.128750
v -0.819748 0.080146 0.151250
v -0.812818 0.081333 0.147031
v -0.833609 0.077771 0.128750
v -0.840539 0.076583 0.132969
v -0.840539 0.076583 0.147031
v -0.833609 0.077771 0.151250
v -0.674708 0.079196 0.147031
v -0.674708 0.079196 0.132969
v -0.660847 0.076820 0.147031
v -0.660847 0.076820 0.132969
v -0.675853 0.030883 0.140000
v -0.686232 0.086878 0.147031
v -0.679302 0.085690 0.151250
v -0.679302 0.085690 0.128750
v -0.686232 0.086878 0.132969
v -0.665441 0.083315 0.151250
v -0.658511 0.082127 0.147031
v -0.658511 0.082127 0.132969
v -0.665441 0.083315 0.128750
v -0.687182 0.081333 0.132969
v -0.680252 0.080146 0.128750
v -0.680252 0.080146 0.151250
v -0.687182 0.081333 0.147031
v -0.666391 0.077771 0.128750
v -0.659461 0.076583 0.132969
v -0.659461 0.076583 0.147031
v -0.666391 0.077771 0.151250
v -0.674708 0.079196 0.067031
v -0.674708 0.079196 0.052969
v -0.660847 0.076820 0.067031
v -0.660847 0.076820 0.052969
v -0.675853 0.030883 0.060000
v -0.686232 0.086878 0.067031
v -0.679302 0.085690 0.071250
v -0.679302 0.085690 0.048750
v -0.686232 0.086878 0.052969
v -0.665441 0.083315 0.071250
v -0.658511 0.082127 0.067031
v -0.658511 0.082127 0.052969
v -0.665441 0.083315 0.048750
v -0.687182 0.081333 0.052969
v -0.680252 0.080146 0.048750
v -0.680252 0.080146 0.071250
v -0.687182 0.081333 0.067031
v -0.666391 0.077771 0.048750
v -0.659461 0.076583 0.052969
v -0.659461 0.076583 0.067031
v -0.666391 0.077771 0.071250
v -0.900000 0.050000 0.040000
v -0.830000 0.070000 0.040000
v -0.840000 0.060000 0.040000
v -0.900000 0.053000 0.040000
v -0.822000 0.070000 0.040000
v -0.819000 0.067000 0.040000
v -0.840000 0.060000 0.160000
v -0.830000 0.070000 0.160000
v -0.600000 0.050000 0.040000
v -0.670000 0.070000 0.040000
v -0.660000 0.060000 0.040000
v -0.600000 0.053000 0.040000
v -0.678000 0.070000 0.040000
v -0.681000 0.067000 0.040000
v -0.819000 0.067000 0.160000
v -0.822000 0.070000 0.160000
v -0.900000 0.053000 0.160000
v -0.900000 0.050000 0.160000
v -0.678000 0.070000 0.160000
v -0.681000 0.067000 0.160000
v -0.670000 0.070000 0.160000
v -0.660000 0.060000 0.160000
v -0.600000 0.053000 0.160000
v -0.600000 0.050000 0.160000
vn 1.0000 -0.0000 -0.0000
vn -0.0000 -0.0000 -1.0000
vn -1.0000 -0.0000 -0.0000
vn -0.0000 -0.0000 1.0000
vn -0.0000 1.0000 -0.0000
vn 0.1689 0.9856 -0.0000
vn 0.9856 -0.1689 -0.0000
vn -0.9856 0.1689 -0.0000
vn 0.9853 -0.1709 -0.0000
vn 0.9853 -0.1709 -0.0002
vn -0.9860 0.1669 -0.0000
vn -0.9860 0.1669 0.0002
vn -0.0004 -0.0020 1.0000
vn -0.0001 -0.0021 1.0000
vn -0.0003 -0.0020 -1.0000
vn -0.0006 -0.0020 -1.0000
vn -0.1689 -0.9856 -0.0000
vn -0.5071 0.0869 0.8575
vn -0.5071 0.0869 -0.8575
vn 0.5071 -0.0869 -0.8575
vn 0.5071 -0.0869 0.8575
vn 0.7071 0.7071 -0.0000
vn 0.9473 0.3204 -0.0006
vn 0.3827 0.9239 -0.0000
vn 0.4357 0.9001 -0.0000
vn -0.3827 0.9239 -0.0000
vn 0.1159 0.9933 -0.0000
vn -0.4357 0.9001 -0.0000
vn -0.1159 0.9933 -0.0000
vn -0.9536 0.3011 -0.0000
vn -0.7071 0.7071 -0.0000
vn -0.9562 0.2928 -0.0000
vn -0.1689 0.9856 -0.0000
vn -0.9856 -0.1689 -0.0000
vn 0.9856 0.1689 -0.0000
vn -0.9853 -0.1710 -0.0000
vn -0.9853 -0.1710 -0.0002
vn 0.9860 0.1668 -0.0000
vn 0.9860 0.1668 0.0002
vn 0.0004 -0.0021 1.0000
vn 0.0002 -0.0021 1.0000
vn 0.0003 -0.0021 -1.0000
vn 0.0005 -0.0020 -1.0000
vn 0.1689 -0.9856 -0.0000
vn 0.5071 0.0869 0.8575
vn 0.5071 0.0869 -0.8575
vn -0.5071 -0.0869 -0.8575
vn -0.5071 -0.0869 0.8575
vn 0.9343 -0.3269 -0.1419
vn 0.9343 -0.3269 0.1419
vn 0.9853 -0.1710 0.0002
vn -0.9899 0.0028 0.1419
vn -0.9899 0.0028 -0.1419
vn -0.9860 0.1668 -0.0002
vn 0.1121 -0.1860 0.9761
vn -0.1677 -0.1381 0.9761
vn -0.0005 -0.0020 1.0000
vn -0.1677 -0.1381 -0.9761
vn 0.1121 -0.1860 -0.9761
vn -0.0002 -0.0021 -1.0000
vn -0.9473 0.3204 -0.0006
vn 0.9536 0.3011 -0.0000
vn 0.9562 0.2928 -0.0000
vn 0.9591 0.2831 -0.0000
vn -0.9591 0.2831 -0.0000
vt 0.625000 0.500000
vt 0.375000 0.750000
vt 0.375000 0.500000
vt 0.625000 0.250000
vt 0.375000 0.250000
vt 0.375000 1.000000
vt 0.625000 0.750000
vt 0.875000 0.500000
vt 0.687500 0.750000
vt 0.625000 0.687500
vt 0.687500 0.500000
vt 0.625000 0.562500
vt 0.375000 0.687500
vt 0.375000 0.562500
vt 0.625000 0.062500
vt 0.375000 0.187500
vt 0.375000 0.062500
vt 0.312500 0.562500
vt 0.312500 0.687500
vt 0.625000 0.312500
vt 0.375000 0.437500
vt 0.375000 0.312500
vt 0.187500 0.687500
vt 0.187500 0.562500
vt 0.375000 0.000000
vt 0.625000 0.187500
vt 0.625000 0.437500
vt 0.625000 0.812500
vt 0.375000 0.812500
vt 0.625000 0.937500
vt 0.375000 0.937500
vt 0.000000 0.000000
vt 0.812500 0.500000
vt 0.812500 0.750000
vt 0.625000 0.000000
vt 0.625000 1.000000
vt 0.875000 0.750000
vt 0.875000 0.562500
vt 0.875000 0.687500
s 0
f 4/1/1 1/2/1 3/3/1
f 7/3/2 4/4/2 3/5/2
f 5/2/3 8/1/3 7/3/3
f 1/6/4 6/7/4 5/2/4
f 6/7/5 4/8/5 8/1/5
f 18/9/6 19/10/6 21/11/6
f 20/12/7 28/13/7 27/14/7
f 14/15/8 22/16/8 25/17/8
f 12/18/9 11/19/9 13/18/10
f 16/20/2 26/21/2 23/22/2
f 9/23/11 10/24/11 13/23/12
f 11/19/13 9/23/13 13/19/14
f 10/24/15 12/18/15 13/24/16
f 24/25/17 25/17/17 23/22/17
f 24/25/18 14/15/18 25/17/18
f 23/22/19 17/26/19 16/20/19
f 27/14/20 21/27/20 20/12/20
f 18/28/21 28/13/21 19/10/21
f 29/29/4 15/30/4 24/31/4
s 1
f 51/32/4 47/32/4 36/32/4
f 32/32/2 40/32/2 43/32/2
f 48/32/22 43/32/23 42/32/22
f 37/32/24 32/32/25 31/32/24
f 50/32/26 42/32/5 39/32/26
f 36/32/25 33/32/27 32/32/25
f 51/32/28 39/32/26 40/32/28
f 46/32/1 30/32/1 33/32/1
f 52/32/29 40/32/28 41/32/29
f 53/32/3 41/32/3 38/32/3
f 44/32/30 34/32/31 35/32/32
f 45/32/5 31/32/24 34/32/5
s 0
f 61/33/33 66/11/33 60/34/33
f 73/13/34 65/12/34 72/14/34
f 67/16/35 59/15/35 70/17/35
f 57/18/36 58/18/37 56/19/36
f 71/21/2 61/20/2 68/22/2
f 54/23/38 58/23/39 55/24/38
f 56/19/40 58/19/41 54/23/40
f 55/24/42 58/24/43 57/18/42
f 71/21/44 68/22/44 74/29/44
f 69/25/45 59/15/45 60/35/45
f 62/26/46 68/22/46 61/20/46
f 66/27/47 72/14/47 65/12/47
f 63/28/48 73/13/48 74/29/48
f 74/29/4 60/30/4 63/28/4
f 84/9/6 85/10/6 87/11/6
f 86/12/7 94/13/7 93/14/7
f 80/15/8 88/16/8 91/17/8
f 78/18/49 77/19/50 79/18/51
f 82/20/2 92/21/2 89/22/2
f 75/23/52 76/24/53 79/23/54
f 77/19/55 75/23/56 79/19/57
f 76/24/58 78/18/59 79/24/60
f 90/25/17 91/17/17 89/22/17
f 90/25/18 80/15/18 91/17/18
f 89/22/19 83/26/19 82/20/19
f 93/14/20 87/27/20 86/12/20
f 84/28/21 94/13/21 85/10/21
f 95/29/4 81/30/4 90/31/4
f 105/9/6 106/10/6 108/11/6
f 107/12/7 115/13/7 114/14/7
f 101/15/8 109/16/8 112/17/8
f 99/18/49 98/19/50 100/18/51
f 103/20/2 113/21/2 110/22/2
f 96/23/52 97/24/53 100/23/54
f 98/19/55 96/23/56 100/19/57
f 97/24/58 99/18/59 100/24/60
f 111/25/17 112/17/17 110/22/17
f 111/25/18 101/15/18 112/17/18
f 110/22/19 104/26/19 103/20/19
f 114/14/20 108/27/20 107/12/20
f 105/28/21 115/13/21 106/10/21
f 116/29/4 102/30/4 111/31/4
s 1
f 123/32/4 138/32/4 136/32/4
f 127/32/2 117/32/2 119/32/2
f 130/32/61 135/32/31 129/32/31
f 119/32/28 124/32/26 118/32/26
f 129/32/5 137/32/24 126/32/24
f 120/32/29 123/32/28 119/32/28
f 126/32/24 138/32/25 127/32/25
f 117/32/3 133/32/3 120/32/3
f 127/32/25 139/32/27 128/32/27
f 128/32/1 140/32/1 125/32/1
f 121/32/22 131/32/62 122/32/63
f 118/32/26 132/32/5 121/32/5
s 0
f 4/1/1 2/7/1 1/2/1
f 7/3/2 8/1/2 4/4/2
f 5/2/3 6/7/3 8/1/3
f 1/6/4 2/36/4 6/7/4
f 6/7/5 2/37/5 4/8/5
f 19/10/6 20/12/6 21/11/6
f 21/11/6 16/33/6 15/34/6
f 16/33/6 17/38/6 15/34/6
f 17/38/6 14/39/6 15/34/6
f 15/34/6 18/9/6 21/11/6
f 20/12/7 19/10/7 28/13/7
f 14/15/8 17/26/8 22/16/8
f 16/20/2 21/27/2 26/21/2
f 25/17/17 22/16/17 23/22/17
f 23/22/17 26/21/17 29/29/17
f 26/21/17 27/14/17 29/29/17
f 27/14/17 28/13/17 29/29/17
f 29/29/17 24/25/17 23/22/17
f 24/25/18 15/35/18 14/15/18
f 23/22/19 22/16/19 17/26/19
f 27/14/20 26/21/20 21/27/20
f 18/28/21 29/29/21 28/13/21
f 29/29/4 18/28/4 15/30/4
s 1
f 37/32/4 45/32/4 44/32/4
f 49/32/4 48/32/4 50/32/4
f 36/32/4 37/32/4 44/32/4
f 49/32/4 50/32/4 51/32/4
f 36/32/4 44/32/4 49/32/4
f 47/32/4 46/32/4 36/32/4
f 52/32/4 53/32/4 51/32/4
f 53/32/4 47/32/4 51/32/4
f 36/32/4 49/32/4 51/32/4
f 35/32/2 34/32/2 31/32/2
f 32/32/2 33/32/2 30/32/2
f 35/32/2 31/32/2 32/32/2
f 39/32/2 42/32/2 43/32/2
f 43/32/2 35/32/2 32/32/2
f 32/32/2 30/32/2 38/32/2
f 38/32/2 41/32/2 40/32/2
f 40/32/2 39/32/2 43/32/2
f 32/32/2 38/32/2 40/32/2
f 48/32/22 49/32/64 43/32/23
f 37/32/24 36/32/25 32/32/25
f 50/32/26 48/32/5 42/32/5
f 36/32/25 46/32/27 33/32/27
f 51/32/28 50/32/26 39/32/26
f 46/32/1 47/32/1 30/32/1
f 52/32/29 51/32/28 40/32/28
f 53/32/3 52/32/3 41/32/3
f 44/32/30 45/32/31 34/32/31
f 45/32/5 37/32/24 31/32/24
s 0
f 66/11/33 65/12/33 64/10/33
f 64/10/33 63/9/33 66/11/33
f 63/9/33 60/34/33 66/11/33
f 60/34/33 59/39/33 62/38/33
f 62/38/33 61/33/33 60/34/33
f 73/13/34 64/10/34 65/12/34
f 67/16/35 62/26/35 59/15/35
f 71/21/2 66/27/2 61/20/2
f 68/22/44 67/16/44 70/17/44
f 70/17/44 69/25/44 68/22/44
f 69/25/44 74/29/44 68/22/44
f 74/29/44 73/13/44 72/14/44
f 72/14/44 71/21/44 74/29/44
f 69/25/45 70/17/45 59/15/45
f 62/26/46 67/16/46 68/22/46
f 66/27/47 71/21/47 72/14/47
f 63/28/48 64/10/48 73/13/48
f 74/29/4 69/31/4 60/30/4
f 85/10/6 86/12/6 87/11/6
f 87/11/6 82/33/6 81/34/6
f 82/33/6 83/38/6 81/34/6
f 83/38/6 80/39/6 81/34/6
f 81/34/6 84/9/6 87/11/6
f 86/12/7 85/10/7 94/13/7
f 80/15/8 83/26/8 88/16/8
f 82/20/2 87/27/2 92/21/2
f 91/17/17 88/16/17 89/22/17
f 89/22/17 92/21/17 95/29/17
f 92/21/17 93/14/17 95/29/17
f 93/14/17 94/13/17 95/29/17
f 95/29/17 90/25/17 89/22/17
f 90/25/18 81/35/18 80/15/18
f 89/22/19 88/16/19 83/26/19
f 93/14/20 92/21/20 87/27/20
f 84/28/21 95/29/21 94/13/21
f 95/29/4 84/28/4 81/30/4
f 106/10/6 107/12/6 108/11/6
f 108/11/6 103/33/6 102/34/6
f 103/33/6 104/38/6 102/34/6
f 104/38/6 101/39/6 102/34/6
f 102/34/6 105/9/6 108/11/6
f 107/12/7 106/10/7 115/13/7
f 101/15/8 104/26/8 109/16/8
f 103/20/2 108/27/2 113/21/2
f 112/17/17 109/16/17 110/22/17
f 110/22/17 113/21/17 116/29/17
f 113/21/17 114/14/17 116/29/17
f 114/14/17 115/13/17 116/29/17
f 116/29/17 111/25/17 110/22/17
f 111/25/18 102/35/18 101/15/18
f 110/22/19 109/16/19 104/26/19
f 114/14/20 113/21/20 108/27/20
f 105/28/21 116/29/21 115/13/21
f 116/29/4 105/28/4 102/30/4
s 1
f 131/32/4 132/32/4 124/32/4
f 123/32/4 133/32/4 134/32/4
f 131/32/4 124/32/4 123/32/4
f 137/32/4 135/32/4 136/32/4
f 136/32/4 131/32/4 123/32/4
f 123/32/4 134/32/4 140/32/4
f 140/32/4 139/32/4 138/32/4
f 138/32/4 137/32/4 136/32/4
f 123/32/4 140/32/4 138/32/4
f 118/32/2 121/32/2 122/32/2
f 130/32/2 129/32/2 126/32/2
f 119/32/2 118/32/2 122/32/2
f 130/32/2 126/32/2 127/32/2
f 119/32/2 122/32/2 130/32/2
f 117/32/2 120/32/2 119/32/2
f 128/32/2 125/32/2 127/32/2
f 125/32/2 117/32/2 127/32/2
f 119/32/2 130/32/2 127/32/2
f 130/32/61 136/32/65 135/32/31
f 119/32/28 123/32/28 124/32/26
f 129/32/5 135/32/5 137/32/24
f 120/32/29 133/32/29 123/32/28
f 126/32/24 137/32/24 138/32/25
f 117/32/3 134/32/3 133/32/3
f 127/32/25 138/32/25 139/32/27
f 128/32/1 139/32/1 140/32/1
f 121/32/22 132/32/22 131/32/62
f 118/32/26 124/32/26 132/32/5
