# Blender 4.3.0
# www.blender.org
mtllib Sleeper01.mtl
g Sleeper01_Cube.013
v 1.000000 -0.000000 0.200000
v 1.000000 0.050000 0.200000
v 1.000000 -0.000000 -0.000000
v 1.000000 0.050000 -0.000000
v -1.000000 -0.000000 0.200000
v -1.000000 0.050000 0.200000
v -1.000000 -0.000000 -0.000000
v -1.000000 0.050000 -0.000000
v 0.825292 0.079196 0.147031
v 0.825292 0.079196 0.132969
v 0.839153 0.076820 0.147031
v 0.839153 0.076820 0.132969
v 0.824147 0.030883 0.140000
v 0.813768 0.086878 0.147031
v 0.820698 0.085690 0.151250
v 0.820698 0.085690 0.128750
v 0.813768 0.086878 0.132969
v 0.834559 0.083315 0.151250
v 0.841489 0.082127 0.147031
v 0.841489 0.082127 0.132969
v 0.834559 0.083315 0.128750
v 0.812818 0.081333 0.132969
v 0.819748 0.080146 0.128750
v 0.819748 0.080146 0.151250
v 0.812818 0.081333 0.147031
v 0.833609 0.077771 0.128750
v 0.840539 0.076583 0.132969
v 0.840539 0.076583 0.147031
v 0.833609 0.077771 0.151250
v 0.674708 0.079196 0.067031
v 0.674708 0.079196 0.052969
v 0.660847 0.076820 0.067031
v 0.660847 0.076820 0.052969
v 0.675853 0.030883 0.060000
v 0.686232 0.086878 0.067031
v 0.679302 0.085690 0.071250
v 0.679302 0.085690 0.048750
v 0.686232 0.086878 0.052969
v 0.665441 0.083315 0.071250
v 0.658511 0.082127 0.067031
v 0.658511 0.082127 0.052969
v 0.665441 0.083315 0.048750
v 0.687182 0.081333 0.052969
v 0.680252 0.080146 0.048750
v 0.680252 0.080146 0.071250
v 0.687182 0.081333 0.067031
v 0.666391 0.077771 0.048750
v 0.659461 0.076583 0.052969
v 0.659461 0.076583 0.067031
v 0.666391 0.077771 0.071250
v 0.900000 0.050000 0.040000
v 0.830000 0.070000 0.040000
v 0.840000 0.060000 0.040000
v 0.900000 0.053000 0.040000
v 0.822000 0.070000 0.040000
v 0.819000 0.067000 0.040000
v 0.840000 0.060000 0.160000
v 0.830000 0.070000 0.160000
v 0.600000 0.050000 0.040000
v 0.670000 0.070000 0.040000
v 0.660000 0.060000 0.040000
v 0.600000 0.053000 0.040000
v 0.678000 0.070000 0.040000
v 0.681000 0.067000 0.040000
v 0.819000 0.067000 0.160000
v 0.822000 0.070000 0.160000
v 0.900000 0.053000 0.160000
v 0.900000 0.050000 0.160000
v 0.678000 0.070000 0.160000
v 0.681000 0.067000 0.160000
v 0.670000 0.070000 0.160000
v 0.660000 0.060000 0.160000
v 0.600000 0.053000 0.160000
v 0.600000 0.050000 0.160000
v -0.825292 0.079196 0.147031
v -0.825292 0.079196 0.132969
v -0.839153 0.076820 0.147031
v -0.839153 0.076820 0.132969
v -0.824147 0.030883 0.140000
v -0.813768 0.086878 0.147031
v -0.820698 0.085690 0.151250
v -0.820698 0.085690 0.128750
v -0.813768 0.086878 0.132969
v -0.834559 0.083315 0.151250
v -0.841489 0.082127 0.147031
v -0.841489 0.082127 0.132969
v -0.834559 0.083315 0.128750
v -0.812818 0.081333 0.132969
v -0.819748 0.080146 0.128750
v -0.819748 0.080146 0.151250
v -0.812818 0.081333 0.147031
v -0.833609 0.077771 0.128750
v -0.840539 0.076583 0.132969
v -0.840539 0.076583 0.147031
v -0.833609 0.077771 0.151250
v -0.825292 0.079196 0.067031
v -0.825292 0.079196 0.052969
v -0.839153 0.076820 0.067031
v -0.839153 0.076820 0.052969
v -0.824147 0.030883 0.060000
v -0.813768 0.086878 0.067031
v -0.820698 0.085690 0.071250
v -0.820698 0.085690 0.048750
v -0.813768 0.086878 0.052969
v -0.834559 0.083315 0.071250
v -0.841489 0.082127 0.067031
v -0.841489 0.082127 0.052969
v -0.834559 0.083315 0.048750
v -0.812818 0.081333 0.052969
v -0.819748 0.080146 0.048750
v -0.819748 0.080146 0.071250
v -0.812818 0.081333 0.067031
v -0.833609 0.077771 0.048750
v -0.840539 0.076583 0.052969
v -0.840539 0.076583 0.067031
v -0.833609 0.077771 0.071250
v -0.674708 0.079196 0.147031
v -0.674708 0.079196 0.132969
v -0.660847 0.076820 0.147031
v -0.660847 0.076820 0.132969
v -0.675853 0.030883 0.140000
v -0.686232 0.086878 0.147031
v -0.679302 0.085690 0.151250
v -0.679302 0.085690 0.128750
v -0.686232 0.086878 0.132969
v -0.665441 0.083315 0.151250
v -0.658511 0.082127 0.147031
v -0.658511 0.082127 0.132969
v -0.665441 0.083315 0.128750
v -0.687182 0.081333 0.132969
v -0.680252 0.080146 0.128750
v -0.680252 0.080146 0.151250
v -0.687182 0.081333 0.147031
v -0.666391 0.077771 0.128750
v -0.659461 0.076583 0.132969
v -0.659461 0.076583 0.147031
v -0.666391 0.077771 0.151250
v -0.900000 0.050000 0.040000
v -0.830000 0.070000 0.040000
v -0.840000 0.060000 0.040000
v -0.900000 0.053000 0.040000
v -0.822000 0.070000 0.040000
v -0.819000 0.067000 0.040000
v -0.840000 0.060000 0.160000
v -0.830000 0.070000 0.160000
v -0.600000 0.050000 0.040000
v -0.670000 0.070000 0.040000
v -0.660000 0.060000 0.040000
v -0.600000 0.053000 0.040000
v -0.678000 0.070000 0.040000
v -0.681000 0.067000 0.040000
v -0.819000 0.067000 0.160000
v -0.822000 0.070000 0.160000
v -0.900000 0.053000 0.160000
v -0.900000 0.050000 0.160000
v -0.678000 0.070000 0.160000
v -0.681000 0.067000 0.160000
v -0.670000 0.070000 0.160000
v -0.660000 0.060000 0.160000
v -0.600000 0.053000 0.160000
v -0.600000 0.050000 0.160000
vn 1.0000 -0.0000 -0.0000
vn -0.0000 -0.0000 -1.0000
vn -1.0000 -0.0000 -0.0000
vn -0.0000 -0.0000 1.0000
vn -0.0000 1.0000 -0.0000
vn 0.1689 0.9856 -0.0000
vn 0.9856 -0.1689 -0.0000
vn -0.9856 0.1689 -0.0000
vn 0.9853 -0.1709 -0.0000
vn 0.9853 -0.1709 -0.0002
vn -0.9860 0.1669 -0.0000
vn -0.9860 0.1669 0.0002
vn -0.0003 -0.0020 1.0000
vn -0.0004 -0.0020 1.0000
vn -0.0001 -0.0020 1.0000
vn -0.0003 -0.0020 -1.0000
vn -0.0005 -0.0019 -1.0000
vn -0.1689 -0.9856 -0.0000
vn -0.5071 0.0869 0.8575
vn -0.5071 0.0869 -0.8575
vn 0.5071 -0.0869 -0.8575
vn 0.5071 -0.0869 0.8575
vn -0.1689 0.9856 -0.0000
vn -0.9856 -0.1689 -0.0000
vn 0.9856 0.1689 -0.0000
vn -0.9343 -0.3269 -0.1420
vn -0.9853 -0.1709 0.0002
vn -0.9343 -0.3269 0.1420
vn 0.9899 0.0028 0.1420
vn 0.9860 0.1669 -0.0002
vn 0.9899 0.0028 -0.1420
vn -0.1122 -0.1861 0.9761
vn 0.0005 -0.0019 1.0000
vn 0.1677 -0.1381 0.9761
vn 0.1677 -0.1381 -0.9761
vn 0.0001 -0.0020 -1.0000
vn -0.1122 -0.1860 -0.9761
vn 0.1689 -0.9856 -0.0000
vn 0.5071 0.0869 0.8575
vn 0.5071 0.0869 -0.8575
vn -0.5071 -0.0869 -0.8575
vn -0.5071 -0.0869 0.8575
vn 0.7071 0.7071 -0.0000
vn 0.9473 0.3204 -0.0006
vn 0.3827 0.9239 -0.0000
vn 0.4357 0.9001 -0.0000
vn -0.3827 0.9239 -0.0000
vn 0.1159 0.9933 -0.0000
vn -0.4357 0.9001 -0.0000
vn -0.1159 0.9933 -0.0000
vn -0.9536 0.3011 -0.0000
vn -0.7071 0.7071 -0.0000
vn -0.9562 0.2928 -0.0000
vn -0.9853 -0.1709 -0.0000
vn -0.9853 -0.1709 -0.0002
vn 0.9860 0.1669 -0.0000
vn 0.9860 0.1669 0.0002
vn 0.0004 -0.0020 1.0000
vn 0.0002 -0.0021 1.0000
vn 0.0003 -0.0020 -1.0000
vn 0.0005 -0.0020 -1.0000
vn 0.9343 -0.3269 -0.1420
vn 0.9343 -0.3269 0.1420
vn 0.9853 -0.1709 0.0002
vn -0.9899 0.0028 0.1420
vn -0.9899 0.0028 -0.1420
vn -0.9860 0.1669 -0.0002
vn 0.1122 -0.1860 0.9761
vn -0.1677 -0.1381 0.9761
vn -0.0005 -0.0020 1.0000
vn -0.1677 -0.1381 -0.9761
vn 0.1122 -0.1860 -0.9761
vn -0.0002 -0.0021 -1.0000
vn -0.9473 0.3204 -0.0006
vn 0.9536 0.3011 -0.0000
vn 0.9562 0.2928 -0.0000
vn 0.9591 0.2831 -0.0000
vn -0.9591 0.2831 -0.0000
vt 0.625000 0.500000
vt 0.375000 0.750000
vt 0.375000 0.500000
vt 0.625000 0.250000
vt 0.375000 0.250000
vt 0.375000 1.000000
vt 0.625000 0.750000
vt 0.875000 0.500000
vt 0.687500 0.750000
vt 0.625000 0.687500
vt 0.687500 0.500000
vt 0.625000 0.562500
vt 0.375000 0.687500
vt 0.375000 0.562500
vt 0.625000 0.062500
vt 0.375000 0.187500
vt 0.375000 0.062500
vt 0.312500 0.562500
vt 0.312500 0.687500
vt 0.625000 0.312500
vt 0.375000 0.437500
vt 0.375000 0.312500
vt 0.187500 0.687500
vt 0.187500 0.562500
vt 0.375000 0.000000
vt 0.625000 0.187500
vt 0.625000 0.437500
vt 0.625000 0.812500
vt 0.375000 0.812500
vt 0.625000 0.937500
vt 0.375000 0.937500
vt 0.812500 0.500000
vt 0.812500 0.750000
vt 0.625000 0.000000
vt 0.000000 0.000000
vt 0.343750 0.718750
vt 0.330806 0.705806
vt 0.312500 0.750000
vt 0.625000 1.000000
vt 0.875000 0.750000
vt 0.875000 0.562500
vt 0.875000 0.687500
s 0
f 4/1/1 1/2/1 3/3/1
f 7/3/2 4/4/2 3/5/2
f 5/2/3 8/1/3 7/3/3
f 1/6/4 6/7/4 5/2/4
f 6/7/5 4/8/5 8/1/5
f 18/9/6 19/10/6 21/11/6
f 20/12/7 28/13/7 27/14/7
f 14/15/8 22/16/8 25/17/8
f 12/18/9 11/19/9 13/18/10
f 16/20/2 26/21/2 23/22/2
f 9/23/11 10/24/11 13/23/12
f 11/19/13 9/23/14 13/19/15
f 10/24/16 12/18/16 13/24/17
f 24/25/18 25/17/18 23/22/18
f 24/25/19 14/15/19 25/17/19
f 23/22/20 17/26/20 16/20/20
f 27/14/21 21/27/21 20/12/21
f 18/28/22 28/13/22 19/10/22
f 29/29/4 15/30/4 24/31/4
f 37/32/23 42/11/23 36/33/23
f 49/13/24 41/12/24 48/14/24
f 43/16/25 35/15/25 46/17/25
f 33/18/26 34/18/27 32/19/28
f 47/21/2 37/20/2 44/22/2
f 30/23/29 34/23/30 31/24/31
f 32/19/32 34/19/33 30/23/34
f 31/24/35 34/24/36 33/18/37
f 47/21/38 44/22/38 50/29/38
f 45/25/39 35/15/39 36/34/39
f 38/26/40 44/22/40 37/20/40
f 42/27/41 48/14/41 41/12/41
f 39/28/42 49/13/42 50/29/42
f 50/29/4 36/30/4 39/28/4
s 1
f 72/35/4 68/35/4 57/35/4
f 53/35/2 61/35/2 64/35/2
f 69/35/43 64/35/44 63/35/43
f 58/35/45 53/35/46 52/35/45
f 71/35/47 63/35/5 60/35/47
f 57/35/46 54/35/48 53/35/46
f 72/35/49 60/35/47 61/35/49
f 67/35/1 51/35/1 54/35/1
f 73/35/50 61/35/49 62/35/50
f 74/35/3 62/35/3 59/35/3
f 65/35/51 55/35/52 56/35/53
f 66/35/5 52/35/45 55/35/5
s 0
f 82/32/23 87/11/23 81/33/23
f 94/13/24 86/12/24 93/14/24
f 88/16/25 80/15/25 91/17/25
f 78/18/54 79/18/55 77/19/54
f 92/21/2 82/20/2 89/22/2
f 75/23/56 79/23/57 76/24/56
f 77/19/58 79/19/59 75/23/58
f 76/24/60 79/24/61 78/18/60
f 92/21/38 89/22/38 95/29/38
f 90/25/39 80/15/39 81/34/39
f 83/26/40 89/22/40 82/20/40
f 87/27/41 93/14/41 86/12/41
f 84/28/42 94/13/42 95/29/42
f 95/29/4 81/30/4 84/28/4
f 103/32/23 108/11/23 102/33/23
f 115/13/24 107/12/24 114/14/24
f 109/16/25 101/15/25 112/17/25
f 99/18/54 100/18/55 98/19/54
f 113/21/2 103/20/2 110/22/2
f 96/23/56 100/23/57 97/24/56
f 98/19/58 100/19/59 96/23/58
f 97/24/60 100/24/61 99/18/60
f 110/35/38 109/35/38 111/35/38
f 115/36/38 98/37/38 116/38/38
f 111/25/39 101/15/39 102/34/39
f 104/26/40 110/22/40 103/20/40
f 108/27/41 114/14/41 107/12/41
f 105/28/42 115/13/42 116/29/42
f 116/29/4 102/30/4 105/28/4
f 126/9/6 127/10/6 129/11/6
f 128/12/7 136/13/7 135/14/7
f 122/15/8 130/16/8 133/17/8
f 120/18/62 119/19/63 121/18/64
f 124/20/2 134/21/2 131/22/2
f 117/23/65 118/24/66 121/23/67
f 119/19/68 117/23/69 121/19/70
f 118/24/71 120/18/72 121/24/73
f 132/25/18 133/17/18 131/22/18
f 132/25/19 122/15/19 133/17/19
f 131/22/20 125/26/20 124/20/20
f 135/14/21 129/27/21 128/12/21
f 126/28/22 136/13/22 127/10/22
f 137/29/4 123/30/4 132/31/4
s 1
f 144/35/4 159/35/4 157/35/4
f 148/35/2 138/35/2 140/35/2
f 151/35/74 156/35/52 150/35/52
f 140/35/49 145/35/47 139/35/47
f 150/35/5 158/35/45 147/35/45
f 141/35/50 144/35/49 140/35/49
f 147/35/45 159/35/46 148/35/46
f 138/35/3 154/35/3 141/35/3
f 148/35/46 160/35/48 149/35/48
f 149/35/1 161/35/1 146/35/1
f 142/35/43 152/35/75 143/35/76
f 139/35/47 153/35/5 142/35/5
s 0
f 4/1/1 2/7/1 1/2/1
f 7/3/2 8/1/2 4/4/2
f 5/2/3 6/7/3 8/1/3
f 1/6/4 2/39/4 6/7/4
f 6/7/5 2/40/5 4/8/5
f 19/10/6 20/12/6 21/11/6
f 21/11/6 16/32/6 15/33/6
f 16/32/6 17/41/6 15/33/6
f 17/41/6 14/42/6 15/33/6
f 15/33/6 18/9/6 21/11/6
f 20/12/7 19/10/7 28/13/7
f 14/15/8 17/26/8 22/16/8
f 16/20/2 21/27/2 26/21/2
f 25/17/18 22/16/18 23/22/18
f 23/22/18 26/21/18 29/29/18
f 26/21/18 27/14/18 29/29/18
f 27/14/18 28/13/18 29/29/18
f 29/29/18 24/25/18 23/22/18
f 24/25/19 15/34/19 14/15/19
f 23/22/20 22/16/20 17/26/20
f 27/14/21 26/21/21 21/27/21
f 18/28/22 29/29/22 28/13/22
f 29/29/4 18/28/4 15/30/4
f 42/11/23 41/12/23 40/10/23
f 40/10/23 39/9/23 42/11/23
f 39/9/23 36/33/23 42/11/23
f 36/33/23 35/42/23 38/41/23
f 38/41/23 37/32/23 36/33/23
f 49/13/24 40/10/24 41/12/24
f 43/16/25 38/26/25 35/15/25
f 47/21/2 42/27/2 37/20/2
f 44/22/38 43/16/38 46/17/38
f 46/17/38 45/25/38 44/22/38
f 45/25/38 50/29/38 44/22/38
f 50/29/38 49/13/38 48/14/38
f 48/14/38 47/21/38 50/29/38
f 45/25/39 46/17/39 35/15/39
f 38/26/40 43/16/40 44/22/40
f 42/27/41 47/21/41 48/14/41
f 39/28/42 40/10/42 49/13/42
f 50/29/4 45/31/4 36/30/4
s 1
f 58/35/4 66/35/4 65/35/4
f 70/35/4 69/35/4 71/35/4
f 57/35/4 58/35/4 65/35/4
f 70/35/4 71/35/4 72/35/4
f 57/35/4 65/35/4 70/35/4
f 68/35/4 67/35/4 57/35/4
f 73/35/4 74/35/4 72/35/4
f 74/35/4 68/35/4 72/35/4
f 57/35/4 70/35/4 72/35/4
f 56/35/2 55/35/2 52/35/2
f 53/35/2 54/35/2 51/35/2
f 56/35/2 52/35/2 53/35/2
f 60/35/2 63/35/2 64/35/2
f 64/35/2 56/35/2 53/35/2
f 53/35/2 51/35/2 59/35/2
f 59/35/2 62/35/2 61/35/2
f 61/35/2 60/35/2 64/35/2
f 53/35/2 59/35/2 61/35/2
f 69/35/43 70/35/77 64/35/44
f 58/35/45 57/35/46 53/35/46
f 71/35/47 69/35/5 63/35/5
f 57/35/46 67/35/48 54/35/48
f 72/35/49 71/35/47 60/35/47
f 67/35/1 68/35/1 51/35/1
f 73/35/50 72/35/49 61/35/49
f 74/35/3 73/35/3 62/35/3
f 65/35/51 66/35/52 55/35/52
f 66/35/5 58/35/45 52/35/45
s 0
f 87/11/23 86/12/23 85/10/23
f 85/10/23 84/9/23 87/11/23
f 84/9/23 81/33/23 87/11/23
f 81/33/23 80/42/23 83/41/23
f 83/41/23 82/32/23 81/33/23
f 94/13/24 85/10/24 86/12/24
f 88/16/25 83/26/25 80/15/25
f 92/21/2 87/27/2 82/20/2
f 89/22/38 88/16/38 91/17/38
f 91/17/38 90/25/38 89/22/38
f 90/25/38 95/29/38 89/22/38
f 95/29/38 94/13/38 93/14/38
f 93/14/38 92/21/38 95/29/38
f 90/25/39 91/17/39 80/15/39
f 83/26/40 88/16/40 89/22/40
f 87/27/41 92/21/41 93/14/41
f 84/28/42 85/10/42 94/13/42
f 95/29/4 90/31/4 81/30/4
f 108/11/23 107/12/23 106/10/23
f 106/10/23 105/9/23 108/11/23
f 105/9/23 102/33/23 108/11/23
f 102/33/23 101/42/23 104/41/23
f 104/41/23 103/32/23 102/33/23
f 115/13/24 106/10/24 107/12/24
f 109/16/25 104/26/25 101/15/25
f 113/21/2 108/27/2 103/20/2
f 109/35/38 112/35/38 111/35/38
f 111/35/38 116/35/38 113/35/38
f 116/35/38 98/35/38 113/35/38
f 98/35/38 115/35/38 114/35/38
f 114/35/38 113/35/38 98/35/38
f 113/35/38 110/35/38 111/35/38
f 111/25/39 112/17/39 101/15/39
f 104/26/40 109/16/40 110/22/40
f 108/27/41 113/21/41 114/14/41
f 105/28/42 106/10/42 115/13/42
f 116/29/4 111/31/4 102/30/4
f 127/10/6 128/12/6 129/11/6
f 129/11/6 124/32/6 123/33/6
f 124/32/6 125/41/6 123/33/6
f 125/41/6 122/42/6 123/33/6
f 123/33/6 126/9/6 129/11/6
f 128/12/7 127/10/7 136/13/7
f 122/15/8 125/26/8 130/16/8
f 124/20/2 129/27/2 134/21/2
f 133/17/18 130/16/18 131/22/18
f 131/22/18 134/21/18 137/29/18
f 134/21/18 135/14/18 137/29/18
f 135/14/18 136/13/18 137/29/18
f 137/29/18 132/25/18 131/22/18
f 132/25/19 123/34/19 122/15/19
f 131/22/20 130/16/20 125/26/20
f 135/14/21 134/21/21 129/27/21
f 126/28/22 137/29/22 136/13/22
f 137/29/4 126/28/4 123/30/4
s 1
f 152/35/4 153/35/4 145/35/4
f 144/35/4 154/35/4 155/35/4
f 152/35/4 145/35/4 144/35/4
f 158/35/4 156/35/4 157/35/4
f 157/35/4 152/35/4 144/35/4
f 144/35/4 155/35/4 161/35/4
f 161/35/4 160/35/4 159/35/4
f 159/35/4 158/35/4 157/35/4
f 144/35/4 161/35/4 159/35/4
f 139/35/2 142/35/2 143/35/2
f 151/35/2 150/35/2 147/35/2
f 140/35/2 139/35/2 143/35/2
f 151/35/2 147/35/2 148/35/2
f 140/35/2 143/35/2 151/35/2
f 138/35/2 141/35/2 140/35/2
f 149/35/2 146/35/2 148/35/2
f 146/35/2 138/35/2 148/35/2
f 140/35/2 151/35/2 148/35/2
f 151/35/74 157/35/78 156/35/52
f 140/35/49 144/35/49 145/35/47
f 150/35/5 156/35/5 158/35/45
f 141/35/50 154/35/50 144/35/49
f 147/35/45 158/35/45 159/35/46
f 138/35/3 155/35/3 154/35/3
f 148/35/46 159/35/46 160/35/48
f 149/35/1 160/35/1 161/35/1
f 142/35/43 153/35/43 152/35/75
f 139/35/47 145/35/47 153/35/5
