# Blender 4.3.0
# www.blender.org
mtllib Sleeper02.mtl
g Sleeper02_Cube.019
v 1.030000 -0.000000 0.200000
v 1.030000 0.050000 0.200000
v 1.030000 -0.000000 -0.000000
v 1.030000 0.050000 -0.000000
v -1.020000 -0.000000 0.200000
v -1.020000 0.050000 0.200000
v -1.020000 -0.000000 -0.000000
v -1.020000 0.050000 -0.000000
v 0.825292 0.079196 0.147031
v 0.825292 0.079196 0.132969
v 0.839153 0.076820 0.147031
v 0.839153 0.076820 0.132969
v 0.824147 0.030883 0.140000
v 0.813768 0.086878 0.147031
v 0.820698 0.085690 0.151250
v 0.820698 0.085690 0.128750
v 0.813768 0.086878 0.132969
v 0.834559 0.083315 0.151250
v 0.841489 0.082127 0.147031
v 0.841489 0.082127 0.132969
v 0.834559 0.083315 0.128750
v 0.812818 0.081333 0.132969
v 0.819748 0.080146 0.128750
v 0.819748 0.080146 0.151250
v 0.812818 0.081333 0.147031
v 0.833609 0.077771 0.128750
v 0.840539 0.076583 0.132969
v 0.840539 0.076583 0.147031
v 0.833609 0.077771 0.151250
v 0.825292 0.079196 0.067031
v 0.825292 0.079196 0.052969
v 0.839153 0.076820 0.067031
v 0.839153 0.076820 0.052969
v 0.824147 0.030883 0.060000
v 0.813768 0.086878 0.067031
v 0.820698 0.085690 0.071250
v 0.820698 0.085690 0.048750
v 0.813768 0.086878 0.052969
v 0.834559 0.083315 0.071250
v 0.841489 0.082127 0.067031
v 0.841489 0.082127 0.052969
v 0.834559 0.083315 0.048750
v 0.812818 0.081333 0.052969
v 0.819748 0.080146 0.048750
v 0.819748 0.080146 0.071250
v 0.812818 0.081333 0.067031
v 0.833609 0.077771 0.048750
v 0.840539 0.076583 0.052969
v 0.840539 0.076583 0.067031
v 0.833609 0.077771 0.071250
v 0.900000 0.050000 0.040000
v 0.830000 0.070000 0.040000
v 0.840000 0.060000 0.040000
v 0.900000 0.053000 0.040000
v 0.822000 0.070000 0.040000
v 0.819000 0.067000 0.040000
v 0.840000 0.060000 0.160000
v 0.830000 0.070000 0.160000
v 0.600000 0.050000 0.040000
v 0.670000 0.070000 0.040000
v 0.660000 0.060000 0.040000
v 0.600000 0.053000 0.040000
v 0.678000 0.070000 0.040000
v 0.681000 0.067000 0.040000
v 0.819000 0.067000 0.160000
v 0.822000 0.070000 0.160000
v 0.900000 0.053000 0.160000
v 0.900000 0.050000 0.160000
v 0.678000 0.070000 0.160000
v 0.681000 0.067000 0.160000
v 0.670000 0.070000 0.160000
v 0.660000 0.060000 0.160000
v 0.600000 0.053000 0.160000
v 0.600000 0.050000 0.160000
v -0.825292 0.079196 0.067031
v -0.825292 0.079196 0.052969
v -0.839153 0.076820 0.067031
v -0.839153 0.076820 0.052969
v -0.824147 0.030883 0.060000
v -0.813768 0.086878 0.067031
v -0.820698 0.085690 0.071250
v -0.820698 0.085690 0.048750
v -0.813768 0.086878 0.052969
v -0.834559 0.083315 0.071250
v -0.841489 0.082127 0.067031
v -0.841489 0.082127 0.052969
v -0.834559 0.083315 0.048750
v -0.812818 0.081333 0.052969
v -0.819748 0.080146 0.048750
v -0.819748 0.080146 0.071250
v -0.812818 0.081333 0.067031
v -0.833609 0.077771 0.048750
v -0.840539 0.076583 0.052969
v -0.840539 0.076583 0.067031
v -0.833609 0.077771 0.071250
v -0.674708 0.079196 0.067031
v -0.674708 0.079196 0.052969
v -0.660847 0.076820 0.067031
v -0.660847 0.076820 0.052969
v -0.675853 0.030883 0.060000
v -0.686232 0.086878 0.067031
v -0.679302 0.085690 0.071250
v -0.679302 0.085690 0.048750
v -0.686232 0.086878 0.052969
v -0.665441 0.083315 0.071250
v -0.658511 0.082127 0.067031
v -0.658511 0.082127 0.052969
v -0.665441 0.083315 0.048750
v -0.687182 0.081333 0.052969
v -0.680252 0.080146 0.048750
v -0.680252 0.080146 0.071250
v -0.687182 0.081333 0.067031
v -0.666391 0.077771 0.048750
v -0.659461 0.076583 0.052969
v -0.659461 0.076583 0.067031
v -0.666391 0.077771 0.071250
v -0.900000 0.050000 0.040000
v -0.830000 0.070000 0.040000
v -0.840000 0.060000 0.040000
v -0.900000 0.053000 0.040000
v -0.822000 0.070000 0.040000
v -0.819000 0.067000 0.040000
v -0.840000 0.060000 0.160000
v -0.830000 0.070000 0.160000
v -0.600000 0.050000 0.040000
v -0.670000 0.070000 0.040000
v -0.660000 0.060000 0.040000
v -0.600000 0.053000 0.040000
v -0.678000 0.070000 0.040000
v -0.681000 0.067000 0.040000
v -0.819000 0.067000 0.160000
v -0.822000 0.070000 0.160000
v -0.900000 0.053000 0.160000
v -0.900000 0.050000 0.160000
v -0.678000 0.070000 0.160000
v -0.681000 0.067000 0.160000
v -0.670000 0.070000 0.160000
v -0.660000 0.060000 0.160000
v -0.600000 0.053000 0.160000
v -0.600000 0.050000 0.160000
vn 1.0000 -0.0000 -0.0000
vn -0.0000 -0.0000 -1.0000
vn -1.0000 -0.0000 -0.0000
vn -0.0000 -0.0000 1.0000
vn -0.0000 1.0000 -0.0000
vn 0.1689 0.9856 -0.0000
vn 0.9856 -0.1689 -0.0000
vn -0.9856 0.1689 -0.0000
vn 0.9853 -0.1709 -0.0000
vn 0.9853 -0.1709 -0.0002
vn -0.9860 0.1669 -0.0000
vn -0.9860 0.1669 0.0002
vn -0.0004 -0.0020 1.0000
vn -0.0001 -0.0021 1.0000
vn -0.0003 -0.0020 -1.0000
vn -0.0006 -0.0020 -1.0000
vn -0.1689 -0.9856 -0.0000
vn -0.5071 0.0869 0.8575
vn -0.5071 0.0869 -0.8575
vn 0.5071 -0.0869 -0.8575
vn 0.5071 -0.0869 0.8575
vn 0.7071 0.7071 -0.0000
vn 0.9473 0.3204 -0.0006
vn 0.3827 0.9239 -0.0000
vn 0.4357 0.9001 -0.0000
vn -0.3827 0.9239 -0.0000
vn 0.1159 0.9933 -0.0000
vn -0.4357 0.9001 -0.0000
vn -0.1159 0.9933 -0.0000
vn -0.9536 0.3011 -0.0000
vn -0.7071 0.7071 -0.0000
vn -0.9562 0.2928 -0.0000
vn -0.1689 0.9856 -0.0000
vn -0.9856 -0.1689 -0.0000
vn 0.9856 0.1689 -0.0000
vn -0.9853 -0.1710 -0.0000
vn -0.9853 -0.1710 -0.0002
vn 0.9860 0.1668 -0.0000
vn 0.9860 0.1668 0.0002
vn 0.0004 -0.0021 1.0000
vn 0.0002 -0.0021 1.0000
vn 0.0003 -0.0021 -1.0000
vn 0.0005 -0.0020 -1.0000
vn 0.1689 -0.9856 -0.0000
vn 0.5071 0.0869 0.8575
vn 0.5071 0.0869 -0.8575
vn -0.5071 -0.0869 -0.8575
vn -0.5071 -0.0869 0.8575
vn 0.9343 -0.3269 -0.1419
vn 0.9343 -0.3269 0.1419
vn 0.9853 -0.1710 0.0002
vn -0.9899 0.0028 0.1419
vn -0.9899 0.0028 -0.1419
vn -0.9860 0.1668 -0.0002
vn 0.1121 -0.1860 0.9761
vn -0.1677 -0.1381 0.9761
vn -0.0005 -0.0020 1.0000
vn -0.1677 -0.1381 -0.9761
vn 0.1121 -0.1860 -0.9761
vn -0.0002 -0.0021 -1.0000
vn -0.9473 0.3204 -0.0006
vn 0.9536 0.3011 -0.0000
vn 0.9562 0.2928 -0.0000
vn 0.9591 0.2831 -0.0000
vn -0.9591 0.2831 -0.0000
vt 0.625000 0.500000
vt 0.375000 0.750000
vt 0.375000 0.500000
vt 0.625000 0.250000
vt 0.375000 0.250000
vt 0.375000 1.000000
vt 0.625000 0.750000
vt 0.875000 0.500000
vt 0.687500 0.750000
vt 0.625000 0.687500
vt 0.687500 0.500000
vt 0.625000 0.562500
vt 0.375000 0.687500
vt 0.375000 0.562500
vt 0.625000 0.062500
vt 0.375000 0.187500
vt 0.375000 0.062500
vt 0.312500 0.562500
vt 0.312500 0.687500
vt 0.625000 0.312500
vt 0.375000 0.437500
vt 0.375000 0.312500
vt 0.187500 0.687500
vt 0.187500 0.562500
vt 0.375000 0.000000
vt 0.625000 0.187500
vt 0.625000 0.437500
vt 0.625000 0.812500
vt 0.375000 0.812500
vt 0.625000 0.937500
vt 0.375000 0.937500
vt 0.000000 0.000000
vt 0.343750 0.718750
vt 0.312500 0.750000
vt 0.330806 0.705806
vt 0.812500 0.500000
vt 0.812500 0.750000
vt 0.625000 0.000000
vt 0.625000 1.000000
vt 0.875000 0.750000
vt 0.875000 0.562500
vt 0.875000 0.687500
s 0
f 4/1/1 1/2/1 3/3/1
f 7/3/2 4/4/2 3/5/2
f 5/2/3 8/1/3 7/3/3
f 1/6/4 6/7/4 5/2/4
f 6/7/5 4/8/5 8/1/5
f 18/9/6 19/10/6 21/11/6
f 20/12/7 28/13/7 27/14/7
f 14/15/8 22/16/8 25/17/8
f 12/18/9 11/19/9 13/18/10
f 16/20/2 26/21/2 23/22/2
f 9/23/11 10/24/11 13/23/12
f 11/19/13 9/23/13 13/19/14
f 10/24/15 12/18/15 13/24/16
f 24/25/17 25/17/17 23/22/17
f 24/25/18 14/15/18 25/17/18
f 23/22/19 17/26/19 16/20/19
f 27/14/20 21/27/20 20/12/20
f 18/28/21 28/13/21 19/10/21
f 29/29/4 15/30/4 24/31/4
f 39/9/6 40/10/6 42/11/6
f 41/12/7 49/13/7 48/14/7
f 35/15/8 43/16/8 46/17/8
f 33/18/9 32/19/9 34/18/10
f 37/20/2 47/21/2 44/22/2
f 30/23/11 31/24/11 34/23/12
f 32/19/13 30/23/13 34/19/14
f 31/24/15 33/18/15 34/24/16
f 50/32/17 45/32/17 47/32/17
f 49/33/17 50/34/17 32/35/17
f 45/25/18 35/15/18 46/17/18
f 44/22/19 38/26/19 37/20/19
f 48/14/20 42/27/20 41/12/20
f 39/28/21 49/13/21 40/10/21
f 50/29/4 36/30/4 45/31/4
s 1
f 72/32/4 68/32/4 57/32/4
f 53/32/2 61/32/2 64/32/2
f 69/32/22 64/32/23 63/32/22
f 58/32/24 53/32/25 52/32/24
f 71/32/26 63/32/5 60/32/26
f 57/32/25 54/32/27 53/32/25
f 72/32/28 60/32/26 61/32/28
f 67/32/1 51/32/1 54/32/1
f 73/32/29 61/32/28 62/32/29
f 74/32/3 62/32/3 59/32/3
f 65/32/30 55/32/31 56/32/32
f 66/32/5 52/32/24 55/32/5
s 0
f 82/36/33 87/11/33 81/37/33
f 94/13/34 86/12/34 93/14/34
f 88/16/35 80/15/35 91/17/35
f 78/18/36 79/18/37 77/19/36
f 92/21/2 82/20/2 89/22/2
f 75/23/38 79/23/39 76/24/38
f 77/19/40 79/19/41 75/23/40
f 76/24/42 79/24/43 78/18/42
f 89/32/44 88/32/44 90/32/44
f 94/33/44 77/35/44 95/34/44
f 90/25/45 80/15/45 81/38/45
f 83/26/46 89/22/46 82/20/46
f 87/27/47 93/14/47 86/12/47
f 84/28/48 94/13/48 95/29/48
f 95/29/4 81/30/4 84/28/4
f 105/9/6 106/10/6 108/11/6
f 107/12/7 115/13/7 114/14/7
f 101/15/8 109/16/8 112/17/8
f 99/18/49 98/19/50 100/18/51
f 103/20/2 113/21/2 110/22/2
f 96/23/52 97/24/53 100/23/54
f 98/19/55 96/23/56 100/19/57
f 97/24/58 99/18/59 100/24/60
f 111/25/17 112/17/17 110/22/17
f 111/25/18 101/15/18 112/17/18
f 110/22/19 104/26/19 103/20/19
f 114/14/20 108/27/20 107/12/20
f 105/28/21 115/13/21 106/10/21
f 116/29/4 102/30/4 111/31/4
s 1
f 123/32/4 138/32/4 136/32/4
f 127/32/2 117/32/2 119/32/2
f 130/32/61 135/32/31 129/32/31
f 119/32/28 124/32/26 118/32/26
f 129/32/5 137/32/24 126/32/24
f 120/32/29 123/32/28 119/32/28
f 126/32/24 138/32/25 127/32/25
f 117/32/3 133/32/3 120/32/3
f 127/32/25 139/32/27 128/32/27
f 128/32/1 140/32/1 125/32/1
f 121/32/22 131/32/62 122/32/63
f 118/32/26 132/32/5 121/32/5
s 0
f 4/1/1 2/7/1 1/2/1
f 7/3/2 8/1/2 4/4/2
f 5/2/3 6/7/3 8/1/3
f 1/6/4 2/39/4 6/7/4
f 6/7/5 2/40/5 4/8/5
f 19/10/6 20/12/6 21/11/6
f 21/11/6 16/36/6 15/37/6
f 16/36/6 17/41/6 15/37/6
f 17/41/6 14/42/6 15/37/6
f 15/37/6 18/9/6 21/11/6
f 20/12/7 19/10/7 28/13/7
f 14/15/8 17/26/8 22/16/8
f 16/20/2 21/27/2 26/21/2
f 25/17/17 22/16/17 23/22/17
f 23/22/17 26/21/17 29/29/17
f 26/21/17 27/14/17 29/29/17
f 27/14/17 28/13/17 29/29/17
f 29/29/17 24/25/17 23/22/17
f 24/25/18 15/38/18 14/15/18
f 23/22/19 22/16/19 17/26/19
f 27/14/20 26/21/20 21/27/20
f 18/28/21 29/29/21 28/13/21
f 29/29/4 18/28/4 15/30/4
f 40/10/6 41/12/6 42/11/6
f 42/11/6 37/36/6 36/37/6
f 37/36/6 38/41/6 36/37/6
f 38/41/6 35/42/6 36/37/6
f 36/37/6 39/9/6 42/11/6
f 41/12/7 40/10/7 49/13/7
f 35/15/8 38/26/8 43/16/8
f 37/20/2 42/27/2 47/21/2
f 45/32/17 46/32/17 43/32/17
f 43/32/17 44/32/17 45/32/17
f 44/32/17 47/32/17 45/32/17
f 47/32/17 48/32/17 32/32/17
f 48/32/17 49/32/17 32/32/17
f 32/32/17 50/32/17 47/32/17
f 45/25/18 36/38/18 35/15/18
f 44/22/19 43/16/19 38/26/19
f 48/14/20 47/21/20 42/27/20
f 39/28/21 50/29/21 49/13/21
f 50/29/4 39/28/4 36/30/4
s 1
f 58/32/4 66/32/4 65/32/4
f 70/32/4 69/32/4 71/32/4
f 57/32/4 58/32/4 65/32/4
f 70/32/4 71/32/4 72/32/4
f 57/32/4 65/32/4 70/32/4
f 68/32/4 67/32/4 57/32/4
f 73/32/4 74/32/4 72/32/4
f 74/32/4 68/32/4 72/32/4
f 57/32/4 70/32/4 72/32/4
f 56/32/2 55/32/2 52/32/2
f 53/32/2 54/32/2 51/32/2
f 56/32/2 52/32/2 53/32/2
f 60/32/2 63/32/2 64/32/2
f 64/32/2 56/32/2 53/32/2
f 53/32/2 51/32/2 59/32/2
f 59/32/2 62/32/2 61/32/2
f 61/32/2 60/32/2 64/32/2
f 53/32/2 59/32/2 61/32/2
f 69/32/22 70/32/64 64/32/23
f 58/32/24 57/32/25 53/32/25
f 71/32/26 69/32/5 63/32/5
f 57/32/25 67/32/27 54/32/27
f 72/32/28 71/32/26 60/32/26
f 67/32/1 68/32/1 51/32/1
f 73/32/29 72/32/28 61/32/28
f 74/32/3 73/32/3 62/32/3
f 65/32/30 66/32/31 55/32/31
f 66/32/5 58/32/24 52/32/24
s 0
f 87/11/33 86/12/33 85/10/33
f 85/10/33 84/9/33 87/11/33
f 84/9/33 81/37/33 87/11/33
f 81/37/33 80/42/33 83/41/33
f 83/41/33 82/36/33 81/37/33
f 94/13/34 85/10/34 86/12/34
f 88/16/35 83/26/35 80/15/35
f 92/21/2 87/27/2 82/20/2
f 88/32/44 91/32/44 90/32/44
f 90/32/44 95/32/44 92/32/44
f 95/32/44 77/32/44 92/32/44
f 77/32/44 94/32/44 93/32/44
f 93/32/44 92/32/44 77/32/44
f 92/32/44 89/32/44 90/32/44
f 90/25/45 91/17/45 80/15/45
f 83/26/46 88/16/46 89/22/46
f 87/27/47 92/21/47 93/14/47
f 84/28/48 85/10/48 94/13/48
f 95/29/4 90/31/4 81/30/4
f 106/10/6 107/12/6 108/11/6
f 108/11/6 103/36/6 102/37/6
f 103/36/6 104/41/6 102/37/6
f 104/41/6 101/42/6 102/37/6
f 102/37/6 105/9/6 108/11/6
f 107/12/7 106/10/7 115/13/7
f 101/15/8 104/26/8 109/16/8
f 103/20/2 108/27/2 113/21/2
f 112/17/17 109/16/17 110/22/17
f 110/22/17 113/21/17 116/29/17
f 113/21/17 114/14/17 116/29/17
f 114/14/17 115/13/17 116/29/17
f 116/29/17 111/25/17 110/22/17
f 111/25/18 102/38/18 101/15/18
f 110/22/19 109/16/19 104/26/19
f 114/14/20 113/21/20 108/27/20
f 105/28/21 116/29/21 115/13/21
f 116/29/4 105/28/4 102/30/4
s 1
f 131/32/4 132/32/4 124/32/4
f 123/32/4 133/32/4 134/32/4
f 131/32/4 124/32/4 123/32/4
f 137/32/4 135/32/4 136/32/4
f 136/32/4 131/32/4 123/32/4
f 123/32/4 134/32/4 140/32/4
f 140/32/4 139/32/4 138/32/4
f 138/32/4 137/32/4 136/32/4
f 123/32/4 140/32/4 138/32/4
f 118/32/2 121/32/2 122/32/2
f 130/32/2 129/32/2 126/32/2
f 119/32/2 118/32/2 122/32/2
f 130/32/2 126/32/2 127/32/2
f 119/32/2 122/32/2 130/32/2
f 117/32/2 120/32/2 119/32/2
f 128/32/2 125/32/2 127/32/2
f 125/32/2 117/32/2 127/32/2
f 119/32/2 130/32/2 127/32/2
f 130/32/61 136/32/65 135/32/31
f 119/32/28 123/32/28 124/32/26
f 129/32/5 135/32/5 137/32/24
f 120/32/29 133/32/29 123/32/28
f 126/32/24 137/32/24 138/32/25
f 117/32/3 134/32/3 133/32/3
f 127/32/25 138/32/25 139/32/27
f 128/32/1 139/32/1 140/32/1
f 121/32/22 132/32/22 131/32/62
f 118/32/26 124/32/26 132/32/5
