# Blender 4.4.0
# www.blender.org
mtllib Track_1m.mtl
g Track_1m_Mesh
v 0.680000 0.060000 1.000000
v 0.680000 0.060000 -0.000000
v 0.820000 0.060000 1.000000
v 0.820000 0.060000 -0.000000
v 0.684932 0.070822 1.000000
v 0.680000 0.065000 1.000000
v 0.681445 0.068776 1.000000
v 0.680000 0.065000 -0.000000
v 0.684932 0.070822 -0.000000
v 0.681445 0.068776 -0.000000
v 0.820000 0.065000 1.000000
v 0.815068 0.070822 1.000000
v 0.818555 0.068776 1.000000
v 0.815068 0.070822 -0.000000
v 0.820000 0.065000 -0.000000
v 0.818555 0.068776 -0.000000
v 0.740000 0.085000 1.000000
v 0.735068 0.079178 1.000000
v 0.738556 0.081224 1.000000
v 0.735068 0.079178 -0.000000
v 0.740000 0.085000 0.000000
v 0.738556 0.081224 -0.000000
v 0.760000 0.085000 0.000000
v 0.764932 0.079178 -0.000000
v 0.761444 0.081224 -0.000000
v 0.764932 0.079178 1.000000
v 0.760000 0.085000 1.000000
v 0.761444 0.081224 1.000000
v 0.735138 0.161167 1.000000
v 0.740000 0.155000 1.000000
v 0.738576 0.158877 1.000000
v 0.740000 0.155000 0.000000
v 0.735138 0.161167 -0.000000
v 0.738576 0.158877 -0.000000
v 0.764862 0.161167 -0.000000
v 0.760000 0.155000 0.000000
v 0.761424 0.158877 -0.000000
v 0.760000 0.155000 1.000000
v 0.764862 0.161167 1.000000
v 0.761424 0.158877 1.000000
v 0.715000 0.171000 1.000000
v 0.719862 0.164833 1.000000
v 0.716424 0.167123 1.000000
v 0.719862 0.164833 -0.000000
v 0.715000 0.171000 -0.000000
v 0.716424 0.167123 -0.000000
v 0.785000 0.171000 -0.000000
v 0.780138 0.164833 -0.000000
v 0.783576 0.167123 -0.000000
v 0.780138 0.164833 1.000000
v 0.785000 0.171000 1.000000
v 0.783576 0.167123 1.000000
v 0.720000 0.200000 1.000000
v 0.715000 0.195000 1.000000
v 0.716464 0.198536 1.000000
v 0.715000 0.195000 -0.000000
v 0.720000 0.200000 -0.000000
v 0.716464 0.198536 -0.000000
v 0.780000 0.200000 -0.000000
v 0.785000 0.195000 -0.000000
v 0.783536 0.198536 -0.000000
v 0.785000 0.195000 1.000000
v 0.780000 0.200000 1.000000
v 0.783536 0.198536 1.000000
v -0.680000 0.060000 1.000000
v -0.680000 0.060000 -0.000000
v -0.820000 0.060000 1.000000
v -0.820000 0.060000 -0.000000
v -0.684932 0.070822 1.000000
v -0.680000 0.065000 1.000000
v -0.681445 0.068776 1.000000
v -0.680000 0.065000 -0.000000
v -0.684932 0.070822 -0.000000
v -0.681445 0.068776 -0.000000
v -0.820000 0.065000 1.000000
v -0.815068 0.070822 1.000000
v -0.818555 0.068776 1.000000
v -0.815068 0.070822 -0.000000
v -0.820000 0.065000 -0.000000
v -0.818555 0.068776 -0.000000
v -0.740000 0.085000 1.000000
v -0.735068 0.079178 1.000000
v -0.738556 0.081224 1.000000
v -0.735068 0.079178 -0.000000
v -0.740000 0.085000 0.000000
v -0.738556 0.081224 -0.000000
v -0.760000 0.085000 0.000000
v -0.764932 0.079178 -0.000000
v -0.761444 0.081224 -0.000000
v -0.764932 0.079178 1.000000
v -0.760000 0.085000 1.000000
v -0.761444 0.081224 1.000000
v -0.735138 0.161167 1.000000
v -0.740000 0.155000 1.000000
v -0.738576 0.158877 1.000000
v -0.740000 0.155000 0.000000
v -0.735138 0.161167 -0.000000
v -0.738576 0.158877 -0.000000
v -0.764862 0.161167 -0.000000
v -0.760000 0.155000 0.000000
v -0.761424 0.158877 -0.000000
v -0.760000 0.155000 1.000000
v -0.764862 0.161167 1.000000
v -0.761424 0.158877 1.000000
v -0.715000 0.171000 1.000000
v -0.719862 0.164833 1.000000
v -0.716424 0.167123 1.000000
v -0.719862 0.164833 -0.000000
v -0.715000 0.171000 -0.000000
v -0.716424 0.167123 -0.000000
v -0.785000 0.171000 -0.000000
v -0.780138 0.164833 -0.000000
v -0.783576 0.167123 -0.000000
v -0.780138 0.164833 1.000000
v -0.785000 0.171000 1.000000
v -0.783576 0.167123 1.000000
v -0.720000 0.200000 1.000000
v -0.715000 0.195000 1.000000
v -0.716464 0.198536 1.000000
v -0.715000 0.195000 -0.000000
v -0.720000 0.200000 -0.000000
v -0.716464 0.198536 -0.000000
v -0.780000 0.200000 -0.000000
v -0.785000 0.195000 -0.000000
v -0.783536 0.198536 -0.000000
v -0.785000 0.195000 1.000000
v -0.780000 0.200000 1.000000
v -0.783536 0.198536 1.000000
vn -1.0000 -0.0000 -0.0000
vn 1.0000 -0.0000 -0.0000
vn -0.3409 0.9401 -0.0000
vn -0.9834 0.1817 -0.0000
vn -0.7630 0.6464 -0.0000
vn 0.9834 0.1817 -0.0000
vn 0.3409 0.9401 -0.0000
vn 0.7630 0.6464 -0.0000
vn -0.3408 0.9401 -0.0000
vn 0.3408 0.9401 -0.0000
vn -0.4000 -0.9165 -0.0000
vn -0.9846 -0.1751 -0.0000
vn -0.7853 -0.6191 -0.0000
vn 0.4000 -0.9165 -0.0000
vn 0.9846 -0.1751 -0.0000
vn 0.7853 -0.6191 -0.0000
vn -0.1951 0.9808 -0.0000
vn -0.9808 0.1951 -0.0000
vn -0.7071 0.7071 -0.0000
vn 0.1951 0.9808 -0.0000
vn 0.9808 0.1951 -0.0000
vn 0.7071 0.7071 -0.0000
vt 0.521981 0.000000
vt 0.572808 1.000000
vt 0.521981 1.000000
vt 0.582808 0.000000
vt 0.652808 1.000000
vt 0.582808 1.000000
vt 0.983056 1.000000
vt 0.932228 0.000000
vt 0.983056 0.000000
vt 0.993056 1.000000
vt 0.998056 0.000000
vt 0.998056 1.000000
vt 0.688518 0.000000
vt 0.712518 1.000000
vt 0.688518 1.000000
vt 0.662808 1.000000
vt 0.678518 0.000000
vt 0.678518 1.000000
vt 0.922228 1.000000
vt 0.852228 0.000000
vt 0.922228 0.000000
vt 0.842228 1.000000
vt 0.826518 0.000000
vt 0.842228 0.000000
vt 0.722518 1.000000
vt 0.782518 0.000000
vt 0.782518 1.000000
vt 0.816518 1.000000
vt 0.792518 0.000000
vt 0.816518 0.000000
vt 0.516981 0.000000
vt 0.516981 1.000000
vt 0.511981 0.000000
vt 0.988056 1.000000
vt 0.988056 0.000000
vt 0.577808 0.000000
vt 0.577808 1.000000
vt 0.572809 0.000000
vt 0.927228 1.000000
vt 0.927228 0.000000
vt 0.932228 1.000000
vt 0.657808 0.000000
vt 0.662808 0.000000
vt 0.657808 1.000000
vt 0.652808 0.000000
vt 0.847228 1.000000
vt 0.847228 0.000000
vt 0.852228 1.000000
vt 0.683518 0.000000
vt 0.683518 1.000000
vt 0.821518 1.000000
vt 0.821518 0.000000
vt 0.826518 1.000000
vt 0.717518 0.000000
vt 0.722518 0.000000
vt 0.717518 1.000000
vt 0.712518 0.000000
vt 0.787518 1.000000
vt 0.787518 0.000000
vt 0.792518 1.000000
vt 0.506981 1.000000
vt 0.506981 0.000000
vt 0.993056 0.000000
vt 0.511981 1.000000
s 1
usemtl Rail
f 5/1/3 20/2/9 9/3/3
f 17/4/4 32/5/12 21/6/4
f 14/7/7 26/8/10 12/9/7
f 15/10/6 3/11/2 4/12/2
f 41/13/12 56/14/18 45/15/12
f 33/16/11 42/17/11 44/18/11
f 23/19/6 38/20/15 27/21/6
f 35/22/14 50/23/14 39/24/14
f 57/25/17 63/26/20 59/27/20
f 47/28/15 62/29/21 51/30/15
f 9/3/3 7/31/5 5/1/3
f 10/32/5 6/33/4 7/31/5
f 12/9/7 16/34/8 14/7/7
f 13/35/8 15/10/6 16/34/8
f 21/6/4 19/36/5 17/4/4
f 22/37/5 18/38/9 19/36/5
f 27/21/6 25/39/8 23/19/6
f 28/40/8 24/41/10 25/39/8
f 33/16/11 31/42/13 29/43/11
f 34/44/13 30/45/12 31/42/13
f 39/24/14 37/46/16 35/22/14
f 40/47/16 36/48/15 37/46/16
f 45/15/12 43/49/13 41/13/12
f 46/50/13 42/17/11 43/49/13
f 51/30/15 49/51/16 47/28/15
f 52/52/16 48/53/14 49/51/16
f 57/25/17 55/54/19 53/55/17
f 58/56/19 54/57/18 55/54/19
f 63/26/20 61/58/22 59/27/20
f 64/59/22 60/60/21 61/58/22
f 6/33/4 2/61/1 1/62/1
f 84/2/10 69/1/7 73/3/7
f 96/5/15 81/4/6 85/6/6
f 90/8/9 78/7/3 76/9/3
f 67/11/1 79/10/4 68/12/1
f 120/14/21 105/13/15 109/15/15
f 97/16/14 106/17/14 93/43/14
f 102/20/12 87/19/4 91/21/4
f 114/23/11 99/22/11 103/24/11
f 127/26/17 121/25/20 123/27/17
f 126/29/18 111/28/12 115/30/12
f 71/31/8 73/3/7 69/1/7
f 70/33/6 74/32/8 71/31/8
f 80/34/5 76/9/3 78/7/3
f 79/10/4 77/35/5 80/34/5
f 83/36/8 85/6/6 81/4/6
f 82/38/10 86/37/8 83/36/8
f 89/39/5 91/21/4 87/19/4
f 88/41/9 92/40/5 89/39/5
f 95/42/16 97/16/14 93/43/14
f 94/45/15 98/44/16 95/42/16
f 101/46/13 103/24/11 99/22/11
f 100/48/12 104/47/13 101/46/13
f 107/49/16 109/15/15 105/13/15
f 106/17/14 110/50/16 107/49/16
f 113/51/13 115/30/12 111/28/12
f 112/53/11 116/52/13 113/51/13
f 119/54/22 121/25/20 117/55/20
f 118/57/21 122/56/22 119/54/22
f 125/58/19 127/26/17 123/27/17
f 124/60/18 128/59/19 125/58/19
f 66/61/2 70/33/6 65/62/2
f 5/1/3 18/38/9 20/2/9
f 17/4/4 30/45/12 32/5/12
f 14/7/7 24/41/10 26/8/10
f 15/10/6 11/63/6 3/11/2
f 41/13/12 54/57/18 56/14/18
f 33/16/11 29/43/11 42/17/11
f 23/19/6 36/48/15 38/20/15
f 35/22/14 48/53/14 50/23/14
f 57/25/17 53/55/17 63/26/20
f 47/28/15 60/60/21 62/29/21
f 9/3/3 10/32/5 7/31/5
f 10/32/5 8/64/4 6/33/4
f 12/9/7 13/35/8 16/34/8
f 13/35/8 11/63/6 15/10/6
f 21/6/4 22/37/5 19/36/5
f 22/37/5 20/2/9 18/38/9
f 27/21/6 28/40/8 25/39/8
f 28/40/8 26/8/10 24/41/10
f 33/16/11 34/44/13 31/42/13
f 34/44/13 32/5/12 30/45/12
f 39/24/14 40/47/16 37/46/16
f 40/47/16 38/20/15 36/48/15
f 45/15/12 46/50/13 43/49/13
f 46/50/13 44/18/11 42/17/11
f 51/30/15 52/52/16 49/51/16
f 52/52/16 50/23/14 48/53/14
f 57/25/17 58/56/19 55/54/19
f 58/56/19 56/14/18 54/57/18
f 63/26/20 64/59/22 61/58/22
f 64/59/22 62/29/21 60/60/21
f 6/33/4 8/64/4 2/61/1
f 84/2/10 82/38/10 69/1/7
f 96/5/15 94/45/15 81/4/6
f 90/8/9 88/41/9 78/7/3
f 67/11/1 75/63/4 79/10/4
f 120/14/21 118/57/21 105/13/15
f 97/16/14 108/18/14 106/17/14
f 102/20/12 100/48/12 87/19/4
f 114/23/11 112/53/11 99/22/11
f 127/26/17 117/55/20 121/25/20
f 126/29/18 124/60/18 111/28/12
f 71/31/8 74/32/8 73/3/7
f 70/33/6 72/64/6 74/32/8
f 80/34/5 77/35/5 76/9/3
f 79/10/4 75/63/4 77/35/5
f 83/36/8 86/37/8 85/6/6
f 82/38/10 84/2/10 86/37/8
f 89/39/5 92/40/5 91/21/4
f 88/41/9 90/8/9 92/40/5
f 95/42/16 98/44/16 97/16/14
f 94/45/15 96/5/15 98/44/16
f 101/46/13 104/47/13 103/24/11
f 100/48/12 102/20/12 104/47/13
f 107/49/16 110/50/16 109/15/15
f 106/17/14 108/18/14 110/50/16
f 113/51/13 116/52/13 115/30/12
f 112/53/11 114/23/11 116/52/13
f 119/54/22 122/56/22 121/25/20
f 118/57/21 120/14/21 122/56/22
f 125/58/19 128/59/19 127/26/17
f 124/60/18 126/29/18 128/59/19
f 66/61/2 72/64/6 70/33/6
