# Blender 5.1.0
# www.blender.org
mtllib AutoStopCableUpgrade2.mtl
o BézierCurve.016
v -0.603381 2.518064 -1.804944
v -0.601294 2.518064 -1.790090
v -0.600344 2.505075 -1.782650
v -0.601481 2.492084 -1.790064
v -0.603568 2.492084 -1.804918
v -0.604518 2.505075 -1.812358
v -0.561852 2.497477 -1.812646
v -0.558724 2.497020 -1.797983
v -0.566395 2.487814 -1.788961
v -0.577195 2.479065 -1.794602
v -0.580323 2.479522 -1.809265
v -0.572652 2.488728 -1.818287
v -0.539684 2.446621 -1.821057
v -0.536123 2.445382 -1.806539
v -0.546516 2.441102 -1.796606
v -0.560471 2.438060 -1.801192
v -0.564031 2.439299 -1.815711
v -0.549572 2.430019 -1.827609
v -0.530803 2.375243 -1.831031
v -0.527146 2.373415 -1.816599
v -0.537891 2.371286 -1.806351
v -0.550424 2.350000 -1.813080
v -0.555949 2.372812 -1.824968
v -0.531554 2.259274 -1.847929
v -0.526967 2.285399 -1.829390
v -0.539625 2.232227 -1.827046
v -0.557170 2.248955 -1.842882
v -0.546400 2.250756 -1.853257
v -0.535647 2.148447 -1.852250
v -0.563998 2.110054 -1.853743
v -0.551164 2.021128 -1.895314
v -0.558367 2.017462 -1.870553
v -0.576750 2.017381 -1.890087
v -0.565767 2.019777 -1.900018
v -0.557191 1.911436 -1.912040
v -0.576543 1.977852 -1.886349
v -0.562706 1.884725 -1.938454
v -0.570182 1.876143 -1.915099
v -0.584522 1.878465 -1.918836
v -0.587954 1.883917 -1.932382
v -0.577046 1.887047 -1.942191
v -0.566197 1.800015 -1.976508
v -0.562816 1.792914 -1.963735
v -0.573781 1.787925 -1.954798
v -0.588128 1.790036 -1.958634
v -0.591509 1.797137 -1.971407
v -0.580544 1.802127 -1.980344
v -0.563050 1.733798 -2.021005
v -0.559506 1.724332 -2.009922
v -0.570276 1.716506 -2.003012
v -0.584591 1.718146 -2.007185
v -0.588134 1.727612 -2.018268
v -0.577364 1.735438 -2.025178
v -0.551327 1.691370 -2.071687
v -0.546933 1.679259 -2.064005
v -0.556649 1.668153 -2.061313
v -0.570759 1.669158 -2.066302
v -0.575153 1.681270 -2.073983
v -0.565437 1.692376 -2.076676
v -0.528642 1.676437 -2.130776
v -0.522976 1.663344 -2.126142
v -0.530621 1.650640 -2.128413
v -0.543933 1.651029 -2.135316
v -0.549599 1.664122 -2.139950
v -0.541953 1.676826 -2.137679
v -0.480151 1.677138 -2.205169
v -0.474666 1.664061 -2.200279
v -0.480169 1.651161 -2.205598
v -0.491157 1.651336 -2.215807
v -0.496642 1.664413 -2.220698
v -0.491139 1.677314 -2.215379
v -0.417306 1.678518 -2.253150
v -0.413634 1.665401 -2.246867
v -0.416996 1.652548 -2.253830
v -0.424031 1.652811 -2.267075
v -0.427703 1.665927 -2.273358
v -0.424341 1.678781 -2.266395
v -0.343156 1.680676 -2.277960
v -0.341377 1.667505 -2.271006
v -0.342492 1.654716 -2.278766
v -0.345386 1.655099 -2.293479
v -0.347165 1.668270 -2.300433
v -0.346050 1.681059 -2.292673
v -0.260088 1.683506 -2.283204
v -0.259816 1.670284 -2.276126
v -0.259129 1.657556 -2.284034
v -0.258713 1.658051 -2.299020
v -0.258985 1.671273 -2.306098
v -0.259672 1.684001 -2.298190
v -0.170955 1.686890 -2.272320
v -0.171733 1.673628 -2.265354
v -0.169776 1.660949 -2.273126
v -0.167040 1.661531 -2.287863
v -0.166262 1.674793 -2.294828
v -0.168219 1.687472 -2.287057
v -0.051924 1.691801 -2.241066
v -0.080302 1.677409 -2.242104
v -0.051037 1.665848 -2.242022
v -0.030940 1.667216 -2.251077
v -0.044720 1.679839 -2.262998
v -0.033032 1.693120 -2.250570
v 0.011302 1.681494 -2.210022
v 0.120499 1.699901 -2.171367
v 0.126622 1.687021 -2.161096
v 0.119312 1.673831 -2.173362
v 0.146665 1.675550 -2.177258
v 0.128123 1.687960 -2.193312
v 0.132716 1.700991 -2.182315
v 0.346998 1.713145 -2.063159
v 0.336116 1.699038 -2.060608
v 0.350521 1.687359 -2.062818
v 0.326491 1.699292 -2.097897
v 0.320942 1.711798 -2.091595
v 0.368816 1.689198 -2.072224
v 0.404085 1.707054 -2.066742
v 0.392237 1.718351 -2.062364
v 0.416328 1.724589 -2.037501
v 0.417277 1.712104 -2.029498
v 0.424423 1.699884 -2.035724
v 0.429116 1.700804 -2.049698
v 0.459460 1.726631 -2.043811
v 0.449261 1.737038 -2.039254
v 0.472503 1.753152 -2.011834
v 0.474454 1.740539 -2.003633
v 0.485491 1.731012 -2.007687
v 0.486526 1.728756 -2.023762
v 0.511690 1.760799 -2.018893
v 0.501566 1.770863 -2.014376
v 0.524645 1.793915 -1.987301
v 0.532200 1.785606 -1.976639
v 0.534731 1.769187 -1.984342
v 0.539934 1.769422 -1.998453
v 0.566537 1.806845 -1.995186
v 0.555742 1.816387 -1.991042
v 0.578915 1.839205 -1.968239
v 0.579588 1.825608 -1.959672
v 0.590682 1.816203 -1.963858
v 0.593714 1.814737 -1.978605
v 0.613588 1.842681 -1.983167
v 0.603801 1.853349 -1.978478
v 0.631500 1.871657 -1.961200
v 0.630803 1.858633 -1.951707
v 0.641400 1.848012 -1.956667
v 0.638796 1.843880 -1.971650
v 0.666250 1.866208 -1.981901
v 0.659707 1.879601 -1.976495
v 0.674302 1.884737 -1.963846
v 0.678531 1.873934 -1.954265
v 0.682108 1.860105 -1.959364
v 0.677863 1.856487 -1.973550
v 0.800056 1.898954 -1.989357
v 0.804608 1.888247 -1.979889
v 0.807366 1.874410 -1.984980
v 0.805572 1.871279 -1.999540
v 0.801020 1.881986 -2.009008
v 0.798262 1.895823 -2.003917
v 0.869563 1.928231 -1.999818
v 0.876528 1.918563 -1.990707
v 0.883332 1.906467 -1.996398
v 0.883171 1.904039 -2.011199
v 0.876206 1.913707 -2.020310
v 0.869402 1.925803 -2.014620
v 0.921779 1.972477 -2.003237
v 0.930768 1.964500 -1.994261
v 0.941010 1.955277 -2.000180
v 0.942262 1.954030 -2.015076
v 0.933273 1.962007 -2.024052
v 0.923031 1.971230 -2.018132
v 0.959628 2.028781 -2.000674
v 0.969891 2.022637 -1.991622
v 0.982333 2.016581 -1.997411
v 0.984513 2.016669 -2.012252
v 0.974250 2.022813 -2.021303
v 0.961808 2.028869 -2.015514
v 0.985249 2.094126 -1.993022
v 0.996142 2.089519 -1.983795
v 1.009705 2.086197 -1.989273
v 1.012376 2.087483 -2.003977
v 1.001483 2.092090 -2.013204
v 0.987920 2.095411 -2.007726
v 1.000499 2.164960 -1.981208
v 1.015489 2.185147 -1.967566
v 1.030769 2.194472 -1.970517
v 1.028584 2.162527 -1.991470
v 1.017436 2.166011 -2.000881
v 1.003393 2.167227 -1.995750
v 1.007349 2.237450 -1.966243
v 1.037378 2.264000 -1.970037
v 1.026147 2.278472 -1.976930
v 1.012000 2.267624 -1.974820
v 1.006914 2.339568 -1.941017
v 1.018374 2.333387 -1.932392
v 1.032604 2.333392 -1.937188
v 1.030845 2.400237 -1.932753
v 1.018460 2.414897 -1.938211
v 1.003785 2.417275 -1.932274
v 0.995414 2.458209 -1.900717
v 1.006964 2.454517 -1.891784
v 1.020962 2.457682 -1.895849
v 1.019992 2.498453 -1.890163
v 1.011029 2.477261 -1.913045
v 0.996960 2.473764 -1.909192
v 0.992131 2.489954 -1.881527
v 1.003694 2.483197 -1.874770
v 1.017751 2.486900 -1.878472
v 1.008682 2.504115 -1.895688
v 0.994626 2.500413 -1.891986
vn 0.3253 0.8260 -0.4604
vn 0.4678 0.8080 0.3583
vn 0.2430 0.1368 0.9603
vn -0.2848 -0.7475 0.6001
vn -0.4829 -0.7455 -0.4594
vn -0.1144 0.1445 -0.9829
vn 0.5316 0.6368 -0.5585
vn 0.7192 0.6042 0.3430
vn 0.2790 0.0459 0.9592
vn -0.4774 -0.5823 0.6581
vn -0.7230 -0.5547 -0.4117
vn -0.1393 0.1065 -0.9845
vn 0.7093 0.3018 -0.6370
vn 0.9332 0.2112 0.2908
vn 0.2804 -0.0669 0.9575
vn -0.6777 -0.2772 0.6811
vn -0.9209 -0.2128 -0.3267
vn -0.1500 0.1135 -0.9822
vn 0.7152 0.1360 -0.6856
vn 0.9604 0.0180 0.2782
vn 0.2579 -0.1248 0.9581
vn -0.6745 -0.1158 0.7291
vn -0.9720 -0.0221 -0.2340
vn 0.7319 0.0743 -0.6773
vn 0.9596 -0.0528 0.2762
vn 0.2675 -0.1765 0.9473
vn -0.9471 0.0993 -0.3051
vn -0.2625 0.1763 -0.9487
vn 0.9381 -0.1426 0.3156
vn -0.6596 -0.0962 0.7455
vn 0.6958 0.1154 -0.7089
vn 0.2541 -0.2578 0.9322
vn -0.9632 0.1465 -0.2254
vn -0.2413 0.2658 -0.9333
vn 0.9242 -0.1826 0.3355
vn -0.7136 -0.1534 0.6836
vn 0.7267 0.2165 -0.6520
vn 0.2291 -0.3701 0.9003
vn -0.7174 -0.2108 0.6640
vn -0.9596 0.1503 -0.2381
vn -0.2396 0.3594 -0.9019
vn 0.7333 0.3290 -0.5950
vn 0.9503 -0.1518 0.2719
vn 0.2113 -0.4752 0.8541
vn -0.7234 -0.3372 0.6025
vn -0.9646 0.1267 -0.2311
vn -0.2433 0.4709 -0.8480
vn 0.7305 0.5128 -0.4510
vn 0.9394 -0.1425 0.3117
vn 0.2068 -0.6390 0.7409
vn -0.7065 -0.5298 0.4692
vn -0.9666 0.0763 -0.2446
vn -0.2679 0.6221 -0.7357
vn 0.6669 0.7264 -0.1661
vn 0.9236 -0.1304 0.3606
vn 0.2555 -0.8222 0.5087
vn -0.6324 -0.7510 0.1897
vn -0.9527 0.0027 -0.3040
vn -0.3447 0.7839 -0.5165
vn 0.5018 0.8523 0.1479
vn 0.8833 -0.0674 0.4640
vn 0.3398 -0.8932 0.2944
vn -0.5148 -0.8435 -0.1529
vn -0.8893 -0.0108 -0.4573
vn -0.4166 0.8487 -0.3259
vn 0.3375 0.8824 0.3277
vn 0.7327 -0.0160 0.6804
vn 0.3308 -0.8968 0.2940
vn -0.3953 -0.8364 -0.3798
vn -0.7322 0.0108 -0.6810
vn -0.3918 0.8502 -0.3516
vn 0.2048 0.8797 0.4292
vn 0.4686 -0.0203 0.8832
vn 0.2251 -0.8968 0.3808
vn -0.2414 -0.8346 -0.4951
vn -0.4693 0.0152 -0.8829
vn -0.2626 0.8520 -0.4530
vn 0.0676 0.8707 0.4872
vn 0.1924 -0.0277 0.9809
vn 0.1125 -0.8955 0.4307
vn -0.0807 -0.8346 -0.5450
vn -0.1935 0.0235 -0.9808
vn -0.1244 0.8604 -0.4942
vn -0.0458 0.8615 0.5057
vn -0.0281 -0.0346 0.9990
vn 0.0190 -0.8937 0.4483
vn 0.0457 -0.8355 -0.5476
vn 0.0273 0.0315 -0.9991
vn -0.0172 0.8690 -0.4944
vn -0.1305 0.8513 0.5082
vn -0.1850 -0.0407 0.9819
vn -0.0502 -0.8910 0.4513
vn 0.1349 -0.8390 -0.5272
vn 0.1872 0.0369 -0.9816
vn 0.0563 0.8785 -0.4745
vn -0.1936 0.8654 0.4622
vn -0.2611 -0.0434 0.9643
vn -0.1002 -0.9068 0.4095
vn 0.2267 -0.8332 -0.5043
vn 0.2850 0.0384 -0.9578
vn 0.1313 0.8775 -0.4613
vn -0.3751 -0.0516 0.9256
vn -0.2551 0.8331 0.4908
vn -0.4128 -0.0560 0.9091
vn -0.1476 -0.8834 0.4448
vn 0.2724 -0.8320 -0.4833
vn 0.3898 0.0438 -0.9199
vn 0.1565 0.8810 -0.4465
vn -0.2899 0.8202 0.4932
vn -0.4033 -0.0602 0.9131
vn -0.0953 -0.8775 0.4701
vn 0.4039 0.0853 -0.9108
vn 0.1330 0.8915 -0.4330
vn 0.2902 -0.8553 -0.4292
vn 0.3586 -0.0157 -0.9334
vn 0.0551 0.8543 -0.5169
vn -0.4412 0.7711 0.4591
vn -0.3573 -0.0817 0.9304
vn 0.0753 -0.8561 0.5114
vn 0.4334 -0.8038 -0.4075
vn 0.4073 -0.0032 -0.9133
vn -0.1238 0.7927 -0.5969
vn -0.6174 0.6987 0.3615
vn -0.3774 -0.0803 0.9226
vn 0.2373 -0.7763 0.5839
vn 0.5993 -0.7284 -0.3322
vn 0.4017 0.0320 -0.9152
vn -0.2628 0.7284 -0.6327
vn -0.6786 0.6636 0.3148
vn -0.3480 -0.0295 0.9370
vn 0.2986 -0.7142 0.6330
vn 0.6756 -0.6812 -0.2821
vn 0.3173 0.0219 -0.9481
vn -0.3515 0.6946 -0.6277
vn -0.6021 0.7320 0.3187
vn -0.2896 0.0484 0.9559
vn 0.3287 -0.6719 0.6637
vn 0.6178 -0.7339 -0.2823
vn 0.1718 -0.0555 -0.9836
vn -0.3598 0.7212 -0.5919
vn -0.3861 0.8584 0.3377
vn -0.1388 0.1593 0.9774
vn 0.2797 -0.6756 0.6822
vn 0.4212 -0.8595 -0.2895
vn -0.0583 -0.1456 -0.9876
vn -0.2626 0.7742 -0.5759
vn -0.1300 0.9259 0.3546
vn 0.0808 0.2246 0.9711
vn 0.2325 -0.7003 0.6749
vn 0.1427 -0.9346 -0.3258
vn -0.1815 0.9219 0.3424
vn 0.1297 0.1686 0.9771
vn 0.3021 -0.7350 0.6070
vn 0.1857 -0.9255 -0.3301
vn -0.1040 -0.2525 -0.9620
vn -0.2981 0.6858 -0.6640
vn -0.4520 0.8048 0.3847
vn 0.0358 0.1221 0.9919
vn 0.4738 -0.6655 0.5767
vn 0.4550 -0.8078 -0.3748
vn 0.0127 -0.1986 -0.9800
vn -0.4531 0.6202 -0.6403
vn -0.6816 0.6133 0.3990
vn -0.0516 0.0544 0.9972
vn 0.6145 -0.5461 0.5694
vn 0.6837 -0.6163 -0.3908
vn 0.1133 -0.1101 -0.9875
vn -0.5817 0.5155 -0.6292
vn -0.8288 0.4025 0.3888
vn -0.1160 -0.0218 0.9930
vn 0.7001 -0.4164 0.5801
vn 0.8301 -0.4049 -0.3834
vn 0.1733 -0.0095 -0.9848
vn -0.6666 0.4021 -0.6276
vn -0.9068 0.2204 0.3593
vn -0.1610 -0.0931 0.9825
vn 0.7328 -0.3053 0.6081
vn 0.9096 -0.2228 -0.3507
vn 0.2002 0.0783 -0.9766
vn -0.7118 0.3051 -0.6327
vn -0.9329 0.0955 0.3472
vn -0.1442 -0.1826 0.9726
vn 0.7922 -0.1973 0.5774
vn 0.9369 -0.0962 -0.3362
vn 0.2069 0.1520 -0.9665
vn -0.7343 0.2313 -0.6382
vn -0.9564 -0.0232 0.2910
vn 0.9611 0.0359 -0.2738
vn 0.2101 0.2490 -0.9454
vn -0.7115 0.1718 -0.6814
vn -0.9375 -0.1443 0.3168
vn -0.2073 -0.2734 0.9393
vn 0.7863 -0.1345 0.6030
vn 0.9472 0.1621 -0.2765
vn 0.2273 0.3451 -0.9106
vn -0.7298 0.1653 -0.6634
vn -0.9496 -0.2110 0.2320
vn -0.1879 -0.4248 0.8856
vn 0.7493 -0.2045 0.6298
vn 0.8783 0.3080 -0.3658
vn 0.2012 0.4527 -0.8687
vn -0.7468 0.2467 -0.6176
vn -0.9588 -0.2086 0.1927
vn -0.2081 -0.5171 0.8303
vn 0.7904 -0.2461 0.5610
vn 0.0956 0.5461 -0.8323
vn -0.7406 0.3126 -0.5948
vt 0.062500 1.000000
vt 0.045872 0.833333
vt 0.041667 1.000000
vt 0.067574 0.500000
vt 0.094229 0.333333
vt 0.062500 0.333333
vt 0.111674 0.166667
vt 0.083333 0.166667
vt 0.137849 0.000000
vt 0.089325 0.000000
vt 0.119478 0.500000
vt 0.137437 0.333333
vt 0.138710 0.666667
vt 0.091508 0.666667
vt 0.159708 0.166667
vt 0.166667 0.000000
vt 0.000000 0.833333
vt 0.000000 1.000000
vt 0.020833 1.000000
vt 0.020833 0.833333
vt 0.477644 0.666667
vt 0.425912 0.500000
vt 0.420631 0.666667
vt 0.496846 0.500000
vt 0.491623 0.333333
vt 0.515443 0.666667
vt 0.530028 1.000000
vt 0.511579 0.833333
vt 0.491179 1.000000
vt 0.549252 0.833333
vt 0.550768 0.666667
vt 0.568240 0.500000
vt 0.529993 0.500000
vt 0.571563 1.000000
vt 0.590678 0.833333
vt 0.590867 0.666667
vt 0.610961 0.500000
vt 0.615436 1.000000
vt 0.638050 0.833333
vt 0.638776 0.666667
vt 0.658602 0.500000
vt 0.661684 1.000000
vt 0.679101 0.833333
vt 0.680611 0.666667
vt 0.697917 0.500000
vt 0.701464 1.000000
vt 0.720417 0.833333
vt 0.722658 0.666667
vt 0.728811 0.500000
vt 0.903227 0.500000
vt 0.884538 0.333333
vt 0.875000 0.500000
vt 0.974615 1.000000
vt 0.952842 0.833333
vt 0.926931 1.000000
vt 0.946227 0.500000
vt 0.974241 0.333333
vt 0.925059 0.333333
vt 1.000209 0.500000
vt 1.000000 0.333333
vt 0.000000 0.000000
vt 0.000000 0.166667
vt 0.020833 0.166667
vt 0.020833 0.000000
vt 0.000000 0.333333
vt 0.020833 0.333333
vt 0.000000 0.500000
vt 0.020833 0.500000
vt 0.000000 0.666667
vt 0.020833 0.666667
vt 0.041667 0.166667
vt 0.041667 0.000000
vt 0.041667 0.333333
vt 0.041667 0.500000
vt 0.041667 0.666667
vt 0.062500 0.166667
vt 0.062500 0.000000
vt 0.062500 0.666667
vt 0.089325 1.000000
vt 0.091392 0.833333
vt 0.137849 1.000000
vt 0.138576 0.833333
vt 0.166667 1.000000
vt 0.166667 0.833333
vt 0.145833 0.500000
vt 0.166667 0.333333
vt 0.166667 0.500000
vt 0.166667 0.666667
vt 0.187500 1.000000
vt 0.187500 0.833333
vt 0.187500 0.000000
vt 0.187500 0.166667
vt 0.187500 0.333333
vt 0.187500 0.500000
vt 0.187500 0.666667
vt 0.208333 1.000000
vt 0.208333 0.833333
vt 0.208333 0.000000
vt 0.208333 0.166667
vt 0.208333 0.333333
vt 0.208333 0.500000
vt 0.208333 0.666667
vt 0.229167 1.000000
vt 0.229167 0.833333
vt 0.229167 0.000000
vt 0.229167 0.166667
vt 0.229167 0.333333
vt 0.229167 0.500000
vt 0.229167 0.666667
vt 0.250000 1.000000
vt 0.250000 0.833333
vt 0.250000 0.166667
vt 0.250000 0.000000
vt 0.250000 0.333333
vt 0.250000 0.500000
vt 0.250000 0.666667
vt 0.270833 1.000000
vt 0.270833 0.833333
vt 0.270833 0.166667
vt 0.270833 0.000000
vt 0.270833 0.333333
vt 0.270833 0.500000
vt 0.270833 0.666667
vt 0.291667 0.833333
vt 0.291667 1.000000
vt 0.291667 0.000000
vt 0.291667 0.166667
vt 0.291667 0.333333
vt 0.291667 0.500000
vt 0.291667 0.666667
vt 0.312500 0.833333
vt 0.312500 1.000000
vt 0.312500 0.000000
vt 0.312500 0.166667
vt 0.312500 0.333333
vt 0.312500 0.500000
vt 0.312500 0.666667
vt 0.333333 0.833333
vt 0.333333 1.000000
vt 0.333333 0.000000
vt 0.333333 0.166667
vt 0.333333 0.333333
vt 0.333333 0.500000
vt 0.333333 0.666667
vt 0.354167 0.833333
vt 0.354167 1.000000
vt 0.354167 0.000000
vt 0.354167 0.166667
vt 0.354167 0.333333
vt 0.354167 0.500000
vt 0.354167 0.666667
vt 0.384155 0.833333
vt 0.380975 1.000000
vt 0.380975 0.000000
vt 0.375000 0.166667
vt 0.380861 0.333333
vt 0.384309 0.500000
vt 0.380886 0.666667
vt 0.422735 0.833333
vt 0.421217 1.000000
vt 0.395833 0.166667
vt 0.421217 0.000000
vt 0.423311 0.166667
vt 0.420510 0.333333
vt 0.477135 0.833333
vt 0.491179 0.000000
vt 0.487002 0.166667
vt 0.530028 0.000000
vt 0.530095 0.166667
vt 0.530352 0.333333
vt 0.570468 0.166667
vt 0.571563 0.000000
vt 0.571851 0.333333
vt 0.617748 0.166667
vt 0.615436 0.000000
vt 0.611300 0.333333
vt 0.658008 0.166667
vt 0.661684 0.000000
vt 0.659535 0.333333
vt 0.697737 0.166667
vt 0.701464 0.000000
vt 0.701183 0.333333
vt 0.729720 0.166667
vt 0.729186 0.000000
vt 0.729186 1.000000
vt 0.730713 0.333333
vt 0.770833 1.000000
vt 0.770833 0.833333
vt 0.770833 0.000000
vt 0.770833 0.166667
vt 0.770833 0.333333
vt 0.770833 0.500000
vt 0.770833 0.666667
vt 0.791667 1.000000
vt 0.791667 0.833333
vt 0.791667 0.000000
vt 0.791667 0.166667
vt 0.791667 0.333333
vt 0.791667 0.500000
vt 0.791667 0.666667
vt 0.812500 0.833333
vt 0.812500 1.000000
vt 0.812500 0.166667
vt 0.812500 0.000000
vt 0.812500 0.333333
vt 0.812500 0.500000
vt 0.812500 0.666667
vt 0.833333 0.833333
vt 0.833333 1.000000
vt 0.833333 0.166667
vt 0.833333 0.000000
vt 0.833333 0.333333
vt 0.833333 0.500000
vt 0.833333 0.666667
vt 0.854167 0.833333
vt 0.854167 1.000000
vt 0.854167 0.166667
vt 0.854167 0.000000
vt 0.854167 0.333333
vt 0.854167 0.500000
vt 0.854167 0.666667
vt 0.875000 0.833333
vt 0.875000 1.000000
vt 0.881737 0.166667
vt 0.875000 0.000000
vt 0.875000 0.666667
vt 0.903739 0.833333
vt 0.895833 1.000000
vt 0.906653 0.666667
vt 0.895833 0.000000
vt 0.925647 0.166667
vt 0.926931 0.000000
vt 0.950873 0.666667
vt 0.974367 0.166667
vt 0.974615 0.000000
vt 0.979167 0.666667
vt 0.979167 0.833333
vt 1.000000 1.000000
vt 1.000000 0.833333
vt 1.000000 0.166667
vt 1.000000 0.000000
vt 1.000000 0.666667
s 1
f 19/1/19 18/2/18 13/3/13
f 22/4/22 26/5/26 21/6/21
f 26/5/26 29/7/29 25/8/25
f 29/7/29 31/9/31 24/10/24
f 30/11/30 32/12/32 26/5/26
f 33/13/33 30/11/30 27/14/27
f 32/12/32 35/15/35 29/7/29
f 35/15/35 37/16/37 31/9/31
f 6/17/6 1/18/1 7/19/7 12/20/12
f 112/21/112 106/22/106 107/23/107
f 114/24/114 111/25/111 106/22/106
f 115/26/115 114/24/114 112/21/112
f 117/27/117 116/28/116 109/29/109
f 117/27/117 122/30/122 116/28/116
f 121/31/121 126/32/126 120/33/120
f 123/34/123 128/35/128 122/30/122
f 127/36/127 132/37/132 126/32/126
f 129/38/129 134/39/134 128/35/128
f 133/40/133 138/41/138 132/37/132
f 135/42/135 140/43/140 134/39/134
f 139/44/139 144/45/144 138/41/138
f 141/46/141 146/47/146 140/43/140
f 145/48/145 150/49/150 144/45/144
f 188/50/188 183/51/183 184/52/184
f 197/53/197 196/54/196 191/55/191
f 194/56/194 199/57/199 193/58/193
f 200/59/200 205/60/205 199/57/199
f 1/61/1 2/62/2 8/63/8 7/64/7
f 8/63/8 2/62/2 3/65/3 9/66/9
f 9/66/9 3/65/3 4/67/4 10/68/10
f 10/68/10 4/67/4 5/69/5 11/70/11
f 5/69/5 6/17/6 12/20/12 11/70/11
f 12/20/12 7/19/7 13/3/13 18/2/18
f 7/64/7 8/63/8 14/71/14 13/72/13
f 14/71/14 8/63/8 9/66/9 15/73/15
f 15/73/15 9/66/9 10/68/10 16/74/16
f 16/74/16 10/68/10 11/70/11 17/75/17
f 11/70/11 12/20/12 18/2/18 17/75/17
f 13/72/13 14/71/14 20/76/20 19/77/19
f 20/76/20 14/71/14 15/73/15 21/6/21
f 21/6/21 15/73/15 16/74/16 22/4/22
f 22/4/22 16/74/16 17/75/17 23/78/23
f 18/2/18 19/1/19 24/79/24 28/80/28
f 18/2/18 23/78/23 17/75/17
f 19/77/19 20/76/20 25/8/25 24/10/24
f 25/8/25 20/76/20 21/6/21 26/5/26
f 23/78/23 18/2/18 28/80/28 27/14/27
f 23/78/23 27/14/27 22/4/22
f 28/80/28 24/79/24 31/81/31 34/82/34
f 25/8/25 29/7/29 24/10/24
f 22/4/22 30/11/30 26/5/26
f 27/14/27 30/11/30 22/4/22
f 27/14/27 28/80/28 34/82/34 33/13/33
f 26/5/26 32/12/32 29/7/29
f 34/82/34 31/81/31 37/83/37 41/84/41
f 29/7/29 35/15/35 31/9/31
f 30/11/30 36/85/36 32/12/32
f 33/13/33 36/85/36 30/11/30
f 38/86/38 32/12/32 36/85/36 39/87/39
f 32/12/32 38/86/38 35/15/35
f 36/85/36 33/13/33 40/88/40 39/87/39
f 33/13/33 34/82/34 41/84/41 40/88/40
f 41/84/41 37/83/37 42/89/42 47/90/47
f 42/91/42 37/16/37 35/15/35 43/92/43
f 43/92/43 35/15/35 38/86/38 44/93/44
f 44/93/44 38/86/38 39/87/39 45/94/45
f 39/87/39 40/88/40 46/95/46 45/94/45
f 40/88/40 41/84/41 47/90/47 46/95/46
f 47/90/47 42/89/42 48/96/48 53/97/53
f 48/98/48 42/91/42 43/92/43 49/99/49
f 49/99/49 43/92/43 44/93/44 50/100/50
f 50/100/50 44/93/44 45/94/45 51/101/51
f 45/94/45 46/95/46 52/102/52 51/101/51
f 46/95/46 47/90/47 53/97/53 52/102/52
f 53/97/53 48/96/48 54/103/54 59/104/59
f 54/105/54 48/98/48 49/99/49 55/106/55
f 55/106/55 49/99/49 50/100/50 56/107/56
f 56/107/56 50/100/50 51/101/51 57/108/57
f 51/101/51 52/102/52 58/109/58 57/108/57
f 52/102/52 53/97/53 59/104/59 58/109/58
f 59/104/59 54/103/54 60/110/60 65/111/65
f 54/105/54 55/106/55 61/112/61 60/113/60
f 55/106/55 56/107/56 62/114/62 61/112/61
f 62/114/62 56/107/56 57/108/57 63/115/63
f 63/115/63 57/108/57 58/109/58 64/116/64
f 64/116/64 58/109/58 59/104/59 65/111/65
f 65/111/65 60/110/60 66/117/66 71/118/71
f 60/113/60 61/112/61 67/119/67 66/120/66
f 61/112/61 62/114/62 68/121/68 67/119/67
f 68/121/68 62/114/62 63/115/63 69/122/69
f 69/122/69 63/115/63 64/116/64 70/123/70
f 70/123/70 64/116/64 65/111/65 71/118/71
f 77/124/77 71/118/71 66/117/66 72/125/72
f 72/126/72 66/120/66 67/119/67 73/127/73
f 67/119/67 68/121/68 74/128/74 73/127/73
f 68/121/68 69/122/69 75/129/75 74/128/74
f 69/122/69 70/123/70 76/130/76 75/129/75
f 76/130/76 70/123/70 71/118/71 77/124/77
f 83/131/83 77/124/77 72/125/72 78/132/78
f 78/133/78 72/126/72 73/127/73 79/134/79
f 73/127/73 74/128/74 80/135/80 79/134/79
f 74/128/74 75/129/75 81/136/81 80/135/80
f 75/129/75 76/130/76 82/137/82 81/136/81
f 82/137/82 76/130/76 77/124/77 83/131/83
f 89/138/89 83/131/83 78/132/78 84/139/84
f 84/140/84 78/133/78 79/134/79 85/141/85
f 79/134/79 80/135/80 86/142/86 85/141/85
f 80/135/80 81/136/81 87/143/87 86/142/86
f 81/136/81 82/137/82 88/144/88 87/143/87
f 88/144/88 82/137/82 83/131/83 89/138/89
f 95/145/95 89/138/89 84/139/84 90/146/90
f 90/147/90 84/140/84 85/141/85 91/148/91
f 85/141/85 86/142/86 92/149/92 91/148/91
f 86/142/86 87/143/87 93/150/93 92/149/92
f 87/143/87 88/144/88 94/151/94 93/150/93
f 94/151/94 88/144/88 89/138/89 95/145/95
f 101/152/101 95/145/95 90/146/90 96/153/96
f 96/154/96 90/147/90 91/148/91 97/155/97
f 91/148/91 92/149/92 98/156/98 97/155/97
f 92/149/92 93/150/93 99/157/99 98/156/98
f 93/150/93 94/151/94 100/158/100 99/157/99
f 100/158/100 94/151/94 95/145/95 101/152/101
f 108/159/108 101/152/101 96/153/96 103/160/103
f 97/155/97 102/161/102 96/154/96
f 98/156/98 102/161/102 97/155/97
f 103/162/103 96/154/96 102/161/102 104/163/104
f 102/161/102 98/156/98 105/164/105 104/163/104
f 98/156/98 99/157/99 106/22/106 105/164/105
f 99/157/99 100/158/100 107/23/107 106/22/106
f 107/23/107 100/158/100 101/152/101 108/159/108
f 113/165/113 108/159/108 103/160/103 109/29/109
f 109/166/109 103/162/103 104/163/104 110/167/110
f 104/163/104 105/164/105 111/25/111 110/167/110
f 112/21/112 107/23/107 108/159/108 113/165/113
f 106/22/106 111/25/111 105/164/105
f 112/21/112 113/165/113 116/28/116 115/26/115
f 112/21/112 114/24/114 106/22/106
f 109/29/109 116/28/116 113/165/113
f 117/168/117 109/166/109 110/167/110 118/169/118
f 118/169/118 110/167/110 111/25/111 119/170/119
f 119/170/119 111/25/111 114/24/114 120/33/120
f 121/31/121 115/26/115 116/28/116 122/30/122
f 115/26/115 120/33/120 114/24/114
f 115/26/115 121/31/121 120/33/120
f 117/168/117 118/169/118 124/171/124 123/172/123
f 117/27/117 123/34/123 122/30/122
f 118/169/118 119/170/119 125/173/125 124/171/124
f 119/170/119 120/33/120 126/32/126 125/173/125
f 127/36/127 121/31/121 122/30/122 128/35/128
f 121/31/121 127/36/127 126/32/126
f 123/172/123 124/171/124 130/174/130 129/175/129
f 123/34/123 129/38/129 128/35/128
f 124/171/124 125/173/125 131/176/131 130/174/130
f 125/173/125 126/32/126 132/37/132 131/176/131
f 133/40/133 127/36/127 128/35/128 134/39/134
f 127/36/127 133/40/133 132/37/132
f 129/175/129 130/174/130 136/177/136 135/178/135
f 129/38/129 135/42/135 134/39/134
f 130/174/130 131/176/131 137/179/137 136/177/136
f 131/176/131 132/37/132 138/41/138 137/179/137
f 139/44/139 133/40/133 134/39/134 140/43/140
f 133/40/133 139/44/139 138/41/138
f 135/178/135 136/177/136 142/180/142 141/181/141
f 135/42/135 141/46/141 140/43/140
f 136/177/136 137/179/137 143/182/143 142/180/142
f 137/179/137 138/41/138 144/45/144 143/182/143
f 145/48/145 139/44/139 140/43/140 146/47/146
f 139/44/139 145/48/145 144/45/144
f 141/181/141 142/180/142 148/183/148 147/184/147
f 141/46/141 147/185/147 146/47/146
f 142/180/142 143/182/143 149/186/149 148/183/148
f 143/182/143 144/45/144 150/49/150 149/186/149
f 146/47/146 147/185/147 151/187/151 156/188/156
f 151/189/151 147/184/147 148/183/148 152/190/152
f 152/190/152 148/183/148 149/186/149 153/191/153
f 153/191/153 149/186/149 150/49/150 154/192/154
f 150/49/150 145/48/145 155/193/155 154/192/154
f 145/48/145 146/47/146 156/188/156 155/193/155
f 156/188/156 151/187/151 157/194/157 162/195/162
f 157/196/157 151/189/151 152/190/152 158/197/158
f 158/197/158 152/190/152 153/191/153 159/198/159
f 159/198/159 153/191/153 154/192/154 160/199/160
f 154/192/154 155/193/155 161/200/161 160/199/160
f 155/193/155 156/188/156 162/195/162 161/200/161
f 168/201/168 162/195/162 157/194/157 163/202/163
f 157/196/157 158/197/158 164/203/164 163/204/163
f 158/197/158 159/198/159 165/205/165 164/203/164
f 159/198/159 160/199/160 166/206/166 165/205/165
f 166/206/166 160/199/160 161/200/161 167/207/167
f 167/207/167 161/200/161 162/195/162 168/201/168
f 174/208/174 168/201/168 163/202/163 169/209/169
f 163/204/163 164/203/164 170/210/170 169/211/169
f 164/203/164 165/205/165 171/212/171 170/210/170
f 165/205/165 166/206/166 172/213/172 171/212/171
f 172/213/172 166/206/166 167/207/167 173/214/173
f 173/214/173 167/207/167 168/201/168 174/208/174
f 180/215/180 174/208/174 169/209/169 175/216/175
f 169/211/169 170/210/170 176/217/176 175/218/175
f 170/210/170 171/212/171 177/219/177 176/217/176
f 171/212/171 172/213/172 178/220/178 177/219/177
f 178/220/178 172/213/172 173/214/173 179/221/179
f 179/221/179 173/214/173 174/208/174 180/215/180
f 186/222/186 180/215/180 175/216/175 181/223/181
f 175/218/175 176/217/176 182/224/182 181/225/181
f 176/217/176 177/219/177 183/51/183 182/224/182
f 177/219/177 178/220/178 184/52/184 183/51/183
f 184/52/184 178/220/178 179/221/179 185/226/185
f 185/226/185 179/221/179 180/215/180 186/222/186
f 190/227/190 186/222/186 181/223/181 187/228/187
f 188/50/188 184/52/184 185/226/185 189/229/189
f 182/224/182 187/230/187 181/225/181
f 189/229/189 185/226/185 186/222/186 190/227/190
f 187/230/187 182/224/182 192/231/192 191/232/191
f 187/228/187 191/55/191 190/227/190
f 182/224/182 183/51/183 193/58/193 192/231/192
f 194/56/194 188/50/188 189/229/189 195/233/195
f 188/50/188 193/58/193 183/51/183
f 191/55/191 196/54/196 190/227/190
f 188/50/188 194/56/194 193/58/193
f 195/233/195 189/229/189 190/227/190 196/54/196
f 191/232/191 192/231/192 198/234/198 197/235/197
f 192/231/192 193/58/193 199/57/199 198/234/198
f 200/59/200 194/56/194 195/233/195 201/236/201
f 197/53/197 202/237/202 196/54/196
f 194/56/194 200/59/200 199/57/199
f 201/236/201 195/233/195 196/54/196 202/237/202
f 202/237/202 197/53/197 203/238/203 207/239/207
f 197/235/197 198/234/198 204/240/204 203/241/203
f 198/234/198 199/57/199 205/60/205 204/240/204
f 206/242/206 201/236/201 202/237/202 207/239/207
f 201/236/201 206/242/206 200/59/200
o BézierCurve.016
v -0.603381 2.518064 -1.804944
v -0.601294 2.518064 -1.790090
v -0.600344 2.505075 -1.782650
v -0.601481 2.492084 -1.790064
v -0.603568 2.492084 -1.804918
v -0.604518 2.505075 -1.812358
v -0.561852 2.497477 -1.812646
v -0.558724 2.497020 -1.797983
v -0.566395 2.487814 -1.788961
v -0.577195 2.479065 -1.794602
v -0.580323 2.479522 -1.809265
v -0.572652 2.488728 -1.818287
v -0.539684 2.446621 -1.821057
v -0.536123 2.445382 -1.806539
v -0.546516 2.441102 -1.796606
v -0.560471 2.438060 -1.801192
v -0.564031 2.439299 -1.815711
v -0.549572 2.430019 -1.827609
v -0.530803 2.375243 -1.831031
v -0.527146 2.373415 -1.816599
v -0.537891 2.371286 -1.806351
v -0.550424 2.350000 -1.813080
v -0.555949 2.372812 -1.824968
v -0.531554 2.259274 -1.847929
v -0.526967 2.285399 -1.829390
v -0.539625 2.232227 -1.827046
v -0.557170 2.248955 -1.842882
v -0.546400 2.250756 -1.853257
v -0.535647 2.148447 -1.852250
v -0.563998 2.110054 -1.853743
v -0.551164 2.021128 -1.895314
v -0.558367 2.017462 -1.870553
v -0.576750 2.017381 -1.890087
v -0.565767 2.019777 -1.900018
v -0.557191 1.911436 -1.912040
v -0.576543 1.977852 -1.886349
v -0.562706 1.884725 -1.938454
v -0.570182 1.876143 -1.915099
v -0.584522 1.878465 -1.918836
v -0.587954 1.883917 -1.932382
v -0.577046 1.887047 -1.942191
v -0.566197 1.800015 -1.976508
v -0.562816 1.792914 -1.963735
v -0.573781 1.787925 -1.954798
v -0.588128 1.790036 -1.958634
v -0.591509 1.797137 -1.971407
v -0.580544 1.802127 -1.980344
v -0.563050 1.733798 -2.021005
v -0.559506 1.724332 -2.009922
v -0.570276 1.716506 -2.003012
v -0.584591 1.718146 -2.007185
v -0.588134 1.727612 -2.018268
v -0.577364 1.735438 -2.025178
v -0.551327 1.691370 -2.071687
v -0.546933 1.679259 -2.064005
v -0.556649 1.668153 -2.061313
v -0.570759 1.669158 -2.066302
v -0.575153 1.681270 -2.073983
v -0.565437 1.692376 -2.076676
v -0.528642 1.676437 -2.130776
v -0.522976 1.663344 -2.126142
v -0.530621 1.650640 -2.128413
v -0.543933 1.651029 -2.135316
v -0.549599 1.664122 -2.139950
v -0.541953 1.676826 -2.137679
v -0.480151 1.677138 -2.205169
v -0.474666 1.664061 -2.200279
v -0.480169 1.651161 -2.205598
v -0.491157 1.651336 -2.215807
v -0.496642 1.664413 -2.220698
v -0.491139 1.677314 -2.215379
v -0.417306 1.678518 -2.253150
v -0.413634 1.665401 -2.246867
v -0.416996 1.652548 -2.253830
v -0.424031 1.652811 -2.267075
v -0.427703 1.665927 -2.273358
v -0.424341 1.678781 -2.266395
v -0.343156 1.680676 -2.277960
v -0.341377 1.667505 -2.271006
v -0.342492 1.654716 -2.278766
v -0.345386 1.655099 -2.293479
v -0.347165 1.668270 -2.300433
v -0.346050 1.681059 -2.292673
v -0.260088 1.683506 -2.283204
v -0.259816 1.670284 -2.276126
v -0.259129 1.657556 -2.284034
v -0.258713 1.658051 -2.299020
v -0.258985 1.671273 -2.306098
v -0.259672 1.684001 -2.298190
v -0.170955 1.686890 -2.272320
v -0.171733 1.673628 -2.265354
v -0.169776 1.660949 -2.273126
v -0.167040 1.661531 -2.287863
v -0.166262 1.674793 -2.294828
v -0.168219 1.687472 -2.287057
v -0.051924 1.691801 -2.241066
v -0.080302 1.677409 -2.242104
v -0.051037 1.665848 -2.242022
v -0.030940 1.667216 -2.251077
v -0.044720 1.679839 -2.262998
v -0.033032 1.693120 -2.250570
v 0.011302 1.681494 -2.210022
v 0.120499 1.699901 -2.171367
v 0.126622 1.687021 -2.161096
v 0.119312 1.673831 -2.173362
v 0.146665 1.675550 -2.177258
v 0.128123 1.687960 -2.193312
v 0.132716 1.700991 -2.182315
v 0.346998 1.713145 -2.063159
v 0.336116 1.699038 -2.060608
v 0.350521 1.687359 -2.062818
v 0.326491 1.699292 -2.097897
v 0.320942 1.711798 -2.091595
v 0.368816 1.689198 -2.072224
v 0.404085 1.707054 -2.066742
v 0.392237 1.718351 -2.062364
v 0.416328 1.724589 -2.037501
v 0.417277 1.712104 -2.029498
v 0.424423 1.699884 -2.035724
v 0.429116 1.700804 -2.049698
v 0.459460 1.726631 -2.043811
v 0.449261 1.737038 -2.039254
v 0.472503 1.753152 -2.011834
v 0.474454 1.740539 -2.003633
v 0.485491 1.731012 -2.007687
v 0.486526 1.728756 -2.023762
v 0.511690 1.760799 -2.018893
v 0.501566 1.770863 -2.014376
v 0.524645 1.793915 -1.987301
v 0.532200 1.785606 -1.976639
v 0.534731 1.769187 -1.984342
v 0.539934 1.769422 -1.998453
v 0.566537 1.806845 -1.995186
v 0.555742 1.816387 -1.991042
v 0.578915 1.839205 -1.968239
v 0.579588 1.825608 -1.959672
v 0.590682 1.816203 -1.963858
v 0.593714 1.814737 -1.978605
v 0.613588 1.842681 -1.983167
v 0.603801 1.853349 -1.978478
v 0.631500 1.871657 -1.961200
v 0.630803 1.858633 -1.951707
v 0.641400 1.848012 -1.956667
v 0.638796 1.843880 -1.971650
v 0.666250 1.866208 -1.981901
v 0.659707 1.879601 -1.976495
v 0.674302 1.884737 -1.963846
v 0.678531 1.873934 -1.954265
v 0.682108 1.860105 -1.959364
v 0.677863 1.856487 -1.973550
v 0.800056 1.898954 -1.989357
v 0.804608 1.888247 -1.979889
v 0.807366 1.874410 -1.984980
v 0.805572 1.871279 -1.999540
v 0.801020 1.881986 -2.009008
v 0.798262 1.895823 -2.003917
v 0.869563 1.928231 -1.999818
v 0.876528 1.918563 -1.990707
v 0.883332 1.906467 -1.996398
v 0.883171 1.904039 -2.011199
v 0.876206 1.913707 -2.020310
v 0.869402 1.925803 -2.014620
v 0.921779 1.972477 -2.003237
v 0.930768 1.964500 -1.994261
v 0.941010 1.955277 -2.000180
v 0.942262 1.954030 -2.015076
v 0.933273 1.962007 -2.024052
v 0.923031 1.971230 -2.018132
v 0.959628 2.028781 -2.000674
v 0.969891 2.022637 -1.991622
v 0.982333 2.016581 -1.997411
v 0.984513 2.016669 -2.012252
v 0.974250 2.022813 -2.021303
v 0.961808 2.028869 -2.015514
v 0.985249 2.094126 -1.993022
v 0.996142 2.089519 -1.983795
v 1.009705 2.086197 -1.989273
v 1.012376 2.087483 -2.003977
v 1.001483 2.092090 -2.013204
v 0.987920 2.095411 -2.007726
v 1.000499 2.164960 -1.981208
v 1.015489 2.185147 -1.967566
v 1.030769 2.194472 -1.970517
v 1.028584 2.162527 -1.991470
v 1.017436 2.166011 -2.000881
v 1.003393 2.167227 -1.995750
v 1.007349 2.237450 -1.966243
v 1.037378 2.264000 -1.970037
v 1.026147 2.278472 -1.976930
v 1.012000 2.267624 -1.974820
v 1.006914 2.339568 -1.941017
v 1.018374 2.333387 -1.932392
v 1.032604 2.333392 -1.937188
v 1.030845 2.400237 -1.932753
v 1.018460 2.414897 -1.938211
v 1.003785 2.417275 -1.932274
v 0.995414 2.458209 -1.900717
v 1.006964 2.454517 -1.891784
v 1.020962 2.457682 -1.895849
v 1.019992 2.498453 -1.890163
v 1.011029 2.477261 -1.913045
v 0.996960 2.473764 -1.909192
v 0.992131 2.489954 -1.881527
v 1.003694 2.483197 -1.874770
v 1.017751 2.486900 -1.878472
v 1.008682 2.504115 -1.895688
v 0.994626 2.500413 -1.891986
vn 0.3252 0.8281 -0.4565
vn 0.4663 0.8097 0.3562
vn 0.2435 0.1365 0.9602
vn -0.2845 -0.7507 0.5962
vn -0.4815 -0.7476 -0.4575
vn -0.1138 0.1441 -0.9830
vn 0.5354 0.6374 -0.5542
vn 0.7199 0.6039 0.3422
vn 0.2786 0.0442 0.9594
vn -0.4790 -0.5796 0.6593
vn -0.7224 -0.5511 -0.4176
vn -0.1330 0.1087 -0.9851
vn 0.7060 0.2986 -0.6422
vn 0.9332 0.2102 0.2916
vn 0.2760 -0.0692 0.9587
vn -0.6755 -0.2767 0.6835
vn -0.9231 -0.2151 -0.3188
vn -0.1567 0.1106 -0.9814
vn 0.7164 0.1376 -0.6839
vn 0.9612 0.0213 0.2749
vn 0.2706 -0.1209 0.9551
vn -0.6746 -0.1150 0.7292
vn -0.9786 -0.0289 -0.2038
vn 0.7324 0.0732 -0.6769
vn 0.9588 -0.0568 0.2784
vn 0.2662 -0.1768 0.9476
vn -0.9390 0.1062 -0.3270
vn -0.2478 0.1791 -0.9521
vn 0.9381 -0.1426 0.3156
vn -0.6596 -0.0962 0.7455
vn 0.6991 0.1147 -0.7057
vn 0.2560 -0.2575 0.9318
vn -0.9619 0.1480 -0.2298
vn -0.2341 0.2663 -0.9350
vn 0.9250 -0.1820 0.3336
vn -0.7086 -0.1521 0.6890
vn 0.7212 0.2179 -0.6576
vn 0.2230 -0.3710 0.9015
vn -0.7218 -0.2112 0.6591
vn -0.9613 0.1477 -0.2327
vn -0.2396 0.3595 -0.9019
vn 0.7390 0.3277 -0.5886
vn 0.9474 -0.1548 0.2801
vn 0.2082 -0.4757 0.8546
vn -0.7235 -0.3370 0.6025
vn -0.9646 0.1269 -0.2313
vn -0.2435 0.4708 -0.8480
vn 0.7308 0.5123 -0.4510
vn 0.9395 -0.1424 0.3116
vn 0.2070 -0.6388 0.7410
vn -0.7066 -0.5296 0.4693
vn -0.9665 0.0767 -0.2448
vn -0.2683 0.6218 -0.7358
vn 0.6670 0.7264 -0.1656
vn 0.9231 -0.1318 0.3612
vn 0.2521 -0.8236 0.5080
vn -0.6325 -0.7511 0.1894
vn -0.9525 0.0041 -0.3046
vn -0.3417 0.7855 -0.5160
vn 0.5026 0.8516 0.1490
vn 0.8838 -0.0666 0.4630
vn 0.3391 -0.8940 0.2927
vn -0.5152 -0.8432 -0.1535
vn -0.8896 -0.0106 -0.4567
vn -0.4176 0.8486 -0.3248
vn 0.3364 0.8832 0.3267
vn 0.7330 -0.0140 0.6800
vn 0.3330 -0.8954 0.2955
vn -0.3942 -0.8373 -0.3789
vn -0.7325 0.0093 -0.6807
vn -0.3946 0.8482 -0.3534
vn 0.2049 0.8796 0.4293
vn 0.4687 -0.0203 0.8831
vn 0.2252 -0.8967 0.3810
vn -0.2415 -0.8345 -0.4952
vn -0.4693 0.0152 -0.8829
vn -0.2627 0.8519 -0.4531
vn 0.0676 0.8707 0.4872
vn 0.1923 -0.0277 0.9809
vn 0.1124 -0.8955 0.4307
vn -0.0807 -0.8346 -0.5449
vn -0.1935 0.0235 -0.9808
vn -0.1243 0.8605 -0.4941
vn -0.0459 0.8615 0.5057
vn -0.0282 -0.0346 0.9990
vn 0.0190 -0.8937 0.4483
vn 0.0457 -0.8356 -0.5475
vn 0.0274 0.0315 -0.9991
vn -0.0172 0.8691 -0.4943
vn -0.1285 0.8543 0.5036
vn -0.1826 -0.0400 0.9824
vn -0.0488 -0.8925 0.4483
vn 0.1350 -0.8357 -0.5324
vn 0.1858 0.0378 -0.9819
vn 0.0572 0.8753 -0.4803
vn -0.1945 0.8636 0.4651
vn -0.2633 -0.0442 0.9637
vn -0.1008 -0.9060 0.4111
vn 0.2300 -0.8241 -0.5177
vn 0.2870 0.0397 -0.9571
vn 0.1345 0.8724 -0.4699
vn -0.3696 -0.0521 0.9277
vn -0.2524 0.8429 0.4752
vn -0.4160 -0.0519 0.9079
vn -0.1430 -0.8930 0.4268
vn 0.2713 -0.8346 -0.4794
vn 0.3933 0.0350 -0.9187
vn 0.1543 0.8845 -0.4403
vn -0.2919 0.8175 0.4965
vn -0.4056 -0.0596 0.9121
vn -0.1052 -0.8706 0.4805
vn 0.4055 0.0807 -0.9105
vn 0.1373 0.8881 -0.4387
vn 0.2845 -0.8616 -0.4203
vn 0.3585 -0.0135 -0.9334
vn 0.0529 0.8567 -0.5131
vn -0.4379 0.7766 0.4529
vn -0.3544 -0.0836 0.9314
vn 0.0892 -0.8674 0.4895
vn 0.4381 -0.7913 -0.4265
vn 0.4067 -0.0019 -0.9136
vn -0.1245 0.7933 -0.5960
vn -0.6188 0.6968 0.3627
vn -0.3764 -0.0851 0.9226
vn 0.2381 -0.7770 0.5828
vn 0.5997 -0.7304 -0.3269
vn 0.4006 0.0330 -0.9157
vn -0.2640 0.7288 -0.6318
vn -0.6789 0.6619 0.3178
vn -0.3449 -0.0357 0.9379
vn 0.2959 -0.7109 0.6380
vn 0.6761 -0.6824 -0.2780
vn 0.3185 0.0209 -0.9477
vn -0.3503 0.6942 -0.6288
vn -0.6039 0.7274 0.3260
vn -0.2912 0.0477 0.9555
vn 0.3256 -0.6673 0.6699
vn 0.6196 -0.7343 -0.2772
vn 0.1717 -0.0559 -0.9836
vn -0.3597 0.7209 -0.5924
vn -0.3862 0.8603 0.3327
vn -0.1399 0.1661 0.9761
vn 0.2822 -0.6752 0.6815
vn 0.4232 -0.8587 -0.2890
vn -0.0581 -0.1495 -0.9871
vn -0.2636 0.7720 -0.5784
vn -0.1306 0.9293 0.3455
vn 0.0817 0.2288 0.9700
vn 0.2321 -0.7034 0.6718
vn 0.1418 -0.9348 -0.3258
vn -0.1801 0.9211 0.3452
vn 0.1301 0.1672 0.9773
vn 0.3018 -0.7369 0.6049
vn 0.1843 -0.9244 -0.3338
vn -0.1057 -0.2470 -0.9632
vn -0.2977 0.6898 -0.6600
vn -0.4520 0.8048 0.3847
vn 0.0357 0.1222 0.9919
vn 0.4738 -0.6656 0.5766
vn 0.4550 -0.8078 -0.3748
vn 0.0128 -0.1988 -0.9800
vn -0.4531 0.6204 -0.6401
vn -0.6817 0.6133 0.3990
vn -0.0517 0.0545 0.9972
vn 0.6146 -0.5461 0.5693
vn 0.6837 -0.6163 -0.3908
vn 0.1133 -0.1101 -0.9874
vn -0.5818 0.5155 -0.6291
vn -0.8288 0.4024 0.3888
vn -0.1160 -0.0218 0.9930
vn 0.7001 -0.4164 0.5801
vn 0.8301 -0.4049 -0.3834
vn 0.1732 -0.0094 -0.9848
vn -0.6666 0.4021 -0.6276
vn -0.9039 0.2206 0.3666
vn -0.1548 -0.0933 0.9835
vn 0.7398 -0.3080 0.5982
vn 0.9046 -0.2221 -0.3639
vn 0.2001 0.0784 -0.9766
vn -0.7117 0.3051 -0.6328
vn -0.9373 0.0986 0.3344
vn -0.1489 -0.1820 0.9720
vn 0.7908 -0.1967 0.5796
vn 0.9431 -0.0979 -0.3176
vn 0.2111 0.1503 -0.9658
vn -0.7322 0.2322 -0.6403
vn -0.9622 -0.0158 0.2720
vn 0.9614 0.0363 -0.2728
vn 0.2260 0.2473 -0.9422
vn -0.7107 0.1720 -0.6822
vn -0.9323 -0.1503 0.3290
vn -0.1920 -0.2769 0.9415
vn 0.7847 -0.1350 0.6049
vn 0.9403 0.1693 -0.2954
vn 0.2073 0.3428 -0.9163
vn -0.7291 0.1651 -0.6642
vn -0.9472 -0.2157 0.2371
vn -0.1812 -0.4254 0.8867
vn 0.7510 -0.2041 0.6280
vn 0.8800 0.3075 -0.3620
vn 0.2058 0.4549 -0.8664
vn -0.7498 0.2437 -0.6152
vn -0.9607 -0.2028 0.1897
vn -0.2091 -0.5166 0.8303
vn 0.7901 -0.2461 0.5615
vn 0.0958 0.5460 -0.8323
vn -0.7345 0.3215 -0.5976
vt 0.062500 1.000000
vt 0.045872 0.833333
vt 0.041667 1.000000
vt 0.067574 0.500000
vt 0.094229 0.333333
vt 0.062500 0.333333
vt 0.111674 0.166667
vt 0.083333 0.166667
vt 0.137849 0.000000
vt 0.089325 0.000000
vt 0.119478 0.500000
vt 0.137437 0.333333
vt 0.138710 0.666667
vt 0.091508 0.666667
vt 0.159708 0.166667
vt 0.166667 0.000000
vt 0.000000 0.833333
vt 0.020833 1.000000
vt 0.020833 0.833333
vt 0.477644 0.666667
vt 0.425912 0.500000
vt 0.420631 0.666667
vt 0.496846 0.500000
vt 0.491623 0.333333
vt 0.515443 0.666667
vt 0.530028 1.000000
vt 0.511579 0.833333
vt 0.491179 1.000000
vt 0.549252 0.833333
vt 0.550768 0.666667
vt 0.568240 0.500000
vt 0.529993 0.500000
vt 0.571563 1.000000
vt 0.590678 0.833333
vt 0.590867 0.666667
vt 0.610961 0.500000
vt 0.615436 1.000000
vt 0.638050 0.833333
vt 0.638776 0.666667
vt 0.658602 0.500000
vt 0.661684 1.000000
vt 0.679101 0.833333
vt 0.680611 0.666667
vt 0.697917 0.500000
vt 0.701464 1.000000
vt 0.720417 0.833333
vt 0.722658 0.666667
vt 0.728811 0.500000
vt 0.903227 0.500000
vt 0.884538 0.333333
vt 0.875000 0.500000
vt 0.974615 1.000000
vt 0.952842 0.833333
vt 0.926931 1.000000
vt 0.946227 0.500000
vt 0.974241 0.333333
vt 0.925059 0.333333
vt 1.000209 0.500000
vt 1.000000 0.333333
vt 0.000000 0.000000
vt 0.020833 0.166667
vt 0.020833 0.000000
vt 0.000000 0.333333
vt 0.020833 0.333333
vt 0.000000 0.500000
vt 0.020833 0.500000
vt 0.000000 0.666667
vt 0.020833 0.666667
vt 0.041667 0.166667
vt 0.041667 0.000000
vt 0.041667 0.333333
vt 0.041667 0.500000
vt 0.041667 0.666667
vt 0.062500 0.166667
vt 0.062500 0.000000
vt 0.062500 0.666667
vt 0.091392 0.833333
vt 0.137849 1.000000
vt 0.138576 0.833333
vt 0.166667 1.000000
vt 0.166667 0.833333
vt 0.145833 0.500000
vt 0.166667 0.333333
vt 0.166667 0.500000
vt 0.166667 0.666667
vt 0.187500 1.000000
vt 0.187500 0.833333
vt 0.187500 0.166667
vt 0.187500 0.000000
vt 0.187500 0.333333
vt 0.187500 0.500000
vt 0.187500 0.666667
vt 0.208333 1.000000
vt 0.208333 0.833333
vt 0.208333 0.000000
vt 0.208333 0.166667
vt 0.208333 0.333333
vt 0.208333 0.500000
vt 0.208333 0.666667
vt 0.229167 1.000000
vt 0.229167 0.833333
vt 0.229167 0.000000
vt 0.229167 0.166667
vt 0.229167 0.333333
vt 0.229167 0.500000
vt 0.229167 0.666667
vt 0.250000 1.000000
vt 0.250000 0.833333
vt 0.250000 0.166667
vt 0.250000 0.000000
vt 0.250000 0.333333
vt 0.250000 0.500000
vt 0.250000 0.666667
vt 0.270833 1.000000
vt 0.270833 0.833333
vt 0.270833 0.166667
vt 0.270833 0.000000
vt 0.270833 0.333333
vt 0.270833 0.500000
vt 0.270833 0.666667
vt 0.291667 0.833333
vt 0.291667 1.000000
vt 0.291667 0.000000
vt 0.291667 0.166667
vt 0.291667 0.333333
vt 0.291667 0.500000
vt 0.291667 0.666667
vt 0.312500 0.833333
vt 0.312500 1.000000
vt 0.312500 0.000000
vt 0.312500 0.166667
vt 0.312500 0.333333
vt 0.312500 0.500000
vt 0.312500 0.666667
vt 0.333333 0.833333
vt 0.333333 1.000000
vt 0.333333 0.000000
vt 0.333333 0.166667
vt 0.333333 0.333333
vt 0.333333 0.500000
vt 0.333333 0.666667
vt 0.354167 0.833333
vt 0.354167 1.000000
vt 0.354167 0.000000
vt 0.354167 0.166667
vt 0.354167 0.333333
vt 0.354167 0.500000
vt 0.354167 0.666667
vt 0.380975 1.000000
vt 0.384155 0.833333
vt 0.375000 0.166667
vt 0.380975 0.000000
vt 0.380861 0.333333
vt 0.380886 0.666667
vt 0.384309 0.500000
vt 0.421217 1.000000
vt 0.422735 0.833333
vt 0.395833 0.166667
vt 0.421217 0.000000
vt 0.423311 0.166667
vt 0.420510 0.333333
vt 0.477135 0.833333
vt 0.491179 0.000000
vt 0.487002 0.166667
vt 0.530095 0.166667
vt 0.530028 0.000000
vt 0.530352 0.333333
vt 0.570468 0.166667
vt 0.571563 0.000000
vt 0.571851 0.333333
vt 0.615436 0.000000
vt 0.611300 0.333333
vt 0.617748 0.166667
vt 0.658008 0.166667
vt 0.661684 0.000000
vt 0.659535 0.333333
vt 0.697737 0.166667
vt 0.701464 0.000000
vt 0.701183 0.333333
vt 0.729720 0.166667
vt 0.729186 0.000000
vt 0.729186 1.000000
vt 0.730713 0.333333
vt 0.770833 0.833333
vt 0.770833 0.000000
vt 0.770833 0.166667
vt 0.770833 0.333333
vt 0.770833 0.500000
vt 0.770833 0.666667
vt 0.791667 1.000000
vt 0.791667 0.833333
vt 0.791667 0.000000
vt 0.791667 0.166667
vt 0.791667 0.333333
vt 0.791667 0.500000
vt 0.791667 0.666667
vt 0.812500 0.833333
vt 0.812500 1.000000
vt 0.812500 0.166667
vt 0.812500 0.000000
vt 0.812500 0.333333
vt 0.812500 0.500000
vt 0.812500 0.666667
vt 0.833333 0.833333
vt 0.833333 1.000000
vt 0.833333 0.166667
vt 0.833333 0.000000
vt 0.833333 0.333333
vt 0.833333 0.500000
vt 0.833333 0.666667
vt 0.854167 0.833333
vt 0.854167 1.000000
vt 0.854167 0.166667
vt 0.854167 0.000000
vt 0.854167 0.333333
vt 0.854167 0.500000
vt 0.854167 0.666667
vt 0.875000 0.833333
vt 0.875000 1.000000
vt 0.875000 0.000000
vt 0.881737 0.166667
vt 0.875000 0.666667
vt 0.895833 1.000000
vt 0.903739 0.833333
vt 0.906653 0.666667
vt 0.895833 0.000000
vt 0.925647 0.166667
vt 0.926931 0.000000
vt 0.950873 0.666667
vt 0.974367 0.166667
vt 0.974615 0.000000
vt 0.979167 0.666667
vt 0.979167 0.833333
vt 1.000000 1.000000
vt 1.000000 0.833333
vt 1.000000 0.166667
vt 1.000000 0.000000
vt 1.000000 0.666667
vt 0.000000 1.000000
vt 0.000000 0.166667
vt 0.089325 1.000000
vt 0.770833 1.000000
s 1
f 226/243/226 225/244/225 220/245/220
f 229/246/229 233/247/233 228/248/228
f 233/247/233 236/249/236 232/250/232
f 236/249/236 238/251/238 231/252/231
f 237/253/237 239/254/239 233/247/233
f 240/255/240 237/253/237 234/256/234
f 239/254/239 242/257/242 236/249/236
f 242/257/242 244/258/244 238/251/238
f 213/259/213 214/260/214 219/261/219
f 319/262/319 313/263/313 314/264/314
f 321/265/321 318/266/318 313/263/313
f 322/267/322 321/265/321 319/262/319
f 324/268/324 323/269/323 316/270/316
f 324/268/324 329/271/329 323/269/323
f 328/272/328 333/273/333 327/274/327
f 330/275/330 335/276/335 329/271/329
f 334/277/334 339/278/339 333/273/333
f 336/279/336 341/280/341 335/276/335
f 340/281/340 345/282/345 339/278/339
f 342/283/342 347/284/347 341/280/341
f 346/285/346 351/286/351 345/282/345
f 348/287/348 353/288/353 347/284/347
f 352/289/352 357/290/357 351/286/351
f 395/291/395 390/292/390 391/293/391
f 404/294/404 403/295/403 398/296/398
f 401/297/401 406/298/406 400/299/400
f 407/300/407 412/301/412 406/298/406
f 208/302/208 215/303/215 214/304/214
f 215/303/215 210/305/210 216/306/216
f 216/306/216 211/307/211 217/308/217
f 217/308/217 212/309/212 218/310/218
f 212/309/212 219/261/219 218/310/218
f 219/261/219 220/245/220 225/244/225
f 214/304/214 221/311/221 220/312/220
f 221/311/221 216/306/216 222/313/222
f 222/313/222 217/308/217 223/314/223
f 223/314/223 218/310/218 224/315/224
f 219/261/219 224/315/224 218/310/218
f 220/312/220 227/316/227 226/317/226
f 227/316/227 222/313/222 228/248/228
f 228/248/228 223/314/223 229/246/229
f 223/314/223 230/318/230 229/246/229
f 226/243/226 235/319/235 225/244/225
f 225/244/225 230/318/230 224/315/224
f 226/317/226 232/250/232 231/252/231
f 232/250/232 228/248/228 233/247/233
f 230/318/230 235/319/235 234/256/234
f 230/318/230 234/256/234 229/246/229
f 235/319/235 238/320/238 241/321/241
f 232/250/232 236/249/236 231/252/231
f 229/246/229 237/253/237 233/247/233
f 234/256/234 237/253/237 229/246/229
f 234/256/234 241/321/241 240/255/240
f 233/247/233 239/254/239 236/249/236
f 241/321/241 244/322/244 248/323/248
f 236/249/236 242/257/242 238/251/238
f 237/253/237 243/324/243 239/254/239
f 240/255/240 243/324/243 237/253/237
f 245/325/245 243/324/243 246/326/246
f 239/254/239 245/325/245 242/257/242
f 243/324/243 247/327/247 246/326/246
f 240/255/240 248/323/248 247/327/247
f 248/323/248 249/328/249 254/329/254
f 244/258/244 250/330/250 249/331/249
f 250/330/250 245/325/245 251/332/251
f 251/332/251 246/326/246 252/333/252
f 246/326/246 253/334/253 252/333/252
f 247/327/247 254/329/254 253/334/253
f 254/329/254 255/335/255 260/336/260
f 255/337/255 250/330/250 256/338/256
f 256/338/256 251/332/251 257/339/257
f 257/339/257 252/333/252 258/340/258
f 252/333/252 259/341/259 258/340/258
f 253/334/253 260/336/260 259/341/259
f 260/336/260 261/342/261 266/343/266
f 261/344/261 256/338/256 262/345/262
f 262/345/262 257/339/257 263/346/263
f 263/346/263 258/340/258 264/347/264
f 258/340/258 265/348/265 264/347/264
f 259/341/259 266/343/266 265/348/265
f 266/343/266 267/349/267 272/350/272
f 261/344/261 268/351/268 267/352/267
f 262/345/262 269/353/269 268/351/268
f 269/353/269 264/347/264 270/354/270
f 270/354/270 265/348/265 271/355/271
f 271/355/271 266/343/266 272/350/272
f 272/350/272 273/356/273 278/357/278
f 267/352/267 274/358/274 273/359/273
f 268/351/268 275/360/275 274/358/274
f 275/360/275 270/354/270 276/361/276
f 276/361/276 271/355/271 277/362/277
f 277/362/277 272/350/272 278/357/278
f 284/363/284 273/356/273 279/364/279
f 279/365/279 274/358/274 280/366/280
f 274/358/274 281/367/281 280/366/280
f 275/360/275 282/368/282 281/367/281
f 276/361/276 283/369/283 282/368/282
f 283/369/283 278/357/278 284/363/284
f 290/370/290 279/364/279 285/371/285
f 285/372/285 280/366/280 286/373/286
f 280/366/280 287/374/287 286/373/286
f 281/367/281 288/375/288 287/374/287
f 282/368/282 289/376/289 288/375/288
f 289/376/289 284/363/284 290/370/290
f 296/377/296 285/371/285 291/378/291
f 291/379/291 286/373/286 292/380/292
f 286/373/286 293/381/293 292/380/292
f 287/374/287 294/382/294 293/381/293
f 288/375/288 295/383/295 294/382/294
f 295/383/295 290/370/290 296/377/296
f 302/384/302 291/378/291 297/385/297
f 297/386/297 292/380/292 298/387/298
f 292/380/292 299/388/299 298/387/298
f 293/381/293 300/389/300 299/388/299
f 294/382/294 301/390/301 300/389/300
f 301/390/301 296/377/296 302/384/302
f 302/384/302 303/391/303 308/392/308
f 297/386/297 304/393/304 303/394/303
f 299/388/299 304/393/304 298/387/298
f 300/389/300 305/395/305 299/388/299
f 300/389/300 307/396/307 306/397/306
f 307/396/307 302/384/302 308/392/308
f 308/392/308 310/398/310 315/399/315
f 304/393/304 309/400/309 303/394/303
f 305/395/305 309/400/309 304/393/304
f 310/401/310 309/400/309 311/402/311
f 309/400/309 312/403/312 311/402/311
f 306/397/306 312/403/312 305/395/305
f 306/397/306 314/264/314 313/263/313
f 314/264/314 308/392/308 315/399/315
f 320/404/320 310/398/310 316/270/316
f 316/405/316 311/402/311 317/406/317
f 311/402/311 318/266/318 317/406/317
f 319/262/319 315/399/315 320/404/320
f 313/263/313 318/266/318 312/403/312
f 319/262/319 323/269/323 322/267/322
f 319/262/319 321/265/321 313/263/313
f 316/270/316 323/269/323 320/404/320
f 316/405/316 325/407/325 324/408/324
f 325/407/325 318/266/318 326/409/326
f 326/409/326 321/265/321 327/274/327
f 322/267/322 329/271/329 328/272/328
f 322/267/322 327/274/327 321/265/321
f 322/267/322 328/272/328 327/274/327
f 324/408/324 331/410/331 330/411/330
f 324/268/324 330/275/330 329/271/329
f 326/409/326 331/410/331 325/407/325
f 326/409/326 333/273/333 332/412/332
f 328/272/328 335/276/335 334/277/334
f 328/272/328 334/277/334 333/273/333
f 331/410/331 336/413/336 330/411/330
f 330/275/330 336/279/336 335/276/335
f 331/410/331 338/414/338 337/415/337
f 332/412/332 339/278/339 338/414/338
f 334/277/334 341/280/341 340/281/340
f 334/277/334 340/281/340 339/278/339
f 336/413/336 343/416/343 342/417/342
f 336/279/336 342/283/342 341/280/341
f 337/415/337 344/418/344 343/416/343
f 338/414/338 345/282/345 344/418/344
f 340/281/340 347/284/347 346/285/346
f 340/281/340 346/285/346 345/282/345
f 342/417/342 349/419/349 348/420/348
f 342/283/342 348/287/348 347/284/347
f 344/418/344 349/419/349 343/416/343
f 344/418/344 351/286/351 350/421/350
f 346/285/346 353/288/353 352/289/352
f 346/285/346 352/289/352 351/286/351
f 348/420/348 355/422/355 354/423/354
f 348/287/348 354/424/354 353/288/353
f 350/421/350 355/422/355 349/419/349
f 350/421/350 357/290/357 356/425/356
f 354/424/354 363/426/363 353/288/353
f 358/427/358 355/422/355 359/428/359
f 359/428/359 356/425/356 360/429/360
f 356/425/356 361/430/361 360/429/360
f 357/290/357 362/431/362 361/430/361
f 352/289/352 363/426/363 362/431/362
f 363/426/363 364/432/364 369/433/369
f 364/434/364 359/428/359 365/435/365
f 365/435/365 360/429/360 366/436/366
f 366/436/366 361/430/361 367/437/367
f 361/430/361 368/438/368 367/437/367
f 362/431/362 369/433/369 368/438/368
f 375/439/375 364/432/364 370/440/370
f 364/434/364 371/441/371 370/442/370
f 365/435/365 372/443/372 371/441/371
f 366/436/366 373/444/373 372/443/372
f 373/444/373 368/438/368 374/445/374
f 374/445/374 369/433/369 375/439/375
f 381/446/381 370/440/370 376/447/376
f 370/442/370 377/448/377 376/449/376
f 371/441/371 378/450/378 377/448/377
f 372/443/372 379/451/379 378/450/378
f 379/451/379 374/445/374 380/452/380
f 380/452/380 375/439/375 381/446/381
f 387/453/387 376/447/376 382/454/382
f 376/449/376 383/455/383 382/456/382
f 377/448/377 384/457/384 383/455/383
f 378/450/378 385/458/385 384/457/384
f 385/458/385 380/452/380 386/459/386
f 386/459/386 381/446/381 387/453/387
f 393/460/393 382/454/382 388/461/388
f 383/455/383 388/462/388 382/456/382
f 384/457/384 389/463/389 383/455/383
f 384/457/384 391/293/391 390/292/390
f 391/293/391 386/459/386 392/464/392
f 392/464/392 387/453/387 393/460/393
f 393/460/393 394/465/394 397/466/397
f 395/291/395 392/464/392 396/467/396
f 389/463/389 394/468/394 388/462/388
f 392/464/392 397/466/397 396/467/396
f 394/468/394 399/469/399 398/470/398
f 394/465/394 398/296/398 397/466/397
f 390/292/390 399/469/399 389/463/389
f 401/297/401 396/467/396 402/471/402
f 395/291/395 400/299/400 390/292/390
f 398/296/398 403/295/403 397/466/397
f 395/291/395 401/297/401 400/299/400
f 396/467/396 403/295/403 402/471/402
f 398/470/398 405/472/405 404/473/404
f 399/469/399 406/298/406 405/472/405
f 401/297/401 408/474/408 407/300/407
f 404/294/404 409/475/409 403/295/403
f 401/297/401 407/300/407 406/298/406
f 408/474/408 403/295/403 409/475/409
f 409/475/409 410/476/410 414/477/414
f 404/473/404 411/478/411 410/479/410
f 405/472/405 412/301/412 411/478/411
f 413/480/413 409/475/409 414/477/414
f 408/474/408 413/480/413 407/300/407
f 213/259/213 208/481/208 214/260/214
f 208/302/208 209/482/209 215/303/215
f 215/303/215 209/482/209 210/305/210
f 216/306/216 210/305/210 211/307/211
f 217/308/217 211/307/211 212/309/212
f 212/309/212 213/259/213 219/261/219
f 219/261/219 214/260/214 220/245/220
f 214/304/214 215/303/215 221/311/221
f 221/311/221 215/303/215 216/306/216
f 222/313/222 216/306/216 217/308/217
f 223/314/223 217/308/217 218/310/218
f 219/261/219 225/244/225 224/315/224
f 220/312/220 221/311/221 227/316/227
f 227/316/227 221/311/221 222/313/222
f 228/248/228 222/313/222 223/314/223
f 223/314/223 224/315/224 230/318/230
f 226/243/226 231/483/231 235/319/235
f 226/317/226 227/316/227 232/250/232
f 232/250/232 227/316/227 228/248/228
f 230/318/230 225/244/225 235/319/235
f 235/319/235 231/483/231 238/320/238
f 234/256/234 235/319/235 241/321/241
f 241/321/241 238/320/238 244/322/244
f 245/325/245 239/254/239 243/324/243
f 243/324/243 240/255/240 247/327/247
f 240/255/240 241/321/241 248/323/248
f 248/323/248 244/322/244 249/328/249
f 244/258/244 242/257/242 250/330/250
f 250/330/250 242/257/242 245/325/245
f 251/332/251 245/325/245 246/326/246
f 246/326/246 247/327/247 253/334/253
f 247/327/247 248/323/248 254/329/254
f 254/329/254 249/328/249 255/335/255
f 255/337/255 249/331/249 250/330/250
f 256/338/256 250/330/250 251/332/251
f 257/339/257 251/332/251 252/333/252
f 252/333/252 253/334/253 259/341/259
f 253/334/253 254/329/254 260/336/260
f 260/336/260 255/335/255 261/342/261
f 261/344/261 255/337/255 256/338/256
f 262/345/262 256/338/256 257/339/257
f 263/346/263 257/339/257 258/340/258
f 258/340/258 259/341/259 265/348/265
f 259/341/259 260/336/260 266/343/266
f 266/343/266 261/342/261 267/349/267
f 261/344/261 262/345/262 268/351/268
f 262/345/262 263/346/263 269/353/269
f 269/353/269 263/346/263 264/347/264
f 270/354/270 264/347/264 265/348/265
f 271/355/271 265/348/265 266/343/266
f 272/350/272 267/349/267 273/356/273
f 267/352/267 268/351/268 274/358/274
f 268/351/268 269/353/269 275/360/275
f 275/360/275 269/353/269 270/354/270
f 276/361/276 270/354/270 271/355/271
f 277/362/277 271/355/271 272/350/272
f 284/363/284 278/357/278 273/356/273
f 279/365/279 273/359/273 274/358/274
f 274/358/274 275/360/275 281/367/281
f 275/360/275 276/361/276 282/368/282
f 276/361/276 277/362/277 283/369/283
f 283/369/283 277/362/277 278/357/278
f 290/370/290 284/363/284 279/364/279
f 285/372/285 279/365/279 280/366/280
f 280/366/280 281/367/281 287/374/287
f 281/367/281 282/368/282 288/375/288
f 282/368/282 283/369/283 289/376/289
f 289/376/289 283/369/283 284/363/284
f 296/377/296 290/370/290 285/371/285
f 291/379/291 285/372/285 286/373/286
f 286/373/286 287/374/287 293/381/293
f 287/374/287 288/375/288 294/382/294
f 288/375/288 289/376/289 295/383/295
f 295/383/295 289/376/289 290/370/290
f 302/384/302 296/377/296 291/378/291
f 297/386/297 291/379/291 292/380/292
f 292/380/292 293/381/293 299/388/299
f 293/381/293 294/382/294 300/389/300
f 294/382/294 295/383/295 301/390/301
f 301/390/301 295/383/295 296/377/296
f 302/384/302 297/385/297 303/391/303
f 297/386/297 298/387/298 304/393/304
f 299/388/299 305/395/305 304/393/304
f 300/389/300 306/397/306 305/395/305
f 300/389/300 301/390/301 307/396/307
f 307/396/307 301/390/301 302/384/302
f 308/392/308 303/391/303 310/398/310
f 310/401/310 303/394/303 309/400/309
f 309/400/309 305/395/305 312/403/312
f 306/397/306 313/263/313 312/403/312
f 306/397/306 307/396/307 314/264/314
f 314/264/314 307/396/307 308/392/308
f 320/404/320 315/399/315 310/398/310
f 316/405/316 310/401/310 311/402/311
f 311/402/311 312/403/312 318/266/318
f 319/262/319 314/264/314 315/399/315
f 319/262/319 320/404/320 323/269/323
f 316/405/316 317/406/317 325/407/325
f 325/407/325 317/406/317 318/266/318
f 326/409/326 318/266/318 321/265/321
f 322/267/322 323/269/323 329/271/329
f 324/408/324 325/407/325 331/410/331
f 326/409/326 332/412/332 331/410/331
f 326/409/326 327/274/327 333/273/333
f 328/272/328 329/271/329 335/276/335
f 331/410/331 337/415/337 336/413/336
f 331/410/331 332/412/332 338/414/338
f 332/412/332 333/273/333 339/278/339
f 334/277/334 335/276/335 341/280/341
f 336/413/336 337/415/337 343/416/343
f 337/415/337 338/414/338 344/418/344
f 338/414/338 339/278/339 345/282/345
f 340/281/340 341/280/341 347/284/347
f 342/417/342 343/416/343 349/419/349
f 344/418/344 350/421/350 349/419/349
f 344/418/344 345/282/345 351/286/351
f 346/285/346 347/284/347 353/288/353
f 348/420/348 349/419/349 355/422/355
f 350/421/350 356/425/356 355/422/355
f 350/421/350 351/286/351 357/290/357
f 354/424/354 358/484/358 363/426/363
f 358/427/358 354/423/354 355/422/355
f 359/428/359 355/422/355 356/425/356
f 356/425/356 357/290/357 361/430/361
f 357/290/357 352/289/352 362/431/362
f 352/289/352 353/288/353 363/426/363
f 363/426/363 358/484/358 364/432/364
f 364/434/364 358/427/358 359/428/359
f 365/435/365 359/428/359 360/429/360
f 366/436/366 360/429/360 361/430/361
f 361/430/361 362/431/362 368/438/368
f 362/431/362 363/426/363 369/433/369
f 375/439/375 369/433/369 364/432/364
f 364/434/364 365/435/365 371/441/371
f 365/435/365 366/436/366 372/443/372
f 366/436/366 367/437/367 373/444/373
f 373/444/373 367/437/367 368/438/368
f 374/445/374 368/438/368 369/433/369
f 381/446/381 375/439/375 370/440/370
f 370/442/370 371/441/371 377/448/377
f 371/441/371 372/443/372 378/450/378
f 372/443/372 373/444/373 379/451/379
f 379/451/379 373/444/373 374/445/374
f 380/452/380 374/445/374 375/439/375
f 387/453/387 381/446/381 376/447/376
f 376/449/376 377/448/377 383/455/383
f 377/448/377 378/450/378 384/457/384
f 378/450/378 379/451/379 385/458/385
f 385/458/385 379/451/379 380/452/380
f 386/459/386 380/452/380 381/446/381
f 393/460/393 387/453/387 382/454/382
f 383/455/383 389/463/389 388/462/388
f 384/457/384 390/292/390 389/463/389
f 384/457/384 385/458/385 391/293/391
f 391/293/391 385/458/385 386/459/386
f 392/464/392 386/459/386 387/453/387
f 393/460/393 388/461/388 394/465/394
f 395/291/395 391/293/391 392/464/392
f 392/464/392 393/460/393 397/466/397
f 394/468/394 389/463/389 399/469/399
f 390/292/390 400/299/400 399/469/399
f 401/297/401 395/291/395 396/467/396
f 396/467/396 397/466/397 403/295/403
f 398/470/398 399/469/399 405/472/405
f 399/469/399 400/299/400 406/298/406
f 401/297/401 402/471/402 408/474/408
f 408/474/408 402/471/402 403/295/403
f 409/475/409 404/294/404 410/476/410
f 404/473/404 405/472/405 411/478/411
f 405/472/405 406/298/406 412/301/412
f 413/480/413 408/474/408 409/475/409
