# Blender 5.1.0
# www.blender.org
mtllib AutoStopCableUpgrade1.mtl
o BézierCurve.014
v -0.600574 2.520229 -1.731032
v -0.604072 2.520229 -1.713885
v -0.605928 2.505075 -1.705333
v -0.604287 2.489919 -1.713929
v -0.600790 2.489919 -1.731076
v -0.598934 2.505075 -1.739627
v -0.546300 2.500049 -1.721457
v -0.548893 2.499717 -1.704153
v -0.559674 2.487845 -1.697148
v -0.567863 2.476306 -1.707446
v -0.565269 2.476638 -1.724749
v -0.554488 2.488510 -1.731755
v -0.514029 2.448191 -1.719539
v -0.516032 2.447040 -1.702193
v -0.531045 2.441036 -1.695497
v -0.544054 2.436182 -1.706149
v -0.542050 2.437333 -1.723496
v -0.527038 2.443337 -1.730191
v -0.496827 2.354045 -1.726639
v -0.501164 2.373487 -1.707326
v -0.513338 2.336944 -1.703723
v -0.531119 2.370414 -1.710797
v -0.529315 2.372367 -1.728094
v -0.513436 2.374880 -1.735007
v -0.498451 2.253223 -1.723712
v -0.528565 2.285305 -1.721981
v -0.527880 2.247917 -1.745034
v -0.511520 2.254920 -1.751260
v -0.505131 2.150740 -1.761767
v -0.525322 2.121802 -1.743391
v -0.539008 2.130701 -1.751761
v -0.519935 2.033561 -1.774003
v -0.549592 2.026210 -1.798045
v -0.533659 2.027452 -1.804770
v -0.532921 1.914260 -1.832729
v -0.543000 1.974285 -1.786401
v -0.565307 1.909609 -1.820771
v -0.538421 1.876007 -1.831783
v -0.554485 1.874543 -1.824996
v -0.572331 1.824350 -1.879332
v -0.550133 1.888450 -1.856818
v -0.543262 1.798002 -1.891619
v -0.545595 1.788864 -1.876878
v -0.561771 1.785825 -1.870935
v -0.575615 1.791924 -1.879732
v -0.557106 1.804102 -1.900416
v -0.543187 1.731458 -1.941265
v -0.545449 1.719212 -1.928971
v -0.561570 1.713695 -1.924977
v -0.575428 1.720424 -1.933279
v -0.573166 1.732671 -1.945574
v -0.557045 1.738188 -1.949567
v -0.533537 1.688739 -1.995681
v -0.534831 1.672964 -1.988217
v -0.550137 1.664481 -1.988283
v -0.564150 1.671773 -1.995814
v -0.562856 1.687548 -2.003278
v -0.547550 1.696031 -2.003212
v -0.511505 1.673735 -2.056181
v -0.510944 1.656425 -2.053674
v -0.524416 1.646423 -2.058646
v -0.538448 1.653731 -2.066124
v -0.539009 1.671042 -2.068631
v -0.525537 1.681044 -2.063659
v -0.468673 1.673941 -2.131313
v -0.467254 1.656531 -2.130251
v -0.478677 1.646291 -2.138672
v -0.491518 1.653462 -2.148157
v -0.492936 1.670872 -2.149219
v -0.481513 1.681112 -2.140798
v -0.421792 1.673864 -2.181451
v -0.420712 1.656455 -2.180039
v -0.429507 1.646211 -2.191173
v -0.439383 1.653376 -2.203718
v -0.440463 1.670785 -2.205130
v -0.431668 1.681030 -2.193996
v -0.371711 1.673761 -2.209944
v -0.371113 1.656352 -2.208261
v -0.376127 1.646101 -2.221528
v -0.381738 1.653258 -2.236479
v -0.382336 1.670666 -2.238163
v -0.377323 1.680918 -2.224896
v -0.317699 1.673649 -2.220992
v -0.317598 1.656241 -2.219198
v -0.298542 1.645853 -2.235276
v -0.319858 1.653130 -2.249264
v -0.319959 1.670538 -2.251058
v -0.295089 1.680774 -2.238827
v -0.258973 1.673546 -2.217806
v -0.259248 1.656139 -2.216024
v -0.255067 1.653017 -2.245883
v -0.254792 1.670424 -2.247664
v -0.182243 1.673352 -2.199657
v -0.175602 1.656040 -2.195744
v -0.177306 1.645730 -2.211169
v -0.161219 1.652861 -2.223091
v -0.165605 1.670297 -2.226534
v -0.166662 1.680548 -2.211888
v 0.064939 1.673775 -2.105914
v 0.068823 1.656347 -2.102572
v 0.069361 1.646078 -2.117419
v 0.087392 1.653360 -2.128610
v 0.078643 1.670649 -2.133352
v 0.081973 1.680990 -2.117305
v 0.194001 1.673817 -2.071536
v 0.211437 1.656923 -2.066957
v 0.178117 1.646614 -2.087758
v 0.208425 1.653359 -2.097779
v 0.181488 1.671148 -2.105235
v 0.212672 1.681310 -2.084971
v 0.316389 1.648990 -2.071747
v 0.260662 1.671664 -2.094113
v 0.330682 1.678499 -2.059303
v 0.369222 1.664935 -2.054943
v 0.369303 1.661914 -2.085175
v 0.368967 1.679500 -2.087168
v 0.365044 1.689247 -2.072698
v 0.417076 1.694398 -2.054955
v 0.424819 1.667623 -2.067041
v 0.439339 1.684557 -2.052818
v 0.456768 1.687133 -2.082843
v 0.434304 1.697240 -2.085048
v 0.449713 1.714614 -2.071171
v 0.483620 1.726980 -2.057476
v 0.495780 1.714025 -2.056113
v 0.494044 1.700445 -2.068987
v 0.480503 1.720852 -2.087107
v 0.514800 1.726073 -2.090477
v 0.499744 1.749445 -2.078307
v 0.534310 1.773859 -2.074588
v 0.541912 1.756626 -2.070717
v 0.542592 1.743266 -2.082963
v 0.524217 1.760577 -2.100633
v 0.558815 1.773022 -2.113799
v 0.546838 1.799825 -2.104532
v 0.576377 1.818949 -2.106524
v 0.585832 1.803944 -2.102525
v 0.590935 1.794833 -2.117862
v 0.568146 1.807336 -2.133489
v 0.604382 1.814116 -2.153238
v 0.595502 1.842593 -2.146935
v 0.618812 1.849915 -2.144433
v 0.643591 1.844713 -2.153871
v 0.643394 1.830754 -2.164801
v 0.626807 1.846246 -2.185709
v 0.664971 1.870723 -2.184786
v 0.670065 1.843918 -2.211005
v 0.660320 1.872201 -2.203662
v 0.710039 1.865759 -2.208066
v 0.747016 1.860494 -2.244126
v 0.689750 1.865456 -2.236583
v 0.755505 1.893009 -2.247269
v 0.762448 1.878055 -2.241404
v 0.754006 1.864111 -2.266958
v 0.747063 1.879066 -2.272825
v 0.747813 1.893515 -2.262980
v 0.800105 1.906864 -2.262521
v 0.806806 1.891831 -2.256576
v 0.809745 1.878584 -2.267628
v 0.805982 1.880371 -2.284625
v 0.799281 1.895404 -2.290570
v 0.796343 1.908651 -2.279518
v 0.837676 1.923152 -2.263446
v 0.844694 1.908261 -2.257509
v 0.852120 1.897024 -2.268682
v 0.852529 1.900678 -2.285791
v 0.845512 1.915570 -2.291728
v 0.838085 1.926807 -2.280555
v 0.869861 1.943308 -2.253170
v 0.891857 1.939329 -2.239894
v 0.889161 1.920248 -2.256976
v 0.892691 1.925874 -2.273167
v 0.894918 1.947194 -2.274934
v 0.885566 1.957741 -2.263332
v 0.897816 1.969053 -2.233873
v 0.937255 1.968389 -2.220240
v 0.925999 1.956509 -2.250406
v 0.932323 2.019413 -2.193973
v 0.944703 2.012509 -2.182130
v 0.961855 2.007641 -2.209722
v 0.952031 2.020003 -2.217491
v 0.937834 2.027065 -2.208411
v 0.968668 2.029853 -2.173931
v 0.965054 2.126496 -2.127614
v 0.977719 2.124247 -2.114377
v 0.985333 2.083283 -2.140516
v 0.996549 2.113062 -2.142447
v 0.986125 2.126740 -2.150122
v 0.962634 2.100327 -2.160993
v 0.997643 2.146977 -2.109343
v 0.974118 2.159863 -2.131827
v 0.980149 2.271512 -2.079338
v 0.989008 2.222197 -2.079129
v 1.005969 2.221982 -2.083431
v 1.014195 2.264102 -2.088933
v 0.998900 2.230269 -2.111717
v 0.981938 2.230485 -2.107415
v 0.993714 2.309326 -2.061493
v 1.010687 2.309313 -2.065754
v 1.003378 2.313436 -2.094880
v 0.986404 2.313449 -2.090619
v 0.983027 2.410000 -2.067532
v 0.995203 2.410000 -2.054963
v 1.012176 2.410000 -2.059223
v 1.016973 2.410000 -2.076053
v 1.004797 2.410000 -2.088622
v 0.987824 2.410000 -2.084362
vn 0.3805 0.8498 -0.3647
vn 0.2245 0.8391 0.4955
vn -0.1346 0.1072 0.9851
vn -0.3807 -0.7950 0.4723
vn -0.1958 -0.7962 -0.5725
vn 0.2122 0.1087 -0.9712
vn 0.6213 0.6995 -0.3531
vn 0.4804 0.6765 0.5582
vn -0.0842 0.0620 0.9945
vn -0.6034 -0.6465 0.4669
vn -0.4465 -0.6334 -0.6320
vn 0.2131 0.1035 -0.9715
vn 0.8677 0.3469 -0.3560
vn 0.7550 0.2836 0.5912
vn -0.0760 -0.0480 0.9960
vn -0.8501 -0.3321 0.4087
vn -0.7336 -0.2671 -0.6248
vn 0.1716 0.0880 -0.9812
vn 0.9322 0.0935 -0.3498
vn 0.8012 0.0736 0.5939
vn -0.0019 -0.1302 0.9915
vn -0.8975 -0.1487 0.4151
vn -0.8065 -0.0252 -0.5906
vn 0.1367 0.1246 -0.9827
vn 0.8162 -0.1378 0.5611
vn -0.8951 -0.0688 0.4406
vn -0.7877 0.1611 -0.5946
vn 0.1147 0.1634 -0.9799
vn 0.9485 -0.0158 -0.3165
vn -0.0329 -0.2324 0.9721
vn -0.8903 -0.0230 0.4548
vn 0.7697 -0.2617 0.5823
vn -0.7792 0.2684 -0.5665
vn 0.0371 0.2865 -0.9573
vn 0.9399 0.0269 -0.3403
vn -0.1287 -0.3050 0.9436
vn -0.8991 -0.0718 0.4318
vn 0.7876 -0.3125 0.5311
vn -0.1262 -0.4115 0.9026
vn -0.8440 0.3039 -0.4419
vn 0.1671 0.3880 -0.9064
vn 0.9306 0.1627 -0.3278
vn 0.7716 -0.3615 0.5235
vn -0.1523 -0.5190 0.8411
vn -0.9219 -0.1817 0.3421
vn 0.1213 0.5387 -0.8337
vn 0.9328 0.2946 -0.2076
vn 0.7630 -0.4117 0.4983
vn -0.1447 -0.7002 0.6991
vn -0.9112 -0.3317 0.2443
vn -0.8142 0.3600 -0.4555
vn 0.1213 0.6967 -0.7070
vn 0.8943 0.4466 0.0283
vn 0.7620 -0.4694 0.4462
vn -0.0957 -0.9019 0.4212
vn -0.8577 -0.5140 0.0152
vn -0.8386 0.3568 -0.4116
vn 0.0422 0.8998 -0.4344
vn 0.7764 0.5594 0.2901
vn 0.7813 -0.4581 0.4240
vn 0.0062 -0.9910 0.1338
vn -0.7630 -0.5835 -0.2781
vn -0.8196 0.3777 -0.4307
vn -0.0615 0.9860 -0.1551
vn 0.6423 0.6028 0.4735
vn 0.7282 -0.4254 0.5374
vn 0.0491 -0.9981 0.0378
vn -0.6628 -0.5674 -0.4887
vn -0.7376 0.3978 -0.5456
vn -0.1084 0.9908 -0.0811
vn 0.4918 0.6094 0.6219
vn 0.5592 -0.4285 0.7097
vn 0.0323 -0.9986 0.0430
vn -0.5116 -0.5639 -0.6483
vn -0.5685 0.3929 -0.7228
vn -0.0905 0.9889 -0.1175
vn 0.2775 0.6046 0.7466
vn 0.3143 -0.4211 0.8508
vn 0.0172 -0.9982 0.0581
vn -0.2906 -0.5673 -0.7705
vn -0.3207 0.4005 -0.8583
vn -0.0479 0.9903 -0.1302
vn 0.0759 0.6012 0.7955
vn 0.0868 -0.4215 0.9027
vn 0.0001 -1.0000 -0.0013
vn -0.0763 -0.5661 -0.8208
vn -0.0875 0.3972 -0.9136
vn 0.0087 0.9776 -0.2101
vn -0.1287 0.5883 0.7983
vn -0.1505 -0.3979 0.9050
vn 0.1263 -0.5819 -0.8034
vn 0.1470 0.4088 -0.9007
vn -0.2200 0.5854 0.7803
vn -0.2791 -0.4054 0.8705
vn -0.0311 -0.9941 0.1039
vn 0.2503 -0.5852 -0.7713
vn 0.2580 0.4116 -0.8741
vn 0.0320 0.9932 -0.1120
vn -0.2590 0.5734 0.7772
vn -0.2683 -0.4041 0.8745
vn -0.0363 -0.9908 0.1306
vn 0.2329 -0.5933 -0.7705
vn 0.2904 0.4157 -0.8619
vn 0.0277 0.9953 -0.0925
vn -0.1786 0.5571 0.8110
vn -0.1087 -0.4300 0.8963
vn -0.0279 -0.9903 0.1364
vn 0.1258 -0.6227 -0.7723
vn 0.2121 0.4108 -0.8867
vn -0.0108 0.9990 -0.0423
vn 0.0521 -0.9884 0.1424
vn 0.0520 0.3948 -0.9173
vn -0.1005 0.5660 0.8182
vn 0.0382 -0.4807 0.8761
vn 0.1488 -0.6429 -0.7513
vn -0.0179 0.3614 -0.9322
vn -0.1580 0.9725 -0.1711
vn -0.1710 0.5056 0.8457
vn 0.2934 -0.9493 0.1133
vn 0.1860 -0.3683 0.9109
vn 0.2640 -0.6158 -0.7423
vn -0.1056 0.3456 -0.9324
vn -0.4388 0.8898 -0.1253
vn -0.2208 0.5104 0.8311
vn 0.3632 -0.2680 0.8923
vn 0.5489 -0.8289 0.1075
vn -0.3061 0.2475 -0.9193
vn 0.2905 -0.5912 -0.7524
vn -0.6731 0.7384 -0.0412
vn -0.1721 0.5958 0.7845
vn 0.5153 -0.0977 0.8514
vn 0.7227 -0.6838 0.1003
vn -0.5359 0.0893 -0.8396
vn 0.1500 -0.6581 -0.7379
vn -0.7221 0.6917 -0.0079
vn -0.0903 0.7381 0.6686
vn 0.6116 0.0253 0.7908
vn 0.7128 -0.6873 0.1399
vn -0.6648 0.0339 -0.7462
vn -0.0277 -0.7799 -0.6253
vn -0.6287 0.7666 -0.1306
vn 0.0400 0.8227 0.5670
vn 0.6222 0.1010 0.7763
vn 0.5896 -0.7562 0.2839
vn -0.6698 0.0560 -0.7404
vn 0.0875 0.8653 0.4936
vn -0.1890 -0.8112 -0.5533
vn -0.5015 0.8095 -0.3053
vn 0.5885 0.0186 0.8083
vn 0.3868 -0.8784 0.2808
vn -0.5614 0.0056 -0.8275
vn 0.0420 0.8333 0.5512
vn 0.4358 -0.0695 0.8974
vn -0.0381 -0.8253 -0.5634
vn -0.4417 0.0164 -0.8970
vn -0.4066 0.8424 -0.3536
vn -0.1764 0.7718 0.6109
vn 0.2247 -0.1205 0.9669
vn 0.3813 -0.8732 0.3036
vn 0.1622 -0.7501 -0.6412
vn -0.2074 0.0810 -0.9749
vn -0.3837 0.8395 -0.3847
vn -0.4418 0.6530 0.6151
vn -0.0175 -0.2399 0.9706
vn 0.4135 -0.8640 0.2872
vn 0.4211 -0.6246 -0.6576
vn 0.0370 0.1943 -0.9802
vn -0.3891 0.8378 -0.3830
vn -0.6179 0.5381 0.5732
vn -0.2038 -0.4127 0.8878
vn 0.4737 -0.8172 0.3285
vn 0.6377 -0.5201 -0.5682
vn 0.2838 0.2948 -0.9124
vn -0.4401 0.7888 -0.4290
vn -0.8432 0.3060 0.4421
vn 0.5861 -0.7187 0.3741
vn 0.8074 -0.3416 -0.4810
vn -0.9074 0.2122 0.3628
vn -0.2782 -0.4704 0.8374
vn 0.9142 -0.2321 -0.3323
vn 0.3256 0.4376 -0.8381
vn -0.5986 0.6355 -0.4876
vn 0.6333 -0.5611 0.5329
vn -0.9504 0.0380 0.3086
vn -0.2477 -0.3721 0.8945
vn 0.6351 -0.5255 0.5662
vn 0.9705 -0.0935 -0.2223
vn 0.3429 0.3480 -0.8725
vn -0.6322 0.5351 -0.5604
vn 0.6988 -0.3276 0.6358
vn -0.6624 0.3308 -0.6721
vn -0.9458 -0.0133 0.3245
vn -0.2876 -0.2425 0.9265
vn 0.6988 -0.2601 0.6664
vn 0.9889 -0.0255 -0.1466
vn 0.2721 0.2512 -0.9289
vn -0.6642 0.2683 -0.6977
vn -0.2725 -0.1073 0.9562
vn 0.6925 -0.1060 0.7136
vn 0.2701 0.1060 -0.9570
vn -0.6929 0.1050 -0.7133
vn -0.9716 -0.0004 0.2366
vn -0.2786 -0.0611 0.9585
vn 0.6985 -0.0599 0.7131
vn 0.9672 0.0033 -0.2541
vn 0.2604 0.0635 -0.9634
vn -0.6879 0.0611 -0.7232
vt 0.089804 0.166667
vt 0.067537 0.000000
vt 0.062500 0.166667
vt 0.070592 0.333333
vt 0.111577 1.000000
vt 0.090528 0.833333
vt 0.067537 1.000000
vt 0.111577 0.000000
vt 0.116525 0.333333
vt 0.134061 0.166667
vt 0.137335 0.666667
vt 0.115487 0.500000
vt 0.091877 0.666667
vt 0.159769 1.000000
vt 0.137159 0.833333
vt 0.159769 0.000000
vt 0.160323 0.500000
vt 0.166667 0.333333
vt 0.145833 0.333333
vt 0.181564 0.666667
vt 0.000000 0.833333
vt 0.000000 1.000000
vt 0.020833 1.000000
vt 0.020833 0.833333
vt 0.187500 0.833333
vt 0.166667 0.833333
vt 0.354167 0.500000
vt 0.340113 0.333333
vt 0.333333 0.500000
vt 0.341254 0.833333
vt 0.354167 0.666667
vt 0.333333 0.666667
vt 0.450293 1.000000
vt 0.453539 0.833333
vt 0.382300 0.833333
vt 0.453960 0.500000
vt 0.450423 0.333333
vt 0.382835 0.500000
vt 0.486338 0.500000
vt 0.515857 0.333333
vt 0.479167 0.333333
vt 0.500000 0.666667
vt 0.479167 0.666667
vt 0.533648 0.166667
vt 0.488363 0.166667
vt 0.554885 0.000000
vt 0.520833 0.000000
vt 0.554885 1.000000
vt 0.574090 0.833333
vt 0.533385 0.833333
vt 0.571376 0.500000
vt 0.554448 0.333333
vt 0.532989 0.500000
vt 0.592625 0.666667
vt 0.562500 0.666667
vt 0.594026 1.000000
vt 0.612875 0.833333
vt 0.612028 0.500000
vt 0.591269 0.333333
vt 0.637733 1.000000
vt 0.630096 0.333333
vt 0.633563 0.666667
vt 0.656796 0.500000
vt 0.677065 1.000000
vt 0.660126 0.833333
vt 0.677977 0.333333
vt 0.678525 0.666667
vt 0.698724 0.500000
vt 0.708333 1.000000
vt 0.700223 0.833333
vt 0.717699 0.333333
vt 0.716976 0.166667
vt 0.733518 0.000000
vt 0.708333 0.000000
vt 0.736308 0.833333
vt 0.720259 0.666667
vt 0.737934 0.500000
vt 0.765570 0.333333
vt 0.750000 0.666667
vt 0.770833 0.166667
vt 0.750000 0.166667
vt 0.842152 0.166667
vt 0.854167 0.000000
vt 0.833333 0.000000
vt 0.865573 0.333333
vt 0.833333 0.333333
vt 0.882160 0.500000
vt 0.854167 0.500000
vt 0.895833 0.333333
vt 0.886541 0.166667
vt 0.928379 1.000000
vt 0.937500 0.833333
vt 0.916667 0.833333
vt 0.937500 0.333333
vt 0.930066 0.166667
vt 0.916667 0.333333
vt 0.969521 1.000000
vt 0.979167 0.833333
vt 0.958333 0.833333
vt 0.979167 0.166667
vt 0.969521 0.000000
vt 0.958333 0.166667
vt 0.020833 0.000000
vt 0.000000 0.000000
vt 0.000000 0.166667
vt 0.020833 0.166667
vt 0.000000 0.333333
vt 0.020833 0.333333
vt 0.000000 0.500000
vt 0.020833 0.500000
vt 0.000000 0.666667
vt 0.020833 0.666667
vt 0.041667 1.000000
vt 0.041667 0.833333
vt 0.041667 0.166667
vt 0.041667 0.000000
vt 0.041667 0.333333
vt 0.041667 0.500000
vt 0.041667 0.666667
vt 0.062500 0.833333
vt 0.062500 0.500000
vt 0.062500 0.666667
vt 0.083333 0.500000
vt 0.166667 0.166667
vt 0.187500 1.000000
vt 0.187500 0.000000
vt 0.187500 0.166667
vt 0.187500 0.333333
vt 0.187500 0.500000
vt 0.208333 0.833333
vt 0.208333 1.000000
vt 0.208333 0.000000
vt 0.208333 0.166667
vt 0.208333 0.333333
vt 0.208333 0.500000
vt 0.208333 0.666667
vt 0.229167 0.833333
vt 0.229167 1.000000
vt 0.229167 0.000000
vt 0.229167 0.166667
vt 0.229167 0.333333
vt 0.229167 0.500000
vt 0.229167 0.666667
vt 0.250000 1.000000
vt 0.250000 0.833333
vt 0.250000 0.166667
vt 0.250000 0.000000
vt 0.250000 0.333333
vt 0.250000 0.500000
vt 0.250000 0.666667
vt 0.270833 1.000000
vt 0.270833 0.833333
vt 0.270833 0.166667
vt 0.270833 0.000000
vt 0.270833 0.333333
vt 0.270833 0.500000
vt 0.270833 0.666667
vt 0.291667 1.000000
vt 0.291667 0.833333
vt 0.291667 0.166667
vt 0.291667 0.000000
vt 0.291667 0.333333
vt 0.291667 0.500000
vt 0.291667 0.666667
vt 0.312500 1.000000
vt 0.312500 0.833333
vt 0.312500 0.166667
vt 0.312500 0.000000
vt 0.312500 0.333333
vt 0.312500 0.500000
vt 0.312500 0.666667
vt 0.333333 1.000000
vt 0.333333 0.000000
vt 0.333333 0.166667
vt 0.354167 0.000000
vt 0.354167 0.166667
vt 0.354167 1.000000
vt 0.379022 1.000000
vt 0.379022 0.000000
vt 0.381212 0.166667
vt 0.379442 0.333333
vt 0.381359 0.666667
vt 0.450293 0.000000
vt 0.451477 0.166667
vt 0.451441 0.666667
vt 0.488055 0.833333
vt 0.483916 1.000000
vt 0.483916 0.000000
vt 0.520833 1.000000
vt 0.533914 0.666667
vt 0.562500 0.166667
vt 0.594026 0.000000
vt 0.595372 0.166667
vt 0.632894 0.166667
vt 0.637733 0.000000
vt 0.674541 0.166667
vt 0.677065 0.000000
vt 0.733518 1.000000
vt 0.770833 1.000000
vt 0.770833 0.833333
vt 0.770833 0.000000
vt 0.770833 0.666667
vt 0.770833 0.500000
vt 0.791667 1.000000
vt 0.791667 0.833333
vt 0.791667 0.000000
vt 0.791667 0.166667
vt 0.791667 0.333333
vt 0.791667 0.500000
vt 0.791667 0.666667
vt 0.812500 0.833333
vt 0.812500 1.000000
vt 0.812500 0.000000
vt 0.812500 0.166667
vt 0.812500 0.333333
vt 0.812500 0.500000
vt 0.812500 0.666667
vt 0.840753 0.833333
vt 0.833333 1.000000
vt 0.833333 0.500000
vt 0.838794 0.666667
vt 0.854167 1.000000
vt 0.884363 0.833333
vt 0.884372 1.000000
vt 0.884372 0.000000
vt 0.882571 0.666667
vt 0.928379 0.000000
vt 0.924591 0.500000
vt 0.926646 0.666667
vt 0.958333 0.333333
vt 0.967791 0.500000
vt 0.958333 0.666667
vt 0.979167 0.333333
vt 0.979167 0.666667
vt 1.000000 1.000000
vt 1.000000 0.833333
vt 1.000000 0.166667
vt 1.000000 0.000000
vt 1.000000 0.333333
vt 1.000000 0.500000
vt 1.000000 0.666667
s 1
f 25/1/25 19/2/19 20/3/20
f 21/4/21 25/1/25 20/3/20
f 29/5/29 28/6/28 19/7/19
f 25/1/25 29/8/29 19/2/19
f 30/9/30 32/10/32 25/1/25
f 33/11/33 31/12/31 27/13/27
f 35/14/35 34/15/34 29/5/29
f 32/10/32 35/16/35 29/8/29
f 37/17/37 39/18/39 36/19/36
f 40/20/40 37/17/37 33/11/33
f 6/21/6 1/22/1 7/23/7 12/24/12
f 46/25/46 40/20/40 41/26/41
f 91/27/91 85/28/85 86/29/86
f 88/30/88 92/31/92 87/32/87
f 99/33/99 104/34/104 98/35/98
f 102/36/102 101/37/101 96/38/96
f 108/39/108 111/40/111 107/41/107
f 112/42/112 108/39/108 109/43/109
f 111/40/111 114/44/114 106/45/106
f 114/44/114 118/46/118 113/47/113
f 118/48/118 123/49/123 117/50/117
f 121/51/121 119/52/119 115/53/115
f 127/54/127 121/51/121 122/55/122
f 123/49/123 127/54/127 122/55/122
f 124/56/124 129/57/129 123/49/123
f 128/58/128 126/59/126 121/51/121
f 127/54/127 128/58/128 121/51/121
f 130/60/130 129/57/129 124/56/124
f 128/58/128 132/61/132 126/59/126
f 129/57/129 133/62/133 127/54/127
f 133/62/133 134/63/134 128/58/128
f 136/64/136 135/65/135 130/60/130
f 134/63/134 138/66/138 132/61/132
f 135/65/135 139/67/139 133/62/133
f 139/67/139 140/68/140 134/63/134
f 142/69/142 141/70/141 136/64/136
f 140/68/140 144/71/144 138/66/138
f 143/72/143 146/73/146 142/74/142
f 148/75/148 145/76/145 141/70/141
f 147/77/147 150/78/150 144/71/144
f 151/79/151 147/77/147 145/76/145
f 150/78/150 153/80/153 149/81/149
f 170/82/170 175/83/175 169/84/169
f 176/85/176 170/82/170 171/86/171
f 180/87/180 176/85/176 177/88/177
f 183/89/183 179/90/179 176/85/176
f 184/91/184 191/92/191 189/93/189
f 190/94/190 185/95/185 186/96/186
f 192/97/192 201/98/201 197/99/197
f 198/100/198 192/101/192 193/102/193
f 7/103/7 1/104/1 2/105/2 8/106/8
f 8/106/8 2/105/2 3/107/3 9/108/9
f 9/108/9 3/107/3 4/109/4 10/110/10
f 4/109/4 5/111/5 11/112/11 10/110/10
f 5/111/5 6/21/6 12/24/12 11/112/11
f 12/24/12 7/23/7 13/113/13 18/114/18
f 7/103/7 8/106/8 14/115/14 13/116/13
f 14/115/14 8/106/8 9/108/9 15/117/15
f 15/117/15 9/108/9 10/110/10 16/118/16
f 16/118/16 10/110/10 11/112/11 17/119/17
f 11/112/11 12/24/12 18/114/18 17/119/17
f 18/114/18 13/113/13 19/7/19 24/120/24
f 13/116/13 14/115/14 20/3/20 19/2/19
f 20/3/20 14/115/14 15/117/15 21/4/21
f 21/4/21 15/117/15 16/118/16 22/121/22
f 22/121/22 16/118/16 17/119/17 23/122/23
f 17/119/17 18/114/18 24/120/24 23/122/23
f 26/123/26 22/121/22 23/122/23 27/13/27
f 19/7/19 28/6/28 24/120/24
f 22/121/22 26/123/26 21/4/21
f 23/122/23 24/120/24 28/6/28 27/13/27
f 30/9/30 21/4/21 26/123/26 31/12/31
f 21/4/21 30/9/30 25/1/25
f 27/13/27 28/6/28 34/15/34 33/11/33
f 27/13/27 31/12/31 26/123/26
f 29/5/29 34/15/34 28/6/28
f 25/1/25 32/10/32 29/8/29
f 36/19/36 30/9/30 31/12/31 37/17/37
f 30/9/30 36/19/36 32/10/32
f 38/124/38 32/10/32 36/19/36 39/18/39
f 33/11/33 37/17/37 31/12/31
f 35/14/35 41/26/41 34/15/34
f 32/10/32 38/124/38 35/16/35
f 33/11/33 34/15/34 41/26/41 40/20/40
f 46/25/46 41/26/41 35/14/35 42/125/42
f 42/126/42 35/16/35 38/124/38 43/127/43
f 43/127/43 38/124/38 39/18/39 44/128/44
f 39/18/39 37/17/37 45/129/45 44/128/44
f 52/130/52 46/25/46 42/125/42 47/131/47
f 40/20/40 45/129/45 37/17/37
f 47/132/47 42/126/42 43/127/43 48/133/48
f 48/133/48 43/127/43 44/128/44 49/134/49
f 44/128/44 45/129/45 50/135/50 49/134/49
f 45/129/45 40/20/40 51/136/51 50/135/50
f 40/20/40 46/25/46 52/130/52 51/136/51
f 58/137/58 52/130/52 47/131/47 53/138/53
f 53/139/53 47/132/47 48/133/48 54/140/54
f 54/140/54 48/133/48 49/134/49 55/141/55
f 49/134/49 50/135/50 56/142/56 55/141/55
f 50/135/50 51/136/51 57/143/57 56/142/56
f 51/136/51 52/130/52 58/137/58 57/143/57
f 58/137/58 53/138/53 59/144/59 64/145/64
f 53/139/53 54/140/54 60/146/60 59/147/59
f 54/140/54 55/141/55 61/148/61 60/146/60
f 61/148/61 55/141/55 56/142/56 62/149/62
f 62/149/62 56/142/56 57/143/57 63/150/63
f 63/150/63 57/143/57 58/137/58 64/145/64
f 64/145/64 59/144/59 65/151/65 70/152/70
f 59/147/59 60/146/60 66/153/66 65/154/65
f 60/146/60 61/148/61 67/155/67 66/153/66
f 67/155/67 61/148/61 62/149/62 68/156/68
f 68/156/68 62/149/62 63/150/63 69/157/69
f 69/157/69 63/150/63 64/145/64 70/152/70
f 70/152/70 65/151/65 71/158/71 76/159/76
f 65/154/65 66/153/66 72/160/72 71/161/71
f 72/160/72 66/153/66 67/155/67 73/162/73
f 73/162/73 67/155/67 68/156/68 74/163/74
f 74/163/74 68/156/68 69/157/69 75/164/75
f 69/157/69 70/152/70 76/159/76 75/164/75
f 76/159/76 71/158/71 77/165/77 82/166/82
f 71/161/71 72/160/72 78/167/78 77/168/77
f 78/167/78 72/160/72 73/162/73 79/169/79
f 79/169/79 73/162/73 74/163/74 80/170/80
f 80/170/80 74/163/74 75/164/75 81/171/81
f 75/164/75 76/159/76 82/166/82 81/171/81
f 88/30/88 82/166/82 77/165/77 83/172/83
f 83/173/83 77/168/77 78/167/78 84/174/84
f 78/167/78 79/169/79 85/28/85 84/174/84
f 79/169/79 80/170/80 86/29/86 85/28/85
f 80/170/80 81/171/81 87/32/87 86/29/86
f 87/32/87 81/171/81 82/166/82 88/30/88
f 89/175/89 83/173/83 84/174/84 90/176/90
f 83/172/83 89/177/89 88/30/88
f 86/29/86 87/32/87 92/31/92 91/27/91
f 85/28/85 90/176/90 84/174/84
f 98/35/98 88/30/88 89/177/89 93/178/93
f 93/179/93 89/175/89 90/176/90 94/180/94
f 90/176/90 85/28/85 95/181/95 94/180/94
f 85/28/85 91/27/91 96/38/96 95/181/95
f 91/27/91 92/31/92 97/182/97 96/38/96
f 97/182/97 92/31/92 88/30/88 98/35/98
f 99/183/99 93/179/93 94/180/94 100/184/100
f 93/178/93 99/33/99 98/35/98
f 94/180/94 95/181/95 101/37/101 100/184/100
f 96/38/96 97/182/97 103/185/103 102/36/102
f 96/38/96 101/37/101 95/181/95
f 103/185/103 97/182/97 98/35/98 104/34/104
f 110/186/110 104/34/104 99/33/99 105/187/105
f 105/188/105 99/183/99 100/184/100 106/45/106
f 100/184/100 101/37/101 107/41/107 106/45/106
f 101/37/101 102/36/102 108/39/108 107/41/107
f 102/36/102 103/185/103 109/43/109 108/39/108
f 109/43/109 103/185/103 104/34/104 110/186/110
f 110/186/110 105/187/105 113/189/113 117/50/117
f 107/41/107 111/40/111 106/45/106
f 110/186/110 112/42/112 109/43/109
f 113/47/113 105/188/105 106/45/106 114/44/114
f 108/39/108 112/42/112 116/190/116 115/53/115
f 108/39/108 115/53/115 111/40/111
f 112/42/112 110/186/110 117/50/117 116/190/116
f 115/53/115 116/190/116 122/55/122 121/51/121
f 113/189/113 118/48/118 117/50/117
f 111/40/111 119/52/119 114/44/114
f 115/53/115 119/52/119 111/40/111
f 114/44/114 120/191/120 118/46/118
f 119/52/119 120/191/120 114/44/114
f 122/55/122 116/190/116 117/50/117 123/49/123
f 124/192/124 118/46/118 120/191/120 125/193/125
f 118/48/118 124/56/124 123/49/123
f 120/191/120 119/52/119 126/59/126 125/193/125
f 124/192/124 125/193/125 131/194/131 130/195/130
f 121/51/121 126/59/126 119/52/119
f 123/49/123 129/57/129 127/54/127
f 125/193/125 126/59/126 132/61/132 131/194/131
f 130/195/130 131/194/131 137/196/137 136/197/136
f 127/54/127 133/62/133 128/58/128
f 130/60/130 135/65/135 129/57/129
f 128/58/128 134/63/134 132/61/132
f 129/57/129 135/65/135 133/62/133
f 131/194/131 132/61/132 138/66/138 137/196/137
f 136/197/136 137/196/137 143/72/143 142/74/142
f 133/62/133 139/67/139 134/63/134
f 136/64/136 141/70/141 135/65/135
f 134/63/134 140/68/140 138/66/138
f 135/65/135 141/70/141 139/67/139
f 143/72/143 137/196/137 138/66/138 144/71/144
f 141/70/141 142/69/142 146/198/146 148/75/148
f 139/67/139 145/76/145 140/68/140
f 141/70/141 145/76/145 139/67/139
f 149/81/149 143/72/143 144/71/144 150/78/150
f 140/68/140 147/77/147 144/71/144
f 145/76/145 147/77/147 140/68/140
f 143/72/143 149/81/149 146/73/146
f 148/75/148 146/198/146 152/199/152 156/200/156
f 148/75/148 151/79/151 145/76/145
f 152/201/152 146/73/146 149/81/149 153/80/153
f 147/77/147 151/79/151 155/202/155 154/203/154
f 147/77/147 154/203/154 150/78/150
f 151/79/151 148/75/148 156/200/156 155/202/155
f 156/200/156 152/199/152 157/204/157 162/205/162
f 157/206/157 152/201/152 153/80/153 158/207/158
f 158/207/158 153/80/153 150/78/150 159/208/159
f 159/208/159 150/78/150 154/203/154 160/209/160
f 154/203/154 155/202/155 161/210/161 160/209/160
f 155/202/155 156/200/156 162/205/162 161/210/161
f 168/211/168 162/205/162 157/204/157 163/212/163
f 163/213/163 157/206/157 158/207/158 164/214/164
f 164/214/164 158/207/158 159/208/159 165/215/165
f 159/208/159 160/209/160 166/216/166 165/215/165
f 160/209/160 161/210/161 167/217/167 166/216/166
f 161/210/161 162/205/162 168/211/168 167/217/167
f 174/218/174 168/211/168 163/212/163 169/219/169
f 169/84/169 163/213/163 164/214/164 170/82/170
f 164/214/164 165/215/165 171/86/171 170/82/170
f 165/215/165 166/216/166 172/220/172 171/86/171
f 166/216/166 167/217/167 173/221/173 172/220/172
f 173/221/173 167/217/167 168/211/168 174/218/174
f 171/86/171 172/220/172 177/88/177 176/85/176
f 169/219/169 175/222/175 174/218/174
f 182/223/182 174/218/174 175/222/175 178/224/178
f 173/221/173 177/88/177 172/220/172
f 178/225/178 175/83/175 170/82/170 179/90/179
f 177/88/177 173/221/173 181/226/181 180/87/180
f 176/85/176 179/90/179 170/82/170
f 181/226/181 173/221/173 174/218/174 182/223/182
f 189/93/189 182/223/182 178/224/178 184/91/184
f 180/87/180 183/89/183 176/85/176
f 184/227/184 178/225/178 179/90/179 185/95/185
f 179/90/179 183/89/183 186/96/186 185/95/185
f 183/89/183 180/87/180 187/228/187 186/96/186
f 180/87/180 181/226/181 188/229/188 187/228/187
f 188/229/188 181/226/181 182/223/182 189/93/189
f 197/99/197 191/92/191 184/91/184 192/97/192
f 187/228/187 190/94/190 186/96/186
f 189/93/189 191/92/191 188/229/188
f 184/227/184 185/95/185 193/102/193 192/101/192
f 185/95/185 190/94/190 194/230/194 193/102/193
f 190/94/190 187/228/187 195/231/195 194/230/194
f 195/231/195 187/228/187 188/229/188 196/232/196
f 196/232/196 188/229/188 191/92/191 197/99/197
f 193/102/193 194/230/194 199/233/199 198/100/198
f 200/234/200 196/232/196 197/99/197 201/98/201
f 195/231/195 199/233/199 194/230/194
f 196/232/196 200/234/200 195/231/195
f 201/98/201 192/97/192 202/235/202 207/236/207
f 192/101/192 198/100/198 203/237/203 202/238/202
f 198/100/198 199/233/199 204/239/204 203/237/203
f 204/239/204 199/233/199 195/231/195 205/240/205
f 205/240/205 195/231/195 200/234/200 206/241/206
f 206/241/206 200/234/200 201/98/201 207/236/207
o BézierCurve.014
v -0.600574 2.520229 -1.731032
v -0.604072 2.520229 -1.713885
v -0.605928 2.505075 -1.705333
v -0.604287 2.489919 -1.713929
v -0.600790 2.489919 -1.731076
v -0.598934 2.505075 -1.739627
v -0.546300 2.500049 -1.721457
v -0.548893 2.499717 -1.704153
v -0.559674 2.487845 -1.697148
v -0.567863 2.476306 -1.707446
v -0.565269 2.476638 -1.724749
v -0.554488 2.488510 -1.731755
v -0.514029 2.448191 -1.719539
v -0.516032 2.447040 -1.702193
v -0.531045 2.441036 -1.695497
v -0.544054 2.436182 -1.706149
v -0.542050 2.437333 -1.723496
v -0.527038 2.443337 -1.730191
v -0.496827 2.354045 -1.726639
v -0.501164 2.373487 -1.707326
v -0.513338 2.336944 -1.703723
v -0.531119 2.370414 -1.710797
v -0.529315 2.372367 -1.728094
v -0.513436 2.374880 -1.735007
v -0.498451 2.253223 -1.723712
v -0.528565 2.285305 -1.721981
v -0.527880 2.247917 -1.745034
v -0.511520 2.254920 -1.751260
v -0.505131 2.150740 -1.761767
v -0.525322 2.121802 -1.743391
v -0.539008 2.130701 -1.751761
v -0.519935 2.033561 -1.774003
v -0.549592 2.026210 -1.798045
v -0.533659 2.027452 -1.804770
v -0.532921 1.914260 -1.832729
v -0.543000 1.974285 -1.786401
v -0.565307 1.909609 -1.820771
v -0.538421 1.876007 -1.831783
v -0.554485 1.874543 -1.824996
v -0.572331 1.824350 -1.879332
v -0.550133 1.888450 -1.856818
v -0.543262 1.798002 -1.891619
v -0.545595 1.788864 -1.876878
v -0.561771 1.785825 -1.870935
v -0.575615 1.791924 -1.879732
v -0.557106 1.804102 -1.900416
v -0.543187 1.731458 -1.941265
v -0.545449 1.719212 -1.928971
v -0.561570 1.713695 -1.924977
v -0.575428 1.720424 -1.933279
v -0.573166 1.732671 -1.945574
v -0.557045 1.738188 -1.949567
v -0.533537 1.688739 -1.995681
v -0.534831 1.672964 -1.988217
v -0.550137 1.664481 -1.988283
v -0.564150 1.671773 -1.995814
v -0.562856 1.687548 -2.003278
v -0.547550 1.696031 -2.003212
v -0.511505 1.673735 -2.056181
v -0.510944 1.656425 -2.053674
v -0.524416 1.646423 -2.058646
v -0.538448 1.653731 -2.066124
v -0.539009 1.671042 -2.068631
v -0.525537 1.681044 -2.063659
v -0.468673 1.673941 -2.131313
v -0.467254 1.656531 -2.130251
v -0.478677 1.646291 -2.138672
v -0.491518 1.653462 -2.148157
v -0.492936 1.670872 -2.149219
v -0.481513 1.681112 -2.140798
v -0.421792 1.673864 -2.181451
v -0.420712 1.656455 -2.180039
v -0.429507 1.646211 -2.191173
v -0.439383 1.653376 -2.203718
v -0.440463 1.670785 -2.205130
v -0.431668 1.681030 -2.193996
v -0.371711 1.673761 -2.209944
v -0.371113 1.656352 -2.208261
v -0.376127 1.646101 -2.221528
v -0.381738 1.653258 -2.236479
v -0.382336 1.670666 -2.238163
v -0.377323 1.680918 -2.224896
v -0.317699 1.673649 -2.220992
v -0.317598 1.656241 -2.219198
v -0.298542 1.645853 -2.235276
v -0.319858 1.653130 -2.249264
v -0.319959 1.670538 -2.251058
v -0.295089 1.680774 -2.238827
v -0.258973 1.673546 -2.217806
v -0.259248 1.656139 -2.216024
v -0.255067 1.653017 -2.245883
v -0.254792 1.670424 -2.247664
v -0.182243 1.673352 -2.199657
v -0.175602 1.656040 -2.195744
v -0.177306 1.645730 -2.211169
v -0.161219 1.652861 -2.223091
v -0.165605 1.670297 -2.226534
v -0.166662 1.680548 -2.211888
v 0.064939 1.673775 -2.105914
v 0.068823 1.656347 -2.102572
v 0.069361 1.646078 -2.117419
v 0.087392 1.653360 -2.128610
v 0.078643 1.670649 -2.133352
v 0.081973 1.680990 -2.117305
v 0.194001 1.673817 -2.071536
v 0.211437 1.656923 -2.066957
v 0.178117 1.646614 -2.087758
v 0.208425 1.653359 -2.097779
v 0.181488 1.671148 -2.105235
v 0.212672 1.681310 -2.084971
v 0.316389 1.648990 -2.071747
v 0.260662 1.671664 -2.094113
v 0.330682 1.678499 -2.059303
v 0.369222 1.664935 -2.054943
v 0.369303 1.661914 -2.085175
v 0.368967 1.679500 -2.087168
v 0.365044 1.689247 -2.072698
v 0.417076 1.694398 -2.054955
v 0.424819 1.667623 -2.067041
v 0.439339 1.684557 -2.052818
v 0.456768 1.687133 -2.082843
v 0.434304 1.697240 -2.085048
v 0.449713 1.714614 -2.071171
v 0.483620 1.726980 -2.057476
v 0.495780 1.714025 -2.056113
v 0.494044 1.700445 -2.068987
v 0.480503 1.720852 -2.087107
v 0.514800 1.726073 -2.090477
v 0.499744 1.749445 -2.078307
v 0.534310 1.773859 -2.074588
v 0.541912 1.756626 -2.070717
v 0.542592 1.743266 -2.082963
v 0.524217 1.760577 -2.100633
v 0.558815 1.773022 -2.113799
v 0.546838 1.799825 -2.104532
v 0.576377 1.818949 -2.106524
v 0.585832 1.803944 -2.102525
v 0.590935 1.794833 -2.117862
v 0.568146 1.807336 -2.133489
v 0.604382 1.814116 -2.153238
v 0.595502 1.842593 -2.146935
v 0.618812 1.849915 -2.144433
v 0.643591 1.844713 -2.153871
v 0.643394 1.830754 -2.164801
v 0.626807 1.846246 -2.185709
v 0.664971 1.870723 -2.184786
v 0.670065 1.843918 -2.211005
v 0.660320 1.872201 -2.203662
v 0.710039 1.865759 -2.208066
v 0.747016 1.860494 -2.244126
v 0.689750 1.865456 -2.236583
v 0.755505 1.893009 -2.247269
v 0.762448 1.878055 -2.241404
v 0.754006 1.864111 -2.266958
v 0.747063 1.879066 -2.272825
v 0.747813 1.893515 -2.262980
v 0.800105 1.906864 -2.262521
v 0.806806 1.891831 -2.256576
v 0.809745 1.878584 -2.267628
v 0.805982 1.880371 -2.284625
v 0.799281 1.895404 -2.290570
v 0.796343 1.908651 -2.279518
v 0.837676 1.923152 -2.263446
v 0.844694 1.908261 -2.257509
v 0.852120 1.897024 -2.268682
v 0.852529 1.900678 -2.285791
v 0.845512 1.915570 -2.291728
v 0.838085 1.926807 -2.280555
v 0.869861 1.943308 -2.253170
v 0.891857 1.939329 -2.239894
v 0.889161 1.920248 -2.256976
v 0.892691 1.925874 -2.273167
v 0.894918 1.947194 -2.274934
v 0.885566 1.957741 -2.263332
v 0.897816 1.969053 -2.233873
v 0.937255 1.968389 -2.220240
v 0.925999 1.956509 -2.250406
v 0.932323 2.019413 -2.193973
v 0.944703 2.012509 -2.182130
v 0.961855 2.007641 -2.209722
v 0.952031 2.020003 -2.217491
v 0.937834 2.027065 -2.208411
v 0.968668 2.029853 -2.173931
v 0.965054 2.126496 -2.127614
v 0.977719 2.124247 -2.114377
v 0.985333 2.083283 -2.140516
v 0.996549 2.113062 -2.142447
v 0.986125 2.126740 -2.150122
v 0.962634 2.100327 -2.160993
v 0.997643 2.146977 -2.109343
v 0.974118 2.159863 -2.131827
v 0.980149 2.271512 -2.079338
v 0.989008 2.222197 -2.079129
v 1.005969 2.221982 -2.083431
v 1.014195 2.264102 -2.088933
v 0.998900 2.230269 -2.111717
v 0.981938 2.230485 -2.107415
v 0.993714 2.309326 -2.061493
v 1.010687 2.309313 -2.065754
v 1.003378 2.313436 -2.094880
v 0.986404 2.313449 -2.090619
v 0.983027 2.410000 -2.067532
v 0.995203 2.410000 -2.054963
v 1.012176 2.410000 -2.059223
v 1.016973 2.410000 -2.076053
v 1.004797 2.410000 -2.088622
v 0.987824 2.410000 -2.084362
vn 0.3803 0.8501 -0.3642
vn 0.2245 0.8390 0.4956
vn -0.1346 0.1065 0.9852
vn -0.3805 -0.7953 0.4719
vn -0.1958 -0.7961 -0.5726
vn 0.2122 0.1093 -0.9711
vn 0.6217 0.7001 -0.3511
vn 0.4808 0.6772 0.5570
vn -0.0843 0.0622 0.9945
vn -0.6039 -0.6472 0.4653
vn -0.4469 -0.6343 -0.6308
vn 0.2131 0.1027 -0.9716
vn 0.8688 0.3496 -0.3505
vn 0.7533 0.2863 0.5921
vn -0.0633 -0.0443 0.9970
vn -0.8462 -0.3321 0.4167
vn -0.7333 -0.2651 -0.6261
vn 0.1663 0.0870 -0.9822
vn 0.9311 0.0924 -0.3529
vn 0.8027 0.0673 0.5925
vn -0.0057 -0.1313 0.9913
vn -0.9052 -0.1494 0.3979
vn -0.8011 -0.0259 -0.5979
vn 0.1386 0.1243 -0.9825
vn 0.8162 -0.1378 0.5611
vn -0.8895 -0.0673 0.4520
vn -0.7919 0.1609 -0.5890
vn 0.1124 0.1637 -0.9801
vn 0.9485 -0.0158 -0.3165
vn -0.0092 -0.2327 0.9725
vn -0.8833 -0.0258 0.4682
vn 0.7708 -0.2611 0.5811
vn -0.7904 0.2622 -0.5536
vn 0.0153 0.2856 -0.9582
vn 0.9397 0.0267 -0.3411
vn -0.1363 -0.3044 0.9427
vn -0.9012 -0.0696 0.4277
vn 0.7776 -0.3193 0.5417
vn -0.1508 -0.4073 0.9007
vn -0.8410 0.3064 -0.4460
vn 0.1944 0.3852 -0.9021
vn 0.9318 0.1625 -0.3244
vn 0.7739 -0.3597 0.5212
vn -0.1413 -0.5219 0.8413
vn -0.9200 -0.1843 0.3459
vn 0.1378 0.5374 -0.8320
vn 0.9330 0.2940 -0.2075
vn 0.7632 -0.4114 0.4982
vn -0.1446 -0.7001 0.6993
vn -0.9096 -0.3342 0.2469
vn -0.8196 0.3559 -0.4491
vn 0.1122 0.6988 -0.7064
vn 0.8940 0.4473 0.0280
vn 0.7610 -0.4706 0.4466
vn -0.0976 -0.9019 0.4207
vn -0.8573 -0.5145 0.0155
vn -0.8377 0.3582 -0.4122
vn 0.0440 0.8999 -0.4339
vn 0.7767 0.5588 0.2905
vn 0.7817 -0.4579 0.4234
vn 0.0053 -0.9911 0.1328
vn -0.7633 -0.5830 -0.2785
vn -0.8197 0.3781 -0.4303
vn -0.0619 0.9861 -0.1542
vn 0.6419 0.6036 0.4729
vn 0.7292 -0.4240 0.5372
vn 0.0508 -0.9980 0.0386
vn -0.6624 -0.5682 -0.4882
vn -0.7383 0.3966 -0.5455
vn -0.1107 0.9905 -0.0820
vn 0.4918 0.6093 0.6219
vn 0.5592 -0.4284 0.7097
vn 0.0323 -0.9985 0.0431
vn -0.5116 -0.5637 -0.6484
vn -0.5685 0.3927 -0.7229
vn -0.0905 0.9889 -0.1175
vn 0.2796 0.6108 0.7408
vn 0.3170 -0.4289 0.8459
vn 0.0160 -0.9986 0.0495
vn -0.2923 -0.5633 -0.7728
vn -0.3237 0.3916 -0.8613
vn -0.0514 0.9885 -0.1420
vn 0.0748 0.5956 0.7998
vn 0.0854 -0.4150 0.9058
vn -0.0002 -1.0000 0.0078
vn -0.0743 -0.5692 -0.8188
vn -0.0838 0.4041 -0.9109
vn 0.0091 0.9794 -0.2017
vn -0.1279 0.5780 0.8059
vn -0.1473 -0.3803 0.9131
vn 0.1220 -0.5872 -0.8002
vn 0.1426 0.4206 -0.8960
vn -0.2215 0.5963 0.7716
vn -0.2820 -0.4182 0.8635
vn -0.0257 -0.9968 0.0763
vn 0.2522 -0.5844 -0.7713
vn 0.2625 0.3973 -0.8793
vn 0.0350 0.9920 -0.1213
vn -0.2590 0.5841 0.7692
vn -0.2737 -0.3985 0.8754
vn -0.0330 -0.9928 0.1154
vn 0.2370 -0.5955 -0.7676
vn 0.2938 0.4153 -0.8609
vn 0.0249 0.9967 -0.0775
vn -0.1761 0.5547 0.8132
vn -0.1109 -0.4220 0.8998
vn -0.0334 -0.9866 0.1595
vn 0.1246 -0.6206 -0.7742
vn 0.2066 0.4124 -0.8873
vn -0.0050 0.9979 -0.0650
vn 0.0521 -0.9884 0.1424
vn 0.0595 0.3859 -0.9206
vn -0.1006 0.5421 0.8343
vn 0.0386 -0.4828 0.8749
vn 0.1472 -0.6516 -0.7441
vn -0.0231 0.3820 -0.9239
vn -0.1612 0.9771 -0.1388
vn -0.1732 0.5074 0.8442
vn 0.2914 -0.9509 0.1047
vn 0.1831 -0.3846 0.9048
vn 0.2637 -0.6153 -0.7429
vn -0.1068 0.3345 -0.9363
vn -0.4404 0.8883 -0.1303
vn -0.2147 0.5035 0.8369
vn 0.3684 -0.2727 0.8888
vn 0.5527 -0.8250 0.1182
vn -0.3061 0.2475 -0.9193
vn 0.2905 -0.5912 -0.7524
vn -0.6731 0.7384 -0.0412
vn -0.1694 0.5934 0.7869
vn 0.5140 -0.0908 0.8530
vn 0.7261 -0.6791 0.1082
vn -0.5359 0.0893 -0.8396
vn 0.1500 -0.6581 -0.7379
vn -0.7221 0.6917 -0.0079
vn -0.0980 0.7428 0.6623
vn 0.6076 0.0343 0.7935
vn 0.7123 -0.6879 0.1393
vn -0.6648 0.0339 -0.7462
vn -0.0277 -0.7799 -0.6253
vn -0.6292 0.7661 -0.1312
vn 0.0402 0.8228 0.5669
vn 0.6312 0.0818 0.7713
vn 0.5838 -0.7664 0.2679
vn -0.6698 0.0560 -0.7404
vn 0.0922 0.8631 0.4965
vn -0.1882 -0.8128 -0.5514
vn -0.5001 0.8118 -0.3015
vn 0.5856 0.0265 0.8102
vn 0.3878 -0.8749 0.2900
vn -0.5677 0.0067 -0.8232
vn 0.0322 0.8388 0.5434
vn 0.4273 -0.0488 0.9028
vn -0.0404 -0.8247 -0.5642
vn -0.4357 0.0149 -0.9000
vn -0.4083 0.8361 -0.3664
vn -0.1765 0.7717 0.6110
vn 0.2235 -0.1263 0.9665
vn 0.3808 -0.8768 0.2935
vn 0.1607 -0.7436 -0.6491
vn -0.2073 0.0809 -0.9749
vn -0.3837 0.8394 -0.3849
vn -0.4290 0.6549 0.6221
vn -0.0114 -0.2402 0.9707
vn 0.4135 -0.8623 0.2922
vn 0.4201 -0.6311 -0.6521
vn 0.0388 0.1861 -0.9818
vn -0.3855 0.8372 -0.3879
vn -0.6232 0.5367 0.5688
vn -0.2098 -0.4107 0.8873
vn 0.4770 -0.8214 0.3127
vn 0.6331 -0.5068 -0.5851
vn 0.2767 0.3042 -0.9116
vn -0.4458 0.7909 -0.4191
vn -0.8374 0.3046 0.4540
vn 0.5846 -0.7178 0.3782
vn 0.8053 -0.3372 -0.4877
vn -0.9094 0.2003 0.3646
vn -0.2719 -0.4767 0.8360
vn 0.9182 -0.2444 -0.3118
vn 0.3520 0.4267 -0.8331
vn -0.5903 0.6400 -0.4919
vn 0.6502 -0.5611 0.5122
vn -0.9493 0.0356 0.3124
vn -0.2428 -0.3742 0.8950
vn 0.6173 -0.5248 0.5861
vn 0.9714 -0.0936 -0.2184
vn 0.3460 0.3501 -0.8704
vn -0.6259 0.5314 -0.5708
vn 0.6956 -0.3314 0.6374
vn -0.6859 0.3322 -0.6474
vn -0.9475 -0.0122 0.3195
vn -0.2870 -0.2393 0.9275
vn 0.6971 -0.2568 0.6694
vn 0.9884 -0.0251 -0.1496
vn 0.2742 0.2472 -0.9294
vn -0.6463 0.2663 -0.7151
vn -0.2793 -0.1087 0.9540
vn 0.6977 -0.1074 0.7083
vn 0.2570 0.1088 -0.9603
vn -0.6844 0.1074 -0.7212
vn -0.9645 -0.0028 0.2639
vn -0.2641 -0.0585 0.9627
vn 0.6870 -0.0572 0.7244
vn 0.9749 0.0002 -0.2228
vn 0.2836 0.0579 -0.9572
vn -0.7027 0.0563 -0.7092
vt 0.089804 0.166667
vt 0.067537 0.000000
vt 0.062500 0.166667
vt 0.070592 0.333333
vt 0.111577 1.000000
vt 0.090528 0.833333
vt 0.067537 1.000000
vt 0.111577 0.000000
vt 0.116525 0.333333
vt 0.134061 0.166667
vt 0.137335 0.666667
vt 0.115487 0.500000
vt 0.091877 0.666667
vt 0.159769 1.000000
vt 0.137159 0.833333
vt 0.159769 0.000000
vt 0.160323 0.500000
vt 0.166667 0.333333
vt 0.145833 0.333333
vt 0.181564 0.666667
vt 0.000000 0.833333
vt 0.020833 1.000000
vt 0.020833 0.833333
vt 0.187500 0.833333
vt 0.166667 0.833333
vt 0.354167 0.500000
vt 0.340113 0.333333
vt 0.333333 0.500000
vt 0.341254 0.833333
vt 0.354167 0.666667
vt 0.333333 0.666667
vt 0.450293 1.000000
vt 0.453539 0.833333
vt 0.382300 0.833333
vt 0.453960 0.500000
vt 0.450423 0.333333
vt 0.382835 0.500000
vt 0.486338 0.500000
vt 0.515857 0.333333
vt 0.479167 0.333333
vt 0.500000 0.666667
vt 0.479167 0.666667
vt 0.533648 0.166667
vt 0.488363 0.166667
vt 0.554885 0.000000
vt 0.520833 0.000000
vt 0.554885 1.000000
vt 0.574090 0.833333
vt 0.533385 0.833333
vt 0.571376 0.500000
vt 0.554448 0.333333
vt 0.532989 0.500000
vt 0.592625 0.666667
vt 0.562500 0.666667
vt 0.594026 1.000000
vt 0.612875 0.833333
vt 0.612028 0.500000
vt 0.591269 0.333333
vt 0.637733 1.000000
vt 0.630096 0.333333
vt 0.633563 0.666667
vt 0.656796 0.500000
vt 0.677065 1.000000
vt 0.660126 0.833333
vt 0.677977 0.333333
vt 0.678525 0.666667
vt 0.698724 0.500000
vt 0.708333 1.000000
vt 0.700223 0.833333
vt 0.717699 0.333333
vt 0.716976 0.166667
vt 0.733518 0.000000
vt 0.708333 0.000000
vt 0.736308 0.833333
vt 0.720259 0.666667
vt 0.737934 0.500000
vt 0.765570 0.333333
vt 0.750000 0.666667
vt 0.770833 0.166667
vt 0.750000 0.166667
vt 0.842152 0.166667
vt 0.854167 0.000000
vt 0.833333 0.000000
vt 0.865573 0.333333
vt 0.833333 0.333333
vt 0.882160 0.500000
vt 0.854167 0.500000
vt 0.895833 0.333333
vt 0.886541 0.166667
vt 0.928379 1.000000
vt 0.937500 0.833333
vt 0.916667 0.833333
vt 0.937500 0.333333
vt 0.930066 0.166667
vt 0.916667 0.333333
vt 0.969521 1.000000
vt 0.979167 0.833333
vt 0.958333 0.833333
vt 0.979167 0.166667
vt 0.969521 0.000000
vt 0.958333 0.166667
vt 0.020833 0.000000
vt 0.000000 0.166667
vt 0.020833 0.166667
vt 0.000000 0.333333
vt 0.020833 0.333333
vt 0.000000 0.500000
vt 0.020833 0.500000
vt 0.020833 0.666667
vt 0.000000 0.666667
vt 0.041667 1.000000
vt 0.041667 0.833333
vt 0.041667 0.166667
vt 0.041667 0.000000
vt 0.041667 0.333333
vt 0.041667 0.500000
vt 0.041667 0.666667
vt 0.062500 0.833333
vt 0.062500 0.500000
vt 0.062500 0.666667
vt 0.083333 0.500000
vt 0.166667 0.166667
vt 0.187500 1.000000
vt 0.187500 0.000000
vt 0.187500 0.166667
vt 0.187500 0.333333
vt 0.187500 0.500000
vt 0.208333 0.833333
vt 0.208333 1.000000
vt 0.208333 0.000000
vt 0.208333 0.166667
vt 0.208333 0.333333
vt 0.208333 0.500000
vt 0.208333 0.666667
vt 0.229167 0.833333
vt 0.229167 1.000000
vt 0.229167 0.000000
vt 0.229167 0.166667
vt 0.229167 0.333333
vt 0.229167 0.500000
vt 0.229167 0.666667
vt 0.250000 1.000000
vt 0.250000 0.833333
vt 0.250000 0.166667
vt 0.250000 0.000000
vt 0.250000 0.333333
vt 0.250000 0.500000
vt 0.250000 0.666667
vt 0.270833 1.000000
vt 0.270833 0.833333
vt 0.270833 0.166667
vt 0.270833 0.000000
vt 0.270833 0.333333
vt 0.270833 0.500000
vt 0.270833 0.666667
vt 0.291667 1.000000
vt 0.291667 0.833333
vt 0.291667 0.166667
vt 0.291667 0.000000
vt 0.291667 0.333333
vt 0.291667 0.500000
vt 0.291667 0.666667
vt 0.312500 1.000000
vt 0.312500 0.833333
vt 0.312500 0.166667
vt 0.312500 0.000000
vt 0.312500 0.333333
vt 0.312500 0.500000
vt 0.312500 0.666667
vt 0.333333 1.000000
vt 0.333333 0.000000
vt 0.333333 0.166667
vt 0.354167 0.000000
vt 0.354167 0.166667
vt 0.354167 1.000000
vt 0.379022 1.000000
vt 0.379022 0.000000
vt 0.381212 0.166667
vt 0.379442 0.333333
vt 0.381359 0.666667
vt 0.450293 0.000000
vt 0.451477 0.166667
vt 0.451441 0.666667
vt 0.483916 1.000000
vt 0.488055 0.833333
vt 0.483916 0.000000
vt 0.520833 1.000000
vt 0.533914 0.666667
vt 0.562500 0.166667
vt 0.594026 0.000000
vt 0.595372 0.166667
vt 0.632894 0.166667
vt 0.637733 0.000000
vt 0.674541 0.166667
vt 0.677065 0.000000
vt 0.770833 1.000000
vt 0.770833 0.833333
vt 0.770833 0.000000
vt 0.770833 0.500000
vt 0.770833 0.666667
vt 0.791667 1.000000
vt 0.791667 0.833333
vt 0.791667 0.000000
vt 0.791667 0.166667
vt 0.791667 0.333333
vt 0.791667 0.500000
vt 0.791667 0.666667
vt 0.812500 0.833333
vt 0.812500 1.000000
vt 0.812500 0.000000
vt 0.812500 0.166667
vt 0.812500 0.333333
vt 0.812500 0.500000
vt 0.812500 0.666667
vt 0.833333 1.000000
vt 0.840753 0.833333
vt 0.833333 0.500000
vt 0.838794 0.666667
vt 0.854167 1.000000
vt 0.884363 0.833333
vt 0.884372 1.000000
vt 0.884372 0.000000
vt 0.882571 0.666667
vt 0.928379 0.000000
vt 0.924591 0.500000
vt 0.926646 0.666667
vt 0.967791 0.500000
vt 0.958333 0.333333
vt 0.958333 0.666667
vt 0.979167 0.333333
vt 0.979167 0.666667
vt 1.000000 1.000000
vt 1.000000 0.833333
vt 1.000000 0.000000
vt 1.000000 0.333333
vt 1.000000 0.166667
vt 1.000000 0.500000
vt 1.000000 0.666667
vt 0.000000 1.000000
vt 0.000000 0.000000
vt 0.733518 1.000000
s 1
f 232/242/232 226/243/226 227/244/227
f 228/245/228 232/242/232 227/244/227
f 236/246/236 235/247/235 226/248/226
f 232/242/232 236/249/236 226/243/226
f 237/250/237 239/251/239 232/242/232
f 240/252/240 238/253/238 234/254/234
f 242/255/242 241/256/241 236/246/236
f 239/251/239 242/257/242 236/249/236
f 244/258/244 246/259/246 243/260/243
f 247/261/247 244/258/244 240/252/240
f 213/262/213 214/263/214 219/264/219
f 253/265/253 247/261/247 248/266/248
f 298/267/298 292/268/292 293/269/293
f 295/270/295 299/271/299 294/272/294
f 306/273/306 311/274/311 305/275/305
f 309/276/309 308/277/308 303/278/303
f 315/279/315 318/280/318 314/281/314
f 319/282/319 315/279/315 316/283/316
f 318/280/318 321/284/321 313/285/313
f 321/284/321 325/286/325 320/287/320
f 325/288/325 330/289/330 324/290/324
f 328/291/328 326/292/326 322/293/322
f 334/294/334 328/291/328 329/295/329
f 330/289/330 334/294/334 329/295/329
f 331/296/331 336/297/336 330/289/330
f 335/298/335 333/299/333 328/291/328
f 334/294/334 335/298/335 328/291/328
f 337/300/337 336/297/336 331/296/331
f 335/298/335 339/301/339 333/299/333
f 336/297/336 340/302/340 334/294/334
f 340/302/340 341/303/341 335/298/335
f 343/304/343 342/305/342 337/300/337
f 341/303/341 345/306/345 339/301/339
f 342/305/342 346/307/346 340/302/340
f 346/307/346 347/308/347 341/303/341
f 349/309/349 348/310/348 343/304/343
f 347/308/347 351/311/351 345/306/345
f 350/312/350 353/313/353 349/314/349
f 355/315/355 352/316/352 348/310/348
f 354/317/354 357/318/357 351/311/351
f 358/319/358 354/317/354 352/316/352
f 357/318/357 360/320/360 356/321/356
f 377/322/377 382/323/382 376/324/376
f 383/325/383 377/322/377 378/326/378
f 387/327/387 383/325/383 384/328/384
f 390/329/390 386/330/386 383/325/383
f 391/331/391 398/332/398 396/333/396
f 397/334/397 392/335/392 393/336/393
f 399/337/399 408/338/408 404/339/404
f 405/340/405 399/341/399 400/342/400
f 214/343/214 209/344/209 215/345/215
f 215/345/215 210/346/210 216/347/216
f 216/347/216 211/348/211 217/349/217
f 211/348/211 218/350/218 217/349/217
f 212/351/212 219/264/219 218/350/218
f 219/264/219 220/352/220 225/353/225
f 214/343/214 221/354/221 220/355/220
f 221/354/221 216/347/216 222/356/222
f 222/356/222 217/349/217 223/357/223
f 223/357/223 218/350/218 224/358/224
f 218/350/218 225/353/225 224/358/224
f 220/352/220 231/359/231 225/353/225
f 220/355/220 227/244/227 226/243/226
f 227/244/227 222/356/222 228/245/228
f 222/356/222 229/360/229 228/245/228
f 229/360/229 224/358/224 230/361/230
f 224/358/224 231/359/231 230/361/230
f 233/362/233 230/361/230 234/254/234
f 226/248/226 235/247/235 231/359/231
f 229/360/229 233/362/233 228/245/228
f 230/361/230 235/247/235 234/254/234
f 237/250/237 233/362/233 238/253/238
f 228/245/228 237/250/237 232/242/232
f 234/254/234 241/256/241 240/252/240
f 234/254/234 238/253/238 233/362/233
f 236/246/236 241/256/241 235/247/235
f 232/242/232 239/251/239 236/249/236
f 243/260/243 238/253/238 244/258/244
f 237/250/237 243/260/243 239/251/239
f 245/363/245 243/260/243 246/259/246
f 240/252/240 244/258/244 238/253/238
f 242/255/242 248/266/248 241/256/241
f 239/251/239 245/363/245 242/257/242
f 240/252/240 248/266/248 247/261/247
f 248/266/248 249/364/249 253/265/253
f 249/365/249 245/363/245 250/366/250
f 250/366/250 246/259/246 251/367/251
f 246/259/246 252/368/252 251/367/251
f 259/369/259 249/364/249 254/370/254
f 247/261/247 252/368/252 244/258/244
f 254/371/254 250/366/250 255/372/255
f 255/372/255 251/367/251 256/373/256
f 251/367/251 257/374/257 256/373/256
f 252/368/252 258/375/258 257/374/257
f 253/265/253 258/375/258 247/261/247
f 265/376/265 254/370/254 260/377/260
f 260/378/260 255/372/255 261/379/261
f 261/379/261 256/373/256 262/380/262
f 256/373/256 263/381/263 262/380/262
f 257/374/257 264/382/264 263/381/263
f 258/375/258 265/376/265 264/382/264
f 265/376/265 266/383/266 271/384/271
f 260/378/260 267/385/267 266/386/266
f 261/379/261 268/387/268 267/385/267
f 268/387/268 263/381/263 269/388/269
f 269/388/269 264/382/264 270/389/270
f 270/389/270 265/376/265 271/384/271
f 271/384/271 272/390/272 277/391/277
f 266/386/266 273/392/273 272/393/272
f 267/385/267 274/394/274 273/392/273
f 274/394/274 269/388/269 275/395/275
f 275/395/275 270/389/270 276/396/276
f 276/396/276 271/384/271 277/391/277
f 277/391/277 278/397/278 283/398/283
f 272/393/272 279/399/279 278/400/278
f 279/399/279 274/394/274 280/401/280
f 280/401/280 275/395/275 281/402/281
f 281/402/281 276/396/276 282/403/282
f 276/396/276 283/398/283 282/403/282
f 283/398/283 284/404/284 289/405/289
f 278/400/278 285/406/285 284/407/284
f 285/406/285 280/401/280 286/408/286
f 286/408/286 281/402/281 287/409/287
f 287/409/287 282/403/282 288/410/288
f 282/403/282 289/405/289 288/410/288
f 289/405/289 290/411/290 295/270/295
f 290/412/290 285/406/285 291/413/291
f 286/408/286 291/413/291 285/406/285
f 286/408/286 293/269/293 292/268/292
f 287/409/287 294/272/294 293/269/293
f 294/272/294 289/405/289 295/270/295
f 296/414/296 291/413/291 297/415/297
f 290/411/290 296/416/296 295/270/295
f 293/269/293 299/271/299 298/267/298
f 292/268/292 297/415/297 291/413/291
f 305/275/305 296/416/296 300/417/300
f 300/418/300 297/415/297 301/419/301
f 297/415/297 302/420/302 301/419/301
f 298/267/298 302/420/302 292/268/292
f 298/267/298 304/421/304 303/278/303
f 299/271/299 305/275/305 304/421/304
f 306/422/306 301/419/301 307/423/307
f 300/417/300 306/273/306 305/275/305
f 301/419/301 308/277/308 307/423/307
f 303/278/303 310/424/310 309/276/309
f 303/278/303 308/277/308 302/420/302
f 310/424/310 305/275/305 311/274/311
f 311/274/311 312/425/312 317/426/317
f 312/427/312 307/423/307 313/285/313
f 307/423/307 314/281/314 313/285/313
f 309/276/309 314/281/314 308/277/308
f 309/276/309 316/283/316 315/279/315
f 316/283/316 311/274/311 317/426/317
f 317/426/317 320/428/320 324/290/324
f 314/281/314 318/280/318 313/285/313
f 317/426/317 319/282/319 316/283/316
f 320/287/320 313/285/313 321/284/321
f 319/282/319 322/293/322 315/279/315
f 315/279/315 322/293/322 318/280/318
f 319/282/319 324/290/324 323/429/323
f 322/293/322 329/295/329 328/291/328
f 320/428/320 325/288/325 324/290/324
f 318/280/318 326/292/326 321/284/321
f 322/293/322 326/292/326 318/280/318
f 321/284/321 327/430/327 325/286/325
f 326/292/326 327/430/327 321/284/321
f 329/295/329 324/290/324 330/289/330
f 331/431/331 327/430/327 332/432/332
f 325/288/325 331/296/331 330/289/330
f 327/430/327 333/299/333 332/432/332
f 331/431/331 338/433/338 337/434/337
f 328/291/328 333/299/333 326/292/326
f 330/289/330 336/297/336 334/294/334
f 332/432/332 339/301/339 338/433/338
f 337/434/337 344/435/344 343/436/343
f 334/294/334 340/302/340 335/298/335
f 337/300/337 342/305/342 336/297/336
f 335/298/335 341/303/341 339/301/339
f 336/297/336 342/305/342 340/302/340
f 339/301/339 344/435/344 338/433/338
f 344/435/344 349/314/349 343/436/343
f 340/302/340 346/307/346 341/303/341
f 343/304/343 348/310/348 342/305/342
f 341/303/341 347/308/347 345/306/345
f 342/305/342 348/310/348 346/307/346
f 350/312/350 345/306/345 351/311/351
f 349/309/349 355/315/355 348/310/348
f 346/307/346 352/316/352 347/308/347
f 348/310/348 352/316/352 346/307/346
f 356/321/356 351/311/351 357/318/357
f 347/308/347 354/317/354 351/311/351
f 352/316/352 354/317/354 347/308/347
f 350/312/350 356/321/356 353/313/353
f 355/315/355 359/437/359 363/438/363
f 355/315/355 358/319/358 352/316/352
f 359/439/359 356/321/356 360/320/360
f 358/319/358 361/440/361 354/317/354
f 354/317/354 361/440/361 357/318/357
f 358/319/358 363/438/363 362/441/362
f 363/438/363 364/442/364 369/443/369
f 364/444/364 360/320/360 365/445/365
f 360/320/360 366/446/366 365/445/365
f 366/446/366 361/440/361 367/447/367
f 361/440/361 368/448/368 367/447/367
f 362/441/362 369/443/369 368/448/368
f 375/449/375 364/442/364 370/450/370
f 370/451/370 365/445/365 371/452/371
f 371/452/371 366/446/366 372/453/372
f 366/446/366 373/454/373 372/453/372
f 367/447/367 374/455/374 373/454/373
f 368/448/368 375/449/375 374/455/374
f 375/449/375 376/456/376 381/457/381
f 376/324/376 371/452/371 377/322/377
f 371/452/371 378/326/378 377/322/377
f 372/453/372 379/458/379 378/326/378
f 374/455/374 379/458/379 373/454/373
f 380/459/380 375/449/375 381/457/381
f 378/326/378 384/328/384 383/325/383
f 376/456/376 382/460/382 381/457/381
f 389/461/389 382/460/382 385/462/385
f 380/459/380 384/328/384 379/458/379
f 382/323/382 386/330/386 385/463/385
f 384/328/384 388/464/388 387/327/387
f 383/325/383 386/330/386 377/322/377
f 388/464/388 381/457/381 389/461/389
f 396/333/396 385/462/385 391/331/391
f 387/327/387 390/329/390 383/325/383
f 391/465/391 386/330/386 392/335/392
f 386/330/386 393/336/393 392/335/392
f 390/329/390 394/466/394 393/336/393
f 388/464/388 394/466/394 387/327/387
f 388/464/388 396/333/396 395/467/395
f 404/339/404 391/331/391 399/337/399
f 394/466/394 397/334/397 393/336/393
f 396/333/396 398/332/398 395/467/395
f 391/465/391 400/342/400 399/341/399
f 397/334/397 400/342/400 392/335/392
f 397/334/397 402/468/402 401/469/401
f 394/466/394 403/470/403 402/468/402
f 403/470/403 398/332/398 404/339/404
f 400/342/400 406/471/406 405/340/405
f 407/472/407 404/339/404 408/338/408
f 402/468/402 406/471/406 401/469/401
f 403/470/403 407/472/407 402/468/402
f 408/338/408 409/473/409 414/474/414
f 405/340/405 409/475/409 399/341/399
f 405/340/405 411/476/411 410/477/410
f 406/471/406 412/478/412 411/476/411
f 412/478/412 407/472/407 413/479/413
f 413/479/413 408/338/408 414/474/414
f 213/262/213 208/480/208 214/263/214
f 214/343/214 208/481/208 209/344/209
f 215/345/215 209/344/209 210/346/210
f 216/347/216 210/346/210 211/348/211
f 211/348/211 212/351/212 218/350/218
f 212/351/212 213/262/213 219/264/219
f 219/264/219 214/263/214 220/352/220
f 214/343/214 215/345/215 221/354/221
f 221/354/221 215/345/215 216/347/216
f 222/356/222 216/347/216 217/349/217
f 223/357/223 217/349/217 218/350/218
f 218/350/218 219/264/219 225/353/225
f 220/352/220 226/248/226 231/359/231
f 220/355/220 221/354/221 227/244/227
f 227/244/227 221/354/221 222/356/222
f 222/356/222 223/357/223 229/360/229
f 229/360/229 223/357/223 224/358/224
f 224/358/224 225/353/225 231/359/231
f 233/362/233 229/360/229 230/361/230
f 230/361/230 231/359/231 235/247/235
f 237/250/237 228/245/228 233/362/233
f 234/254/234 235/247/235 241/256/241
f 243/260/243 237/250/237 238/253/238
f 245/363/245 239/251/239 243/260/243
f 240/252/240 241/256/241 248/266/248
f 248/266/248 242/255/242 249/364/249
f 249/365/249 242/257/242 245/363/245
f 250/366/250 245/363/245 246/259/246
f 246/259/246 244/258/244 252/368/252
f 259/369/259 253/265/253 249/364/249
f 254/371/254 249/365/249 250/366/250
f 255/372/255 250/366/250 251/367/251
f 251/367/251 252/368/252 257/374/257
f 252/368/252 247/261/247 258/375/258
f 253/265/253 259/369/259 258/375/258
f 265/376/265 259/369/259 254/370/254
f 260/378/260 254/371/254 255/372/255
f 261/379/261 255/372/255 256/373/256
f 256/373/256 257/374/257 263/381/263
f 257/374/257 258/375/258 264/382/264
f 258/375/258 259/369/259 265/376/265
f 265/376/265 260/377/260 266/383/266
f 260/378/260 261/379/261 267/385/267
f 261/379/261 262/380/262 268/387/268
f 268/387/268 262/380/262 263/381/263
f 269/388/269 263/381/263 264/382/264
f 270/389/270 264/382/264 265/376/265
f 271/384/271 266/383/266 272/390/272
f 266/386/266 267/385/267 273/392/273
f 267/385/267 268/387/268 274/394/274
f 274/394/274 268/387/268 269/388/269
f 275/395/275 269/388/269 270/389/270
f 276/396/276 270/389/270 271/384/271
f 277/391/277 272/390/272 278/397/278
f 272/393/272 273/392/273 279/399/279
f 279/399/279 273/392/273 274/394/274
f 280/401/280 274/394/274 275/395/275
f 281/402/281 275/395/275 276/396/276
f 276/396/276 277/391/277 283/398/283
f 283/398/283 278/397/278 284/404/284
f 278/400/278 279/399/279 285/406/285
f 285/406/285 279/399/279 280/401/280
f 286/408/286 280/401/280 281/402/281
f 287/409/287 281/402/281 282/403/282
f 282/403/282 283/398/283 289/405/289
f 289/405/289 284/404/284 290/411/290
f 290/412/290 284/407/284 285/406/285
f 286/408/286 292/268/292 291/413/291
f 286/408/286 287/409/287 293/269/293
f 287/409/287 288/410/288 294/272/294
f 294/272/294 288/410/288 289/405/289
f 296/414/296 290/412/290 291/413/291
f 293/269/293 294/272/294 299/271/299
f 305/275/305 295/270/295 296/416/296
f 300/418/300 296/414/296 297/415/297
f 297/415/297 292/268/292 302/420/302
f 298/267/298 303/278/303 302/420/302
f 298/267/298 299/271/299 304/421/304
f 299/271/299 295/270/295 305/275/305
f 306/422/306 300/418/300 301/419/301
f 301/419/301 302/420/302 308/277/308
f 303/278/303 304/421/304 310/424/310
f 310/424/310 304/421/304 305/275/305
f 311/274/311 306/273/306 312/425/312
f 312/427/312 306/422/306 307/423/307
f 307/423/307 308/277/308 314/281/314
f 309/276/309 315/279/315 314/281/314
f 309/276/309 310/424/310 316/283/316
f 316/283/316 310/424/310 311/274/311
f 317/426/317 312/425/312 320/428/320
f 320/287/320 312/427/312 313/285/313
f 319/282/319 323/429/323 322/293/322
f 319/282/319 317/426/317 324/290/324
f 322/293/322 323/429/323 329/295/329
f 329/295/329 323/429/323 324/290/324
f 331/431/331 325/286/325 327/430/327
f 327/430/327 326/292/326 333/299/333
f 331/431/331 332/432/332 338/433/338
f 332/432/332 333/299/333 339/301/339
f 337/434/337 338/433/338 344/435/344
f 339/301/339 345/306/345 344/435/344
f 344/435/344 350/312/350 349/314/349
f 350/312/350 344/435/344 345/306/345
f 349/309/349 353/482/353 355/315/355
f 356/321/356 350/312/350 351/311/351
f 355/315/355 353/482/353 359/437/359
f 359/439/359 353/313/353 356/321/356
f 358/319/358 362/441/362 361/440/361
f 358/319/358 355/315/355 363/438/363
f 363/438/363 359/437/359 364/442/364
f 364/444/364 359/439/359 360/320/360
f 360/320/360 357/318/357 366/446/366
f 366/446/366 357/318/357 361/440/361
f 361/440/361 362/441/362 368/448/368
f 362/441/362 363/438/363 369/443/369
f 375/449/375 369/443/369 364/442/364
f 370/451/370 364/444/364 365/445/365
f 371/452/371 365/445/365 366/446/366
f 366/446/366 367/447/367 373/454/373
f 367/447/367 368/448/368 374/455/374
f 368/448/368 369/443/369 375/449/375
f 375/449/375 370/450/370 376/456/376
f 376/324/376 370/451/370 371/452/371
f 371/452/371 372/453/372 378/326/378
f 372/453/372 373/454/373 379/458/379
f 374/455/374 380/459/380 379/458/379
f 380/459/380 374/455/374 375/449/375
f 378/326/378 379/458/379 384/328/384
f 389/461/389 381/457/381 382/460/382
f 382/323/382 377/322/377 386/330/386
f 384/328/384 380/459/380 388/464/388
f 388/464/388 380/459/380 381/457/381
f 396/333/396 389/461/389 385/462/385
f 391/465/391 385/463/385 386/330/386
f 386/330/386 390/329/390 393/336/393
f 390/329/390 387/327/387 394/466/394
f 388/464/388 395/467/395 394/466/394
f 388/464/388 389/461/389 396/333/396
f 404/339/404 398/332/398 391/331/391
f 391/465/391 392/335/392 400/342/400
f 397/334/397 401/469/401 400/342/400
f 397/334/397 394/466/394 402/468/402
f 394/466/394 395/467/395 403/470/403
f 403/470/403 395/467/395 398/332/398
f 400/342/400 401/469/401 406/471/406
f 407/472/407 403/470/403 404/339/404
f 408/338/408 399/337/399 409/473/409
f 405/340/405 410/477/410 409/475/409
f 405/340/405 406/471/406 411/476/411
f 406/471/406 402/468/402 412/478/412
f 412/478/412 402/468/402 407/472/407
f 413/479/413 407/472/407 408/338/408
