# Blender 5.1.0
# www.blender.org
mtllib AutoStop.mtl
o AutoStop
v 0.000000 0.030000 -0.076000
v 0.038000 0.030000 0.065818
v 0.065818 0.030000 0.038000
v 0.076000 0.030000 -0.000000
v 0.065818 0.030000 -0.038000
v 0.038000 0.030000 -0.065818
v 0.000000 0.030000 -0.096000
v 0.048000 0.030000 0.083138
v 0.083138 0.030000 0.048000
v 0.096000 0.030000 -0.000000
v 0.083138 0.030000 -0.048000
v 0.048000 0.030000 -0.083138
v 0.000000 -0.020000 -0.096000
v 0.048000 -0.020000 0.083138
v 0.083138 -0.020000 0.048000
v 0.096000 -0.020000 -0.000000
v 0.000000 -0.020000 -0.076000
v 0.038000 -0.020000 0.065818
v 0.065818 -0.020000 0.038000
v 0.076000 -0.020000 -0.000000
v 0.065818 -0.020000 -0.038000
v 0.038000 -0.020000 -0.065818
v 0.083138 -0.020000 -0.048000
v 0.048000 -0.020000 -0.083138
v 0.073701 0.005000 0.012699
v 0.103245 0.005000 0.017909
v 0.072684 -0.009142 0.018468
v 0.102228 -0.009142 0.023677
v 0.070228 -0.015000 0.032395
v 0.099772 -0.015000 0.037605
v 0.067772 -0.009142 0.046323
v 0.097316 -0.009142 0.051532
v 0.066755 0.005000 0.052091
v 0.096299 0.005000 0.057301
v 0.067772 0.019142 0.046323
v 0.097316 0.019142 0.051532
v 0.070228 0.025000 0.032395
v 0.099772 0.025000 0.037605
v 0.072684 0.019142 0.018468
v 0.102228 0.019142 0.023677
v 0.066755 0.005000 -0.052091
v 0.096299 0.005000 -0.057301
v 0.067772 -0.009142 -0.046323
v 0.097316 -0.009142 -0.051532
v 0.070228 -0.015000 -0.032395
v 0.099772 -0.015000 -0.037605
v 0.072684 -0.009142 -0.018468
v 0.102228 -0.009142 -0.023677
v 0.073701 0.005000 -0.012699
v 0.103245 0.005000 -0.017909
v 0.072684 0.019142 -0.018468
v 0.102228 0.019142 -0.023677
v 0.070228 0.025000 -0.032395
v 0.099772 0.025000 -0.037605
v 0.067772 0.019142 -0.046323
v 0.097316 0.019142 -0.051532
v -0.010000 0.020000 -0.070000
v -0.010000 0.040000 -0.070000
v -0.020000 0.020000 -0.180000
v -0.020000 0.040000 -0.180000
v 0.010000 0.020000 -0.070000
v 0.010000 0.040000 -0.070000
v 0.020000 0.020000 -0.180000
v 0.020000 0.040000 -0.180000
v -0.020000 0.020000 -0.105000
v -0.020000 0.040000 -0.105000
v 0.020000 0.020000 -0.105000
v 0.020000 0.040000 -0.105000
v 0.005528 0.048944 -0.142987
v -0.014472 0.048944 -0.149485
v -0.014472 0.048944 -0.170514
v 0.005528 0.048944 -0.177013
v 0.017889 0.048944 -0.160000
v 0.000000 0.060000 -0.160000
v -0.020000 -0.020000 -0.076000
v -0.020000 -0.020000 -0.096000
v -0.020000 0.030000 -0.096000
v -0.020000 0.030000 -0.076000
v 0.019021 0.040000 -0.153820
v 0.019021 0.040000 -0.166180
v 0.000000 0.040000 -0.140000
v 0.011756 0.040000 -0.143820
v -0.019021 0.040000 -0.153820
v -0.011756 0.040000 -0.143820
v -0.011756 0.040000 -0.176180
v -0.019021 0.040000 -0.166180
v 0.011756 0.040000 -0.176180
v 0.000000 0.040000 -0.180000
v 0.013764 0.050515 -0.150000
v -0.005257 0.050515 -0.143820
v -0.017013 0.050515 -0.160000
v -0.005257 0.050515 -0.176180
v 0.013764 0.050515 -0.170000
v 0.003249 0.057013 -0.150000
v 0.010514 0.057013 -0.160000
v -0.008507 0.057013 -0.153820
v -0.008507 0.057013 -0.166180
v 0.003249 0.057013 -0.170000
v 0.068181 -0.008952 0.030271
v 0.068181 0.018973 0.030271
v 0.068181 -0.008952 -0.031012
v 0.068181 0.018973 -0.031012
v 0.099591 -0.008952 0.030271
v 0.099591 0.018973 0.030271
v 0.099591 -0.008952 -0.031012
v 0.099591 0.018973 -0.031012
v 0.065818 0.030000 0.038000
v 0.038000 0.030000 0.065818
v 0.038000 0.030000 0.065818
v 0.076000 0.030000 -0.000000
v 0.065818 0.030000 -0.038000
v 0.038000 0.030000 -0.065818
v 0.000000 0.030000 -0.076000
v 0.083138 0.030000 0.048000
v 0.048000 0.030000 0.083138
v 0.048000 0.030000 0.083138
v 0.096000 0.030000 -0.000000
v 0.083138 0.030000 -0.048000
v 0.048000 0.030000 -0.083138
v 0.000000 0.030000 -0.096000
v 0.083138 -0.020000 0.048000
v 0.048000 -0.020000 0.083138
v 0.048000 -0.020000 0.083138
v 0.096000 -0.020000 -0.000000
v 0.038000 -0.020000 0.065818
v 0.038000 -0.020000 0.065818
v 0.065818 -0.020000 0.038000
v 0.076000 -0.020000 -0.000000
v 0.065818 -0.020000 -0.038000
v 0.038000 -0.020000 -0.065818
v 0.000000 -0.020000 -0.076000
v 0.048000 -0.020000 -0.083138
v 0.083138 -0.020000 -0.048000
v 0.000000 -0.020000 -0.096000
v 0.102228 -0.009142 0.023677
v 0.103245 0.005000 0.017909
v 0.099772 -0.015000 0.037605
v 0.097316 -0.009142 0.051532
v 0.096299 0.005000 0.057301
v 0.097316 0.019142 0.051532
v 0.099772 0.025000 0.037605
v 0.102228 0.019142 0.023677
v 0.097316 -0.009142 -0.051532
v 0.096299 0.005000 -0.057301
v 0.099772 -0.015000 -0.037605
v 0.102228 -0.009142 -0.023677
v 0.103245 0.005000 -0.017909
v 0.102228 0.019142 -0.023677
v 0.099772 0.025000 -0.037605
v 0.097316 0.019142 -0.051532
v -0.020000 0.020000 -0.105000
v -0.010000 0.020000 -0.070000
v -0.020000 0.040000 -0.105000
v -0.020000 0.040000 -0.180000
v -0.020000 0.040000 -0.180000
v -0.020000 0.020000 -0.180000
v -0.020000 0.020000 -0.180000
v 0.020000 0.020000 -0.180000
v 0.020000 0.020000 -0.180000
v 0.020000 0.040000 -0.180000
v 0.020000 0.040000 -0.180000
v 0.020000 0.020000 -0.105000
v 0.020000 0.040000 -0.105000
v 0.010000 0.040000 -0.070000
v -0.010000 0.040000 -0.070000
v 0.010000 0.020000 -0.070000
v -0.020000 -0.020000 -0.076000
v -0.020000 -0.020000 -0.076000
v -0.020000 0.030000 -0.076000
v -0.020000 0.030000 -0.076000
v -0.020000 0.030000 -0.096000
v -0.020000 0.030000 -0.096000
v -0.020000 -0.020000 -0.096000
v -0.020000 -0.020000 -0.096000
v 0.099591 -0.008952 -0.031012
v 0.099591 -0.008952 -0.031012
v 0.068181 -0.008952 -0.031012
v 0.068181 0.018973 -0.031012
v 0.099591 0.018973 -0.031012
v 0.099591 0.018973 -0.031012
v 0.099591 -0.008952 0.030271
v 0.099591 -0.008952 0.030271
v 0.099591 0.018973 0.030271
v 0.099591 0.018973 0.030271
v 0.068181 -0.008952 0.030271
v 0.068181 0.018973 0.030271
vn -0.0000 1.0000 -0.0000
vn 0.8660 -0.0000 -0.5000
vn 0.5000 -0.0000 -0.8660
vn 0.7071 -0.0000 0.7071
vn 0.8660 -0.0000 0.5000
vn 0.1305 -0.0000 -0.9914
vn 1.0000 -0.0000 -0.0000
vn -0.0000 -1.0000 -0.0000
vn -0.8660 -0.0000 0.5000
vn 0.1736 -0.0000 -0.9848
vn 0.1228 -0.7071 -0.6964
vn -0.1228 -0.7071 0.6964
vn -0.1736 -0.0000 0.9848
vn -0.1228 0.7071 0.6964
vn 0.9848 -0.0000 0.1736
vn 0.1228 0.7071 -0.6964
vn -0.1736 -0.0000 -0.9848
vn -0.1228 -0.7071 -0.6964
vn 0.1228 -0.7071 0.6964
vn 0.1736 -0.0000 0.9848
vn 0.1228 0.7071 0.6964
vn 0.9848 -0.0000 -0.1736
vn 0.9848 -0.0000 -0.1737
vn -0.1228 0.7071 -0.6964
vn -0.9903 -0.0000 0.1387
vn -1.0000 -0.0000 -0.0000
vn -0.0000 -0.0000 -1.0000
vn 0.9903 -0.0000 0.1387
vn 0.9615 -0.0000 0.2747
vn -0.9615 -0.0000 0.2747
vn 0.2764 0.4472 0.8507
vn 0.6882 0.5257 0.5000
vn 0.1625 0.8507 0.5000
vn -0.7236 0.4472 0.5257
vn -0.2629 0.5257 0.8090
vn -0.4253 0.8507 0.3090
vn -0.7236 0.4472 -0.5257
vn -0.8506 0.5257 -0.0000
vn -0.4253 0.8507 -0.3090
vn 0.2764 0.4472 -0.8507
vn -0.2629 0.5257 -0.8090
vn 0.1625 0.8507 -0.5000
vn 0.8944 0.4472 -0.0000
vn 0.6882 0.5257 -0.5000
vn 0.5257 0.8507 -0.0000
vn 0.9225 0.2217 -0.3160
vn 0.5856 0.2217 -0.7797
vn -0.0155 0.2217 -0.9750
vn -0.5606 0.2217 -0.7979
vn -0.9320 0.2217 -0.2866
vn -0.9320 0.2217 0.2866
vn -0.5606 0.2217 0.7979
vn -0.0155 0.2217 0.9750
vn 0.5856 0.2217 0.7797
vn 0.9225 0.2217 0.3160
vn -0.1305 -0.0000 0.9914
vn -0.0000 -0.0000 1.0000
vn -0.5000 -0.0000 0.8660
vn -0.8660 -0.0000 -0.5000
vn -0.7071 -0.0000 -0.7071
vn 0.9848 -0.0000 0.1737
vt 0.000000 0.000000
vt 1.000000 0.500000
vt 0.875000 1.000000
vt 0.875000 0.500000
vt 0.750000 1.000000
vt 0.750000 0.500000
vt 0.625000 0.500000
vt 0.625000 1.000000
vt 0.500000 0.500000
vt 0.500000 1.000000
vt 0.375000 0.500000
vt 0.250000 1.000000
vt 0.250000 0.500000
vt 0.010000 0.250000
vt 0.250000 0.010000
vt 0.490000 0.250000
vt 0.125000 0.500000
vt 0.000000 1.000000
vt 0.000000 0.500000
vt 1.000000 1.000000
vt 0.375000 1.000000
vt 0.625000 0.125000
vt 0.375000 0.250000
vt 0.375000 0.125000
vt 0.625000 0.250000
vt 0.625000 0.625000
vt 0.375000 0.750000
vt 0.375000 0.625000
vt 0.125000 0.750000
vt 0.125000 0.625000
vt 0.875000 0.625000
vt 0.625000 0.750000
vt 0.625000 0.000000
vt 0.375000 0.000000
vt 0.181819 0.314921
vt 0.272728 0.314921
vt 0.227273 0.393651
vt 0.000000 0.314921
vt 0.090910 0.314921
vt 0.045455 0.393651
vt 0.727273 0.314921
vt 0.818182 0.314921
vt 0.772727 0.393651
vt 0.545455 0.314921
vt 0.636364 0.314921
vt 0.590909 0.393651
vt 0.363637 0.314921
vt 0.454546 0.314921
vt 0.409092 0.393651
vt 0.500000 0.393651
vt 0.454546 0.472382
vt 0.681818 0.393651
vt 0.636364 0.472382
vt 0.863636 0.393651
vt 0.818182 0.472382
vt 0.909091 0.314921
vt 0.136365 0.393651
vt 0.090910 0.472382
vt 0.318182 0.393651
vt 0.272728 0.472382
vt 0.409092 0.236191
vt 0.500000 0.236191
vt 0.590909 0.236191
vt 0.681818 0.236191
vt 0.772727 0.236191
vt 0.863636 0.236191
vt 0.045455 0.236191
vt 0.136365 0.236191
vt 0.227273 0.236191
vt 0.318182 0.236191
vt 0.954545 0.236191
vt 0.419706 0.419706
vt 0.250000 0.490000
vt 0.080294 0.419706
vt 0.080294 0.080294
vt 0.419706 0.080294
vt 0.125000 1.000000
vt 0.875000 0.750000
s 1
f 110/1/1 114/1/1 117/1/1
f 110/1/1 118/1/1 111/1/1
f 112/1/1 118/1/1 119/1/1
f 108/1/1 114/1/1 107/1/1
f 112/1/1 120/1/1 113/1/1
f 11/1/2 132/1/3 12/1/3
f 116/1/4 121/1/5 9/1/5
f 12/1/3 134/1/6 7/1/6
f 9/1/5 124/1/7 10/1/7
f 10/1/7 133/1/2 11/1/2
f 128/1/8 15/1/8 127/1/8
f 23/1/8 128/1/8 129/1/8
f 126/1/9 8/1/9 109/1/9
f 130/1/8 23/1/8 129/1/8
f 15/1/8 125/1/8 127/1/8
f 13/1/8 130/1/8 131/1/8
f 25/2/10 135/3/11 27/4/11
f 27/4/11 137/5/8 29/6/8
f 137/5/8 31/7/12 29/6/8
f 138/8/12 33/9/13 31/7/12
f 139/10/13 35/11/14 33/9/13
f 35/11/14 141/12/1 37/13/1
f 38/14/15 34/15/15 30/16/15
f 141/12/1 39/17/16 37/13/1
f 39/17/16 136/18/10 25/19/10
f 144/20/17 43/4/18 41/2/17
f 43/4/18 145/5/8 45/6/8
f 145/5/8 47/7/19 45/6/8
f 146/8/19 49/9/20 47/7/19
f 49/9/20 148/21/21 51/11/21
f 51/11/21 149/12/1 53/13/1
f 54/14/22 50/15/23 46/16/22
f 149/12/1 55/17/24 53/13/1
f 55/17/24 144/18/17 41/19/17
f 153/22/25 156/23/26 65/24/25
f 155/25/27 158/11/27 157/23/27
f 163/26/28 166/27/29 67/28/28
f 162/28/8 152/29/8 151/30/8
f 66/31/1 62/32/1 68/26/1
f 60/4/1 68/26/1 161/7/1
f 159/11/8 151/30/8 59/17/8
f 64/7/7 67/28/28 63/11/7
f 165/33/30 65/24/25 57/34/30
f 69/35/31 89/36/32 94/37/33
f 70/38/34 90/39/35 96/40/36
f 71/41/37 91/42/38 97/43/39
f 72/44/40 92/45/41 98/46/42
f 73/47/43 93/48/44 95/49/45
f 95/49/45 98/50/42 74/51/1
f 95/49/45 93/48/44 98/50/42
f 93/48/44 72/44/40 98/50/42
f 98/46/42 97/52/39 74/53/1
f 98/46/42 92/45/41 97/52/39
f 92/45/41 71/41/37 97/52/39
f 97/43/39 96/54/36 74/55/1
f 97/43/39 91/42/38 96/54/36
f 91/42/38 70/56/34 96/54/36
f 96/40/36 94/57/33 74/58/1
f 96/40/36 90/39/35 94/57/33
f 90/39/35 69/35/31 94/57/33
f 94/37/33 95/59/45 74/60/1
f 94/37/33 89/36/32 95/59/45
f 89/36/32 73/47/43 95/59/45
f 80/61/46 93/48/44 73/47/43
f 80/61/46 87/62/47 93/48/44
f 87/62/47 72/44/40 93/48/44
f 88/63/48 92/45/41 72/44/40
f 88/63/48 85/64/49 92/45/41
f 85/64/49 71/41/37 92/45/41
f 86/65/50 91/42/38 71/41/37
f 86/65/50 83/66/51 91/42/38
f 83/66/51 70/56/34 91/42/38
f 84/67/52 90/39/35 70/38/34
f 84/67/52 81/68/53 90/39/35
f 81/68/53 69/35/31 90/39/35
f 82/69/54 89/36/32 69/35/31
f 82/69/54 79/70/55 89/36/32
f 79/70/55 73/47/43 89/36/32
f 87/62/47 88/63/48 72/44/40
f 85/64/49 86/65/50 71/41/37
f 83/66/51 84/71/52 70/56/34
f 81/68/53 82/69/54 69/35/31
f 79/70/55 80/61/46 73/47/43
f 167/1/26 172/1/26 174/1/26
f 120/1/1 170/1/1 113/1/1
f 134/1/6 77/1/27 7/1/6
f 131/1/8 76/1/8 13/1/8
f 17/1/56 78/1/57 75/1/57
s 0
f 102/25/27 175/11/27 101/23/27
f 180/7/7 181/27/7 176/11/7
f 184/32/57 99/21/57 182/27/57
f 105/11/8 185/29/8 177/17/8
f 178/4/1 104/32/1 106/7/1
s 1
f 17/1/56 6/1/58 1/1/56
f 22/1/58 5/1/9 6/1/58
f 21/1/9 4/1/26 5/1/9
f 20/1/26 3/1/59 4/1/26
f 19/1/59 2/1/60 3/1/59
f 110/1/1 107/1/1 114/1/1
f 110/1/1 117/1/1 118/1/1
f 112/1/1 111/1/1 118/1/1
f 108/1/1 115/1/1 114/1/1
f 112/1/1 119/1/1 120/1/1
f 11/1/2 133/1/2 132/1/3
f 116/1/4 122/1/4 121/1/5
f 12/1/3 132/1/3 134/1/6
f 9/1/5 121/1/5 124/1/7
f 10/1/7 124/1/7 133/1/2
f 128/1/8 16/1/8 15/1/8
f 23/1/8 16/1/8 128/1/8
f 126/1/9 123/1/9 8/1/9
f 130/1/8 24/1/8 23/1/8
f 15/1/8 14/1/8 125/1/8
f 13/1/8 24/1/8 130/1/8
f 25/2/10 136/20/10 135/3/11
f 27/4/11 135/3/11 137/5/8
f 137/5/8 138/8/12 31/7/12
f 138/8/12 139/10/13 33/9/13
f 139/10/13 140/21/14 35/11/14
f 35/11/14 140/21/14 141/12/1
f 30/16/15 28/72/61 26/73/61
f 26/73/61 142/74/61 38/14/15
f 38/14/15 36/75/15 34/15/15
f 34/15/15 32/76/15 30/16/15
f 30/16/15 26/73/61 38/14/15
f 141/12/1 40/77/16 39/17/16
f 39/17/16 40/77/16 136/18/10
f 144/20/17 143/3/18 43/4/18
f 43/4/18 143/3/18 145/5/8
f 145/5/8 146/8/19 47/7/19
f 146/8/19 147/10/20 49/9/20
f 49/9/20 147/10/20 148/21/21
f 51/11/21 148/21/21 149/12/1
f 46/16/22 44/72/22 42/73/22
f 42/73/22 150/74/22 54/14/22
f 54/14/22 52/75/23 50/15/23
f 50/15/23 48/76/23 46/16/22
f 46/16/22 42/73/22 54/14/22
f 149/12/1 56/77/24 55/17/24
f 55/17/24 56/77/24 144/18/17
f 153/22/25 154/25/26 156/23/26
f 155/25/27 160/7/27 158/11/27
f 163/26/28 164/32/29 166/27/29
f 162/28/8 61/27/8 152/29/8
f 66/31/1 58/78/1 62/32/1
f 60/4/1 66/31/1 68/26/1
f 159/11/8 162/28/8 151/30/8
f 64/7/7 163/26/28 67/28/28
f 165/33/30 153/22/25 65/24/25
f 167/1/26 169/1/26 172/1/26
f 120/1/1 171/1/1 170/1/1
f 134/1/6 173/1/27 77/1/27
f 131/1/8 168/1/8 76/1/8
f 17/1/56 1/1/56 78/1/57
s 0
f 102/25/27 179/7/27 175/11/27
f 180/7/7 183/32/7 181/27/7
f 184/32/57 186/8/57 99/21/57
f 105/11/8 103/27/8 185/29/8
f 178/4/1 100/78/1 104/32/1
s 1
f 17/1/56 22/1/58 6/1/58
f 22/1/58 21/1/9 5/1/9
f 21/1/9 20/1/26 4/1/26
f 20/1/26 19/1/59 3/1/59
f 19/1/59 18/1/60 2/1/60
o BézierCurve.015
v -0.003620 0.027985 -0.169116
v 0.006380 0.027985 -0.169116
v 0.011380 0.027985 -0.160456
v 0.006380 0.027985 -0.151796
v -0.003620 0.027985 -0.151796
v -0.008620 0.027985 -0.160456
v 0.000372 -0.015867 -0.166125
v 0.009495 -0.011253 -0.166827
v 0.014433 -0.009285 -0.158060
v 0.007629 0.003166 -0.150878
v -0.000364 -0.011442 -0.149297
v -0.005467 -0.012622 -0.158103
v 0.012757 -0.017653 -0.147065
v 0.009741 -0.034210 -0.158451
v 0.021257 -0.032291 -0.157302
v 0.023954 -0.024868 -0.150160
v 0.009424 -0.028673 -0.141234
v 0.008168 -0.037520 -0.147030
v 0.020148 -0.041146 -0.149320
v 0.020833 -0.023415 -0.139877
v 0.033661 -0.041028 -0.136569
v 0.039000 -0.033080 -0.140483
v 0.023274 -0.029655 -0.128477
v 0.027458 -0.038860 -0.128874
v 0.042309 -0.020234 -0.132318
v 0.042167 -0.013695 -0.118452
v 0.054305 -0.029077 -0.113836
v 0.059981 -0.019879 -0.116699
v 0.043324 -0.017406 -0.105961
v 0.063228 -0.014063 -0.085499
v 0.066764 -0.001285 -0.100625
v 0.077045 -0.010202 -0.080069
v 0.083941 0.000388 -0.079613
v 0.062370 -0.001379 -0.077204
v 0.083041 0.011600 -0.069934
v 0.072755 0.011498 -0.068600
v 0.090035 -0.002994 -0.046935
v 0.075969 0.006276 -0.043026
v 0.080665 -0.002141 -0.044721
v 0.095034 0.004831 -0.047675
v 0.090614 0.013666 -0.046125
v 0.080907 0.014054 -0.043757
vn -0.5024 -0.0970 -0.8592
vn 0.4637 -0.0183 -0.8858
vn 0.9973 0.0732 0.0094
vn 0.4835 0.0799 0.8717
vn -0.5100 0.0070 0.8601
vn -0.9958 -0.0850 -0.0343
vn -0.4753 -0.3592 -0.8032
vn 0.4474 -0.0632 -0.8921
vn 0.9606 0.2628 -0.0909
vn 0.4798 0.1190 0.8693
vn -0.5729 0.0063 0.8196
vn -0.9692 -0.2460 -0.0094
vn 0.2992 0.5788 0.7586
vn -0.3190 -0.6600 -0.6802
vn 0.5296 -0.2730 -0.8031
vn 0.6678 0.6208 -0.4107
vn -0.6443 0.0572 0.7626
vn -0.6741 -0.7180 0.1734
vn 0.0970 -0.9396 -0.3283
vn -0.1906 0.9443 0.2683
vn 0.3246 -0.9400 -0.1052
vn 0.7325 -0.2284 -0.6413
vn -0.7380 0.1210 0.6639
vn -0.3611 -0.7497 0.5546
vn 0.3621 0.6898 -0.6270
vn -0.4711 0.8784 -0.0804
vn 0.5071 -0.8595 0.0644
vn 0.8213 -0.1235 -0.5570
vn -0.8222 0.1596 0.5464
vn -0.3085 -0.7699 0.5586
vn 0.3349 0.7363 -0.5879
vn 0.5511 -0.8344 -0.0024
vn 0.8940 0.0174 -0.4477
vn -0.9065 0.0783 0.4148
vn 0.4307 0.8346 -0.3433
vn -0.4919 0.8700 -0.0351
vn 0.5669 -0.8233 -0.0273
vn -0.9244 0.1429 0.3537
vn -0.4229 -0.8190 0.3878
vn 0.9490 -0.0152 -0.3150
vn 0.4951 0.8321 -0.2501
vn -0.4316 0.9004 0.0538
vt 0.218685 0.500000
vt 0.146035 0.333333
vt 0.083333 0.500000
vt 0.145442 0.666667
vt 0.136405 0.833333
vt 0.000000 0.833333
vt 0.000000 1.000000
vt 0.147928 1.000000
vt 0.289767 0.166667
vt 0.333333 0.000000
vt 0.250000 0.000000
vt 0.359199 0.500000
vt 0.313950 0.333333
vt 0.447728 0.166667
vt 0.436832 0.666667
vt 0.288780 0.666667
vt 0.515278 0.333333
vt 0.624577 0.166667
vt 0.621902 0.666667
vt 0.576025 0.500000
vt 0.731310 0.333333
vt 0.844669 0.166667
vt 0.808300 0.666667
vt 1.000275 0.000000
vt 0.813469 0.000000
vt 1.000340 0.666667
vt 0.881286 0.500000
vt 0.000000 0.000000
vt 0.000000 0.166667
vt 0.139663 0.166667
vt 0.147928 0.000000
vt 0.000000 0.333333
vt 0.000000 0.500000
vt 0.000000 0.666667
vt 0.288381 0.833333
vt 0.250000 1.000000
vt 0.333333 1.000000
vt 0.434140 1.000000
vt 0.442082 0.833333
vt 0.434140 0.000000
vt 0.600900 1.000000
vt 0.755163 0.833333
vt 0.600900 0.000000
vt 0.813469 1.000000
vt 0.893048 0.333333
vt 1.000215 0.833333
vt 1.000275 1.000000
vt 1.000000 0.166667
vt 1.000000 0.333333
vt 1.000000 0.500000
s 1
f 199/79/74 195/80/70 196/81/71
f 197/82/72 199/79/74 196/81/71
f 198/83/73 192/84/67 187/85/62 193/86/68
f 201/87/76 205/88/80 200/89/75
f 206/90/81 202/91/77 199/79/74
f 202/91/77 208/92/83 201/87/76
f 209/93/84 206/90/81 203/94/78
f 211/95/86 214/96/89 208/92/83
f 215/97/90 212/98/87 209/93/84
f 212/98/87 217/99/92 211/95/86
f 217/99/92 219/100/94 214/96/89
f 220/101/95 212/98/87 215/97/90
f 219/100/94 223/102/98 218/103/93
f 224/104/99 222/105/97 220/101/95
f 187/106/62 188/107/63 194/108/69 193/109/68
f 188/107/63 189/110/64 195/80/70 194/108/69
f 189/110/64 190/111/65 196/81/71 195/80/70
f 196/81/71 190/111/65 191/112/66 197/82/72
f 197/82/72 191/112/66 192/84/67 198/83/73
f 204/113/79 198/83/73 193/86/68 200/114/75
f 193/109/68 194/108/69 201/87/76 200/89/75
f 194/108/69 195/80/70 202/91/77 201/87/76
f 203/94/78 197/82/72 198/83/73 204/113/79
f 199/79/74 202/91/77 195/80/70
f 197/82/72 203/94/78 199/79/74
f 204/113/79 205/115/80 207/116/82 210/117/85
f 200/114/75 205/115/80 204/113/79
f 203/94/78 206/90/81 199/79/74
f 207/118/82 205/88/80 201/87/76 208/92/83
f 203/94/78 204/113/79 210/117/85 209/93/84
f 211/95/86 202/91/77 206/90/81 212/98/87
f 202/91/77 211/95/86 208/92/83
f 210/117/85 207/116/82 213/119/88 216/120/91
f 209/93/84 212/98/87 206/90/81
f 213/121/88 207/118/82 208/92/83 214/96/89
f 209/93/84 210/117/85 216/120/91 215/97/90
f 218/103/93 213/121/88 214/96/89 219/100/94
f 211/95/86 217/99/92 214/96/89
f 213/119/88 218/122/93 216/120/91
f 217/99/92 212/98/87 222/105/97 221/123/96
f 216/120/91 220/101/95 215/97/90
f 217/99/92 221/123/96 219/100/94
f 225/124/100 216/120/91 218/122/93 223/125/98
f 220/101/95 222/105/97 212/98/87
f 220/101/95 216/120/91 225/124/100 224/104/99
f 226/126/101 219/100/94 221/123/96 227/127/102
f 219/100/94 226/126/101 223/102/98
f 221/123/96 222/105/97 228/128/103 227/127/102
f 224/104/99 228/128/103 222/105/97
o BézierCurve.015
v -0.003620 0.027985 -0.169116
v 0.006380 0.027985 -0.169116
v 0.011380 0.027985 -0.160456
v 0.006380 0.027985 -0.151796
v -0.003620 0.027985 -0.151796
v -0.008620 0.027985 -0.160456
v 0.000372 -0.015867 -0.166125
v 0.009495 -0.011253 -0.166827
v 0.014433 -0.009285 -0.158060
v 0.007629 0.003166 -0.150878
v -0.000364 -0.011442 -0.149297
v -0.005467 -0.012622 -0.158103
v 0.012757 -0.017653 -0.147065
v 0.009741 -0.034210 -0.158451
v 0.021257 -0.032291 -0.157302
v 0.023954 -0.024868 -0.150160
v 0.009424 -0.028673 -0.141234
v 0.008168 -0.037520 -0.147030
v 0.020148 -0.041146 -0.149320
v 0.020833 -0.023415 -0.139877
v 0.033661 -0.041028 -0.136569
v 0.039000 -0.033080 -0.140483
v 0.023274 -0.029655 -0.128477
v 0.027458 -0.038860 -0.128874
v 0.042309 -0.020234 -0.132318
v 0.042167 -0.013695 -0.118452
v 0.054305 -0.029077 -0.113836
v 0.059981 -0.019879 -0.116699
v 0.043324 -0.017406 -0.105961
v 0.063228 -0.014063 -0.085499
v 0.066764 -0.001285 -0.100625
v 0.077045 -0.010202 -0.080069
v 0.083941 0.000388 -0.079613
v 0.062370 -0.001379 -0.077204
v 0.083041 0.011600 -0.069934
v 0.072755 0.011498 -0.068600
v 0.090035 -0.002994 -0.046935
v 0.075969 0.006276 -0.043026
v 0.080665 -0.002141 -0.044721
v 0.095034 0.004831 -0.047675
v 0.090614 0.013666 -0.046125
v 0.080907 0.014054 -0.043757
vn -0.5078 -0.0917 -0.8566
vn 0.4732 -0.0142 -0.8809
vn 0.9979 0.0637 -0.0085
vn 0.4921 0.0569 0.8687
vn -0.5211 0.0008 0.8535
vn -0.9968 -0.0784 -0.0177
vn -0.4696 -0.3523 -0.8095
vn 0.4422 -0.0650 -0.8946
vn 0.9603 0.2656 -0.0851
vn 0.4772 0.1261 0.8697
vn -0.5710 0.0073 0.8209
vn -0.9683 -0.2489 -0.0231
vn 0.2992 0.5788 0.7586
vn -0.3185 -0.6647 -0.6759
vn 0.5315 -0.2688 -0.8033
vn 0.6648 0.6358 -0.3922
vn -0.6432 0.0563 0.7636
vn -0.6784 -0.7121 0.1810
vn 0.0889 -0.9400 -0.3294
vn -0.1996 0.9343 0.2955
vn 0.3403 -0.9334 -0.1136
vn 0.7314 -0.2396 -0.6385
vn -0.7302 0.1130 0.6739
vn -0.3377 -0.7681 0.5440
vn 0.3673 0.6707 -0.6444
vn -0.4713 0.8769 -0.0944
vn 0.5071 -0.8589 0.0720
vn 0.8215 -0.1227 -0.5569
vn -0.8250 0.1683 0.5395
vn -0.3051 -0.7656 0.5664
vn 0.3177 0.7425 -0.5898
vn 0.5769 -0.8168 -0.0090
vn 0.8930 0.0143 -0.4499
vn -0.9046 0.0964 0.4152
vn 0.4549 0.8183 -0.3513
vn -0.4701 0.8816 -0.0428
vn 0.5199 -0.8540 -0.0212
vn -0.9306 0.1021 0.3515
vn -0.4402 -0.8198 0.3663
vn 0.9514 0.0059 -0.3080
vn 0.4842 0.8449 -0.2273
vn -0.4261 0.9031 0.0545
vt 0.218685 0.500000
vt 0.146035 0.333333
vt 0.083333 0.500000
vt 0.145442 0.666667
vt 0.136405 0.833333
vt 0.000000 1.000000
vt 0.147928 1.000000
vt 0.289767 0.166667
vt 0.333333 0.000000
vt 0.250000 0.000000
vt 0.359199 0.500000
vt 0.313950 0.333333
vt 0.447728 0.166667
vt 0.436832 0.666667
vt 0.288780 0.666667
vt 0.515278 0.333333
vt 0.624577 0.166667
vt 0.621902 0.666667
vt 0.576025 0.500000
vt 0.731310 0.333333
vt 0.844669 0.166667
vt 0.808300 0.666667
vt 1.000275 0.000000
vt 0.813469 0.000000
vt 1.000340 0.666667
vt 0.881286 0.500000
vt 0.000000 0.000000
vt 0.139663 0.166667
vt 0.147928 0.000000
vt 0.000000 0.166667
vt 0.000000 0.333333
vt 0.000000 0.666667
vt 0.250000 1.000000
vt 0.288381 0.833333
vt 0.333333 1.000000
vt 0.442082 0.833333
vt 0.434140 0.000000
vt 0.600900 1.000000
vt 0.755163 0.833333
vt 0.600900 0.000000
vt 0.813469 1.000000
vt 0.893048 0.333333
vt 1.000215 0.833333
vt 1.000275 1.000000
vt 1.000000 0.166667
vt 1.000000 0.333333
vt 1.000000 0.500000
vt 0.000000 0.833333
vt 0.000000 0.500000
vt 0.434140 1.000000
s 1
f 241/129/116 237/130/112 238/131/113
f 239/132/114 241/129/116 238/131/113
f 240/133/115 229/134/104 235/135/110
f 243/136/118 247/137/122 242/138/117
f 248/139/123 244/140/119 241/129/116
f 244/140/119 250/141/125 243/136/118
f 251/142/126 248/139/123 245/143/120
f 253/144/128 256/145/131 250/141/125
f 257/146/132 254/147/129 251/142/126
f 254/147/129 259/148/134 253/144/128
f 259/148/134 261/149/136 256/145/131
f 262/150/137 254/147/129 257/146/132
f 261/149/136 265/151/140 260/152/135
f 266/153/141 264/154/139 262/150/137
f 229/155/104 236/156/111 235/157/110
f 230/158/105 237/130/112 236/156/111
f 231/159/106 238/131/113 237/130/112
f 238/131/113 233/160/108 239/132/114
f 233/160/108 240/133/115 239/132/114
f 240/133/115 242/161/117 246/162/121
f 236/156/111 242/138/117 235/157/110
f 237/130/112 243/136/118 236/156/111
f 239/132/114 246/162/121 245/143/120
f 241/129/116 244/140/119 237/130/112
f 239/132/114 245/143/120 241/129/116
f 247/163/122 252/164/127 246/162/121
f 242/161/117 247/163/122 246/162/121
f 245/143/120 248/139/123 241/129/116
f 247/137/122 250/141/125 249/165/124
f 245/143/120 252/164/127 251/142/126
f 253/144/128 248/139/123 254/147/129
f 244/140/119 253/144/128 250/141/125
f 252/164/127 255/166/130 258/167/133
f 251/142/126 254/147/129 248/139/123
f 255/168/130 250/141/125 256/145/131
f 252/164/127 257/146/132 251/142/126
f 260/152/135 256/145/131 261/149/136
f 253/144/128 259/148/134 256/145/131
f 255/166/130 260/169/135 258/167/133
f 259/148/134 264/154/139 263/170/138
f 258/167/133 262/150/137 257/146/132
f 259/148/134 263/170/138 261/149/136
f 267/171/142 260/169/135 265/172/140
f 262/150/137 264/154/139 254/147/129
f 262/150/137 267/171/142 266/153/141
f 268/173/143 263/170/138 269/174/144
f 261/149/136 268/173/143 265/151/140
f 263/170/138 270/175/145 269/174/144
f 266/153/141 270/175/145 264/154/139
f 240/133/115 234/176/109 229/134/104
f 229/155/104 230/158/105 236/156/111
f 230/158/105 231/159/106 237/130/112
f 231/159/106 232/177/107 238/131/113
f 238/131/113 232/177/107 233/160/108
f 233/160/108 234/176/109 240/133/115
f 240/133/115 235/135/110 242/161/117
f 236/156/111 243/136/118 242/138/117
f 237/130/112 244/140/119 243/136/118
f 239/132/114 240/133/115 246/162/121
f 247/163/122 249/178/124 252/164/127
f 247/137/122 243/136/118 250/141/125
f 245/143/120 246/162/121 252/164/127
f 253/144/128 244/140/119 248/139/123
f 252/164/127 249/178/124 255/166/130
f 255/168/130 249/165/124 250/141/125
f 252/164/127 258/167/133 257/146/132
f 260/152/135 255/168/130 256/145/131
f 259/148/134 254/147/129 264/154/139
f 267/171/142 258/167/133 260/169/135
f 262/150/137 258/167/133 267/171/142
f 268/173/143 261/149/136 263/170/138
f 263/170/138 264/154/139 270/175/145
