# Blender 5.1.0
# www.blender.org
mtllib AutoStopStand.mtl
g AutoStopStand_Mesh
v -0.037500 0.159099 0.159099
v 0.037500 0.159099 0.159099
v -0.037500 0.207873 0.086104
v 0.037500 0.207873 0.086104
v -0.037500 0.225000 0.000000
v 0.037500 0.225000 0.000000
v -0.037500 0.207873 -0.086104
v 0.037500 0.207873 -0.086104
v -0.037500 0.159099 -0.159099
v 0.037500 0.159099 -0.159099
v -0.060000 0.036781 0.055046
v -0.060000 0.036781 -0.055046
v 0.060000 0.159099 0.159099
v 0.060000 0.207873 0.086104
v 0.060000 0.225000 0.000000
v 0.060000 0.207873 -0.086104
v 0.060000 0.159099 -0.159099
v -0.060000 0.047730 -0.047730
v 0.009900 0.150993 0.144751
v -0.009900 0.150993 0.144751
v 0.037500 0.194015 0.080363
v -0.037500 0.194015 0.080363
v 0.037500 0.210000 0.000000
v -0.037500 0.210000 0.000000
v 0.037500 0.194015 -0.080364
v -0.037500 0.194015 -0.080364
v 0.009900 0.150993 -0.144751
v -0.009900 0.150993 -0.144751
v -0.060000 0.062362 -0.025831
v -0.060000 0.067500 0.000000
v -0.060000 0.148285 0.148285
v -0.060000 0.193743 0.080251
v -0.060000 0.225000 0.000000
v -0.060000 0.207873 -0.086104
v -0.060000 0.148285 -0.148285
v -0.060000 0.062362 0.025831
v -0.075000 0.000000 -0.015000
v 0.075000 0.000000 -0.015000
v -0.075000 -0.010607 -0.010607
v 0.075000 -0.010607 -0.010607
v -0.075000 -0.015000 0.000000
v 0.075000 -0.015000 0.000000
v -0.075000 -0.010607 0.010607
v 0.075000 -0.010607 0.010607
v -0.075000 0.000000 0.015000
v 0.075000 0.000000 0.015000
v -0.075000 0.010607 0.010607
v 0.075000 0.010607 0.010607
v -0.075000 0.015000 0.000000
v 0.075000 0.015000 0.000000
v -0.075000 0.010607 -0.010607
v 0.075000 0.010607 -0.010607
v -0.060000 0.159099 0.159099
v -0.060000 0.207873 0.086104
v -0.060000 0.159099 -0.159099
v -0.060000 0.047730 0.047730
v -0.060000 0.122602 -0.183486
v 0.060000 0.122602 -0.183486
v -0.037500 0.122602 -0.183486
v 0.037500 0.122602 -0.183486
v -0.037500 0.114428 -0.171254
v 0.037500 0.114428 -0.171254
v -0.060000 0.122602 0.183486
v 0.060000 0.122602 0.183486
v -0.037500 0.122602 0.183486
v 0.037500 0.122602 0.183486
v -0.037500 0.114428 0.171254
v 0.037500 0.114428 0.171254
v -0.060000 0.126740 0.162680
v -0.060000 0.209706 0.000000
v -0.060000 0.193743 -0.080251
v -0.060000 0.057586 0.059184
v -0.060000 0.126740 -0.162680
v -0.060000 0.057586 -0.059184
v -0.060000 0.058544 -0.058544
v -0.060000 0.076492 -0.031684
v -0.060000 0.082794 0.000000
v -0.060000 0.076492 0.031684
v -0.060000 0.058544 0.058544
v -0.052500 0.209706 0.000000
v -0.052500 0.082794 0.000000
v -0.052500 0.193743 -0.080251
v -0.052500 0.076492 -0.031684
v -0.052500 0.126740 0.162680
v -0.052500 0.057586 0.059184
v -0.052500 0.148285 0.148285
v -0.052500 0.058544 0.058544
v -0.052500 0.076492 0.031684
v -0.052500 0.193743 0.080251
v -0.052500 0.126740 -0.162680
v -0.052500 0.057586 -0.059184
v -0.052500 0.058544 -0.058544
v -0.052500 0.148285 -0.148285
v 0.060000 0.036781 0.055046
v 0.060000 0.036781 -0.055046
v 0.060000 0.047730 -0.047730
v 0.060000 0.062362 -0.025831
v 0.060000 0.067500 0.000000
v 0.060000 0.062362 0.025831
v 0.060000 0.047730 0.047730
v 0.037500 0.148492 0.148492
v -0.037500 0.148492 0.148492
v 0.037500 0.148492 -0.148492
v -0.037500 0.148492 -0.148492
v -0.009900 0.194015 0.080363
v 0.009900 0.194015 0.080363
v -0.009900 0.210000 0.000000
v 0.009900 0.210000 0.000000
v -0.009900 0.194015 -0.080364
v 0.009900 0.194015 -0.080364
v 0.009900 0.167711 0.069468
v -0.009900 0.167711 0.069468
v 0.009900 0.181529 0.000000
v -0.009900 0.181529 0.000000
v 0.009900 0.167711 -0.069468
v -0.009900 0.167711 -0.069468
v 0.009900 0.127321 0.128934
v -0.009900 0.127321 0.128934
v 0.009900 0.127321 -0.128934
v -0.009900 0.127321 -0.128934
v -0.052500 -0.060000 0.045000
v -0.052500 0.067500 0.045000
v -0.052500 -0.060000 -0.045000
v -0.052500 0.067500 -0.045000
v 0.052500 -0.060000 0.045000
v 0.052500 0.067500 0.045000
v 0.052500 -0.060000 -0.045000
v 0.052500 0.067500 -0.045000
v -0.026250 -0.045000 -0.045000
v -0.026250 0.052500 -0.045000
v -0.026250 -0.045000 -0.105000
v -0.026250 0.015000 -0.105000
v 0.026250 -0.045000 -0.045000
v 0.026250 0.052500 -0.045000
v 0.026250 -0.045000 -0.105000
v 0.026250 0.015000 -0.105000
v -0.026250 0.056653 0.081352
v -0.026250 0.112693 0.161138
v -0.026250 0.007554 0.115839
v -0.026250 0.042041 0.164937
v 0.026250 0.056653 0.081352
v 0.026250 0.112693 0.161138
v 0.026250 0.007554 0.115839
v 0.026250 0.042041 0.164937
v 0.052500 0.021000 0.009000
v 0.052500 0.046500 0.009000
v 0.052500 0.021000 -0.009000
v 0.052500 0.046500 -0.009000
v 0.150000 0.021000 0.009000
v 0.150000 0.046500 0.009000
v 0.150000 0.021000 -0.009000
v 0.150000 0.046500 -0.009000
v 0.052500 0.141000 0.009000
v 0.052500 0.166500 0.009000
v 0.052500 0.141000 -0.009000
v 0.052500 0.166500 -0.009000
v 0.150000 0.141000 0.009000
v 0.150000 0.166500 0.009000
v 0.150000 0.141000 -0.009000
v 0.150000 0.166500 -0.009000
v 0.137500 -0.030000 0.045000
v 0.137500 0.187500 0.045000
v 0.137500 -0.030000 -0.045000
v 0.137500 0.187500 -0.045000
v 0.152500 -0.030000 0.045000
v 0.152500 0.187500 0.045000
v 0.152500 -0.030000 -0.045000
v 0.152500 0.187500 -0.045000
v 0.092500 0.021000 0.007200
v 0.092500 0.036500 0.007200
v 0.092500 0.021000 -0.007200
v 0.092500 0.036500 -0.007200
v 0.140000 -0.009000 0.007200
v 0.140000 0.006500 0.007200
v 0.140000 -0.009000 -0.007200
v 0.140000 0.006500 -0.007200
v 0.052500 0.038000 0.007200
v 0.052500 0.053500 0.007200
v 0.052500 0.038000 -0.007200
v 0.052500 0.053500 -0.007200
v 0.140000 0.141000 0.007200
v 0.140000 0.156500 0.007200
v 0.140000 0.141000 -0.007200
v 0.140000 0.156500 -0.007200
v 0.060000 0.207873 0.086104
v 0.060000 0.159099 0.159099
v -0.052500 0.057586 -0.059184
v -0.052500 0.057586 -0.059184
v -0.060000 0.057586 -0.059184
v -0.060000 0.057586 -0.059184
v 0.060000 0.225000 0.000000
v -0.060000 0.225000 0.000000
v -0.060000 0.207873 -0.086104
v 0.060000 0.207873 -0.086104
v 0.060000 0.159099 -0.159099
v -0.060000 0.126740 0.162680
v -0.060000 0.126740 0.162680
v -0.060000 0.057586 0.059184
v -0.060000 0.057586 0.059184
v 0.060000 0.122602 -0.183486
v 0.060000 0.122602 -0.183486
v -0.037500 0.122602 0.183486
v -0.037500 0.122602 0.183486
v -0.037500 0.159099 0.159099
v -0.037500 0.207873 0.086104
v 0.037500 0.207873 0.086104
v 0.037500 0.159099 0.159099
v -0.037500 0.225000 0.000000
v 0.037500 0.225000 0.000000
v -0.037500 0.207873 -0.086104
v 0.037500 0.207873 -0.086104
v -0.037500 0.159099 -0.159099
v 0.037500 0.159099 -0.159099
v 0.037500 0.122602 -0.183486
v 0.037500 0.122602 -0.183486
v -0.060000 0.126740 -0.162680
v -0.060000 0.126740 -0.162680
v 0.009900 0.127321 -0.128934
v 0.009900 0.127321 -0.128934
v 0.009900 0.150993 -0.144751
v 0.009900 0.150993 -0.144751
v -0.009900 0.150993 -0.144751
v -0.009900 0.150993 -0.144751
v -0.009900 0.127321 -0.128934
v -0.009900 0.127321 -0.128934
v -0.037500 0.114428 0.171254
v -0.037500 0.114428 0.171254
v -0.037500 0.148492 0.148492
v -0.037500 0.194015 0.080363
v 0.037500 0.194015 0.080363
v 0.037500 0.148492 0.148492
v -0.037500 0.210000 0.000000
v 0.037500 0.210000 0.000000
v -0.037500 0.194015 -0.080364
v 0.037500 0.194015 -0.080364
v -0.037500 0.148492 -0.148492
v 0.037500 0.148492 -0.148492
v -0.060000 0.058544 -0.058544
v 0.037500 0.114428 -0.171254
v 0.037500 0.114428 -0.171254
v -0.060000 0.159099 0.159099
v -0.060000 0.207873 0.086104
v -0.075000 0.000000 -0.015000
v -0.075000 0.000000 -0.015000
v -0.075000 -0.010607 -0.010607
v 0.075000 -0.010607 -0.010607
v 0.075000 0.000000 -0.015000
v 0.075000 0.000000 -0.015000
v -0.075000 -0.015000 0.000000
v -0.075000 -0.015000 0.000000
v 0.075000 -0.015000 0.000000
v 0.075000 -0.015000 0.000000
v -0.075000 -0.010607 0.010607
v 0.075000 -0.010607 0.010607
v -0.075000 0.000000 0.015000
v -0.075000 0.000000 0.015000
v 0.075000 0.000000 0.015000
v 0.075000 0.000000 0.015000
v -0.075000 0.010607 0.010607
v 0.075000 0.010607 0.010607
v -0.075000 0.015000 0.000000
v -0.075000 0.015000 0.000000
v 0.075000 0.015000 0.000000
v 0.075000 0.015000 0.000000
v -0.075000 0.010607 -0.010607
v 0.075000 0.010607 -0.010607
v -0.060000 0.076492 -0.031684
v -0.060000 0.082794 0.000000
v -0.060000 0.076492 0.031684
v -0.037500 0.122602 -0.183486
v -0.037500 0.122602 -0.183486
v -0.060000 0.058544 0.058544
v -0.037500 0.114428 -0.171254
v -0.037500 0.114428 -0.171254
v -0.060000 0.122602 -0.183486
v -0.060000 0.122602 -0.183486
v 0.060000 0.122602 0.183486
v 0.060000 0.122602 0.183486
v 0.037500 0.122602 0.183486
v 0.037500 0.122602 0.183486
v 0.037500 0.114428 0.171254
v 0.037500 0.114428 0.171254
v -0.060000 0.122602 0.183486
v -0.060000 0.122602 0.183486
v -0.060000 0.148285 0.148285
v -0.060000 0.193743 0.080251
v -0.060000 0.209706 0.000000
v -0.060000 0.193743 -0.080251
v -0.060000 0.148285 -0.148285
v -0.060000 0.036781 0.055046
v -0.060000 0.036781 0.055046
v -0.060000 0.036781 -0.055046
v -0.060000 0.036781 -0.055046
v -0.060000 0.047730 -0.047730
v -0.060000 0.062362 -0.025831
v -0.060000 0.067500 0.000000
v -0.060000 0.062362 0.025831
v -0.060000 0.047730 0.047730
v -0.052500 0.126740 0.162680
v -0.052500 0.126740 0.162680
v -0.052500 0.057586 0.059184
v -0.052500 0.057586 0.059184
v -0.052500 0.126740 -0.162680
v -0.052500 0.126740 -0.162680
v -0.052500 0.058544 -0.058544
v -0.052500 0.076492 -0.031684
v -0.052500 0.082794 0.000000
v -0.052500 0.076492 0.031684
v -0.052500 0.058544 0.058544
v -0.052500 0.148285 0.148285
v -0.052500 0.193743 0.080251
v -0.052500 0.209706 0.000000
v -0.052500 0.193743 -0.080251
v -0.052500 0.148285 -0.148285
v -0.060000 0.159099 -0.159099
v 0.060000 0.047730 -0.047730
v 0.060000 0.036781 -0.055046
v 0.060000 0.036781 -0.055046
v 0.060000 0.062362 -0.025831
v 0.060000 0.067500 0.000000
v 0.060000 0.062362 0.025831
v 0.060000 0.047730 0.047730
v 0.060000 0.036781 0.055046
v 0.060000 0.036781 0.055046
v 0.009900 0.150993 0.144751
v 0.009900 0.150993 0.144751
v -0.009900 0.150993 0.144751
v -0.009900 0.150993 0.144751
v -0.009900 0.194015 0.080363
v 0.009900 0.194015 0.080363
v -0.009900 0.210000 0.000000
v 0.009900 0.210000 0.000000
v -0.009900 0.194015 -0.080364
v 0.009900 0.194015 -0.080364
v 0.009900 0.127321 0.128934
v 0.009900 0.127321 0.128934
v -0.009900 0.127321 0.128934
v -0.009900 0.127321 0.128934
v -0.009900 0.167711 0.069468
v 0.009900 0.167711 0.069468
v -0.009900 0.181529 0.000000
v 0.009900 0.181529 0.000000
v -0.009900 0.167711 -0.069468
v 0.009900 0.167711 -0.069468
v -0.052500 -0.060000 -0.045000
v -0.052500 -0.060000 -0.045000
v -0.052500 -0.060000 0.045000
v -0.052500 -0.060000 0.045000
v -0.052500 0.067500 0.045000
v -0.052500 0.067500 -0.045000
v 0.052500 -0.060000 -0.045000
v 0.052500 -0.060000 -0.045000
v 0.052500 0.067500 -0.045000
v 0.052500 -0.060000 0.045000
v 0.052500 -0.060000 0.045000
v 0.052500 0.067500 0.045000
v -0.026250 -0.045000 -0.105000
v -0.026250 -0.045000 -0.105000
v -0.026250 -0.045000 -0.045000
v -0.026250 -0.045000 -0.045000
v -0.026250 0.052500 -0.045000
v -0.026250 0.052500 -0.045000
v -0.026250 0.015000 -0.105000
v -0.026250 0.015000 -0.105000
v 0.026250 -0.045000 -0.105000
v 0.026250 -0.045000 -0.105000
v 0.026250 0.015000 -0.105000
v 0.026250 0.015000 -0.105000
v 0.026250 -0.045000 -0.045000
v 0.026250 -0.045000 -0.045000
v 0.026250 0.052500 -0.045000
v 0.026250 0.052500 -0.045000
v -0.026250 0.007554 0.115839
v -0.026250 0.007554 0.115839
v -0.026250 0.056653 0.081352
v -0.026250 0.056653 0.081352
v -0.026250 0.112693 0.161138
v -0.026250 0.112693 0.161138
v -0.026250 0.042041 0.164937
v -0.026250 0.042041 0.164937
v 0.026250 0.007554 0.115839
v 0.026250 0.007554 0.115839
v 0.026250 0.042041 0.164937
v 0.026250 0.042041 0.164937
v 0.026250 0.056653 0.081352
v 0.026250 0.056653 0.081352
v 0.026250 0.112693 0.161138
v 0.026250 0.112693 0.161138
v 0.150000 0.021000 -0.009000
v 0.052500 0.021000 -0.009000
v 0.150000 0.046500 -0.009000
v 0.052500 0.046500 -0.009000
v 0.052500 0.021000 0.009000
v 0.150000 0.021000 0.009000
v 0.052500 0.046500 0.009000
v 0.150000 0.046500 0.009000
v 0.150000 0.141000 -0.009000
v 0.052500 0.141000 -0.009000
v 0.150000 0.166500 -0.009000
v 0.052500 0.166500 -0.009000
v 0.052500 0.141000 0.009000
v 0.150000 0.141000 0.009000
v 0.052500 0.166500 0.009000
v 0.150000 0.166500 0.009000
v 0.137500 -0.030000 -0.045000
v 0.137500 -0.030000 -0.045000
v 0.137500 -0.030000 0.045000
v 0.137500 -0.030000 0.045000
v 0.137500 0.187500 0.045000
v 0.137500 0.187500 0.045000
v 0.137500 0.187500 -0.045000
v 0.137500 0.187500 -0.045000
v 0.152500 -0.030000 -0.045000
v 0.152500 0.187500 -0.045000
v 0.152500 -0.030000 0.045000
v 0.152500 0.187500 0.045000
v 0.140000 -0.009000 -0.007200
v 0.092500 0.021000 -0.007200
v 0.140000 0.006500 -0.007200
v 0.092500 0.036500 -0.007200
v 0.092500 0.021000 0.007200
v 0.140000 -0.009000 0.007200
v 0.092500 0.036500 0.007200
v 0.140000 0.006500 0.007200
v 0.140000 0.141000 -0.007200
v 0.052500 0.038000 -0.007200
v 0.140000 0.156500 -0.007200
v 0.052500 0.053500 -0.007200
v 0.052500 0.038000 0.007200
v 0.140000 0.141000 0.007200
v 0.052500 0.053500 0.007200
v 0.140000 0.156500 0.007200
vn -1.0000 -0.0000 -0.0000
vn 1.0000 -0.0000 -0.0000
vn -0.0000 0.7072 0.7071
vn -0.0000 0.9239 0.3827
vn -0.0000 0.7071 0.7071
vn -0.0000 0.5556 0.8315
vn -0.0000 1.0000 -0.0000
vn -0.0000 0.9239 -0.3827
vn -0.0000 0.7071 -0.7071
vn -0.0000 -0.9239 0.3827
vn -0.0000 -1.0000 -0.0000
vn -0.0000 0.5556 -0.8315
vn -0.0000 -0.5556 0.8315
vn -0.0000 -0.7071 0.7071
vn -0.0000 -0.3827 -0.9239
vn -0.0000 -0.9239 -0.3827
vn -0.0000 0.3827 -0.9239
vn -0.0000 0.7072 -0.7071
vn -0.0000 0.5557 -0.8314
vn -0.0000 0.5557 0.8314
vn -0.0000 0.8315 -0.5556
vn -0.0000 -0.7071 -0.7071
vn -0.0000 -0.5556 -0.8315
vn -0.0000 0.8315 0.5556
vn -0.0000 0.3827 0.9239
vn -0.0000 -0.3827 0.9239
vn -0.0000 0.8272 0.5619
vn -0.0000 0.9224 0.3862
vn -0.0000 0.9224 -0.3862
vn -0.0000 0.8272 -0.5619
vn -0.0000 -0.8315 -0.5556
vn -0.0000 -0.8315 0.5556
vn -0.0000 -0.0000 -1.0000
vn -0.0000 -0.0000 1.0000
vn -0.0000 0.8480 -0.5300
vn -0.0000 -0.8183 0.5748
vn -0.0000 0.8183 -0.5748
vn -0.0000 -0.5748 -0.8183
vn -0.0000 0.0537 0.9986
vn -0.5340 -0.8455 -0.0000
vn 0.5340 0.8455 -0.0000
vn 0.7621 -0.6474 -0.0000
vn -0.7621 0.6474 -0.0000
vt 0.312500 0.925000
vt 0.375000 0.925000
vt 0.312500 0.575000
vt 0.375000 0.575000
vt 0.406250 0.925000
vt 0.375000 0.500000
vt 0.312500 0.500000
vt 0.406250 0.500000
vt 0.406250 0.575000
vt 0.312500 1.000000
vt 0.250000 0.575000
vt 0.312500 0.500000
vt 0.250000 1.000000
vt 0.250000 0.925000
vt 0.187500 0.575000
vt 0.250000 0.500000
vt 0.187500 1.000000
vt 0.187500 0.925000
vt 0.125000 0.575000
vt 0.187500 0.500000
vt 0.125000 1.000000
vt 0.125000 0.925000
vt 0.093750 1.000000
vt 0.093750 0.925000
vt 0.371568 0.596000
vt 0.312500 0.596000
vt 0.312500 0.904000
vt 0.250000 0.904000
vt 0.128432 0.596000
vt 0.187500 0.596000
vt 0.128433 0.904000
vt 0.105378 0.500000
vt 0.125000 0.500000
vt 0.093750 0.575000
vt 1.000000 0.500000
vt 0.875000 1.000000
vt 0.875000 0.500000
vt 0.750000 0.500000
vt 0.010000 0.250000
vt 0.250000 0.010000
vt 0.490000 0.250000
vt 0.000000 0.500000
vt 0.919706 0.080294
vt 0.580294 0.080294
vt 0.580294 0.419706
vt 0.122874 0.500000
vt 0.375000 1.000000
vt 0.394622 0.500000
vt 0.377126 0.500000
vt 0.093750 0.500000
vt 0.187500 0.500000
vt 0.406250 1.000000
vt 0.080294 0.080294
vt 0.750000 0.010000
vt 0.419706 0.080294
vt 0.990000 0.250000
vt 0.371568 0.904000
vt 0.250000 0.596000
vt 0.187500 0.904000
vt 0.625000 0.000000
vt 0.375000 0.250000
vt 0.375000 0.000000
vt 0.625000 0.250000
vt 0.625000 0.500000
vt 0.375000 0.750000
vt 0.625000 0.750000
vt 0.125000 0.750000
vt 0.625000 1.000000
vt 1.000000 1.000000
vt 0.750000 1.000000
vt 0.419706 0.419706
vt 0.250000 0.490000
vt 0.080294 0.419706
vt 0.000000 1.000000
vt 0.750000 0.490000
vt 0.919706 0.419706
vt 0.510000 0.250000
s 1
f 206/1/1 101/2/1 207/2/1
f 205/3/2 228/4/2 229/3/2
f 279/5/1 101/2/1 281/5/1
f 87/6/3 269/7/4 272/6/3
f 1/4/5 283/8/6 202/9/6
f 3/3/4 241/6/5 1/4/5
f 2/2/5 185/10/4 4/1/4
f 208/11/7 242/12/4 3/3/4
f 4/1/4 191/13/7 209/14/7
f 210/15/8 192/16/7 208/11/7
f 209/14/7 194/17/8 211/18/8
f 212/19/9 193/20/8 210/15/8
f 211/18/8 195/21/9 10/22/9
f 82/20/10 287/16/11 288/20/10
f 10/22/9 200/23/12 214/24/12
f 282/5/6 102/4/5 226/9/6
f 328/25/2 112/26/2 329/26/2
f 106/27/1 113/28/1 111/27/1
f 222/29/2 343/30/2 224/29/2
f 223/29/6 218/31/6 220/31/6
f 217/32/13 93/33/14 35/33/14
f 5/11/2 229/3/2 232/11/2
f 6/14/1 230/1/1 206/1/1
f 5/11/2 234/15/2 7/15/2
f 6/14/1 235/18/1 233/14/1
f 7/15/2 104/19/2 9/19/2
f 8/18/1 237/22/1 235/18/1
f 270/34/2 104/19/2 273/34/2
s 0
f 243/35/15 246/36/15 245/37/15
f 246/36/16 249/38/16 245/37/16
f 263/39/2 257/40/2 252/41/2
f 264/13/8 265/33/8 262/16/8
f 52/21/17 244/42/17 265/33/17
f 253/43/1 259/44/1 51/45/1
s 1
f 80/16/11 286/12/16 287/16/11
f 238/33/18 187/46/19 189/46/19
f 103/22/9 274/34/12 236/19/9
f 308/7/4 268/16/7 269/7/4
f 271/34/12 315/33/9 212/19/9
f 215/24/1 237/22/1 213/22/1
f 280/5/6 186/47/5 2/2/5
f 203/9/2 228/4/2 204/4/2
f 196/48/1 53/6/1 285/6/1
f 285/6/1 54/12/1 32/12/1
f 32/12/1 33/16/1 70/16/1
f 33/16/1 71/20/1 70/16/1
f 71/20/1 55/33/1 289/33/1
f 290/8/1 196/48/1 198/49/1
f 216/32/1 292/50/1 190/46/1
f 190/46/1 294/33/1 75/33/1
f 75/33/1 295/20/1 267/51/1
f 267/51/1 296/16/1 77/16/1
f 216/32/1 55/33/1 276/50/1
f 296/16/1 78/7/1 77/16/1
f 297/12/1 79/6/1 78/7/1
f 298/6/1 198/49/1 79/6/1
f 312/16/1 88/7/1 89/12/1
f 306/51/1 312/16/1 313/20/1
f 92/33/1 313/20/1 314/33/1
f 309/6/1 299/48/1 310/6/1
f 89/12/1 309/6/1 310/6/1
f 303/32/1 92/33/1 314/33/1
f 93/33/14 288/20/10 35/33/14
f 307/16/7 76/51/8 268/16/7
f 302/49/20 272/6/3 199/49/20
f 300/48/21 72/49/21 197/48/21
f 86/6/22 69/48/23 31/6/22
f 74/46/24 90/32/24 73/32/24
f 83/51/8 238/33/18 76/51/8
f 311/12/16 31/6/22 286/12/16
f 293/50/13 316/33/14 18/33/14
f 36/12/16 322/6/22 56/6/22
f 18/33/14 319/20/10 29/20/10
f 56/6/22 323/8/23 291/8/23
f 30/16/11 321/12/16 36/12/16
f 29/20/10 320/16/11 30/16/11
f 201/23/2 96/33/2 318/50/2
f 16/17/2 96/33/2 17/21/2
f 15/13/2 97/20/2 16/17/2
f 15/13/2 99/12/2 98/16/2
f 14/10/2 100/6/2 99/12/2
f 278/52/2 100/6/2 13/47/2
s 0
f 48/53/4 49/16/4 47/44/4
f 258/40/25 47/44/25 256/54/25
f 44/55/26 45/54/26 43/43/26
f 44/55/10 41/56/10 42/41/10
s 1
f 327/25/24 231/2/5 325/57/24
f 28/29/21 103/22/9 236/19/9
f 327/25/24 22/3/4 102/4/5
f 325/57/24 21/1/4 330/27/4
f 331/58/7 22/3/4 105/26/4
f 330/27/4 23/14/7 108/28/7
f 109/30/8 24/11/7 331/58/7
f 108/28/7 25/18/8 334/59/8
f 28/29/21 26/15/8 109/30/8
f 221/31/21 25/18/8 103/22/9
f 335/57/27 339/26/28 337/25/27
f 340/27/28 341/58/7 339/26/28
f 342/28/7 116/30/29 341/58/7
f 344/59/29 120/29/30 116/30/29
f 27/31/1 115/59/1 110/59/1
f 107/58/2 343/30/2 333/30/2
f 326/57/1 111/27/1 336/57/1
f 19/57/12 118/25/12 20/25/12
f 332/28/1 115/59/1 113/28/1
f 329/26/2 114/58/2 107/58/2
f 62/24/31 95/50/31 12/50/31
f 67/9/32 94/8/32 68/5/32
s 0
f 349/60/1 345/61/1 347/62/1
f 124/63/33 351/6/33 346/61/33
f 128/64/2 354/65/2 352/6/2
f 126/66/34 348/47/34 355/65/34
f 127/6/11 121/67/11 123/33/11
f 359/62/1 363/63/1 357/61/1
f 364/63/33 365/6/33 358/61/33
f 368/64/2 369/65/2 366/6/2
f 372/66/34 360/47/34 370/65/34
f 135/6/11 129/67/11 131/33/11
f 130/68/35 136/64/35 132/63/35
f 375/62/1 379/63/1 377/60/1
f 381/6/36 380/63/36 374/61/36
f 385/65/2 384/64/2 382/6/2
f 376/47/37 388/66/37 386/65/37
f 137/67/38 143/6/38 139/33/38
f 144/64/39 138/68/39 140/63/39
f 392/63/33 389/6/33 147/61/33
f 396/66/34 145/47/34 149/65/34
f 151/6/11 393/67/11 390/33/11
f 148/63/7 150/66/7 152/64/7
f 400/63/33 397/6/33 155/61/33
f 404/66/34 153/47/34 157/65/34
f 159/6/11 401/67/11 398/33/11
f 156/63/7 158/66/7 160/64/7
f 409/60/1 405/61/1 407/62/1
f 412/63/33 413/6/33 406/61/33
f 171/61/33 419/64/33 417/6/33
f 166/66/34 408/47/34 165/65/34
f 167/6/11 161/67/11 163/33/11
f 162/68/7 168/64/7 164/63/7
f 424/66/34 169/47/34 173/65/34
f 175/6/40 421/67/40 418/33/40
f 172/63/41 174/66/41 176/64/41
f 428/63/33 425/6/33 179/61/33
f 181/65/34 431/68/34 177/47/34
f 183/6/42 429/67/42 426/33/42
f 180/63/43 182/66/43 184/64/43
s 1
f 206/1/1 230/1/1 101/2/1
f 205/3/2 204/4/2 228/4/2
f 279/5/1 207/2/1 101/2/1
f 87/6/3 308/7/4 269/7/4
f 1/4/5 241/6/5 283/8/6
f 3/3/4 242/12/4 241/6/5
f 2/2/5 186/47/5 185/10/4
f 208/11/7 192/16/7 242/12/4
f 4/1/4 185/10/4 191/13/7
f 210/15/8 193/20/8 192/16/7
f 209/14/7 191/13/7 194/17/8
f 212/19/9 315/33/9 193/20/8
f 211/18/8 194/17/8 195/21/9
f 82/20/10 80/16/11 287/16/11
f 10/22/9 195/21/9 200/23/12
f 282/5/6 231/2/5 102/4/5
f 328/25/2 338/25/2 112/26/2
f 106/27/1 332/28/1 113/28/1
f 222/29/2 333/30/2 343/30/2
f 223/29/6 225/29/6 218/31/6
f 217/32/13 304/32/13 93/33/14
f 5/11/2 205/3/2 229/3/2
f 6/14/1 233/14/1 230/1/1
f 5/11/2 232/11/2 234/15/2
f 6/14/1 8/18/1 235/18/1
f 7/15/2 234/15/2 104/19/2
f 8/18/1 213/22/1 237/22/1
f 270/34/2 9/19/2 104/19/2
s 0
f 243/35/15 247/69/15 246/36/15
f 246/36/16 251/70/16 249/38/16
f 252/41/2 40/71/2 248/72/2
f 248/72/2 266/73/2 263/39/2
f 263/39/2 260/53/2 257/40/2
f 257/40/2 254/55/2 252/41/2
f 252/41/2 248/72/2 263/39/2
f 264/13/8 52/21/8 265/33/8
f 52/21/17 38/74/17 244/42/17
f 51/45/1 37/75/1 39/76/1
f 39/76/1 250/56/1 253/43/1
f 253/43/1 255/54/1 259/44/1
f 259/44/1 261/77/1 51/45/1
f 51/45/1 39/76/1 253/43/1
s 1
f 80/16/11 311/12/16 286/12/16
f 238/33/18 305/33/18 187/46/19
f 103/22/9 239/24/12 274/34/12
f 308/7/4 307/16/7 268/16/7
f 271/34/12 275/50/12 315/33/9
f 215/24/1 240/24/1 237/22/1
f 280/5/6 277/52/6 186/47/5
f 203/9/2 227/9/2 228/4/2
f 196/48/1 284/8/1 53/6/1
f 285/6/1 53/6/1 54/12/1
f 32/12/1 54/12/1 33/16/1
f 33/16/1 34/20/1 71/20/1
f 71/20/1 34/20/1 55/33/1
f 290/8/1 284/8/1 196/48/1
f 216/32/1 276/50/1 292/50/1
f 190/46/1 292/50/1 294/33/1
f 75/33/1 294/33/1 295/20/1
f 267/51/1 295/20/1 296/16/1
f 216/32/1 289/33/1 55/33/1
f 296/16/1 297/12/1 78/7/1
f 297/12/1 298/6/1 79/6/1
f 298/6/1 290/8/1 198/49/1
f 312/16/1 81/16/1 88/7/1
f 306/51/1 81/16/1 312/16/1
f 92/33/1 306/51/1 313/20/1
f 309/6/1 301/49/1 299/48/1
f 89/12/1 88/7/1 309/6/1
f 303/32/1 188/46/1 92/33/1
f 93/33/14 82/20/10 288/20/10
f 307/16/7 83/51/8 76/51/8
f 302/49/20 87/6/3 272/6/3
f 300/48/21 85/49/21 72/49/21
f 86/6/22 84/48/23 69/48/23
f 74/46/24 91/46/24 90/32/24
f 83/51/8 305/33/18 238/33/18
f 311/12/16 86/6/22 31/6/22
f 293/50/13 317/50/13 316/33/14
f 36/12/16 321/12/16 322/6/22
f 18/33/14 316/33/14 319/20/10
f 56/6/22 322/6/22 323/8/23
f 30/16/11 320/16/11 321/12/16
f 29/20/10 319/20/10 320/16/11
f 201/23/2 17/21/2 96/33/2
f 16/17/2 97/20/2 96/33/2
f 15/13/2 98/16/2 97/20/2
f 15/13/2 14/10/2 99/12/2
f 14/10/2 13/47/2 100/6/2
f 278/52/2 324/8/2 100/6/2
s 0
f 48/53/4 50/39/4 49/16/4
f 258/40/25 48/53/25 47/44/25
f 44/55/26 46/40/26 45/54/26
f 44/55/10 43/43/10 41/56/10
s 1
f 327/25/24 102/4/5 231/2/5
f 28/29/21 221/31/21 103/22/9
f 327/25/24 105/26/4 22/3/4
f 325/57/24 231/2/5 21/1/4
f 331/58/7 24/11/7 22/3/4
f 330/27/4 21/1/4 23/14/7
f 109/30/8 26/15/8 24/11/7
f 108/28/7 23/14/7 25/18/8
f 28/29/21 236/19/9 26/15/8
f 221/31/21 334/59/8 25/18/8
f 335/57/27 340/27/28 339/26/28
f 340/27/28 342/28/7 341/58/7
f 342/28/7 344/59/29 116/30/29
f 344/59/29 219/31/30 120/29/30
f 27/31/1 119/31/1 115/59/1
f 107/58/2 114/58/2 343/30/2
f 326/57/1 106/27/1 111/27/1
f 19/57/12 117/57/12 118/25/12
f 332/28/1 110/59/1 115/59/1
f 329/26/2 112/26/2 114/58/2
f 57/50/31 59/34/31 61/34/31
f 62/24/31 60/24/31 58/23/31
f 12/50/31 57/50/31 61/34/31
f 62/24/31 58/23/31 95/50/31
f 12/50/31 61/34/31 62/24/31
f 67/9/32 65/9/32 63/8/32
f 63/8/32 11/8/32 94/8/32
f 94/8/32 64/52/32 66/5/32
f 94/8/32 66/5/32 68/5/32
f 67/9/32 63/8/32 94/8/32
s 0
f 349/60/1 350/63/1 345/61/1
f 124/63/33 353/64/33 351/6/33
f 128/64/2 356/66/2 354/65/2
f 126/66/34 122/68/34 348/47/34
f 127/6/11 125/65/11 121/67/11
f 359/62/1 361/60/1 363/63/1
f 364/63/33 367/64/33 365/6/33
f 368/64/2 371/66/2 369/65/2
f 372/66/34 362/68/34 360/47/34
f 135/6/11 133/65/11 129/67/11
f 130/68/35 134/66/35 136/64/35
f 375/62/1 373/61/1 379/63/1
f 381/6/36 383/64/36 380/63/36
f 385/65/2 387/66/2 384/64/2
f 376/47/37 378/68/37 388/66/37
f 137/67/38 141/65/38 143/6/38
f 144/64/39 142/66/39 138/68/39
f 392/63/33 391/64/33 389/6/33
f 396/66/34 395/68/34 145/47/34
f 151/6/11 394/65/11 393/67/11
f 148/63/7 146/68/7 150/66/7
f 400/63/33 399/64/33 397/6/33
f 404/66/34 403/68/34 153/47/34
f 159/6/11 402/65/11 401/67/11
f 156/63/7 154/68/7 158/66/7
f 409/60/1 411/63/1 405/61/1
f 412/63/33 414/64/33 413/6/33
f 171/61/33 420/63/33 419/64/33
f 166/66/34 410/68/34 408/47/34
f 167/6/11 415/65/11 161/67/11
f 162/68/7 416/66/7 168/64/7
f 424/66/34 423/68/34 169/47/34
f 175/6/40 422/65/40 421/67/40
f 172/63/41 170/68/41 174/66/41
f 428/63/33 427/64/33 425/6/33
f 181/65/34 432/66/34 431/68/34
f 183/6/42 430/65/42 429/67/42
f 180/63/43 178/68/43 182/66/43
g AutoStopHandle_Mesh
v -0.060000 0.255000 -0.022500
v -0.060000 0.240000 -0.022500
v -0.060000 0.255000 -0.015000
v -0.060000 0.390000 -0.015000
v -0.075000 0.024213 -0.015213
v -0.075000 0.024213 0.015213
v -0.060000 0.024213 -0.015213
v -0.060000 0.024213 0.015213
v -0.075000 -0.021213 -0.021213
v -0.075000 0.000000 -0.030000
v -0.075000 0.000000 -0.015000
v -0.060000 0.000000 -0.015000
v -0.075000 -0.010607 -0.010607
v -0.060000 -0.010607 -0.010607
v -0.075000 -0.015000 0.000000
v -0.060000 -0.015000 0.000000
v -0.075000 -0.010607 0.010607
v -0.060000 -0.010607 0.010607
v -0.075000 0.000000 0.015000
v -0.060000 0.000000 0.015000
v -0.075000 0.010607 0.010607
v -0.060000 0.010607 0.010607
v -0.075000 0.015000 0.000000
v -0.060000 0.015000 0.000000
v -0.075000 0.010607 -0.010607
v -0.060000 0.010607 -0.010607
v -0.060000 -0.021213 -0.021213
v -0.060000 0.000000 -0.030000
v -0.075000 -0.030000 0.000000
v -0.060000 -0.030000 0.000000
v -0.075000 -0.021213 0.021213
v -0.060000 -0.021213 0.021213
v -0.075000 0.000000 0.030000
v -0.060000 0.000000 0.030000
v -0.075000 0.231000 0.033867
v -0.075000 0.216365 0.045577
v -0.075000 0.235712 0.054650
v -0.075000 0.226714 0.043510
v -0.075000 0.216365 -0.045577
v -0.075000 0.231000 -0.033867
v -0.075000 0.235712 -0.054650
v -0.075000 0.226714 -0.043510
v -0.060000 0.216365 0.045577
v -0.060000 0.231000 0.033867
v -0.060000 0.235712 0.054650
v -0.060000 0.226714 0.043510
v -0.060000 0.231000 -0.033867
v -0.060000 0.216365 -0.045577
v -0.060000 0.235712 -0.054650
v -0.060000 0.226714 -0.043510
v -0.075000 0.225360 0.056734
v -0.075000 0.240000 0.045000
v -0.075000 0.240000 -0.045000
v -0.075000 0.225360 -0.056734
v -0.060000 0.225360 -0.056734
v -0.060000 0.240000 -0.045000
v -0.060000 0.240000 0.045000
v -0.060000 0.225360 0.056734
v -0.075000 0.037390 0.008711
v -0.075000 0.033000 0.003224
v -0.075000 0.029575 0.010643
v -0.075000 0.033000 -0.003224
v -0.075000 0.037390 -0.008711
v -0.075000 0.029575 -0.010643
v -0.060000 0.033000 0.003224
v -0.060000 0.037390 0.008711
v -0.060000 0.029575 0.010643
v -0.060000 0.037390 -0.008711
v -0.060000 0.033000 -0.003224
v -0.060000 0.029575 -0.010643
v -0.044090 0.240000 -0.015910
v -0.044090 0.255000 -0.015910
v -0.037500 0.240000 0.000000
v -0.037500 0.255000 0.000000
v -0.044090 0.240000 0.015910
v -0.044090 0.255000 0.015910
v -0.060000 0.240000 0.022500
v -0.060000 0.255000 0.022500
v -0.075910 0.240000 0.015910
v -0.075910 0.255000 0.015910
v -0.082500 0.240000 0.000000
v -0.082500 0.255000 0.000000
v -0.075910 0.240000 -0.015910
v -0.075910 0.255000 -0.015910
v -0.049393 0.255000 -0.010607
v -0.049393 0.390000 -0.010607
v -0.045000 0.255000 0.000000
v -0.045000 0.390000 0.000000
v -0.049393 0.255000 0.010607
v -0.049393 0.390000 0.010607
v -0.060000 0.255000 0.015000
v -0.060000 0.390000 0.015000
v -0.070607 0.255000 0.010607
v -0.070607 0.390000 0.010607
v -0.075000 0.255000 0.000000
v -0.075000 0.390000 0.000000
v -0.070607 0.255000 -0.010607
v -0.070607 0.390000 -0.010607
v -0.060000 0.231000 0.022500
v -0.060000 0.240000 0.022500
v -0.060000 0.231000 -0.022500
v -0.060000 0.240000 -0.022500
v -0.037500 0.231000 0.022500
v -0.037500 0.240000 0.022500
v -0.037500 0.231000 -0.022500
v -0.037500 0.240000 -0.022500
v 0.015000 0.240000 -0.009000
v 0.015000 0.231000 -0.009000
v 0.015000 0.231000 0.009000
v 0.015000 0.240000 0.009000
v -0.007500 0.240000 0.007500
v -0.007500 0.247500 0.007500
v -0.007500 0.240000 -0.007500
v -0.007500 0.247500 -0.007500
v 0.007500 0.240000 0.007500
v 0.007500 0.247500 0.007500
v 0.007500 0.240000 -0.007500
v 0.007500 0.247500 -0.007500
v -0.007500 0.126000 0.015000
v -0.007500 0.231000 0.009000
v -0.007500 0.126000 -0.015000
v -0.007500 0.231000 -0.009000
v 0.007500 0.126000 0.015000
v 0.007500 0.231000 0.009000
v 0.007500 0.126000 -0.015000
v 0.007500 0.231000 -0.009000
v -0.069750 0.231000 0.007500
v -0.069750 0.217500 0.004500
v -0.069750 0.231000 -0.007500
v -0.069750 0.217500 -0.004500
v -0.065250 0.231000 0.007500
v -0.065250 0.217500 0.004500
v -0.065250 0.231000 -0.007500
v -0.065250 0.217500 -0.004500
v -0.069750 0.210000 0.009000
v -0.069750 0.210000 -0.009000
v -0.065250 0.210000 -0.009000
v -0.065250 0.210000 0.009000
v -0.069750 0.195000 0.000000
v -0.071250 0.217500 0.000000
v -0.065250 0.195000 0.000000
v -0.071250 0.231000 0.000000
v -0.071250 0.210000 0.000000
v -0.063750 0.231000 0.000000
v -0.063750 0.217500 0.000000
v -0.063750 0.210000 0.000000
v -0.075000 0.024213 -0.015213
v -0.075000 0.024213 -0.015213
v -0.075000 0.024213 -0.015213
v -0.075000 0.024213 -0.015213
v -0.075000 0.024213 0.015213
v -0.075000 0.024213 0.015213
v -0.075000 0.024213 0.015213
v -0.075000 0.024213 0.015213
v -0.060000 0.024213 -0.015213
v -0.060000 0.024213 -0.015213
v -0.060000 0.024213 -0.015213
v -0.060000 0.024213 -0.015213
v -0.060000 0.024213 0.015213
v -0.060000 0.024213 0.015213
v -0.060000 0.024213 0.015213
v -0.060000 0.024213 0.015213
v -0.075000 0.235712 0.054650
v -0.075000 0.235712 0.054650
v -0.075000 0.240000 0.045000
v -0.037500 0.255000 0.000000
v -0.044090 0.255000 -0.015910
v -0.070607 0.390000 0.010607
v -0.060000 0.390000 0.015000
v -0.044090 0.240000 -0.015910
v -0.037500 0.240000 0.000000
v -0.075000 0.000000 -0.015000
v -0.075000 -0.010607 -0.010607
v -0.075000 -0.030000 0.000000
v -0.075000 -0.021213 0.021213
v -0.060000 -0.010607 -0.010607
v -0.060000 0.000000 -0.015000
v -0.075000 -0.015000 0.000000
v -0.060000 -0.030000 0.000000
v -0.060000 -0.021213 -0.021213
v -0.060000 -0.015000 0.000000
v -0.060000 0.000000 0.030000
v -0.060000 0.000000 0.030000
v -0.075000 0.000000 0.030000
v -0.075000 0.000000 0.030000
v -0.075000 -0.010607 0.010607
v -0.075000 -0.021213 -0.021213
v -0.060000 -0.010607 0.010607
v -0.060000 -0.021213 0.021213
v -0.075000 0.000000 0.015000
v -0.060000 0.000000 0.015000
v -0.075000 0.010607 0.010607
v -0.075000 0.000000 -0.030000
v -0.075000 0.000000 -0.030000
v -0.060000 0.000000 -0.030000
v -0.060000 0.000000 -0.030000
v -0.060000 0.010607 0.010607
v -0.075000 0.015000 0.000000
v -0.060000 0.015000 0.000000
v -0.075000 0.010607 -0.010607
v -0.060000 0.010607 -0.010607
v -0.075000 0.231000 0.033867
v -0.075000 0.226714 0.043510
v -0.075000 0.226714 0.043510
v -0.075000 0.216365 0.045577
v -0.075000 0.216365 -0.045577
v -0.075000 0.226714 -0.043510
v -0.075000 0.226714 -0.043510
v -0.075000 0.231000 -0.033867
v -0.060000 0.216365 0.045577
v -0.060000 0.226714 0.043510
v -0.060000 0.226714 0.043510
v -0.060000 0.231000 0.033867
v -0.060000 0.231000 -0.033867
v -0.060000 0.226714 -0.043510
v -0.060000 0.226714 -0.043510
v -0.060000 0.216365 -0.045577
v -0.060000 0.240000 -0.022500
v -0.049393 0.390000 -0.010607
v -0.060000 0.390000 -0.015000
v -0.060000 0.255000 -0.022500
v -0.075000 0.225360 0.056734
v -0.060000 0.235712 -0.054650
v -0.060000 0.235712 -0.054650
v -0.075000 0.235712 -0.054650
v -0.075000 0.235712 -0.054650
v -0.060000 0.240000 -0.045000
v -0.060000 0.235712 0.054650
v -0.060000 0.235712 0.054650
v -0.060000 0.225360 0.056734
v -0.060000 0.225360 -0.056734
v -0.060000 0.240000 0.045000
v -0.075000 0.225360 -0.056734
v -0.075000 0.240000 -0.045000
v -0.075000 0.037390 0.008711
v -0.075000 0.033000 0.003224
v -0.075000 0.033000 -0.003224
v -0.075000 0.037390 -0.008711
v -0.060000 0.033000 0.003224
v -0.060000 0.037390 0.008711
v -0.060000 0.037390 -0.008711
v -0.060000 0.033000 -0.003224
v -0.044090 0.240000 0.015910
v -0.044090 0.255000 0.015910
v -0.060000 0.240000 0.022500
v -0.049393 0.390000 0.010607
v -0.060000 0.255000 0.022500
v -0.075910 0.240000 0.015910
v -0.075910 0.255000 0.015910
v -0.082500 0.240000 0.000000
v -0.082500 0.255000 0.000000
v -0.045000 0.390000 0.000000
v -0.075910 0.240000 -0.015910
v -0.075910 0.255000 -0.015910
v -0.075000 0.390000 0.000000
v -0.070607 0.390000 -0.010607
v -0.060000 0.231000 -0.022500
v -0.060000 0.231000 -0.022500
v -0.060000 0.231000 0.022500
v -0.060000 0.231000 0.022500
v -0.060000 0.240000 0.022500
v -0.060000 0.240000 0.022500
v -0.060000 0.240000 -0.022500
v -0.060000 0.240000 -0.022500
v -0.037500 0.231000 -0.022500
v -0.037500 0.240000 -0.022500
v -0.037500 0.231000 0.022500
v -0.037500 0.240000 0.022500
v 0.015000 0.240000 -0.009000
v 0.015000 0.240000 -0.009000
v 0.015000 0.231000 -0.009000
v 0.015000 0.231000 -0.009000
v 0.015000 0.231000 0.009000
v 0.015000 0.231000 0.009000
v 0.015000 0.240000 0.009000
v 0.015000 0.240000 0.009000
v -0.007500 0.240000 0.007500
v -0.007500 0.247500 0.007500
v -0.007500 0.247500 0.007500
v -0.007500 0.247500 -0.007500
v -0.007500 0.247500 -0.007500
v -0.007500 0.240000 -0.007500
v 0.007500 0.247500 -0.007500
v 0.007500 0.247500 -0.007500
v 0.007500 0.240000 -0.007500
v 0.007500 0.247500 0.007500
v 0.007500 0.247500 0.007500
v 0.007500 0.240000 0.007500
v -0.007500 0.126000 0.015000
v -0.007500 0.231000 0.009000
v -0.007500 0.231000 -0.009000
v -0.007500 0.126000 -0.015000
v 0.007500 0.231000 -0.009000
v 0.007500 0.126000 -0.015000
v 0.007500 0.231000 0.009000
v 0.007500 0.126000 0.015000
v -0.069750 0.231000 0.007500
v -0.069750 0.217500 0.004500
v -0.069750 0.217500 -0.004500
v -0.069750 0.231000 -0.007500
v -0.065250 0.217500 -0.004500
v -0.065250 0.231000 -0.007500
v -0.065250 0.217500 0.004500
v -0.065250 0.231000 0.007500
v -0.069750 0.210000 -0.009000
v -0.069750 0.210000 -0.009000
v -0.065250 0.210000 -0.009000
v -0.065250 0.210000 -0.009000
v -0.065250 0.210000 0.009000
v -0.065250 0.210000 0.009000
v -0.069750 0.210000 0.009000
v -0.069750 0.210000 0.009000
v -0.065250 0.195000 0.000000
v -0.065250 0.195000 0.000000
v -0.069750 0.195000 0.000000
v -0.069750 0.195000 0.000000
vn -0.0000 1.0000 -0.0000
vn -0.0000 -1.0000 -0.0000
vn -0.0000 -0.0000 -1.0000
vn -0.0000 -0.7071 -0.7071
vn -1.0000 -0.0000 -0.0000
vn 1.0000 -0.0000 -0.0000
vn -0.0000 0.7071 -0.7071
vn -0.0000 -0.7071 0.7071
vn -0.0000 -0.3827 0.9239
vn -0.0000 -0.9782 -0.2076
vn -0.0000 0.0030 -1.0000
vn -0.0000 0.1974 0.9803
vn -0.0000 -0.1959 -0.9806
vn -0.0000 0.0030 1.0000
vn -0.0000 -0.9782 0.2076
vn -0.0000 0.1974 -0.9803
vn -0.0000 -0.1959 0.9806
vn -0.0000 0.5223 -0.8528
vn -0.0000 0.9436 -0.3310
vn -0.0000 0.9436 0.3310
vn -0.0000 0.5223 0.8528
vn -0.7071 -0.0000 -0.7071
vn 0.7071 -0.0000 -0.7071
vn 0.7071 -0.0000 0.7071
vn -0.0000 -0.0000 1.0000
vn -0.7071 -0.0000 0.7071
vn 0.1255 -0.0000 0.9921
vn 0.1255 -0.0000 -0.9921
vn 0.2490 -0.0000 -0.9685
vn 0.2490 -0.0000 0.9685
vn -0.0000 0.0570 0.9984
vn -0.0000 0.0570 -0.9984
vn -0.9797 -0.0435 0.1959
vn -0.9661 0.0215 0.2573
vn -0.0000 -0.2169 -0.9762
vn -0.0000 0.1602 -0.9871
vn -0.0000 -0.2169 0.9762
vn -0.0000 0.1602 0.9871
vn 0.9797 -0.0435 -0.1959
vn 0.9661 0.0215 -0.2573
vn -0.0000 -0.5145 0.8575
vn -0.0000 0.5145 -0.8575
vn 0.9864 -0.0000 -0.1644
vn -0.9950 -0.0995 -0.0000
vn -0.9994 -0.0351 -0.0000
vn -0.9998 -0.0173 -0.0000
vn 0.9994 -0.0351 -0.0000
vn 0.9998 -0.0173 -0.0000
vn -0.0000 0.5212 -0.8534
vn -0.0000 -0.2022 -0.9794
vn -0.0000 0.5212 0.8534
vn -0.0000 -0.2022 0.9794
vn -0.0000 0.9138 0.4061
vn -0.0000 0.9782 0.2076
vn -0.0000 0.7071 0.7071
vn -0.0000 -0.3827 -0.9239
vn -0.0000 -0.9138 -0.4062
vn -0.0000 -0.9138 0.4062
vn -0.0000 -0.0024 1.0000
vn -0.0000 0.9138 -0.4061
vn -0.0000 0.9782 -0.2076
vn -0.0000 -0.0024 -1.0000
vn -0.9661 0.0215 -0.2573
vn -0.9797 -0.0435 -0.1959
vn 0.9661 0.0215 0.2573
vn 0.9797 -0.0435 0.1959
vn -0.9864 -0.0000 -0.1644
vn -0.0000 -0.5145 -0.8575
vn 0.9864 -0.0000 0.1644
vn -0.0000 0.5145 0.8575
vn -0.9864 -0.0000 0.1644
vn 0.9950 -0.0995 -0.0000
vt 0.375000 0.500000
vt 0.125000 0.750000
vt 0.125000 0.500000
vt 0.625000 0.000000
vt 0.375000 0.250000
vt 0.375000 0.000000
vt 0.250000 1.000000
vt 0.250000 0.500000
vt 0.625000 0.250000
vt 0.875000 0.500000
vt 0.750000 0.500000
vt 0.625000 1.000000
vt 0.500000 1.000000
vt 1.000000 1.000000
vt 1.000000 0.500000
vt 0.500000 0.500000
vt 0.125000 1.000000
vt 0.000000 0.500000
vt 0.875000 1.000000
vt 0.750000 1.000000
vt 0.625000 0.500000
vt 0.375000 1.000000
vt 0.000000 1.000000
vt 0.612949 0.707403
vt 0.607758 0.727675
vt 0.614286 0.728927
vt 0.596007 0.725422
vt 0.596007 0.524578
vt 0.607758 0.522325
vt 0.614286 0.521073
vt 0.610276 0.521842
vt 0.607758 0.727675
vt 0.624944 0.749890
vt 0.610276 0.728158
vt 0.614286 0.552974
vt 0.614286 0.532466
vt 0.624944 0.500110
vt 0.614286 0.528071
vt 0.596007 0.524578
vt 0.614286 0.697026
vt 0.625000 0.531250
vt 0.875000 0.531250
vt 0.606771 0.250000
vt 0.875000 0.718750
vt 0.625000 0.750000
vt 0.624008 0.726562
vt 0.606771 0.750000
vt 0.375000 0.750000
vt 0.614286 0.197026
vt 0.625000 0.000000
vt 0.623016 0.234375
vt 0.389370 0.685801
vt 0.385714 0.650087
vt 0.385714 0.685100
vt 0.385714 0.588242
vt 0.391198 0.563848
vt 0.385714 0.564900
vt 0.385714 0.650087
vt 0.389827 0.687809
vt 0.381538 0.710396
vt 0.391198 0.563848
vt 0.385414 0.591217
vt 0.381538 0.539604
vt 0.385714 0.099913
vt 0.381538 0.210396
vt 0.596007 0.024578
vt 0.381538 0.039604
vt 0.615886 0.003402
vt 0.391198 0.186152
vt 0.611329 0.501701
vt 0.080294 0.419706
vt 0.080294 0.080294
vt 0.419706 0.080294
vt 0.750000 0.010000
vt 0.510000 0.250000
vt 0.750000 0.490000
vt 0.375000 0.125000
vt 0.625000 0.125000
vt 0.375000 0.625000
vt 0.625000 0.625000
vt 0.875000 0.750000
vt 0.606771 1.000000
vt 0.624944 0.249890
vt 0.614286 0.052974
vt 0.625000 0.031250
vt 0.385714 0.150087
vt 0.624944 0.000110
vt 0.391198 0.063848
vt 0.596007 0.225422
vt 0.490000 0.250000
vt 0.419706 0.419706
vt 0.250000 0.490000
vt 0.010000 0.250000
vt 0.250000 0.010000
vt 0.919706 0.419706
vt 0.990000 0.250000
vt 0.919706 0.080294
vt 0.580294 0.080294
vt 0.580294 0.419706
s 1
f 439/78/45 438/79/45 437/80/45
f 536/81/70 692/82/68 535/83/70
f 528/84/48 529/80/65 527/85/48
f 697/86/45 691/78/45 689/82/45
f 445/87/48 606/88/48 610/88/48
f 620/89/49 615/90/49 621/89/49
f 605/87/98 609/91/68 604/92/68
f 624/78/48 465/93/48 583/78/48
f 587/94/92 625/95/92 580/80/92
f 447/88/44 608/96/98 605/87/98
f 620/89/49 462/97/49 448/97/49
f 618/98/50 613/97/44 447/88/44
f 457/80/48 442/95/48 443/95/48
f 622/93/46 450/89/50 618/98/50
f 630/85/48 583/78/48 579/85/48
f 614/90/94 584/78/94 616/93/94
f 453/78/47 452/90/46 622/93/46
f 449/98/48 606/88/48 607/98/48
f 464/89/51 617/93/52 463/98/51
f 455/85/45 629/99/47 453/78/47
f 612/96/47 461/88/45 441/87/47
f 611/97/45 463/98/51 461/88/45
f 632/80/51 631/84/45 455/85/45
f 456/84/49 591/99/49 454/99/49
f 456/84/49 458/94/49 588/84/49
f 604/95/68 633/94/51 632/80/51
f 628/91/99 441/87/47 626/92/99
f 458/94/49 460/100/49 588/94/49
f 445/87/48 442/92/48 619/87/48
f 446/96/49 462/97/49 459/96/49
f 454/99/49 615/90/49 623/90/49
f 449/98/48 465/93/48 451/93/48
f 457/80/48 630/85/48 579/80/48
f 446/96/49 460/91/49 444/91/49
f 634/101/48 635/102/48 596/103/48
f 635/102/48 637/104/48 596/103/48
f 638/105/48 639/106/48 657/107/48
f 639/106/48 641/108/48 657/107/48
f 642/104/49 643/109/49 660/110/49
f 643/109/49 645/111/49 660/110/49
f 646/112/49 647/113/49 655/114/49
f 647/113/49 649/115/49 655/114/49
f 472/112/58 648/107/101 479/112/58
f 474/107/60 480/116/57 482/107/60
f 476/117/53 636/103/100 467/101/53
f 478/103/56 468/104/54 470/103/56
f 599/91/66 603/87/49 602/92/66
f 476/117/53 472/112/58 479/112/58
f 653/96/46 602/88/66 650/87/46
f 659/118/104 658/87/103 666/119/104
f 481/98/59 665/120/105 473/86/59
f 597/121/97 661/122/96 664/123/97
f 469/89/55 662/124/102 477/122/55
f 601/90/68 525/78/69 523/93/68
f 662/124/102 585/99/95 593/125/95
f 641/126/48 596/127/48 485/128/48
f 666/119/104 664/123/97 659/118/104
f 694/98/48 690/125/48 531/78/48
f 665/120/105 589/78/93 581/82/93
f 645/117/49 655/98/49 489/123/49
f 598/97/49 675/98/67 603/88/49
f 700/122/44 702/98/44 538/98/44
f 667/129/48 668/130/48 493/131/48
f 669/132/48 670/133/48 496/134/48
f 671/135/49 672/136/49 499/137/49
f 673/138/49 674/139/49 502/140/49
f 501/139/63 495/133/64 494/132/63
f 492/130/62 498/136/61 497/135/62
f 501/139/63 492/130/62 497/135/62
f 498/136/61 468/104/54 475/104/54
f 668/141/48 496/142/48 586/83/48
f 637/143/48 493/144/48 483/145/48
f 480/116/57 495/133/64 500/138/64
f 670/146/48 657/86/48 582/82/48
f 674/139/49 499/137/49 590/78/49
f 672/136/49 660/122/49 594/125/49
f 649/116/49 502/140/49 487/147/49
f 678/89/67 523/93/68 521/98/67
f 696/78/46 537/79/71 533/80/46
f 676/89/67 677/93/68 675/98/67
f 684/97/49 521/98/67 519/88/49
f 530/148/44 526/149/44 522/150/44
f 679/90/68 680/78/69 677/93/68
f 436/96/46 517/88/66 435/87/46
f 688/94/65 435/95/46 529/80/65
f 681/99/69 682/85/48 680/78/69
f 518/91/66 519/87/49 517/92/66
f 509/151/45 513/152/45 434/153/45
f 683/84/48 515/80/65 682/85/48
f 600/99/69 527/85/48 525/78/69
f 534/87/44 700/122/44 538/98/44
f 686/94/65 650/95/46 515/80/65
f 516/148/44 512/149/44 508/150/44
f 701/122/49 705/99/49 703/125/49
f 698/125/71 704/79/72 537/79/71
f 535/83/70 542/81/73 536/81/70
f 697/86/45 541/98/45 699/98/45
f 710/81/48 714/82/48 709/83/48
f 713/86/46 717/78/46 545/82/46
f 716/98/49 720/125/49 549/78/49
f 719/122/68 543/99/68 547/125/68
f 546/87/44 548/122/44 550/98/44
f 722/81/48 724/82/48 721/83/48
f 554/86/75 726/78/75 553/82/75
f 558/98/49 728/125/49 557/78/49
f 556/122/74 551/99/74 555/125/74
f 574/154/88 731/86/106 572/155/48
f 734/78/78 562/86/79 561/82/78
f 576/156/90 735/122/108 577/157/49
f 729/99/80 564/122/81 563/125/80
f 731/86/106 575/155/89 572/155/48
f 739/98/111 748/86/111 738/86/111
f 730/89/81 742/122/113 564/122/81
f 733/98/79 568/86/85 562/86/79
f 735/122/108 578/157/91 577/157/49
f 560/81/77 575/155/89 744/81/114
f 741/122/112 746/122/115 578/157/91
f 737/86/110 571/86/87 575/155/89
f 567/89/84 573/122/84 570/122/84
f 574/154/88 560/81/77 559/83/76
f 566/98/83 578/157/91 569/98/86
f 576/156/90 566/98/83 565/78/82
f 744/89/114 575/155/89 571/89/87
f 746/122/115 569/98/86 578/157/91
f 439/78/45 440/125/45 438/79/45
f 536/81/70 693/86/68 692/82/68
f 528/84/48 688/94/65 529/80/65
f 697/86/45 699/98/45 691/78/45
f 445/87/48 619/87/48 606/88/48
f 620/89/49 623/90/49 615/90/49
f 605/87/98 608/96/98 609/91/68
f 624/78/48 451/93/48 465/93/48
f 587/94/92 627/100/92 625/95/92
f 447/88/44 613/97/44 608/96/98
f 620/89/49 621/89/49 462/97/49
f 618/98/50 450/89/50 613/97/44
f 457/80/48 579/80/48 442/95/48
f 622/93/46 452/90/46 450/89/50
f 630/85/48 624/78/48 583/78/48
f 614/90/94 592/99/94 584/78/94
f 453/78/47 629/99/47 452/90/46
f 449/98/48 610/88/48 606/88/48
f 464/89/51 466/90/52 617/93/52
f 455/85/45 631/84/45 629/99/47
f 612/96/47 611/97/45 461/88/45
f 611/97/45 464/89/51 463/98/51
f 632/80/51 633/94/51 631/84/45
f 456/84/49 588/84/49 591/99/49
f 604/95/68 609/100/68 633/94/51
f 628/91/99 612/96/47 441/87/47
f 458/94/49 444/100/49 460/100/49
f 445/87/48 443/92/48 442/92/48
f 446/96/49 448/97/49 462/97/49
f 454/99/49 591/99/49 615/90/49
f 449/98/48 607/98/48 465/93/48
f 446/96/49 459/96/49 460/91/49
f 472/112/58 640/107/101 648/107/101
f 474/107/60 471/105/57 480/116/57
f 476/117/53 644/103/100 636/103/100
f 478/103/56 475/104/54 468/104/54
f 599/91/66 598/96/49 603/87/49
f 476/117/53 467/101/53 472/112/58
f 653/96/46 599/97/66 602/88/66
f 659/118/104 656/98/103 658/87/103
f 481/98/59 663/147/105 665/120/105
f 597/121/97 595/158/96 661/122/96
f 469/89/55 654/159/102 662/124/102
f 601/90/68 600/99/69 525/78/69
f 662/124/102 654/159/102 585/99/95
f 485/128/48 657/160/48 641/126/48
f 641/126/48 634/161/48 596/127/48
f 596/127/48 484/162/48 485/128/48
f 666/119/104 597/121/97 664/123/97
f 694/98/48 695/122/48 690/125/48
f 665/120/105 663/147/105 589/78/93
f 489/123/49 660/110/49 645/117/49
f 645/117/49 646/112/49 655/98/49
f 655/98/49 488/118/49 489/123/49
f 598/97/49 676/89/67 675/98/67
f 700/122/44 707/122/44 702/98/44
f 501/139/63 500/138/64 495/133/64
f 492/130/62 491/129/61 498/136/61
f 501/139/63 494/132/63 492/130/62
f 498/136/61 491/129/61 468/104/54
f 586/83/48 493/144/48 668/141/48
f 668/141/48 669/163/48 496/142/48
f 496/142/48 582/82/48 586/83/48
f 483/145/48 596/164/48 637/143/48
f 637/143/48 667/165/48 493/144/48
f 493/144/48 586/83/48 483/145/48
f 480/116/57 471/105/57 495/133/64
f 582/82/48 496/142/48 670/146/48
f 670/146/48 638/166/48 657/86/48
f 657/86/48 486/120/48 582/82/48
f 590/78/49 502/140/49 674/139/49
f 674/139/49 671/135/49 499/137/49
f 499/137/49 594/125/49 590/78/49
f 594/125/49 499/137/49 672/136/49
f 672/136/49 642/104/49 660/122/49
f 660/122/49 490/124/49 594/125/49
f 487/147/49 655/114/49 649/116/49
f 649/116/49 673/138/49 502/140/49
f 502/140/49 590/78/49 487/147/49
f 678/89/67 601/90/68 523/93/68
f 696/78/46 698/125/71 537/79/71
f 676/89/67 679/90/68 677/93/68
f 684/97/49 678/89/67 521/98/67
f 522/150/44 520/167/44 651/168/44
f 651/168/44 652/169/44 530/148/44
f 530/148/44 687/170/44 526/149/44
f 526/149/44 524/171/44 522/150/44
f 522/150/44 651/168/44 530/148/44
f 679/90/68 681/99/69 680/78/69
f 436/96/46 518/97/66 517/88/66
f 688/94/65 436/100/46 435/95/46
f 681/99/69 683/84/48 682/85/48
f 518/91/66 684/96/49 519/87/49
f 434/153/45 503/172/45 505/173/45
f 505/173/45 507/174/45 509/151/45
f 509/151/45 511/175/45 513/152/45
f 513/152/45 685/176/45 434/153/45
f 434/153/45 505/173/45 509/151/45
f 683/84/48 686/94/65 515/80/65
f 600/99/69 528/84/48 527/85/48
f 534/87/44 532/158/44 700/122/44
f 686/94/65 653/100/46 650/95/46
f 508/150/44 506/167/44 504/168/44
f 504/168/44 433/169/44 516/148/44
f 516/148/44 514/170/44 512/149/44
f 512/149/44 510/171/44 508/150/44
f 508/150/44 504/168/44 516/148/44
f 701/122/49 708/89/49 705/99/49
f 698/125/71 539/125/72 704/79/72
f 535/83/70 706/83/73 542/81/73
f 697/86/45 540/86/45 541/98/45
f 710/81/48 712/86/48 714/82/48
f 713/86/46 715/98/46 717/78/46
f 716/98/49 718/122/49 720/125/49
f 719/122/68 711/89/68 543/99/68
f 546/87/44 544/158/44 548/122/44
f 722/81/48 723/86/48 724/82/48
f 554/86/75 725/98/75 726/78/75
f 558/98/49 727/122/49 728/125/49
f 556/122/74 552/89/74 551/99/74
f 574/154/88 732/82/107 731/86/106
f 734/78/78 733/98/79 562/86/79
f 576/156/90 736/125/109 735/122/108
f 729/99/80 730/89/81 564/122/81
f 731/86/106 737/86/110 575/155/89
f 739/98/111 745/98/111 748/86/111
f 730/89/81 743/89/113 742/122/113
f 733/98/79 740/98/85 568/86/85
f 735/122/108 741/122/112 578/157/91
f 560/81/77 572/155/48 575/155/89
f 567/89/84 747/89/84 573/122/84
f 574/154/88 572/155/48 560/81/77
f 566/98/83 577/157/49 578/157/91
f 576/156/90 577/157/49 566/98/83
