# Blender 5.1.0
# www.blender.org
mtllib BrakeStand.mtl
g BrakeStand_Mesh
v 0.000000 0.090000 -0.090000
v 0.000000 0.080000 -0.090000
v 0.000000 -0.080000 -0.080000
v 0.000000 0.080000 -0.080000
v 0.030615 -0.080000 -0.073910
v 0.030615 0.080000 -0.073910
v 0.056569 -0.080000 -0.056569
v 0.056569 0.080000 -0.056569
v 0.073910 -0.080000 -0.030615
v 0.073910 0.080000 -0.030615
v 0.080000 -0.080000 0.000000
v 0.080000 0.080000 0.000000
v 0.073910 -0.080000 0.030615
v 0.073910 0.080000 0.030615
v 0.056569 -0.080000 0.056569
v 0.056569 0.080000 0.056569
v 0.030615 -0.080000 0.073910
v 0.030615 0.080000 0.073910
v 0.000000 -0.080000 0.080000
v 0.000000 0.080000 0.080000
v -0.030615 -0.080000 0.073910
v -0.030615 0.080000 0.073910
v -0.056569 -0.080000 0.056569
v -0.056569 0.080000 0.056569
v -0.073910 -0.080000 0.030615
v -0.073910 0.080000 0.030615
v -0.080000 -0.080000 0.000000
v -0.080000 0.080000 0.000000
v -0.073910 -0.080000 -0.030615
v -0.073910 0.080000 -0.030615
v -0.056569 -0.080000 -0.056569
v -0.056569 0.080000 -0.056569
v -0.030615 -0.080000 -0.073910
v -0.030615 0.080000 -0.073910
v 0.034442 0.080000 -0.083149
v 0.034442 0.090000 -0.083149
v 0.063640 0.080000 -0.063640
v 0.063640 0.090000 -0.063640
v 0.083149 0.080000 -0.034441
v 0.083149 0.090000 -0.034441
v 0.090000 0.080000 0.000000
v 0.090000 0.090000 0.000000
v 0.083149 0.080000 0.034441
v 0.083149 0.090000 0.034441
v 0.063640 0.080000 0.063640
v 0.063640 0.090000 0.063640
v 0.034442 0.080000 0.083149
v 0.034442 0.090000 0.083149
v 0.000000 0.080000 0.090000
v 0.000000 0.090000 0.090000
v -0.034442 0.080000 0.083149
v -0.034442 0.090000 0.083149
v -0.063640 0.080000 0.063640
v -0.063640 0.090000 0.063640
v -0.083149 0.080000 0.034441
v -0.083149 0.090000 0.034441
v -0.090000 0.080000 0.000000
v -0.090000 0.090000 0.000000
v -0.083149 0.080000 -0.034441
v -0.083149 0.090000 -0.034441
v -0.063640 0.080000 -0.063640
v -0.063640 0.090000 -0.063640
v -0.034442 0.080000 -0.083149
v -0.034442 0.090000 -0.083149
v 0.000000 -0.080000 -0.090000
v 0.000000 -0.090000 -0.090000
v 0.034442 -0.090000 -0.083149
v 0.034442 -0.080000 -0.083149
v 0.063640 -0.090000 -0.063640
v 0.063640 -0.080000 -0.063640
v 0.083149 -0.090000 -0.034441
v 0.083149 -0.080000 -0.034441
v 0.090000 -0.090000 0.000000
v 0.090000 -0.080000 0.000000
v 0.083149 -0.090000 0.034441
v 0.083149 -0.080000 0.034441
v 0.063640 -0.090000 0.063640
v 0.063640 -0.080000 0.063640
v 0.034442 -0.090000 0.083149
v 0.034442 -0.080000 0.083149
v 0.000000 -0.090000 0.090000
v 0.000000 -0.080000 0.090000
v -0.034442 -0.090000 0.083149
v -0.034442 -0.080000 0.083149
v -0.063640 -0.090000 0.063640
v -0.063640 -0.080000 0.063640
v -0.083149 -0.090000 0.034441
v -0.083149 -0.080000 0.034441
v -0.090000 -0.090000 0.000000
v -0.090000 -0.080000 0.000000
v -0.083149 -0.090000 -0.034441
v -0.083149 -0.080000 -0.034441
v -0.063640 -0.090000 -0.063640
v -0.063640 -0.080000 -0.063640
v -0.034442 -0.090000 -0.083149
v -0.034442 -0.080000 -0.083149
v 0.000000 0.090000 -0.040000
v 0.000000 0.130000 -0.040000
v 0.015307 0.090000 -0.036955
v 0.015307 0.130000 -0.036955
v 0.028284 0.090000 -0.028284
v 0.028284 0.130000 -0.028284
v 0.036955 0.090000 -0.015307
v 0.036955 0.130000 -0.015307
v 0.040000 0.090000 0.000000
v 0.040000 0.130000 0.000000
v 0.036955 0.090000 0.015307
v 0.036955 0.130000 0.015307
v 0.028284 0.090000 0.028284
v 0.028284 0.130000 0.028284
v 0.015307 0.090000 0.036955
v 0.015307 0.130000 0.036955
v 0.000000 0.090000 0.040000
v 0.000000 0.130000 0.040000
v -0.015307 0.090000 0.036955
v -0.015307 0.130000 0.036955
v -0.028284 0.090000 0.028284
v -0.028284 0.130000 0.028284
v -0.036955 0.090000 0.015307
v -0.036955 0.130000 0.015307
v -0.040000 0.090000 0.000000
v -0.040000 0.130000 0.000000
v -0.036955 0.090000 -0.015307
v -0.036955 0.130000 -0.015307
v -0.028284 0.090000 -0.028284
v -0.028284 0.130000 -0.028284
v -0.015307 0.090000 -0.036955
v -0.015307 0.130000 -0.036955
v 0.010000 0.090000 0.080000
v 0.010000 0.100000 0.070000
v -0.010000 0.090000 0.080000
v -0.010000 0.100000 0.070000
v 0.010000 0.090000 -0.080000
v 0.010000 0.100000 -0.070000
v -0.010000 0.090000 -0.080000
v -0.010000 0.100000 -0.070000
v 0.070000 0.100000 -0.010000
v 0.080000 0.090000 -0.010000
v 0.070000 0.100000 0.010000
v 0.080000 0.090000 0.010000
v -0.070000 0.100000 -0.010000
v -0.080000 0.090000 -0.010000
v -0.070000 0.100000 0.010000
v -0.080000 0.090000 0.010000
v -0.022961 -0.090000 -0.055433
v -0.022961 -0.150000 -0.055433
v -0.042426 -0.090000 -0.042426
v -0.042426 -0.150000 -0.042426
v -0.055433 -0.090000 -0.022961
v -0.055433 -0.150000 -0.022961
v -0.060000 -0.090000 0.000000
v -0.060000 -0.150000 0.000000
v -0.055433 -0.090000 0.022961
v -0.055433 -0.150000 0.022961
v -0.042426 -0.090000 0.042426
v -0.042426 -0.150000 0.042426
v -0.022961 -0.090000 0.055433
v -0.022961 -0.150000 0.055433
v 0.000000 -0.090000 0.060000
v 0.000000 -0.150000 0.060000
v 0.022961 -0.090000 0.055433
v 0.022961 -0.150000 0.055433
v 0.042426 -0.090000 0.042426
v 0.042426 -0.150000 0.042426
v 0.055433 -0.090000 0.022961
v 0.055433 -0.150000 0.022961
v 0.060000 -0.090000 0.000000
v 0.060000 -0.150000 0.000000
v 0.055433 -0.090000 -0.022961
v 0.055433 -0.150000 -0.022961
v 0.042426 -0.090000 -0.042426
v 0.042426 -0.150000 -0.042426
v 0.022961 -0.090000 -0.055433
v 0.022961 -0.150000 -0.055433
v 0.000000 -0.090000 -0.060000
v 0.000000 -0.150000 -0.060000
v -0.007071 0.130000 0.007071
v -0.007071 0.160000 0.007071
v -0.010000 0.130000 0.000000
v -0.010000 0.160000 0.000000
v -0.007071 0.130000 -0.007071
v -0.007071 0.160000 -0.007071
v 0.000000 0.130000 -0.010000
v 0.000000 0.160000 -0.010000
v 0.007071 0.130000 -0.007071
v 0.007071 0.160000 -0.007071
v 0.010000 0.130000 0.000000
v 0.010000 0.160000 0.000000
v 0.007071 0.130000 0.007071
v 0.007071 0.160000 0.007071
v 0.000000 0.130000 0.010000
v 0.000000 0.160000 0.010000
v -0.063640 0.080000 0.063640
v -0.083149 0.080000 0.034441
v 0.083149 0.090000 0.034441
v 0.090000 0.090000 0.000000
v -0.063640 0.090000 0.063640
v -0.034442 0.090000 0.083149
v 0.090000 0.080000 0.000000
v 0.083149 0.080000 0.034441
v -0.034442 0.080000 0.083149
v 0.083149 0.090000 -0.034441
v 0.000000 0.090000 0.090000
v 0.083149 0.080000 -0.034441
v 0.000000 0.080000 0.090000
v 0.063640 0.090000 -0.063640
v 0.034442 0.090000 0.083149
v 0.063640 0.080000 -0.063640
v 0.034442 0.080000 0.083149
v 0.034442 0.090000 -0.083149
v 0.063640 0.090000 0.063640
v 0.034442 0.080000 -0.083149
v 0.063640 0.080000 0.063640
v 0.000000 0.090000 -0.090000
v 0.000000 0.080000 -0.090000
v -0.083149 0.090000 0.034441
v -0.090000 0.080000 0.000000
v -0.090000 0.090000 0.000000
v -0.083149 0.080000 -0.034441
v -0.083149 0.090000 -0.034441
v -0.063640 0.080000 -0.063640
v -0.063640 0.090000 -0.063640
v -0.034442 0.080000 -0.083149
v -0.034442 0.090000 -0.083149
v -0.063640 -0.090000 0.063640
v -0.083149 -0.090000 0.034441
v 0.083149 -0.080000 0.034441
v 0.090000 -0.080000 0.000000
v -0.063640 -0.080000 0.063640
v -0.034442 -0.080000 0.083149
v 0.090000 -0.090000 0.000000
v 0.083149 -0.090000 0.034441
v -0.034442 -0.090000 0.083149
v 0.083149 -0.080000 -0.034441
v 0.000000 -0.080000 0.090000
v 0.083149 -0.090000 -0.034441
v 0.000000 -0.090000 0.090000
v 0.063640 -0.080000 -0.063640
v 0.034442 -0.080000 0.083149
v 0.063640 -0.090000 -0.063640
v 0.034442 -0.090000 0.083149
v 0.034442 -0.080000 -0.083149
v 0.063640 -0.080000 0.063640
v 0.034442 -0.090000 -0.083149
v 0.063640 -0.090000 0.063640
v 0.000000 -0.080000 -0.090000
v 0.000000 -0.090000 -0.090000
v -0.083149 -0.080000 0.034441
v -0.090000 -0.090000 0.000000
v -0.090000 -0.080000 0.000000
v -0.083149 -0.090000 -0.034441
v -0.083149 -0.080000 -0.034441
v -0.063640 -0.090000 -0.063640
v -0.063640 -0.080000 -0.063640
v -0.034442 -0.090000 -0.083149
v -0.034442 -0.080000 -0.083149
v 0.015307 0.130000 -0.036955
v 0.000000 0.130000 -0.040000
v 0.028284 0.130000 -0.028284
v 0.036955 0.130000 -0.015307
v 0.040000 0.130000 0.000000
v 0.036955 0.130000 0.015307
v 0.028284 0.130000 0.028284
v 0.015307 0.130000 0.036955
v 0.000000 0.130000 0.040000
v -0.015307 0.130000 0.036955
v -0.028284 0.130000 0.028284
v -0.036955 0.130000 0.015307
v -0.040000 0.130000 0.000000
v -0.036955 0.130000 -0.015307
v -0.028284 0.130000 -0.028284
v -0.015307 0.130000 -0.036955
v 0.010000 0.090000 0.080000
v 0.010000 0.100000 0.070000
v -0.010000 0.100000 0.070000
v -0.010000 0.090000 0.080000
v -0.010000 0.100000 -0.070000
v -0.010000 0.090000 -0.080000
v 0.010000 0.100000 -0.070000
v 0.010000 0.090000 -0.080000
v 0.070000 0.100000 0.010000
v -0.070000 0.100000 0.010000
v 0.080000 0.090000 0.010000
v 0.070000 0.100000 -0.010000
v 0.080000 0.090000 -0.010000
v -0.070000 0.100000 -0.010000
v -0.080000 0.090000 -0.010000
v -0.080000 0.090000 0.010000
v -0.022961 -0.150000 -0.055433
v 0.000000 -0.150000 -0.060000
v -0.042426 -0.150000 -0.042426
v -0.055433 -0.150000 -0.022961
v -0.060000 -0.150000 0.000000
v -0.055433 -0.150000 0.022961
v -0.042426 -0.150000 0.042426
v -0.022961 -0.150000 0.055433
v 0.000000 -0.150000 0.060000
v 0.022961 -0.150000 0.055433
v 0.042426 -0.150000 0.042426
v 0.055433 -0.150000 0.022961
v 0.060000 -0.150000 0.000000
v 0.055433 -0.150000 -0.022961
v 0.042426 -0.150000 -0.042426
v 0.022961 -0.150000 -0.055433
v -0.007071 0.160000 0.007071
v 0.000000 0.160000 0.010000
v -0.010000 0.160000 0.000000
v -0.007071 0.160000 -0.007071
v 0.000000 0.160000 -0.010000
v 0.007071 0.160000 -0.007071
v 0.010000 0.160000 0.000000
v 0.007071 0.160000 0.007071
vn -0.0000 1.0000 -0.0000
vn -0.0000 -0.0000 -1.0000
vn 0.3827 -0.0000 -0.9239
vn -0.9239 -0.0000 -0.3827
vn -0.7071 -0.0000 -0.7071
vn 0.7071 -0.0000 -0.7071
vn -1.0000 -0.0000 -0.0000
vn 0.9239 -0.0000 -0.3827
vn -0.9239 -0.0000 0.3827
vn 1.0000 -0.0000 -0.0000
vn -0.7071 -0.0000 0.7071
vn 0.9239 -0.0000 0.3827
vn -0.3827 -0.0000 0.9239
vn 0.7071 -0.0000 0.7071
vn -0.0000 -0.0000 1.0000
vn 0.3827 -0.0000 0.9239
vn -0.0000 -1.0000 -0.0000
vn -0.3827 -0.0000 -0.9239
vn -0.3827 0.9239 -0.0000
vn 0.3827 0.9239 -0.0000
vn -0.0000 0.9239 0.3827
vn -0.0000 0.9239 -0.3827
vn 0.7071 0.7071 -0.0000
vn -0.7071 0.7071 -0.0000
vn -0.0000 0.7071 0.7071
vn -0.0000 0.7071 -0.7071
vt 0.080294 0.080294
vt 0.419706 0.080294
vt 0.419706 0.419706
vt 1.000000 1.000000
vt 0.937500 0.500000
vt 1.000000 0.500000
vt 0.187500 1.000000
vt 0.125000 0.500000
vt 0.187500 0.500000
vt 0.937500 1.000000
vt 0.875000 0.500000
vt 0.250000 1.000000
vt 0.250000 0.500000
vt 0.875000 1.000000
vt 0.812500 0.500000
vt 0.312500 1.000000
vt 0.312500 0.500000
vt 0.812500 1.000000
vt 0.750000 0.500000
vt 0.375000 1.000000
vt 0.375000 0.500000
vt 0.750000 1.000000
vt 0.687500 0.500000
vt 0.437500 1.000000
vt 0.437500 0.500000
vt 0.687500 1.000000
vt 0.625000 0.500000
vt 0.500000 1.000000
vt 0.500000 0.500000
vt 0.625000 1.000000
vt 0.562500 0.500000
vt 0.562500 1.000000
vt 0.841844 0.028269
vt 0.528269 0.158156
vt 0.658156 0.471731
vt 0.062500 1.000000
vt 0.000000 0.500000
vt 0.062500 0.500000
vt 0.125000 1.000000
vt 0.625000 0.000000
vt 0.375000 0.250000
vt 0.375000 0.000000
vt 0.375000 0.750000
vt 0.625000 0.750000
vt 0.125000 0.750000
vt 0.919706 0.080294
vt 0.580294 0.080294
vt 0.580294 0.419706
vt 0.341844 0.471731
vt 0.250000 0.490000
vt 0.158156 0.471731
vt 0.080294 0.419706
vt 0.028269 0.341844
vt 0.010000 0.250000
vt 0.028269 0.158156
vt 0.158156 0.028269
vt 0.250000 0.010000
vt 0.341844 0.028269
vt 0.471731 0.158156
vt 0.490000 0.250000
vt 0.471731 0.341844
vt 0.750000 0.490000
vt 0.841844 0.471731
vt 0.919706 0.419706
vt 0.971731 0.341844
vt 0.990000 0.250000
vt 0.971731 0.158156
vt 0.750000 0.010000
vt 0.658156 0.028269
vt 0.510000 0.250000
vt 0.528269 0.341844
vt 0.000000 1.000000
vt 0.625000 0.250000
vt 0.875000 0.750000
s 1
f 54/1/1 211/2/1 206/3/1
f 4/4/2 5/5/3 3/6/2
f 60/7/4 221/8/5 219/9/4
f 6/10/3 7/11/6 5/5/3
f 58/12/7 219/9/4 217/13/7
f 8/14/6 9/15/8 7/11/6
f 56/16/9 217/13/7 194/17/9
f 10/18/8 11/19/10 9/15/8
f 197/20/11 194/17/9 193/21/11
f 12/22/10 13/23/12 11/19/10
f 52/24/13 193/21/11 201/25/13
f 14/26/12 15/27/14 13/23/12
f 50/28/15 201/25/13 205/29/15
f 16/30/14 17/31/16 15/27/14
f 48/32/16 205/29/15 209/31/16
f 18/32/16 19/29/15 17/31/16
f 46/30/14 209/31/16 213/27/14
f 20/28/15 21/25/13 19/29/15
f 195/26/12 213/27/14 200/23/12
f 22/24/13 23/21/11 21/25/13
f 42/22/10 200/23/12 199/19/10
f 24/20/11 25/17/9 23/21/11
f 40/18/8 199/19/10 204/15/8
f 26/16/9 27/13/7 25/17/9
f 47/33/17 55/34/17 223/35/17
f 38/14/6 204/15/8 37/11/6
f 28/12/7 29/9/4 27/13/7
f 64/36/18 215/37/2 63/38/18
f 36/10/3 37/11/6 35/5/3
f 30/7/4 31/8/5 29/9/4
f 257/10/3 101/11/6 99/5/3
f 214/4/2 35/5/3 215/6/2
f 32/39/5 33/38/18 31/8/5
f 62/39/5 63/38/18 221/8/5
f 34/36/18 3/37/2 33/38/18
f 258/4/2 99/5/3 97/6/2
f 86/1/1 243/2/1 238/3/1
f 92/7/4 253/8/5 251/9/4
f 90/12/7 251/9/4 249/13/7
f 88/16/9 249/13/7 226/17/9
f 229/20/11 226/17/9 225/21/11
f 84/24/13 225/21/11 233/25/13
f 82/28/15 233/25/13 237/29/15
f 80/32/16 237/29/15 241/31/16
f 78/30/14 241/31/16 245/27/14
f 227/26/12 245/27/14 232/23/12
f 74/22/10 232/23/12 231/19/10
f 72/18/8 231/19/10 236/15/8
f 79/33/17 87/34/17 255/35/17
f 70/14/6 236/15/8 69/11/6
f 96/36/18 247/37/2 95/38/18
f 68/10/3 69/11/6 67/5/3
f 246/4/2 67/5/3 247/6/2
f 94/39/5 95/38/18 253/8/5
f 259/14/6 103/15/8 101/11/6
f 260/18/8 105/19/10 103/15/8
f 261/22/10 107/23/12 105/19/10
f 262/26/12 109/27/14 107/23/12
f 263/30/14 111/31/16 109/27/14
f 264/32/16 113/29/15 111/31/16
f 265/28/15 115/25/13 113/29/15
f 266/24/13 117/21/11 115/25/13
f 267/20/11 119/17/9 117/21/11
f 268/16/9 121/13/7 119/17/9
f 269/12/7 123/9/4 121/13/7
f 270/7/4 125/8/5 123/9/4
f 271/39/5 127/38/18 125/8/5
f 272/36/18 97/37/2 127/38/18
f 118/20/1 110/30/1 102/14/1
f 299/27/17 295/21/17 291/8/17
f 145/36/18 176/37/2 146/38/18
f 286/40/19 281/41/20 284/42/20
f 275/40/21 279/41/22 277/42/22
f 139/27/15 288/43/15 283/21/15
f 284/44/20 140/20/23 285/43/23
f 141/21/2 138/45/2 287/8/2
f 282/11/19 142/44/24 144/27/24
f 274/11/21 276/44/25 273/27/25
f 132/21/7 278/45/7 131/8/7
f 277/44/22 280/20/26 135/43/26
f 134/27/10 129/43/10 133/21/10
f 147/39/5 146/38/18 148/8/5
f 149/7/4 148/8/5 150/9/4
f 151/12/7 150/9/4 152/13/7
f 153/16/9 152/13/7 154/17/9
f 155/20/11 154/17/9 156/21/11
f 157/24/13 156/21/11 158/25/13
f 159/28/15 158/25/13 160/29/15
f 161/32/16 160/29/15 162/31/16
f 163/30/14 162/31/16 164/27/14
f 165/26/12 164/27/14 166/23/12
f 167/22/10 166/23/12 168/19/10
f 169/18/8 168/19/10 170/15/8
f 171/14/6 170/15/8 172/11/6
f 173/10/3 172/11/6 174/5/3
f 175/4/2 174/5/3 176/6/2
f 310/46/1 308/47/1 305/48/1
f 177/39/11 192/37/15 178/8/11
f 179/12/7 178/8/11 180/13/7
f 181/20/5 180/13/7 182/21/5
f 183/28/2 182/21/5 184/29/2
f 185/30/6 184/29/2 186/27/6
f 187/22/10 186/27/6 188/19/10
f 189/14/14 188/19/10 190/11/14
f 191/4/15 190/11/14 192/6/15
f 206/3/1 210/49/1 1/50/1
f 1/50/1 224/51/1 222/52/1
f 222/52/1 220/53/1 218/54/1
f 218/54/1 216/55/1 54/1/1
f 54/1/1 198/56/1 203/57/1
f 203/57/1 207/58/1 211/2/1
f 211/2/1 44/59/1 196/60/1
f 196/60/1 202/61/1 206/3/1
f 206/3/1 1/50/1 222/52/1
f 222/52/1 218/54/1 54/1/1
f 54/1/1 203/57/1 211/2/1
f 211/2/1 196/60/1 206/3/1
f 206/3/1 222/52/1 54/1/1
f 4/4/2 6/10/3 5/5/3
f 60/7/4 62/39/5 221/8/5
f 6/10/3 8/14/6 7/11/6
f 58/12/7 60/7/4 219/9/4
f 8/14/6 10/18/8 9/15/8
f 56/16/9 58/12/7 217/13/7
f 10/18/8 12/22/10 11/19/10
f 197/20/11 56/16/9 194/17/9
f 12/22/10 14/26/12 13/23/12
f 52/24/13 197/20/11 193/21/11
f 14/26/12 16/30/14 15/27/14
f 50/28/15 52/24/13 201/25/13
f 16/30/14 18/32/16 17/31/16
f 48/32/16 50/28/15 205/29/15
f 18/32/16 20/28/15 19/29/15
f 46/30/14 48/32/16 209/31/16
f 20/28/15 22/24/13 21/25/13
f 195/26/12 46/30/14 213/27/14
f 22/24/13 24/20/11 23/21/11
f 42/22/10 195/26/12 200/23/12
f 24/20/11 26/16/9 25/17/9
f 40/18/8 42/22/10 199/19/10
f 26/16/9 28/12/7 27/13/7
f 223/35/17 2/62/17 212/63/17
f 212/63/17 208/64/17 39/65/17
f 39/65/17 41/66/17 43/67/17
f 43/67/17 45/46/17 47/33/17
f 47/33/17 49/68/17 51/69/17
f 51/69/17 53/47/17 55/34/17
f 55/34/17 57/70/17 59/71/17
f 59/71/17 61/48/17 223/35/17
f 223/35/17 212/63/17 39/65/17
f 39/65/17 43/67/17 47/33/17
f 47/33/17 51/69/17 55/34/17
f 55/34/17 59/71/17 223/35/17
f 223/35/17 39/65/17 47/33/17
f 38/14/6 40/18/8 204/15/8
f 28/12/7 30/7/4 29/9/4
f 64/36/18 214/72/2 215/37/2
f 36/10/3 38/14/6 37/11/6
f 30/7/4 32/39/5 31/8/5
f 257/10/3 259/14/6 101/11/6
f 214/4/2 36/10/3 35/5/3
f 32/39/5 34/36/18 33/38/18
f 62/39/5 64/36/18 63/38/18
f 34/36/18 4/72/2 3/37/2
f 258/4/2 257/10/3 99/5/3
f 238/3/1 242/49/1 65/50/1
f 65/50/1 256/51/1 254/52/1
f 254/52/1 252/53/1 250/54/1
f 250/54/1 248/55/1 86/1/1
f 86/1/1 230/56/1 235/57/1
f 235/57/1 239/58/1 243/2/1
f 243/2/1 76/59/1 228/60/1
f 228/60/1 234/61/1 238/3/1
f 238/3/1 65/50/1 254/52/1
f 254/52/1 250/54/1 86/1/1
f 86/1/1 235/57/1 243/2/1
f 243/2/1 228/60/1 238/3/1
f 238/3/1 254/52/1 86/1/1
f 92/7/4 94/39/5 253/8/5
f 90/12/7 92/7/4 251/9/4
f 88/16/9 90/12/7 249/13/7
f 229/20/11 88/16/9 226/17/9
f 84/24/13 229/20/11 225/21/11
f 82/28/15 84/24/13 233/25/13
f 80/32/16 82/28/15 237/29/15
f 78/30/14 80/32/16 241/31/16
f 227/26/12 78/30/14 245/27/14
f 74/22/10 227/26/12 232/23/12
f 72/18/8 74/22/10 231/19/10
f 255/35/17 66/62/17 244/63/17
f 244/63/17 240/64/17 71/65/17
f 71/65/17 73/66/17 75/67/17
f 75/67/17 77/46/17 79/33/17
f 79/33/17 81/68/17 83/69/17
f 83/69/17 85/47/17 87/34/17
f 87/34/17 89/70/17 91/71/17
f 91/71/17 93/48/17 255/35/17
f 255/35/17 244/63/17 71/65/17
f 71/65/17 75/67/17 79/33/17
f 79/33/17 83/69/17 87/34/17
f 87/34/17 91/71/17 255/35/17
f 255/35/17 71/65/17 79/33/17
f 70/14/6 72/18/8 236/15/8
f 96/36/18 246/72/2 247/37/2
f 68/10/3 70/14/6 69/11/6
f 246/4/2 68/10/3 67/5/3
f 94/39/5 96/36/18 95/38/18
f 259/14/6 260/18/8 103/15/8
f 260/18/8 261/22/10 105/19/10
f 261/22/10 262/26/12 107/23/12
f 262/26/12 263/30/14 109/27/14
f 263/30/14 264/32/16 111/31/16
f 264/32/16 265/28/15 113/29/15
f 265/28/15 266/24/13 115/25/13
f 266/24/13 267/20/11 117/21/11
f 267/20/11 268/16/9 119/17/9
f 268/16/9 269/12/7 121/13/7
f 269/12/7 270/7/4 123/9/4
f 270/7/4 271/39/5 125/8/5
f 271/39/5 272/36/18 127/38/18
f 272/36/18 258/72/2 97/37/2
f 102/14/1 100/10/1 98/72/1
f 98/72/1 128/36/1 126/39/1
f 126/39/1 124/7/1 122/12/1
f 122/12/1 120/16/1 118/20/1
f 118/20/1 116/24/1 114/28/1
f 114/28/1 112/32/1 110/30/1
f 110/30/1 108/26/1 106/22/1
f 106/22/1 104/18/1 102/14/1
f 102/14/1 98/72/1 126/39/1
f 126/39/1 122/12/1 118/20/1
f 118/20/1 114/28/1 110/30/1
f 110/30/1 106/22/1 102/14/1
f 102/14/1 126/39/1 118/20/1
f 291/8/17 289/38/17 290/6/17
f 290/6/17 304/5/17 303/11/17
f 303/11/17 302/15/17 301/19/17
f 301/19/17 300/23/17 299/27/17
f 299/27/17 298/31/17 297/29/17
f 297/29/17 296/25/17 295/21/17
f 295/21/17 294/17/17 293/13/17
f 293/13/17 292/9/17 291/8/17
f 291/8/17 290/6/17 303/11/17
f 303/11/17 301/19/17 299/27/17
f 299/27/17 297/29/17 295/21/17
f 295/21/17 293/13/17 291/8/17
f 291/8/17 303/11/17 299/27/17
f 145/36/18 175/72/2 176/37/2
f 286/40/19 282/73/19 281/41/20
f 275/40/21 274/73/21 279/41/22
f 139/27/15 143/44/15 288/43/15
f 284/44/20 281/30/20 140/20/23
f 141/21/2 137/43/2 138/45/2
f 282/11/19 286/74/19 142/44/24
f 274/11/21 275/74/21 276/44/25
f 132/21/7 136/43/7 278/45/7
f 277/44/22 279/30/22 280/20/26
f 134/27/10 130/44/10 129/43/10
f 147/39/5 145/36/18 146/38/18
f 149/7/4 147/39/5 148/8/5
f 151/12/7 149/7/4 150/9/4
f 153/16/9 151/12/7 152/13/7
f 155/20/11 153/16/9 154/17/9
f 157/24/13 155/20/11 156/21/11
f 159/28/15 157/24/13 158/25/13
f 161/32/16 159/28/15 160/29/15
f 163/30/14 161/32/16 162/31/16
f 165/26/12 163/30/14 164/27/14
f 167/22/10 165/26/12 166/23/12
f 169/18/8 167/22/10 168/19/10
f 171/14/6 169/18/8 170/15/8
f 173/10/3 171/14/6 172/11/6
f 175/4/2 173/10/3 174/5/3
f 305/48/1 306/62/1 312/64/1
f 312/64/1 311/66/1 310/46/1
f 310/46/1 309/68/1 308/47/1
f 308/47/1 307/70/1 305/48/1
f 305/48/1 312/64/1 310/46/1
f 177/39/11 191/72/15 192/37/15
f 179/12/7 177/39/11 178/8/11
f 181/20/5 179/12/7 180/13/7
f 183/28/2 181/20/5 182/21/5
f 185/30/6 183/28/2 184/29/2
f 187/22/10 185/30/6 186/27/6
f 189/14/14 187/22/10 188/19/10
f 191/4/15 189/14/14 190/11/14
