# Blender 4.4.3
# www.blender.org
mtllib WaterTowerSpout.mtl
g WaterSpout_WaterSpout
v 0.250000 0.000000 -0.197981
v 0.348990 0.000000 -0.171456
v 0.421456 0.000000 -0.098990
v 0.447981 0.000000 -0.000000
v 0.421456 0.000000 0.098990
v 0.348990 0.000000 0.171456
v 0.250000 0.000000 0.197981
v 0.151010 0.000000 0.171456
v 0.078544 0.000000 0.098990
v 0.052019 0.000000 0.000000
v 0.078544 0.000000 -0.098990
v 0.151010 0.000000 -0.171456
v 0.335000 3.100000 -0.147224
v 0.250000 3.100000 -0.170000
v 0.397224 3.100000 -0.085000
v 0.420000 3.100000 -0.000000
v 0.397224 3.100000 0.085000
v 0.335000 3.100000 0.147224
v 0.250000 3.100000 0.170000
v 0.165000 3.100000 0.147224
v 0.102776 3.100000 0.085000
v 0.080000 3.100000 -0.000000
v 0.102776 3.100000 -0.085000
v 0.165000 3.100000 -0.147224
v 0.347560 3.163143 -0.147224
v 0.269030 3.195671 -0.170000
v 0.405048 3.139331 -0.085000
v 0.426090 3.130615 -0.000000
v 0.405048 3.139331 0.085000
v 0.347560 3.163143 0.147224
v 0.269030 3.195671 0.170000
v 0.190500 3.228199 0.147224
v 0.133013 3.252011 0.085000
v 0.111971 3.260727 -0.000000
v 0.133013 3.252011 -0.085000
v 0.190500 3.228199 -0.147224
v 0.383327 3.216673 -0.147224
v 0.323223 3.276777 -0.170000
v 0.427327 3.172673 -0.085000
v 0.443431 3.156569 -0.000000
v 0.427327 3.172673 0.085000
v 0.383327 3.216673 0.147224
v 0.323223 3.276777 0.170000
v 0.263119 3.336881 0.147224
v 0.219120 3.380880 0.085000
v 0.203015 3.396985 -0.000000
v 0.219120 3.380880 -0.085000
v 0.263119 3.336881 -0.147224
v 0.436857 3.252440 -0.147224
v 0.404329 3.330970 -0.170000
v 0.460670 3.194952 -0.085000
v 0.469385 3.173910 -0.000000
v 0.460670 3.194952 0.085000
v 0.436857 3.252440 0.147224
v 0.404329 3.330970 0.170000
v 0.371801 3.409499 0.147224
v 0.347989 3.466987 0.085000
v 0.339273 3.488029 -0.000000
v 0.347989 3.466987 -0.085000
v 0.371801 3.409499 -0.147224
v 0.500000 3.270176 -0.138259
v 0.500000 3.350000 -0.159647
v 0.500000 3.211741 -0.079824
v 0.500000 3.190353 -0.000000
v 0.500000 3.211741 0.079824
v 0.500000 3.270176 0.138258
v 0.500000 3.350000 0.159647
v 0.500000 3.429823 0.138258
v 0.500000 3.488258 0.079824
v 0.500000 3.509647 -0.000000
v 0.500000 3.488258 -0.079824
v 0.500000 3.429823 -0.138259
v 0.500000 3.265000 -0.147224
v 0.500000 3.350000 -0.170000
v 0.500000 3.202776 -0.085000
v 0.500000 3.180000 -0.000000
v 0.500000 3.202776 0.085000
v 0.500000 3.265000 0.147224
v 0.500000 3.350000 0.170000
v 0.500000 3.435000 0.147224
v 0.500000 3.497224 0.085000
v 0.500000 3.520000 -0.000000
v 0.500000 3.497224 -0.085000
v 0.500000 3.435000 -0.147224
v 0.250000 3.180176 -0.138259
v 0.250000 3.260000 -0.159647
v 0.250000 3.121742 -0.079824
v 0.250000 3.100353 -0.000000
v 0.250000 3.121742 0.079824
v 0.250000 3.180176 0.138258
v 0.250000 3.260000 0.159647
v 0.250000 3.339823 0.138258
v 0.250000 3.398258 0.079824
v 0.250000 3.419647 -0.000000
v 0.250000 3.398258 -0.079824
v 0.250000 3.339823 -0.138259
v 0.250000 0.300000 -0.197981
v 0.348990 0.300000 -0.171456
v 0.421456 0.300000 -0.098990
v 0.447981 0.300000 -0.000000
v 0.421456 0.300000 0.098990
v 0.348990 0.300000 0.171456
v 0.250000 0.300000 0.197981
v 0.151010 0.300000 0.171456
v 0.078544 0.300000 0.098990
v 0.052019 0.300000 0.000000
v 0.078544 0.300000 -0.098990
v 0.151010 0.300000 -0.171456
v 0.250000 0.000000 -0.197981
v 0.250000 0.009803 -0.210376
v 0.355188 0.009803 -0.182191
v 0.348990 0.000000 -0.171456
v 0.432191 0.009803 -0.105188
v 0.421456 0.000000 -0.098990
v 0.460376 0.009804 -0.000000
v 0.447981 0.000000 -0.000000
v 0.432191 0.009803 0.105188
v 0.421456 0.000000 0.098990
v 0.355188 0.009803 0.182191
v 0.348990 0.000000 0.171456
v 0.250000 0.009803 0.210376
v 0.250000 0.000000 0.197981
v 0.144812 0.009803 0.182191
v 0.151010 0.000000 0.171456
v 0.067809 0.009803 0.105188
v 0.078544 0.000000 0.098990
v 0.039624 0.009803 0.000000
v 0.052019 0.000000 0.000000
v 0.067809 0.009803 -0.105188
v 0.078544 0.000000 -0.098990
v 0.144812 0.009803 -0.182191
v 0.151010 0.000000 -0.171456
v 0.250000 0.081965 -0.229576
v 0.250000 0.239965 -0.247242
v 0.250000 0.134375 -0.239419
v 0.250000 0.206848 -0.245885
v 0.373621 0.239965 -0.214118
v 0.364788 0.081965 -0.198819
v 0.372942 0.206848 -0.212943
v 0.369709 0.134375 -0.207343
v 0.464118 0.239965 -0.123621
v 0.448819 0.081965 -0.114788
v 0.462943 0.206848 -0.122943
v 0.457343 0.134375 -0.119709
v 0.497242 0.239965 -0.000000
v 0.479576 0.081965 -0.000000
v 0.495885 0.206848 -0.000000
v 0.489419 0.134375 -0.000000
v 0.464118 0.239965 0.123621
v 0.448819 0.081965 0.114788
v 0.462943 0.206848 0.122942
v 0.457343 0.134375 0.119709
v 0.373621 0.239965 0.214118
v 0.364788 0.081965 0.198819
v 0.372942 0.206848 0.212943
v 0.369709 0.134375 0.207343
v 0.250000 0.239965 0.247242
v 0.250000 0.081965 0.229576
v 0.250000 0.206848 0.245885
v 0.250000 0.134375 0.239419
v 0.126379 0.239964 0.214118
v 0.135212 0.081965 0.198819
v 0.127058 0.206848 0.212943
v 0.130291 0.134375 0.207343
v 0.035882 0.239964 0.123621
v 0.051181 0.081965 0.114788
v 0.037057 0.206848 0.122942
v 0.042657 0.134375 0.119709
v 0.002758 0.239964 -0.000000
v 0.020424 0.081965 0.000000
v 0.004115 0.206848 0.000000
v 0.010581 0.134375 0.000000
v 0.035882 0.239964 -0.123621
v 0.051181 0.081965 -0.114788
v 0.037057 0.206848 -0.122942
v 0.042657 0.134375 -0.119709
v 0.126379 0.239964 -0.214118
v 0.135212 0.081965 -0.198819
v 0.127058 0.206848 -0.212943
v 0.130291 0.134375 -0.207343
v 0.250000 1.871875 -0.212500
v 0.250000 1.928125 -0.212500
v 0.356250 1.871875 -0.184031
v 0.356250 1.928125 -0.184031
v 0.434031 1.871875 -0.106250
v 0.434031 1.928125 -0.106250
v 0.462500 1.871875 -0.000000
v 0.462500 1.928125 -0.000000
v 0.434031 1.871875 0.106250
v 0.434031 1.928125 0.106250
v 0.356250 1.871875 0.184030
v 0.356250 1.928125 0.184030
v 0.250000 1.871875 0.212500
v 0.250000 1.928125 0.212500
v 0.143750 1.871875 0.184030
v 0.143750 1.928125 0.184030
v 0.065970 1.871875 0.106250
v 0.065970 1.928125 0.106250
v 0.037500 1.871875 -0.000000
v 0.037500 1.928125 -0.000000
v 0.065970 1.871875 -0.106250
v 0.065970 1.928125 -0.106250
v 0.143750 1.871875 -0.184030
v 0.143750 1.928125 -0.184030
v 0.030000 1.940064 -0.013355
v 0.030000 1.940064 0.013355
v 0.058329 1.928330 -0.013355
v 0.058329 1.928330 0.013355
v 0.058329 1.871670 -0.013355
v 0.058329 1.871670 0.013355
v 0.030000 1.859936 -0.013355
v 0.030000 1.859936 0.013355
v 0.001670 1.871670 -0.013355
v 0.001670 1.871670 0.013355
v -0.010065 1.900000 -0.013355
v -0.010065 1.900000 0.013355
v 0.001670 1.928330 -0.013355
v 0.001670 1.928330 0.013355
v 0.468743 1.940064 -0.013355
v 0.468742 1.940064 0.013355
v 0.440413 1.928330 -0.013355
v 0.440413 1.928330 0.013355
v 0.440413 1.871670 -0.013355
v 0.440413 1.871670 0.013355
v 0.468742 1.859936 -0.013355
v 0.468742 1.859936 0.013355
v 0.497072 1.871670 -0.013355
v 0.497072 1.871670 0.013355
v 0.508807 1.900000 -0.013355
v 0.508807 1.900000 0.013355
v 0.497072 1.928330 -0.013355
v 0.497072 1.928330 0.013355
vn 0.6848 -0.2489 -0.6849
vn -0.0000 -1.0000 -0.0000
vn -1.0000 -0.0000 -0.0000
vn 0.2588 -0.0000 -0.9659
vn -0.2585 0.0514 -0.9646
vn 0.9355 -0.2489 -0.2507
vn -0.6849 -0.2489 -0.6849
vn -0.9355 -0.2489 -0.2507
vn -0.9355 -0.2489 0.2507
vn -0.6849 -0.2489 0.6849
vn -0.2507 -0.2489 0.9355
vn 0.2507 -0.2489 0.9355
vn 0.6849 -0.2489 0.6849
vn 0.2587 0.0261 -0.9656
vn -0.2507 -0.2489 -0.9355
vn 0.9355 -0.2489 0.2507
vn 0.5936 -0.3966 0.7002
vn 0.7002 -0.1393 -0.7002
vn -0.9486 0.1887 0.2542
vn 0.2585 -0.0514 0.9646
vn 0.9486 -0.1887 -0.2542
vn -0.9486 0.1887 -0.2542
vn -0.2585 0.0514 0.9646
vn 0.9486 -0.1887 0.2542
vn -0.7002 0.1393 -0.7002
vn 0.2585 -0.0514 -0.9646
vn -0.7002 0.1393 0.7002
vn 0.7002 -0.1393 0.7002
vn 0.3966 -0.5936 0.7002
vn -0.2191 0.1464 -0.9646
vn 0.5936 -0.3966 -0.7002
vn -0.8042 0.5373 0.2542
vn 0.2191 -0.1464 0.9646
vn 0.8042 -0.5373 -0.2542
vn -0.8042 0.5373 -0.2542
vn -0.2191 0.1464 0.9646
vn 0.8042 -0.5373 0.2542
vn -0.5936 0.3966 -0.7002
vn 0.2191 -0.1464 -0.9646
vn -0.5936 0.3966 0.7002
vn -0.1393 0.7002 0.7002
vn -0.1464 0.2191 -0.9646
vn 0.3966 -0.5936 -0.7002
vn -0.5373 0.8042 0.2542
vn 0.1464 -0.2191 0.9646
vn 0.5373 -0.8042 -0.2542
vn -0.5373 0.8042 -0.2542
vn -0.1464 0.2191 0.9646
vn 0.5373 -0.8042 0.2542
vn -0.3966 0.5936 -0.7002
vn 0.1464 -0.2191 -0.9646
vn -0.3966 0.5936 0.7002
vn -0.3284 0.9123 -0.2445
vn 0.1393 -0.7002 0.7002
vn -0.0514 0.2585 -0.9646
vn 0.1393 -0.7002 -0.7002
vn -0.1887 0.9486 0.2542
vn 0.0514 -0.2585 0.9646
vn 0.1887 -0.9486 -0.2542
vn -0.1887 0.9486 -0.2542
vn -0.0514 0.2585 0.9646
vn 0.1887 -0.9486 0.2542
vn -0.1393 0.7002 -0.7002
vn 0.0514 -0.2585 -0.9646
vn 1.0000 -0.0000 -0.0000
vn 0.2467 -0.6853 0.6853
vn -0.0928 0.2577 0.9618
vn 0.2467 -0.6853 -0.6853
vn -0.2467 0.6853 -0.6853
vn 0.0928 -0.2577 0.9618
vn -0.2467 0.6853 0.6853
vn 0.3284 -0.9123 -0.2445
vn -0.0928 0.2577 -0.9618
vn -0.3284 0.9123 0.2445
vn 0.3284 -0.9123 0.2445
vn 0.0928 -0.2577 -0.9618
vn -0.2587 0.0261 -0.9656
vn 0.9656 0.0261 -0.2587
vn 0.9656 0.0261 0.2587
vn 0.7069 0.0261 0.7069
vn 0.2587 0.0261 0.9656
vn -0.2587 0.0261 0.9656
vn -0.7069 0.0261 0.7069
vn -0.9656 0.0261 0.2587
vn -0.9656 0.0261 -0.2587
vn -0.7069 0.0261 -0.7069
vn 0.7069 0.0261 -0.7069
vn -0.9659 -0.0000 -0.2588
vn 0.7071 -0.0000 0.7071
vn -0.2588 -0.0000 0.9659
vn 0.7071 -0.0000 -0.7071
vn -0.7071 -0.0000 -0.7071
vn 0.2588 -0.0000 0.9659
vn -0.7071 -0.0000 0.7071
vn 0.9659 -0.0000 -0.2588
vn -0.2588 -0.0000 -0.9659
vn -0.9659 -0.0000 0.2588
vn 0.9659 -0.0000 0.2588
vn 0.1640 -0.7737 -0.6119
vn 0.4480 -0.7737 -0.4480
vn 0.6119 -0.7737 -0.1640
vn 0.6119 -0.7737 0.1640
vn 0.4480 -0.7737 0.4480
vn 0.1640 -0.7737 0.6119
vn -0.1640 -0.7737 0.6119
vn -0.4480 -0.7737 0.4480
vn -0.6119 -0.7737 0.1640
vn -0.6119 -0.7737 -0.1640
vn -0.4480 -0.7737 -0.4480
vn -0.1640 -0.7737 -0.6119
vn 0.2547 -0.1785 -0.9504
vn 0.2579 -0.0859 -0.9624
vn 0.2586 -0.0396 -0.9652
vn 0.6958 -0.1785 -0.6958
vn 0.7045 -0.0859 -0.7045
vn 0.7066 -0.0396 -0.7066
vn 0.9504 -0.1785 -0.2547
vn 0.9624 -0.0859 -0.2579
vn 0.9652 -0.0396 -0.2586
vn 0.9504 -0.1785 0.2547
vn 0.9624 -0.0859 0.2579
vn 0.9652 -0.0396 0.2586
vn 0.6958 -0.1785 0.6958
vn 0.7045 -0.0859 0.7045
vn 0.7066 -0.0396 0.7066
vn 0.2547 -0.1785 0.9504
vn 0.2579 -0.0859 0.9624
vn 0.2586 -0.0396 0.9652
vn -0.2547 -0.1785 0.9504
vn -0.2579 -0.0859 0.9624
vn -0.2586 -0.0396 0.9652
vn -0.6958 -0.1785 0.6958
vn -0.7045 -0.0859 0.7045
vn -0.7066 -0.0396 0.7066
vn -0.9504 -0.1785 0.2547
vn -0.9624 -0.0859 0.2579
vn -0.9652 -0.0396 0.2586
vn -0.9504 -0.1785 -0.2547
vn -0.9624 -0.0859 -0.2579
vn -0.9652 -0.0396 -0.2586
vn -0.6958 -0.1785 -0.6958
vn -0.7045 -0.0859 -0.7045
vn -0.7066 -0.0396 -0.7066
vn -0.2547 -0.1785 -0.9504
vn -0.2579 -0.0859 -0.9624
vn -0.2586 -0.0396 -0.9652
vn 0.2507 -0.2489 -0.9355
vn -0.0000 1.0000 -0.0000
vn 0.3827 0.9239 -0.0000
vn 0.3827 -0.9239 -0.0000
vn -0.3827 -0.9239 -0.0000
vn -0.9239 -0.3827 -0.0000
vn -0.0000 -0.0000 1.0000
vn -0.9239 0.3827 -0.0000
vn -0.3827 0.9239 -0.0000
vn -0.0000 -0.0000 -1.0000
vn 0.9239 -0.3827 -0.0000
vn 0.9239 0.3827 -0.0000
vt 0.916667 0.524509
vt 0.916667 0.754913
vt 0.833333 0.754913
vt 0.833333 0.524509
vt 0.947518 0.364037
vt 0.864037 0.447518
vt 0.978074 0.250000
vt 0.947518 0.135963
vt 0.864037 0.052482
vt 0.947518 0.135963
vt 0.864037 0.052482
vt 0.750000 0.021926
vt 0.750000 0.021926
vt 0.635963 0.052482
vt 0.635963 0.052482
vt 0.552482 0.135963
vt 0.552482 0.135963
vt 0.521926 0.250000
vt 0.552482 0.364037
vt 0.635963 0.447517
vt 0.750000 0.478074
vt 0.000000 1.000000
vt 0.083333 1.000000
vt 0.750000 0.754913
vt 0.750000 0.524509
vt 0.166667 0.524509
vt 0.166667 0.754913
vt 0.083333 0.754913
vt 0.083333 0.524509
vt 0.250000 0.524509
vt 0.250000 0.754913
vt 0.166667 0.754913
vt 0.166667 0.524509
vt 0.333333 0.524509
vt 0.333333 0.754913
vt 0.250000 0.524509
vt 0.416667 0.524509
vt 0.416667 0.754913
vt 0.333333 0.754913
vt 0.333333 0.524509
vt 0.500000 0.524509
vt 0.500000 0.754913
vt 0.416667 0.754913
vt 0.416667 0.524509
vt 0.583333 0.524509
vt 0.583333 0.754913
vt 0.666667 0.524509
vt 0.666667 0.754913
vt 0.583333 0.524509
vt 0.916667 1.000000
vt 1.000000 1.000000
vt 0.083333 0.524509
vt 0.083333 0.754913
vt 0.000000 0.754913
vt 0.000000 0.524509
vt 0.666667 0.524509
vt 0.583333 1.000000
vt 0.666667 1.000000
vt 0.833333 1.000000
vt 0.250000 1.000000
vt 0.333333 1.000000
vt 0.500000 1.000000
vt 0.750000 1.000000
vt 0.166667 1.000000
vt 0.416667 1.000000
vt 0.445189 0.137308
vt 0.475384 0.250000
vt 0.250000 0.475384
vt 0.362692 0.445189
vt 0.370000 0.457846
vt 0.250000 0.490000
vt 0.445189 0.362692
vt 0.457846 0.370000
vt 0.490000 0.250000
vt 0.457846 0.130000
vt 0.362692 0.054811
vt 0.370000 0.042154
vt 0.250000 0.024616
vt 0.250000 0.010000
vt 0.137308 0.054811
vt 0.130000 0.042154
vt 0.054811 0.137308
vt 0.042154 0.130000
vt 0.024616 0.250000
vt 0.010000 0.250000
vt 0.054811 0.362692
vt 0.042154 0.370000
vt 0.137308 0.445188
vt 0.130000 0.457846
vt 0.083333 1.000000
vt 0.750000 1.000000
vt 0.750000 0.490000
vt 0.870000 0.457846
vt 0.957846 0.370000
vt 0.990000 0.250000
vt 0.957846 0.130000
vt 0.870000 0.042154
vt 0.750000 0.010000
vt 0.630000 0.042154
vt 0.542154 0.130000
vt 0.510000 0.250000
vt 0.542154 0.370000
vt 0.630000 0.457846
vt 0.916667 0.754913
vt 1.000000 0.754913
vt 0.999468 0.909463
vt 0.916667 0.909463
vt 0.999479 1.000000
vt 0.916667 1.000000
vt 0.833333 0.909463
vt 0.833333 1.000000
vt 0.750000 0.909463
vt 0.750000 1.000000
vt 0.666667 0.909463
vt 0.666667 1.000000
vt 0.583333 0.909463
vt 0.583333 1.000000
vt 0.500000 0.909463
vt 0.416667 0.909463
vt 0.416667 1.000000
vt 0.333333 0.909463
vt 0.333333 1.000000
vt 0.250000 0.909463
vt 0.166667 0.909463
vt 0.166667 1.000000
vt 0.083333 0.909463
vt 0.000532 0.909463
vt 0.000521 1.000000
vt 1.000000 0.524509
vt 0.916667 0.524509
vt 1.000000 0.500000
vt 0.916667 0.500000
vt 0.833333 0.500000
vt 0.750000 0.500000
vt 0.666667 0.500000
vt 0.583333 0.500000
vt 0.500000 0.500000
vt 0.416667 0.500000
vt 0.333333 0.500000
vt 0.250000 0.500000
vt 0.166667 0.500000
vt 0.370000 0.457846
vt 0.042154 0.370000
vt 0.130000 0.042154
vt 0.370000 0.042154
vt 0.457846 0.370000
vt 0.083333 0.500000
vt 0.000000 0.500000
vt 0.957846 0.130000
vt 0.630000 0.042154
vt 0.875000 1.000000
vt 0.875000 0.500000
vt 0.625000 0.500000
vt 0.625000 1.000000
vt 0.500000 1.000000
vt 0.500000 0.500000
vt 0.375000 1.000000
vt 0.375000 0.500000
vt 0.250000 1.000000
vt 0.250000 0.500000
vt 0.419706 0.419706
vt 0.250000 0.490000
vt 0.080294 0.419706
vt 0.080294 0.080294
vt 0.419706 0.080294
vt 0.125000 1.000000
vt 0.125000 0.500000
vt 0.000000 1.000000
vt 0.000000 0.500000
vt 0.919706 0.080294
vt 0.580294 0.080294
vt 0.510000 0.250000
vt 0.580294 0.419706
s 0
f 111/1/1 138/2/1 142/3/1 113/4/1
f 3/5/2 2/6/2 112/6/2 114/5/2
f 4/7/3 3/5/3 114/5/3 116/7/3
f 5/8/3 4/7/3 116/7/3 118/8/3
f 6/9/2 5/8/2 118/10/2 120/11/2
f 7/12/2 6/9/2 120/9/2 122/13/2
f 8/14/2 7/12/2 122/12/2 124/15/2
f 9/16/2 8/14/2 124/14/2 126/17/2
f 10/18/2 9/16/2 126/16/2 128/18/2
f 11/19/2 10/18/2 128/18/2 130/19/2
f 12/20/2 11/19/2 130/19/2 132/20/2
f 1/21/3 12/20/3 132/20/3 109/21/3
f 7/12/4 8/14/4 104/14/4 103/12/4
f 14/22/5 24/23/5 36/23/5 26/22/5
f 113/4/6 142/3/6 146/24/6 115/25/6
f 129/26/7 174/27/7 178/28/7 131/29/7
f 127/30/8 170/31/8 174/32/8 129/33/8
f 125/34/9 166/35/9 170/31/9 127/36/9
f 123/37/10 162/38/10 166/39/10 125/40/10
f 121/41/11 158/42/11 162/43/11 123/44/11
f 119/45/12 154/46/12 158/42/12 121/41/12
f 117/47/13 150/48/13 154/46/13 119/49/13
f 137/50/14 134/51/14 14/51/14 13/50/14
f 131/52/15 178/53/15 133/54/15 110/55/15
f 115/25/16 146/24/16 150/48/16 117/56/16
f 30/57/17 29/58/17 41/58/17 42/57/17
f 15/59/18 13/50/18 25/50/18 27/59/18
f 22/60/19 21/61/19 33/61/19 34/60/19
f 19/62/20 18/57/20 30/57/20 31/62/20
f 16/63/21 15/59/21 27/59/21 28/63/21
f 23/64/22 22/60/22 34/60/22 35/64/22
f 20/65/23 19/62/23 31/62/23 32/65/23
f 17/58/24 16/63/24 28/63/24 29/58/24
f 24/23/25 23/64/25 35/64/25 36/23/25
f 13/50/26 14/51/26 26/51/26 25/50/26
f 21/61/27 20/65/27 32/65/27 33/61/27
f 18/57/28 17/58/28 29/58/28 30/57/28
f 42/57/29 41/58/29 53/58/29 54/57/29
f 26/22/30 36/23/30 48/23/30 38/22/30
f 27/59/31 25/50/31 37/50/31 39/59/31
f 34/60/32 33/61/32 45/61/32 46/60/32
f 31/62/33 30/57/33 42/57/33 43/62/33
f 28/63/34 27/59/34 39/59/34 40/63/34
f 35/64/35 34/60/35 46/60/35 47/64/35
f 32/65/36 31/62/36 43/62/36 44/65/36
f 29/58/37 28/63/37 40/63/37 41/58/37
f 36/23/38 35/64/38 47/64/38 48/23/38
f 25/50/39 26/51/39 38/51/39 37/50/39
f 33/61/40 32/65/40 44/65/40 45/61/40
f 57/61/41 56/65/41 80/65/41 81/61/41
f 38/22/42 48/23/42 60/23/42 50/22/42
f 39/59/43 37/50/43 49/50/43 51/59/43
f 46/60/44 45/61/44 57/61/44 58/60/44
f 43/62/45 42/57/45 54/57/45 55/62/45
f 40/63/46 39/59/46 51/59/46 52/63/46
f 47/64/47 46/60/47 58/60/47 59/64/47
f 44/65/48 43/62/48 55/62/48 56/65/48
f 41/58/49 40/63/49 52/63/49 53/58/49
f 48/23/50 47/64/50 59/64/50 60/23/50
f 37/50/51 38/51/51 50/51/51 49/50/51
f 45/61/52 44/65/52 56/65/52 57/61/52
f 65/66/53 64/67/53 88/67/53 89/66/53
f 54/57/54 53/58/54 77/58/54 78/57/54
f 50/22/55 60/23/55 84/23/55 74/22/55
f 51/59/56 49/50/56 73/50/56 75/59/56
f 58/60/57 57/61/57 81/61/57 82/60/57
f 55/62/58 54/57/58 78/57/58 79/62/58
f 52/63/59 51/59/59 75/59/59 76/63/59
f 59/64/60 58/60/60 82/60/60 83/64/60
f 56/65/61 55/62/61 79/62/61 80/65/61
f 53/58/62 52/63/62 76/63/62 77/58/62
f 60/23/63 59/64/63 83/64/63 84/23/63
f 49/50/64 50/51/64 74/51/64 73/50/64
f 62/68/65 61/69/65 73/70/65 74/71/65
f 61/69/65 63/72/65 75/73/65 73/70/65
f 63/72/65 64/67/65 76/74/65 75/73/65
f 64/67/65 65/66/65 77/75/65 76/74/65
f 65/66/65 66/76/65 78/77/65 77/75/65
f 66/76/65 67/78/65 79/79/65 78/77/65
f 67/78/65 68/80/65 80/81/65 79/79/65
f 68/80/65 69/82/65 81/83/65 80/81/65
f 69/82/65 70/84/65 82/85/65 81/83/65
f 70/84/65 71/86/65 83/87/65 82/85/65
f 71/86/65 72/88/65 84/89/65 83/87/65
f 72/88/65 62/68/65 74/71/65 84/89/65
f 85/69/65 86/68/65 96/88/65 95/86/65 94/84/65 93/82/65 92/80/65 91/78/65 90/76/65 89/66/65 88/67/65 87/72/65
f 72/88/66 71/86/66 95/86/66 96/88/66
f 61/69/67 62/68/67 86/68/67 85/69/67
f 69/82/68 68/80/68 92/80/68 93/82/68
f 66/76/69 65/66/69 89/66/69 90/76/69
f 62/68/70 72/88/70 96/88/70 86/68/70
f 63/72/71 61/69/71 85/69/71 87/72/71
f 70/84/72 69/82/72 93/82/72 94/84/72
f 67/78/73 66/76/73 90/76/73 91/78/73
f 64/67/74 63/72/74 87/72/74 88/67/74
f 71/86/75 70/84/75 94/84/75 95/86/75
f 68/80/76 67/78/76 91/78/76 92/80/76
f 134/22/77 177/90/77 24/23/77 14/22/77
f 145/63/78 141/59/78 15/59/78 16/63/78
f 149/58/79 145/91/79 16/63/79 17/58/79
f 153/57/80 149/58/80 17/58/80 18/57/80
f 157/62/81 153/57/81 18/57/81 19/62/81
f 161/65/82 157/62/82 19/62/82 20/65/82
f 165/61/83 161/65/83 20/65/83 21/61/83
f 169/60/84 165/61/84 21/61/84 22/60/84
f 173/64/85 169/60/85 22/60/85 23/64/85
f 177/23/86 173/64/86 23/64/86 24/23/86
f 141/59/87 137/50/87 13/50/87 15/59/87
f 97/21/2 98/6/2 99/5/2 100/7/2 101/8/2 102/9/2 103/12/2 104/14/2 105/16/2 106/18/2 107/19/2 108/20/2
f 4/7/88 5/8/88 101/8/88 100/7/88
f 11/19/89 12/20/89 108/20/89 107/19/89
f 1/21/90 2/6/90 98/6/90 97/21/90
f 8/14/91 9/16/91 105/16/91 104/14/91
f 5/8/92 6/9/92 102/9/92 101/8/92
f 12/20/93 1/21/93 97/21/93 108/20/93
f 2/6/94 3/5/94 99/5/94 98/6/94
f 9/16/95 10/18/95 106/18/95 105/16/95
f 6/9/96 7/12/96 103/12/96 102/9/96
f 3/5/97 4/7/97 100/7/97 99/5/97
f 10/18/98 11/19/98 107/19/98 106/18/98
f 110/92/99 111/93/99 112/6/99 109/21/99
f 111/93/100 113/94/100 114/5/100 112/6/100
f 113/94/101 115/95/101 116/7/101 114/5/101
f 115/95/102 117/96/102 118/8/102 116/7/102
f 117/96/103 119/97/103 120/11/103 118/10/103
f 119/97/104 121/98/104 122/13/104 120/9/104
f 121/98/105 123/99/105 124/15/105 122/12/105
f 123/99/106 125/100/106 126/17/106 124/14/106
f 125/100/107 127/101/107 128/18/107 126/16/107
f 127/101/108 129/102/108 130/19/108 128/18/108
f 129/102/109 131/103/109 132/20/109 130/19/109
f 131/103/110 110/92/110 109/21/110 132/20/110
f 2/6/3 1/21/3 109/21/3 112/6/3
f 138/104/111 133/105/111 135/106/111 140/107/111
f 140/107/112 135/106/112 136/108/112 139/109/112
f 139/109/113 136/108/113 134/51/113 137/50/113
f 142/3/114 138/2/114 140/107/114 144/110/114
f 144/110/115 140/107/115 139/109/115 143/111/115
f 143/111/116 139/109/116 137/50/116 141/59/116
f 146/24/117 142/3/117 144/110/117 148/112/117
f 148/112/118 144/110/118 143/111/118 147/113/118
f 147/113/119 143/111/119 141/59/119 145/63/119
f 150/48/120 146/24/120 148/112/120 152/114/120
f 152/114/121 148/112/121 147/113/121 151/115/121
f 151/115/122 147/113/122 145/91/122 149/58/122
f 154/46/123 150/48/123 152/114/123 156/116/123
f 156/116/124 152/114/124 151/115/124 155/117/124
f 155/117/125 151/115/125 149/58/125 153/57/125
f 158/42/126 154/46/126 156/116/126 160/118/126
f 160/118/127 156/116/127 155/117/127 159/62/127
f 159/62/128 155/117/128 153/57/128 157/62/128
f 162/43/129 158/42/129 160/118/129 164/119/129
f 164/119/130 160/118/130 159/62/130 163/120/130
f 163/120/131 159/62/131 157/62/131 161/65/131
f 166/39/132 162/38/132 164/119/132 168/121/132
f 168/121/133 164/119/133 163/120/133 167/122/133
f 167/122/134 163/120/134 161/65/134 165/61/134
f 170/31/135 166/35/135 168/121/135 172/123/135
f 172/123/136 168/121/136 167/122/136 171/60/136
f 171/60/137 167/122/137 165/61/137 169/60/137
f 174/32/138 170/31/138 172/123/138 176/124/138
f 176/124/139 172/123/139 171/60/139 175/125/139
f 175/125/140 171/60/140 169/60/140 173/64/140
f 178/28/141 174/27/141 176/124/141 180/126/141
f 180/126/142 176/124/142 175/125/142 179/90/142
f 179/90/143 175/125/143 173/64/143 177/23/143
f 133/54/144 178/53/144 180/126/144 135/127/144
f 135/127/145 180/126/145 179/90/145 136/128/145
f 136/128/146 179/90/146 177/90/146 134/22/146
f 110/129/147 133/105/147 138/104/147 111/130/147
f 181/131/4 182/51/4 184/50/4 183/132/4
f 183/132/91 184/50/91 186/59/91 185/133/91
f 185/133/95 186/59/95 188/63/95 187/134/95
f 187/134/98 188/63/98 190/58/98 189/135/98
f 189/135/89 190/58/89 192/57/89 191/136/89
f 191/136/93 192/57/93 194/62/93 193/137/93
f 193/137/90 194/62/90 196/65/90 195/138/90
f 195/138/94 196/65/94 198/61/94 197/139/94
f 197/139/97 198/61/97 200/60/97 199/140/97
f 199/140/88 200/60/88 202/64/88 201/141/88
f 184/142/148 182/71/148 204/89/148 202/143/148 200/85/148 198/83/148 196/144/148 194/79/148 192/145/148 190/75/148 188/74/148 186/146/148
f 201/141/92 202/64/92 204/23/92 203/147/92
f 203/147/96 204/23/96 182/22/96 181/148/96
f 181/92/2 183/93/2 185/94/2 187/95/2 189/149/2 191/97/2 193/98/2 195/150/2 197/100/2 199/101/2 201/102/2 203/103/2
f 205/131/149 206/51/149 208/151/149 207/152/149
f 209/153/150 210/154/150 212/155/150 211/156/150
f 211/156/151 212/155/151 214/157/151 213/158/151
f 213/158/152 214/157/152 216/159/152 215/160/152
f 208/161/153 206/162/153 218/163/153 216/85/153 214/164/153 212/79/153 210/165/153
f 215/160/154 216/159/154 218/166/154 217/167/154
f 217/167/155 218/166/155 206/168/155 205/169/155
f 205/92/156 207/95/156 209/170/156 211/98/156 213/171/156 215/172/156 217/173/156
f 219/131/155 221/152/155 222/151/155 220/51/155
f 223/153/151 225/156/151 226/155/151 224/154/151
f 225/156/150 227/158/150 228/157/150 226/155/150
f 227/158/157 229/160/157 230/159/157 228/157/157
f 222/161/153 224/165/153 226/79/153 228/164/153 230/85/153 232/163/153 220/162/153
f 229/160/158 231/167/158 232/166/158 230/159/158
f 231/167/149 219/169/149 220/168/149 232/166/149
f 219/92/156 231/173/156 229/172/156 227/171/156 225/98/156 223/170/156 221/95/156
