# Blender 4.4.3
# www.blender.org
mtllib WaterTowerIndicator.mtl
g WaterIndicator_WaterIndicator
v -0.090000 -0.025000 0.050000
v -0.090000 0.025000 0.050000
v 0.050000 -0.025000 -0.090000
v 0.050000 0.025000 -0.090000
v -0.085000 0.025000 0.055000
v -0.085000 0.065000 0.055000
v -0.110000 0.065000 0.030000
v 0.055000 0.025000 -0.085000
v 0.055000 0.065000 -0.085000
v 0.030000 0.065000 -0.110000
v -0.085000 -0.065000 0.055000
v -0.085000 -0.025000 0.055000
v -0.110000 -0.065000 0.030000
v 0.055000 -0.065000 -0.085000
v 0.055000 -0.025000 -0.085000
v 0.030000 -0.065000 -0.110000
vn 0.7071 -0.0000 0.7071
vn -0.0000 -1.0000 -0.0000
vn -0.0000 1.0000 -0.0000
vt 0.375000 0.750000
vt 0.625000 0.750000
vt 0.625000 1.000000
vt 0.375000 1.000000
vt 0.125000 0.500000
vt 0.375000 0.500000
vt 0.125000 0.750000
vt 0.625000 0.500000
vt 0.875000 0.500000
vt 0.875000 0.750000
s 0
f 3/1/1 4/2/1 2/3/1 1/4/1
f 8/1/1 9/2/1 6/3/1 5/4/1
f 2/5/2 4/6/2 8/1/2 5/7/2
f 10/8/3 7/9/3 6/10/3 9/2/3
f 14/1/1 15/2/1 12/3/1 11/4/1
f 13/5/2 16/6/2 14/1/2 11/7/2
f 3/8/3 1/9/3 12/10/3 15/2/3
