# Blender 4.4.3
# www.blender.org
mtllib WaterCylinder.mtl
g WaterCylinder_Mesh
v 0.000000 -2.000000 -0.500000
v 0.000000 0.000000 -0.500000
v 0.191342 -2.000000 -0.461940
v 0.191342 0.000000 -0.461940
v 0.353553 -2.000000 -0.353553
v 0.353553 0.000000 -0.353553
v 0.461940 -2.000000 -0.191342
v 0.461940 0.000000 -0.191342
v 0.500000 -2.000000 0.000000
v 0.500000 0.000000 0.000000
v 0.461940 -2.000000 0.191342
v 0.461940 0.000000 0.191342
v 0.353553 -2.000000 0.353553
v 0.353553 0.000000 0.353553
v 0.191342 -2.000000 0.461940
v 0.191342 0.000000 0.461940
v 0.000000 -2.000000 0.500000
v 0.000000 0.000000 0.500000
v -0.191342 -2.000000 0.461940
v -0.191342 0.000000 0.461940
v -0.353553 -2.000000 0.353553
v -0.353553 0.000000 0.353553
v -0.461940 -2.000000 0.191342
v -0.461940 0.000000 0.191342
v -0.500000 -2.000000 0.000000
v -0.500000 0.000000 0.000000
v -0.461940 -2.000000 -0.191342
v -0.461940 0.000000 -0.191342
v -0.353553 -2.000000 -0.353553
v -0.353553 0.000000 -0.353553
v -0.191342 -2.000000 -0.461940
v -0.191342 0.000000 -0.461940
v 0.000000 -1.800000 -0.500000
v 0.000000 -1.600000 -0.500000
v 0.000000 -1.400000 -0.500000
v 0.000000 -1.200000 -0.500000
v 0.000000 -1.000000 -0.500000
v 0.000000 -0.800000 -0.500000
v 0.000000 -0.600000 -0.500000
v 0.000000 -0.400000 -0.500000
v 0.000000 -0.200000 -0.500000
v 0.191342 -0.200000 -0.461940
v 0.191342 -0.400000 -0.461940
v 0.191342 -0.600000 -0.461940
v 0.191342 -0.800000 -0.461940
v 0.191342 -1.000000 -0.461940
v 0.191342 -1.200000 -0.461940
v 0.191342 -1.400000 -0.461940
v 0.191342 -1.600000 -0.461940
v 0.191342 -1.800000 -0.461940
v 0.353553 -0.200000 -0.353553
v 0.353553 -0.400000 -0.353553
v 0.353553 -0.600000 -0.353553
v 0.353553 -0.800000 -0.353553
v 0.353553 -1.000000 -0.353553
v 0.353553 -1.200000 -0.353553
v 0.353553 -1.400000 -0.353553
v 0.353553 -1.600000 -0.353553
v 0.353553 -1.800000 -0.353553
v 0.461940 -0.200000 -0.191342
v 0.461940 -0.400000 -0.191342
v 0.461940 -0.600000 -0.191342
v 0.461940 -0.800000 -0.191342
v 0.461940 -1.000000 -0.191342
v 0.461940 -1.200000 -0.191342
v 0.461940 -1.400000 -0.191342
v 0.461940 -1.600000 -0.191342
v 0.461940 -1.800000 -0.191342
v 0.500000 -0.200000 0.000000
v 0.500000 -0.400000 0.000000
v 0.500000 -0.600000 0.000000
v 0.500000 -0.800000 0.000000
v 0.500000 -1.000000 0.000000
v 0.500000 -1.200000 0.000000
v 0.500000 -1.400000 0.000000
v 0.500000 -1.600000 0.000000
v 0.500000 -1.800000 0.000000
v 0.461940 -0.200000 0.191342
v 0.461940 -0.400000 0.191342
v 0.461940 -0.600000 0.191342
v 0.461940 -0.800000 0.191342
v 0.461940 -1.000000 0.191342
v 0.461940 -1.200000 0.191342
v 0.461940 -1.400000 0.191342
v 0.461940 -1.600000 0.191342
v 0.461940 -1.800000 0.191342
v 0.353553 -0.200000 0.353553
v 0.353553 -0.400000 0.353553
v 0.353553 -0.600000 0.353553
v 0.353553 -0.800000 0.353553
v 0.353553 -1.000000 0.353553
v 0.353553 -1.200000 0.353553
v 0.353553 -1.400000 0.353553
v 0.353553 -1.600000 0.353553
v 0.353553 -1.800000 0.353553
v 0.191342 -0.200000 0.461940
v 0.191342 -0.400000 0.461940
v 0.191342 -0.600000 0.461940
v 0.191342 -0.800000 0.461940
v 0.191342 -1.000000 0.461940
v 0.191342 -1.200000 0.461940
v 0.191342 -1.400000 0.461940
v 0.191342 -1.600000 0.461940
v 0.191342 -1.800000 0.461940
v 0.000000 -0.200000 0.500000
v 0.000000 -0.400000 0.500000
v 0.000000 -0.600000 0.500000
v 0.000000 -0.800000 0.500000
v 0.000000 -1.000000 0.500000
v 0.000000 -1.200000 0.500000
v 0.000000 -1.400000 0.500000
v 0.000000 -1.600000 0.500000
v 0.000000 -1.800000 0.500000
v -0.191342 -0.200000 0.461940
v -0.191342 -0.400000 0.461940
v -0.191342 -0.600000 0.461940
v -0.191342 -0.800000 0.461940
v -0.191342 -1.000000 0.461940
v -0.191342 -1.200000 0.461940
v -0.191342 -1.400000 0.461940
v -0.191342 -1.600000 0.461940
v -0.191342 -1.800000 0.461940
v -0.353553 -0.200000 0.353553
v -0.353553 -0.400000 0.353553
v -0.353553 -0.600000 0.353553
v -0.353553 -0.800000 0.353553
v -0.353553 -1.000000 0.353553
v -0.353553 -1.200000 0.353553
v -0.353553 -1.400000 0.353553
v -0.353553 -1.600000 0.353553
v -0.353553 -1.800000 0.353553
v -0.461940 -0.200000 0.191342
v -0.461940 -0.400000 0.191342
v -0.461940 -0.600000 0.191342
v -0.461940 -0.800000 0.191342
v -0.461940 -1.000000 0.191342
v -0.461940 -1.200000 0.191342
v -0.461940 -1.400000 0.191342
v -0.461940 -1.600000 0.191342
v -0.461940 -1.800000 0.191342
v -0.500000 -0.200000 0.000000
v -0.500000 -0.400000 0.000000
v -0.500000 -0.600000 0.000000
v -0.500000 -0.800000 0.000000
v -0.500000 -1.000000 0.000000
v -0.500000 -1.200000 0.000000
v -0.500000 -1.400000 0.000000
v -0.500000 -1.600000 0.000000
v -0.500000 -1.800000 0.000000
v -0.461940 -0.200000 -0.191342
v -0.461940 -0.400000 -0.191342
v -0.461940 -0.600000 -0.191342
v -0.461940 -0.800000 -0.191342
v -0.461940 -1.000000 -0.191342
v -0.461940 -1.200000 -0.191342
v -0.461940 -1.400000 -0.191342
v -0.461940 -1.600000 -0.191342
v -0.461940 -1.800000 -0.191342
v -0.353553 -0.200000 -0.353553
v -0.353553 -0.400000 -0.353553
v -0.353553 -0.600000 -0.353553
v -0.353553 -0.800000 -0.353553
v -0.353553 -1.000000 -0.353553
v -0.353553 -1.200000 -0.353553
v -0.353553 -1.400000 -0.353553
v -0.353553 -1.600000 -0.353553
v -0.353553 -1.800000 -0.353553
v -0.191342 -0.200000 -0.461940
v -0.191342 -0.400000 -0.461940
v -0.191342 -0.600000 -0.461940
v -0.191342 -0.800000 -0.461940
v -0.191342 -1.000000 -0.461940
v -0.191342 -1.200000 -0.461940
v -0.191342 -1.400000 -0.461940
v -0.191342 -1.600000 -0.461940
v -0.191342 -1.800000 -0.461940
vn -0.0000 -0.0000 -1.0000
vn 0.3827 -0.0000 -0.9239
vn 0.7071 -0.0000 -0.7071
vn 0.9239 -0.0000 -0.3827
vn 1.0000 -0.0000 -0.0000
vn 0.9239 -0.0000 0.3827
vn 0.7071 -0.0000 0.7071
vn 0.3827 -0.0000 0.9239
vn -0.0000 -0.0000 1.0000
vn -0.3827 -0.0000 0.9239
vn -0.7071 -0.0000 0.7071
vn -0.9239 -0.0000 0.3827
vn -1.0000 -0.0000 -0.0000
vn -0.9239 -0.0000 -0.3827
vn -0.7071 -0.0000 -0.7071
vn -0.3827 -0.0000 -0.9239
vt 1.000000 0.950000
vt 0.937500 1.000000
vt 0.937500 0.950000
vt 0.875000 0.950000
vt 0.875000 1.000000
vt 0.812500 0.950000
vt 0.812500 1.000000
vt 0.750000 0.950000
vt 0.750000 1.000000
vt 0.687500 0.950000
vt 0.687500 1.000000
vt 0.625000 0.950000
vt 0.625000 1.000000
vt 0.562500 0.950000
vt 0.562500 1.000000
vt 0.500000 0.950000
vt 0.500000 1.000000
vt 0.437500 0.950000
vt 0.437500 1.000000
vt 0.375000 0.950000
vt 0.375000 1.000000
vt 0.312500 0.950000
vt 0.312500 1.000000
vt 0.250000 0.950000
vt 0.250000 1.000000
vt 0.187500 0.950000
vt 0.187500 1.000000
vt 0.125000 0.950000
vt 0.125000 1.000000
vt 0.062500 0.950000
vt 0.062500 1.000000
vt 0.000000 0.950000
vt 0.062500 0.550000
vt 0.000000 0.500000
vt 0.062500 0.500000
vt 0.062500 0.600000
vt 0.000000 0.550000
vt 0.062500 0.650000
vt 0.000000 0.600000
vt 0.062500 0.700000
vt 0.000000 0.650000
vt 0.062500 0.750000
vt 0.000000 0.700000
vt 0.062500 0.800000
vt 0.000000 0.750000
vt 0.062500 0.850000
vt 0.000000 0.800000
vt 0.062500 0.900000
vt 0.000000 0.850000
vt 0.000000 0.900000
vt 0.125000 0.550000
vt 0.125000 0.500000
vt 0.125000 0.600000
vt 0.125000 0.650000
vt 0.125000 0.700000
vt 0.125000 0.750000
vt 0.125000 0.800000
vt 0.125000 0.850000
vt 0.125000 0.900000
vt 0.187500 0.550000
vt 0.187500 0.500000
vt 0.187500 0.600000
vt 0.187500 0.650000
vt 0.187500 0.700000
vt 0.187500 0.750000
vt 0.187500 0.800000
vt 0.187500 0.850000
vt 0.187500 0.900000
vt 0.250000 0.550000
vt 0.250000 0.500000
vt 0.250000 0.600000
vt 0.250000 0.650000
vt 0.250000 0.700000
vt 0.250000 0.750000
vt 0.250000 0.800000
vt 0.250000 0.850000
vt 0.250000 0.900000
vt 0.312500 0.550000
vt 0.312500 0.500000
vt 0.312500 0.600000
vt 0.312500 0.650000
vt 0.312500 0.700000
vt 0.312500 0.750000
vt 0.312500 0.800000
vt 0.312500 0.850000
vt 0.312500 0.900000
vt 0.375000 0.550000
vt 0.375000 0.500000
vt 0.375000 0.600000
vt 0.375000 0.650000
vt 0.375000 0.700000
vt 0.375000 0.750000
vt 0.375000 0.800000
vt 0.375000 0.850000
vt 0.375000 0.900000
vt 0.437500 0.550000
vt 0.437500 0.500000
vt 0.437500 0.600000
vt 0.437500 0.650000
vt 0.437500 0.700000
vt 0.437500 0.750000
vt 0.437500 0.800000
vt 0.437500 0.850000
vt 0.437500 0.900000
vt 0.500000 0.550000
vt 0.500000 0.500000
vt 0.500000 0.600000
vt 0.500000 0.650000
vt 0.500000 0.700000
vt 0.500000 0.750000
vt 0.500000 0.800000
vt 0.500000 0.850000
vt 0.500000 0.900000
vt 0.562500 0.550000
vt 0.562500 0.500000
vt 0.562500 0.600000
vt 0.562500 0.650000
vt 0.562500 0.700000
vt 0.562500 0.750000
vt 0.562500 0.800000
vt 0.562500 0.850000
vt 0.562500 0.900000
vt 0.625000 0.550000
vt 0.625000 0.500000
vt 0.625000 0.600000
vt 0.625000 0.650000
vt 0.625000 0.700000
vt 0.625000 0.750000
vt 0.625000 0.800000
vt 0.625000 0.850000
vt 0.625000 0.900000
vt 0.687500 0.550000
vt 0.687500 0.500000
vt 0.687500 0.600000
vt 0.687500 0.650000
vt 0.687500 0.700000
vt 0.687500 0.750000
vt 0.687500 0.800000
vt 0.687500 0.850000
vt 0.687500 0.900000
vt 0.750000 0.550000
vt 0.750000 0.500000
vt 0.750000 0.600000
vt 0.750000 0.650000
vt 0.750000 0.700000
vt 0.750000 0.750000
vt 0.750000 0.800000
vt 0.750000 0.850000
vt 0.750000 0.900000
vt 0.812500 0.550000
vt 0.812500 0.500000
vt 0.812500 0.600000
vt 0.812500 0.650000
vt 0.812500 0.700000
vt 0.812500 0.750000
vt 0.812500 0.800000
vt 0.812500 0.850000
vt 0.812500 0.900000
vt 0.875000 0.550000
vt 0.875000 0.500000
vt 0.875000 0.600000
vt 0.875000 0.650000
vt 0.875000 0.700000
vt 0.875000 0.750000
vt 0.875000 0.800000
vt 0.875000 0.850000
vt 0.875000 0.900000
vt 0.937500 0.550000
vt 0.937500 0.500000
vt 0.937500 0.600000
vt 0.937500 0.650000
vt 0.937500 0.700000
vt 0.937500 0.750000
vt 0.937500 0.800000
vt 0.937500 0.850000
vt 0.937500 0.900000
vt 1.000000 0.550000
vt 1.000000 0.500000
vt 1.000000 0.600000
vt 1.000000 0.650000
vt 1.000000 0.700000
vt 1.000000 0.750000
vt 1.000000 0.800000
vt 1.000000 0.850000
vt 1.000000 0.900000
vt 1.000000 1.000000
vt 0.000000 1.000000
s 1
f 41/1/1 4/2/2 42/3/2
f 4/2/2 51/4/3 42/3/2
f 6/5/3 60/6/4 51/4/3
f 8/7/4 69/8/5 60/6/4
f 10/9/5 78/10/6 69/8/5
f 12/11/6 87/12/7 78/10/6
f 14/13/7 96/14/8 87/12/7
f 16/15/8 105/16/9 96/14/8
f 18/17/9 114/18/10 105/16/9
f 20/19/10 123/20/11 114/18/10
f 22/21/11 132/22/12 123/20/11
f 24/23/12 141/24/13 132/22/12
f 26/25/13 150/26/14 141/24/13
f 28/27/14 159/28/15 150/26/14
f 30/29/15 168/30/16 159/28/15
f 32/31/16 41/32/1 168/30/16
f 176/33/16 1/34/1 31/35/16
f 175/36/16 33/37/1 176/33/16
f 174/38/16 34/39/1 175/36/16
f 173/40/16 35/41/1 174/38/16
f 172/42/16 36/43/1 173/40/16
f 171/44/16 37/45/1 172/42/16
f 170/46/16 38/47/1 171/44/16
f 169/48/16 39/49/1 170/46/16
f 168/30/16 40/50/1 169/48/16
f 167/51/15 31/35/16 29/52/15
f 166/53/15 176/33/16 167/51/15
f 165/54/15 175/36/16 166/53/15
f 164/55/15 174/38/16 165/54/15
f 163/56/15 173/40/16 164/55/15
f 162/57/15 172/42/16 163/56/15
f 161/58/15 171/44/16 162/57/15
f 160/59/15 170/46/16 161/58/15
f 159/28/15 169/48/16 160/59/15
f 158/60/14 29/52/15 27/61/14
f 157/62/14 167/51/15 158/60/14
f 156/63/14 166/53/15 157/62/14
f 155/64/14 165/54/15 156/63/14
f 154/65/14 164/55/15 155/64/14
f 153/66/14 163/56/15 154/65/14
f 152/67/14 162/57/15 153/66/14
f 151/68/14 161/58/15 152/67/14
f 150/26/14 160/59/15 151/68/14
f 149/69/13 27/61/14 25/70/13
f 148/71/13 158/60/14 149/69/13
f 147/72/13 157/62/14 148/71/13
f 146/73/13 156/63/14 147/72/13
f 145/74/13 155/64/14 146/73/13
f 144/75/13 154/65/14 145/74/13
f 143/76/13 153/66/14 144/75/13
f 142/77/13 152/67/14 143/76/13
f 141/24/13 151/68/14 142/77/13
f 140/78/12 25/70/13 23/79/12
f 139/80/12 149/69/13 140/78/12
f 138/81/12 148/71/13 139/80/12
f 137/82/12 147/72/13 138/81/12
f 136/83/12 146/73/13 137/82/12
f 135/84/12 145/74/13 136/83/12
f 134/85/12 144/75/13 135/84/12
f 133/86/12 143/76/13 134/85/12
f 132/22/12 142/77/13 133/86/12
f 131/87/11 23/79/12 21/88/11
f 130/89/11 140/78/12 131/87/11
f 129/90/11 139/80/12 130/89/11
f 128/91/11 138/81/12 129/90/11
f 127/92/11 137/82/12 128/91/11
f 126/93/11 136/83/12 127/92/11
f 125/94/11 135/84/12 126/93/11
f 124/95/11 134/85/12 125/94/11
f 123/20/11 133/86/12 124/95/11
f 122/96/10 21/88/11 19/97/10
f 121/98/10 131/87/11 122/96/10
f 120/99/10 130/89/11 121/98/10
f 119/100/10 129/90/11 120/99/10
f 118/101/10 128/91/11 119/100/10
f 117/102/10 127/92/11 118/101/10
f 116/103/10 126/93/11 117/102/10
f 115/104/10 125/94/11 116/103/10
f 114/18/10 124/95/11 115/104/10
f 113/105/9 19/97/10 17/106/9
f 112/107/9 122/96/10 113/105/9
f 111/108/9 121/98/10 112/107/9
f 110/109/9 120/99/10 111/108/9
f 109/110/9 119/100/10 110/109/9
f 108/111/9 118/101/10 109/110/9
f 107/112/9 117/102/10 108/111/9
f 106/113/9 116/103/10 107/112/9
f 105/16/9 115/104/10 106/113/9
f 104/114/8 17/106/9 15/115/8
f 103/116/8 113/105/9 104/114/8
f 102/117/8 112/107/9 103/116/8
f 101/118/8 111/108/9 102/117/8
f 100/119/8 110/109/9 101/118/8
f 99/120/8 109/110/9 100/119/8
f 98/121/8 108/111/9 99/120/8
f 97/122/8 107/112/9 98/121/8
f 96/14/8 106/113/9 97/122/8
f 95/123/7 15/115/8 13/124/7
f 94/125/7 104/114/8 95/123/7
f 93/126/7 103/116/8 94/125/7
f 92/127/7 102/117/8 93/126/7
f 91/128/7 101/118/8 92/127/7
f 90/129/7 100/119/8 91/128/7
f 89/130/7 99/120/8 90/129/7
f 88/131/7 98/121/8 89/130/7
f 87/12/7 97/122/8 88/131/7
f 86/132/6 13/124/7 11/133/6
f 85/134/6 95/123/7 86/132/6
f 84/135/6 94/125/7 85/134/6
f 83/136/6 93/126/7 84/135/6
f 82/137/6 92/127/7 83/136/6
f 81/138/6 91/128/7 82/137/6
f 80/139/6 90/129/7 81/138/6
f 79/140/6 89/130/7 80/139/6
f 78/10/6 88/131/7 79/140/6
f 77/141/5 11/133/6 9/142/5
f 76/143/5 86/132/6 77/141/5
f 75/144/5 85/134/6 76/143/5
f 74/145/5 84/135/6 75/144/5
f 73/146/5 83/136/6 74/145/5
f 72/147/5 82/137/6 73/146/5
f 71/148/5 81/138/6 72/147/5
f 70/149/5 80/139/6 71/148/5
f 69/8/5 79/140/6 70/149/5
f 68/150/4 9/142/5 7/151/4
f 67/152/4 77/141/5 68/150/4
f 66/153/4 76/143/5 67/152/4
f 65/154/4 75/144/5 66/153/4
f 64/155/4 74/145/5 65/154/4
f 63/156/4 73/146/5 64/155/4
f 62/157/4 72/147/5 63/156/4
f 61/158/4 71/148/5 62/157/4
f 60/6/4 70/149/5 61/158/4
f 59/159/3 7/151/4 5/160/3
f 58/161/3 68/150/4 59/159/3
f 57/162/3 67/152/4 58/161/3
f 56/163/3 66/153/4 57/162/3
f 55/164/3 65/154/4 56/163/3
f 54/165/3 64/155/4 55/164/3
f 53/166/3 63/156/4 54/165/3
f 52/167/3 62/157/4 53/166/3
f 51/4/3 61/158/4 52/167/3
f 50/168/2 5/160/3 3/169/2
f 49/170/2 59/159/3 50/168/2
f 48/171/2 58/161/3 49/170/2
f 47/172/2 57/162/3 48/171/2
f 46/173/2 56/163/3 47/172/2
f 45/174/2 55/164/3 46/173/2
f 44/175/2 54/165/3 45/174/2
f 43/176/2 53/166/3 44/175/2
f 42/3/2 52/167/3 43/176/2
f 33/177/1 3/169/2 1/178/1
f 33/177/1 49/170/2 50/168/2
f 34/179/1 48/171/2 49/170/2
f 35/180/1 47/172/2 48/171/2
f 36/181/1 46/173/2 47/172/2
f 37/182/1 45/174/2 46/173/2
f 38/183/1 44/175/2 45/174/2
f 39/184/1 43/176/2 44/175/2
f 40/185/1 42/3/2 43/176/2
f 41/1/1 2/186/1 4/2/2
f 4/2/2 6/5/3 51/4/3
f 6/5/3 8/7/4 60/6/4
f 8/7/4 10/9/5 69/8/5
f 10/9/5 12/11/6 78/10/6
f 12/11/6 14/13/7 87/12/7
f 14/13/7 16/15/8 96/14/8
f 16/15/8 18/17/9 105/16/9
f 18/17/9 20/19/10 114/18/10
f 20/19/10 22/21/11 123/20/11
f 22/21/11 24/23/12 132/22/12
f 24/23/12 26/25/13 141/24/13
f 26/25/13 28/27/14 150/26/14
f 28/27/14 30/29/15 159/28/15
f 30/29/15 32/31/16 168/30/16
f 32/31/16 2/187/1 41/32/1
f 176/33/16 33/37/1 1/34/1
f 175/36/16 34/39/1 33/37/1
f 174/38/16 35/41/1 34/39/1
f 173/40/16 36/43/1 35/41/1
f 172/42/16 37/45/1 36/43/1
f 171/44/16 38/47/1 37/45/1
f 170/46/16 39/49/1 38/47/1
f 169/48/16 40/50/1 39/49/1
f 168/30/16 41/32/1 40/50/1
f 167/51/15 176/33/16 31/35/16
f 166/53/15 175/36/16 176/33/16
f 165/54/15 174/38/16 175/36/16
f 164/55/15 173/40/16 174/38/16
f 163/56/15 172/42/16 173/40/16
f 162/57/15 171/44/16 172/42/16
f 161/58/15 170/46/16 171/44/16
f 160/59/15 169/48/16 170/46/16
f 159/28/15 168/30/16 169/48/16
f 158/60/14 167/51/15 29/52/15
f 157/62/14 166/53/15 167/51/15
f 156/63/14 165/54/15 166/53/15
f 155/64/14 164/55/15 165/54/15
f 154/65/14 163/56/15 164/55/15
f 153/66/14 162/57/15 163/56/15
f 152/67/14 161/58/15 162/57/15
f 151/68/14 160/59/15 161/58/15
f 150/26/14 159/28/15 160/59/15
f 149/69/13 158/60/14 27/61/14
f 148/71/13 157/62/14 158/60/14
f 147/72/13 156/63/14 157/62/14
f 146/73/13 155/64/14 156/63/14
f 145/74/13 154/65/14 155/64/14
f 144/75/13 153/66/14 154/65/14
f 143/76/13 152/67/14 153/66/14
f 142/77/13 151/68/14 152/67/14
f 141/24/13 150/26/14 151/68/14
f 140/78/12 149/69/13 25/70/13
f 139/80/12 148/71/13 149/69/13
f 138/81/12 147/72/13 148/71/13
f 137/82/12 146/73/13 147/72/13
f 136/83/12 145/74/13 146/73/13
f 135/84/12 144/75/13 145/74/13
f 134/85/12 143/76/13 144/75/13
f 133/86/12 142/77/13 143/76/13
f 132/22/12 141/24/13 142/77/13
f 131/87/11 140/78/12 23/79/12
f 130/89/11 139/80/12 140/78/12
f 129/90/11 138/81/12 139/80/12
f 128/91/11 137/82/12 138/81/12
f 127/92/11 136/83/12 137/82/12
f 126/93/11 135/84/12 136/83/12
f 125/94/11 134/85/12 135/84/12
f 124/95/11 133/86/12 134/85/12
f 123/20/11 132/22/12 133/86/12
f 122/96/10 131/87/11 21/88/11
f 121/98/10 130/89/11 131/87/11
f 120/99/10 129/90/11 130/89/11
f 119/100/10 128/91/11 129/90/11
f 118/101/10 127/92/11 128/91/11
f 117/102/10 126/93/11 127/92/11
f 116/103/10 125/94/11 126/93/11
f 115/104/10 124/95/11 125/94/11
f 114/18/10 123/20/11 124/95/11
f 113/105/9 122/96/10 19/97/10
f 112/107/9 121/98/10 122/96/10
f 111/108/9 120/99/10 121/98/10
f 110/109/9 119/100/10 120/99/10
f 109/110/9 118/101/10 119/100/10
f 108/111/9 117/102/10 118/101/10
f 107/112/9 116/103/10 117/102/10
f 106/113/9 115/104/10 116/103/10
f 105/16/9 114/18/10 115/104/10
f 104/114/8 113/105/9 17/106/9
f 103/116/8 112/107/9 113/105/9
f 102/117/8 111/108/9 112/107/9
f 101/118/8 110/109/9 111/108/9
f 100/119/8 109/110/9 110/109/9
f 99/120/8 108/111/9 109/110/9
f 98/121/8 107/112/9 108/111/9
f 97/122/8 106/113/9 107/112/9
f 96/14/8 105/16/9 106/113/9
f 95/123/7 104/114/8 15/115/8
f 94/125/7 103/116/8 104/114/8
f 93/126/7 102/117/8 103/116/8
f 92/127/7 101/118/8 102/117/8
f 91/128/7 100/119/8 101/118/8
f 90/129/7 99/120/8 100/119/8
f 89/130/7 98/121/8 99/120/8
f 88/131/7 97/122/8 98/121/8
f 87/12/7 96/14/8 97/122/8
f 86/132/6 95/123/7 13/124/7
f 85/134/6 94/125/7 95/123/7
f 84/135/6 93/126/7 94/125/7
f 83/136/6 92/127/7 93/126/7
f 82/137/6 91/128/7 92/127/7
f 81/138/6 90/129/7 91/128/7
f 80/139/6 89/130/7 90/129/7
f 79/140/6 88/131/7 89/130/7
f 78/10/6 87/12/7 88/131/7
f 77/141/5 86/132/6 11/133/6
f 76/143/5 85/134/6 86/132/6
f 75/144/5 84/135/6 85/134/6
f 74/145/5 83/136/6 84/135/6
f 73/146/5 82/137/6 83/136/6
f 72/147/5 81/138/6 82/137/6
f 71/148/5 80/139/6 81/138/6
f 70/149/5 79/140/6 80/139/6
f 69/8/5 78/10/6 79/140/6
f 68/150/4 77/141/5 9/142/5
f 67/152/4 76/143/5 77/141/5
f 66/153/4 75/144/5 76/143/5
f 65/154/4 74/145/5 75/144/5
f 64/155/4 73/146/5 74/145/5
f 63/156/4 72/147/5 73/146/5
f 62/157/4 71/148/5 72/147/5
f 61/158/4 70/149/5 71/148/5
f 60/6/4 69/8/5 70/149/5
f 59/159/3 68/150/4 7/151/4
f 58/161/3 67/152/4 68/150/4
f 57/162/3 66/153/4 67/152/4
f 56/163/3 65/154/4 66/153/4
f 55/164/3 64/155/4 65/154/4
f 54/165/3 63/156/4 64/155/4
f 53/166/3 62/157/4 63/156/4
f 52/167/3 61/158/4 62/157/4
f 51/4/3 60/6/4 61/158/4
f 50/168/2 59/159/3 5/160/3
f 49/170/2 58/161/3 59/159/3
f 48/171/2 57/162/3 58/161/3
f 47/172/2 56/163/3 57/162/3
f 46/173/2 55/164/3 56/163/3
f 45/174/2 54/165/3 55/164/3
f 44/175/2 53/166/3 54/165/3
f 43/176/2 52/167/3 53/166/3
f 42/3/2 51/4/3 52/167/3
f 33/177/1 50/168/2 3/169/2
f 33/177/1 34/179/1 49/170/2
f 34/179/1 35/180/1 48/171/2
f 35/180/1 36/181/1 47/172/2
f 36/181/1 37/182/1 46/173/2
f 37/182/1 38/183/1 45/174/2
f 38/183/1 39/184/1 44/175/2
f 39/184/1 40/185/1 43/176/2
f 40/185/1 41/1/1 42/3/2
