# Blender 4.3.2
# www.blender.org
mtllib CoalingTowerLadders.mtl
g CoalingTowerLadders_Mesh
v 0.000000 0.000000 1.700000
v 0.000000 4.900000 1.700000
v 0.000000 0.000000 1.550000
v 0.000000 4.900000 1.550000
v 0.100000 0.000000 1.700000
v 0.100000 4.900000 1.700000
v 0.100000 0.000000 1.550000
v 0.100000 4.900000 1.550000
v 0.000000 0.000000 2.650000
v 0.000000 4.900000 2.650000
v 0.000000 0.000000 2.500000
v 0.000000 4.900000 2.500000
v 0.100000 0.000000 2.650000
v 0.100000 4.900000 2.650000
v 0.100000 0.000000 2.500000
v 0.100000 4.900000 2.500000
v 0.050000 0.100000 2.700000
v 0.050000 0.250000 2.700000
v 0.050000 0.100000 1.500000
v 0.050000 0.250000 1.500000
v 0.150000 0.100000 2.700000
v 0.150000 0.250000 2.700000
v 0.150000 0.100000 1.500000
v 0.150000 0.250000 1.500000
v 0.050000 0.600000 2.700000
v 0.050000 0.750000 2.700000
v 0.050000 0.600000 1.500000
v 0.050000 0.750000 1.500000
v 0.150000 0.600000 2.700000
v 0.150000 0.750000 2.700000
v 0.150000 0.600000 1.500000
v 0.150000 0.750000 1.500000
v 0.050000 1.100000 2.700000
v 0.050000 1.250000 2.700000
v 0.050000 1.100000 1.500000
v 0.050000 1.250000 1.500000
v 0.150000 1.100000 2.700000
v 0.150000 1.250000 2.700000
v 0.150000 1.100000 1.500000
v 0.150000 1.250000 1.500000
v 0.050000 1.600000 2.700000
v 0.050000 1.750000 2.700000
v 0.050000 1.600000 1.500000
v 0.050000 1.750000 1.500000
v 0.150000 1.600000 2.700000
v 0.150000 1.750000 2.700000
v 0.150000 1.600000 1.500000
v 0.150000 1.750000 1.500000
v 0.050000 2.100000 2.700000
v 0.050000 2.250000 2.700000
v 0.050000 2.100000 1.500000
v 0.050000 2.250000 1.500000
v 0.150000 2.100000 2.700000
v 0.150000 2.250000 2.700000
v 0.150000 2.100000 1.500000
v 0.150000 2.250000 1.500000
v 0.050000 2.600000 2.700000
v 0.050000 2.750000 2.700000
v 0.050000 2.600000 1.500000
v 0.050000 2.750000 1.500000
v 0.150000 2.600000 2.700000
v 0.150000 2.750000 2.700000
v 0.150000 2.600000 1.500000
v 0.150000 2.750000 1.500000
v 0.050000 3.100000 2.700000
v 0.050000 3.250000 2.700000
v 0.050000 3.100000 1.500000
v 0.050000 3.250000 1.500000
v 0.150000 3.100000 2.700000
v 0.150000 3.250000 2.700000
v 0.150000 3.100000 1.500000
v 0.150000 3.250000 1.500000
v 0.050000 3.600000 2.700000
v 0.050000 3.750000 2.700000
v 0.050000 3.600000 1.500000
v 0.050000 3.750000 1.500000
v 0.150000 3.600000 2.700000
v 0.150000 3.750000 2.700000
v 0.150000 3.600000 1.500000
v 0.150000 3.750000 1.500000
v 0.050000 4.100000 2.700000
v 0.050000 4.250000 2.700000
v 0.050000 4.100000 1.500000
v 0.050000 4.250000 1.500000
v 0.150000 4.100000 2.700000
v 0.150000 4.250000 2.700000
v 0.150000 4.100000 1.500000
v 0.150000 4.250000 1.500000
v 0.000000 4.500000 1.500000
v 0.000000 4.400000 1.500000
v 0.000000 4.500000 3.000000
v 0.000000 4.400000 3.000000
v -3.000000 4.500000 1.500000
v -3.000000 4.400000 1.500000
v -3.000000 4.500000 3.000000
v -3.000000 4.400000 3.000000
v -4.200000 4.500000 1.500000
v -4.200000 4.400000 1.500000
v -4.200000 4.500000 3.000000
v -4.200000 4.400000 3.000000
v -3.000000 8.900000 1.500000
v -3.000000 9.000000 1.500000
v -3.000000 8.900000 -1.500000
v -3.000000 9.000000 -1.500000
v -3.125000 4.500000 1.425000
v -3.125000 9.400000 1.425000
v -2.975000 4.500000 1.425000
v -2.975000 9.400000 1.425000
v -3.125000 4.500000 1.525000
v -3.125000 9.400000 1.525000
v -2.975000 4.500000 1.525000
v -2.975000 9.400000 1.525000
v -4.075000 4.500000 1.425000
v -4.075000 9.400000 1.425000
v -3.925000 4.500000 1.425000
v -3.925000 9.400000 1.425000
v -4.075000 4.500000 1.525000
v -4.075000 9.400000 1.525000
v -3.925000 4.500000 1.525000
v -3.925000 9.400000 1.525000
v -4.125000 4.600000 1.475000
v -4.125000 4.750000 1.475000
v -2.925000 4.600000 1.475000
v -2.925000 4.750000 1.475000
v -4.125000 4.600000 1.575000
v -4.125000 4.750000 1.575000
v -2.925000 4.600000 1.575000
v -2.925000 4.750000 1.575000
v -4.125000 5.100000 1.475000
v -4.125000 5.250000 1.475000
v -2.925000 5.100000 1.475000
v -2.925000 5.250000 1.475000
v -4.125000 5.100000 1.575000
v -4.125000 5.250000 1.575000
v -2.925000 5.100000 1.575000
v -2.925000 5.250000 1.575000
v -4.125000 5.600000 1.475000
v -4.125000 5.750000 1.475000
v -2.925000 5.600000 1.475000
v -2.925000 5.750000 1.475000
v -4.125000 5.600000 1.575000
v -4.125000 5.750000 1.575000
v -2.925000 5.600000 1.575000
v -2.925000 5.750000 1.575000
v -4.125000 6.100000 1.475000
v -4.125000 6.250000 1.475000
v -2.925000 6.100000 1.475000
v -2.925000 6.250000 1.475000
v -4.125000 6.100000 1.575000
v -4.125000 6.250000 1.575000
v -2.925000 6.100000 1.575000
v -2.925000 6.250000 1.575000
v -4.125000 6.600000 1.475000
v -4.125000 6.750000 1.475000
v -2.925000 6.600000 1.475000
v -2.925000 6.750000 1.475000
v -4.125000 6.600000 1.575000
v -4.125000 6.750000 1.575000
v -2.925000 6.600000 1.575000
v -2.925000 6.750000 1.575000
v -4.125000 7.100000 1.475000
v -4.125000 7.250000 1.475000
v -2.925000 7.100000 1.475000
v -2.925000 7.250000 1.475000
v -4.125000 7.100000 1.575000
v -4.125000 7.250000 1.575000
v -2.925000 7.100000 1.575000
v -2.925000 7.250000 1.575000
v -4.125000 7.600000 1.475000
v -4.125000 7.750000 1.475000
v -2.925000 7.600000 1.475000
v -2.925000 7.750000 1.475000
v -4.125000 7.600000 1.575000
v -4.125000 7.750000 1.575000
v -2.925000 7.600000 1.575000
v -2.925000 7.750000 1.575000
v -4.125000 8.099999 1.475000
v -4.125000 8.249999 1.475000
v -2.925000 8.099999 1.475000
v -2.925000 8.249999 1.475000
v -4.125000 8.099999 1.575000
v -4.125000 8.249999 1.575000
v -2.925000 8.099999 1.575000
v -2.925000 8.249999 1.575000
v -4.125000 8.599999 1.475000
v -4.125000 8.750000 1.475000
v -2.925000 8.599999 1.475000
v -2.925000 8.750000 1.475000
v -4.125000 8.599999 1.575000
v -4.125000 8.750000 1.575000
v -2.925000 8.599999 1.575000
v -2.925000 8.750000 1.575000
v -4.500000 9.000000 1.500000
v -4.500000 8.900000 1.500000
v -4.500000 9.000000 -1.500000
v -4.500000 8.900000 -1.500000
vn -1.0000 -0.0000 -0.0000
vn -0.0000 -0.0000 -1.0000
vn 1.0000 -0.0000 -0.0000
vn -0.0000 -0.0000 1.0000
vn -0.0000 -1.0000 -0.0000
vn -0.0000 1.0000 -0.0000
vt 0.625000 0.000000
vt 0.375000 0.250000
vt 0.375000 0.000000
vt 0.625000 0.250000
vt 0.375000 0.500000
vt 0.625000 0.500000
vt 0.375000 0.750000
vt 0.625000 0.750000
vt 0.375000 1.000000
vt 0.125000 0.750000
vt 0.125000 0.500000
vt 0.875000 0.500000
vt 0.625000 1.000000
vt 0.875000 0.750000
s 0
f 2/1/1 3/2/1 1/3/1
f 4/4/2 7/5/2 3/2/2
f 8/6/3 5/7/3 7/5/3
f 6/8/4 1/9/4 5/7/4
f 7/5/5 1/10/5 3/11/5
f 4/12/6 6/8/6 8/6/6
f 10/1/1 11/2/1 9/3/1
f 12/4/2 15/5/2 11/2/2
f 16/6/3 13/7/3 15/5/3
f 14/8/4 9/9/4 13/7/4
f 15/5/5 9/10/5 11/11/5
f 12/12/6 14/8/6 16/6/6
f 18/1/1 19/2/1 17/3/1
f 20/4/2 23/5/2 19/2/2
f 24/6/3 21/7/3 23/5/3
f 22/8/4 17/9/4 21/7/4
f 23/5/5 17/10/5 19/11/5
f 20/12/6 22/8/6 24/6/6
f 26/1/1 27/2/1 25/3/1
f 28/4/2 31/5/2 27/2/2
f 32/6/3 29/7/3 31/5/3
f 30/8/4 25/9/4 29/7/4
f 31/5/5 25/10/5 27/11/5
f 28/12/6 30/8/6 32/6/6
f 34/1/1 35/2/1 33/3/1
f 36/4/2 39/5/2 35/2/2
f 40/6/3 37/7/3 39/5/3
f 38/8/4 33/9/4 37/7/4
f 39/5/5 33/10/5 35/11/5
f 36/12/6 38/8/6 40/6/6
f 42/1/1 43/2/1 41/3/1
f 44/4/2 47/5/2 43/2/2
f 48/6/3 45/7/3 47/5/3
f 46/8/4 41/9/4 45/7/4
f 47/5/5 41/10/5 43/11/5
f 44/12/6 46/8/6 48/6/6
f 50/1/1 51/2/1 49/3/1
f 52/4/2 55/5/2 51/2/2
f 56/6/3 53/7/3 55/5/3
f 54/8/4 49/9/4 53/7/4
f 55/5/5 49/10/5 51/11/5
f 52/12/6 54/8/6 56/6/6
f 58/1/1 59/2/1 57/3/1
f 60/4/2 63/5/2 59/2/2
f 64/6/3 61/7/3 63/5/3
f 62/8/4 57/9/4 61/7/4
f 63/5/5 57/10/5 59/11/5
f 60/12/6 62/8/6 64/6/6
f 66/1/1 67/2/1 65/3/1
f 68/4/2 71/5/2 67/2/2
f 72/6/3 69/7/3 71/5/3
f 70/8/4 65/9/4 69/7/4
f 71/5/5 65/10/5 67/11/5
f 68/12/6 70/8/6 72/6/6
f 74/1/1 75/2/1 73/3/1
f 76/4/2 79/5/2 75/2/2
f 80/6/3 77/7/3 79/5/3
f 78/8/4 73/9/4 77/7/4
f 79/5/5 73/10/5 75/11/5
f 76/12/6 78/8/6 80/6/6
f 82/1/1 83/2/1 81/3/1
f 84/4/2 87/5/2 83/2/2
f 88/6/3 85/7/3 87/5/3
f 86/8/4 81/9/4 85/7/4
f 87/5/5 81/10/5 83/11/5
f 84/12/6 86/8/6 88/6/6
f 93/1/6 91/2/6 89/3/6
f 90/4/5 96/5/5 94/2/5
f 91/6/4 96/7/4 92/5/4
f 89/8/3 92/9/3 90/7/3
f 93/5/2 90/10/2 94/11/2
f 95/8/4 100/7/4 96/7/4
f 99/12/1 98/8/1 100/6/1
f 103/4/5 194/5/5 196/2/5
f 96/5/5 98/2/5 94/2/5
f 93/1/6 99/4/6 95/4/6
f 104/8/3 101/9/3 103/7/3
f 102/6/4 194/7/4 101/5/4
f 195/1/6 102/2/6 104/3/6
f 98/2/2 93/1/2 94/2/2
f 106/1/2 107/2/2 105/3/2
f 108/4/3 111/5/3 107/2/3
f 112/6/4 109/7/4 111/5/4
f 110/8/1 105/9/1 109/7/1
f 111/5/5 105/10/5 107/11/5
f 108/12/6 110/8/6 112/6/6
f 114/1/2 115/2/2 113/3/2
f 116/4/3 119/5/3 115/2/3
f 120/6/4 117/7/4 119/5/4
f 118/8/1 113/9/1 117/7/1
f 119/5/5 113/10/5 115/11/5
f 116/12/6 118/8/6 120/6/6
f 122/1/2 123/2/2 121/3/2
f 124/4/3 127/5/3 123/2/3
f 128/6/4 125/7/4 127/5/4
f 126/8/1 121/9/1 125/7/1
f 127/5/5 121/10/5 123/11/5
f 124/12/6 126/8/6 128/6/6
f 130/1/2 131/2/2 129/3/2
f 132/4/3 135/5/3 131/2/3
f 136/6/4 133/7/4 135/5/4
f 134/8/1 129/9/1 133/7/1
f 135/5/5 129/10/5 131/11/5
f 132/12/6 134/8/6 136/6/6
f 138/1/2 139/2/2 137/3/2
f 140/4/3 143/5/3 139/2/3
f 144/6/4 141/7/4 143/5/4
f 142/8/1 137/9/1 141/7/1
f 143/5/5 137/10/5 139/11/5
f 140/12/6 142/8/6 144/6/6
f 146/1/2 147/2/2 145/3/2
f 148/4/3 151/5/3 147/2/3
f 152/6/4 149/7/4 151/5/4
f 150/8/1 145/9/1 149/7/1
f 151/5/5 145/10/5 147/11/5
f 148/12/6 150/8/6 152/6/6
f 154/1/2 155/2/2 153/3/2
f 156/4/3 159/5/3 155/2/3
f 160/6/4 157/7/4 159/5/4
f 158/8/1 153/9/1 157/7/1
f 159/5/5 153/10/5 155/11/5
f 156/12/6 158/8/6 160/6/6
f 162/1/2 163/2/2 161/3/2
f 164/4/3 167/5/3 163/2/3
f 168/6/4 165/7/4 167/5/4
f 166/8/1 161/9/1 165/7/1
f 167/5/5 161/10/5 163/11/5
f 164/12/6 166/8/6 168/6/6
f 170/1/2 171/2/2 169/3/2
f 172/4/3 175/5/3 171/2/3
f 176/6/4 173/7/4 175/5/4
f 174/8/1 169/9/1 173/7/1
f 175/5/5 169/10/5 171/11/5
f 172/12/6 174/8/6 176/6/6
f 178/1/2 179/2/2 177/3/2
f 180/4/3 183/5/3 179/2/3
f 184/6/4 181/7/4 183/5/4
f 182/8/1 177/9/1 181/7/1
f 183/5/5 177/10/5 179/11/5
f 180/12/6 182/8/6 184/6/6
f 186/1/2 187/2/2 185/3/2
f 188/4/3 191/5/3 187/2/3
f 192/6/4 189/7/4 191/5/4
f 190/8/1 185/9/1 189/7/1
f 191/5/5 185/10/5 187/11/5
f 188/12/6 190/8/6 192/6/6
f 195/5/2 103/10/2 196/11/2
f 193/12/1 196/8/1 194/6/1
f 2/1/1 4/4/1 3/2/1
f 4/4/2 8/6/2 7/5/2
f 8/6/3 6/8/3 5/7/3
f 6/8/4 2/13/4 1/9/4
f 7/5/5 5/7/5 1/10/5
f 4/12/6 2/14/6 6/8/6
f 10/1/1 12/4/1 11/2/1
f 12/4/2 16/6/2 15/5/2
f 16/6/3 14/8/3 13/7/3
f 14/8/4 10/13/4 9/9/4
f 15/5/5 13/7/5 9/10/5
f 12/12/6 10/14/6 14/8/6
f 18/1/1 20/4/1 19/2/1
f 20/4/2 24/6/2 23/5/2
f 24/6/3 22/8/3 21/7/3
f 22/8/4 18/13/4 17/9/4
f 23/5/5 21/7/5 17/10/5
f 20/12/6 18/14/6 22/8/6
f 26/1/1 28/4/1 27/2/1
f 28/4/2 32/6/2 31/5/2
f 32/6/3 30/8/3 29/7/3
f 30/8/4 26/13/4 25/9/4
f 31/5/5 29/7/5 25/10/5
f 28/12/6 26/14/6 30/8/6
f 34/1/1 36/4/1 35/2/1
f 36/4/2 40/6/2 39/5/2
f 40/6/3 38/8/3 37/7/3
f 38/8/4 34/13/4 33/9/4
f 39/5/5 37/7/5 33/10/5
f 36/12/6 34/14/6 38/8/6
f 42/1/1 44/4/1 43/2/1
f 44/4/2 48/6/2 47/5/2
f 48/6/3 46/8/3 45/7/3
f 46/8/4 42/13/4 41/9/4
f 47/5/5 45/7/5 41/10/5
f 44/12/6 42/14/6 46/8/6
f 50/1/1 52/4/1 51/2/1
f 52/4/2 56/6/2 55/5/2
f 56/6/3 54/8/3 53/7/3
f 54/8/4 50/13/4 49/9/4
f 55/5/5 53/7/5 49/10/5
f 52/12/6 50/14/6 54/8/6
f 58/1/1 60/4/1 59/2/1
f 60/4/2 64/6/2 63/5/2
f 64/6/3 62/8/3 61/7/3
f 62/8/4 58/13/4 57/9/4
f 63/5/5 61/7/5 57/10/5
f 60/12/6 58/14/6 62/8/6
f 66/1/1 68/4/1 67/2/1
f 68/4/2 72/6/2 71/5/2
f 72/6/3 70/8/3 69/7/3
f 70/8/4 66/13/4 65/9/4
f 71/5/5 69/7/5 65/10/5
f 68/12/6 66/14/6 70/8/6
f 74/1/1 76/4/1 75/2/1
f 76/4/2 80/6/2 79/5/2
f 80/6/3 78/8/3 77/7/3
f 78/8/4 74/13/4 73/9/4
f 79/5/5 77/7/5 73/10/5
f 76/12/6 74/14/6 78/8/6
f 82/1/1 84/4/1 83/2/1
f 84/4/2 88/6/2 87/5/2
f 88/6/3 86/8/3 85/7/3
f 86/8/4 82/13/4 81/9/4
f 87/5/5 85/7/5 81/10/5
f 84/12/6 82/14/6 86/8/6
f 93/1/6 95/4/6 91/2/6
f 90/4/5 92/6/5 96/5/5
f 91/6/4 95/8/4 96/7/4
f 89/8/3 91/13/3 92/9/3
f 93/5/2 89/7/2 90/10/2
f 95/8/4 99/8/4 100/7/4
f 99/12/1 97/14/1 98/8/1
f 103/4/5 101/6/5 194/5/5
f 96/5/5 100/5/5 98/2/5
f 93/1/6 97/1/6 99/4/6
f 104/8/3 102/13/3 101/9/3
f 102/6/4 193/8/4 194/7/4
f 195/1/6 193/4/6 102/2/6
f 98/2/2 97/14/2 93/1/2
f 106/1/2 108/4/2 107/2/2
f 108/4/3 112/6/3 111/5/3
f 112/6/4 110/8/4 109/7/4
f 110/8/1 106/13/1 105/9/1
f 111/5/5 109/7/5 105/10/5
f 108/12/6 106/14/6 110/8/6
f 114/1/2 116/4/2 115/2/2
f 116/4/3 120/6/3 119/5/3
f 120/6/4 118/8/4 117/7/4
f 118/8/1 114/13/1 113/9/1
f 119/5/5 117/7/5 113/10/5
f 116/12/6 114/14/6 118/8/6
f 122/1/2 124/4/2 123/2/2
f 124/4/3 128/6/3 127/5/3
f 128/6/4 126/8/4 125/7/4
f 126/8/1 122/13/1 121/9/1
f 127/5/5 125/7/5 121/10/5
f 124/12/6 122/14/6 126/8/6
f 130/1/2 132/4/2 131/2/2
f 132/4/3 136/6/3 135/5/3
f 136/6/4 134/8/4 133/7/4
f 134/8/1 130/13/1 129/9/1
f 135/5/5 133/7/5 129/10/5
f 132/12/6 130/14/6 134/8/6
f 138/1/2 140/4/2 139/2/2
f 140/4/3 144/6/3 143/5/3
f 144/6/4 142/8/4 141/7/4
f 142/8/1 138/13/1 137/9/1
f 143/5/5 141/7/5 137/10/5
f 140/12/6 138/14/6 142/8/6
f 146/1/2 148/4/2 147/2/2
f 148/4/3 152/6/3 151/5/3
f 152/6/4 150/8/4 149/7/4
f 150/8/1 146/13/1 145/9/1
f 151/5/5 149/7/5 145/10/5
f 148/12/6 146/14/6 150/8/6
f 154/1/2 156/4/2 155/2/2
f 156/4/3 160/6/3 159/5/3
f 160/6/4 158/8/4 157/7/4
f 158/8/1 154/13/1 153/9/1
f 159/5/5 157/7/5 153/10/5
f 156/12/6 154/14/6 158/8/6
f 162/1/2 164/4/2 163/2/2
f 164/4/3 168/6/3 167/5/3
f 168/6/4 166/8/4 165/7/4
f 166/8/1 162/13/1 161/9/1
f 167/5/5 165/7/5 161/10/5
f 164/12/6 162/14/6 166/8/6
f 170/1/2 172/4/2 171/2/2
f 172/4/3 176/6/3 175/5/3
f 176/6/4 174/8/4 173/7/4
f 174/8/1 170/13/1 169/9/1
f 175/5/5 173/7/5 169/10/5
f 172/12/6 170/14/6 174/8/6
f 178/1/2 180/4/2 179/2/2
f 180/4/3 184/6/3 183/5/3
f 184/6/4 182/8/4 181/7/4
f 182/8/1 178/13/1 177/9/1
f 183/5/5 181/7/5 177/10/5
f 180/12/6 178/14/6 182/8/6
f 186/1/2 188/4/2 187/2/2
f 188/4/3 192/6/3 191/5/3
f 192/6/4 190/8/4 189/7/4
f 190/8/1 186/13/1 185/9/1
f 191/5/5 189/7/5 185/10/5
f 188/12/6 186/14/6 190/8/6
f 195/5/2 104/7/2 103/10/2
f 193/12/1 195/14/1 196/8/1
