# Blender 4.3.2
# www.blender.org
mtllib CoalingTower.mtl
g CoalingTower_Mesh
v -2.900000 5.900000 1.400000
v -2.900000 9.000000 1.400000
v -2.900000 5.900000 -1.400000
v -2.900000 9.000000 -1.400000
v -0.100000 4.500000 1.400000
v -0.100000 9.000000 1.400000
v -0.100000 4.500000 -1.400000
v -0.100000 9.000000 -1.400000
v -0.200000 0.000000 -1.300000
v -0.200000 9.000000 -1.300000
v -0.200000 0.000000 -1.500000
v -0.200000 9.000000 -1.500000
v 0.000000 0.000000 -1.300000
v 0.000000 9.000000 -1.300000
v 0.000000 0.000000 -1.500000
v 0.000000 9.000000 -1.500000
v 0.040000 1.400000 -1.400000
v 0.040000 0.199999 1.400000
v 0.040000 1.200000 -1.400000
v 0.040000 -0.000000 1.400000
v -0.040000 1.400000 -1.400000
v -0.040000 0.199999 1.400000
v -0.040000 1.200000 -1.400000
v -0.040000 -0.000000 1.400000
v -0.100000 7.200000 0.600000
v -0.100000 7.200000 -0.600000
v -0.100000 7.000000 0.600000
v -0.100000 7.000000 -0.600000
v -0.000000 7.200000 0.600000
v -0.000000 7.200000 -0.600000
v -0.000000 7.000000 0.600000
v -0.000000 7.000000 -0.600000
v -0.100000 8.800000 0.600000
v -0.100000 2.600000 0.600000
v -0.100000 8.800000 0.799999
v -0.100000 2.600000 0.800000
v -0.000000 8.800000 0.600000
v -0.000000 2.600000 0.600000
v -0.000000 8.800000 0.799999
v -0.000000 2.600000 0.800000
v -0.100000 8.800000 -0.800000
v -0.100000 2.600000 -0.800000
v -0.100000 8.800000 -0.600001
v -0.100000 2.600000 -0.600000
v -0.000000 8.800000 -0.800000
v -0.000000 2.600000 -0.800000
v -0.000000 8.800000 -0.600001
v -0.000000 2.600000 -0.600000
v -1.200000 0.000000 -1.300000
v -1.200000 8.800000 -1.300000
v -1.200000 0.000000 -1.500000
v -1.200000 8.800000 -1.500000
v -1.000000 0.000000 -1.300000
v -1.000000 8.800000 -1.300000
v -1.000000 0.000000 -1.500000
v -1.000000 8.800000 -1.500000
v -0.100000 4.400000 -1.350000
v -2.900000 5.800000 -1.350001
v -0.100000 4.400000 -1.450000
v -2.900000 5.800000 -1.450000
v -0.100000 4.600000 -1.350000
v -2.900000 6.000000 -1.350000
v -0.100000 4.600000 -1.450000
v -2.900000 6.000000 -1.450000
v -3.000000 0.000000 -1.300000
v -3.000000 9.000000 -1.300000
v -3.000000 0.000000 -1.500000
v -3.000000 9.000000 -1.500000
v -2.800000 0.000000 -1.300000
v -2.800000 9.000000 -1.300000
v -2.800000 0.000000 -1.500000
v -2.800000 9.000000 -1.500000
v -0.200000 8.800000 -1.400000
v -2.800000 8.799999 -1.400000
v -0.200000 8.800000 -1.500000
v -2.800000 8.799999 -1.500000
v -0.200000 9.000000 -1.400000
v -2.800000 9.000000 -1.400000
v -0.200000 9.000000 -1.500000
v -2.800000 9.000000 -1.500000
v -0.100000 4.600000 -1.350000
v -2.900000 6.000000 -1.350001
v -0.100000 4.600000 -1.430000
v -2.900000 6.000000 -1.430000
v -0.100000 4.800000 -1.350000
v -2.900000 6.200000 -1.350000
v -0.100000 4.800000 -1.430000
v -2.900000 6.200000 -1.430000
v -0.100000 4.800000 1.300000
v -0.100000 4.800000 -1.300000
v -0.100000 4.600000 1.300000
v -0.100000 4.600000 -1.300000
v -0.070000 4.800000 1.300000
v -0.070000 4.800000 -1.300000
v -0.070000 4.600000 1.300000
v -0.070000 4.600000 -1.300000
v -0.100000 7.400000 0.600000
v -0.100000 7.400000 -0.600000
v -0.100000 7.200000 0.600000
v -0.100000 7.200000 -0.600000
v -0.070000 7.400000 0.600000
v -0.070000 7.400000 -0.600000
v -0.070000 7.200000 0.600000
v -0.070000 7.200000 -0.600000
v -0.100001 8.800000 1.300000
v -0.100000 8.799999 -1.300000
v -0.000001 8.800000 1.300000
v 0.000000 8.799999 -1.300000
v -0.100001 9.000000 1.300000
v -0.100000 9.000000 -1.300000
v -0.000001 9.000000 1.300000
v 0.000000 9.000000 -1.300000
v -0.200000 0.000000 1.500000
v -0.200000 9.000000 1.500000
v -0.200000 0.000000 1.300000
v -0.200000 9.000000 1.300000
v 0.000000 0.000000 1.500000
v 0.000000 9.000000 1.500000
v 0.000000 0.000000 1.300000
v 0.000000 9.000000 1.300000
v -0.100000 2.400001 0.600000
v -0.100000 0.000000 0.600000
v -0.100000 2.400001 0.799999
v -0.100000 0.000000 0.800000
v -0.000000 2.400001 0.600000
v -0.000000 0.000000 0.600000
v -0.000000 2.400001 0.799999
v -0.000000 0.000000 0.800000
v -0.100000 2.400001 -0.800000
v -0.100000 0.000000 -0.800000
v -0.100000 2.400001 -0.600001
v -0.100000 0.000000 -0.600000
v -0.000000 2.400001 -0.800000
v -0.000000 0.000000 -0.800000
v -0.000000 2.400001 -0.600001
v -0.000000 0.000000 -0.600000
v -0.100000 6.150000 -0.800000
v -0.100000 6.150000 -1.300000
v -0.100000 5.950001 -0.800000
v -0.100000 5.950000 -1.300000
v -0.000000 6.150000 -0.800000
v -0.000000 6.150000 -1.300000
v -0.000000 5.950001 -0.800000
v -0.000000 5.950000 -1.300000
v -0.100000 6.150000 1.300000
v -0.100000 6.150000 0.800000
v -0.100000 5.950001 1.300000
v -0.100000 5.950000 0.800000
v -0.000000 6.150000 1.300000
v -0.000000 6.150000 0.800000
v -0.000000 5.950001 1.300000
v -0.000000 5.950000 0.800000
v -0.200000 6.150000 -1.400000
v -2.800000 6.150000 -1.400000
v -0.200000 5.950001 -1.400000
v -2.800000 5.950000 -1.400000
v -0.200000 6.150000 -1.450000
v -2.800000 6.150000 -1.450000
v -0.200000 5.950001 -1.450000
v -2.800000 5.950000 -1.450000
v -0.050000 2.700000 1.400000
v -0.050000 2.700000 -1.400000
v -0.050000 2.600000 1.400000
v -0.050000 2.600000 -1.400000
v 1.000000 2.700000 1.400000
v 1.000000 2.700000 -1.400000
v 1.000000 2.600000 1.400000
v 1.000000 2.600000 -1.400000
v 0.700000 2.600000 -1.500000
v 0.700000 2.500000 -1.500000
v 0.700000 2.600000 1.500000
v 0.700000 2.500000 1.500000
v 0.800000 2.600000 -1.500000
v 0.800000 2.500000 -1.500000
v 0.800000 2.600000 1.500000
v 0.800000 2.500000 1.500000
v 0.700000 2.600000 0.650000
v -0.100000 1.800000 0.650000
v 0.700000 2.600000 0.749999
v -0.100000 1.800000 0.750000
v 0.800000 2.500001 0.650000
v -0.000000 1.700000 0.650000
v 0.800000 2.500000 0.749999
v 0.000000 1.700000 0.750000
v 0.700000 2.600000 -0.750000
v -0.100000 1.800000 -0.750000
v 0.700000 2.600000 -0.650001
v -0.100000 1.800000 -0.650000
v 0.800000 2.500001 -0.750000
v -0.000000 1.700000 -0.750000
v 0.800000 2.500000 -0.650001
v 0.000000 1.700000 -0.650000
v -3.000000 0.600000 1.700000
v -3.000000 0.600001 -1.700000
v -3.000000 0.800000 1.700000
v -3.000000 0.800000 -1.700000
v -3.100000 0.600000 1.700000
v -3.100000 0.600001 -1.700000
v -3.100000 0.800000 1.700000
v -3.100000 0.800000 -1.700000
v -3.100000 2.800000 -1.700000
v -3.100000 2.800000 1.700000
v -3.100000 2.600001 -1.700000
v -3.100000 2.600000 1.700000
v -3.000000 2.800000 -1.700000
v -3.000000 2.800000 1.700000
v -3.000000 2.600001 -1.700000
v -3.000000 2.600000 1.700000
v -2.700000 2.600000 1.700000
v -2.700000 2.600001 -1.700000
v -2.700000 2.800000 1.700000
v -2.700000 2.800000 -1.700000
v -2.800000 2.600000 1.700000
v -2.800000 2.600001 -1.700000
v -2.800000 2.800000 1.700000
v -2.800000 2.800000 -1.700000
v -1.200000 0.000000 1.300000
v -1.200000 8.800000 1.300000
v -1.200000 0.000000 1.500000
v -1.200000 8.800000 1.500000
v -1.000000 0.000000 1.300000
v -1.000000 8.800000 1.300000
v -1.000000 0.000000 1.500000
v -1.000000 8.800000 1.500000
v -0.100000 4.400000 1.350000
v -2.900000 5.800000 1.350001
v -0.100000 4.400000 1.450000
v -2.900000 5.800000 1.450000
v -0.100000 4.600000 1.350000
v -2.900000 6.000000 1.350000
v -0.100000 4.600000 1.450000
v -2.900000 6.000000 1.450000
v -3.000000 0.000000 1.300000
v -3.000000 9.000000 1.300000
v -3.000000 0.000000 1.500000
v -3.000000 9.000000 1.500000
v -2.800000 0.000000 1.300000
v -2.800000 9.000000 1.300000
v -2.800000 0.000000 1.500000
v -2.800000 9.000000 1.500000
v -0.200000 8.800000 1.400000
v -2.800000 8.799999 1.400000
v -0.200000 8.800000 1.500000
v -2.800000 8.799999 1.500000
v -0.200000 9.000000 1.400000
v -2.800000 9.000000 1.400000
v -0.200000 9.000000 1.500000
v -2.800000 9.000000 1.500000
v -0.100000 4.600000 1.350000
v -2.900000 6.000000 1.350001
v -0.100000 4.600000 1.430000
v -2.900000 6.000000 1.430000
v -0.100000 4.800000 1.350000
v -2.900000 6.200000 1.350000
v -0.100000 4.800000 1.430000
v -2.900000 6.200000 1.430000
v -0.200000 6.150000 1.400000
v -2.800000 6.150000 1.400000
v -0.200000 5.950001 1.400000
v -2.800000 5.950000 1.400000
v -0.200000 6.150000 1.450000
v -2.800000 6.150000 1.450000
v -0.200000 5.950001 1.450000
v -2.800000 5.950000 1.450000
v -0.050000 2.600000 1.450000
v -3.100000 2.600000 1.450000
v -0.050000 2.400001 1.450000
v -3.100000 2.400000 1.450000
v -0.050000 2.600000 1.550000
v -3.100000 2.600000 1.550000
v -0.050000 2.400001 1.550000
v -3.100000 2.400000 1.550000
v -3.100000 4.800000 -1.700000
v -3.100000 4.800000 1.700000
v -3.100000 4.600000 -1.700000
v -3.100000 4.600000 1.700000
v -3.000000 4.800000 -1.700000
v -3.000000 4.800000 1.700000
v -3.000000 4.600000 -1.700000
v -3.000000 4.600000 1.700000
v -2.800000 0.800000 -1.700000
v -2.800000 0.800000 1.700000
v -2.800000 0.600001 -1.700000
v -2.800000 0.600000 1.700000
v -2.700000 0.800000 -1.700000
v -2.700000 0.800000 1.700000
v -2.700000 0.600001 -1.700000
v -2.700000 0.600000 1.700000
v -2.900000 6.000000 -1.300000
v -2.900000 8.600000 1.300000
v -2.900000 6.200000 -1.300000
v -2.900000 8.800000 1.300000
v -3.000000 6.000000 -1.300000
v -3.000000 8.600000 1.300000
v -3.000000 6.200000 -1.300000
v -3.000000 8.800000 1.300000
v -2.900000 8.800000 -1.300000
v -2.900000 6.200000 1.300000
v -2.900000 8.600000 -1.300000
v -2.900000 6.000000 1.300000
v -2.980000 8.800000 -1.300000
v -2.980000 6.200000 1.300000
v -2.980000 8.600000 -1.300000
v -2.980000 6.000000 1.300000
v -2.900000 8.800000 1.300000
v -2.900001 8.799999 -1.300000
v -3.000000 8.800000 1.300000
v -3.000001 8.799999 -1.300000
v -2.900000 9.000000 1.300000
v -2.900001 9.000000 -1.300000
v -3.000000 9.000000 1.300000
v -3.000001 9.000000 -1.300000
v -0.050000 1.400000 1.500000
v -0.050000 1.400000 -1.500000
v -0.050000 1.200001 1.500000
v -0.050000 1.200000 -1.500000
v 0.050000 1.400000 1.500000
v 0.050000 1.400000 -1.500000
v 0.050000 1.200001 1.500000
v 0.050000 1.200000 -1.500000
v -0.040000 2.600000 1.400000
v -0.040000 1.400000 -1.400000
v -0.040000 2.400001 1.400000
v -0.040000 1.200000 -1.400000
v 0.040000 2.600000 1.400000
v 0.040000 1.400000 -1.400000
v 0.040000 2.400001 1.400000
v 0.040000 1.200000 -1.400000
v -0.100000 4.600000 1.600000
v -0.100000 4.600000 -1.500000
v -0.100000 4.400001 1.600000
v -0.100000 4.400000 -1.500000
v 0.050000 4.600000 1.600000
v 0.050000 4.600000 -1.500000
v 0.050000 4.400001 1.600000
v 0.050000 4.400000 -1.500000
v -0.240000 -0.000000 -1.400000
v -0.240000 1.200000 1.400000
v -0.240000 0.199999 -1.400000
v -0.240000 1.400000 1.400000
v -0.160000 -0.000000 -1.400000
v -0.160000 1.200000 1.400000
v -0.160000 0.199999 -1.400000
v -0.160000 1.400000 1.400000
v -0.250000 1.400000 -1.500000
v -0.250000 1.400000 1.500000
v -0.250000 1.200001 -1.500000
v -0.250000 1.200000 1.500000
v -0.150000 1.400000 -1.500000
v -0.150000 1.400000 1.500000
v -0.150000 1.200001 -1.500000
v -0.150000 1.200000 1.500000
v -0.240000 2.600000 -1.400000
v -0.240000 1.400000 1.400000
v -0.240000 2.400001 -1.400000
v -0.240000 1.200000 1.400000
v -0.160000 2.600000 -1.400000
v -0.160000 1.400000 1.400000
v -0.160000 2.400001 -1.400000
v -0.160000 1.200000 1.400000
v -0.050000 2.600000 1.600000
v -0.050000 2.600000 -1.500000
v -0.050000 2.400001 1.600000
v -0.050000 2.400000 -1.500000
v 0.050000 2.600000 1.600000
v 0.050000 2.600000 -1.500000
v 0.050000 2.400001 1.600000
v 0.050000 2.400000 -1.500000
v -0.250000 2.600000 -1.500000
v -0.250000 2.600000 1.500000
v -0.250000 2.400001 -1.500000
v -0.250000 2.400000 1.500000
v -0.150000 2.600000 -1.500000
v -0.150000 2.600000 1.500000
v -0.150000 2.400001 -1.500000
v -0.150000 2.400000 1.500000
v -0.100000 4.600000 1.450000
v -3.100000 4.600000 1.450000
v -0.100000 4.400001 1.450000
v -3.100000 4.400000 1.450000
v -0.100000 4.600000 1.550000
v -3.100000 4.600000 1.550000
v -0.100000 4.400001 1.550000
v -3.100000 4.400000 1.550000
v -0.000000 2.600000 1.460000
v -3.000000 4.600000 1.460000
v -0.000000 2.400001 1.460000
v -3.000000 4.400000 1.460000
v -0.000000 2.600000 1.540000
v -3.000000 4.600000 1.540000
v -0.000000 2.400001 1.540000
v -3.000000 4.400000 1.540000
v -3.000000 2.400000 1.540000
v -0.000000 0.400001 1.540000
v -3.000000 2.600000 1.540000
v -0.000000 0.600000 1.540000
v -3.000000 2.400000 1.460000
v -0.000000 0.400001 1.460000
v -3.000000 2.600000 1.460000
v -0.000000 0.600000 1.460000
v -3.100000 4.400000 1.350000
v -0.100000 4.400001 1.350000
v -3.100000 4.600000 1.350000
v -0.100000 4.600000 1.350000
v -3.100000 4.400000 1.250000
v -0.100000 4.400001 1.250000
v -3.100000 4.600000 1.250000
v -0.100000 4.600000 1.250000
v -3.100000 2.400000 1.350000
v -0.050000 2.400001 1.350000
v -3.100000 2.600000 1.350000
v -0.050000 2.600000 1.350000
v -3.100000 2.400000 1.250000
v -0.050000 2.400001 1.250000
v -3.100000 2.600000 1.250000
v -0.050000 2.600000 1.250000
v 0.100000 0.600000 1.250000
v -3.100000 0.600000 1.250000
v 0.100000 0.400001 1.250000
v -3.100000 0.400000 1.250000
v 0.100000 0.600000 1.350000
v -3.100000 0.600000 1.350000
v 0.100000 0.400001 1.350000
v -3.100000 0.400000 1.350000
v -3.100000 0.400000 1.550000
v 0.100000 0.400001 1.550000
v -3.100000 0.600000 1.550000
v 0.100000 0.600000 1.550000
v -3.100000 0.400000 1.450000
v 0.100000 0.400001 1.450000
v -3.100000 0.600000 1.450000
v 0.100000 0.600000 1.450000
v -0.200000 3.400000 1.350000
v -2.800000 3.400000 1.350000
v -0.200000 3.200001 1.350000
v -2.800000 3.200000 1.350000
v -0.200000 3.400000 1.450000
v -2.800000 3.400000 1.450000
v -0.200000 3.200001 1.450000
v -2.800000 3.200000 1.450000
v -0.200000 1.400000 1.350000
v -2.800000 1.400000 1.350000
v -0.200000 1.200001 1.350000
v -2.800000 1.200000 1.350000
v -0.200000 1.400000 1.450000
v -2.800000 1.400000 1.450000
v -0.200000 1.200001 1.450000
v -2.800000 1.200000 1.450000
v -2.800000 4.800000 -1.700000
v -2.800000 4.800000 1.700000
v -2.800000 4.600000 -1.700000
v -2.800000 4.600000 1.700000
v -2.700000 4.800000 -1.700000
v -2.700000 4.800000 1.700000
v -2.700000 4.600000 -1.700000
v -2.700000 4.600000 1.700000
v -3.040000 2.600000 -1.500000
v -3.040000 0.600001 1.500000
v -3.040000 2.800000 -1.500000
v -3.040000 0.800000 1.500000
v -2.960000 2.600000 -1.500000
v -2.960001 0.600001 1.500000
v -2.960000 2.800000 -1.500000
v -2.960001 0.800000 1.500000
v -2.840000 0.800000 -1.500000
v -2.840000 2.800000 1.500000
v -2.840000 0.600001 -1.500000
v -2.840000 2.600001 1.500000
v -2.760000 0.800000 -1.500000
v -2.760000 2.800000 1.500000
v -2.760000 0.600001 -1.500000
v -2.760000 2.600001 1.500000
v -3.040000 4.600000 -1.500000
v -3.040000 2.600001 1.500000
v -3.040000 4.800000 -1.500000
v -3.040000 2.800000 1.500000
v -2.960000 4.600000 -1.500000
v -2.960001 2.600001 1.500000
v -2.960000 4.800000 -1.500000
v -2.960001 2.800000 1.500000
v -2.840000 2.800000 -1.500000
v -2.840000 4.800000 1.500000
v -2.840000 2.600001 -1.500000
v -2.840000 4.600000 1.500000
v -2.760000 2.800000 -1.500000
v -2.760000 4.800000 1.500000
v -2.760000 2.600001 -1.500000
v -2.760000 4.600000 1.500000
v -0.040000 4.600000 1.400000
v -0.040000 2.600000 -1.400000
v -0.040000 4.400001 1.400000
v -0.040000 2.400000 -1.400000
v 0.040000 4.600000 1.400000
v 0.040000 2.600000 -1.400000
v 0.040000 4.400001 1.400000
v 0.040000 2.400000 -1.400000
v -0.240000 4.600000 -1.400000
v -0.240000 2.600000 1.400000
v -0.240000 4.400001 -1.400000
v -0.240000 2.400000 1.400000
v -0.160000 4.600000 -1.400000
v -0.160000 2.600000 1.400000
v -0.160000 4.400001 -1.400000
v -0.160000 2.400000 1.400000
v -3.040000 5.800000 -1.500000
v -3.040000 4.600001 1.500000
v -3.040000 6.000000 -1.500000
v -3.040000 4.800000 1.500000
v -2.960000 5.800000 -1.500000
v -2.960001 4.600001 1.500000
v -2.960000 6.000000 -1.500000
v -2.960001 4.800000 1.500000
v -2.980000 4.800001 -1.500000
v -2.980000 6.000000 1.500000
v -2.980000 4.600001 -1.500000
v -2.980000 5.800000 1.500000
v -2.900000 4.800001 -1.500000
v -2.900000 6.000000 1.500000
v -2.900000 4.600001 -1.500000
v -2.900000 5.800000 1.500000
v -3.100000 6.000000 -1.700000
v -3.100000 6.000000 1.700000
v -3.100000 5.800000 -1.700000
v -3.100000 5.800000 1.700000
v -2.900000 6.000000 -1.700000
v -2.900000 6.000000 1.700000
v -2.900000 5.800000 -1.700000
v -2.900000 5.800000 1.700000
v -0.050000 2.600000 -1.450000
v -3.100000 2.600000 -1.450000
v -0.050000 2.400001 -1.450000
v -3.100000 2.400000 -1.450000
v -0.050000 2.600000 -1.550000
v -3.100000 2.600000 -1.550000
v -0.050000 2.400001 -1.550000
v -3.100000 2.400000 -1.550000
v -0.100000 4.600000 -1.450000
v -3.100000 4.600000 -1.450000
v -0.100000 4.400001 -1.450000
v -3.100000 4.400000 -1.450000
v -0.100000 4.600000 -1.550000
v -3.100000 4.600000 -1.550000
v -0.100000 4.400001 -1.550000
v -3.100000 4.400000 -1.550000
v -0.000000 2.600000 -1.460000
v -3.000000 4.600000 -1.460000
v -0.000000 2.400001 -1.460000
v -3.000000 4.400000 -1.460000
v -0.000000 2.600000 -1.540000
v -3.000000 4.600000 -1.540000
v -0.000000 2.400001 -1.540000
v -3.000000 4.400000 -1.540000
v -3.000000 2.400000 -1.540000
v -0.000000 0.400001 -1.540000
v -3.000000 2.600000 -1.540000
v -0.000000 0.600000 -1.540000
v -3.000000 2.400000 -1.460000
v -0.000000 0.400001 -1.460000
v -3.000000 2.600000 -1.460000
v -0.000000 0.600000 -1.460000
v -3.100000 4.400000 -1.350000
v -0.100000 4.400001 -1.350000
v -3.100000 4.600000 -1.350000
v -0.100000 4.600000 -1.350000
v -3.100000 4.400000 -1.250000
v -0.100000 4.400001 -1.250000
v -3.100000 4.600000 -1.250000
v -0.100000 4.600000 -1.250000
v -3.100000 2.400000 -1.350000
v -0.050000 2.400001 -1.350000
v -3.100000 2.600000 -1.350000
v -0.050000 2.600000 -1.350000
v -3.100000 2.400000 -1.250000
v -0.050000 2.400001 -1.250000
v -3.100000 2.600000 -1.250000
v -0.050000 2.600000 -1.250000
v 0.100000 0.600000 -1.250000
v -3.100000 0.600000 -1.250000
v 0.100000 0.400001 -1.250000
v -3.100000 0.400000 -1.250000
v 0.100000 0.600000 -1.350000
v -3.100000 0.600000 -1.350000
v 0.100000 0.400001 -1.350000
v -3.100000 0.400000 -1.350000
v -3.100000 0.400000 -1.550000
v 0.100000 0.400001 -1.550000
v -3.100000 0.600000 -1.550000
v 0.100000 0.600000 -1.550000
v -3.100000 0.400000 -1.450000
v 0.100000 0.400001 -1.450000
v -3.100000 0.600000 -1.450000
v 0.100000 0.600000 -1.450000
v -0.200000 3.400000 -1.350000
v -2.800000 3.400000 -1.350000
v -0.200000 3.200001 -1.350000
v -2.800000 3.200000 -1.350000
v -0.200000 3.400000 -1.450000
v -2.800000 3.400000 -1.450000
v -0.200000 3.200001 -1.450000
v -2.800000 3.200000 -1.450000
v -0.200000 1.400000 -1.350000
v -2.800000 1.400000 -1.350000
v -0.200000 1.200001 -1.350000
v -2.800000 1.200000 -1.350000
v -0.200000 1.400000 -1.450000
v -2.800000 1.400000 -1.450000
v -0.200000 1.200001 -1.450000
v -2.800000 1.200000 -1.450000
vn -1.0000 -0.0000 -0.0000
vn -0.0000 -0.0000 -1.0000
vn 1.0000 -0.0000 -0.0000
vn -0.0000 -0.0000 1.0000
vn -0.4472 -0.8944 -0.0000
vn -0.0000 1.0000 -0.0000
vn -0.0000 -1.0000 -0.0000
vn -0.0000 -0.9191 -0.3939
vn 0.4472 0.8944 -0.0000
vn -0.0000 0.9191 0.3939
vn -0.7071 0.7071 -0.0000
vn 0.7071 -0.7071 -0.0000
vn -0.0000 0.7071 -0.7071
vn -0.0000 -0.7071 0.7071
vn -0.0000 -0.7071 -0.7071
vn -0.0000 0.7071 0.7071
vn -0.0000 -0.9191 0.3939
vn -0.0000 0.9191 -0.3939
vn -0.5547 -0.8321 -0.0000
vn 0.5547 0.8321 -0.0000
vn -0.0000 0.8321 0.5547
vn -0.0000 -0.8321 -0.5547
vn -0.0000 -0.8321 0.5547
vn -0.0000 0.8321 -0.5547
vn -0.0000 -0.8137 0.5812
vn -0.0000 0.8137 -0.5812
vn -0.0000 -0.8137 -0.5812
vn -0.0000 0.8137 0.5812
vn -0.0000 0.9285 0.3714
vn -0.0000 -0.9285 -0.3714
vn -0.0000 -0.9285 0.3714
vn -0.0000 0.9285 -0.3714
vn -0.0000 0.8320 0.5547
vt 0.625000 0.000000
vt 0.375000 0.250000
vt 0.375000 0.000000
vt 0.625000 0.500000
vt 0.375000 0.500000
vt 0.375000 0.750000
vt 0.625000 0.750000
vt 0.375000 1.000000
vt 0.125000 0.750000
vt 0.125000 0.500000
vt 0.875000 0.500000
vt 0.625000 0.250000
vt 0.625000 1.000000
vt 0.875000 0.750000
s 0
f 2/1/1 3/2/1 1/3/1
f 3/2/2 8/4/2 7/5/2
f 8/4/3 5/6/3 7/5/3
f 6/7/4 1/8/4 5/6/4
f 7/5/5 1/9/5 3/10/5
f 4/11/6 6/7/6 8/4/6
f 10/1/1 11/2/1 9/3/1
f 12/12/2 15/5/2 11/2/2
f 16/4/3 13/6/3 15/5/3
f 14/7/4 9/8/4 13/6/4
f 164/12/7 167/5/7 163/2/7
f 12/11/6 14/7/6 16/4/6
f 28/12/7 31/5/7 27/2/7
f 22/2/1 23/13/1 24/8/1
f 24/8/8 19/7/8 20/6/8
f 18/5/3 19/7/3 17/4/3
f 30/7/6 25/8/6 29/6/6
f 32/4/3 29/6/3 31/5/3
f 36/12/4 39/5/4 35/2/4
f 38/7/2 33/8/2 37/6/2
f 40/4/3 37/6/3 39/5/3
f 44/12/4 47/5/4 43/2/4
f 46/7/2 41/8/2 45/6/2
f 48/4/3 45/6/3 47/5/3
f 50/1/1 51/2/1 49/3/1
f 52/12/2 55/5/2 51/2/2
f 56/4/3 53/6/3 55/5/3
f 54/7/4 49/8/4 53/6/4
f 123/2/1 122/13/1 124/12/1
f 58/1/5 59/2/5 57/3/5
f 60/12/2 63/5/2 59/2/2
f 64/4/9 61/6/9 63/5/9
f 61/6/4 58/13/4 57/8/4
f 96/4/3 93/6/3 95/5/3
f 92/12/7 95/5/7 91/2/7
f 18/5/10 21/12/10 22/2/10
f 66/1/1 67/2/1 65/3/1
f 68/12/2 71/5/2 67/2/2
f 72/4/3 69/6/3 71/5/3
f 70/7/4 65/8/4 69/6/4
f 68/11/6 70/7/6 72/4/6
f 74/1/7 75/2/7 73/3/7
f 75/2/2 80/4/2 79/5/2
f 80/4/6 77/6/6 79/5/6
f 82/1/5 83/2/5 81/3/5
f 84/12/2 87/5/2 83/2/2
f 88/4/9 85/6/9 87/5/9
f 112/4/6 109/6/6 111/5/6
f 94/7/6 89/8/6 93/6/6
f 107/2/3 112/4/3 111/5/3
f 103/5/3 102/7/3 101/6/3
f 100/12/7 103/5/7 99/2/7
f 102/7/6 97/8/6 101/6/6
f 106/1/7 107/2/7 105/3/7
f 114/1/1 115/2/1 113/3/1
f 116/12/2 119/5/2 115/2/2
f 120/4/3 117/6/3 119/5/3
f 118/7/4 113/8/4 117/6/4
f 131/2/1 130/13/1 132/12/1
f 116/11/6 118/7/6 120/4/6
f 124/12/4 127/5/4 123/2/4
f 126/7/2 121/8/2 125/6/2
f 128/4/3 125/6/3 127/5/3
f 132/12/4 135/5/4 131/2/4
f 134/7/2 129/8/2 133/6/2
f 136/4/3 133/6/3 135/5/3
f 140/12/7 143/5/7 139/2/7
f 142/7/6 137/8/6 141/6/6
f 143/5/3 142/7/3 141/6/3
f 148/12/7 151/5/7 147/2/7
f 150/7/6 145/8/6 149/6/6
f 152/4/3 149/6/3 151/5/3
f 156/12/7 159/5/7 155/2/7
f 158/7/6 153/8/6 157/6/6
f 160/4/2 157/6/2 159/5/2
f 168/4/3 165/6/3 167/5/3
f 166/7/6 161/8/6 165/6/6
f 162/13/1 163/2/1 161/8/1
f 164/12/2 166/7/2 168/4/2
f 167/5/4 161/8/4 163/2/4
f 171/2/1 170/13/1 172/12/1
f 172/12/4 175/5/4 171/2/4
f 174/7/2 169/8/2 173/6/2
f 175/5/3 174/7/3 173/6/3
f 172/12/7 174/7/7 176/4/7
f 175/5/6 169/8/6 171/2/6
f 179/2/11 178/13/11 180/12/11
f 180/12/4 183/5/4 179/2/4
f 182/7/2 177/8/2 181/6/2
f 183/5/12 182/7/12 181/6/12
f 187/2/11 186/13/11 188/12/11
f 188/12/4 191/5/4 187/2/4
f 190/7/2 185/8/2 189/6/2
f 191/5/12 190/7/12 189/6/12
f 195/7/4 197/12/4 193/4/4
f 200/8/2 194/5/2 198/2/2
f 198/2/1 199/13/1 200/8/1
f 200/8/6 195/7/6 196/6/6
f 194/5/7 197/12/7 198/2/7
f 196/6/3 193/4/3 194/5/3
f 205/6/3 208/4/3 207/5/3
f 207/5/7 204/12/7 203/2/7
f 201/8/6 206/7/6 205/6/6
f 203/2/1 202/13/1 201/8/1
f 201/8/2 207/5/2 203/2/2
f 206/7/4 204/12/4 208/4/4
f 211/7/4 213/12/4 209/4/4
f 216/8/2 210/5/2 214/2/2
f 214/2/1 215/13/1 216/8/1
f 216/8/6 211/7/6 212/6/6
f 210/5/7 213/12/7 214/2/7
f 212/6/3 209/4/3 210/5/3
f 219/2/1 218/1/1 217/3/1
f 223/5/4 220/12/4 219/2/4
f 221/6/3 224/4/3 223/5/3
f 217/8/2 222/7/2 221/6/2
f 227/2/5 226/1/5 225/3/5
f 231/5/4 228/12/4 227/2/4
f 231/5/9 230/7/9 232/4/9
f 229/6/2 226/13/2 230/7/2
f 235/2/1 234/1/1 233/3/1
f 239/5/4 236/12/4 235/2/4
f 237/6/3 240/4/3 239/5/3
f 233/8/2 238/7/2 237/6/2
f 238/7/6 236/11/6 240/4/6
f 243/2/7 242/1/7 241/3/7
f 243/2/4 248/4/4 244/12/4
f 247/5/6 246/7/6 248/4/6
f 251/2/5 250/1/5 249/3/5
f 255/5/4 252/12/4 251/2/4
f 253/6/9 256/4/9 255/5/9
f 263/5/7 260/12/7 259/2/7
f 257/8/6 262/7/6 261/6/6
f 261/6/4 264/4/4 263/5/4
f 271/5/7 268/12/7 267/2/7
f 265/8/6 270/7/6 269/6/6
f 269/6/4 272/4/4 271/5/4
f 266/13/2 267/2/2 268/12/2
f 426/5/7 429/12/7 430/2/7
f 270/7/1 268/12/1 272/4/1
f 277/6/3 280/4/3 279/5/3
f 279/5/7 276/12/7 275/2/7
f 273/8/6 278/7/6 277/6/6
f 275/2/1 274/13/1 273/8/1
f 273/8/2 279/5/2 275/2/2
f 278/7/4 276/12/4 280/4/4
f 285/6/3 288/4/3 287/5/3
f 287/5/7 284/12/7 283/2/7
f 281/8/6 286/7/6 285/6/6
f 283/2/1 282/13/1 281/8/1
f 281/8/2 287/5/2 283/2/2
f 286/7/4 284/12/4 288/4/4
f 295/13/1 294/2/1 296/8/1
f 291/7/13 296/8/13 292/6/13
f 307/2/1 312/4/1 308/12/1
f 293/12/14 290/5/14 294/2/14
f 304/8/15 299/7/15 300/6/15
f 302/2/1 303/13/1 304/8/1
f 309/6/6 312/4/6 311/5/6
f 298/5/16 301/12/16 302/2/16
f 307/2/7 306/1/7 305/3/7
f 316/12/7 319/5/7 315/2/7
f 320/4/3 317/6/3 319/5/3
f 318/7/6 313/8/6 317/6/6
f 314/13/1 315/2/1 313/8/1
f 319/5/4 313/8/4 315/2/4
f 316/12/2 318/7/2 320/4/2
f 324/12/17 327/5/17 323/2/17
f 327/5/3 326/7/3 325/6/3
f 326/7/18 321/8/18 325/6/18
f 322/13/1 323/2/1 321/8/1
f 332/12/7 335/5/7 331/2/7
f 336/4/3 333/6/3 335/5/3
f 334/7/6 329/8/6 333/6/6
f 330/13/1 331/2/1 329/8/1
f 335/5/4 329/8/4 331/2/4
f 332/12/2 334/7/2 336/4/2
f 349/6/3 352/4/3 351/5/3
f 351/5/7 348/12/7 347/2/7
f 340/12/18 343/5/18 339/2/18
f 343/5/3 342/7/3 341/6/3
f 342/7/17 337/8/17 341/6/17
f 338/13/1 339/2/1 337/8/1
f 345/8/6 350/7/6 349/6/6
f 347/2/1 346/13/1 345/8/1
f 345/8/2 351/5/2 347/2/2
f 350/7/4 348/12/4 352/4/4
f 359/5/8 356/12/8 355/2/8
f 359/5/3 358/7/3 360/4/3
f 353/8/10 358/7/10 357/6/10
f 355/2/1 354/13/1 353/8/1
f 353/8/2 359/5/2 355/2/2
f 364/12/7 367/5/7 363/2/7
f 368/4/3 365/6/3 367/5/3
f 366/7/6 361/8/6 365/6/6
f 362/13/1 363/2/1 361/8/1
f 367/5/4 361/8/4 363/2/4
f 364/12/2 366/7/2 368/4/2
f 373/6/3 376/4/3 375/5/3
f 375/5/7 372/12/7 371/2/7
f 369/8/6 374/7/6 373/6/6
f 371/2/1 370/13/1 369/8/1
f 369/8/2 375/5/2 371/2/2
f 374/7/4 372/12/4 376/4/4
f 383/5/7 380/12/7 379/2/7
f 377/8/6 382/7/6 381/6/6
f 381/6/4 384/4/4 383/5/4
f 378/13/2 379/2/2 380/12/2
f 377/8/3 383/5/3 379/2/3
f 382/7/1 380/12/1 384/4/1
f 391/5/19 388/12/19 387/2/19
f 385/8/20 390/7/20 389/6/20
f 389/6/4 392/4/4 391/5/4
f 388/12/2 385/8/2 387/2/2
f 410/5/7 413/12/7 414/2/7
f 397/12/2 400/8/2 398/2/2
f 396/6/4 393/4/4 394/5/4
f 400/8/20 395/7/20 396/6/20
f 394/5/19 397/12/19 398/2/19
f 408/8/3 402/5/3 406/2/3
f 407/13/2 406/2/2 405/12/2
f 404/6/4 401/4/4 402/5/4
f 408/8/6 403/7/6 404/6/6
f 402/5/7 405/12/7 406/2/7
f 411/7/1 413/12/1 409/4/1
f 417/8/6 422/7/6 421/6/6
f 415/13/2 414/2/2 413/12/2
f 412/6/4 409/4/4 410/5/4
f 416/8/6 411/7/6 412/6/6
f 403/7/1 405/12/1 401/4/1
f 421/6/4 424/4/4 423/5/4
f 418/13/2 419/2/2 420/12/2
f 417/8/3 423/5/3 419/2/3
f 427/7/1 429/12/1 425/4/1
f 432/8/3 426/5/3 430/2/3
f 431/13/2 430/2/2 429/12/2
f 428/6/4 425/4/4 426/5/4
f 432/8/6 427/7/6 428/6/6
f 439/5/7 436/12/7 435/2/7
f 433/8/6 438/7/6 437/6/6
f 437/6/4 440/4/4 439/5/4
f 434/13/2 435/2/2 436/12/2
f 447/5/7 444/12/7 443/2/7
f 441/8/6 446/7/6 445/6/6
f 447/5/4 446/7/4 448/4/4
f 442/13/2 443/2/2 444/12/2
f 423/5/7 420/12/7 419/2/7
f 422/7/1 420/12/1 424/4/1
f 453/6/3 456/4/3 455/5/3
f 455/5/7 452/12/7 451/2/7
f 449/8/6 454/7/6 453/6/6
f 451/2/1 450/13/1 449/8/1
f 449/8/2 455/5/2 451/2/2
f 454/7/4 452/12/4 456/4/4
f 461/12/3 464/8/3 462/2/3
f 460/6/1 457/4/1 458/5/1
f 464/8/21 459/7/21 460/6/21
f 458/5/22 461/12/22 462/2/22
f 469/12/3 472/8/3 471/13/3
f 465/4/1 468/6/1 466/5/1
f 467/7/23 472/8/23 468/6/23
f 469/12/24 466/5/24 470/2/24
f 477/12/3 480/8/3 478/2/3
f 476/6/1 473/4/1 474/5/1
f 480/8/21 475/7/21 476/6/21
f 474/5/22 477/12/22 478/2/22
f 485/12/3 488/8/3 487/13/3
f 481/4/1 484/6/1 482/5/1
f 483/7/23 488/8/23 484/6/23
f 485/12/24 482/5/24 486/2/24
f 492/12/25 495/5/25 491/2/25
f 495/5/3 494/7/3 493/6/3
f 494/7/26 489/8/26 493/6/26
f 490/13/1 491/2/1 489/8/1
f 492/12/2 494/7/2 496/4/2
f 503/5/27 500/12/27 499/2/27
f 503/5/3 502/7/3 504/4/3
f 497/8/28 502/7/28 501/6/28
f 499/2/1 498/13/1 497/8/1
f 502/7/4 500/12/4 504/4/4
f 509/12/3 512/8/3 510/2/3
f 508/6/1 505/4/1 506/5/1
f 512/8/29 507/7/29 508/6/29
f 510/2/30 505/4/30 509/12/30
f 517/12/3 520/8/3 519/13/3
f 513/4/1 516/6/1 514/5/1
f 515/7/31 520/8/31 516/6/31
f 518/2/32 513/4/32 514/5/32
f 525/6/3 528/4/3 527/5/3
f 527/5/7 524/12/7 523/2/7
f 521/8/6 526/7/6 525/6/6
f 523/2/1 522/13/1 521/8/1
f 521/8/2 527/5/2 523/2/2
f 526/7/4 524/12/4 528/4/4
f 532/12/7 535/5/7 531/2/7
f 534/7/6 529/8/6 533/6/6
f 536/4/2 533/6/2 535/5/2
f 531/2/4 530/13/4 532/12/4
f 589/12/7 586/5/7 590/2/7
f 532/12/1 534/7/1 536/4/1
f 540/12/7 543/5/7 539/2/7
f 542/7/6 537/8/6 541/6/6
f 544/4/2 541/6/2 543/5/2
f 539/2/4 538/13/4 540/12/4
f 543/5/3 537/8/3 539/2/3
f 540/12/1 542/7/1 544/4/1
f 548/12/19 551/5/19 547/2/19
f 550/7/20 545/8/20 549/6/20
f 552/4/2 549/6/2 551/5/2
f 548/12/4 545/8/4 546/13/4
f 573/12/7 570/5/7 574/2/7
f 557/12/4 560/8/4 559/13/4
f 553/4/2 556/6/2 554/5/2
f 555/7/20 560/8/20 556/6/20
f 557/12/19 554/5/19 558/2/19
f 562/5/3 568/8/3 566/2/3
f 566/2/4 567/13/4 565/12/4
f 561/4/2 564/6/2 562/5/2
f 563/7/6 568/8/6 564/6/6
f 565/12/7 562/5/7 566/2/7
f 573/12/1 571/7/1 569/4/1
f 582/7/6 577/8/6 581/6/6
f 574/2/4 575/13/4 573/12/4
f 569/4/2 572/6/2 570/5/2
f 571/7/6 576/8/6 572/6/6
f 565/12/1 563/7/1 561/4/1
f 584/4/2 581/6/2 583/5/2
f 579/2/4 578/13/4 580/12/4
f 583/5/3 577/8/3 579/2/3
f 589/12/1 587/7/1 585/4/1
f 586/5/3 592/8/3 590/2/3
f 590/2/4 591/13/4 589/12/4
f 585/4/2 588/6/2 586/5/2
f 587/7/6 592/8/6 588/6/6
f 596/12/7 599/5/7 595/2/7
f 598/7/6 593/8/6 597/6/6
f 600/4/2 597/6/2 599/5/2
f 595/2/4 594/13/4 596/12/4
f 604/12/7 607/5/7 603/2/7
f 606/7/6 601/8/6 605/6/6
f 608/4/2 605/6/2 607/5/2
f 603/2/4 602/13/4 604/12/4
f 580/12/7 583/5/7 579/2/7
f 580/12/1 582/7/1 584/4/1
f 2/1/1 4/12/1 3/2/1
f 3/2/2 4/12/2 8/4/2
f 8/4/3 6/7/3 5/6/3
f 6/7/4 2/13/4 1/8/4
f 7/5/5 5/6/5 1/9/5
f 4/11/6 2/14/6 6/7/6
f 10/1/1 12/12/1 11/2/1
f 12/12/2 16/4/2 15/5/2
f 16/4/3 14/7/3 13/6/3
f 14/7/4 10/13/4 9/8/4
f 164/12/7 168/4/7 167/5/7
f 12/11/6 10/14/6 14/7/6
f 28/12/7 32/4/7 31/5/7
f 22/2/1 21/12/1 23/13/1
f 24/8/8 23/13/8 19/7/8
f 18/5/3 20/6/3 19/7/3
f 30/7/6 26/13/6 25/8/6
f 32/4/3 30/7/3 29/6/3
f 36/12/4 40/4/4 39/5/4
f 38/7/2 34/13/2 33/8/2
f 40/4/3 38/7/3 37/6/3
f 44/12/4 48/4/4 47/5/4
f 46/7/2 42/13/2 41/8/2
f 48/4/3 46/7/3 45/6/3
f 50/1/1 52/12/1 51/2/1
f 52/12/2 56/4/2 55/5/2
f 56/4/3 54/7/3 53/6/3
f 54/7/4 50/13/4 49/8/4
f 123/2/1 121/8/1 122/13/1
f 58/1/5 60/12/5 59/2/5
f 60/12/2 64/4/2 63/5/2
f 64/4/9 62/7/9 61/6/9
f 61/6/4 62/7/4 58/13/4
f 96/4/3 94/7/3 93/6/3
f 92/12/7 96/4/7 95/5/7
f 18/5/10 17/4/10 21/12/10
f 66/1/1 68/12/1 67/2/1
f 68/12/2 72/4/2 71/5/2
f 72/4/3 70/7/3 69/6/3
f 70/7/4 66/13/4 65/8/4
f 68/11/6 66/14/6 70/7/6
f 74/1/7 76/12/7 75/2/7
f 75/2/2 76/12/2 80/4/2
f 80/4/6 78/7/6 77/6/6
f 82/1/5 84/12/5 83/2/5
f 84/12/2 88/4/2 87/5/2
f 88/4/9 86/7/9 85/6/9
f 112/4/6 110/7/6 109/6/6
f 94/7/6 90/13/6 89/8/6
f 107/2/3 108/12/3 112/4/3
f 103/5/3 104/4/3 102/7/3
f 100/12/7 104/4/7 103/5/7
f 102/7/6 98/13/6 97/8/6
f 106/1/7 108/12/7 107/2/7
f 114/1/1 116/12/1 115/2/1
f 116/12/2 120/4/2 119/5/2
f 120/4/3 118/7/3 117/6/3
f 118/7/4 114/13/4 113/8/4
f 131/2/1 129/8/1 130/13/1
f 116/11/6 114/14/6 118/7/6
f 124/12/4 128/4/4 127/5/4
f 126/7/2 122/13/2 121/8/2
f 128/4/3 126/7/3 125/6/3
f 132/12/4 136/4/4 135/5/4
f 134/7/2 130/13/2 129/8/2
f 136/4/3 134/7/3 133/6/3
f 140/12/7 144/4/7 143/5/7
f 142/7/6 138/13/6 137/8/6
f 143/5/3 144/4/3 142/7/3
f 148/12/7 152/4/7 151/5/7
f 150/7/6 146/13/6 145/8/6
f 152/4/3 150/7/3 149/6/3
f 156/12/7 160/4/7 159/5/7
f 158/7/6 154/13/6 153/8/6
f 160/4/2 158/7/2 157/6/2
f 168/4/3 166/7/3 165/6/3
f 166/7/6 162/13/6 161/8/6
f 162/13/1 164/12/1 163/2/1
f 164/12/2 162/13/2 166/7/2
f 167/5/4 165/6/4 161/8/4
f 171/2/1 169/8/1 170/13/1
f 172/12/4 176/4/4 175/5/4
f 174/7/2 170/13/2 169/8/2
f 175/5/3 176/4/3 174/7/3
f 172/12/7 170/13/7 174/7/7
f 175/5/6 173/6/6 169/8/6
f 179/2/11 177/8/11 178/13/11
f 180/12/4 184/4/4 183/5/4
f 182/7/2 178/13/2 177/8/2
f 183/5/12 184/4/12 182/7/12
f 187/2/11 185/8/11 186/13/11
f 188/12/4 192/4/4 191/5/4
f 190/7/2 186/13/2 185/8/2
f 191/5/12 192/4/12 190/7/12
f 195/7/4 199/13/4 197/12/4
f 200/8/2 196/6/2 194/5/2
f 198/2/1 197/12/1 199/13/1
f 200/8/6 199/13/6 195/7/6
f 194/5/7 193/4/7 197/12/7
f 196/6/3 195/7/3 193/4/3
f 205/6/3 206/7/3 208/4/3
f 207/5/7 208/4/7 204/12/7
f 201/8/6 202/13/6 206/7/6
f 203/2/1 204/12/1 202/13/1
f 201/8/2 205/6/2 207/5/2
f 206/7/4 202/13/4 204/12/4
f 211/7/4 215/13/4 213/12/4
f 216/8/2 212/6/2 210/5/2
f 214/2/1 213/12/1 215/13/1
f 216/8/6 215/13/6 211/7/6
f 210/5/7 209/4/7 213/12/7
f 212/6/3 211/7/3 209/4/3
f 219/2/1 220/12/1 218/1/1
f 223/5/4 224/4/4 220/12/4
f 221/6/3 222/7/3 224/4/3
f 217/8/2 218/13/2 222/7/2
f 227/2/5 228/12/5 226/1/5
f 231/5/4 232/4/4 228/12/4
f 231/5/9 229/6/9 230/7/9
f 229/6/2 225/8/2 226/13/2
f 235/2/1 236/12/1 234/1/1
f 239/5/4 240/4/4 236/12/4
f 237/6/3 238/7/3 240/4/3
f 233/8/2 234/13/2 238/7/2
f 238/7/6 234/14/6 236/11/6
f 243/2/7 244/12/7 242/1/7
f 243/2/4 247/5/4 248/4/4
f 247/5/6 245/6/6 246/7/6
f 251/2/5 252/12/5 250/1/5
f 255/5/4 256/4/4 252/12/4
f 253/6/9 254/7/9 256/4/9
f 263/5/7 264/4/7 260/12/7
f 257/8/6 258/13/6 262/7/6
f 261/6/4 262/7/4 264/4/4
f 271/5/7 272/4/7 268/12/7
f 265/8/6 266/13/6 270/7/6
f 269/6/4 270/7/4 272/4/4
f 266/13/2 265/8/2 267/2/2
f 426/5/7 425/4/7 429/12/7
f 270/7/1 266/13/1 268/12/1
f 277/6/3 278/7/3 280/4/3
f 279/5/7 280/4/7 276/12/7
f 273/8/6 274/13/6 278/7/6
f 275/2/1 276/12/1 274/13/1
f 273/8/2 277/6/2 279/5/2
f 278/7/4 274/13/4 276/12/4
f 285/6/3 286/7/3 288/4/3
f 287/5/7 288/4/7 284/12/7
f 281/8/6 282/13/6 286/7/6
f 283/2/1 284/12/1 282/13/1
f 281/8/2 285/6/2 287/5/2
f 286/7/4 282/13/4 284/12/4
f 295/13/1 293/12/1 294/2/1
f 291/7/13 295/13/13 296/8/13
f 307/2/1 311/5/1 312/4/1
f 293/12/14 289/4/14 290/5/14
f 304/8/15 303/13/15 299/7/15
f 302/2/1 301/12/1 303/13/1
f 309/6/6 310/7/6 312/4/6
f 298/5/16 297/4/16 301/12/16
f 307/2/7 308/12/7 306/1/7
f 316/12/7 320/4/7 319/5/7
f 320/4/3 318/7/3 317/6/3
f 318/7/6 314/13/6 313/8/6
f 314/13/1 316/12/1 315/2/1
f 319/5/4 317/6/4 313/8/4
f 316/12/2 314/13/2 318/7/2
f 324/12/17 328/4/17 327/5/17
f 327/5/3 328/4/3 326/7/3
f 326/7/18 322/13/18 321/8/18
f 322/13/1 324/12/1 323/2/1
f 332/12/7 336/4/7 335/5/7
f 336/4/3 334/7/3 333/6/3
f 334/7/6 330/13/6 329/8/6
f 330/13/1 332/12/1 331/2/1
f 335/5/4 333/6/4 329/8/4
f 332/12/2 330/13/2 334/7/2
f 349/6/3 350/7/3 352/4/3
f 351/5/7 352/4/7 348/12/7
f 340/12/18 344/4/18 343/5/18
f 343/5/3 344/4/3 342/7/3
f 342/7/17 338/13/17 337/8/17
f 338/13/1 340/12/1 339/2/1
f 345/8/6 346/13/6 350/7/6
f 347/2/1 348/12/1 346/13/1
f 345/8/2 349/6/2 351/5/2
f 350/7/4 346/13/4 348/12/4
f 359/5/8 360/4/8 356/12/8
f 359/5/3 357/6/3 358/7/3
f 353/8/10 354/13/10 358/7/10
f 355/2/1 356/12/1 354/13/1
f 353/8/2 357/6/2 359/5/2
f 364/12/7 368/4/7 367/5/7
f 368/4/3 366/7/3 365/6/3
f 366/7/6 362/13/6 361/8/6
f 362/13/1 364/12/1 363/2/1
f 367/5/4 365/6/4 361/8/4
f 364/12/2 362/13/2 366/7/2
f 373/6/3 374/7/3 376/4/3
f 375/5/7 376/4/7 372/12/7
f 369/8/6 370/13/6 374/7/6
f 371/2/1 372/12/1 370/13/1
f 369/8/2 373/6/2 375/5/2
f 374/7/4 370/13/4 372/12/4
f 383/5/7 384/4/7 380/12/7
f 377/8/6 378/13/6 382/7/6
f 381/6/4 382/7/4 384/4/4
f 378/13/2 377/8/2 379/2/2
f 377/8/3 381/6/3 383/5/3
f 382/7/1 378/13/1 380/12/1
f 391/5/19 392/4/19 388/12/19
f 385/8/20 386/13/20 390/7/20
f 389/6/4 390/7/4 392/4/4
f 388/12/2 386/13/2 385/8/2
f 410/5/7 409/4/7 413/12/7
f 397/12/2 399/13/2 400/8/2
f 396/6/4 395/7/4 393/4/4
f 400/8/20 399/13/20 395/7/20
f 394/5/19 393/4/19 397/12/19
f 408/8/3 404/6/3 402/5/3
f 407/13/2 408/8/2 406/2/2
f 404/6/4 403/7/4 401/4/4
f 408/8/6 407/13/6 403/7/6
f 402/5/7 401/4/7 405/12/7
f 411/7/1 415/13/1 413/12/1
f 417/8/6 418/13/6 422/7/6
f 415/13/2 416/8/2 414/2/2
f 412/6/4 411/7/4 409/4/4
f 416/8/6 415/13/6 411/7/6
f 403/7/1 407/13/1 405/12/1
f 421/6/4 422/7/4 424/4/4
f 418/13/2 417/8/2 419/2/2
f 417/8/3 421/6/3 423/5/3
f 427/7/1 431/13/1 429/12/1
f 432/8/3 428/6/3 426/5/3
f 431/13/2 432/8/2 430/2/2
f 428/6/4 427/7/4 425/4/4
f 432/8/6 431/13/6 427/7/6
f 439/5/7 440/4/7 436/12/7
f 433/8/6 434/13/6 438/7/6
f 437/6/4 438/7/4 440/4/4
f 434/13/2 433/8/2 435/2/2
f 447/5/7 448/4/7 444/12/7
f 441/8/6 442/13/6 446/7/6
f 447/5/4 445/6/4 446/7/4
f 442/13/2 441/8/2 443/2/2
f 423/5/7 424/4/7 420/12/7
f 422/7/1 418/13/1 420/12/1
f 453/6/3 454/7/3 456/4/3
f 455/5/7 456/4/7 452/12/7
f 449/8/6 450/13/6 454/7/6
f 451/2/1 452/12/1 450/13/1
f 449/8/2 453/6/2 455/5/2
f 454/7/4 450/13/4 452/12/4
f 461/12/3 463/13/3 464/8/3
f 460/6/1 459/7/1 457/4/1
f 464/8/21 463/13/21 459/7/21
f 458/5/22 457/4/22 461/12/22
f 469/12/3 470/2/3 472/8/3
f 465/4/1 467/7/1 468/6/1
f 467/7/23 471/13/23 472/8/23
f 469/12/24 465/4/24 466/5/24
f 477/12/3 479/13/3 480/8/3
f 476/6/1 475/7/1 473/4/1
f 480/8/33 479/13/33 475/7/33
f 474/5/22 473/4/22 477/12/22
f 485/12/3 486/2/3 488/8/3
f 481/4/1 483/7/1 484/6/1
f 483/7/23 487/13/23 488/8/23
f 485/12/24 481/4/24 482/5/24
f 492/12/25 496/4/25 495/5/25
f 495/5/3 496/4/3 494/7/3
f 494/7/26 490/13/26 489/8/26
f 490/13/1 492/12/1 491/2/1
f 492/12/2 490/13/2 494/7/2
f 503/5/27 504/4/27 500/12/27
f 503/5/3 501/6/3 502/7/3
f 497/8/28 498/13/28 502/7/28
f 499/2/1 500/12/1 498/13/1
f 502/7/4 498/13/4 500/12/4
f 509/12/3 511/13/3 512/8/3
f 508/6/1 507/7/1 505/4/1
f 512/8/29 511/13/29 507/7/29
f 510/2/30 506/5/30 505/4/30
f 517/12/3 518/2/3 520/8/3
f 513/4/1 515/7/1 516/6/1
f 515/7/31 519/13/31 520/8/31
f 518/2/32 517/12/32 513/4/32
f 525/6/3 526/7/3 528/4/3
f 527/5/7 528/4/7 524/12/7
f 521/8/6 522/13/6 526/7/6
f 523/2/1 524/12/1 522/13/1
f 521/8/2 525/6/2 527/5/2
f 526/7/4 522/13/4 524/12/4
f 532/12/7 536/4/7 535/5/7
f 534/7/6 530/13/6 529/8/6
f 536/4/2 534/7/2 533/6/2
f 531/2/4 529/8/4 530/13/4
f 589/12/7 585/4/7 586/5/7
f 532/12/1 530/13/1 534/7/1
f 540/12/7 544/4/7 543/5/7
f 542/7/6 538/13/6 537/8/6
f 544/4/2 542/7/2 541/6/2
f 539/2/4 537/8/4 538/13/4
f 543/5/3 541/6/3 537/8/3
f 540/12/1 538/13/1 542/7/1
f 548/12/19 552/4/19 551/5/19
f 550/7/20 546/13/20 545/8/20
f 552/4/2 550/7/2 549/6/2
f 548/12/4 547/2/4 545/8/4
f 573/12/7 569/4/7 570/5/7
f 557/12/4 558/2/4 560/8/4
f 553/4/2 555/7/2 556/6/2
f 555/7/20 559/13/20 560/8/20
f 557/12/19 553/4/19 554/5/19
f 562/5/3 564/6/3 568/8/3
f 566/2/4 568/8/4 567/13/4
f 561/4/2 563/7/2 564/6/2
f 563/7/6 567/13/6 568/8/6
f 565/12/7 561/4/7 562/5/7
f 573/12/1 575/13/1 571/7/1
f 582/7/6 578/13/6 577/8/6
f 574/2/4 576/8/4 575/13/4
f 569/4/2 571/7/2 572/6/2
f 571/7/6 575/13/6 576/8/6
f 565/12/1 567/13/1 563/7/1
f 584/4/2 582/7/2 581/6/2
f 579/2/4 577/8/4 578/13/4
f 583/5/3 581/6/3 577/8/3
f 589/12/1 591/13/1 587/7/1
f 586/5/3 588/6/3 592/8/3
f 590/2/4 592/8/4 591/13/4
f 585/4/2 587/7/2 588/6/2
f 587/7/6 591/13/6 592/8/6
f 596/12/7 600/4/7 599/5/7
f 598/7/6 594/13/6 593/8/6
f 600/4/2 598/7/2 597/6/2
f 595/2/4 593/8/4 594/13/4
f 604/12/7 608/4/7 607/5/7
f 606/7/6 602/13/6 601/8/6
f 608/4/2 606/7/2 605/6/2
f 603/2/4 601/8/4 602/13/4
f 580/12/7 584/4/7 583/5/7
f 580/12/1 578/13/1 582/7/1
