# Blender 4.3.2
# www.blender.org
mtllib CoalingTowerTopRoom.mtl
g CoalingTowerTopRoom_Mesh
v 0.200000 -0.100000 1.500000
v 0.200000 0.000000 1.500000
v 0.200000 -0.100000 -1.500000
v 0.200000 0.000000 -1.500000
v 0.750000 -0.100000 1.500000
v 0.750000 0.000000 1.500000
v 0.750000 -0.100000 -1.500000
v 0.750000 0.000000 -1.500000
v 0.000000 -0.200000 1.600000
v 0.000000 0.000000 1.600000
v 0.000000 -0.200000 -1.600000
v 0.000000 0.000000 -1.600000
v 0.200000 -0.200000 1.600000
v 0.200000 0.000000 1.600000
v 0.200000 -0.200000 -1.600000
v 0.200000 0.000000 -1.600000
v -1.500000 3.750000 1.300000
v -1.500000 3.550000 1.300000
v -1.500000 3.750000 1.400000
v -1.500000 3.550000 1.400000
v 1.000000 2.500000 1.300000
v 1.000000 2.300000 1.300000
v 1.000000 2.500000 1.400000
v 1.000000 2.300000 1.400000
v -3.200000 2.700000 1.400000
v -3.200000 2.900000 1.400000
v -3.200000 2.700000 1.300000
v -3.200000 2.900000 1.300000
v -1.500000 3.550000 1.400000
v -1.500000 3.750000 1.400000
v -1.500000 3.550000 1.300000
v -1.500000 3.750000 1.300000
v -1.500000 3.850000 1.700000
v -1.500000 3.750000 1.700000
v -1.500000 3.850000 -1.700000
v -1.500000 3.750000 -1.700000
v 1.000000 2.600000 1.700000
v 1.000000 2.500000 1.700000
v 1.000000 2.600000 -1.700000
v 1.000000 2.500000 -1.700000
v -1.500000 3.850000 -1.700000
v -1.500000 3.750000 -1.700000
v -1.500000 3.850000 1.700000
v -1.500000 3.750000 1.700000
v -3.200000 3.000000 -1.700000
v -3.200000 2.900000 -1.700000
v -3.200000 3.000000 1.700000
v -3.200000 2.900000 1.700000
v 0.850000 0.100000 -1.600000
v 0.850000 -0.100000 -1.600000
v 0.850000 0.100000 1.600000
v 0.850000 -0.100000 1.600000
v 0.750000 0.100000 -1.600000
v 0.750000 -0.100000 -1.600000
v 0.750000 0.100000 1.600000
v 0.750000 -0.100000 1.600000
v -3.100000 -0.200000 1.500000
v -3.100000 0.100000 1.500000
v -3.100000 -0.200000 -1.500000
v -3.100000 0.100000 -1.500000
v -3.000000 -0.200000 1.500000
v -3.000000 0.100000 1.500000
v -3.000000 -0.200000 -1.500000
v -3.000000 0.100000 -1.500000
v -1.500000 3.750000 -1.400000
v -1.500000 3.550000 -1.400000
v -1.500000 3.750000 -1.300000
v -1.500000 3.550000 -1.300000
v 1.000000 2.500000 -1.400000
v 1.000000 2.300000 -1.400000
v 1.000000 2.500000 -1.300000
v 1.000000 2.300000 -1.300000
v -3.200000 2.700000 -1.300000
v -3.200000 2.900000 -1.300000
v -3.200000 2.700000 -1.400000
v -3.200000 2.900000 -1.400000
v -1.500000 3.550000 -1.300000
v -1.500000 3.750000 -1.300000
v -1.500000 3.550000 -1.400000
v -1.500000 3.750000 -1.400000
v 0.800000 2.700000 1.200000
v 0.800000 -0.000000 1.200000
v 0.800000 2.700000 1.400000
v 0.800000 -0.000000 1.400000
v 0.600000 2.700000 1.200000
v 0.600000 -0.000000 1.200000
v 0.600000 2.700000 1.400000
v 0.600000 -0.000000 1.400000
v 0.800000 2.700000 -1.400000
v 0.800000 -0.000000 -1.400000
v 0.800000 2.700000 -1.200000
v 0.800000 -0.000000 -1.200000
v 0.600000 2.700000 -1.400000
v 0.600000 -0.000000 -1.400000
v 0.600000 2.700000 -1.200000
v 0.600000 -0.000000 -1.200000
v 0.800000 2.600000 -1.600000
v 0.800000 2.400000 -1.600000
v 0.800000 2.600000 1.600000
v 0.800000 2.400000 1.600000
v 0.700000 2.600000 -1.600000
v 0.700000 2.400000 -1.600000
v 0.700000 2.600000 1.600000
v 0.700000 2.400000 1.600000
v -2.700000 3.150000 1.200000
v -2.700000 -0.000000 1.200000
v -2.700000 3.150000 1.400000
v -2.700000 -0.000000 1.400000
v -2.900000 3.150000 1.200000
v -2.900000 -0.000000 1.200000
v -2.900000 3.150000 1.400000
v -2.900000 -0.000000 1.400000
v -2.700000 3.150000 -1.400000
v -2.700000 -0.000000 -1.400000
v -2.700000 3.150000 -1.200000
v -2.700000 -0.000000 -1.200000
v -2.900000 3.150000 -1.400000
v -2.900000 -0.000000 -1.400000
v -2.900000 3.150000 -1.200000
v -2.900000 -0.000000 -1.200000
v -2.800000 3.050000 -1.600000
v -2.800000 2.850000 -1.600000
v -2.800000 3.050000 1.600000
v -2.800000 2.850000 1.600000
v -2.900000 3.050000 -1.600000
v -2.900000 2.850000 -1.600000
v -2.900000 3.050000 1.600000
v -2.900000 2.850000 1.600000
vn -0.0000 -0.0000 -1.0000
vn -0.0000 -0.0000 1.0000
vn -0.0000 -1.0000 -0.0000
vn -0.0000 1.0000 -0.0000
vn -1.0000 -0.0000 -0.0000
vn 1.0000 -0.0000 -0.0000
vn 0.4472 -0.8944 -0.0000
vn -0.4472 0.8944 -0.0000
vn 0.4472 0.8944 -0.0000
vn -0.4472 -0.8944 -0.0000
vt 0.625000 0.250000
vt 0.375000 0.500000
vt 0.375000 0.250000
vt 0.625000 0.750000
vt 0.375000 1.000000
vt 0.375000 0.750000
vt 0.125000 0.750000
vt 0.125000 0.500000
vt 0.875000 0.500000
vt 0.625000 0.500000
vt 0.625000 0.000000
vt 0.375000 0.000000
vt 0.625000 1.000000
vt 0.875000 0.750000
s 0
f 4/1/1 7/2/1 3/3/1
f 6/4/2 1/5/2 5/6/2
f 7/2/3 1/7/3 3/8/3
f 4/9/4 6/4/4 8/10/4
f 10/11/5 11/3/5 9/12/5
f 12/1/1 15/2/1 11/3/1
f 16/10/6 13/6/6 15/2/6
f 14/4/2 9/5/2 13/6/2
f 15/2/3 9/7/3 11/8/3
f 12/9/4 14/4/4 16/10/4
f 32/4/6 29/5/6 31/6/6
f 29/2/2 26/4/2 25/6/2
f 31/1/7 25/2/7 27/3/7
f 28/11/8 30/3/8 32/12/8
f 35/4/5 34/9/5 33/10/5
f 39/7/1 36/2/1 35/8/1
f 19/3/9 21/11/9 17/12/9
f 37/5/6 40/4/6 39/6/6
f 24/2/10 18/1/10 22/3/10
f 37/2/2 34/4/2 38/10/2
f 33/2/9 39/1/9 35/3/9
f 38/3/10 36/11/10 40/12/10
f 45/11/8 43/3/8 41/12/8
f 42/1/7 48/2/7 46/3/7
f 44/2/2 47/4/2 48/6/2
f 41/4/6 44/5/6 42/6/6
f 45/2/1 42/7/1 46/8/1
f 47/9/5 46/4/5 48/10/5
f 53/9/4 51/4/4 49/10/4
f 50/2/3 56/7/3 54/8/3
f 51/4/2 56/5/2 52/6/2
f 49/10/6 52/6/6 50/2/6
f 53/1/1 50/2/1 54/3/1
f 55/11/5 54/3/5 56/12/5
f 20/2/2 23/4/2 19/10/2
f 20/5/5 17/4/5 18/6/5
f 26/9/5 27/4/5 25/10/5
f 28/2/1 31/7/1 27/8/1
f 58/11/5 59/3/5 57/12/5
f 60/1/1 63/2/1 59/3/1
f 64/10/6 61/6/6 63/2/6
f 62/4/2 57/5/2 61/6/2
f 63/2/3 57/7/3 59/8/3
f 60/9/4 62/4/4 64/10/4
f 22/4/6 23/9/6 24/10/6
f 18/7/1 21/2/1 22/8/1
f 80/4/6 77/5/6 79/6/6
f 77/2/2 74/4/2 73/6/2
f 79/1/7 73/2/7 75/3/7
f 76/11/8 78/3/8 80/12/8
f 67/3/9 69/11/9 65/12/9
f 72/2/10 66/1/10 70/3/10
f 68/2/2 71/4/2 67/10/2
f 68/5/5 65/4/5 66/6/5
f 74/9/5 75/4/5 73/10/5
f 76/2/1 79/7/1 75/8/1
f 70/4/6 71/9/6 72/10/6
f 66/7/1 69/2/1 70/8/1
f 89/10/6 92/6/6 90/2/6
f 91/4/2 96/5/2 92/6/2
f 83/4/2 88/5/2 84/6/2
f 81/10/6 84/6/6 82/2/6
f 85/1/1 82/2/1 86/3/1
f 87/11/5 86/3/5 88/12/5
f 93/1/1 90/2/1 94/3/1
f 95/11/5 94/3/5 96/12/5
f 101/9/4 99/4/4 97/10/4
f 98/2/3 104/7/3 102/8/3
f 99/4/2 104/5/2 100/6/2
f 97/10/6 100/6/6 98/2/6
f 101/1/1 98/2/1 102/3/1
f 103/11/5 102/3/5 104/12/5
f 113/10/6 116/6/6 114/2/6
f 115/4/2 120/5/2 116/6/2
f 107/4/2 112/5/2 108/6/2
f 105/10/6 108/6/6 106/2/6
f 109/1/1 106/2/1 110/3/1
f 111/11/5 110/3/5 112/12/5
f 117/1/1 114/2/1 118/3/1
f 119/11/5 118/3/5 120/12/5
f 125/9/4 123/4/4 121/10/4
f 122/2/3 128/7/3 126/8/3
f 123/4/2 128/5/2 124/6/2
f 121/10/6 124/6/6 122/2/6
f 125/1/1 122/2/1 126/3/1
f 127/11/5 126/3/5 128/12/5
f 4/1/1 8/10/1 7/2/1
f 6/4/2 2/13/2 1/5/2
f 7/2/3 5/6/3 1/7/3
f 4/9/4 2/14/4 6/4/4
f 10/11/5 12/1/5 11/3/5
f 12/1/1 16/10/1 15/2/1
f 16/10/6 14/4/6 13/6/6
f 14/4/2 10/13/2 9/5/2
f 15/2/3 13/6/3 9/7/3
f 12/9/4 10/14/4 14/4/4
f 32/4/6 30/13/6 29/5/6
f 29/2/2 30/10/2 26/4/2
f 31/1/7 29/10/7 25/2/7
f 28/11/8 26/1/8 30/3/8
f 35/4/5 36/14/5 34/9/5
f 39/7/1 40/6/1 36/2/1
f 19/3/9 23/1/9 21/11/9
f 37/5/6 38/13/6 40/4/6
f 24/2/10 20/10/10 18/1/10
f 37/2/2 33/6/2 34/4/2
f 33/2/9 37/10/9 39/1/9
f 38/3/10 34/1/10 36/11/10
f 45/11/8 47/1/8 43/3/8
f 42/1/7 44/10/7 48/2/7
f 44/2/2 43/10/2 47/4/2
f 41/4/6 43/13/6 44/5/6
f 45/2/1 41/6/1 42/7/1
f 47/9/5 45/14/5 46/4/5
f 53/9/4 55/14/4 51/4/4
f 50/2/3 52/6/3 56/7/3
f 51/4/2 55/13/2 56/5/2
f 49/10/6 51/4/6 52/6/6
f 53/1/1 49/10/1 50/2/1
f 55/11/5 53/1/5 54/3/5
f 20/2/2 24/6/2 23/4/2
f 20/5/5 19/13/5 17/4/5
f 26/9/5 28/14/5 27/4/5
f 28/2/1 32/6/1 31/7/1
f 58/11/5 60/1/5 59/3/5
f 60/1/1 64/10/1 63/2/1
f 64/10/6 62/4/6 61/6/6
f 62/4/2 58/13/2 57/5/2
f 63/2/3 61/6/3 57/7/3
f 60/9/4 58/14/4 62/4/4
f 22/4/6 21/14/6 23/9/6
f 18/7/1 17/6/1 21/2/1
f 80/4/6 78/13/6 77/5/6
f 77/2/2 78/10/2 74/4/2
f 79/1/7 77/10/7 73/2/7
f 76/11/8 74/1/8 78/3/8
f 67/3/9 71/1/9 69/11/9
f 72/2/10 68/10/10 66/1/10
f 68/2/2 72/6/2 71/4/2
f 68/5/5 67/13/5 65/4/5
f 74/9/5 76/14/5 75/4/5
f 76/2/1 80/6/1 79/7/1
f 70/4/6 69/14/6 71/9/6
f 66/7/1 65/6/1 69/2/1
f 89/10/6 91/4/6 92/6/6
f 91/4/2 95/13/2 96/5/2
f 83/4/2 87/13/2 88/5/2
f 81/10/6 83/4/6 84/6/6
f 85/1/1 81/10/1 82/2/1
f 87/11/5 85/1/5 86/3/5
f 93/1/1 89/10/1 90/2/1
f 95/11/5 93/1/5 94/3/5
f 101/9/4 103/14/4 99/4/4
f 98/2/3 100/6/3 104/7/3
f 99/4/2 103/13/2 104/5/2
f 97/10/6 99/4/6 100/6/6
f 101/1/1 97/10/1 98/2/1
f 103/11/5 101/1/5 102/3/5
f 113/10/6 115/4/6 116/6/6
f 115/4/2 119/13/2 120/5/2
f 107/4/2 111/13/2 112/5/2
f 105/10/6 107/4/6 108/6/6
f 109/1/1 105/10/1 106/2/1
f 111/11/5 109/1/5 110/3/5
f 117/1/1 113/10/1 114/2/1
f 119/11/5 117/1/5 118/3/5
f 125/9/4 127/14/4 123/4/4
f 122/2/3 124/6/3 128/7/3
f 123/4/2 127/13/2 128/5/2
f 121/10/6 123/4/6 124/6/6
f 125/1/1 121/10/1 122/2/1
f 127/11/5 125/1/5 126/3/5
