# Blender 4.3.2
# www.blender.org
mtllib CT_Wall_Back0.mtl
g CT_Wall_Back0_Mesh
v 0.000000 0.000000 -1.500000
v 0.000000 3.100000 -1.500000
v -0.000000 0.000000 1.500000
v -0.000000 3.100000 1.500000
v -0.100000 0.000000 -1.500000
v -0.100000 3.100000 -1.500000
v -0.100000 0.000000 1.500000
v -0.100000 3.100000 1.500000
v -0.200000 0.300000 1.199999
v -0.200000 0.000000 1.199999
v -0.200000 2.850000 0.099999
v -0.200000 2.550000 0.099999
v -0.100000 0.300000 1.199999
v -0.100000 0.000000 1.199999
v -0.100000 2.850000 0.099999
v -0.100000 2.550000 0.099999
v -0.300000 3.150000 0.100000
v -0.300000 0.000000 0.100000
v -0.300000 3.150000 -0.100000
v -0.300000 0.000000 -0.100000
v -0.100000 3.150000 0.100000
v -0.100000 0.000000 0.100000
v -0.100000 3.150000 -0.100000
v -0.100000 0.000000 -0.100000
v -0.199999 0.300000 -1.200001
v -0.199999 0.000000 -1.200001
v -0.200000 2.850000 -0.100001
v -0.200000 2.550000 -0.100001
v -0.099999 0.300000 -1.200001
v -0.099999 0.000000 -1.200001
v -0.100000 2.850000 -0.100001
v -0.100000 2.550000 -0.100001
vn -0.0000 1.0000 -0.0000
vn -0.0000 -1.0000 -0.0000
vn -0.0000 -0.0000 -1.0000
vn -1.0000 -0.0000 -0.0000
vn -0.0000 -0.0000 1.0000
vn 1.0000 -0.0000 -0.0000
vn -0.0000 -0.3961 -0.9182
vn -0.0000 0.3961 0.9182
vn -0.0000 -0.3961 0.9182
vn -0.0000 0.3961 -0.9182
vt 0.875000 0.500000
vt 0.625000 0.750000
vt 0.625000 0.500000
vt 0.375000 0.500000
vt 0.125000 0.750000
vt 0.125000 0.500000
vt 0.375000 1.000000
vt 0.375000 0.750000
vt 0.625000 0.250000
vt 0.375000 0.250000
vt 0.625000 0.000000
vt 0.375000 0.000000
vt 0.875000 0.750000
vt 0.625000 1.000000
s 0
f 4/1/1 6/2/1 8/3/1
f 7/4/2 1/5/2 3/6/2
f 6/2/3 1/7/3 5/8/3
f 8/3/4 5/8/4 7/4/4
f 4/9/5 7/4/5 3/10/5
f 2/11/6 3/10/6 1/12/6
f 9/3/4 12/8/4 10/4/4
f 10/4/7 16/5/7 14/6/7
f 13/1/8 11/2/8 9/3/8
f 19/3/3 24/8/3 20/4/3
f 17/2/4 20/7/4 18/8/4
f 21/4/5 18/5/5 22/6/5
f 23/1/6 22/2/6 24/3/6
f 28/8/4 25/3/4 26/4/4
f 32/5/9 26/4/9 30/6/9
f 27/2/10 29/1/10 25/3/10
f 4/1/1 2/13/1 6/2/1
f 7/4/2 5/8/2 1/5/2
f 6/2/3 2/14/3 1/7/3
f 8/3/4 6/2/4 5/8/4
f 4/9/5 8/3/5 7/4/5
f 2/11/6 4/9/6 3/10/6
f 9/3/4 11/2/4 12/8/4
f 10/4/7 12/8/7 16/5/7
f 13/1/8 15/13/8 11/2/8
f 19/3/3 23/2/3 24/8/3
f 17/2/4 19/14/4 20/7/4
f 21/4/5 17/8/5 18/5/5
f 23/1/6 21/13/6 22/2/6
f 28/8/4 27/2/4 25/3/4
f 32/5/9 28/8/9 26/4/9
f 27/2/10 31/13/10 29/1/10
