# Blender 4.3.2
# www.blender.org
mtllib CT_Wall_Side1.mtl
g CT_Wall_Side0_Mesh
v -0.100000 0.000000 1.400000
v -0.100000 3.050000 1.400000
v -0.100000 0.000000 0.700000
v -0.100000 3.400000 0.700000
v -0.000000 0.000000 1.400000
v -0.000000 3.050000 1.400000
v -0.000000 0.000000 0.700000
v -0.000000 3.400000 0.700000
v -0.100000 0.000000 -1.300000
v -0.100000 3.100000 -1.300000
v -0.100000 0.000000 -2.300000
v -0.100000 2.600000 -2.300000
v -0.000000 0.000000 -1.300000
v -0.000000 3.100000 -1.300000
v -0.000000 0.000000 -2.300000
v -0.000000 2.600000 -2.300000
v -0.100000 0.000000 -0.700000
v -0.100000 3.400000 -0.700000
v -0.100000 0.000000 -1.100000
v -0.100000 3.200000 -1.100000
v -0.000000 0.000000 -0.700000
v -0.000000 3.400000 -0.700000
v -0.000000 0.000000 -1.100000
v -0.000000 3.200000 -1.100000
vn -0.0000 0.8944 0.4472
vn -0.0000 -1.0000 -0.0000
vn -0.0000 -0.0000 1.0000
vn 1.0000 -0.0000 -0.0000
vn -0.0000 -0.0000 -1.0000
vn -1.0000 -0.0000 -0.0000
vn -0.0000 0.8944 -0.4472
vt 0.625000 0.500000
vt 0.875000 0.750000
vt 0.625000 0.750000
vt 0.375000 0.500000
vt 0.125000 0.750000
vt 0.125000 0.500000
vt 0.375000 1.000000
vt 0.375000 0.750000
vt 0.625000 0.250000
vt 0.375000 0.250000
vt 0.625000 0.000000
vt 0.375000 0.000000
vt 0.875000 0.500000
vt 0.625000 1.000000
s 0
f 8/1/1 2/2/1 6/3/1
f 7/4/2 1/5/2 3/6/2
f 6/3/3 1/7/3 5/8/3
f 7/4/4 6/3/4 5/8/4
f 4/9/5 7/4/5 3/10/5
f 2/11/6 3/10/6 1/12/6
f 12/13/7 14/3/7 16/1/7
f 15/4/2 9/5/2 11/6/2
f 14/3/3 9/7/3 13/8/3
f 16/1/4 13/8/4 15/4/4
f 12/9/5 15/4/5 11/10/5
f 9/12/6 12/9/6 11/10/6
f 20/13/7 22/3/7 24/1/7
f 23/4/2 17/5/2 19/6/2
f 22/3/3 17/7/3 21/8/3
f 24/1/4 21/8/4 23/4/4
f 20/9/5 23/4/5 19/10/5
f 17/12/6 20/9/6 19/10/6
f 8/1/1 4/13/1 2/2/1
f 7/4/2 5/8/2 1/5/2
f 6/3/3 2/14/3 1/7/3
f 7/4/4 8/1/4 6/3/4
f 4/9/5 8/1/5 7/4/5
f 2/11/6 4/9/6 3/10/6
f 12/13/7 10/2/7 14/3/7
f 15/4/2 13/8/2 9/5/2
f 14/3/3 10/14/3 9/7/3
f 16/1/4 14/3/4 13/8/4
f 12/9/5 16/1/5 15/4/5
f 9/12/6 10/11/6 12/9/6
f 20/13/7 18/2/7 22/3/7
f 23/4/2 21/8/2 17/5/2
f 22/3/3 18/14/3 17/7/3
f 24/1/4 22/3/4 21/8/4
f 20/9/5 24/1/5 23/4/5
f 17/12/6 18/11/6 20/9/6
