# Blender 4.3.2
# www.blender.org
mtllib CT_Wall_Front1.mtl
g CT_Wall_Front1_Mesh
v 0.900000 0.000000 -1.500000
v 0.900000 2.600000 -1.500000
v 0.900000 0.000000 -0.000000
v 0.900000 2.600000 -0.000000
v 0.800000 0.000000 -1.500000
v 0.800000 2.600000 -1.500000
v 0.800000 0.000000 -0.000000
v 0.800000 2.600000 -0.000000
v 0.900000 0.800000 -0.000000
v 0.900000 2.600000 -0.000000
v 0.900000 0.800000 0.200000
v 0.900000 2.600000 0.200000
v 0.800000 0.800000 -0.000000
v 0.800000 2.600000 -0.000000
v 0.800000 0.800000 0.200000
v 0.800000 2.600000 0.200000
v 0.800000 2.000000 1.500000
v 0.800000 0.000000 1.500000
v 0.800000 2.000000 1.300000
v 0.800000 0.000000 1.300000
v 0.900000 2.000000 1.500000
v 0.900000 0.000000 1.500000
v 0.900000 2.000000 1.300000
v 0.900000 0.000000 1.300000
v 0.800000 1.200000 1.300000
v 0.800000 0.000000 1.300000
v 0.800000 1.200000 1.100000
v 0.800000 0.000000 1.100000
v 0.900000 1.200000 1.300000
v 0.900000 0.000000 1.300000
v 0.900000 1.200000 1.100000
v 0.900000 0.000000 1.100000
vn -0.0000 1.0000 -0.0000
vn -0.0000 -1.0000 -0.0000
vn -0.0000 -0.0000 -1.0000
vn -1.0000 -0.0000 -0.0000
vn -0.0000 -0.0000 1.0000
vn 1.0000 -0.0000 -0.0000
vt 0.875000 0.500000
vt 0.625000 0.750000
vt 0.625000 0.500000
vt 0.375000 0.500000
vt 0.125000 0.750000
vt 0.125000 0.500000
vt 0.375000 1.000000
vt 0.375000 0.750000
vt 0.625000 0.250000
vt 0.375000 0.250000
vt 0.625000 0.000000
vt 0.375000 0.000000
vt 0.875000 0.750000
vt 0.625000 1.000000
s 0
f 12/1/1 14/2/1 16/3/1
f 15/4/2 9/5/2 11/6/2
f 4/1/1 6/2/1 8/3/1
f 7/4/2 1/5/2 3/6/2
f 6/2/3 1/7/3 5/8/3
f 8/3/4 5/8/4 7/4/4
f 4/9/5 7/4/5 3/10/5
f 2/11/6 3/10/6 1/12/6
f 16/3/4 13/8/4 15/4/4
f 10/11/6 11/10/6 9/12/6
f 23/11/6 22/10/6 24/12/6
f 21/9/5 18/4/5 22/10/5
f 17/3/4 20/8/4 18/4/4
f 19/2/3 24/7/3 20/8/3
f 18/4/2 24/5/2 22/6/2
f 21/1/1 19/2/1 17/3/1
f 31/11/6 30/10/6 32/12/6
f 29/9/5 26/4/5 30/10/5
f 25/3/4 28/8/4 26/4/4
f 27/2/3 32/7/3 28/8/3
f 26/4/2 32/5/2 30/6/2
f 29/1/1 27/2/1 25/3/1
f 12/1/1 10/13/1 14/2/1
f 15/4/2 13/8/2 9/5/2
f 4/1/1 2/13/1 6/2/1
f 7/4/2 5/8/2 1/5/2
f 6/2/3 2/14/3 1/7/3
f 8/3/4 6/2/4 5/8/4
f 4/9/5 8/3/5 7/4/5
f 2/11/6 4/9/6 3/10/6
f 16/3/4 14/2/4 13/8/4
f 10/11/6 12/9/6 11/10/6
f 23/11/6 21/9/6 22/10/6
f 21/9/5 17/3/5 18/4/5
f 17/3/4 19/2/4 20/8/4
f 19/2/3 23/14/3 24/7/3
f 18/4/2 20/8/2 24/5/2
f 21/1/1 23/13/1 19/2/1
f 31/11/6 29/9/6 30/10/6
f 29/9/5 25/3/5 26/4/5
f 25/3/4 27/2/4 28/8/4
f 27/2/3 31/14/3 32/7/3
f 26/4/2 28/8/2 32/5/2
f 29/1/1 31/13/1 27/2/1
