# Blender 4.3.2
# www.blender.org
mtllib CT_Wall_Front0.mtl
g CT_Wall_Front0_Mesh
v 0.900000 0.000000 -0.000000
v 0.900000 2.600000 -0.000000
v 0.900000 0.000000 1.500000
v 0.900000 2.600000 1.500000
v 0.800000 0.000000 -0.000000
v 0.800000 2.600000 -0.000000
v 0.800000 0.000000 1.500000
v 0.800000 2.600000 1.500000
v 0.900000 0.800000 -0.200000
v 0.900000 2.600000 -0.200000
v 0.900000 0.800000 -0.000000
v 0.900000 2.600000 -0.000000
v 0.800000 0.800000 -0.200000
v 0.800000 2.600000 -0.200000
v 0.800000 0.800000 -0.000000
v 0.800000 2.600000 -0.000000
v 0.900000 0.000000 -0.600000
v 0.900000 2.600000 -0.600000
v 0.900000 0.000000 -0.200000
v 0.900000 2.600000 -0.200000
v 0.800000 0.000000 -0.600000
v 0.800000 2.600000 -0.600000
v 0.800000 0.000000 -0.200000
v 0.800000 2.600000 -0.200000
vn -0.0000 1.0000 -0.0000
vn -0.0000 -1.0000 -0.0000
vn -0.0000 -0.0000 -1.0000
vn -1.0000 -0.0000 -0.0000
vn -0.0000 -0.0000 1.0000
vn 1.0000 -0.0000 -0.0000
vt 0.875000 0.500000
vt 0.625000 0.750000
vt 0.625000 0.500000
vt 0.375000 0.500000
vt 0.125000 0.750000
vt 0.125000 0.500000
vt 0.375000 1.000000
vt 0.375000 0.750000
vt 0.625000 0.250000
vt 0.375000 0.250000
vt 0.625000 0.000000
vt 0.375000 0.000000
vt 0.875000 0.750000
vt 0.625000 1.000000
s 0
f 12/1/1 14/2/1 16/3/1
f 15/4/2 9/5/2 11/6/2
f 4/1/1 6/2/1 8/3/1
f 7/4/2 1/5/2 3/6/2
f 6/2/3 1/7/3 5/8/3
f 8/3/4 5/8/4 7/4/4
f 4/9/5 7/4/5 3/10/5
f 2/11/6 3/10/6 1/12/6
f 16/3/4 13/8/4 15/4/4
f 10/11/6 11/10/6 9/12/6
f 20/1/1 22/2/1 24/3/1
f 23/4/2 17/5/2 19/6/2
f 22/2/3 17/7/3 21/8/3
f 24/3/4 21/8/4 23/4/4
f 20/9/5 23/4/5 19/10/5
f 18/11/6 19/10/6 17/12/6
f 12/1/1 10/13/1 14/2/1
f 15/4/2 13/8/2 9/5/2
f 4/1/1 2/13/1 6/2/1
f 7/4/2 5/8/2 1/5/2
f 6/2/3 2/14/3 1/7/3
f 8/3/4 6/2/4 5/8/4
f 4/9/5 8/3/5 7/4/5
f 2/11/6 4/9/6 3/10/6
f 16/3/4 14/2/4 13/8/4
f 10/11/6 12/9/6 11/10/6
f 20/1/1 18/13/1 22/2/1
f 23/4/2 21/8/2 17/5/2
f 22/2/3 18/14/3 17/7/3
f 24/3/4 22/2/4 21/8/4
f 20/9/5 24/3/5 23/4/5
f 18/11/6 20/9/6 19/10/6
