# Blender 4.3.2
# www.blender.org
mtllib CT_Wall_SideDoor0.mtl
g CT_Wall_SideDoor0_Mesh
v -0.100000 0.000000 -1.400000
v -0.100000 3.050000 -1.400000
v -0.100000 0.000000 -0.700000
v -0.100000 3.400000 -0.700000
v -0.000000 0.000000 -1.400000
v -0.000000 3.050000 -1.400000
v -0.000000 0.000000 -0.700000
v -0.000000 3.400000 -0.700000
v -0.100000 0.000000 0.700000
v -0.100000 3.400000 0.700000
v -0.100001 0.000000 2.300000
v -0.100001 2.600000 2.300000
v -0.000000 0.000000 0.700000
v -0.000000 3.400000 0.700000
v -0.000001 0.000000 2.300000
v -0.000001 2.600000 2.300000
v -0.100000 2.600000 -0.700000
v -0.100000 3.400000 -0.700000
v -0.100000 2.600000 0.700000
v -0.100000 3.400000 0.700000
v -0.000000 2.600000 -0.700000
v -0.000000 3.400000 -0.700000
v -0.000001 2.600000 0.700000
v -0.000001 3.400000 0.700000
v -0.100000 2.600000 -0.000000
v -0.100000 3.750000 -0.000000
v -0.000000 2.600000 -0.000000
v -0.000000 3.750000 -0.000000
v -0.300000 -0.100000 0.700000
v -0.300000 3.400000 0.700000
v 0.050000 -0.100000 0.700000
v 0.050000 3.400000 0.700000
v -0.300000 -0.100000 0.900000
v -0.300000 3.400000 0.900000
v 0.050000 -0.100000 0.900000
v 0.050000 3.400000 0.900000
v -0.300000 -0.100000 -0.900000
v -0.300000 3.400000 -0.900000
v 0.050000 -0.100000 -0.900000
v 0.050000 3.400000 -0.900000
v -0.300000 -0.100000 -0.700000
v -0.300000 3.400000 -0.700000
v 0.050000 -0.100000 -0.700000
v 0.050000 3.400000 -0.700000
v -0.300000 2.800000 -0.700000
v -0.300000 2.800000 0.700000
v 0.050000 2.800000 -0.700000
v 0.050000 2.800000 0.700000
v -0.300000 2.600000 -0.700000
v -0.300000 2.599999 0.700000
v 0.050000 2.600000 -0.700000
v 0.050000 2.600000 0.700000
vn -0.0000 0.8944 -0.4472
vn -0.0000 -1.0000 -0.0000
vn -0.0000 -0.0000 -1.0000
vn 1.0000 -0.0000 -0.0000
vn -1.0000 -0.0000 -0.0000
vn -0.0000 0.8944 0.4472
vn -0.0000 -0.0000 1.0000
vn -0.0000 1.0000 -0.0000
vt 0.625000 0.750000
vt 0.875000 0.500000
vt 0.625000 0.500000
vt 0.125000 0.500000
vt 0.375000 0.750000
vt 0.375000 0.500000
vt 0.375000 1.000000
vt 0.375000 0.250000
vt 0.625000 0.000000
vt 0.375000 0.000000
vt 0.125000 0.750000
vt 0.625000 0.250000
vt 0.625000 0.625000
vt 0.875000 0.750000
vt 0.875000 0.625000
vt 0.375000 0.625000
vt 0.375000 0.125000
vt 0.625000 0.125000
vt 0.625000 1.000000
s 0
f 6/1/1 4/2/1 8/3/1
f 3/4/2 5/5/2 7/6/2
f 1/7/3 6/1/3 5/5/3
f 7/6/4 6/1/4 8/3/4
f 3/8/5 2/9/5 1/10/5
f 14/1/6 12/2/6 16/3/6
f 9/11/2 15/6/2 11/4/2
f 13/5/4 16/3/4 15/6/4
f 15/6/7 12/12/7 11/8/7
f 9/10/5 12/12/5 10/9/5
f 28/13/1 18/14/1 26/15/1
f 17/7/3 22/1/3 21/5/3
f 27/16/4 22/1/4 28/13/4
f 23/6/7 20/12/7 19/8/7
f 25/17/5 20/12/5 26/18/5
f 25/17/5 18/9/5 17/10/5
f 27/16/4 24/3/4 23/6/4
f 28/13/6 20/2/6 24/3/6
f 30/9/3 31/8/3 29/10/3
f 32/12/4 35/6/4 31/8/4
f 36/3/7 33/5/7 35/6/7
f 34/1/5 29/7/5 33/5/5
f 40/12/4 43/6/4 39/8/4
f 38/9/3 39/8/3 37/10/3
f 44/3/7 41/5/7 43/6/7
f 42/1/5 37/7/5 41/5/5
f 48/12/4 51/6/4 47/8/4
f 46/9/8 47/8/8 45/10/8
f 52/3/2 49/5/2 51/6/2
f 50/1/5 45/7/5 49/5/5
f 31/8/2 33/5/2 29/7/2
f 39/8/2 41/5/2 37/7/2
f 6/1/1 2/14/1 4/2/1
f 3/4/2 1/11/2 5/5/2
f 1/7/3 2/19/3 6/1/3
f 7/6/4 5/5/4 6/1/4
f 3/8/5 4/12/5 2/9/5
f 14/1/6 10/14/6 12/2/6
f 9/11/2 13/5/2 15/6/2
f 13/5/4 14/1/4 16/3/4
f 15/6/7 16/3/7 12/12/7
f 9/10/5 11/8/5 12/12/5
f 28/13/1 22/1/1 18/14/1
f 17/7/3 18/19/3 22/1/3
f 27/16/4 21/5/4 22/1/4
f 23/6/7 24/3/7 20/12/7
f 25/17/5 19/8/5 20/12/5
f 25/17/5 26/18/5 18/9/5
f 27/16/4 28/13/4 24/3/4
f 28/13/6 26/15/6 20/2/6
f 30/9/3 32/12/3 31/8/3
f 32/12/4 36/3/4 35/6/4
f 36/3/7 34/1/7 33/5/7
f 34/1/5 30/19/5 29/7/5
f 40/12/4 44/3/4 43/6/4
f 38/9/3 40/12/3 39/8/3
f 44/3/7 42/1/7 41/5/7
f 42/1/5 38/19/5 37/7/5
f 48/12/4 52/3/4 51/6/4
f 46/9/8 48/12/8 47/8/8
f 52/3/2 50/1/2 49/5/2
f 50/1/5 46/19/5 45/7/5
f 31/8/2 35/6/2 33/5/2
f 39/8/2 43/6/2 41/5/2
