# Blender 5.0.1
# www.blender.org
mtllib QuestionMark.mtl
g QuestionMark_Mesh
v -0.035607 -0.000433 -0.030433
v -0.035607 0.066497 -0.030433
v 0.036781 0.066497 -0.030433
v 0.036781 -0.000433 -0.030433
v 0.036781 0.099957 -0.030433
v -0.035607 0.099957 -0.030433
v -0.035952 0.122033 -0.030433
v -0.034649 0.149821 -0.030433
v -0.030739 0.173852 -0.030433
v -0.024224 0.194127 -0.030433
v -0.013952 0.213138 -0.030433
v 0.001226 0.233375 -0.030433
v 0.021309 0.254838 -0.030433
v 0.043041 0.277068 -0.030433
v 0.058104 0.294085 -0.030433
v 0.070713 0.315587 -0.030433
v 0.074086 0.337970 -0.030433
v 0.071921 0.356789 -0.030433
v 0.065424 0.373231 -0.030433
v 0.054597 0.387297 -0.030433
v 0.040473 0.398029 -0.030433
v 0.024088 0.404468 -0.030433
v 0.005442 0.406614 -0.030433
v -0.031659 0.397148 -0.030433
v -0.057875 0.368747 -0.030433
v -0.073206 0.321413 -0.030433
v -0.145990 0.332451 -0.030433
v -0.139646 0.373097 -0.030433
v -0.124756 0.408569 -0.030433
v -0.101319 0.438867 -0.030433
v -0.071251 0.461959 -0.030433
v -0.036469 0.475814 -0.030433
v 0.003027 0.480433 -0.030433
v 0.043194 0.475795 -0.030433
v 0.078609 0.461882 -0.030433
v 0.109271 0.438694 -0.030433
v 0.132842 0.408569 -0.030433
v 0.146985 0.373844 -0.030433
v 0.151699 0.334521 -0.030433
v 0.150051 0.313728 -0.030433
v 0.145107 0.293664 -0.030433
v 0.136867 0.274327 -0.030433
v 0.123184 0.253036 -0.030433
v 0.101912 0.227108 -0.030433
v 0.073051 0.196542 -0.030433
v 0.058391 0.180636 -0.030433
v 0.047985 0.166953 -0.030433
v 0.038557 0.142424 -0.030433
v 0.036775 0.123912 -0.030433
v -0.036469 0.475814 0.029567
v 0.003027 0.480433 0.029567
v 0.043194 0.475795 0.029567
v -0.071251 0.461959 0.029567
v 0.078609 0.461882 0.029567
v -0.101319 0.438867 0.029567
v 0.109271 0.438694 0.029567
v -0.124756 0.408569 0.029567
v 0.132842 0.408569 0.029567
v -0.139646 0.373097 0.029567
v 0.024088 0.404468 0.029567
v 0.040473 0.398029 0.029567
v 0.146985 0.373844 0.029567
v 0.005442 0.406614 0.029567
v -0.031659 0.397148 0.029567
v 0.054597 0.387297 0.029567
v -0.057875 0.368747 0.029567
v 0.065424 0.373231 0.029567
v 0.151699 0.334521 0.029567
v 0.071921 0.356789 0.029567
v -0.145990 0.332451 0.029567
v -0.073206 0.321413 0.029567
v 0.074086 0.337970 0.029567
v 0.150051 0.313728 0.029567
v 0.070713 0.315587 0.029567
v 0.145107 0.293664 0.029567
v 0.058104 0.294085 0.029567
v 0.043041 0.277068 0.029567
v 0.136867 0.274327 0.029567
v 0.021309 0.254838 0.029567
v 0.123184 0.253036 0.029567
v 0.001226 0.233375 0.029567
v 0.101912 0.227108 0.029567
v -0.013952 0.213138 0.029567
v 0.073051 0.196542 0.029567
v -0.024224 0.194127 0.029567
v 0.058391 0.180636 0.029567
v -0.030739 0.173852 0.029567
v 0.047985 0.166953 0.029567
v -0.034649 0.149821 0.029567
v 0.038557 0.142424 0.029567
v -0.035952 0.122033 0.029567
v 0.036775 0.123912 0.029567
v 0.036781 0.099957 0.029567
v -0.035607 0.099957 0.029567
v -0.035607 -0.000433 0.029567
v -0.035607 0.066497 0.029567
v 0.036781 0.066497 0.029567
v 0.036781 -0.000433 0.029567
vn -0.0000 -0.0000 -1.0000
vn -0.0000 -0.0000 1.0000
vn 0.9872 -0.1597 -0.0000
vn 0.9485 -0.3167 -0.0000
vn -0.9946 0.1039 -0.0000
vn -0.9723 0.2339 -0.0000
vn -0.2452 0.9695 -0.0000
vn -0.0007 1.0000 -0.0000
vn 0.9682 0.2503 -0.0000
vn 0.9998 0.0201 -0.0000
vn 0.8085 -0.5884 -0.0000
vn 0.7506 -0.6608 -0.0000
vn -0.0000 1.0000 -0.0000
vn -0.8639 0.5037 -0.0000
vn -0.9621 0.2726 -0.0000
vn -0.8095 0.5871 -0.0000
vn -0.9428 0.3335 -0.0000
vn -0.9700 -0.2430 -0.0000
vn -0.8697 -0.4935 -0.0000
vn -0.7662 0.6426 -0.0000
vn -0.8422 0.5392 -0.0000
vn -0.0000 -1.0000 -0.0000
vn -0.4900 -0.8717 -0.0000
vn -0.2421 -0.9703 -0.0000
vn 0.2422 0.9702 -0.0000
vn 1.0000 -0.0000 -0.0000
vn 0.8651 0.5015 -0.0000
vn 0.9682 0.2504 -0.0000
vn -0.7322 0.6811 -0.0000
vn -0.9998 0.0175 -0.0000
vn -0.4943 0.8693 -0.0000
vn -0.9880 0.1542 -0.0000
vn 0.8734 -0.4869 -0.0000
vn 0.9733 -0.2294 -0.0000
vn 0.0676 -0.9977 -0.0000
vn 0.2472 -0.9690 -0.0000
vn -0.9999 0.0156 -0.0000
vn 0.7312 -0.6821 -0.0000
vn -0.1499 -0.9887 -0.0000
vn -0.9198 0.3923 -0.0000
vn -0.7049 -0.7093 -0.0000
vn 0.8837 -0.4680 -0.0000
vn 0.4890 0.8723 -0.0000
vn 0.8632 -0.5049 -0.0000
vn 0.9513 -0.3081 -0.0000
vn -0.7227 0.6912 -0.0000
vn 0.9989 -0.0478 -0.0000
vn -0.7059 0.7083 -0.0000
vn 0.7665 -0.6422 -0.0000
vn 0.7665 -0.6423 -0.0000
vn 1.0000 0.0003 -0.0000
vn 0.7348 -0.6783 -0.0000
vn 0.8631 -0.5049 -0.0000
vn -0.9999 -0.0156 -0.0000
vn 0.7013 0.7129 -0.0000
vn -1.0000 -0.0000 -0.0000
vt 0.647059 0.000000
vt 0.666667 0.000000
vt 0.686275 0.000000
vt 0.627451 0.000000
vt 0.705882 0.000000
vt 0.607843 0.000000
vt 0.725490 0.000000
vt 0.588235 0.000000
vt 0.000000 0.000000
vt 0.392157 0.000000
vt 0.411765 0.000000
vt 0.764706 0.000000
vt 0.784314 0.000000
vt 0.372549 0.000000
vt 0.549020 0.000000
vt 0.568627 0.000000
vt 0.509804 0.000000
vt 0.529412 0.000000
vt 0.352941 0.000000
vt 0.333333 0.000000
vt 0.803922 0.000000
vt 0.313726 0.000000
vt 0.294118 0.000000
vt 0.823529 0.000000
vt 0.274510 0.000000
vt 0.254902 0.000000
vt 0.843137 0.000000
vt 0.235294 0.000000
vt 0.862745 0.000000
vt 0.215686 0.000000
vt 0.882353 0.000000
vt 0.196078 0.000000
vt 0.901961 0.000000
vt 0.176471 0.000000
vt 0.921569 0.000000
vt 0.156863 0.000000
vt 0.941176 0.000000
vt 0.137255 0.000000
vt 0.960784 0.000000
vt 0.980392 0.000000
vt 0.117647 0.000000
vt 1.000000 0.000000
vt 0.078431 0.000000
vt 0.098039 0.000000
vt 0.019608 0.000000
vt 0.039216 0.000000
vt 0.058824 0.000000
s 1
f 32/1/1 33/2/1 34/3/1
f 31/4/1 32/1/1 34/3/1
f 31/4/1 34/3/1 35/5/1
f 30/6/1 31/4/1 35/5/1
f 30/6/1 35/5/1 36/7/1
f 29/8/1 30/6/1 36/7/1
f 21/9/1 22/9/1 37/9/1
f 20/9/1 21/9/1 37/9/1
f 19/10/1 20/11/1 38/12/1
f 19/10/1 38/12/1 39/13/1
f 18/14/1 19/10/1 39/13/1
f 27/15/1 28/16/1 25/17/1
f 27/15/1 25/17/1 26/18/1
f 17/19/1 18/14/1 39/13/1
f 17/20/1 39/13/1 40/21/1
f 16/22/1 17/20/1 40/21/1
f 16/23/1 40/21/1 41/24/1
f 15/25/1 16/23/1 41/24/1
f 14/26/1 15/25/1 41/24/1
f 14/26/1 41/24/1 42/27/1
f 13/28/1 14/26/1 42/27/1
f 13/28/1 42/27/1 43/29/1
f 12/30/1 13/28/1 43/29/1
f 12/30/1 43/29/1 44/31/1
f 11/32/1 12/30/1 44/31/1
f 11/32/1 44/31/1 45/33/1
f 10/34/1 11/32/1 45/33/1
f 10/34/1 45/33/1 46/35/1
f 9/36/1 10/34/1 46/35/1
f 9/36/1 46/35/1 47/37/1
f 8/38/1 9/36/1 47/37/1
f 8/38/1 47/39/1 48/40/1
f 7/41/1 8/38/1 48/40/1
f 7/41/1 48/40/1 49/42/1
f 7/41/1 49/42/1 5/43/1
f 6/44/1 7/41/1 5/43/1
f 1/9/1 2/45/1 3/46/1
f 1/9/1 3/46/1 4/47/1
f 36/9/1 22/9/1 23/9/1
f 36/9/1 23/9/1 29/8/1
f 23/9/1 24/9/1 29/8/1
f 29/8/1 25/17/1 28/16/1
f 37/9/1 38/12/1 20/9/1
f 50/1/2 52/3/2 51/2/2
f 53/4/2 52/3/2 50/1/2
f 53/4/2 54/5/2 52/3/2
f 55/6/2 54/5/2 53/4/2
f 55/6/2 56/7/2 54/5/2
f 57/8/2 56/7/2 55/6/2
f 61/9/2 58/9/2 60/9/2
f 65/9/2 58/9/2 61/9/2
f 67/10/2 62/12/2 65/11/2
f 67/10/2 68/13/2 62/12/2
f 69/14/2 68/13/2 67/10/2
f 70/15/2 66/17/2 59/16/2
f 70/15/2 71/18/2 66/17/2
f 72/19/2 68/13/2 69/14/2
f 72/20/2 73/21/2 68/13/2
f 74/22/2 73/21/2 72/20/2
f 74/23/2 75/24/2 73/21/2
f 76/25/2 75/24/2 74/23/2
f 77/26/2 75/24/2 76/25/2
f 77/26/2 78/27/2 75/24/2
f 79/28/2 78/27/2 77/26/2
f 79/28/2 80/29/2 78/27/2
f 81/30/2 80/29/2 79/28/2
f 81/30/2 82/31/2 80/29/2
f 83/32/2 82/31/2 81/30/2
f 83/32/2 84/33/2 82/31/2
f 85/34/2 84/33/2 83/32/2
f 85/34/2 86/35/2 84/33/2
f 87/36/2 86/35/2 85/34/2
f 87/36/2 88/37/2 86/35/2
f 89/38/2 88/37/2 87/36/2
f 89/38/2 90/40/2 88/39/2
f 91/41/2 90/40/2 89/38/2
f 91/41/2 92/42/2 90/40/2
f 91/41/2 93/43/2 92/42/2
f 94/44/2 93/43/2 91/41/2
f 95/9/2 97/46/2 96/45/2
f 95/9/2 98/47/2 97/46/2
f 56/9/2 60/9/2 58/9/2
f 56/9/2 57/8/2 63/9/2
f 63/9/2 57/8/2 64/9/2
f 66/17/2 57/8/2 59/16/2
f 58/9/2 65/9/2 62/12/2
f 40/21/3 75/24/4 41/24/4
f 8/38/5 87/36/6 9/36/6
f 32/1/7 51/2/8 33/2/8
f 38/12/9 68/13/10 39/13/10
f 43/29/11 82/31/12 44/31/12
f 2/45/13 97/46/13 3/46/13
f 29/8/14 59/16/15 57/8/14
f 15/25/16 74/23/17 16/23/17
f 18/14/18 67/10/19 19/10/19
f 12/30/20 83/32/21 81/30/20
f 4/47/22 95/9/22 1/9/22
f 21/9/23 60/9/24 22/9/24
f 33/2/8 52/3/25 34/3/25
f 3/46/26 98/47/26 4/47/26
f 37/9/27 62/12/28 38/12/9
f 14/26/29 76/25/16 15/25/16
f 16/22/17 72/20/30 17/20/30
f 31/4/31 50/1/7 32/1/7
f 27/15/32 59/16/15 28/16/15
f 47/39/33 90/40/34 48/40/34
f 23/9/35 64/9/36 24/9/36
f 7/41/37 89/38/5 8/38/5
f 44/31/12 84/33/38 45/33/38
f 22/9/24 63/9/35 23/9/35
f 26/18/39 70/15/39 27/15/39
f 10/34/40 83/32/21 11/32/21
f 21/9/23 65/9/41 61/9/23
f 41/24/4 78/27/42 42/27/42
f 34/3/25 54/5/43 35/5/43
f 25/17/44 71/18/45 26/18/45
f 13/28/46 77/26/29 14/26/29
f 48/40/34 92/42/47 49/42/47
f 30/6/48 53/4/31 31/4/31
f 45/33/38 86/35/49 46/35/50
f 49/42/47 93/43/51 5/43/51
f 39/13/10 73/21/3 40/21/3
f 9/36/6 85/34/40 10/34/40
f 24/9/52 66/17/53 25/17/44
f 42/27/42 80/29/11 43/29/11
f 6/44/54 91/41/37 7/41/37
f 35/5/43 56/7/55 36/7/55
f 17/19/30 69/14/18 18/14/18
f 19/10/19 65/11/41 20/11/41
f 12/30/20 79/28/46 13/28/46
f 5/43/22 94/44/22 6/44/22
f 29/8/14 55/6/48 30/6/48
f 2/45/56 95/9/56 96/45/56
f 46/35/50 88/37/33 47/37/33
f 36/9/55 58/9/27 37/9/27
f 36/9/1 37/9/1 22/9/1
f 29/8/1 24/9/1 25/17/1
f 56/9/2 63/9/2 60/9/2
f 66/17/2 64/9/2 57/8/2
f 40/21/3 73/21/3 75/24/4
f 8/38/5 89/38/5 87/36/6
f 32/1/7 50/1/7 51/2/8
f 38/12/9 62/12/28 68/13/10
f 43/29/11 80/29/11 82/31/12
f 2/45/13 96/45/13 97/46/13
f 29/8/14 28/16/15 59/16/15
f 15/25/16 76/25/16 74/23/17
f 18/14/18 69/14/18 67/10/19
f 12/30/20 11/32/21 83/32/21
f 4/47/22 98/47/22 95/9/22
f 21/9/23 61/9/23 60/9/24
f 33/2/8 51/2/8 52/3/25
f 3/46/26 97/46/26 98/47/26
f 37/9/27 58/9/27 62/12/28
f 14/26/29 77/26/29 76/25/16
f 16/22/17 74/22/17 72/20/30
f 31/4/31 53/4/31 50/1/7
f 27/15/32 70/15/32 59/16/15
f 47/39/33 88/39/33 90/40/34
f 23/9/35 63/9/35 64/9/36
f 7/41/37 91/41/37 89/38/5
f 44/31/12 82/31/12 84/33/38
f 22/9/24 60/9/24 63/9/35
f 26/18/39 71/18/39 70/15/39
f 10/34/40 85/34/40 83/32/21
f 21/9/23 20/9/41 65/9/41
f 41/24/4 75/24/4 78/27/42
f 34/3/25 52/3/25 54/5/43
f 25/17/44 66/17/53 71/18/45
f 13/28/46 79/28/46 77/26/29
f 48/40/34 90/40/34 92/42/47
f 30/6/48 55/6/48 53/4/31
f 45/33/38 84/33/38 86/35/49
f 49/42/47 92/42/47 93/43/51
f 39/13/10 68/13/10 73/21/3
f 9/36/6 87/36/6 85/34/40
f 24/9/52 64/9/52 66/17/53
f 42/27/42 78/27/42 80/29/11
f 6/44/54 94/44/54 91/41/37
f 35/5/43 54/5/43 56/7/55
f 17/19/30 72/19/30 69/14/18
f 19/10/19 67/10/19 65/11/41
f 12/30/20 81/30/20 79/28/46
f 5/43/22 93/43/22 94/44/22
f 29/8/14 57/8/14 55/6/48
f 2/45/56 1/9/56 95/9/56
f 46/35/50 86/35/49 88/37/33
f 36/9/55 56/9/55 58/9/27
