# Blender 5.0.1
# www.blender.org
mtllib MonitorArmHolder.mtl
g Cylinder.012_Mesh
v 3.800000 3.500000 -0.160000
v -3.799999 3.500000 -0.160000
v 3.800000 3.561229 -0.147821
v -3.799999 3.561229 -0.147821
v 3.800000 3.613137 -0.113137
v -3.799999 3.613137 -0.113137
v 3.799999 3.647821 -0.061229
v -3.799999 3.647821 -0.061229
v 3.799999 3.660000 0.000000
v -3.799999 3.660000 0.000000
v 3.799999 3.647821 0.061229
v -3.800000 3.647821 0.061229
v 3.799999 3.613137 0.113137
v -3.799999 3.613137 0.113137
v 3.799999 3.561229 0.147821
v -3.799999 3.561229 0.147821
v 3.799999 3.500000 0.160000
v -3.800000 3.500000 0.160000
v 3.799999 3.438771 0.147821
v -3.800000 3.438771 0.147821
v 3.799999 3.386863 0.113137
v -3.800000 3.386863 0.113137
v 3.799999 3.352179 0.061229
v -3.799999 3.352179 0.061229
v 3.799999 3.340000 0.000000
v -3.799999 3.340000 -0.000000
v 3.800000 3.352179 -0.061229
v -3.799999 3.352179 -0.061229
v 3.799999 3.386863 -0.113137
v -3.799999 3.386863 -0.113137
v 3.799999 3.438771 -0.147821
v -3.799999 3.438771 -0.147821
v 3.800000 0.000000 0.200000
v 3.800000 7.000000 0.200000
v 3.800000 0.000000 -0.200000
v 3.800000 7.000000 -0.200000
v 4.200000 0.000000 0.200000
v 4.200000 7.000000 0.200000
v 4.200000 0.000000 -0.200000
v 4.200000 7.000000 -0.200000
v 4.200000 4.400000 -2.400000
v 4.200000 0.000000 -2.400000
v 4.200000 4.400000 -2.000000
v 4.200000 0.000000 -2.000000
v 3.800000 4.400000 -2.400000
v 3.800000 0.000000 -2.400000
v 3.800000 4.400000 -2.000000
v 3.800000 0.000000 -2.000000
v -3.800000 5.400000 -0.200000
v 3.800000 5.400001 -0.200000
v -3.800000 5.400000 0.200000
v 3.800000 5.400000 0.200000
v -3.800000 5.000000 -0.200001
v 3.800000 5.000000 -0.200000
v -3.800000 5.000000 0.200000
v 3.800000 5.000000 0.200000
v -3.800000 7.000000 -0.200000
v -3.800000 0.000000 -0.200000
v -3.800000 7.000000 0.200000
v -3.800000 0.000000 0.200000
v -4.200000 7.000000 -0.200000
v -4.200000 0.000000 -0.200000
v -4.200000 7.000000 0.200000
v -4.200000 0.000000 0.200000
v -4.200000 0.000000 -2.000000
v -4.200000 4.400000 -2.000000
v -4.200000 0.000000 -2.400000
v -4.200000 4.400000 -2.400000
v -3.800000 0.000000 -2.000000
v -3.800000 4.400000 -2.000000
v -3.800000 0.000000 -2.400000
v -3.800000 4.400000 -2.400000
v 3.800000 4.000000 -2.000000
v -3.800000 4.000000 -2.000000
v 3.800000 4.000000 -2.400000
v -3.800000 4.000000 -2.400001
v 3.800000 4.400000 -2.000000
v -3.800000 4.400000 -2.000000
v 3.800000 4.400001 -2.400000
v -3.800000 4.400000 -2.400000
v -0.800000 4.300000 -2.600000
v 0.800000 4.300001 -2.600000
v -0.800000 5.599999 -0.000000
v 0.800000 5.600000 0.000001
v -0.800000 4.200000 -2.600001
v 0.800000 4.200000 -2.600000
v -0.800000 5.500000 -0.000000
v 0.800000 5.500000 0.000000
v -3.300000 4.300000 -2.600000
v -1.700000 4.300001 -2.600000
v -3.300000 5.599999 -0.000000
v -1.700000 5.600000 0.000001
v -3.300000 4.200000 -2.600001
v -1.700000 4.200000 -2.600000
v -3.300000 5.500000 -0.000000
v -1.700000 5.500000 0.000000
v 1.600000 4.300000 -2.600000
v 3.200000 4.300001 -2.600000
v 1.600000 5.599999 -0.000000
v 3.200000 5.600000 0.000001
v 1.600000 4.200000 -2.600001
v 3.200000 4.200000 -2.600000
v 1.600000 5.500000 -0.000000
v 3.200000 5.500000 0.000000
vn -0.0000 0.1951 -0.9808
vn -0.0000 0.5556 -0.8315
vn -0.0000 0.8315 -0.5556
vn -0.0000 0.9808 -0.1951
vn -0.0000 0.9808 0.1951
vn -0.0000 0.8315 0.5556
vn -0.0000 0.5556 0.8315
vn -0.0000 0.1951 0.9808
vn -0.0000 -0.1951 0.9808
vn -0.0000 -0.5556 0.8315
vn -0.0000 -0.8315 0.5556
vn -0.0000 -0.9808 0.1951
vn -0.0000 -0.9808 -0.1951
vn -0.0000 -0.8315 -0.5556
vn -1.0000 -0.0000 -0.0000
vn -0.0000 -0.5556 -0.8315
vn -0.0000 -0.1951 -0.9808
vn 1.0000 -0.0000 -0.0000
vn -0.0000 -0.0000 -1.0000
vn -0.0000 -0.0000 1.0000
vn -0.0000 -1.0000 -0.0000
vn -0.0000 1.0000 -0.0000
vn -0.0000 0.8944 -0.4472
vn -0.0000 -0.8944 0.4472
vn -1.0000 -0.0001 -0.0000
vn 1.0000 -0.0000 0.0001
vt 1.000000 1.000000
vt 0.937500 0.500000
vt 1.000000 0.500000
vt 0.937500 1.000000
vt 0.875000 0.500000
vt 0.875000 1.000000
vt 0.812500 0.500000
vt 0.812500 1.000000
vt 0.750000 0.500000
vt 0.750000 1.000000
vt 0.687500 0.500000
vt 0.625000 1.000000
vt 0.625000 0.500000
vt 0.562500 0.500000
vt 0.562500 1.000000
vt 0.500000 0.500000
vt 0.500000 1.000000
vt 0.437500 0.500000
vt 0.437500 1.000000
vt 0.375000 0.500000
vt 0.312500 1.000000
vt 0.312500 0.500000
vt 0.250000 0.500000
vt 0.187500 1.000000
vt 0.187500 0.500000
vt 0.125000 0.500000
vt 0.080294 0.080294
vt 0.419706 0.080294
vt 0.419706 0.419706
vt 0.125000 1.000000
vt 0.062500 0.500000
vt 0.000000 1.000000
vt 0.000000 0.500000
vt 0.841844 0.028269
vt 0.528269 0.158156
vt 0.658156 0.471731
vt 0.625000 0.000000
vt 0.375000 0.250000
vt 0.375000 0.000000
vt 0.625000 0.250000
vt 0.375000 0.750000
vt 0.625000 0.750000
vt 0.375000 1.000000
vt 0.125000 0.750000
vt 0.875000 0.750000
vt 0.687500 1.000000
vt 0.250000 1.000000
vt 0.341844 0.471731
vt 0.250000 0.490000
vt 0.158156 0.471731
vt 0.080294 0.419706
vt 0.028269 0.341844
vt 0.010000 0.250000
vt 0.028269 0.158156
vt 0.158156 0.028269
vt 0.250000 0.010000
vt 0.341844 0.028269
vt 0.471731 0.158156
vt 0.490000 0.250000
vt 0.471731 0.341844
vt 0.062500 1.000000
vt 0.750000 0.490000
vt 0.841844 0.471731
vt 0.919706 0.419706
vt 0.971731 0.341844
vt 0.990000 0.250000
vt 0.971731 0.158156
vt 0.919706 0.080294
vt 0.750000 0.010000
vt 0.658156 0.028269
vt 0.580294 0.080294
vt 0.510000 0.250000
vt 0.528269 0.341844
vt 0.580294 0.419706
s 0
f 2/1/1 3/2/1 1/3/1
f 4/4/2 5/5/2 3/2/2
f 6/6/3 7/7/3 5/5/3
f 8/8/4 9/9/4 7/7/4
f 10/10/5 11/11/5 9/9/5
f 11/11/6 14/12/6 13/13/6
f 14/12/7 15/14/7 13/13/7
f 16/15/8 17/16/8 15/14/8
f 18/17/9 19/18/9 17/16/9
f 20/19/10 21/20/10 19/18/10
f 21/20/11 24/21/11 23/22/11
f 24/21/12 25/23/12 23/22/12
f 25/23/13 28/24/13 27/25/13
f 28/24/14 29/26/14 27/25/14
f 22/27/15 14/28/15 6/29/15
f 30/30/16 31/31/16 29/26/16
f 31/31/17 2/32/17 1/33/17
f 15/34/18 23/35/18 31/36/18
f 34/37/15 35/38/15 33/39/15
f 36/40/19 39/20/19 35/38/19
f 40/13/18 37/41/18 39/20/18
f 38/42/20 33/43/20 37/41/20
f 39/20/21 33/44/21 35/26/21
f 36/5/22 38/42/22 40/13/22
f 42/20/21 48/44/21 46/26/21
f 45/40/19 42/20/19 46/38/19
f 47/37/15 46/38/15 48/39/15
f 43/42/20 48/43/20 44/41/20
f 45/5/22 43/42/22 41/13/22
f 41/13/18 44/41/18 42/20/18
f 49/13/22 52/41/22 50/20/22
f 53/40/19 50/20/19 54/38/19
f 53/5/15 51/42/15 49/13/15
f 51/42/20 56/43/20 52/41/20
f 55/37/21 54/38/21 56/39/21
f 50/20/18 56/44/18 54/26/18
f 58/20/21 64/44/21 62/26/21
f 61/40/19 58/20/19 62/38/19
f 63/37/15 62/38/15 64/39/15
f 59/42/20 64/43/20 60/41/20
f 61/5/22 59/42/22 57/13/22
f 57/13/18 60/41/18 58/20/18
f 68/5/22 70/42/22 72/13/22
f 68/40/19 71/20/19 67/38/19
f 71/20/21 65/44/21 67/26/21
f 70/42/20 65/43/20 69/41/20
f 72/13/18 69/41/18 71/20/18
f 66/37/15 67/38/15 65/39/15
f 76/5/15 78/42/15 80/13/15
f 76/40/19 79/20/19 75/38/19
f 79/20/18 73/44/18 75/26/18
f 78/42/20 73/43/20 77/41/20
f 80/13/22 77/41/22 79/20/22
f 74/37/21 75/38/21 73/39/21
f 82/20/23 83/42/23 84/41/23
f 85/40/19 82/20/19 86/38/19
f 81/13/15 87/45/15 83/42/15
f 83/42/20 88/43/20 84/41/20
f 87/37/24 86/38/24 88/39/24
f 82/20/18 88/44/18 86/26/18
f 90/20/23 91/42/23 92/41/23
f 93/40/19 90/20/19 94/38/19
f 89/13/15 95/45/15 91/42/15
f 91/42/20 96/43/20 92/41/20
f 95/37/24 94/38/24 96/39/24
f 90/20/18 96/44/18 94/26/18
f 98/20/23 99/42/23 100/41/23
f 101/40/19 98/20/19 102/38/19
f 97/13/15 103/45/15 99/42/15
f 99/42/20 104/43/20 100/41/20
f 103/37/24 102/38/24 104/39/24
f 98/20/18 104/44/18 102/26/18
f 2/1/1 4/4/1 3/2/1
f 4/4/2 6/6/2 5/5/2
f 6/6/3 8/8/3 7/7/3
f 8/8/4 10/10/4 9/9/4
f 10/10/5 12/46/5 11/11/5
f 11/11/6 12/46/6 14/12/6
f 14/12/7 16/15/7 15/14/7
f 16/15/8 18/17/8 17/16/8
f 18/17/9 20/19/9 19/18/9
f 20/19/10 22/43/10 21/20/10
f 21/20/11 22/43/11 24/21/11
f 24/21/12 26/47/12 25/23/12
f 25/23/13 26/47/13 28/24/13
f 28/24/14 30/30/14 29/26/14
f 6/29/15 4/48/15 2/49/15
f 2/49/15 32/50/15 30/51/15
f 30/51/15 28/52/15 26/53/15
f 26/53/15 24/54/15 22/27/15
f 22/27/15 20/55/15 18/56/15
f 18/56/15 16/57/15 14/28/15
f 14/28/25 12/58/25 10/59/25
f 10/59/15 8/60/15 6/29/15
f 6/29/15 2/49/15 30/51/15
f 30/51/15 26/53/15 22/27/15
f 22/27/15 18/56/15 14/28/15
f 14/28/15 10/59/15 6/29/15
f 6/29/15 30/51/15 22/27/15
f 30/30/16 32/61/16 31/31/16
f 31/31/17 32/61/17 2/32/17
f 31/36/26 1/62/26 3/63/26
f 3/63/26 5/64/26 7/65/26
f 7/65/18 9/66/18 11/67/18
f 11/67/18 13/68/18 15/34/18
f 15/34/18 17/69/18 19/70/18
f 19/70/18 21/71/18 23/35/18
f 23/35/18 25/72/18 27/73/18
f 27/73/18 29/74/18 31/36/18
f 31/36/18 3/63/18 7/65/18
f 7/65/18 11/67/18 15/34/18
f 15/34/18 19/70/18 23/35/18
f 23/35/18 27/73/18 31/36/18
f 31/36/18 7/65/18 15/34/18
f 34/37/15 36/40/15 35/38/15
f 36/40/19 40/13/19 39/20/19
f 40/13/18 38/42/18 37/41/18
f 38/42/20 34/12/20 33/43/20
f 39/20/21 37/41/21 33/44/21
f 36/5/22 34/45/22 38/42/22
f 42/20/21 44/41/21 48/44/21
f 45/40/19 41/13/19 42/20/19
f 47/37/15 45/40/15 46/38/15
f 43/42/20 47/12/20 48/43/20
f 45/5/22 47/45/22 43/42/22
f 41/13/18 43/42/18 44/41/18
f 49/13/22 51/42/22 52/41/22
f 53/40/19 49/13/19 50/20/19
f 53/5/15 55/45/15 51/42/15
f 51/42/20 55/12/20 56/43/20
f 55/37/21 53/40/21 54/38/21
f 50/20/18 52/41/18 56/44/18
f 58/20/21 60/41/21 64/44/21
f 61/40/19 57/13/19 58/20/19
f 63/37/15 61/40/15 62/38/15
f 59/42/20 63/12/20 64/43/20
f 61/5/22 63/45/22 59/42/22
f 57/13/18 59/42/18 60/41/18
f 68/5/22 66/45/22 70/42/22
f 68/40/19 72/13/19 71/20/19
f 71/20/21 69/41/21 65/44/21
f 70/42/20 66/12/20 65/43/20
f 72/13/18 70/42/18 69/41/18
f 66/37/15 68/40/15 67/38/15
f 76/5/15 74/45/15 78/42/15
f 76/40/19 80/13/19 79/20/19
f 79/20/18 77/41/18 73/44/18
f 78/42/20 74/12/20 73/43/20
f 80/13/22 78/42/22 77/41/22
f 74/37/21 76/40/21 75/38/21
f 82/20/23 81/13/23 83/42/23
f 85/40/19 81/13/19 82/20/19
f 81/13/15 85/5/15 87/45/15
f 83/42/20 87/12/20 88/43/20
f 87/37/24 85/40/24 86/38/24
f 82/20/18 84/41/18 88/44/18
f 90/20/23 89/13/23 91/42/23
f 93/40/19 89/13/19 90/20/19
f 89/13/15 93/5/15 95/45/15
f 91/42/20 95/12/20 96/43/20
f 95/37/24 93/40/24 94/38/24
f 90/20/18 92/41/18 96/44/18
f 98/20/23 97/13/23 99/42/23
f 101/40/19 97/13/19 98/20/19
f 97/13/15 101/5/15 103/45/15
f 99/42/20 103/12/20 104/43/20
f 103/37/24 101/40/24 102/38/24
f 98/20/18 100/41/18 104/44/18
