# Blender 5.0.1
# www.blender.org
mtllib Shop1.mtl
g Cube.031_Mesh
v 2.300000 5.100000 0.000000
v 2.300000 5.200000 0.000000
v -4.300000 2.900000 0.000000
v -4.300000 3.000000 0.000000
v 2.300000 5.100000 10.300000
v 2.300000 5.200000 10.300000
v -4.300000 2.900000 10.300000
v -4.300000 3.000000 10.300000
v 2.000000 -1.000000 0.000000
v 2.000000 -0.000000 0.000000
v 2.000000 -1.000000 10.000000
v 2.000000 -0.000000 10.000000
v -4.000000 -1.000000 0.000000
v -4.000000 -0.000000 0.000000
v -3.999999 -1.000000 10.000000
v -3.999999 -0.000000 10.000000
v 2.000000 0.000000 0.000000
v 2.000000 5.100000 0.000000
v 2.000000 0.000000 -0.100000
v 2.000000 5.100000 -0.100000
v 4.000000 0.000000 0.000000
v 4.000000 5.100000 0.000000
v 4.000000 0.000000 -0.100000
v 4.000000 5.100000 -0.100000
v -4.000000 2.700000 0.000000
v -4.000000 5.100000 0.000000
v -4.000000 2.700000 -0.100000
v -4.000000 5.100000 -0.100000
v 2.000000 4.700000 0.000000
v 2.000000 5.100000 0.000000
v 2.000000 4.700000 -0.100000
v 2.000000 5.100000 -0.100000
v 1.400000 0.000000 0.000000
v 1.400000 4.500000 0.000000
v 1.400000 0.000000 -0.100000
v 1.400000 4.500000 -0.100000
v 2.000000 0.000000 0.000000
v 2.000000 4.700000 0.000000
v 2.000000 0.000000 -0.100000
v 2.000000 4.700000 -0.100000
v -4.000000 0.000000 0.000000
v -4.000000 2.700000 0.000000
v -4.000000 0.000000 -0.100000
v -4.000000 2.700000 -0.100000
v -3.400000 0.000000 0.000000
v -3.400000 2.900000 0.000000
v -3.400000 0.000000 -0.100000
v -3.400000 2.900000 -0.100000
v 2.000000 0.300000 -0.100000
v 2.000000 4.900001 -0.100000
v 2.000000 0.300000 -0.400001
v 2.000000 4.900001 -0.400001
v 2.299999 0.300000 -0.100000
v 2.299999 4.900001 -0.100000
v 2.299999 0.300000 -0.400001
v 2.299999 4.900001 -0.400001
v 1.400000 0.300000 0.100000
v 1.400000 4.500000 0.100000
v 1.400000 0.300000 -0.200001
v 1.400000 4.500000 -0.200001
v 1.699999 0.300000 0.100000
v 1.699999 4.600000 0.100000
v 1.699999 0.300000 -0.200001
v 1.699999 4.600000 -0.200001
v -3.400001 2.900001 -0.200001
v -3.400001 0.300000 -0.200001
v -3.400001 2.900001 0.100000
v -3.400001 0.300000 0.100000
v -3.700000 2.900001 -0.200001
v -3.700000 0.300000 -0.200001
v -3.700000 2.900001 0.100000
v -3.700000 0.300000 0.100000
v -3.640000 2.820000 0.100000
v -3.640000 3.120001 0.100000
v -3.640000 2.820000 -0.200001
v -3.640000 3.120001 -0.200001
v 2.000000 4.700001 0.100000
v 2.000000 5.000001 0.100000
v 2.000000 4.700001 -0.200001
v 2.000000 5.000001 -0.200001
v -3.580000 2.840000 5.150000
v -3.580000 3.140001 5.150000
v -3.580000 2.840000 4.849999
v -3.580000 3.140001 4.849999
v 1.580000 4.560000 5.150000
v 1.580000 4.860001 5.150000
v 1.580000 4.560000 4.849999
v 1.580000 4.860001 4.849999
v -3.580000 2.840000 2.650000
v -3.580000 3.140001 2.650000
v -3.580000 2.840000 2.349999
v -3.580000 3.140001 2.349999
v 1.580000 4.560000 2.650000
v 1.580000 4.860001 2.650000
v 1.580000 4.560000 2.349999
v 1.580000 4.860001 2.349999
v -3.580000 2.840000 7.650000
v -3.580000 3.140001 7.650000
v -3.580000 2.840000 7.349999
v -3.580000 3.140001 7.349999
v 1.580000 4.560000 7.650000
v 1.580000 4.860001 7.650000
v 1.580000 4.560000 7.349999
v 1.580000 4.860001 7.349999
v -3.580000 2.840000 9.900001
v -3.580000 3.140001 9.900001
v -3.580000 2.840000 9.599999
v -3.580000 3.140001 9.599999
v 1.580000 4.560000 9.900001
v 1.580000 4.860001 9.900001
v 1.580000 4.560000 9.599999
v 1.580000 4.860001 9.599999
v -3.900000 0.000000 -0.100000
v -3.900000 0.300000 -0.100000
v -3.900000 0.000000 -0.400001
v -3.900000 0.300000 -0.400001
v -3.400000 0.000000 -0.100000
v -3.400000 0.300000 -0.100000
v -3.400000 0.000000 -0.400001
v -3.400000 0.300000 -0.400001
v 1.400000 0.000000 -0.100000
v 1.400000 0.300000 -0.100000
v 1.400000 0.000000 -0.400001
v 1.400000 0.300000 -0.400001
v 4.000000 0.000000 -0.100000
v 4.000000 0.300000 -0.100000
v 4.000000 0.000000 -0.400001
v 4.000000 0.300000 -0.400001
v -3.900000 0.300000 0.300000
v -3.900000 2.900000 0.300000
v -3.900000 0.300000 -0.000001
v -3.900000 2.900000 -0.000001
v -3.600001 0.300000 0.300000
v -3.600001 2.900000 0.300000
v -3.600001 0.300000 -0.000001
v -3.600001 2.900000 -0.000001
v -3.900000 0.000000 0.300000
v -3.900000 0.300000 0.300000
v -3.600000 0.000000 0.300000
v -3.600000 0.300000 0.300000
v -3.900000 0.000000 9.900000
v -3.900000 0.300000 9.900000
v -3.600000 0.000000 9.900000
v -3.600000 0.300000 9.900000
v 1.900000 0.300000 9.900000
v 1.900000 0.000000 9.900000
v 1.600000 0.300000 9.900000
v 1.600000 0.000000 9.900000
v 1.900000 0.300000 0.300000
v 1.900000 0.000000 0.300000
v 1.600000 0.300000 0.300000
v 1.600000 0.000000 0.300000
v 1.899999 4.900001 0.699999
v 1.899999 0.300000 0.699999
v 1.899999 4.900001 1.000000
v 1.899999 0.300000 1.000000
v 1.600000 4.900001 0.699999
v 1.600000 0.300000 0.699999
v 1.600000 4.900001 1.000000
v 1.600000 0.300000 1.000000
v 1.950000 1.000000 2.500000
v 1.750000 1.000000 2.500000
v 1.749999 3.000000 2.500001
v 1.949999 3.000000 2.500001
v 1.750000 1.000000 2.300000
v 1.749999 3.000000 2.300000
v 1.950000 1.000000 2.300000
v 1.949999 3.000000 2.300000
v 2.000000 1.000000 1.149999
v 1.750000 1.000000 1.149999
v 1.749999 3.000000 1.150001
v 1.999999 3.000000 1.150001
v 1.750000 1.000000 1.000000
v 1.749999 3.000000 1.000000
v 2.000000 1.000000 1.000000
v 1.999999 3.000000 1.000000
v 2.000000 0.700001 5.200000
v 1.700000 0.700001 5.200000
v 1.699999 0.700000 1.000000
v 1.999999 0.700000 1.000000
v 1.700000 1.000001 5.200000
v 1.699999 1.000000 1.000000
v 2.000000 1.000001 5.200000
v 1.999999 1.000000 1.000000
v 2.000000 3.000001 5.200000
v 1.700000 3.000001 5.200000
v 1.699999 3.000000 1.000000
v 1.999999 3.000000 1.000000
v 1.700000 3.300001 5.200000
v 1.699999 3.300000 1.000000
v 2.000000 3.300001 5.200000
v 1.999999 3.300000 1.000000
v 1.950000 1.000000 3.699999
v 1.750000 1.000000 3.699999
v 1.749999 3.000000 3.699998
v 1.949999 3.000000 3.699998
v 1.750000 1.000000 3.899999
v 1.749999 3.000000 3.899999
v 1.950000 1.000000 3.899999
v 1.949999 3.000000 3.899999
v 2.000000 1.000000 5.050000
v 1.750000 1.000000 5.050000
v 1.749999 3.000000 5.049998
v 1.999999 3.000000 5.049998
v 1.750000 1.000000 5.200000
v 1.749999 3.000000 5.199999
v 2.000000 1.000000 5.200000
v 1.999999 3.000000 5.199999
v 1.899999 4.900001 5.199999
v 1.899999 0.300000 5.199999
v 1.899999 4.900001 5.500000
v 1.899999 0.300000 5.500000
v 1.600000 4.900001 5.199999
v 1.600000 0.300000 5.199999
v 1.600000 4.900001 5.500000
v 1.600000 0.300000 5.500000
v 2.000000 0.000000 1.000000
v 2.000000 5.000000 1.000000
v 1.900000 0.000000 1.000000
v 1.900000 5.000000 1.000000
v 2.000000 0.000000 -0.000000
v 2.000000 5.000000 -0.000000
v 1.900000 0.000000 -0.000000
v 1.900000 5.000000 -0.000000
v 2.000000 0.000000 10.000000
v 2.000000 5.000000 10.000000
v 1.900000 0.000000 10.000000
v 1.900000 5.000000 10.000000
v 2.000000 0.000000 5.200000
v 2.000000 5.000000 5.200000
v 1.900000 0.000000 5.200000
v 1.900000 5.000000 5.200000
v 2.000000 0.000000 5.200000
v 2.000000 0.699999 5.200000
v 1.900000 0.000000 5.200000
v 1.900000 0.699999 5.200000
v 2.000000 0.000000 1.000000
v 2.000000 0.699999 1.000000
v 1.900000 0.000000 1.000000
v 1.900000 0.699999 1.000000
v 1.900000 5.000000 5.200000
v 1.900000 3.300000 5.200000
v 2.000000 5.000000 5.200000
v 2.000000 3.300000 5.200000
v 2.000000 3.300000 1.000000
v 2.000000 5.000000 1.000000
v 1.900000 3.300000 1.000000
v 1.900000 5.000000 1.000000
v 1.940000 4.980000 9.900000
v 1.940000 4.680000 9.900000
v 1.580000 4.860001 9.900000
v 1.580000 4.560000 9.900000
v 1.940000 4.980000 0.100000
v 1.940000 4.680000 0.100000
v 1.580000 4.860001 0.100000
v 1.580000 4.560000 0.100000
v -3.580000 3.140000 9.900000
v -3.580000 2.840000 9.900000
v -3.940000 3.020000 9.900000
v -3.940000 2.720000 9.900000
v -3.580000 3.140000 0.100000
v -3.580000 2.840000 0.100000
v -3.940000 3.020000 0.100000
v -3.940000 2.720000 0.100000
v -3.900000 0.000000 10.000000
v -3.900000 3.100000 10.000000
v -4.000000 0.000000 10.000000
v -4.000000 3.100000 10.000000
v -3.900000 0.000000 0.000000
v -3.900000 3.100000 0.000000
v -4.000000 0.000000 0.000000
v -4.000000 3.100000 0.000000
v -3.900000 0.300000 2.650000
v -3.900000 2.900000 2.650000
v -3.900000 0.300000 2.349999
v -3.900000 2.900000 2.349999
v -3.600001 0.300000 2.650000
v -3.600001 2.900000 2.650000
v -3.600001 0.300000 2.349999
v -3.600001 2.900000 2.349999
v -3.900000 0.300000 5.150000
v -3.900000 2.900000 5.150000
v -3.900000 0.300000 4.849999
v -3.900000 2.900000 4.849999
v -3.600001 0.300000 5.150000
v -3.600001 2.900000 5.150000
v -3.600001 0.300000 4.849999
v -3.600001 2.900000 4.849999
v -3.900000 0.300000 9.000000
v -3.900000 2.900000 9.000000
v -3.900000 0.300000 8.700000
v -3.900000 2.900000 8.700000
v -3.600001 0.300000 9.000000
v -3.600001 2.900000 9.000000
v -3.600001 0.300000 8.700000
v -3.600001 2.900000 8.700000
v -3.900000 0.300000 9.900000
v -3.900000 2.900000 9.900000
v -3.900000 0.300000 9.599999
v -3.900000 2.900000 9.599999
v -3.600001 0.300000 9.900000
v -3.600001 2.900000 9.900000
v -3.600001 0.300000 9.599999
v -3.600001 2.900000 9.599999
v -3.600000 0.700001 8.699999
v -3.900000 0.700001 8.699999
v -3.900001 0.700000 6.299999
v -3.600001 0.700000 6.299999
v -3.900000 1.000001 8.699999
v -3.900001 1.000000 6.299999
v -3.600000 1.000001 8.699999
v -3.600001 1.000000 6.299999
v -3.600001 2.900000 5.999999
v -3.600001 0.300000 5.999999
v -3.600001 2.900000 6.299999
v -3.600001 0.300000 6.299999
v -3.900000 2.900000 5.999999
v -3.900000 0.300000 5.999999
v -3.900000 2.900000 6.299999
v -3.900000 0.300000 6.299999
v -2.800000 0.800001 8.699999
v -3.000000 0.800001 8.699999
v -3.000001 0.800000 6.299999
v -2.800001 0.800000 6.299999
v -3.000000 1.000001 8.699999
v -3.000001 1.000000 6.299999
v -2.800000 1.000001 8.699999
v -2.800001 1.000000 6.299999
v -2.800000 1.000001 8.699999
v -3.850000 1.000001 8.699999
v -3.850001 1.000000 6.299999
v -2.800001 1.000000 6.299999
v -3.850000 1.050001 8.699999
v -3.850001 1.050000 6.299999
v -2.800000 1.050001 8.699999
v -2.800001 1.050000 6.299999
v -2.800000 0.000001 8.699999
v -3.000000 0.000001 8.699999
v -3.000001 0.000000 8.499999
v -2.800001 0.000000 8.499999
v -3.000000 0.800001 8.699999
v -3.000001 0.800000 8.499999
v -2.800000 0.800001 8.699999
v -2.800001 0.800000 8.499999
v -2.800000 0.000001 6.499999
v -3.000000 0.000001 6.499999
v -3.000001 0.000000 6.299999
v -2.800001 0.000000 6.299999
v -3.000000 0.800001 6.499999
v -3.000001 0.800000 6.299999
v -2.800000 0.800001 6.499999
v -2.800001 0.800000 6.299999
v -2.200000 0.700001 10.000001
v -2.200000 0.700001 9.700001
v 0.200000 0.700000 9.700001
v 0.200000 0.700000 10.000000
v -2.200000 1.000001 9.700001
v 0.200000 1.000000 9.700001
v -2.200000 1.000001 10.000001
v 0.200000 1.000000 10.000001
v -2.200000 3.300001 10.000001
v -2.200000 3.300001 9.700001
v 0.200000 3.300000 9.700001
v 0.200000 3.300000 10.000000
v -2.200000 3.600001 9.700001
v 0.200000 3.600000 9.700001
v -2.200000 3.600001 10.000001
v 0.200000 3.600000 10.000001
v -4.000000 0.000000 10.000000
v -4.000000 2.999999 10.000000
v -4.000000 0.000000 9.900000
v -4.000000 2.999999 9.900000
v -2.200000 0.000000 10.000000
v -2.200000 3.599999 10.000000
v -2.200000 0.000000 9.900000
v -2.200000 3.599999 9.900000
v 0.200001 0.000000 10.000000
v 0.200001 4.399999 10.000000
v 0.200001 0.000000 9.900000
v 0.200001 4.399999 9.900000
v 2.000000 0.000000 10.000000
v 2.000000 4.999999 10.000000
v 2.000000 0.000000 9.900000
v 2.000000 4.999999 9.900000
v -2.200000 3.600000 10.000000
v -2.200000 3.599999 10.000000
v -2.200000 3.600000 9.900000
v -2.200000 3.599999 9.900000
v 0.200000 3.600000 10.000000
v 0.200000 4.399999 10.000000
v 0.200000 3.600000 9.900000
v 0.200000 4.399999 9.900000
v -2.200000 0.000000 10.000000
v -2.200000 0.699999 10.000000
v -2.200000 0.000000 9.900000
v -2.200000 0.699999 9.900000
v 0.200000 0.000000 10.000000
v 0.200000 0.699999 10.000000
v 0.200000 0.000000 9.900000
v 0.200000 0.699999 9.900000
v 1.600000 0.000000 9.600000
v 1.600000 0.300000 9.600000
v 1.600000 0.000000 9.900001
v 1.600000 0.300000 9.900001
v -3.600000 0.000000 9.599999
v -3.600000 0.300000 9.599999
v -3.600000 0.000000 9.900001
v -3.600000 0.300000 9.900001
v 1.899999 4.900001 9.599998
v 1.899999 0.300000 9.599998
v 1.899999 4.900001 9.900000
v 1.899999 0.300000 9.900000
v 1.600000 4.900001 9.599998
v 1.600000 0.300000 9.599998
v 1.600000 4.900001 9.900000
v 1.600000 0.300000 9.900000
v 0.500000 4.300001 9.599998
v 0.500000 0.300000 9.599998
v 0.500000 4.300001 9.900000
v 0.500000 0.300000 9.900000
v 0.200000 4.300001 9.599998
v 0.200000 0.300000 9.599998
v 0.200000 4.300001 9.900000
v 0.200000 0.300000 9.900000
v -2.200001 3.400001 9.599998
v -2.200001 0.300000 9.599998
v -2.200001 3.400001 9.900000
v -2.200001 0.300000 9.900000
v -2.500000 3.400001 9.599998
v -2.500000 0.300000 9.599998
v -2.500000 3.400001 9.900000
v -2.500000 0.300000 9.900000
v 2.100000 0.000000 -0.700000
v 2.100000 2.400000 -0.700000
v 2.100000 0.000000 -1.700000
v 2.100000 1.400000 -1.700000
v 3.900000 0.000000 -0.700000
v 3.900000 2.400000 -0.700000
v 3.900000 0.000000 -1.700000
v 3.900000 1.400000 -1.700000
v 2.100000 0.000000 -0.100000
v 2.100000 2.400000 -0.100000
v 3.900000 2.400000 -0.100000
v 3.900000 0.000000 -0.100000
v 3.900000 3.500000 -0.700000
v 2.100000 3.500000 -0.700000
v 3.900000 3.500000 -0.100000
v 2.100000 3.500000 -0.100000
v 3.400000 0.400000 -2.100000
v 3.400000 0.400000 -1.700000
v 3.682843 0.282843 -2.100000
v 3.682843 0.282843 -1.700000
v 3.800000 0.000000 -2.100000
v 3.800000 0.000000 -1.700000
v 3.000000 0.000000 -2.100000
v 3.000000 0.000000 -1.700000
v 3.117157 0.282843 -2.100000
v 3.117157 0.282843 -1.700000
v 1.400000 0.000000 0.300000
v 1.400000 0.300000 0.300000
v 1.400000 0.000000 -0.000001
v 1.400000 0.300000 -0.000001
v 1.900000 0.000000 0.300000
v 1.900000 0.300000 0.300000
v 1.900000 0.000000 -0.000001
v 1.900000 0.300000 -0.000001
v -3.900000 0.000000 0.300000
v -3.900000 0.300000 0.300000
v -3.900000 0.000000 -0.000001
v -3.900000 0.300000 -0.000001
v -3.400000 0.000000 0.300000
v -3.400000 0.300000 0.300000
v -3.400000 0.000000 -0.000001
v -3.400000 0.300000 -0.000001
vn -0.0000 -0.0000 -1.0000
vn -1.0000 -0.0000 -0.0000
vn -0.0000 -0.0000 1.0000
vn 1.0000 -0.0000 -0.0000
vn 0.3162 -0.9487 -0.0000
vn -0.3162 0.9487 -0.0000
vn -0.0000 -1.0000 -0.0000
vn -0.0000 1.0000 -0.0000
vn -0.0000 0.7071 -0.7071
vn 0.7071 0.7071 -0.0000
vn 0.9239 0.3827 -0.0000
vn -0.9239 0.3827 -0.0000
vn -0.7071 0.7071 -0.0000
vt 0.375000 0.000000
vt 0.625000 0.250000
vt 0.625000 0.000000
vt 0.375000 0.500000
vt 0.375000 0.250000
vt 0.375000 0.750000
vt 0.625000 0.500000
vt 0.375000 1.000000
vt 0.625000 0.750000
vt 0.125000 0.750000
vt 0.125000 0.500000
vt 0.875000 0.500000
vt 0.625000 1.000000
vt 0.875000 0.750000
vt 1.000000 1.000000
vt 1.000000 0.500000
vt 0.875000 1.000000
vt 0.750000 0.500000
vt 0.250000 0.500000
vt 0.250000 1.000000
vt 0.125000 1.000000
vt 0.000000 0.500000
vt 0.750000 1.000000
vt 0.000000 1.000000
s 0
f 1/1/1 4/2/1 2/3/1
f 7/4/2 4/2/2 3/5/2
f 5/6/3 8/7/3 7/4/3
f 1/8/4 6/9/4 5/6/4
f 1/10/5 7/4/5 3/11/5
f 6/9/6 4/12/6 8/7/6
f 10/3/4 11/5/4 9/1/4
f 12/2/3 15/4/3 11/5/3
f 16/7/2 13/6/2 15/4/2
f 14/9/1 9/8/1 13/6/1
f 15/4/7 9/10/7 11/11/7
f 12/12/8 14/9/8 16/7/8
f 18/3/2 19/5/2 17/1/2
f 20/2/1 23/4/1 19/5/1
f 24/7/4 21/6/4 23/4/4
f 22/9/3 17/8/3 21/6/3
f 23/4/7 17/10/7 19/11/7
f 20/12/8 22/9/8 24/7/8
f 26/3/2 27/5/2 25/1/2
f 28/2/1 31/4/1 27/5/1
f 32/7/4 29/6/4 31/4/4
f 29/6/3 26/13/3 25/8/3
f 31/4/5 25/10/5 27/11/5
f 28/12/8 30/9/8 32/7/8
f 34/3/2 35/5/2 33/1/2
f 36/2/1 39/4/1 35/5/1
f 40/7/4 37/6/4 39/4/4
f 37/6/3 34/13/3 33/8/3
f 39/4/7 33/10/7 35/11/7
f 36/12/6 38/9/6 40/7/6
f 42/3/2 43/5/2 41/1/2
f 44/2/1 47/4/1 43/5/1
f 48/7/4 45/6/4 47/4/4
f 45/6/3 42/13/3 41/8/3
f 47/4/7 41/10/7 43/11/7
f 44/12/6 46/9/6 48/7/6
f 50/3/2 51/5/2 49/1/2
f 52/2/1 55/4/1 51/5/1
f 56/7/4 53/6/4 55/4/4
f 54/9/3 49/8/3 53/6/3
f 55/4/7 49/10/7 51/11/7
f 52/12/8 54/9/8 56/7/8
f 58/3/2 59/5/2 57/1/2
f 60/2/1 63/4/1 59/5/1
f 64/7/4 61/6/4 63/4/4
f 61/6/3 58/13/3 57/8/3
f 63/4/7 57/10/7 59/11/7
f 60/12/6 62/9/6 64/7/6
f 69/12/8 67/9/8 65/7/8
f 66/4/7 72/10/7 70/11/7
f 67/9/3 72/8/3 68/6/3
f 65/7/4 68/6/4 66/4/4
f 69/2/1 66/4/1 70/5/1
f 71/3/2 70/5/2 72/1/2
f 460/3/2 461/5/2 459/1/2
f 76/2/1 79/4/1 75/5/1
f 462/2/1 465/4/1 461/5/1
f 77/6/3 74/13/3 73/8/3
f 79/4/5 73/10/5 75/11/5
f 76/12/6 78/9/6 80/7/6
f 82/3/2 83/5/2 81/1/2
f 84/2/1 87/4/1 83/5/1
f 88/7/4 85/6/4 87/4/4
f 85/6/3 82/13/3 81/8/3
f 87/4/5 81/10/5 83/11/5
f 84/12/6 86/9/6 88/7/6
f 90/3/2 91/5/2 89/1/2
f 92/2/1 95/4/1 91/5/1
f 96/7/4 93/6/4 95/4/4
f 93/6/3 90/13/3 89/8/3
f 95/4/5 89/10/5 91/11/5
f 92/12/6 94/9/6 96/7/6
f 98/3/2 99/5/2 97/1/2
f 100/2/1 103/4/1 99/5/1
f 104/7/4 101/6/4 103/4/4
f 101/6/3 98/13/3 97/8/3
f 103/4/5 97/10/5 99/11/5
f 100/12/6 102/9/6 104/7/6
f 106/3/2 107/5/2 105/1/2
f 108/2/1 111/4/1 107/5/1
f 112/7/4 109/6/4 111/4/4
f 109/6/3 106/13/3 105/8/3
f 111/4/5 105/10/5 107/11/5
f 108/12/6 110/9/6 112/7/6
f 114/3/2 115/5/2 113/1/2
f 116/2/1 119/4/1 115/5/1
f 120/7/4 117/6/4 119/4/4
f 118/9/3 113/8/3 117/6/3
f 119/4/7 113/10/7 115/11/7
f 116/12/8 118/9/8 120/7/8
f 122/3/2 123/5/2 121/1/2
f 124/2/1 127/4/1 123/5/1
f 128/7/4 125/6/4 127/4/4
f 126/9/3 121/8/3 125/6/3
f 127/4/7 121/10/7 123/11/7
f 124/12/8 126/9/8 128/7/8
f 130/3/2 131/5/2 129/1/2
f 132/2/1 135/4/1 131/5/1
f 136/7/4 133/6/4 135/4/4
f 134/9/3 129/8/3 133/6/3
f 135/4/7 129/10/7 131/11/7
f 132/12/8 134/9/8 136/7/8
f 140/12/8 142/9/8 144/7/8
f 143/4/7 137/10/7 139/11/7
f 142/9/2 137/8/2 141/6/2
f 144/7/3 141/6/3 143/4/3
f 140/2/4 143/4/4 139/5/4
f 149/2/4 146/4/4 150/5/4
f 157/12/8 155/9/8 153/7/8
f 154/4/7 160/10/7 158/11/7
f 155/9/3 160/8/3 156/6/3
f 153/7/4 156/6/4 154/4/4
f 163/8/2 165/9/2 162/6/2
f 164/5/3 162/3/3 161/1/3
f 168/13/1 165/9/1 166/13/1
f 171/8/2 173/9/2 170/6/2
f 172/5/3 170/3/3 169/1/3
f 176/13/1 173/9/1 174/13/1
f 175/9/4 172/5/4 169/1/4
f 157/2/1 154/4/1 158/5/1
f 159/3/2 158/5/2 160/1/2
f 167/9/4 164/5/4 161/1/4
f 178/6/2 182/13/2 179/8/2
f 178/3/7 180/5/7 177/1/7
f 181/9/8 184/13/8 182/13/8
f 186/6/2 190/13/2 187/8/2
f 186/3/7 188/5/7 185/1/7
f 189/9/8 192/13/8 190/13/8
f 197/9/2 195/8/2 194/6/2
f 194/3/1 196/5/1 193/1/1
f 197/9/3 200/13/3 198/13/3
f 205/9/2 203/8/2 202/6/2
f 202/3/1 204/5/1 201/1/1
f 205/9/3 208/13/3 206/13/3
f 204/5/4 207/9/4 201/1/4
f 180/5/4 183/9/4 177/1/4
f 188/5/4 191/9/4 185/1/4
f 196/5/4 199/9/4 193/1/4
f 145/7/3 148/6/3 146/4/3
f 147/9/2 152/8/2 148/6/2
f 146/4/7 152/10/7 150/11/7
f 149/12/8 147/9/8 145/7/8
f 213/12/8 211/9/8 209/7/8
f 210/4/7 216/10/7 214/11/7
f 211/9/3 216/8/3 212/6/3
f 209/7/4 212/6/4 210/4/4
f 213/2/1 210/4/1 214/5/1
f 215/3/2 214/5/2 216/1/2
f 218/3/3 219/5/3 217/1/3
f 220/2/2 223/4/2 219/5/2
f 224/7/1 221/6/1 223/4/1
f 222/9/4 217/8/4 221/6/4
f 223/4/7 217/10/7 219/11/7
f 220/12/8 222/9/8 224/7/8
f 226/3/3 227/5/3 225/1/3
f 228/2/2 231/4/2 227/5/2
f 232/7/1 229/6/1 231/4/1
f 230/9/4 225/8/4 229/6/4
f 231/4/7 225/10/7 227/11/7
f 228/12/8 230/9/8 232/7/8
f 234/3/3 235/5/3 233/1/3
f 236/2/2 239/4/2 235/5/2
f 240/7/1 237/6/1 239/4/1
f 238/9/4 233/8/4 237/6/4
f 239/4/7 233/10/7 235/11/7
f 236/12/8 238/9/8 240/7/8
f 243/3/3 242/5/3 244/1/3
f 241/2/2 247/4/2 242/5/2
f 248/7/1 245/6/1 247/4/1
f 246/9/4 244/8/4 245/6/4
f 247/4/7 244/10/7 242/11/7
f 241/12/8 246/9/8 248/7/8
f 253/2/4 250/4/4 254/5/4
f 255/3/1 254/5/1 256/1/1
f 250/4/3 251/9/3 252/6/3
f 251/9/2 256/8/2 252/6/2
f 250/4/5 256/10/5 254/11/5
f 253/12/6 251/9/6 249/7/6
f 261/2/4 258/4/4 262/5/4
f 263/3/1 262/5/1 264/1/1
f 258/4/3 259/9/3 260/6/3
f 259/9/2 264/8/2 260/6/2
f 258/4/5 264/10/5 262/11/5
f 261/12/6 259/9/6 257/7/6
f 266/3/3 267/5/3 265/1/3
f 268/2/2 271/4/2 267/5/2
f 272/7/1 269/6/1 271/4/1
f 270/9/4 265/8/4 269/6/4
f 271/4/7 265/10/7 267/11/7
f 268/12/8 270/9/8 272/7/8
f 274/3/2 275/5/2 273/1/2
f 276/2/1 279/4/1 275/5/1
f 280/7/4 277/6/4 279/4/4
f 278/9/3 273/8/3 277/6/3
f 279/4/7 273/10/7 275/11/7
f 276/12/8 278/9/8 280/7/8
f 282/3/2 283/5/2 281/1/2
f 284/2/1 287/4/1 283/5/1
f 288/7/4 285/6/4 287/4/4
f 286/9/3 281/8/3 285/6/3
f 287/4/7 281/10/7 283/11/7
f 284/12/8 286/9/8 288/7/8
f 290/3/2 291/5/2 289/1/2
f 292/2/1 295/4/1 291/5/1
f 296/7/4 293/6/4 295/4/4
f 294/9/3 289/8/3 293/6/3
f 295/4/7 289/10/7 291/11/7
f 292/12/8 294/9/8 296/7/8
f 298/3/2 299/5/2 297/1/2
f 300/2/1 303/4/1 299/5/1
f 304/7/4 301/6/4 303/4/4
f 302/9/3 297/8/3 301/6/3
f 303/4/7 297/10/7 299/11/7
f 300/12/8 302/9/8 304/7/8
f 309/9/2 307/8/2 306/6/2
f 306/3/7 308/5/7 305/1/7
f 309/9/8 312/13/8 310/13/8
f 308/5/4 311/9/4 305/1/4
f 315/9/3 320/8/3 316/6/3
f 313/7/4 316/6/4 314/4/4
f 317/2/1 314/4/1 318/5/1
f 319/3/2 318/5/2 320/1/2
f 314/4/7 320/10/7 318/11/7
f 317/12/8 315/9/8 313/7/8
f 325/9/2 323/8/2 322/6/2
f 322/3/7 324/5/7 321/1/7
f 325/9/8 328/13/8 326/13/8
f 324/5/4 327/9/4 321/1/4
f 333/9/2 331/8/2 330/6/2
f 330/3/7 332/5/7 329/1/7
f 333/9/8 336/13/8 334/13/8
f 332/5/4 335/9/4 329/1/4
f 329/1/3 333/9/3 330/6/3
f 321/1/3 325/9/3 322/6/3
f 324/5/1 326/13/1 328/13/1
f 332/5/1 334/13/1 336/13/1
f 338/6/2 342/13/2 339/8/2
f 338/3/7 340/5/7 337/1/7
f 341/9/8 344/13/8 342/13/8
f 337/1/4 344/13/4 343/9/4
f 337/1/3 341/9/3 338/6/3
f 340/5/1 342/13/1 344/13/1
f 346/6/2 350/13/2 347/8/2
f 346/3/7 348/5/7 345/1/7
f 349/9/8 352/13/8 350/13/8
f 345/1/4 352/13/4 351/9/4
f 345/1/3 349/9/3 346/6/3
f 348/5/1 350/13/1 352/13/1
f 354/6/1 358/13/1 355/8/1
f 354/3/7 356/5/7 353/1/7
f 357/9/8 360/13/8 358/13/8
f 356/5/3 359/9/3 353/1/3
f 362/6/1 366/13/1 363/8/1
f 362/3/7 364/5/7 361/1/7
f 365/9/8 368/13/8 366/13/8
f 364/5/3 367/9/3 361/1/3
f 370/3/2 371/5/2 369/1/2
f 372/2/1 375/4/1 371/5/1
f 376/7/4 373/6/4 375/4/4
f 373/6/3 370/13/3 369/8/3
f 375/4/7 369/10/7 371/11/7
f 372/12/6 374/9/6 376/7/6
f 378/3/2 379/5/2 377/1/2
f 380/2/1 383/4/1 379/5/1
f 384/7/4 381/6/4 383/4/4
f 381/6/3 378/13/3 377/8/3
f 383/4/7 377/10/7 379/11/7
f 380/12/6 382/9/6 384/7/6
f 386/3/4 387/5/4 385/1/4
f 387/5/1 392/7/1 391/4/1
f 392/7/4 389/6/4 391/4/4
f 389/6/1 386/13/1 385/8/1
f 391/4/7 385/10/7 387/11/7
f 388/12/6 390/9/6 392/7/6
f 394/3/2 395/5/2 393/1/2
f 395/5/1 400/7/1 399/4/1
f 400/7/4 397/6/4 399/4/4
f 398/9/3 393/8/3 397/6/3
f 399/4/7 393/10/7 395/11/7
f 396/12/8 398/9/8 400/7/8
f 404/12/8 406/9/8 408/7/8
f 407/4/7 401/10/7 403/11/7
f 406/9/1 401/8/1 405/6/1
f 408/7/2 405/6/2 407/4/2
f 402/3/4 403/5/4 401/1/4
f 404/2/3 407/4/3 403/5/3
f 413/12/8 411/9/8 409/7/8
f 410/4/7 416/10/7 414/11/7
f 411/9/3 416/8/3 412/6/3
f 409/7/4 412/6/4 410/4/4
f 413/2/1 410/4/1 414/5/1
f 415/3/2 414/5/2 416/1/2
f 421/12/8 419/9/8 417/7/8
f 418/4/7 424/10/7 422/11/7
f 419/9/3 424/8/3 420/6/3
f 417/7/4 420/6/4 418/4/4
f 421/2/1 418/4/1 422/5/1
f 423/3/2 422/5/2 424/1/2
f 429/12/8 427/9/8 425/7/8
f 426/4/7 432/10/7 430/11/7
f 427/9/3 432/8/3 428/6/3
f 425/7/4 428/6/4 426/4/4
f 429/2/1 426/4/1 430/5/1
f 431/3/2 430/5/2 432/1/2
f 433/1/2 436/2/2 435/5/2
f 436/2/1 439/4/1 435/5/1
f 440/7/4 437/6/4 439/4/4
f 438/9/4 444/6/4 437/6/4
f 439/4/7 433/10/7 435/11/7
f 436/12/9 438/9/9 440/7/9
f 443/9/3 441/8/3 444/6/3
f 433/1/2 442/3/2 434/3/2
f 437/6/7 441/10/7 433/10/7
f 438/9/4 447/9/4 443/9/4
f 446/14/8 447/9/8 445/9/8
f 442/3/2 446/3/2 434/3/2
f 443/9/3 448/13/3 442/13/3
f 434/14/1 445/9/1 438/9/1
s 1
f 450/15/8 451/12/10 449/16/8
f 452/17/10 453/18/11 451/12/10
f 451/12/1 455/19/1 457/11/1
f 456/20/12 457/11/13 455/19/12
f 458/21/13 449/22/8 457/11/13
s 0
f 464/9/3 459/8/3 463/6/3
f 465/4/7 459/10/7 461/11/7
f 462/12/8 464/9/8 466/7/8
f 468/3/2 469/5/2 467/1/2
f 470/2/1 473/4/1 469/5/1
f 474/7/4 471/6/4 473/4/4
f 472/9/3 467/8/3 471/6/3
f 473/4/7 467/10/7 469/11/7
f 470/12/8 472/9/8 474/7/8
f 1/1/1 3/5/1 4/2/1
f 7/4/2 8/7/2 4/2/2
f 5/6/3 6/9/3 8/7/3
f 1/8/4 2/13/4 6/9/4
f 1/10/5 5/6/5 7/4/5
f 6/9/6 2/14/6 4/12/6
f 10/3/4 12/2/4 11/5/4
f 12/2/3 16/7/3 15/4/3
f 16/7/2 14/9/2 13/6/2
f 14/9/1 10/13/1 9/8/1
f 15/4/7 13/6/7 9/10/7
f 12/12/8 10/14/8 14/9/8
f 18/3/2 20/2/2 19/5/2
f 20/2/1 24/7/1 23/4/1
f 24/7/4 22/9/4 21/6/4
f 22/9/3 18/13/3 17/8/3
f 23/4/7 21/6/7 17/10/7
f 20/12/8 18/14/8 22/9/8
f 26/3/2 28/2/2 27/5/2
f 28/2/1 32/7/1 31/4/1
f 32/7/4 30/9/4 29/6/4
f 29/6/3 30/9/3 26/13/3
f 31/4/5 29/6/5 25/10/5
f 28/12/8 26/14/8 30/9/8
f 34/3/2 36/2/2 35/5/2
f 36/2/1 40/7/1 39/4/1
f 40/7/4 38/9/4 37/6/4
f 37/6/3 38/9/3 34/13/3
f 39/4/7 37/6/7 33/10/7
f 36/12/6 34/14/6 38/9/6
f 42/3/2 44/2/2 43/5/2
f 44/2/1 48/7/1 47/4/1
f 48/7/4 46/9/4 45/6/4
f 45/6/3 46/9/3 42/13/3
f 47/4/7 45/6/7 41/10/7
f 44/12/6 42/14/6 46/9/6
f 50/3/2 52/2/2 51/5/2
f 52/2/1 56/7/1 55/4/1
f 56/7/4 54/9/4 53/6/4
f 54/9/3 50/13/3 49/8/3
f 55/4/7 53/6/7 49/10/7
f 52/12/8 50/14/8 54/9/8
f 58/3/2 60/2/2 59/5/2
f 60/2/1 64/7/1 63/4/1
f 64/7/4 62/9/4 61/6/4
f 61/6/3 62/9/3 58/13/3
f 63/4/7 61/6/7 57/10/7
f 60/12/6 58/14/6 62/9/6
f 69/12/8 71/14/8 67/9/8
f 66/4/7 68/6/7 72/10/7
f 67/9/3 71/13/3 72/8/3
f 65/7/4 67/9/4 68/6/4
f 69/2/1 65/7/1 66/4/1
f 71/3/2 69/2/2 70/5/2
f 460/3/2 462/2/2 461/5/2
f 76/2/1 80/7/1 79/4/1
f 462/2/1 466/7/1 465/4/1
f 77/6/3 78/9/3 74/13/3
f 79/4/5 77/6/5 73/10/5
f 76/12/6 74/14/6 78/9/6
f 82/3/2 84/2/2 83/5/2
f 84/2/1 88/7/1 87/4/1
f 88/7/4 86/9/4 85/6/4
f 85/6/3 86/9/3 82/13/3
f 87/4/5 85/6/5 81/10/5
f 84/12/6 82/14/6 86/9/6
f 90/3/2 92/2/2 91/5/2
f 92/2/1 96/7/1 95/4/1
f 96/7/4 94/9/4 93/6/4
f 93/6/3 94/9/3 90/13/3
f 95/4/5 93/6/5 89/10/5
f 92/12/6 90/14/6 94/9/6
f 98/3/2 100/2/2 99/5/2
f 100/2/1 104/7/1 103/4/1
f 104/7/4 102/9/4 101/6/4
f 101/6/3 102/9/3 98/13/3
f 103/4/5 101/6/5 97/10/5
f 100/12/6 98/14/6 102/9/6
f 106/3/2 108/2/2 107/5/2
f 108/2/1 112/7/1 111/4/1
f 112/7/4 110/9/4 109/6/4
f 109/6/3 110/9/3 106/13/3
f 111/4/5 109/6/5 105/10/5
f 108/12/6 106/14/6 110/9/6
f 114/3/2 116/2/2 115/5/2
f 116/2/1 120/7/1 119/4/1
f 120/7/4 118/9/4 117/6/4
f 118/9/3 114/13/3 113/8/3
f 119/4/7 117/6/7 113/10/7
f 116/12/8 114/14/8 118/9/8
f 122/3/2 124/2/2 123/5/2
f 124/2/1 128/7/1 127/4/1
f 128/7/4 126/9/4 125/6/4
f 126/9/3 122/13/3 121/8/3
f 127/4/7 125/6/7 121/10/7
f 124/12/8 122/14/8 126/9/8
f 130/3/2 132/2/2 131/5/2
f 132/2/1 136/7/1 135/4/1
f 136/7/4 134/9/4 133/6/4
f 134/9/3 130/13/3 129/8/3
f 135/4/7 133/6/7 129/10/7
f 132/12/8 130/14/8 134/9/8
f 140/12/8 138/14/8 142/9/8
f 143/4/7 141/6/7 137/10/7
f 142/9/2 138/13/2 137/8/2
f 144/7/3 142/9/3 141/6/3
f 140/2/4 144/7/4 143/4/4
f 149/2/4 145/7/4 146/4/4
f 157/12/8 159/14/8 155/9/8
f 154/4/7 156/6/7 160/10/7
f 155/9/3 159/13/3 160/8/3
f 153/7/4 155/9/4 156/6/4
f 163/8/2 166/13/2 165/9/2
f 164/5/3 163/2/3 162/3/3
f 168/13/1 167/9/1 165/9/1
f 171/8/2 174/13/2 173/9/2
f 172/5/3 171/2/3 170/3/3
f 176/13/1 175/9/1 173/9/1
f 175/9/4 176/13/4 172/5/4
f 157/2/1 153/7/1 154/4/1
f 159/3/2 157/2/2 158/5/2
f 167/9/4 168/13/4 164/5/4
f 178/6/2 181/9/2 182/13/2
f 178/3/7 179/2/7 180/5/7
f 181/9/8 183/9/8 184/13/8
f 186/6/2 189/9/2 190/13/2
f 186/3/7 187/2/7 188/5/7
f 189/9/8 191/9/8 192/13/8
f 197/9/2 198/13/2 195/8/2
f 194/3/1 195/2/1 196/5/1
f 197/9/3 199/9/3 200/13/3
f 205/9/2 206/13/2 203/8/2
f 202/3/1 203/2/1 204/5/1
f 205/9/3 207/9/3 208/13/3
f 204/5/4 208/13/4 207/9/4
f 180/5/4 184/13/4 183/9/4
f 188/5/4 192/13/4 191/9/4
f 196/5/4 200/13/4 199/9/4
f 145/7/3 147/9/3 148/6/3
f 147/9/2 151/13/2 152/8/2
f 146/4/7 148/6/7 152/10/7
f 149/12/8 151/14/8 147/9/8
f 213/12/8 215/14/8 211/9/8
f 210/4/7 212/6/7 216/10/7
f 211/9/3 215/13/3 216/8/3
f 209/7/4 211/9/4 212/6/4
f 213/2/1 209/7/1 210/4/1
f 215/3/2 213/2/2 214/5/2
f 218/3/3 220/2/3 219/5/3
f 220/2/2 224/7/2 223/4/2
f 224/7/1 222/9/1 221/6/1
f 222/9/4 218/13/4 217/8/4
f 223/4/7 221/6/7 217/10/7
f 220/12/8 218/14/8 222/9/8
f 226/3/3 228/2/3 227/5/3
f 228/2/2 232/7/2 231/4/2
f 232/7/1 230/9/1 229/6/1
f 230/9/4 226/13/4 225/8/4
f 231/4/7 229/6/7 225/10/7
f 228/12/8 226/14/8 230/9/8
f 234/3/3 236/2/3 235/5/3
f 236/2/2 240/7/2 239/4/2
f 240/7/1 238/9/1 237/6/1
f 238/9/4 234/13/4 233/8/4
f 239/4/7 237/6/7 233/10/7
f 236/12/8 234/14/8 238/9/8
f 243/3/3 241/2/3 242/5/3
f 241/2/2 248/7/2 247/4/2
f 248/7/1 246/9/1 245/6/1
f 246/9/4 243/13/4 244/8/4
f 247/4/7 245/6/7 244/10/7
f 241/12/8 243/14/8 246/9/8
f 253/2/4 249/7/4 250/4/4
f 255/3/1 253/2/1 254/5/1
f 250/4/3 249/7/3 251/9/3
f 251/9/2 255/13/2 256/8/2
f 250/4/5 252/6/5 256/10/5
f 253/12/6 255/14/6 251/9/6
f 261/2/4 257/7/4 258/4/4
f 263/3/1 261/2/1 262/5/1
f 258/4/3 257/7/3 259/9/3
f 259/9/2 263/13/2 264/8/2
f 258/4/5 260/6/5 264/10/5
f 261/12/6 263/14/6 259/9/6
f 266/3/3 268/2/3 267/5/3
f 268/2/2 272/7/2 271/4/2
f 272/7/1 270/9/1 269/6/1
f 270/9/4 266/13/4 265/8/4
f 271/4/7 269/6/7 265/10/7
f 268/12/8 266/14/8 270/9/8
f 274/3/2 276/2/2 275/5/2
f 276/2/1 280/7/1 279/4/1
f 280/7/4 278/9/4 277/6/4
f 278/9/3 274/13/3 273/8/3
f 279/4/7 277/6/7 273/10/7
f 276/12/8 274/14/8 278/9/8
f 282/3/2 284/2/2 283/5/2
f 284/2/1 288/7/1 287/4/1
f 288/7/4 286/9/4 285/6/4
f 286/9/3 282/13/3 281/8/3
f 287/4/7 285/6/7 281/10/7
f 284/12/8 282/14/8 286/9/8
f 290/3/2 292/2/2 291/5/2
f 292/2/1 296/7/1 295/4/1
f 296/7/4 294/9/4 293/6/4
f 294/9/3 290/13/3 289/8/3
f 295/4/7 293/6/7 289/10/7
f 292/12/8 290/14/8 294/9/8
f 298/3/2 300/2/2 299/5/2
f 300/2/1 304/7/1 303/4/1
f 304/7/4 302/9/4 301/6/4
f 302/9/3 298/13/3 297/8/3
f 303/4/7 301/6/7 297/10/7
f 300/12/8 298/14/8 302/9/8
f 309/9/2 310/13/2 307/8/2
f 306/3/7 307/2/7 308/5/7
f 309/9/8 311/9/8 312/13/8
f 308/5/4 312/13/4 311/9/4
f 315/9/3 319/13/3 320/8/3
f 313/7/4 315/9/4 316/6/4
f 317/2/1 313/7/1 314/4/1
f 319/3/2 317/2/2 318/5/2
f 314/4/7 316/6/7 320/10/7
f 317/12/8 319/14/8 315/9/8
f 325/9/2 326/13/2 323/8/2
f 322/3/7 323/2/7 324/5/7
f 325/9/8 327/9/8 328/13/8
f 324/5/4 328/13/4 327/9/4
f 333/9/2 334/13/2 331/8/2
f 330/3/7 331/2/7 332/5/7
f 333/9/8 335/9/8 336/13/8
f 332/5/4 336/13/4 335/9/4
f 329/1/3 335/9/3 333/9/3
f 321/1/3 327/9/3 325/9/3
f 324/5/1 323/8/1 326/13/1
f 332/5/1 331/8/1 334/13/1
f 338/6/2 341/9/2 342/13/2
f 338/3/7 339/2/7 340/5/7
f 341/9/8 343/9/8 344/13/8
f 337/1/4 340/5/4 344/13/4
f 337/1/3 343/9/3 341/9/3
f 340/5/1 339/8/1 342/13/1
f 346/6/2 349/9/2 350/13/2
f 346/3/7 347/2/7 348/5/7
f 349/9/8 351/9/8 352/13/8
f 345/1/4 348/5/4 352/13/4
f 345/1/3 351/9/3 349/9/3
f 348/5/1 347/8/1 350/13/1
f 354/6/1 357/9/1 358/13/1
f 354/3/7 355/2/7 356/5/7
f 357/9/8 359/9/8 360/13/8
f 356/5/3 360/13/3 359/9/3
f 362/6/1 365/9/1 366/13/1
f 362/3/7 363/2/7 364/5/7
f 365/9/8 367/9/8 368/13/8
f 364/5/3 368/13/3 367/9/3
f 370/3/2 372/2/2 371/5/2
f 372/2/1 376/7/1 375/4/1
f 376/7/4 374/9/4 373/6/4
f 373/6/3 374/9/3 370/13/3
f 375/4/7 373/6/7 369/10/7
f 372/12/6 370/14/6 374/9/6
f 378/3/2 380/2/2 379/5/2
f 380/2/1 384/7/1 383/4/1
f 384/7/4 382/9/4 381/6/4
f 381/6/3 382/9/3 378/13/3
f 383/4/7 381/6/7 377/10/7
f 380/12/6 378/14/6 382/9/6
f 386/3/4 388/2/4 387/5/4
f 387/5/3 388/2/3 392/7/3
f 392/7/4 390/9/4 389/6/4
f 389/6/3 390/9/3 386/13/3
f 391/4/7 389/6/7 385/10/7
f 388/12/6 386/14/6 390/9/6
f 394/3/2 396/2/2 395/5/2
f 395/5/1 396/2/1 400/7/1
f 400/7/4 398/9/4 397/6/4
f 398/9/3 394/13/3 393/8/3
f 399/4/7 397/6/7 393/10/7
f 396/12/8 394/14/8 398/9/8
f 404/12/8 402/14/8 406/9/8
f 407/4/7 405/6/7 401/10/7
f 406/9/1 402/13/1 401/8/1
f 408/7/2 406/9/2 405/6/2
f 402/3/4 404/2/4 403/5/4
f 404/2/3 408/7/3 407/4/3
f 413/12/8 415/14/8 411/9/8
f 410/4/7 412/6/7 416/10/7
f 411/9/3 415/13/3 416/8/3
f 409/7/4 411/9/4 412/6/4
f 413/2/1 409/7/1 410/4/1
f 415/3/2 413/2/2 414/5/2
f 421/12/8 423/14/8 419/9/8
f 418/4/7 420/6/7 424/10/7
f 419/9/3 423/13/3 424/8/3
f 417/7/4 419/9/4 420/6/4
f 421/2/1 417/7/1 418/4/1
f 423/3/2 421/2/2 422/5/2
f 429/12/8 431/14/8 427/9/8
f 426/4/7 428/6/7 432/10/7
f 427/9/3 431/13/3 432/8/3
f 425/7/4 427/9/4 428/6/4
f 429/2/1 425/7/1 426/4/1
f 431/3/2 429/2/2 430/5/2
f 433/1/2 434/3/2 436/2/2
f 436/2/1 440/7/1 439/4/1
f 440/7/4 438/9/4 437/6/4
f 438/9/4 443/9/4 444/6/4
f 439/4/7 437/6/7 433/10/7
f 436/12/9 434/14/9 438/9/9
f 443/9/3 442/13/3 441/8/3
f 433/1/2 441/1/2 442/3/2
f 437/6/7 444/6/7 441/10/7
f 438/9/4 445/9/4 447/9/4
f 446/14/8 448/14/8 447/9/8
f 442/3/2 448/3/2 446/3/2
f 443/9/3 447/9/3 448/13/3
f 434/14/1 446/14/1 445/9/1
s 1
f 450/15/8 452/17/10 451/12/10
f 452/17/10 454/23/11 453/18/11
f 457/11/1 449/22/1 451/12/1
f 451/12/1 453/18/1 455/19/1
f 456/20/12 458/21/13 457/11/13
f 458/21/13 450/24/8 449/22/8
s 0
f 464/9/3 460/13/3 459/8/3
f 465/4/7 463/6/7 459/10/7
f 462/12/8 460/14/8 464/9/8
f 468/3/2 470/2/2 469/5/2
f 470/2/1 474/7/1 473/4/1
f 474/7/4 472/9/4 471/6/4
f 472/9/3 468/13/3 467/8/3
f 473/4/7 471/6/7 467/10/7
f 470/12/8 468/14/8 472/9/8
