# Blender 5.0.1
# www.blender.org
mtllib ShopSign.mtl
g Text_Mesh
v -4.259648 0.999845 -0.050000
v -4.361062 0.936751 -0.050000
v -4.420570 0.843283 -0.050000
v -4.440000 0.729001 -0.050000
v -4.419422 0.616525 -0.050000
v -4.356375 0.525564 -0.050000
v -4.248891 0.464697 -0.050000
v -4.095000 0.442501 -0.050000
v -3.942000 0.442501 -0.050000
v -3.942000 0.000001 -0.050000
v -3.795000 0.000001 -0.050000
v -3.795000 1.023001 -0.050000
v -4.114500 1.023001 -0.050000
v -4.108500 0.574501 -0.050000
v -4.182820 0.585236 -0.050000
v -4.239562 0.616501 -0.050000
v -4.275773 0.666892 -0.050000
v -4.288499 0.735001 -0.050000
v -4.280086 0.791017 -0.050000
v -4.251562 0.841126 -0.050000
v -4.198008 0.877173 -0.050000
v -4.114500 0.891001 -0.050000
v -3.942000 0.891001 -0.050000
v -3.942000 0.574501 -0.050000
v -3.075398 0.994548 -0.050000
v -3.248812 0.880876 -0.050000
v -3.358945 0.713767 -0.050000
v -3.397500 0.511501 -0.050000
v -3.359742 0.313032 -0.050000
v -3.250688 0.145501 -0.050000
v -3.076664 0.029720 -0.050000
v -2.844000 -0.013499 -0.050000
v -2.617570 0.029509 -0.050000
v -2.445563 0.144938 -0.050000
v -2.336273 0.312399 -0.050000
v -2.298000 0.511501 -0.050000
v -2.337164 0.713134 -0.050000
v -2.448187 0.880313 -0.050000
v -2.621367 0.994337 -0.050000
v -2.847000 1.036501 -0.050000
v -3.006164 0.151009 -0.050000
v -3.132563 0.232688 -0.050000
v -3.215930 0.356274 -0.050000
v -3.246000 0.511501 -0.050000
v -3.215929 0.667360 -0.050000
v -3.132562 0.790876 -0.050000
v -3.006164 0.872204 -0.050000
v -2.847000 0.901501 -0.050000
v -2.688703 0.872204 -0.050000
v -2.562750 0.790876 -0.050000
v -2.479547 0.667360 -0.050000
v -2.449500 0.511501 -0.050000
v -2.479547 0.356274 -0.050000
v -2.562750 0.232688 -0.050000
v -2.688703 0.151009 -0.050000
v -2.847000 0.121501 -0.050000
v -1.744500 0.000001 -0.050000
v -1.744500 0.445501 -0.050000
v -1.171500 0.445500 -0.050000
v -1.171500 0.000000 -0.050000
v -1.024500 0.000000 -0.050000
v -1.024500 1.023000 -0.050000
v -1.171500 1.023000 -0.050000
v -1.171500 0.577500 -0.050000
v -1.744500 0.577501 -0.050000
v -1.744500 1.023001 -0.050000
v -1.891500 1.023001 -0.050000
v -1.891500 0.000001 -0.050000
v -0.534000 0.849445 -0.050000
v -0.471750 0.882188 -0.050000
v -0.412875 0.899461 -0.050000
v -0.358500 0.904500 -0.050000
v -0.293320 0.895641 -0.050000
v -0.242062 0.870750 -0.050000
v -0.208523 0.832359 -0.050000
v -0.196500 0.783000 -0.050000
v -0.265640 0.664781 -0.050000
v -0.417750 0.571875 -0.050000
v -0.569859 0.454781 -0.050000
v -0.639000 0.264000 -0.050000
v -0.617437 0.152930 -0.050000
v -0.557625 0.065063 -0.050000
v -0.466875 0.007289 -0.050000
v -0.352500 -0.013500 -0.050000
v -0.272930 -0.007805 -0.050000
v -0.199688 0.009563 -0.050000
v -0.131227 0.039023 -0.050000
v -0.066000 0.081000 -0.050000
v -0.066000 0.267000 -0.050000
v -0.125695 0.203297 -0.050000
v -0.191437 0.156750 -0.050000
v -0.261961 0.128203 -0.050000
v -0.336000 0.118500 -0.050000
v -0.410109 0.130641 -0.050000
v -0.462000 0.161625 -0.050000
v -0.492516 0.203297 -0.050000
v -0.502500 0.247500 -0.050000
v -0.433359 0.377906 -0.050000
v -0.281250 0.479625 -0.050000
v -0.129140 0.594281 -0.050000
v -0.060000 0.763500 -0.050000
v -0.082148 0.876398 -0.050000
v -0.144937 0.962438 -0.050000
v -0.242883 1.017258 -0.050000
v -0.370500 1.036500 -0.050000
v -0.428906 1.032000 -0.050000
v -0.486750 1.018500 -0.050000
v -0.543468 0.996000 -0.050000
v -0.598500 0.964500 -0.050000
v -0.598500 0.798000 -0.050000
v -4.259648 0.999845 0.050000
v -4.361062 0.936751 0.050000
v -4.420570 0.843283 0.050000
v -4.440000 0.729001 0.050000
v -4.419422 0.616525 0.050000
v -4.356375 0.525564 0.050000
v -4.248891 0.464697 0.050000
v -4.095000 0.442501 0.050000
v -3.942000 0.442501 0.050000
v -3.942000 0.000001 0.050000
v -3.795000 0.000001 0.050000
v -3.795000 1.023001 0.050000
v -4.114500 1.023001 0.050000
v -4.108500 0.574501 0.050000
v -4.182820 0.585236 0.050000
v -4.239562 0.616501 0.050000
v -4.275773 0.666892 0.050000
v -4.288499 0.735001 0.050000
v -4.280086 0.791017 0.050000
v -4.251562 0.841126 0.050000
v -4.198008 0.877173 0.050000
v -4.114500 0.891001 0.050000
v -3.942000 0.891001 0.050000
v -3.942000 0.574501 0.050000
v -3.075398 0.994548 0.050000
v -3.248812 0.880876 0.050000
v -3.358945 0.713767 0.050000
v -3.397500 0.511501 0.050000
v -3.359742 0.313032 0.050000
v -3.250688 0.145501 0.050000
v -3.076664 0.029720 0.050000
v -2.844000 -0.013499 0.050000
v -2.617570 0.029509 0.050000
v -2.445563 0.144938 0.050000
v -2.336273 0.312399 0.050000
v -2.298000 0.511501 0.050000
v -2.337164 0.713134 0.050000
v -2.448187 0.880313 0.050000
v -2.621367 0.994337 0.050000
v -2.847000 1.036501 0.050000
v -3.006164 0.151009 0.050000
v -3.132563 0.232688 0.050000
v -3.215930 0.356274 0.050000
v -3.246000 0.511501 0.050000
v -3.215929 0.667360 0.050000
v -3.132562 0.790876 0.050000
v -3.006164 0.872204 0.050000
v -2.847000 0.901501 0.050000
v -2.688703 0.872204 0.050000
v -2.562750 0.790876 0.050000
v -2.479547 0.667360 0.050000
v -2.449500 0.511501 0.050000
v -2.479547 0.356274 0.050000
v -2.562750 0.232688 0.050000
v -2.688703 0.151009 0.050000
v -2.847000 0.121501 0.050000
v -1.744500 0.000001 0.050000
v -1.744500 0.445501 0.050000
v -1.171500 0.445500 0.050000
v -1.171500 0.000000 0.050000
v -1.024500 0.000000 0.050000
v -1.024500 1.023000 0.050000
v -1.171500 1.023000 0.050000
v -1.171500 0.577500 0.050000
v -1.744500 0.577501 0.050000
v -1.744500 1.023001 0.050000
v -1.891500 1.023001 0.050000
v -1.891500 0.000001 0.050000
v -0.534000 0.849445 0.050000
v -0.471750 0.882188 0.050000
v -0.412875 0.899461 0.050000
v -0.358500 0.904500 0.050000
v -0.293320 0.895641 0.050000
v -0.242062 0.870750 0.050000
v -0.208523 0.832359 0.050000
v -0.196500 0.783000 0.050000
v -0.265640 0.664781 0.050000
v -0.417750 0.571875 0.050000
v -0.569859 0.454781 0.050000
v -0.639000 0.264000 0.050000
v -0.617437 0.152930 0.050000
v -0.557625 0.065063 0.050000
v -0.466875 0.007289 0.050000
v -0.352500 -0.013500 0.050000
v -0.272930 -0.007805 0.050000
v -0.199688 0.009563 0.050000
v -0.131227 0.039023 0.050000
v -0.066000 0.081000 0.050000
v -0.066000 0.267000 0.050000
v -0.125695 0.203297 0.050000
v -0.191437 0.156750 0.050000
v -0.261961 0.128203 0.050000
v -0.336000 0.118500 0.050000
v -0.410109 0.130641 0.050000
v -0.462000 0.161625 0.050000
v -0.492516 0.203297 0.050000
v -0.502500 0.247500 0.050000
v -0.433359 0.377906 0.050000
v -0.281250 0.479625 0.050000
v -0.129140 0.594281 0.050000
v -0.060000 0.763500 0.050000
v -0.082148 0.876398 0.050000
v -0.144937 0.962438 0.050000
v -0.242883 1.017258 0.050000
v -0.370500 1.036500 0.050000
v -0.428906 1.032000 0.050000
v -0.486750 1.018500 0.050000
v -0.543468 0.996000 0.050000
v -0.598500 0.964500 0.050000
v -0.598500 0.798000 0.050000
v -0.534000 0.849445 0.050000
v -0.534000 0.849445 -0.050000
v -0.471750 0.882188 0.050000
v -0.471750 0.882188 -0.050000
v -0.412875 0.899461 0.050000
v -0.412875 0.899461 -0.050000
v -0.358500 0.904500 0.050000
v -0.358500 0.904500 -0.050000
v -0.293320 0.895641 0.050000
v -0.293320 0.895641 -0.050000
v -0.242062 0.870750 0.050000
v -0.242062 0.870750 -0.050000
v -0.208523 0.832359 0.050000
v -0.208523 0.832359 -0.050000
v -0.196500 0.783000 0.050000
v -0.196500 0.783000 -0.050000
v -0.265640 0.664781 0.050000
v -0.265640 0.664781 -0.050000
v -0.417750 0.571875 0.050000
v -0.417750 0.571875 -0.050000
v -0.569859 0.454781 0.050000
v -0.569859 0.454781 -0.050000
v -0.639000 0.264000 0.050000
v -0.639000 0.264000 -0.050000
v -0.617437 0.152930 0.050000
v -0.617437 0.152930 -0.050000
v -0.557625 0.065063 0.050000
v -0.557625 0.065063 -0.050000
v -0.466875 0.007289 0.050000
v -0.466875 0.007289 -0.050000
v -0.352500 -0.013500 0.050000
v -0.352500 -0.013500 -0.050000
v -0.272930 -0.007805 0.050000
v -0.272930 -0.007805 -0.050000
v -0.199688 0.009563 0.050000
v -0.199688 0.009563 -0.050000
v -0.131227 0.039023 0.050000
v -0.131227 0.039023 -0.050000
v -0.066000 0.081000 0.050000
v -0.066000 0.081000 -0.050000
v -0.066000 0.267000 0.050000
v -0.066000 0.267000 -0.050000
v -0.125695 0.203297 0.050000
v -0.125695 0.203297 -0.050000
v -0.191437 0.156750 0.050000
v -0.191437 0.156750 -0.050000
v -0.261961 0.128203 0.050000
v -0.261961 0.128203 -0.050000
v -0.336000 0.118500 0.050000
v -0.336000 0.118500 -0.050000
v -0.410109 0.130641 0.050000
v -0.410109 0.130641 -0.050000
v -0.462000 0.161625 0.050000
v -0.462000 0.161625 -0.050000
v -0.492516 0.203297 0.050000
v -0.492516 0.203297 -0.050000
v -0.502500 0.247500 0.050000
v -0.502500 0.247500 -0.050000
v -0.433359 0.377906 0.050000
v -0.433359 0.377906 -0.050000
v -0.281250 0.479625 0.050000
v -0.281250 0.479625 -0.050000
v -0.129140 0.594281 0.050000
v -0.129140 0.594281 -0.050000
v -0.060000 0.763500 0.050000
v -0.060000 0.763500 -0.050000
v -0.082148 0.876398 0.050000
v -0.082148 0.876398 -0.050000
v -0.144937 0.962438 0.050000
v -0.144937 0.962438 -0.050000
v -0.242883 1.017258 0.050000
v -0.242883 1.017258 -0.050000
v -0.370500 1.036500 0.050000
v -0.370500 1.036500 -0.050000
v -0.428906 1.032000 0.050000
v -0.428906 1.032000 -0.050000
v -0.486750 1.018500 0.050000
v -0.486750 1.018500 -0.050000
v -0.543468 0.996000 0.050000
v -0.543468 0.996000 -0.050000
v -0.598500 0.964500 0.050000
v -0.598500 0.964500 -0.050000
v -0.598500 0.798000 0.050000
v -0.598500 0.798000 -0.050000
v -1.744500 0.000001 0.050000
v -1.744500 0.000001 -0.050000
v -1.744500 0.445501 0.050000
v -1.744500 0.445501 -0.050000
v -1.171500 0.445500 0.050000
v -1.171500 0.445500 -0.050000
v -1.171500 0.000000 0.050000
v -1.171500 0.000000 -0.050000
v -1.024500 0.000000 0.050000
v -1.024500 0.000000 -0.050000
v -1.024500 1.023000 0.050000
v -1.024500 1.023000 -0.050000
v -1.171500 1.023000 0.050000
v -1.171500 1.023000 -0.050000
v -1.171500 0.577500 0.050000
v -1.171500 0.577500 -0.050000
v -1.744500 0.577501 0.050000
v -1.744500 0.577501 -0.050000
v -1.744500 1.023001 0.050000
v -1.744500 1.023001 -0.050000
v -1.891500 1.023001 0.050000
v -1.891500 1.023001 -0.050000
v -1.891500 0.000001 0.050000
v -1.891500 0.000001 -0.050000
v -3.075398 0.994548 0.050000
v -3.075398 0.994548 -0.050000
v -3.248812 0.880876 0.050000
v -3.248812 0.880876 -0.050000
v -3.358945 0.713767 0.050000
v -3.358945 0.713767 -0.050000
v -3.397500 0.511501 0.050000
v -3.397500 0.511501 -0.050000
v -3.359742 0.313032 0.050000
v -3.359742 0.313032 -0.050000
v -3.250688 0.145501 0.050000
v -3.250688 0.145501 -0.050000
v -3.076664 0.029720 0.050000
v -3.076664 0.029720 -0.050000
v -2.844000 -0.013499 0.050000
v -2.844000 -0.013499 -0.050000
v -2.617570 0.029509 0.050000
v -2.617570 0.029509 -0.050000
v -2.445563 0.144938 0.050000
v -2.445563 0.144938 -0.050000
v -2.336273 0.312399 0.050000
v -2.336273 0.312399 -0.050000
v -2.298000 0.511501 0.050000
v -2.298000 0.511501 -0.050000
v -2.337164 0.713134 0.050000
v -2.337164 0.713134 -0.050000
v -2.448187 0.880313 0.050000
v -2.448187 0.880313 -0.050000
v -2.621367 0.994337 0.050000
v -2.621367 0.994337 -0.050000
v -2.847000 1.036501 0.050000
v -2.847000 1.036501 -0.050000
v -3.006164 0.151009 0.050000
v -3.006164 0.151009 -0.050000
v -3.132563 0.232688 0.050000
v -3.132563 0.232688 -0.050000
v -3.215930 0.356274 0.050000
v -3.215930 0.356274 -0.050000
v -3.246000 0.511501 0.050000
v -3.246000 0.511501 -0.050000
v -3.215929 0.667360 0.050000
v -3.215929 0.667360 -0.050000
v -3.132562 0.790876 0.050000
v -3.132562 0.790876 -0.050000
v -3.006164 0.872204 0.050000
v -3.006164 0.872204 -0.050000
v -2.847000 0.901501 0.050000
v -2.847000 0.901501 -0.050000
v -2.688703 0.872204 0.050000
v -2.688703 0.872204 -0.050000
v -2.562750 0.790876 0.050000
v -2.562750 0.790876 -0.050000
v -2.479547 0.667360 0.050000
v -2.479547 0.667360 -0.050000
v -2.449500 0.511501 0.050000
v -2.449500 0.511501 -0.050000
v -2.479547 0.356274 0.050000
v -2.479547 0.356274 -0.050000
v -2.562750 0.232688 0.050000
v -2.562750 0.232688 -0.050000
v -2.688703 0.151009 0.050000
v -2.688703 0.151009 -0.050000
v -2.847000 0.121501 0.050000
v -2.847000 0.121501 -0.050000
v -4.259648 0.999845 0.050000
v -4.259648 0.999845 -0.050000
v -4.361062 0.936751 0.050000
v -4.361062 0.936751 -0.050000
v -4.420570 0.843283 0.050000
v -4.420570 0.843283 -0.050000
v -4.440000 0.729001 0.050000
v -4.440000 0.729001 -0.050000
v -4.419422 0.616525 0.050000
v -4.419422 0.616525 -0.050000
v -4.356375 0.525564 0.050000
v -4.356375 0.525564 -0.050000
v -4.248891 0.464697 0.050000
v -4.248891 0.464697 -0.050000
v -4.095000 0.442501 0.050000
v -4.095000 0.442501 -0.050000
v -3.942000 0.442501 0.050000
v -3.942000 0.442501 -0.050000
v -3.942000 0.000001 0.050000
v -3.942000 0.000001 -0.050000
v -3.795000 0.000001 0.050000
v -3.795000 0.000001 -0.050000
v -3.795000 1.023001 0.050000
v -3.795000 1.023001 -0.050000
v -4.114500 1.023001 0.050000
v -4.114500 1.023001 -0.050000
v -4.108500 0.574501 0.050000
v -4.108500 0.574501 -0.050000
v -4.182820 0.585236 0.050000
v -4.182820 0.585236 -0.050000
v -4.239562 0.616501 0.050000
v -4.239562 0.616501 -0.050000
v -4.275773 0.666892 0.050000
v -4.275773 0.666892 -0.050000
v -4.288499 0.735001 0.050000
v -4.288499 0.735001 -0.050000
v -4.280086 0.791017 0.050000
v -4.280086 0.791017 -0.050000
v -4.251562 0.841126 0.050000
v -4.251562 0.841126 -0.050000
v -4.198008 0.877173 0.050000
v -4.198008 0.877173 -0.050000
v -4.114500 0.891001 0.050000
v -4.114500 0.891001 -0.050000
v -3.942000 0.891001 0.050000
v -3.942000 0.891001 -0.050000
v -3.942000 0.574501 0.050000
v -3.942000 0.574501 -0.050000
vn -0.0000 -0.0000 -1.0000
vn -0.0000 -0.0000 1.0000
vn 0.3754 -0.9269 -0.0000
vn 0.5470 -0.8372 -0.0000
vn 0.5470 -0.8371 -0.0000
vn 0.1878 -0.9822 -0.0000
vn -0.0213 -0.9998 -0.0000
vn -0.2894 -0.9572 -0.0000
vn -0.6071 -0.7946 -0.0000
vn -0.8877 -0.4604 -0.0000
vn -0.9895 0.1446 -0.0000
vn -0.7138 0.7003 -0.0000
vn -0.5664 0.8241 -0.0000
vn -0.8073 0.5901 -0.0000
vn -0.9970 0.0779 -0.0000
vn -0.9231 -0.3845 -0.0000
vn -0.6962 -0.7179 -0.0000
vn -0.3647 -0.9311 -0.0000
vn -0.6961 -0.7179 -0.0000
vn -0.0541 -0.9985 -0.0000
vn 0.1515 -0.9884 -0.0000
vn 0.3142 -0.9494 -0.0000
vn 0.1516 -0.9884 -0.0000
vn 0.4698 -0.8828 -0.0000
vn 0.8778 -0.4790 -0.0000
vn 0.3676 0.9300 -0.0000
vn -0.6571 0.7538 -0.0000
vn -0.4797 0.8774 -0.0000
vn -0.2546 0.9670 -0.0000
vn 0.0160 0.9999 -0.0000
vn 0.3432 0.9393 -0.0000
vn 0.6732 0.7395 -0.0000
vn 0.9102 0.4142 -0.0000
vn 0.9912 -0.1323 -0.0000
vn 0.7422 -0.6702 -0.0000
vn 0.5791 -0.8152 -0.0000
vn 0.7922 -0.6103 -0.0000
vn 0.9953 -0.0969 -0.0000
vn 0.9163 0.4005 -0.0000
vn 0.6634 0.7483 -0.0000
vn 0.3240 0.9461 -0.0000
vn 0.0364 0.9993 -0.0000
vn -0.1525 0.9883 -0.0000
vn -0.2988 0.9543 -0.0000
vn -0.4339 0.9010 -0.0000
vn -0.8651 0.5016 -0.0000
vn -0.4338 -0.9010 -0.0000
vn 0.7071 -0.7071 -0.0000
vn -0.7071 -0.7071 -0.0000
vn 0.7071 0.7071 -0.0000
vn -0.7071 0.7071 -0.0000
vn -0.7062 0.7080 -0.0000
vn -0.3718 0.9283 -0.0000
vn -0.9266 0.3760 -0.0000
vn -1.0000 0.0002 -0.0000
vn -0.9266 0.3761 -0.0000
vn -0.9277 -0.3733 -0.0000
vn -0.7106 -0.7036 -0.0000
vn -0.3759 -0.9267 -0.0000
vn 0.0020 -1.0000 -0.0000
vn 0.3796 -0.9251 -0.0000
vn 0.7116 -0.7026 -0.0000
vn 0.9271 -0.3747 -0.0000
vn 1.0000 0.0010 -0.0000
vn 0.9253 0.3793 -0.0000
vn 0.7057 0.7085 -0.0000
vn 0.3742 0.9274 -0.0000
vn 0.0015 1.0000 -0.0000
vn 0.7001 0.7141 -0.0000
vn 0.3695 0.9292 -0.0000
vn 0.9240 0.3824 -0.0000
vn 1.0000 0.0004 -0.0000
vn 0.9241 -0.3822 -0.0000
vn 0.6993 -0.7148 -0.0000
vn 0.3680 -0.9298 -0.0000
vn -0.0005 -1.0000 -0.0000
vn -0.3692 -0.9293 -0.0000
vn -0.7002 -0.7140 -0.0000
vn -0.9243 -0.3817 -0.0000
vn -1.0000 0.0004 -0.0000
vn -0.9242 0.3819 -0.0000
vn -0.7010 0.7132 -0.0000
vn -0.3707 0.9287 -0.0000
vn -0.0005 1.0000 -0.0000
vn -0.7034 0.7108 -0.0000
vn -0.3498 0.9368 -0.0000
vn -0.9332 0.3595 -0.0000
vn -1.0000 -0.0063 -0.0000
vn -0.9332 0.3594 -0.0000
vn -0.9236 -0.3834 -0.0000
vn -0.6743 -0.7385 -0.0000
vn -0.9236 -0.3835 -0.0000
vn -0.3233 -0.9463 -0.0000
vn -0.0716 -0.9974 -0.0000
vn -0.0790 0.9969 -0.0000
vn 0.3179 0.9481 -0.0000
vn 0.0717 0.9974 -0.0000
vn 0.6636 0.7481 -0.0000
vn 0.9195 0.3930 -0.0000
vn 0.9998 0.0178 -0.0000
vn 0.9450 -0.3272 -0.0000
vn 0.7331 -0.6801 -0.0000
vn 0.3693 -0.9293 -0.0000
vn 0.0820 -0.9966 -0.0000
vt 0.434783 0.000000
vt 0.956522 0.000000
vt 0.478261 0.000000
vt 0.521739 0.000000
vt 0.000000 0.000000
vt 0.043478 0.000000
vt 0.913043 0.000000
vt 0.086957 0.000000
vt 1.000000 0.000000
vt 0.869565 0.000000
vt 0.826087 0.000000
vt 0.130435 0.000000
vt 0.782609 0.000000
vt 0.739130 0.000000
vt 0.695652 0.000000
vt 0.173913 0.000000
vt 0.652174 0.000000
vt 0.217391 0.000000
vt 0.608696 0.000000
vt 0.565217 0.000000
vt 0.347826 0.000000
vt 0.260870 0.000000
vt 0.304348 0.000000
vt 0.391304 0.000000
vt 0.451613 0.000000
vt 0.483871 0.000000
vt 0.032258 0.000000
vt 0.419355 0.000000
vt 0.741935 0.000000
vt 0.774194 0.000000
vt 0.709677 0.000000
vt 0.064516 0.000000
vt 0.387097 0.000000
vt 0.677419 0.000000
vt 0.806452 0.000000
vt 0.645161 0.000000
vt 0.838710 0.000000
vt 0.096774 0.000000
vt 0.354839 0.000000
vt 0.612903 0.000000
vt 0.870968 0.000000
vt 0.322581 0.000000
vt 0.903226 0.000000
vt 0.580645 0.000000
vt 0.129032 0.000000
vt 0.935484 0.000000
vt 0.548387 0.000000
vt 0.161290 0.000000
vt 0.290323 0.000000
vt 0.967742 0.000000
vt 0.516129 0.000000
vt 0.193548 0.000000
vt 0.258065 0.000000
vt 0.225806 0.000000
vt 0.363636 0.000000
vt 0.545455 0.000000
vt 0.454545 0.000000
vt 0.636364 0.000000
vt 0.727273 0.000000
vt 0.909091 0.000000
vt 0.818182 0.000000
vt 0.181818 0.000000
vt 0.090909 0.000000
vt 0.272727 0.000000
vt 0.853659 0.000000
vt 0.902439 0.000000
vt 0.878049 0.000000
vt 0.926829 0.000000
vt 0.951219 0.000000
vt 0.829268 0.000000
vt 0.975610 0.000000
vt 0.048780 0.000000
vt 0.024390 0.000000
vt 0.804878 0.000000
vt 0.073171 0.000000
vt 0.097561 0.000000
vt 0.121951 0.000000
vt 0.780488 0.000000
vt 0.146341 0.000000
vt 0.170732 0.000000
vt 0.195122 0.000000
vt 0.756098 0.000000
vt 0.219512 0.000000
vt 0.731707 0.000000
vt 0.243902 0.000000
vt 0.707317 0.000000
vt 0.268293 0.000000
vt 0.682927 0.000000
vt 0.463415 0.000000
vt 0.512195 0.000000
vt 0.487805 0.000000
vt 0.292683 0.000000
vt 0.658537 0.000000
vt 0.536585 0.000000
vt 0.634146 0.000000
vt 0.609756 0.000000
vt 0.560976 0.000000
vt 0.317073 0.000000
vt 0.585366 0.000000
vt 0.439024 0.000000
vt 0.341463 0.000000
vt 0.414634 0.000000
vt 0.390244 0.000000
vt 0.365854 0.000000
vt 0.023810 1.000000
vt 0.000000 1.000000
vt 0.047619 1.000000
vt 0.023810 0.000000
vt 0.071429 1.000000
vt 0.047619 0.000000
vt 0.095238 1.000000
vt 0.071429 0.000000
vt 0.119048 1.000000
vt 0.095238 0.000000
vt 0.142857 1.000000
vt 0.119048 0.000000
vt 0.166667 1.000000
vt 0.142857 0.000000
vt 0.190476 1.000000
vt 0.166667 0.000000
vt 0.214286 1.000000
vt 0.190476 0.000000
vt 0.238095 1.000000
vt 0.214286 0.000000
vt 0.261905 1.000000
vt 0.238095 0.000000
vt 0.285714 1.000000
vt 0.261905 0.000000
vt 0.309524 1.000000
vt 0.285714 0.000000
vt 0.333333 1.000000
vt 0.309524 0.000000
vt 0.357143 1.000000
vt 0.333333 0.000000
vt 0.380952 1.000000
vt 0.357143 0.000000
vt 0.404762 1.000000
vt 0.380952 0.000000
vt 0.428571 1.000000
vt 0.404762 0.000000
vt 0.452381 1.000000
vt 0.428571 0.000000
vt 0.476190 1.000000
vt 0.452381 0.000000
vt 0.500000 1.000000
vt 0.476190 0.000000
vt 0.523810 1.000000
vt 0.500000 0.000000
vt 0.547619 1.000000
vt 0.523810 0.000000
vt 0.571429 1.000000
vt 0.547619 0.000000
vt 0.595238 1.000000
vt 0.571429 0.000000
vt 0.619048 1.000000
vt 0.595238 0.000000
vt 0.642857 1.000000
vt 0.619048 0.000000
vt 0.666667 1.000000
vt 0.642857 0.000000
vt 0.690476 1.000000
vt 0.666667 0.000000
vt 0.714286 1.000000
vt 0.690476 0.000000
vt 0.738095 1.000000
vt 0.714286 0.000000
vt 0.761905 1.000000
vt 0.738095 0.000000
vt 0.785714 1.000000
vt 0.761905 0.000000
vt 0.809524 1.000000
vt 0.785714 0.000000
vt 0.833333 1.000000
vt 0.809524 0.000000
vt 0.857143 1.000000
vt 0.833333 0.000000
vt 0.880952 1.000000
vt 0.857143 0.000000
vt 0.904762 1.000000
vt 0.880952 0.000000
vt 0.928571 1.000000
vt 0.904762 0.000000
vt 0.952381 1.000000
vt 0.928571 0.000000
vt 0.976190 1.000000
vt 0.952381 0.000000
vt 1.000000 1.000000
vt 0.976190 0.000000
vt 0.083333 1.000000
vt 0.083333 0.000000
vt 0.250000 1.000000
vt 0.250000 0.000000
vt 0.416667 1.000000
vt 0.416667 0.000000
vt 0.583333 1.000000
vt 0.583333 0.000000
vt 0.750000 1.000000
vt 0.750000 0.000000
vt 0.916667 1.000000
vt 0.916667 0.000000
vt 0.062500 1.000000
vt 0.125000 1.000000
vt 0.062500 0.000000
vt 0.187500 1.000000
vt 0.125000 0.000000
vt 0.187500 0.000000
vt 0.312500 1.000000
vt 0.375000 1.000000
vt 0.312500 0.000000
vt 0.437500 1.000000
vt 0.375000 0.000000
vt 0.437500 0.000000
vt 0.562500 1.000000
vt 0.625000 1.000000
vt 0.562500 0.000000
vt 0.687500 1.000000
vt 0.625000 0.000000
vt 0.687500 0.000000
vt 0.812500 1.000000
vt 0.875000 1.000000
vt 0.812500 0.000000
vt 0.937500 1.000000
vt 0.875000 0.000000
vt 0.937500 0.000000
vt 0.076923 1.000000
vt 0.153846 1.000000
vt 0.076923 0.000000
vt 0.230769 1.000000
vt 0.153846 0.000000
vt 0.307692 1.000000
vt 0.230769 0.000000
vt 0.384615 1.000000
vt 0.307692 0.000000
vt 0.461538 1.000000
vt 0.384615 0.000000
vt 0.538462 1.000000
vt 0.461538 0.000000
vt 0.615385 1.000000
vt 0.538462 0.000000
vt 0.692308 1.000000
vt 0.615385 0.000000
vt 0.769231 1.000000
vt 0.692308 0.000000
vt 0.846154 1.000000
vt 0.769231 0.000000
vt 0.923077 1.000000
vt 0.846154 0.000000
vt 0.923077 0.000000
vt 0.090909 1.000000
vt 0.181818 1.000000
vt 0.272727 1.000000
vt 0.363636 1.000000
vt 0.454545 1.000000
vt 0.545455 1.000000
vt 0.636364 1.000000
vt 0.727273 1.000000
vt 0.818182 1.000000
vt 0.909091 1.000000
s 0
f 11/1/1 23/2/1 12/3/1
f 23/2/1 13/4/1 12/3/1
f 23/2/1 1/5/1 13/4/1
f 23/2/1 2/6/1 1/5/1
f 23/2/1 22/7/1 2/6/1
f 22/7/1 3/8/1 2/6/1
f 11/1/1 24/9/1 23/2/1
f 21/10/1 3/8/1 22/7/1
f 20/11/1 3/8/1 21/10/1
f 20/11/1 4/12/1 3/8/1
f 19/13/1 4/12/1 20/11/1
f 18/14/1 4/12/1 19/13/1
f 17/15/1 4/12/1 18/14/1
f 17/15/1 5/16/1 4/12/1
f 16/17/1 5/16/1 17/15/1
f 16/17/1 6/18/1 5/16/1
f 15/19/1 6/18/1 16/17/1
f 14/20/1 6/18/1 15/19/1
f 11/1/1 9/21/1 24/9/1
f 9/21/1 14/20/1 24/9/1
f 9/21/1 6/18/1 14/20/1
f 9/21/1 7/22/1 6/18/1
f 9/21/1 8/23/1 7/22/1
f 11/1/1 10/24/1 9/21/1
f 39/25/1 25/5/1 40/26/1
f 39/25/1 26/27/1 25/5/1
f 38/28/1 48/29/1 39/25/1
f 48/29/1 26/27/1 39/25/1
f 38/28/1 49/30/1 48/29/1
f 47/31/1 26/27/1 48/29/1
f 47/31/1 27/32/1 26/27/1
f 37/33/1 49/30/1 38/28/1
f 46/34/1 27/32/1 47/31/1
f 37/33/1 50/35/1 49/30/1
f 45/36/1 27/32/1 46/34/1
f 37/33/1 51/37/1 50/35/1
f 45/36/1 28/38/1 27/32/1
f 36/39/1 51/37/1 37/33/1
f 44/40/1 28/38/1 45/36/1
f 36/39/1 52/41/1 51/37/1
f 35/42/1 52/41/1 36/39/1
f 35/42/1 53/43/1 52/41/1
f 43/44/1 28/38/1 44/40/1
f 43/44/1 29/45/1 28/38/1
f 35/42/1 54/46/1 53/43/1
f 42/47/1 29/45/1 43/44/1
f 42/47/1 30/48/1 29/45/1
f 34/49/1 54/46/1 35/42/1
f 34/49/1 55/50/1 54/46/1
f 41/51/1 30/48/1 42/47/1
f 34/49/1 56/9/1 55/50/1
f 56/9/1 30/48/1 41/51/1
f 56/9/1 31/52/1 30/48/1
f 33/53/1 56/9/1 34/49/1
f 33/53/1 31/52/1 56/9/1
f 33/53/1 32/54/1 31/52/1
f 61/55/1 63/56/1 62/57/1
f 61/55/1 64/58/1 63/56/1
f 65/59/1 67/60/1 66/61/1
f 65/59/1 68/9/1 67/60/1
f 61/55/1 59/62/1 64/58/1
f 59/62/1 65/59/1 64/58/1
f 59/62/1 58/63/1 65/59/1
f 58/63/1 68/9/1 65/59/1
f 61/55/1 60/64/1 59/62/1
f 57/5/1 68/9/1 58/63/1
f 104/65/1 106/66/1 105/67/1
f 104/65/1 107/68/1 106/66/1
f 104/65/1 108/69/1 107/68/1
f 103/70/1 108/69/1 104/65/1
f 103/70/1 109/71/1 108/69/1
f 103/70/1 71/72/1 109/71/1
f 71/72/1 70/73/1 109/71/1
f 70/73/1 69/5/1 109/71/1
f 69/5/1 110/9/1 109/71/1
f 102/74/1 72/75/1 103/70/1
f 72/75/1 71/72/1 103/70/1
f 102/74/1 73/76/1 72/75/1
f 102/74/1 74/77/1 73/76/1
f 101/78/1 74/77/1 102/74/1
f 101/78/1 75/79/1 74/77/1
f 101/78/1 76/80/1 75/79/1
f 101/78/1 77/81/1 76/80/1
f 100/82/1 77/81/1 101/78/1
f 100/82/1 78/83/1 77/81/1
f 99/84/1 78/83/1 100/82/1
f 99/84/1 79/85/1 78/83/1
f 98/86/1 79/85/1 99/84/1
f 98/86/1 80/87/1 79/85/1
f 97/88/1 80/87/1 98/86/1
f 88/89/1 90/90/1 89/91/1
f 97/88/1 81/92/1 80/87/1
f 96/93/1 81/92/1 97/88/1
f 88/89/1 91/94/1 90/90/1
f 95/95/1 81/92/1 96/93/1
f 94/96/1 81/92/1 95/95/1
f 88/89/1 92/97/1 91/94/1
f 94/96/1 82/98/1 81/92/1
f 93/99/1 82/98/1 94/96/1
f 88/89/1 93/99/1 92/97/1
f 88/89/1 82/98/1 93/99/1
f 87/100/1 82/98/1 88/89/1
f 87/100/1 83/101/1 82/98/1
f 86/102/1 83/101/1 87/100/1
f 85/103/1 83/101/1 86/102/1
f 85/103/1 84/104/1 83/101/1
f 121/1/2 122/3/2 133/2/2
f 133/2/2 122/3/2 123/4/2
f 133/2/2 123/4/2 111/5/2
f 133/2/2 111/5/2 112/6/2
f 133/2/2 112/6/2 132/7/2
f 132/7/2 112/6/2 113/8/2
f 121/1/2 133/2/2 134/9/2
f 131/10/2 132/7/2 113/8/2
f 130/11/2 131/10/2 113/8/2
f 130/11/2 113/8/2 114/12/2
f 129/13/2 130/11/2 114/12/2
f 128/14/2 129/13/2 114/12/2
f 127/15/2 128/14/2 114/12/2
f 127/15/2 114/12/2 115/16/2
f 126/17/2 127/15/2 115/16/2
f 126/17/2 115/16/2 116/18/2
f 125/19/2 126/17/2 116/18/2
f 124/20/2 125/19/2 116/18/2
f 121/1/2 134/9/2 119/21/2
f 119/21/2 134/9/2 124/20/2
f 119/21/2 124/20/2 116/18/2
f 119/21/2 116/18/2 117/22/2
f 119/21/2 117/22/2 118/23/2
f 121/1/2 119/21/2 120/24/2
f 149/25/2 150/26/2 135/5/2
f 149/25/2 135/5/2 136/27/2
f 148/28/2 149/25/2 158/29/2
f 158/29/2 149/25/2 136/27/2
f 148/28/2 158/29/2 159/30/2
f 157/31/2 158/29/2 136/27/2
f 157/31/2 136/27/2 137/32/2
f 147/33/2 148/28/2 159/30/2
f 156/34/2 157/31/2 137/32/2
f 147/33/2 159/30/2 160/35/2
f 155/36/2 156/34/2 137/32/2
f 147/33/2 160/35/2 161/37/2
f 155/36/2 137/32/2 138/38/2
f 146/39/2 147/33/2 161/37/2
f 154/40/2 155/36/2 138/38/2
f 146/39/2 161/37/2 162/41/2
f 145/42/2 146/39/2 162/41/2
f 145/42/2 162/41/2 163/43/2
f 153/44/2 154/40/2 138/38/2
f 153/44/2 138/38/2 139/45/2
f 145/42/2 163/43/2 164/46/2
f 152/47/2 153/44/2 139/45/2
f 152/47/2 139/45/2 140/48/2
f 144/49/2 145/42/2 164/46/2
f 144/49/2 164/46/2 165/50/2
f 151/51/2 152/47/2 140/48/2
f 144/49/2 165/50/2 166/9/2
f 166/9/2 151/51/2 140/48/2
f 166/9/2 140/48/2 141/52/2
f 143/53/2 144/49/2 166/9/2
f 143/53/2 166/9/2 141/52/2
f 143/53/2 141/52/2 142/54/2
f 171/55/2 172/57/2 173/56/2
f 171/55/2 173/56/2 174/58/2
f 175/59/2 176/61/2 177/60/2
f 175/59/2 177/60/2 178/9/2
f 171/55/2 174/58/2 169/62/2
f 169/62/2 174/58/2 175/59/2
f 169/62/2 175/59/2 168/63/2
f 168/63/2 175/59/2 178/9/2
f 171/55/2 169/62/2 170/64/2
f 167/5/2 168/63/2 178/9/2
f 214/65/2 215/67/2 216/66/2
f 214/65/2 216/66/2 217/68/2
f 214/65/2 217/68/2 218/69/2
f 213/70/2 214/65/2 218/69/2
f 213/70/2 218/69/2 219/71/2
f 213/70/2 219/71/2 181/72/2
f 181/72/2 219/71/2 180/73/2
f 180/73/2 219/71/2 179/5/2
f 179/5/2 219/71/2 220/9/2
f 212/74/2 213/70/2 182/75/2
f 182/75/2 213/70/2 181/72/2
f 212/74/2 182/75/2 183/76/2
f 212/74/2 183/76/2 184/77/2
f 211/78/2 212/74/2 184/77/2
f 211/78/2 184/77/2 185/79/2
f 211/78/2 185/79/2 186/80/2
f 211/78/2 186/80/2 187/81/2
f 210/82/2 211/78/2 187/81/2
f 210/82/2 187/81/2 188/83/2
f 209/84/2 210/82/2 188/83/2
f 209/84/2 188/83/2 189/85/2
f 208/86/2 209/84/2 189/85/2
f 208/86/2 189/85/2 190/87/2
f 207/88/2 208/86/2 190/87/2
f 198/89/2 199/91/2 200/90/2
f 207/88/2 190/87/2 191/92/2
f 206/93/2 207/88/2 191/92/2
f 198/89/2 200/90/2 201/94/2
f 205/95/2 206/93/2 191/92/2
f 204/96/2 205/95/2 191/92/2
f 198/89/2 201/94/2 202/97/2
f 204/96/2 191/92/2 192/98/2
f 203/99/2 204/96/2 192/98/2
f 198/89/2 202/97/2 203/99/2
f 198/89/2 203/99/2 192/98/2
f 197/100/2 198/89/2 192/98/2
f 197/100/2 192/98/2 193/101/2
f 196/102/2 197/100/2 193/101/2
f 195/103/2 196/102/2 193/101/2
f 195/103/2 193/101/2 194/104/2
s 1
f 224/105/3 221/5/4 222/106/5
f 226/107/6 223/108/3 224/105/3
f 228/109/7 225/110/6 226/107/6
f 230/111/8 227/112/7 228/109/7
f 232/113/9 229/114/8 230/111/8
f 234/115/10 231/116/9 232/113/9
f 236/117/11 233/118/10 234/115/10
f 238/119/12 235/120/11 236/117/11
f 240/121/13 237/122/12 238/119/12
f 242/123/14 239/124/13 240/121/13
f 244/125/15 241/126/14 242/123/14
f 246/127/16 243/128/15 244/125/15
f 248/129/17 245/130/16 246/127/16
f 250/131/18 247/132/19 248/129/17
f 252/133/20 249/134/18 250/131/18
f 254/135/21 251/136/20 252/133/20
f 256/137/22 253/138/23 254/135/21
f 258/139/24 255/140/22 256/137/22
f 260/141/25 257/142/24 258/139/24
f 262/143/26 259/144/25 260/141/25
f 264/145/27 261/146/26 262/143/26
f 266/147/28 263/148/27 264/145/27
f 268/149/29 265/150/28 266/147/28
f 270/151/30 267/152/29 268/149/29
f 272/153/31 269/154/30 270/151/30
f 274/155/32 271/156/31 272/153/31
f 276/157/33 273/158/32 274/155/32
f 278/159/34 275/160/33 276/157/33
f 280/161/35 277/162/34 278/159/34
f 282/163/36 279/164/35 280/161/35
f 284/165/37 281/166/36 282/163/36
f 286/167/38 283/168/37 284/165/37
f 288/169/39 285/170/38 286/167/38
f 290/171/40 287/172/39 288/169/39
f 292/173/41 289/174/40 290/171/40
f 294/175/42 291/176/41 292/173/41
f 296/177/43 293/178/42 294/175/42
f 298/179/44 295/180/43 296/177/43
f 300/181/45 297/182/44 298/179/44
f 302/183/46 299/184/45 300/181/45
f 304/185/47 301/186/46 302/183/46
f 222/187/5 303/188/47 304/185/47
f 308/189/48 305/5/48 306/106/48
f 310/117/49 307/190/48 308/189/48
f 312/191/49 309/120/49 310/117/49
f 314/131/48 311/192/49 312/191/49
f 316/193/50 313/134/48 314/131/48
f 318/145/51 315/194/50 316/193/50
f 320/195/51 317/148/51 318/145/51
f 322/159/50 319/196/51 320/195/51
f 324/197/50 321/162/50 322/159/50
f 326/173/51 323/198/50 324/197/50
f 328/199/49 325/176/51 326/173/51
f 306/187/48 327/200/49 328/199/49
f 332/201/52 329/5/53 330/106/53
f 334/202/54 331/203/52 332/201/52
f 336/204/55 333/205/56 334/202/54
f 338/191/57 335/206/55 336/204/55
f 340/207/58 337/192/57 338/191/57
f 342/208/59 339/209/58 340/207/58
f 344/210/60 341/211/59 342/208/59
f 346/145/61 343/212/60 344/210/60
f 348/213/62 345/148/61 346/145/61
f 350/214/63 347/215/62 348/213/62
f 352/216/64 349/217/63 350/214/63
f 354/197/65 351/218/64 352/216/64
f 356/219/66 353/198/65 354/197/65
f 358/220/67 355/221/66 356/219/66
f 360/222/68 357/223/67 358/220/67
f 330/187/53 359/224/68 360/222/68
f 364/201/69 361/5/70 362/106/70
f 366/202/71 363/203/69 364/201/69
f 368/204/72 365/205/71 366/202/71
f 370/191/73 367/206/72 368/204/72
f 372/207/74 369/192/73 370/191/73
f 374/208/75 371/209/74 372/207/74
f 376/210/76 373/211/75 374/208/75
f 378/145/77 375/212/76 376/210/76
f 380/213/78 377/148/77 378/145/77
f 382/214/79 379/215/78 380/213/78
f 384/216/80 381/217/79 382/214/79
f 386/197/81 383/218/80 384/216/80
f 388/219/82 385/198/81 386/197/81
f 390/220/83 387/221/82 388/219/82
f 392/222/84 389/223/83 390/220/83
f 362/187/70 391/224/84 392/222/84
f 396/225/85 393/5/86 394/106/86
f 398/226/87 395/227/85 396/225/85
f 400/228/88 397/229/89 398/226/87
f 402/230/90 399/231/88 400/228/88
f 404/232/91 401/233/92 402/230/90
f 406/234/93 403/235/91 404/232/91
f 408/236/94 405/237/93 406/234/93
f 410/238/49 407/239/94 408/236/94
f 412/240/49 409/241/49 410/238/49
f 414/242/48 411/243/49 412/240/49
f 416/244/50 413/245/48 414/242/48
f 418/246/95 415/247/50 416/244/50
f 394/187/86 417/248/95 418/246/95
f 422/249/96 419/5/97 420/106/97
f 424/250/98 421/63/96 422/249/96
f 426/251/99 423/62/98 424/250/98
f 428/252/100 425/64/99 426/251/99
f 430/253/101 427/55/100 428/252/100
f 432/254/102 429/57/101 430/253/101
f 434/255/103 431/56/102 432/254/102
f 436/256/104 433/58/103 434/255/103
f 438/257/49 435/59/104 436/256/104
f 440/258/51 437/61/49 438/257/49
f 420/187/97 439/60/51 440/258/51
f 224/105/3 223/108/3 221/5/4
f 226/107/6 225/110/6 223/108/3
f 228/109/7 227/112/7 225/110/6
f 230/111/8 229/114/8 227/112/7
f 232/113/9 231/116/9 229/114/8
f 234/115/10 233/118/10 231/116/9
f 236/117/11 235/120/11 233/118/10
f 238/119/12 237/122/12 235/120/11
f 240/121/13 239/124/13 237/122/12
f 242/123/14 241/126/14 239/124/13
f 244/125/15 243/128/15 241/126/14
f 246/127/16 245/130/16 243/128/15
f 248/129/17 247/132/19 245/130/16
f 250/131/18 249/134/18 247/132/19
f 252/133/20 251/136/20 249/134/18
f 254/135/21 253/138/23 251/136/20
f 256/137/22 255/140/22 253/138/23
f 258/139/24 257/142/24 255/140/22
f 260/141/25 259/144/25 257/142/24
f 262/143/26 261/146/26 259/144/25
f 264/145/27 263/148/27 261/146/26
f 266/147/28 265/150/28 263/148/27
f 268/149/29 267/152/29 265/150/28
f 270/151/30 269/154/30 267/152/29
f 272/153/31 271/156/31 269/154/30
f 274/155/32 273/158/32 271/156/31
f 276/157/33 275/160/33 273/158/32
f 278/159/34 277/162/34 275/160/33
f 280/161/35 279/164/35 277/162/34
f 282/163/36 281/166/36 279/164/35
f 284/165/37 283/168/37 281/166/36
f 286/167/38 285/170/38 283/168/37
f 288/169/39 287/172/39 285/170/38
f 290/171/40 289/174/40 287/172/39
f 292/173/41 291/176/41 289/174/40
f 294/175/42 293/178/42 291/176/41
f 296/177/43 295/180/43 293/178/42
f 298/179/44 297/182/44 295/180/43
f 300/181/45 299/184/45 297/182/44
f 302/183/46 301/186/46 299/184/45
f 304/185/47 303/188/47 301/186/46
f 222/187/5 221/9/4 303/188/47
f 308/189/48 307/190/48 305/5/48
f 310/117/49 309/120/49 307/190/48
f 312/191/49 311/192/49 309/120/49
f 314/131/48 313/134/48 311/192/49
f 316/193/50 315/194/50 313/134/48
f 318/145/51 317/148/51 315/194/50
f 320/195/51 319/196/51 317/148/51
f 322/159/50 321/162/50 319/196/51
f 324/197/50 323/198/50 321/162/50
f 326/173/51 325/176/51 323/198/50
f 328/199/49 327/200/49 325/176/51
f 306/187/48 305/9/48 327/200/49
f 332/201/52 331/203/52 329/5/53
f 334/202/54 333/205/56 331/203/52
f 336/204/55 335/206/55 333/205/56
f 338/191/57 337/192/57 335/206/55
f 340/207/58 339/209/58 337/192/57
f 342/208/59 341/211/59 339/209/58
f 344/210/60 343/212/60 341/211/59
f 346/145/61 345/148/61 343/212/60
f 348/213/62 347/215/62 345/148/61
f 350/214/63 349/217/63 347/215/62
f 352/216/64 351/218/64 349/217/63
f 354/197/65 353/198/65 351/218/64
f 356/219/66 355/221/66 353/198/65
f 358/220/67 357/223/67 355/221/66
f 360/222/68 359/224/68 357/223/67
f 330/187/53 329/9/53 359/224/68
f 364/201/69 363/203/69 361/5/70
f 366/202/71 365/205/71 363/203/69
f 368/204/72 367/206/72 365/205/71
f 370/191/73 369/192/73 367/206/72
f 372/207/74 371/209/74 369/192/73
f 374/208/75 373/211/75 371/209/74
f 376/210/76 375/212/76 373/211/75
f 378/145/77 377/148/77 375/212/76
f 380/213/78 379/215/78 377/148/77
f 382/214/79 381/217/79 379/215/78
f 384/216/80 383/218/80 381/217/79
f 386/197/81 385/198/81 383/218/80
f 388/219/82 387/221/82 385/198/81
f 390/220/83 389/223/83 387/221/82
f 392/222/84 391/224/84 389/223/83
f 362/187/70 361/9/70 391/224/84
f 396/225/85 395/227/85 393/5/86
f 398/226/87 397/229/89 395/227/85
f 400/228/88 399/231/88 397/229/89
f 402/230/90 401/233/92 399/231/88
f 404/232/91 403/235/91 401/233/92
f 406/234/93 405/237/93 403/235/91
f 408/236/94 407/239/94 405/237/93
f 410/238/49 409/241/49 407/239/94
f 412/240/49 411/243/49 409/241/49
f 414/242/48 413/245/48 411/243/49
f 416/244/50 415/247/50 413/245/48
f 418/246/95 417/248/95 415/247/50
f 394/187/86 393/9/86 417/248/95
f 422/249/96 421/63/96 419/5/97
f 424/250/98 423/62/98 421/63/96
f 426/251/99 425/64/99 423/62/98
f 428/252/100 427/55/100 425/64/99
f 430/253/101 429/57/101 427/55/100
f 432/254/102 431/56/102 429/57/101
f 434/255/103 433/58/103 431/56/102
f 436/256/104 435/59/104 433/58/103
f 438/257/49 437/61/49 435/59/104
f 440/258/51 439/60/51 437/61/49
f 420/187/97 419/9/97 439/60/51
