# Blender 5.0.1
# www.blender.org
mtllib StationConnectionEndVariants.mtl
g Wall1_Mesh
v -4.000000 0.000000 0.000000
v -4.000000 5.000000 0.000000
v -4.000000 0.000000 -0.100000
v -4.000000 5.000000 -0.100000
v 4.000000 0.000000 0.000000
v 4.000000 5.000000 0.000000
v 4.000000 0.000000 -0.100000
v 4.000000 5.000000 -0.100000
v -4.000000 -0.000000 -0.100000
v -4.000000 0.300000 -0.100000
v -4.000000 -0.000000 -0.400001
v -4.000000 0.300000 -0.400001
v 4.000000 -0.000000 -0.100000
v 4.000000 0.300000 -0.100000
v 4.000000 -0.000000 -0.400001
v 4.000000 0.300000 -0.400001
vn -1.0000 -0.0000 -0.0000
vn -0.0000 -0.0000 -1.0000
vn 1.0000 -0.0000 -0.0000
vn -0.0000 -0.0000 1.0000
vn -0.0000 -1.0000 -0.0000
vn -0.0000 1.0000 -0.0000
vt 0.625000 0.000000
vt 0.375000 0.250000
vt 0.375000 0.000000
vt 0.625000 0.250000
vt 0.375000 0.500000
vt 0.625000 0.500000
vt 0.375000 0.750000
vt 0.625000 0.750000
vt 0.375000 1.000000
vt 0.125000 0.750000
vt 0.125000 0.500000
vt 0.875000 0.500000
vt 0.625000 1.000000
vt 0.875000 0.750000
s 0
f 2/1/1 3/2/1 1/3/1
f 4/4/2 7/5/2 3/2/2
f 8/6/3 5/7/3 7/5/3
f 6/8/4 1/9/4 5/7/4
f 7/5/5 1/10/5 3/11/5
f 4/12/6 6/8/6 8/6/6
f 12/4/2 15/5/2 11/2/2
f 14/8/4 9/9/4 13/7/4
f 15/5/5 9/10/5 11/11/5
f 12/12/6 14/8/6 16/6/6
f 2/1/1 4/4/1 3/2/1
f 4/4/2 8/6/2 7/5/2
f 8/6/3 6/8/3 5/7/3
f 6/8/4 2/13/4 1/9/4
f 7/5/5 5/7/5 1/10/5
f 4/12/6 2/14/6 6/8/6
f 12/4/2 16/6/2 15/5/2
f 14/8/4 10/13/4 9/9/4
f 15/5/5 13/7/5 9/10/5
f 12/12/6 10/14/6 14/8/6
g Wall2_Mesh
v -4.000000 0.000000 0.000000
v -4.000000 5.000000 0.000000
v -4.000000 0.000000 -0.100000
v -4.000000 5.000000 -0.100000
v 4.000000 0.000000 0.000000
v 4.000000 5.000000 0.000000
v 4.000000 0.000000 -0.100000
v 4.000000 5.000000 -0.100000
v -4.000000 -0.000000 -0.100000
v -4.000000 0.300000 -0.100000
v -4.000000 -0.000000 -0.400001
v -4.000000 0.300000 -0.400001
v 4.000000 -0.000000 -0.100000
v 4.000000 0.300000 -0.100000
v 4.000000 -0.000000 -0.400001
v 4.000000 0.300000 -0.400001
v -3.850000 0.300000 -0.100000
v -3.850000 0.600000 -0.100000
v -3.850000 0.300000 -0.300001
v -3.850000 0.600000 -0.300001
v 3.600000 4.500000 -0.100000
v 3.600000 4.800000 -0.100000
v 3.600000 4.500000 -0.300001
v 3.600000 4.800000 -0.300001
vn -1.0000 -0.0000 -0.0000
vn -0.0000 -0.0000 -1.0000
vn 1.0000 -0.0000 -0.0000
vn -0.0000 -0.0000 1.0000
vn -0.0000 1.0000 -0.0000
vn 0.4911 -0.8711 -0.0000
vn -0.4911 0.8711 -0.0000
vt 0.625000 0.000000
vt 0.375000 0.250000
vt 0.375000 0.000000
vt 0.625000 0.250000
vt 0.375000 0.500000
vt 0.625000 0.500000
vt 0.375000 0.750000
vt 0.625000 0.750000
vt 0.375000 1.000000
vt 0.875000 0.500000
vt 0.125000 0.750000
vt 0.125000 0.500000
vt 0.625000 1.000000
vt 0.875000 0.750000
s 0
f 18/15/7 19/16/7 17/17/7
f 20/18/8 23/19/8 19/16/8
f 24/20/9 21/21/9 23/19/9
f 22/22/10 17/23/10 21/21/10
f 28/18/8 31/19/8 27/16/8
f 30/22/10 25/23/10 29/21/10
f 28/24/11 30/22/11 32/20/11
f 36/18/8 39/19/8 35/16/8
f 39/19/12 33/25/12 35/26/12
f 36/24/13 38/22/13 40/20/13
f 18/15/7 20/18/7 19/16/7
f 20/18/8 24/20/8 23/19/8
f 24/20/9 22/22/9 21/21/9
f 22/22/10 18/27/10 17/23/10
f 28/18/8 32/20/8 31/19/8
f 30/22/10 26/27/10 25/23/10
f 28/24/11 26/28/11 30/22/11
f 36/18/8 40/20/8 39/19/8
f 39/19/12 37/21/12 33/25/12
f 36/24/13 34/28/13 38/22/13
g Wall3_Mesh
v 2.400000 4.900000 -0.400000
v 2.400000 0.300000 -0.400000
v 2.400000 4.900000 -0.100000
v 2.400000 0.300000 -0.100000
v 2.100001 4.900000 -0.400000
v 2.100001 0.300000 -0.400000
v 2.100001 4.900000 -0.100000
v 2.100001 0.300000 -0.100000
v -4.000000 -0.000000 -0.100000
v -4.000000 0.300000 -0.100000
v -4.000000 -0.000000 -0.400001
v -4.000000 0.300000 -0.400001
v 4.000000 -0.000000 -0.100000
v 4.000000 0.300000 -0.100000
v 4.000000 -0.000000 -0.400001
v 4.000000 0.300000 -0.400001
v 0.600000 1.000000 -0.050000
v 0.600000 1.000000 -0.249999
v 0.599999 3.000000 -0.250000
v 0.599999 3.000000 -0.050001
v 0.800000 1.000000 -0.249999
v 0.800000 3.000000 -0.250000
v 0.800000 1.000000 -0.050000
v 0.800000 3.000000 -0.050001
v 1.950000 1.000000 0.000001
v 1.950000 1.000000 -0.249999
v 1.949998 3.000000 -0.250000
v 1.949998 3.000000 -0.000000
v 2.100000 1.000000 -0.249999
v 2.099999 3.000000 -0.250000
v 2.100000 1.000000 0.000001
v 2.099999 3.000000 -0.000000
v -2.100000 0.700001 0.000001
v -2.100000 0.700001 -0.300000
v 2.100000 0.700000 -0.300001
v 2.100000 0.700000 -0.000000
v -2.100000 1.000001 -0.300000
v 2.100000 1.000000 -0.300001
v -2.100000 1.000001 0.000001
v 2.100000 1.000000 -0.000000
v -2.100000 3.000001 0.000001
v -2.100000 3.000001 -0.300000
v 2.100000 3.000000 -0.300001
v 2.100000 3.000000 -0.000000
v -2.100000 3.300001 -0.300000
v 2.100000 3.300000 -0.300001
v -2.100000 3.300001 0.000001
v 2.100000 3.300000 -0.000000
v -0.600000 1.000000 -0.050000
v -0.600000 1.000000 -0.249999
v -0.599999 3.000000 -0.250000
v -0.599999 3.000000 -0.050001
v -0.800000 1.000000 -0.249999
v -0.800000 3.000000 -0.250000
v -0.800000 1.000000 -0.050000
v -0.800000 3.000000 -0.050001
v -1.950001 1.000000 0.000001
v -1.950001 1.000000 -0.249999
v -1.949999 3.000000 -0.250000
v -1.949999 3.000000 -0.000000
v -2.100000 1.000000 -0.249999
v -2.099999 3.000000 -0.250000
v -2.100000 1.000000 0.000001
v -2.099999 3.000000 -0.000000
v 2.099999 0.000000 0.000001
v 2.099999 4.999999 0.000001
v 2.099999 0.000000 -0.099999
v 2.099999 4.999999 -0.099999
v 3.999999 0.000000 0.000001
v 3.999999 4.999999 0.000001
v 3.999999 0.000000 -0.099999
v 3.999999 4.999999 -0.099999
v -4.000001 0.000000 0.000001
v -4.000001 4.999999 0.000001
v -4.000001 0.000000 -0.099999
v -4.000001 4.999999 -0.099999
v -2.100001 0.000000 0.000001
v -2.100001 4.999999 0.000001
v -2.100001 0.000000 -0.099999
v -2.100001 4.999999 -0.099999
v -2.100000 0.000000 0.000001
v -2.100000 0.699999 0.000001
v -2.100000 0.000000 -0.099999
v -2.100000 0.699999 -0.099999
v 2.099999 0.000000 0.000001
v 2.099999 0.699999 0.000001
v 2.099999 0.000000 -0.100000
v 2.099999 0.699999 -0.100000
v -2.100000 4.999999 -0.099999
v -2.100000 3.300000 -0.099999
v -2.100000 4.999999 0.000001
v -2.100000 3.300000 0.000001
v 2.099999 3.300000 0.000001
v 2.099999 4.999999 0.000001
v 2.099999 3.300000 -0.100000
v 2.099999 4.999999 -0.100000
v -2.100000 4.900000 -0.400000
v -2.100000 0.300000 -0.400000
v -2.100000 4.900000 -0.100000
v -2.100000 0.300000 -0.100000
v -2.399999 4.900000 -0.400000
v -2.399999 0.300000 -0.400000
v -2.399999 4.900000 -0.100000
v -2.399999 0.300000 -0.100000
vn 1.0000 -0.0000 -0.0000
vn -0.0000 -0.0000 -1.0000
vn -1.0000 -0.0000 -0.0000
vn -0.0000 -0.0000 1.0000
vn -0.0000 1.0000 -0.0000
vn -0.0000 -1.0000 -0.0000
vt 0.625000 0.250000
vt 0.375000 0.500000
vt 0.375000 0.250000
vt 0.625000 0.500000
vt 0.375000 0.750000
vt 0.625000 0.750000
vt 0.375000 1.000000
vt 0.875000 0.500000
vt 0.625000 0.000000
vt 0.375000 0.000000
vt 0.625000 1.000000
vt 0.875000 0.750000
s 0
f 41/29/14 44/30/14 42/31/14
f 45/32/15 42/33/15 46/30/15
f 47/34/16 46/35/16 48/33/16
f 52/29/15 55/30/15 51/31/15
f 54/34/17 49/35/17 53/33/17
f 52/36/18 54/34/18 56/32/18
f 59/35/15 61/34/15 58/33/15
f 60/31/16 58/37/16 57/38/16
f 64/39/14 61/34/14 62/39/14
f 67/35/15 69/34/15 66/33/15
f 68/31/16 66/37/16 65/38/16
f 72/39/14 69/34/14 70/39/14
f 71/34/17 68/31/17 65/38/17
f 57/38/17 64/39/17 60/31/17
f 74/33/15 78/39/15 75/35/15
f 74/37/19 76/31/19 73/38/19
f 77/34/18 80/39/18 78/39/18
f 82/33/15 86/39/15 83/35/15
f 82/37/19 84/31/19 81/38/19
f 85/34/18 88/39/18 86/39/18
f 93/34/15 91/35/15 90/33/15
f 90/37/14 92/31/14 89/38/14
f 93/34/16 96/39/16 94/39/16
f 101/34/15 99/35/15 98/33/15
f 98/37/14 100/31/14 97/38/14
f 101/34/16 104/39/16 102/39/16
f 100/31/17 103/34/17 97/38/17
f 76/31/17 79/34/17 73/38/17
f 84/31/17 87/34/17 81/38/17
f 89/38/17 96/39/17 95/34/17
f 108/29/15 111/30/15 107/31/15
f 112/32/14 109/33/14 111/30/14
f 110/34/17 105/35/17 109/33/17
f 108/36/18 110/34/18 112/32/18
f 114/37/16 115/31/16 113/38/16
f 116/29/15 119/30/15 115/31/15
f 118/34/17 113/35/17 117/33/17
f 116/36/18 118/34/18 120/32/18
f 124/29/15 127/30/15 123/31/15
f 126/34/17 121/35/17 125/33/17
f 124/36/18 126/34/18 128/32/18
f 129/29/15 135/30/15 130/31/15
f 134/34/17 132/35/17 133/33/17
f 129/36/18 134/34/18 136/32/18
f 137/29/14 140/30/14 138/31/14
f 141/32/15 138/33/15 142/30/15
f 143/34/16 142/35/16 144/33/16
f 41/29/14 43/32/14 44/30/14
f 45/32/15 41/34/15 42/33/15
f 47/34/16 45/39/16 46/35/16
f 52/29/15 56/32/15 55/30/15
f 54/34/17 50/39/17 49/35/17
f 52/36/18 50/40/18 54/34/18
f 59/35/15 62/39/15 61/34/15
f 60/31/16 59/29/16 58/37/16
f 64/39/14 63/34/14 61/34/14
f 67/35/15 70/39/15 69/34/15
f 68/31/16 67/29/16 66/37/16
f 72/39/14 71/34/14 69/34/14
f 71/34/17 72/39/17 68/31/17
f 57/38/17 63/34/17 64/39/17
f 74/33/15 77/34/15 78/39/15
f 74/37/19 75/29/19 76/31/19
f 77/34/18 79/34/18 80/39/18
f 82/33/15 85/34/15 86/39/15
f 82/37/19 83/29/19 84/31/19
f 85/34/18 87/34/18 88/39/18
f 93/34/15 94/39/15 91/35/15
f 90/37/14 91/29/14 92/31/14
f 93/34/16 95/34/16 96/39/16
f 101/34/15 102/39/15 99/35/15
f 98/37/14 99/29/14 100/31/14
f 101/34/16 103/34/16 104/39/16
f 100/31/17 104/39/17 103/34/17
f 76/31/17 80/39/17 79/34/17
f 84/31/17 88/39/17 87/34/17
f 89/38/17 92/31/17 96/39/17
f 108/29/15 112/32/15 111/30/15
f 112/32/14 110/34/14 109/33/14
f 110/34/17 106/39/17 105/35/17
f 108/36/18 106/40/18 110/34/18
f 114/37/16 116/29/16 115/31/16
f 116/29/15 120/32/15 119/30/15
f 118/34/17 114/39/17 113/35/17
f 116/36/18 114/40/18 118/34/18
f 124/29/15 128/32/15 127/30/15
f 126/34/17 122/39/17 121/35/17
f 124/36/18 122/40/18 126/34/18
f 129/29/15 136/32/15 135/30/15
f 134/34/17 131/39/17 132/35/17
f 129/36/18 131/40/18 134/34/18
f 137/29/14 139/32/14 140/30/14
f 141/32/15 137/34/15 138/33/15
f 143/34/16 141/39/16 142/35/16
