# Blender 5.0.1
# www.blender.org
mtllib StationEntrance.mtl
g StationEntrance_Mesh
v -6.900000 4.000000 -8.000000
v -6.900000 4.100000 -8.000000
v -6.900000 2.799999 -10.400000
v -6.900000 2.900000 -10.400000
v 0.000000 4.000000 -8.000000
v 0.000000 4.100000 -8.000000
v 0.000000 2.799999 -10.400000
v 0.000000 2.900000 -10.400000
v -1.200000 3.100000 -10.000000
v -1.200000 0.000000 -10.000000
v -1.200000 3.100000 -9.900000
v -1.200000 0.000000 -9.900000
v -6.500000 3.100000 -10.000000
v -6.500000 0.000000 -10.000000
v -6.500000 3.100000 -9.900000
v -6.500000 0.000000 -9.900000
v 0.000000 -1.000000 -10.000000
v 0.000000 0.000000 -10.000000
v 0.000000 -1.000000 -8.000000
v 0.000000 0.000000 -8.000000
v -6.500000 -1.000000 -10.000000
v -6.500000 -0.000000 -10.000000
v -6.499999 -1.000000 -8.000000
v -6.499999 -0.000000 -8.000000
v 0.000000 3.100000 -10.000000
v 0.000000 2.500000 -10.000000
v 0.000000 3.100000 -9.900000
v 0.000000 2.500000 -9.900000
v -1.200000 3.100000 -10.000000
v -1.200000 2.500000 -10.000000
v -1.200000 3.100000 -9.900000
v -1.200000 2.500000 -9.900000
v -6.400001 3.000000 -10.000000
v -6.400001 0.000000 -10.000000
v -6.400001 4.000000 -8.000000
v -6.400001 0.000000 -8.000000
v -6.500000 3.000000 -10.000000
v -6.500000 0.000000 -10.000000
v -6.500000 4.000000 -8.000000
v -6.500000 0.000000 -8.000000
v -6.400000 4.000000 -8.000000
v -6.400000 0.000000 -8.000000
v -6.400000 4.000000 -7.900000
v -6.400000 0.000000 -7.900000
v -8.000000 4.000000 -8.000000
v -8.000000 0.000000 -8.000000
v -8.000000 4.000000 -7.900000
v -8.000000 0.000000 -7.900000
v 0.000000 5.100000 -8.000000
v 0.000000 4.000000 -8.000000
v 0.000000 5.100000 -7.900000
v 0.000000 4.000000 -7.900000
v -8.000000 5.100000 -8.000000
v -8.000000 4.000000 -8.000000
v -8.000000 5.100000 -7.900000
v -8.000000 4.000000 -7.900000
v -6.400000 0.000000 -9.600000
v -6.400000 0.300000 -9.600000
v -6.400000 0.300000 -9.900001
v -1.500000 0.000000 -9.600000
v -1.500000 0.300000 -9.600000
v -1.500000 0.300000 -9.900001
v -6.400000 2.900000 -9.600000
v -6.400000 3.200000 -9.600000
v -6.400000 2.900000 -9.900001
v 0.000000 2.900000 -9.600000
v 0.000000 3.200000 -9.600000
v 0.000000 2.900000 -9.900001
v -6.400001 0.300000 -9.600000
v -6.400001 2.900000 -9.600000
v -6.100000 0.300000 -9.600000
v -6.100000 2.900000 -9.600000
v -6.100000 0.300000 -9.900000
v -6.100000 2.900000 -9.900000
v -1.500000 -0.000000 -9.600000
v -1.500000 2.900000 -9.600000
v -1.500000 -0.000000 -9.900000
v -1.500000 2.900000 -9.900000
v -1.200000 -0.000000 -9.600000
v -1.200000 2.900000 -9.600000
v -1.200000 -0.000000 -9.900000
v -1.200000 2.900000 -9.900000
v -1.400000 -0.000000 -10.000000
v -1.400000 2.500000 -10.000000
v -1.400000 -0.000000 -10.099999
v -1.400000 2.500000 -10.099999
v -1.200000 -0.000000 -10.000000
v -1.200000 2.500000 -10.000000
v -1.200000 -0.000000 -10.099999
v -1.200000 2.500000 -10.099999
v -1.500000 2.500000 -10.000000
v -1.500000 2.700000 -10.000000
v -1.500000 2.500000 -10.099999
v -1.500000 2.700000 -10.099999
v 0.000000 2.500000 -10.000000
v 0.000000 2.700000 -10.000000
v 0.000000 2.500000 -10.099999
v 0.000000 2.700000 -10.099999
v -1.200001 2.500000 -9.700001
v -1.200001 2.700000 -9.700001
v -1.200001 2.500000 -9.900000
v -1.200001 2.700000 -9.900000
v 0.000000 2.500000 -9.700001
v 0.000000 2.700000 -9.700001
v 0.000000 2.500000 -9.900000
v 0.000000 2.700000 -9.900000
v -6.400000 0.300000 -9.599999
v -6.099999 0.000000 -9.599999
v -6.099999 0.300000 -9.599999
v -6.400000 0.300000 -7.900000
v -6.099999 0.000000 -7.900000
v -6.099999 0.300000 -7.900000
v -6.400000 2.900000 -9.599999
v -6.400000 3.200000 -9.599999
v -6.099999 2.900000 -9.599999
v -6.099999 3.200000 -9.599999
v -6.400000 3.750000 -7.900000
v -6.400000 4.050000 -7.900000
v -6.099999 3.750000 -7.900000
v -6.099999 4.050000 -7.900000
v -1.500000 2.900000 -9.599999
v -1.500000 3.200000 -9.599999
v -1.199999 2.900000 -9.599999
v -1.199999 3.200000 -9.599999
v -1.500000 3.750000 -7.900000
v -1.500000 4.050000 -7.900000
v -1.199999 3.750000 -7.900000
v -1.199999 4.050000 -7.900000
v -4.099999 2.900000 -9.599999
v -4.099999 3.200000 -9.599999
v -3.799999 2.900000 -9.599999
v -3.799999 3.200000 -9.599999
v -4.099999 3.750000 -7.900000
v -4.099999 4.050000 -7.900000
v -3.799999 3.750000 -7.900000
v -3.799999 4.050000 -7.900000
v 6.900000 4.000000 -8.000000
v 6.900000 4.100000 -8.000000
v 6.900000 2.799999 -10.400000
v 6.900000 2.900000 -10.400000
v 1.200000 3.100000 -10.000000
v 1.200000 0.000000 -10.000000
v 1.200000 3.100000 -9.900000
v 1.200000 0.000000 -9.900000
v 6.500000 3.100000 -10.000000
v 6.500000 0.000000 -10.000000
v 6.500000 3.100000 -9.900000
v 6.500000 0.000000 -9.900000
v 6.500000 -1.000000 -10.000000
v 6.500000 -0.000000 -10.000000
v 6.499999 -1.000000 -8.000000
v 6.499999 -0.000000 -8.000000
v 1.200000 3.100000 -10.000000
v 1.200000 2.500000 -10.000000
v 1.200000 3.100000 -9.900000
v 1.200000 2.500000 -9.900000
v 6.400001 3.000000 -10.000000
v 6.400001 0.000000 -10.000000
v 6.400001 4.000000 -8.000000
v 6.400001 0.000000 -8.000000
v 6.500000 3.000000 -10.000000
v 6.500000 0.000000 -10.000000
v 6.500000 4.000000 -8.000000
v 6.500000 0.000000 -8.000000
v 6.400000 4.000000 -8.000000
v 6.400000 0.000000 -8.000000
v 6.400000 4.000000 -7.900000
v 6.400000 0.000000 -7.900000
v 8.000000 4.000000 -8.000000
v 8.000000 0.000000 -8.000000
v 8.000000 4.000000 -7.900000
v 8.000000 0.000000 -7.900000
v 8.000000 5.100000 -8.000000
v 8.000000 4.000000 -8.000000
v 8.000000 5.100000 -7.900000
v 8.000000 4.000000 -7.900000
v 6.400000 0.000000 -9.600000
v 6.400000 0.300000 -9.600000
v 6.400000 0.300000 -9.900001
v 1.500000 0.000000 -9.600000
v 1.500000 0.300000 -9.600000
v 1.500000 0.300000 -9.900001
v 6.400000 2.900000 -9.600000
v 6.400000 3.200000 -9.600000
v 6.400000 2.900000 -9.900001
v 6.400001 0.300000 -9.600000
v 6.400001 2.900000 -9.600000
v 6.100000 0.300000 -9.600000
v 6.100000 2.900000 -9.600000
v 6.100000 0.300000 -9.900000
v 6.100000 2.900000 -9.900000
v 1.500000 -0.000000 -9.600000
v 1.500000 2.900000 -9.600000
v 1.500000 -0.000000 -9.900000
v 1.500000 2.900000 -9.900000
v 1.200000 -0.000000 -9.600000
v 1.200000 2.900000 -9.600000
v 1.200000 -0.000000 -9.900000
v 1.200000 2.900000 -9.900000
v 1.400000 -0.000000 -10.000000
v 1.400000 2.500000 -10.000000
v 1.400000 -0.000000 -10.099999
v 1.400000 2.500000 -10.099999
v 1.200000 -0.000000 -10.000000
v 1.200000 2.500000 -10.000000
v 1.200000 -0.000000 -10.099999
v 1.200000 2.500000 -10.099999
v 1.500000 2.500000 -10.000000
v 1.500000 2.700000 -10.000000
v 1.500000 2.500000 -10.099999
v 1.500000 2.700000 -10.099999
v 1.200001 2.500000 -9.700001
v 1.200001 2.700000 -9.700001
v 1.200001 2.500000 -9.900000
v 1.200001 2.700000 -9.900000
v 6.400000 0.300000 -9.599999
v 6.099999 0.000000 -9.599999
v 6.099999 0.300000 -9.599999
v 6.400000 0.300000 -7.900000
v 6.099999 0.000000 -7.900000
v 6.099999 0.300000 -7.900000
v 6.400000 2.900000 -9.599999
v 6.400000 3.200000 -9.599999
v 6.099999 2.900000 -9.599999
v 6.099999 3.200000 -9.599999
v 6.400000 3.750000 -7.900000
v 6.400000 4.050000 -7.900000
v 6.099999 3.750000 -7.900000
v 6.099999 4.050000 -7.900000
v 1.500000 2.900000 -9.599999
v 1.500000 3.200000 -9.599999
v 1.199999 2.900000 -9.599999
v 1.199999 3.200000 -9.599999
v 1.500000 3.750000 -7.900000
v 1.500000 4.050000 -7.900000
v 1.199999 3.750000 -7.900000
v 1.199999 4.050000 -7.900000
v 4.099999 2.900000 -9.599999
v 4.099999 3.200000 -9.599999
v 3.799999 2.900000 -9.599999
v 3.799999 3.200000 -9.599999
v 4.099999 3.750000 -7.900000
v 4.099999 4.050000 -7.900000
v 3.799999 3.750000 -7.900000
v 3.799999 4.050000 -7.900000
vn -1.0000 -0.0000 -0.0000
vn -0.0000 -0.0000 -1.0000
vn 1.0000 -0.0000 -0.0000
vn -0.0000 -0.0000 1.0000
vn -0.0000 -0.8944 0.4472
vn -0.0000 0.8944 -0.4472
vn -0.0000 -1.0000 -0.0000
vn -0.0000 1.0000 -0.0000
vt 0.375000 0.000000
vt 0.625000 0.250000
vt 0.375000 0.250000
vt 0.375000 0.500000
vt 0.625000 0.500000
vt 0.375000 0.750000
vt 0.625000 0.750000
vt 0.375000 1.000000
vt 0.125000 0.750000
vt 0.125000 0.500000
vt 0.875000 0.500000
vt 0.625000 0.000000
vt 0.875000 0.750000
vt 0.625000 1.000000
s 0
f 1/1/1 4/2/1 3/3/1
f 4/2/2 7/4/2 3/3/2
f 8/5/3 5/6/3 7/4/3
f 6/7/4 1/8/4 5/6/4
f 7/4/5 1/9/5 3/10/5
f 4/11/6 6/7/6 8/5/6
f 10/2/7 16/4/7 14/3/7
f 11/5/4 16/6/4 12/4/4
f 9/7/3 12/8/3 10/6/3
f 13/4/2 10/9/2 14/10/2
f 18/12/3 19/3/3 17/1/3
f 20/2/4 23/4/4 19/3/4
f 24/5/1 21/6/1 23/4/1
f 22/7/2 17/8/2 21/6/2
f 23/4/7 17/9/7 19/10/7
f 24/5/8 18/13/8 22/7/8
f 26/2/7 32/4/7 30/3/7
f 27/5/4 32/6/4 28/4/4
f 29/4/2 26/9/2 30/10/2
f 34/2/7 40/4/7 38/3/7
f 33/7/3 36/8/3 34/6/3
f 40/5/1 37/13/1 38/7/1
f 45/12/8 43/3/8 41/1/8
f 42/2/7 48/4/7 46/3/7
f 43/5/4 48/6/4 44/4/4
f 45/4/2 42/9/2 46/10/2
f 47/11/1 46/7/1 48/5/1
f 53/12/8 51/3/8 49/1/8
f 50/2/7 56/4/7 54/3/7
f 51/5/4 56/6/4 52/4/4
f 49/7/3 52/8/3 50/6/3
f 53/4/2 50/9/2 54/10/2
f 55/11/1 54/7/1 56/5/1
f 61/7/4 57/8/4 60/6/4
f 59/11/8 61/7/8 62/5/8
f 109/2/3 111/4/3 108/3/3
f 67/7/4 63/8/4 66/6/4
f 68/4/7 63/9/7 65/10/7
f 74/5/3 71/6/3 73/4/3
f 72/7/4 69/8/4 71/6/4
f 76/12/1 77/3/1 75/1/1
f 78/2/2 81/4/2 77/3/2
f 82/5/3 79/6/3 81/4/3
f 80/7/4 75/8/4 79/6/4
f 84/12/1 85/3/1 83/1/1
f 86/2/2 89/4/2 85/3/2
f 90/5/3 87/6/3 89/4/3
f 92/12/1 93/3/1 91/1/1
f 94/2/2 97/4/2 93/3/2
f 97/4/7 91/9/7 93/10/7
f 94/11/8 96/7/8 98/5/8
f 104/7/4 99/8/4 103/6/4
f 105/4/7 99/9/7 101/10/7
f 102/11/8 104/7/8 106/5/8
f 109/11/8 110/7/8 112/5/8
f 116/2/3 119/4/3 115/3/3
f 127/4/5 121/9/5 123/10/5
f 125/6/1 122/14/1 121/8/1
f 117/6/1 114/14/1 113/8/1
f 119/4/5 113/9/5 115/10/5
f 124/2/3 127/4/3 123/3/3
f 135/4/5 129/9/5 131/10/5
f 133/6/1 130/14/1 129/8/1
f 132/2/3 135/4/3 131/3/3
f 137/1/3 140/2/3 138/12/3
f 7/4/2 140/2/2 139/3/2
f 137/8/4 6/7/4 5/6/4
f 137/9/5 7/4/5 139/10/5
f 6/7/6 140/11/6 8/5/6
f 148/4/7 142/2/7 146/3/7
f 148/6/4 143/5/4 144/4/4
f 144/8/1 141/7/1 142/6/1
f 142/9/2 145/4/2 146/10/2
f 151/4/4 20/2/4 19/3/4
f 149/6/3 152/5/3 151/4/3
f 17/8/2 150/7/2 149/6/2
f 17/9/7 151/4/7 19/10/7
f 152/5/8 18/13/8 20/11/8
f 156/4/7 26/2/7 154/3/7
f 156/6/4 27/5/4 28/4/4
f 26/9/2 153/4/2 154/10/2
f 164/4/7 158/2/7 162/3/7
f 160/8/1 157/7/1 158/6/1
f 164/5/3 161/13/3 163/11/3
f 167/3/8 169/12/8 165/1/8
f 172/4/7 166/2/7 170/3/7
f 172/6/4 167/5/4 168/4/4
f 166/9/2 169/4/2 170/10/2
f 170/7/3 171/11/3 172/5/3
f 51/3/8 173/12/8 49/1/8
f 176/4/7 50/2/7 174/3/7
f 176/6/4 51/5/4 52/4/4
f 50/9/2 173/4/2 174/10/2
f 174/7/3 175/11/3 176/5/3
f 177/8/4 181/7/4 180/6/4
f 181/7/8 179/11/8 182/5/8
f 220/4/1 218/2/1 217/3/1
f 183/8/4 67/7/4 66/6/4
f 183/9/7 68/4/7 185/10/7
f 188/6/1 191/5/1 190/4/1
f 186/8/4 189/7/4 188/6/4
f 194/3/3 193/12/3 192/1/3
f 198/4/2 195/2/2 194/3/2
f 196/6/1 199/5/1 198/4/1
f 192/8/4 197/7/4 196/6/4
f 202/3/3 201/12/3 200/1/3
f 206/4/2 203/2/2 202/3/2
f 204/6/1 207/5/1 206/4/1
f 210/3/3 209/12/3 208/1/3
f 97/4/2 211/2/2 210/3/2
f 208/9/7 97/4/7 210/10/7
f 96/7/8 211/11/8 98/5/8
f 212/8/4 104/7/4 103/6/4
f 212/9/7 105/4/7 214/10/7
f 104/7/8 215/11/8 106/5/8
f 219/7/8 218/11/8 221/5/8
f 228/4/1 225/2/1 224/3/1
f 230/9/5 236/4/5 232/10/5
f 234/6/3 231/14/3 235/7/3
f 226/6/3 223/14/3 227/7/3
f 222/9/5 228/4/5 224/10/5
f 236/4/1 233/2/1 232/3/1
f 238/9/5 244/4/5 240/10/5
f 242/6/3 239/14/3 243/7/3
f 244/4/1 241/2/1 240/3/1
f 1/1/1 2/12/1 4/2/1
f 4/2/2 8/5/2 7/4/2
f 8/5/3 6/7/3 5/6/3
f 6/7/4 2/14/4 1/8/4
f 7/4/5 5/6/5 1/9/5
f 4/11/6 2/13/6 6/7/6
f 10/2/7 12/5/7 16/4/7
f 11/5/4 15/7/4 16/6/4
f 9/7/3 11/14/3 12/8/3
f 13/4/2 9/6/2 10/9/2
f 18/12/3 20/2/3 19/3/3
f 20/2/4 24/5/4 23/4/4
f 24/5/1 22/7/1 21/6/1
f 22/7/2 18/14/2 17/8/2
f 23/4/7 21/6/7 17/9/7
f 24/5/8 20/11/8 18/13/8
f 26/2/7 28/5/7 32/4/7
f 27/5/4 31/7/4 32/6/4
f 29/4/2 25/6/2 26/9/2
f 34/2/7 36/5/7 40/4/7
f 33/7/3 35/14/3 36/8/3
f 40/5/1 39/11/1 37/13/1
f 45/12/8 47/2/8 43/3/8
f 42/2/7 44/5/7 48/4/7
f 43/5/4 47/7/4 48/6/4
f 45/4/2 41/6/2 42/9/2
f 47/11/1 45/13/1 46/7/1
f 53/12/8 55/2/8 51/3/8
f 50/2/7 52/5/7 56/4/7
f 51/5/4 55/7/4 56/6/4
f 49/7/3 51/14/3 52/8/3
f 53/4/2 49/6/2 50/9/2
f 55/11/1 53/13/1 54/7/1
f 61/7/4 58/14/4 57/8/4
f 59/11/8 58/13/8 61/7/8
f 109/2/3 112/5/3 111/4/3
f 67/7/4 64/14/4 63/8/4
f 68/4/7 66/6/7 63/9/7
f 74/5/3 72/7/3 71/6/3
f 72/7/4 70/14/4 69/8/4
f 76/12/1 78/2/1 77/3/1
f 78/2/2 82/5/2 81/4/2
f 82/5/3 80/7/3 79/6/3
f 80/7/4 76/14/4 75/8/4
f 84/12/1 86/2/1 85/3/1
f 86/2/2 90/5/2 89/4/2
f 90/5/3 88/7/3 87/6/3
f 92/12/1 94/2/1 93/3/1
f 94/2/2 98/5/2 97/4/2
f 97/4/7 95/6/7 91/9/7
f 94/11/8 92/13/8 96/7/8
f 104/7/4 100/14/4 99/8/4
f 105/4/7 103/6/7 99/9/7
f 102/11/8 100/13/8 104/7/8
f 109/11/8 107/13/8 110/7/8
f 116/2/3 120/5/3 119/4/3
f 127/4/5 125/6/5 121/9/5
f 125/6/1 126/7/1 122/14/1
f 117/6/1 118/7/1 114/14/1
f 119/4/5 117/6/5 113/9/5
f 124/2/3 128/5/3 127/4/3
f 135/4/5 133/6/5 129/9/5
f 133/6/1 134/7/1 130/14/1
f 132/2/3 136/5/3 135/4/3
f 137/1/3 139/3/3 140/2/3
f 7/4/2 8/5/2 140/2/2
f 137/8/4 138/14/4 6/7/4
f 137/9/5 5/6/5 7/4/5
f 6/7/6 138/13/6 140/11/6
f 148/4/7 144/5/7 142/2/7
f 148/6/4 147/7/4 143/5/4
f 144/8/1 143/14/1 141/7/1
f 142/9/2 141/6/2 145/4/2
f 151/4/4 152/5/4 20/2/4
f 149/6/3 150/7/3 152/5/3
f 17/8/2 18/14/2 150/7/2
f 17/9/7 149/6/7 151/4/7
f 152/5/8 150/7/8 18/13/8
f 156/4/7 28/5/7 26/2/7
f 156/6/4 155/7/4 27/5/4
f 26/9/2 25/6/2 153/4/2
f 164/4/7 160/5/7 158/2/7
f 160/8/1 159/14/1 157/7/1
f 164/5/3 162/7/3 161/13/3
f 167/3/8 171/2/8 169/12/8
f 172/4/7 168/5/7 166/2/7
f 172/6/4 171/7/4 167/5/4
f 166/9/2 165/6/2 169/4/2
f 170/7/3 169/13/3 171/11/3
f 51/3/8 175/2/8 173/12/8
f 176/4/7 52/5/7 50/2/7
f 176/6/4 175/7/4 51/5/4
f 50/9/2 49/6/2 173/4/2
f 174/7/3 173/13/3 175/11/3
f 177/8/4 178/14/4 181/7/4
f 181/7/8 178/13/8 179/11/8
f 220/4/1 221/5/1 218/2/1
f 183/8/4 184/14/4 67/7/4
f 183/9/7 66/6/7 68/4/7
f 188/6/1 189/7/1 191/5/1
f 186/8/4 187/14/4 189/7/4
f 194/3/3 195/2/3 193/12/3
f 198/4/2 199/5/2 195/2/2
f 196/6/1 197/7/1 199/5/1
f 192/8/4 193/14/4 197/7/4
f 202/3/3 203/2/3 201/12/3
f 206/4/2 207/5/2 203/2/2
f 204/6/1 205/7/1 207/5/1
f 210/3/3 211/2/3 209/12/3
f 97/4/2 98/5/2 211/2/2
f 208/9/7 95/6/7 97/4/7
f 96/7/8 209/13/8 211/11/8
f 212/8/4 213/14/4 104/7/4
f 212/9/7 103/6/7 105/4/7
f 104/7/8 213/13/8 215/11/8
f 219/7/8 216/13/8 218/11/8
f 228/4/1 229/5/1 225/2/1
f 230/9/5 234/6/5 236/4/5
f 234/6/3 230/8/3 231/14/3
f 226/6/3 222/8/3 223/14/3
f 222/9/5 226/6/5 228/4/5
f 236/4/1 237/5/1 233/2/1
f 238/9/5 242/6/5 244/4/5
f 242/6/3 238/8/3 239/14/3
f 244/4/1 245/5/1 241/2/1
g StationBuildingSupports_Mesh
v -0.150000 0.300000 7.900000
v -0.150000 4.900000 7.900000
v -0.150000 0.300000 7.600000
v -0.150000 4.900000 7.600000
v 0.150000 0.300000 7.900000
v 0.150000 4.900000 7.900000
v 0.150000 0.300000 7.600000
v 0.150000 4.900000 7.600000
v -7.900000 4.900000 7.900000
v -7.900000 5.100000 7.900000
v -7.900000 4.900000 7.599999
v -7.900000 5.200000 7.599999
v 7.900000 4.900000 7.900000
v 7.900000 5.100000 7.900000
v 7.900000 4.900000 7.599999
v 7.900000 5.200000 7.599999
v -7.900000 0.300000 7.900000
v -7.900000 4.900001 7.900000
v -7.900000 0.300000 7.599999
v -7.900000 4.900001 7.599999
v -7.600000 0.300000 7.900000
v -7.600000 4.900001 7.900000
v -7.600000 0.300000 7.599999
v -7.600000 4.900001 7.599999
v 7.600000 0.300000 7.900000
v 7.600000 4.900001 7.900000
v 7.600000 0.300000 7.599999
v 7.600000 4.900001 7.599999
v 7.900000 0.300000 7.900000
v 7.900000 4.900001 7.900000
v 7.900000 0.300000 7.599999
v 7.900000 4.900001 7.599999
v 7.600000 0.300000 0.150000
v 7.600000 4.900000 0.150000
v 7.600000 0.300000 -0.150000
v 7.600000 4.900000 -0.150000
v 7.900000 0.300000 0.150000
v 7.900000 4.900000 0.150000
v 7.900000 0.300000 -0.150000
v 7.900000 4.900000 -0.150000
v -7.900000 0.300000 0.150000
v -7.900000 4.900000 0.150000
v -7.900000 0.300000 -0.150000
v -7.900000 4.900000 -0.150000
v -7.600000 0.300000 0.150000
v -7.600000 4.900000 0.150000
v -7.600000 0.300000 -0.150000
v -7.600000 4.900000 -0.150000
v -7.900000 0.300000 -7.600000
v -7.900000 4.900001 -7.600000
v -7.900000 0.300000 -7.900001
v -7.900000 4.900001 -7.900001
v -7.600000 0.300000 -7.600000
v -7.600000 4.900001 -7.600000
v -7.600000 0.300000 -7.900001
v -7.600000 4.900001 -7.900001
v 7.600000 0.300000 -7.600000
v 7.600000 4.900001 -7.600000
v 7.600000 0.300000 -7.900001
v 7.600000 4.900001 -7.900001
v 7.900000 0.300000 -7.600000
v 7.900000 4.900001 -7.600000
v 7.900000 0.300000 -7.900001
v 7.900000 4.900001 -7.900001
v -6.400000 0.300000 -7.600000
v -6.400000 4.900001 -7.600000
v -6.400000 0.300000 -7.900001
v -6.400000 4.900001 -7.900001
v -6.100000 0.300000 -7.600000
v -6.100000 4.900001 -7.600000
v -6.100000 0.300000 -7.900001
v -6.100000 4.900001 -7.900001
v 6.100000 0.300000 -7.600000
v 6.100000 4.900001 -7.600000
v 6.100000 0.300000 -7.900001
v 6.100000 4.900001 -7.900001
v 6.400000 0.300000 -7.600000
v 6.400000 4.900001 -7.600000
v 6.400000 0.300000 -7.900001
v 6.400000 4.900001 -7.900001
v -7.900000 4.900000 -7.900001
v -7.900000 5.100000 -7.900001
v -7.900000 4.900000 -7.600000
v -7.900000 5.200000 -7.600000
v 7.900000 4.900000 -7.900001
v 7.900000 5.100000 -7.900001
v 7.900000 4.900000 -7.600000
v 7.900000 5.200000 -7.600000
v -7.900000 0.000000 -7.600000
v -7.900000 0.300000 -7.600000
v -7.900000 0.000000 -7.900000
v -7.900000 0.300000 -7.900000
v -6.100000 0.000000 -7.600000
v -6.100000 0.300000 -7.600000
v -6.100000 0.000000 -7.900000
v -6.100000 0.300000 -7.900000
v 6.100000 0.000000 -7.600000
v 6.100000 0.300000 -7.600000
v 6.100000 0.000000 -7.900000
v 6.100000 0.300000 -7.900000
v 7.900000 0.000000 -7.600000
v 7.900000 0.300000 -7.600000
v 7.900000 0.000000 -7.900000
v 7.900000 0.300000 -7.900000
v -6.099999 3.750000 -7.900001
v -6.099999 4.050000 -7.900001
v -6.099999 3.750000 -7.600000
v -6.099999 4.050000 -7.600000
v 6.099999 3.750000 -7.900001
v 6.099999 4.050000 -7.900001
v 6.099999 3.750000 -7.600000
v 6.099999 4.050000 -7.600000
v 7.600000 4.900000 7.600000
v 7.600000 5.200000 7.600000
v 7.600000 4.900000 -7.600000
v 7.600000 5.200000 -7.600000
v 7.900000 4.900000 7.600000
v 7.900000 5.200000 7.600000
v 7.900000 4.900000 -7.600000
v 7.900000 5.200000 -7.600000
v -7.900000 4.900000 7.600000
v -7.900000 5.200000 7.600000
v -7.900000 4.900000 -7.600000
v -7.900000 5.200000 -7.600000
v -7.600000 4.900000 7.600000
v -7.600000 5.200000 7.600000
v -7.600000 4.900000 -7.600000
v -7.600000 5.200000 -7.600000
vn -1.0000 -0.0000 -0.0000
vn -0.0000 -0.0000 -1.0000
vn 1.0000 -0.0000 -0.0000
vn -0.0000 -0.0000 1.0000
vn -0.0000 -1.0000 -0.0000
vn -0.0000 1.0000 -0.0000
vn -0.0000 0.9487 0.3162
vn -0.0000 0.9487 -0.3162
vt 0.625000 0.000000
vt 0.375000 0.250000
vt 0.375000 0.000000
vt 0.625000 0.250000
vt 0.375000 0.500000
vt 0.625000 0.500000
vt 0.375000 0.750000
vt 0.625000 0.750000
vt 0.375000 1.000000
vt 0.125000 0.750000
vt 0.125000 0.500000
vt 0.875000 0.500000
vt 0.625000 1.000000
vt 0.875000 0.750000
s 0
f 247/15/9 248/16/9 246/17/9
f 249/18/10 252/19/10 248/16/10
f 253/20/11 250/21/11 252/19/11
f 251/22/12 246/23/12 250/21/12
f 252/19/13 246/24/13 248/25/13
f 249/26/14 251/22/14 253/20/14
f 255/15/9 256/16/9 254/17/9
f 257/18/10 260/19/10 256/16/10
f 260/19/11 259/22/11 258/21/11
f 259/22/12 254/23/12 258/21/12
f 260/19/13 254/24/13 256/25/13
f 257/26/15 259/22/15 261/20/15
f 263/15/9 264/16/9 262/17/9
f 265/18/10 268/19/10 264/16/10
f 269/20/11 266/21/11 268/19/11
f 267/22/12 262/23/12 266/21/12
f 268/19/13 262/24/13 264/25/13
f 265/26/14 267/22/14 269/20/14
f 271/15/9 272/16/9 270/17/9
f 273/18/10 276/19/10 272/16/10
f 277/20/11 274/21/11 276/19/11
f 275/22/12 270/23/12 274/21/12
f 276/19/13 270/24/13 272/25/13
f 273/26/14 275/22/14 277/20/14
f 279/15/9 280/16/9 278/17/9
f 281/18/10 284/19/10 280/16/10
f 285/20/11 282/21/11 284/19/11
f 283/22/12 278/23/12 282/21/12
f 284/19/13 278/24/13 280/25/13
f 281/26/14 283/22/14 285/20/14
f 287/15/9 288/16/9 286/17/9
f 289/18/10 292/19/10 288/16/10
f 293/20/11 290/21/11 292/19/11
f 291/22/12 286/23/12 290/21/12
f 292/19/13 286/24/13 288/25/13
f 289/26/14 291/22/14 293/20/14
f 295/15/9 296/16/9 294/17/9
f 297/18/10 300/19/10 296/16/10
f 301/20/11 298/21/11 300/19/11
f 299/22/12 294/23/12 298/21/12
f 300/19/13 294/24/13 296/25/13
f 297/26/14 299/22/14 301/20/14
f 303/15/9 304/16/9 302/17/9
f 305/18/10 308/19/10 304/16/10
f 309/20/11 306/21/11 308/19/11
f 307/22/12 302/23/12 306/21/12
f 308/19/13 302/24/13 304/25/13
f 305/26/14 307/22/14 309/20/14
f 311/15/9 312/16/9 310/17/9
f 313/18/10 316/19/10 312/16/10
f 317/20/11 314/21/11 316/19/11
f 315/22/12 310/23/12 314/21/12
f 316/19/13 310/24/13 312/25/13
f 313/26/14 315/22/14 317/20/14
f 319/15/9 320/16/9 318/17/9
f 321/18/10 324/19/10 320/16/10
f 325/20/11 322/21/11 324/19/11
f 323/22/12 318/23/12 322/21/12
f 324/19/13 318/24/13 320/25/13
f 321/26/14 323/22/14 325/20/14
f 328/16/9 327/15/9 326/17/9
f 332/19/12 329/18/12 328/16/12
f 332/19/11 331/22/11 333/20/11
f 326/23/10 331/22/10 330/21/10
f 326/24/13 332/19/13 328/25/13
f 331/22/16 329/26/16 333/20/16
f 335/15/9 336/16/9 334/17/9
f 337/18/10 340/19/10 336/16/10
f 341/20/11 338/21/11 340/19/11
f 339/22/12 334/23/12 338/21/12
f 340/19/13 334/24/13 336/25/13
f 337/26/14 339/22/14 341/20/14
f 343/15/9 344/16/9 342/17/9
f 345/18/10 348/19/10 344/16/10
f 349/20/11 346/21/11 348/19/11
f 347/22/12 342/23/12 346/21/12
f 348/19/13 342/24/13 344/25/13
f 345/26/14 347/22/14 349/20/14
f 359/15/9 360/16/9 358/17/9
f 356/19/12 353/18/12 352/16/12
f 350/23/10 355/22/10 354/21/10
f 350/24/13 356/19/13 352/25/13
f 355/22/14 353/26/14 357/20/14
f 373/20/11 370/21/11 372/19/11
f 365/20/11 362/21/11 364/19/11
f 367/15/9 368/16/9 366/17/9
f 364/19/13 358/24/13 360/25/13
f 361/26/14 363/22/14 365/20/14
f 372/19/13 366/24/13 368/25/13
f 369/26/14 371/22/14 373/20/14
f 247/15/9 249/18/9 248/16/9
f 249/18/10 253/20/10 252/19/10
f 253/20/11 251/22/11 250/21/11
f 251/22/12 247/27/12 246/23/12
f 252/19/13 250/21/13 246/24/13
f 249/26/14 247/28/14 251/22/14
f 255/15/9 257/18/9 256/16/9
f 257/18/10 261/20/10 260/19/10
f 260/19/11 261/20/11 259/22/11
f 259/22/12 255/27/12 254/23/12
f 260/19/13 258/21/13 254/24/13
f 257/26/15 255/28/15 259/22/15
f 263/15/9 265/18/9 264/16/9
f 265/18/10 269/20/10 268/19/10
f 269/20/11 267/22/11 266/21/11
f 267/22/12 263/27/12 262/23/12
f 268/19/13 266/21/13 262/24/13
f 265/26/14 263/28/14 267/22/14
f 271/15/9 273/18/9 272/16/9
f 273/18/10 277/20/10 276/19/10
f 277/20/11 275/22/11 274/21/11
f 275/22/12 271/27/12 270/23/12
f 276/19/13 274/21/13 270/24/13
f 273/26/14 271/28/14 275/22/14
f 279/15/9 281/18/9 280/16/9
f 281/18/10 285/20/10 284/19/10
f 285/20/11 283/22/11 282/21/11
f 283/22/12 279/27/12 278/23/12
f 284/19/13 282/21/13 278/24/13
f 281/26/14 279/28/14 283/22/14
f 287/15/9 289/18/9 288/16/9
f 289/18/10 293/20/10 292/19/10
f 293/20/11 291/22/11 290/21/11
f 291/22/12 287/27/12 286/23/12
f 292/19/13 290/21/13 286/24/13
f 289/26/14 287/28/14 291/22/14
f 295/15/9 297/18/9 296/16/9
f 297/18/10 301/20/10 300/19/10
f 301/20/11 299/22/11 298/21/11
f 299/22/12 295/27/12 294/23/12
f 300/19/13 298/21/13 294/24/13
f 297/26/14 295/28/14 299/22/14
f 303/15/9 305/18/9 304/16/9
f 305/18/10 309/20/10 308/19/10
f 309/20/11 307/22/11 306/21/11
f 307/22/12 303/27/12 302/23/12
f 308/19/13 306/21/13 302/24/13
f 305/26/14 303/28/14 307/22/14
f 311/15/9 313/18/9 312/16/9
f 313/18/10 317/20/10 316/19/10
f 317/20/11 315/22/11 314/21/11
f 315/22/12 311/27/12 310/23/12
f 316/19/13 314/21/13 310/24/13
f 313/26/14 311/28/14 315/22/14
f 319/15/9 321/18/9 320/16/9
f 321/18/10 325/20/10 324/19/10
f 325/20/11 323/22/11 322/21/11
f 323/22/12 319/27/12 318/23/12
f 324/19/13 322/21/13 318/24/13
f 321/26/14 319/28/14 323/22/14
f 328/16/9 329/18/9 327/15/9
f 332/19/12 333/20/12 329/18/12
f 332/19/11 330/21/11 331/22/11
f 326/23/10 327/27/10 331/22/10
f 326/24/13 330/21/13 332/19/13
f 331/22/16 327/28/16 329/26/16
f 335/15/9 337/18/9 336/16/9
f 337/18/10 341/20/10 340/19/10
f 341/20/11 339/22/11 338/21/11
f 339/22/12 335/27/12 334/23/12
f 340/19/13 338/21/13 334/24/13
f 337/26/14 335/28/14 339/22/14
f 343/15/9 345/18/9 344/16/9
f 345/18/10 349/20/10 348/19/10
f 349/20/11 347/22/11 346/21/11
f 347/22/12 343/27/12 342/23/12
f 348/19/13 346/21/13 342/24/13
f 345/26/14 343/28/14 347/22/14
f 359/15/9 361/18/9 360/16/9
f 356/19/12 357/20/12 353/18/12
f 350/23/10 351/27/10 355/22/10
f 350/24/13 354/21/13 356/19/13
f 355/22/14 351/28/14 353/26/14
f 373/20/11 371/22/11 370/21/11
f 365/20/11 363/22/11 362/21/11
f 367/15/9 369/18/9 368/16/9
f 364/19/13 362/21/13 358/24/13
f 361/26/14 359/28/14 363/22/14
f 372/19/13 370/21/13 366/24/13
f 369/26/14 367/28/14 371/22/14
