# Blender 5.0.1
# www.blender.org
mtllib StationBuilding.mtl
g StationBuilding_Mesh
v 0.000000 -1.000000 -8.000000
v 0.000000 0.000000 -8.000000
v 0.000000 -1.000000 0.000000
v 0.000000 0.000000 0.000000
v -8.000000 -1.000000 -8.000000
v -8.000000 -0.000000 -8.000000
v -7.999999 -1.000000 0.000000
v -7.999999 -0.000000 0.000000
v -8.600000 11.000000 0.000000
v -8.600000 11.100000 0.000000
v -8.600000 6.599999 -6.600000
v -8.600000 6.700000 -6.600000
v -2.500000 11.000000 0.000000
v -2.500000 11.100000 0.000000
v -2.500000 6.599999 -6.600000
v -2.500000 6.700000 -6.600000
v -8.400001 6.000000 -6.000000
v -8.400001 6.100000 -6.000000
v -8.400001 4.800000 -8.400000
v -8.400001 4.900000 -8.400000
v 0.000000 6.000000 -6.000000
v 0.000000 6.100000 -6.000000
v 0.000000 4.800000 -8.400000
v 0.000000 4.900000 -8.400000
v -7.900001 6.000000 -6.000000
v -7.900001 5.000000 -8.000000
v -7.900001 6.000000 0.000000
v -7.900001 5.000000 0.000000
v -8.000000 6.000000 -6.000000
v -8.000000 5.000000 -8.000000
v -8.000000 6.000000 0.000000
v -8.000000 5.000000 0.000000
v -7.900001 7.000000 -6.000000
v -7.900001 7.000000 0.000000
v -8.000000 7.000000 -6.000000
v -8.000000 7.000000 0.000000
v -7.900001 11.000000 0.000000
v -8.000000 11.000000 0.000000
v 0.000000 7.000000 -5.900000
v 0.000000 6.000000 -5.900000
v -8.000000 7.000000 -5.900000
v -8.000000 6.000000 -5.900000
v 0.000000 7.000000 -6.000000
v 0.000000 6.000000 -6.000000
v -8.000000 7.000000 -6.000000
v -8.000000 6.000000 -6.000000
v 0.000000 11.300000 -2.400000
v 0.000000 9.400000 -2.400000
v -2.500000 11.300000 -2.400000
v -2.500000 9.400000 -2.400000
v 0.000000 11.300000 -2.500000
v 0.000000 9.400000 -2.500000
v -2.500000 11.300000 -2.500000
v -2.500000 9.400000 -2.500000
v -2.500000 11.300000 0.000000
v -2.500000 11.099999 0.000000
v -2.500000 11.300000 -2.500000
v -2.500000 9.400000 -2.500000
v -2.400001 11.300000 0.000000
v -2.400001 11.099999 0.000000
v -2.400001 11.300000 -2.500000
v -2.400001 9.400000 -2.500000
v -2.500000 9.400000 -2.400000
v -2.500000 9.500000 -2.400000
v -2.500000 6.599999 -6.600000
v -2.500000 6.700000 -6.600000
v 0.000000 9.500000 -2.400000
v 0.000000 6.599999 -6.600000
v 0.000000 6.700000 -6.600000
v -2.900000 12.700000 -2.900000
v -2.900000 12.800000 -2.900000
v 0.000000 12.700000 -2.900000
v 0.000000 12.800000 -2.900000
v -2.900000 12.700000 0.000000
v -2.900000 12.800000 0.000000
v 0.000000 13.200000 -2.400000
v 0.000000 12.700000 -2.400000
v -2.500000 13.200000 -2.400000
v -2.500000 12.700000 -2.400000
v 0.000000 13.200000 -2.500000
v 0.000000 12.700000 -2.500000
v -2.500000 13.200000 -2.500000
v -2.500000 12.700000 -2.500000
v -2.500000 13.200000 0.000000
v -2.500000 12.700000 0.000000
v -2.500000 13.200000 -2.500000
v -2.500000 12.700000 -2.500000
v -2.400000 13.200000 0.000000
v -2.400000 12.700000 0.000000
v -2.400000 13.200000 -2.500000
v -2.400000 12.700000 -2.500000
v -2.000000 12.700000 -2.400000
v -2.000000 11.300000 -2.400000
v -2.000000 12.700000 -2.500000
v -2.000000 11.300000 -2.500000
v -2.500000 12.700000 -2.000000
v -2.500000 11.300000 -2.000000
v -2.500000 11.300000 -2.500000
v -2.400000 12.700000 -2.000000
v -2.400000 11.300000 -2.000000
v -2.400000 11.300000 -2.500000
v -0.200000 12.700000 -2.400000
v -0.200000 11.300000 -2.400000
v -0.200000 12.700000 -2.500000
v -0.200000 11.300000 -2.500000
v -2.500000 11.300000 0.000000
v -2.500000 12.700000 -0.200000
v -2.500000 11.300000 -0.200000
v -2.400000 11.300000 0.000000
v -2.400000 12.700000 -0.200000
v -2.400000 11.300000 -0.200000
v 8.000000 -1.000000 -8.000000
v 8.000000 -0.000000 -8.000000
v 7.999999 -1.000000 0.000000
v 7.999999 -0.000000 0.000000
v 8.600000 11.000000 0.000000
v 8.600000 11.100000 0.000000
v 8.600000 6.599999 -6.600000
v 8.600000 6.700000 -6.600000
v 2.500000 11.000000 0.000000
v 2.500000 11.100000 0.000000
v 2.500000 6.599999 -6.600000
v 2.500000 6.700000 -6.600000
v 8.400001 6.000000 -6.000000
v 8.400001 6.100000 -6.000000
v 8.400001 4.800000 -8.400000
v 8.400001 4.900000 -8.400000
v 7.900001 6.000000 -6.000000
v 7.900001 5.000000 -8.000000
v 7.900001 6.000000 0.000000
v 7.900001 5.000000 0.000000
v 8.000000 6.000000 -6.000000
v 8.000000 5.000000 -8.000000
v 8.000000 6.000000 0.000000
v 8.000000 5.000000 0.000000
v 7.900001 7.000000 -6.000000
v 7.900001 7.000000 0.000000
v 8.000000 7.000000 -6.000000
v 8.000000 7.000000 0.000000
v 7.900001 11.000000 0.000000
v 8.000000 11.000000 0.000000
v 8.000000 7.000000 -5.900000
v 8.000000 6.000000 -5.900000
v 8.000000 7.000000 -6.000000
v 8.000000 6.000000 -6.000000
v 2.500000 11.300000 -2.400000
v 2.500000 9.400000 -2.400000
v 2.500000 11.300000 -2.500000
v 2.500000 9.400000 -2.500000
v 2.500000 11.300000 0.000000
v 2.500000 11.099999 0.000000
v 2.500000 11.300000 -2.500000
v 2.500000 9.400000 -2.500000
v 2.400001 11.300000 0.000000
v 2.400001 11.099999 0.000000
v 2.400001 11.300000 -2.500000
v 2.400001 9.400000 -2.500000
v 2.500000 9.400000 -2.400000
v 2.500000 9.500000 -2.400000
v 2.500000 6.599999 -6.600000
v 2.500000 6.700000 -6.600000
v 2.900000 12.700000 -2.900000
v 2.900000 12.800000 -2.900000
v 2.900000 12.700000 0.000000
v 2.900000 12.800000 0.000000
v 2.500000 13.200000 -2.400000
v 2.500000 12.700000 -2.400000
v 2.500000 13.200000 -2.500000
v 2.500000 12.700000 -2.500000
v 2.500000 13.200000 0.000000
v 2.500000 12.700000 0.000000
v 2.500000 13.200000 -2.500000
v 2.500000 12.700000 -2.500000
v 2.400000 13.200000 0.000000
v 2.400000 12.700000 0.000000
v 2.400000 13.200000 -2.500000
v 2.400000 12.700000 -2.500000
v 2.000000 12.700000 -2.400000
v 2.000000 11.300000 -2.400000
v 2.000000 12.700000 -2.500000
v 2.000000 11.300000 -2.500000
v 2.500000 12.700000 -2.000000
v 2.500000 11.300000 -2.000000
v 2.500000 11.300000 -2.500000
v 2.400000 12.700000 -2.000000
v 2.400000 11.300000 -2.000000
v 2.400000 11.300000 -2.500000
v 0.200000 12.700000 -2.400000
v 0.200000 11.300000 -2.400000
v 0.200000 12.700000 -2.500000
v 0.200000 11.300000 -2.500000
v 2.500000 11.300000 0.000000
v 2.500000 12.700000 -0.200000
v 2.500000 11.300000 -0.200000
v 2.400000 11.300000 0.000000
v 2.400000 12.700000 -0.200000
v 2.400000 11.300000 -0.200000
v 0.000000 -1.000000 8.000000
v 0.000000 0.000000 8.000000
v -8.000000 -1.000000 8.000000
v -8.000000 -0.000000 8.000000
v -8.600000 6.599999 6.600000
v -8.600000 6.700000 6.600000
v -2.500000 6.599999 6.600000
v -2.500000 6.700000 6.600000
v -8.400001 6.000000 6.000000
v -8.400001 6.100000 6.000000
v -8.400001 4.800000 8.400000
v -8.400001 4.900000 8.400000
v 0.000000 6.000000 6.000000
v 0.000000 6.100000 6.000000
v 0.000000 4.800000 8.400000
v 0.000000 4.900000 8.400000
v -7.900001 6.000000 6.000000
v -7.900001 5.000000 8.000000
v -8.000000 6.000000 6.000000
v -8.000000 5.000000 8.000000
v -7.900001 7.000000 6.000000
v -8.000000 7.000000 6.000000
v 0.000000 7.000000 5.900000
v 0.000000 6.000000 5.900000
v -8.000000 7.000000 5.900000
v -8.000000 6.000000 5.900000
v 0.000000 7.000000 6.000000
v 0.000000 6.000000 6.000000
v -8.000000 7.000000 6.000000
v -8.000000 6.000000 6.000000
v 0.000000 11.300000 2.400000
v 0.000000 9.400000 2.400000
v -2.500000 11.300000 2.400000
v -2.500000 9.400000 2.400000
v 0.000000 11.300000 2.500000
v 0.000000 9.400000 2.500000
v -2.500000 11.300000 2.500000
v -2.500000 9.400000 2.500000
v -2.500000 11.300000 2.500000
v -2.500000 9.400000 2.500000
v -2.400001 11.300000 2.500000
v -2.400001 9.400000 2.500000
v -2.500000 9.400000 2.400000
v -2.500000 9.500000 2.400000
v -2.500000 6.599999 6.600000
v -2.500000 6.700000 6.600000
v 0.000000 9.500000 2.400000
v 0.000000 6.599999 6.600000
v 0.000000 6.700000 6.600000
v -2.900000 12.700000 2.900000
v -2.900000 12.800000 2.900000
v 0.000000 12.700000 2.900000
v 0.000000 12.800000 2.900000
v 0.000000 13.200000 2.400000
v 0.000000 12.700000 2.400000
v -2.500000 13.200000 2.400000
v -2.500000 12.700000 2.400000
v 0.000000 13.200000 2.500000
v 0.000000 12.700000 2.500000
v -2.500000 13.200000 2.500000
v -2.500000 12.700000 2.500000
v -2.500000 13.200000 2.500000
v -2.500000 12.700000 2.500000
v -2.400000 13.200000 2.500000
v -2.400000 12.700000 2.500000
v -2.000000 12.700000 2.400000
v -2.000000 11.300000 2.400000
v -2.000000 12.700000 2.500000
v -2.000000 11.300000 2.500000
v -2.500000 12.700000 2.000000
v -2.500000 11.300000 2.000000
v -2.500000 11.300000 2.500000
v -2.400000 12.700000 2.000000
v -2.400000 11.300000 2.000000
v -2.400000 11.300000 2.500000
v -0.200000 12.700000 2.400000
v -0.200000 11.300000 2.400000
v -0.200000 12.700000 2.500000
v -0.200000 11.300000 2.500000
v -2.500000 12.700000 0.200000
v -2.500000 11.300000 0.200000
v -2.400000 12.700000 0.200000
v -2.400000 11.300000 0.200000
v 8.000000 -1.000000 8.000000
v 8.000000 -0.000000 8.000000
v 8.600000 6.599999 6.600000
v 8.600000 6.700000 6.600000
v 2.500000 6.599999 6.600000
v 2.500000 6.700000 6.600000
v 8.400001 6.000000 6.000000
v 8.400001 6.100000 6.000000
v 8.400001 4.800000 8.400000
v 8.400001 4.900000 8.400000
v 7.900001 6.000000 6.000000
v 7.900001 5.000000 8.000000
v 8.000000 6.000000 6.000000
v 8.000000 5.000000 8.000000
v 7.900001 7.000000 6.000000
v 8.000000 7.000000 6.000000
v 8.000000 7.000000 5.900000
v 8.000000 6.000000 5.900000
v 8.000000 7.000000 6.000000
v 8.000000 6.000000 6.000000
v 2.500000 11.300000 2.400000
v 2.500000 9.400000 2.400000
v 2.500000 11.300000 2.500000
v 2.500000 9.400000 2.500000
v 2.500000 11.300000 2.500000
v 2.500000 9.400000 2.500000
v 2.400001 11.300000 2.500000
v 2.400001 9.400000 2.500000
v 2.500000 9.400000 2.400000
v 2.500000 9.500000 2.400000
v 2.500000 6.599999 6.600000
v 2.500000 6.700000 6.600000
v 2.900000 12.700000 2.900000
v 2.900000 12.800000 2.900000
v 2.500000 13.200000 2.400000
v 2.500000 12.700000 2.400000
v 2.500000 13.200000 2.500000
v 2.500000 12.700000 2.500000
v 2.500000 13.200000 2.500000
v 2.500000 12.700000 2.500000
v 2.400000 13.200000 2.500000
v 2.400000 12.700000 2.500000
v 2.000000 12.700000 2.400000
v 2.000000 11.300000 2.400000
v 2.000000 12.700000 2.500000
v 2.000000 11.300000 2.500000
v 2.500000 12.700000 2.000000
v 2.500000 11.300000 2.000000
v 2.500000 11.300000 2.500000
v 2.400000 12.700000 2.000000
v 2.400000 11.300000 2.000000
v 2.400000 11.300000 2.500000
v 0.200000 12.700000 2.400000
v 0.200000 11.300000 2.400000
v 0.200000 12.700000 2.500000
v 0.200000 11.300000 2.500000
v 2.500000 12.700000 0.200000
v 2.500000 11.300000 0.200000
v 2.400000 12.700000 0.200000
v 2.400000 11.300000 0.200000
v 0.000000 15.034483 -1.700000
v 0.000000 14.934483 -1.700000
v -1.808115 14.733166 -1.808115
v -1.500000 13.943768 -2.232051
v -1.808115 14.833166 -1.808115
v -1.500000 14.043768 -2.232051
v -1.775675 14.793571 0.000000
v -1.775675 14.893571 0.000000
v -2.032051 14.316182 -1.500000
v -2.032051 14.416183 -1.500000
v 1.600000 14.129974 -2.132051
v 1.768516 14.806901 -1.768516
v 1.600000 14.229975 -2.132051
v 1.768516 14.906901 -1.768516
v 2.176007 14.148125 0.000000
v 2.176007 14.048124 0.000000
v 2.032051 14.316181 -1.200000
v 2.032051 14.416182 -1.200000
v 0.000000 13.951833 2.227720
v 0.000000 14.051833 2.227720
v -1.906066 14.550775 1.906066
v -0.226218 13.726621 2.348667
v -1.906066 14.650775 1.906066
v -0.226218 13.826621 2.348667
v -1.953738 14.462005 1.893505
v -1.723291 14.891113 0.306490
v -1.953738 14.562005 1.893505
v -1.723291 14.991114 0.306490
v 2.136580 14.121540 2.136580
v 2.138765 14.103695 2.146164
v 0.800000 14.748276 1.800000
v 2.136580 14.221540 2.136580
v 2.138765 14.203695 2.146164
v 0.800000 14.848276 1.800000
v 2.200000 14.003448 0.200000
v 1.905748 14.551366 1.124017
v 2.200000 14.103449 0.200000
v 1.905748 14.651366 1.124017
vn 1.0000 -0.0000 -0.0000
vn -0.0000 -0.0000 1.0000
vn -1.0000 -0.0000 -0.0000
vn -0.0000 -0.0000 -1.0000
vn -0.0000 -1.0000 -0.0000
vn -0.0000 1.0000 -0.0000
vn -0.0000 -0.8321 0.5547
vn -0.0000 0.8321 -0.5547
vn -0.0000 -0.8944 0.4472
vn -0.0000 0.8944 -0.4472
vn -0.0000 -0.8269 0.5623
vn -0.0000 -0.4731 0.8810
vn -0.0000 0.4731 -0.8810
vn 0.8810 -0.4731 -0.0000
vn -0.8810 0.4731 -0.0000
vn -0.8810 -0.4731 -0.0000
vn 0.8810 0.4731 -0.0000
vn -0.0000 -0.8321 -0.5547
vn -0.0000 0.8321 0.5547
vn -0.0000 -0.8944 -0.4472
vn -0.0000 0.8944 0.4472
vn -0.0000 -0.8269 -0.5623
vn -0.0000 -0.4731 -0.8810
vn -0.0000 0.4731 0.8810
vn 0.2607 -0.0000 0.9654
vn -0.9073 -0.0000 0.4206
vn -0.9929 -0.0000 0.1191
vn -0.9529 -0.0000 -0.3034
vn -0.9750 -0.0000 0.2223
vn 0.2503 -0.0000 -0.9682
vn -0.4715 -0.0000 -0.8819
vn 0.2548 -0.0000 -0.9670
vn 0.9896 -0.0000 0.1437
vn 0.9857 -0.0000 -0.1685
vn 0.8089 -0.0000 0.5879
vn -0.3343 -0.0000 0.9425
vn -0.0000 -0.4732 -0.8810
vn -0.0000 0.4732 0.8810
vn -0.9750 -0.0000 0.2222
vt 0.625000 0.000000
vt 0.375000 0.250000
vt 0.375000 0.000000
vt 0.625000 0.250000
vt 0.375000 0.500000
vt 0.625000 0.500000
vt 0.375000 0.750000
vt 0.625000 0.750000
vt 0.375000 1.000000
vt 0.125000 0.750000
vt 0.125000 0.500000
vt 0.875000 0.750000
vt 0.875000 0.500000
vt 0.625000 1.000000
vt 0.375000 0.603448
vt 0.625000 0.603448
vt 0.271552 0.603448
vt 0.188108 0.557582
vt 0.754310 0.557582
vt 0.375000 0.596925
vt 0.625000 0.596925
vt 0.245690 0.574823
vt 0.721925 0.596925
vt 0.829134 0.574823
vt 0.170866 0.566203
vt 0.762931 0.566203
vt 0.375000 0.562413
vt 0.625000 0.562413
vt 0.271552 0.574823
vt 0.222542 0.597542
vt 0.875000 0.597542
vt 0.803272 0.574823
vt 0.375000 0.557955
vt 0.625000 0.557955
vt 0.307970 0.547529
vt 0.125000 0.585684
vt 0.644502 0.547529
vt 0.211767 0.581574
vt 0.869808 0.581574
vt 0.317045 0.557955
vt 0.125638 0.564986
vt 0.625000 0.557955
vt 0.809376 0.564986
vt 0.357759 0.560345
vt 0.190812 0.565812
vt 0.687413 0.562413
vt 0.702586 0.560345
vt 1.000000 0.596724
vt 0.916667 0.561499
vt 1.000000 0.601724
vt 0.884164 0.590345
vt 0.833333 0.570809
vt 0.884164 0.595345
vt 0.833333 0.565809
vt 0.761905 0.557406
vt 0.761905 0.552406
vt 0.750000 0.555172
vt 0.666667 0.577568
vt 0.750000 0.550172
vt 0.584115 0.556077
vt 0.583333 0.560185
vt 0.666667 0.582568
vt 0.500000 0.587414
vt 0.583333 0.560185
vt 0.583333 0.555185
vt 0.435037 0.552592
vt 0.500000 0.592414
vt 0.435037 0.547592
vt 0.416667 0.541331
vt 0.335633 0.577539
vt 0.333333 0.578100
vt 0.335633 0.582539
vt 0.250000 0.594556
vt 0.250000 0.599556
vt 0.250000 0.594556
vt 0.235862 0.594679
vt 0.235862 0.589679
vt 0.166667 0.570809
vt 0.131592 0.586658
vt 0.083333 0.552188
vt 0.131592 0.591658
vt 0.000000 0.596724
vt 0.000000 0.601724
vt 0.125000 0.594128
vt 0.780872 0.594128
vt 0.219128 0.594128
vt 0.875000 0.594128
vt 0.125000 0.597542
vt 0.777458 0.597542
vt 0.789316 0.585684
vt 0.210684 0.585684
vt 0.348578 0.601440
vt 0.752862 0.601440
vt 0.875000 0.585684
vt 0.125000 0.565812
vt 0.211207 0.594828
vt 0.693965 0.594828
vt 0.809188 0.565812
vt 0.278102 0.585711
vt 0.807609 0.585711
vt 0.875000 0.565812
vt 0.916667 0.556499
vt 0.916667 0.556499
vt 0.833333 0.565809
vt 0.750000 0.550172
vt 0.583333 0.555185
vt 0.584115 0.561077
vt 0.416667 0.536331
vt 0.416667 0.536331
vt 0.333333 0.573100
vt 0.333333 0.573100
vt 0.166667 0.565809
vt 0.083333 0.547188
s 0
f 2/1/1 3/2/1 1/3/1
f 4/4/2 7/5/2 3/2/2
f 8/6/3 5/7/3 7/5/3
f 6/8/4 1/9/4 5/7/4
f 7/5/5 1/10/5 3/11/5
f 8/6/6 2/12/6 6/8/6
f 9/3/3 12/4/3 11/2/3
f 12/4/4 15/5/4 11/2/4
f 16/6/1 13/7/1 15/5/1
f 14/8/2 9/9/2 13/7/2
f 15/5/7 9/10/7 11/11/7
f 12/13/8 14/8/8 16/6/8
f 17/3/3 20/4/3 19/2/3
f 20/4/4 23/5/4 19/2/4
f 24/6/1 21/7/1 23/5/1
f 22/8/2 17/9/2 21/7/2
f 23/5/9 17/10/9 19/11/9
f 20/13/10 22/8/10 24/6/10
f 29/1/6 27/2/6 25/3/6
f 26/4/5 32/5/5 30/2/5
f 27/6/2 32/7/2 28/5/2
f 25/8/1 28/9/1 26/7/1
f 29/5/10 26/10/10 30/11/10
f 32/6/3 29/12/3 30/8/3
f 35/1/6 34/2/6 33/3/6
f 25/4/5 31/5/5 29/2/5
f 34/6/2 31/7/2 27/5/2
f 33/8/1 27/9/1 25/7/1
f 35/5/4 25/10/4 29/11/4
f 36/13/3 29/8/3 31/6/3
f 33/4/5 36/5/5 35/2/5
f 37/6/2 36/7/2 34/5/2
f 33/7/1 37/14/1 34/9/1
f 38/5/8 33/10/8 35/11/8
f 36/6/3 38/12/3 35/8/3
f 43/1/6 41/2/6 39/3/6
f 40/4/5 46/5/5 44/2/5
f 41/6/3 46/7/3 42/5/3
f 39/8/2 42/9/2 40/7/2
f 43/5/1 40/10/1 44/11/1
f 45/13/4 44/8/4 46/6/4
f 51/1/6 49/2/6 47/3/6
f 48/4/5 54/5/5 52/2/5
f 49/6/3 54/7/3 50/5/3
f 47/8/2 50/9/2 48/7/2
f 51/5/1 48/10/1 52/11/1
f 53/13/4 52/8/4 54/6/4
f 59/1/6 57/2/6 55/3/6
f 56/4/11 62/5/11 60/2/11
f 57/6/4 62/7/4 58/5/4
f 56/7/3 57/14/3 58/9/3
f 59/5/2 56/10/2 60/11/2
f 61/13/1 60/8/1 62/6/1
f 63/3/3 66/4/3 65/2/3
f 66/4/4 68/5/4 65/2/4
f 69/6/1 48/7/1 68/5/1
f 67/8/2 63/9/2 48/7/2
f 68/5/7 63/10/7 65/11/7
f 66/13/8 67/8/8 69/6/8
f 71/4/4 72/5/4 70/2/4
f 342/15/1 73/6/1 341/16/1
f 70/11/12 342/17/12 344/18/12
f 73/6/13 71/13/13 346/19/13
f 74/5/3 71/4/3 70/2/3
f 75/6/2 347/20/2 348/21/2
f 74/5/14 70/11/14 349/22/14
f 71/13/15 348/23/15 350/24/15
f 80/1/6 78/2/6 76/3/6
f 77/4/5 83/5/5 81/2/5
f 78/6/3 83/7/3 79/5/3
f 76/8/2 79/9/2 77/7/2
f 80/5/1 77/10/1 81/11/1
f 82/13/4 81/8/4 83/6/4
f 88/1/6 86/2/6 84/3/6
f 85/4/5 91/5/5 89/2/5
f 86/6/4 91/7/4 87/5/4
f 84/8/3 87/9/3 85/7/3
f 88/5/2 85/10/2 89/11/2
f 90/13/1 89/8/1 91/6/1
f 94/1/6 79/2/6 92/3/6
f 93/4/5 53/5/5 95/2/5
f 79/6/3 53/7/3 49/5/3
f 92/8/2 49/9/2 93/7/2
f 94/5/1 93/10/1 95/11/1
f 83/13/4 95/8/4 53/6/4
f 99/1/6 87/2/6 96/3/6
f 97/4/5 101/5/5 100/2/5
f 87/6/4 101/7/4 98/5/4
f 96/8/3 98/9/3 97/7/3
f 99/5/2 97/10/2 100/11/2
f 91/13/1 100/8/1 101/6/1
f 81/1/6 102/2/6 77/3/6
f 47/4/5 105/5/5 51/2/5
f 102/6/3 105/7/3 103/5/3
f 77/8/2 103/9/2 47/7/2
f 81/5/1 47/10/1 51/11/1
f 104/13/4 51/8/4 105/6/4
f 89/1/6 107/2/6 85/3/6
f 106/4/5 111/5/5 109/2/5
f 107/6/4 111/7/4 108/5/4
f 85/8/3 108/9/3 106/7/3
f 89/5/2 106/10/2 109/11/2
f 110/13/1 109/8/1 111/6/1
f 114/5/2 4/4/2 3/2/2
f 112/7/1 115/6/1 114/5/1
f 1/9/4 113/8/4 112/7/4
f 1/10/5 114/5/5 3/11/5
f 115/6/6 2/12/6 4/13/6
f 116/3/1 119/4/1 117/1/1
f 122/5/4 119/4/4 118/2/4
f 120/7/3 123/6/3 122/5/3
f 116/9/2 121/8/2 120/7/2
f 116/10/7 122/5/7 118/11/7
f 121/8/8 119/13/8 123/6/8
f 124/3/1 127/4/1 125/1/1
f 23/5/4 127/4/4 126/2/4
f 124/9/2 22/8/2 21/7/2
f 124/10/9 23/5/9 126/11/9
f 22/8/10 127/13/10 24/6/10
f 130/2/6 132/1/6 128/3/6
f 135/5/5 129/4/5 133/2/5
f 135/7/2 130/6/2 131/5/2
f 131/9/3 128/8/3 129/7/3
f 129/10/10 132/5/10 133/11/10
f 135/6/1 132/12/1 134/13/1
f 137/2/6 138/1/6 136/3/6
f 134/5/5 128/4/5 132/2/5
f 134/7/2 137/6/2 130/5/2
f 130/9/3 136/8/3 128/7/3
f 128/10/4 138/5/4 132/11/4
f 132/8/1 139/13/1 134/6/1
f 139/5/5 136/4/5 138/2/5
f 139/7/2 140/6/2 137/5/2
f 136/7/3 137/9/3 140/14/3
f 136/10/8 141/5/8 138/11/8
f 139/6/1 138/8/1 141/12/1
f 142/2/6 43/1/6 39/3/6
f 145/5/5 40/4/5 44/2/5
f 145/7/1 142/6/1 143/5/1
f 143/9/2 39/8/2 40/7/2
f 44/8/4 144/13/4 145/6/4
f 146/2/6 51/1/6 47/3/6
f 149/5/5 48/4/5 52/2/5
f 149/7/1 146/6/1 147/5/1
f 147/9/2 47/8/2 48/7/2
f 52/8/4 148/13/4 149/6/4
f 152/2/6 154/1/6 150/3/6
f 157/5/11 151/4/11 155/2/11
f 157/7/4 152/6/4 153/5/4
f 151/7/1 152/14/1 150/8/1
f 151/10/2 154/5/2 155/11/2
f 155/8/3 156/13/3 157/6/3
f 158/3/1 161/4/1 159/1/1
f 68/5/4 161/4/4 160/2/4
f 158/9/2 67/8/2 48/7/2
f 158/10/7 68/5/7 160/11/7
f 67/8/8 161/13/8 69/6/8
f 72/5/4 163/4/4 162/2/4
f 72/5/12 162/11/12 351/25/12
f 163/13/13 341/16/13 353/26/13
f 163/4/1 164/5/1 162/2/1
f 356/27/2 165/6/2 355/28/2
f 164/5/16 357/29/16 352/30/16
f 165/6/17 354/31/17 358/32/17
f 166/2/6 80/1/6 76/3/6
f 169/5/5 77/4/5 81/2/5
f 169/7/1 166/6/1 167/5/1
f 167/9/2 76/8/2 77/7/2
f 81/8/4 168/13/4 169/6/4
f 172/2/6 174/1/6 170/3/6
f 177/5/5 171/4/5 175/2/5
f 177/7/4 172/6/4 173/5/4
f 173/9/1 170/8/1 171/7/1
f 171/10/2 174/5/2 175/11/2
f 175/8/3 176/13/3 177/6/3
f 167/2/6 180/1/6 178/3/6
f 148/5/5 179/4/5 181/2/5
f 148/7/1 167/6/1 146/5/1
f 146/9/2 178/8/2 179/7/2
f 179/10/3 180/5/3 181/11/3
f 181/8/4 169/13/4 148/6/4
f 173/2/6 185/1/6 182/3/6
f 187/5/5 183/4/5 186/2/5
f 187/7/4 173/6/4 184/5/4
f 184/9/1 182/8/1 183/7/1
f 183/10/2 185/5/2 186/11/2
f 186/8/3 177/13/3 187/6/3
f 188/2/6 81/1/6 77/3/6
f 191/5/5 47/4/5 51/2/5
f 191/7/1 188/6/1 189/5/1
f 189/9/2 77/8/2 47/7/2
f 51/8/4 190/13/4 191/6/4
f 193/2/6 175/1/6 171/3/6
f 197/5/5 192/4/5 195/2/5
f 197/7/4 193/6/4 194/5/4
f 194/9/1 171/8/1 192/7/1
f 192/10/2 175/5/2 195/11/2
f 195/8/3 196/13/3 197/6/3
f 3/2/1 199/1/1 198/3/1
f 200/7/3 8/6/3 7/5/3
f 198/9/2 201/8/2 200/7/2
f 198/10/5 7/5/5 3/11/5
f 8/6/6 199/12/6 4/13/6
f 9/3/3 203/4/3 10/1/3
f 204/5/2 203/4/2 202/2/2
f 13/7/1 205/6/1 204/5/1
f 9/10/18 204/5/18 202/11/18
f 14/8/19 203/13/19 205/6/19
f 206/3/3 209/4/3 207/1/3
f 212/5/2 209/4/2 208/2/2
f 210/7/1 213/6/1 212/5/1
f 206/9/4 211/8/4 210/7/4
f 206/10/20 212/5/20 208/11/20
f 211/8/21 209/13/21 213/6/21
f 27/2/6 216/1/6 214/3/6
f 32/5/5 215/4/5 217/2/5
f 28/9/1 214/8/1 215/7/1
f 215/10/21 216/5/21 217/11/21
f 32/6/3 216/12/3 31/13/3
f 34/2/6 219/1/6 218/3/6
f 31/5/5 214/4/5 216/2/5
f 27/9/1 218/8/1 214/7/1
f 214/10/2 219/5/2 216/11/2
f 216/8/3 36/13/3 31/6/3
f 36/5/5 218/4/5 219/2/5
f 218/7/1 34/9/1 37/14/1
f 218/10/19 38/5/19 219/11/19
f 36/6/3 219/8/3 38/12/3
f 222/2/6 224/1/6 220/3/6
f 227/5/5 221/4/5 225/2/5
f 227/7/3 222/6/3 223/5/3
f 223/9/4 220/8/4 221/7/4
f 221/10/1 224/5/1 225/11/1
f 225/8/2 226/13/2 227/6/2
f 230/2/6 232/1/6 228/3/6
f 235/5/5 229/4/5 233/2/5
f 235/7/3 230/6/3 231/5/3
f 231/9/4 228/8/4 229/7/4
f 229/10/1 232/5/1 233/11/1
f 233/8/2 234/13/2 235/6/2
f 236/2/6 59/1/6 55/3/6
f 239/5/22 56/4/22 60/2/22
f 239/7/2 236/6/2 237/5/2
f 56/7/3 236/14/3 55/8/3
f 60/8/1 238/13/1 239/6/1
f 240/3/3 243/4/3 241/1/3
f 245/5/2 243/4/2 242/2/2
f 229/7/1 246/6/1 245/5/1
f 240/9/4 244/8/4 229/7/4
f 240/10/18 245/5/18 242/11/18
f 244/8/19 243/13/19 246/6/19
f 249/5/2 248/4/2 247/2/2
f 250/6/1 359/33/1 360/34/1
f 362/35/23 249/5/23 361/36/23
f 248/13/24 250/6/24 364/37/24
f 248/4/3 74/5/3 247/2/3
f 247/11/14 347/20/14 365/38/14
f 348/23/15 248/13/15 367/39/15
f 253/2/6 255/1/6 251/3/6
f 258/5/5 252/4/5 256/2/5
f 258/7/3 253/6/3 254/5/3
f 254/9/4 251/8/4 252/7/4
f 252/10/1 255/5/1 256/11/1
f 256/8/2 257/13/2 258/6/2
f 259/2/6 88/1/6 84/3/6
f 262/5/5 85/4/5 89/2/5
f 262/7/2 259/6/2 260/5/2
f 260/9/3 84/8/3 85/7/3
f 89/8/1 261/13/1 262/6/1
f 254/2/6 265/1/6 263/3/6
f 234/5/5 264/4/5 266/2/5
f 234/7/3 254/6/3 230/5/3
f 230/9/4 263/8/4 264/7/4
f 264/10/1 265/5/1 266/11/1
f 266/8/2 258/13/2 234/6/2
f 260/2/6 270/1/6 267/3/6
f 272/5/5 268/4/5 271/2/5
f 272/7/2 260/6/2 269/5/2
f 269/9/3 267/8/3 268/7/3
f 268/10/4 270/5/4 271/11/4
f 271/8/1 262/13/1 272/6/1
f 273/2/6 256/1/6 252/3/6
f 276/5/5 228/4/5 232/2/5
f 276/7/3 273/6/3 274/5/3
f 274/9/4 252/8/4 228/7/4
f 228/10/1 256/5/1 232/11/1
f 232/8/2 275/13/2 276/6/2
f 277/2/6 89/1/6 85/3/6
f 280/5/5 106/4/5 109/2/5
f 280/7/2 277/6/2 278/5/2
f 278/9/3 85/8/3 106/7/3
f 109/8/1 279/13/1 280/6/1
f 115/6/1 281/7/1 114/5/1
f 282/8/2 198/9/2 281/7/2
f 114/5/5 198/10/5 3/11/5
f 115/6/6 199/12/6 282/8/6
f 116/3/1 284/4/1 283/2/1
f 284/4/2 285/5/2 283/2/2
f 286/6/3 120/7/3 285/5/3
f 285/5/18 116/10/18 283/11/18
f 284/13/19 121/8/19 286/6/19
f 287/3/1 290/4/1 289/2/1
f 290/4/2 212/5/2 289/2/2
f 211/8/4 287/9/4 210/7/4
f 212/5/20 287/10/20 289/11/20
f 290/13/21 211/8/21 213/6/21
f 293/1/6 130/2/6 291/3/6
f 292/4/5 135/5/5 294/2/5
f 291/8/3 131/9/3 292/7/3
f 293/5/21 292/10/21 294/11/21
f 135/6/1 293/12/1 294/8/1
f 296/1/6 137/2/6 295/3/6
f 291/4/5 134/5/5 293/2/5
f 295/8/3 130/9/3 291/7/3
f 296/5/2 291/10/2 293/11/2
f 139/13/1 293/8/1 134/6/1
f 295/4/5 139/5/5 296/2/5
f 295/7/3 140/14/3 137/9/3
f 141/5/19 295/10/19 296/11/19
f 139/6/1 141/12/1 296/8/1
f 224/1/6 297/2/6 220/3/6
f 221/4/5 300/5/5 225/2/5
f 297/6/1 300/7/1 298/5/1
f 220/8/4 298/9/4 221/7/4
f 299/13/2 225/8/2 300/6/2
f 232/1/6 301/2/6 228/3/6
f 229/4/5 304/5/5 233/2/5
f 301/6/1 304/7/1 302/5/1
f 228/8/4 302/9/4 229/7/4
f 303/13/2 233/8/2 304/6/2
f 154/1/6 305/2/6 150/3/6
f 151/4/22 308/5/22 155/2/22
f 305/6/2 308/7/2 306/5/2
f 151/7/1 305/14/1 306/9/1
f 307/13/3 155/8/3 308/6/3
f 309/3/1 312/4/1 311/2/1
f 312/4/2 245/5/2 311/2/2
f 244/8/4 309/9/4 229/7/4
f 245/5/18 309/10/18 311/11/18
f 312/13/19 244/8/19 246/6/19
f 314/4/2 249/5/2 313/2/2
f 313/11/23 359/40/23 370/41/23
f 360/42/24 314/13/24 373/43/24
f 164/5/1 314/4/1 313/2/1
f 375/44/16 164/5/16 369/45/16
f 314/13/17 355/46/17 377/47/17
f 255/1/6 315/2/6 251/3/6
f 252/4/5 318/5/5 256/2/5
f 315/6/1 318/7/1 316/5/1
f 251/8/4 316/9/4 252/7/4
f 317/13/2 256/8/2 318/6/2
f 174/1/6 319/2/6 170/3/6
f 171/4/5 322/5/5 175/2/5
f 319/6/2 322/7/2 320/5/2
f 170/8/1 320/9/1 171/7/1
f 321/13/3 175/8/3 322/6/3
f 325/1/6 316/2/6 323/3/6
f 324/4/5 303/5/5 326/2/5
f 316/6/1 303/7/1 301/5/1
f 323/8/4 301/9/4 324/7/4
f 325/5/3 324/10/3 326/11/3
f 318/13/2 326/8/2 303/6/2
f 330/1/6 320/2/6 327/3/6
f 328/4/5 332/5/5 331/2/5
f 320/6/2 332/7/2 329/5/2
f 327/8/1 329/9/1 328/7/1
f 330/5/4 328/10/4 331/11/4
f 322/13/3 331/8/3 332/6/3
f 256/1/6 333/2/6 252/3/6
f 228/4/5 336/5/5 232/2/5
f 333/6/1 336/7/1 334/5/1
f 252/8/4 334/9/4 228/7/4
f 335/13/2 232/8/2 336/6/2
f 175/1/6 337/2/6 171/3/6
f 192/4/5 340/5/5 195/2/5
f 337/6/2 340/7/2 338/5/2
f 171/8/1 338/9/1 192/7/1
f 339/13/3 195/8/3 340/6/3
f 342/48/25 353/49/25 341/50/25
f 352/51/26 358/52/26 354/53/26
f 357/54/27 355/55/27 358/52/27
f 356/56/27 377/57/27 355/55/27
f 376/58/28 377/57/28 375/59/28
f 369/60/29 373/61/29 378/62/29
f 371/63/30 373/64/30 370/65/30
f 371/63/31 360/66/31 374/67/31
f 359/68/31 364/69/31 360/66/31
f 361/70/32 367/71/32 363/72/32
f 367/71/33 366/73/33 368/74/33
f 366/75/34 348/76/34 368/74/34
f 347/77/34 350/78/34 348/76/34
f 343/79/35 346/80/35 345/81/35
f 346/80/36 342/82/36 341/83/36
f 2/1/1 4/4/1 3/2/1
f 4/4/2 8/6/2 7/5/2
f 8/6/3 6/8/3 5/7/3
f 6/8/4 2/14/4 1/9/4
f 7/5/5 5/7/5 1/10/5
f 8/6/6 4/13/6 2/12/6
f 9/3/3 10/1/3 12/4/3
f 12/4/4 16/6/4 15/5/4
f 16/6/1 14/8/1 13/7/1
f 14/8/2 10/14/2 9/9/2
f 15/5/7 13/7/7 9/10/7
f 12/13/8 10/12/8 14/8/8
f 17/3/3 18/1/3 20/4/3
f 20/4/4 24/6/4 23/5/4
f 24/6/1 22/8/1 21/7/1
f 22/8/2 18/14/2 17/9/2
f 23/5/9 21/7/9 17/10/9
f 20/13/10 18/12/10 22/8/10
f 29/1/6 31/4/6 27/2/6
f 26/4/5 28/6/5 32/5/5
f 27/6/2 31/8/2 32/7/2
f 25/8/1 27/14/1 28/9/1
f 29/5/10 25/7/10 26/10/10
f 32/6/3 31/13/3 29/12/3
f 35/1/6 36/4/6 34/2/6
f 25/4/5 27/6/5 31/5/5
f 34/6/2 36/8/2 31/7/2
f 33/8/1 34/14/1 27/9/1
f 35/5/4 33/7/4 25/10/4
f 36/13/3 35/12/3 29/8/3
f 33/4/5 34/6/5 36/5/5
f 37/6/2 38/8/2 36/7/2
f 38/5/8 37/7/8 33/10/8
f 43/1/6 45/4/6 41/2/6
f 40/4/5 42/6/5 46/5/5
f 41/6/3 45/8/3 46/7/3
f 39/8/2 41/14/2 42/9/2
f 43/5/1 39/7/1 40/10/1
f 45/13/4 43/12/4 44/8/4
f 51/1/6 53/4/6 49/2/6
f 48/4/5 50/6/5 54/5/5
f 49/6/3 53/8/3 54/7/3
f 47/8/2 49/14/2 50/9/2
f 51/5/1 47/7/1 48/10/1
f 53/13/4 51/12/4 52/8/4
f 59/1/6 61/4/6 57/2/6
f 56/4/11 58/6/11 62/5/11
f 57/6/4 61/8/4 62/7/4
f 56/7/3 55/8/3 57/14/3
f 59/5/2 55/7/2 56/10/2
f 61/13/1 59/12/1 60/8/1
f 63/3/3 64/1/3 66/4/3
f 66/4/4 69/6/4 68/5/4
f 69/6/1 67/8/1 48/7/1
f 67/8/2 64/14/2 63/9/2
f 68/5/7 48/7/7 63/10/7
f 66/13/8 64/12/8 67/8/8
f 71/4/4 73/6/4 72/5/4
f 342/15/1 72/5/1 73/6/1
f 344/18/12 343/84/12 70/11/12
f 70/11/12 72/5/12 342/17/12
f 346/19/13 341/16/13 73/6/13
f 71/13/13 345/85/13 346/19/13
f 74/5/3 75/6/3 71/4/3
f 75/6/2 74/5/2 347/20/2
f 349/22/14 347/20/14 74/5/14
f 70/11/14 343/86/14 349/22/14
f 71/13/15 75/6/15 348/23/15
f 350/24/15 345/87/15 71/13/15
f 80/1/6 82/4/6 78/2/6
f 77/4/5 79/6/5 83/5/5
f 78/6/3 82/8/3 83/7/3
f 76/8/2 78/14/2 79/9/2
f 80/5/1 76/7/1 77/10/1
f 82/13/4 80/12/4 81/8/4
f 88/1/6 90/4/6 86/2/6
f 85/4/5 87/6/5 91/5/5
f 86/6/4 90/8/4 91/7/4
f 84/8/3 86/14/3 87/9/3
f 88/5/2 84/7/2 85/10/2
f 90/13/1 88/12/1 89/8/1
f 94/1/6 83/4/6 79/2/6
f 93/4/5 49/6/5 53/5/5
f 79/6/3 83/8/3 53/7/3
f 92/8/2 79/14/2 49/9/2
f 94/5/1 92/7/1 93/10/1
f 83/13/4 94/12/4 95/8/4
f 99/1/6 91/4/6 87/2/6
f 97/4/5 98/6/5 101/5/5
f 87/6/4 91/8/4 101/7/4
f 96/8/3 87/14/3 98/9/3
f 99/5/2 96/7/2 97/10/2
f 91/13/1 99/12/1 100/8/1
f 81/1/6 104/4/6 102/2/6
f 47/4/5 103/6/5 105/5/5
f 102/6/3 104/8/3 105/7/3
f 77/8/2 102/14/2 103/9/2
f 81/5/1 77/7/1 47/10/1
f 104/13/4 81/12/4 51/8/4
f 89/1/6 110/4/6 107/2/6
f 106/4/5 108/6/5 111/5/5
f 107/6/4 110/8/4 111/7/4
f 85/8/3 107/14/3 108/9/3
f 89/5/2 85/7/2 106/10/2
f 110/13/1 89/12/1 109/8/1
f 114/5/2 115/6/2 4/4/2
f 112/7/1 113/8/1 115/6/1
f 1/9/4 2/14/4 113/8/4
f 1/10/5 112/7/5 114/5/5
f 115/6/6 113/8/6 2/12/6
f 116/3/1 118/2/1 119/4/1
f 122/5/4 123/6/4 119/4/4
f 120/7/3 121/8/3 123/6/3
f 116/9/2 117/14/2 121/8/2
f 116/10/7 120/7/7 122/5/7
f 121/8/8 117/12/8 119/13/8
f 124/3/1 126/2/1 127/4/1
f 23/5/4 24/6/4 127/4/4
f 124/9/2 125/14/2 22/8/2
f 124/10/9 21/7/9 23/5/9
f 22/8/10 125/12/10 127/13/10
f 130/2/6 134/4/6 132/1/6
f 135/5/5 131/6/5 129/4/5
f 135/7/2 134/8/2 130/6/2
f 131/9/3 130/14/3 128/8/3
f 129/10/10 128/7/10 132/5/10
f 135/6/1 133/8/1 132/12/1
f 137/2/6 139/4/6 138/1/6
f 134/5/5 130/6/5 128/4/5
f 134/7/2 139/8/2 137/6/2
f 130/9/3 137/14/3 136/8/3
f 128/10/4 136/7/4 138/5/4
f 132/8/1 138/12/1 139/13/1
f 139/5/5 137/6/5 136/4/5
f 139/7/2 141/8/2 140/6/2
f 136/10/8 140/7/8 141/5/8
f 142/2/6 144/4/6 43/1/6
f 145/5/5 143/6/5 40/4/5
f 145/7/1 144/8/1 142/6/1
f 143/9/2 142/14/2 39/8/2
f 44/8/4 43/12/4 144/13/4
f 146/2/6 148/4/6 51/1/6
f 149/5/5 147/6/5 48/4/5
f 149/7/1 148/8/1 146/6/1
f 147/9/2 146/14/2 47/8/2
f 52/8/4 51/12/4 148/13/4
f 152/2/6 156/4/6 154/1/6
f 157/5/11 153/6/11 151/4/11
f 157/7/4 156/8/4 152/6/4
f 151/7/1 153/9/1 152/14/1
f 151/10/2 150/7/2 154/5/2
f 155/8/3 154/12/3 156/13/3
f 158/3/1 160/2/1 161/4/1
f 68/5/4 69/6/4 161/4/4
f 158/9/2 159/14/2 67/8/2
f 158/10/7 48/7/7 68/5/7
f 67/8/8 159/12/8 161/13/8
f 72/5/4 73/6/4 163/4/4
f 351/25/12 342/17/12 72/5/12
f 162/11/12 352/88/12 351/25/12
f 163/13/13 73/6/13 341/16/13
f 353/26/13 354/89/13 163/13/13
f 163/4/1 165/6/1 164/5/1
f 356/27/2 164/5/2 165/6/2
f 352/30/16 162/11/16 164/5/16
f 164/5/16 356/27/16 357/29/16
f 358/32/17 355/46/17 165/6/17
f 165/6/17 163/13/17 354/31/17
f 166/2/6 168/4/6 80/1/6
f 169/5/5 167/6/5 77/4/5
f 169/7/1 168/8/1 166/6/1
f 167/9/2 166/14/2 76/8/2
f 81/8/4 80/12/4 168/13/4
f 172/2/6 176/4/6 174/1/6
f 177/5/5 173/6/5 171/4/5
f 177/7/4 176/8/4 172/6/4
f 173/9/1 172/14/1 170/8/1
f 171/10/2 170/7/2 174/5/2
f 175/8/3 174/12/3 176/13/3
f 167/2/6 169/4/6 180/1/6
f 148/5/5 146/6/5 179/4/5
f 148/7/1 169/8/1 167/6/1
f 146/9/2 167/14/2 178/8/2
f 179/10/3 178/7/3 180/5/3
f 181/8/4 180/12/4 169/13/4
f 173/2/6 177/4/6 185/1/6
f 187/5/5 184/6/5 183/4/5
f 187/7/4 177/8/4 173/6/4
f 184/9/1 173/14/1 182/8/1
f 183/10/2 182/7/2 185/5/2
f 186/8/3 185/12/3 177/13/3
f 188/2/6 190/4/6 81/1/6
f 191/5/5 189/6/5 47/4/5
f 191/7/1 190/8/1 188/6/1
f 189/9/2 188/14/2 77/8/2
f 51/8/4 81/12/4 190/13/4
f 193/2/6 196/4/6 175/1/6
f 197/5/5 194/6/5 192/4/5
f 197/7/4 196/8/4 193/6/4
f 194/9/1 193/14/1 171/8/1
f 192/10/2 171/7/2 175/5/2
f 195/8/3 175/12/3 196/13/3
f 3/2/1 4/4/1 199/1/1
f 200/7/3 201/8/3 8/6/3
f 198/9/2 199/14/2 201/8/2
f 198/10/5 200/7/5 7/5/5
f 8/6/6 201/8/6 199/12/6
f 9/3/3 202/2/3 203/4/3
f 204/5/2 205/6/2 203/4/2
f 13/7/1 14/8/1 205/6/1
f 9/10/18 13/7/18 204/5/18
f 14/8/19 10/12/19 203/13/19
f 206/3/3 208/2/3 209/4/3
f 212/5/2 213/6/2 209/4/2
f 210/7/1 211/8/1 213/6/1
f 206/9/4 207/14/4 211/8/4
f 206/10/20 210/7/20 212/5/20
f 211/8/21 207/12/21 209/13/21
f 27/2/6 31/4/6 216/1/6
f 32/5/5 28/6/5 215/4/5
f 28/9/1 27/14/1 214/8/1
f 215/10/21 214/7/21 216/5/21
f 32/6/3 217/8/3 216/12/3
f 34/2/6 36/4/6 219/1/6
f 31/5/5 27/6/5 214/4/5
f 27/9/1 34/14/1 218/8/1
f 214/10/2 218/7/2 219/5/2
f 216/8/3 219/12/3 36/13/3
f 36/5/5 34/6/5 218/4/5
f 218/10/19 37/7/19 38/5/19
f 222/2/6 226/4/6 224/1/6
f 227/5/5 223/6/5 221/4/5
f 227/7/3 226/8/3 222/6/3
f 223/9/4 222/14/4 220/8/4
f 221/10/1 220/7/1 224/5/1
f 225/8/2 224/12/2 226/13/2
f 230/2/6 234/4/6 232/1/6
f 235/5/5 231/6/5 229/4/5
f 235/7/3 234/8/3 230/6/3
f 231/9/4 230/14/4 228/8/4
f 229/10/1 228/7/1 232/5/1
f 233/8/2 232/12/2 234/13/2
f 236/2/6 238/4/6 59/1/6
f 239/5/22 237/6/22 56/4/22
f 239/7/2 238/8/2 236/6/2
f 56/7/3 237/9/3 236/14/3
f 60/8/1 59/12/1 238/13/1
f 240/3/3 242/2/3 243/4/3
f 245/5/2 246/6/2 243/4/2
f 229/7/1 244/8/1 246/6/1
f 240/9/4 241/14/4 244/8/4
f 240/10/18 229/7/18 245/5/18
f 244/8/19 241/12/19 243/13/19
f 249/5/2 250/6/2 248/4/2
f 250/6/1 249/5/1 359/33/1
f 362/35/23 359/40/23 249/5/23
f 249/5/23 247/11/23 361/36/23
f 364/37/24 363/90/24 248/13/24
f 250/6/24 360/42/24 364/37/24
f 248/4/3 75/6/3 74/5/3
f 365/38/14 361/91/14 247/11/14
f 247/11/14 74/5/14 347/20/14
f 347/20/14 366/92/14 365/38/14
f 367/39/15 368/93/15 348/23/15
f 348/23/15 75/6/15 248/13/15
f 248/13/15 363/94/15 367/39/15
f 253/2/6 257/4/6 255/1/6
f 258/5/5 254/6/5 252/4/5
f 258/7/3 257/8/3 253/6/3
f 254/9/4 253/14/4 251/8/4
f 252/10/1 251/7/1 255/5/1
f 256/8/2 255/12/2 257/13/2
f 259/2/6 261/4/6 88/1/6
f 262/5/5 260/6/5 85/4/5
f 262/7/2 261/8/2 259/6/2
f 260/9/3 259/14/3 84/8/3
f 89/8/1 88/12/1 261/13/1
f 254/2/6 258/4/6 265/1/6
f 234/5/5 230/6/5 264/4/5
f 234/7/3 258/8/3 254/6/3
f 230/9/4 254/14/4 263/8/4
f 264/10/1 263/7/1 265/5/1
f 266/8/2 265/12/2 258/13/2
f 260/2/6 262/4/6 270/1/6
f 272/5/5 269/6/5 268/4/5
f 272/7/2 262/8/2 260/6/2
f 269/9/3 260/14/3 267/8/3
f 268/10/4 267/7/4 270/5/4
f 271/8/1 270/12/1 262/13/1
f 273/2/6 275/4/6 256/1/6
f 276/5/5 274/6/5 228/4/5
f 276/7/3 275/8/3 273/6/3
f 274/9/4 273/14/4 252/8/4
f 228/10/1 252/7/1 256/5/1
f 232/8/2 256/12/2 275/13/2
f 277/2/6 279/4/6 89/1/6
f 280/5/5 278/6/5 106/4/5
f 280/7/2 279/8/2 277/6/2
f 278/9/3 277/14/3 85/8/3
f 109/8/1 89/12/1 279/13/1
f 115/6/1 282/8/1 281/7/1
f 282/8/2 199/14/2 198/9/2
f 114/5/5 281/7/5 198/10/5
f 115/6/6 4/13/6 199/12/6
f 116/3/1 117/1/1 284/4/1
f 284/4/2 286/6/2 285/5/2
f 286/6/3 121/8/3 120/7/3
f 285/5/18 120/7/18 116/10/18
f 284/13/19 117/12/19 121/8/19
f 287/3/1 288/1/1 290/4/1
f 290/4/2 213/6/2 212/5/2
f 211/8/4 288/14/4 287/9/4
f 212/5/20 210/7/20 287/10/20
f 290/13/21 288/12/21 211/8/21
f 293/1/6 134/4/6 130/2/6
f 292/4/5 131/6/5 135/5/5
f 291/8/3 130/14/3 131/9/3
f 293/5/21 291/7/21 292/10/21
f 135/6/1 134/13/1 293/12/1
f 296/1/6 139/4/6 137/2/6
f 291/4/5 130/6/5 134/5/5
f 295/8/3 137/14/3 130/9/3
f 296/5/2 295/7/2 291/10/2
f 139/13/1 296/12/1 293/8/1
f 295/4/5 137/6/5 139/5/5
f 141/5/19 140/7/19 295/10/19
f 224/1/6 299/4/6 297/2/6
f 221/4/5 298/6/5 300/5/5
f 297/6/1 299/8/1 300/7/1
f 220/8/4 297/14/4 298/9/4
f 299/13/2 224/12/2 225/8/2
f 232/1/6 303/4/6 301/2/6
f 229/4/5 302/6/5 304/5/5
f 301/6/1 303/8/1 304/7/1
f 228/8/4 301/14/4 302/9/4
f 303/13/2 232/12/2 233/8/2
f 154/1/6 307/4/6 305/2/6
f 151/4/22 306/6/22 308/5/22
f 305/6/2 307/8/2 308/7/2
f 151/7/1 150/8/1 305/14/1
f 307/13/3 154/12/3 155/8/3
f 309/3/1 310/1/1 312/4/1
f 312/4/2 246/6/2 245/5/2
f 244/8/4 310/14/4 309/9/4
f 245/5/18 229/7/18 309/10/18
f 312/13/19 310/12/19 244/8/19
f 314/4/2 250/6/2 249/5/2
f 370/41/37 369/95/37 313/11/37
f 313/11/23 249/5/23 359/40/23
f 359/40/23 371/96/23 370/41/23
f 373/43/24 374/97/24 360/42/24
f 360/42/24 250/6/24 314/13/24
f 314/13/38 372/98/38 373/43/38
f 164/5/1 165/6/1 314/4/1
f 369/45/16 376/99/16 375/44/16
f 375/44/16 356/27/16 164/5/16
f 164/5/16 313/11/16 369/45/16
f 378/100/17 372/101/17 314/13/17
f 314/13/17 165/6/17 355/46/17
f 377/47/17 378/100/17 314/13/17
f 255/1/6 317/4/6 315/2/6
f 252/4/5 316/6/5 318/5/5
f 315/6/1 317/8/1 318/7/1
f 251/8/4 315/14/4 316/9/4
f 317/13/2 255/12/2 256/8/2
f 174/1/6 321/4/6 319/2/6
f 171/4/5 320/6/5 322/5/5
f 319/6/2 321/8/2 322/7/2
f 170/8/1 319/14/1 320/9/1
f 321/13/3 174/12/3 175/8/3
f 325/1/6 318/4/6 316/2/6
f 324/4/5 301/6/5 303/5/5
f 316/6/1 318/8/1 303/7/1
f 323/8/4 316/14/4 301/9/4
f 325/5/3 323/7/3 324/10/3
f 318/13/2 325/12/2 326/8/2
f 330/1/6 322/4/6 320/2/6
f 328/4/5 329/6/5 332/5/5
f 320/6/2 322/8/2 332/7/2
f 327/8/1 320/14/1 329/9/1
f 330/5/4 327/7/4 328/10/4
f 322/13/3 330/12/3 331/8/3
f 256/1/6 335/4/6 333/2/6
f 228/4/5 334/6/5 336/5/5
f 333/6/1 335/8/1 336/7/1
f 252/8/4 333/14/4 334/9/4
f 335/13/2 256/12/2 232/8/2
f 175/1/6 339/4/6 337/2/6
f 192/4/5 338/6/5 340/5/5
f 337/6/2 339/8/2 340/7/2
f 171/8/1 337/14/1 338/9/1
f 339/13/3 175/12/3 195/8/3
f 342/48/25 351/102/25 353/49/25
f 353/49/26 351/103/26 352/51/26
f 352/51/26 357/104/26 358/52/26
f 354/53/26 353/49/26 352/51/26
f 357/54/27 356/56/27 355/55/27
f 356/56/27 375/105/27 377/57/27
f 376/58/28 378/62/28 377/57/28
f 378/62/29 376/58/29 369/60/29
f 369/60/39 370/106/39 373/61/39
f 373/61/29 372/107/29 378/62/29
f 371/63/30 374/67/30 373/64/30
f 371/63/31 359/68/31 360/66/31
f 359/68/31 362/108/31 364/69/31
f 364/69/32 362/109/32 361/70/32
f 361/70/32 365/110/32 367/71/32
f 363/72/32 364/69/32 361/70/32
f 367/71/33 365/111/33 366/73/33
f 366/75/34 347/77/34 348/76/34
f 347/77/34 349/112/34 350/78/34
f 345/81/35 350/78/35 349/112/35
f 343/79/35 344/113/35 346/80/35
f 345/81/35 349/112/35 343/79/35
f 346/80/36 344/113/36 342/82/36
