# Blender 5.0.1
# www.blender.org
mtllib StationDoor.mtl
g Cube.035_Mesh
v -0.000000 0.000000 0.100000
v 0.200000 2.350000 0.100000
v -0.000000 0.000000 0.000000
v 1.200000 0.000000 0.100000
v 1.000000 2.350000 0.100000
v 1.200000 0.000000 0.000000
v 0.200000 1.400000 0.100000
v 1.000000 1.400000 0.100000
v -0.000000 1.250000 0.100000
v -0.000000 2.500000 0.100000
v -0.000000 2.500000 0.000000
v 1.200000 2.500000 0.000000
v 1.200000 2.500000 0.100000
v -0.000000 1.250000 0.000000
v 1.200000 1.250000 0.000000
v 1.200000 1.250000 0.100000
v 0.200000 1.400000 0.000000
v 0.200000 2.350000 0.000000
v 1.000000 2.350000 0.000000
v 1.000000 1.400000 0.000000
vn -1.0000 -0.0000 -0.0000
vn 1.0000 -0.0000 -0.0000
vn -0.0000 -1.0000 -0.0000
vn -0.0000 1.0000 -0.0000
vn -0.0000 -0.0000 1.0000
vn -0.0000 -0.0000 -1.0000
vt 0.625000 0.000000
vt 0.500000 0.250000
vt 0.500000 0.000000
vt 0.625000 0.500000
vt 0.500000 0.750000
vt 0.500000 0.500000
vt 0.610000 0.781250
vt 0.515000 0.781250
vt 0.375000 0.500000
vt 0.125000 0.750000
vt 0.125000 0.500000
vt 0.875000 0.500000
vt 0.625000 0.750000
vt 0.375000 1.000000
vt 0.375000 0.750000
vt 0.375000 0.250000
vt 0.375000 0.000000
vt 0.610000 0.968750
vt 0.500000 1.000000
vt 0.515000 0.968750
vt 0.610000 0.281250
vt 0.610000 0.468750
vt 0.625000 1.000000
vt 0.625000 0.250000
vt 0.515000 0.468750
vt 0.515000 0.281250
vt 0.875000 0.750000
s 0
f 10/1/1 14/2/1 9/3/1
f 12/4/2 16/5/2 15/6/2
f 5/7/1 20/8/1 8/8/1
f 6/9/3 1/10/3 3/11/3
f 11/12/4 13/13/4 12/4/4
f 16/5/5 1/14/5 4/15/5
f 15/6/2 4/15/2 6/9/2
f 14/2/6 6/9/6 3/16/6
f 9/3/1 3/16/1 1/17/1
f 2/18/5 9/19/5 7/20/5
f 18/21/6 12/4/6 19/22/6
f 5/7/5 10/23/5 2/18/5
f 18/21/6 14/2/6 11/24/6
f 19/22/6 15/6/6 20/25/6
f 8/8/5 13/13/5 5/7/5
f 7/20/5 16/5/5 8/8/5
f 20/25/6 14/2/6 17/26/6
f 8/8/4 17/20/4 7/20/4
f 2/18/3 19/7/3 5/7/3
f 7/20/2 18/18/2 2/18/2
f 10/1/1 11/24/1 14/2/1
f 12/4/2 13/13/2 16/5/2
f 5/7/1 19/7/1 20/8/1
f 6/9/3 4/15/3 1/10/3
f 11/12/4 10/27/4 13/13/4
f 16/5/5 9/19/5 1/14/5
f 15/6/2 16/5/2 4/15/2
f 14/2/6 15/6/6 6/9/6
f 9/3/1 14/2/1 3/16/1
f 2/18/5 10/23/5 9/19/5
f 18/21/6 11/24/6 12/4/6
f 5/7/5 13/13/5 10/23/5
f 18/21/6 17/26/6 14/2/6
f 19/22/6 12/4/6 15/6/6
f 8/8/5 16/5/5 13/13/5
f 7/20/5 9/19/5 16/5/5
f 20/25/6 15/6/6 14/2/6
f 8/8/4 20/8/4 17/20/4
f 2/18/3 18/18/3 19/7/3
f 7/20/2 17/20/2 18/18/2
