# Blender 5.0.1
# www.blender.org
mtllib WoodenDoor.mtl
g DoorFrame_Mesh
v -0.700000 0.000000 0.050000
v -0.700000 2.500000 0.050000
v -0.700000 0.000000 -0.200000
v -0.700000 2.500000 -0.200000
v -0.600000 0.000000 0.050000
v -0.600000 2.500000 0.050000
v -0.600000 0.000000 -0.200000
v -0.600000 2.500000 -0.200000
v 0.600000 0.000000 0.050000
v 0.600000 2.500000 0.050000
v 0.600000 0.000000 -0.200000
v 0.600000 2.500000 -0.200000
v 0.700000 0.000000 0.050000
v 0.700000 2.500000 0.050000
v 0.700000 0.000000 -0.200000
v 0.700000 2.500000 -0.200000
v -0.800000 2.500000 0.050000
v -0.800000 2.600000 0.050000
v -0.800000 2.500000 -0.200000
v -0.800000 2.600000 -0.200000
v 0.800000 2.500000 0.050000
v 0.800000 2.600000 0.050000
v 0.800000 2.500000 -0.200000
v 0.800000 2.600000 -0.200000
vn -1.0000 -0.0000 -0.0000
vn -0.0000 -0.0000 -1.0000
vn 1.0000 -0.0000 -0.0000
vn -0.0000 -0.0000 1.0000
vn -0.0000 1.0000 -0.0000
vn -0.0000 -1.0000 -0.0000
vt 0.625000 0.000000
vt 0.375000 0.250000
vt 0.375000 0.000000
vt 0.625000 0.250000
vt 0.375000 0.500000
vt 0.625000 0.500000
vt 0.375000 0.750000
vt 0.625000 0.750000
vt 0.375000 1.000000
vt 0.875000 0.500000
vt 0.125000 0.750000
vt 0.125000 0.500000
vt 0.625000 1.000000
vt 0.875000 0.750000
s 0
f 2/1/1 3/2/1 1/3/1
f 4/4/2 7/5/2 3/2/2
f 8/6/3 5/7/3 7/5/3
f 6/8/4 1/9/4 5/7/4
f 4/10/5 6/8/5 8/6/5
f 10/1/1 11/2/1 9/3/1
f 12/4/2 15/5/2 11/2/2
f 16/6/3 13/7/3 15/5/3
f 14/8/4 9/9/4 13/7/4
f 12/10/5 14/8/5 16/6/5
f 18/1/1 19/2/1 17/3/1
f 20/4/2 23/5/2 19/2/2
f 24/6/3 21/7/3 23/5/3
f 22/8/4 17/9/4 21/7/4
f 23/5/6 17/11/6 19/12/6
f 20/10/5 22/8/5 24/6/5
f 2/1/1 4/4/1 3/2/1
f 4/4/2 8/6/2 7/5/2
f 8/6/3 6/8/3 5/7/3
f 6/8/4 2/13/4 1/9/4
f 4/10/5 2/14/5 6/8/5
f 10/1/1 12/4/1 11/2/1
f 12/4/2 16/6/2 15/5/2
f 16/6/3 14/8/3 13/7/3
f 14/8/4 10/13/4 9/9/4
f 12/10/5 10/14/5 14/8/5
f 18/1/1 20/4/1 19/2/1
f 20/4/2 24/6/2 23/5/2
f 24/6/3 22/8/3 21/7/3
f 22/8/4 18/13/4 17/9/4
f 23/5/6 21/7/6 17/11/6
f 20/10/5 18/14/5 22/8/5
g WoodenDoor_Mesh
v -0.600000 0.000000 -0.070000
v -0.600000 2.500000 -0.070000
v -0.600000 0.000000 -0.130000
v -0.600000 2.500000 -0.130000
v 0.600000 0.000000 -0.070000
v 0.600000 2.500000 -0.070000
v 0.600000 0.000000 -0.130000
v 0.600000 2.500000 -0.130000
v -0.600000 2.200000 -0.050000
v -0.600000 2.350000 -0.050000
v -0.600000 2.200000 -0.150000
v -0.600000 2.350000 -0.150000
v 0.600000 2.200000 -0.050000
v 0.600000 2.350000 -0.050000
v 0.600000 2.200000 -0.150000
v 0.600000 2.350000 -0.150000
v -0.470000 0.300000 -0.060000
v -0.600000 0.300000 -0.060000
v -0.470000 0.300000 -0.140000
v -0.600000 0.300000 -0.140000
v 0.600000 2.200000 -0.060000
v 0.460000 2.200000 -0.060000
v 0.600000 2.200000 -0.140000
v 0.460000 2.200000 -0.140000
v -0.600000 0.150000 -0.050000
v -0.600000 0.300000 -0.050000
v -0.600000 0.150000 -0.150000
v -0.600000 0.300000 -0.150000
v 0.600000 0.150000 -0.050000
v 0.600000 0.300000 -0.050000
v 0.600000 0.150000 -0.150000
v 0.600000 0.300000 -0.150000
v -0.500000 1.250000 -0.150000
v -0.500000 1.250000 -0.050000
v -0.464645 1.235355 -0.150000
v -0.464645 1.235355 -0.050000
v -0.450000 1.200000 -0.150000
v -0.450000 1.200000 -0.050000
v -0.464645 1.164645 -0.150000
v -0.464645 1.164645 -0.050000
v -0.500000 1.150000 -0.150000
v -0.500000 1.150000 -0.050000
v -0.535355 1.164645 -0.150000
v -0.535355 1.164645 -0.050000
v -0.550000 1.200000 -0.150000
v -0.550000 1.200000 -0.050000
v -0.535355 1.235355 -0.150000
v -0.535355 1.235355 -0.050000
vn -1.0000 -0.0000 -0.0000
vn -0.0000 -0.0000 -1.0000
vn 1.0000 -0.0000 -0.0000
vn -0.0000 -0.0000 1.0000
vn -0.0000 -1.0000 -0.0000
vn -0.0000 1.0000 -0.0000
vn 0.8713 -0.4907 -0.0000
vn -0.8733 0.4872 -0.0000
vn 0.3827 0.9239 -0.0000
vn 0.9239 0.3827 -0.0000
vn 0.9239 -0.3827 -0.0000
vn 0.3827 -0.9239 -0.0000
vn -0.3827 -0.9239 -0.0000
vn -0.9239 -0.3827 -0.0000
vn -0.9239 0.3827 -0.0000
vn -0.3827 0.9239 -0.0000
vt 0.625000 0.000000
vt 0.375000 0.250000
vt 0.375000 0.000000
vt 0.625000 0.250000
vt 0.375000 0.500000
vt 0.625000 0.500000
vt 0.375000 0.750000
vt 0.625000 0.750000
vt 0.375000 1.000000
vt 0.125000 0.750000
vt 0.125000 0.500000
vt 0.875000 0.500000
vt 1.000000 1.000000
vt 1.000000 0.500000
vt 0.875000 1.000000
vt 0.750000 0.500000
vt 0.750000 1.000000
vt 0.625000 1.000000
vt 0.500000 0.500000
vt 0.500000 1.000000
vt 0.250000 0.500000
vt 0.010000 0.250000
vt 0.250000 0.010000
vt 0.490000 0.250000
vt 0.250000 1.000000
vt 0.125000 1.000000
vt 0.000000 0.500000
vt 0.919706 0.080294
vt 0.580294 0.080294
vt 0.580294 0.419706
vt 0.875000 0.750000
vt 0.419706 0.419706
vt 0.250000 0.490000
vt 0.080294 0.419706
vt 0.080294 0.080294
vt 0.419706 0.080294
vt 0.000000 1.000000
vt 0.750000 0.490000
vt 0.919706 0.419706
vt 0.990000 0.250000
vt 0.750000 0.010000
vt 0.510000 0.250000
s 0
f 26/15/7 27/16/7 25/17/7
f 28/18/8 31/19/8 27/16/8
f 32/20/9 29/21/9 31/19/9
f 30/22/10 25/23/10 29/21/10
f 31/19/11 25/24/11 27/25/11
f 28/26/12 30/22/12 32/20/12
f 34/15/7 35/16/7 33/17/7
f 36/18/8 39/19/8 35/16/8
f 40/20/9 37/21/9 39/19/9
f 38/22/10 33/23/10 37/21/10
f 39/19/11 33/24/11 35/25/11
f 36/26/12 38/22/12 40/20/12
f 43/16/8 48/20/8 47/19/8
f 46/22/10 41/23/10 45/21/10
f 47/19/13 41/24/13 43/25/13
f 44/26/14 46/22/14 48/20/14
f 50/15/7 51/16/7 49/17/7
f 52/18/8 55/19/8 51/16/8
f 56/20/9 53/21/9 55/19/9
f 54/22/10 49/23/10 53/21/10
f 55/19/11 49/24/11 51/25/11
f 52/26/12 54/22/12 56/20/12
f 58/27/15 59/26/15 57/28/15
f 60/29/16 61/30/16 59/26/16
f 62/31/17 63/20/17 61/30/17
f 64/32/18 65/33/18 63/20/18
f 66/34/19 67/19/19 65/33/19
f 68/23/20 69/35/20 67/19/20
f 70/36/10 66/37/10 62/38/10
f 70/39/21 71/25/21 69/35/21
f 72/40/22 57/41/22 71/25/22
f 63/42/8 67/43/8 71/44/8
f 26/15/7 28/18/7 27/16/7
f 28/18/8 32/20/8 31/19/8
f 32/20/9 30/22/9 29/21/9
f 30/22/10 26/32/10 25/23/10
f 31/19/11 29/21/11 25/24/11
f 28/26/12 26/45/12 30/22/12
f 34/15/7 36/18/7 35/16/7
f 36/18/8 40/20/8 39/19/8
f 40/20/9 38/22/9 37/21/9
f 38/22/10 34/32/10 33/23/10
f 39/19/11 37/21/11 33/24/11
f 36/26/12 34/45/12 38/22/12
f 43/16/8 44/18/8 48/20/8
f 46/22/10 42/32/10 41/23/10
f 47/19/13 45/21/13 41/24/13
f 44/26/14 42/45/14 46/22/14
f 50/15/7 52/18/7 51/16/7
f 52/18/8 56/20/8 55/19/8
f 56/20/9 54/22/9 53/21/9
f 54/22/10 50/32/10 49/23/10
f 55/19/11 53/21/11 49/24/11
f 52/26/12 50/45/12 54/22/12
f 58/27/15 60/29/15 59/26/15
f 60/29/16 62/31/16 61/30/16
f 62/31/17 64/32/17 63/20/17
f 64/32/18 66/34/18 65/33/18
f 66/34/19 68/23/19 67/19/19
f 68/23/20 70/39/20 69/35/20
f 62/38/10 60/46/10 58/47/10
f 58/47/10 72/48/10 70/36/10
f 70/36/10 68/49/10 66/37/10
f 66/37/10 64/50/10 62/38/10
f 62/38/10 58/47/10 70/36/10
f 70/39/21 72/40/21 71/25/21
f 72/40/22 58/51/22 57/41/22
f 71/44/8 57/52/8 59/53/8
f 59/53/8 61/54/8 63/42/8
f 63/42/8 65/55/8 67/43/8
f 67/43/8 69/56/8 71/44/8
f 71/44/8 59/53/8 63/42/8
