# Blender 4.3.2
# www.blender.org
mtllib CouplerClosed.mtl
g FrontCoupler_Mesh
v -0.100000 -0.060000 -0.320000
v -0.100000 -0.060000 -0.510000
v -0.100000 0.100000 -0.510000
v 0.100000 -0.060000 -0.320000
v 0.100000 0.100000 -0.320000
v 0.100000 -0.060000 -0.510000
v 0.100000 0.100000 -0.510000
v 0.210000 -0.060000 -0.210000
v 0.210000 0.100000 -0.210000
v 0.230000 -0.060000 -0.120000
v 0.230000 0.100000 -0.120000
v 0.230000 -0.060000 -0.030000
v 0.230000 0.100000 -0.030000
v 0.220000 -0.060000 -0.020000
v 0.220000 0.100000 -0.020000
v 0.190000 -0.060000 -0.020000
v 0.190000 0.100000 -0.020000
v 0.140000 -0.060000 -0.120000
v 0.140000 0.100000 -0.120000
v -0.030000 -0.060000 -0.120000
v -0.030000 0.100000 -0.120000
v -0.160000 0.060000 -0.010000
v -0.060000 0.100000 -0.090000
v -0.060000 -0.060000 -0.010000
v -0.060000 0.100000 -0.010000
v -0.150000 -0.060000 0.050000
v -0.150000 0.100000 0.050000
v -0.180000 -0.060000 -0.010000
v -0.180000 0.100000 -0.010000
v -0.180000 0.100000 -0.090000
v -0.200000 -0.060000 -0.120000
v -0.200000 0.100000 -0.120000
v -0.200000 -0.060000 -0.220000
v -0.200000 0.100000 -0.220000
v -0.180000 -0.060000 -0.240000
v -0.180000 0.100000 -0.240000
v -0.130000 -0.060000 -0.270000
v -0.130000 0.100000 -0.270000
v 0.170000 0.100000 -0.120000
v -0.100000 0.100000 -0.320000
v -0.060000 0.060000 -0.010000
v -0.040000 -0.020000 0.010000
v -0.040000 0.060000 0.010000
v 0.015000 0.060000 -0.010000
v 0.035000 -0.020000 -0.010000
v 0.035000 0.060000 -0.010000
v 0.055000 0.060000 0.010000
v 0.055000 0.060000 0.060000
v 0.015000 0.060000 0.090000
v -0.100000 0.060000 0.090000
v -0.150000 0.060000 0.060000
v -0.090000 -0.060000 0.050000
v -0.090000 0.100000 0.050000
v 0.080000 0.100000 -0.180000
v 0.080000 0.100000 -0.320000
v -0.070000 0.100000 -0.320000
v -0.070000 0.100000 -0.140000
v -0.100000 0.100000 -0.110000
v -0.100000 0.100000 -0.040000
v -0.080000 0.100000 -0.020000
v -0.160000 0.100000 -0.140000
v -0.180000 -0.060000 -0.090000
v -0.138258 0.100000 0.031001
v -0.160023 0.100000 -0.019989
v -0.101742 0.100000 0.031001
v 0.025000 0.070000 0.022679
v 0.032321 -0.020000 0.030000
v 0.035000 0.070000 0.040000
v 0.032321 0.070000 0.050000
v -0.060000 -0.020000 -0.010000
v 0.015000 0.070000 0.060000
v 0.005000 0.070000 0.057320
v -0.002321 0.070000 0.050000
v -0.002321 0.070000 0.030000
v 0.005000 0.070000 0.022679
v -0.100000 0.130000 -0.110000
v -0.160000 0.130000 -0.110000
v -0.100000 0.130000 -0.040000
v -0.160000 0.130000 -0.020000
v -0.080000 0.130000 -0.020000
v -0.140000 0.130000 0.030000
v -0.102000 0.130000 0.031000
v -0.030000 0.140000 -0.220000
v -0.120000 0.130000 -0.030000
v -0.120000 0.140000 -0.030000
v -0.107500 0.130000 -0.026651
v -0.107500 0.140000 -0.026651
v -0.098349 0.130000 -0.017500
v -0.098349 0.140000 -0.017500
v -0.095000 0.130000 -0.005000
v -0.095000 0.140000 -0.005000
v -0.098349 0.130000 0.007500
v -0.098349 0.140000 0.007500
v -0.107500 0.130000 0.016650
v -0.107500 0.140000 0.016650
v -0.120000 0.130000 0.020000
v -0.120000 0.140000 0.020000
v -0.132500 0.130000 0.016650
v -0.132500 0.140000 0.016650
v -0.141651 0.130000 0.007500
v -0.141651 0.140000 0.007500
v -0.145000 0.130000 -0.005000
v -0.145000 0.140000 -0.005000
v -0.141651 0.130000 -0.017500
v -0.141651 0.140000 -0.017500
v -0.132500 0.130000 -0.026651
v -0.132500 0.140000 -0.026651
v -0.030000 0.140000 -0.290000
v 0.030000 0.140000 -0.220000
v 0.030000 0.140000 -0.290000
v -0.160000 -0.020000 -0.010000
v -0.060000 -0.060000 -0.090000
v -0.150000 -0.020000 0.050000
v -0.180000 -0.020000 -0.010000
v -0.090000 -0.020000 0.050000
v -0.150000 0.060000 0.050000
v -0.090000 0.060000 0.050000
v -0.180000 0.060000 -0.010000
v 0.015000 -0.020000 -0.010000
v 0.055000 -0.020000 0.010000
v 0.055000 -0.020000 0.060000
v -0.100000 -0.020000 0.090000
v 0.015000 -0.020000 0.020000
v 0.025000 -0.020000 0.022679
v 0.035000 -0.020000 0.040000
v 0.032321 -0.020000 0.050000
v 0.025000 -0.020000 0.057320
v 0.005000 -0.020000 0.057320
v -0.005000 -0.020000 0.040000
v -0.002321 -0.020000 0.030000
v 0.005000 -0.020000 0.022679
v -0.030000 0.060000 0.010000
v -0.030000 0.060000 0.090000
v -0.020000 -0.020000 0.090000
v -0.020000 0.070000 0.010000
v 0.015000 0.070000 -0.010000
v 0.035000 0.070000 -0.010000
v 0.055000 0.070000 0.010000
v 0.055000 0.070000 0.060000
v 0.015000 0.070000 0.090000
v 0.015000 0.070000 0.020000
v 0.032321 0.070000 0.030000
v 0.015000 -0.020000 0.090000
v 0.025000 0.070000 0.057320
v -0.020000 -0.020000 0.010000
v -0.002321 -0.020000 0.050000
v -0.005000 0.070000 0.040000
v 0.015000 -0.020000 0.060000
v -0.020000 0.070000 0.090000
v -0.150000 -0.020000 0.060000
v 0.002071 0.060000 0.002929
v -0.015000 0.060000 0.010000
v -0.015000 -0.020000 0.010000
v 0.002071 -0.020000 0.002929
v -0.003672 -0.020000 0.019911
v 0.002071 0.070000 0.002929
v -0.015000 0.070000 0.010000
v -0.003672 0.070000 0.019911
v 0.030000 0.140000 -0.255000
v -0.040000 0.140000 -0.255000
v 0.220000 0.137500 -0.020000
v 0.215448 0.140000 -0.022500
v 0.218667 0.139268 -0.020732
v 0.190000 0.137500 -0.020000
v 0.191545 0.140000 -0.022500
v 0.190453 0.139268 -0.020732
v 0.140000 0.137500 -0.120000
v 0.142141 0.140000 -0.121308
v 0.140627 0.139268 -0.120383
v -0.030000 0.137500 -0.120000
v -0.032521 0.140000 -0.121261
v -0.030738 0.139268 -0.120369
v -0.060000 0.137500 -0.090000
v -0.062485 0.140000 -0.091242
v -0.060728 0.139268 -0.090364
v -0.062448 0.140000 -0.011224
v -0.060000 0.137500 -0.010000
v -0.060717 0.139268 -0.010359
v -0.150000 0.137500 0.050000
v -0.148328 0.140000 0.047295
v -0.149510 0.139268 0.049208
v -0.177573 0.140000 -0.011214
v -0.180000 0.137500 -0.010000
v -0.179289 0.139268 -0.010355
v -0.177556 0.140000 -0.096110
v -0.180000 0.137500 -0.090000
v -0.179284 0.139268 -0.091790
v 0.170000 0.137500 -0.120000
v 0.166677 0.140000 -0.120000
v 0.169027 0.139268 -0.120000
v -0.090000 0.137500 0.050000
v -0.091677 0.140000 0.047287
v -0.090491 0.139268 0.049205
v 0.080000 0.137500 -0.180000
v 0.077584 0.140000 -0.179356
v 0.079292 0.139268 -0.179811
v 0.080000 0.137500 -0.320000
v 0.077581 0.140000 -0.317500
v 0.079291 0.139268 -0.319268
v -0.067500 0.140000 -0.317500
v -0.070000 0.137500 -0.320000
v -0.069268 0.139268 -0.319268
v -0.070000 0.137500 -0.140000
v -0.067500 0.140000 -0.138868
v -0.069268 0.139268 -0.139668
v -0.100000 0.137499 -0.110000
v -0.097576 0.140000 -0.108788
v -0.099290 0.139268 -0.109645
v -0.100000 0.137499 -0.040000
v -0.097573 0.140000 -0.038886
v -0.099289 0.139268 -0.039674
v -0.080000 0.137499 -0.020000
v -0.077552 0.140000 -0.018776
v -0.079283 0.139267 -0.019642
v -0.160000 0.137497 -0.140000
v -0.162438 0.140000 -0.140000
v -0.160714 0.139267 -0.140000
v -0.139989 0.140000 0.033802
v -0.138258 0.137498 0.031001
v -0.138765 0.139267 0.031821
v -0.160023 0.137498 -0.019989
v -0.162444 0.140000 -0.018778
v -0.160732 0.139267 -0.019634
v -0.101742 0.137499 0.031001
v -0.100005 0.140000 0.033812
v -0.101233 0.139267 0.031824
v -0.026228 0.150000 -0.225000
v -0.030000 0.145000 -0.220000
v -0.028895 0.148536 -0.221465
v -0.026228 0.150000 -0.285000
v -0.030000 0.145000 -0.290000
v -0.028895 0.148536 -0.288536
v 0.025000 0.150000 -0.225000
v 0.030000 0.145000 -0.220000
v 0.028536 0.148536 -0.221465
v 0.025000 0.150000 -0.285000
v 0.030000 0.145000 -0.290000
v 0.028536 0.148536 -0.288536
v -0.162464 0.100000 -0.220000
v -0.160000 0.100000 -0.217310
v -0.158714 0.100000 -0.222144
v -0.160722 0.100000 -0.219212
v -0.160000 0.113728 -0.211848
v -0.162462 0.115307 -0.213911
v -0.160721 0.114845 -0.213307
v -0.160000 0.126041 -0.195394
v -0.162458 0.128284 -0.196569
v -0.160720 0.127627 -0.196225
v -0.160000 0.134508 -0.170049
v -0.162450 0.136955 -0.170615
v -0.160717 0.136239 -0.170449
v -0.180000 0.137500 -0.139876
v -0.177544 0.140000 -0.140000
v -0.179281 0.139268 -0.139964
v -0.180000 0.100000 -0.217310
v -0.177526 0.100000 -0.220000
v -0.180000 0.100000 -0.222500
v -0.179275 0.100000 -0.219212
v -0.180000 0.134495 -0.170088
v -0.177536 0.136955 -0.170615
v -0.179278 0.136235 -0.170461
v -0.180000 0.126041 -0.195394
v -0.177530 0.128284 -0.196569
v -0.179277 0.127627 -0.196225
v -0.180000 0.113728 -0.211848
v -0.177527 0.115307 -0.213911
v -0.179276 0.114845 -0.213307
v 0.030000 0.145000 -0.255000
v 0.025000 0.150000 -0.255000
v 0.028536 0.148536 -0.255000
v -0.040000 0.145000 -0.255000
v -0.034800 0.150000 -0.255000
v -0.038477 0.148536 -0.255000
vn -0.9637 -0.0000 -0.2669
vn -1.0000 -0.0000 -0.0000
vn 1.0000 -0.0000 -0.0000
vn 0.9239 -0.0000 -0.3827
vn 0.8766 -0.0000 -0.4812
vn 0.9940 -0.0000 -0.1091
vn 0.9239 -0.0000 0.3827
vn 0.3827 -0.0000 0.9239
vn 0.2527 -0.0000 0.9675
vn -0.5257 -0.0000 0.8506
vn -0.5257 -0.0000 0.8507
vn -0.8944 -0.0000 0.4472
vn -0.0000 1.0000 -0.0000
vn -0.9883 -0.0000 0.1527
vn -0.9571 -0.0000 0.2898
vn -0.9897 -0.0000 0.1433
vn -0.9239 -0.0000 -0.3827
vn -0.6154 -0.0000 -0.7882
vn -0.7071 -0.0000 -0.7071
vn 0.7071 -0.0000 -0.7071
vn 0.3827 -0.0000 -0.9239
vn -0.0000 -1.0000 -0.0000
vn -0.5556 -0.0000 -0.8315
vn -0.3827 -0.0000 -0.9239
vn 0.8944 -0.0000 0.4472
vn 0.3162 -0.0000 0.9487
vn -0.0000 -0.0000 1.0000
vn -0.2669 -0.0000 0.9637
vn -0.8331 -0.0000 0.5532
vn -0.0000 0.9988 -0.0495
vn -0.9239 -0.0000 0.3827
vn 0.1289 0.9499 -0.2849
vn -0.0000 0.6080 -0.7939
vn -0.0000 0.8859 -0.4639
vn -0.5000 -0.0000 0.8660
vn -0.8660 -0.0000 0.5000
vn -0.8660 -0.0000 -0.5000
vn -0.5000 -0.0000 -0.8660
vn -0.0000 -0.0000 -1.0000
vn 0.5000 -0.0000 -0.8660
vn 0.8660 -0.0000 -0.5000
vn 0.8660 -0.0000 0.5000
vn 0.5000 -0.0000 0.8660
vn 1.0000 -0.0000 0.0001
vn -0.9818 -0.0000 0.1901
vn -0.5513 -0.0000 -0.8343
vn 0.5511 -0.0000 -0.8345
vn -0.9818 -0.0000 0.1900
vn -0.0000 0.9779 -0.2092
vn 0.9797 -0.0000 -0.2003
vn -0.6022 -0.0000 0.7984
vn 0.7497 -0.0000 -0.6618
vn 0.8944 -0.0000 -0.4472
vn 0.8817 -0.0000 -0.4719
vn 0.8817 -0.0000 -0.4718
vn 0.7071 -0.0000 0.7071
vn 0.9732 -0.0000 0.2298
vn 0.5257 -0.0000 0.8507
vn -0.9732 -0.0000 0.2298
vn -0.0000 0.9239 -0.3827
vn -0.0000 0.8959 -0.4444
vn -0.0000 0.9576 -0.2880
vn -0.6022 -0.0000 0.7983
vn -0.6022 -0.0000 -0.7983
vn -0.7071 0.7071 -0.0000
vn -0.1951 -0.0000 -0.9808
vn 0.9883 -0.0000 0.1527
vn -0.8331 -0.0000 0.5531
vn -0.9899 -0.0000 0.1414
vn 0.5511 -0.0000 -0.8344
vn -0.0000 0.3696 -0.9292
vn -0.0000 0.6080 -0.7940
vn -0.6022 -0.0000 -0.7984
vn 0.3347 0.8729 -0.3550
vn 0.4214 0.8927 -0.1598
vn -0.4209 0.8928 -0.1603
vn -0.3341 0.8730 -0.3553
vn -0.1285 0.9498 -0.2852
vn 0.3588 0.9308 0.0697
vn 0.5774 0.7817 0.2356
vn 0.3216 0.9368 0.1376
vn 0.6997 0.6959 0.1615
vn 0.8427 0.4170 0.3405
vn 0.1998 0.9145 0.3519
vn 0.2359 0.6778 0.6964
vn 0.2948 0.3118 0.9033
vn -0.2462 0.9145 0.3211
vn -0.3083 0.7252 0.6156
vn -0.4378 0.3361 0.8339
vn -0.1747 0.9432 0.2827
vn -0.3822 0.6867 0.6184
vn -0.4727 0.4378 0.7648
vn 0.1524 0.9799 0.1284
vn 0.5193 0.7816 0.3455
vn 0.6498 0.6520 0.3909
vn -0.1628 0.9509 0.2634
vn -0.7017 0.6938 0.1620
vn -0.3726 0.7054 0.6029
vn -0.8884 0.4019 0.2217
vn -0.4651 0.4662 0.7526
vn -0.3615 0.9297 0.0703
vn -0.7128 0.7013 -0.0000
vn -0.9269 0.3753 -0.0000
vn 0.3723 0.7061 0.6024
vn 0.1624 0.9511 0.2627
vn 0.4648 0.4672 0.7521
vn 0.5404 0.6776 -0.4988
vn 0.2810 0.9016 -0.3290
vn 0.7175 0.3949 -0.5738
vn 0.8872 0.4048 0.2214
vn 0.8043 0.3715 -0.4637
vn 0.5633 0.7601 -0.3241
vn -0.8425 0.4137 -0.3451
vn -0.4975 0.7106 -0.4975
vn -0.6101 0.5054 -0.6101
vn -0.5792 0.7795 -0.2384
vn -0.1988 0.9597 -0.1988
vn -0.6766 0.6822 -0.2773
vn -0.3344 0.9336 -0.1290
vn -0.3255 0.9356 -0.1370
vn -0.9017 0.3062 0.3051
vn -0.8409 0.4089 -0.3544
vn -0.7381 0.5910 0.3255
vn -0.9079 0.3114 0.2807
vn -0.6962 0.6727 0.2506
vn -0.5050 0.7755 0.3788
vn -0.4885 0.4799 -0.7287
vn -0.2987 0.8432 -0.4470
vn -0.3968 0.9178 0.0167
vn 0.4888 0.4785 -0.7294
vn 0.6569 0.7423 -0.1317
vn 0.2993 0.8424 -0.4480
vn 0.3568 0.9305 -0.0829
vn 0.1637 0.9539 -0.2516
vn -0.1632 0.9542 -0.2508
vn 0.5022 0.7068 -0.4982
vn 0.2059 0.9584 -0.1977
vn 0.3503 0.9215 -0.1674
vn 0.6109 0.4993 -0.6143
vn 0.9023 0.3959 -0.1707
vn 0.7074 0.7060 -0.0350
vn 0.3909 0.9193 -0.0451
vn 0.1988 0.9597 0.1988
vn -0.4339 0.6935 0.5752
vn 0.4975 0.7106 0.4975
vn -0.5345 0.4605 0.7086
vn 0.6101 0.5055 0.6101
vn 0.7071 0.7071 -0.0000
vn 0.3827 0.9239 -0.0000
vn 0.9239 0.3827 -0.0000
vn 0.1988 0.9597 -0.1988
vn -0.4339 0.6935 -0.5752
vn -0.1891 0.9494 -0.2507
vn 0.4975 0.7106 -0.4975
vn -0.5345 0.4605 -0.7086
vn -0.7288 0.6847 -0.0000
vn -0.3700 0.9290 -0.0000
vn -0.9184 0.3956 -0.0000
vn 0.6886 0.4408 -0.5758
vn 0.9308 0.2222 -0.2902
vn 0.4004 0.5571 -0.7276
vn -0.6875 0.4415 -0.5766
vn -0.3989 0.5575 -0.7281
vn 0.6956 0.6364 -0.3333
vn 0.9278 0.3304 -0.1731
vn 0.3925 0.8147 -0.4268
vn -0.9303 0.2230 -0.2913
vn -0.6944 0.6375 -0.3339
vn -0.3909 0.8154 -0.4271
vn 0.6999 0.6984 -0.1494
vn 0.9272 0.3664 -0.0780
vn 0.3908 0.9000 -0.1931
vn -0.9272 0.3318 -0.1738
vn -0.6989 0.6994 -0.1497
vn -0.3894 0.9006 -0.1928
vn -0.9266 0.3676 -0.0787
vn -0.7059 0.7075 -0.0351
vn -0.3889 0.9201 -0.0457
vn -0.9264 0.3760 -0.0187
vn -0.3902 0.9207 -0.0000
vn 0.9272 0.3741 -0.0190
vn 0.6101 0.5055 -0.6101
vn -0.1891 0.9494 0.2507
vt 0.625000 0.000000
vt 0.375000 0.250000
vt 0.375000 0.000000
vt 0.625000 0.500000
vt 0.375000 0.750000
vt 0.375000 0.500000
vt 0.625000 0.750000
vt 0.000000 0.000000
vt 0.166667 1.000000
vt 0.250000 1.000000
vt 0.548629 0.658355
vt 0.080682 0.096819
vt 0.078125 0.093750
vt 0.001201 0.001442
vt 0.032913 0.039496
vt 0.004614 0.005537
vt 0.384974 0.461969
vt 0.054980 0.065976
vt 0.916667 0.500000
vt 1.000000 1.000000
vt 1.000000 0.500000
vt 0.833333 0.500000
vt 0.916667 1.000000
vt 0.750000 1.000000
vt 0.833333 1.000000
vt 0.666667 0.500000
vt 0.750000 0.500000
vt 0.583333 0.500000
vt 0.666667 1.000000
vt 0.500000 1.000000
vt 0.583333 1.000000
vt 0.416667 0.500000
vt 0.500000 0.500000
vt 0.333333 0.500000
vt 0.416667 1.000000
vt 0.250000 0.500000
vt 0.333333 1.000000
vt 0.166667 0.500000
vt 0.083333 0.500000
vt 0.000000 0.500000
vt 0.083333 1.000000
vt 0.625000 0.750000
vt 0.046880 0.056257
vt 0.337388 0.404865
vt 0.548629 0.658355
vt 0.529896 0.635875
vt 0.029081 0.034898
vt 0.337388 0.404865
vt 0.046880 0.056257
vt 0.500000 0.500000
vt 0.604506 0.017857
vt 0.392857 0.125000
vt 0.395004 0.017857
vt 0.750000 0.500000
vt 0.625000 0.625000
vt 0.500000 0.750000
vt 0.375000 0.875000
vt 0.750000 0.625000
vt 0.042154 0.370000
vt 0.250000 0.010000
vt 0.457846 0.370000
vt 0.500000 0.875000
vt 0.375000 1.000000
vt 0.397860 0.873895
vt 0.026797 0.032156
vt 0.004614 0.005537
vt 0.208175 0.249810
vt 0.397860 0.873895
vt 0.000000 1.000000
vt 0.604506 0.232143
vt 0.395004 0.232143
vt 0.008552 0.010263
vt 0.001201 0.001442
vt 0.250000 0.500000
vt 0.125000 0.750000
vt 0.125000 0.500000
vt 0.000039 0.000047
vt 0.012935 0.015522
vt 0.003789 0.004546
vt 0.617688 0.741226
vt 0.611792 0.734151
vt 0.621503 0.745803
vt 0.002777 0.003333
vt 0.069219 0.083063
vt 0.069219 0.083063
vt 0.620397 0.250000
vt 0.381102 0.250000
vt 0.625000 0.506102
vt 0.375000 0.125000
vt 0.625000 0.994770
vt 0.625000 0.875000
vt 0.620397 0.000000
vt 0.375000 0.743898
vt 0.375000 0.504603
vt 0.625000 0.123563
vt 0.606428 0.125000
vt 0.875000 0.746207
vt 0.875000 0.626437
vt 0.009830 0.011796
vt 0.000173 0.000207
vt 0.019930 0.023916
vt 0.037906 0.045487
vt 0.237326 0.284791
vt 0.032913 0.039496
vt 0.236663 0.283995
vt 0.384616 0.461539
vt 0.616397 0.739676
vt 0.375000 0.005230
vt 0.625000 0.755230
vt 0.625000 0.126437
vt 0.625000 0.246207
vt 0.875000 0.503793
vt 0.750000 0.625000
vt 0.564050 0.676860
vt 0.625000 0.250000
vt 0.397860 0.873895
vt 0.026797 0.032156
vt 0.000029 0.000035
vt 0.750000 0.750000
vt 0.370000 0.457846
vt 0.250000 0.490000
vt 0.130000 0.457846
vt 0.010000 0.250000
vt 0.042154 0.130000
vt 0.130000 0.042154
vt 0.370000 0.042154
vt 0.457846 0.130000
vt 0.490000 0.250000
vt 0.500000 1.000000
vt 0.012935 0.015522
vt 0.250000 0.750000
vt 0.625000 0.745397
vt 0.375000 0.244770
vt 0.381102 0.000000
vt 0.625000 0.003793
vt 0.875000 0.623563
s 1
f 40/1/1 2/2/2 1/3/1
f 7/4/3 4/5/4 6/6/3
f 5/7/4 8/5/5 4/5/4
f 9/7/5 10/5/6 8/5/5
f 11/7/6 12/5/7 10/5/6
f 13/7/7 14/5/8 12/5/7
f 15/7/9 16/5/10 14/5/8
f 17/7/11 18/5/12 16/5/10
f 5/7/13 54/8/13 9/7/13
f 118/7/14 62/5/15 114/5/14
f 30/7/16 31/5/15 62/5/15
f 32/7/15 33/5/17 31/5/15
f 34/7/17 35/5/18 33/5/17
f 36/7/18 37/5/19 35/5/18
f 38/7/19 1/5/1 37/5/19
f 41/7/20 42/5/21 70/5/20
f 153/7/22 130/9/22 129/10/22
f 151/7/23 136/7/24 44/7/24
f 44/7/24 45/5/21 119/5/24
f 46/7/21 120/5/4 45/5/21
f 47/7/4 121/5/25 120/5/4
f 48/7/25 143/5/26 121/5/25
f 133/7/27 122/5/28 134/5/27
f 50/7/28 150/5/29 122/5/28
f 185/11/13 222/8/13 216/12/30
f 58/8/17 209/8/31 206/8/17
f 9/7/13 39/8/13 11/7/13
f 257/13/13 239/8/32 38/7/13
f 38/7/13 56/8/13 40/1/13
f 56/8/13 55/8/13 7/4/13
f 180/8/13 225/8/13 218/8/13
f 57/8/17 201/8/2 56/8/2
f 13/7/13 39/8/13 15/7/13
f 244/14/33 263/15/34 247/16/34
f 30/7/16 252/17/2 262/18/2
f 124/19/35 141/20/27 123/21/27
f 67/22/36 66/23/35 124/19/35
f 67/22/36 68/24/2 142/25/36
f 126/26/37 68/24/2 125/27/2
f 127/28/38 69/29/37 126/26/37
f 127/28/38 71/30/39 144/31/38
f 128/32/40 71/30/39 148/33/39
f 146/34/41 72/35/40 128/32/40
f 129/36/3 73/37/41 146/34/41
f 130/38/42 147/10/3 129/36/3
f 131/39/43 74/9/42 130/38/42
f 123/40/27 75/41/43 131/39/43
f 174/8/13 210/8/13 213/8/13
f 15/7/9 164/42/11 17/7/11
f 17/7/11 167/7/12 19/7/12
f 240/8/3 246/8/3 215/8/44
f 200/8/13 195/8/13 198/8/13
f 59/8/31 212/8/45 209/8/31
f 216/43/30 253/44/30 185/45/13
f 176/8/13 225/8/13 192/8/13
f 65/8/46 219/8/47 224/8/46
f 60/8/48 224/8/46 212/8/45
f 168/46/13 195/8/13 171/8/13
f 57/8/17 206/8/17 203/8/17
f 250/47/49 253/48/30 216/49/30
f 55/8/39 201/8/39 197/8/39
f 182/8/13 218/8/13 222/8/13
f 64/8/50 215/8/44 221/8/50
f 174/8/13 204/8/13 207/8/13
f 234/50/27 83/5/51 109/6/27
f 39/8/52 161/7/53 15/7/53
f 55/8/3 194/8/54 54/8/55
f 167/8/27 21/8/27 19/8/27
f 170/8/56 23/8/56 21/8/56
f 173/8/3 25/8/57 23/8/3
f 177/8/57 53/8/58 25/8/57
f 191/8/58 27/8/11 53/8/58
f 179/8/11 29/8/59 27/8/11
f 29/7/59 186/7/2 30/7/16
f 61/8/60 76/8/61 57/8/62
f 77/8/60 78/8/13 76/8/61
f 78/8/13 81/8/13 80/8/13
f 80/8/13 81/8/13 82/8/13
f 85/20/39 86/19/40 84/21/39
f 87/23/40 88/22/41 86/19/40
f 89/25/41 90/27/3 88/22/41
f 91/24/3 92/26/42 90/27/3
f 93/29/42 94/28/43 92/26/42
f 230/51/13 269/52/13 236/53/13
f 95/31/43 96/33/27 94/28/43
f 97/30/27 98/32/35 96/33/27
f 228/54/63 160/55/2 83/4/51
f 99/35/35 100/34/36 98/32/35
f 237/56/3 159/57/3 110/5/3
f 101/37/36 102/36/2 100/34/36
f 271/58/2 108/7/64 160/55/2
f 103/10/2 104/38/37 102/36/2
f 105/59/13 97/60/13 89/61/13
f 268/62/3 109/63/3 159/57/3
f 105/9/37 106/39/38 104/38/37
f 107/41/38 84/40/39 106/39/38
f 133/8/65 135/7/65 132/7/65
f 49/7/26 149/7/27 133/7/27
f 145/5/39 152/7/66 153/5/66
f 151/7/23 119/5/24 154/5/23
f 69/29/13 144/31/13 140/7/13
f 62/5/15 28/8/59 114/5/14
f 24/8/57 115/8/58 52/8/58
f 52/8/58 113/8/11 26/8/11
f 26/8/11 114/8/14 28/8/59
f 53/8/58 41/8/67 25/8/57
f 27/8/11 117/8/58 53/8/58
f 29/8/59 116/8/11 27/8/11
f 30/7/16 118/7/14 29/8/59
f 41/8/67 112/8/3 23/8/3
f 112/8/3 70/8/67 24/8/57
f 23/8/3 25/8/57 41/8/67
f 21/8/56 112/8/56 20/8/56
f 19/8/27 20/8/27 18/5/27
f 114/8/13 115/8/13 70/8/13
f 41/8/22 116/8/22 118/8/22
f 118/7/27 70/8/27 41/8/27
f 51/7/68 111/5/69 150/5/29
f 51/7/13 41/7/13 22/7/13
f 143/7/22 127/31/22 126/29/22
f 121/7/22 125/24/22 67/25/22
f 120/7/22 124/23/22 45/7/22
f 119/7/22 124/23/22 123/20/22
f 147/10/13 158/64/13 157/7/13
f 49/7/26 134/5/27 143/5/26
f 42/5/21 132/7/39 145/5/39
f 150/7/22 111/7/22 70/7/22
f 20/8/22 37/5/22 1/5/22
f 20/8/22 4/8/22 18/5/22
f 8/5/22 18/5/22 4/8/22
f 14/5/22 18/5/22 10/5/22
f 35/5/22 112/8/22 33/5/22
f 112/8/22 31/5/22 33/5/22
f 24/8/22 62/5/22 112/8/22
f 24/8/22 26/8/22 28/8/22
f 6/6/22 1/5/22 2/2/22
f 241/65/13 61/8/60 57/8/62
f 247/66/34 260/67/49 250/47/49
f 257/13/13 34/7/13 32/7/13
f 63/8/70 221/8/50 219/8/47
f 54/8/55 188/8/52 39/8/52
f 133/8/13 43/7/13 50/7/13
f 142/25/13 68/24/13 139/7/13
f 41/7/13 50/7/13 43/7/13
f 66/23/13 138/7/13 137/7/13
f 136/7/13 66/23/13 137/7/13
f 72/35/13 140/7/13 71/30/13
f 72/35/13 73/37/13 149/8/13
f 147/10/13 149/8/13 73/37/13
f 158/68/13 75/41/13 136/7/13
f 122/7/22 70/7/22 42/7/22
f 44/7/24 137/7/21 46/7/21
f 134/8/22 42/7/22 145/7/22
f 154/7/22 123/69/22 131/41/22
f 46/7/21 138/7/4 47/7/4
f 134/8/22 129/10/22 146/37/22
f 128/35/22 134/8/22 146/37/22
f 47/7/4 139/7/25 48/7/25
f 48/7/25 140/7/26 49/7/26
f 128/35/22 143/7/22 134/8/22
f 153/5/22 154/5/22 155/5/22
f 156/7/13 157/7/13 158/64/13
f 156/7/23 152/7/66 157/7/66
f 154/5/23 152/7/66 151/7/23
f 152/7/66 135/7/39 157/7/66
f 269/52/13 227/70/13 233/71/13
f 239/8/71 266/72/72 244/73/33
f 231/74/73 110/75/39 108/76/64
f 239/8/32 242/77/74 241/65/13
f 242/77/74 240/8/75 241/65/13
f 255/78/76 258/79/77 257/13/13
f 258/79/77 256/8/78 257/13/13
f 176/8/79 175/8/80 174/8/81
f 178/8/82 173/8/83 175/8/80
f 171/8/84 175/8/80 172/8/85
f 172/8/85 173/8/83 170/8/86
f 168/46/87 172/8/85 169/7/88
f 169/8/88 170/8/86 167/8/89
f 165/80/90 169/7/88 166/7/91
f 166/7/91 167/7/89 164/7/92
f 162/81/93 166/7/91 163/82/94
f 163/82/94 164/42/92 161/7/95
f 180/8/96 184/8/97 181/8/98
f 181/8/98 183/8/99 179/8/100
f 182/8/101 187/7/102 184/83/97
f 184/7/97 186/7/103 183/7/99
f 180/8/96 193/8/104 192/8/105
f 193/8/104 179/8/100 191/8/106
f 162/81/93 190/8/107 189/84/108
f 163/82/94 188/8/109 190/8/107
f 192/8/105 178/8/82 176/8/79
f 193/8/104 177/8/110 178/8/82
f 194/8/111 190/8/107 188/8/109
f 196/8/112 189/85/108 190/8/107
f 203/8/113 202/8/114 201/8/115
f 205/8/116 200/8/117 202/8/114
f 203/8/113 208/8/118 205/8/116
f 205/8/116 207/8/119 204/8/120
f 209/8/121 208/8/118 206/8/122
f 211/8/123 207/8/119 208/8/118
f 212/8/124 211/8/123 209/8/121
f 214/8/125 210/8/126 211/8/123
f 224/8/127 214/8/125 212/8/124
f 226/8/128 213/8/129 214/8/125
f 219/8/130 223/8/131 220/8/132
f 220/8/132 222/8/133 218/8/134
f 224/8/127 220/8/132 226/8/128
f 226/8/128 218/8/134 225/8/135
f 194/8/111 199/8/136 196/8/112
f 196/8/112 198/8/137 195/8/138
f 197/8/139 202/8/114 199/8/136
f 199/8/136 200/8/117 198/8/137
f 221/8/140 217/8/141 223/8/131
f 223/8/131 216/12/142 222/8/133
f 233/71/143 229/86/144 235/87/145
f 235/88/145 228/56/146 234/50/147
f 233/71/143 270/89/148 269/52/149
f 235/90/145 268/62/150 270/91/148
f 236/53/151 232/92/152 230/51/153
f 238/93/154 231/74/155 232/94/152
f 230/51/153 273/95/156 272/96/157
f 232/97/152 271/58/158 273/98/156
f 240/8/75 245/8/159 243/8/160
f 242/8/74 244/73/161 245/8/159
f 255/78/76 267/99/162 258/100/77
f 258/100/77 266/72/163 256/8/78
f 243/8/160 248/8/164 246/8/165
f 245/8/159 247/16/166 248/8/164
f 265/101/167 264/102/168 267/99/162
f 267/99/162 263/15/169 266/72/163
f 246/8/165 251/8/170 249/8/171
f 248/8/164 250/47/172 251/8/170
f 262/18/173 261/103/174 264/102/168
f 264/102/168 260/67/175 263/104/169
f 259/105/176 254/106/177 261/103/174
f 261/103/174 253/48/178 260/67/175
f 252/17/179 187/107/102 254/106/177
f 254/106/177 185/45/180 253/44/178
f 249/8/171 217/8/141 215/8/181
f 251/8/170 216/49/142 217/8/141
f 236/53/151 270/89/148 238/108/154
f 238/109/154 268/62/150 237/56/182
f 227/70/183 273/110/156 229/111/144
f 229/112/144 271/113/158 228/54/146
f 165/80/13 189/84/13 168/114/13
f 40/1/1 3/115/2 2/2/2
f 7/4/3 5/7/4 4/5/4
f 5/7/4 9/7/5 8/5/5
f 9/7/5 11/7/6 10/5/6
f 11/7/6 13/7/7 12/5/7
f 13/7/7 15/7/9 14/5/8
f 15/7/9 17/7/11 16/5/10
f 17/7/11 19/7/12 18/5/12
f 5/7/13 55/8/13 54/8/13
f 118/7/14 30/7/16 62/5/15
f 30/7/16 32/7/15 31/5/15
f 32/7/15 34/7/17 33/5/17
f 34/7/17 36/7/18 35/5/18
f 36/7/18 38/7/19 37/5/19
f 38/7/19 40/7/1 1/5/1
f 41/7/20 43/7/21 42/5/21
f 129/10/22 145/7/22 153/7/22
f 153/7/22 155/116/22 130/9/22
f 151/7/23 156/7/23 136/7/24
f 44/7/24 46/7/21 45/5/21
f 46/7/21 47/7/4 120/5/4
f 47/7/4 48/7/25 121/5/25
f 48/7/25 49/7/26 143/5/26
f 133/7/27 50/7/28 122/5/28
f 50/7/28 51/7/68 150/5/29
f 185/11/13 182/8/13 222/8/13
f 58/8/17 59/8/31 209/8/31
f 9/7/13 54/8/13 39/8/13
f 38/7/13 36/7/13 257/13/13
f 257/13/13 256/8/78 239/8/32
f 239/8/32 241/117/13 38/7/13
f 38/7/13 57/8/62 56/8/13
f 7/4/13 3/115/13 40/1/13
f 7/4/13 40/1/13 56/8/13
f 55/8/13 5/7/13 7/4/13
f 180/8/13 192/8/13 225/8/13
f 57/8/17 203/8/17 201/8/2
f 13/7/13 11/7/13 39/8/13
f 244/14/33 266/72/72 263/15/34
f 265/101/2 255/78/2 30/7/16
f 30/7/16 186/7/2 252/17/2
f 252/17/2 259/105/2 262/18/2
f 262/18/2 265/101/2 30/7/16
f 124/19/35 66/23/35 141/20/27
f 67/22/36 142/25/36 66/23/35
f 67/22/36 125/27/2 68/24/2
f 126/26/37 69/29/37 68/24/2
f 127/28/38 144/31/38 69/29/37
f 127/28/38 148/33/39 71/30/39
f 128/32/40 72/35/40 71/30/39
f 146/34/41 73/37/41 72/35/40
f 129/36/3 147/10/3 73/37/41
f 130/38/42 74/9/42 147/10/3
f 131/39/43 75/41/43 74/9/42
f 123/40/27 141/69/27 75/41/43
f 213/8/13 176/8/13 174/8/13
f 174/8/13 207/8/13 210/8/13
f 15/7/9 161/7/27 164/42/11
f 17/7/11 164/7/11 167/7/12
f 215/8/44 61/8/44 240/8/3
f 240/8/3 243/8/3 246/8/3
f 246/8/3 249/8/3 215/8/44
f 200/8/13 204/8/13 195/8/13
f 59/8/31 60/8/48 212/8/45
f 176/8/13 213/8/13 225/8/13
f 65/8/46 63/8/70 219/8/47
f 60/8/48 65/8/46 224/8/46
f 168/46/13 189/85/13 195/8/13
f 195/8/13 204/118/13 171/8/13
f 57/8/17 58/8/17 206/8/17
f 250/47/49 260/67/49 253/48/30
f 55/8/39 56/8/39 201/8/39
f 182/8/13 180/8/13 218/8/13
f 64/8/50 61/8/44 215/8/44
f 174/8/13 171/8/13 204/8/13
f 234/50/27 228/56/63 83/5/51
f 39/8/52 188/8/52 161/7/53
f 55/8/3 197/8/3 194/8/54
f 167/8/27 170/8/27 21/8/27
f 170/8/56 173/8/56 23/8/56
f 173/8/3 177/8/57 25/8/57
f 177/8/57 191/8/58 53/8/58
f 191/8/58 179/8/11 27/8/11
f 179/8/11 183/8/59 29/8/59
f 29/7/59 183/7/59 186/7/2
f 61/8/60 77/8/60 76/8/61
f 77/8/60 79/8/13 78/8/13
f 78/8/13 79/8/13 81/8/13
f 85/20/39 87/23/40 86/19/40
f 87/23/40 89/25/41 88/22/41
f 89/25/41 91/24/3 90/27/3
f 91/24/3 93/29/42 92/26/42
f 93/29/42 95/31/43 94/28/43
f 230/51/13 272/96/13 269/52/13
f 95/31/43 97/30/27 96/33/27
f 97/30/27 99/35/35 98/32/35
f 228/54/63 271/113/2 160/55/2
f 99/35/35 101/37/36 100/34/36
f 237/56/3 268/62/3 159/57/3
f 101/37/36 103/10/2 102/36/2
f 271/58/2 231/119/73 108/7/64
f 103/10/2 105/9/37 104/38/37
f 89/61/13 87/120/13 85/121/13
f 85/121/13 107/122/13 105/59/13
f 105/59/13 103/123/13 101/124/13
f 101/124/13 99/125/13 97/60/13
f 97/60/13 95/126/13 93/127/13
f 93/127/13 91/128/13 89/61/13
f 89/61/13 85/121/13 105/59/13
f 105/59/13 101/124/13 97/60/13
f 97/60/13 93/127/13 89/61/13
f 268/62/3 234/129/3 109/63/3
f 105/9/37 107/41/38 106/39/38
f 107/41/38 85/69/39 84/40/39
f 133/8/65 149/8/65 135/7/65
f 49/7/26 140/7/26 149/7/27
f 145/5/39 132/7/39 152/7/66
f 151/7/23 44/7/24 119/5/24
f 140/7/13 139/7/13 69/29/13
f 144/31/13 71/30/13 140/7/13
f 24/8/57 70/8/67 115/8/58
f 52/8/58 115/8/58 113/8/11
f 26/8/11 113/8/11 114/8/14
f 53/8/58 117/8/58 41/8/67
f 27/8/11 116/8/11 117/8/58
f 29/8/59 118/8/14 116/8/11
f 41/8/67 70/8/67 112/8/3
f 21/8/56 23/8/56 112/8/56
f 19/8/27 21/8/27 20/8/27
f 114/8/13 113/8/13 115/8/13
f 41/8/22 117/8/22 116/8/22
f 118/7/27 114/8/27 70/8/27
f 51/7/68 22/7/69 111/5/69
f 126/29/22 121/7/22 143/7/22
f 143/7/22 148/30/22 127/31/22
f 67/25/22 120/7/22 121/7/22
f 121/7/22 126/29/22 125/24/22
f 120/7/22 67/25/22 124/23/22
f 119/7/22 45/7/22 124/23/22
f 157/7/13 135/7/13 147/10/13
f 147/10/13 74/9/13 158/64/13
f 49/7/26 133/7/27 134/5/27
f 42/5/21 43/7/21 132/7/39
f 20/8/22 112/8/22 37/5/22
f 20/8/22 1/5/22 4/8/22
f 8/5/22 10/5/22 18/5/22
f 10/5/22 12/5/22 14/5/22
f 14/5/22 16/5/22 18/5/22
f 35/5/22 37/5/22 112/8/22
f 112/8/22 62/5/22 31/5/22
f 24/8/22 28/8/22 62/5/22
f 24/8/22 52/8/22 26/8/22
f 6/6/22 4/5/22 1/5/22
f 57/8/62 38/7/13 241/65/13
f 241/65/13 240/8/75 61/8/60
f 247/66/34 263/104/34 260/67/49
f 32/7/13 30/7/13 255/130/76
f 257/13/13 36/7/13 34/7/13
f 32/7/13 255/130/76 257/13/13
f 63/8/70 64/8/50 221/8/50
f 54/8/55 194/8/54 188/8/52
f 133/8/13 132/7/13 43/7/13
f 139/7/13 138/7/13 142/25/13
f 68/24/13 69/29/13 139/7/13
f 41/7/13 51/7/13 50/7/13
f 66/23/13 142/25/13 138/7/13
f 136/7/13 141/20/13 66/23/13
f 72/35/13 149/8/13 140/7/13
f 147/10/13 135/7/13 149/8/13
f 136/7/13 156/7/13 158/68/13
f 158/68/13 74/9/13 75/41/13
f 75/41/13 141/69/13 136/7/13
f 122/7/22 150/7/22 70/7/22
f 44/7/24 136/7/24 137/7/21
f 134/8/22 122/7/22 42/7/22
f 130/9/22 155/64/22 154/7/22
f 154/7/22 119/7/22 123/69/22
f 131/41/22 130/9/22 154/7/22
f 46/7/21 137/7/21 138/7/4
f 134/8/22 145/7/22 129/10/22
f 47/7/4 138/7/4 139/7/25
f 48/7/25 139/7/25 140/7/26
f 128/35/22 148/30/22 143/7/22
f 156/7/23 151/7/23 152/7/66
f 154/5/23 153/5/66 152/7/66
f 152/7/66 132/7/39 135/7/39
f 269/52/13 272/96/13 227/70/13
f 239/8/71 256/8/71 266/72/72
f 231/74/73 237/131/39 110/75/39
f 176/8/79 178/8/82 175/8/80
f 178/8/82 177/8/110 173/8/83
f 171/8/84 174/8/81 175/8/80
f 172/8/85 175/8/80 173/8/83
f 168/46/87 171/8/84 172/8/85
f 169/8/88 172/8/85 170/8/86
f 165/80/90 168/114/87 169/7/88
f 166/7/91 169/7/88 167/7/89
f 162/81/93 165/80/90 166/7/91
f 163/82/94 166/7/91 164/42/92
f 180/8/96 182/8/101 184/8/97
f 181/8/98 184/8/97 183/8/99
f 182/8/101 185/11/180 187/7/102
f 184/7/97 187/7/102 186/7/103
f 180/8/96 181/8/98 193/8/104
f 193/8/104 181/8/98 179/8/100
f 162/81/93 163/82/94 190/8/107
f 163/82/94 161/7/95 188/8/109
f 192/8/105 193/8/104 178/8/82
f 193/8/104 191/8/106 177/8/110
f 194/8/111 196/8/112 190/8/107
f 196/8/112 195/8/138 189/85/108
f 203/8/113 205/8/116 202/8/114
f 205/8/116 204/8/120 200/8/117
f 203/8/113 206/8/122 208/8/118
f 205/8/116 208/8/118 207/8/119
f 209/8/121 211/8/123 208/8/118
f 211/8/123 210/8/126 207/8/119
f 212/8/124 214/8/125 211/8/123
f 214/8/125 213/8/129 210/8/126
f 224/8/127 226/8/128 214/8/125
f 226/8/128 225/8/135 213/8/129
f 219/8/130 221/8/140 223/8/131
f 220/8/132 223/8/131 222/8/133
f 224/8/127 219/8/130 220/8/132
f 226/8/128 220/8/132 218/8/134
f 194/8/111 197/8/139 199/8/136
f 196/8/112 199/8/136 198/8/137
f 197/8/139 201/8/115 202/8/114
f 199/8/136 202/8/114 200/8/117
f 221/8/140 215/8/181 217/8/141
f 223/8/131 217/8/141 216/12/142
f 233/71/143 227/70/183 229/86/144
f 235/88/145 229/132/144 228/56/146
f 233/71/143 235/133/145 270/89/148
f 235/90/145 234/129/147 268/62/150
f 236/53/151 238/134/154 232/92/152
f 238/93/154 237/131/182 231/74/155
f 230/51/153 232/135/152 273/95/156
f 232/97/152 231/119/155 271/58/158
f 240/8/75 242/8/74 245/8/159
f 242/8/74 239/8/32 244/73/161
f 255/78/76 265/101/167 267/99/162
f 258/100/77 267/99/162 266/72/163
f 243/8/160 245/8/159 248/8/164
f 245/8/159 244/14/161 247/16/166
f 265/101/167 262/18/173 264/102/168
f 267/99/162 264/102/168 263/15/169
f 246/8/165 248/8/164 251/8/170
f 248/8/164 247/66/166 250/47/172
f 262/18/173 259/105/176 261/103/174
f 264/102/168 261/103/174 260/67/175
f 259/105/176 252/17/179 254/106/177
f 261/103/174 254/106/177 253/48/178
f 252/17/179 186/7/103 187/107/102
f 254/106/177 187/107/102 185/45/180
f 249/8/171 251/8/170 217/8/141
f 251/8/170 250/47/172 216/49/142
f 236/53/151 269/52/149 270/89/148
f 238/109/154 270/91/148 268/62/150
f 227/70/183 272/96/157 273/110/156
f 229/112/144 273/136/156 271/113/158
f 165/80/13 162/81/13 189/84/13
