# Blender 4.3.2
# www.blender.org
mtllib CouplerOpen.mtl
g FrontCouplerOpen_Mesh
v -0.100000 -0.060000 -0.320000
v -0.100000 -0.060000 -0.510000
v -0.100000 0.100000 -0.510000
v 0.100000 -0.060000 -0.320000
v 0.100000 0.100000 -0.320000
v 0.100000 -0.060000 -0.510000
v 0.100000 0.100000 -0.510000
v 0.210000 -0.060000 -0.210000
v 0.210000 0.100000 -0.210000
v 0.230000 -0.060000 -0.120000
v 0.230000 0.100000 -0.120000
v 0.230000 -0.060000 -0.030000
v 0.230000 0.100000 -0.030000
v 0.220000 -0.060000 -0.020000
v 0.220000 0.100000 -0.020000
v 0.190000 -0.060000 -0.020000
v 0.190000 0.100000 -0.020000
v 0.140000 -0.060000 -0.120000
v 0.140000 0.100000 -0.120000
v -0.030000 -0.060000 -0.120000
v -0.030000 0.100000 -0.120000
v -0.060000 0.100000 -0.090000
v -0.060000 -0.060000 -0.010000
v -0.060000 0.100000 -0.010000
v -0.150000 -0.060000 0.050000
v -0.150000 0.100000 0.050000
v -0.180000 -0.060000 -0.010000
v -0.180000 0.100000 -0.010000
v -0.180000 0.100000 -0.090000
v -0.200000 -0.060000 -0.120000
v -0.200000 0.100000 -0.120000
v -0.200000 -0.060000 -0.220000
v -0.200000 0.100000 -0.220000
v -0.180000 -0.060000 -0.240000
v -0.180000 0.100000 -0.240000
v -0.130000 -0.060000 -0.270000
v -0.130000 0.100000 -0.270000
v 0.170000 0.100000 -0.120000
v -0.100000 0.100000 -0.320000
v -0.060000 0.060000 -0.010000
v -0.090000 -0.060000 0.050000
v -0.090000 0.100000 0.050000
v 0.080000 0.100000 -0.180000
v 0.080000 0.100000 -0.320000
v -0.070000 0.100000 -0.320000
v -0.070000 0.100000 -0.140000
v -0.100000 0.100000 -0.110000
v -0.100000 0.100000 -0.040000
v -0.080000 0.100000 -0.020000
v -0.160000 0.100000 -0.140000
v -0.180000 -0.060000 -0.090000
v -0.138258 0.100000 0.031001
v -0.160023 0.100000 -0.019989
v -0.101742 0.100000 0.031001
v -0.060000 -0.020000 -0.010000
v -0.100000 0.130000 -0.110000
v -0.160000 0.130000 -0.110000
v -0.100000 0.130000 -0.040000
v -0.160000 0.130000 -0.020000
v -0.080000 0.130000 -0.020000
v -0.140000 0.130000 0.030000
v -0.102000 0.130000 0.031000
v -0.030000 0.140000 -0.220000
v -0.120000 0.130000 -0.030000
v -0.120000 0.140000 -0.030000
v -0.107500 0.130000 -0.026651
v -0.107500 0.140000 -0.026651
v -0.098349 0.130000 -0.017500
v -0.098349 0.140000 -0.017500
v -0.095000 0.130000 -0.005000
v -0.095000 0.140000 -0.005000
v -0.098349 0.130000 0.007500
v -0.098349 0.140000 0.007500
v -0.107500 0.130000 0.016650
v -0.107500 0.140000 0.016650
v -0.120000 0.130000 0.020000
v -0.120000 0.140000 0.020000
v -0.132500 0.130000 0.016650
v -0.132500 0.140000 0.016650
v -0.141651 0.130000 0.007500
v -0.141651 0.140000 0.007500
v -0.145000 0.130000 -0.005000
v -0.145000 0.140000 -0.005000
v -0.141651 0.130000 -0.017500
v -0.141651 0.140000 -0.017500
v -0.132500 0.130000 -0.026651
v -0.132500 0.140000 -0.026651
v -0.030000 0.140000 -0.290000
v 0.030000 0.140000 -0.220000
v 0.030000 0.140000 -0.290000
v -0.060000 -0.060000 -0.090000
v -0.150000 -0.020000 0.050000
v -0.180000 -0.020000 -0.010000
v -0.090000 -0.020000 0.050000
v -0.150000 0.060000 0.050000
v -0.090000 0.060000 0.050000
v -0.180000 0.060000 -0.010000
v 0.030000 0.140000 -0.255000
v -0.040000 0.140000 -0.255000
v -0.144749 0.060000 -0.036820
v -0.074038 0.060000 0.033891
v -0.074038 -0.020000 0.062175
v -0.074038 0.060000 0.062175
v -0.021005 0.060000 0.086924
v -0.006863 -0.020000 0.101066
v -0.006863 0.060000 0.101066
v -0.006863 0.060000 0.129350
v -0.042218 0.060000 0.164706
v -0.091716 0.060000 0.157634
v -0.173033 0.060000 0.076317
v -0.187175 0.060000 0.019749
v -0.037042 0.070000 0.117103
v -0.037042 -0.020000 0.127455
v -0.042218 0.070000 0.136421
v -0.051184 0.070000 0.141597
v -0.074038 -0.020000 0.033891
v -0.070502 0.070000 0.136421
v -0.075679 0.070000 0.127455
v -0.075679 0.070000 0.117103
v -0.061537 0.070000 0.102960
v -0.051184 0.070000 0.102960
v -0.144749 -0.020000 -0.036820
v -0.021005 -0.020000 0.086924
v -0.006863 -0.020000 0.129350
v -0.042218 -0.020000 0.164706
v -0.173033 -0.020000 0.076317
v -0.042218 -0.020000 0.108137
v -0.037042 -0.020000 0.117103
v -0.042218 -0.020000 0.136421
v -0.051184 -0.020000 0.141597
v -0.061537 -0.020000 0.141598
v -0.075679 -0.020000 0.127455
v -0.070502 -0.020000 0.108137
v -0.061537 -0.020000 0.102960
v -0.051184 -0.020000 0.102960
v -0.066967 0.060000 0.069246
v -0.123536 0.060000 0.125815
v -0.116464 -0.020000 0.132886
v -0.059896 0.070000 0.076317
v -0.021005 0.070000 0.086924
v -0.006863 0.070000 0.101066
v -0.006863 0.070000 0.129350
v -0.042218 0.070000 0.164706
v -0.091716 0.070000 0.157634
v -0.042218 0.070000 0.108137
v -0.037042 0.070000 0.127455
v -0.091716 -0.020000 0.157634
v -0.061537 0.070000 0.141598
v -0.059896 -0.020000 0.076317
v -0.075679 -0.020000 0.117103
v -0.070502 0.070000 0.108137
v -0.070502 -0.020000 0.136421
v -0.116464 0.070000 0.132886
v -0.187175 -0.020000 0.019749
v -0.039289 0.060000 0.086924
v -0.056360 0.060000 0.079853
v -0.056360 -0.020000 0.079853
v -0.039289 -0.020000 0.086924
v -0.055359 -0.020000 0.094871
v -0.039289 0.070000 0.086924
v -0.056360 0.070000 0.079853
v -0.055359 0.070000 0.094871
v -0.084038 0.060000 -0.036109
v -0.084038 -0.020000 -0.036109
v 0.220000 0.137500 -0.020000
v 0.215448 0.140000 -0.022500
v 0.218667 0.139268 -0.020732
v 0.190000 0.137500 -0.020000
v 0.191545 0.140000 -0.022500
v 0.190453 0.139268 -0.020732
v 0.140000 0.137500 -0.120000
v 0.142141 0.140000 -0.121308
v 0.140627 0.139268 -0.120383
v -0.030000 0.137500 -0.120000
v -0.032521 0.140000 -0.121261
v -0.030738 0.139268 -0.120369
v -0.060000 0.137500 -0.090000
v -0.062485 0.140000 -0.091242
v -0.060728 0.139268 -0.090364
v -0.062448 0.140000 -0.011224
v -0.060000 0.137500 -0.010000
v -0.060717 0.139268 -0.010359
v -0.150000 0.137500 0.050000
v -0.148328 0.140000 0.047295
v -0.149510 0.139268 0.049208
v -0.177573 0.140000 -0.011214
v -0.180000 0.137500 -0.010000
v -0.179289 0.139268 -0.010355
v -0.177556 0.140000 -0.096110
v -0.180000 0.137500 -0.090000
v -0.179284 0.139268 -0.091790
v 0.170000 0.137500 -0.120000
v 0.166677 0.140000 -0.120000
v 0.169027 0.139268 -0.120000
v -0.090000 0.137500 0.050000
v -0.091677 0.140000 0.047287
v -0.090491 0.139268 0.049205
v 0.080000 0.137500 -0.180000
v 0.077584 0.140000 -0.179356
v 0.079292 0.139268 -0.179811
v 0.080000 0.137500 -0.320000
v 0.077581 0.140000 -0.317500
v 0.079291 0.139268 -0.319268
v -0.067500 0.140000 -0.317500
v -0.070000 0.137500 -0.320000
v -0.069268 0.139268 -0.319268
v -0.070000 0.137500 -0.140000
v -0.067500 0.140000 -0.138868
v -0.069268 0.139268 -0.139668
v -0.100000 0.137499 -0.110000
v -0.097576 0.140000 -0.108788
v -0.099290 0.139268 -0.109645
v -0.100000 0.137499 -0.040000
v -0.097573 0.140000 -0.038886
v -0.099289 0.139268 -0.039674
v -0.080000 0.137499 -0.020000
v -0.077552 0.140000 -0.018776
v -0.079283 0.139267 -0.019642
v -0.160000 0.137497 -0.140000
v -0.162438 0.140000 -0.140000
v -0.160714 0.139267 -0.140000
v -0.139989 0.140000 0.033802
v -0.138258 0.137498 0.031001
v -0.138765 0.139267 0.031821
v -0.160023 0.137498 -0.019989
v -0.162444 0.140000 -0.018778
v -0.160732 0.139267 -0.019634
v -0.101742 0.137499 0.031001
v -0.100005 0.140000 0.033812
v -0.101233 0.139267 0.031824
v -0.026228 0.150000 -0.225000
v -0.030000 0.145000 -0.220000
v -0.028895 0.148536 -0.221465
v -0.026228 0.150000 -0.285000
v -0.030000 0.145000 -0.290000
v -0.028895 0.148536 -0.288536
v 0.025000 0.150000 -0.225000
v 0.030000 0.145000 -0.220000
v 0.028536 0.148536 -0.221465
v 0.025000 0.150000 -0.285000
v 0.030000 0.145000 -0.290000
v 0.028536 0.148536 -0.288536
v -0.162464 0.100000 -0.220000
v -0.160000 0.100000 -0.217310
v -0.158714 0.100000 -0.222144
v -0.160722 0.100000 -0.219212
v -0.160000 0.113728 -0.211848
v -0.162462 0.115307 -0.213911
v -0.160721 0.114845 -0.213307
v -0.160000 0.126041 -0.195394
v -0.162458 0.128284 -0.196569
v -0.160720 0.127627 -0.196225
v -0.160000 0.134508 -0.170049
v -0.162450 0.136955 -0.170615
v -0.160717 0.136239 -0.170449
v -0.180000 0.137500 -0.139876
v -0.177544 0.140000 -0.140000
v -0.179281 0.139268 -0.139964
v -0.180000 0.100000 -0.217310
v -0.177526 0.100000 -0.220000
v -0.180000 0.100000 -0.222500
v -0.179275 0.100000 -0.219212
v -0.180000 0.134495 -0.170088
v -0.177536 0.136955 -0.170615
v -0.179278 0.136235 -0.170461
v -0.180000 0.126041 -0.195394
v -0.177530 0.128284 -0.196569
v -0.179277 0.127627 -0.196225
v -0.180000 0.113728 -0.211848
v -0.177527 0.115307 -0.213911
v -0.179276 0.114845 -0.213307
v 0.030000 0.145000 -0.255000
v 0.025000 0.150000 -0.255000
v 0.028536 0.148536 -0.255000
v -0.040000 0.145000 -0.255000
v -0.034800 0.150000 -0.255000
v -0.038477 0.148536 -0.255000
vn -0.9637 -0.0000 -0.2669
vn -1.0000 -0.0000 -0.0000
vn 1.0000 -0.0000 -0.0000
vn 0.9239 -0.0000 -0.3827
vn 0.8766 -0.0000 -0.4812
vn 0.9940 -0.0000 -0.1091
vn 0.9239 -0.0000 0.3827
vn 0.3827 -0.0000 0.9239
vn 0.2527 -0.0000 0.9675
vn -0.5257 -0.0000 0.8506
vn -0.5257 -0.0000 0.8507
vn -0.8944 -0.0000 0.4472
vn -0.0000 1.0000 -0.0000
vn -0.9883 -0.0000 0.1527
vn -0.9571 -0.0000 0.2898
vn -0.9897 -0.0000 0.1433
vn -0.9239 -0.0000 -0.3827
vn -0.6154 -0.0000 -0.7882
vn -0.7071 -0.0000 -0.7071
vn -0.0000 0.9988 -0.0495
vn -0.9239 -0.0000 0.3827
vn 0.1289 0.9499 -0.2849
vn -0.0000 0.6080 -0.7939
vn -0.0000 0.8859 -0.4639
vn 1.0000 -0.0000 0.0001
vn -0.9818 -0.0000 0.1901
vn -0.5513 -0.0000 -0.8343
vn 0.5511 -0.0000 -0.8345
vn -0.9818 -0.0000 0.1900
vn -0.0000 0.9779 -0.2092
vn -0.0000 -0.0000 -1.0000
vn 0.9797 -0.0000 -0.2003
vn -0.0000 -0.0000 1.0000
vn -0.6022 -0.0000 0.7984
vn 0.7497 -0.0000 -0.6618
vn 0.8944 -0.0000 -0.4472
vn 0.8817 -0.0000 -0.4719
vn 0.8817 -0.0000 -0.4718
vn 0.7071 -0.0000 0.7071
vn 0.9732 -0.0000 0.2298
vn 0.5257 -0.0000 0.8507
vn -0.9732 -0.0000 0.2298
vn -0.0000 0.9239 -0.3827
vn -0.0000 0.8959 -0.4444
vn -0.0000 0.9576 -0.2880
vn 0.5000 -0.0000 -0.8660
vn 0.8660 -0.0000 -0.5000
vn 0.8660 -0.0000 0.5000
vn 0.5000 -0.0000 0.8660
vn -0.5000 -0.0000 0.8660
vn -0.6022 -0.0000 0.7983
vn -0.8660 -0.0000 0.5000
vn -0.6022 -0.0000 -0.7983
vn -0.8660 -0.0000 -0.5000
vn -0.5000 -0.0000 -0.8660
vn 0.8944 -0.0000 0.4472
vn -0.0000 -1.0000 -0.0000
vn 0.5511 -0.0000 -0.8344
vn -0.0000 0.3696 -0.9292
vn -0.0000 0.6080 -0.7940
vn -0.6022 -0.0000 -0.7984
vn 0.9975 -0.0000 -0.0709
vn 0.1951 -0.0000 -0.9808
vn 0.3827 -0.0000 -0.9239
vn 0.3162 -0.0000 0.9487
vn -0.4472 -0.0000 0.8944
vn -0.7071 -0.0000 0.7071
vn -0.8702 -0.0000 0.4927
vn -0.9802 -0.0000 -0.1979
vn -0.9659 -0.0000 0.2588
vn -0.9659 -0.0000 -0.2588
vn -0.2588 -0.0000 -0.9659
vn 0.2588 -0.0000 -0.9659
vn 0.7071 -0.0000 -0.7071
vn 0.9659 -0.0000 -0.2588
vn 0.9659 -0.0000 0.2588
vn 0.2588 -0.0000 0.9659
vn -0.2588 -0.0000 0.9659
vn -0.5000 0.7071 -0.5000
vn 0.5556 -0.0000 -0.8315
vn -0.9802 -0.0000 -0.1980
vn -0.8000 -0.0000 -0.6000
vn 0.9899 -0.0000 -0.1414
vn 0.3347 0.8729 -0.3550
vn 0.4214 0.8927 -0.1598
vn -0.4209 0.8928 -0.1603
vn -0.3341 0.8730 -0.3553
vn -0.1285 0.9498 -0.2852
vn 0.3588 0.9308 0.0697
vn 0.5774 0.7817 0.2356
vn 0.3216 0.9368 0.1376
vn 0.6997 0.6959 0.1615
vn 0.8427 0.4170 0.3405
vn 0.1998 0.9145 0.3519
vn 0.2359 0.6778 0.6964
vn 0.2948 0.3118 0.9033
vn -0.2462 0.9145 0.3211
vn -0.3083 0.7252 0.6156
vn -0.4378 0.3361 0.8339
vn -0.1747 0.9432 0.2827
vn -0.3822 0.6867 0.6184
vn -0.4727 0.4378 0.7648
vn 0.1524 0.9799 0.1284
vn 0.5193 0.7816 0.3455
vn 0.6498 0.6520 0.3909
vn -0.1628 0.9509 0.2634
vn -0.7017 0.6938 0.1620
vn -0.3726 0.7054 0.6029
vn -0.8884 0.4019 0.2217
vn -0.4651 0.4662 0.7526
vn -0.3615 0.9297 0.0703
vn -0.7128 0.7013 -0.0000
vn -0.9269 0.3753 -0.0000
vn 0.3723 0.7061 0.6024
vn 0.1624 0.9511 0.2627
vn 0.4648 0.4672 0.7521
vn 0.5404 0.6776 -0.4988
vn 0.2810 0.9016 -0.3290
vn 0.7175 0.3949 -0.5738
vn 0.8872 0.4048 0.2214
vn 0.8043 0.3715 -0.4637
vn 0.5633 0.7601 -0.3241
vn -0.8425 0.4137 -0.3451
vn -0.4975 0.7106 -0.4975
vn -0.6101 0.5054 -0.6101
vn -0.5792 0.7795 -0.2384
vn -0.1988 0.9597 -0.1988
vn -0.6766 0.6822 -0.2773
vn -0.3344 0.9336 -0.1290
vn -0.3255 0.9356 -0.1370
vn -0.9017 0.3062 0.3051
vn -0.8409 0.4089 -0.3544
vn -0.7381 0.5910 0.3255
vn -0.9079 0.3114 0.2807
vn -0.6962 0.6727 0.2506
vn -0.5050 0.7755 0.3788
vn -0.4885 0.4799 -0.7287
vn -0.2987 0.8432 -0.4470
vn -0.3968 0.9178 0.0167
vn 0.4888 0.4785 -0.7294
vn 0.6569 0.7423 -0.1317
vn 0.2993 0.8424 -0.4480
vn 0.3568 0.9305 -0.0829
vn 0.1637 0.9539 -0.2516
vn -0.1632 0.9542 -0.2508
vn 0.5022 0.7068 -0.4982
vn 0.2059 0.9584 -0.1977
vn 0.3503 0.9215 -0.1674
vn 0.6109 0.4993 -0.6143
vn 0.9023 0.3959 -0.1707
vn 0.7074 0.7060 -0.0350
vn 0.3909 0.9193 -0.0451
vn 0.1988 0.9597 0.1988
vn -0.4339 0.6935 0.5752
vn 0.4975 0.7106 0.4975
vn -0.5345 0.4605 0.7086
vn 0.6101 0.5055 0.6101
vn 0.7071 0.7071 -0.0000
vn 0.3827 0.9239 -0.0000
vn 0.9239 0.3827 -0.0000
vn 0.1988 0.9597 -0.1988
vn -0.4339 0.6935 -0.5752
vn -0.1891 0.9494 -0.2507
vn 0.4975 0.7106 -0.4975
vn -0.5345 0.4605 -0.7086
vn -0.7288 0.6847 -0.0000
vn -0.3700 0.9290 -0.0000
vn -0.9184 0.3956 -0.0000
vn 0.6886 0.4408 -0.5758
vn 0.9308 0.2222 -0.2902
vn 0.4004 0.5571 -0.7276
vn -0.6875 0.4415 -0.5766
vn -0.3989 0.5575 -0.7281
vn 0.6956 0.6364 -0.3333
vn 0.9278 0.3304 -0.1731
vn 0.3925 0.8147 -0.4268
vn -0.9303 0.2230 -0.2913
vn -0.6944 0.6375 -0.3339
vn -0.3909 0.8154 -0.4271
vn 0.6999 0.6984 -0.1494
vn 0.9272 0.3664 -0.0780
vn 0.3908 0.9000 -0.1931
vn -0.9272 0.3318 -0.1738
vn -0.6989 0.6994 -0.1497
vn -0.3894 0.9006 -0.1928
vn -0.9266 0.3676 -0.0787
vn -0.7059 0.7075 -0.0351
vn -0.3889 0.9201 -0.0457
vn -0.9264 0.3760 -0.0187
vn -0.3902 0.9207 -0.0000
vn 0.9272 0.3741 -0.0190
vn 0.6101 0.5055 -0.6101
vn -0.1891 0.9494 0.2507
vt 0.625000 0.000000
vt 0.375000 0.250000
vt 0.375000 0.000000
vt 0.625000 0.500000
vt 0.375000 0.750000
vt 0.375000 0.500000
vt 0.625000 0.750000
vt 0.000000 0.000000
vt 0.548629 0.658355
vt 0.080682 0.096819
vt 0.078125 0.093750
vt 0.001201 0.001442
vt 0.032913 0.039496
vt 0.004614 0.005537
vt 0.384974 0.461969
vt 0.054980 0.065976
vt 0.625000 0.750000
vt 0.046880 0.056257
vt 0.337388 0.404865
vt 0.548629 0.658355
vt 0.529896 0.635875
vt 0.029081 0.034898
vt 0.337388 0.404865
vt 0.046880 0.056257
vt 0.500000 0.500000
vt 1.000000 1.000000
vt 0.916667 0.500000
vt 1.000000 0.500000
vt 0.916667 1.000000
vt 0.833333 0.500000
vt 0.833333 1.000000
vt 0.750000 0.500000
vt 0.750000 1.000000
vt 0.666667 0.500000
vt 0.666667 1.000000
vt 0.583333 0.500000
vt 0.604506 0.017857
vt 0.392857 0.125000
vt 0.395004 0.017857
vt 0.583333 1.000000
vt 0.500000 0.500000
vt 0.500000 1.000000
vt 0.416667 0.500000
vt 0.750000 0.500000
vt 0.625000 0.625000
vt 0.416667 1.000000
vt 0.333333 0.500000
vt 0.500000 0.750000
vt 0.375000 0.875000
vt 0.333333 1.000000
vt 0.250000 0.500000
vt 0.750000 0.625000
vt 0.250000 1.000000
vt 0.166667 0.500000
vt 0.042154 0.370000
vt 0.250000 0.010000
vt 0.457846 0.370000
vt 0.500000 0.875000
vt 0.375000 1.000000
vt 0.166667 1.000000
vt 0.083333 0.500000
vt 0.083333 1.000000
vt 0.000000 0.500000
vt 0.026797 0.032156
vt 0.004614 0.005537
vt 0.208175 0.249810
vt 0.604506 0.232143
vt 0.395004 0.232143
vt 0.008552 0.010263
vt 0.001201 0.001442
vt 0.250000 0.500000
vt 0.125000 0.750000
vt 0.125000 0.500000
vt 0.397860 0.873895
vt 0.397860 0.873895
vt 0.000000 1.000000
vt 0.000039 0.000047
vt 0.012935 0.015522
vt 0.003789 0.004546
vt 0.617688 0.741226
vt 0.611792 0.734151
vt 0.621503 0.745803
vt 0.002777 0.003333
vt 0.069219 0.083063
vt 0.069219 0.083063
vt 0.620397 0.250000
vt 0.381102 0.250000
vt 0.625000 0.506102
vt 0.375000 0.125000
vt 0.625000 0.994770
vt 0.625000 0.875000
vt 0.620397 0.000000
vt 0.375000 0.743898
vt 0.375000 0.504603
vt 0.625000 0.123563
vt 0.606428 0.125000
vt 0.875000 0.746207
vt 0.875000 0.626437
vt 0.009830 0.011796
vt 0.000173 0.000207
vt 0.019930 0.023916
vt 0.037906 0.045487
vt 0.237326 0.284791
vt 0.032913 0.039496
vt 0.236663 0.283995
vt 0.384616 0.461539
vt 0.616397 0.739676
vt 0.375000 0.005230
vt 0.625000 0.755230
vt 0.625000 0.126437
vt 0.625000 0.246207
vt 0.875000 0.503793
vt 0.750000 0.625000
vt 0.564050 0.676860
vt 0.625000 0.250000
vt 0.026797 0.032156
vt 0.000029 0.000035
vt 0.750000 0.750000
vt 0.370000 0.457846
vt 0.250000 0.490000
vt 0.130000 0.457846
vt 0.010000 0.250000
vt 0.042154 0.130000
vt 0.130000 0.042154
vt 0.370000 0.042154
vt 0.457846 0.130000
vt 0.490000 0.250000
vt 0.500000 1.000000
vt 0.012935 0.015522
vt 0.250000 0.750000
vt 0.397860 0.873895
vt 0.625000 0.745397
vt 0.375000 0.244770
vt 0.381102 0.000000
vt 0.625000 0.003793
vt 0.875000 0.623563
s 1
f 39/1/1 2/2/2 1/3/1
f 7/4/3 4/5/4 6/6/3
f 5/7/4 8/5/5 4/5/4
f 9/7/5 10/5/6 8/5/5
f 11/7/6 12/5/7 10/5/6
f 13/7/7 14/5/8 12/5/7
f 15/7/9 16/5/10 14/5/8
f 17/7/11 18/5/12 16/5/10
f 5/7/13 43/8/13 9/7/13
f 97/7/14 51/5/15 93/5/14
f 29/7/16 30/5/15 51/5/15
f 31/7/15 32/5/17 30/5/15
f 33/7/17 34/5/18 32/5/17
f 35/7/18 36/5/19 34/5/18
f 37/7/19 1/5/1 36/5/19
f 189/9/13 226/8/13 220/10/20
f 47/8/17 213/8/21 210/8/17
f 9/7/13 38/8/13 11/7/13
f 261/11/13 243/8/22 37/7/13
f 37/7/13 45/8/13 39/1/13
f 45/8/13 44/8/13 7/4/13
f 184/8/13 229/8/13 222/8/13
f 46/8/17 205/8/2 45/8/2
f 13/7/13 38/8/13 15/7/13
f 248/12/23 267/13/24 251/14/24
f 29/7/16 256/15/2 266/16/2
f 178/8/13 214/8/13 217/8/13
f 15/7/9 168/17/11 17/7/11
f 17/7/11 171/7/12 19/7/12
f 244/8/3 250/8/3 219/8/25
f 204/8/13 199/8/13 202/8/13
f 48/8/21 216/8/26 213/8/21
f 220/18/20 257/19/20 189/20/13
f 180/8/13 229/8/13 196/8/13
f 54/8/27 223/8/28 228/8/27
f 49/8/29 228/8/27 216/8/26
f 172/21/13 199/8/13 175/8/13
f 46/8/17 210/8/17 207/8/17
f 254/22/30 257/23/20 220/24/20
f 44/8/31 205/8/31 201/8/31
f 186/8/13 222/8/13 226/8/13
f 53/8/32 219/8/25 225/8/32
f 178/8/13 208/8/13 211/8/13
f 238/25/33 63/5/34 89/6/33
f 38/8/35 165/7/36 15/7/36
f 44/8/3 198/8/37 43/8/38
f 171/8/33 21/8/33 19/8/33
f 174/8/39 22/8/39 21/8/39
f 177/8/3 24/8/40 22/8/3
f 181/8/40 42/8/41 24/8/40
f 195/8/41 26/8/11 42/8/41
f 183/8/11 28/8/42 26/8/11
f 28/7/42 190/7/2 29/7/16
f 50/8/43 56/8/44 46/8/45
f 57/8/43 58/8/13 56/8/44
f 58/8/13 61/8/13 60/8/13
f 60/8/13 61/8/13 62/8/13
f 65/26/31 66/27/46 64/28/31
f 67/29/46 68/30/47 66/27/46
f 69/31/47 70/32/3 68/30/47
f 71/33/3 72/34/48 70/32/3
f 73/35/48 74/36/49 72/34/48
f 234/37/13 273/38/13 240/39/13
f 75/40/49 76/41/33 74/36/49
f 77/42/33 78/43/50 76/41/33
f 232/44/51 99/45/2 63/4/34
f 79/46/50 80/47/52 78/43/50
f 241/48/3 98/49/3 90/5/3
f 81/50/52 82/51/2 80/47/52
f 275/52/2 88/7/53 99/45/2
f 83/53/2 84/54/54 82/51/2
f 85/55/13 77/56/13 69/57/13
f 272/58/3 89/59/3 98/49/3
f 85/60/54 86/61/55 84/54/54
f 87/62/55 64/63/31 86/61/55
f 51/5/15 27/8/42 93/5/14
f 23/8/40 94/8/41 41/8/41
f 41/8/41 92/8/11 25/8/11
f 25/8/11 93/8/14 27/8/42
f 42/8/41 40/8/56 24/8/40
f 26/8/11 96/8/41 42/8/41
f 28/8/42 95/8/11 26/8/11
f 29/7/16 97/7/14 28/8/42
f 40/8/56 91/8/3 22/8/3
f 91/8/3 55/8/56 23/8/40
f 22/8/3 24/8/40 40/8/56
f 21/8/39 91/8/39 20/8/39
f 19/8/33 20/8/33 18/5/33
f 93/8/13 94/8/13 55/8/13
f 40/8/57 95/8/57 97/8/57
f 97/7/33 55/8/56 40/8/56
f 20/8/57 36/5/57 1/5/57
f 20/8/57 4/8/57 18/5/57
f 8/5/57 18/5/57 4/8/57
f 14/5/57 18/5/57 10/5/57
f 34/5/57 91/8/57 32/5/57
f 91/8/57 30/5/57 32/5/57
f 23/8/57 51/5/57 91/8/57
f 23/8/57 25/8/57 27/8/57
f 6/6/57 1/5/57 2/2/57
f 245/64/13 50/8/43 46/8/45
f 251/65/24 264/66/30 254/22/30
f 261/11/13 33/7/13 31/7/13
f 52/8/58 225/8/32 223/8/28
f 43/8/38 192/8/35 38/8/35
f 273/38/13 231/67/13 237/68/13
f 243/8/59 270/69/60 248/70/23
f 235/71/61 90/72/31 88/73/53
f 101/7/62 102/5/4 116/5/62
f 157/7/57 134/60/57 133/53/57
f 155/7/63 140/7/64 104/7/64
f 104/7/64 105/5/4 123/5/64
f 106/7/4 124/5/7 105/5/4
f 107/7/7 125/5/65 124/5/7
f 108/7/65 147/5/66 125/5/65
f 137/7/67 126/5/68 138/5/67
f 110/7/68 154/5/69 126/5/68
f 128/27/70 145/26/67 127/28/67
f 113/30/71 112/29/70 128/27/70
f 113/30/71 114/33/19 146/31/71
f 130/34/72 114/33/19 129/32/19
f 131/36/73 115/35/72 130/34/72
f 152/41/74 148/40/73 131/36/73
f 132/43/75 117/42/74 152/41/74
f 150/47/76 118/46/75 132/43/75
f 133/51/39 119/50/76 150/47/76
f 134/54/77 151/53/39 133/51/39
f 135/61/78 120/60/77 134/54/77
f 127/63/67 121/62/78 135/61/78
f 136/7/79 153/8/79 139/7/79
f 109/7/66 153/7/67 137/7/67
f 149/5/74 156/7/80 157/5/80
f 155/7/63 123/5/64 158/5/63
f 115/35/13 148/40/13 144/7/13
f 111/7/81 122/5/82 154/5/69
f 111/7/13 101/7/13 100/7/13
f 147/7/57 131/40/57 130/35/57
f 125/7/57 129/33/57 113/31/57
f 124/7/57 128/29/57 105/7/57
f 123/7/57 128/29/57 127/26/57
f 151/53/13 162/74/13 161/7/13
f 109/7/66 138/5/67 147/5/66
f 102/5/4 136/7/74 149/5/74
f 154/7/57 122/7/57 116/7/57
f 137/8/13 103/7/13 110/7/13
f 146/31/13 114/33/13 143/7/13
f 101/7/13 110/7/13 103/7/13
f 112/29/13 142/7/13 141/7/13
f 140/7/13 112/29/13 141/7/13
f 118/46/13 144/7/13 117/42/13
f 118/46/13 119/50/13 153/8/13
f 151/53/13 153/8/13 119/50/13
f 162/75/13 121/62/13 140/7/13
f 126/7/57 116/7/57 102/7/57
f 104/7/64 141/7/4 106/7/4
f 138/8/57 102/7/57 149/7/57
f 158/7/57 127/76/57 135/62/57
f 106/7/4 142/7/7 107/7/7
f 138/8/57 133/53/57 150/50/57
f 132/46/57 138/8/57 150/50/57
f 107/7/7 143/7/65 108/7/65
f 108/7/65 144/7/66 109/7/66
f 132/46/57 147/7/57 138/8/57
f 157/5/57 158/5/57 159/5/57
f 160/7/13 161/7/13 162/74/13
f 155/7/63 161/7/80 160/7/63
f 158/5/63 156/7/80 155/7/63
f 156/7/80 139/7/74 161/7/80
f 116/5/62 163/7/83 101/7/62
f 101/7/13 163/7/13 100/7/13
f 116/5/57 122/7/57 164/5/57
f 243/8/22 246/77/84 245/64/13
f 246/77/84 244/8/85 245/64/13
f 259/78/86 262/79/87 261/11/13
f 262/79/87 260/8/88 261/11/13
f 180/8/89 179/8/90 178/8/91
f 182/8/92 177/8/93 179/8/90
f 175/8/94 179/8/90 176/8/95
f 176/8/95 177/8/93 174/8/96
f 172/21/97 176/8/95 173/7/98
f 173/8/98 174/8/96 171/8/99
f 169/80/100 173/7/98 170/7/101
f 170/7/101 171/7/99 168/7/102
f 166/81/103 170/7/101 167/82/104
f 167/82/104 168/17/102 165/7/105
f 184/8/106 188/8/107 185/8/108
f 185/8/108 187/8/109 183/8/110
f 186/8/111 191/7/112 188/83/107
f 188/7/107 190/7/113 187/7/109
f 184/8/106 197/8/114 196/8/115
f 197/8/114 183/8/110 195/8/116
f 166/81/103 194/8/117 193/84/118
f 167/82/104 192/8/119 194/8/117
f 196/8/115 182/8/92 180/8/89
f 197/8/114 181/8/120 182/8/92
f 198/8/121 194/8/117 192/8/119
f 200/8/122 193/85/118 194/8/117
f 207/8/123 206/8/124 205/8/125
f 209/8/126 204/8/127 206/8/124
f 207/8/123 212/8/128 209/8/126
f 209/8/126 211/8/129 208/8/130
f 213/8/131 212/8/128 210/8/132
f 215/8/133 211/8/129 212/8/128
f 216/8/134 215/8/133 213/8/131
f 218/8/135 214/8/136 215/8/133
f 228/8/137 218/8/135 216/8/134
f 230/8/138 217/8/139 218/8/135
f 223/8/140 227/8/141 224/8/142
f 224/8/142 226/8/143 222/8/144
f 228/8/137 224/8/142 230/8/138
f 230/8/138 222/8/144 229/8/145
f 198/8/121 203/8/146 200/8/122
f 200/8/122 202/8/147 199/8/148
f 201/8/149 206/8/124 203/8/146
f 203/8/146 204/8/127 202/8/147
f 225/8/150 221/8/151 227/8/141
f 227/8/141 220/10/152 226/8/143
f 237/68/153 233/86/154 239/87/155
f 239/88/155 232/48/156 238/25/157
f 237/68/153 274/89/158 273/38/159
f 239/90/155 272/58/160 274/91/158
f 240/39/161 236/92/162 234/37/163
f 242/93/164 235/71/165 236/94/162
f 234/37/163 277/95/166 276/96/167
f 236/97/162 275/52/168 277/98/166
f 244/8/85 249/8/169 247/8/170
f 246/8/84 248/70/171 249/8/169
f 259/78/86 271/99/172 262/100/87
f 262/100/87 270/69/173 260/8/88
f 247/8/170 252/8/174 250/8/175
f 249/8/169 251/14/176 252/8/174
f 269/101/177 268/102/178 271/99/172
f 271/99/172 267/13/179 270/69/173
f 250/8/175 255/8/180 253/8/181
f 252/8/174 254/22/182 255/8/180
f 266/16/183 265/103/184 268/102/178
f 268/102/178 264/66/185 267/104/179
f 263/105/186 258/106/187 265/103/184
f 265/103/184 257/23/188 264/66/185
f 256/15/189 191/107/112 258/106/187
f 258/106/187 189/20/190 257/19/188
f 253/8/181 221/8/151 219/8/191
f 255/8/180 220/24/152 221/8/151
f 240/39/161 274/89/158 242/108/164
f 242/109/164 272/58/160 241/48/192
f 231/67/193 277/110/166 233/111/154
f 233/112/154 275/113/168 232/44/156
f 169/80/13 193/84/13 172/114/13
f 39/1/1 3/115/2 2/2/2
f 7/4/3 5/7/4 4/5/4
f 5/7/4 9/7/5 8/5/5
f 9/7/5 11/7/6 10/5/6
f 11/7/6 13/7/7 12/5/7
f 13/7/7 15/7/9 14/5/8
f 15/7/9 17/7/11 16/5/10
f 17/7/11 19/7/12 18/5/12
f 5/7/13 44/8/13 43/8/13
f 97/7/14 29/7/16 51/5/15
f 29/7/16 31/7/15 30/5/15
f 31/7/15 33/7/17 32/5/17
f 33/7/17 35/7/18 34/5/18
f 35/7/18 37/7/19 36/5/19
f 37/7/19 39/7/1 1/5/1
f 189/9/13 186/8/13 226/8/13
f 47/8/17 48/8/21 213/8/21
f 9/7/13 43/8/13 38/8/13
f 37/7/13 35/7/13 261/11/13
f 261/11/13 260/8/88 243/8/22
f 243/8/22 245/116/13 37/7/13
f 37/7/13 46/8/45 45/8/13
f 7/4/13 3/115/13 39/1/13
f 7/4/13 39/1/13 45/8/13
f 44/8/13 5/7/13 7/4/13
f 184/8/13 196/8/13 229/8/13
f 46/8/17 207/8/17 205/8/2
f 13/7/13 11/7/13 38/8/13
f 248/12/23 270/69/60 267/13/24
f 269/101/2 259/78/2 29/7/16
f 29/7/16 190/7/2 256/15/2
f 256/15/2 263/105/2 266/16/2
f 266/16/2 269/101/2 29/7/16
f 217/8/13 180/8/13 178/8/13
f 178/8/13 211/8/13 214/8/13
f 15/7/9 165/7/33 168/17/11
f 17/7/11 168/7/11 171/7/12
f 219/8/25 50/8/25 244/8/3
f 244/8/3 247/8/3 250/8/3
f 250/8/3 253/8/3 219/8/25
f 204/8/13 208/8/13 199/8/13
f 48/8/21 49/8/29 216/8/26
f 180/8/13 217/8/13 229/8/13
f 54/8/27 52/8/58 223/8/28
f 49/8/29 54/8/27 228/8/27
f 172/21/13 193/85/13 199/8/13
f 199/8/13 208/117/13 175/8/13
f 46/8/17 47/8/17 210/8/17
f 254/22/30 264/66/30 257/23/20
f 44/8/31 45/8/31 205/8/31
f 186/8/13 184/8/13 222/8/13
f 53/8/32 50/8/25 219/8/25
f 178/8/13 175/8/13 208/8/13
f 238/25/33 232/48/51 63/5/34
f 38/8/35 192/8/35 165/7/36
f 44/8/3 201/8/3 198/8/37
f 171/8/33 174/8/33 21/8/33
f 174/8/39 177/8/39 22/8/39
f 177/8/3 181/8/40 24/8/40
f 181/8/40 195/8/41 42/8/41
f 195/8/41 183/8/11 26/8/11
f 183/8/11 187/8/42 28/8/42
f 28/7/42 187/7/42 190/7/2
f 50/8/43 57/8/43 56/8/44
f 57/8/43 59/8/13 58/8/13
f 58/8/13 59/8/13 61/8/13
f 65/26/31 67/29/46 66/27/46
f 67/29/46 69/31/47 68/30/47
f 69/31/47 71/33/3 70/32/3
f 71/33/3 73/35/48 72/34/48
f 73/35/48 75/40/49 74/36/49
f 234/37/13 276/96/13 273/38/13
f 75/40/49 77/42/33 76/41/33
f 77/42/33 79/46/50 78/43/50
f 232/44/51 275/113/2 99/45/2
f 79/46/50 81/50/52 80/47/52
f 241/48/3 272/58/3 98/49/3
f 81/50/52 83/53/2 82/51/2
f 275/52/2 235/118/61 88/7/53
f 83/53/2 85/60/54 84/54/54
f 69/57/13 67/119/13 65/120/13
f 65/120/13 87/121/13 85/55/13
f 85/55/13 83/122/13 81/123/13
f 81/123/13 79/124/13 77/56/13
f 77/56/13 75/125/13 73/126/13
f 73/126/13 71/127/13 69/57/13
f 69/57/13 65/120/13 85/55/13
f 85/55/13 81/123/13 77/56/13
f 77/56/13 73/126/13 69/57/13
f 272/58/3 238/128/3 89/59/3
f 85/60/54 87/62/55 86/61/55
f 87/62/55 65/76/31 64/63/31
f 23/8/40 55/8/56 94/8/41
f 41/8/41 94/8/41 92/8/11
f 25/8/11 92/8/11 93/8/14
f 42/8/41 96/8/41 40/8/56
f 26/8/11 95/8/11 96/8/41
f 28/8/42 97/8/14 95/8/11
f 40/8/56 55/8/56 91/8/3
f 21/8/39 22/8/39 91/8/39
f 19/8/33 21/8/33 20/8/33
f 93/8/13 92/8/13 94/8/13
f 40/8/57 96/8/57 95/8/57
f 97/7/33 93/8/33 55/8/56
f 20/8/57 91/8/57 36/5/57
f 20/8/57 1/5/57 4/8/57
f 8/5/57 10/5/57 18/5/57
f 10/5/57 12/5/57 14/5/57
f 14/5/57 16/5/57 18/5/57
f 34/5/57 36/5/57 91/8/57
f 91/8/57 51/5/57 30/5/57
f 23/8/57 27/8/57 51/5/57
f 23/8/57 41/8/57 25/8/57
f 6/6/57 4/5/57 1/5/57
f 46/8/45 37/7/13 245/64/13
f 245/64/13 244/8/85 50/8/43
f 251/65/24 267/104/24 264/66/30
f 31/7/13 29/7/13 259/129/86
f 261/11/13 35/7/13 33/7/13
f 31/7/13 259/129/86 261/11/13
f 52/8/58 53/8/32 225/8/32
f 43/8/38 198/8/37 192/8/35
f 273/38/13 276/96/13 231/67/13
f 243/8/59 260/8/59 270/69/60
f 235/71/61 241/130/31 90/72/31
f 101/7/62 103/7/4 102/5/4
f 133/53/57 149/7/57 157/7/57
f 157/7/57 159/131/57 134/60/57
f 155/7/63 160/7/63 140/7/64
f 104/7/64 106/7/4 105/5/4
f 106/7/4 107/7/7 124/5/7
f 107/7/7 108/7/65 125/5/65
f 108/7/65 109/7/66 147/5/66
f 137/7/67 110/7/68 126/5/68
f 110/7/68 111/7/81 154/5/69
f 128/27/70 112/29/70 145/26/67
f 113/30/71 146/31/71 112/29/70
f 113/30/71 129/32/19 114/33/19
f 130/34/72 115/35/72 114/33/19
f 131/36/73 148/40/73 115/35/72
f 152/41/74 117/42/74 148/40/73
f 132/43/75 118/46/75 117/42/74
f 150/47/76 119/50/76 118/46/75
f 133/51/39 151/53/39 119/50/76
f 134/54/77 120/60/77 151/53/39
f 135/61/78 121/62/78 120/60/77
f 127/63/67 145/76/67 121/62/78
f 136/7/79 137/8/79 153/8/79
f 109/7/66 144/7/66 153/7/67
f 149/5/74 136/7/74 156/7/80
f 155/7/63 104/7/64 123/5/64
f 144/7/13 143/7/13 115/35/13
f 148/40/13 117/42/13 144/7/13
f 111/7/81 100/7/82 122/5/82
f 130/35/57 125/7/57 147/7/57
f 147/7/57 152/42/57 131/40/57
f 113/31/57 124/7/57 125/7/57
f 125/7/57 130/35/57 129/33/57
f 124/7/57 113/31/57 128/29/57
f 123/7/57 105/7/57 128/29/57
f 161/7/13 139/7/13 151/53/13
f 151/53/13 120/60/13 162/74/13
f 109/7/66 137/7/67 138/5/67
f 102/5/4 103/7/4 136/7/74
f 137/8/13 136/7/13 103/7/13
f 143/7/13 142/7/13 146/31/13
f 114/33/13 115/35/13 143/7/13
f 101/7/13 111/7/13 110/7/13
f 112/29/13 146/31/13 142/7/13
f 140/7/13 145/26/13 112/29/13
f 118/46/13 153/8/13 144/7/13
f 151/53/13 139/7/13 153/8/13
f 140/7/13 160/7/13 162/75/13
f 162/75/13 120/60/13 121/62/13
f 121/62/13 145/76/13 140/7/13
f 126/7/57 154/7/57 116/7/57
f 104/7/64 140/7/64 141/7/4
f 138/8/57 126/7/57 102/7/57
f 134/60/57 159/74/57 158/7/57
f 158/7/57 123/7/57 127/76/57
f 135/62/57 134/60/57 158/7/57
f 106/7/4 141/7/4 142/7/7
f 138/8/57 149/7/57 133/53/57
f 107/7/7 142/7/7 143/7/65
f 108/7/65 143/7/65 144/7/66
f 132/46/57 152/42/57 147/7/57
f 155/7/63 156/7/80 161/7/80
f 158/5/63 157/5/80 156/7/80
f 156/7/80 136/7/74 139/7/74
f 116/5/62 164/5/83 163/7/83
f 180/8/89 182/8/92 179/8/90
f 182/8/92 181/8/120 177/8/93
f 175/8/94 178/8/91 179/8/90
f 176/8/95 179/8/90 177/8/93
f 172/21/97 175/8/94 176/8/95
f 173/8/98 176/8/95 174/8/96
f 169/80/100 172/114/97 173/7/98
f 170/7/101 173/7/98 171/7/99
f 166/81/103 169/80/100 170/7/101
f 167/82/104 170/7/101 168/17/102
f 184/8/106 186/8/111 188/8/107
f 185/8/108 188/8/107 187/8/109
f 186/8/111 189/9/190 191/7/112
f 188/7/107 191/7/112 190/7/113
f 184/8/106 185/8/108 197/8/114
f 197/8/114 185/8/108 183/8/110
f 166/81/103 167/82/104 194/8/117
f 167/82/104 165/7/105 192/8/119
f 196/8/115 197/8/114 182/8/92
f 197/8/114 195/8/116 181/8/120
f 198/8/121 200/8/122 194/8/117
f 200/8/122 199/8/148 193/85/118
f 207/8/123 209/8/126 206/8/124
f 209/8/126 208/8/130 204/8/127
f 207/8/123 210/8/132 212/8/128
f 209/8/126 212/8/128 211/8/129
f 213/8/131 215/8/133 212/8/128
f 215/8/133 214/8/136 211/8/129
f 216/8/134 218/8/135 215/8/133
f 218/8/135 217/8/139 214/8/136
f 228/8/137 230/8/138 218/8/135
f 230/8/138 229/8/145 217/8/139
f 223/8/140 225/8/150 227/8/141
f 224/8/142 227/8/141 226/8/143
f 228/8/137 223/8/140 224/8/142
f 230/8/138 224/8/142 222/8/144
f 198/8/121 201/8/149 203/8/146
f 200/8/122 203/8/146 202/8/147
f 201/8/149 205/8/125 206/8/124
f 203/8/146 206/8/124 204/8/127
f 225/8/150 219/8/191 221/8/151
f 227/8/141 221/8/151 220/10/152
f 237/68/153 231/67/193 233/86/154
f 239/88/155 233/132/154 232/48/156
f 237/68/153 239/133/155 274/89/158
f 239/90/155 238/128/157 272/58/160
f 240/39/161 242/134/164 236/92/162
f 242/93/164 241/130/192 235/71/165
f 234/37/163 236/135/162 277/95/166
f 236/97/162 235/118/165 275/52/168
f 244/8/85 246/8/84 249/8/169
f 246/8/84 243/8/22 248/70/171
f 259/78/86 269/101/177 271/99/172
f 262/100/87 271/99/172 270/69/173
f 247/8/170 249/8/169 252/8/174
f 249/8/169 248/12/171 251/14/176
f 269/101/177 266/16/183 268/102/178
f 271/99/172 268/102/178 267/13/179
f 250/8/175 252/8/174 255/8/180
f 252/8/174 251/65/176 254/22/182
f 266/16/183 263/105/186 265/103/184
f 268/102/178 265/103/184 264/66/185
f 263/105/186 256/15/189 258/106/187
f 265/103/184 258/106/187 257/23/188
f 256/15/189 190/7/113 191/107/112
f 258/106/187 191/107/112 189/20/190
f 253/8/181 255/8/180 221/8/151
f 255/8/180 254/22/182 220/24/152
f 240/39/161 273/38/159 274/89/158
f 242/109/164 274/91/158 272/58/160
f 231/67/193 276/96/167 277/110/166
f 233/112/154 277/136/166 275/113/168
f 169/80/13 166/81/13 193/84/13
