# Blender 5.1.0
# www.blender.org
mtllib TankCar_2AxleCollision.mtl
g TankCar_2AxleCollision_TankCar_2AxleCollision
v 0.000000 3.300000 2.800000
v 0.707107 3.007107 2.800000
v 0.258819 1.334074 2.800000
v -0.500000 1.433975 2.800000
v -1.000000 2.300000 2.800000
v -0.500000 3.166025 2.800000
v 0.000000 2.300000 3.000000
v 0.000000 2.682683 2.984776
v 0.000000 3.007107 2.941422
v 0.000000 3.223879 2.876537
v 0.099046 2.669644 2.984776
v 0.183013 2.983012 2.941422
v 0.239118 3.192399 2.876537
v 0.258819 3.265926 2.800000
v 0.191342 2.631413 2.984776
v 0.353553 2.912372 2.941422
v 0.461940 3.100103 2.876537
v 0.500000 3.166025 2.800000
v 0.270598 2.570598 2.984776
v 0.500000 2.800000 2.941422
v 0.653281 2.953281 2.876537
v 0.331414 2.491342 2.984776
v 0.612372 2.653553 2.941422
v 0.800103 2.761940 2.876537
v 0.866025 2.800000 2.800000
v 0.369644 2.399045 2.984776
v 0.683013 2.483012 2.941422
v 0.892399 2.539117 2.876537
v 0.965926 2.558819 2.800000
v 0.382683 2.300000 2.984776
v 0.707107 2.300000 2.941422
v 0.923879 2.300000 2.876537
v 1.000000 2.300000 2.800000
v 0.369644 2.200954 2.984776
v 0.683012 2.116987 2.941422
v 0.892399 2.060882 2.876537
v 0.965926 2.041181 2.800000
v 0.331413 2.108658 2.984776
v 0.612372 1.946446 2.941422
v 0.800103 1.838060 2.876537
v 0.866025 1.800000 2.800000
v 0.270598 2.029402 2.984776
v 0.500000 1.800000 2.941422
v 0.653281 1.646719 2.876537
v 0.707107 1.592893 2.800000
v 0.191342 1.968586 2.984776
v 0.353553 1.687628 2.941422
v 0.461940 1.499897 2.876537
v 0.500000 1.433975 2.800000
v 0.099046 1.930356 2.984776
v 0.183013 1.616987 2.941422
v 0.239117 1.407601 2.876537
v -0.000000 1.917316 2.984776
v 0.000000 1.592893 2.941422
v -0.000000 1.376121 2.876537
v -0.000000 1.300000 2.800000
v -0.099046 1.930356 2.984776
v -0.183013 1.616987 2.941422
v -0.239118 1.407601 2.876537
v -0.258819 1.334074 2.800000
v -0.191342 1.968586 2.984776
v -0.353553 1.687628 2.941422
v -0.461940 1.499897 2.876537
v -0.270598 2.029402 2.984776
v -0.500000 1.800000 2.941422
v -0.653281 1.646719 2.876537
v -0.707107 1.592893 2.800000
v -0.331413 2.108658 2.984776
v -0.612372 1.946447 2.941422
v -0.800103 1.838060 2.876537
v -0.866025 1.800000 2.800000
v -0.369644 2.200954 2.984776
v -0.683012 2.116987 2.941422
v -0.892399 2.060882 2.876537
v -0.965926 2.041181 2.800000
v -0.382683 2.300000 2.984776
v -0.707106 2.300000 2.941422
v -0.923879 2.300000 2.876537
v -0.369644 2.399045 2.984776
v -0.683012 2.483012 2.941422
v -0.892399 2.539117 2.876537
v -0.965925 2.558819 2.800000
v -0.331413 2.491342 2.984776
v -0.612372 2.653553 2.941422
v -0.800103 2.761940 2.876537
v -0.866025 2.800000 2.800000
v -0.270598 2.570598 2.984776
v -0.500000 2.799999 2.941422
v -0.653281 2.953281 2.876537
v -0.707106 3.007107 2.800000
v -0.191342 2.631413 2.984776
v -0.353553 2.912372 2.941422
v -0.461939 3.100103 2.876537
v -0.099046 2.669643 2.984776
v -0.183013 2.983012 2.941422
v -0.239117 3.192399 2.876537
v -0.258819 3.265925 2.800000
v 0.258819 3.265926 0.000000
v 0.500000 3.166025 0.000000
v 0.965926 2.558819 0.000000
v 0.965926 2.041181 0.000000
v 0.866025 1.800000 0.000000
v 0.707107 1.592893 0.000000
v -0.000000 1.300000 0.000000
v -0.866025 1.800000 0.000000
v -0.965926 2.041181 0.000000
v -0.965926 2.558819 0.000000
v -1.000000 2.300000 0.000000
v 0.866025 2.800000 0.000000
v 1.000000 2.300000 0.000000
v 0.500000 1.433975 0.000000
v -0.258819 1.334074 0.000000
v -0.707107 1.592893 0.000000
v -0.866025 2.800000 0.000000
v -0.707107 3.007107 0.000000
v -0.258819 3.265925 0.000000
v -0.500000 3.166025 0.000000
v -0.500000 1.433975 0.000000
v 0.258819 1.334074 0.000000
v 0.707107 3.007107 0.000000
v 0.000000 3.300000 0.000000
v -1.000000 1.000000 3.300000
v -1.000000 1.250000 3.300000
v -1.000000 1.000000 0.000000
v -1.000000 1.250000 0.000000
v 1.000000 1.000000 3.300000
v 1.000000 1.250000 3.300000
v 1.000000 1.000000 0.000000
v 1.000000 1.250000 0.000000
v -0.800000 1.400000 3.300000
v -0.800000 1.400000 0.000000
v 0.800000 1.400000 0.000000
v 0.800000 1.400000 3.300000
v -1.150000 0.000000 1.200000
v -1.150000 2.700000 1.200000
v -1.150000 0.000000 0.800000
v -1.150000 2.700000 0.800000
v 1.150000 0.000000 1.200000
v 1.150000 2.700000 1.200000
v 1.150000 0.000000 0.800000
v 1.150000 2.700000 0.800000
v 0.920000 0.000000 2.000000
v 0.920000 2.495000 2.000000
v -0.920000 2.495000 2.000000
v -0.920000 0.000000 2.000000
v -0.488750 3.350000 1.300000
v -0.488750 3.350000 0.570000
v -0.500000 3.166025 -2.800000
v 0.488750 3.350000 1.300000
v 0.391000 3.015000 2.000000
v -0.391000 3.015000 2.000000
v -1.000000 2.300000 -2.800000
v -0.500000 1.433975 -2.800000
v 0.183013 2.983012 -2.941422
v 0.099046 2.669644 -2.984776
v 0.258819 1.334074 -2.800000
v 0.707107 3.007107 -2.800000
v 0.000000 3.223879 -2.876537
v 0.000000 3.007107 -2.941422
v 0.920000 0.000000 0.000000
v 0.920000 2.495000 0.000000
v -0.920001 2.495000 0.000000
v -0.920001 0.000000 0.000000
v 0.000000 3.300000 -2.800000
v 0.000000 2.682683 -2.984776
v 0.000000 2.300000 -3.000000
v 0.488750 3.350000 0.570000
v 0.391000 3.015000 0.000000
v -0.391000 3.015000 0.000000
v 0.239118 3.192399 -2.876537
v 0.258819 3.265926 -2.800000
v 0.191342 2.631413 -2.984776
v 0.353553 2.912372 -2.941422
v 0.461940 3.100103 -2.876537
v 0.500000 3.166025 -2.800000
v 0.270598 2.570598 -2.984776
v 0.500000 2.800000 -2.941422
v 0.653281 2.953281 -2.876537
v 0.331414 2.491342 -2.984776
v 0.612372 2.653553 -2.941422
v 0.800103 2.761940 -2.876537
v 0.866025 2.800000 -2.800000
v 0.369644 2.399045 -2.984776
v 0.683013 2.483012 -2.941422
v 0.892399 2.539117 -2.876537
v 0.965926 2.558819 -2.800000
v 0.382683 2.300000 -2.984776
v 0.707107 2.300000 -2.941422
v 0.923879 2.300000 -2.876537
v 1.000000 2.300000 -2.800000
v 0.369644 2.200954 -2.984776
v 0.683012 2.116987 -2.941422
v 0.892399 2.060882 -2.876537
v 0.965926 2.041181 -2.800000
v 0.331413 2.108658 -2.984776
v 0.612372 1.946446 -2.941422
v 0.800103 1.838060 -2.876537
v 0.866025 1.800000 -2.800000
v 0.270598 2.029402 -2.984776
v 0.500000 1.800000 -2.941422
v 0.653281 1.646719 -2.876537
v 0.707107 1.592893 -2.800000
v 0.191342 1.968586 -2.984776
v 0.353553 1.687628 -2.941422
v 0.461940 1.499897 -2.876537
v 0.500000 1.433975 -2.800000
v 0.099046 1.930356 -2.984776
v 0.183013 1.616987 -2.941422
v 0.239117 1.407601 -2.876537
v -0.000000 1.917316 -2.984776
v 0.000000 1.592893 -2.941422
v -0.000000 1.376121 -2.876537
v -0.000000 1.300000 -2.800000
v -0.099046 1.930356 -2.984776
v -0.183013 1.616987 -2.941422
v -0.239118 1.407601 -2.876537
v -0.258819 1.334074 -2.800000
v -0.191342 1.968586 -2.984776
v -0.353553 1.687628 -2.941422
v -0.461940 1.499897 -2.876537
v -0.270598 2.029402 -2.984776
v -0.500000 1.800000 -2.941422
v -0.653281 1.646719 -2.876537
v -0.707107 1.592893 -2.800000
v -0.331413 2.108658 -2.984776
v -0.612372 1.946447 -2.941422
v -0.800103 1.838060 -2.876537
v -0.866025 1.800000 -2.800000
v -0.369644 2.200954 -2.984776
v -0.683012 2.116987 -2.941422
v -0.892399 2.060882 -2.876537
v -0.965926 2.041181 -2.800000
v -0.382683 2.300000 -2.984776
v -0.707106 2.300000 -2.941422
v -0.923879 2.300000 -2.876537
v -0.369644 2.399045 -2.984776
v -0.683012 2.483012 -2.941422
v -0.892399 2.539117 -2.876537
v -0.965925 2.558819 -2.800000
v -0.331413 2.491342 -2.984776
v -0.612372 2.653553 -2.941422
v -0.800103 2.761940 -2.876537
v -0.866025 2.800000 -2.800000
v -0.270598 2.570598 -2.984776
v -0.500000 2.799999 -2.941422
v -0.653281 2.953281 -2.876537
v -0.707106 3.007107 -2.800000
v -0.191342 2.631413 -2.984776
v -0.353553 2.912372 -2.941422
v -0.461939 3.100103 -2.876537
v -0.099046 2.669643 -2.984776
v -0.183013 2.983012 -2.941422
v -0.239117 3.192399 -2.876537
v -0.258819 3.265925 -2.800000
v -1.000000 1.000000 -3.300000
v -1.000000 1.250000 -3.300000
v 1.000000 1.000000 -3.300000
v 1.000000 1.250000 -3.300000
v -0.800000 1.400000 -3.300000
v 0.800000 1.400000 -3.300000
vn -0.0000 0.9288 0.3707
vn 0.6567 0.6567 0.3707
vn 0.2404 -0.8971 0.3707
vn -0.4644 -0.8043 0.3707
vn -0.9288 -0.0000 0.3707
vn -0.4644 0.8043 0.3707
vn -0.0000 -0.0000 1.0000
vn -0.0000 0.0900 0.9959
vn -0.0000 0.2165 0.9763
vn -0.0000 0.5285 0.8490
vn 0.0233 0.0870 0.9959
vn 0.0560 0.2091 0.9763
vn 0.1368 0.5105 0.8490
vn 0.2404 0.8971 0.3707
vn 0.0450 0.0780 0.9959
vn 0.1083 0.1875 0.9763
vn 0.2642 0.4577 0.8490
vn 0.4644 0.8043 0.3707
vn 0.0637 0.0637 0.9959
vn 0.1531 0.1531 0.9763
vn 0.3737 0.3737 0.8490
vn 0.0780 0.0450 0.9959
vn 0.1875 0.1083 0.9763
vn 0.4577 0.2642 0.8490
vn 0.8043 0.4644 0.3707
vn 0.0870 0.0233 0.9959
vn 0.2091 0.0560 0.9763
vn 0.5105 0.1368 0.8490
vn 0.8971 0.2404 0.3707
vn 0.0900 -0.0000 0.9959
vn 0.2165 -0.0000 0.9763
vn 0.5285 -0.0000 0.8490
vn 0.9288 -0.0000 0.3707
vn 0.0870 -0.0233 0.9959
vn 0.2091 -0.0560 0.9763
vn 0.5105 -0.1368 0.8490
vn 0.8971 -0.2404 0.3707
vn 0.0780 -0.0450 0.9959
vn 0.1875 -0.1083 0.9763
vn 0.4577 -0.2642 0.8490
vn 0.8043 -0.4644 0.3707
vn 0.0637 -0.0637 0.9959
vn 0.1531 -0.1531 0.9763
vn 0.3737 -0.3737 0.8490
vn 0.6567 -0.6567 0.3707
vn 0.0450 -0.0780 0.9959
vn 0.1083 -0.1875 0.9763
vn 0.2642 -0.4577 0.8490
vn 0.4644 -0.8043 0.3707
vn 0.0233 -0.0870 0.9959
vn 0.0560 -0.2091 0.9763
vn 0.1368 -0.5105 0.8490
vn -0.0000 -0.0900 0.9959
vn -0.0000 -0.2165 0.9763
vn -0.0000 -0.5285 0.8490
vn -0.0000 -0.9288 0.3707
vn -0.0233 -0.0870 0.9959
vn -0.0560 -0.2091 0.9763
vn -0.1368 -0.5105 0.8490
vn -0.2404 -0.8971 0.3707
vn -0.0450 -0.0780 0.9959
vn -0.1083 -0.1875 0.9763
vn -0.2642 -0.4577 0.8490
vn -0.0637 -0.0637 0.9959
vn -0.1531 -0.1531 0.9763
vn -0.3737 -0.3737 0.8490
vn -0.6567 -0.6567 0.3707
vn -0.0780 -0.0450 0.9959
vn -0.1875 -0.1083 0.9763
vn -0.4577 -0.2642 0.8490
vn -0.8043 -0.4644 0.3707
vn -0.0870 -0.0233 0.9959
vn -0.2091 -0.0560 0.9763
vn -0.5105 -0.1368 0.8490
vn -0.8971 -0.2404 0.3707
vn -0.0900 -0.0000 0.9959
vn -0.2165 -0.0000 0.9763
vn -0.5285 -0.0000 0.8490
vn -0.0870 0.0233 0.9959
vn -0.2091 0.0560 0.9763
vn -0.5105 0.1368 0.8490
vn -0.8971 0.2404 0.3707
vn -0.0780 0.0450 0.9959
vn -0.1875 0.1083 0.9763
vn -0.4577 0.2642 0.8490
vn -0.8043 0.4644 0.3707
vn -0.0637 0.0637 0.9959
vn -0.1531 0.1531 0.9763
vn -0.3737 0.3737 0.8490
vn -0.6567 0.6567 0.3707
vn -0.0450 0.0780 0.9959
vn -0.1083 0.1875 0.9763
vn -0.2642 0.4577 0.8490
vn -0.0233 0.0870 0.9959
vn -0.0560 0.2091 0.9763
vn -0.1368 0.5105 0.8490
vn -0.2404 0.8971 0.3707
vn 0.2588 0.9659 -0.0000
vn 0.5000 0.8660 -0.0000
vn 0.9659 0.2588 -0.0000
vn 0.9659 -0.2588 -0.0000
vn 0.8660 -0.5000 -0.0000
vn 0.7071 -0.7071 -0.0000
vn -0.0000 -1.0000 -0.0000
vn -0.8660 -0.5000 -0.0000
vn -0.9659 -0.2588 -0.0000
vn -0.9659 0.2588 -0.0000
vn -1.0000 -0.0000 -0.0000
vn 0.8660 0.5000 -0.0000
vn 1.0000 -0.0000 -0.0000
vn 0.5000 -0.8660 -0.0000
vn -0.2588 -0.9659 -0.0000
vn -0.7071 -0.7071 -0.0000
vn -0.8660 0.5000 -0.0000
vn -0.7071 0.7071 -0.0000
vn -0.2588 0.9659 -0.0000
vn -0.5000 0.8660 -0.0000
vn -0.5000 -0.8660 -0.0000
vn 0.2588 -0.9659 -0.0000
vn 0.7071 0.7071 -0.0000
vn -0.0000 1.0000 -0.0000
vn -0.5774 -0.5774 0.5774
vn -0.7025 0.3513 0.6189
vn -0.8944 0.4472 -0.0000
vn 0.5774 -0.5774 0.5774
vn 0.7025 0.3513 0.6189
vn 0.8944 0.4472 -0.0000
vn -0.2424 0.7271 0.6424
vn -0.3162 0.9487 -0.0000
vn 0.3162 0.9487 -0.0000
vn 0.2424 0.7271 0.6424
vn -0.7288 -0.6770 0.1027
vn -0.9069 0.3872 0.1661
vn -0.6613 -0.6143 -0.4304
vn -0.8037 0.2936 -0.5176
vn 0.7288 -0.6770 0.1027
vn 0.9069 0.3872 0.1661
vn 0.6613 -0.6143 -0.4304
vn 0.8037 0.2936 -0.5176
vn 0.4841 -0.5935 0.6429
vn 0.6143 0.2252 0.7563
vn -0.6143 0.2252 0.7563
vn -0.4841 -0.5935 0.6429
vn -0.3708 0.9028 0.2181
vn -0.3507 0.6937 -0.6292
vn -0.4644 0.8043 -0.3707
vn 0.3708 0.9028 0.2181
vn 0.2485 0.5611 0.7896
vn -0.2485 0.5611 0.7896
vn -0.9288 -0.0000 -0.3707
vn -0.4644 -0.8043 -0.3707
vn 0.0560 0.2091 -0.9763
vn 0.0233 0.0870 -0.9959
vn 0.2404 -0.8971 -0.3707
vn 0.6567 0.6567 -0.3707
vn -0.0000 0.5285 -0.8490
vn -0.0000 0.2165 -0.9763
vn 0.4841 -0.5935 -0.6429
vn 0.6146 0.2123 -0.7597
vn -0.6146 0.2123 -0.7597
vn -0.4841 -0.5935 -0.6429
vn -0.0000 0.9288 -0.3707
vn -0.0000 0.0900 -0.9959
vn -0.0000 -0.0000 -1.0000
vn 0.3507 0.6937 -0.6292
vn 0.2525 0.5294 -0.8099
vn -0.2525 0.5294 -0.8099
vn 0.1368 0.5105 -0.8490
vn 0.2404 0.8971 -0.3707
vn 0.0450 0.0780 -0.9959
vn 0.1083 0.1875 -0.9763
vn 0.2642 0.4577 -0.8490
vn 0.4644 0.8043 -0.3707
vn 0.0637 0.0637 -0.9959
vn 0.1531 0.1531 -0.9763
vn 0.3737 0.3737 -0.8490
vn 0.0780 0.0450 -0.9959
vn 0.1875 0.1083 -0.9763
vn 0.4577 0.2642 -0.8490
vn 0.8043 0.4644 -0.3707
vn 0.0870 0.0233 -0.9959
vn 0.2091 0.0560 -0.9763
vn 0.5105 0.1368 -0.8490
vn 0.8971 0.2404 -0.3707
vn 0.0900 -0.0000 -0.9959
vn 0.2165 -0.0000 -0.9763
vn 0.5285 -0.0000 -0.8490
vn 0.9288 -0.0000 -0.3707
vn 0.0870 -0.0233 -0.9959
vn 0.2091 -0.0560 -0.9763
vn 0.5105 -0.1368 -0.8490
vn 0.8971 -0.2404 -0.3707
vn 0.0780 -0.0450 -0.9959
vn 0.1875 -0.1083 -0.9763
vn 0.4577 -0.2642 -0.8490
vn 0.8043 -0.4644 -0.3707
vn 0.0637 -0.0637 -0.9959
vn 0.1531 -0.1531 -0.9763
vn 0.3737 -0.3737 -0.8490
vn 0.6567 -0.6567 -0.3707
vn 0.0450 -0.0780 -0.9959
vn 0.1083 -0.1875 -0.9763
vn 0.2642 -0.4577 -0.8490
vn 0.4644 -0.8043 -0.3707
vn 0.0233 -0.0870 -0.9959
vn 0.0560 -0.2091 -0.9763
vn 0.1368 -0.5105 -0.8490
vn -0.0000 -0.0900 -0.9959
vn -0.0000 -0.2165 -0.9763
vn -0.0000 -0.5285 -0.8490
vn -0.0000 -0.9288 -0.3707
vn -0.0233 -0.0870 -0.9959
vn -0.0560 -0.2091 -0.9763
vn -0.1368 -0.5105 -0.8490
vn -0.2404 -0.8971 -0.3707
vn -0.0450 -0.0780 -0.9959
vn -0.1083 -0.1875 -0.9763
vn -0.2642 -0.4577 -0.8490
vn -0.0637 -0.0637 -0.9959
vn -0.1531 -0.1531 -0.9763
vn -0.3737 -0.3737 -0.8490
vn -0.6567 -0.6567 -0.3707
vn -0.0780 -0.0450 -0.9959
vn -0.1875 -0.1083 -0.9763
vn -0.4577 -0.2642 -0.8490
vn -0.8043 -0.4644 -0.3707
vn -0.0870 -0.0233 -0.9959
vn -0.2091 -0.0560 -0.9763
vn -0.5105 -0.1368 -0.8490
vn -0.8971 -0.2404 -0.3707
vn -0.0900 -0.0000 -0.9959
vn -0.2165 -0.0000 -0.9763
vn -0.5285 -0.0000 -0.8490
vn -0.0870 0.0233 -0.9959
vn -0.2091 0.0560 -0.9763
vn -0.5105 0.1368 -0.8490
vn -0.8971 0.2404 -0.3707
vn -0.0780 0.0450 -0.9959
vn -0.1875 0.1083 -0.9763
vn -0.4577 0.2642 -0.8490
vn -0.8043 0.4644 -0.3707
vn -0.0637 0.0637 -0.9959
vn -0.1531 0.1531 -0.9763
vn -0.3737 0.3737 -0.8490
vn -0.6567 0.6567 -0.3707
vn -0.0450 0.0780 -0.9959
vn -0.1083 0.1875 -0.9763
vn -0.2642 0.4577 -0.8490
vn -0.0233 0.0870 -0.9959
vn -0.0560 0.2091 -0.9763
vn -0.1368 0.5105 -0.8490
vn -0.2404 0.8971 -0.3707
vn -0.5774 -0.5774 -0.5774
vn -0.7025 0.3513 -0.6189
vn 0.5774 -0.5774 -0.5774
vn 0.7025 0.3513 -0.6189
vn -0.2424 0.7271 -0.6424
vn 0.2424 0.7271 -0.6424
vt 1.000000 0.750000
vt 1.000000 1.000000
vt 0.958333 1.000000
vt 0.958333 0.750000
vt 0.916667 1.000000
vt 0.916667 0.750000
vt 0.875000 1.000000
vt 0.875000 0.750000
vt 0.833333 1.000000
vt 0.833333 0.750000
vt 0.791667 1.000000
vt 0.791667 0.750000
vt 0.750000 1.000000
vt 0.750000 0.750000
vt 0.708333 1.000000
vt 0.708333 0.750000
vt 0.666667 1.000000
vt 0.666667 0.750000
vt 0.625000 1.000000
vt 0.625000 0.750000
vt 0.583333 1.000000
vt 0.583333 0.750000
vt 0.541666 1.000000
vt 0.541666 0.750000
vt 0.500000 1.000000
vt 0.500000 0.750000
vt 0.458333 1.000000
vt 0.458333 0.750000
vt 0.416666 1.000000
vt 0.416666 0.750000
vt 0.375000 1.000000
vt 0.375000 0.750000
vt 0.333333 1.000000
vt 0.333333 0.750000
vt 0.291667 1.000000
vt 0.291667 0.750000
vt 0.250000 1.000000
vt 0.250000 0.750000
vt 0.208333 1.000000
vt 0.208333 0.750000
vt 0.166666 1.000000
vt 0.166666 0.750000
vt 0.125000 1.000000
vt 0.125000 0.750000
vt 0.083333 1.000000
vt 0.083333 0.750000
vt 0.041666 1.000000
vt 0.041666 0.750000
vt -0.000000 1.000000
vt -0.000000 0.750000
vt 0.750000 0.500000
vt 0.750000 0.625000
vt 0.708333 0.625000
vt 0.708333 0.500000
vt 0.750000 0.750000
vt 0.750000 0.875000
vt 0.708333 0.875000
vt 0.708333 0.750000
vt 0.729167 1.000000
vt 0.666667 0.750000
vt 0.666667 0.625000
vt 0.687500 1.000000
vt 0.666667 0.875000
vt 0.666667 0.500000
vt 0.625000 0.750000
vt 0.625000 0.625000
vt 0.645833 1.000000
vt 0.625000 0.875000
vt 0.625000 0.500000
vt 0.583333 0.625000
vt 0.583333 0.500000
vt 0.583333 0.875000
vt 0.583333 0.750000
vt 0.604167 1.000000
vt 0.541667 0.625000
vt 0.541667 0.500000
vt 0.541667 0.875000
vt 0.541667 0.750000
vt 0.562500 1.000000
vt 0.500000 0.750000
vt 0.500000 0.625000
vt 0.520833 1.000000
vt 0.500000 0.875000
vt 0.500000 0.500000
vt 0.458333 0.750000
vt 0.458333 0.625000
vt 0.479167 1.000000
vt 0.458333 0.875000
vt 0.458333 0.500000
vt 0.416667 0.625000
vt 0.416667 0.500000
vt 0.416667 0.875000
vt 0.416667 0.750000
vt 0.437500 1.000000
vt 0.375000 0.875000
vt 0.375000 0.750000
vt 0.375000 0.625000
vt 0.395833 1.000000
vt 0.375000 0.500000
vt 0.333333 0.750000
vt 0.333333 0.625000
vt 0.354167 1.000000
vt 0.333333 0.875000
vt 0.333333 0.500000
vt 0.312500 1.000000
vt 0.291667 0.875000
vt 0.291667 0.625000
vt 0.291667 0.500000
vt 0.291667 0.750000
vt 0.250000 0.625000
vt 0.250000 0.500000
vt 0.250000 0.875000
vt 0.250000 0.750000
vt 0.270833 1.000000
vt 0.208333 0.750000
vt 0.208333 0.625000
vt 0.229167 1.000000
vt 0.208333 0.875000
vt 0.208333 0.500000
vt 0.166667 0.750000
vt 0.166667 0.625000
vt 0.187500 1.000000
vt 0.166667 0.875000
vt 0.166667 0.500000
vt 0.125000 0.625000
vt 0.125000 0.500000
vt 0.125000 0.875000
vt 0.125000 0.750000
vt 0.145833 1.000000
vt 0.083333 0.625000
vt 0.083333 0.500000
vt 0.083333 0.875000
vt 0.083333 0.750000
vt 0.104167 1.000000
vt 0.041667 0.750000
vt 0.041667 0.625000
vt 0.062500 1.000000
vt 0.041667 0.875000
vt 0.041667 0.500000
vt 0.000000 0.750000
vt 0.000000 0.625000
vt 0.020833 1.000000
vt 0.000000 0.875000
vt 0.000000 0.500000
vt 1.000000 0.500000
vt 1.000000 0.625000
vt 0.958333 0.625000
vt 0.958333 0.500000
vt 1.000000 0.750000
vt 1.000000 0.875000
vt 0.958333 0.875000
vt 0.958333 0.750000
vt 0.979167 1.000000
vt 0.916667 0.875000
vt 0.916667 0.750000
vt 0.916667 0.625000
vt 0.937500 1.000000
vt 0.916667 0.500000
vt 0.875000 0.750000
vt 0.875000 0.625000
vt 0.895833 1.000000
vt 0.875000 0.875000
vt 0.875000 0.500000
vt 0.854167 1.000000
vt 0.833333 0.875000
vt 0.833333 0.625000
vt 0.833333 0.500000
vt 0.833333 0.750000
vt 0.791667 0.625000
vt 0.791667 0.500000
vt 0.791667 0.875000
vt 0.791667 0.750000
vt 0.812500 1.000000
vt 0.770833 1.000000
vt 0.375000 0.000000
vt 0.625000 0.000000
vt 0.625000 0.250000
vt 0.375000 0.250000
vt 0.625000 0.750000
vt 0.375000 0.750000
vt 0.625000 1.000000
vt 0.375000 1.000000
vt 0.125000 0.750000
vt 0.875000 0.500000
vt 0.875000 0.750000
s 1
f 121/1/121 1/2/1 14/3/14 98/4/98
f 98/4/98 14/3/14 18/5/18 99/6/99
f 99/6/99 18/5/18 2/7/2 120/8/120
f 120/8/120 2/7/2 25/9/25 109/10/109
f 109/10/109 25/9/25 29/11/29 100/12/100
f 100/12/100 29/11/29 33/13/33 110/14/110
f 110/14/110 33/13/33 37/15/37 101/16/101
f 101/16/101 37/15/37 41/17/41 102/18/102
f 102/18/102 41/17/41 45/19/45 103/20/103
f 103/20/103 45/19/45 49/21/49 111/22/111
f 111/22/111 49/21/49 3/23/3 119/24/119
f 119/24/119 3/23/3 56/25/56 104/26/104
f 104/26/104 56/25/56 60/27/60 112/28/112
f 112/28/112 60/27/60 4/29/4 118/30/118
f 118/30/118 4/29/4 67/31/67 113/32/113
f 113/32/113 67/31/67 71/33/71 105/34/105
f 105/34/105 71/33/71 75/35/75 106/36/106
f 106/36/106 75/35/75 5/37/5 108/38/108
f 108/38/108 5/37/5 82/39/82 107/40/107
f 107/40/107 82/39/82 86/41/86 114/42/114
f 114/42/114 86/41/86 90/43/90 115/44/115
f 115/44/115 90/43/90 6/45/6 117/46/117
f 117/46/117 6/45/6 97/47/97 116/48/116
f 116/48/116 97/47/97 1/49/1 121/50/121
f 1/51/1 10/52/10 13/53/13 14/54/14
f 9/55/9 8/56/8 11/57/11 12/58/12
f 10/52/10 9/55/9 12/58/12 13/53/13
f 8/56/8 7/59/7 11/57/11
f 13/53/13 12/58/12 16/60/16 17/61/17
f 11/57/11 7/62/7 15/63/15
f 14/54/14 13/53/13 17/61/17 18/64/18
f 12/58/12 11/57/11 15/63/15 16/60/16
f 17/61/17 16/60/16 20/65/20 21/66/21
f 15/63/15 7/67/7 19/68/19
f 18/64/18 17/61/17 21/66/21 2/69/2
f 16/60/16 15/63/15 19/68/19 20/65/20
f 2/69/2 21/66/21 24/70/24 25/71/25
f 20/65/20 19/68/19 22/72/22 23/73/23
f 21/66/21 20/65/20 23/73/23 24/70/24
f 19/68/19 7/74/7 22/72/22
f 25/71/25 24/70/24 28/75/28 29/76/29
f 23/73/23 22/72/22 26/77/26 27/78/27
f 24/70/24 23/73/23 27/78/27 28/75/28
f 22/72/22 7/79/7 26/77/26
f 28/75/28 27/78/27 31/80/31 32/81/32
f 26/77/26 7/82/7 30/83/30
f 29/76/29 28/75/28 32/81/32 33/84/33
f 27/78/27 26/77/26 30/83/30 31/80/31
f 32/81/32 31/80/31 35/85/35 36/86/36
f 30/83/30 7/87/7 34/88/34
f 33/84/33 32/81/32 36/86/36 37/89/37
f 31/80/31 30/83/30 34/88/34 35/85/35
f 37/89/37 36/86/36 40/90/40 41/91/41
f 35/85/35 34/88/34 38/92/38 39/93/39
f 36/86/36 35/85/35 39/93/39 40/90/40
f 34/88/34 7/94/7 38/92/38
f 39/93/39 38/92/38 42/95/42 43/96/43
f 40/90/40 39/93/39 43/96/43 44/97/44
f 38/92/38 7/98/7 42/95/42
f 41/91/41 40/90/40 44/97/44 45/99/45
f 44/97/44 43/96/43 47/100/47 48/101/48
f 42/95/42 7/102/7 46/103/46
f 45/99/45 44/97/44 48/101/48 49/104/49
f 43/96/43 42/95/42 46/103/46 47/100/47
f 46/103/46 7/105/7 50/106/50
f 49/104/49 48/101/48 52/107/52 3/108/3
f 47/100/47 46/103/46 50/106/50 51/109/51
f 48/101/48 47/100/47 51/109/51 52/107/52
f 3/108/3 52/107/52 55/110/55 56/111/56
f 51/109/51 50/106/50 53/112/53 54/113/54
f 52/107/52 51/109/51 54/113/54 55/110/55
f 50/106/50 7/114/7 53/112/53
f 55/110/55 54/113/54 58/115/58 59/116/59
f 53/112/53 7/117/7 57/118/57
f 56/111/56 55/110/55 59/116/59 60/119/60
f 54/113/54 53/112/53 57/118/57 58/115/58
f 59/116/59 58/115/58 62/120/62 63/121/63
f 57/118/57 7/122/7 61/123/61
f 60/119/60 59/116/59 63/121/63 4/124/4
f 58/115/58 57/118/57 61/123/61 62/120/62
f 4/124/4 63/121/63 66/125/66 67/126/67
f 62/120/62 61/123/61 64/127/64 65/128/65
f 63/121/63 62/120/62 65/128/65 66/125/66
f 61/123/61 7/129/7 64/127/64
f 67/126/67 66/125/66 70/130/70 71/131/71
f 65/128/65 64/127/64 68/132/68 69/133/69
f 66/125/66 65/128/65 69/133/69 70/130/70
f 64/127/64 7/134/7 68/132/68
f 70/130/70 69/133/69 73/135/73 74/136/74
f 68/132/68 7/137/7 72/138/72
f 71/131/71 70/130/70 74/136/74 75/139/75
f 69/133/69 68/132/68 72/138/72 73/135/73
f 74/136/74 73/135/73 77/140/77 78/141/78
f 72/138/72 7/142/7 76/143/76
f 75/139/75 74/136/74 78/141/78 5/144/5
f 73/135/73 72/138/72 76/143/76 77/140/77
f 5/145/5 78/146/78 81/147/81 82/148/82
f 77/149/77 76/150/76 79/151/79 80/152/80
f 78/146/78 77/149/77 80/152/80 81/147/81
f 76/150/76 7/153/7 79/151/79
f 80/152/80 79/151/79 83/154/83 84/155/84
f 81/147/81 80/152/80 84/155/84 85/156/85
f 79/151/79 7/157/7 83/154/83
f 82/148/82 81/147/81 85/156/85 86/158/86
f 85/156/85 84/155/84 88/159/88 89/160/89
f 83/154/83 7/161/7 87/162/87
f 86/158/86 85/156/85 89/160/89 90/163/90
f 84/155/84 83/154/83 87/162/87 88/159/88
f 87/162/87 7/164/7 91/165/91
f 90/163/90 89/160/89 93/166/93 6/167/6
f 88/159/88 87/162/87 91/165/91 92/168/92
f 89/160/89 88/159/88 92/168/92 93/166/93
f 6/167/6 93/166/93 96/169/96 97/170/97
f 92/168/92 91/165/91 94/171/94 95/172/95
f 93/166/93 92/168/92 95/172/95 96/169/96
f 91/165/91 7/173/7 94/171/94
f 96/169/96 95/172/95 9/55/9 10/52/10
f 94/171/94 7/174/7 8/56/8
f 97/170/97 96/169/96 10/52/10 1/51/1
f 95/172/95 94/171/94 8/56/8 9/55/9
f 122/175/122 123/176/123 125/177/124 124/178/113
f 128/99/103 129/69/127 127/179/126 126/180/125
f 126/180/125 127/179/126 123/181/123 122/182/122
f 124/126/113 128/99/103 126/180/125 122/183/122
f 127/179/126 129/69/127 132/69/130 133/179/131
f 132/69/130 131/184/129 130/185/128 133/179/131
f 125/177/124 123/176/123 130/176/128 131/177/129
f 123/181/123 127/179/126 133/179/131 130/181/128
f 134/175/132 135/176/133 137/177/135 136/178/134
f 136/178/134 137/177/135 141/69/139 140/99/138
f 140/99/138 141/69/139 139/179/137 138/180/136
f 139/179/137 149/179/147 150/179/148 143/179/141
f 136/126/134 140/99/138 138/180/136 134/183/132
f 149/179/147 146/185/144 151/185/149 150/179/148
f 139/179/137 141/69/139 167/69/165 149/179/147
f 135/176/133 134/175/132 145/175/143 144/176/142
f 144/181/142 143/179/141 150/179/148 151/181/149
f 142/180/140 143/179/141 144/181/142 145/182/143
f 167/69/165 147/184/145 146/185/144 149/179/147
f 137/177/135 135/176/133 146/176/144 147/177/145
f 138/180/136 139/179/137 143/179/141 142/180/140
f 141/69/139 137/177/135 147/177/145 167/69/165
f 134/183/132 138/180/136 142/180/140 145/183/143
f 146/176/144 135/176/133 144/176/142 151/176/149
f 101/16/101 102/18/102 198/17/196 194/15/192
f 110/14/110 101/16/101 194/15/192 190/13/188
f 100/12/100 110/14/110 190/13/188 186/11/184
f 141/179/139 161/179/159 168/179/166 167/179/165
f 109/10/109 100/12/100 186/11/184 182/9/180
f 167/179/165 168/179/166 169/185/167 147/185/145
f 120/8/120 109/10/109 182/9/180 157/7/155
f 137/176/135 162/176/160 163/175/161 136/175/134
f 162/181/160 169/181/167 168/179/166 161/179/159
f 160/180/158 163/182/161 162/181/160 161/179/159
f 99/6/99 120/8/120 157/7/155 175/5/173
f 98/4/98 99/6/99 175/5/173 171/3/169
f 140/180/138 160/180/158 161/179/159 141/179/139
f 121/1/121 98/4/98 171/3/169 164/2/162
f 136/183/134 163/183/161 160/180/158 140/180/138
f 147/176/145 169/176/167 162/176/160 137/176/135
f 102/18/102 103/20/103 202/19/200 198/17/196
f 103/20/103 111/22/111 206/21/204 202/19/200
f 111/22/111 119/24/119 156/23/154 206/21/204
f 119/24/119 104/26/104 213/25/211 156/23/154
f 104/26/104 112/28/112 217/27/215 213/25/211
f 112/28/112 118/30/118 153/29/151 217/27/215
f 118/30/118 113/32/113 224/31/222 153/29/151
f 113/32/113 105/34/105 228/33/226 224/31/222
f 105/34/105 106/36/106 232/35/230 228/33/226
f 106/36/106 108/38/108 152/37/150 232/35/230
f 108/38/108 107/40/107 239/39/237 152/37/150
f 107/40/107 114/42/114 243/41/241 239/39/237
f 114/42/114 115/44/115 247/43/245 243/41/241
f 115/44/115 117/46/117 148/45/146 247/43/245
f 117/46/117 116/48/116 254/47/252 148/45/146
f 116/48/116 121/50/121 164/49/162 254/47/252
f 164/51/162 171/54/169 170/53/168 158/52/156
f 159/55/157 154/58/152 155/57/153 165/56/163
f 158/52/156 170/53/168 154/58/152 159/55/157
f 165/56/163 155/57/153 166/59/164
f 170/53/168 174/61/172 173/60/171 154/58/152
f 155/57/153 172/63/170 166/62/164
f 171/54/169 175/64/173 174/61/172 170/53/168
f 154/58/152 173/60/171 172/63/170 155/57/153
f 174/61/172 178/66/176 177/65/175 173/60/171
f 172/63/170 176/68/174 166/67/164
f 175/64/173 157/69/155 178/66/176 174/61/172
f 173/60/171 177/65/175 176/68/174 172/63/170
f 157/69/155 182/71/180 181/70/179 178/66/176
f 177/65/175 180/73/178 179/72/177 176/68/174
f 178/66/176 181/70/179 180/73/178 177/65/175
f 176/68/174 179/72/177 166/74/164
f 182/71/180 186/76/184 185/75/183 181/70/179
f 180/73/178 184/78/182 183/77/181 179/72/177
f 181/70/179 185/75/183 184/78/182 180/73/178
f 179/72/177 183/77/181 166/79/164
f 185/75/183 189/81/187 188/80/186 184/78/182
f 183/77/181 187/83/185 166/82/164
f 186/76/184 190/84/188 189/81/187 185/75/183
f 184/78/182 188/80/186 187/83/185 183/77/181
f 189/81/187 193/86/191 192/85/190 188/80/186
f 187/83/185 191/88/189 166/87/164
f 190/84/188 194/89/192 193/86/191 189/81/187
f 188/80/186 192/85/190 191/88/189 187/83/185
f 194/89/192 198/91/196 197/90/195 193/86/191
f 192/85/190 196/93/194 195/92/193 191/88/189
f 193/86/191 197/90/195 196/93/194 192/85/190
f 191/88/189 195/92/193 166/94/164
f 196/93/194 200/96/198 199/95/197 195/92/193
f 197/90/195 201/97/199 200/96/198 196/93/194
f 195/92/193 199/95/197 166/98/164
f 198/91/196 202/99/200 201/97/199 197/90/195
f 201/97/199 205/101/203 204/100/202 200/96/198
f 199/95/197 203/103/201 166/102/164
f 202/99/200 206/104/204 205/101/203 201/97/199
f 200/96/198 204/100/202 203/103/201 199/95/197
f 203/103/201 207/106/205 166/105/164
f 206/104/204 156/108/154 209/107/207 205/101/203
f 204/100/202 208/109/206 207/106/205 203/103/201
f 205/101/203 209/107/207 208/109/206 204/100/202
f 156/108/154 213/111/211 212/110/210 209/107/207
f 208/109/206 211/113/209 210/112/208 207/106/205
f 209/107/207 212/110/210 211/113/209 208/109/206
f 207/106/205 210/112/208 166/114/164
f 212/110/210 216/116/214 215/115/213 211/113/209
f 210/112/208 214/118/212 166/117/164
f 213/111/211 217/119/215 216/116/214 212/110/210
f 211/113/209 215/115/213 214/118/212 210/112/208
f 216/116/214 220/121/218 219/120/217 215/115/213
f 214/118/212 218/123/216 166/122/164
f 217/119/215 153/124/151 220/121/218 216/116/214
f 215/115/213 219/120/217 218/123/216 214/118/212
f 153/124/151 224/126/222 223/125/221 220/121/218
f 219/120/217 222/128/220 221/127/219 218/123/216
f 220/121/218 223/125/221 222/128/220 219/120/217
f 218/123/216 221/127/219 166/129/164
f 224/126/222 228/131/226 227/130/225 223/125/221
f 222/128/220 226/133/224 225/132/223 221/127/219
f 223/125/221 227/130/225 226/133/224 222/128/220
f 221/127/219 225/132/223 166/134/164
f 227/130/225 231/136/229 230/135/228 226/133/224
f 225/132/223 229/138/227 166/137/164
f 228/131/226 232/139/230 231/136/229 227/130/225
f 226/133/224 230/135/228 229/138/227 225/132/223
f 231/136/229 235/141/233 234/140/232 230/135/228
f 229/138/227 233/143/231 166/142/164
f 232/139/230 152/144/150 235/141/233 231/136/229
f 230/135/228 234/140/232 233/143/231 229/138/227
f 152/145/150 239/148/237 238/147/236 235/146/233
f 234/149/232 237/152/235 236/151/234 233/150/231
f 235/146/233 238/147/236 237/152/235 234/149/232
f 233/150/231 236/151/234 166/153/164
f 237/152/235 241/155/239 240/154/238 236/151/234
f 238/147/236 242/156/240 241/155/239 237/152/235
f 236/151/234 240/154/238 166/157/164
f 239/148/237 243/158/241 242/156/240 238/147/236
f 242/156/240 246/160/244 245/159/243 241/155/239
f 240/154/238 244/162/242 166/161/164
f 243/158/241 247/163/245 246/160/244 242/156/240
f 241/155/239 245/159/243 244/162/242 240/154/238
f 244/162/242 248/165/246 166/164/164
f 247/163/245 148/167/146 250/166/248 246/160/244
f 245/159/243 249/168/247 248/165/246 244/162/242
f 246/160/244 250/166/248 249/168/247 245/159/243
f 148/167/146 254/170/252 253/169/251 250/166/248
f 249/168/247 252/172/250 251/171/249 248/165/246
f 250/166/248 253/169/251 252/172/250 249/168/247
f 248/165/246 251/171/249 166/173/164
f 253/169/251 158/52/156 159/55/157 252/172/250
f 251/171/249 165/56/163 166/174/164
f 254/170/252 164/51/162 158/52/156 253/169/251
f 252/172/250 159/55/157 165/56/163 251/171/249
f 255/175/253 124/178/113 125/177/124 256/176/254
f 128/99/103 257/180/255 258/179/256 129/69/127
f 257/180/255 255/182/253 256/181/254 258/179/256
f 124/126/113 255/183/253 257/180/255 128/99/103
f 258/179/256 260/179/258 132/69/130 129/69/127
f 132/69/130 260/179/258 259/185/257 131/184/129
f 125/177/124 131/177/129 259/176/257 256/176/254
f 256/181/254 259/181/257 260/179/258 258/179/256
