# Blender 4.3.2
# www.blender.org
mtllib Wall_Door.mtl
g Wall_Door_Mesh
v -0.100000 0.000000 1.500000
v -0.100000 3.000000 1.500000
v -0.100000 0.000000 -1.500000
v -0.100000 3.000000 -1.500000
v 0.000000 0.000000 1.500000
v 0.000000 3.000000 1.500000
v 0.000000 0.000000 -1.500000
v 0.000000 3.000000 -1.500000
v -0.100000 0.000000 -0.700000
v -0.100000 0.000000 0.700000
v -0.100000 3.000000 0.700000
v -0.100000 3.000000 -0.700000
v 0.000000 0.000000 0.700000
v 0.000000 0.000000 -0.700000
v 0.000000 3.000000 -0.700000
v 0.000000 3.000000 0.700000
v -0.100000 2.500000 1.500000
v -0.100000 2.500000 -1.500000
v 0.000000 2.500000 -1.500000
v 0.000000 2.500000 1.500000
v 0.000000 2.500000 -0.700000
v 0.000000 2.500000 0.700000
v -0.100000 2.500000 0.700000
v -0.100000 2.500000 -0.700000
v 0.000000 0.100000 0.850000
v 0.000000 2.500000 0.850000
v 0.000000 0.100000 0.700000
v 0.000000 2.500000 0.700000
v 0.050000 0.100000 0.850000
v 0.050000 2.500000 0.850000
v 0.050000 0.100000 0.700000
v 0.050000 2.500000 0.700000
v 0.000000 2.650000 0.900000
v 0.000000 2.650000 -0.900000
v 0.000000 2.500000 0.900000
v 0.000000 2.500000 -0.900000
v 0.050000 2.650000 0.900000
v 0.050000 2.650000 -0.900000
v 0.050000 2.500000 0.900000
v 0.050000 2.500000 -0.900000
v 0.000000 0.100000 -0.700000
v 0.000000 2.500000 -0.700000
v 0.000000 0.100000 -0.850000
v 0.000000 2.500000 -0.850000
v 0.050000 0.100000 -0.700000
v 0.050000 2.500000 -0.700000
v 0.050000 0.100000 -0.850000
v 0.050000 2.500000 -0.850000
v -0.200000 0.100000 0.800000
v -0.200000 2.500000 0.800000
v -0.200000 0.100000 0.700000
v -0.200000 2.500000 0.700000
v -0.100000 0.100000 0.800000
v -0.100000 2.500000 0.800000
v -0.100000 0.100000 0.700000
v -0.100000 2.500000 0.700000
v -0.200000 2.600000 1.500000
v -0.200000 2.600000 -1.500000
v -0.200000 2.500000 1.500000
v -0.200000 2.500000 -1.500000
v -0.100000 2.600000 1.500000
v -0.100000 2.600000 -1.500000
v -0.100000 2.500000 1.500000
v -0.100000 2.500000 -1.500000
v -0.200000 0.200000 1.500000
v -0.200000 0.200000 0.800000
v -0.200000 0.100000 1.500000
v -0.200000 0.100000 0.800000
v -0.100000 0.200000 1.500000
v -0.100000 0.200000 0.800000
v -0.100000 0.100000 1.500000
v -0.100000 0.100000 0.800000
v -0.200000 0.200000 -0.800000
v -0.200000 0.200000 -1.500000
v -0.200000 0.100000 -0.800000
v -0.200000 0.100000 -1.500000
v -0.100000 0.200000 -0.800000
v -0.100000 0.200000 -1.500000
v -0.100000 0.100000 -0.800000
v -0.100000 0.100000 -1.500000
v -0.100000 2.500000 -0.800000
v -0.100000 0.100000 -0.800000
v -0.100000 2.500000 -0.700000
v -0.100000 0.100000 -0.700000
v -0.200000 2.500000 -0.800000
v -0.200000 0.100000 -0.800000
v -0.200000 2.500000 -0.700000
v -0.200000 0.100000 -0.700000
vn -1.0000 -0.0000 -0.0000
vn 1.0000 -0.0000 -0.0000
vn -0.0000 -0.0000 -1.0000
vn -0.0000 -1.0000 -0.0000
vn -0.0000 -0.0000 1.0000
vn -0.0000 1.0000 -0.0000
vt 0.625000 0.166667
vt 0.500000 0.250000
vt 0.500000 0.166667
vt 0.625000 0.666667
vt 0.500000 0.750000
vt 0.500000 0.666667
vt 0.625000 0.500000
vt 0.500000 0.583333
vt 0.500000 0.500000
vt 0.625000 0.583333
vt 0.625000 0.000000
vt 0.500000 0.083333
vt 0.500000 0.000000
vt 0.625000 0.083333
vt 0.375000 0.083333
vt 0.375000 0.000000
vt 0.375000 0.583333
vt 0.375000 0.500000
vt 0.375000 0.750000
vt 0.375000 0.666667
vt 0.375000 0.250000
vt 0.375000 0.166667
vt 0.625000 0.250000
vt 0.625000 0.750000
vt 0.375000 1.000000
vt 0.125000 0.750000
vt 0.125000 0.500000
vt 0.875000 0.500000
vt 0.625000 1.000000
vt 0.875000 0.750000
s 0
f 12/1/1 18/2/1 24/3/1
f 16/4/2 20/5/2 22/6/2
f 8/7/2 21/8/2 19/9/2
f 15/10/2 22/6/2 21/8/2
f 2/11/1 23/12/1 17/13/1
f 11/14/1 24/3/1 23/12/1
f 17/13/1 10/15/1 1/16/1
f 19/9/2 14/17/2 7/18/2
f 22/6/2 5/19/2 13/20/2
f 24/3/1 3/21/1 9/22/1
f 10/15/3 22/6/3 13/20/3
f 24/3/4 22/6/4 23/12/4
f 21/8/5 9/22/5 14/17/5
f 26/11/1 27/21/1 25/16/1
f 28/23/3 31/18/3 27/21/3
f 32/7/2 29/19/2 31/18/2
f 30/24/5 25/25/5 29/19/5
f 44/23/3 47/18/3 43/21/3
f 42/11/1 43/21/1 41/16/1
f 34/11/1 35/21/1 33/16/1
f 36/23/4 39/18/4 35/21/4
f 40/7/2 37/19/2 39/18/2
f 38/24/6 33/25/6 37/19/6
f 39/18/5 33/26/5 35/27/5
f 36/28/3 38/24/3 40/7/3
f 48/7/2 45/19/2 47/18/2
f 46/24/5 41/25/5 45/19/5
f 50/11/1 51/21/1 49/16/1
f 52/23/3 55/18/3 51/21/3
f 56/7/2 53/19/2 55/18/2
f 54/24/5 49/25/5 53/19/5
f 68/23/4 71/18/4 67/21/4
f 66/11/1 67/21/1 65/16/1
f 58/11/1 59/21/1 57/16/1
f 60/23/4 63/18/4 59/21/4
f 64/7/2 61/19/2 63/18/2
f 62/24/6 57/25/6 61/19/6
f 70/24/6 65/25/6 69/19/6
f 72/7/2 69/19/2 71/18/2
f 76/23/4 79/18/4 75/21/4
f 74/11/1 75/21/1 73/16/1
f 78/24/6 73/25/6 77/19/6
f 80/7/2 77/19/2 79/18/2
f 83/24/5 88/25/5 84/19/5
f 81/7/2 84/19/2 82/18/2
f 85/23/3 82/18/3 86/21/3
f 87/11/1 86/21/1 88/16/1
f 12/1/1 4/23/1 18/2/1
f 16/4/2 6/24/2 20/5/2
f 8/7/2 15/10/2 21/8/2
f 15/10/2 16/4/2 22/6/2
f 2/11/1 11/14/1 23/12/1
f 11/14/1 12/1/1 24/3/1
f 17/13/1 23/12/1 10/15/1
f 19/9/2 21/8/2 14/17/2
f 22/6/2 20/5/2 5/19/2
f 24/3/1 18/2/1 3/21/1
f 10/15/3 23/12/3 22/6/3
f 24/3/4 21/8/4 22/6/4
f 21/8/5 24/3/5 9/22/5
f 26/11/1 28/23/1 27/21/1
f 28/23/3 32/7/3 31/18/3
f 32/7/2 30/24/2 29/19/2
f 30/24/5 26/29/5 25/25/5
f 44/23/3 48/7/3 47/18/3
f 42/11/1 44/23/1 43/21/1
f 34/11/1 36/23/1 35/21/1
f 36/23/4 40/7/4 39/18/4
f 40/7/2 38/24/2 37/19/2
f 38/24/6 34/29/6 33/25/6
f 39/18/5 37/19/5 33/26/5
f 36/28/3 34/30/3 38/24/3
f 48/7/2 46/24/2 45/19/2
f 46/24/5 42/29/5 41/25/5
f 50/11/1 52/23/1 51/21/1
f 52/23/3 56/7/3 55/18/3
f 56/7/2 54/24/2 53/19/2
f 54/24/5 50/29/5 49/25/5
f 68/23/4 72/7/4 71/18/4
f 66/11/1 68/23/1 67/21/1
f 58/11/1 60/23/1 59/21/1
f 60/23/4 64/7/4 63/18/4
f 64/7/2 62/24/2 61/19/2
f 62/24/6 58/29/6 57/25/6
f 70/24/6 66/29/6 65/25/6
f 72/7/2 70/24/2 69/19/2
f 76/23/4 80/7/4 79/18/4
f 74/11/1 76/23/1 75/21/1
f 78/24/6 74/29/6 73/25/6
f 80/7/2 78/24/2 77/19/2
f 83/24/5 87/29/5 88/25/5
f 81/7/2 83/24/2 84/19/2
f 85/23/3 81/7/3 82/18/3
f 87/11/1 85/23/1 86/21/1
