# Blender 5.0.1
# www.blender.org
mtllib ButtonArm.mtl
g ButtonArm0_Mesh
v -0.000000 -0.100000 0.020000
v -0.000000 -0.100000 0.000000
v 0.070711 -0.070711 0.020000
v 0.070711 -0.070711 0.000000
v 0.100000 0.000000 0.020000
v 0.100000 0.000000 0.000000
v 0.070711 0.070711 0.020000
v 0.070711 0.070711 0.000000
v 0.000000 0.100000 0.020000
v 0.000000 0.100000 0.000000
v -0.070711 0.070711 0.020000
v -0.070711 0.070711 0.000000
v -0.100000 0.000000 0.020000
v -0.100000 0.000000 0.000000
v -0.070711 -0.070711 0.020000
v -0.070711 -0.070711 0.000000
v 0.110000 0.110000 0.000000
v 0.110000 -0.110000 0.000000
v 0.110000 0.110000 0.010000
v 0.110000 -0.110000 0.010000
v -0.110000 0.110000 0.000000
v -0.110000 -0.110000 0.000000
v -0.110000 0.110000 0.010000
v -0.110000 -0.110000 0.010000
v -0.085000 0.100000 0.010000
v -0.085000 0.100000 0.030000
v -0.072010 0.092500 0.010000
v -0.072010 0.092500 0.030000
v -0.072010 0.077500 0.010000
v -0.072010 0.077500 0.030000
v -0.085000 0.070000 0.010000
v -0.085000 0.070000 0.030000
v -0.097990 0.077500 0.010000
v -0.097990 0.077500 0.030000
v -0.097990 0.092500 0.010000
v -0.097990 0.092500 0.030000
v 0.085000 0.100000 0.010000
v 0.085000 0.100000 0.030000
v 0.097990 0.092500 0.010000
v 0.097990 0.092500 0.030000
v 0.097990 0.077500 0.010000
v 0.097990 0.077500 0.030000
v 0.085000 0.070000 0.010000
v 0.085000 0.070000 0.030000
v 0.072010 0.077500 0.010000
v 0.072010 0.077500 0.030000
v 0.072010 0.092500 0.010000
v 0.072010 0.092500 0.030000
v -0.085000 -0.070000 0.010000
v -0.085000 -0.070000 0.030000
v -0.072010 -0.077500 0.010000
v -0.072010 -0.077500 0.030000
v -0.072010 -0.092500 0.010000
v -0.072010 -0.092500 0.030000
v -0.085000 -0.100000 0.010000
v -0.085000 -0.100000 0.030000
v -0.097990 -0.092500 0.010000
v -0.097990 -0.092500 0.030000
v -0.097990 -0.077500 0.010000
v -0.097990 -0.077500 0.030000
v 0.085000 -0.070000 0.010000
v 0.085000 -0.070000 0.030000
v 0.097990 -0.077500 0.010000
v 0.097990 -0.077500 0.030000
v 0.097990 -0.092500 0.010000
v 0.097990 -0.092500 0.030000
v 0.085000 -0.100000 0.010000
v 0.085000 -0.100000 0.030000
v 0.072010 -0.092500 0.010000
v 0.072010 -0.092500 0.030000
v 0.072010 -0.077500 0.010000
v 0.072010 -0.077500 0.030000
v -0.020000 -0.030000 0.120000
v -0.020000 0.030000 0.120000
v -0.020000 -0.030000 0.020000
v -0.020000 0.030000 0.020000
v 0.020000 -0.030000 0.120000
v 0.020000 0.030000 0.120000
v 0.020000 -0.030000 0.020000
v 0.020000 0.030000 0.020000
v -0.040000 0.000000 0.070000
v 0.040000 0.000000 0.070000
v -0.040000 -0.035355 0.084645
v 0.040000 -0.035355 0.084645
v -0.040000 -0.050000 0.120000
v 0.040000 -0.050000 0.120000
v -0.040000 -0.035355 0.155355
v 0.040000 -0.035355 0.155355
v -0.040000 0.000000 0.170000
v 0.040000 0.000000 0.170000
v -0.040000 0.035355 0.155355
v 0.040000 0.035355 0.155355
v -0.040000 0.050000 0.120000
v 0.040000 0.050000 0.120000
v -0.040000 0.035355 0.084645
v 0.040000 0.035355 0.084645
vn 0.3827 -0.9239 -0.0000
vn 0.9239 -0.3827 -0.0000
vn 0.9239 0.3827 -0.0000
vn 0.3827 0.9239 -0.0000
vn -0.3827 0.9239 -0.0000
vn -0.9239 0.3827 -0.0000
vn -0.9239 -0.3827 -0.0000
vn -0.3827 -0.9239 -0.0000
vn -0.0000 -0.0000 1.0000
vn -0.0000 1.0000 -0.0000
vn -0.0000 -1.0000 -0.0000
vn 1.0000 -0.0000 -0.0000
vn -1.0000 -0.0000 -0.0000
vn 0.5000 0.8660 -0.0000
vn 0.5000 -0.8660 -0.0000
vn -0.5000 -0.8660 -0.0000
vn -0.5000 0.8660 -0.0000
vn -0.0000 -0.3827 -0.9239
vn -0.0000 -0.9239 -0.3827
vn -0.0000 -0.9239 0.3827
vn -0.0000 -0.3827 0.9239
vn -0.0000 0.3827 0.9239
vn -0.0000 0.9239 0.3827
vn -0.0000 0.9239 -0.3827
vn -0.0000 0.3827 -0.9239
vt 1.000000 1.000000
vt 0.875000 0.500000
vt 1.000000 0.500000
vt 0.875000 1.000000
vt 0.750000 0.500000
vt 0.750000 1.000000
vt 0.625000 0.500000
vt 0.625000 1.000000
vt 0.500000 0.500000
vt 0.500000 1.000000
vt 0.375000 0.500000
vt 0.375000 1.000000
vt 0.250000 0.500000
vt 0.250000 1.000000
vt 0.125000 0.500000
vt 0.125000 1.000000
vt 0.000000 0.500000
vt 0.919706 0.080294
vt 0.580294 0.080294
vt 0.580294 0.419706
vt 0.625000 0.000000
vt 0.375000 0.250000
vt 0.375000 0.000000
vt 0.625000 0.250000
vt 0.375000 0.750000
vt 0.625000 0.750000
vt 0.833333 1.000000
vt 0.833333 0.500000
vt 0.666667 0.500000
vt 0.666667 1.000000
vt 0.500000 0.500000
vt 0.500000 1.000000
vt 0.333333 0.500000
vt 0.250000 0.490000
vt 0.042154 0.130000
vt 0.457846 0.130000
vt 0.333333 1.000000
vt 0.166667 0.500000
vt -0.000000 1.000000
vt -0.000000 0.500000
vt 0.166667 1.000000
vt 0.125000 0.750000
vt 0.010000 0.250000
vt 0.250000 0.010000
vt 0.490000 0.250000
vt 0.000000 1.000000
vt 0.750000 0.490000
vt 0.919706 0.419706
vt 0.990000 0.250000
vt 0.750000 0.010000
vt 0.510000 0.250000
vt 0.875000 0.750000
vt 0.457846 0.370000
vt 0.042154 0.370000
vt 0.419706 0.419706
vt 0.080294 0.419706
vt 0.080294 0.080294
vt 0.419706 0.080294
s 0
f 2/1/1 3/2/1 1/3/1
f 4/4/2 5/5/2 3/2/2
f 6/6/3 7/7/3 5/5/3
f 8/8/4 9/9/4 7/7/4
f 10/10/5 11/11/5 9/9/5
f 12/12/6 13/13/6 11/11/6
f 14/14/7 15/15/7 13/13/7
f 16/16/8 1/17/8 15/15/8
f 7/18/9 11/19/9 15/20/9
f 21/21/10 19/22/10 17/23/10
f 18/24/11 24/11/11 22/22/11
f 19/7/9 24/25/9 20/11/9
f 17/26/12 20/12/12 18/25/12
f 23/2/13 22/26/13 24/7/13
f 25/3/14 28/27/14 27/28/14
f 28/27/12 29/29/12 27/28/12
f 30/30/15 31/31/15 29/29/15
f 32/32/16 33/33/16 31/31/16
f 26/34/9 34/35/9 30/36/9
f 34/37/13 35/38/13 33/33/13
f 35/38/17 26/39/17 25/40/17
f 38/1/14 39/28/14 37/3/14
f 40/27/12 41/29/12 39/28/12
f 42/30/15 43/31/15 41/29/15
f 44/32/16 45/33/16 43/31/16
f 38/34/9 46/35/9 42/36/9
f 46/37/13 47/38/13 45/33/13
f 48/41/17 37/40/17 47/38/17
f 50/1/14 51/28/14 49/3/14
f 52/27/12 53/29/12 51/28/12
f 54/30/15 55/31/15 53/29/15
f 56/32/16 57/33/16 55/31/16
f 50/34/9 58/35/9 54/36/9
f 58/37/13 59/38/13 57/33/13
f 60/41/17 49/40/17 59/38/17
f 62/1/14 63/28/14 61/3/14
f 64/27/12 65/29/12 63/28/12
f 66/30/15 67/31/15 65/29/15
f 68/32/16 69/33/16 67/31/16
f 62/34/9 70/35/9 66/36/9
f 70/37/13 71/38/13 69/33/13
f 72/41/17 61/40/17 71/38/17
f 74/21/13 75/22/13 73/23/13
f 80/7/12 77/25/12 79/11/12
f 79/11/11 73/42/11 75/15/11
f 76/2/10 78/26/10 80/7/10
f 81/3/18 84/4/18 83/2/18
f 84/4/19 85/5/19 83/2/19
f 86/6/20 87/7/20 85/5/20
f 88/8/21 89/9/21 87/7/21
f 90/10/22 91/11/22 89/9/22
f 92/12/23 93/13/23 91/11/23
f 94/43/12 90/44/12 86/45/12
f 94/14/24 95/15/24 93/13/24
f 95/15/25 82/46/25 81/17/25
f 87/18/13 91/19/13 95/20/13
f 2/1/1 4/4/1 3/2/1
f 4/4/2 6/6/2 5/5/2
f 6/6/3 8/8/3 7/7/3
f 8/8/4 10/10/4 9/9/4
f 10/10/5 12/12/5 11/11/5
f 12/12/6 14/14/6 13/13/6
f 14/14/7 16/16/7 15/15/7
f 16/16/8 2/46/8 1/17/8
f 15/20/9 1/47/9 3/48/9
f 3/48/9 5/49/9 7/18/9
f 7/18/9 9/50/9 11/19/9
f 11/19/9 13/51/9 15/20/9
f 15/20/9 3/48/9 7/18/9
f 21/21/10 23/24/10 19/22/10
f 18/24/11 20/7/11 24/11/11
f 19/7/9 23/26/9 24/25/9
f 17/26/12 19/8/12 20/12/12
f 23/2/13 21/52/13 22/26/13
f 25/3/14 26/1/14 28/27/14
f 28/27/12 30/30/12 29/29/12
f 30/30/15 32/32/15 31/31/15
f 32/32/16 34/37/16 33/33/16
f 30/36/9 28/53/9 26/34/9
f 26/34/9 36/54/9 34/35/9
f 34/35/9 32/44/9 30/36/9
f 34/37/13 36/41/13 35/38/13
f 35/38/17 36/41/17 26/39/17
f 38/1/14 40/27/14 39/28/14
f 40/27/12 42/30/12 41/29/12
f 42/30/15 44/32/15 43/31/15
f 44/32/16 46/37/16 45/33/16
f 42/36/9 40/53/9 38/34/9
f 38/34/9 48/54/9 46/35/9
f 46/35/9 44/44/9 42/36/9
f 46/37/13 48/41/13 47/38/13
f 48/41/17 38/39/17 37/40/17
f 50/1/14 52/27/14 51/28/14
f 52/27/12 54/30/12 53/29/12
f 54/30/15 56/32/15 55/31/15
f 56/32/16 58/37/16 57/33/16
f 54/36/9 52/53/9 50/34/9
f 50/34/9 60/54/9 58/35/9
f 58/35/9 56/44/9 54/36/9
f 58/37/13 60/41/13 59/38/13
f 60/41/17 50/39/17 49/40/17
f 62/1/14 64/27/14 63/28/14
f 64/27/12 66/30/12 65/29/12
f 66/30/15 68/32/15 67/31/15
f 68/32/16 70/37/16 69/33/16
f 66/36/9 64/53/9 62/34/9
f 62/34/9 72/54/9 70/35/9
f 70/35/9 68/44/9 66/36/9
f 70/37/13 72/41/13 71/38/13
f 72/41/17 62/39/17 61/40/17
f 74/21/13 76/24/13 75/22/13
f 80/7/12 78/26/12 77/25/12
f 79/11/11 77/25/11 73/42/11
f 76/2/10 74/52/10 78/26/10
f 81/3/18 82/1/18 84/4/18
f 84/4/19 86/6/19 85/5/19
f 86/6/20 88/8/20 87/7/20
f 88/8/21 90/10/21 89/9/21
f 90/10/22 92/12/22 91/11/22
f 92/12/23 94/14/23 93/13/23
f 86/45/12 84/55/12 82/34/12
f 82/34/12 96/56/12 94/43/12
f 94/43/12 92/57/12 90/44/12
f 90/44/12 88/58/12 86/45/12
f 86/45/12 82/34/12 94/43/12
f 94/14/24 96/16/24 95/15/24
f 95/15/25 96/16/25 82/46/25
f 95/20/13 81/47/13 83/48/13
f 83/48/13 85/49/13 87/18/13
f 87/18/13 89/50/13 91/19/13
f 91/19/13 93/51/13 95/20/13
f 95/20/13 83/48/13 87/18/13
g ButtonArm1_Mesh
v -0.020000 -0.500000 -0.030000
v -0.020000 -0.500000 0.030000
v -0.020000 0.000000 -0.030000
v -0.020000 0.000000 0.030000
v 0.020000 -0.500000 -0.030000
v 0.020000 -0.500000 0.030000
v 0.020000 0.000000 -0.030000
v 0.020000 0.000000 0.030000
v -0.040000 -0.500000 -0.050000
v 0.040000 -0.500000 -0.050000
v -0.040000 -0.535355 -0.035355
v 0.040000 -0.535355 -0.035355
v -0.040000 -0.550000 0.000000
v 0.040000 -0.550000 0.000000
v -0.040000 -0.535355 0.035355
v 0.040000 -0.535355 0.035355
v -0.040000 -0.500000 0.050000
v 0.040000 -0.500000 0.050000
v -0.040000 -0.464645 0.035355
v 0.040000 -0.464645 0.035355
v -0.040000 -0.450000 0.000000
v 0.040000 -0.450000 0.000000
v -0.040000 -0.464645 -0.035355
v 0.040000 -0.464645 -0.035355
v -0.016000 -0.250000 -0.070000
v 0.016000 -0.250000 -0.070000
v -0.016000 -0.278284 -0.058284
v 0.016000 -0.278284 -0.058284
v -0.016000 -0.290000 -0.030000
v 0.016000 -0.290000 -0.030000
v -0.016000 -0.278284 -0.001716
v 0.016000 -0.278284 -0.001716
v -0.016000 -0.250000 0.010000
v 0.016000 -0.250000 0.010000
v -0.016000 -0.221716 -0.001716
v 0.016000 -0.221716 -0.001716
v -0.016000 -0.210000 -0.030000
v 0.016000 -0.210000 -0.030000
v -0.016000 -0.221716 -0.058284
v 0.016000 -0.221716 -0.058284
vn -0.0000 -0.3827 -0.9239
vn -0.0000 -0.9239 -0.3827
vn -1.0000 -0.0000 -0.0000
vn -0.0000 -0.9239 0.3827
vn 1.0000 -0.0000 -0.0000
vn -0.0000 -0.0000 -1.0000
vn -0.0000 -0.0000 1.0000
vn -0.0000 -0.3827 0.9239
vn -0.0000 0.3827 0.9239
vn -0.0000 0.9239 0.3827
vn -0.0000 0.9239 -0.3827
vn -0.0000 0.3827 -0.9239
vt 1.000000 0.500000
vt 0.875000 1.000000
vt 0.875000 0.500000
vt 0.750000 0.500000
vt 0.625000 0.000000
vt 0.375000 0.250000
vt 0.375000 0.000000
vt 0.750000 1.000000
vt 0.625000 0.500000
vt 0.375000 0.750000
vt 0.375000 0.500000
vt 0.125000 0.750000
vt 0.125000 0.500000
vt 0.625000 0.750000
vt 0.625000 1.000000
vt 0.500000 0.500000
vt 0.500000 1.000000
vt 0.375000 1.000000
vt 0.250000 0.500000
vt 0.010000 0.250000
vt 0.250000 0.010000
vt 0.490000 0.250000
vt 0.250000 1.000000
vt 0.000000 1.000000
vt 0.000000 0.500000
vt 0.919706 0.080294
vt 0.580294 0.080294
vt 0.580294 0.419706
vt 1.000000 1.000000
vt 0.625000 0.250000
vt 0.875000 0.750000
vt 0.419706 0.419706
vt 0.250000 0.490000
vt 0.080294 0.419706
vt 0.080294 0.080294
vt 0.419706 0.080294
vt 0.125000 1.000000
vt 0.750000 0.490000
vt 0.919706 0.419706
vt 0.990000 0.250000
vt 0.750000 0.010000
vt 0.510000 0.250000
s 0
f 105/59/26 108/60/26 107/61/26
f 108/60/27 109/62/27 107/61/27
f 98/63/28 99/64/28 97/65/28
f 110/66/29 111/67/29 109/62/29
f 104/67/30 101/68/30 103/69/30
f 103/69/31 97/70/31 99/71/31
f 100/61/32 102/72/32 104/67/32
f 112/73/33 113/74/33 111/67/33
f 114/75/34 115/69/34 113/74/34
f 116/76/35 117/77/35 115/69/35
f 118/78/30 114/79/30 110/80/30
f 118/81/36 119/71/36 117/77/36
f 119/71/37 106/82/37 105/83/37
f 111/84/28 115/85/28 119/86/28
f 122/87/26 123/61/26 121/59/26
f 124/60/27 125/62/27 123/61/27
f 126/66/29 127/67/29 125/62/29
f 128/73/33 129/74/33 127/67/33
f 130/75/34 131/69/34 129/74/34
f 132/76/35 133/77/35 131/69/35
f 134/78/30 130/79/30 126/80/30
f 134/81/36 135/71/36 133/77/36
f 135/71/37 122/82/37 121/83/37
f 127/84/28 131/85/28 135/86/28
f 105/59/26 106/87/26 108/60/26
f 108/60/27 110/66/27 109/62/27
f 98/63/28 100/88/28 99/64/28
f 110/66/29 112/73/29 111/67/29
f 104/67/30 102/72/30 101/68/30
f 103/69/31 101/68/31 97/70/31
f 100/61/32 98/89/32 102/72/32
f 112/73/33 114/75/33 113/74/33
f 114/75/34 116/76/34 115/69/34
f 116/76/35 118/81/35 117/77/35
f 110/80/30 108/90/30 106/91/30
f 106/91/30 120/92/30 118/78/30
f 118/78/30 116/93/30 114/79/30
f 114/79/30 112/94/30 110/80/30
f 110/80/30 106/91/30 118/78/30
f 118/81/36 120/95/36 119/71/36
f 119/71/37 120/95/37 106/82/37
f 119/86/28 105/96/28 107/97/28
f 107/97/28 109/98/28 111/84/28
f 111/84/28 113/99/28 115/85/28
f 115/85/28 117/100/28 119/86/28
f 119/86/28 107/97/28 111/84/28
f 122/87/26 124/60/26 123/61/26
f 124/60/27 126/66/27 125/62/27
f 126/66/29 128/73/29 127/67/29
f 128/73/33 130/75/33 129/74/33
f 130/75/34 132/76/34 131/69/34
f 132/76/35 134/81/35 133/77/35
f 126/80/30 124/90/30 122/91/30
f 122/91/30 136/92/30 134/78/30
f 134/78/30 132/93/30 130/79/30
f 130/79/30 128/94/30 126/80/30
f 126/80/30 122/91/30 134/78/30
f 134/81/36 136/95/36 135/71/36
f 135/71/37 136/95/37 122/82/37
f 135/86/28 121/96/28 123/97/28
f 123/97/28 125/98/28 127/84/28
f 127/84/28 129/99/28 131/85/28
f 131/85/28 133/100/28 135/86/28
f 135/86/28 123/97/28 127/84/28
g ButtonArm3_Mesh
v -0.020000 0.000000 -0.030000
v -0.020000 0.000000 0.030000
v -0.020000 0.150000 -0.030000
v -0.020000 0.150000 0.030000
v 0.020000 0.000000 -0.030000
v 0.020000 0.000000 0.030000
v 0.020000 0.150000 -0.030000
v 0.020000 0.150000 0.030000
v 0.100000 0.200000 -0.130000
v 0.100000 0.150000 -0.130000
v 0.100000 0.200000 0.070000
v 0.100000 0.150000 0.070000
v -0.100000 0.200000 -0.130000
v -0.100000 0.150000 -0.130000
v -0.100000 0.200000 0.070000
v -0.100000 0.150000 0.070000
v 0.120000 0.250000 -0.150000
v 0.130000 0.220000 -0.160000
v 0.120000 0.250000 0.090000
v 0.130000 0.220000 0.100000
v -0.120000 0.250000 -0.150000
v -0.130000 0.220000 -0.160000
v -0.120000 0.250000 0.090000
v -0.130000 0.220000 0.100000
v 0.130000 0.250000 0.100000
v -0.130000 0.250000 0.100000
v 0.130000 0.250000 -0.160000
v -0.130000 0.250000 -0.160000
v 0.118000 0.230000 0.088000
v -0.118000 0.230000 0.088000
v 0.118000 0.230000 -0.148000
v -0.118000 0.230000 -0.148000
v 0.120000 0.230000 0.090000
v -0.120000 0.230000 0.090000
v 0.120000 0.230000 -0.150000
v -0.120000 0.230000 -0.150000
v 0.118000 0.260000 0.088000
v -0.118000 0.260000 0.088000
v 0.118000 0.260000 -0.148000
v -0.118000 0.260000 -0.148000
v -0.130000 0.200000 0.110000
v -0.140000 0.200000 0.100000
v -0.140000 0.220000 0.100000
v -0.130000 0.220000 0.110000
v -0.140000 0.200000 -0.160000
v -0.130000 0.200000 -0.170000
v -0.130000 0.220000 -0.170000
v -0.140000 0.220000 -0.160000
v 0.140000 0.200000 0.100000
v 0.130000 0.200000 0.110000
v 0.130000 0.220000 0.110000
v 0.140000 0.220000 0.100000
v 0.130000 0.200000 -0.170000
v 0.140000 0.200000 -0.160000
v 0.140000 0.220000 -0.160000
v 0.130000 0.220000 -0.170000
v -0.101784 0.270000 -0.063531
v -0.101784 0.270000 -0.033831
v -0.063584 0.270000 -0.033831
v -0.063584 0.270000 -0.063531
v -0.053784 0.270000 -0.063531
v -0.053784 0.270000 0.004669
v -0.063584 0.270000 0.004669
v -0.063584 0.270000 -0.025031
v -0.101784 0.270000 -0.025031
v -0.101784 0.270000 0.004669
v -0.111584 0.270000 0.004669
v -0.111584 0.270000 -0.063531
v -0.036084 0.270000 -0.006902
v -0.031934 0.270000 -0.004719
v -0.028009 0.270000 -0.003567
v -0.024384 0.270000 -0.003231
v -0.020039 0.270000 -0.003822
v -0.016622 0.270000 -0.005481
v -0.014386 0.270000 -0.008040
v -0.013584 0.270000 -0.011331
v -0.018194 0.270000 -0.019212
v -0.028334 0.270000 -0.025406
v -0.038475 0.270000 -0.033212
v -0.043084 0.270000 -0.045931
v -0.041647 0.270000 -0.053336
v -0.037659 0.270000 -0.059194
v -0.031609 0.270000 -0.063045
v -0.023984 0.270000 -0.064431
v -0.018680 0.270000 -0.064051
v -0.013797 0.270000 -0.062894
v -0.009233 0.270000 -0.060930
v -0.004884 0.270000 -0.058131
v -0.004884 0.270000 -0.045731
v -0.008864 0.270000 -0.049978
v -0.013247 0.270000 -0.053081
v -0.017948 0.270000 -0.054984
v -0.022884 0.270000 -0.055631
v -0.027825 0.270000 -0.054822
v -0.031284 0.270000 -0.052756
v -0.033319 0.270000 -0.049978
v -0.033984 0.270000 -0.047031
v -0.029375 0.270000 -0.038337
v -0.019234 0.270000 -0.031556
v -0.009094 0.270000 -0.023912
v -0.004484 0.270000 -0.012631
v -0.005961 0.270000 -0.005105
v -0.010147 0.270000 0.000631
v -0.016677 0.270000 0.004286
v -0.025184 0.270000 0.005569
v -0.029078 0.270000 0.005269
v -0.032934 0.270000 0.004369
v -0.036716 0.270000 0.002869
v -0.040384 0.270000 0.000769
v -0.040384 0.270000 -0.010331
v 0.007395 0.270000 -0.048105
v 0.013053 0.270000 -0.056844
v 0.022517 0.270000 -0.062451
v 0.035816 0.270000 -0.064431
v 0.046328 0.270000 -0.062875
v 0.055416 0.270000 -0.058056
v 0.061803 0.270000 -0.049750
v 0.064216 0.270000 -0.037731
v 0.064216 0.270000 0.004669
v 0.054416 0.270000 0.004669
v 0.054416 0.270000 -0.035631
v 0.053528 0.270000 -0.044356
v 0.047203 0.270000 -0.052183
v 0.039853 0.270000 -0.055073
v 0.035616 0.270000 -0.055431
v 0.030387 0.270000 -0.055008
v 0.022369 0.270000 -0.052098
v 0.016153 0.270000 -0.043569
v 0.015316 0.270000 -0.035031
v 0.015316 0.270000 0.004669
v 0.005516 0.270000 0.004669
v 0.005516 0.270000 -0.036731
v 0.083339 0.270000 0.003125
v 0.076578 0.270000 -0.001081
v 0.072611 0.270000 -0.007312
v 0.071316 0.270000 -0.014931
v 0.072687 0.270000 -0.022429
v 0.076891 0.270000 -0.028494
v 0.084056 0.270000 -0.032552
v 0.094316 0.270000 -0.034031
v 0.104516 0.270000 -0.034031
v 0.104516 0.270000 -0.063531
v 0.114316 0.270000 -0.063531
v 0.114316 0.270000 0.004669
v 0.093016 0.270000 0.004669
v 0.093416 0.270000 -0.025231
v 0.088461 0.270000 -0.024515
v 0.084678 0.270000 -0.022431
v 0.082264 0.270000 -0.019072
v 0.081416 0.270000 -0.014531
v 0.081976 0.270000 -0.010797
v 0.083878 0.270000 -0.007456
v 0.087448 0.270000 -0.005053
v 0.093016 0.270000 -0.004131
v 0.104516 0.270000 -0.004131
v 0.104516 0.270000 -0.025231
v -0.101784 0.260000 -0.063531
v -0.101784 0.260000 -0.033831
v -0.063584 0.260000 -0.033831
v -0.063584 0.260000 -0.063531
v -0.053784 0.260000 -0.063531
v -0.053784 0.260000 0.004669
v -0.063584 0.260000 0.004669
v -0.063584 0.260000 -0.025031
v -0.101784 0.260000 -0.025031
v -0.101784 0.260000 0.004669
v -0.111584 0.260000 0.004669
v -0.111584 0.260000 -0.063531
v -0.036084 0.260000 -0.006902
v -0.031934 0.260000 -0.004719
v -0.028009 0.260000 -0.003567
v -0.024384 0.260000 -0.003231
v -0.020039 0.260000 -0.003822
v -0.016622 0.260000 -0.005481
v -0.014386 0.260000 -0.008040
v -0.013584 0.260000 -0.011331
v -0.018194 0.260000 -0.019212
v -0.028334 0.260000 -0.025406
v -0.038475 0.260000 -0.033212
v -0.043084 0.260000 -0.045931
v -0.041647 0.260000 -0.053336
v -0.037659 0.260000 -0.059194
v -0.031609 0.260000 -0.063045
v -0.023984 0.260000 -0.064431
v -0.018680 0.260000 -0.064051
v -0.013797 0.260000 -0.062894
v -0.009233 0.260000 -0.060930
v -0.004884 0.260000 -0.058131
v -0.004884 0.260000 -0.045731
v -0.008864 0.260000 -0.049978
v -0.013247 0.260000 -0.053081
v -0.017948 0.260000 -0.054984
v -0.022884 0.260000 -0.055631
v -0.027825 0.260000 -0.054822
v -0.031284 0.260000 -0.052756
v -0.033319 0.260000 -0.049978
v -0.033984 0.260000 -0.047031
v -0.029375 0.260000 -0.038337
v -0.019234 0.260000 -0.031556
v -0.009094 0.260000 -0.023912
v -0.004484 0.260000 -0.012631
v -0.005961 0.260000 -0.005105
v -0.010147 0.260000 0.000631
v -0.016677 0.260000 0.004286
v -0.025184 0.260000 0.005569
v -0.029078 0.260000 0.005269
v -0.032934 0.260000 0.004369
v -0.036716 0.260000 0.002869
v -0.040384 0.260000 0.000769
v -0.040384 0.260000 -0.010331
v 0.007395 0.260000 -0.048105
v 0.013053 0.260000 -0.056844
v 0.022517 0.260000 -0.062451
v 0.035816 0.260000 -0.064431
v 0.046328 0.260000 -0.062875
v 0.055416 0.260000 -0.058056
v 0.061803 0.260000 -0.049750
v 0.064216 0.260000 -0.037731
v 0.064216 0.260000 0.004669
v 0.054416 0.260000 0.004669
v 0.054416 0.260000 -0.035631
v 0.053528 0.260000 -0.044356
v 0.047203 0.260000 -0.052183
v 0.039853 0.260000 -0.055073
v 0.035616 0.260000 -0.055431
v 0.030387 0.260000 -0.055008
v 0.022369 0.260000 -0.052098
v 0.016153 0.260000 -0.043569
v 0.015316 0.260000 -0.035031
v 0.015316 0.260000 0.004669
v 0.005516 0.260000 0.004669
v 0.005516 0.260000 -0.036731
v 0.083339 0.260000 0.003125
v 0.076578 0.260000 -0.001081
v 0.072611 0.260000 -0.007312
v 0.071316 0.260000 -0.014931
v 0.072687 0.260000 -0.022429
v 0.076891 0.260000 -0.028494
v 0.084056 0.260000 -0.032552
v 0.094316 0.260000 -0.034031
v 0.104516 0.260000 -0.034031
v 0.104516 0.260000 -0.063531
v 0.114316 0.260000 -0.063531
v 0.114316 0.260000 0.004669
v 0.093016 0.260000 0.004669
v 0.093416 0.260000 -0.025231
v 0.088461 0.260000 -0.024515
v 0.084678 0.260000 -0.022431
v 0.082264 0.260000 -0.019072
v 0.081416 0.260000 -0.014531
v 0.081976 0.260000 -0.010797
v 0.083878 0.260000 -0.007456
v 0.087448 0.260000 -0.005053
v 0.093016 0.260000 -0.004131
v 0.104516 0.260000 -0.004131
v 0.104516 0.260000 -0.025231
vn -1.0000 -0.0000 -0.0000
vn 1.0000 -0.0000 -0.0000
vn -0.0000 -0.0000 -1.0000
vn -0.0000 -0.0000 1.0000
vn -0.0000 -1.0000 -0.0000
vn -0.0000 1.0000 -0.0000
vn 0.0001 1.0000 -0.0000
vn -0.0001 1.0000 -0.0000
vn -0.7071 -0.0000 0.7071
vn -0.7071 -0.0000 -0.7071
vn 0.7071 -0.0000 -0.7071
vn 0.7071 -0.0000 0.7071
vn -0.0002 1.0000 -0.0000
vn 0.0008 1.0000 -0.0000
vn -0.7034 -0.0000 0.7108
vn -0.3498 -0.0000 0.9368
vn -0.9332 -0.0000 0.3595
vn -1.0000 -0.0000 -0.0063
vn -0.9332 -0.0000 0.3594
vn -0.9236 -0.0000 -0.3834
vn -0.6743 -0.0000 -0.7385
vn -0.3233 -0.0000 -0.9463
vn -0.0716 -0.0000 -0.9974
vn -0.0790 -0.0000 0.9969
vn 0.3179 -0.0000 0.9481
vn 0.0717 -0.0000 0.9974
vn 0.6636 -0.0000 0.7481
vn 0.9195 -0.0000 0.3930
vn 0.9998 -0.0000 0.0178
vn 0.9450 -0.0000 -0.3272
vn 0.7331 -0.0000 -0.6801
vn 0.9450 -0.0000 -0.3271
vn 0.3693 -0.0000 -0.9293
vn 0.0820 -0.0000 -0.9966
vn -0.6930 -0.0000 -0.7210
vn -0.9326 -0.0000 -0.3609
vn -0.9326 -0.0000 -0.3608
vn -0.3348 -0.0000 -0.9423
vn -0.0004 -0.0000 -1.0000
vn 0.3120 -0.0000 -0.9501
vn 0.6453 -0.0000 -0.7639
vn 0.9103 -0.0000 -0.4140
vn 0.9951 -0.0000 -0.0989
vn -0.9945 0.0043 0.1046
vn -0.7536 0.0021 0.6573
vn -0.9952 -0.0000 0.0983
vn -0.4336 -0.0000 0.9011
vn -0.7821 -0.0000 0.6232
vn -0.1775 -0.0000 0.9841
vn -0.4592 -0.0000 0.8883
vn -0.0017 -0.0000 1.0000
vn -0.1772 -0.0000 0.9842
vn 0.1681 -0.0000 0.9858
vn 0.4178 -0.0000 0.9085
vn 0.1683 -0.0000 0.9857
vn 0.8209 0.0047 0.5710
vn 0.3925 -0.0006 0.9198
vn 0.9958 -0.0000 0.0911
vn 0.7903 -0.0017 0.6128
vn 0.9953 -0.0043 0.0963
vn -0.9966 -0.0000 -0.0818
vn 0.3754 -0.0000 -0.9269
vn 0.5470 -0.0000 -0.8371
vn 0.1878 -0.0000 -0.9822
vn -0.0213 -0.0000 -0.9998
vn -0.2894 -0.0000 -0.9572
vn -0.6071 -0.0000 -0.7946
vn -0.8877 -0.0000 -0.4604
vn -0.9895 -0.0000 0.1446
vn -0.7138 -0.0000 0.7003
vn -0.5664 -0.0000 0.8241
vn -0.8073 -0.0000 0.5901
vn -0.9970 -0.0000 0.0779
vn -0.9231 -0.0000 -0.3845
vn -0.6961 -0.0000 -0.7179
vn -0.3647 -0.0000 -0.9311
vn -0.6962 -0.0000 -0.7179
vn -0.0541 -0.0000 -0.9985
vn -0.3648 -0.0000 -0.9311
vn 0.1516 -0.0000 -0.9884
vn 0.3142 -0.0000 -0.9494
vn 0.4698 -0.0000 -0.8828
vn 0.8778 -0.0000 -0.4790
vn 0.4698 -0.0000 -0.8827
vn 0.3677 -0.0000 0.9299
vn 0.8778 -0.0000 -0.4789
vn -0.6571 -0.0000 0.7538
vn 0.3676 -0.0000 0.9300
vn -0.4797 -0.0000 0.8774
vn -0.2546 -0.0000 0.9670
vn -0.4798 -0.0000 0.8774
vn 0.0160 -0.0000 0.9999
vn -0.2547 -0.0000 0.9670
vn 0.3432 -0.0000 0.9393
vn 0.6732 -0.0000 0.7395
vn 0.9102 -0.0000 0.4142
vn 0.9912 -0.0000 -0.1323
vn 0.7422 -0.0000 -0.6702
vn 0.5791 -0.0000 -0.8152
vn 0.7922 -0.0000 -0.6103
vn 0.9953 -0.0000 -0.0969
vn 0.7922 -0.0000 -0.6102
vn 0.9163 -0.0000 0.4005
vn 0.6634 -0.0000 0.7483
vn 0.3240 -0.0000 0.9461
vn 0.0364 -0.0000 0.9993
vn -0.1525 -0.0000 0.9883
vn -0.2988 -0.0000 0.9543
vn -0.4339 -0.0000 0.9010
vn -0.8651 -0.0000 0.5016
vn -0.4339 -0.0000 -0.9010
vn 0.0002 1.0000 -0.0000
vt 0.625000 0.000000
vt 0.375000 0.250000
vt 0.375000 0.000000
vt 0.625000 0.500000
vt 0.375000 0.750000
vt 0.375000 0.500000
vt 0.125000 0.750000
vt 0.125000 0.500000
vt 0.875000 0.500000
vt 0.625000 0.750000
vt 0.625000 0.250000
vt 0.375000 1.000000
vt 0.615385 0.009615
vt 0.384615 0.009615
vt 0.615385 0.240385
vt 0.384615 0.240385
vt 0.605769 0.019231
vt 0.394231 0.019231
vt 0.605769 0.230769
vt 0.394231 0.230769
vt 0.625000 0.741071
vt 0.375000 0.741071
vt 0.875000 0.741071
vt 0.875000 0.750000
vt 0.375000 0.758929
vt 0.625000 0.758929
vt 0.625000 0.991071
vt 0.625000 1.000000
vt 0.875000 0.508929
vt 0.625000 0.741071
vt 0.625000 0.508929
vt 0.625000 0.508929
vt 0.375000 0.508929
vt 0.625000 0.258929
vt 0.616071 0.500000
vt 0.375000 0.491071
vt 0.625000 0.008929
vt 0.616071 0.250000
vt 0.375000 0.241071
vt 0.125000 0.741071
vt 0.125000 0.508929
vt 0.375000 0.991071
vt 0.363636 0.000000
vt 0.545455 0.000000
vt 0.454545 0.000000
vt 0.636364 0.000000
vt 0.727273 0.000000
vt 0.909091 0.000000
vt 0.818182 0.000000
vt 1.000000 0.000000
vt 0.181818 0.000000
vt 0.090909 0.000000
vt 0.272727 0.000000
vt 0.000000 0.000000
vt 0.853659 0.000000
vt 0.902439 0.000000
vt 0.878049 0.000000
vt 0.926829 0.000000
vt 0.951219 0.000000
vt 0.829268 0.000000
vt 0.975610 0.000000
vt 0.048780 0.000000
vt 0.024390 0.000000
vt 0.804878 0.000000
vt 0.073171 0.000000
vt 0.097561 0.000000
vt 0.121951 0.000000
vt 0.780488 0.000000
vt 0.146341 0.000000
vt 0.170732 0.000000
vt 0.195122 0.000000
vt 0.756098 0.000000
vt 0.219512 0.000000
vt 0.731707 0.000000
vt 0.243902 0.000000
vt 0.707317 0.000000
vt 0.268293 0.000000
vt 0.682927 0.000000
vt 0.463415 0.000000
vt 0.512195 0.000000
vt 0.487805 0.000000
vt 0.292683 0.000000
vt 0.658537 0.000000
vt 0.536585 0.000000
vt 0.634146 0.000000
vt 0.609756 0.000000
vt 0.560976 0.000000
vt 0.317073 0.000000
vt 0.585366 0.000000
vt 0.439024 0.000000
vt 0.341463 0.000000
vt 0.414634 0.000000
vt 0.390244 0.000000
vt 0.365854 0.000000
vt 0.241379 0.000000
vt 0.310345 0.000000
vt 0.275862 0.000000
vt 0.344828 0.000000
vt 0.896552 0.000000
vt 0.965517 0.000000
vt 0.931035 0.000000
vt 0.862069 0.000000
vt 0.206897 0.000000
vt 0.379310 0.000000
vt 0.827586 0.000000
vt 0.413793 0.000000
vt 0.758621 0.000000
vt 0.034483 0.000000
vt 0.517241 0.000000
vt 0.482759 0.000000
vt 0.172414 0.000000
vt 0.724138 0.000000
vt 0.655172 0.000000
vt 0.689655 0.000000
vt 0.586207 0.000000
vt 0.551724 0.000000
vt 0.620690 0.000000
vt 0.068966 0.000000
vt 0.137931 0.000000
vt 0.103448 0.000000
vt 0.434783 0.000000
vt 0.956522 0.000000
vt 0.478261 0.000000
vt 0.521739 0.000000
vt 0.043478 0.000000
vt 0.913043 0.000000
vt 0.086957 0.000000
vt 0.869565 0.000000
vt 0.826087 0.000000
vt 0.130435 0.000000
vt 0.782609 0.000000
vt 0.739130 0.000000
vt 0.695652 0.000000
vt 0.173913 0.000000
vt 0.652174 0.000000
vt 0.217391 0.000000
vt 0.608696 0.000000
vt 0.565217 0.000000
vt 0.347826 0.000000
vt 0.260870 0.000000
vt 0.304348 0.000000
vt 0.391304 0.000000
vt 0.076923 1.000000
vt 0.000000 1.000000
vt 0.153846 1.000000
vt 0.076923 0.000000
vt 0.230769 1.000000
vt 0.153846 0.000000
vt 0.307692 1.000000
vt 0.230769 0.000000
vt 0.384615 1.000000
vt 0.307692 0.000000
vt 0.461538 1.000000
vt 0.384615 0.000000
vt 0.538462 1.000000
vt 0.461538 0.000000
vt 0.615385 1.000000
vt 0.538462 0.000000
vt 0.692308 1.000000
vt 0.615385 0.000000
vt 0.769231 1.000000
vt 0.692308 0.000000
vt 0.846154 1.000000
vt 0.769231 0.000000
vt 0.923077 1.000000
vt 0.846154 0.000000
vt 1.000000 1.000000
vt 0.923077 0.000000
vt 0.090909 1.000000
vt 0.181818 1.000000
vt 0.272727 1.000000
vt 0.363636 1.000000
vt 0.454545 1.000000
vt 0.545455 1.000000
vt 0.636364 1.000000
vt 0.727273 1.000000
vt 0.818182 1.000000
vt 0.909091 1.000000
vt 0.033333 1.000000
vt 0.066667 1.000000
vt 0.033333 0.000000
vt 0.100000 1.000000
vt 0.066667 0.000000
vt 0.133333 1.000000
vt 0.100000 0.000000
vt 0.166667 1.000000
vt 0.133333 0.000000
vt 0.200000 1.000000
vt 0.166667 0.000000
vt 0.233333 1.000000
vt 0.200000 0.000000
vt 0.266667 1.000000
vt 0.233333 0.000000
vt 0.300000 1.000000
vt 0.266667 0.000000
vt 0.333333 1.000000
vt 0.300000 0.000000
vt 0.400000 1.000000
vt 0.366667 0.000000
vt 0.366667 1.000000
vt 0.500000 1.000000
vt 0.466667 0.000000
vt 0.466667 1.000000
vt 0.566667 1.000000
vt 0.533333 0.000000
vt 0.533333 1.000000
vt 0.600000 1.000000
vt 0.566667 0.000000
vt 0.633333 1.000000
vt 0.600000 0.000000
vt 0.666667 1.000000
vt 0.633333 0.000000
vt 0.733333 1.000000
vt 0.700000 0.000000
vt 0.700000 1.000000
vt 0.833333 1.000000
vt 0.800000 0.000000
vt 0.800000 1.000000
vt 0.900000 1.000000
vt 0.866667 0.000000
vt 0.866667 1.000000
vt 0.933333 1.000000
vt 0.900000 0.000000
vt 0.966667 1.000000
vt 0.933333 0.000000
vt 0.966667 0.000000
vt 0.023810 1.000000
vt 0.047619 1.000000
vt 0.023810 0.000000
vt 0.071429 1.000000
vt 0.047619 0.000000
vt 0.095238 1.000000
vt 0.071429 0.000000
vt 0.119048 1.000000
vt 0.095238 0.000000
vt 0.142857 1.000000
vt 0.119048 0.000000
vt 0.142857 0.000000
vt 0.190476 1.000000
vt 0.214286 1.000000
vt 0.190476 0.000000
vt 0.238095 1.000000
vt 0.214286 0.000000
vt 0.261905 1.000000
vt 0.238095 0.000000
vt 0.285714 1.000000
vt 0.261905 0.000000
vt 0.309524 1.000000
vt 0.285714 0.000000
vt 0.309524 0.000000
vt 0.357143 1.000000
vt 0.333333 0.000000
vt 0.380952 1.000000
vt 0.357143 0.000000
vt 0.404762 1.000000
vt 0.380952 0.000000
vt 0.428571 1.000000
vt 0.404762 0.000000
vt 0.452381 1.000000
vt 0.428571 0.000000
vt 0.476190 1.000000
vt 0.452381 0.000000
vt 0.476190 0.000000
vt 0.523810 1.000000
vt 0.500000 0.000000
vt 0.547619 1.000000
vt 0.523810 0.000000
vt 0.571429 1.000000
vt 0.547619 0.000000
vt 0.595238 1.000000
vt 0.571429 0.000000
vt 0.619048 1.000000
vt 0.595238 0.000000
vt 0.642857 1.000000
vt 0.619048 0.000000
vt 0.642857 0.000000
vt 0.690476 1.000000
vt 0.666667 0.000000
vt 0.714286 1.000000
vt 0.690476 0.000000
vt 0.738095 1.000000
vt 0.714286 0.000000
vt 0.761905 1.000000
vt 0.738095 0.000000
vt 0.785714 1.000000
vt 0.761905 0.000000
vt 0.809524 1.000000
vt 0.785714 0.000000
vt 0.809524 0.000000
vt 0.857143 1.000000
vt 0.833333 0.000000
vt 0.880952 1.000000
vt 0.857143 0.000000
vt 0.904762 1.000000
vt 0.880952 0.000000
vt 0.928571 1.000000
vt 0.904762 0.000000
vt 0.952381 1.000000
vt 0.928571 0.000000
vt 0.976190 1.000000
vt 0.952381 0.000000
vt 0.976190 0.000000
vt 0.083333 1.000000
vt 0.083333 0.000000
vt 0.250000 1.000000
vt 0.250000 0.000000
vt 0.416667 1.000000
vt 0.416667 0.000000
vt 0.583333 1.000000
vt 0.583333 0.000000
vt 0.750000 1.000000
vt 0.750000 0.000000
vt 0.916667 1.000000
vt 0.916667 0.000000
vt 0.375000 0.258929
vt 0.383929 0.250000
vt 0.616071 0.250000
vt 0.625000 0.491071
vt 0.383929 0.500000
vt 0.375000 0.008929
vt 0.383929 0.000000
vt 0.616071 0.000000
vt 0.625000 0.241071
vt 0.383929 0.250000
vt 0.375000 0.741071
vt 0.400000 0.000000
vt 0.733333 0.000000
s 0
f 138/101/38 139/102/38 137/103/38
f 144/104/39 141/105/39 143/106/39
f 143/106/40 137/107/40 139/108/40
f 140/109/41 142/110/41 144/104/41
f 146/111/42 152/106/42 150/102/42
f 147/104/41 152/105/41 148/106/41
f 145/110/39 148/112/39 146/105/39
f 149/106/40 146/107/40 150/108/40
f 151/109/38 150/110/38 152/104/38
f 164/106/40 154/107/40 158/108/40
f 162/109/38 158/110/38 160/104/38
f 157/113/41 171/114/41 153/114/41
f 161/104/41 160/105/41 156/106/41
f 163/110/39 156/112/39 154/105/39
f 159/115/43 161/102/43 155/116/43
f 155/116/43 163/103/43 153/114/43
f 153/114/43 164/101/43 157/113/43
f 157/113/43 162/111/43 159/115/43
f 168/117/40 175/118/40 167/118/40
f 155/116/40 170/115/40 159/115/40
f 159/115/39 172/113/39 157/113/39
f 153/114/38 169/116/38 155/116/38
f 166/119/43 169/116/43 165/120/43
f 165/120/44 171/114/44 167/118/44
f 167/118/43 172/113/43 168/117/43
f 168/117/45 170/115/45 166/119/45
f 176/117/43 173/120/43 175/118/43
f 165/120/41 174/119/41 166/119/41
f 166/119/38 176/117/38 168/117/38
f 167/118/39 173/120/39 165/120/39
f 180/121/46 178/105/46 177/122/46
f 182/110/47 184/123/47 183/124/47
f 190/125/48 192/110/48 191/126/48
f 186/112/49 188/127/49 187/128/49
f 179/129/38 181/130/38 178/131/38
f 187/132/41 177/122/41 186/133/41
f 190/134/42 186/135/42 178/136/42
f 184/137/43 180/138/43 188/139/43
f 183/133/40 189/140/40 182/141/40
f 191/126/39 185/142/39 190/125/39
f 197/143/43 199/144/43 198/145/43
f 197/143/44 200/146/44 199/144/44
f 201/147/43 203/148/43 202/149/43
f 201/147/43 204/150/43 203/148/43
f 197/143/45 195/151/45 200/146/45
f 195/151/43 201/147/43 200/146/43
f 195/151/43 194/152/43 201/147/43
f 194/152/43 204/150/43 201/147/43
f 197/143/43 196/153/43 195/151/43
f 193/154/43 204/150/43 194/152/43
f 240/155/43 242/156/43 241/157/43
f 240/155/43 243/158/43 242/156/43
f 240/155/43 244/159/43 243/158/43
f 239/160/43 244/159/43 240/155/43
f 239/160/43 245/161/43 244/159/43
f 239/160/43 207/162/43 245/161/43
f 207/162/43 206/163/43 245/161/43
f 206/163/43 205/154/43 245/161/43
f 205/154/43 246/150/43 245/161/43
f 238/164/43 208/165/43 239/160/43
f 208/165/50 207/162/50 239/160/50
f 238/164/43 209/166/43 208/165/43
f 238/164/43 210/167/43 209/166/43
f 237/168/43 210/167/43 238/164/43
f 237/168/45 211/169/45 210/167/45
f 237/168/43 212/170/43 211/169/43
f 237/168/43 213/171/43 212/170/43
f 236/172/43 213/171/43 237/168/43
f 236/172/43 214/173/43 213/171/43
f 235/174/43 214/173/43 236/172/43
f 235/174/43 215/175/43 214/173/43
f 234/176/43 215/175/43 235/174/43
f 234/176/43 216/177/43 215/175/43
f 233/178/43 216/177/43 234/176/43
f 224/179/43 226/180/43 225/181/43
f 233/178/45 217/182/45 216/177/45
f 232/183/44 217/182/44 233/178/44
f 224/179/43 227/184/43 226/180/43
f 231/185/43 217/182/43 232/183/43
f 230/186/43 217/182/43 231/185/43
f 224/179/43 228/187/43 227/184/43
f 230/186/43 218/188/43 217/182/43
f 229/189/45 218/188/45 230/186/45
f 224/179/43 229/189/43 228/187/43
f 224/179/43 218/188/43 229/189/43
f 223/190/43 218/188/43 224/179/43
f 223/190/43 219/191/43 218/188/43
f 222/192/43 219/191/43 223/190/43
f 221/193/43 219/191/43 222/192/43
f 221/193/43 220/194/43 219/191/43
f 254/195/43 256/196/43 255/197/43
f 254/195/43 257/198/43 256/196/43
f 265/199/43 267/200/43 266/201/43
f 265/199/43 268/150/43 267/200/43
f 265/202/43 247/154/43 268/150/43
f 253/203/43 257/204/43 254/195/43
f 264/205/43 247/154/43 265/202/43
f 253/203/43 258/206/43 257/204/43
f 264/207/43 248/208/43 247/154/43
f 253/203/43 259/209/43 258/210/43
f 252/211/43 259/209/43 253/203/43
f 263/212/43 248/208/43 264/207/43
f 262/213/43 248/208/43 263/214/43
f 252/211/43 260/215/43 259/216/43
f 261/217/43 248/208/43 262/213/43
f 252/211/43 261/217/43 260/215/43
f 252/211/43 248/208/43 261/217/43
f 252/211/43 249/218/43 248/208/43
f 251/219/43 249/218/43 252/211/43
f 251/219/43 250/220/43 249/218/43
f 279/221/43 291/222/43 280/223/43
f 291/222/43 281/224/43 280/223/43
f 291/222/43 269/154/43 281/224/43
f 291/222/43 270/225/43 269/154/43
f 291/222/43 290/226/43 270/225/43
f 290/226/43 271/227/43 270/225/43
f 279/221/43 292/150/43 291/222/43
f 289/228/51 271/227/51 290/226/51
f 288/229/43 271/227/43 289/228/43
f 288/229/43 272/230/43 271/227/43
f 287/231/43 272/230/43 288/229/43
f 286/232/43 272/230/43 287/231/43
f 285/233/43 272/230/43 286/232/43
f 285/233/43 273/234/43 272/230/43
f 284/235/43 273/234/43 285/233/43
f 284/235/43 274/236/43 273/234/43
f 283/237/43 274/236/43 284/235/43
f 282/238/43 274/236/43 283/237/43
f 279/221/45 277/239/45 292/150/45
f 277/239/43 282/238/43 292/150/43
f 277/239/43 274/236/43 282/238/43
f 277/239/43 275/240/43 274/236/43
f 277/239/43 276/241/43 275/240/43
f 279/221/43 278/242/43 277/239/43
s 1
f 270/243/52 369/154/53 269/244/53
f 271/245/54 370/246/52 270/243/52
f 272/247/55 371/248/56 271/245/54
f 273/249/57 372/250/55 272/247/55
f 274/251/58 373/252/57 273/249/57
f 275/253/59 374/254/58 274/251/58
f 276/255/60 375/256/59 275/253/59
f 277/257/47 376/258/60 276/255/60
f 278/259/47 377/260/47 277/257/47
f 279/261/48 378/262/47 278/259/47
f 280/263/49 379/264/48 279/261/48
f 281/265/61 380/266/49 280/263/49
f 269/267/53 381/268/61 281/265/61
f 283/269/62 382/154/63 282/244/63
f 284/270/64 383/152/62 283/269/62
f 285/271/65 384/151/64 284/270/64
f 286/272/66 385/153/65 285/271/65
f 287/273/67 386/143/66 286/272/66
f 288/274/68 387/145/69 287/273/67
f 289/275/70 388/144/68 288/274/68
f 290/276/71 389/146/70 289/275/70
f 291/277/47 390/147/71 290/276/71
f 292/278/46 391/149/47 291/277/47
f 282/267/63 392/148/46 292/278/46
f 248/279/72 347/154/73 247/244/74
f 249/280/75 348/281/72 248/279/72
f 250/282/76 349/283/75 249/280/75
f 251/284/77 350/285/76 250/282/76
f 252/286/78 351/287/77 251/284/77
f 253/288/79 352/289/78 252/286/78
f 254/290/80 353/291/79 253/288/79
f 255/292/49 354/293/80 254/290/80
f 256/294/46 355/295/49 255/292/49
f 257/296/81 356/297/46 256/294/46
f 258/298/82 357/299/83 257/300/81
f 259/301/84 358/302/85 258/303/82
f 260/304/86 359/305/87 259/306/84
f 261/307/88 360/308/89 260/304/86
f 262/309/90 361/310/88 261/307/88
f 263/311/91 362/312/92 262/309/90
f 264/313/93 363/314/94 263/315/91
f 265/316/95 364/317/96 264/318/93
f 266/319/49 365/320/97 265/321/95
f 267/322/46 366/323/49 266/319/49
f 268/324/98 367/325/46 267/322/46
f 247/267/74 368/326/98 268/324/98
f 206/327/99 305/154/100 205/244/100
f 207/328/101 306/329/99 206/327/99
f 208/330/102 307/331/101 207/328/101
f 209/332/103 308/333/102 208/330/102
f 210/334/104 309/335/103 209/332/103
f 211/336/105 310/337/104 210/334/104
f 212/286/106 311/338/105 211/336/105
f 213/339/107 312/289/106 212/286/106
f 214/340/108 313/341/107 213/339/107
f 215/342/109 314/343/108 214/340/108
f 216/344/110 315/345/109 215/342/109
f 217/346/111 316/347/110 216/344/110
f 218/348/112 317/349/111 217/346/111
f 219/296/113 318/350/114 218/348/112
f 220/351/115 319/352/116 219/296/113
f 221/353/117 320/354/115 220/351/115
f 222/355/118 321/356/117 221/353/117
f 223/357/119 322/358/118 222/355/118
f 224/359/120 323/360/121 223/357/119
f 225/361/122 324/362/123 224/359/120
f 226/301/124 325/363/125 225/361/122
f 227/364/126 326/365/124 226/301/124
f 228/366/127 327/367/128 227/364/126
f 229/368/129 328/369/130 228/366/127
f 230/370/131 329/371/129 229/368/129
f 231/372/132 330/373/131 230/370/131
f 232/374/133 331/375/132 231/372/132
f 233/311/134 332/376/133 232/374/133
f 234/377/135 333/378/134 233/311/134
f 235/379/136 334/380/135 234/377/135
f 236/381/137 335/382/136 235/379/136
f 237/383/138 336/384/139 236/381/137
f 238/385/140 337/386/138 237/383/138
f 239/387/141 338/388/140 238/385/140
f 240/316/142 339/389/141 239/387/141
f 241/390/143 340/391/142 240/316/142
f 242/392/144 341/393/143 241/390/143
f 243/394/145 342/395/144 242/392/144
f 244/396/146 343/397/145 243/394/145
f 245/398/147 344/399/146 244/396/146
f 246/400/148 345/401/147 245/398/147
f 205/267/100 346/402/148 246/400/148
f 194/403/48 293/154/48 193/244/48
f 195/286/47 294/404/48 194/403/48
f 196/405/47 295/289/47 195/286/47
f 197/296/48 296/406/47 196/405/47
f 198/407/49 297/352/48 197/296/48
f 199/301/46 298/408/49 198/407/49
f 200/409/46 299/365/46 199/301/46
f 201/311/49 300/410/46 200/409/46
f 202/411/49 301/378/49 201/311/49
f 203/316/46 302/412/49 202/411/49
f 204/413/47 303/391/46 203/316/46
f 193/267/48 304/414/47 204/413/47
s 0
f 138/101/38 140/111/38 139/102/38
f 144/104/39 142/110/39 141/105/39
f 143/106/40 141/105/40 137/107/40
f 140/109/41 138/124/41 142/110/41
f 146/111/42 148/104/42 152/106/42
f 147/104/41 151/110/41 152/105/41
f 145/110/39 147/128/39 148/112/39
f 149/106/40 145/105/40 146/107/40
f 151/109/38 149/124/38 150/110/38
f 164/106/40 163/105/40 154/107/40
f 162/109/38 164/124/38 158/110/38
f 157/113/41 172/113/41 171/114/41
f 161/104/41 162/110/41 160/105/41
f 163/110/39 161/128/39 156/112/39
f 159/115/43 162/111/43 161/102/43
f 155/116/43 161/102/43 163/103/43
f 153/114/43 163/103/43 164/101/43
f 157/113/43 164/101/43 162/111/43
f 168/117/40 176/117/40 175/118/40
f 155/116/40 169/116/40 170/115/40
f 159/115/39 170/115/39 172/113/39
f 153/114/38 171/114/38 169/116/38
f 166/119/43 170/115/43 169/116/43
f 165/120/50 169/116/50 171/114/50
f 167/118/43 171/114/43 172/113/43
f 168/117/149 172/113/149 170/115/149
f 176/117/43 174/119/43 173/120/43
f 165/120/41 173/120/41 174/119/41
f 166/119/38 174/119/38 176/117/38
f 167/118/39 175/118/39 173/120/39
f 180/121/46 179/110/46 178/105/46
f 182/110/47 181/130/47 184/123/47
f 190/125/48 189/105/48 192/110/48
f 186/112/49 185/142/49 188/127/49
f 179/129/38 184/123/38 181/130/38
f 187/132/41 180/121/41 177/122/41
f 178/136/42 181/415/42 182/416/42
f 182/416/42 189/417/42 190/134/42
f 190/134/42 185/418/42 186/135/42
f 186/135/42 177/419/42 178/136/42
f 178/136/42 182/416/42 190/134/42
f 188/139/43 191/420/43 192/421/43
f 192/421/43 183/422/43 184/137/43
f 184/137/43 179/423/43 180/138/43
f 180/138/43 187/424/43 188/139/43
f 188/139/43 192/421/43 184/137/43
f 183/133/40 192/425/40 189/140/40
f 191/126/39 188/127/39 185/142/39
s 1
f 270/243/52 370/246/52 369/154/53
f 271/245/54 371/248/56 370/246/52
f 272/247/55 372/250/55 371/248/56
f 273/249/57 373/252/57 372/250/55
f 274/251/58 374/254/58 373/252/57
f 275/253/59 375/256/59 374/254/58
f 276/255/60 376/258/60 375/256/59
f 277/257/47 377/260/47 376/258/60
f 278/259/47 378/262/47 377/260/47
f 279/261/48 379/264/48 378/262/47
f 280/263/49 380/266/49 379/264/48
f 281/265/61 381/268/61 380/266/49
f 269/267/53 369/150/53 381/268/61
f 283/269/62 383/152/62 382/154/63
f 284/270/64 384/151/64 383/152/62
f 285/271/65 385/153/65 384/151/64
f 286/272/66 386/143/66 385/153/65
f 287/273/67 387/145/69 386/143/66
f 288/274/68 388/144/68 387/145/69
f 289/275/70 389/146/70 388/144/68
f 290/276/71 390/147/71 389/146/70
f 291/277/47 391/149/47 390/147/71
f 292/278/46 392/148/46 391/149/47
f 282/267/63 382/150/63 392/148/46
f 248/279/72 348/281/72 347/154/73
f 249/280/75 349/283/75 348/281/72
f 250/282/76 350/285/76 349/283/75
f 251/284/77 351/287/77 350/285/76
f 252/286/78 352/289/78 351/287/77
f 253/288/79 353/291/79 352/289/78
f 254/290/80 354/293/80 353/291/79
f 255/292/49 355/295/49 354/293/80
f 256/294/46 356/297/46 355/295/49
f 257/296/81 357/352/83 356/297/46
f 258/298/82 358/426/85 357/299/83
f 259/301/84 359/365/87 358/302/85
f 260/304/86 360/308/89 359/305/87
f 261/307/88 361/310/88 360/308/89
f 262/309/90 362/312/92 361/310/88
f 263/311/91 363/378/94 362/312/92
f 264/313/93 364/427/96 363/314/94
f 265/316/95 365/391/97 364/317/96
f 266/319/49 366/323/49 365/320/97
f 267/322/46 367/325/46 366/323/49
f 268/324/98 368/326/98 367/325/46
f 247/267/74 347/150/73 368/326/98
f 206/327/99 306/329/99 305/154/100
f 207/328/101 307/331/101 306/329/99
f 208/330/102 308/333/102 307/331/101
f 209/332/103 309/335/103 308/333/102
f 210/334/104 310/337/104 309/335/103
f 211/336/105 311/338/105 310/337/104
f 212/286/106 312/289/106 311/338/105
f 213/339/107 313/341/107 312/289/106
f 214/340/108 314/343/108 313/341/107
f 215/342/109 315/345/109 314/343/108
f 216/344/110 316/347/110 315/345/109
f 217/346/111 317/349/111 316/347/110
f 218/348/112 318/350/114 317/349/111
f 219/296/113 319/352/116 318/350/114
f 220/351/115 320/354/115 319/352/116
f 221/353/117 321/356/117 320/354/115
f 222/355/118 322/358/118 321/356/117
f 223/357/119 323/360/121 322/358/118
f 224/359/120 324/362/123 323/360/121
f 225/361/122 325/363/125 324/362/123
f 226/301/124 326/365/124 325/363/125
f 227/364/126 327/367/128 326/365/124
f 228/366/127 328/369/130 327/367/128
f 229/368/129 329/371/129 328/369/130
f 230/370/131 330/373/131 329/371/129
f 231/372/132 331/375/132 330/373/131
f 232/374/133 332/376/133 331/375/132
f 233/311/134 333/378/134 332/376/133
f 234/377/135 334/380/135 333/378/134
f 235/379/136 335/382/136 334/380/135
f 236/381/137 336/384/139 335/382/136
f 237/383/138 337/386/138 336/384/139
f 238/385/140 338/388/140 337/386/138
f 239/387/141 339/389/141 338/388/140
f 240/316/142 340/391/142 339/389/141
f 241/390/143 341/393/143 340/391/142
f 242/392/144 342/395/144 341/393/143
f 243/394/145 343/397/145 342/395/144
f 244/396/146 344/399/146 343/397/145
f 245/398/147 345/401/147 344/399/146
f 246/400/148 346/402/148 345/401/147
f 205/267/100 305/150/100 346/402/148
f 194/403/48 294/404/48 293/154/48
f 195/286/47 295/289/47 294/404/48
f 196/405/47 296/406/47 295/289/47
f 197/296/48 297/352/48 296/406/47
f 198/407/49 298/408/49 297/352/48
f 199/301/46 299/365/46 298/408/49
f 200/409/46 300/410/46 299/365/46
f 201/311/49 301/378/49 300/410/46
f 202/411/49 302/412/49 301/378/49
f 203/316/46 303/391/46 302/412/49
f 204/413/47 304/414/47 303/391/46
f 193/267/48 293/150/48 304/414/47
