# Blender 5.0.1
# www.blender.org
mtllib MonitorPaper.mtl
g Paper_Mesh
v -0.802500 0.250000 -0.554900
v 0.802500 0.250000 -0.554900
v -0.802500 0.250000 -0.405100
v 0.802500 0.250000 -0.405100
v -0.802500 0.287450 -0.415135
v 0.802500 0.287450 -0.415135
v -0.802500 0.314865 -0.442550
v 0.802500 0.314865 -0.442550
v -0.802500 0.324900 -0.480000
v 0.802500 0.324900 -0.480000
v -0.802500 0.314865 -0.517450
v 0.802500 0.314865 -0.517450
v -0.802500 0.287450 -0.544866
v 0.802500 0.287450 -0.544866
v -0.802500 -1.750000 -0.554900
v 0.802500 -1.750000 -0.554900
v -0.802500 -1.787450 -0.544866
v 0.802500 -1.787450 -0.544866
v -0.802500 -1.814865 -0.517450
v 0.802500 -1.814865 -0.517450
v -0.802500 -1.824900 -0.480000
v 0.802500 -1.824900 -0.480000
v -0.802500 -1.814865 -0.442550
v 0.802500 -1.814865 -0.442550
v -0.802500 -1.787450 -0.415135
v 0.802500 -1.787450 -0.415135
v -0.802500 -1.750000 -0.405100
v 0.802500 -1.750000 -0.405100
vn -0.0000 0.2588 0.9659
vn -0.0000 0.7071 0.7071
vn -0.0000 0.9659 0.2588
vn -0.0000 0.9659 -0.2588
vn -0.0000 0.7071 -0.7071
vn -0.0000 0.2588 -0.9659
vn -0.0000 -0.2588 -0.9659
vn -0.0000 -0.7071 -0.7071
vn -0.0000 -0.9659 -0.2588
vn -0.0000 -0.9659 0.2588
vn -0.0000 -0.7071 0.7071
vn -0.0000 -0.2588 0.9659
vn -0.0000 -0.0000 -1.0000
vn -0.0000 -0.0000 1.0000
vt 0.000000 0.547417
vt 1.000000 0.539557
vt 1.000000 0.547417
vt 0.000000 0.539557
vt 1.000000 0.531698
vt 0.000000 0.531698
vt 1.000000 0.523838
vt 0.000000 0.523838
vt 1.000000 0.515979
vt 0.000000 0.515979
vt 1.000000 0.508120
vt 0.000000 0.508120
vt 1.000000 0.500260
vt 0.000000 1.000000
vt 1.000000 0.992141
vt 1.000000 1.000000
vt 0.000000 0.992141
vt 1.000000 0.984281
vt 0.000000 0.984281
vt 1.000000 0.976422
vt 0.000000 0.976422
vt 1.000000 0.968562
vt 0.000000 0.968562
vt 1.000000 0.960703
vt 0.000000 0.960703
vt 1.000000 0.952844
vt 0.000000 0.000000
vt 0.000000 0.500260
vt 0.000000 0.952844
vt 1.000000 0.000000
s 0
f 4/1/1 5/2/1 3/3/1
f 6/4/2 7/5/2 5/2/2
f 8/6/3 9/7/3 7/5/3
f 10/8/4 11/9/4 9/7/4
f 12/10/5 13/11/5 11/9/5
f 14/12/6 1/13/6 13/11/6
f 16/14/7 17/15/7 15/16/7
f 18/17/8 19/18/8 17/15/8
f 20/19/9 21/20/9 19/18/9
f 22/21/10 23/22/10 21/20/10
f 24/23/11 25/24/11 23/22/11
f 26/25/12 27/26/12 25/24/12
f 16/27/13 1/13/13 2/28/13
f 27/26/14 4/1/14 3/3/14
f 4/1/1 6/4/1 5/2/1
f 6/4/2 8/6/2 7/5/2
f 8/6/3 10/8/3 9/7/3
f 10/8/4 12/10/4 11/9/4
f 12/10/5 14/12/5 13/11/5
f 14/12/6 2/28/6 1/13/6
f 16/14/7 18/17/7 17/15/7
f 18/17/8 20/19/8 19/18/8
f 20/19/9 22/21/9 21/20/9
f 22/21/10 24/23/10 23/22/10
f 24/23/11 26/25/11 25/24/11
f 26/25/12 28/29/12 27/26/12
f 16/27/13 15/30/13 1/13/13
f 27/26/14 28/29/14 4/1/14
