# Blender 5.0.1
# www.blender.org
mtllib Piston.mtl
g Piston_Mesh
v 0.000000 0.048000 0.000000
v 0.000000 0.050400 0.350000
v 0.033941 0.033941 0.000000
v 0.035638 0.035638 0.350000
v 0.048000 -0.000000 -0.000000
v 0.050400 -0.000000 0.350000
v 0.033941 -0.033941 -0.000000
v 0.035638 -0.035638 0.350000
v -0.000000 -0.048000 -0.000000
v 0.000000 -0.050400 0.350000
v -0.033941 -0.033941 -0.000000
v -0.035638 -0.035638 0.350000
v -0.048000 -0.000000 -0.000000
v -0.050400 -0.000000 0.350000
v -0.033941 0.033941 0.000000
v -0.035638 0.035638 0.350000
v -0.029698 -0.029699 0.335000
v -0.029698 -0.029699 0.325000
v -0.042000 -0.000000 0.335000
v -0.042000 -0.000000 0.325000
v 0.000000 0.042000 0.325000
v 0.000000 0.042000 0.335000
v -0.029698 0.029698 0.335000
v -0.029698 0.029698 0.325000
v 0.000000 0.050400 0.335000
v 0.000000 0.048000 0.325000
v 0.033941 0.033941 0.325000
v 0.035638 0.035638 0.335000
v 0.048000 -0.000000 0.325000
v 0.050400 -0.000000 0.335000
v 0.033941 -0.033941 0.325000
v 0.035638 -0.035638 0.335000
v 0.000000 -0.048000 0.325000
v 0.000000 -0.050400 0.335000
v -0.033941 -0.033941 0.325000
v -0.035638 -0.035638 0.335000
v -0.048000 -0.000000 0.325000
v -0.050400 -0.000000 0.335000
v -0.033941 0.033941 0.325000
v -0.035638 0.035638 0.335000
v 0.000000 -0.042000 0.325000
v 0.000000 -0.042000 0.335000
v 0.029698 -0.029699 0.325000
v 0.029698 -0.029699 0.335000
v 0.042000 -0.000000 0.325000
v 0.042000 -0.000000 0.335000
v 0.029698 0.029698 0.325000
v 0.029698 0.029698 0.335000
vn -0.0000 -0.0000 1.0000
vn 0.9239 0.3827 -0.0000
vn -0.3827 -0.9239 -0.0000
vn -0.9239 0.3827 -0.0000
vn -0.0000 -0.0000 -1.0000
vn 0.3827 0.9239 -0.0000
vn 0.9239 -0.3827 -0.0000
vn 0.3827 -0.9239 -0.0000
vn -0.9239 -0.3827 -0.0000
vn -0.3827 0.9239 -0.0000
vt 0.500000 0.937500
vt 0.375000 0.937500
vt 0.625000 0.937500
vt 0.750000 0.937500
vt 0.125000 0.937500
vt 0.000000 0.937500
vt 0.250000 0.937500
vt 0.875000 0.937500
vt 1.000000 0.937500
vt 0.750000 0.962500
vt 0.875000 0.962500
vt 0.010000 0.250000
vt 0.250000 0.010000
vt 0.490000 0.250000
vt 0.375000 0.962500
vt 0.500000 0.962500
vt 0.125000 0.962500
vt 0.250000 0.962500
vt 0.625000 0.962500
vt 0.000000 0.962500
vt 1.000000 0.962500
vt 0.125000 1.000000
vt 0.875000 0.500000
vt 1.000000 0.500000
vt 1.000000 1.000000
vt 0.000000 0.500000
vt 0.125000 0.500000
vt 0.875000 1.000000
vt 0.750000 0.500000
vt 0.750000 1.000000
vt 0.625000 0.500000
vt 0.625000 1.000000
vt 0.500000 0.500000
vt 0.500000 1.000000
vt 0.375000 0.500000
vt 0.375000 1.000000
vt 0.250000 0.500000
vt 0.250000 1.000000
vt 0.419706 0.419706
vt 0.250000 0.490000
vt 0.080294 0.419706
vt 0.080294 0.080294
vt 0.419706 0.080294
vt 0.000000 1.000000
s 0
f 33/1/1 18/2/1 35/2/1
f 31/3/1 45/4/1 43/3/1
f 39/5/1 21/6/1 26/6/1
f 35/2/1 20/7/1 37/7/1
f 27/8/1 21/9/1 47/8/1
f 46/10/2 47/8/2 48/11/2
f 14/12/1 10/13/1 6/14/1
f 17/15/3 41/1/3 42/16/3
f 23/17/4 20/7/4 19/18/4
f 32/19/5 46/10/5 30/10/5
f 40/17/5 22/20/5 23/17/5
f 48/11/6 21/9/6 22/21/6
f 44/19/7 45/4/7 46/10/7
f 42/16/8 43/3/8 44/19/8
f 19/18/9 18/2/9 17/15/9
f 22/20/10 24/5/10 23/17/10
f 36/15/5 42/16/5 34/16/5
f 36/15/5 19/18/5 17/15/5
f 31/3/1 41/1/1 33/1/1
f 28/11/5 22/21/5 25/21/5
f 32/19/5 42/16/5 44/19/5
f 27/8/1 45/4/1 29/4/1
f 39/5/1 20/7/1 24/5/1
f 28/11/5 46/10/5 48/11/5
f 40/17/5 19/18/5 38/18/5
f 16/22/10 25/20/10 40/17/10
f 26/9/6 3/23/6 1/24/6
f 2/25/6 28/11/6 25/21/6
f 39/5/10 1/26/10 15/27/10
f 4/28/2 30/10/2 28/11/2
f 27/8/2 5/29/2 3/23/2
f 6/30/7 32/19/7 30/10/7
f 5/29/7 31/3/7 7/31/7
f 8/32/8 34/16/8 32/19/8
f 31/3/8 9/33/8 7/31/8
f 10/34/3 36/15/3 34/16/3
f 33/1/3 11/35/3 9/33/3
f 12/36/9 38/18/9 36/15/9
f 11/35/9 37/7/9 13/37/9
f 14/38/4 40/17/4 38/18/4
f 13/37/4 39/5/4 15/27/4
f 33/1/1 41/1/1 18/2/1
f 31/3/1 29/4/1 45/4/1
f 39/5/1 24/5/1 21/6/1
f 35/2/1 18/2/1 20/7/1
f 27/8/1 26/9/1 21/9/1
f 46/10/2 45/4/2 47/8/2
f 6/14/1 4/39/1 2/40/1
f 2/40/1 16/41/1 14/12/1
f 14/12/1 12/42/1 10/13/1
f 10/13/1 8/43/1 6/14/1
f 6/14/1 2/40/1 14/12/1
f 17/15/3 18/2/3 41/1/3
f 23/17/4 24/5/4 20/7/4
f 32/19/5 44/19/5 46/10/5
f 40/17/5 25/20/5 22/20/5
f 48/11/6 47/8/6 21/9/6
f 44/19/7 43/3/7 45/4/7
f 42/16/8 41/1/8 43/3/8
f 19/18/9 20/7/9 18/2/9
f 22/20/10 21/6/10 24/5/10
f 36/15/5 17/15/5 42/16/5
f 36/15/5 38/18/5 19/18/5
f 31/3/1 43/3/1 41/1/1
f 28/11/5 48/11/5 22/21/5
f 32/19/5 34/16/5 42/16/5
f 27/8/1 47/8/1 45/4/1
f 39/5/1 37/7/1 20/7/1
f 28/11/5 30/10/5 46/10/5
f 40/17/5 23/17/5 19/18/5
f 16/22/10 2/44/10 25/20/10
f 26/9/6 27/8/6 3/23/6
f 2/25/6 4/28/6 28/11/6
f 39/5/10 26/6/10 1/26/10
f 4/28/2 6/30/2 30/10/2
f 27/8/2 29/4/2 5/29/2
f 6/30/7 8/32/7 32/19/7
f 5/29/7 29/4/7 31/3/7
f 8/32/8 10/34/8 34/16/8
f 31/3/8 33/1/8 9/33/8
f 10/34/3 12/36/3 36/15/3
f 33/1/3 35/2/3 11/35/3
f 12/36/9 14/38/9 38/18/9
f 11/35/9 35/2/9 37/7/9
f 14/38/4 16/22/4 40/17/4
f 13/37/4 37/7/4 39/5/4
g PistonCylinder_Mesh
v 0.000000 0.035200 -0.000000
v 0.000000 0.035200 1.000000
v 0.024890 0.024890 -0.000000
v 0.024890 0.024890 1.000000
v 0.035200 -0.000000 -0.000000
v 0.035200 0.000000 1.000000
v 0.024890 -0.024890 -0.000000
v 0.024890 -0.024890 1.000000
v -0.000000 -0.035200 -0.000000
v 0.000000 -0.035200 1.000000
v -0.024890 -0.024890 -0.000000
v -0.024890 -0.024890 1.000000
v -0.035200 -0.000000 -0.000000
v -0.035200 0.000000 1.000000
v -0.024890 0.024890 -0.000000
v -0.024890 0.024890 1.000000
vn 0.3827 0.9239 -0.0000
vn 0.9239 0.3827 -0.0000
vn 0.9239 -0.3827 -0.0000
vn 0.3827 -0.9239 -0.0000
vn -0.3827 -0.9239 -0.0000
vn -0.9239 -0.3827 -0.0000
vn -0.9239 0.3827 -0.0000
vn -0.3827 0.9239 -0.0000
vt 1.000000 1.000000
vt 0.875000 0.500000
vt 1.000000 0.500000
vt 0.875000 1.000000
vt 0.750000 0.500000
vt 0.625000 1.000000
vt 0.625000 0.500000
vt 0.500000 0.500000
vt 0.500000 1.000000
vt 0.375000 0.500000
vt 0.250000 1.000000
vt 0.250000 0.500000
vt 0.125000 0.500000
vt 0.125000 1.000000
vt 0.000000 0.500000
vt 0.750000 1.000000
vt 0.375000 1.000000
vt 0.000000 1.000000
s 0
f 50/45/11 51/46/11 49/47/11
f 52/48/12 53/49/12 51/46/12
f 53/49/13 56/50/13 55/51/13
f 56/50/14 57/52/14 55/51/14
f 58/53/15 59/54/15 57/52/15
f 59/54/16 62/55/16 61/56/16
f 62/55/17 63/57/17 61/56/17
f 64/58/18 49/59/18 63/57/18
f 50/45/11 52/48/11 51/46/11
f 52/48/12 54/60/12 53/49/12
f 53/49/13 54/60/13 56/50/13
f 56/50/14 58/53/14 57/52/14
f 58/53/15 60/61/15 59/54/15
f 59/54/16 60/61/16 62/55/16
f 62/55/17 64/58/17 63/57/17
f 64/58/18 50/62/18 49/59/18
g PistonShort_Mesh
v 0.000000 -0.050400 0.150000
v 0.000000 -0.048000 0.000000
v 0.035638 -0.035638 0.150000
v 0.033941 -0.033941 0.000000
v 0.050400 0.000000 0.150000
v 0.048000 0.000000 0.000000
v 0.035638 0.035638 0.150000
v 0.033941 0.033941 0.000000
v 0.000000 0.050400 0.150000
v 0.000000 0.048000 0.000000
v -0.035638 0.035638 0.150000
v -0.033941 0.033941 0.000000
v -0.050400 0.000000 0.150000
v -0.048000 0.000000 0.000000
v -0.035638 -0.035638 0.150000
v -0.033941 -0.033941 0.000000
v -0.029349 0.029349 0.125000
v -0.029349 0.029349 0.135000
v -0.041506 0.000000 0.125000
v -0.041506 0.000000 0.135000
v 0.000000 -0.041506 0.135000
v 0.000000 -0.041506 0.125000
v -0.029349 -0.029349 0.125000
v -0.029349 -0.029349 0.135000
v 0.000000 -0.048000 0.125000
v 0.000000 -0.050400 0.135000
v 0.035638 -0.035638 0.135000
v 0.033941 -0.033941 0.125000
v 0.050400 0.000000 0.135000
v 0.048000 0.000000 0.125000
v 0.035638 0.035638 0.135000
v 0.033941 0.033941 0.125000
v 0.000000 0.050400 0.135000
v 0.000000 0.048000 0.125000
v -0.035638 0.035638 0.135000
v -0.033941 0.033941 0.125000
v -0.050400 0.000000 0.135000
v -0.048000 0.000000 0.125000
v -0.035638 -0.035638 0.135000
v -0.033941 -0.033941 0.125000
v 0.000000 0.041506 0.135000
v 0.000000 0.041506 0.125000
v 0.029349 0.029349 0.135000
v 0.029349 0.029349 0.125000
v 0.041506 0.000000 0.135000
v 0.041506 0.000000 0.125000
v 0.029349 -0.029349 0.135000
v 0.029349 -0.029349 0.125000
vn -0.0000 -0.0000 -1.0000
vn 0.9239 -0.3827 -0.0000
vn 0.3827 0.9239 -0.0000
vn -0.9239 0.3827 -0.0000
vn -0.9239 -0.3827 -0.0000
vn -0.0000 -0.0000 1.0000
vn -0.3827 -0.9239 -0.0000
vn 0.3827 -0.9239 -0.0000
vn 0.9239 0.3827 -0.0000
vn -0.3827 0.9239 -0.0000
vt 0.375000 0.537500
vt 0.500000 0.537500
vt 0.625000 0.537500
vt 0.750000 0.537500
vt 0.750000 0.562500
vt 0.875000 0.537500
vt 0.875000 0.562500
vt 0.500000 0.562500
vt 0.625000 0.562500
vt 0.250000 0.562500
vt 0.375000 0.562500
vt 0.125000 0.562500
vt 0.250000 0.537500
vt 0.919706 0.080294
vt 0.580294 0.080294
vt 0.580294 0.419706
vt 0.000000 0.562500
vt 0.125000 0.537500
vt 1.000000 0.537500
vt 1.000000 0.562500
vt 0.000000 0.537500
vt 0.125000 1.000000
vt 0.875000 0.500000
vt 1.000000 0.500000
vt 1.000000 1.000000
vt 0.000000 0.500000
vt 0.125000 0.500000
vt 0.750000 1.000000
vt 0.750000 0.500000
vt 0.625000 0.500000
vt 0.625000 1.000000
vt 0.500000 0.500000
vt 0.375000 1.000000
vt 0.375000 0.500000
vt 0.250000 0.500000
vt 0.250000 1.000000
vt 0.750000 0.490000
vt 0.919706 0.419706
vt 0.990000 0.250000
vt 0.750000 0.010000
vt 0.510000 0.250000
vt 0.000000 1.000000
vt 0.875000 1.000000
vt 0.500000 1.000000
s 0
f 99/63/19 105/64/19 82/63/19
f 95/65/19 109/66/19 107/65/19
f 110/67/20 111/68/20 112/69/20
f 106/70/21 107/65/21 108/71/21
f 83/72/22 82/63/22 81/73/22
f 87/74/23 84/75/23 83/72/23
f 91/68/19 109/66/19 93/66/19
f 92/69/24 110/67/24 112/69/24
f 71/76/24 75/77/24 79/78/24
f 86/79/25 88/80/25 87/74/25
f 96/71/24 106/70/24 108/71/24
f 103/80/19 84/75/19 88/80/19
f 104/74/24 83/72/24 102/72/24
f 100/73/24 106/70/24 98/70/24
f 112/69/26 85/81/26 86/82/26
f 108/71/27 109/66/27 110/67/27
f 81/73/28 105/64/28 106/70/28
f 103/80/19 85/83/19 90/83/19
f 96/71/24 110/67/24 94/67/24
f 99/63/19 84/75/19 101/75/19
f 104/74/24 86/79/24 87/74/24
f 91/68/19 85/81/19 111/68/19
f 100/73/24 83/72/24 81/73/24
f 95/65/19 105/64/19 97/64/19
f 92/69/24 86/82/24 89/82/24
f 80/84/25 89/79/25 104/74/25
f 90/81/26 67/85/26 65/86/26
f 66/87/26 92/69/26 89/82/26
f 103/80/25 65/88/25 79/89/25
f 92/69/20 70/90/20 94/67/20
f 91/68/20 69/91/20 67/85/20
f 70/90/27 96/71/27 94/67/27
f 93/66/27 71/92/27 69/91/27
f 72/93/21 98/70/21 96/71/21
f 95/65/21 73/94/21 71/92/21
f 98/70/28 76/95/28 100/73/28
f 97/64/28 75/96/28 73/94/28
f 76/95/22 102/72/22 100/73/22
f 99/63/22 77/97/22 75/96/22
f 78/98/23 104/74/23 102/72/23
f 101/75/23 79/89/23 77/97/23
f 99/63/19 97/64/19 105/64/19
f 95/65/19 93/66/19 109/66/19
f 110/67/20 109/66/20 111/68/20
f 106/70/21 105/64/21 107/65/21
f 83/72/22 84/75/22 82/63/22
f 87/74/23 88/80/23 84/75/23
f 91/68/19 111/68/19 109/66/19
f 92/69/24 94/67/24 110/67/24
f 79/78/24 65/99/24 67/100/24
f 67/100/24 69/101/24 71/76/24
f 71/76/24 73/102/24 75/77/24
f 75/77/24 77/103/24 79/78/24
f 79/78/24 67/100/24 71/76/24
f 86/79/25 85/83/25 88/80/25
f 96/71/24 98/70/24 106/70/24
f 103/80/19 101/75/19 84/75/19
f 104/74/24 87/74/24 83/72/24
f 100/73/24 81/73/24 106/70/24
f 112/69/26 111/68/26 85/81/26
f 108/71/27 107/65/27 109/66/27
f 81/73/28 82/63/28 105/64/28
f 103/80/19 88/80/19 85/83/19
f 96/71/24 108/71/24 110/67/24
f 99/63/19 82/63/19 84/75/19
f 104/74/24 89/79/24 86/79/24
f 91/68/19 90/81/19 85/81/19
f 100/73/24 102/72/24 83/72/24
f 95/65/19 107/65/19 105/64/19
f 92/69/24 112/69/24 86/82/24
f 80/84/25 66/104/25 89/79/25
f 90/81/26 91/68/26 67/85/26
f 66/87/26 68/105/26 92/69/26
f 103/80/25 90/83/25 65/88/25
f 92/69/20 68/105/20 70/90/20
f 91/68/20 93/66/20 69/91/20
f 70/90/27 72/93/27 96/71/27
f 93/66/27 95/65/27 71/92/27
f 72/93/21 74/106/21 98/70/21
f 95/65/21 97/64/21 73/94/21
f 98/70/28 74/106/28 76/95/28
f 97/64/28 99/63/28 75/96/28
f 76/95/22 78/98/22 102/72/22
f 99/63/22 101/75/22 77/97/22
f 78/98/23 80/84/23 104/74/23
f 101/75/23 103/80/23 79/89/23
