# Blender 5.0.1
# www.blender.org
mtllib ShopStand.mtl
g Sphere_Mesh
v 0.175000 0.927513 0.175000
v 0.123744 0.871891 0.123744
v 0.064054 0.836926 0.064054
v 0.000000 0.825000 0.000000
v 0.078450 0.836926 0.045293
v 0.151554 0.871891 0.087500
v 0.214330 0.927513 0.123744
v 0.262500 1.000000 0.151554
v 0.292781 1.000000 0.078450
v 0.239054 0.927513 0.064054
v 0.169037 0.871891 0.045293
v 0.087500 0.836926 0.023446
v 0.090587 0.836926 0.000000
v 0.175000 0.871891 0.000000
v 0.247487 0.927513 -0.000000
v 0.303109 1.000000 0.000000
v 0.292781 1.000000 -0.078450
v 0.239054 0.927513 -0.064054
v 0.169037 0.871891 -0.045293
v 0.087500 0.836926 -0.023446
v 0.078450 0.836926 -0.045293
v 0.151554 0.871891 -0.087500
v 0.214330 0.927513 -0.123744
v 0.262500 1.000000 -0.151554
v 0.214330 1.000000 -0.214330
v 0.175000 0.927513 -0.175000
v 0.123744 0.871891 -0.123744
v 0.064054 0.836926 -0.064054
v 0.045293 0.836926 -0.078450
v 0.087500 0.871891 -0.151554
v 0.123744 0.927513 -0.214330
v 0.151554 1.000000 -0.262500
v 0.078450 1.000000 -0.292781
v 0.064054 0.927513 -0.239054
v 0.045293 0.871891 -0.169037
v 0.023446 0.836926 -0.087500
v 0.000000 0.836926 -0.090587
v 0.000000 0.871891 -0.175000
v 0.214330 1.000000 0.214330
v 0.123744 0.927513 0.214330
v 0.087500 0.871891 0.151554
v 0.045293 0.836926 0.078450
v 0.151554 1.000000 0.262500
v 0.064054 0.927513 0.239054
v 0.045293 0.871891 0.169037
v 0.023446 0.836926 0.087500
v 0.078450 1.000000 0.292781
v 0.000000 0.927513 0.247487
v 0.000000 0.871891 0.175000
v 0.000000 0.836926 0.090587
v 0.000000 1.000000 0.303109
v 0.000000 0.927513 -0.247487
v 0.000000 1.000000 -0.303109
v 0.090000 1.175000 -0.338074
v 0.000000 1.175000 -0.350000
v 0.090000 1.087500 -0.326554
v 0.000000 1.084413 -0.338074
v 0.090000 1.000000 -0.290000
v 0.000000 1.000000 -0.303109
v 0.090000 1.467781 0.169037
v 0.000000 1.478109 0.175000
v 0.090000 1.501554 0.087500
v 0.000000 1.513074 0.090587
v 0.090000 1.513074 0.000000
v 0.000000 1.525000 0.000000
v 0.090000 1.501554 -0.087500
v 0.000000 1.513074 -0.090587
v 0.090000 1.467781 -0.169037
v 0.000000 1.478109 -0.175000
v 0.090000 1.414055 -0.239054
v 0.000000 1.422487 -0.247487
v 0.090000 1.344037 -0.292781
v 0.000000 1.350000 -0.303109
v 0.090000 1.262500 -0.326554
v 0.000000 1.265587 -0.338074
v 0.162554 0.850358 0.093851
v 0.132725 0.850358 0.132725
v 0.084272 0.812847 0.048655
v 0.068808 0.812847 0.068808
v 0.279677 0.984781 0.161471
v 0.228355 0.984781 0.228355
v 0.187594 0.909970 0.187594
v 0.229755 0.909970 0.132649
v 0.000000 0.800089 -0.000000
v 0.311939 0.984781 0.083584
v 0.093994 0.812847 0.025186
v 0.256259 0.909970 0.068664
v 0.181306 0.850358 0.048581
v 0.265299 0.909970 -0.000000
v 0.187702 0.850358 0.000000
v 0.097309 0.812847 0.000000
v 0.322943 0.984781 0.000000
v 0.256259 0.909970 -0.068664
v 0.311939 0.984781 -0.083584
v 0.181306 0.850358 -0.048581
v 0.093994 0.812847 -0.025186
v 0.084272 0.812847 -0.048655
v 0.279677 0.984781 -0.161471
v 0.229755 0.909970 -0.132649
v 0.162554 0.850358 -0.093851
v 0.132725 0.850358 -0.132725
v 0.187595 0.909970 -0.187595
v 0.068808 0.812847 -0.068808
v 0.228355 0.984781 -0.228355
v 0.093851 0.850358 -0.162554
v 0.048655 0.812847 -0.084272
v 0.161471 0.984781 -0.279677
v 0.132649 0.909970 -0.229755
v 0.025186 0.812847 -0.093994
v 0.048581 0.850358 -0.181306
v 0.083584 0.984781 -0.311939
v 0.068664 0.909970 -0.256259
v 0.000000 0.850406 -0.187673
v 0.000000 0.812862 -0.097305
v 0.161471 0.984781 0.279677
v 0.132649 0.909970 0.229755
v 0.093851 0.850358 0.162554
v 0.048655 0.812847 0.084272
v 0.083584 0.984781 0.311939
v 0.068664 0.909970 0.256259
v 0.048581 0.850358 0.181306
v 0.025186 0.812847 0.093994
v 0.000000 0.984863 0.322835
v 0.000000 0.910046 0.265221
v 0.000000 0.850406 0.187673
v 0.000000 0.812862 0.097305
v 0.000000 0.984863 -0.322835
v 0.000000 0.910046 -0.265221
v 0.000000 0.940000 0.310000
v 0.000000 0.960000 0.310000
v 0.200000 0.940000 0.200000
v 0.200000 0.960000 0.200000
v 0.310000 0.940000 0.310000
v 0.310000 0.960000 0.310000
v 0.310000 0.940000 0.000000
v 0.310000 0.960000 0.000000
v 0.092364 1.175000 -0.355918
v 0.000000 1.175000 -0.367844
v 0.092378 1.082869 -0.343785
v 0.000000 1.079782 -0.355305
v 0.092372 0.993146 -0.306474
v 0.000000 0.993146 -0.319583
v 0.092345 1.484269 0.175867
v 0.000000 1.494597 0.181830
v 0.092365 1.518790 0.092118
v 0.000000 1.530310 0.095205
v 0.092365 1.530918 0.000000
v 0.000000 1.542844 -0.000000
v 0.092365 1.518790 -0.092118
v 0.000000 1.530310 -0.095205
v 0.092365 1.483234 -0.177959
v 0.000000 1.493562 -0.183922
v 0.092365 1.426672 -0.251672
v 0.000000 1.435105 -0.260105
v 0.092364 1.352959 -0.308234
v 0.000000 1.358922 -0.318562
v 0.092364 1.267118 -0.343790
v 0.000000 1.270205 -0.355310
v 0.045000 1.175000 -0.344037
v 0.045000 1.085957 -0.332314
v 0.045000 1.000000 -0.296554
v 0.045000 1.472945 0.172018
v 0.045000 1.507314 0.089043
v 0.045000 1.519037 0.000000
v 0.045000 1.507314 -0.089043
v 0.045000 1.472945 -0.172018
v 0.045000 1.418271 -0.243271
v 0.045000 1.347018 -0.297945
v 0.045000 1.264043 -0.332314
v 0.046182 1.175000 -0.361881
v 0.046189 1.081326 -0.349545
v 0.046186 0.993146 -0.313029
v 0.046172 1.489433 0.178848
v 0.046182 1.524550 0.093662
v 0.046182 1.536881 0.000000
v 0.046182 1.524550 -0.093662
v 0.046182 1.488398 -0.180940
v 0.046182 1.430888 -0.255888
v 0.046182 1.355941 -0.313398
v 0.046182 1.268662 -0.349550
v 0.067500 1.416163 -0.241163
v 0.067500 1.470363 -0.170528
v 0.067500 1.504434 -0.088272
v 0.067500 1.516055 0.000000
v 0.067500 1.504434 0.088272
v 0.067500 1.470363 0.170528
v 0.067500 1.000000 -0.293277
v 0.067500 1.086728 -0.329434
v 0.067500 1.175000 -0.341056
v 0.067500 1.345528 -0.295363
v 0.067500 1.263272 -0.329434
v 0.069273 1.175000 -0.358900
v 0.069284 1.082097 -0.346665
v 0.069279 0.993146 -0.309752
v 0.069258 1.486851 0.177357
v 0.069273 1.521670 0.092890
v 0.069273 1.533900 0.000000
v 0.069273 1.521670 -0.092890
v 0.069273 1.485816 -0.179450
v 0.069273 1.428780 -0.253780
v 0.069273 1.354450 -0.310816
v 0.069273 1.267890 -0.346670
v 0.071194 1.175000 -0.373776
v 0.048103 1.175000 -0.376758
v 0.071216 1.078245 -0.361033
v 0.048121 1.077474 -0.363913
v 0.071206 0.987450 -0.323493
v 0.048113 0.987450 -0.326770
v 0.071179 1.518325 0.139878
v 0.048090 1.521056 0.141009
v 0.071194 1.536043 0.096728
v 0.048103 1.538923 0.097500
v 0.071194 1.548776 0.000000
v 0.048103 1.551757 0.000000
v 0.071194 1.536040 -0.096740
v 0.048103 1.538920 -0.097512
v 0.071194 1.498699 -0.186888
v 0.048103 1.501281 -0.188379
v 0.071194 1.439300 -0.264299
v 0.048103 1.441408 -0.266408
v 0.071194 1.361888 -0.323699
v 0.048103 1.363379 -0.326281
v 0.071194 1.271740 -0.361040
v 0.048103 1.272512 -0.363920
v 0.058584 1.509834 0.113644
v 0.063163 1.546166 0.129737
v 0.072364 1.505760 0.118920
v 0.076943 1.542093 0.135013
v 0.077560 1.499387 0.131831
v 0.082139 1.535719 0.147924
v 0.071129 1.494447 0.144813
v 0.075707 1.530779 0.160907
v 0.056837 1.493834 0.150263
v 0.061416 1.530166 0.166356
v 0.043057 1.497907 0.144987
v 0.047636 1.534240 0.161080
v 0.037861 1.504281 0.132076
v 0.042440 1.540613 0.148169
v 0.044293 1.509221 0.119093
v 0.048871 1.545553 0.135187
v 0.000000 1.620000 0.000000
v 0.000000 1.680000 0.000000
v 0.000000 1.620000 -0.010000
v 0.000000 1.680000 -0.010000
v 0.200000 1.620000 0.000000
v 0.200000 1.680000 0.000000
v 0.200000 1.620000 -0.010000
v 0.200000 1.680000 -0.010000
v 0.050000 1.537574 -0.052426
v 0.050000 1.523432 -0.066569
v 0.070000 1.537574 -0.052426
v 0.070000 1.523432 -0.066569
v 0.050000 1.557039 -0.065433
v 0.050000 1.549385 -0.083910
v 0.070000 1.557039 -0.065433
v 0.070000 1.549385 -0.083910
v 0.050000 1.580000 -0.070000
v 0.050000 1.580000 -0.090000
v 0.070000 1.580000 -0.070000
v 0.070000 1.580000 -0.090000
v 0.050000 1.602961 -0.065433
v 0.050000 1.610615 -0.083910
v 0.070000 1.602961 -0.065433
v 0.070000 1.610615 -0.083910
v 0.050000 1.622427 -0.052426
v 0.050000 1.636569 -0.066568
v 0.070000 1.622427 -0.052426
v 0.070000 1.636569 -0.066568
v 0.050000 1.635433 -0.032961
v 0.050000 1.653910 -0.040615
v 0.070000 1.635433 -0.032961
v 0.070000 1.653910 -0.040615
v 0.050000 1.640000 -0.010000
v 0.050000 1.660000 -0.010000
v 0.070000 1.640000 -0.010000
v 0.070000 1.660000 -0.010000
v 0.310000 0.962000 0.310000
v 0.310000 0.900000 0.310000
v 0.310000 0.962000 0.330000
v 0.310000 0.900000 0.330000
v 0.000000 0.962000 0.310000
v 0.240209 0.739498 0.330000
v 0.000000 0.962000 0.330000
v -0.130000 0.800000 0.150000
v -0.150000 0.800000 0.130000
v -0.150000 0.870000 0.130000
v -0.130000 0.870000 0.150000
v -0.150000 0.800000 -0.130000
v -0.130000 0.800000 -0.150000
v -0.130000 0.870000 -0.150000
v -0.150000 0.870000 -0.130000
v 0.150000 0.800000 0.130000
v 0.130000 0.800000 0.150000
v 0.130000 0.870000 0.150000
v 0.150000 0.870000 0.130000
v 0.130000 0.800000 -0.150000
v 0.150000 0.800000 -0.130000
v 0.150000 0.870000 -0.130000
v 0.130000 0.870000 -0.150000
v 0.310000 0.962000 -0.260000
v 0.310000 0.930000 -0.260000
v 0.330000 0.962000 -0.260000
v 0.330000 0.930000 -0.260000
v 0.310000 0.962000 0.260000
v 0.310000 0.930000 0.260000
v 0.330000 0.962000 0.260000
v 0.330000 0.930000 0.260000
v 0.260000 0.000000 0.340000
v 0.260000 0.980000 0.340000
v 0.260000 0.000000 0.260000
v 0.260000 0.980000 0.260000
v 0.340000 0.000000 0.340000
v 0.340000 0.980000 0.340000
v 0.340000 0.000000 0.260000
v 0.340000 0.980000 0.260000
v 0.300000 0.970000 0.280000
v 0.300000 1.010000 0.280000
v 0.314142 0.970000 0.285858
v 0.314142 1.010000 0.285858
v 0.320000 0.970000 0.300000
v 0.320000 1.010000 0.300000
v 0.314142 0.970000 0.314142
v 0.314142 1.010000 0.314142
v 0.300000 0.970000 0.320000
v 0.300000 1.010000 0.320000
v 0.285858 0.970000 0.314142
v 0.285858 1.010000 0.314142
v 0.280000 0.970000 0.300000
v 0.280000 1.010000 0.300000
v 0.285858 0.970000 0.285858
v 0.285858 1.010000 0.285858
v 0.099498 0.880208 0.310000
v 0.183848 0.823848 0.310000
v 0.240209 0.739498 0.310000
v 0.000000 0.900000 0.310000
v 0.260000 0.640000 0.310000
v 0.260000 0.640000 0.330000
v 0.183848 0.823848 0.330000
v 0.099498 0.880208 0.330000
v 0.000000 0.900000 0.330000
v 0.300000 1.070000 0.283247
v 0.300000 1.101000 0.280000
v 0.311846 1.070000 0.288154
v 0.314142 1.101000 0.285858
v 0.316753 1.070000 0.300000
v 0.320000 1.101000 0.300000
v 0.311846 1.070000 0.311846
v 0.314142 1.101000 0.314142
v 0.300000 1.070000 0.316753
v 0.300000 1.101000 0.320000
v 0.288154 1.070000 0.311846
v 0.285858 1.101000 0.314142
v 0.283247 1.070000 0.300000
v 0.280000 1.101000 0.300000
v 0.288154 1.070000 0.288154
v 0.285858 1.101000 0.285858
v 0.279000 1.100000 0.321000
v 0.321000 1.100000 0.321000
v 0.279000 1.100000 0.279000
v 0.321000 1.100000 0.279000
v 0.279000 1.098000 0.321000
v 0.321000 1.098000 0.321000
v 0.279000 1.098000 0.279000
v 0.321000 1.098000 0.279000
v 0.320000 1.101000 0.319000
v 0.330000 1.111000 0.319000
v 0.320000 1.101000 0.281000
v 0.330000 1.111000 0.281000
v 0.321000 1.100000 0.319000
v 0.331000 1.110000 0.319000
v 0.321000 1.100000 0.281000
v 0.331000 1.110000 0.281000
v 0.281000 1.101000 0.320000
v 0.281000 1.111000 0.330000
v 0.319000 1.101000 0.320000
v 0.319000 1.111000 0.330000
v 0.281000 1.100000 0.321000
v 0.281000 1.110000 0.331000
v 0.319000 1.100000 0.321000
v 0.319000 1.110000 0.331000
v 0.280000 1.101000 0.281000
v 0.270000 1.111000 0.281000
v 0.280000 1.101000 0.319000
v 0.270000 1.111000 0.319000
v 0.279000 1.100000 0.281000
v 0.269000 1.110000 0.281000
v 0.279000 1.100000 0.319000
v 0.269000 1.110000 0.319000
v 0.319000 1.101000 0.280000
v 0.319000 1.111000 0.270000
v 0.281000 1.101000 0.280000
v 0.281000 1.111000 0.270000
v 0.319000 1.100000 0.279000
v 0.319000 1.110000 0.269000
v 0.281000 1.100000 0.279000
v 0.281000 1.110000 0.269000
v 0.300000 1.070000 0.280000
v 0.314142 1.070000 0.285858
v 0.320000 1.070000 0.300000
v 0.314142 1.070000 0.314142
v 0.300000 1.070000 0.320000
v 0.285858 1.070000 0.314142
v 0.280000 1.070000 0.300000
v 0.285858 1.070000 0.285858
v 0.300000 1.044000 0.283247
v 0.311846 1.044000 0.288154
v 0.316753 1.044000 0.300000
v 0.311846 1.044000 0.311846
v 0.300000 1.044000 0.316753
v 0.288154 1.044000 0.311846
v 0.283247 1.044000 0.300000
v 0.288154 1.044000 0.288154
v 0.310000 0.962000 -0.330000
v 0.310000 0.900000 -0.330000
v 0.310000 0.962000 -0.310000
v 0.310000 0.900000 -0.310000
v 0.000000 0.962000 -0.330000
v 0.240209 0.739498 -0.310000
v 0.000000 0.962000 -0.310000
v 0.260000 0.000000 -0.260000
v 0.260000 0.980000 -0.260000
v 0.260000 0.000000 -0.340000
v 0.260000 0.980000 -0.340000
v 0.340000 0.000000 -0.260000
v 0.340000 0.980000 -0.260000
v 0.340000 0.000000 -0.340000
v 0.340000 0.980000 -0.340000
v 0.300000 0.970000 -0.320000
v 0.300000 1.010000 -0.320000
v 0.314142 0.970000 -0.314142
v 0.314142 1.010000 -0.314142
v 0.320000 0.970000 -0.300000
v 0.320000 1.010000 -0.300000
v 0.314142 0.970000 -0.285858
v 0.314142 1.010000 -0.285858
v 0.300000 0.970000 -0.280000
v 0.300000 1.010000 -0.280000
v 0.285858 0.970000 -0.285858
v 0.285858 1.010000 -0.285858
v 0.280000 0.970000 -0.300000
v 0.280000 1.010000 -0.300000
v 0.285858 0.970000 -0.314142
v 0.285858 1.010000 -0.314142
v 0.099498 0.880208 -0.330000
v 0.183848 0.823848 -0.330000
v 0.240209 0.739498 -0.330000
v 0.000000 0.900000 -0.330000
v 0.260000 0.640000 -0.330000
v 0.260000 0.640000 -0.310000
v 0.183848 0.823848 -0.310000
v 0.099498 0.880208 -0.310000
v 0.000000 0.900000 -0.310000
v 0.000000 0.940000 -0.310000
v 0.000000 0.960000 -0.310000
v 0.200000 0.940000 -0.200000
v 0.200000 0.960000 -0.200000
v 0.310000 0.940000 -0.310000
v 0.310000 0.960000 -0.310000
v 0.310000 0.940000 0.000000
v 0.310000 0.960000 0.000000
v -0.175000 0.927513 0.175000
v -0.123744 0.871891 0.123744
v -0.064054 0.836926 0.064054
v -0.078450 0.836926 0.045293
v -0.151554 0.871891 0.087500
v -0.214330 0.927513 0.123744
v -0.262500 1.000000 0.151554
v -0.292781 1.000000 0.078450
v -0.239054 0.927513 0.064054
v -0.169037 0.871891 0.045293
v -0.087500 0.836926 0.023446
v -0.090587 0.836926 0.000000
v -0.175000 0.871891 0.000000
v -0.247487 0.927513 -0.000000
v -0.303109 1.000000 0.000000
v -0.292781 1.000000 -0.078450
v -0.239054 0.927513 -0.064054
v -0.169037 0.871891 -0.045293
v -0.087500 0.836926 -0.023446
v -0.078450 0.836926 -0.045293
v -0.151554 0.871891 -0.087500
v -0.214330 0.927513 -0.123744
v -0.262500 1.000000 -0.151554
v -0.214330 1.000000 -0.214330
v -0.175000 0.927513 -0.175000
v -0.123744 0.871891 -0.123744
v -0.064054 0.836926 -0.064054
v -0.045293 0.836926 -0.078450
v -0.087500 0.871891 -0.151554
v -0.123744 0.927513 -0.214330
v -0.151554 1.000000 -0.262500
v -0.078450 1.000000 -0.292781
v -0.064054 0.927513 -0.239054
v -0.045293 0.871891 -0.169037
v -0.023446 0.836926 -0.087500
v -0.214330 1.000000 0.214330
v -0.123744 0.927513 0.214330
v -0.087500 0.871891 0.151554
v -0.045293 0.836926 0.078450
v -0.151554 1.000000 0.262500
v -0.064054 0.927513 0.239054
v -0.045293 0.871891 0.169037
v -0.023446 0.836926 0.087500
v -0.078450 1.000000 0.292781
v -0.090000 1.175000 -0.338074
v -0.090000 1.087500 -0.326554
v -0.090000 1.000000 -0.290000
v -0.090000 1.467781 0.169037
v -0.090000 1.501554 0.087500
v -0.090000 1.513074 0.000000
v -0.090000 1.501554 -0.087500
v -0.090000 1.467781 -0.169037
v -0.090000 1.414055 -0.239054
v -0.090000 1.344037 -0.292781
v -0.090000 1.262500 -0.326554
v -0.162554 0.850358 0.093851
v -0.132725 0.850358 0.132725
v -0.084272 0.812847 0.048655
v -0.068808 0.812847 0.068808
v -0.279677 0.984781 0.161471
v -0.228355 0.984781 0.228355
v -0.187594 0.909970 0.187594
v -0.229755 0.909970 0.132649
v -0.311939 0.984781 0.083584
v -0.093994 0.812847 0.025186
v -0.256259 0.909970 0.068664
v -0.181306 0.850358 0.048581
v -0.265299 0.909970 -0.000000
v -0.187702 0.850358 0.000000
v -0.097309 0.812847 0.000000
v -0.322943 0.984781 0.000000
v -0.256259 0.909970 -0.068664
v -0.311939 0.984781 -0.083584
v -0.181306 0.850358 -0.048581
v -0.093994 0.812847 -0.025186
v -0.084272 0.812847 -0.048655
v -0.279677 0.984781 -0.161471
v -0.229755 0.909970 -0.132649
v -0.162554 0.850358 -0.093851
v -0.132725 0.850358 -0.132725
v -0.187595 0.909970 -0.187595
v -0.068808 0.812847 -0.068808
v -0.228355 0.984781 -0.228355
v -0.093851 0.850358 -0.162554
v -0.048655 0.812847 -0.084272
v -0.161471 0.984781 -0.279677
v -0.132649 0.909970 -0.229755
v -0.025186 0.812847 -0.093994
v -0.048581 0.850358 -0.181306
v -0.083584 0.984781 -0.311939
v -0.068664 0.909970 -0.256259
v -0.161471 0.984781 0.279677
v -0.132649 0.909970 0.229755
v -0.093851 0.850358 0.162554
v -0.048655 0.812847 0.084272
v -0.083584 0.984781 0.311939
v -0.068664 0.909970 0.256259
v -0.048581 0.850358 0.181306
v -0.025186 0.812847 0.093994
v -0.200000 0.940000 0.200000
v -0.200000 0.960000 0.200000
v -0.310000 0.940000 0.310000
v -0.310000 0.960000 0.310000
v -0.310000 0.940000 0.000000
v -0.310000 0.960000 0.000000
v -0.092364 1.175000 -0.355918
v -0.092378 1.082869 -0.343785
v -0.092372 0.993146 -0.306474
v -0.092345 1.484269 0.175867
v -0.092365 1.518790 0.092118
v -0.092365 1.530918 0.000000
v -0.092365 1.518790 -0.092118
v -0.092365 1.483234 -0.177959
v -0.092365 1.426672 -0.251672
v -0.092364 1.352959 -0.308234
v -0.092364 1.267118 -0.343790
v -0.045000 1.175000 -0.344037
v -0.045000 1.085957 -0.332314
v -0.045000 1.000000 -0.296554
v -0.045000 1.472945 0.172018
v -0.045000 1.507314 0.089043
v -0.045000 1.519037 0.000000
v -0.045000 1.507314 -0.089043
v -0.045000 1.472945 -0.172018
v -0.045000 1.418271 -0.243271
v -0.045000 1.347018 -0.297945
v -0.045000 1.264043 -0.332314
v -0.046182 1.175000 -0.361881
v -0.046189 1.081326 -0.349545
v -0.046186 0.993146 -0.313029
v -0.046172 1.489433 0.178848
v -0.046182 1.524550 0.093662
v -0.046182 1.536881 0.000000
v -0.046182 1.524550 -0.093662
v -0.046182 1.488398 -0.180940
v -0.046182 1.430888 -0.255888
v -0.046182 1.355941 -0.313398
v -0.046182 1.268662 -0.349550
v -0.067500 1.416163 -0.241163
v -0.067500 1.470363 -0.170528
v -0.067500 1.504434 -0.088272
v -0.067500 1.516055 0.000000
v -0.067500 1.504434 0.088272
v -0.067500 1.470363 0.170528
v -0.067500 1.000000 -0.293277
v -0.067500 1.086728 -0.329434
v -0.067500 1.175000 -0.341056
v -0.067500 1.345528 -0.295363
v -0.067500 1.263272 -0.329434
v -0.069273 1.175000 -0.358900
v -0.069284 1.082097 -0.346665
v -0.069279 0.993146 -0.309752
v -0.069258 1.486851 0.177357
v -0.069273 1.521670 0.092890
v -0.069273 1.533900 0.000000
v -0.069273 1.521670 -0.092890
v -0.069273 1.485816 -0.179450
v -0.069273 1.428780 -0.253780
v -0.069273 1.354450 -0.310816
v -0.069273 1.267890 -0.346670
v -0.071194 1.175000 -0.373776
v -0.048103 1.175000 -0.376758
v -0.071216 1.078245 -0.361033
v -0.048121 1.077474 -0.363913
v -0.071206 0.987450 -0.323493
v -0.048113 0.987450 -0.326770
v -0.071179 1.518325 0.139878
v -0.048090 1.521056 0.141009
v -0.071194 1.536043 0.096728
v -0.048103 1.538923 0.097500
v -0.071194 1.548776 0.000000
v -0.048103 1.551757 0.000000
v -0.071194 1.536040 -0.096740
v -0.048103 1.538920 -0.097512
v -0.071194 1.498699 -0.186888
v -0.048103 1.501281 -0.188379
v -0.071194 1.439300 -0.264299
v -0.048103 1.441408 -0.266408
v -0.071194 1.361888 -0.323699
v -0.048103 1.363379 -0.326281
v -0.071194 1.271740 -0.361040
v -0.048103 1.272512 -0.363920
v -0.058584 1.509834 0.113644
v -0.063163 1.546166 0.129737
v -0.072364 1.505760 0.118920
v -0.076943 1.542093 0.135013
v -0.077560 1.499387 0.131831
v -0.082139 1.535719 0.147924
v -0.071129 1.494447 0.144813
v -0.075707 1.530779 0.160907
v -0.056837 1.493834 0.150263
v -0.061416 1.530166 0.166356
v -0.043057 1.497907 0.144987
v -0.047636 1.534240 0.161080
v -0.037861 1.504281 0.132076
v -0.042440 1.540613 0.148169
v -0.044293 1.509221 0.119093
v -0.048871 1.545553 0.135187
v -0.200000 1.620000 0.000000
v -0.200000 1.680000 0.000000
v -0.200000 1.620000 -0.010000
v -0.200000 1.680000 -0.010000
v -0.050000 1.537574 -0.052426
v -0.050000 1.523432 -0.066569
v -0.070000 1.537574 -0.052426
v -0.070000 1.523432 -0.066569
v -0.050000 1.557039 -0.065433
v -0.050000 1.549385 -0.083910
v -0.070000 1.557039 -0.065433
v -0.070000 1.549385 -0.083910
v -0.050000 1.580000 -0.070000
v -0.050000 1.580000 -0.090000
v -0.070000 1.580000 -0.070000
v -0.070000 1.580000 -0.090000
v -0.050000 1.602961 -0.065433
v -0.050000 1.610615 -0.083910
v -0.070000 1.602961 -0.065433
v -0.070000 1.610615 -0.083910
v -0.050000 1.622427 -0.052426
v -0.050000 1.636569 -0.066568
v -0.070000 1.622427 -0.052426
v -0.070000 1.636569 -0.066568
v -0.050000 1.635433 -0.032961
v -0.050000 1.653910 -0.040615
v -0.070000 1.635433 -0.032961
v -0.070000 1.653910 -0.040615
v -0.050000 1.640000 -0.010000
v -0.050000 1.660000 -0.010000
v -0.070000 1.640000 -0.010000
v -0.070000 1.660000 -0.010000
v -0.310000 0.962000 0.310000
v -0.310000 0.900000 0.310000
v -0.310000 0.962000 0.330000
v -0.310000 0.900000 0.330000
v -0.240209 0.739498 0.330000
v 0.130000 0.800000 0.150000
v 0.150000 0.800000 0.130000
v 0.150000 0.870000 0.130000
v 0.130000 0.870000 0.150000
v 0.150000 0.800000 -0.130000
v 0.130000 0.800000 -0.150000
v 0.130000 0.870000 -0.150000
v 0.150000 0.870000 -0.130000
v -0.150000 0.800000 0.130000
v -0.130000 0.800000 0.150000
v -0.130000 0.870000 0.150000
v -0.150000 0.870000 0.130000
v -0.130000 0.800000 -0.150000
v -0.150000 0.800000 -0.130000
v -0.150000 0.870000 -0.130000
v -0.130000 0.870000 -0.150000
v -0.310000 0.962000 -0.260000
v -0.310000 0.930000 -0.260000
v -0.330000 0.962000 -0.260000
v -0.330000 0.930000 -0.260000
v -0.310000 0.962000 0.260000
v -0.310000 0.930000 0.260000
v -0.330000 0.962000 0.260000
v -0.330000 0.930000 0.260000
v -0.260000 0.000000 0.340000
v -0.260000 0.980000 0.340000
v -0.260000 0.000000 0.260000
v -0.260000 0.980000 0.260000
v -0.340000 0.000000 0.340000
v -0.340000 0.980000 0.340000
v -0.340000 0.000000 0.260000
v -0.340000 0.980000 0.260000
v -0.300000 0.970000 0.280000
v -0.300000 1.010000 0.280000
v -0.314142 0.970000 0.285858
v -0.314142 1.010000 0.285858
v -0.320000 0.970000 0.300000
v -0.320000 1.010000 0.300000
v -0.314142 0.970000 0.314142
v -0.314142 1.010000 0.314142
v -0.300000 0.970000 0.320000
v -0.300000 1.010000 0.320000
v -0.285858 0.970000 0.314142
v -0.285858 1.010000 0.314142
v -0.280000 0.970000 0.300000
v -0.280000 1.010000 0.300000
v -0.285858 0.970000 0.285858
v -0.285858 1.010000 0.285858
v -0.099498 0.880208 0.310000
v -0.183848 0.823848 0.310000
v -0.240209 0.739498 0.310000
v -0.260000 0.640000 0.310000
v -0.260000 0.640000 0.330000
v -0.183848 0.823848 0.330000
v -0.099498 0.880208 0.330000
v -0.300000 1.070000 0.283247
v -0.300000 1.101000 0.280000
v -0.311846 1.070000 0.288154
v -0.314142 1.101000 0.285858
v -0.316753 1.070000 0.300000
v -0.320000 1.101000 0.300000
v -0.311846 1.070000 0.311846
v -0.314142 1.101000 0.314142
v -0.300000 1.070000 0.316753
v -0.300000 1.101000 0.320000
v -0.288154 1.070000 0.311846
v -0.285858 1.101000 0.314142
v -0.283247 1.070000 0.300000
v -0.280000 1.101000 0.300000
v -0.288154 1.070000 0.288154
v -0.285858 1.101000 0.285858
v -0.279000 1.100000 0.321000
v -0.321000 1.100000 0.321000
v -0.279000 1.100000 0.279000
v -0.321000 1.100000 0.279000
v -0.279000 1.098000 0.321000
v -0.321000 1.098000 0.321000
v -0.279000 1.098000 0.279000
v -0.321000 1.098000 0.279000
v -0.320000 1.101000 0.319000
v -0.330000 1.111000 0.319000
v -0.320000 1.101000 0.281000
v -0.330000 1.111000 0.281000
v -0.321000 1.100000 0.319000
v -0.331000 1.110000 0.319000
v -0.321000 1.100000 0.281000
v -0.331000 1.110000 0.281000
v -0.281000 1.101000 0.320000
v -0.281000 1.111000 0.330000
v -0.319000 1.101000 0.320000
v -0.319000 1.111000 0.330000
v -0.281000 1.100000 0.321000
v -0.281000 1.110000 0.331000
v -0.319000 1.100000 0.321000
v -0.319000 1.110000 0.331000
v -0.280000 1.101000 0.281000
v -0.270000 1.111000 0.281000
v -0.280000 1.101000 0.319000
v -0.270000 1.111000 0.319000
v -0.279000 1.100000 0.281000
v -0.269000 1.110000 0.281000
v -0.279000 1.100000 0.319000
v -0.269000 1.110000 0.319000
v -0.319000 1.101000 0.280000
v -0.319000 1.111000 0.270000
v -0.281000 1.101000 0.280000
v -0.281000 1.111000 0.270000
v -0.319000 1.100000 0.279000
v -0.319000 1.110000 0.269000
v -0.281000 1.100000 0.279000
v -0.281000 1.110000 0.269000
v -0.300000 1.070000 0.280000
v -0.314142 1.070000 0.285858
v -0.320000 1.070000 0.300000
v -0.314142 1.070000 0.314142
v -0.300000 1.070000 0.320000
v -0.285858 1.070000 0.314142
v -0.280000 1.070000 0.300000
v -0.285858 1.070000 0.285858
v -0.300000 1.044000 0.283247
v -0.311846 1.044000 0.288154
v -0.316753 1.044000 0.300000
v -0.311846 1.044000 0.311846
v -0.300000 1.044000 0.316753
v -0.288154 1.044000 0.311846
v -0.283247 1.044000 0.300000
v -0.288154 1.044000 0.288154
v -0.310000 0.962000 -0.330000
v -0.310000 0.900000 -0.330000
v -0.310000 0.962000 -0.310000
v -0.310000 0.900000 -0.310000
v -0.240209 0.739498 -0.310000
v -0.260000 0.000000 -0.260000
v -0.260000 0.980000 -0.260000
v -0.260000 0.000000 -0.340000
v -0.260000 0.980000 -0.340000
v -0.340000 0.000000 -0.260000
v -0.340000 0.980000 -0.260000
v -0.340000 0.000000 -0.340000
v -0.340000 0.980000 -0.340000
v -0.300000 0.970000 -0.320000
v -0.300000 1.010000 -0.320000
v -0.314142 0.970000 -0.314142
v -0.314142 1.010000 -0.314142
v -0.320000 0.970000 -0.300000
v -0.320000 1.010000 -0.300000
v -0.314142 0.970000 -0.285858
v -0.314142 1.010000 -0.285858
v -0.300000 0.970000 -0.280000
v -0.300000 1.010000 -0.280000
v -0.285858 0.970000 -0.285858
v -0.285858 1.010000 -0.285858
v -0.280000 0.970000 -0.300000
v -0.280000 1.010000 -0.300000
v -0.285858 0.970000 -0.314142
v -0.285858 1.010000 -0.314142
v -0.099498 0.880208 -0.330000
v -0.183848 0.823848 -0.330000
v -0.240209 0.739498 -0.330000
v -0.260000 0.640000 -0.330000
v -0.260000 0.640000 -0.310000
v -0.183848 0.823848 -0.310000
v -0.099498 0.880208 -0.310000
v -0.200000 0.940000 -0.200000
v -0.200000 0.960000 -0.200000
v -0.310000 0.940000 -0.310000
v -0.310000 0.960000 -0.310000
v -0.310000 0.940000 0.000000
v -0.310000 0.960000 0.000000
vn -0.1345 0.9632 -0.2329
vn -0.3593 0.8613 -0.3593
vn -0.1901 0.9632 -0.1901
vn -0.3562 0.7017 -0.6170
vn -0.5038 0.7017 -0.5038
vn -0.5610 0.6088 -0.5610
vn -0.0000 1.0000 -0.0000
vn -0.4400 0.8613 -0.2540
vn -0.6170 0.7017 -0.3562
vn -0.2329 0.9632 -0.1345
vn -0.6871 0.6088 -0.3967
vn -0.7663 0.6088 -0.2053
vn -0.6882 0.7017 -0.1844
vn -0.2597 0.9632 -0.0696
vn -0.4908 0.8613 -0.1315
vn -0.2689 0.9632 -0.0000
vn -0.7125 0.7017 -0.0000
vn -0.7934 0.6088 -0.0000
vn -0.5081 0.8613 -0.0000
vn -0.4908 0.8613 0.1315
vn -0.6882 0.7017 0.1844
vn -0.7663 0.6088 0.2053
vn -0.2597 0.9632 0.0696
vn -0.2329 0.9632 0.1345
vn -0.4400 0.8613 0.2540
vn -0.6871 0.6088 0.3967
vn -0.6170 0.7017 0.3562
vn -0.3593 0.8613 0.3593
vn -0.1901 0.9632 0.1901
vn -0.5038 0.7017 0.5038
vn -0.5610 0.6088 0.5610
vn -0.3562 0.7017 0.6170
vn -0.2540 0.8613 0.4400
vn -0.1345 0.9632 0.2329
vn -0.3967 0.6088 0.6871
vn -0.0696 0.9632 0.2597
vn -0.1315 0.8613 0.4908
vn -0.1844 0.7017 0.6882
vn -0.2053 0.6088 0.7663
vn -0.0000 0.7017 0.7125
vn -0.0000 0.8613 0.5081
vn -0.0000 0.9632 0.2689
vn -0.0000 0.6088 0.7934
vn -0.0696 0.9632 -0.2597
vn -0.1844 0.7017 -0.6882
vn -0.3967 0.6088 -0.6871
vn -0.2540 0.8613 -0.4400
vn -0.0000 0.8613 -0.5081
vn -0.1315 0.8613 -0.4908
vn -0.0000 0.9632 -0.2689
vn -0.0000 0.7017 -0.7125
vn -0.2053 0.6088 -0.7663
vn -0.1315 0.2575 0.9573
vn -0.1314 -0.0000 0.9913
vn -0.1330 0.3817 0.9147
vn -0.1316 0.2577 0.9572
vn -0.1303 -0.9160 -0.3794
vn -0.1314 -0.9576 -0.2566
vn -0.1314 -0.9913 -0.0000
vn -0.1314 -0.9576 0.2566
vn -0.1314 -0.8585 0.4957
vn -0.1314 -0.7010 0.7010
vn -0.1314 -0.4957 0.8585
vn -0.1314 -0.2566 0.9576
vn 0.3596 -0.8610 0.3596
vn 0.1345 -0.9631 0.2330
vn 0.1902 -0.9631 0.1902
vn 0.3560 -0.7023 0.6165
vn 0.2543 -0.8610 0.4404
vn 0.5601 -0.6104 0.5601
vn 0.5034 -0.7023 0.5034
vn -0.0000 -1.0000 -0.0000
vn 0.4404 -0.8610 0.2543
vn 0.2330 -0.9631 0.1345
vn 0.6165 -0.7023 0.3560
vn 0.7651 -0.6104 0.2050
vn 0.6876 -0.7023 0.1843
vn 0.2598 -0.9631 0.0696
vn 0.4913 -0.8610 0.1316
vn 0.2690 -0.9631 -0.0000
vn 0.7921 -0.6104 -0.0000
vn 0.7119 -0.7023 -0.0000
vn 0.5086 -0.8610 -0.0000
vn 0.4913 -0.8610 -0.1316
vn 0.7651 -0.6104 -0.2050
vn 0.6876 -0.7023 -0.1843
vn 0.2598 -0.9631 -0.0696
vn 0.4404 -0.8610 -0.2543
vn 0.2330 -0.9631 -0.1345
vn 0.6860 -0.6104 -0.3961
vn 0.6165 -0.7023 -0.3559
vn 0.1902 -0.9631 -0.1902
vn 0.3596 -0.8610 -0.3596
vn 0.5034 -0.7023 -0.5034
vn 0.2543 -0.8610 -0.4404
vn 0.1345 -0.9631 -0.2330
vn 0.3961 -0.6104 -0.6860
vn 0.3559 -0.7023 -0.6165
vn 0.0693 -0.9631 -0.2600
vn 0.1310 -0.8610 -0.4915
vn 0.2043 -0.6103 -0.7653
vn 0.1835 -0.7023 -0.6878
vn -0.0000 -0.7020 -0.7121
vn -0.0000 -0.8608 -0.5090
vn -0.0000 -0.9631 -0.2693
vn 0.0693 -0.9631 0.2600
vn 0.3961 -0.6104 0.6860
vn 0.1835 -0.7023 0.6878
vn 0.1310 -0.8610 0.4915
vn -0.0000 -0.8608 0.5090
vn -0.0000 -0.9631 0.2693
vn 0.2043 -0.6103 0.7653
vn -0.0000 -0.7020 0.7121
vn 0.3044 0.7934 -0.5272
vn 0.1576 0.7934 -0.5880
vn 0.5880 0.7934 -0.1576
vn 0.5272 0.7934 -0.3044
vn -0.0000 0.7934 0.6088
vn 0.1576 0.7934 0.5880
vn 0.5272 0.7934 0.3044
vn 0.5880 0.7934 0.1576
vn 0.4305 0.7934 -0.4305
vn 0.6088 0.7934 -0.0000
vn 0.3044 0.7934 0.5272
vn 0.4305 0.7934 0.4305
vn -0.0000 0.7934 -0.6088
vn -0.4819 -0.0000 -0.8762
vn -0.8762 -0.0000 -0.4819
vn 1.0000 -0.0000 -0.0000
vn -0.0000 -0.0000 1.0000
vn 0.1281 -0.0000 -0.9918
vn 0.1280 -0.2570 -0.9579
vn 0.1283 -0.2571 -0.9578
vn 0.1295 -0.3806 -0.9156
vn 0.1270 0.9170 0.3780
vn 0.1281 0.9582 0.2559
vn 0.1281 0.9918 -0.0000
vn 0.1281 0.9580 -0.2567
vn 0.1281 0.8589 -0.4959
vn 0.1281 0.7013 -0.7013
vn 0.1281 0.4959 -0.8589
vn 0.1281 0.2567 -0.9580
vn 0.9914 -0.1268 -0.0338
vn 0.9914 -0.1206 -0.0499
vn 0.9915 -0.1203 -0.0498
vn 0.1270 0.9170 0.3781
vn -0.0000 0.9661 0.2580
vn -0.0000 0.9245 0.3812
vn 0.9912 0.0343 0.1275
vn 0.9913 -0.0000 0.1314
vn -0.0547 -0.9241 0.3781
vn -0.0544 -0.9244 0.3776
vn -0.0549 -0.9247 0.3768
vn 0.9913 -0.1138 0.0657
vn 0.9913 -0.1269 0.0340
vn -0.0000 0.9659 -0.2588
vn -0.0000 0.8660 -0.5000
vn 0.9913 0.0508 0.1218
vn 0.9913 0.0508 0.1216
vn 0.9913 -0.1314 -0.0000
vn 0.9913 -0.0340 0.1269
vn 0.9913 -0.0657 0.1138
vn -0.0000 0.7071 -0.7071
vn -0.0000 0.5000 -0.8660
vn -0.0000 0.2588 -0.9659
vn 0.0169 -0.3835 0.9234
vn -0.0000 -0.3829 0.9238
vn 0.0170 -0.3838 0.9233
vn 0.9913 -0.0929 0.0929
vn -0.0000 -0.0000 -1.0000
vn -0.0000 -0.9236 0.3833
vn -0.0542 -0.9238 0.3791
vn -0.0549 -0.9234 0.3798
vn 0.0168 -0.3840 0.9232
vn 0.0169 -0.3843 0.9231
vn 0.1285 -0.2561 -0.9581
vn -0.0000 -0.3822 -0.9241
vn -0.0000 -0.2581 -0.9661
vn -0.0000 -0.2588 0.9659
vn -0.0000 -0.5000 0.8660
vn -0.0000 -0.7071 0.7071
vn -0.0000 -0.8660 0.5000
vn -0.0000 -0.9659 0.2588
vn -0.0000 -0.9659 -0.2588
vn -0.0000 -0.9239 -0.3827
vn -0.0000 0.3837 0.9235
vn -0.1316 0.2570 0.9574
vn -0.0000 0.2588 0.9659
vn 0.0168 -0.3845 0.9230
vn 0.0170 -0.3847 0.9229
vn -0.0539 -0.9243 0.3779
vn 0.9917 0.0333 0.1243
vn 0.9918 0.0001 0.1281
vn -0.9918 0.0640 -0.1109
vn -0.9918 0.0331 -0.1237
vn -0.9917 -0.0333 -0.1243
vn -0.9917 -0.0492 -0.1188
vn -0.9917 -0.0491 -0.1187
vn 0.9918 -0.0331 0.1237
vn 0.9918 -0.0640 0.1109
vn 0.9917 0.0492 0.1188
vn 0.9917 0.0334 0.1244
vn -0.9918 -0.0000 -0.1281
vn -0.9918 0.1237 0.0328
vn -0.9918 0.1185 0.0487
vn -0.9918 0.1238 0.0328
vn 0.9918 -0.1237 -0.0328
vn 0.9918 -0.1186 -0.0487
vn 0.9918 -0.1184 -0.0486
vn -0.9918 0.1281 -0.0000
vn -0.1330 0.3810 0.9150
vn 0.1280 0.9584 0.2552
vn 0.1281 0.9584 0.2553
vn 0.1262 0.8476 0.5154
vn 0.1283 -0.2561 -0.9581
vn 0.1296 -0.3788 -0.9164
vn 0.1280 -0.2560 -0.9581
vn 0.9918 -0.0905 0.0905
vn -0.9917 -0.0333 -0.1244
vn -0.9918 0.0905 -0.0905
vn 0.9918 -0.1109 0.0640
vn -0.9918 0.1109 -0.0640
vn 0.9918 -0.1237 0.0331
vn -0.0534 -0.9251 0.3760
vn -0.9918 0.1237 -0.0331
vn 0.9918 -0.1281 -0.0000
vn 0.1247 0.7578 0.6405
vn 0.1261 0.7580 0.6399
vn 0.9918 -0.1238 -0.0328
vn 0.0437 0.4000 -0.9155
vn 0.7327 0.1963 -0.6517
vn 0.9925 -0.1224 -0.0061
vn 0.6709 -0.3694 0.6430
vn -0.0437 -0.4000 0.9155
vn -0.7327 -0.1963 0.6517
vn -0.9925 0.1224 0.0061
vn 0.1145 0.9083 0.4023
vn -0.6709 0.3694 -0.6430
vn -1.0000 -0.0000 -0.0000
vn -0.0000 0.5556 0.8315
vn -0.0000 -0.5556 -0.8315
vn -0.0000 0.1951 0.9808
vn -0.0000 -0.1951 -0.9808
vn -0.0000 -0.5556 0.8315
vn -0.0000 -0.1951 0.9808
vn -0.0000 0.1951 -0.9808
vn -0.0000 0.5556 -0.8315
vn -0.0000 -0.8315 0.5556
vn -0.0000 0.8315 -0.5556
vn -0.0000 -0.9808 0.1951
vn -0.0000 0.9808 -0.1951
vn -0.7071 -0.0000 0.7071
vn -0.7071 -0.0000 -0.7071
vn 0.7071 -0.0000 -0.7071
vn 0.7071 -0.0000 0.7071
vn 0.3827 -0.0000 -0.9239
vn 0.9239 -0.0000 -0.3827
vn 0.9239 -0.0000 0.3827
vn 0.3827 -0.0000 0.9239
vn -0.3827 -0.0000 0.9239
vn -0.9239 -0.0000 0.3827
vn -0.9239 -0.0000 -0.3827
vn -0.3827 -0.0000 -0.9239
vn -0.1951 -0.9808 -0.0000
vn -0.8315 -0.5556 -0.0000
vn -0.5556 -0.8315 -0.0000
vn -0.9808 -0.1951 -0.0000
vn 0.7071 0.7071 -0.0000
vn -0.7071 -0.7071 -0.0000
vn 0.7071 -0.7071 -0.0000
vn -0.7071 0.7071 -0.0000
vn -0.0000 0.7071 0.7071
vn -0.0000 -0.7071 -0.7071
vn -0.4819 -0.0000 0.8762
vn -0.8762 -0.0000 0.4819
vn 0.3593 0.8613 -0.3593
vn 0.1345 0.9632 -0.2329
vn 0.1901 0.9632 -0.1901
vn 0.3562 0.7017 -0.6170
vn 0.2540 0.8613 -0.4400
vn 0.5610 0.6088 -0.5610
vn 0.5038 0.7017 -0.5038
vn 0.6170 0.7017 -0.3562
vn 0.4400 0.8613 -0.2540
vn 0.2329 0.9632 -0.1345
vn 0.6871 0.6088 -0.3967
vn 0.7663 0.6088 -0.2053
vn 0.6882 0.7017 -0.1844
vn 0.2597 0.9632 -0.0696
vn 0.4908 0.8613 -0.1315
vn 0.2689 0.9632 -0.0000
vn 0.7934 0.6088 -0.0000
vn 0.7125 0.7017 -0.0000
vn 0.5081 0.8613 -0.0000
vn 0.4908 0.8613 0.1315
vn 0.7663 0.6088 0.2053
vn 0.6882 0.7017 0.1844
vn 0.2597 0.9632 0.0696
vn 0.2329 0.9632 0.1345
vn 0.6871 0.6088 0.3967
vn 0.6170 0.7017 0.3562
vn 0.4400 0.8613 0.2540
vn 0.3593 0.8613 0.3593
vn 0.1901 0.9632 0.1901
vn 0.5038 0.7017 0.5038
vn 0.3562 0.7017 0.6170
vn 0.2540 0.8613 0.4400
vn 0.1345 0.9632 0.2329
vn 0.3967 0.6088 0.6871
vn 0.0696 0.9632 0.2597
vn 0.1315 0.8613 0.4908
vn 0.1844 0.7017 0.6882
vn 0.0696 0.9632 -0.2597
vn 0.3967 0.6088 -0.6871
vn 0.1844 0.7017 -0.6882
vn 0.1315 0.8613 -0.4908
vn -0.0000 0.6088 -0.7934
vn 0.1314 -0.0000 0.9913
vn 0.1316 0.2577 0.9572
vn 0.1315 0.2575 0.9573
vn 0.1330 0.3817 0.9147
vn 0.1303 -0.9160 -0.3794
vn 0.1314 -0.9576 -0.2566
vn 0.1314 -0.9913 -0.0000
vn 0.1314 -0.9576 0.2566
vn 0.1314 -0.8585 0.4957
vn 0.1314 -0.7010 0.7010
vn 0.1314 -0.4957 0.8585
vn 0.1314 -0.2566 0.9576
vn -0.1345 -0.9631 0.2330
vn -0.3596 -0.8610 0.3596
vn -0.1902 -0.9631 0.1902
vn -0.2543 -0.8610 0.4404
vn -0.5034 -0.7023 0.5034
vn -0.3560 -0.7023 0.6165
vn -0.5601 -0.6104 0.5601
vn -0.4404 -0.8610 0.2543
vn -0.6165 -0.7023 0.3560
vn -0.2330 -0.9631 0.1345
vn -0.6860 -0.6104 0.3961
vn -0.7651 -0.6104 0.2050
vn -0.6876 -0.7023 0.1843
vn -0.2598 -0.9631 0.0696
vn -0.4913 -0.8610 0.1316
vn -0.2690 -0.9631 -0.0000
vn -0.7921 -0.6104 -0.0000
vn -0.7119 -0.7023 -0.0000
vn -0.5086 -0.8610 -0.0000
vn -0.4913 -0.8610 -0.1316
vn -0.6876 -0.7023 -0.1843
vn -0.7651 -0.6104 -0.2050
vn -0.2598 -0.9631 -0.0696
vn -0.4404 -0.8610 -0.2543
vn -0.2330 -0.9631 -0.1345
vn -0.6860 -0.6104 -0.3961
vn -0.6165 -0.7023 -0.3560
vn -0.3596 -0.8610 -0.3596
vn -0.1902 -0.9631 -0.1902
vn -0.5034 -0.7023 -0.5034
vn -0.5601 -0.6104 -0.5601
vn -0.2543 -0.8610 -0.4404
vn -0.3560 -0.7023 -0.6165
vn -0.1345 -0.9631 -0.2330
vn -0.3961 -0.6104 -0.6860
vn -0.0693 -0.9631 -0.2600
vn -0.1310 -0.8610 -0.4915
vn -0.1835 -0.7023 -0.6878
vn -0.2043 -0.6103 -0.7653
vn -0.0000 -0.6101 -0.7923
vn -0.0693 -0.9631 0.2600
vn -0.1835 -0.7023 0.6878
vn -0.3961 -0.6104 0.6860
vn -0.1310 -0.8610 0.4915
vn -0.2043 -0.6103 0.7653
vn -0.1576 0.7934 -0.5880
vn -0.3044 0.7934 -0.5272
vn -0.5272 0.7934 -0.3044
vn -0.5880 0.7934 -0.1576
vn -0.1576 0.7934 0.5880
vn -0.5880 0.7934 0.1576
vn -0.5272 0.7934 0.3044
vn -0.4305 0.7934 -0.4305
vn -0.6088 0.7934 -0.0000
vn -0.3044 0.7934 0.5272
vn -0.4305 0.7934 0.4305
vn 0.4819 -0.0000 -0.8762
vn 0.8762 -0.0000 -0.4819
vn -0.1280 -0.2570 -0.9579
vn -0.1281 -0.0000 -0.9918
vn -0.1295 -0.3806 -0.9156
vn -0.1283 -0.2571 -0.9578
vn -0.1281 0.9582 0.2559
vn -0.1270 0.9170 0.3780
vn -0.1281 0.9918 -0.0000
vn -0.1281 0.9580 -0.2567
vn -0.1281 0.8589 -0.4959
vn -0.1281 0.7013 -0.7013
vn -0.1281 0.4959 -0.8589
vn -0.1281 0.2567 -0.9580
vn -0.9914 -0.1268 -0.0338
vn -0.9914 -0.1206 -0.0499
vn -0.9913 -0.1269 -0.0338
vn -0.1270 0.9170 0.3781
vn -0.9912 0.0343 0.1275
vn -0.9913 -0.0000 0.1314
vn -0.9912 0.0343 0.1276
vn 0.0547 -0.9241 0.3781
vn 0.0544 -0.9244 0.3776
vn 0.0539 -0.9243 0.3779
vn -0.9913 -0.1269 0.0340
vn -0.9913 -0.1138 0.0657
vn -0.9913 0.0508 0.1218
vn -0.9913 0.0508 0.1216
vn -0.9913 -0.1314 -0.0000
vn -0.9913 -0.0657 0.1138
vn -0.9913 -0.0340 0.1269
vn -0.0169 -0.3835 0.9234
vn -0.0170 -0.3838 0.9233
vn -0.9913 -0.0929 0.0929
vn 0.0542 -0.9238 0.3791
vn -0.0000 -0.9233 0.3841
vn -0.0168 -0.3840 0.9232
vn -0.0169 -0.3843 0.9231
vn -0.1285 -0.2561 -0.9581
vn 0.1316 0.2570 0.9574
vn -0.0168 -0.3845 0.9230
vn -0.0170 -0.3847 0.9229
vn 0.0549 -0.9234 0.3798
vn -0.9918 0.0001 0.1281
vn -0.9917 0.0333 0.1243
vn 0.9918 0.0331 -0.1237
vn 0.9918 0.0640 -0.1109
vn 0.9917 -0.0492 -0.1188
vn 0.9917 -0.0333 -0.1243
vn 0.9917 -0.0491 -0.1187
vn -0.9918 -0.0640 0.1109
vn -0.9918 -0.0331 0.1237
vn -0.9917 0.0492 0.1188
vn -0.9917 0.0492 0.1187
vn 0.9918 -0.0000 -0.1281
vn 0.9918 0.1237 0.0328
vn 0.9918 0.1185 0.0487
vn 0.9918 0.1184 0.0487
vn -0.9918 -0.1186 -0.0487
vn -0.9918 -0.1237 -0.0328
vn -0.9918 -0.1184 -0.0486
vn 0.9918 0.1281 -0.0000
vn 0.9918 0.1238 0.0328
vn 0.1330 0.3810 0.9150
vn -0.1280 0.9584 0.2552
vn -0.1281 0.9584 0.2553
vn -0.1262 0.8476 0.5154
vn -0.1255 0.8476 0.5156
vn -0.1296 -0.3788 -0.9164
vn -0.1283 -0.2561 -0.9581
vn -0.1280 -0.2560 -0.9581
vn -0.9918 -0.0905 0.0905
vn 0.9918 0.0905 -0.0905
vn -0.9918 -0.1109 0.0640
vn 0.9918 0.1109 -0.0640
vn -0.9918 -0.1237 0.0331
vn 0.0534 -0.9251 0.3760
vn 0.9918 0.1237 -0.0331
vn -0.9918 -0.1281 -0.0000
vn -0.1247 0.7578 0.6405
vn -0.1261 0.7580 0.6399
vn -0.9918 -0.1238 -0.0328
vn -0.7327 0.1963 -0.6517
vn -0.0437 0.4000 -0.9155
vn -0.9925 -0.1224 -0.0061
vn -0.6709 -0.3694 0.6430
vn 0.0437 -0.4000 0.9155
vn 0.7327 -0.1963 0.6517
vn 0.9925 0.1224 0.0061
vn -0.1145 0.9083 0.4023
vn 0.6709 0.3694 -0.6430
vn 0.1951 -0.9808 -0.0000
vn 0.8315 -0.5556 -0.0000
vn 0.5556 -0.8315 -0.0000
vn 0.9808 -0.1951 -0.0000
vn 0.4819 -0.0000 0.8762
vn 0.8762 -0.0000 0.4819
vn -0.1332 0.3820 0.9145
vn 0.6860 -0.6104 0.3961
vn 0.5601 -0.6104 -0.5601
vn -0.0000 -0.6101 0.7923
vn 0.1299 -0.3807 -0.9155
vn 0.9913 -0.1269 -0.0338
vn 0.9912 0.0343 0.1276
vn -0.0000 -0.3827 0.9239
vn 0.1300 -0.3794 -0.9161
vn 0.9917 0.0492 0.1187
vn -0.9918 0.1184 0.0487
vn 0.1255 0.8476 0.5156
vn 0.1300 -0.3788 -0.9163
vn 0.5610 0.6088 0.5610
vn 0.2053 0.6088 0.7663
vn 0.2053 0.6088 -0.7663
vn 0.1332 0.3820 0.9145
vn -0.1299 -0.3807 -0.9155
vn -0.9915 -0.1203 -0.0498
vn 0.0549 -0.9247 0.3768
vn -0.1300 -0.3794 -0.9161
vn -0.9917 0.0334 0.1244
vn 0.9917 -0.0333 -0.1244
vn -0.1300 -0.3788 -0.9163
vt 0.333333 0.083333
vt 0.375000 0.166667
vt 0.375000 0.083333
vt 0.333333 0.250000
vt 0.375000 0.250000
vt 0.375000 0.333333
vt 0.354167 0.000000
vt 0.416667 0.166667
vt 0.416667 0.250000
vt 0.416667 0.083333
vt 0.395833 0.000000
vt 0.416667 0.333333
vt 0.458333 0.333333
vt 0.458333 0.250000
vt 0.437500 0.000000
vt 0.458333 0.083333
vt 0.458333 0.166667
vt 0.479167 0.000000
vt 0.500000 0.083333
vt 0.500000 0.250000
vt 0.500000 0.333333
vt 0.500000 0.166667
vt 0.541667 0.166667
vt 0.541667 0.250000
vt 0.541667 0.333333
vt 0.520833 0.000000
vt 0.541667 0.083333
vt 0.583333 0.083333
vt 0.583333 0.166667
vt 0.562500 0.000000
vt 0.583333 0.333333
vt 0.583333 0.250000
vt 0.625000 0.166667
vt 0.625000 0.083333
vt 0.625000 0.250000
vt 0.625000 0.333333
vt 0.604167 0.000000
vt 0.666667 0.250000
vt 0.666667 0.166667
vt 0.666667 0.083333
vt 0.645833 0.000000
vt 0.666667 0.333333
vt 0.687500 0.000000
vt 0.708333 0.083333
vt 0.708333 0.166667
vt 0.708333 0.250000
vt 0.708333 0.333333
vt 0.750000 0.250000
vt 0.750000 0.166667
vt 0.750000 0.083333
vt 0.729167 0.000000
vt 0.750000 0.333333
vt 0.312500 0.000000
vt 0.291667 0.083333
vt 0.291667 0.250000
vt 0.333333 0.333333
vt 0.333333 0.166667
vt 0.250000 0.166667
vt 0.291667 0.166667
vt 0.270833 0.000000
vt 0.250000 0.083333
vt 0.250000 0.250000
vt 0.291667 0.333333
vt 0.708333 0.562500
vt 0.750000 0.583333
vt 0.750000 0.562500
vt 0.666667 0.562500
vt 0.708333 0.583333
vt 0.083333 0.562500
vt 0.041667 0.583333
vt 0.083333 0.583333
vt 0.000000 0.562500
vt 0.041667 0.562500
vt 0.958333 0.562500
vt 1.000000 0.583333
vt 1.000000 0.562500
vt 0.916667 0.562500
vt 0.958333 0.583333
vt 0.875000 0.583333
vt 0.916667 0.583333
vt 0.875000 0.562500
vt 0.833333 0.583333
vt 0.833333 0.562500
vt 0.791667 0.583333
vt 0.791667 0.562500
vt 0.250000 0.333333
vt 0.625000 0.000000
vt 0.375000 0.250000
vt 0.375000 0.000000
vt 0.375000 0.500000
vt 0.625000 0.500000
vt 0.375000 0.750000
vt 0.625000 0.750000
vt 0.375000 1.000000
vt 0.125000 0.500000
vt 0.125000 0.750000
vt 0.875000 0.500000
vt 0.000000 0.583333
vt 0.083333 0.541667
vt 0.041667 0.500000
vt 0.083333 0.500000
vt 0.041667 0.541667
vt 0.000000 0.500000
vt 0.666667 0.583333
vt 1.000000 0.500000
vt 0.958333 0.541667
vt 0.958333 0.500000
vt 0.916667 0.541667
vt 0.916667 0.500000
vt 0.875000 0.541667
vt 0.875000 0.500000
vt 0.833333 0.541667
vt 0.833333 0.500000
vt 0.791667 0.541667
vt 0.791667 0.500000
vt 0.750000 0.541667
vt 0.750000 0.500000
vt 0.666667 0.500000
vt 0.666667 0.541667
vt 0.708333 0.541667
vt 0.708333 0.500000
vt 1.000000 0.541667
vt 0.000000 0.541667
vt 0.062500 0.541667
vt 0.062500 0.562500
vt 1.000000 1.000000
vt 0.750000 1.000000
vt 0.625000 1.000000
vt 0.500000 0.500000
vt 0.250000 1.000000
vt 0.250000 0.500000
vt 0.010000 0.250000
vt 0.250000 0.010000
vt 0.490000 0.250000
vt 0.125000 1.000000
vt 0.375000 0.016667
vt 0.375000 0.266667
vt 0.625000 0.233333
vt 0.625000 0.266667
vt 0.375000 0.516667
vt 0.625000 0.483333
vt 0.625000 0.516667
vt 0.369444 0.761111
vt 0.625000 0.733333
vt 0.625000 0.766667
vt 0.125000 0.733333
vt 0.625000 0.016667
vt 0.375000 0.233333
vt 0.375000 0.983333
vt 0.369444 0.488889
vt 0.375000 0.733333
vt 0.875000 1.000000
vt 0.500000 1.000000
vt 0.919706 0.080294
vt 0.580294 0.080294
vt 0.580294 0.419706
vt 0.000000 0.000000
vt 0.750000 0.048966
vt 0.892153 0.107847
vt 0.892153 0.392153
vt 0.750000 0.490000
vt 0.919706 0.419706
vt 0.990000 0.250000
vt 0.951034 0.250000
vt 0.750000 0.010000
vt 0.607847 0.107847
vt 0.510000 0.250000
vt 0.548966 0.250000
vt 0.607847 0.392153
vt 0.750000 0.451034
vt 0.250000 0.490000
vt 0.141667 0.500000
vt 0.875000 0.750000
vt 0.419706 0.419706
vt 0.080294 0.419706
vt 0.080294 0.080294
vt 0.419706 0.080294
vt 0.000000 1.000000
vt 0.125000 0.516667
vt 0.141667 0.750000
vt 0.625000 0.983333
s 1
f 42/1/1 2/2/2 3/3/3
f 2/2/2 40/4/4 1/5/5
f 40/4/4 39/6/6 1/5/5
f 4/7/7 42/1/1 3/3/3
f 6/8/8 1/5/5 7/9/9
f 3/3/3 6/8/8 5/10/10
f 4/11/7 3/3/3 5/10/10
f 1/5/5 8/12/11 7/9/9
f 7/9/9 9/13/12 10/14/13
f 4/15/7 5/10/10 12/16/14
f 5/10/10 11/17/15 12/16/14
f 6/8/8 10/14/13 11/17/15
f 4/18/7 12/16/14 13/19/16
f 15/20/17 9/13/12 16/21/18
f 14/22/19 10/14/13 15/20/17
f 13/19/16 11/17/15 14/22/19
f 19/23/20 15/20/17 18/24/21
f 15/20/17 17/25/22 18/24/21
f 4/26/7 13/19/16 20/27/23
f 20/27/23 14/22/19 19/23/20
f 21/28/24 19/23/20 22/29/25
f 4/30/7 20/27/23 21/28/24
f 18/24/21 24/31/26 23/32/27
f 19/23/20 23/32/27 22/29/25
f 21/28/24 27/33/28 28/34/29
f 22/29/25 26/35/30 27/33/28
f 23/32/27 25/36/31 26/35/30
f 4/37/7 21/28/24 28/34/29
f 27/33/28 31/38/32 30/39/33
f 28/34/29 30/39/33 29/40/34
f 4/41/7 28/34/29 29/40/34
f 26/35/30 32/42/35 31/38/32
f 4/43/7 29/40/34 36/44/36
f 29/40/34 35/45/37 36/44/36
f 30/39/33 34/46/38 35/45/37
f 31/38/32 33/47/39 34/46/38
f 35/45/37 52/48/40 38/49/41
f 36/44/36 38/49/41 37/50/42
f 4/51/7 36/44/36 37/50/42
f 34/46/38 53/52/43 52/48/40
f 4/53/7 46/54/44 42/1/1
f 44/55/45 43/56/46 40/4/4
f 41/57/47 44/55/45 40/4/4
f 46/54/44 41/57/47 42/1/1
f 46/54/44 49/58/48 45/59/49
f 4/60/7 50/61/50 46/54/44
f 48/62/51 47/63/52 44/55/45
f 45/59/49 48/62/51 44/55/45
f 188/64/53 54/65/54 189/66/54
f 187/67/55 56/68/56 188/64/53
f 186/69/57 62/70/58 60/71/57
f 184/72/59 62/70/58 185/73/58
f 183/74/60 64/75/59 184/76/59
f 182/77/61 66/78/60 183/74/60
f 182/77/61 70/79/62 68/80/61
f 181/81/62 72/82/63 70/79/62
f 190/83/63 74/84/64 72/82/63
f 191/85/64 54/65/54 74/84/64
f 77/2/65 118/1/66 79/3/67
f 77/2/65 116/4/68 117/57/69
f 81/6/70 116/4/68 82/5/71
f 84/7/72 79/3/67 118/1/66
f 76/8/73 82/5/71 77/2/65
f 78/10/74 77/2/65 79/3/67
f 84/11/72 78/10/74 79/3/67
f 83/9/75 81/6/70 82/5/71
f 85/13/76 83/9/75 87/14/77
f 84/15/72 86/16/78 78/10/74
f 88/17/79 78/10/74 86/16/78
f 88/17/79 83/9/75 76/8/73
f 84/18/72 91/19/80 86/16/78
f 92/21/81 87/14/77 89/20/82
f 90/22/83 87/14/77 88/17/79
f 90/22/83 86/16/78 91/19/80
f 95/23/84 89/20/82 90/22/83
f 94/25/85 89/20/82 93/24/86
f 84/26/72 96/27/87 91/19/80
f 95/23/84 91/19/80 96/27/87
f 100/29/88 96/27/87 97/28/89
f 84/30/72 97/28/89 96/27/87
f 98/31/90 93/24/86 99/32/91
f 100/29/88 93/24/86 95/23/84
f 103/34/92 100/29/88 97/28/89
f 101/33/93 99/32/91 100/29/88
f 102/35/94 98/31/90 99/32/91
f 84/37/72 103/34/92 97/28/89
f 105/39/95 102/35/94 101/33/93
f 105/39/95 103/34/92 106/40/96
f 84/41/72 106/40/96 103/34/92
f 107/42/97 102/35/94 108/38/98
f 84/43/72 109/44/99 106/40/96
f 109/44/99 105/39/95 106/40/96
f 110/45/100 108/38/98 105/39/95
f 111/47/101 108/38/98 112/46/102
f 128/48/103 110/45/100 113/49/104
f 113/49/104 109/44/99 114/50/105
f 84/51/72 114/50/105 109/44/99
f 128/48/103 111/47/101 112/46/102
f 84/53/72 118/1/66 122/54/106
f 115/56/107 120/55/108 116/4/68
f 116/4/68 121/59/109 117/57/69
f 117/57/69 122/54/106 118/1/66
f 122/54/106 125/58/110 126/61/111
f 84/60/72 122/54/106 126/61/111
f 119/63/112 124/62/113 120/55/108
f 121/59/109 124/62/113 125/58/110
f 107/42/114 33/47/115 32/42/114
f 94/25/116 24/31/117 17/25/116
f 123/86/118 47/63/119 51/86/118
f 80/12/120 9/13/121 8/12/120
f 104/36/122 32/42/114 25/36/122
f 92/21/123 17/25/116 16/21/123
f 119/63/119 43/56/124 47/63/119
f 43/56/124 81/6/125 39/6/125
f 81/6/125 8/12/120 39/6/125
f 98/31/117 25/36/122 24/31/117
f 33/47/115 127/52/126 53/52/126
f 85/13/121 16/21/123 9/13/121
s 0
f 130/87/127 131/88/127 129/89/127
f 132/35/128 135/90/128 131/88/128
f 136/91/129 133/92/129 135/90/129
f 134/93/130 129/94/130 133/92/130
f 131/95/72 133/92/72 129/96/72
f 132/97/7 134/93/7 136/91/7
s 1
f 137/65/131 193/64/132 192/66/131
f 139/68/133 194/67/134 193/64/132
f 143/71/135 196/73/136 195/69/135
f 196/73/136 147/98/137 197/72/137
f 147/75/137 198/74/138 197/76/137
f 149/78/138 199/77/139 198/74/138
f 151/80/139 200/81/140 199/77/139
f 200/81/140 155/82/141 201/83/141
f 155/82/141 202/85/142 201/83/141
f 157/84/142 192/66/131 202/85/142
f 62/70/143 143/71/144 60/71/145
f 173/99/146 146/100/147 144/101/148
f 56/68/149 137/65/150 54/65/150
f 174/102/136 148/103/7 146/100/147
f 187/67/151 141/104/152 58/104/153
f 151/80/154 66/78/155 68/80/154
f 148/105/7 176/106/138 150/107/156
f 150/107/156 177/108/139 152/109/157
f 141/104/158 56/68/149 58/104/159
f 147/98/160 62/70/143 64/98/160
f 157/84/161 72/82/162 74/84/161
f 152/109/157 178/110/140 154/111/163
f 154/111/163 179/112/141 156/113/164
f 156/113/164 180/114/142 158/115/165
f 173/99/166 61/101/167 162/99/168
f 153/79/169 68/80/154 70/79/169
f 149/78/155 64/75/160 66/78/155
f 137/65/150 74/84/161 54/65/150
f 158/115/165 170/116/131 138/117/170
f 59/118/171 172/119/172 161/119/173
f 155/82/162 70/79/169 72/82/162
f 195/69/174 162/99/168 186/69/175
f 171/120/176 142/118/177 140/121/178
f 170/116/131 140/121/178 138/117/170
f 55/117/130 169/114/64 75/115/179
f 75/115/179 168/112/63 73/113/180
f 71/111/181 168/112/63 167/110/62
f 69/109/182 167/110/62 166/108/61
f 69/109/182 165/106/60 67/107/183
f 67/107/183 164/122/59 65/105/72
f 63/100/184 164/123/59 163/102/58
f 63/100/184 162/99/57 61/101/185
f 59/118/186 160/120/187 57/121/188
f 57/121/188 159/116/54 55/117/130
f 143/71/189 186/69/175 60/71/190
f 161/119/173 194/67/191 187/67/151
f 193/64/192 203/66/193 192/66/193
f 179/112/194 224/114/195 180/114/195
f 171/120/196 208/119/197 172/119/198
f 202/85/199 221/83/200 201/83/200
f 193/64/192 207/67/201 205/64/202
f 170/116/203 224/114/195 204/116/203
f 192/66/193 223/85/199 202/85/199
f 174/102/204 210/124/205 212/102/206
f 196/73/207 209/125/208 195/69/209
f 175/123/210 212/102/206 214/123/210
f 169/114/64 189/66/54 191/85/64
f 168/112/63 191/85/64 190/83/63
f 167/110/62 190/83/63 181/81/62
f 167/110/62 182/77/61 166/108/61
f 165/106/60 182/77/61 183/74/60
f 165/106/60 184/76/59 164/122/59
f 163/102/58 184/72/59 185/73/58
f 163/102/58 186/69/57 162/99/57
f 161/119/211 188/64/53 160/120/187
f 159/116/54 188/64/53 189/66/54
f 223/85/142 204/116/131 224/114/142
f 221/83/141 224/114/142 222/112/141
f 220/110/140 221/83/141 222/112/141
f 217/77/139 220/110/140 218/108/139
f 215/74/138 218/108/139 216/106/138
f 213/76/137 216/106/138 214/122/137
f 211/73/212 214/123/137 212/102/213
f 210/124/214 211/73/212 212/102/213
f 205/64/215 208/119/216 206/120/217
f 203/66/131 206/120/217 204/116/131
f 201/83/200 219/81/218 200/81/218
f 171/120/196 204/116/203 206/120/219
f 178/110/220 222/112/194 179/112/194
f 199/77/221 219/81/218 217/77/221
f 178/110/220 218/108/222 220/110/220
f 199/77/221 215/74/223 198/74/223
f 172/119/172 207/67/224 194/67/191
f 176/106/225 218/108/222 177/108/222
f 198/74/223 213/76/226 197/76/226
f 195/69/227 210/124/214 173/99/228
f 176/106/225 214/122/210 216/106/225
f 197/72/226 211/73/229 196/73/207
f 226/126/230 227/97/231 225/105/230
f 227/97/231 230/127/232 229/117/232
f 230/127/232 231/91/233 229/117/232
f 232/128/233 233/129/234 231/91/233
f 233/129/234 236/94/235 235/90/235
f 235/90/235 238/130/236 237/131/236
f 238/132/237 234/133/237 230/134/237
f 237/131/236 240/135/238 239/95/238
f 240/135/238 225/103/230 239/95/238
s 0
f 242/87/239 243/88/239 241/89/239
f 244/35/170 247/90/170 243/88/170
f 248/91/129 245/92/129 247/90/129
f 246/93/130 241/94/130 245/92/130
f 247/90/72 241/96/72 243/95/72
f 244/97/7 246/93/7 248/91/7
f 251/93/240 253/128/240 249/128/240
f 255/93/129 260/91/129 259/93/129
f 250/35/241 256/91/241 252/91/241
f 252/91/129 255/93/129 251/93/129
f 249/87/239 254/35/239 250/35/239
f 259/93/129 264/91/129 263/93/129
f 253/87/239 258/35/239 254/35/239
f 255/93/242 257/128/242 253/128/242
f 254/35/243 260/91/243 256/91/243
f 263/93/244 265/128/244 261/128/244
f 257/87/239 262/35/239 258/35/239
f 259/93/245 261/128/245 257/128/245
f 258/35/246 264/91/246 260/91/246
f 268/91/129 271/93/129 267/93/129
f 262/35/247 268/91/247 264/91/247
f 264/91/129 267/93/129 263/93/129
f 262/35/239 265/87/239 266/35/239
f 269/87/239 274/35/239 270/35/239
f 266/35/239 269/87/239 270/35/239
f 267/93/248 269/128/248 265/128/248
f 266/35/249 272/91/249 268/91/249
f 274/97/130 275/93/130 276/91/130
f 271/93/250 273/128/250 269/128/250
f 270/35/251 276/91/251 272/91/251
f 271/93/129 276/91/129 275/93/129
f 281/35/170 278/90/170 335/88/170
f 279/90/130 340/96/130 280/95/130
f 287/87/252 285/136/252 284/89/252
f 289/137/253 291/138/253 290/139/253
f 297/140/254 299/141/254 298/142/254
f 293/143/255 295/144/255 294/145/255
f 297/140/72 293/143/72 285/146/72
f 286/147/239 288/148/239 285/136/239
f 294/145/130 284/149/130 293/143/130
f 290/139/170 296/150/170 289/137/170
f 298/142/129 292/151/129 297/140/129
f 281/97/7 279/93/7 277/91/7
f 304/35/239 301/90/239 305/88/239
f 301/93/72 307/94/72 305/92/72
f 302/90/129 307/96/129 303/95/129
f 304/97/7 302/93/7 300/91/7
f 309/87/239 310/88/239 308/89/239
f 311/35/170 314/90/170 310/88/170
f 315/91/129 312/92/129 314/90/129
f 313/93/130 308/94/130 312/92/130
f 314/90/72 308/96/72 310/95/72
f 311/97/7 313/93/7 315/91/7
f 317/126/256 318/97/256 316/105/256
f 319/152/257 320/117/257 318/97/257
f 321/127/258 322/91/258 320/117/258
f 323/128/259 324/129/259 322/91/259
f 325/153/260 326/90/260 324/129/260
f 327/94/261 328/131/261 326/90/261
f 329/132/7 325/133/7 321/134/7
f 329/130/262 330/95/262 328/131/262
f 331/135/263 316/103/263 330/95/263
f 322/154/72 326/155/72 330/156/72
f 335/157/264 339/157/264 340/157/264
f 278/157/170 334/157/170 333/157/170
f 333/157/265 282/157/265 338/157/265
f 339/157/266 333/157/266 338/157/266
f 334/157/267 337/157/267 282/157/267
f 338/157/130 282/157/130 280/157/130
f 342/126/256 398/97/256 397/105/256
f 344/152/257 399/117/257 398/97/257
f 346/127/258 400/91/258 399/117/258
f 348/128/259 401/129/259 400/91/259
f 350/153/260 402/90/260 401/129/260
f 352/94/261 403/131/261 402/90/261
f 354/132/7 350/133/7 346/134/7
f 354/130/262 404/95/262 403/131/262
f 356/135/263 397/103/263 404/95/263
f 349/158/259 408/159/259 347/159/259
f 360/157/170 363/157/170 359/157/170
f 357/157/130 362/157/130 358/157/130
f 358/157/129 364/157/129 360/157/129
f 359/157/239 361/157/239 357/157/239
f 364/157/72 361/157/72 363/157/72
f 357/157/7 360/157/7 359/157/7
f 367/157/170 372/157/170 371/157/170
f 365/157/130 370/157/130 366/157/130
f 366/157/268 372/157/268 368/157/268
f 367/157/269 369/157/269 365/157/269
f 372/157/270 369/157/270 371/157/270
f 365/157/271 368/157/271 367/157/271
f 375/157/129 380/157/129 379/157/129
f 373/157/239 378/157/239 374/157/239
f 374/157/272 380/157/272 376/157/272
f 375/157/273 377/157/273 373/157/273
f 380/157/181 377/157/181 379/157/181
f 373/157/163 376/157/163 375/157/163
f 383/157/130 388/157/130 387/157/130
f 381/157/170 386/157/170 382/157/170
f 382/157/271 388/157/271 384/157/271
f 383/157/270 385/157/270 381/157/270
f 388/157/269 385/157/269 387/157/269
f 381/157/268 384/157/268 383/157/268
f 391/157/239 396/157/239 395/157/239
f 389/157/129 394/157/129 390/157/129
f 390/157/163 396/157/163 392/157/163
f 391/157/181 393/157/181 389/157/181
f 396/157/273 393/157/273 395/157/273
f 389/157/272 392/157/272 391/157/272
f 343/160/72 397/161/72 398/162/72
f 343/160/72 399/163/72 345/164/72
f 347/159/72 399/163/72 400/154/72
f 347/159/72 401/165/72 349/158/72
f 351/166/72 401/165/72 402/155/72
f 351/166/72 403/167/72 353/168/72
f 355/169/72 403/167/72 404/156/72
f 355/169/72 397/161/72 341/170/72
f 408/159/72 410/166/72 412/169/72
f 345/164/257 406/160/257 343/160/257
f 355/169/262 411/168/262 353/168/262
f 351/166/260 409/158/260 349/158/260
f 347/159/258 407/164/258 345/164/258
f 343/160/256 405/170/256 341/170/256
f 341/170/263 412/169/263 355/169/263
f 353/168/261 410/166/261 351/166/261
f 417/35/170 414/90/170 447/88/170
f 415/90/130 452/96/130 416/95/130
f 417/97/7 415/93/7 413/91/7
f 421/87/239 422/88/239 420/89/239
f 423/35/170 426/90/170 422/88/170
f 427/91/129 424/92/129 426/90/129
f 425/93/130 420/94/130 424/92/130
f 426/90/72 420/96/72 422/95/72
f 423/97/7 425/93/7 427/91/7
f 429/126/256 430/97/256 428/105/256
f 431/152/257 432/117/257 430/97/257
f 433/127/258 434/91/258 432/117/258
f 435/128/259 436/129/259 434/91/259
f 437/153/260 438/90/260 436/129/260
f 439/94/261 440/131/261 438/90/261
f 441/132/7 437/133/7 433/134/7
f 441/130/262 442/95/262 440/131/262
f 443/135/263 428/103/263 442/95/263
f 434/154/72 438/155/72 442/156/72
f 447/157/264 451/157/264 452/157/264
f 414/157/170 446/157/170 445/157/170
f 445/157/265 418/157/265 450/157/265
f 451/157/266 445/157/266 450/157/266
f 446/157/267 449/157/267 418/157/267
f 450/157/130 418/157/130 416/157/130
f 455/88/274 454/87/274 453/89/274
f 459/90/275 456/35/275 455/88/275
f 457/92/129 460/91/129 459/90/129
f 453/94/170 458/93/170 457/92/170
f 455/95/72 457/92/72 459/90/72
f 458/93/7 456/97/7 460/91/7
s 1
f 462/2/276 499/1/277 463/3/278
f 462/2/276 497/4/279 498/57/280
f 496/6/281 497/4/279 461/5/282
f 4/7/7 463/3/278 499/1/277
f 466/9/283 462/2/276 465/8/284
f 465/8/284 463/3/278 464/10/285
f 4/11/7 464/10/285 463/3/278
f 467/12/286 461/5/282 466/9/283
f 468/13/287 466/9/283 469/14/288
f 4/15/7 471/16/289 464/10/285
f 470/17/290 464/10/285 471/16/289
f 469/14/288 465/8/284 470/17/290
f 4/18/7 472/19/291 471/16/289
f 475/21/292 469/14/288 474/20/293
f 473/22/294 469/14/288 470/17/290
f 473/22/294 471/16/289 472/19/291
f 478/23/295 474/20/293 473/22/294
f 476/25/296 474/20/293 477/24/297
f 4/26/7 479/27/298 472/19/291
f 478/23/295 472/19/291 479/27/298
f 480/28/299 478/23/295 479/27/298
f 4/30/7 480/28/299 479/27/298
f 483/31/300 477/24/297 482/32/301
f 482/32/301 478/23/295 481/29/302
f 486/33/303 480/28/299 487/34/304
f 486/33/303 482/32/301 481/29/302
f 485/35/305 483/31/300 482/32/301
f 4/37/7 487/34/304 480/28/299
f 490/38/306 486/33/303 489/39/307
f 489/39/307 487/34/304 488/40/308
f 4/41/7 488/40/308 487/34/304
f 491/42/309 485/35/305 490/38/306
f 4/43/7 495/44/310 488/40/308
f 494/45/311 488/40/308 495/44/310
f 493/46/312 489/39/307 494/45/311
f 493/46/312 491/42/309 490/38/306
f 52/48/40 494/45/311 38/49/41
f 38/49/41 495/44/310 37/50/42
f 4/51/7 37/50/42 495/44/310
f 53/52/43 493/46/312 52/48/40
f 4/53/7 499/1/277 503/54/313
f 500/56/314 501/55/315 497/4/279
f 498/57/280 501/55/315 502/59/316
f 498/57/280 503/54/313 499/1/277
f 502/59/316 50/61/50 503/54/313
f 4/60/7 503/54/313 50/61/50
f 501/55/315 51/86/317 48/62/51
f 502/59/316 48/62/51 49/58/48
f 607/66/318 506/68/319 606/64/320
f 506/68/319 605/67/321 606/64/320
f 604/69/322 509/70/323 603/73/323
f 603/73/323 510/98/324 602/72/324
f 510/75/324 601/74/325 602/76/324
f 511/78/325 600/77/326 601/74/325
f 512/80/326 599/81/327 600/77/326
f 599/81/327 514/82/328 608/83/328
f 608/83/328 515/84/329 609/85/329
f 609/85/329 505/65/318 607/66/318
f 555/1/330 517/2/331 519/3/332
f 554/57/333 522/5/334 517/2/331
f 553/4/335 521/6/336 522/5/334
f 84/7/72 555/1/330 519/3/332
f 516/8/337 522/5/334 523/9/338
f 519/3/332 516/8/337 518/10/339
f 84/11/72 519/3/332 518/10/339
f 523/9/338 521/6/336 520/12/340
f 523/9/338 524/13/341 526/14/342
f 84/15/72 518/10/339 525/16/343
f 518/10/339 527/17/344 525/16/343
f 516/8/337 526/14/342 527/17/344
f 84/18/72 525/16/343 530/19/345
f 526/14/342 531/21/346 528/20/347
f 527/17/344 528/20/347 529/22/348
f 525/16/343 529/22/348 530/19/345
f 534/23/349 528/20/347 532/24/350
f 528/20/347 533/25/351 532/24/350
f 84/26/72 530/19/345 535/27/352
f 530/19/345 534/23/349 535/27/352
f 535/27/352 539/29/353 536/28/354
f 84/30/72 535/27/352 536/28/354
f 532/24/350 537/31/355 538/32/356
f 539/29/353 532/24/350 538/32/356
f 536/28/354 540/33/357 542/34/358
f 540/33/357 538/32/356 541/35/359
f 538/32/356 543/36/360 541/35/359
f 84/37/72 536/28/354 542/34/358
f 544/39/361 541/35/359 547/38/362
f 542/34/358 544/39/361 545/40/363
f 84/41/72 542/34/358 545/40/363
f 547/38/362 543/36/360 546/42/364
f 84/43/72 545/40/363 548/44/365
f 545/40/363 549/45/366 548/44/365
f 549/45/366 547/38/362 551/46/367
f 547/38/362 550/47/368 551/46/367
f 549/45/366 128/48/103 113/49/104
f 548/44/365 113/49/104 114/50/105
f 84/51/72 548/44/365 114/50/105
f 128/48/103 550/47/368 127/52/369
f 84/53/72 559/54/370 555/1/330
f 557/55/371 552/56/372 553/4/335
f 558/59/373 553/4/335 554/57/333
f 559/54/370 554/57/333 555/1/330
f 559/54/370 125/58/110 558/59/373
f 84/60/72 126/61/111 559/54/370
f 124/62/113 556/63/374 557/55/371
f 558/59/373 124/62/113 557/55/371
f 492/47/375 546/42/376 491/42/376
f 483/31/377 533/25/378 476/25/378
f 504/63/379 123/86/118 51/86/118
f 468/13/380 520/12/381 467/12/381
f 484/36/382 546/42/376 543/36/382
f 476/25/378 531/21/383 475/21/383
f 500/56/384 556/63/379 504/63/379
f 500/56/384 521/6/385 552/56/384
f 467/12/381 521/6/385 496/6/385
f 484/36/382 537/31/377 483/31/377
f 492/47/375 127/52/126 550/47/375
f 475/21/383 524/13/380 468/13/380
s 0
f 560/88/386 130/87/386 129/89/386
f 564/90/387 561/35/387 560/88/387
f 562/92/239 565/91/239 564/90/239
f 129/94/130 563/93/130 562/92/130
f 560/95/72 562/92/72 564/90/72
f 563/93/7 561/97/7 565/91/7
s 1
f 611/64/388 566/65/389 610/66/389
f 612/67/390 567/68/391 611/64/388
f 614/73/392 569/71/393 613/69/393
f 615/72/394 570/70/392 614/73/392
f 616/74/395 571/75/394 615/76/394
f 616/74/395 573/80/396 572/78/395
f 618/81/397 573/80/396 617/77/396
f 619/83/398 574/79/397 618/81/397
f 620/85/399 575/82/398 619/83/398
f 610/66/389 576/84/399 620/85/399
f 509/70/400 569/71/401 570/70/402
f 146/100/147 591/99/403 144/101/148
f 506/68/404 566/65/405 567/68/406
f 148/103/7 592/102/392 146/100/147
f 605/67/407 568/104/408 612/67/409
f 511/78/410 573/80/411 512/80/411
f 148/105/7 594/106/395 593/122/394
f 152/109/157 594/106/395 150/107/156
f 506/68/404 568/104/412 507/104/413
f 509/70/400 571/98/414 510/98/414
f 514/82/415 576/84/416 515/84/416
f 154/111/163 595/108/396 152/109/157
f 154/111/163 597/112/398 596/110/397
f 156/113/164 598/114/399 597/112/398
f 61/101/167 591/99/417 580/99/418
f 512/80/411 574/79/419 513/79/419
f 510/75/414 572/78/410 511/78/410
f 505/65/405 576/84/416 566/65/405
f 158/115/165 588/116/389 598/114/399
f 59/118/171 590/119/420 142/118/421
f 513/79/419 575/82/415 514/82/415
f 580/99/418 613/69/422 604/69/423
f 142/118/177 589/120/424 140/121/178
f 140/121/178 588/116/389 138/117/170
f 587/114/329 55/117/130 75/115/179
f 586/112/328 75/115/179 73/113/180
f 71/111/181 586/112/328 73/113/180
f 69/109/182 585/110/327 71/111/181
f 583/106/325 69/109/182 67/107/183
f 65/105/72 583/106/325 67/107/183
f 581/102/323 65/103/72 63/100/184
f 580/99/322 63/100/184 61/101/185
f 578/120/425 59/118/186 57/121/188
f 577/116/318 57/121/188 55/117/130
f 604/69/423 569/71/426 508/71/427
f 579/119/428 612/67/409 590/119/420
f 621/66/429 611/64/430 610/66/429
f 642/114/431 597/112/432 598/114/431
f 626/119/433 589/120/434 590/119/435
f 639/83/436 620/85/437 619/83/436
f 611/64/430 625/67/438 612/67/439
f 588/116/440 642/114/431 598/114/431
f 641/85/437 610/66/429 620/85/437
f 592/102/441 628/124/442 591/99/443
f 627/125/444 614/73/445 613/69/446
f 593/123/447 630/102/448 592/102/441
f 587/114/329 607/66/318 577/116/318
f 586/112/328 609/85/329 587/114/329
f 585/110/327 608/83/328 586/112/328
f 600/77/326 585/110/327 584/108/326
f 583/106/325 600/77/326 584/108/326
f 582/122/324 601/74/325 583/106/325
f 603/73/323 582/123/324 581/102/323
f 604/69/322 581/102/323 580/99/322
f 606/64/320 579/119/449 578/120/425
f 577/116/318 606/64/320 578/120/425
f 622/116/389 641/85/399 642/114/399
f 640/112/398 641/85/399 639/83/398
f 638/110/397 639/83/398 637/81/397
f 636/108/396 637/81/397 635/77/396
f 636/108/396 633/74/395 634/106/395
f 632/122/394 633/74/395 631/76/394
f 632/123/394 629/73/450 630/102/451
f 628/124/452 629/73/450 627/125/453
f 626/119/454 623/64/455 624/120/456
f 624/120/456 621/66/389 622/116/389
f 637/81/457 619/83/436 618/81/457
f 589/120/434 622/116/440 588/116/440
f 597/112/432 638/110/458 596/110/458
f 617/77/459 637/81/457 618/81/457
f 638/110/458 595/108/460 596/110/458
f 633/74/461 617/77/459 616/74/461
f 625/67/462 590/119/420 612/67/409
f 595/108/460 634/106/463 594/106/463
f 631/76/464 616/74/461 615/76/464
f 628/124/452 613/69/465 591/99/466
f 634/106/463 593/122/447 594/106/463
f 629/73/467 615/72/464 614/73/445
f 645/97/468 644/126/469 643/105/469
f 645/97/468 648/127/470 646/152/468
f 649/91/471 648/127/470 647/117/470
f 651/129/472 650/128/471 649/91/471
f 651/129/472 654/94/473 652/153/472
f 653/90/473 656/130/474 654/94/473
f 652/133/475 656/132/475 644/171/475
f 657/95/476 656/130/474 655/131/474
f 643/103/469 658/135/476 657/95/476
s 0
f 661/90/170 244/35/170 243/88/170
f 659/92/239 662/91/239 661/90/239
f 241/94/130 660/93/130 659/92/130
f 241/96/72 661/90/72 243/95/72
f 660/93/7 244/97/7 662/91/7
f 667/128/240 665/93/240 663/128/240
f 669/93/239 674/91/239 670/91/239
f 670/91/241 664/35/241 666/91/241
f 665/93/239 670/91/239 666/91/239
f 668/35/129 663/87/129 664/35/129
f 673/93/239 678/91/239 674/91/239
f 672/35/129 667/87/129 668/35/129
f 671/128/242 669/93/242 667/128/242
f 674/91/243 668/35/243 670/91/243
f 679/128/244 677/93/244 675/128/244
f 676/35/129 671/87/129 672/35/129
f 675/128/245 673/93/245 671/128/245
f 678/91/246 672/35/246 674/91/246
f 685/93/239 682/91/239 681/93/239
f 682/91/247 676/35/247 678/91/247
f 681/93/239 678/91/239 677/93/239
f 676/35/129 679/87/129 675/87/129
f 688/35/129 683/87/129 684/35/129
f 680/35/129 683/87/129 679/87/129
f 683/128/248 681/93/248 679/128/248
f 686/91/249 680/35/249 682/91/249
f 689/93/130 688/97/130 690/91/130
f 687/128/250 685/93/250 683/128/250
f 690/91/251 684/35/251 686/91/251
f 685/93/239 690/91/239 686/91/239
f 692/90/170 281/35/170 335/88/170
f 340/96/130 693/90/130 694/95/130
f 697/136/255 699/87/255 696/89/255
f 703/138/254 701/137/254 702/139/254
f 711/141/253 709/140/253 710/142/253
f 707/144/252 705/143/252 706/145/252
f 705/143/72 709/140/72 701/172/72
f 700/148/129 698/147/129 697/136/129
f 696/149/130 706/145/130 705/143/130
f 708/150/170 702/139/170 701/137/170
f 704/151/239 710/142/239 709/140/239
f 693/93/7 281/97/7 691/91/7
f 713/90/129 716/35/129 717/88/129
f 719/94/72 713/93/72 717/92/72
f 719/96/239 714/90/239 715/95/239
f 714/93/7 716/97/7 712/91/7
f 722/88/129 721/87/129 720/89/129
f 726/90/170 723/35/170 722/88/170
f 724/92/239 727/91/239 726/90/239
f 720/94/130 725/93/130 724/92/130
f 720/96/72 726/90/72 722/95/72
f 725/93/7 723/97/7 727/91/7
f 730/97/263 729/126/263 728/105/263
f 732/117/262 731/152/262 730/97/262
f 734/91/261 733/127/261 732/117/261
f 736/129/260 735/128/260 734/91/260
f 738/90/259 737/153/259 736/129/259
f 740/131/258 739/94/258 738/90/258
f 737/133/7 741/132/7 729/171/7
f 742/95/257 741/130/257 740/131/257
f 728/103/256 743/135/256 742/95/256
f 738/155/72 734/154/72 730/162/72
f 750/157/477 335/157/477 340/157/477
f 745/157/170 746/157/170 692/157/170
f 695/157/478 745/157/478 749/157/478
f 749/157/479 744/157/479 750/157/479
f 748/157/480 746/157/480 695/157/480
f 694/157/130 695/157/130 749/157/130
f 808/97/263 752/126/263 807/105/263
f 809/117/262 754/152/262 808/97/262
f 810/91/261 756/127/261 809/117/261
f 811/129/260 758/128/260 810/91/260
f 812/90/259 760/153/259 811/129/259
f 813/131/258 762/94/258 812/90/258
f 760/133/7 764/132/7 752/171/7
f 814/95/257 764/130/257 813/131/257
f 807/103/256 766/135/256 814/95/256
f 818/159/260 759/158/260 757/159/260
f 773/157/170 770/157/170 769/157/170
f 772/157/130 767/157/130 768/157/130
f 774/157/239 768/157/239 770/157/239
f 771/157/129 769/157/129 767/157/129
f 771/157/72 774/157/72 773/157/72
f 770/157/7 767/157/7 769/157/7
f 777/157/170 782/157/170 778/157/170
f 780/157/130 775/157/130 776/157/130
f 782/157/271 776/157/271 778/157/271
f 779/157/270 777/157/270 775/157/270
f 779/157/269 782/157/269 781/157/269
f 778/157/268 775/157/268 777/157/268
f 785/157/239 790/157/239 786/157/239
f 788/157/129 783/157/129 784/157/129
f 790/157/272 784/157/272 786/157/272
f 787/157/273 785/157/273 783/157/273
f 787/157/181 790/157/181 789/157/181
f 786/157/163 783/157/163 785/157/163
f 793/157/130 798/157/130 794/157/130
f 796/157/170 791/157/170 792/157/170
f 798/157/268 792/157/268 794/157/268
f 795/157/269 793/157/269 791/157/269
f 795/157/270 798/157/270 797/157/270
f 794/157/271 791/157/271 793/157/271
f 801/157/129 806/157/129 802/157/129
f 804/157/239 799/157/239 800/157/239
f 806/157/163 800/157/163 802/157/163
f 803/157/181 801/157/181 799/157/181
f 803/157/273 806/157/273 805/157/273
f 802/157/272 799/157/272 801/157/272
f 753/160/72 807/161/72 751/170/72
f 809/163/72 753/160/72 755/164/72
f 757/159/72 809/163/72 755/164/72
f 811/165/72 757/159/72 759/158/72
f 761/166/72 811/165/72 759/158/72
f 813/167/72 761/166/72 763/168/72
f 765/169/72 813/167/72 763/168/72
f 807/161/72 765/169/72 751/170/72
f 820/166/72 818/159/72 816/160/72
f 816/160/262 755/164/262 753/160/262
f 821/168/257 765/169/257 763/168/257
f 819/158/259 761/166/259 759/158/259
f 817/164/261 757/159/261 755/164/261
f 815/170/263 753/160/263 751/170/263
f 822/169/256 751/170/256 765/169/256
f 820/166/258 763/168/258 761/166/258
f 824/90/170 417/35/170 447/88/170
f 452/96/130 825/90/130 826/95/130
f 825/93/7 417/97/7 823/91/7
f 830/88/129 829/87/129 828/89/129
f 834/90/170 831/35/170 830/88/170
f 832/92/239 835/91/239 834/90/239
f 828/94/130 833/93/130 832/92/130
f 828/96/72 834/90/72 830/95/72
f 833/93/7 831/97/7 835/91/7
f 838/97/263 837/126/263 836/105/263
f 840/117/262 839/152/262 838/97/262
f 842/91/261 841/127/261 840/117/261
f 844/129/260 843/128/260 842/91/260
f 846/90/259 845/153/259 844/129/259
f 848/131/258 847/94/258 846/90/258
f 845/133/7 849/132/7 837/171/7
f 850/95/257 849/130/257 848/131/257
f 836/103/256 851/135/256 850/95/256
f 846/155/72 842/154/72 838/162/72
f 858/157/477 447/157/477 452/157/477
f 853/157/170 854/157/170 824/157/170
f 827/157/478 853/157/478 857/157/478
f 857/157/479 852/157/479 858/157/479
f 856/157/480 854/157/480 827/157/480
f 826/157/130 827/157/130 857/157/130
f 454/87/481 859/88/481 453/89/481
f 860/35/482 863/90/482 859/88/482
f 864/91/239 861/92/239 863/90/239
f 862/93/170 453/94/170 861/92/170
f 859/95/72 861/92/72 453/96/72
f 860/97/7 862/93/7 864/91/7
s 1
f 42/1/1 41/57/47 2/2/2
f 2/2/2 41/57/47 40/4/4
f 40/4/4 43/56/46 39/6/6
f 6/8/8 2/2/2 1/5/5
f 3/3/3 2/2/2 6/8/8
f 1/5/5 39/6/6 8/12/11
f 7/9/9 8/12/11 9/13/12
f 5/10/10 6/8/8 11/17/15
f 6/8/8 7/9/9 10/14/13
f 15/20/17 10/14/13 9/13/12
f 14/22/19 11/17/15 10/14/13
f 13/19/16 12/16/14 11/17/15
f 19/23/20 14/22/19 15/20/17
f 15/20/17 16/21/18 17/25/22
f 20/27/23 13/19/16 14/22/19
f 21/28/24 20/27/23 19/23/20
f 18/24/21 17/25/22 24/31/26
f 19/23/20 18/24/21 23/32/27
f 21/28/24 22/29/25 27/33/28
f 22/29/25 23/32/27 26/35/30
f 23/32/27 24/31/26 25/36/31
f 27/33/28 26/35/30 31/38/32
f 28/34/29 27/33/28 30/39/33
f 26/35/30 25/36/31 32/42/35
f 29/40/34 30/39/33 35/45/37
f 30/39/33 31/38/32 34/46/38
f 31/38/32 32/42/35 33/47/39
f 35/45/37 34/46/38 52/48/40
f 36/44/36 35/45/37 38/49/41
f 34/46/38 33/47/39 53/52/43
f 44/55/45 47/63/52 43/56/46
f 41/57/47 45/59/49 44/55/45
f 46/54/44 45/59/49 41/57/47
f 46/54/44 50/61/50 49/58/48
f 48/62/51 51/86/317 47/63/52
f 45/59/49 49/58/48 48/62/51
f 188/64/53 56/68/56 54/65/54
f 187/67/55 58/104/483 56/68/56
f 186/69/57 185/73/58 62/70/58
f 184/72/59 64/98/59 62/70/58
f 183/74/60 66/78/60 64/75/59
f 182/77/61 68/80/61 66/78/60
f 182/77/61 181/81/62 70/79/62
f 181/81/62 190/83/63 72/82/63
f 190/83/63 191/85/64 74/84/64
f 191/85/64 189/66/54 54/65/54
f 77/2/65 117/57/69 118/1/66
f 77/2/65 82/5/71 116/4/68
f 81/6/70 115/56/107 116/4/68
f 76/8/73 83/9/75 82/5/71
f 78/10/74 76/8/73 77/2/65
f 83/9/75 80/12/484 81/6/70
f 85/13/76 80/12/484 83/9/75
f 88/17/79 76/8/73 78/10/74
f 88/17/79 87/14/77 83/9/75
f 92/21/81 85/13/76 87/14/77
f 90/22/83 89/20/82 87/14/77
f 90/22/83 88/17/79 86/16/78
f 95/23/84 93/24/86 89/20/82
f 94/25/85 92/21/81 89/20/82
f 95/23/84 90/22/83 91/19/80
f 100/29/88 95/23/84 96/27/87
f 98/31/90 94/25/85 93/24/86
f 100/29/88 99/32/91 93/24/86
f 103/34/92 101/33/93 100/29/88
f 101/33/93 102/35/94 99/32/91
f 102/35/94 104/36/485 98/31/90
f 105/39/95 108/38/98 102/35/94
f 105/39/95 101/33/93 103/34/92
f 107/42/97 104/36/485 102/35/94
f 109/44/99 110/45/100 105/39/95
f 110/45/100 112/46/102 108/38/98
f 111/47/101 107/42/97 108/38/98
f 128/48/103 112/46/102 110/45/100
f 113/49/104 110/45/100 109/44/99
f 128/48/103 127/52/369 111/47/101
f 115/56/107 119/63/112 120/55/108
f 116/4/68 120/55/108 121/59/109
f 117/57/69 121/59/109 122/54/106
f 122/54/106 121/59/109 125/58/110
f 119/63/112 123/86/486 124/62/113
f 121/59/109 120/55/108 124/62/113
f 107/42/114 111/47/115 33/47/115
f 94/25/116 98/31/117 24/31/117
f 123/86/118 119/63/119 47/63/119
f 80/12/120 85/13/121 9/13/121
f 104/36/122 107/42/114 32/42/114
f 92/21/123 94/25/116 17/25/116
f 119/63/119 115/56/124 43/56/124
f 43/56/124 115/56/124 81/6/125
f 81/6/125 80/12/120 8/12/120
f 98/31/117 104/36/122 25/36/122
f 33/47/115 111/47/115 127/52/126
f 85/13/121 92/21/123 16/21/123
s 0
f 130/87/127 132/35/127 131/88/127
f 132/35/128 136/91/128 135/90/128
f 136/91/129 134/93/129 133/92/129
f 134/93/130 130/128/130 129/94/130
f 131/95/72 135/90/72 133/92/72
f 132/97/7 130/173/7 134/93/7
s 1
f 137/65/131 139/68/133 193/64/132
f 139/68/133 141/104/487 194/67/134
f 143/71/135 145/70/136 196/73/136
f 196/73/136 145/70/136 147/98/137
f 147/75/137 149/78/138 198/74/138
f 149/78/138 151/80/139 199/77/139
f 151/80/139 153/79/140 200/81/140
f 200/81/140 153/79/140 155/82/141
f 155/82/141 157/84/142 202/85/142
f 157/84/142 137/65/131 192/66/131
f 62/70/143 145/70/488 143/71/144
f 173/99/146 174/102/136 146/100/147
f 56/68/149 139/68/489 137/65/150
f 174/102/136 175/123/137 148/103/7
f 187/67/151 194/67/191 141/104/152
f 151/80/154 149/78/155 66/78/155
f 148/105/7 175/122/137 176/106/138
f 150/107/156 176/106/138 177/108/139
f 141/104/158 139/68/489 56/68/149
f 147/98/160 145/70/488 62/70/143
f 157/84/161 155/82/162 72/82/162
f 152/109/157 177/108/139 178/110/140
f 154/111/163 178/110/140 179/112/141
f 156/113/164 179/112/141 180/114/142
f 173/99/166 144/101/490 61/101/167
f 153/79/169 151/80/154 68/80/154
f 149/78/155 147/75/160 64/75/160
f 137/65/150 157/84/161 74/84/161
f 158/115/165 180/114/142 170/116/131
f 59/118/171 142/118/421 172/119/172
f 155/82/162 153/79/169 70/79/169
f 195/69/174 173/99/166 162/99/168
f 171/120/176 172/119/491 142/118/177
f 170/116/131 171/120/176 140/121/178
f 55/117/130 159/116/54 169/114/64
f 75/115/179 169/114/64 168/112/63
f 71/111/181 73/113/180 168/112/63
f 69/109/182 71/111/181 167/110/62
f 69/109/182 166/108/61 165/106/60
f 67/107/183 165/106/60 164/122/59
f 63/100/184 65/103/72 164/123/59
f 63/100/184 163/102/58 162/99/57
f 59/118/186 161/119/211 160/120/187
f 57/121/188 160/120/187 159/116/54
f 143/71/189 195/69/174 186/69/175
f 161/119/173 172/119/172 194/67/191
f 193/64/192 205/64/202 203/66/193
f 179/112/194 222/112/194 224/114/195
f 171/120/196 206/120/219 208/119/197
f 202/85/199 223/85/199 221/83/200
f 193/64/192 194/67/492 207/67/201
f 170/116/203 180/114/195 224/114/195
f 192/66/193 203/66/193 223/85/199
f 174/102/204 173/99/493 210/124/205
f 196/73/207 211/73/229 209/125/208
f 175/123/210 174/102/204 212/102/206
f 169/114/64 159/116/54 189/66/54
f 168/112/63 169/114/64 191/85/64
f 167/110/62 168/112/63 190/83/63
f 167/110/62 181/81/62 182/77/61
f 165/106/60 166/108/61 182/77/61
f 165/106/60 183/74/60 184/76/59
f 163/102/58 164/123/59 184/72/59
f 163/102/58 185/73/58 186/69/57
f 161/119/211 187/67/55 188/64/53
f 159/116/54 160/120/187 188/64/53
f 223/85/142 203/66/131 204/116/131
f 221/83/141 223/85/142 224/114/142
f 220/110/140 219/81/140 221/83/141
f 217/77/139 219/81/140 220/110/140
f 215/74/138 217/77/139 218/108/139
f 213/76/137 215/74/138 216/106/138
f 211/73/212 213/72/137 214/123/137
f 210/124/214 209/125/494 211/73/212
f 205/64/215 207/67/495 208/119/216
f 203/66/131 205/64/215 206/120/217
f 201/83/200 221/83/200 219/81/218
f 171/120/196 170/116/203 204/116/203
f 178/110/220 220/110/220 222/112/194
f 199/77/221 200/81/218 219/81/218
f 178/110/220 177/108/222 218/108/222
f 199/77/221 217/77/221 215/74/223
f 172/119/172 208/119/224 207/67/224
f 176/106/225 216/106/225 218/108/222
f 198/74/223 215/74/223 213/76/226
f 195/69/227 209/125/494 210/124/214
f 176/106/225 175/122/210 214/122/210
f 197/72/226 213/72/226 211/73/229
f 226/126/230 228/152/231 227/97/231
f 227/97/231 228/152/231 230/127/232
f 230/127/232 232/128/233 231/91/233
f 232/128/233 234/153/234 233/129/234
f 233/129/234 234/153/234 236/94/235
f 235/90/235 236/94/235 238/130/236
f 230/134/237 228/174/237 226/171/237
f 226/171/237 240/175/237 238/132/237
f 238/132/237 236/176/237 234/133/237
f 234/133/237 232/177/237 230/134/237
f 230/134/237 226/171/237 238/132/237
f 237/131/236 238/130/236 240/135/238
f 240/135/238 226/178/230 225/103/230
s 0
f 242/87/239 244/35/239 243/88/239
f 244/35/170 248/91/170 247/90/170
f 248/91/129 246/93/129 245/92/129
f 246/93/130 242/128/130 241/94/130
f 247/90/72 245/92/72 241/96/72
f 244/97/7 242/173/7 246/93/7
f 251/93/240 255/93/240 253/128/240
f 255/93/129 256/91/129 260/91/129
f 250/35/241 254/35/241 256/91/241
f 252/91/129 256/91/129 255/93/129
f 249/87/239 253/87/239 254/35/239
f 259/93/129 260/91/129 264/91/129
f 253/87/239 257/87/239 258/35/239
f 255/93/242 259/93/242 257/128/242
f 254/35/243 258/35/243 260/91/243
f 263/93/244 267/93/244 265/128/244
f 257/87/239 261/87/239 262/35/239
f 259/93/245 263/93/245 261/128/245
f 258/35/246 262/35/246 264/91/246
f 268/91/129 272/91/129 271/93/129
f 262/35/247 266/35/247 268/91/247
f 264/91/129 268/91/129 267/93/129
f 262/35/239 261/87/239 265/87/239
f 269/87/239 273/87/239 274/35/239
f 266/35/239 265/87/239 269/87/239
f 267/93/248 271/93/248 269/128/248
f 266/35/249 270/35/249 272/91/249
f 274/97/130 273/173/130 275/93/130
f 271/93/250 275/93/250 273/128/250
f 270/35/251 274/35/251 276/91/251
f 271/93/129 272/91/129 276/91/129
f 281/35/170 277/91/170 278/90/170
f 279/90/130 283/92/130 340/96/130
f 287/87/252 286/147/252 285/136/252
f 289/137/253 288/148/253 291/138/253
f 297/140/254 296/150/254 299/141/254
f 293/143/255 292/151/255 295/144/255
f 285/146/72 288/179/72 289/172/72
f 289/172/72 296/150/72 297/140/72
f 297/140/72 292/151/72 293/143/72
f 293/143/72 284/180/72 285/146/72
f 285/146/72 289/172/72 297/140/72
f 286/147/239 291/138/239 288/148/239
f 294/145/130 287/181/130 284/149/130
f 290/139/170 299/141/170 296/150/170
f 298/142/129 295/144/129 292/151/129
f 281/97/7 283/173/7 279/93/7
f 304/35/239 300/91/239 301/90/239
f 301/93/72 303/128/72 307/94/72
f 302/90/129 306/92/129 307/96/129
f 304/97/7 306/173/7 302/93/7
f 309/87/239 311/35/239 310/88/239
f 311/35/170 315/91/170 314/90/170
f 315/91/129 313/93/129 312/92/129
f 313/93/130 309/128/130 308/94/130
f 314/90/72 312/92/72 308/96/72
f 311/97/7 309/173/7 313/93/7
f 317/126/256 319/152/256 318/97/256
f 319/152/257 321/127/257 320/117/257
f 321/127/258 323/128/258 322/91/258
f 323/128/259 325/153/259 324/129/259
f 325/153/260 327/94/260 326/90/260
f 327/94/261 329/130/261 328/131/261
f 321/134/7 319/174/7 317/171/7
f 317/171/7 331/175/7 329/132/7
f 329/132/7 327/176/7 325/133/7
f 325/133/7 323/177/7 321/134/7
f 321/134/7 317/171/7 329/132/7
f 329/130/262 331/135/262 330/95/262
f 331/135/263 317/178/263 316/103/263
f 330/156/72 316/161/72 318/162/72
f 318/162/72 320/163/72 322/154/72
f 322/154/72 324/165/72 326/155/72
f 326/155/72 328/167/72 330/156/72
f 330/156/72 318/162/72 322/154/72
f 335/157/264 332/157/264 339/157/264
f 332/157/170 335/157/170 278/157/170
f 278/157/170 336/157/170 334/157/170
f 333/157/170 332/157/170 278/157/170
f 333/157/265 334/157/265 282/157/265
f 339/157/266 332/157/266 333/157/266
f 334/157/267 336/157/267 337/157/267
f 280/157/130 340/157/130 339/157/130
f 280/157/130 339/157/130 338/157/130
f 282/157/130 337/157/130 280/157/130
f 342/126/256 344/152/256 398/97/256
f 344/152/257 346/127/257 399/117/257
f 346/127/258 348/128/258 400/91/258
f 348/128/259 350/153/259 401/129/259
f 350/153/260 352/94/260 402/90/260
f 352/94/261 354/130/261 403/131/261
f 346/134/7 344/174/7 342/171/7
f 342/171/7 356/175/7 354/132/7
f 354/132/7 352/176/7 350/133/7
f 350/133/7 348/177/7 346/134/7
f 346/134/7 342/171/7 354/132/7
f 354/130/262 356/135/262 404/95/262
f 356/135/263 342/178/263 397/103/263
f 349/158/259 409/158/259 408/159/259
f 360/157/170 364/157/170 363/157/170
f 357/157/130 361/157/130 362/157/130
f 358/157/129 362/157/129 364/157/129
f 359/157/239 363/157/239 361/157/239
f 364/157/72 362/157/72 361/157/72
f 357/157/7 358/157/7 360/157/7
f 367/157/170 368/157/170 372/157/170
f 365/157/130 369/157/130 370/157/130
f 366/157/268 370/157/268 372/157/268
f 367/157/269 371/157/269 369/157/269
f 372/157/270 370/157/270 369/157/270
f 365/157/271 366/157/271 368/157/271
f 375/157/129 376/157/129 380/157/129
f 373/157/239 377/157/239 378/157/239
f 374/157/272 378/157/272 380/157/272
f 375/157/273 379/157/273 377/157/273
f 380/157/181 378/157/181 377/157/181
f 373/157/163 374/157/163 376/157/163
f 383/157/130 384/157/130 388/157/130
f 381/157/170 385/157/170 386/157/170
f 382/157/271 386/157/271 388/157/271
f 383/157/270 387/157/270 385/157/270
f 388/157/269 386/157/269 385/157/269
f 381/157/268 382/157/268 384/157/268
f 391/157/239 392/157/239 396/157/239
f 389/157/129 393/157/129 394/157/129
f 390/157/163 394/157/163 396/157/163
f 391/157/181 395/157/181 393/157/181
f 396/157/273 394/157/273 393/157/273
f 389/157/272 390/157/272 392/157/272
f 343/160/72 341/170/72 397/161/72
f 343/160/72 398/162/72 399/163/72
f 347/159/72 345/164/72 399/163/72
f 347/159/72 400/154/72 401/165/72
f 351/166/72 349/158/72 401/165/72
f 351/166/72 402/155/72 403/167/72
f 355/169/72 353/168/72 403/167/72
f 355/169/72 404/156/72 397/161/72
f 412/169/72 405/170/72 406/160/72
f 406/160/72 407/164/72 408/159/72
f 408/159/72 409/158/72 410/166/72
f 410/166/72 411/168/72 412/169/72
f 412/169/72 406/160/72 408/159/72
f 345/164/257 407/164/257 406/160/257
f 355/169/262 412/169/262 411/168/262
f 351/166/260 410/166/260 409/158/260
f 347/159/258 408/159/258 407/164/258
f 343/160/256 406/160/256 405/170/256
f 341/170/263 405/170/263 412/169/263
f 353/168/261 411/168/261 410/166/261
f 417/35/170 413/91/170 414/90/170
f 415/90/130 419/92/130 452/96/130
f 417/97/7 419/173/7 415/93/7
f 421/87/239 423/35/239 422/88/239
f 423/35/170 427/91/170 426/90/170
f 427/91/129 425/93/129 424/92/129
f 425/93/130 421/128/130 420/94/130
f 426/90/72 424/92/72 420/96/72
f 423/97/7 421/173/7 425/93/7
f 429/126/256 431/152/256 430/97/256
f 431/152/257 433/127/257 432/117/257
f 433/127/258 435/128/258 434/91/258
f 435/128/259 437/153/259 436/129/259
f 437/153/260 439/94/260 438/90/260
f 439/94/261 441/130/261 440/131/261
f 433/134/7 431/174/7 429/171/7
f 429/171/7 443/175/7 441/132/7
f 441/132/7 439/176/7 437/133/7
f 437/133/7 435/177/7 433/134/7
f 433/134/7 429/171/7 441/132/7
f 441/130/262 443/135/262 442/95/262
f 443/135/263 429/178/263 428/103/263
f 442/156/72 428/161/72 430/162/72
f 430/162/72 432/163/72 434/154/72
f 434/154/72 436/165/72 438/155/72
f 438/155/72 440/167/72 442/156/72
f 442/156/72 430/162/72 434/154/72
f 447/157/264 444/157/264 451/157/264
f 444/157/170 447/157/170 414/157/170
f 414/157/170 448/157/170 446/157/170
f 445/157/170 444/157/170 414/157/170
f 445/157/265 446/157/265 418/157/265
f 451/157/266 444/157/266 445/157/266
f 446/157/267 448/157/267 449/157/267
f 416/157/130 452/157/130 451/157/130
f 416/157/130 451/157/130 450/157/130
f 418/157/130 449/157/130 416/157/130
f 455/88/274 456/35/274 454/87/274
f 459/90/275 460/91/275 456/35/275
f 457/92/129 458/93/129 460/91/129
f 453/94/170 454/128/170 458/93/170
f 455/95/72 453/96/72 457/92/72
f 458/93/7 454/173/7 456/97/7
s 1
f 462/2/276 498/57/280 499/1/277
f 462/2/276 461/5/282 497/4/279
f 496/6/281 500/56/314 497/4/279
f 466/9/283 461/5/282 462/2/276
f 465/8/284 462/2/276 463/3/278
f 467/12/286 496/6/281 461/5/282
f 468/13/287 467/12/286 466/9/283
f 470/17/290 465/8/284 464/10/285
f 469/14/288 466/9/283 465/8/284
f 475/21/292 468/13/287 469/14/288
f 473/22/294 474/20/293 469/14/288
f 473/22/294 470/17/290 471/16/289
f 478/23/295 477/24/297 474/20/293
f 476/25/296 475/21/292 474/20/293
f 478/23/295 473/22/294 472/19/291
f 480/28/299 481/29/302 478/23/295
f 483/31/300 476/25/296 477/24/297
f 482/32/301 477/24/297 478/23/295
f 486/33/303 481/29/302 480/28/299
f 486/33/303 485/35/305 482/32/301
f 485/35/305 484/36/496 483/31/300
f 490/38/306 485/35/305 486/33/303
f 489/39/307 486/33/303 487/34/304
f 491/42/309 484/36/496 485/35/305
f 494/45/311 489/39/307 488/40/308
f 493/46/312 490/38/306 489/39/307
f 493/46/312 492/47/497 491/42/309
f 52/48/40 493/46/312 494/45/311
f 38/49/41 494/45/311 495/44/310
f 53/52/43 492/47/497 493/46/312
f 500/56/314 504/63/498 501/55/315
f 498/57/280 497/4/279 501/55/315
f 498/57/280 502/59/316 503/54/313
f 502/59/316 49/58/48 50/61/50
f 501/55/315 504/63/498 51/86/317
f 502/59/316 501/55/315 48/62/51
f 607/66/318 505/65/318 506/68/319
f 506/68/319 507/104/499 605/67/321
f 604/69/322 508/71/322 509/70/323
f 603/73/323 509/70/323 510/98/324
f 510/75/324 511/78/325 601/74/325
f 511/78/325 512/80/326 600/77/326
f 512/80/326 513/79/327 599/81/327
f 599/81/327 513/79/327 514/82/328
f 608/83/328 514/82/328 515/84/329
f 609/85/329 515/84/329 505/65/318
f 555/1/330 554/57/333 517/2/331
f 554/57/333 553/4/335 522/5/334
f 553/4/335 552/56/372 521/6/336
f 516/8/337 517/2/331 522/5/334
f 519/3/332 517/2/331 516/8/337
f 523/9/338 522/5/334 521/6/336
f 523/9/338 520/12/340 524/13/341
f 518/10/339 516/8/337 527/17/344
f 516/8/337 523/9/338 526/14/342
f 526/14/342 524/13/341 531/21/346
f 527/17/344 526/14/342 528/20/347
f 525/16/343 527/17/344 529/22/348
f 534/23/349 529/22/348 528/20/347
f 528/20/347 531/21/346 533/25/351
f 530/19/345 529/22/348 534/23/349
f 535/27/352 534/23/349 539/29/353
f 532/24/350 533/25/351 537/31/355
f 539/29/353 534/23/349 532/24/350
f 536/28/354 539/29/353 540/33/357
f 540/33/357 539/29/353 538/32/356
f 538/32/356 537/31/355 543/36/360
f 544/39/361 540/33/357 541/35/359
f 542/34/358 540/33/357 544/39/361
f 547/38/362 541/35/359 543/36/360
f 545/40/363 544/39/361 549/45/366
f 549/45/366 544/39/361 547/38/362
f 547/38/362 546/42/364 550/47/368
f 549/45/366 551/46/367 128/48/103
f 548/44/365 549/45/366 113/49/104
f 128/48/103 551/46/367 550/47/368
f 557/55/371 556/63/374 552/56/372
f 558/59/373 557/55/371 553/4/335
f 559/54/370 558/59/373 554/57/333
f 559/54/370 126/61/111 125/58/110
f 124/62/113 123/86/486 556/63/374
f 558/59/373 125/58/110 124/62/113
f 492/47/375 550/47/375 546/42/376
f 483/31/377 537/31/377 533/25/378
f 504/63/379 556/63/379 123/86/118
f 468/13/380 524/13/380 520/12/381
f 484/36/382 491/42/376 546/42/376
f 476/25/378 533/25/378 531/21/383
f 500/56/384 552/56/384 556/63/379
f 500/56/384 496/6/385 521/6/385
f 467/12/381 520/12/381 521/6/385
f 484/36/382 543/36/382 537/31/377
f 492/47/375 53/52/126 127/52/126
f 475/21/383 531/21/383 524/13/380
s 0
f 560/88/386 561/35/386 130/87/386
f 564/90/387 565/91/387 561/35/387
f 562/92/239 563/93/239 565/91/239
f 129/94/130 130/128/130 563/93/130
f 560/95/72 129/96/72 562/92/72
f 563/93/7 130/173/7 561/97/7
s 1
f 611/64/388 567/68/391 566/65/389
f 612/67/390 568/104/500 567/68/391
f 614/73/392 570/70/392 569/71/393
f 615/72/394 571/98/394 570/70/392
f 616/74/395 572/78/395 571/75/394
f 616/74/395 617/77/396 573/80/396
f 618/81/397 574/79/397 573/80/396
f 619/83/398 575/82/398 574/79/397
f 620/85/399 576/84/399 575/82/398
f 610/66/389 566/65/389 576/84/399
f 509/70/400 508/71/501 569/71/401
f 146/100/147 592/102/392 591/99/403
f 506/68/404 505/65/405 566/65/405
f 148/103/7 593/123/394 592/102/392
f 605/67/407 507/104/502 568/104/408
f 511/78/410 572/78/410 573/80/411
f 148/105/7 150/107/156 594/106/395
f 152/109/157 595/108/396 594/106/395
f 506/68/404 567/68/406 568/104/412
f 509/70/400 570/70/402 571/98/414
f 514/82/415 575/82/415 576/84/416
f 154/111/163 596/110/397 595/108/396
f 154/111/163 156/113/164 597/112/398
f 156/113/164 158/115/165 598/114/399
f 61/101/167 144/101/490 591/99/417
f 512/80/411 573/80/411 574/79/419
f 510/75/414 571/75/414 572/78/410
f 505/65/405 515/84/416 576/84/416
f 158/115/165 138/117/170 588/116/389
f 59/118/171 579/119/428 590/119/420
f 513/79/419 574/79/419 575/82/415
f 580/99/418 591/99/417 613/69/422
f 142/118/177 590/119/503 589/120/424
f 140/121/178 589/120/424 588/116/389
f 587/114/329 577/116/318 55/117/130
f 586/112/328 587/114/329 75/115/179
f 71/111/181 585/110/327 586/112/328
f 69/109/182 584/108/326 585/110/327
f 583/106/325 584/108/326 69/109/182
f 65/105/72 582/122/324 583/106/325
f 581/102/323 582/123/324 65/103/72
f 580/99/322 581/102/323 63/100/184
f 578/120/425 579/119/449 59/118/186
f 577/116/318 578/120/425 57/121/188
f 604/69/423 613/69/422 569/71/426
f 579/119/428 605/67/407 612/67/409
f 621/66/429 623/64/504 611/64/430
f 642/114/431 640/112/432 597/112/432
f 626/119/433 624/120/505 589/120/434
f 639/83/436 641/85/437 620/85/437
f 611/64/430 623/64/504 625/67/438
f 588/116/440 622/116/440 642/114/431
f 641/85/437 621/66/429 610/66/429
f 592/102/441 630/102/448 628/124/442
f 627/125/444 629/73/467 614/73/445
f 593/123/447 632/123/447 630/102/448
f 587/114/329 609/85/329 607/66/318
f 586/112/328 608/83/328 609/85/329
f 585/110/327 599/81/327 608/83/328
f 600/77/326 599/81/327 585/110/327
f 583/106/325 601/74/325 600/77/326
f 582/122/324 602/76/324 601/74/325
f 603/73/323 602/72/324 582/123/324
f 604/69/322 603/73/323 581/102/323
f 606/64/320 605/67/321 579/119/449
f 577/116/318 607/66/318 606/64/320
f 622/116/389 621/66/389 641/85/399
f 640/112/398 642/114/399 641/85/399
f 638/110/397 640/112/398 639/83/398
f 636/108/396 638/110/397 637/81/397
f 636/108/396 635/77/396 633/74/395
f 632/122/394 634/106/395 633/74/395
f 632/123/394 631/72/394 629/73/450
f 628/124/452 630/102/451 629/73/450
f 626/119/454 625/67/506 623/64/455
f 624/120/456 623/64/455 621/66/389
f 637/81/457 639/83/436 619/83/436
f 589/120/434 624/120/505 622/116/440
f 597/112/432 640/112/432 638/110/458
f 617/77/459 635/77/459 637/81/457
f 638/110/458 636/108/460 595/108/460
f 633/74/461 635/77/459 617/77/459
f 625/67/462 626/119/462 590/119/420
f 595/108/460 636/108/460 634/106/463
f 631/76/464 633/74/461 616/74/461
f 628/124/452 627/125/453 613/69/465
f 634/106/463 632/122/447 593/122/447
f 629/73/467 631/72/464 615/72/464
f 645/97/468 646/152/468 644/126/469
f 645/97/468 647/117/470 648/127/470
f 649/91/471 650/128/471 648/127/470
f 651/129/472 652/153/472 650/128/471
f 651/129/472 653/90/473 654/94/473
f 653/90/473 655/131/474 656/130/474
f 644/171/475 646/174/475 648/134/475
f 648/134/475 650/177/475 652/133/475
f 652/133/475 654/176/475 656/132/475
f 656/132/475 658/175/475 644/171/475
f 644/171/475 648/134/475 652/133/475
f 657/95/476 658/135/476 656/130/474
f 643/103/469 644/178/469 658/135/476
s 0
f 661/90/170 662/91/170 244/35/170
f 659/92/239 660/93/239 662/91/239
f 241/94/130 242/128/130 660/93/130
f 241/96/72 659/92/72 661/90/72
f 660/93/7 242/173/7 244/97/7
f 667/128/240 669/93/240 665/93/240
f 669/93/239 673/93/239 674/91/239
f 670/91/241 668/35/241 664/35/241
f 665/93/239 669/93/239 670/91/239
f 668/35/129 667/87/129 663/87/129
f 673/93/239 677/93/239 678/91/239
f 672/35/129 671/87/129 667/87/129
f 671/128/242 673/93/242 669/93/242
f 674/91/243 672/35/243 668/35/243
f 679/128/244 681/93/244 677/93/244
f 676/35/129 675/87/129 671/87/129
f 675/128/245 677/93/245 673/93/245
f 678/91/246 676/35/246 672/35/246
f 685/93/239 686/91/239 682/91/239
f 682/91/247 680/35/247 676/35/247
f 681/93/239 682/91/239 678/91/239
f 676/35/129 680/35/129 679/87/129
f 688/35/129 687/87/129 683/87/129
f 680/35/129 684/35/129 683/87/129
f 683/128/248 685/93/248 681/93/248
f 686/91/249 684/35/249 680/35/249
f 689/93/130 687/173/130 688/97/130
f 687/128/250 689/93/250 685/93/250
f 690/91/251 688/35/251 684/35/251
f 685/93/239 689/93/239 690/91/239
f 692/90/170 691/91/170 281/35/170
f 340/96/130 283/92/130 693/90/130
f 697/136/255 698/147/255 699/87/255
f 703/138/254 700/148/254 701/137/254
f 711/141/253 708/150/253 709/140/253
f 707/144/252 704/151/252 705/143/252
f 701/172/72 700/179/72 697/146/72
f 697/146/72 696/180/72 705/143/72
f 705/143/72 704/151/72 709/140/72
f 709/140/72 708/150/72 701/172/72
f 701/172/72 697/146/72 705/143/72
f 700/148/129 703/138/129 698/147/129
f 696/149/130 699/181/130 706/145/130
f 708/150/170 711/141/170 702/139/170
f 704/151/239 707/144/239 710/142/239
f 693/93/7 283/173/7 281/97/7
f 713/90/129 712/91/129 716/35/129
f 719/94/72 715/128/72 713/93/72
f 719/96/239 718/92/239 714/90/239
f 714/93/7 718/173/7 716/97/7
f 722/88/129 723/35/129 721/87/129
f 726/90/170 727/91/170 723/35/170
f 724/92/239 725/93/239 727/91/239
f 720/94/130 721/128/130 725/93/130
f 720/96/72 724/92/72 726/90/72
f 725/93/7 721/173/7 723/97/7
f 730/97/263 731/152/263 729/126/263
f 732/117/262 733/127/262 731/152/262
f 734/91/261 735/128/261 733/127/261
f 736/129/260 737/153/260 735/128/260
f 738/90/259 739/94/259 737/153/259
f 740/131/258 741/130/258 739/94/258
f 729/171/7 731/174/7 733/134/7
f 733/134/7 735/177/7 737/133/7
f 737/133/7 739/176/7 741/132/7
f 741/132/7 743/175/7 729/171/7
f 729/171/7 733/134/7 737/133/7
f 742/95/257 743/135/257 741/130/257
f 728/103/256 729/178/256 743/135/256
f 730/162/72 728/161/72 742/156/72
f 742/156/72 740/167/72 738/155/72
f 738/155/72 736/165/72 734/154/72
f 734/154/72 732/163/72 730/162/72
f 730/162/72 742/156/72 738/155/72
f 750/157/477 744/157/477 335/157/477
f 692/157/170 335/157/170 744/157/170
f 692/157/170 744/157/170 745/157/170
f 746/157/170 747/157/170 692/157/170
f 695/157/478 746/157/478 745/157/478
f 749/157/479 745/157/479 744/157/479
f 748/157/480 747/157/480 746/157/480
f 750/157/130 340/157/130 694/157/130
f 694/157/130 748/157/130 695/157/130
f 749/157/130 750/157/130 694/157/130
f 808/97/263 754/152/263 752/126/263
f 809/117/262 756/127/262 754/152/262
f 810/91/261 758/128/261 756/127/261
f 811/129/260 760/153/260 758/128/260
f 812/90/259 762/94/259 760/153/259
f 813/131/258 764/130/258 762/94/258
f 752/171/7 754/174/7 756/134/7
f 756/134/7 758/177/7 760/133/7
f 760/133/7 762/176/7 764/132/7
f 764/132/7 766/175/7 752/171/7
f 752/171/7 756/134/7 760/133/7
f 814/95/257 766/135/257 764/130/257
f 807/103/256 752/178/256 766/135/256
f 818/159/260 819/158/260 759/158/260
f 773/157/170 774/157/170 770/157/170
f 772/157/130 771/157/130 767/157/130
f 774/157/239 772/157/239 768/157/239
f 771/157/129 773/157/129 769/157/129
f 771/157/72 772/157/72 774/157/72
f 770/157/7 768/157/7 767/157/7
f 777/157/170 781/157/170 782/157/170
f 780/157/130 779/157/130 775/157/130
f 782/157/271 780/157/271 776/157/271
f 779/157/270 781/157/270 777/157/270
f 779/157/269 780/157/269 782/157/269
f 778/157/268 776/157/268 775/157/268
f 785/157/239 789/157/239 790/157/239
f 788/157/129 787/157/129 783/157/129
f 790/157/272 788/157/272 784/157/272
f 787/157/273 789/157/273 785/157/273
f 787/157/181 788/157/181 790/157/181
f 786/157/163 784/157/163 783/157/163
f 793/157/130 797/157/130 798/157/130
f 796/157/170 795/157/170 791/157/170
f 798/157/268 796/157/268 792/157/268
f 795/157/269 797/157/269 793/157/269
f 795/157/270 796/157/270 798/157/270
f 794/157/271 792/157/271 791/157/271
f 801/157/129 805/157/129 806/157/129
f 804/157/239 803/157/239 799/157/239
f 806/157/163 804/157/163 800/157/163
f 803/157/181 805/157/181 801/157/181
f 803/157/273 804/157/273 806/157/273
f 802/157/272 800/157/272 799/157/272
f 753/160/72 808/162/72 807/161/72
f 809/163/72 808/162/72 753/160/72
f 757/159/72 810/154/72 809/163/72
f 811/165/72 810/154/72 757/159/72
f 761/166/72 812/155/72 811/165/72
f 813/167/72 812/155/72 761/166/72
f 765/169/72 814/156/72 813/167/72
f 807/161/72 814/156/72 765/169/72
f 816/160/72 815/170/72 822/169/72
f 822/169/72 821/168/72 820/166/72
f 820/166/72 819/158/72 818/159/72
f 818/159/72 817/164/72 816/160/72
f 816/160/72 822/169/72 820/166/72
f 816/160/262 817/164/262 755/164/262
f 821/168/257 822/169/257 765/169/257
f 819/158/259 820/166/259 761/166/259
f 817/164/261 818/159/261 757/159/261
f 815/170/263 816/160/263 753/160/263
f 822/169/256 815/170/256 751/170/256
f 820/166/258 821/168/258 763/168/258
f 824/90/170 823/91/170 417/35/170
f 452/96/130 419/92/130 825/90/130
f 825/93/7 419/173/7 417/97/7
f 830/88/129 831/35/129 829/87/129
f 834/90/170 835/91/170 831/35/170
f 832/92/239 833/93/239 835/91/239
f 828/94/130 829/128/130 833/93/130
f 828/96/72 832/92/72 834/90/72
f 833/93/7 829/173/7 831/97/7
f 838/97/263 839/152/263 837/126/263
f 840/117/262 841/127/262 839/152/262
f 842/91/261 843/128/261 841/127/261
f 844/129/260 845/153/260 843/128/260
f 846/90/259 847/94/259 845/153/259
f 848/131/258 849/130/258 847/94/258
f 837/171/7 839/174/7 841/134/7
f 841/134/7 843/177/7 845/133/7
f 845/133/7 847/176/7 849/132/7
f 849/132/7 851/175/7 837/171/7
f 837/171/7 841/134/7 845/133/7
f 850/95/257 851/135/257 849/130/257
f 836/103/256 837/178/256 851/135/256
f 838/162/72 836/161/72 850/156/72
f 850/156/72 848/167/72 846/155/72
f 846/155/72 844/165/72 842/154/72
f 842/154/72 840/163/72 838/162/72
f 838/162/72 850/156/72 846/155/72
f 858/157/477 852/157/477 447/157/477
f 824/157/170 447/157/170 852/157/170
f 824/157/170 852/157/170 853/157/170
f 854/157/170 855/157/170 824/157/170
f 827/157/478 854/157/478 853/157/478
f 857/157/479 853/157/479 852/157/479
f 856/157/480 855/157/480 854/157/480
f 858/157/130 452/157/130 826/157/130
f 826/157/130 856/157/130 827/157/130
f 857/157/130 858/157/130 826/157/130
f 454/87/481 860/35/481 859/88/481
f 860/35/482 864/91/482 863/90/482
f 864/91/239 862/93/239 861/92/239
f 862/93/170 454/128/170 453/94/170
f 859/95/72 863/90/72 861/92/72
f 860/97/7 454/173/7 862/93/7
l 414 416
l 824 826
