# Blender 5.0.1
# www.blender.org
mtllib ShopSphere.mtl
g Sphere.001_Mesh
v 0.175000 -0.247487 0.175000
v 0.123744 -0.303109 0.123744
v 0.064054 -0.338074 0.064054
v 0.000000 -0.350000 0.000000
v 0.078450 -0.338074 0.045293
v 0.151554 -0.303109 0.087500
v 0.214330 -0.247487 0.123744
v 0.262500 -0.175000 0.151554
v 0.292781 -0.175000 0.078450
v 0.239054 -0.247487 0.064054
v 0.169037 -0.303109 0.045293
v 0.087500 -0.338074 0.023446
v 0.090587 -0.338074 0.000000
v 0.175000 -0.303109 0.000000
v 0.247487 -0.247487 -0.000000
v 0.303109 -0.175000 0.000000
v 0.292781 -0.175000 -0.078450
v 0.239054 -0.247487 -0.064054
v 0.169037 -0.303109 -0.045293
v 0.087500 -0.338074 -0.023446
v 0.078450 -0.338074 -0.045293
v 0.151554 -0.303109 -0.087500
v 0.214330 -0.247487 -0.123744
v 0.262500 -0.175000 -0.151554
v 0.214330 -0.175000 -0.214330
v 0.175000 -0.247487 -0.175000
v 0.123744 -0.303109 -0.123744
v 0.064054 -0.338074 -0.064054
v 0.045293 -0.338074 -0.078450
v 0.087500 -0.303109 -0.151554
v 0.123744 -0.247487 -0.214330
v 0.151554 -0.175000 -0.262500
v 0.078450 -0.175000 -0.292781
v 0.064054 -0.247487 -0.239054
v 0.045293 -0.303109 -0.169037
v 0.023446 -0.338074 -0.087500
v 0.000000 -0.338074 -0.090587
v 0.000000 -0.303109 -0.175000
v 0.214330 -0.175000 0.214330
v 0.123744 -0.247487 0.214330
v 0.087500 -0.303109 0.151554
v 0.045293 -0.338074 0.078450
v 0.151554 -0.175000 0.262500
v 0.064054 -0.247487 0.239054
v 0.045293 -0.303109 0.169037
v 0.023446 -0.338074 0.087500
v 0.078450 -0.175000 0.292781
v 0.000000 -0.247487 0.247487
v 0.000000 -0.303109 0.175000
v 0.000000 -0.338074 0.090587
v 0.000000 -0.175000 0.303109
v 0.000000 -0.247487 -0.247487
v 0.000000 -0.175000 -0.303109
v 0.090000 0.000000 -0.338074
v 0.000000 0.000000 -0.350000
v 0.090000 -0.087500 -0.326554
v 0.000000 -0.090587 -0.338074
v 0.090000 -0.175000 -0.290000
v 0.000000 -0.175000 -0.303109
v 0.090000 0.292781 0.169037
v 0.000000 0.303109 0.175000
v 0.090000 0.326554 0.087500
v 0.000000 0.338074 0.090587
v 0.090000 0.338074 0.000000
v 0.000000 0.350000 0.000000
v 0.090000 0.326554 -0.087500
v 0.000000 0.338074 -0.090587
v 0.090000 0.292781 -0.169037
v 0.000000 0.303109 -0.175000
v 0.090000 0.239054 -0.239054
v 0.000000 0.247487 -0.247487
v 0.090000 0.169037 -0.292781
v 0.000000 0.175000 -0.303109
v 0.090000 0.087500 -0.326554
v 0.000000 0.090587 -0.338074
v 0.162554 -0.324642 0.093851
v 0.132725 -0.324642 0.132725
v 0.084272 -0.362153 0.048655
v 0.068808 -0.362153 0.068808
v 0.279677 -0.190219 0.161471
v 0.228355 -0.190219 0.228355
v 0.187594 -0.265030 0.187594
v 0.229755 -0.265030 0.132649
v 0.000000 -0.374911 -0.000000
v 0.311939 -0.190219 0.083584
v 0.093994 -0.362153 0.025186
v 0.256259 -0.265030 0.068664
v 0.181306 -0.324642 0.048581
v 0.265299 -0.265030 -0.000000
v 0.187702 -0.324642 0.000000
v 0.097309 -0.362153 0.000000
v 0.322943 -0.190219 0.000000
v 0.256259 -0.265030 -0.068664
v 0.311939 -0.190219 -0.083584
v 0.181306 -0.324642 -0.048581
v 0.093994 -0.362153 -0.025186
v 0.084272 -0.362153 -0.048655
v 0.279677 -0.190219 -0.161471
v 0.229755 -0.265030 -0.132649
v 0.162554 -0.324642 -0.093851
v 0.132725 -0.324642 -0.132725
v 0.187595 -0.265030 -0.187595
v 0.068808 -0.362153 -0.068808
v 0.228355 -0.190219 -0.228355
v 0.093851 -0.324642 -0.162554
v 0.048655 -0.362153 -0.084272
v 0.161471 -0.190219 -0.279677
v 0.132649 -0.265030 -0.229755
v 0.025186 -0.362153 -0.093994
v 0.048581 -0.324642 -0.181306
v 0.083584 -0.190219 -0.311939
v 0.068664 -0.265030 -0.256259
v 0.000000 -0.324594 -0.187673
v 0.000000 -0.362138 -0.097305
v 0.161471 -0.190219 0.279677
v 0.132649 -0.265030 0.229755
v 0.093851 -0.324642 0.162554
v 0.048655 -0.362153 0.084272
v 0.083584 -0.190219 0.311939
v 0.068664 -0.265030 0.256259
v 0.048581 -0.324642 0.181306
v 0.025186 -0.362153 0.093994
v 0.000000 -0.190137 0.322835
v 0.000000 -0.264954 0.265221
v 0.000000 -0.324594 0.187673
v 0.000000 -0.362138 0.097305
v 0.000000 -0.190137 -0.322835
v 0.000000 -0.264954 -0.265221
v 0.092364 0.000000 -0.355918
v 0.000000 0.000000 -0.367844
v 0.092378 -0.092131 -0.343785
v 0.000000 -0.095218 -0.355305
v 0.092372 -0.181854 -0.306474
v 0.000000 -0.181854 -0.319583
v 0.092345 0.309269 0.175867
v 0.000000 0.319597 0.181830
v 0.092365 0.343790 0.092118
v 0.000000 0.355310 0.095205
v 0.092365 0.355918 0.000000
v 0.000000 0.367844 -0.000000
v 0.092365 0.343790 -0.092118
v 0.000000 0.355310 -0.095205
v 0.092365 0.308234 -0.177959
v 0.000000 0.318562 -0.183922
v 0.092365 0.251672 -0.251672
v 0.000000 0.260105 -0.260105
v 0.092364 0.177959 -0.308234
v 0.000000 0.183922 -0.318562
v 0.092364 0.092118 -0.343790
v 0.000000 0.095205 -0.355310
v 0.045000 0.000000 -0.344037
v 0.045000 -0.089043 -0.332314
v 0.045000 -0.175000 -0.296554
v 0.045000 0.297945 0.172018
v 0.045000 0.332314 0.089043
v 0.045000 0.344037 0.000000
v 0.045000 0.332314 -0.089043
v 0.045000 0.297945 -0.172018
v 0.045000 0.243271 -0.243271
v 0.045000 0.172018 -0.297945
v 0.045000 0.089043 -0.332314
v 0.046182 0.000000 -0.361881
v 0.046189 -0.093674 -0.349545
v 0.046186 -0.181854 -0.313029
v 0.046172 0.314433 0.178848
v 0.046182 0.349550 0.093662
v 0.046182 0.361881 0.000000
v 0.046182 0.349550 -0.093662
v 0.046182 0.313398 -0.180940
v 0.046182 0.255888 -0.255888
v 0.046182 0.180941 -0.313398
v 0.046182 0.093662 -0.349550
v 0.067500 0.241163 -0.241163
v 0.067500 0.295363 -0.170528
v 0.067500 0.329434 -0.088272
v 0.067500 0.341055 0.000000
v 0.067500 0.329434 0.088272
v 0.067500 0.295363 0.170528
v 0.067500 -0.175000 -0.293277
v 0.067500 -0.088272 -0.329434
v 0.067500 0.000000 -0.341056
v 0.067500 0.170528 -0.295363
v 0.067500 0.088272 -0.329434
v 0.069273 0.000000 -0.358900
v 0.069284 -0.092903 -0.346665
v 0.069279 -0.181854 -0.309752
v 0.069258 0.311851 0.177357
v 0.069273 0.346670 0.092890
v 0.069273 0.358900 0.000000
v 0.069273 0.346670 -0.092890
v 0.069273 0.310816 -0.179450
v 0.069273 0.253780 -0.253780
v 0.069273 0.179450 -0.310816
v 0.069273 0.092890 -0.346670
v 0.071194 -0.000000 -0.373776
v 0.048103 -0.000000 -0.376758
v 0.071216 -0.096755 -0.361033
v 0.048121 -0.097526 -0.363913
v 0.071206 -0.187550 -0.323493
v 0.048113 -0.187550 -0.326770
v 0.071179 0.343325 0.139878
v 0.048090 0.346056 0.141009
v 0.071194 0.361043 0.096728
v 0.048103 0.363923 0.097500
v 0.071194 0.373776 0.000000
v 0.048103 0.376757 0.000000
v 0.071194 0.361040 -0.096740
v 0.048103 0.363920 -0.097512
v 0.071194 0.323699 -0.186888
v 0.048103 0.326281 -0.188379
v 0.071194 0.264300 -0.264299
v 0.048103 0.266408 -0.266408
v 0.071194 0.186888 -0.323699
v 0.048103 0.188379 -0.326281
v 0.071194 0.096740 -0.361040
v 0.048103 0.097512 -0.363920
v 0.058584 0.334834 0.113644
v 0.063163 0.371166 0.129737
v 0.072364 0.330760 0.118920
v 0.076943 0.367093 0.135013
v 0.077560 0.324387 0.131831
v 0.082139 0.360719 0.147924
v 0.071129 0.319446 0.144813
v 0.075707 0.355779 0.160907
v 0.056837 0.318834 0.150263
v 0.061416 0.355166 0.166356
v 0.043057 0.322907 0.144987
v 0.047636 0.359240 0.161080
v 0.037861 0.329281 0.132076
v 0.042440 0.365613 0.148169
v 0.044293 0.334221 0.119093
v 0.048871 0.370553 0.135187
v 0.000000 0.445000 0.000000
v 0.000000 0.505000 0.000000
v 0.000000 0.445000 -0.010000
v 0.000000 0.505000 -0.010000
v 0.200000 0.445000 0.000000
v 0.200000 0.505000 0.000000
v 0.200000 0.445000 -0.010000
v 0.200000 0.505000 -0.010000
v 0.051500 0.362574 -0.052426
v 0.051500 0.348431 -0.066569
v 0.068500 0.362574 -0.052426
v 0.068500 0.348431 -0.066569
v 0.051500 0.382039 -0.065433
v 0.051500 0.374385 -0.083910
v 0.068500 0.382039 -0.065433
v 0.068500 0.374385 -0.083910
v 0.051500 0.405000 -0.070000
v 0.051500 0.405000 -0.090000
v 0.068500 0.405000 -0.070000
v 0.068500 0.405000 -0.090000
v 0.051500 0.427961 -0.065433
v 0.051500 0.435615 -0.083910
v 0.068500 0.427961 -0.065433
v 0.068500 0.435615 -0.083910
v 0.051500 0.447426 -0.052426
v 0.051500 0.461569 -0.066568
v 0.068500 0.447426 -0.052426
v 0.068500 0.461569 -0.066568
v 0.051500 0.460433 -0.032961
v 0.051500 0.478910 -0.040615
v 0.068500 0.460433 -0.032961
v 0.068500 0.478910 -0.040615
v 0.051500 0.465000 -0.010000
v 0.051500 0.485000 -0.010000
v 0.068500 0.465000 -0.010000
v 0.068500 0.485000 -0.010000
v 0.000000 -0.275000 0.410000
v 0.000000 -0.195000 0.330000
v 0.000000 -0.285000 0.400000
v 0.000000 -0.205000 0.320000
v 0.150000 -0.275000 0.410000
v 0.150000 -0.195000 0.330000
v 0.150000 -0.285000 0.400000
v 0.150000 -0.205000 0.320000
v 0.000000 -0.325000 -0.130000
v 0.000000 -0.375000 -0.130000
v 0.000000 -0.325000 0.130000
v 0.000000 -0.375000 0.130000
v 0.130000 -0.325000 -0.110000
v 0.110000 -0.325000 -0.130000
v 0.110000 -0.375000 -0.130000
v 0.130000 -0.375000 -0.110000
v 0.110000 -0.325000 0.130000
v 0.130000 -0.325000 0.110000
v 0.130000 -0.375000 0.110000
v 0.110000 -0.375000 0.130000
v 0.129000 -0.155000 -0.312000
v 0.129000 -0.225000 -0.312000
v 0.118000 -0.155000 -0.279000
v 0.118000 -0.225000 -0.279000
v 0.096000 -0.155000 -0.323000
v 0.096000 -0.220855 -0.323000
v 0.085000 -0.155000 -0.290000
v 0.085000 -0.225000 -0.290000
v 0.110000 -0.215000 -0.330000
v 0.130000 -0.229142 -0.315858
v 0.130000 -0.189142 -0.275858
v 0.110000 -0.175000 -0.290000
v 0.130000 -0.380858 -0.164142
v 0.110000 -0.395000 -0.150000
v 0.110000 -0.355000 -0.110000
v 0.130000 -0.320858 -0.104142
v 0.130000 -0.305000 -0.240000
v 0.130000 -0.265000 -0.200000
v 0.107000 -0.165000 -0.311000
v 0.107000 -0.145000 -0.311000
v 0.114071 -0.165000 -0.308071
v 0.114071 -0.145000 -0.308071
v 0.117000 -0.165000 -0.301000
v 0.117000 -0.145000 -0.301000
v 0.114071 -0.165000 -0.293929
v 0.114071 -0.145000 -0.293929
v 0.107000 -0.165000 -0.291000
v 0.107000 -0.145000 -0.291000
v 0.099929 -0.165000 -0.293929
v 0.099929 -0.145000 -0.293929
v 0.097000 -0.165000 -0.301000
v 0.097000 -0.145000 -0.301000
v 0.099929 -0.165000 -0.308071
v 0.099929 -0.145000 -0.308071
v 0.000000 -0.045000 -0.350000
v 0.000000 0.055000 -0.350000
v 0.000000 -0.045000 -0.440000
v 0.000000 0.055000 -0.440000
v 0.050000 -0.045000 -0.350000
v 0.050000 0.055000 -0.350000
v 0.050000 -0.045000 -0.440000
v 0.050000 0.055000 -0.440000
v 0.000000 -0.030000 -0.440000
v 0.000000 -0.030000 -0.500000
v 0.017500 -0.025311 -0.440000
v 0.017500 -0.025311 -0.500000
v 0.030311 -0.012500 -0.440000
v 0.030311 -0.012500 -0.500000
v 0.035000 0.005000 -0.440000
v 0.035000 0.005000 -0.500000
v 0.030311 0.022500 -0.440000
v 0.030311 0.022500 -0.500000
v 0.017500 0.035311 -0.440000
v 0.017500 0.035311 -0.500000
v 0.000000 0.040000 -0.440000
v 0.000000 0.040000 -0.500000
v 0.000000 0.033000 -0.580000
v 0.000000 0.033000 -0.500000
v 0.014000 0.029249 -0.580000
v 0.014000 0.029249 -0.500000
v 0.024249 0.019000 -0.580000
v 0.024249 0.019000 -0.500000
v 0.028000 0.005000 -0.580000
v 0.028000 0.005000 -0.500000
v 0.024249 -0.009000 -0.580000
v 0.024249 -0.009000 -0.500000
v 0.014000 -0.019249 -0.580000
v 0.014000 -0.019249 -0.500000
v 0.000000 -0.023000 -0.580000
v 0.000000 -0.023000 -0.500000
v 0.000000 -0.185000 -0.300000
v 0.000000 -0.215000 -0.330000
v 0.000000 -0.395000 -0.150000
v 0.000000 -0.355000 -0.110000
v 0.043915 -0.193478 -0.288980
v 0.000000 -0.193478 -0.295534
v 0.045100 -0.200332 -0.305454
v 0.000000 -0.200332 -0.312009
v 0.088914 -0.193478 -0.282425
v 0.091286 -0.200332 -0.298900
v 0.066415 -0.193478 -0.285703
v 0.068193 -0.200332 -0.302177
v 0.070120 -0.206029 -0.315919
v 0.047027 -0.206029 -0.319196
v 0.051500 -0.238142 0.268574
v 0.051500 -0.252284 0.254431
v 0.068500 -0.238142 0.268574
v 0.068500 -0.252284 0.254431
v 0.051500 -0.251149 0.288039
v 0.051500 -0.269626 0.280385
v 0.068500 -0.251149 0.288039
v 0.068500 -0.269626 0.280385
v 0.051500 -0.255716 0.311000
v 0.051500 -0.275716 0.311000
v 0.068500 -0.255716 0.311000
v 0.068500 -0.275716 0.311000
v 0.051500 -0.251149 0.333961
v 0.051500 -0.269626 0.341615
v 0.068500 -0.251149 0.333961
v 0.068500 -0.269626 0.341615
v 0.051500 -0.238142 0.353426
v 0.051500 -0.252284 0.367569
v 0.068500 -0.238142 0.353426
v 0.068500 -0.252284 0.367569
v 0.080000 -0.256464 0.255251
v 0.075000 -0.260000 0.251716
v 0.075000 -0.278284 0.270000
v 0.080000 -0.274749 0.273536
v 0.075000 -0.231716 0.280000
v 0.080000 -0.235251 0.276464
v 0.080000 -0.253536 0.294749
v 0.075000 -0.250000 0.298284
v 0.045000 -0.260000 0.251716
v 0.040000 -0.256464 0.255251
v 0.040000 -0.274749 0.273536
v 0.045000 -0.278284 0.270000
v 0.040000 -0.235251 0.276464
v 0.045000 -0.231716 0.280000
v 0.045000 -0.250000 0.298284
v 0.040000 -0.253536 0.294749
v -0.175000 -0.247487 0.175000
v -0.123744 -0.303109 0.123744
v -0.064054 -0.338074 0.064054
v -0.078450 -0.338074 0.045293
v -0.151554 -0.303109 0.087500
v -0.214330 -0.247487 0.123744
v -0.262500 -0.175000 0.151554
v -0.292781 -0.175000 0.078450
v -0.239054 -0.247487 0.064054
v -0.169037 -0.303109 0.045293
v -0.087500 -0.338074 0.023446
v -0.090587 -0.338074 0.000000
v -0.175000 -0.303109 0.000000
v -0.247487 -0.247487 -0.000000
v -0.303109 -0.175000 0.000000
v -0.292781 -0.175000 -0.078450
v -0.239054 -0.247487 -0.064054
v -0.169037 -0.303109 -0.045293
v -0.087500 -0.338074 -0.023446
v -0.078450 -0.338074 -0.045293
v -0.151554 -0.303109 -0.087500
v -0.214330 -0.247487 -0.123744
v -0.262500 -0.175000 -0.151554
v -0.214330 -0.175000 -0.214330
v -0.175000 -0.247487 -0.175000
v -0.123744 -0.303109 -0.123744
v -0.064054 -0.338074 -0.064054
v -0.045293 -0.338074 -0.078450
v -0.087500 -0.303109 -0.151554
v -0.123744 -0.247487 -0.214330
v -0.151554 -0.175000 -0.262500
v -0.078450 -0.175000 -0.292781
v -0.064054 -0.247487 -0.239054
v -0.045293 -0.303109 -0.169037
v -0.023446 -0.338074 -0.087500
v -0.214330 -0.175000 0.214330
v -0.123744 -0.247487 0.214330
v -0.087500 -0.303109 0.151554
v -0.045293 -0.338074 0.078450
v -0.151554 -0.175000 0.262500
v -0.064054 -0.247487 0.239054
v -0.045293 -0.303109 0.169037
v -0.023446 -0.338074 0.087500
v -0.078450 -0.175000 0.292781
v -0.090000 0.000000 -0.338074
v -0.090000 -0.087500 -0.326554
v -0.090000 -0.175000 -0.290000
v -0.090000 0.292781 0.169037
v -0.090000 0.326554 0.087500
v -0.090000 0.338074 0.000000
v -0.090000 0.326554 -0.087500
v -0.090000 0.292781 -0.169037
v -0.090000 0.239054 -0.239054
v -0.090000 0.169037 -0.292781
v -0.090000 0.087500 -0.326554
v -0.162554 -0.324642 0.093851
v -0.132725 -0.324642 0.132725
v -0.084272 -0.362153 0.048655
v -0.068808 -0.362153 0.068808
v -0.279677 -0.190219 0.161471
v -0.228355 -0.190219 0.228355
v -0.187594 -0.265030 0.187594
v -0.229755 -0.265030 0.132649
v -0.311939 -0.190219 0.083584
v -0.093994 -0.362153 0.025186
v -0.256259 -0.265030 0.068664
v -0.181306 -0.324642 0.048581
v -0.265299 -0.265030 -0.000000
v -0.187702 -0.324642 0.000000
v -0.097309 -0.362153 0.000000
v -0.322943 -0.190219 0.000000
v -0.256259 -0.265030 -0.068664
v -0.311939 -0.190219 -0.083584
v -0.181306 -0.324642 -0.048581
v -0.093994 -0.362153 -0.025186
v -0.084272 -0.362153 -0.048655
v -0.279677 -0.190219 -0.161471
v -0.229755 -0.265030 -0.132649
v -0.162554 -0.324642 -0.093851
v -0.132725 -0.324642 -0.132725
v -0.187595 -0.265030 -0.187595
v -0.068808 -0.362153 -0.068808
v -0.228355 -0.190219 -0.228355
v -0.093851 -0.324642 -0.162554
v -0.048655 -0.362153 -0.084272
v -0.161471 -0.190219 -0.279677
v -0.132649 -0.265030 -0.229755
v -0.025186 -0.362153 -0.093994
v -0.048581 -0.324642 -0.181306
v -0.083584 -0.190219 -0.311939
v -0.068664 -0.265030 -0.256259
v -0.161471 -0.190219 0.279677
v -0.132649 -0.265030 0.229755
v -0.093851 -0.324642 0.162554
v -0.048655 -0.362153 0.084272
v -0.083584 -0.190219 0.311939
v -0.068664 -0.265030 0.256259
v -0.048581 -0.324642 0.181306
v -0.025186 -0.362153 0.093994
v -0.092364 0.000000 -0.355918
v -0.092378 -0.092131 -0.343785
v -0.092372 -0.181854 -0.306474
v -0.092345 0.309269 0.175867
v -0.092365 0.343790 0.092118
v -0.092365 0.355918 0.000000
v -0.092365 0.343790 -0.092118
v -0.092365 0.308234 -0.177959
v -0.092365 0.251672 -0.251672
v -0.092364 0.177959 -0.308234
v -0.092364 0.092118 -0.343790
v -0.045000 0.000000 -0.344037
v -0.045000 -0.089043 -0.332314
v -0.045000 -0.175000 -0.296554
v -0.045000 0.297945 0.172018
v -0.045000 0.332314 0.089043
v -0.045000 0.344037 0.000000
v -0.045000 0.332314 -0.089043
v -0.045000 0.297945 -0.172018
v -0.045000 0.243271 -0.243271
v -0.045000 0.172018 -0.297945
v -0.045000 0.089043 -0.332314
v -0.046182 0.000000 -0.361881
v -0.046189 -0.093674 -0.349545
v -0.046186 -0.181854 -0.313029
v -0.046172 0.314433 0.178848
v -0.046182 0.349550 0.093662
v -0.046182 0.361881 0.000000
v -0.046182 0.349550 -0.093662
v -0.046182 0.313398 -0.180940
v -0.046182 0.255888 -0.255888
v -0.046182 0.180941 -0.313398
v -0.046182 0.093662 -0.349550
v -0.067500 0.241163 -0.241163
v -0.067500 0.295363 -0.170528
v -0.067500 0.329434 -0.088272
v -0.067500 0.341055 0.000000
v -0.067500 0.329434 0.088272
v -0.067500 0.295363 0.170528
v -0.067500 -0.175000 -0.293277
v -0.067500 -0.088272 -0.329434
v -0.067500 0.000000 -0.341056
v -0.067500 0.170528 -0.295363
v -0.067500 0.088272 -0.329434
v -0.069273 0.000000 -0.358900
v -0.069284 -0.092903 -0.346665
v -0.069279 -0.181854 -0.309752
v -0.069258 0.311851 0.177357
v -0.069273 0.346670 0.092890
v -0.069273 0.358900 0.000000
v -0.069273 0.346670 -0.092890
v -0.069273 0.310816 -0.179450
v -0.069273 0.253780 -0.253780
v -0.069273 0.179450 -0.310816
v -0.069273 0.092890 -0.346670
v -0.071194 -0.000000 -0.373776
v -0.048103 -0.000000 -0.376758
v -0.071216 -0.096755 -0.361033
v -0.048121 -0.097526 -0.363913
v -0.071206 -0.187550 -0.323493
v -0.048113 -0.187550 -0.326770
v -0.071179 0.343325 0.139878
v -0.048090 0.346056 0.141009
v -0.071194 0.361043 0.096728
v -0.048103 0.363923 0.097500
v -0.071194 0.373776 0.000000
v -0.048103 0.376757 0.000000
v -0.071194 0.361040 -0.096740
v -0.048103 0.363920 -0.097512
v -0.071194 0.323699 -0.186888
v -0.048103 0.326281 -0.188379
v -0.071194 0.264300 -0.264299
v -0.048103 0.266408 -0.266408
v -0.071194 0.186888 -0.323699
v -0.048103 0.188379 -0.326281
v -0.071194 0.096740 -0.361040
v -0.048103 0.097512 -0.363920
v -0.058584 0.334834 0.113644
v -0.063163 0.371166 0.129737
v -0.072364 0.330760 0.118920
v -0.076943 0.367093 0.135013
v -0.077560 0.324387 0.131831
v -0.082139 0.360719 0.147924
v -0.071129 0.319446 0.144813
v -0.075707 0.355779 0.160907
v -0.056837 0.318834 0.150263
v -0.061416 0.355166 0.166356
v -0.043057 0.322907 0.144987
v -0.047636 0.359240 0.161080
v -0.037861 0.329281 0.132076
v -0.042440 0.365613 0.148169
v -0.044293 0.334221 0.119093
v -0.048871 0.370553 0.135187
v -0.200000 0.445000 0.000000
v -0.200000 0.505000 0.000000
v -0.200000 0.445000 -0.010000
v -0.200000 0.505000 -0.010000
v -0.051500 0.362574 -0.052426
v -0.051500 0.348431 -0.066569
v -0.068500 0.362574 -0.052426
v -0.068500 0.348431 -0.066569
v -0.051500 0.382039 -0.065433
v -0.051500 0.374385 -0.083910
v -0.068500 0.382039 -0.065433
v -0.068500 0.374385 -0.083910
v -0.051500 0.405000 -0.070000
v -0.051500 0.405000 -0.090000
v -0.068500 0.405000 -0.070000
v -0.068500 0.405000 -0.090000
v -0.051500 0.427961 -0.065433
v -0.051500 0.435615 -0.083910
v -0.068500 0.427961 -0.065433
v -0.068500 0.435615 -0.083910
v -0.051500 0.447426 -0.052426
v -0.051500 0.461569 -0.066568
v -0.068500 0.447426 -0.052426
v -0.068500 0.461569 -0.066568
v -0.051500 0.460433 -0.032961
v -0.051500 0.478910 -0.040615
v -0.068500 0.460433 -0.032961
v -0.068500 0.478910 -0.040615
v -0.051500 0.465000 -0.010000
v -0.051500 0.485000 -0.010000
v -0.068500 0.465000 -0.010000
v -0.068500 0.485000 -0.010000
v -0.150000 -0.275000 0.410000
v -0.150000 -0.195000 0.330000
v -0.150000 -0.285000 0.400000
v -0.150000 -0.205000 0.320000
v -0.130000 -0.325000 -0.110000
v -0.110000 -0.325000 -0.130000
v -0.110000 -0.375000 -0.130000
v -0.130000 -0.375000 -0.110000
v -0.110000 -0.325000 0.130000
v -0.130000 -0.325000 0.110000
v -0.130000 -0.375000 0.110000
v -0.110000 -0.375000 0.130000
v -0.129000 -0.155000 -0.312000
v -0.129000 -0.225000 -0.312000
v -0.118000 -0.155000 -0.279000
v -0.118000 -0.225000 -0.279000
v -0.096000 -0.155000 -0.323000
v -0.096000 -0.220855 -0.323000
v -0.085000 -0.155000 -0.290000
v -0.085000 -0.225000 -0.290000
v -0.110000 -0.215000 -0.330000
v -0.130000 -0.229142 -0.315858
v -0.130000 -0.189142 -0.275858
v -0.110000 -0.175000 -0.290000
v -0.130000 -0.380858 -0.164142
v -0.110000 -0.395000 -0.150000
v -0.110000 -0.355000 -0.110000
v -0.130000 -0.320858 -0.104142
v -0.130000 -0.305000 -0.240000
v -0.130000 -0.265000 -0.200000
v -0.107000 -0.165000 -0.311000
v -0.107000 -0.145000 -0.311000
v -0.114071 -0.165000 -0.308071
v -0.114071 -0.145000 -0.308071
v -0.117000 -0.165000 -0.301000
v -0.117000 -0.145000 -0.301000
v -0.114071 -0.165000 -0.293929
v -0.114071 -0.145000 -0.293929
v -0.107000 -0.165000 -0.291000
v -0.107000 -0.145000 -0.291000
v -0.099929 -0.165000 -0.293929
v -0.099929 -0.145000 -0.293929
v -0.097000 -0.165000 -0.301000
v -0.097000 -0.145000 -0.301000
v -0.099929 -0.165000 -0.308071
v -0.099929 -0.145000 -0.308071
v -0.050000 -0.045000 -0.350000
v -0.050000 0.055000 -0.350000
v -0.050000 -0.045000 -0.440000
v -0.050000 0.055000 -0.440000
v -0.017500 -0.025311 -0.440000
v -0.017500 -0.025311 -0.500000
v -0.030311 -0.012500 -0.440000
v -0.030311 -0.012500 -0.500000
v -0.035000 0.005000 -0.440000
v -0.035000 0.005000 -0.500000
v -0.030311 0.022500 -0.440000
v -0.030311 0.022500 -0.500000
v -0.017500 0.035311 -0.440000
v -0.017500 0.035311 -0.500000
v -0.014000 0.029249 -0.580000
v -0.014000 0.029249 -0.500000
v -0.024249 0.019000 -0.580000
v -0.024249 0.019000 -0.500000
v -0.028000 0.005000 -0.580000
v -0.028000 0.005000 -0.500000
v -0.024249 -0.009000 -0.580000
v -0.024249 -0.009000 -0.500000
v -0.014000 -0.019249 -0.580000
v -0.014000 -0.019249 -0.500000
v -0.043915 -0.193478 -0.288980
v -0.045100 -0.200332 -0.305454
v -0.088914 -0.193478 -0.282425
v -0.091286 -0.200332 -0.298900
v -0.066415 -0.193478 -0.285703
v -0.068193 -0.200332 -0.302177
v -0.070120 -0.206029 -0.315919
v -0.047027 -0.206029 -0.319196
v -0.051500 -0.238142 0.268574
v -0.051500 -0.252284 0.254431
v -0.068500 -0.238142 0.268574
v -0.068500 -0.252284 0.254431
v -0.051500 -0.251149 0.288039
v -0.051500 -0.269626 0.280385
v -0.068500 -0.251149 0.288039
v -0.068500 -0.269626 0.280385
v -0.051500 -0.255716 0.311000
v -0.051500 -0.275716 0.311000
v -0.068500 -0.255716 0.311000
v -0.068500 -0.275716 0.311000
v -0.051500 -0.251149 0.333961
v -0.051500 -0.269626 0.341615
v -0.068500 -0.251149 0.333961
v -0.068500 -0.269626 0.341615
v -0.051500 -0.238142 0.353426
v -0.051500 -0.252284 0.367569
v -0.068500 -0.238142 0.353426
v -0.068500 -0.252284 0.367569
v -0.080000 -0.256464 0.255251
v -0.075000 -0.260000 0.251716
v -0.075000 -0.278284 0.270000
v -0.080000 -0.274749 0.273536
v -0.075000 -0.231716 0.280000
v -0.080000 -0.235251 0.276464
v -0.080000 -0.253536 0.294749
v -0.075000 -0.250000 0.298284
v -0.045000 -0.260000 0.251716
v -0.040000 -0.256464 0.255251
v -0.040000 -0.274749 0.273536
v -0.045000 -0.278284 0.270000
v -0.040000 -0.235251 0.276464
v -0.045000 -0.231716 0.280000
v -0.045000 -0.250000 0.298284
v -0.040000 -0.253536 0.294749
vn -0.1345 0.9632 -0.2329
vn -0.3593 0.8613 -0.3593
vn -0.1901 0.9632 -0.1901
vn -0.3562 0.7017 -0.6170
vn -0.5038 0.7017 -0.5038
vn -0.5610 0.6088 -0.5610
vn -0.0000 1.0000 -0.0000
vn -0.4400 0.8613 -0.2540
vn -0.6170 0.7017 -0.3562
vn -0.2329 0.9632 -0.1345
vn -0.6871 0.6088 -0.3967
vn -0.7663 0.6088 -0.2053
vn -0.6882 0.7017 -0.1844
vn -0.2597 0.9632 -0.0696
vn -0.4908 0.8613 -0.1315
vn -0.2689 0.9632 -0.0000
vn -0.7934 0.6088 -0.0000
vn -0.7125 0.7017 -0.0000
vn -0.5081 0.8613 -0.0000
vn -0.4908 0.8613 0.1315
vn -0.6882 0.7017 0.1844
vn -0.7663 0.6088 0.2053
vn -0.2597 0.9632 0.0696
vn -0.2329 0.9632 0.1345
vn -0.4400 0.8613 0.2540
vn -0.6871 0.6088 0.3967
vn -0.6170 0.7017 0.3562
vn -0.3593 0.8613 0.3593
vn -0.1901 0.9632 0.1901
vn -0.5038 0.7017 0.5038
vn -0.5610 0.6088 0.5610
vn -0.3562 0.7017 0.6170
vn -0.2540 0.8613 0.4400
vn -0.1345 0.9632 0.2329
vn -0.3967 0.6088 0.6871
vn -0.0696 0.9632 0.2597
vn -0.1315 0.8613 0.4908
vn -0.1844 0.7017 0.6882
vn -0.2053 0.6088 0.7663
vn -0.0000 0.7017 0.7125
vn -0.0000 0.8613 0.5081
vn -0.0000 0.9632 0.2689
vn -0.0000 0.6088 0.7934
vn -0.0696 0.9632 -0.2597
vn -0.1844 0.7017 -0.6882
vn -0.3967 0.6088 -0.6871
vn -0.2540 0.8613 -0.4400
vn -0.0000 0.8613 -0.5081
vn -0.1315 0.8613 -0.4908
vn -0.0000 0.9632 -0.2689
vn -0.0000 0.7017 -0.7125
vn -0.2053 0.6088 -0.7663
vn -0.1315 0.2575 0.9573
vn -0.1314 -0.0000 0.9913
vn -0.1330 0.3817 0.9147
vn -0.1316 0.2577 0.9572
vn -0.1314 -0.9576 -0.2566
vn -0.1303 -0.9160 -0.3794
vn -0.1314 -0.9913 -0.0000
vn -0.1314 -0.9576 0.2566
vn -0.1314 -0.8585 0.4957
vn -0.1314 -0.7010 0.7010
vn -0.1314 -0.4957 0.8585
vn -0.1314 -0.2566 0.9576
vn 0.3596 -0.8610 0.3596
vn 0.1345 -0.9631 0.2330
vn 0.1902 -0.9631 0.1902
vn 0.3560 -0.7023 0.6165
vn 0.2543 -0.8610 0.4404
vn 0.5601 -0.6104 0.5601
vn 0.5034 -0.7023 0.5034
vn -0.0000 -1.0000 -0.0000
vn 0.4404 -0.8610 0.2543
vn 0.2330 -0.9631 0.1345
vn 0.6860 -0.6104 0.3961
vn 0.6165 -0.7023 0.3559
vn 0.7651 -0.6104 0.2050
vn 0.6876 -0.7023 0.1843
vn 0.2598 -0.9631 0.0696
vn 0.4913 -0.8610 0.1316
vn 0.2690 -0.9631 -0.0000
vn 0.7119 -0.7023 -0.0000
vn 0.5086 -0.8610 -0.0000
vn 0.4913 -0.8610 -0.1316
vn 0.7651 -0.6104 -0.2050
vn 0.6876 -0.7023 -0.1843
vn 0.2598 -0.9631 -0.0696
vn 0.4404 -0.8610 -0.2543
vn 0.2330 -0.9631 -0.1345
vn 0.6860 -0.6104 -0.3961
vn 0.6165 -0.7023 -0.3560
vn 0.3596 -0.8610 -0.3596
vn 0.1902 -0.9631 -0.1902
vn 0.5034 -0.7023 -0.5034
vn 0.5601 -0.6104 -0.5601
vn 0.3559 -0.7023 -0.6165
vn 0.2543 -0.8610 -0.4404
vn 0.1345 -0.9631 -0.2330
vn 0.3961 -0.6104 -0.6860
vn 0.0693 -0.9631 -0.2600
vn 0.1310 -0.8610 -0.4915
vn 0.1835 -0.7023 -0.6878
vn -0.0000 -0.7020 -0.7121
vn -0.0000 -0.8608 -0.5090
vn -0.0000 -0.9631 -0.2693
vn 0.2043 -0.6103 -0.7653
vn 0.0693 -0.9631 0.2600
vn 0.3961 -0.6104 0.6860
vn 0.1835 -0.7023 0.6878
vn 0.1310 -0.8610 0.4915
vn -0.0000 -0.8608 0.5090
vn -0.0000 -0.9631 0.2693
vn 0.2043 -0.6103 0.7653
vn -0.0000 -0.7020 0.7121
vn 0.3044 0.7934 -0.5272
vn 0.1576 0.7934 -0.5880
vn 0.5880 0.7934 -0.1576
vn 0.5272 0.7934 -0.3044
vn -0.0000 0.7934 0.6088
vn 0.1576 0.7934 0.5880
vn 0.5272 0.7934 0.3044
vn 0.5880 0.7934 0.1576
vn 0.4305 0.7934 -0.4305
vn 0.6088 0.7934 -0.0000
vn 0.3044 0.7934 0.5272
vn 0.4305 0.7934 0.4305
vn -0.0000 0.7934 -0.6088
vn 0.1281 -0.0000 -0.9918
vn 0.1280 -0.2570 -0.9579
vn 0.1283 -0.2571 -0.9578
vn 0.1295 -0.3806 -0.9156
vn 0.1270 0.9170 0.3780
vn 0.1281 0.9582 0.2559
vn 0.1281 0.9918 -0.0000
vn 0.1281 0.9580 -0.2567
vn 0.1281 0.8589 -0.4959
vn 0.1281 0.7013 -0.7013
vn 0.1281 0.4959 -0.8589
vn 0.1281 0.2567 -0.9580
vn 0.9914 -0.1268 -0.0338
vn 0.9914 -0.1206 -0.0499
vn 0.9915 -0.1203 -0.0498
vn 0.1270 0.9170 0.3781
vn -0.0000 0.9661 0.2580
vn -0.0000 0.9245 0.3812
vn 0.9912 0.0343 0.1275
vn 0.9913 -0.0000 0.1314
vn 0.7919 -0.2709 -0.5473
vn 0.7909 -0.2713 -0.5485
vn 0.9913 -0.1138 0.0657
vn 0.9913 -0.1269 0.0340
vn -0.0000 0.9659 -0.2588
vn -0.0000 0.8660 -0.5000
vn 0.9913 0.0508 0.1218
vn 0.9913 0.0508 0.1216
vn 0.9913 -0.1314 -0.0000
vn 0.9913 -0.0340 0.1269
vn 0.9913 -0.0657 0.1138
vn -0.0000 0.7071 -0.7071
vn -0.0000 0.5000 -0.8660
vn -0.0000 0.2588 -0.9659
vn 0.0169 -0.3835 0.9234
vn -0.0000 -0.3829 0.9238
vn 0.0170 -0.3838 0.9233
vn 0.9913 -0.0929 0.0929
vn -0.0000 -0.0000 -1.0000
vn -0.1344 0.3817 0.9145
vn -0.0000 0.3811 0.9245
vn -0.1348 0.3826 0.9140
vn 0.0168 -0.3840 0.9232
vn 0.0169 -0.3843 0.9231
vn 0.1285 -0.2561 -0.9581
vn -0.0000 -0.3822 -0.9241
vn -0.0000 -0.2581 -0.9661
vn -0.0000 -0.2588 0.9659
vn -0.0000 -0.5000 0.8660
vn -0.0000 -0.7071 0.7071
vn -0.0000 -0.8660 0.5000
vn -0.0000 -0.9659 0.2588
vn -0.0000 -0.9659 -0.2588
vn -0.0000 -0.9239 -0.3827
vn -0.0000 0.3837 0.9235
vn -0.1316 0.2570 0.9574
vn -0.0000 0.2588 0.9659
vn -0.0000 -0.0000 1.0000
vn 0.0168 -0.3845 0.9230
vn 0.0170 -0.3847 0.9229
vn 0.9917 0.0333 0.1243
vn 0.9918 0.0001 0.1281
vn -0.9918 0.0640 -0.1109
vn -0.9918 0.0331 -0.1237
vn -0.9917 -0.0333 -0.1243
vn -0.9917 -0.0492 -0.1188
vn -0.9917 -0.0491 -0.1187
vn 0.9918 -0.0640 0.1109
vn 0.9918 -0.0331 0.1237
vn 0.9917 0.0492 0.1188
vn 0.9917 0.0334 0.1244
vn -0.9918 -0.0000 -0.1281
vn -0.9918 0.1237 0.0328
vn -0.9918 0.1185 0.0487
vn -0.9918 0.1238 0.0328
vn 0.9918 -0.1237 -0.0328
vn 0.9918 -0.1186 -0.0487
vn 0.9918 -0.1184 -0.0486
vn -0.9918 0.1281 -0.0000
vn -0.1330 0.3810 0.9150
vn 0.1280 0.9584 0.2552
vn 0.1281 0.9584 0.2553
vn 0.1262 0.8476 0.5154
vn 0.1283 -0.2561 -0.9581
vn 0.1296 -0.3788 -0.9164
vn 0.1280 -0.2560 -0.9581
vn 0.9918 -0.0905 0.0905
vn -0.9917 -0.0333 -0.1244
vn -0.9918 0.0905 -0.0905
vn 0.9918 -0.1109 0.0640
vn -0.9918 0.1109 -0.0640
vn 0.9918 -0.1237 0.0331
vn 0.7927 -0.2705 -0.5463
vn -0.9918 0.1237 -0.0331
vn 0.9918 -0.1281 -0.0000
vn 0.1247 0.7578 0.6405
vn 0.1261 0.7580 0.6399
vn 0.9918 -0.1238 -0.0328
vn 0.0437 0.4000 -0.9155
vn 0.7327 0.1963 -0.6517
vn 0.9925 -0.1224 -0.0061
vn 0.6709 -0.3694 0.6430
vn -0.0437 -0.4000 0.9155
vn -0.7327 -0.1963 0.6517
vn -0.7326 -0.1963 0.6517
vn -0.9925 0.1224 0.0061
vn 0.1145 0.9083 0.4023
vn -0.6709 0.3694 -0.6430
vn -1.0000 -0.0000 -0.0000
vn 1.0000 -0.0000 -0.0000
vn -0.0000 0.5556 0.8315
vn -0.0000 0.3827 0.9239
vn -0.0000 -0.5556 -0.8315
vn -0.0000 -0.3827 -0.9239
vn -0.0000 -0.3827 0.9239
vn -0.0000 0.3827 -0.9239
vn -0.0000 -0.9239 0.3827
vn -0.0000 0.9239 -0.3827
vn -0.0000 -0.9808 0.1951
vn -0.0000 0.9808 -0.1951
vn -0.0000 -0.7071 -0.7071
vn -0.0000 0.7071 0.7071
vn 0.9515 0.0035 0.3076
vn 0.9517 -0.0000 0.3070
vn 0.3162 -0.0000 -0.9487
vn 0.7071 -0.0000 0.7071
vn 0.7071 -0.0000 -0.7071
vn -0.3162 -0.0000 0.9487
vn 0.7071 -0.5000 0.5000
vn 0.7071 0.5000 -0.5000
vn -0.9515 0.0034 -0.3076
vn -0.9517 -0.0003 -0.3070
vn -0.9517 -0.0000 -0.3070
vn -0.7071 -0.0000 0.7071
vn -0.7071 -0.0000 -0.7071
vn 0.5000 -0.8660 -0.0000
vn 0.8660 -0.5000 -0.0000
vn 0.8660 0.5000 -0.0000
vn 0.5000 0.8660 -0.0000
vn -0.6088 -0.2688 -0.7464
vn -0.6098 -0.2697 -0.7453
vn -0.6071 -0.2706 -0.7471
vn -0.0000 -0.3810 -0.9246
vn -0.0000 -0.3793 -0.9253
vn -0.1332 0.3826 0.9143
vn -0.6080 -0.2703 -0.7465
vn 0.6065 0.2708 0.7476
vn 0.7921 -0.2708 -0.5470
vn 0.6059 0.2710 0.7479
vn -0.0000 0.9239 0.3827
vn -0.0000 0.7072 0.7070
vn -0.0000 -0.7072 -0.7070
vn -0.0001 -0.7072 -0.7070
vn -0.0000 0.8315 -0.5556
vn -0.0000 -0.8315 0.5556
vn 0.7071 -0.5000 -0.5000
vn 0.7071 0.5000 0.5000
vn -0.7071 -0.5000 -0.5000
vn -0.7071 0.5000 0.5000
vn 0.1901 0.9632 -0.1901
vn 0.2540 0.8613 -0.4400
vn 0.1345 0.9632 -0.2329
vn 0.3593 0.8613 -0.3593
vn 0.3562 0.7017 -0.6170
vn 0.5610 0.6088 -0.5610
vn 0.5038 0.7017 -0.5038
vn 0.6170 0.7017 -0.3562
vn 0.4400 0.8613 -0.2540
vn 0.2329 0.9632 -0.1345
vn 0.6871 0.6088 -0.3967
vn 0.7663 0.6088 -0.2053
vn 0.6882 0.7017 -0.1844
vn 0.2597 0.9632 -0.0696
vn 0.4908 0.8613 -0.1315
vn 0.2689 0.9632 -0.0000
vn 0.7934 0.6088 -0.0000
vn 0.7125 0.7017 -0.0000
vn 0.5081 0.8613 -0.0000
vn 0.4908 0.8613 0.1315
vn 0.7663 0.6088 0.2053
vn 0.6882 0.7017 0.1844
vn 0.2597 0.9632 0.0696
vn 0.2329 0.9632 0.1345
vn 0.6871 0.6088 0.3967
vn 0.6170 0.7017 0.3562
vn 0.4400 0.8613 0.2540
vn 0.3593 0.8613 0.3593
vn 0.1901 0.9632 0.1901
vn 0.5610 0.6088 0.5610
vn 0.5038 0.7017 0.5038
vn 0.3562 0.7017 0.6170
vn 0.2540 0.8613 0.4400
vn 0.1345 0.9632 0.2329
vn 0.3967 0.6088 0.6871
vn 0.0696 0.9632 0.2597
vn 0.1315 0.8613 0.4908
vn 0.1844 0.7017 0.6882
vn 0.2053 0.6088 0.7663
vn 0.0696 0.9632 -0.2597
vn 0.3967 0.6088 -0.6871
vn 0.1844 0.7017 -0.6882
vn 0.1315 0.8613 -0.4908
vn 0.2053 0.6088 -0.7663
vn 0.1314 -0.0000 0.9913
vn 0.1316 0.2577 0.9572
vn 0.1315 0.2575 0.9573
vn 0.1330 0.3817 0.9147
vn 0.1303 -0.9160 -0.3794
vn 0.1314 -0.9576 -0.2566
vn 0.1314 -0.9913 -0.0000
vn 0.1314 -0.9576 0.2566
vn 0.1314 -0.8585 0.4957
vn 0.1314 -0.7010 0.7010
vn 0.1314 -0.4957 0.8585
vn 0.1314 -0.2566 0.9576
vn -0.1345 -0.9631 0.2330
vn -0.3596 -0.8610 0.3596
vn -0.1902 -0.9631 0.1902
vn -0.2543 -0.8610 0.4404
vn -0.5034 -0.7023 0.5034
vn -0.3560 -0.7023 0.6165
vn -0.5601 -0.6104 0.5601
vn -0.4404 -0.8610 0.2543
vn -0.6165 -0.7023 0.3560
vn -0.2330 -0.9631 0.1345
vn -0.6860 -0.6104 0.3961
vn -0.7651 -0.6104 0.2050
vn -0.6876 -0.7023 0.1843
vn -0.2598 -0.9631 0.0696
vn -0.4913 -0.8610 0.1316
vn -0.2690 -0.9631 -0.0000
vn -0.7119 -0.7023 -0.0000
vn -0.7921 -0.6104 -0.0000
vn -0.5086 -0.8610 -0.0000
vn -0.4913 -0.8610 -0.1316
vn -0.6876 -0.7023 -0.1843
vn -0.7651 -0.6104 -0.2050
vn -0.2598 -0.9631 -0.0696
vn -0.4404 -0.8610 -0.2543
vn -0.2330 -0.9631 -0.1345
vn -0.6860 -0.6104 -0.3961
vn -0.6165 -0.7023 -0.3559
vn -0.3596 -0.8610 -0.3596
vn -0.1902 -0.9631 -0.1902
vn -0.5034 -0.7023 -0.5034
vn -0.5601 -0.6104 -0.5601
vn -0.3559 -0.7023 -0.6165
vn -0.2543 -0.8610 -0.4404
vn -0.1345 -0.9631 -0.2330
vn -0.3961 -0.6104 -0.6860
vn -0.0693 -0.9631 -0.2600
vn -0.1310 -0.8610 -0.4915
vn -0.1835 -0.7023 -0.6878
vn -0.2043 -0.6103 -0.7653
vn -0.0000 -0.6101 -0.7923
vn -0.0693 -0.9631 0.2600
vn -0.1835 -0.7023 0.6878
vn -0.3961 -0.6104 0.6860
vn -0.1310 -0.8610 0.4915
vn -0.2043 -0.6103 0.7653
vn -0.1576 0.7934 -0.5880
vn -0.3044 0.7934 -0.5272
vn -0.5272 0.7934 -0.3044
vn -0.5880 0.7934 -0.1576
vn -0.1576 0.7934 0.5880
vn -0.5880 0.7934 0.1576
vn -0.5272 0.7934 0.3044
vn -0.4305 0.7934 -0.4305
vn -0.6088 0.7934 -0.0000
vn -0.3044 0.7934 0.5272
vn -0.4305 0.7934 0.4305
vn -0.1280 -0.2570 -0.9579
vn -0.1281 -0.0000 -0.9918
vn -0.1295 -0.3806 -0.9156
vn -0.1283 -0.2571 -0.9578
vn -0.1281 0.9582 0.2559
vn -0.1270 0.9170 0.3780
vn -0.1281 0.9918 -0.0000
vn -0.1281 0.9580 -0.2567
vn -0.1281 0.8589 -0.4959
vn -0.1281 0.7013 -0.7013
vn -0.1281 0.4959 -0.8589
vn -0.1281 0.2567 -0.9580
vn -0.9914 -0.1268 -0.0338
vn -0.9914 -0.1206 -0.0499
vn -0.9913 -0.1269 -0.0338
vn -0.1270 0.9170 0.3781
vn -0.9912 0.0343 0.1275
vn -0.9913 -0.0000 0.1314
vn -0.9912 0.0343 0.1276
vn -0.7919 -0.2709 -0.5473
vn -0.7909 -0.2713 -0.5485
vn -0.9913 -0.1269 0.0340
vn -0.9913 -0.1138 0.0657
vn -0.9913 0.0508 0.1218
vn -0.9913 0.0508 0.1216
vn -0.9913 -0.1314 -0.0000
vn -0.9913 -0.0657 0.1138
vn -0.9913 -0.0340 0.1269
vn -0.0169 -0.3835 0.9234
vn -0.0170 -0.3838 0.9233
vn -0.9913 -0.0929 0.0929
vn 0.1344 0.3817 0.9145
vn -0.0000 0.3793 0.9253
vn -0.0168 -0.3840 0.9232
vn -0.0169 -0.3843 0.9231
vn -0.1285 -0.2561 -0.9581
vn 0.1316 0.2570 0.9574
vn -0.0168 -0.3845 0.9230
vn -0.0170 -0.3847 0.9229
vn -0.9918 0.0001 0.1281
vn -0.9917 0.0333 0.1243
vn 0.9918 0.0331 -0.1237
vn 0.9918 0.0640 -0.1109
vn 0.9917 -0.0492 -0.1188
vn 0.9917 -0.0333 -0.1243
vn 0.9917 -0.0491 -0.1187
vn -0.9918 -0.0640 0.1109
vn -0.9918 -0.0331 0.1237
vn -0.9917 0.0492 0.1188
vn -0.9917 0.0492 0.1187
vn 0.9918 -0.0000 -0.1281
vn 0.9918 0.1237 0.0328
vn 0.9918 0.1185 0.0487
vn 0.9918 0.1184 0.0487
vn -0.9918 -0.1186 -0.0487
vn -0.9918 -0.1237 -0.0328
vn -0.9918 -0.1184 -0.0486
vn 0.9918 0.1281 -0.0000
vn 0.9918 0.1238 0.0328
vn 0.1330 0.3810 0.9150
vn -0.1280 0.9584 0.2552
vn -0.1281 0.9584 0.2553
vn -0.1262 0.8476 0.5154
vn -0.1255 0.8476 0.5156
vn -0.1296 -0.3788 -0.9164
vn -0.1283 -0.2561 -0.9581
vn -0.1280 -0.2560 -0.9581
vn -0.9918 -0.0905 0.0905
vn 0.9918 0.0905 -0.0905
vn -0.9918 -0.1109 0.0640
vn 0.9918 0.1109 -0.0640
vn -0.9918 -0.1237 0.0331
vn -0.7927 -0.2705 -0.5463
vn -0.7921 -0.2708 -0.5470
vn 0.9918 0.1237 -0.0331
vn -0.9918 -0.1281 -0.0000
vn -0.1247 0.7578 0.6405
vn -0.1261 0.7580 0.6399
vn -0.9918 -0.1238 -0.0328
vn -0.0437 0.4000 -0.9155
vn -0.7327 0.1963 -0.6517
vn -0.9925 -0.1224 -0.0061
vn -0.6709 -0.3694 0.6430
vn 0.0437 -0.4000 0.9155
vn 0.7327 -0.1963 0.6517
vn 0.7326 -0.1963 0.6517
vn 0.9925 0.1224 0.0061
vn -0.1145 0.9083 0.4023
vn 0.6709 0.3694 -0.6430
vn -0.9517 -0.0000 0.3070
vn -0.9515 0.0035 0.3076
vn -0.3162 -0.0000 -0.9487
vn 0.3162 -0.0000 0.9487
vn -0.7071 -0.5000 0.5000
vn -0.7071 0.5000 -0.5000
vn 0.9517 -0.0003 -0.3070
vn 0.9515 0.0034 -0.3076
vn 0.9517 -0.0000 -0.3070
vn -0.5000 -0.8660 -0.0000
vn -0.8660 -0.5000 -0.0000
vn -0.8660 0.5000 -0.0000
vn -0.5000 0.8660 -0.0000
vn 0.6088 -0.2688 -0.7464
vn 0.6098 -0.2697 -0.7453
vn 0.6080 -0.2703 -0.7465
vn 0.1332 0.3826 0.9143
vn 0.1348 0.3826 0.9140
vn -0.6065 0.2708 0.7476
vn 0.0001 -0.7072 -0.7070
vn -0.0000 0.6088 -0.7934
vn -0.1332 0.3820 0.9145
vn 0.7921 -0.6104 -0.0000
vn -0.0000 -0.6101 0.7923
vn 0.1299 -0.3807 -0.9155
vn 0.9913 -0.1269 -0.0338
vn 0.9912 0.0343 0.1276
vn 0.1300 -0.3794 -0.9161
vn 0.9917 0.0492 0.1187
vn -0.9918 0.1184 0.0487
vn 0.1255 0.8476 0.5156
vn 0.1300 -0.3788 -0.9163
vn 0.9516 -0.0029 0.3075
vn 0.9500 0.0087 0.3121
vn -0.9516 -0.0031 -0.3075
vn -0.9500 0.0088 -0.3122
vn 0.1332 0.3820 0.9145
vn -0.1299 -0.3807 -0.9155
vn -0.9915 -0.1203 -0.0498
vn -0.1300 -0.3794 -0.9161
vn -0.9917 0.0334 0.1244
vn 0.9917 -0.0333 -0.1244
vn -0.1300 -0.3788 -0.9163
vn -0.9500 0.0087 0.3121
vn -0.9516 -0.0029 0.3075
vn 0.9500 0.0088 -0.3122
vn 0.9516 -0.0031 -0.3075
vn 0.6071 -0.2706 -0.7471
vn -0.6059 0.2710 0.7479
vt 0.333333 0.083333
vt 0.375000 0.166667
vt 0.375000 0.083333
vt 0.333333 0.250000
vt 0.375000 0.250000
vt 0.375000 0.333333
vt 0.354167 0.000000
vt 0.416667 0.166667
vt 0.416667 0.250000
vt 0.416667 0.083333
vt 0.395833 0.000000
vt 0.416667 0.333333
vt 0.458333 0.333333
vt 0.458333 0.250000
vt 0.437500 0.000000
vt 0.458333 0.083333
vt 0.458333 0.166667
vt 0.479167 0.000000
vt 0.500000 0.083333
vt 0.500000 0.333333
vt 0.500000 0.250000
vt 0.500000 0.166667
vt 0.541667 0.166667
vt 0.541667 0.250000
vt 0.541667 0.333333
vt 0.520833 0.000000
vt 0.541667 0.083333
vt 0.583333 0.083333
vt 0.583333 0.166667
vt 0.562500 0.000000
vt 0.583333 0.333333
vt 0.583333 0.250000
vt 0.625000 0.166667
vt 0.625000 0.083333
vt 0.625000 0.250000
vt 0.625000 0.333333
vt 0.604167 0.000000
vt 0.666667 0.250000
vt 0.666667 0.166667
vt 0.666667 0.083333
vt 0.645833 0.000000
vt 0.666667 0.333333
vt 0.687500 0.000000
vt 0.708333 0.083333
vt 0.708333 0.166667
vt 0.708333 0.250000
vt 0.708333 0.333333
vt 0.750000 0.250000
vt 0.750000 0.166667
vt 0.750000 0.083333
vt 0.729167 0.000000
vt 0.750000 0.333333
vt 0.312500 0.000000
vt 0.291667 0.083333
vt 0.291667 0.250000
vt 0.333333 0.333333
vt 0.333333 0.166667
vt 0.250000 0.166667
vt 0.291667 0.166667
vt 0.270833 0.000000
vt 0.250000 0.083333
vt 0.250000 0.250000
vt 0.291667 0.333333
vt 0.708333 0.562500
vt 0.750000 0.583333
vt 0.750000 0.562500
vt 0.666667 0.562500
vt 0.708333 0.583333
vt 0.041667 0.562500
vt 0.083333 0.583333
vt 0.083333 0.562500
vt 0.000000 0.583333
vt 0.041667 0.583333
vt 0.958333 0.562500
vt 1.000000 0.583333
vt 1.000000 0.562500
vt 0.916667 0.562500
vt 0.958333 0.583333
vt 0.875000 0.583333
vt 0.916667 0.583333
vt 0.875000 0.562500
vt 0.833333 0.583333
vt 0.833333 0.562500
vt 0.791667 0.583333
vt 0.791667 0.562500
vt 0.250000 0.333333
vt 0.000000 0.562500
vt 0.083333 0.541667
vt 0.041667 0.500000
vt 0.083333 0.500000
vt 0.041667 0.541667
vt 0.000000 0.500000
vt 1.000000 0.500000
vt 0.958333 0.541667
vt 0.958333 0.500000
vt 0.916667 0.541667
vt 0.916667 0.500000
vt 0.666667 0.583333
vt 0.875000 0.500000
vt 0.833333 0.541667
vt 0.833333 0.500000
vt 0.791667 0.541667
vt 0.791667 0.500000
vt 0.750000 0.541667
vt 0.750000 0.500000
vt 0.666667 0.541667
vt 0.666667 0.500000
vt 0.708333 0.541667
vt 0.708333 0.500000
vt 0.875000 0.541667
vt 1.000000 0.541667
vt 0.000000 0.541667
vt 0.062500 0.541667
vt 0.062500 0.562500
vt 0.875000 1.000000
vt 0.875000 0.500000
vt 0.750000 1.000000
vt 0.625000 0.500000
vt 0.625000 1.000000
vt 0.500000 0.500000
vt 0.375000 1.000000
vt 0.375000 0.500000
vt 0.250000 1.000000
vt 0.250000 0.500000
vt 0.010000 0.250000
vt 0.250000 0.010000
vt 0.490000 0.250000
vt 0.125000 0.500000
vt 0.125000 1.000000
vt 0.625000 0.000000
vt 0.375000 0.250000
vt 0.375000 0.000000
vt 0.375000 0.750000
vt 0.625000 0.750000
vt 0.125000 0.750000
vt 0.375000 0.538462
vt 0.625000 0.538462
vt 0.375000 0.769231
vt 0.625000 0.769231
vt 0.375000 0.980769
vt 0.125000 0.711538
vt 0.586538 0.250000
vt 0.625000 0.480769
vt 0.375000 0.519231
vt 0.625000 0.519231
vt 0.625000 0.769642
vt 0.375000 0.875000
vt 0.625000 0.980358
vt 0.625000 0.875000
vt 0.125000 0.625000
vt 0.375000 0.730769
vt 0.375000 0.625000
vt 0.375000 0.769642
vt 0.625000 0.625000
vt 1.000000 1.000000
vt 0.500000 1.000000
vt 0.583333 1.000000
vt 0.750000 1.000000
vt 0.916667 0.500000
vt 0.916667 1.000000
vt 0.833333 0.500000
vt 0.833333 1.000000
vt 0.750000 0.500000
vt 0.666667 0.500000
vt 0.666667 1.000000
vt 0.583333 0.500000
vt 0.500000 0.500000
vt 0.625000 0.781250
vt 0.625000 0.031250
vt 0.375000 0.531250
vt 0.625000 0.218750
vt 0.375000 0.218750
vt 0.125000 0.718750
vt 0.125000 0.531250
vt 0.375000 0.781250
vt 0.625000 0.968750
vt 0.375000 0.968750
vt 0.625000 0.531250
vt 0.593750 0.750000
vt 0.375000 0.718750
vt 0.375000 0.031250
vt 0.875000 0.531250
vt 0.625000 0.718750
vt 0.625000 0.531250
vt 0.250000 0.490000
vt 0.375000 0.980358
vt 0.125000 0.730769
vt 0.500000 1.000000
vt 0.406250 0.500000
vt 0.419706 0.419706
vt 0.080294 0.419706
vt 0.080294 0.080294
vt 0.419706 0.080294
vt 0.000000 1.000000
vt 0.875000 0.750000
vt 0.625000 0.980769
vt 0.375000 0.711538
vt 0.625000 0.269231
vt 0.586538 0.500000
vt 0.375000 0.718750
vt 0.593750 0.500000
vt 0.625000 0.718750
vt 0.406250 0.750000
vt 0.875000 0.718750
s 1
f 42/1/1 2/2/2 3/3/3
f 2/2/2 40/4/4 1/5/5
f 40/4/4 39/6/6 1/5/5
f 4/7/7 42/1/1 3/3/3
f 6/8/8 1/5/5 7/9/9
f 3/3/3 6/8/8 5/10/10
f 4/11/7 3/3/3 5/10/10
f 1/5/5 8/12/11 7/9/9
f 7/9/9 9/13/12 10/14/13
f 4/15/7 5/10/10 12/16/14
f 5/10/10 11/17/15 12/16/14
f 11/17/15 7/9/9 10/14/13
f 4/18/7 12/16/14 13/19/16
f 10/14/13 16/20/17 15/21/18
f 14/22/19 10/14/13 15/21/18
f 12/16/14 14/22/19 13/19/16
f 19/23/20 15/21/18 18/24/21
f 18/24/21 16/20/17 17/25/22
f 4/26/7 13/19/16 20/27/23
f 20/27/23 14/22/19 19/23/20
f 21/28/24 19/23/20 22/29/25
f 4/30/7 20/27/23 21/28/24
f 18/24/21 24/31/26 23/32/27
f 22/29/25 18/24/21 23/32/27
f 21/28/24 27/33/28 28/34/29
f 27/33/28 23/32/27 26/35/30
f 23/32/27 25/36/31 26/35/30
f 4/37/7 21/28/24 28/34/29
f 27/33/28 31/38/32 30/39/33
f 28/34/29 30/39/33 29/40/34
f 4/41/7 28/34/29 29/40/34
f 26/35/30 32/42/35 31/38/32
f 4/43/7 29/40/34 36/44/36
f 29/40/34 35/45/37 36/44/36
f 30/39/33 34/46/38 35/45/37
f 31/38/32 33/47/39 34/46/38
f 35/45/37 52/48/40 38/49/41
f 36/44/36 38/49/41 37/50/42
f 4/51/7 36/44/36 37/50/42
f 34/46/38 53/52/43 52/48/40
f 4/53/7 46/54/44 42/1/1
f 44/55/45 43/56/46 40/4/4
f 41/57/47 44/55/45 40/4/4
f 46/54/44 41/57/47 42/1/1
f 46/54/44 49/58/48 45/59/49
f 4/60/7 50/61/50 46/54/44
f 48/62/51 47/63/52 44/55/45
f 45/59/49 48/62/51 44/55/45
f 180/64/53 54/65/54 181/66/54
f 179/67/55 56/68/56 180/64/53
f 177/69/57 60/70/58 178/71/58
f 177/69/57 64/72/59 62/73/57
f 175/74/60 64/75/59 176/76/59
f 174/77/61 66/78/60 175/74/60
f 174/77/61 70/79/62 68/80/61
f 173/81/62 72/82/63 70/79/62
f 182/83/63 74/84/64 72/82/63
f 183/85/64 54/65/54 74/84/64
f 77/2/65 118/1/66 79/3/67
f 77/2/65 116/4/68 117/57/69
f 81/6/70 116/4/68 82/5/71
f 84/7/72 79/3/67 118/1/66
f 76/8/73 82/5/71 77/2/65
f 76/8/73 79/3/67 78/10/74
f 84/11/72 78/10/74 79/3/67
f 80/12/75 82/5/71 83/9/76
f 85/13/77 83/9/76 87/14/78
f 84/15/72 86/16/79 78/10/74
f 88/17/80 78/10/74 86/16/79
f 87/14/78 76/8/73 88/17/80
f 84/18/72 91/19/81 86/16/79
f 89/21/82 85/13/77 87/14/78
f 90/22/83 87/14/78 88/17/80
f 90/22/83 86/16/79 91/19/81
f 95/23/84 89/21/82 90/22/83
f 94/25/85 89/21/82 93/24/86
f 84/26/72 96/27/87 91/19/81
f 95/23/84 91/19/81 96/27/87
f 100/29/88 96/27/87 97/28/89
f 84/30/72 97/28/89 96/27/87
f 98/31/90 93/24/86 99/32/91
f 100/29/88 93/24/86 95/23/84
f 101/33/92 97/28/89 103/34/93
f 102/35/94 100/29/88 101/33/92
f 104/36/95 99/32/91 102/35/94
f 84/37/72 103/34/93 97/28/89
f 108/38/96 101/33/92 105/39/97
f 105/39/97 103/34/93 106/40/98
f 84/41/72 106/40/98 103/34/93
f 107/42/99 102/35/94 108/38/96
f 84/43/72 109/44/100 106/40/98
f 110/45/101 106/40/98 109/44/100
f 110/45/101 108/38/96 105/39/97
f 112/46/102 107/42/99 108/38/96
f 128/48/103 110/45/101 113/49/104
f 113/49/104 109/44/100 114/50/105
f 84/51/72 114/50/105 109/44/100
f 128/48/103 111/47/106 112/46/102
f 84/53/72 118/1/66 122/54/107
f 115/56/108 120/55/109 116/4/68
f 117/57/69 120/55/109 121/59/110
f 117/57/69 122/54/107 118/1/66
f 122/54/107 125/58/111 126/61/112
f 84/60/72 122/54/107 126/61/112
f 119/63/113 124/62/114 120/55/109
f 121/59/110 124/62/114 125/58/111
f 107/42/115 33/47/116 32/42/115
f 94/25/117 24/31/118 17/25/117
f 123/86/119 47/63/120 51/86/119
f 80/12/121 9/13/122 8/12/121
f 104/36/123 32/42/115 25/36/123
f 92/20/124 17/25/117 16/20/124
f 47/63/120 115/56/125 43/56/125
f 43/56/125 81/6/126 39/6/126
f 39/6/126 80/12/121 8/12/121
f 98/31/118 25/36/123 24/31/118
f 33/47/116 127/52/127 53/52/127
f 85/13/122 16/20/124 9/13/122
f 129/65/128 185/64/129 184/66/128
f 131/68/130 186/67/131 185/64/129
f 135/70/132 188/69/133 187/71/132
f 137/73/133 189/87/134 188/69/133
f 139/75/134 190/74/135 189/76/134
f 141/78/135 191/77/136 190/74/135
f 191/77/136 145/79/137 192/81/137
f 192/81/137 147/82/138 193/83/138
f 147/82/138 194/85/139 193/83/138
f 194/85/139 129/65/128 184/66/128
f 62/73/140 135/70/141 60/70/142
f 165/88/143 138/89/144 136/90/145
f 56/68/146 129/65/147 54/65/147
f 166/91/133 140/92/7 138/89/144
f 186/67/148 371/67/148 199/67/149
f 68/80/150 141/78/151 66/78/151
f 140/93/7 168/94/135 142/95/152
f 142/95/152 169/96/136 144/97/153
f 133/98/154 56/68/146 58/98/155
f 139/72/156 62/73/140 64/72/156
f 149/84/157 72/82/158 74/84/157
f 169/96/136 146/99/159 144/97/153
f 146/99/159 171/100/138 148/101/160
f 148/101/160 172/102/139 150/103/161
f 165/88/162 61/90/163 154/88/164
f 145/79/165 68/80/150 70/79/165
f 141/78/151 64/75/156 66/78/151
f 129/65/147 74/84/157 54/65/147
f 150/103/161 162/104/128 130/105/166
f 153/106/167 364/107/168 363/106/169
f 72/82/158 145/79/165 70/79/165
f 187/71/170 154/88/164 178/71/171
f 163/108/172 134/107/173 132/109/174
f 162/104/128 132/109/174 130/105/166
f 75/103/175 151/104/54 161/102/64
f 75/103/175 160/100/63 73/101/176
f 71/99/177 160/100/63 159/110/62
f 69/97/178 159/110/62 158/96/61
f 69/97/178 157/94/60 67/95/179
f 67/95/179 156/111/59 65/93/72
f 63/89/180 156/112/59 155/91/57
f 61/90/181 155/91/57 154/88/58
f 59/107/182 152/108/183 57/109/184
f 57/109/184 151/104/54 55/105/185
f 135/70/186 178/71/171 60/70/187
f 185/64/188 195/66/189 184/66/189
f 171/100/190 216/102/191 172/102/191
f 163/108/192 200/106/193 164/106/194
f 193/83/195 215/85/196 213/83/195
f 185/64/188 199/67/197 197/64/198
f 162/104/199 216/102/191 196/104/199
f 184/66/189 215/85/196 194/85/196
f 166/91/200 202/113/201 204/91/202
f 188/69/203 201/114/204 187/71/205
f 167/112/206 204/91/202 206/112/206
f 161/102/64 181/66/54 183/85/64
f 160/100/63 183/85/64 182/83/63
f 159/110/62 182/83/63 173/81/62
f 158/96/61 173/81/62 174/77/61
f 158/96/61 175/74/60 157/94/60
f 156/111/59 175/74/60 176/76/59
f 155/91/57 176/87/59 177/69/57
f 154/88/58 177/69/57 178/71/58
f 153/106/207 180/64/53 152/108/183
f 152/108/183 181/66/54 151/104/54
f 215/85/139 196/104/128 216/102/139
f 213/83/138 216/102/139 214/100/138
f 212/110/137 213/83/138 214/100/138
f 210/96/136 211/81/137 212/110/137
f 207/74/135 210/96/136 208/94/135
f 206/111/134 207/74/135 208/94/135
f 203/69/208 206/112/134 204/91/209
f 202/113/210 203/69/208 204/91/209
f 197/64/211 200/106/212 198/108/213
f 195/66/128 198/108/213 196/104/128
f 193/83/195 211/81/214 192/81/214
f 163/108/192 196/104/199 198/108/215
f 171/100/190 212/110/216 214/100/190
f 192/81/214 209/77/217 191/77/217
f 170/110/216 210/96/218 212/110/216
f 190/74/219 209/77/217 207/74/219
f 186/67/148 368/98/220 370/67/149
f 168/94/221 210/96/218 169/96/218
f 190/74/219 205/76/222 189/76/222
f 187/71/223 202/113/210 165/88/224
f 168/94/221 206/111/206 208/94/221
f 189/87/222 203/69/225 188/69/203
f 217/93/226 220/115/227 219/116/227
f 220/115/227 221/105/228 219/116/227
f 222/117/228 223/118/229 221/105/228
f 224/119/229 225/120/230 223/118/229
f 225/120/230 228/121/231 227/122/232
f 227/122/232 230/123/233 229/124/233
f 230/125/234 226/126/234 222/127/234
f 230/123/233 231/128/235 229/124/233
f 232/129/235 217/92/226 231/128/235
s 0
f 234/130/236 235/131/236 233/132/236
f 236/35/166 239/122/166 235/131/166
f 240/118/237 237/133/237 239/122/237
f 238/134/185 233/121/185 237/133/185
f 239/122/72 233/135/72 235/128/72
f 236/116/7 238/134/7 240/118/7
s 1
f 243/134/238 245/119/239 241/119/238
f 247/134/237 252/118/237 251/134/237
f 242/35/240 248/118/241 244/118/240
f 244/118/237 247/134/237 243/134/237
f 241/130/236 246/35/236 242/35/236
f 251/134/237 256/118/237 255/134/237
f 245/130/236 250/35/236 246/35/236
f 247/134/239 249/119/185 245/119/239
f 246/35/241 252/118/166 248/118/241
f 255/134/242 257/119/177 253/119/242
f 249/130/236 254/35/236 250/35/236
f 251/134/185 253/119/242 249/119/185
f 250/35/166 256/118/243 252/118/166
f 260/118/237 263/134/237 259/134/237
f 254/35/243 260/118/159 256/118/243
f 256/118/237 259/134/237 255/134/237
f 254/35/236 257/130/236 258/35/236
f 261/130/236 266/35/236 262/35/236
f 258/35/236 261/130/236 262/35/236
f 259/134/177 261/119/244 257/119/177
f 258/35/159 264/118/245 260/118/159
f 266/116/185 267/134/185 268/118/185
f 263/134/244 265/119/246 261/119/244
f 262/35/245 268/118/247 264/118/245
f 263/134/237 268/118/237 267/134/237
s 0
f 269/132/236 272/35/236 271/131/236
f 272/35/248 275/122/248 271/131/248
f 276/118/237 273/133/237 275/122/237
f 274/134/249 269/121/249 273/133/249
f 275/122/177 269/135/177 271/128/177
f 272/116/159 274/134/159 276/118/159
f 293/130/7 291/131/7 289/132/7
f 289/118/250 292/133/251 290/122/251
f 294/133/252 289/119/252 290/121/252
f 288/136/253 286/118/253 285/137/253
f 284/138/254 282/134/254 281/139/254
f 281/139/237 287/140/237 284/138/237
f 277/122/166 283/141/166 278/128/166
f 283/142/72 287/143/72 280/122/72
f 285/137/185 280/133/185 288/136/185
f 291/122/255 296/135/255 292/128/255
f 301/118/256 303/144/256 302/145/256
f 300/133/257 298/146/257 297/134/257
f 306/147/237 301/148/237 305/149/237
f 359/150/159 297/151/159 360/152/159
f 295/116/258 294/134/259 296/118/260
f 299/153/237 305/149/237 298/146/237
f 361/154/248 297/151/248 305/149/248
s 1
f 308/155/166 309/116/254 307/93/166
f 310/115/254 311/105/237 309/116/254
f 312/117/237 313/118/253 311/105/237
f 314/119/253 315/120/185 313/118/253
f 316/156/185 317/122/261 315/120/185
f 318/121/261 319/124/236 317/122/261
f 320/125/7 316/126/7 312/127/7
f 320/123/236 321/128/262 319/124/236
f 322/129/262 307/92/166 321/128/262
s 0
f 326/35/166 329/122/166 325/131/166
f 330/118/237 327/133/237 329/122/237
s 1
f 357/155/166 347/157/166 351/158/166
s 0
f 329/122/72 323/135/72 325/128/72
f 326/116/7 328/134/7 330/118/7
s 1
f 332/155/72 333/159/263 331/93/72
f 334/160/263 335/161/264 333/159/263
f 336/162/264 337/163/237 335/161/264
f 338/158/237 339/164/265 337/163/237
f 340/165/265 341/166/266 339/164/265
f 342/157/266 343/167/7 341/166/266
f 347/157/266 346/167/7 348/166/266
f 349/165/265 348/166/266 350/164/265
f 351/158/237 350/164/265 352/163/237
f 353/162/264 352/163/237 354/161/264
f 332/155/166 342/157/166 338/158/166
f 355/160/263 354/161/264 356/159/263
f 357/155/72 356/159/263 358/93/72
s 0
f 362/152/177 302/145/177 303/144/177
s 1
f 164/106/267 372/106/268 365/106/269
f 164/106/267 366/107/270 134/107/271
f 179/67/272 363/106/169 369/67/272
f 200/106/273 371/67/148 372/106/268
f 58/98/274 368/98/220 133/98/275
f 58/98/274 369/67/272 367/98/276
f 375/134/237 380/118/237 376/118/237
f 381/119/7 379/134/277 377/119/277
f 378/35/236 373/130/236 374/35/236
f 377/119/277 375/134/278 373/119/278
f 380/118/181 374/35/279 376/118/280
f 387/134/237 384/118/237 383/134/237
f 384/118/72 378/35/181 380/118/181
f 379/134/237 384/118/237 380/118/237
f 382/35/236 377/130/236 378/35/236
f 390/35/236 385/130/236 386/35/236
f 382/35/236 385/130/236 381/130/236
f 385/119/245 383/134/7 381/119/7
f 388/118/244 382/35/72 384/118/72
f 391/134/249 390/116/249 392/118/249
f 389/119/281 387/134/245 385/119/245
f 392/118/282 386/35/244 388/118/244
f 387/134/237 392/118/237 388/118/237
s 0
f 393/168/283 395/133/283 394/134/283
f 397/169/284 399/132/284 398/130/284
f 401/170/285 403/128/285 402/122/285
f 406/171/286 408/131/286 407/172/286
f 401/170/248 395/173/248 404/174/248
f 396/175/237 398/176/237 399/177/237
f 396/178/177 400/179/177 408/180/177
f 397/169/249 407/172/249 400/181/249
f 405/182/236 403/183/236 408/184/236
s 1
f 411/3/287 446/57/288 447/1/289
f 410/2/290 445/4/291 446/57/288
f 444/6/292 445/4/291 409/5/293
f 4/7/7 411/3/287 447/1/289
f 414/9/294 410/2/290 413/8/295
f 413/8/295 411/3/287 412/10/296
f 4/11/7 412/10/296 411/3/287
f 415/12/297 409/5/293 414/9/294
f 416/13/298 414/9/294 417/14/299
f 4/15/7 419/16/300 412/10/296
f 418/17/301 412/10/296 419/16/300
f 418/17/301 414/9/294 413/8/295
f 4/18/7 420/19/302 419/16/300
f 423/20/303 417/14/299 422/21/304
f 421/22/305 417/14/299 418/17/301
f 421/22/305 419/16/300 420/19/302
f 426/23/306 422/21/304 421/22/305
f 424/25/307 422/21/304 425/24/308
f 4/26/7 427/27/309 420/19/302
f 426/23/306 420/19/302 427/27/309
f 428/28/310 426/23/306 427/27/309
f 4/30/7 428/28/310 427/27/309
f 431/31/311 425/24/308 430/32/312
f 429/29/313 425/24/308 426/23/306
f 434/33/314 428/28/310 435/34/315
f 434/33/314 430/32/312 429/29/313
f 432/36/316 430/32/312 433/35/317
f 4/37/7 435/34/315 428/28/310
f 438/38/318 434/33/314 437/39/319
f 437/39/319 435/34/315 436/40/320
f 4/41/7 436/40/320 435/34/315
f 439/42/321 433/35/317 438/38/318
f 4/43/7 443/44/322 436/40/320
f 442/45/323 436/40/320 443/44/322
f 441/46/324 437/39/319 442/45/323
f 440/47/325 438/38/318 441/46/324
f 52/48/40 442/45/323 38/49/41
f 38/49/41 443/44/322 37/50/42
f 4/51/7 37/50/42 443/44/322
f 53/52/43 441/46/324 52/48/40
f 4/53/7 447/1/289 451/54/326
f 448/56/327 449/55/328 445/4/291
f 445/4/291 450/59/329 446/57/288
f 446/57/288 451/54/326 447/1/289
f 450/59/329 50/61/50 451/54/326
f 4/60/7 451/54/326 50/61/50
f 452/63/330 48/62/51 449/55/328
f 450/59/329 48/62/51 49/58/48
f 549/66/331 454/68/332 548/64/333
f 454/68/332 547/67/334 548/64/333
f 546/71/335 457/73/336 545/69/336
f 457/73/336 544/87/337 545/69/336
f 458/75/337 543/74/338 544/76/337
f 459/78/338 542/77/339 543/74/338
f 542/77/339 461/79/340 541/81/340
f 541/81/340 462/82/341 550/83/341
f 550/83/341 463/84/342 551/85/342
f 551/85/342 453/65/331 549/66/331
f 503/1/343 465/2/344 467/3/345
f 502/57/346 470/5/347 465/2/344
f 501/4/348 469/6/349 470/5/347
f 84/7/72 503/1/343 467/3/345
f 464/8/350 470/5/347 471/9/351
f 466/10/352 465/2/344 464/8/350
f 84/11/72 467/3/345 466/10/352
f 471/9/351 469/6/349 468/12/353
f 471/9/351 472/13/354 474/14/355
f 84/15/72 466/10/352 473/16/356
f 466/10/352 475/17/357 473/16/356
f 464/8/350 474/14/355 475/17/357
f 84/18/72 473/16/356 478/19/358
f 476/21/359 472/13/354 479/20/360
f 477/22/361 474/14/355 476/21/359
f 473/16/356 477/22/361 478/19/358
f 482/23/362 476/21/359 480/24/363
f 476/21/359 481/25/364 480/24/363
f 84/26/72 478/19/358 483/27/365
f 478/19/358 482/23/362 483/27/365
f 483/27/365 487/29/366 484/28/367
f 84/30/72 483/27/365 484/28/367
f 480/24/363 485/31/368 486/32/369
f 487/29/366 480/24/363 486/32/369
f 484/28/367 488/33/370 490/34/371
f 488/33/370 486/32/369 489/35/372
f 489/35/372 485/31/368 491/36/373
f 84/37/72 484/28/367 490/34/371
f 488/33/370 495/38/374 492/39/375
f 490/34/371 492/39/375 493/40/376
f 84/41/72 490/34/371 493/40/376
f 489/35/372 494/42/377 495/38/374
f 84/43/72 493/40/376 496/44/378
f 496/44/378 492/39/375 497/45/379
f 497/45/379 495/38/374 499/46/380
f 499/46/380 494/42/377 498/47/381
f 497/45/379 128/48/103 113/49/104
f 496/44/378 113/49/104 114/50/105
f 84/51/72 496/44/378 114/50/105
f 128/48/103 498/47/381 127/52/382
f 84/53/72 507/54/383 503/1/343
f 505/55/384 500/56/385 501/4/348
f 502/57/346 505/55/384 501/4/348
f 507/54/383 502/57/346 503/1/343
f 507/54/383 125/58/111 506/59/386
f 84/60/72 126/61/112 507/54/383
f 124/62/114 504/63/387 505/55/384
f 506/59/386 124/62/114 505/55/384
f 440/47/388 494/42/389 439/42/389
f 431/31/390 481/25/391 424/25/391
f 452/63/392 123/86/119 51/86/119
f 416/13/393 468/12/394 415/12/394
f 439/42/389 491/36/395 432/36/395
f 424/25/391 479/20/396 423/20/396
f 448/56/397 504/63/392 452/63/392
f 448/56/397 469/6/398 500/56/397
f 415/12/394 469/6/398 444/6/398
f 432/36/395 485/31/390 431/31/390
f 440/47/388 127/52/127 498/47/388
f 423/20/396 472/13/393 416/13/393
f 553/64/399 508/65/400 552/66/400
f 554/67/401 509/68/402 553/64/399
f 556/69/403 511/70/404 555/71/404
f 557/87/405 512/73/403 556/69/403
f 558/74/406 513/75/405 557/76/405
f 558/74/406 515/80/407 514/78/406
f 559/77/407 516/79/408 515/80/407
f 560/81/408 517/82/409 516/79/408
f 562/85/410 517/82/409 561/83/409
f 562/85/410 508/65/400 518/84/410
f 457/73/411 511/70/412 512/73/413
f 138/89/144 533/88/414 136/90/145
f 454/68/415 508/65/416 509/68/417
f 140/92/7 534/91/403 138/89/144
f 709/67/418 554/67/418 567/67/419
f 459/78/420 515/80/421 460/80/421
f 140/93/7 536/94/406 535/111/405
f 144/97/153 536/94/406 142/95/152
f 454/68/415 510/98/422 455/98/423
f 457/73/411 513/72/424 458/72/424
f 462/82/425 518/84/426 463/84/426
f 146/99/159 537/96/407 144/97/153
f 146/99/159 539/100/409 538/110/408
f 148/101/160 540/102/410 539/100/409
f 61/90/163 533/88/427 522/88/428
f 460/80/421 516/79/429 461/79/429
f 458/75/424 514/78/420 459/78/420
f 463/84/426 508/65/416 453/65/416
f 150/103/161 530/104/400 540/102/410
f 521/106/430 364/107/168 59/107/431
f 461/79/429 517/82/425 462/82/425
f 522/88/428 555/71/432 546/71/433
f 134/107/173 531/108/434 132/109/174
f 132/109/174 530/104/400 130/105/166
f 75/103/175 519/104/331 55/105/185
f 528/100/341 75/103/175 73/101/176
f 71/99/177 528/100/341 73/101/176
f 69/97/178 527/110/340 71/99/177
f 67/95/179 526/96/339 69/97/178
f 524/111/337 67/95/179 65/93/72
f 63/89/180 524/112/337 65/92/72
f 61/90/181 523/91/336 63/89/180
f 520/108/435 59/107/182 57/109/184
f 519/104/331 57/109/184 55/105/185
f 546/71/433 511/70/436 456/70/437
f 563/66/438 553/64/439 552/66/438
f 584/102/440 539/100/441 540/102/440
f 568/106/442 531/108/443 532/106/444
f 561/83/445 583/85/446 562/85/446
f 553/64/439 567/67/447 554/67/448
f 530/104/449 584/102/440 540/102/440
f 583/85/446 552/66/438 562/85/446
f 534/91/450 570/113/451 533/88/452
f 569/114/453 556/69/454 555/71/455
f 535/112/456 572/91/457 534/91/450
f 529/102/342 549/66/331 519/104/331
f 528/100/341 551/85/342 529/102/342
f 527/110/340 550/83/341 528/100/341
f 542/77/339 527/110/340 526/96/339
f 525/94/338 542/77/339 526/96/339
f 524/111/337 543/74/338 525/94/338
f 523/91/336 544/87/337 524/112/337
f 546/71/335 523/91/336 522/88/335
f 548/64/333 521/106/458 520/108/435
f 519/104/331 548/64/333 520/108/435
f 564/104/400 583/85/410 584/102/410
f 584/102/410 581/83/409 582/100/409
f 580/110/408 581/83/409 579/81/408
f 578/96/407 579/81/408 577/77/407
f 578/96/407 575/74/406 576/94/406
f 574/111/405 575/74/406 573/76/405
f 574/112/405 571/69/459 572/91/460
f 570/113/461 571/69/459 569/114/462
f 568/106/463 565/64/464 566/108/465
f 566/108/465 563/66/400 564/104/400
f 579/81/466 561/83/445 560/81/466
f 531/108/443 564/104/449 530/104/449
f 539/100/441 580/110/467 538/110/467
f 577/77/468 560/81/466 559/77/468
f 538/110/467 578/96/469 537/96/469
f 558/74/470 577/77/468 559/77/468
f 554/67/418 706/98/471 510/98/472
f 578/96/469 536/94/473 537/96/469
f 573/76/474 558/74/470 557/76/474
f 570/113/461 555/71/475 533/88/476
f 576/94/473 535/111/456 536/94/473
f 571/69/477 557/87/474 556/69/454
f 585/93/478 588/115/479 586/155/478
f 589/105/480 588/115/479 587/116/479
f 591/118/481 590/117/480 589/105/480
f 593/120/482 592/119/481 591/118/481
f 593/120/482 596/121/483 594/156/482
f 595/122/484 598/123/485 596/121/483
f 594/126/486 598/125/486 586/185/486
f 599/128/487 598/123/485 597/124/485
f 585/92/478 600/129/487 599/128/487
s 0
f 603/122/166 236/35/166 235/131/166
f 601/133/236 604/118/236 603/122/236
f 233/121/185 602/134/185 601/133/185
f 233/135/72 603/122/72 235/128/72
f 602/134/7 236/116/7 604/118/7
s 1
f 609/119/239 607/134/238 605/119/238
f 611/134/236 616/118/236 612/118/236
f 612/118/241 606/35/240 608/118/240
f 607/134/236 612/118/236 608/118/236
f 610/35/237 605/130/237 606/35/237
f 615/134/236 620/118/236 616/118/236
f 614/35/237 609/130/237 610/35/237
f 613/119/185 611/134/239 609/119/239
f 616/118/166 610/35/241 612/118/241
f 621/119/177 619/134/242 617/119/242
f 618/35/237 613/130/237 614/35/237
f 617/119/242 615/134/185 613/119/185
f 620/118/243 614/35/166 616/118/166
f 627/134/236 624/118/236 623/134/236
f 624/118/159 618/35/243 620/118/243
f 623/134/236 620/118/236 619/134/236
f 618/35/237 621/130/237 617/130/237
f 630/35/237 625/130/237 626/35/237
f 622/35/237 625/130/237 621/130/237
f 625/119/244 623/134/177 621/119/177
f 628/118/245 622/35/159 624/118/159
f 631/134/185 630/116/185 632/118/185
f 629/119/246 627/134/244 625/119/244
f 632/118/247 626/35/245 628/118/245
f 627/134/236 632/118/236 628/118/236
s 0
f 635/122/248 272/35/248 271/131/248
f 633/133/236 636/118/236 635/122/236
f 269/121/249 634/134/249 633/133/249
f 269/135/177 635/122/177 271/128/177
f 634/134/159 272/116/159 636/118/159
f 647/131/7 649/130/7 645/132/7
f 648/133/488 645/118/489 646/122/488
f 650/133/490 645/119/490 649/134/490
f 642/118/261 644/136/261 641/137/261
f 638/134/262 640/138/262 637/139/262
f 643/140/236 637/139/236 640/138/236
f 639/141/166 277/122/166 278/128/166
f 280/122/72 643/143/72 639/142/72
f 280/133/185 641/137/185 644/136/185
f 652/135/491 647/122/491 648/128/491
f 657/118/492 659/144/492 660/122/492
f 653/134/493 655/153/493 656/133/493
f 662/147/236 657/148/236 660/186/236
f 359/150/159 653/151/159 656/187/159
f 650/134/494 651/116/495 652/118/496
f 654/146/236 662/147/236 655/153/236
f 661/149/248 653/151/248 361/154/248
s 1
f 665/116/262 664/155/166 663/93/166
f 667/105/236 666/115/262 665/116/262
f 669/118/261 668/117/236 667/105/236
f 671/120/185 670/119/261 669/118/261
f 673/122/253 672/156/185 671/120/185
f 675/124/237 674/121/253 673/122/253
f 672/126/7 676/125/7 664/185/7
f 677/128/254 676/123/237 675/124/237
f 663/92/166 678/129/254 677/128/254
s 0
f 681/122/166 326/35/166 325/131/166
f 679/133/236 682/118/236 681/122/236
s 1
f 699/162/166 695/165/166 345/188/166
s 0
f 323/135/72 681/122/72 325/128/72
f 680/134/7 326/116/7 682/118/7
s 1
f 683/159/497 332/155/72 331/93/72
f 685/161/498 684/160/497 683/159/497
f 687/163/236 686/162/498 685/161/498
f 689/164/499 688/158/236 687/163/236
f 691/166/500 690/165/499 689/164/499
f 343/167/7 692/157/500 691/166/500
f 346/167/7 693/157/500 694/166/500
f 694/166/500 695/165/499 696/164/499
f 696/164/499 697/158/236 698/163/236
f 698/163/236 699/162/498 700/161/498
f 686/162/166 690/165/166 344/188/166
f 700/161/498 701/160/497 702/159/497
f 702/159/497 357/155/72 358/93/72
s 0
f 658/145/177 362/152/177 659/144/177
s 1
f 532/106/501 710/106/502 568/106/503
f 366/107/270 532/106/501 134/107/271
f 547/67/504 703/106/505 521/106/430
f 568/106/503 709/67/418 567/67/419
f 706/98/471 455/98/506 510/98/472
f 455/98/506 707/67/504 547/67/504
f 713/134/236 718/118/236 717/134/236
f 717/134/277 719/119/7 715/119/277
f 711/130/237 716/35/237 712/35/237
f 713/134/278 715/119/277 711/119/278
f 712/35/279 718/118/181 714/118/507
f 722/118/236 725/134/236 721/134/236
f 716/35/181 722/118/72 718/118/181
f 717/134/236 722/118/236 721/134/236
f 715/130/237 720/35/237 716/35/237
f 723/130/237 728/35/237 724/35/237
f 720/35/237 723/130/237 724/35/237
f 721/134/7 723/119/245 719/119/7
f 720/35/72 726/118/244 722/118/72
f 728/116/249 729/134/249 730/118/249
f 725/134/245 727/119/281 723/119/245
f 724/35/244 730/118/282 726/118/244
f 725/134/236 730/118/236 729/134/236
s 0
f 731/168/285 733/133/285 734/175/285
f 735/169/286 737/132/286 738/181/286
f 739/170/283 741/128/283 742/174/283
f 746/131/284 744/171/284 745/172/284
f 733/173/248 739/170/248 742/174/248
f 734/175/236 736/176/236 731/168/236
f 738/179/177 734/178/177 742/189/177
f 745/172/249 735/169/249 738/181/249
f 741/183/237 743/182/237 746/184/237
s 1
f 42/1/1 41/57/47 2/2/2
f 2/2/2 41/57/47 40/4/4
f 40/4/4 43/56/46 39/6/6
f 6/8/8 2/2/2 1/5/5
f 3/3/3 2/2/2 6/8/8
f 1/5/5 39/6/6 8/12/11
f 7/9/9 8/12/11 9/13/12
f 5/10/10 6/8/8 11/17/15
f 11/17/15 6/8/8 7/9/9
f 10/14/13 9/13/12 16/20/17
f 14/22/19 11/17/15 10/14/13
f 12/16/14 11/17/15 14/22/19
f 19/23/20 14/22/19 15/21/18
f 18/24/21 15/21/18 16/20/17
f 20/27/23 13/19/16 14/22/19
f 21/28/24 20/27/23 19/23/20
f 18/24/21 17/25/22 24/31/26
f 22/29/25 19/23/20 18/24/21
f 21/28/24 22/29/25 27/33/28
f 27/33/28 22/29/25 23/32/27
f 23/32/27 24/31/26 25/36/31
f 27/33/28 26/35/30 31/38/32
f 28/34/29 27/33/28 30/39/33
f 26/35/30 25/36/31 32/42/35
f 29/40/34 30/39/33 35/45/37
f 30/39/33 31/38/32 34/46/38
f 31/38/32 32/42/35 33/47/39
f 35/45/37 34/46/38 52/48/40
f 36/44/36 35/45/37 38/49/41
f 34/46/38 33/47/39 53/52/43
f 44/55/45 47/63/52 43/56/46
f 41/57/47 45/59/49 44/55/45
f 46/54/44 45/59/49 41/57/47
f 46/54/44 50/61/50 49/58/48
f 48/62/51 51/86/508 47/63/52
f 45/59/49 49/58/48 48/62/51
f 180/64/53 56/68/56 54/65/54
f 179/67/55 58/98/509 56/68/56
f 177/69/57 62/73/57 60/70/58
f 177/69/57 176/87/59 64/72/59
f 175/74/60 66/78/60 64/75/59
f 174/77/61 68/80/61 66/78/60
f 174/77/61 173/81/62 70/79/62
f 173/81/62 182/83/63 72/82/63
f 182/83/63 183/85/64 74/84/64
f 183/85/64 181/66/54 54/65/54
f 77/2/65 117/57/69 118/1/66
f 77/2/65 82/5/71 116/4/68
f 81/6/70 115/56/108 116/4/68
f 76/8/73 83/9/76 82/5/71
f 76/8/73 77/2/65 79/3/67
f 80/12/75 81/6/70 82/5/71
f 85/13/77 80/12/75 83/9/76
f 88/17/80 76/8/73 78/10/74
f 87/14/78 83/9/76 76/8/73
f 89/21/82 92/20/510 85/13/77
f 90/22/83 89/21/82 87/14/78
f 90/22/83 88/17/80 86/16/79
f 95/23/84 93/24/86 89/21/82
f 94/25/85 92/20/510 89/21/82
f 95/23/84 90/22/83 91/19/81
f 100/29/88 95/23/84 96/27/87
f 98/31/90 94/25/85 93/24/86
f 100/29/88 99/32/91 93/24/86
f 101/33/92 100/29/88 97/28/89
f 102/35/94 99/32/91 100/29/88
f 104/36/95 98/31/90 99/32/91
f 108/38/96 102/35/94 101/33/92
f 105/39/97 101/33/92 103/34/93
f 107/42/99 104/36/95 102/35/94
f 110/45/101 105/39/97 106/40/98
f 110/45/101 112/46/102 108/38/96
f 112/46/102 111/47/106 107/42/99
f 128/48/103 112/46/102 110/45/101
f 113/49/104 110/45/101 109/44/100
f 128/48/103 127/52/382 111/47/106
f 115/56/108 119/63/113 120/55/109
f 117/57/69 116/4/68 120/55/109
f 117/57/69 121/59/110 122/54/107
f 122/54/107 121/59/110 125/58/111
f 119/63/113 123/86/511 124/62/114
f 121/59/110 120/55/109 124/62/114
f 107/42/115 111/47/116 33/47/116
f 94/25/117 98/31/118 24/31/118
f 123/86/119 119/63/120 47/63/120
f 80/12/121 85/13/122 9/13/122
f 104/36/123 107/42/115 32/42/115
f 92/20/124 94/25/117 17/25/117
f 47/63/120 119/63/120 115/56/125
f 43/56/125 115/56/125 81/6/126
f 39/6/126 81/6/126 80/12/121
f 98/31/118 104/36/123 25/36/123
f 33/47/116 111/47/116 127/52/127
f 85/13/122 92/20/124 16/20/124
f 129/65/128 131/68/130 185/64/129
f 131/68/130 133/98/512 186/67/131
f 135/70/132 137/73/133 188/69/133
f 137/73/133 139/72/134 189/87/134
f 139/75/134 141/78/135 190/74/135
f 141/78/135 143/80/136 191/77/136
f 191/77/136 143/80/136 145/79/137
f 192/81/137 145/79/137 147/82/138
f 147/82/138 149/84/139 194/85/139
f 194/85/139 149/84/139 129/65/128
f 62/73/140 137/73/513 135/70/141
f 165/88/143 166/91/133 138/89/144
f 56/68/146 131/68/514 129/65/147
f 166/91/133 167/112/134 140/92/7
f 186/67/148 370/67/149 371/67/148
f 68/80/150 143/80/150 141/78/151
f 140/93/7 167/111/134 168/94/135
f 142/95/152 168/94/135 169/96/136
f 133/98/154 131/68/514 56/68/146
f 139/72/156 137/73/513 62/73/140
f 149/84/157 147/82/158 72/82/158
f 169/96/136 170/110/137 146/99/159
f 146/99/159 170/110/137 171/100/138
f 148/101/160 171/100/138 172/102/139
f 165/88/162 136/90/242 61/90/163
f 145/79/165 143/80/150 68/80/150
f 141/78/151 139/75/156 64/75/156
f 129/65/147 149/84/157 74/84/157
f 150/103/161 172/102/139 162/104/128
f 153/106/167 59/107/431 364/107/168
f 72/82/158 147/82/158 145/79/165
f 187/71/170 165/88/162 154/88/164
f 163/108/172 164/106/515 134/107/173
f 162/104/128 163/108/172 132/109/174
f 75/103/175 55/105/185 151/104/54
f 75/103/175 161/102/64 160/100/63
f 71/99/177 73/101/176 160/100/63
f 69/97/178 71/99/177 159/110/62
f 69/97/178 158/96/61 157/94/60
f 67/95/179 157/94/60 156/111/59
f 63/89/180 65/92/72 156/112/59
f 61/90/181 63/89/180 155/91/57
f 59/107/182 153/106/207 152/108/183
f 57/109/184 152/108/183 151/104/54
f 135/70/186 187/71/170 178/71/171
f 185/64/188 197/64/198 195/66/189
f 171/100/190 214/100/190 216/102/191
f 163/108/192 198/108/215 200/106/193
f 193/83/195 194/85/196 215/85/196
f 185/64/188 186/67/516 199/67/197
f 162/104/199 172/102/191 216/102/191
f 184/66/189 195/66/189 215/85/196
f 166/91/200 165/88/517 202/113/201
f 188/69/203 203/69/225 201/114/204
f 167/112/206 166/91/200 204/91/202
f 161/102/64 151/104/54 181/66/54
f 160/100/63 161/102/64 183/85/64
f 159/110/62 160/100/63 182/83/63
f 158/96/61 159/110/62 173/81/62
f 158/96/61 174/77/61 175/74/60
f 156/111/59 157/94/60 175/74/60
f 155/91/57 156/112/59 176/87/59
f 154/88/58 155/91/57 177/69/57
f 153/106/207 179/67/55 180/64/53
f 152/108/183 180/64/53 181/66/54
f 215/85/139 195/66/128 196/104/128
f 213/83/138 215/85/139 216/102/139
f 212/110/137 211/81/137 213/83/138
f 210/96/136 209/77/136 211/81/137
f 207/74/135 209/77/136 210/96/136
f 206/111/134 205/76/134 207/74/135
f 203/69/208 205/87/134 206/112/134
f 202/113/210 201/114/518 203/69/208
f 197/64/211 199/67/519 200/106/212
f 195/66/128 197/64/211 198/108/213
f 193/83/195 213/83/195 211/81/214
f 163/108/192 162/104/199 196/104/199
f 171/100/190 170/110/216 212/110/216
f 192/81/214 211/81/214 209/77/217
f 170/110/216 169/96/218 210/96/218
f 190/74/219 191/77/217 209/77/217
f 186/67/148 133/98/275 368/98/220
f 168/94/221 208/94/221 210/96/218
f 190/74/219 207/74/219 205/76/222
f 187/71/223 201/114/518 202/113/210
f 168/94/221 167/111/206 206/111/206
f 189/87/222 205/87/222 203/69/225
f 217/93/226 218/155/226 220/115/227
f 220/115/227 222/117/228 221/105/228
f 222/117/228 224/119/229 223/118/229
f 224/119/229 226/156/230 225/120/230
f 225/120/230 226/156/230 228/121/231
f 227/122/232 228/121/231 230/123/233
f 222/127/234 220/190/234 218/185/234
f 218/185/234 232/191/234 230/125/234
f 230/125/234 228/192/234 226/126/234
f 226/126/234 224/193/234 222/127/234
f 222/127/234 218/185/234 230/125/234
f 230/123/233 232/129/235 231/128/235
f 232/129/235 218/194/226 217/92/226
s 0
f 234/130/236 236/35/236 235/131/236
f 236/35/166 240/118/166 239/122/166
f 240/118/237 238/134/237 237/133/237
f 238/134/185 234/119/185 233/121/185
f 239/122/72 237/133/72 233/135/72
f 236/116/7 234/195/7 238/134/7
s 1
f 243/134/238 247/134/239 245/119/239
f 247/134/237 248/118/237 252/118/237
f 242/35/240 246/35/241 248/118/241
f 244/118/237 248/118/237 247/134/237
f 241/130/236 245/130/236 246/35/236
f 251/134/237 252/118/237 256/118/237
f 245/130/236 249/130/236 250/35/236
f 247/134/239 251/134/185 249/119/185
f 246/35/241 250/35/166 252/118/166
f 255/134/242 259/134/177 257/119/177
f 249/130/236 253/130/236 254/35/236
f 251/134/185 255/134/242 253/119/242
f 250/35/166 254/35/243 256/118/243
f 260/118/237 264/118/237 263/134/237
f 254/35/243 258/35/159 260/118/159
f 256/118/237 260/118/237 259/134/237
f 254/35/236 253/130/236 257/130/236
f 261/130/236 265/130/236 266/35/236
f 258/35/236 257/130/236 261/130/236
f 259/134/177 263/134/244 261/119/244
f 258/35/159 262/35/245 264/118/245
f 266/116/185 265/195/185 267/134/185
f 263/134/244 267/134/246 265/119/246
f 262/35/245 266/35/247 268/118/247
f 263/134/237 264/118/237 268/118/237
s 0
f 269/132/236 270/130/236 272/35/236
f 272/35/248 276/118/248 275/122/248
f 276/118/237 274/134/237 273/133/237
f 274/134/249 270/119/249 269/121/249
f 275/122/177 273/133/177 269/135/177
f 272/116/159 270/195/159 274/134/159
f 293/130/7 295/35/7 291/131/7
f 289/118/520 291/134/251 292/133/521
f 294/133/252 293/134/252 289/119/252
f 288/136/253 287/122/253 286/118/253
f 284/138/254 283/133/254 282/134/254
f 281/139/237 286/196/237 287/140/237
f 277/122/166 282/197/166 283/141/166
f 280/122/72 278/131/72 283/142/72
f 283/142/72 284/198/72 287/143/72
f 287/143/72 288/199/72 280/122/72
f 285/137/185 279/134/185 280/133/185
f 291/122/255 295/133/255 296/135/255
f 301/118/256 304/122/256 303/144/256
f 300/133/257 299/153/257 298/146/257
f 306/147/237 304/186/237 301/148/237
f 359/150/159 300/187/159 297/151/159
f 295/116/522 293/195/260 294/134/523
f 299/153/237 306/147/237 305/149/237
f 301/148/248 302/145/248 361/154/248
f 361/154/248 360/152/248 297/151/248
f 297/151/248 298/146/248 305/149/248
f 305/149/248 301/148/248 361/154/248
s 1
f 308/155/166 310/115/254 309/116/254
f 310/115/254 312/117/237 311/105/237
f 312/117/237 314/119/253 313/118/253
f 314/119/253 316/156/185 315/120/185
f 316/156/185 318/121/261 317/122/261
f 318/121/261 320/123/236 319/124/236
f 312/127/7 310/190/7 308/185/7
f 308/185/7 322/191/7 320/125/7
f 320/125/7 318/192/7 316/126/7
f 316/126/7 314/193/7 312/127/7
f 312/127/7 308/185/7 320/125/7
f 320/123/236 322/129/262 321/128/262
f 322/129/262 308/194/166 307/92/166
s 0
f 326/35/166 330/118/166 329/122/166
f 330/118/237 328/134/237 327/133/237
s 1
f 353/162/166 355/160/166 357/155/166
f 357/155/166 345/188/166 347/157/166
f 347/157/166 349/165/166 351/158/166
f 351/158/166 353/162/166 357/155/166
s 0
f 329/122/72 327/133/72 323/135/72
f 326/116/7 324/195/7 328/134/7
s 1
f 332/155/72 334/160/263 333/159/263
f 334/160/263 336/162/264 335/161/264
f 336/162/264 338/158/237 337/163/237
f 338/158/237 340/165/265 339/164/265
f 340/165/265 342/157/266 341/166/266
f 342/157/266 344/188/7 343/167/7
f 347/157/266 345/188/7 346/167/7
f 349/165/265 347/157/266 348/166/266
f 351/158/237 349/165/265 350/164/265
f 353/162/264 351/158/237 352/163/237
f 336/162/166 334/160/166 332/155/166
f 332/155/166 344/188/166 342/157/166
f 342/157/166 340/165/166 338/158/166
f 338/158/166 336/162/166 332/155/166
f 355/160/263 353/162/264 354/161/264
f 357/155/72 355/160/263 356/159/263
s 0
f 362/152/177 361/154/177 302/145/177
s 1
f 164/106/267 200/106/273 372/106/268
f 164/106/267 365/106/269 366/107/270
f 179/67/272 153/106/167 363/106/169
f 200/106/273 199/67/149 371/67/148
f 58/98/274 367/98/276 368/98/220
f 58/98/274 179/67/272 369/67/272
f 375/134/237 379/134/237 380/118/237
f 381/119/7 383/134/7 379/134/277
f 378/35/236 377/130/236 373/130/236
f 377/119/277 379/134/277 375/134/278
f 380/118/181 378/35/181 374/35/279
f 387/134/237 388/118/237 384/118/237
f 384/118/72 382/35/72 378/35/181
f 379/134/237 383/134/237 384/118/237
f 382/35/236 381/130/236 377/130/236
f 390/35/236 389/130/236 385/130/236
f 382/35/236 386/35/236 385/130/236
f 385/119/245 387/134/245 383/134/7
f 388/118/244 386/35/244 382/35/72
f 391/134/249 389/195/249 390/116/249
f 389/119/281 391/134/281 387/134/245
f 392/118/282 390/35/282 386/35/244
f 387/134/237 391/134/237 392/118/237
s 0
f 393/168/283 396/175/283 395/133/283
f 397/169/284 400/181/284 399/132/284
f 401/170/285 404/174/285 403/128/285
f 406/171/286 405/35/286 408/131/286
f 401/170/248 394/200/248 395/173/248
f 396/175/237 393/168/237 398/176/237
f 408/180/177 403/170/177 404/189/177
f 404/189/177 395/201/177 396/178/177
f 396/178/177 399/202/177 400/179/177
f 400/179/177 407/203/177 408/180/177
f 408/180/177 404/189/177 396/178/177
f 397/169/249 406/171/249 407/172/249
f 405/182/236 402/204/236 403/183/236
s 1
f 411/3/287 410/2/290 446/57/288
f 410/2/290 409/5/293 445/4/291
f 444/6/292 448/56/327 445/4/291
f 414/9/294 409/5/293 410/2/290
f 413/8/295 410/2/290 411/3/287
f 415/12/297 444/6/292 409/5/293
f 416/13/298 415/12/297 414/9/294
f 418/17/301 413/8/295 412/10/296
f 418/17/301 417/14/299 414/9/294
f 423/20/303 416/13/298 417/14/299
f 421/22/305 422/21/304 417/14/299
f 421/22/305 418/17/301 419/16/300
f 426/23/306 425/24/308 422/21/304
f 424/25/307 423/20/303 422/21/304
f 426/23/306 421/22/305 420/19/302
f 428/28/310 429/29/313 426/23/306
f 431/31/311 424/25/307 425/24/308
f 429/29/313 430/32/312 425/24/308
f 434/33/314 429/29/313 428/28/310
f 434/33/314 433/35/317 430/32/312
f 432/36/316 431/31/311 430/32/312
f 438/38/318 433/35/317 434/33/314
f 437/39/319 434/33/314 435/34/315
f 439/42/321 432/36/316 433/35/317
f 442/45/323 437/39/319 436/40/320
f 441/46/324 438/38/318 437/39/319
f 440/47/325 439/42/321 438/38/318
f 52/48/40 441/46/324 442/45/323
f 38/49/41 442/45/323 443/44/322
f 53/52/43 440/47/325 441/46/324
f 448/56/327 452/63/330 449/55/328
f 445/4/291 449/55/328 450/59/329
f 446/57/288 450/59/329 451/54/326
f 450/59/329 49/58/48 50/61/50
f 452/63/330 51/86/508 48/62/51
f 450/59/329 449/55/328 48/62/51
f 549/66/331 453/65/331 454/68/332
f 454/68/332 455/98/524 547/67/334
f 546/71/335 456/70/335 457/73/336
f 457/73/336 458/72/337 544/87/337
f 458/75/337 459/78/338 543/74/338
f 459/78/338 460/80/339 542/77/339
f 542/77/339 460/80/339 461/79/340
f 541/81/340 461/79/340 462/82/341
f 550/83/341 462/82/341 463/84/342
f 551/85/342 463/84/342 453/65/331
f 503/1/343 502/57/346 465/2/344
f 502/57/346 501/4/348 470/5/347
f 501/4/348 500/56/385 469/6/349
f 464/8/350 465/2/344 470/5/347
f 466/10/352 467/3/345 465/2/344
f 471/9/351 470/5/347 469/6/349
f 471/9/351 468/12/353 472/13/354
f 466/10/352 464/8/350 475/17/357
f 464/8/350 471/9/351 474/14/355
f 476/21/359 474/14/355 472/13/354
f 477/22/361 475/17/357 474/14/355
f 473/16/356 475/17/357 477/22/361
f 482/23/362 477/22/361 476/21/359
f 476/21/359 479/20/360 481/25/364
f 478/19/358 477/22/361 482/23/362
f 483/27/365 482/23/362 487/29/366
f 480/24/363 481/25/364 485/31/368
f 487/29/366 482/23/362 480/24/363
f 484/28/367 487/29/366 488/33/370
f 488/33/370 487/29/366 486/32/369
f 489/35/372 486/32/369 485/31/368
f 488/33/370 489/35/372 495/38/374
f 490/34/371 488/33/370 492/39/375
f 489/35/372 491/36/373 494/42/377
f 496/44/378 493/40/376 492/39/375
f 497/45/379 492/39/375 495/38/374
f 499/46/380 495/38/374 494/42/377
f 497/45/379 499/46/380 128/48/103
f 496/44/378 497/45/379 113/49/104
f 128/48/103 499/46/380 498/47/381
f 505/55/384 504/63/387 500/56/385
f 502/57/346 506/59/386 505/55/384
f 507/54/383 506/59/386 502/57/346
f 507/54/383 126/61/112 125/58/111
f 124/62/114 123/86/511 504/63/387
f 506/59/386 125/58/111 124/62/114
f 440/47/388 498/47/388 494/42/389
f 431/31/390 485/31/390 481/25/391
f 452/63/392 504/63/392 123/86/119
f 416/13/393 472/13/393 468/12/394
f 439/42/389 494/42/389 491/36/395
f 424/25/391 481/25/391 479/20/396
f 448/56/397 500/56/397 504/63/392
f 448/56/397 444/6/398 469/6/398
f 415/12/394 468/12/394 469/6/398
f 432/36/395 491/36/395 485/31/390
f 440/47/388 53/52/127 127/52/127
f 423/20/396 479/20/396 472/13/393
f 553/64/399 509/68/402 508/65/400
f 554/67/401 510/98/525 509/68/402
f 556/69/403 512/73/403 511/70/404
f 557/87/405 513/72/405 512/73/403
f 558/74/406 514/78/406 513/75/405
f 558/74/406 559/77/407 515/80/407
f 559/77/407 560/81/408 516/79/408
f 560/81/408 561/83/409 517/82/409
f 562/85/410 518/84/410 517/82/409
f 562/85/410 552/66/400 508/65/400
f 457/73/411 456/70/526 511/70/412
f 138/89/144 534/91/403 533/88/414
f 454/68/415 453/65/416 508/65/416
f 140/92/7 535/112/405 534/91/403
f 709/67/418 708/67/419 554/67/418
f 459/78/420 514/78/420 515/80/421
f 140/93/7 142/95/152 536/94/406
f 144/97/153 537/96/407 536/94/406
f 454/68/415 509/68/417 510/98/422
f 457/73/411 512/73/413 513/72/424
f 462/82/425 517/82/425 518/84/426
f 146/99/159 538/110/408 537/96/407
f 146/99/159 148/101/160 539/100/409
f 148/101/160 150/103/161 540/102/410
f 61/90/163 136/90/242 533/88/427
f 460/80/421 515/80/421 516/79/429
f 458/75/424 513/75/424 514/78/420
f 463/84/426 518/84/426 508/65/416
f 150/103/161 130/105/166 530/104/400
f 521/106/430 703/106/505 364/107/168
f 461/79/429 516/79/429 517/82/425
f 522/88/428 533/88/427 555/71/432
f 134/107/173 532/106/527 531/108/434
f 132/109/174 531/108/434 530/104/400
f 75/103/175 529/102/342 519/104/331
f 528/100/341 529/102/342 75/103/175
f 71/99/177 527/110/340 528/100/341
f 69/97/178 526/96/339 527/110/340
f 67/95/179 525/94/338 526/96/339
f 524/111/337 525/94/338 67/95/179
f 63/89/180 523/91/336 524/112/337
f 61/90/181 522/88/335 523/91/336
f 520/108/435 521/106/458 59/107/182
f 519/104/331 520/108/435 57/109/184
f 546/71/433 555/71/432 511/70/436
f 563/66/438 565/64/528 553/64/439
f 584/102/440 582/100/441 539/100/441
f 568/106/442 566/108/529 531/108/443
f 561/83/445 581/83/445 583/85/446
f 553/64/439 565/64/528 567/67/447
f 530/104/449 564/104/449 584/102/440
f 583/85/446 563/66/438 552/66/438
f 534/91/450 572/91/457 570/113/451
f 569/114/453 571/69/477 556/69/454
f 535/112/456 574/112/456 572/91/457
f 529/102/342 551/85/342 549/66/331
f 528/100/341 550/83/341 551/85/342
f 527/110/340 541/81/340 550/83/341
f 542/77/339 541/81/340 527/110/340
f 525/94/338 543/74/338 542/77/339
f 524/111/337 544/76/337 543/74/338
f 523/91/336 545/69/336 544/87/337
f 546/71/335 545/69/336 523/91/336
f 548/64/333 547/67/334 521/106/458
f 519/104/331 549/66/331 548/64/333
f 564/104/400 563/66/400 583/85/410
f 584/102/410 583/85/410 581/83/409
f 580/110/408 582/100/409 581/83/409
f 578/96/407 580/110/408 579/81/408
f 578/96/407 577/77/407 575/74/406
f 574/111/405 576/94/406 575/74/406
f 574/112/405 573/87/405 571/69/459
f 570/113/461 572/91/460 571/69/459
f 568/106/463 567/67/530 565/64/464
f 566/108/465 565/64/464 563/66/400
f 579/81/466 581/83/445 561/83/445
f 531/108/443 566/108/529 564/104/449
f 539/100/441 582/100/441 580/110/467
f 577/77/468 579/81/466 560/81/466
f 538/110/467 580/110/467 578/96/469
f 558/74/470 575/74/470 577/77/468
f 554/67/418 708/67/419 706/98/471
f 578/96/469 576/94/473 536/94/473
f 573/76/474 575/74/470 558/74/470
f 570/113/461 569/114/462 555/71/475
f 576/94/473 574/111/456 535/111/456
f 571/69/477 573/87/474 557/87/474
f 585/93/478 587/116/479 588/115/479
f 589/105/480 590/117/480 588/115/479
f 591/118/481 592/119/481 590/117/480
f 593/120/482 594/156/482 592/119/481
f 593/120/482 595/122/484 596/121/483
f 595/122/484 597/124/485 598/123/485
f 586/185/486 588/190/486 590/127/486
f 590/127/486 592/193/486 594/126/486
f 594/126/486 596/192/486 598/125/486
f 598/125/486 600/191/486 586/185/486
f 586/185/486 590/127/486 594/126/486
f 599/128/487 600/129/487 598/123/485
f 585/92/478 586/194/478 600/129/487
s 0
f 603/122/166 604/118/166 236/35/166
f 601/133/236 602/134/236 604/118/236
f 233/121/185 234/119/185 602/134/185
f 233/135/72 601/133/72 603/122/72
f 602/134/7 234/195/7 236/116/7
s 1
f 609/119/239 611/134/239 607/134/238
f 611/134/236 615/134/236 616/118/236
f 612/118/241 610/35/241 606/35/240
f 607/134/236 611/134/236 612/118/236
f 610/35/237 609/130/237 605/130/237
f 615/134/236 619/134/236 620/118/236
f 614/35/237 613/130/237 609/130/237
f 613/119/185 615/134/185 611/134/239
f 616/118/166 614/35/166 610/35/241
f 621/119/177 623/134/177 619/134/242
f 618/35/237 617/130/237 613/130/237
f 617/119/242 619/134/242 615/134/185
f 620/118/243 618/35/243 614/35/166
f 627/134/236 628/118/236 624/118/236
f 624/118/159 622/35/159 618/35/243
f 623/134/236 624/118/236 620/118/236
f 618/35/237 622/35/237 621/130/237
f 630/35/237 629/130/237 625/130/237
f 622/35/237 626/35/237 625/130/237
f 625/119/244 627/134/244 623/134/177
f 628/118/245 626/35/245 622/35/159
f 631/134/185 629/195/185 630/116/185
f 629/119/246 631/134/246 627/134/244
f 632/118/247 630/35/247 626/35/245
f 627/134/236 631/134/236 632/118/236
s 0
f 635/122/248 636/118/248 272/35/248
f 633/133/236 634/134/236 636/118/236
f 269/121/249 270/119/249 634/134/249
f 269/135/177 633/133/177 635/122/177
f 634/134/159 270/195/159 272/116/159
f 647/131/7 651/35/7 649/130/7
f 648/133/531 647/134/488 645/118/532
f 650/133/490 646/121/490 645/119/490
f 642/118/261 643/122/261 644/136/261
f 638/134/262 639/133/262 640/138/262
f 643/140/236 642/196/236 637/139/236
f 639/141/166 638/197/166 277/122/166
f 639/142/72 278/131/72 280/122/72
f 280/122/72 644/199/72 643/143/72
f 643/143/72 640/198/72 639/142/72
f 280/133/185 279/134/185 641/137/185
f 652/135/491 651/133/491 647/122/491
f 657/118/492 658/145/492 659/144/492
f 653/134/493 654/146/493 655/153/493
f 662/147/236 661/149/236 657/148/236
f 359/150/159 360/152/159 653/151/159
f 650/134/533 649/195/496 651/116/534
f 654/146/236 661/149/236 662/147/236
f 361/154/248 658/145/248 657/148/248
f 661/149/248 654/146/248 653/151/248
f 361/154/248 657/148/248 661/149/248
f 653/151/248 360/152/248 361/154/248
s 1
f 665/116/262 666/115/262 664/155/166
f 667/105/236 668/117/236 666/115/262
f 669/118/261 670/119/261 668/117/236
f 671/120/185 672/156/185 670/119/261
f 673/122/253 674/121/253 672/156/185
f 675/124/237 676/123/237 674/121/253
f 664/185/7 666/190/7 668/127/7
f 668/127/7 670/193/7 672/126/7
f 672/126/7 674/192/7 676/125/7
f 676/125/7 678/191/7 664/185/7
f 664/185/7 668/127/7 672/126/7
f 677/128/254 678/129/254 676/123/237
f 663/92/166 664/194/166 678/129/254
s 0
f 681/122/166 682/118/166 326/35/166
f 679/133/236 680/134/236 682/118/236
s 1
f 357/155/166 701/160/166 699/162/166
f 699/162/166 697/158/166 695/165/166
f 695/165/166 693/157/166 345/188/166
f 345/188/166 357/155/166 699/162/166
s 0
f 323/135/72 679/133/72 681/122/72
f 680/134/7 324/195/7 326/116/7
s 1
f 683/159/497 684/160/497 332/155/72
f 685/161/498 686/162/498 684/160/497
f 687/163/236 688/158/236 686/162/498
f 689/164/499 690/165/499 688/158/236
f 691/166/500 692/157/500 690/165/499
f 343/167/7 344/188/7 692/157/500
f 346/167/7 345/188/7 693/157/500
f 694/166/500 693/157/500 695/165/499
f 696/164/499 695/165/499 697/158/236
f 698/163/236 697/158/236 699/162/498
f 332/155/166 684/160/166 686/162/166
f 686/162/166 688/158/166 690/165/166
f 690/165/166 692/157/166 344/188/166
f 344/188/166 332/155/166 686/162/166
f 700/161/498 699/162/498 701/160/497
f 702/159/497 701/160/497 357/155/72
s 0
f 658/145/177 361/154/177 362/152/177
s 1
f 532/106/501 704/106/535 710/106/502
f 366/107/270 704/106/535 532/106/501
f 547/67/504 707/67/504 703/106/505
f 568/106/503 710/106/502 709/67/418
f 706/98/471 705/98/536 455/98/506
f 455/98/506 705/98/536 707/67/504
f 713/134/236 714/118/236 718/118/236
f 717/134/277 721/134/7 719/119/7
f 711/130/237 715/130/237 716/35/237
f 713/134/278 717/134/277 715/119/277
f 712/35/279 716/35/181 718/118/181
f 722/118/236 726/118/236 725/134/236
f 716/35/181 720/35/72 722/118/72
f 717/134/236 718/118/236 722/118/236
f 715/130/237 719/130/237 720/35/237
f 723/130/237 727/130/237 728/35/237
f 720/35/237 719/130/237 723/130/237
f 721/134/7 725/134/245 723/119/245
f 720/35/72 724/35/244 726/118/244
f 728/116/249 727/195/249 729/134/249
f 725/134/245 729/134/281 727/119/281
f 724/35/244 728/35/282 730/118/282
f 725/134/236 726/118/236 730/118/236
s 0
f 731/168/285 732/134/285 733/133/285
f 735/169/286 736/130/286 737/132/286
f 739/170/283 740/122/283 741/128/283
f 746/131/284 743/35/284 744/171/284
f 733/173/248 732/200/248 739/170/248
f 734/175/236 737/177/236 736/176/236
f 742/189/177 741/170/177 746/180/177
f 746/180/177 745/203/177 738/179/177
f 738/179/177 737/202/177 734/178/177
f 734/178/177 733/201/177 742/189/177
f 742/189/177 746/180/177 738/179/177
f 745/172/249 744/171/249 735/169/249
f 741/183/237 740/204/237 743/182/237
