# Blender 4.3.2
# www.blender.org
mtllib CaboseLVL1Collision.mtl
o Collision
v -1.300000 0.000000 4.050000
v -1.300000 1.300000 4.050000
v -1.300000 0.000000 0.000000
v -1.300000 1.300000 0.000000
v 0.000000 0.000000 4.050000
v 0.000000 1.300000 4.050000
v 0.000000 0.000000 0.000000
v 0.000000 1.300000 0.000000
v -1.350000 1.050000 3.100000
v -1.350000 2.080000 3.100000
v -1.350000 1.050000 0.000000
v -1.350000 2.080000 0.000000
v -1.250000 1.050000 3.100000
v -1.250000 2.080000 3.100000
v -1.250000 1.050000 0.000000
v -1.250000 2.080000 0.000000
v -1.350000 2.080000 3.100000
v -1.350000 2.900000 3.100000
v -1.350000 2.080000 1.800000
v -1.350000 2.900000 1.800000
v -1.250000 2.080000 3.100000
v -1.250000 2.900000 3.100000
v -1.250000 2.080000 1.800000
v -1.250000 2.900000 1.800000
v -1.350000 2.080000 1.200000
v -1.350000 2.900000 1.200000
v -1.350000 2.080000 0.000000
v -1.350000 2.900000 0.000000
v -1.250000 2.080000 1.200000
v -1.250000 2.900000 1.200000
v -1.250000 2.080000 0.000000
v -1.250000 2.900000 0.000000
v -1.350000 2.900000 3.100000
v -1.350000 3.500000 3.100000
v -1.350000 2.900000 0.000000
v -1.350000 3.500000 0.000000
v -1.250000 2.900000 3.100000
v -1.250000 3.500000 3.100000
v -1.250000 2.900000 0.000000
v -1.250000 3.500000 0.000000
v 0.000000 3.750000 3.740000
v 0.000000 3.750000 0.750000
v -0.239799 3.743895 3.740000
v -0.239799 3.743895 0.750000
v -0.478977 3.725596 3.740000
v -0.478977 3.725596 0.750000
v -0.716913 3.695151 3.740000
v -0.716913 3.695151 0.750000
v -0.952993 3.652638 3.740000
v -0.952993 3.652638 0.750000
v -1.186603 3.598168 3.740000
v -1.186603 3.598168 0.750000
v -1.417139 3.531881 3.740000
v -1.417139 3.531881 0.750000
v -1.278817 3.571653 3.740000
v -1.278817 3.571653 0.750000
v -1.417139 3.531881 0.000000
v -1.278817 3.571653 0.000000
v 0.002545 3.650033 0.750000
v 0.002545 3.650033 3.740000
v -0.234710 3.644025 0.750000
v -0.234710 3.644025 3.740000
v -0.468813 3.626114 0.750000
v -0.468813 3.626114 3.740000
v -0.701701 3.596315 0.750000
v -0.701701 3.596315 3.740000
v -0.932771 3.554704 0.750000
v -0.932771 3.554704 3.740000
v -1.161424 3.501390 0.750000
v -1.161424 3.501390 3.740000
v -1.389506 3.435775 0.750000
v -1.389506 3.435775 3.740000
v -1.251184 3.475547 3.740000
v -1.251184 3.475547 0.750000
v -1.389506 3.435775 0.000000
v -1.251184 3.475547 0.000000
v -1.250000 2.900000 3.100000
v -1.250000 3.500000 3.100000
v -1.250000 2.900000 3.000000
v -1.250000 3.500000 3.000000
v -0.350000 2.900000 3.100000
v -0.350000 3.700000 3.100000
v -0.350000 2.900000 3.000000
v -0.350000 3.700000 3.000000
v -1.250000 2.100000 3.100000
v -1.250000 2.900000 3.100000
v -1.250000 2.100000 3.000000
v -1.250000 2.900000 3.000000
v -1.100000 2.100000 3.100000
v -1.100000 2.900000 3.100000
v -1.100000 2.100000 3.000000
v -1.100000 2.900000 3.000000
v -1.250000 1.300000 3.100000
v -1.250000 2.100000 3.100000
v -1.250000 1.300000 3.000000
v -1.250000 2.100000 3.000000
v -0.350000 1.300000 3.100000
v -0.350000 2.100000 3.100000
v -0.350000 1.300000 3.000000
v -0.350000 2.100000 3.000000
v -0.500000 2.100000 3.100000
v -0.500000 2.900000 3.100000
v -0.500000 2.100000 3.000000
v -0.500000 2.900000 3.000000
v -0.350000 2.100000 3.100000
v -0.350000 2.900000 3.100000
v -0.350000 2.100000 3.000000
v -0.350000 2.900000 3.000000
v -0.350000 3.400000 3.100000
v -0.350000 3.700000 3.100000
v -0.350000 3.400000 3.000000
v -0.350000 3.700000 3.000000
v 0.000000 3.400000 3.100000
v 0.000000 3.700000 3.100000
v 0.000000 3.400000 3.000000
v 0.000000 3.700000 3.000000
v -1.250000 3.500000 0.750000
v -1.200000 4.270000 0.750000
v -1.250000 3.500000 0.700000
v -1.200000 4.270000 0.700000
v -1.100000 3.500000 0.750000
v -1.100000 4.270000 0.750000
v -1.100000 3.500000 0.700000
v -1.100000 4.270000 0.700000
v -0.750000 3.500000 0.750000
v -0.750000 4.270000 0.750000
v -0.750000 3.500000 0.700000
v -0.750000 4.270000 0.700000
v 0.000000 3.500000 0.750000
v 0.000000 4.270000 0.750000
v 0.000000 3.500000 0.700000
v 0.000000 4.270000 0.700000
v -1.100000 3.500000 0.750000
v -1.100000 3.800000 0.750000
v -1.100000 3.500000 0.700000
v -1.100000 3.800000 0.700000
v -0.750000 3.500000 0.750000
v -0.750000 3.800000 0.750000
v -0.750000 3.500000 0.700000
v -0.750000 3.800000 0.700000
v -1.200000 4.270000 0.750000
v -1.200000 4.340000 0.750000
v -1.200000 4.270000 0.700000
v -1.200000 4.340000 0.700000
v 0.000000 4.270000 0.750000
v 0.000000 4.500000 0.750000
v 0.000000 4.270000 0.700000
v 0.000000 4.500000 0.700000
v -1.300000 3.500000 0.750000
v -1.200000 4.300000 0.750000
v -1.300000 3.500000 0.650000
v -1.200000 4.300000 0.650000
v -1.250000 3.500000 0.750000
v -1.150000 4.300000 0.750000
v -1.250000 3.500000 0.650000
v -1.150000 4.300000 0.650000
v -1.300000 3.500000 0.350000
v -1.200000 4.300000 0.350000
v -1.300000 3.500000 0.000000
v -1.200000 4.300000 0.000000
v -1.250000 3.500000 0.350000
v -1.150000 4.300000 0.350000
v -1.250000 3.500000 0.000000
v -1.150000 4.300000 0.000000
v -1.300000 3.500000 0.650000
v -1.160000 4.220000 0.350000
v -1.300000 3.500000 0.350000
v -1.160000 4.220000 0.650000
v -1.250000 3.500000 0.650000
v -1.210000 4.220000 0.350000
v -1.250000 3.500000 0.350000
v -1.210000 4.220000 0.650000
v -1.270000 3.740000 0.650000
v -1.270000 3.740000 0.350000
v -1.220000 3.740000 0.350000
v -1.220000 3.740000 0.650000
v -1.200000 4.300000 0.650000
v -1.200000 4.300000 0.350000
v -1.150000 4.300000 0.350000
v -1.150000 4.300000 0.650000
v -1.250000 1.300000 3.000000
v -1.250000 2.050000 3.000000
v -1.250000 1.300000 0.500000
v -1.250000 2.050000 0.500000
v -0.650000 1.300000 3.000000
v -0.650000 2.050000 3.000000
v -0.650000 1.300000 0.500000
v -0.650000 2.050000 0.500000
v -1.250000 1.300000 0.500000
v -1.250000 2.600000 0.500000
v -1.250000 1.300000 0.000000
v -1.250000 2.600000 0.000000
v -0.600000 1.300000 0.500000
v -0.600000 2.600000 0.500000
v -0.600000 1.300000 0.000000
v -0.600000 2.600000 0.000000
v -0.630000 2.550000 0.750000
v -0.630000 3.300000 0.750000
v -0.630000 2.550000 0.350000
v -0.630000 3.300000 0.350000
v -0.600000 2.550000 0.750000
v -0.600000 3.300000 0.750000
v -0.600000 2.550000 0.350000
v -0.600000 3.300000 0.350000
v -1.250000 3.100000 0.750000
v -1.250000 3.500000 0.750000
v -1.250000 3.100000 0.700000
v -1.250000 3.500000 0.700000
v -0.600000 3.100000 0.750000
v -0.600000 3.500000 0.750000
v -0.600000 3.100000 0.700000
v -0.600000 3.500000 0.700000
v -0.630000 2.550000 0.750000
v -0.630000 3.100000 0.750000
v -0.630000 2.550000 0.400000
v -0.630000 3.100000 0.400000
v -1.250000 2.550000 0.750000
v -1.250000 3.100000 0.750000
v -1.250000 2.550000 0.400000
v -1.250000 3.100000 0.400000
v 0.000000 4.450000 0.800000
v 0.000000 4.500000 0.800000
v 0.000000 4.500000 0.000000
v 0.000000 4.450000 0.000000
v -0.237255 4.443960 0.800000
v -0.239799 4.493896 0.800000
v -0.239799 4.493896 0.000000
v -0.237255 4.443960 0.000000
v -0.473895 4.425856 0.800000
v -0.478977 4.475597 0.800000
v -0.478977 4.475597 0.000000
v -0.473895 4.425856 0.000000
v -0.709307 4.395733 0.800000
v -0.716913 4.445151 0.800000
v -0.716913 4.445151 0.000000
v -0.709307 4.395733 0.000000
v -0.942882 4.353672 0.800000
v -0.952993 4.402638 0.800000
v -0.952993 4.402638 0.000000
v -0.942882 4.353672 0.000000
v -1.174014 4.299779 0.800000
v -1.186603 4.348168 0.800000
v -1.186603 4.348168 0.000000
v -1.174014 4.299779 0.000000
v -1.303374 4.263577 0.800000
v -1.316575 4.311791 0.800000
v -1.316575 4.311791 0.000000
v -1.303374 4.263577 0.000000
v -0.200000 3.750000 4.000000
v -0.200000 3.780000 4.000000
v -0.200000 3.750000 0.750000
v -0.200000 3.780000 0.750000
v 0.000000 3.750000 4.000000
v 0.000000 3.780000 4.000000
v 0.000000 3.750000 0.750000
v 0.000000 3.780000 0.750000
v 1.300000 0.000000 4.050000
v 1.300000 1.300000 4.050000
v 1.300000 0.000000 0.000000
v 1.300000 1.300000 0.000000
v 1.350000 1.050000 3.100000
v 1.350000 2.080000 3.100000
v 1.350000 1.050000 0.000000
v 1.350000 2.080000 0.000000
v 1.250000 1.050000 3.100000
v 1.250000 2.080000 3.100000
v 1.250000 1.050000 0.000000
v 1.250000 2.080000 0.000000
v 1.350000 2.080000 3.100000
v 1.350000 2.900000 3.100000
v 1.350000 2.080000 1.800000
v 1.350000 2.900000 1.800000
v 1.250000 2.080000 3.100000
v 1.250000 2.900000 3.100000
v 1.250000 2.080000 1.800000
v 1.250000 2.900000 1.800000
v 1.350000 2.080000 1.200000
v 1.350000 2.900000 1.200000
v 1.350000 2.080000 0.000000
v 1.350000 2.900000 0.000000
v 1.250000 2.080000 1.200000
v 1.250000 2.900000 1.200000
v 1.250000 2.080000 0.000000
v 1.250000 2.900000 0.000000
v 1.350000 2.900000 3.100000
v 1.350000 3.500000 3.100000
v 1.350000 2.900000 0.000000
v 1.350000 3.500000 0.000000
v 1.250000 2.900000 3.100000
v 1.250000 3.500000 3.100000
v 1.250000 2.900000 0.000000
v 1.250000 3.500000 0.000000
v 0.239799 3.743895 3.740000
v 0.239799 3.743895 0.750000
v 0.478977 3.725596 3.740000
v 0.478977 3.725596 0.750000
v 0.716913 3.695151 3.740000
v 0.716913 3.695151 0.750000
v 0.952993 3.652638 3.740000
v 0.952993 3.652638 0.750000
v 1.186603 3.598168 3.740000
v 1.186603 3.598168 0.750000
v 1.417139 3.531881 3.740000
v 1.417139 3.531881 0.750000
v 1.278817 3.571653 3.740000
v 1.278817 3.571653 0.750000
v 1.417139 3.531881 0.000000
v 1.278817 3.571653 0.000000
v -0.002545 3.650033 0.750000
v -0.002545 3.650033 3.740000
v 0.234710 3.644025 0.750000
v 0.234710 3.644025 3.740000
v 0.468813 3.626114 0.750000
v 0.468813 3.626114 3.740000
v 0.701701 3.596315 0.750000
v 0.701701 3.596315 3.740000
v 0.932771 3.554704 0.750000
v 0.932771 3.554704 3.740000
v 1.161424 3.501390 0.750000
v 1.161424 3.501390 3.740000
v 1.389506 3.435775 0.750000
v 1.389506 3.435775 3.740000
v 1.251184 3.475547 3.740000
v 1.251184 3.475547 0.750000
v 1.389506 3.435775 0.000000
v 1.251184 3.475547 0.000000
v 1.250000 2.900000 3.100000
v 1.250000 3.500000 3.100000
v 1.250000 2.900000 3.000000
v 1.250000 3.500000 3.000000
v 0.350000 2.900000 3.100000
v 0.350000 3.700000 3.100000
v 0.350000 2.900000 3.000000
v 0.350000 3.700000 3.000000
v 1.250000 2.100000 3.100000
v 1.250000 2.900000 3.100000
v 1.250000 2.100000 3.000000
v 1.250000 2.900000 3.000000
v 1.100000 2.100000 3.100000
v 1.100000 2.900000 3.100000
v 1.100000 2.100000 3.000000
v 1.100000 2.900000 3.000000
v 1.250000 1.300000 3.100000
v 1.250000 2.100000 3.100000
v 1.250000 1.300000 3.000000
v 1.250000 2.100000 3.000000
v 0.350000 1.300000 3.100000
v 0.350000 2.100000 3.100000
v 0.350000 1.300000 3.000000
v 0.350000 2.100000 3.000000
v 0.500000 2.100000 3.100000
v 0.500000 2.900000 3.100000
v 0.500000 2.100000 3.000000
v 0.500000 2.900000 3.000000
v 0.350000 2.100000 3.100000
v 0.350000 2.900000 3.100000
v 0.350000 2.100000 3.000000
v 0.350000 2.900000 3.000000
v 0.350000 3.400000 3.100000
v 0.350000 3.700000 3.100000
v 0.350000 3.400000 3.000000
v 0.350000 3.700000 3.000000
v 1.250000 3.500000 0.750000
v 1.200000 4.270000 0.750000
v 1.250000 3.500000 0.700000
v 1.200000 4.270000 0.700000
v 1.100000 3.500000 0.750000
v 1.100000 4.270000 0.750000
v 1.100000 3.500000 0.700000
v 1.100000 4.270000 0.700000
v 0.750000 3.500000 0.750000
v 0.750000 4.270000 0.750000
v 0.750000 3.500000 0.700000
v 0.750000 4.270000 0.700000
v 1.100000 3.500000 0.750000
v 1.100000 3.800000 0.750000
v 1.100000 3.500000 0.700000
v 1.100000 3.800000 0.700000
v 0.750000 3.500000 0.750000
v 0.750000 3.800000 0.750000
v 0.750000 3.500000 0.700000
v 0.750000 3.800000 0.700000
v 1.200000 4.270000 0.750000
v 1.200000 4.340000 0.750000
v 1.200000 4.270000 0.700000
v 1.200000 4.340000 0.700000
v 1.300000 3.500000 0.750000
v 1.200000 4.300000 0.750000
v 1.300000 3.500000 0.650000
v 1.200000 4.300000 0.650000
v 1.250000 3.500000 0.750000
v 1.150000 4.300000 0.750000
v 1.250000 3.500000 0.650000
v 1.150000 4.300000 0.650000
v 1.300000 3.500000 0.350000
v 1.200000 4.300000 0.350000
v 1.300000 3.500000 0.000000
v 1.200000 4.300000 0.000000
v 1.250000 3.500000 0.350000
v 1.150000 4.300000 0.350000
v 1.250000 3.500000 0.000000
v 1.150000 4.300000 0.000000
v 1.300000 3.500000 0.650000
v 1.160000 4.220000 0.350000
v 1.300000 3.500000 0.350000
v 1.160000 4.220000 0.650000
v 1.250000 3.500000 0.650000
v 1.210000 4.220000 0.350000
v 1.250000 3.500000 0.350000
v 1.210000 4.220000 0.650000
v 1.270000 3.740000 0.650000
v 1.270000 3.740000 0.350000
v 1.220000 3.740000 0.350000
v 1.220000 3.740000 0.650000
v 1.200000 4.300000 0.650000
v 1.200000 4.300000 0.350000
v 1.150000 4.300000 0.350000
v 1.150000 4.300000 0.650000
v 1.250000 1.300000 3.000000
v 1.250000 2.050000 3.000000
v 1.250000 1.300000 0.500000
v 1.250000 2.050000 0.500000
v 0.650000 1.300000 3.000000
v 0.650000 2.050000 3.000000
v 0.650000 1.300000 0.500000
v 0.650000 2.050000 0.500000
v 1.250000 1.300000 0.500000
v 1.250000 2.600000 0.500000
v 1.250000 1.300000 0.000000
v 1.250000 2.600000 0.000000
v 0.600000 1.300000 0.500000
v 0.600000 2.600000 0.500000
v 0.600000 1.300000 0.000000
v 0.600000 2.600000 0.000000
v 0.630000 2.550000 0.750000
v 0.630000 3.300000 0.750000
v 0.630000 2.550000 0.350000
v 0.630000 3.300000 0.350000
v 0.600000 2.550000 0.750000
v 0.600000 3.300000 0.750000
v 0.600000 2.550000 0.350000
v 0.600000 3.300000 0.350000
v 1.250000 3.100000 0.750000
v 1.250000 3.500000 0.750000
v 1.250000 3.100000 0.700000
v 1.250000 3.500000 0.700000
v 0.600000 3.100000 0.750000
v 0.600000 3.500000 0.750000
v 0.600000 3.100000 0.700000
v 0.600000 3.500000 0.700000
v 0.630000 2.550000 0.750000
v 0.630000 3.100000 0.750000
v 0.630000 2.550000 0.400000
v 0.630000 3.100000 0.400000
v 1.250000 2.550000 0.750000
v 1.250000 3.100000 0.750000
v 1.250000 2.550000 0.400000
v 1.250000 3.100000 0.400000
v 0.237255 4.443960 0.800000
v 0.239799 4.493896 0.800000
v 0.239799 4.493896 0.000000
v 0.237255 4.443960 0.000000
v 0.473895 4.425856 0.800000
v 0.478977 4.475597 0.800000
v 0.478977 4.475597 0.000000
v 0.473895 4.425856 0.000000
v 0.709307 4.395733 0.800000
v 0.716913 4.445151 0.800000
v 0.716913 4.445151 0.000000
v 0.709307 4.395733 0.000000
v 0.942882 4.353672 0.800000
v 0.952993 4.402638 0.800000
v 0.952993 4.402638 0.000000
v 0.942882 4.353672 0.000000
v 1.174014 4.299779 0.800000
v 1.186603 4.348168 0.800000
v 1.186603 4.348168 0.000000
v 1.174014 4.299779 0.000000
v 1.303374 4.263577 0.800000
v 1.316575 4.311791 0.800000
v 1.316575 4.311791 0.000000
v 1.303374 4.263577 0.000000
v 0.200000 3.750000 4.000000
v 0.200000 3.780000 4.000000
v 0.200000 3.750000 0.750000
v 0.200000 3.780000 0.750000
v -1.300000 0.000000 -4.050000
v -1.300000 1.300000 -4.050000
v 0.000000 0.000000 -4.050000
v 0.000000 1.300000 -4.050000
v -1.350000 1.050000 -3.100000
v -1.350000 2.080000 -3.100000
v -1.250000 1.050000 -3.100000
v -1.250000 2.080000 -3.100000
v -1.350000 2.080000 -3.100000
v -1.350000 2.900000 -3.100000
v -1.350000 2.080000 -1.800000
v -1.350000 2.900000 -1.800000
v -1.250000 2.080000 -3.100000
v -1.250000 2.900000 -3.100000
v -1.250000 2.080000 -1.800000
v -1.250000 2.900000 -1.800000
v -1.350000 2.080000 -1.200000
v -1.350000 2.900000 -1.200000
v -1.250000 2.080000 -1.200000
v -1.250000 2.900000 -1.200000
v -1.350000 2.900000 -3.100000
v -1.350000 3.500000 -3.100000
v -1.250000 2.900000 -3.100000
v -1.250000 3.500000 -3.100000
v 0.000000 3.750000 -3.740000
v 0.000000 3.750000 -0.750000
v -0.239799 3.743895 -3.740000
v -0.239799 3.743895 -0.750000
v -0.478977 3.725596 -3.740000
v -0.478977 3.725596 -0.750000
v -0.716913 3.695151 -3.740000
v -0.716913 3.695151 -0.750000
v -0.952993 3.652638 -3.740000
v -0.952993 3.652638 -0.750000
v -1.186603 3.598168 -3.740000
v -1.186603 3.598168 -0.750000
v -1.417139 3.531881 -3.740000
v -1.417139 3.531881 -0.750000
v -1.278817 3.571653 -3.740000
v -1.278817 3.571653 -0.750000
v 0.002545 3.650033 -0.750000
v 0.002545 3.650033 -3.740000
v -0.234710 3.644025 -0.750000
v -0.234710 3.644025 -3.740000
v -0.468813 3.626114 -0.750000
v -0.468813 3.626114 -3.740000
v -0.701701 3.596315 -0.750000
v -0.701701 3.596315 -3.740000
v -0.932771 3.554704 -0.750000
v -0.932771 3.554704 -3.740000
v -1.161424 3.501390 -0.750000
v -1.161424 3.501390 -3.740000
v -1.389506 3.435775 -0.750000
v -1.389506 3.435775 -3.740000
v -1.251184 3.475547 -3.740000
v -1.251184 3.475547 -0.750000
v -1.250000 2.900000 -3.100000
v -1.250000 3.500000 -3.100000
v -1.250000 2.900000 -3.000000
v -1.250000 3.500000 -3.000000
v -0.350000 2.900000 -3.100000
v -0.350000 3.700000 -3.100000
v -0.350000 2.900000 -3.000000
v -0.350000 3.700000 -3.000000
v -1.250000 2.100000 -3.100000
v -1.250000 2.900000 -3.100000
v -1.250000 2.100000 -3.000000
v -1.250000 2.900000 -3.000000
v -1.100000 2.100000 -3.100000
v -1.100000 2.900000 -3.100000
v -1.100000 2.100000 -3.000000
v -1.100000 2.900000 -3.000000
v -1.250000 1.300000 -3.100000
v -1.250000 2.100000 -3.100000
v -1.250000 1.300000 -3.000000
v -1.250000 2.100000 -3.000000
v -0.350000 1.300000 -3.100000
v -0.350000 2.100000 -3.100000
v -0.350000 1.300000 -3.000000
v -0.350000 2.100000 -3.000000
v -0.500000 2.100000 -3.100000
v -0.500000 2.900000 -3.100000
v -0.500000 2.100000 -3.000000
v -0.500000 2.900000 -3.000000
v -0.350000 2.100000 -3.100000
v -0.350000 2.900000 -3.100000
v -0.350000 2.100000 -3.000000
v -0.350000 2.900000 -3.000000
v -0.350000 3.400000 -3.100000
v -0.350000 3.700000 -3.100000
v -0.350000 3.400000 -3.000000
v -0.350000 3.700000 -3.000000
v 0.000000 3.400000 -3.100000
v 0.000000 3.700000 -3.100000
v 0.000000 3.400000 -3.000000
v 0.000000 3.700000 -3.000000
v -1.250000 3.500000 -0.750000
v -1.200000 4.270000 -0.750000
v -1.250000 3.500000 -0.700000
v -1.200000 4.270000 -0.700000
v -1.100000 3.500000 -0.750000
v -1.100000 4.270000 -0.750000
v -1.100000 3.500000 -0.700000
v -1.100000 4.270000 -0.700000
v -0.750000 3.500000 -0.750000
v -0.750000 4.270000 -0.750000
v -0.750000 3.500000 -0.700000
v -0.750000 4.270000 -0.700000
v 0.000000 3.500000 -0.750000
v 0.000000 4.270000 -0.750000
v 0.000000 3.500000 -0.700000
v 0.000000 4.270000 -0.700000
v -1.100000 3.500000 -0.750000
v -1.100000 3.800000 -0.750000
v -1.100000 3.500000 -0.700000
v -1.100000 3.800000 -0.700000
v -0.750000 3.500000 -0.750000
v -0.750000 3.800000 -0.750000
v -0.750000 3.500000 -0.700000
v -0.750000 3.800000 -0.700000
v -1.200000 4.270000 -0.750000
v -1.200000 4.340000 -0.750000
v -1.200000 4.270000 -0.700000
v -1.200000 4.340000 -0.700000
v 0.000000 4.270000 -0.750000
v 0.000000 4.500000 -0.750000
v 0.000000 4.270000 -0.700000
v 0.000000 4.500000 -0.700000
v -1.300000 3.500000 -0.750000
v -1.200000 4.300000 -0.750000
v -1.300000 3.500000 -0.650000
v -1.200000 4.300000 -0.650000
v -1.250000 3.500000 -0.750000
v -1.150000 4.300000 -0.750000
v -1.250000 3.500000 -0.650000
v -1.150000 4.300000 -0.650000
v -1.300000 3.500000 -0.350000
v -1.200000 4.300000 -0.350000
v -1.250000 3.500000 -0.350000
v -1.150000 4.300000 -0.350000
v -1.300000 3.500000 -0.650000
v -1.160000 4.220000 -0.350000
v -1.300000 3.500000 -0.350000
v -1.160000 4.220000 -0.650000
v -1.250000 3.500000 -0.650000
v -1.210000 4.220000 -0.350000
v -1.250000 3.500000 -0.350000
v -1.210000 4.220000 -0.650000
v -1.270000 3.740000 -0.650000
v -1.270000 3.740000 -0.350000
v -1.220000 3.740000 -0.350000
v -1.220000 3.740000 -0.650000
v -1.200000 4.300000 -0.650000
v -1.200000 4.300000 -0.350000
v -1.150000 4.300000 -0.350000
v -1.150000 4.300000 -0.650000
v -1.250000 1.300000 -3.000000
v -1.250000 2.050000 -3.000000
v -1.250000 1.300000 -0.500000
v -1.250000 2.050000 -0.500000
v -0.650000 1.300000 -3.000000
v -0.650000 2.050000 -3.000000
v -0.650000 1.300000 -0.500000
v -0.650000 2.050000 -0.500000
v -1.250000 1.300000 -0.500000
v -1.250000 2.600000 -0.500000
v -0.600000 1.300000 -0.500000
v -0.600000 2.600000 -0.500000
v -0.630000 2.550000 -0.750000
v -0.630000 3.300000 -0.750000
v -0.630000 2.550000 -0.350000
v -0.630000 3.300000 -0.350000
v -0.600000 2.550000 -0.750000
v -0.600000 3.300000 -0.750000
v -0.600000 2.550000 -0.350000
v -0.600000 3.300000 -0.350000
v -1.250000 3.100000 -0.750000
v -1.250000 3.500000 -0.750000
v -1.250000 3.100000 -0.700000
v -1.250000 3.500000 -0.700000
v -0.600000 3.100000 -0.750000
v -0.600000 3.500000 -0.750000
v -0.600000 3.100000 -0.700000
v -0.600000 3.500000 -0.700000
v -0.630000 2.550000 -0.750000
v -0.630000 3.100000 -0.750000
v -0.630000 2.550000 -0.400000
v -0.630000 3.100000 -0.400000
v -1.250000 2.550000 -0.750000
v -1.250000 3.100000 -0.750000
v -1.250000 2.550000 -0.400000
v -1.250000 3.100000 -0.400000
v 0.000000 4.450000 -0.800000
v 0.000000 4.500000 -0.800000
v -0.237255 4.443960 -0.800000
v -0.239799 4.493896 -0.800000
v -0.473895 4.425856 -0.800000
v -0.478977 4.475597 -0.800000
v -0.709307 4.395733 -0.800000
v -0.716913 4.445151 -0.800000
v -0.942882 4.353672 -0.800000
v -0.952993 4.402638 -0.800000
v -1.174014 4.299779 -0.800000
v -1.186603 4.348168 -0.800000
v -1.303374 4.263577 -0.800000
v -1.316575 4.311791 -0.800000
v -0.200000 3.750000 -4.000000
v -0.200000 3.780000 -4.000000
v -0.200000 3.750000 -0.750000
v -0.200000 3.780000 -0.750000
v 0.000000 3.750000 -4.000000
v 0.000000 3.780000 -4.000000
v 0.000000 3.750000 -0.750000
v 0.000000 3.780000 -0.750000
v 1.300000 0.000000 -4.050000
v 1.300000 1.300000 -4.050000
v 1.350000 1.050000 -3.100000
v 1.350000 2.080000 -3.100000
v 1.250000 1.050000 -3.100000
v 1.250000 2.080000 -3.100000
v 1.350000 2.080000 -3.100000
v 1.350000 2.900000 -3.100000
v 1.350000 2.080000 -1.800000
v 1.350000 2.900000 -1.800000
v 1.250000 2.080000 -3.100000
v 1.250000 2.900000 -3.100000
v 1.250000 2.080000 -1.800000
v 1.250000 2.900000 -1.800000
v 1.350000 2.080000 -1.200000
v 1.350000 2.900000 -1.200000
v 1.250000 2.080000 -1.200000
v 1.250000 2.900000 -1.200000
v 1.350000 2.900000 -3.100000
v 1.350000 3.500000 -3.100000
v 1.250000 2.900000 -3.100000
v 1.250000 3.500000 -3.100000
v 0.239799 3.743895 -3.740000
v 0.239799 3.743895 -0.750000
v 0.478977 3.725596 -3.740000
v 0.478977 3.725596 -0.750000
v 0.716913 3.695151 -3.740000
v 0.716913 3.695151 -0.750000
v 0.952993 3.652638 -3.740000
v 0.952993 3.652638 -0.750000
v 1.186603 3.598168 -3.740000
v 1.186603 3.598168 -0.750000
v 1.417139 3.531881 -3.740000
v 1.417139 3.531881 -0.750000
v 1.278817 3.571653 -3.740000
v 1.278817 3.571653 -0.750000
v -0.002545 3.650033 -0.750000
v -0.002545 3.650033 -3.740000
v 0.234710 3.644025 -0.750000
v 0.234710 3.644025 -3.740000
v 0.468813 3.626114 -0.750000
v 0.468813 3.626114 -3.740000
v 0.701701 3.596315 -0.750000
v 0.701701 3.596315 -3.740000
v 0.932771 3.554704 -0.750000
v 0.932771 3.554704 -3.740000
v 1.161424 3.501390 -0.750000
v 1.161424 3.501390 -3.740000
v 1.389506 3.435775 -0.750000
v 1.389506 3.435775 -3.740000
v 1.251184 3.475547 -3.740000
v 1.251184 3.475547 -0.750000
v 1.250000 2.900000 -3.100000
v 1.250000 3.500000 -3.100000
v 1.250000 2.900000 -3.000000
v 1.250000 3.500000 -3.000000
v 0.350000 2.900000 -3.100000
v 0.350000 3.700000 -3.100000
v 0.350000 2.900000 -3.000000
v 0.350000 3.700000 -3.000000
v 1.250000 2.100000 -3.100000
v 1.250000 2.900000 -3.100000
v 1.250000 2.100000 -3.000000
v 1.250000 2.900000 -3.000000
v 1.100000 2.100000 -3.100000
v 1.100000 2.900000 -3.100000
v 1.100000 2.100000 -3.000000
v 1.100000 2.900000 -3.000000
v 1.250000 1.300000 -3.100000
v 1.250000 2.100000 -3.100000
v 1.250000 1.300000 -3.000000
v 1.250000 2.100000 -3.000000
v 0.350000 1.300000 -3.100000
v 0.350000 2.100000 -3.100000
v 0.350000 1.300000 -3.000000
v 0.350000 2.100000 -3.000000
v 0.500000 2.100000 -3.100000
v 0.500000 2.900000 -3.100000
v 0.500000 2.100000 -3.000000
v 0.500000 2.900000 -3.000000
v 0.350000 2.100000 -3.100000
v 0.350000 2.900000 -3.100000
v 0.350000 2.100000 -3.000000
v 0.350000 2.900000 -3.000000
v 0.350000 3.400000 -3.100000
v 0.350000 3.700000 -3.100000
v 0.350000 3.400000 -3.000000
v 0.350000 3.700000 -3.000000
v 1.250000 3.500000 -0.750000
v 1.200000 4.270000 -0.750000
v 1.250000 3.500000 -0.700000
v 1.200000 4.270000 -0.700000
v 1.100000 3.500000 -0.750000
v 1.100000 4.270000 -0.750000
v 1.100000 3.500000 -0.700000
v 1.100000 4.270000 -0.700000
v 0.750000 3.500000 -0.750000
v 0.750000 4.270000 -0.750000
v 0.750000 3.500000 -0.700000
v 0.750000 4.270000 -0.700000
v 1.100000 3.500000 -0.750000
v 1.100000 3.800000 -0.750000
v 1.100000 3.500000 -0.700000
v 1.100000 3.800000 -0.700000
v 0.750000 3.500000 -0.750000
v 0.750000 3.800000 -0.750000
v 0.750000 3.500000 -0.700000
v 0.750000 3.800000 -0.700000
v 1.200000 4.270000 -0.750000
v 1.200000 4.340000 -0.750000
v 1.200000 4.270000 -0.700000
v 1.200000 4.340000 -0.700000
v 1.300000 3.500000 -0.750000
v 1.200000 4.300000 -0.750000
v 1.300000 3.500000 -0.650000
v 1.200000 4.300000 -0.650000
v 1.250000 3.500000 -0.750000
v 1.150000 4.300000 -0.750000
v 1.250000 3.500000 -0.650000
v 1.150000 4.300000 -0.650000
v 1.300000 3.500000 -0.350000
v 1.200000 4.300000 -0.350000
v 1.250000 3.500000 -0.350000
v 1.150000 4.300000 -0.350000
v 1.300000 3.500000 -0.650000
v 1.160000 4.220000 -0.350000
v 1.300000 3.500000 -0.350000
v 1.160000 4.220000 -0.650000
v 1.250000 3.500000 -0.650000
v 1.210000 4.220000 -0.350000
v 1.250000 3.500000 -0.350000
v 1.210000 4.220000 -0.650000
v 1.270000 3.740000 -0.650000
v 1.270000 3.740000 -0.350000
v 1.220000 3.740000 -0.350000
v 1.220000 3.740000 -0.650000
v 1.200000 4.300000 -0.650000
v 1.200000 4.300000 -0.350000
v 1.150000 4.300000 -0.350000
v 1.150000 4.300000 -0.650000
v 1.250000 1.300000 -3.000000
v 1.250000 2.050000 -3.000000
v 1.250000 1.300000 -0.500000
v 1.250000 2.050000 -0.500000
v 0.650000 1.300000 -3.000000
v 0.650000 2.050000 -3.000000
v 0.650000 1.300000 -0.500000
v 0.650000 2.050000 -0.500000
v 1.250000 1.300000 -0.500000
v 1.250000 2.600000 -0.500000
v 0.600000 1.300000 -0.500000
v 0.600000 2.600000 -0.500000
v 0.630000 2.550000 -0.750000
v 0.630000 3.300000 -0.750000
v 0.630000 2.550000 -0.350000
v 0.630000 3.300000 -0.350000
v 0.600000 2.550000 -0.750000
v 0.600000 3.300000 -0.750000
v 0.600000 2.550000 -0.350000
v 0.600000 3.300000 -0.350000
v 1.250000 3.100000 -0.750000
v 1.250000 3.500000 -0.750000
v 1.250000 3.100000 -0.700000
v 1.250000 3.500000 -0.700000
v 0.600000 3.100000 -0.750000
v 0.600000 3.500000 -0.750000
v 0.600000 3.100000 -0.700000
v 0.600000 3.500000 -0.700000
v 0.630000 2.550000 -0.750000
v 0.630000 3.100000 -0.750000
v 0.630000 2.550000 -0.400000
v 0.630000 3.100000 -0.400000
v 1.250000 2.550000 -0.750000
v 1.250000 3.100000 -0.750000
v 1.250000 2.550000 -0.400000
v 1.250000 3.100000 -0.400000
v 0.237255 4.443960 -0.800000
v 0.239799 4.493896 -0.800000
v 0.473895 4.425856 -0.800000
v 0.478977 4.475597 -0.800000
v 0.709307 4.395733 -0.800000
v 0.716913 4.445151 -0.800000
v 0.942882 4.353672 -0.800000
v 0.952993 4.402638 -0.800000
v 1.174014 4.299779 -0.800000
v 1.186603 4.348168 -0.800000
v 1.303374 4.263577 -0.800000
v 1.316575 4.311791 -0.800000
v 0.200000 3.750000 -4.000000
v 0.200000 3.780000 -4.000000
v 0.200000 3.750000 -0.750000
v 0.200000 3.780000 -0.750000
vn -1.0000 -0.0000 -0.0000
vn -0.0000 -0.0000 -1.0000
vn 1.0000 -0.0000 -0.0000
vn -0.0000 -0.0000 1.0000
vn -0.0000 -1.0000 -0.0000
vn -0.0000 1.0000 -0.0000
vn -0.0254 0.9997 -0.0000
vn -0.0763 0.9971 -0.0000
vn -0.1269 0.9919 -0.0000
vn -0.1772 0.9842 -0.0000
vn -0.2271 0.9739 -0.0000
vn -0.2763 0.9611 -0.0000
vn 0.0253 -0.9997 -0.0000
vn 0.0763 -0.9971 -0.0000
vn 0.1269 -0.9919 -0.0000
vn 0.1772 -0.9842 -0.0000
vn 0.2271 -0.9739 -0.0000
vn 0.2763 -0.9611 -0.0000
vn 0.2767 -0.9610 -0.0000
vn 0.9611 0.2763 -0.0000
vn 0.9997 0.0255 -0.0000
vn -0.9611 -0.2763 -0.0000
vn -0.2169 0.9762 -0.0000
vn -0.9979 0.0648 -0.0000
vn -0.1322 0.9912 -0.0000
vn -0.9923 0.1240 -0.0000
vn 0.9923 -0.1240 -0.0000
vn 0.0254 -0.9997 -0.0000
vn 0.2695 -0.9630 -0.0000
vn -0.2695 0.9630 -0.0000
vn -0.9645 -0.2641 -0.0000
vn 0.0254 0.9997 -0.0000
vn 0.0763 0.9971 -0.0000
vn 0.1269 0.9919 -0.0000
vn 0.1772 0.9842 -0.0000
vn 0.2271 0.9739 -0.0000
vn 0.2763 0.9611 -0.0000
vn -0.0253 -0.9997 -0.0000
vn -0.0763 -0.9971 -0.0000
vn -0.1269 -0.9919 -0.0000
vn -0.1772 -0.9842 -0.0000
vn -0.2271 -0.9739 -0.0000
vn -0.2763 -0.9611 -0.0000
vn -0.2767 -0.9610 -0.0000
vn -0.9611 0.2763 -0.0000
vn -0.9997 0.0255 -0.0000
vn 0.9611 -0.2763 -0.0000
vn 0.2169 0.9762 -0.0000
vn 0.9979 0.0648 -0.0000
vn 0.1322 0.9912 -0.0000
vn 0.9923 0.1240 -0.0000
vn -0.9923 -0.1240 -0.0000
vn -0.0254 -0.9997 -0.0000
vn -0.2695 -0.9630 -0.0000
vn 0.2695 0.9630 -0.0000
vn 0.9645 -0.2641 -0.0000
vn 0.0255 -0.9997 -0.0000
vn -0.0255 0.9997 -0.0000
vn -0.0255 -0.9997 -0.0000
vn 0.0255 0.9997 -0.0000
vt 0.625000 0.000000
vt 0.375000 0.250000
vt 0.375000 0.000000
vt 0.625000 0.250000
vt 0.375000 0.500000
vt 0.625000 0.500000
vt 0.375000 0.750000
vt 0.625000 0.750000
vt 0.375000 1.000000
vt 0.125000 0.750000
vt 0.125000 0.500000
vt 0.875000 0.500000
vt 0.000000 0.000000
vt 0.625000 1.000000
vt 0.450000 0.500000
vt 0.450000 1.000000
vt 0.450000 0.000000
vt 0.450000 0.750000
vt 0.450000 0.250000
vt 0.875000 0.750000
s 0
f 2/1/1 3/2/1 1/3/1
f 4/4/2 7/5/2 3/2/2
f 8/6/3 5/7/3 7/5/3
f 6/8/4 1/9/4 5/7/4
f 7/5/5 1/10/5 3/11/5
f 4/12/6 6/8/6 8/6/6
f 10/1/1 11/2/1 9/3/1
f 12/4/2 15/5/2 11/2/2
f 16/6/3 13/7/3 15/5/3
f 14/8/4 9/9/4 13/7/4
f 15/5/5 9/10/5 11/11/5
f 12/12/6 14/8/6 16/6/6
f 18/1/1 19/2/1 17/3/1
f 20/4/2 23/5/2 19/2/2
f 24/6/3 21/7/3 23/5/3
f 22/8/4 17/9/4 21/7/4
f 23/5/5 17/10/5 19/11/5
f 20/12/6 22/8/6 24/6/6
f 26/1/1 27/2/1 25/3/1
f 28/4/2 31/5/2 27/2/2
f 32/6/3 29/7/3 31/5/3
f 30/8/4 25/9/4 29/7/4
f 31/5/5 25/10/5 27/11/5
f 28/12/6 30/8/6 32/6/6
f 34/1/1 35/2/1 33/3/1
f 36/4/2 39/5/2 35/2/2
f 40/6/3 37/7/3 39/5/3
f 38/8/4 33/9/4 37/7/4
f 39/5/5 33/10/5 35/11/5
f 36/12/6 38/8/6 40/6/6
f 44/13/7 41/13/7 42/13/7
f 46/13/8 43/13/8 44/13/8
f 48/13/9 45/13/9 46/13/9
f 50/13/10 47/13/10 48/13/10
f 52/13/11 49/13/11 50/13/11
f 54/13/12 55/13/12 56/13/12
f 56/13/12 51/13/12 52/13/12
f 56/13/12 57/13/12 54/13/12
f 60/13/13 61/13/13 59/13/13
f 62/13/14 63/13/14 61/13/14
f 64/13/15 65/13/15 63/13/15
f 66/13/16 67/13/16 65/13/16
f 68/13/17 69/13/17 67/13/17
f 73/13/18 71/13/18 74/13/18
f 70/13/19 74/13/19 69/13/19
f 75/13/18 74/13/18 71/13/18
f 74/13/20 58/13/20 56/13/20
f 42/13/2 61/13/2 44/13/2
f 55/13/4 70/13/4 51/13/4
f 62/13/4 41/13/4 43/13/4
f 69/13/2 56/13/2 52/13/2
f 65/13/2 50/13/2 48/13/2
f 72/13/4 55/13/4 53/13/4
f 68/13/4 47/13/4 49/13/4
f 64/13/4 43/13/4 45/13/4
f 61/13/2 46/13/2 44/13/2
f 70/13/4 49/13/4 51/13/4
f 58/13/2 75/13/2 57/13/2
f 60/13/21 42/13/21 41/13/21
f 50/13/2 69/13/2 52/13/2
f 47/13/4 64/13/4 45/13/4
f 75/13/22 54/13/22 57/13/22
f 71/13/22 53/13/22 54/13/22
f 63/13/2 48/13/2 46/13/2
f 78/1/1 79/2/1 77/3/1
f 80/4/2 83/5/2 79/2/2
f 84/6/3 81/7/3 83/5/3
f 81/7/4 78/14/4 77/9/4
f 83/5/5 77/10/5 79/11/5
f 80/12/23 82/8/23 84/6/23
f 86/1/1 87/2/1 85/3/1
f 88/4/2 91/5/2 87/2/2
f 92/6/3 89/7/3 91/5/3
f 90/8/4 85/9/4 89/7/4
f 91/5/5 85/10/5 87/11/5
f 88/12/6 90/8/6 92/6/6
f 94/1/1 95/2/1 93/3/1
f 96/4/2 99/5/2 95/2/2
f 100/6/3 97/7/3 99/5/3
f 98/8/4 93/9/4 97/7/4
f 99/5/5 93/10/5 95/11/5
f 96/12/6 98/8/6 100/6/6
f 102/1/1 103/2/1 101/3/1
f 104/4/2 107/5/2 103/2/2
f 108/6/3 105/7/3 107/5/3
f 106/8/4 101/9/4 105/7/4
f 107/5/5 101/10/5 103/11/5
f 104/12/6 106/8/6 108/6/6
f 110/1/1 111/2/1 109/3/1
f 112/4/2 115/5/2 111/2/2
f 116/6/3 113/7/3 115/5/3
f 114/8/4 109/9/4 113/7/4
f 115/5/5 109/10/5 111/11/5
f 112/12/6 114/8/6 116/6/6
f 118/1/24 119/2/24 117/3/24
f 120/4/2 123/5/2 119/2/2
f 124/6/3 121/7/3 123/5/3
f 121/7/4 118/14/4 117/9/4
f 123/5/5 117/10/5 119/11/5
f 120/12/6 122/8/6 124/6/6
f 126/1/1 127/2/1 125/3/1
f 128/4/2 131/5/2 127/2/2
f 132/6/3 129/7/3 131/5/3
f 130/8/4 125/9/4 129/7/4
f 131/5/5 125/10/5 127/11/5
f 128/12/6 130/8/6 132/6/6
f 134/1/1 135/2/1 133/3/1
f 136/4/2 139/5/2 135/2/2
f 140/6/3 137/7/3 139/5/3
f 138/8/4 133/9/4 137/7/4
f 139/5/5 133/10/5 135/11/5
f 136/12/6 138/8/6 140/6/6
f 142/1/1 143/2/1 141/3/1
f 144/4/2 147/5/2 143/2/2
f 148/6/3 145/7/3 147/5/3
f 145/7/4 142/14/4 141/9/4
f 147/5/5 141/10/5 143/11/5
f 144/12/25 146/8/25 148/6/25
f 150/1/26 151/2/26 149/3/26
f 152/4/2 155/5/2 151/2/2
f 156/6/27 153/7/27 155/5/27
f 153/7/4 150/14/4 149/9/4
f 155/5/5 149/10/5 151/11/5
f 152/12/6 154/8/6 156/6/6
f 158/1/26 159/2/26 157/3/26
f 160/4/2 163/5/2 159/2/2
f 164/6/27 161/7/27 163/5/27
f 161/7/4 158/14/4 157/9/4
f 163/5/5 157/10/5 159/11/5
f 160/12/6 162/8/6 164/6/6
f 179/15/27 168/7/27 166/5/27
f 168/7/4 177/16/4 172/9/4
f 179/15/6 177/17/6 180/18/6
f 166/5/5 172/10/5 170/11/5
f 171/5/5 165/10/5 167/11/5
f 175/15/6 173/17/6 176/18/6
f 169/7/4 173/16/4 165/9/4
f 175/15/27 169/7/27 171/5/27
f 174/19/2 171/5/2 167/2/2
f 173/17/26 167/2/26 165/3/26
f 178/19/2 166/5/2 170/2/2
f 177/17/26 170/2/26 172/3/26
f 182/1/1 183/2/1 181/3/1
f 184/4/2 187/5/2 183/2/2
f 188/6/3 185/7/3 187/5/3
f 186/8/4 181/9/4 185/7/4
f 187/5/5 181/10/5 183/11/5
f 184/12/6 186/8/6 188/6/6
f 190/1/1 191/2/1 189/3/1
f 192/4/2 195/5/2 191/2/2
f 196/6/3 193/7/3 195/5/3
f 194/8/4 189/9/4 193/7/4
f 195/5/5 189/10/5 191/11/5
f 192/12/6 194/8/6 196/6/6
f 198/1/1 199/2/1 197/3/1
f 200/4/2 203/5/2 199/2/2
f 204/6/3 201/7/3 203/5/3
f 202/8/4 197/9/4 201/7/4
f 203/5/5 197/10/5 199/11/5
f 200/12/6 202/8/6 204/6/6
f 206/1/1 207/2/1 205/3/1
f 208/4/2 211/5/2 207/2/2
f 212/6/3 209/7/3 211/5/3
f 210/8/4 205/9/4 209/7/4
f 211/5/5 205/10/5 207/11/5
f 208/12/6 210/8/6 212/6/6
f 215/2/3 214/1/3 213/3/3
f 219/5/2 216/4/2 215/2/2
f 217/7/1 220/6/1 219/5/1
f 213/9/4 218/8/4 217/7/4
f 213/10/5 219/5/5 215/11/5
f 218/8/6 216/12/6 220/6/6
f 225/13/28 224/13/28 221/13/28
f 226/13/4 221/13/4 222/13/4
f 227/13/7 222/13/7 223/13/7
f 229/13/14 228/13/14 225/13/14
f 230/13/4 225/13/4 226/13/4
f 231/13/8 226/13/8 227/13/8
f 234/13/4 229/13/4 230/13/4
f 235/13/9 230/13/9 231/13/9
f 233/13/15 232/13/15 229/13/15
f 237/13/16 236/13/16 233/13/16
f 234/13/4 237/13/4 233/13/4
f 239/13/10 234/13/10 235/13/10
f 238/13/4 241/13/4 237/13/4
f 243/13/11 238/13/11 239/13/11
f 241/13/17 240/13/17 237/13/17
f 245/13/29 244/13/29 241/13/29
f 247/13/30 242/13/30 243/13/30
f 246/13/4 241/13/4 242/13/4
f 246/13/31 248/13/31 245/13/31
f 250/1/1 251/2/1 249/3/1
f 252/4/2 255/5/2 251/2/2
f 256/6/3 253/7/3 255/5/3
f 254/8/4 249/9/4 253/7/4
f 255/5/5 249/10/5 251/11/5
f 252/12/6 254/8/6 256/6/6
f 259/2/3 258/1/3 257/3/3
f 7/5/2 260/4/2 259/2/2
f 257/9/4 6/8/4 5/7/4
f 257/10/5 7/5/5 259/11/5
f 6/8/6 260/12/6 8/6/6
f 263/2/3 262/1/3 261/3/3
f 267/5/2 264/4/2 263/2/2
f 265/7/1 268/6/1 267/5/1
f 261/9/4 266/8/4 265/7/4
f 261/10/5 267/5/5 263/11/5
f 266/8/6 264/12/6 268/6/6
f 271/2/3 270/1/3 269/3/3
f 275/5/2 272/4/2 271/2/2
f 273/7/1 276/6/1 275/5/1
f 269/9/4 274/8/4 273/7/4
f 269/10/5 275/5/5 271/11/5
f 274/8/6 272/12/6 276/6/6
f 279/2/3 278/1/3 277/3/3
f 283/5/2 280/4/2 279/2/2
f 281/7/1 284/6/1 283/5/1
f 277/9/4 282/8/4 281/7/4
f 277/10/5 283/5/5 279/11/5
f 282/8/6 280/12/6 284/6/6
f 287/2/3 286/1/3 285/3/3
f 291/5/2 288/4/2 287/2/2
f 289/7/1 292/6/1 291/5/1
f 285/9/4 290/8/4 289/7/4
f 285/10/5 291/5/5 287/11/5
f 290/8/6 288/12/6 292/6/6
f 41/13/32 294/13/32 42/13/32
f 293/13/33 296/13/33 294/13/33
f 295/13/34 298/13/34 296/13/34
f 297/13/35 300/13/35 298/13/35
f 299/13/36 302/13/36 300/13/36
f 305/13/37 304/13/37 306/13/37
f 301/13/37 306/13/37 302/13/37
f 307/13/37 306/13/37 304/13/37
f 311/13/38 310/13/38 309/13/38
f 313/13/39 312/13/39 311/13/39
f 315/13/40 314/13/40 313/13/40
f 317/13/41 316/13/41 315/13/41
f 319/13/42 318/13/42 317/13/42
f 321/13/43 323/13/43 324/13/43
f 324/13/44 320/13/44 319/13/44
f 324/13/43 325/13/43 321/13/43
f 308/13/45 324/13/45 306/13/45
f 42/13/2 311/13/2 309/13/2
f 305/13/4 320/13/4 323/13/4
f 41/13/4 312/13/4 293/13/4
f 306/13/2 319/13/2 302/13/2
f 300/13/2 315/13/2 298/13/2
f 305/13/4 322/13/4 303/13/4
f 297/13/4 318/13/4 299/13/4
f 293/13/4 314/13/4 295/13/4
f 296/13/2 311/13/2 294/13/2
f 299/13/4 320/13/4 301/13/4
f 308/13/2 325/13/2 326/13/2
f 42/13/46 310/13/46 41/13/46
f 300/13/2 319/13/2 317/13/2
f 297/13/4 314/13/4 316/13/4
f 304/13/47 325/13/47 307/13/47
f 303/13/47 321/13/47 304/13/47
f 298/13/2 313/13/2 296/13/2
f 329/2/3 328/1/3 327/3/3
f 333/5/2 330/4/2 329/2/2
f 331/7/1 334/6/1 333/5/1
f 331/7/4 328/14/4 332/8/4
f 327/10/5 333/5/5 329/11/5
f 332/8/48 330/12/48 334/6/48
f 337/2/3 336/1/3 335/3/3
f 341/5/2 338/4/2 337/2/2
f 339/7/1 342/6/1 341/5/1
f 335/9/4 340/8/4 339/7/4
f 335/10/5 341/5/5 337/11/5
f 340/8/6 338/12/6 342/6/6
f 345/2/3 344/1/3 343/3/3
f 349/5/2 346/4/2 345/2/2
f 347/7/1 350/6/1 349/5/1
f 343/9/4 348/8/4 347/7/4
f 343/10/5 349/5/5 345/11/5
f 348/8/6 346/12/6 350/6/6
f 353/2/3 352/1/3 351/3/3
f 357/5/2 354/4/2 353/2/2
f 355/7/1 358/6/1 357/5/1
f 351/9/4 356/8/4 355/7/4
f 351/10/5 357/5/5 353/11/5
f 356/8/6 354/12/6 358/6/6
f 361/2/3 360/1/3 359/3/3
f 115/5/2 362/4/2 361/2/2
f 359/9/4 114/8/4 113/7/4
f 359/10/5 115/5/5 361/11/5
f 114/8/6 362/12/6 116/6/6
f 365/2/49 364/1/49 363/3/49
f 369/5/2 366/4/2 365/2/2
f 367/7/1 370/6/1 369/5/1
f 367/7/4 364/14/4 368/8/4
f 363/10/5 369/5/5 365/11/5
f 368/8/6 366/12/6 370/6/6
f 373/2/3 372/1/3 371/3/3
f 131/5/2 374/4/2 373/2/2
f 371/9/4 130/8/4 129/7/4
f 371/10/5 131/5/5 373/11/5
f 130/8/6 374/12/6 132/6/6
f 377/2/3 376/1/3 375/3/3
f 381/5/2 378/4/2 377/2/2
f 379/7/1 382/6/1 381/5/1
f 375/9/4 380/8/4 379/7/4
f 375/10/5 381/5/5 377/11/5
f 380/8/6 378/12/6 382/6/6
f 385/2/3 384/1/3 383/3/3
f 147/5/2 386/4/2 385/2/2
f 145/7/4 384/14/4 146/8/4
f 383/10/5 147/5/5 385/11/5
f 146/8/50 386/12/50 148/6/50
f 389/2/51 388/1/51 387/3/51
f 393/5/2 390/4/2 389/2/2
f 391/7/52 394/6/52 393/5/52
f 391/7/4 388/14/4 392/8/4
f 387/10/5 393/5/5 389/11/5
f 392/8/6 390/12/6 394/6/6
f 397/2/51 396/1/51 395/3/51
f 401/5/2 398/4/2 397/2/2
f 399/7/52 402/6/52 401/5/52
f 399/7/4 396/14/4 400/8/4
f 395/10/5 401/5/5 397/11/5
f 400/8/6 398/12/6 402/6/6
f 406/7/52 417/15/52 404/5/52
f 406/7/4 415/16/4 418/18/4
f 415/17/6 417/15/6 418/18/6
f 410/10/5 404/5/5 408/11/5
f 403/10/5 409/5/5 405/11/5
f 411/17/6 413/15/6 414/18/6
f 407/7/4 411/16/4 414/18/4
f 407/7/52 413/15/52 409/5/52
f 409/5/2 412/19/2 405/2/2
f 405/2/51 411/17/51 403/3/51
f 404/5/2 416/19/2 408/2/2
f 408/2/51 415/17/51 410/3/51
f 421/2/3 420/1/3 419/3/3
f 425/5/2 422/4/2 421/2/2
f 423/7/1 426/6/1 425/5/1
f 419/9/4 424/8/4 423/7/4
f 419/10/5 425/5/5 421/11/5
f 424/8/6 422/12/6 426/6/6
f 429/2/3 428/1/3 427/3/3
f 433/5/2 430/4/2 429/2/2
f 431/7/1 434/6/1 433/5/1
f 427/9/4 432/8/4 431/7/4
f 427/10/5 433/5/5 429/11/5
f 432/8/6 430/12/6 434/6/6
f 437/2/3 436/1/3 435/3/3
f 441/5/2 438/4/2 437/2/2
f 439/7/1 442/6/1 441/5/1
f 435/9/4 440/8/4 439/7/4
f 435/10/5 441/5/5 437/11/5
f 440/8/6 438/12/6 442/6/6
f 445/2/3 444/1/3 443/3/3
f 449/5/2 446/4/2 445/2/2
f 447/7/1 450/6/1 449/5/1
f 443/9/4 448/8/4 447/7/4
f 443/10/5 449/5/5 445/11/5
f 448/8/6 446/12/6 450/6/6
f 452/1/1 453/2/1 451/3/1
f 454/4/2 457/5/2 453/2/2
f 458/6/3 455/7/3 457/5/3
f 456/8/4 451/9/4 455/7/4
f 457/5/5 451/10/5 453/11/5
f 454/12/6 456/8/6 458/6/6
f 224/13/53 459/13/53 221/13/53
f 221/13/4 460/13/4 222/13/4
f 222/13/32 461/13/32 223/13/32
f 462/13/39 463/13/39 459/13/39
f 459/13/4 464/13/4 460/13/4
f 460/13/33 465/13/33 461/13/33
f 463/13/4 468/13/4 464/13/4
f 464/13/34 469/13/34 465/13/34
f 466/13/40 467/13/40 463/13/40
f 470/13/41 471/13/41 467/13/41
f 468/13/4 471/13/4 472/13/4
f 468/13/35 473/13/35 469/13/35
f 472/13/4 475/13/4 476/13/4
f 472/13/36 477/13/36 473/13/36
f 474/13/42 475/13/42 471/13/42
f 478/13/54 479/13/54 475/13/54
f 476/13/55 481/13/55 477/13/55
f 475/13/4 480/13/4 476/13/4
f 482/13/56 480/13/56 479/13/56
f 485/2/3 484/1/3 483/3/3
f 255/5/2 486/4/2 485/2/2
f 483/9/4 254/8/4 253/7/4
f 483/10/5 255/5/5 485/11/5
f 254/8/6 486/12/6 256/6/6
f 3/2/1 488/1/1 487/3/1
f 489/7/3 8/6/3 7/5/3
f 487/9/2 490/8/2 489/7/2
f 487/10/5 7/5/5 3/11/5
f 490/8/6 4/12/6 8/6/6
f 11/2/1 492/1/1 491/3/1
f 493/7/3 16/6/3 15/5/3
f 491/9/2 494/8/2 493/7/2
f 491/10/5 15/5/5 11/11/5
f 494/8/6 12/12/6 16/6/6
f 497/2/1 496/1/1 495/3/1
f 501/5/4 498/4/4 497/2/4
f 499/7/3 502/6/3 501/5/3
f 495/9/2 500/8/2 499/7/2
f 495/10/5 501/5/5 497/11/5
f 500/8/6 498/12/6 502/6/6
f 27/2/1 504/1/1 503/3/1
f 505/7/3 32/6/3 31/5/3
f 503/9/2 506/8/2 505/7/2
f 503/10/5 31/5/5 27/11/5
f 506/8/6 28/12/6 32/6/6
f 35/2/1 508/1/1 507/3/1
f 509/7/3 40/6/3 39/5/3
f 507/9/2 510/8/2 509/7/2
f 507/10/5 39/5/5 35/11/5
f 510/8/6 36/12/6 40/6/6
f 511/13/7 514/13/7 512/13/7
f 513/13/8 516/13/8 514/13/8
f 515/13/9 518/13/9 516/13/9
f 517/13/10 520/13/10 518/13/10
f 519/13/11 522/13/11 520/13/11
f 525/13/12 524/13/12 526/13/12
f 521/13/12 526/13/12 522/13/12
f 57/13/12 526/13/12 524/13/12
f 529/13/13 528/13/13 527/13/13
f 531/13/14 530/13/14 529/13/14
f 533/13/15 532/13/15 531/13/15
f 535/13/16 534/13/16 533/13/16
f 537/13/17 536/13/17 535/13/17
f 539/13/18 541/13/18 542/13/18
f 542/13/19 538/13/19 537/13/19
f 542/13/18 75/13/18 539/13/18
f 58/13/20 542/13/20 526/13/20
f 512/13/4 529/13/4 527/13/4
f 525/13/2 538/13/2 541/13/2
f 511/13/2 530/13/2 513/13/2
f 526/13/4 537/13/4 522/13/4
f 520/13/4 533/13/4 518/13/4
f 525/13/2 540/13/2 523/13/2
f 517/13/2 536/13/2 519/13/2
f 513/13/2 532/13/2 515/13/2
f 516/13/4 529/13/4 514/13/4
f 519/13/2 538/13/2 521/13/2
f 512/13/21 528/13/21 511/13/21
f 520/13/4 537/13/4 535/13/4
f 517/13/2 532/13/2 534/13/2
f 524/13/22 75/13/22 57/13/22
f 523/13/22 539/13/22 524/13/22
f 518/13/4 531/13/4 516/13/4
f 545/2/1 544/1/1 543/3/1
f 549/5/4 546/4/4 545/2/4
f 547/7/3 550/6/3 549/5/3
f 547/7/2 544/14/2 548/8/2
f 543/10/5 549/5/5 545/11/5
f 548/8/23 546/12/23 550/6/23
f 553/2/1 552/1/1 551/3/1
f 557/5/4 554/4/4 553/2/4
f 555/7/3 558/6/3 557/5/3
f 551/9/2 556/8/2 555/7/2
f 551/10/5 557/5/5 553/11/5
f 556/8/6 554/12/6 558/6/6
f 561/2/1 560/1/1 559/3/1
f 565/5/4 562/4/4 561/2/4
f 563/7/3 566/6/3 565/5/3
f 559/9/2 564/8/2 563/7/2
f 559/10/5 565/5/5 561/11/5
f 564/8/6 562/12/6 566/6/6
f 569/2/1 568/1/1 567/3/1
f 573/5/4 570/4/4 569/2/4
f 571/7/3 574/6/3 573/5/3
f 567/9/2 572/8/2 571/7/2
f 567/10/5 573/5/5 569/11/5
f 572/8/6 570/12/6 574/6/6
f 577/2/1 576/1/1 575/3/1
f 581/5/4 578/4/4 577/2/4
f 579/7/3 582/6/3 581/5/3
f 575/9/2 580/8/2 579/7/2
f 575/10/5 581/5/5 577/11/5
f 580/8/6 578/12/6 582/6/6
f 585/2/24 584/1/24 583/3/24
f 589/5/4 586/4/4 585/2/4
f 587/7/3 590/6/3 589/5/3
f 587/7/2 584/14/2 588/8/2
f 583/10/5 589/5/5 585/11/5
f 588/8/6 586/12/6 590/6/6
f 593/2/1 592/1/1 591/3/1
f 597/5/4 594/4/4 593/2/4
f 595/7/3 598/6/3 597/5/3
f 591/9/2 596/8/2 595/7/2
f 591/10/5 597/5/5 593/11/5
f 596/8/6 594/12/6 598/6/6
f 601/2/1 600/1/1 599/3/1
f 605/5/4 602/4/4 601/2/4
f 603/7/3 606/6/3 605/5/3
f 599/9/2 604/8/2 603/7/2
f 599/10/5 605/5/5 601/11/5
f 604/8/6 602/12/6 606/6/6
f 609/2/1 608/1/1 607/3/1
f 613/5/4 610/4/4 609/2/4
f 611/7/3 614/6/3 613/5/3
f 611/7/2 608/14/2 612/8/2
f 607/10/5 613/5/5 609/11/5
f 612/8/25 610/12/25 614/6/25
f 617/2/26 616/1/26 615/3/26
f 621/5/4 618/4/4 617/2/4
f 619/7/27 622/6/27 621/5/27
f 619/7/2 616/14/2 620/8/2
f 615/10/5 621/5/5 617/11/5
f 620/8/6 618/12/6 622/6/6
f 159/2/26 624/1/26 623/3/26
f 625/7/27 164/6/27 163/5/27
f 625/7/2 624/14/2 626/8/2
f 623/10/5 163/5/5 159/11/5
f 626/8/6 160/12/6 164/6/6
f 630/7/27 641/15/27 628/5/27
f 630/7/2 639/16/2 642/18/2
f 639/17/6 641/15/6 642/18/6
f 634/10/5 628/5/5 632/11/5
f 627/10/5 633/5/5 629/11/5
f 635/17/6 637/15/6 638/18/6
f 631/7/2 635/16/2 638/18/2
f 631/7/27 637/15/27 633/5/27
f 633/5/4 636/19/4 629/2/4
f 629/2/26 635/17/26 627/3/26
f 628/5/4 640/19/4 632/2/4
f 632/2/26 639/17/26 634/3/26
f 645/2/1 644/1/1 643/3/1
f 649/5/4 646/4/4 645/2/4
f 647/7/3 650/6/3 649/5/3
f 643/9/2 648/8/2 647/7/2
f 643/10/5 649/5/5 645/11/5
f 648/8/6 646/12/6 650/6/6
f 191/2/1 652/1/1 651/3/1
f 653/7/3 196/6/3 195/5/3
f 651/9/2 654/8/2 653/7/2
f 651/10/5 195/5/5 191/11/5
f 654/8/6 192/12/6 196/6/6
f 657/2/1 656/1/1 655/3/1
f 661/5/4 658/4/4 657/2/4
f 659/7/3 662/6/3 661/5/3
f 655/9/2 660/8/2 659/7/2
f 655/10/5 661/5/5 657/11/5
f 660/8/6 658/12/6 662/6/6
f 665/2/1 664/1/1 663/3/1
f 669/5/4 666/4/4 665/2/4
f 667/7/3 670/6/3 669/5/3
f 663/9/2 668/8/2 667/7/2
f 663/10/5 669/5/5 665/11/5
f 668/8/6 666/12/6 670/6/6
f 672/1/3 673/2/3 671/3/3
f 674/4/4 677/5/4 673/2/4
f 678/6/1 675/7/1 677/5/1
f 676/8/2 671/9/2 675/7/2
f 677/5/5 671/10/5 673/11/5
f 674/12/6 676/8/6 678/6/6
f 224/13/28 681/13/28 679/13/28
f 679/13/2 682/13/2 680/13/2
f 680/13/7 227/13/7 223/13/7
f 228/13/14 683/13/14 681/13/14
f 681/13/2 684/13/2 682/13/2
f 682/13/8 231/13/8 227/13/8
f 683/13/2 686/13/2 684/13/2
f 684/13/9 235/13/9 231/13/9
f 232/13/15 685/13/15 683/13/15
f 236/13/16 687/13/16 685/13/16
f 686/13/2 687/13/2 688/13/2
f 686/13/10 239/13/10 235/13/10
f 688/13/2 689/13/2 690/13/2
f 688/13/11 243/13/11 239/13/11
f 240/13/17 689/13/17 687/13/17
f 244/13/29 691/13/29 689/13/29
f 690/13/30 247/13/30 243/13/30
f 689/13/2 692/13/2 690/13/2
f 248/13/31 692/13/31 691/13/31
f 695/2/1 694/1/1 693/3/1
f 699/5/4 696/4/4 695/2/4
f 697/7/3 700/6/3 699/5/3
f 693/9/2 698/8/2 697/7/2
f 693/10/5 699/5/5 695/11/5
f 698/8/6 696/12/6 700/6/6
f 702/1/3 259/2/3 701/3/3
f 490/8/2 701/9/2 489/7/2
f 7/5/5 701/10/5 259/11/5
f 260/12/6 490/8/6 8/6/6
f 704/1/3 263/2/3 703/3/3
f 268/6/1 705/7/1 267/5/1
f 706/8/2 703/9/2 705/7/2
f 267/5/5 703/10/5 263/11/5
f 264/12/6 706/8/6 268/6/6
f 708/1/3 709/2/3 707/3/3
f 710/4/4 713/5/4 709/2/4
f 714/6/1 711/7/1 713/5/1
f 712/8/2 707/9/2 711/7/2
f 713/5/5 707/10/5 709/11/5
f 710/12/6 712/8/6 714/6/6
f 716/1/3 279/2/3 715/3/3
f 284/6/1 717/7/1 283/5/1
f 718/8/2 715/9/2 717/7/2
f 283/5/5 715/10/5 279/11/5
f 280/12/6 718/8/6 284/6/6
f 720/1/3 287/2/3 719/3/3
f 292/6/1 721/7/1 291/5/1
f 722/8/2 719/9/2 721/7/2
f 291/5/5 719/10/5 287/11/5
f 288/12/6 722/8/6 292/6/6
f 724/13/32 511/13/32 512/13/32
f 726/13/33 723/13/33 724/13/33
f 728/13/34 725/13/34 726/13/34
f 730/13/35 727/13/35 728/13/35
f 732/13/36 729/13/36 730/13/36
f 734/13/37 735/13/37 736/13/37
f 736/13/37 731/13/37 732/13/37
f 736/13/37 307/13/37 734/13/37
f 738/13/38 739/13/38 737/13/38
f 740/13/39 741/13/39 739/13/39
f 742/13/40 743/13/40 741/13/40
f 744/13/41 745/13/41 743/13/41
f 746/13/42 747/13/42 745/13/42
f 751/13/43 749/13/43 752/13/43
f 748/13/44 752/13/44 747/13/44
f 325/13/43 752/13/43 749/13/43
f 752/13/45 308/13/45 736/13/45
f 512/13/4 739/13/4 724/13/4
f 735/13/2 748/13/2 731/13/2
f 740/13/2 511/13/2 723/13/2
f 747/13/4 736/13/4 732/13/4
f 743/13/4 730/13/4 728/13/4
f 750/13/2 735/13/2 733/13/2
f 746/13/2 727/13/2 729/13/2
f 742/13/2 723/13/2 725/13/2
f 739/13/4 726/13/4 724/13/4
f 748/13/2 729/13/2 731/13/2
f 738/13/46 512/13/46 511/13/46
f 730/13/4 747/13/4 732/13/4
f 727/13/2 742/13/2 725/13/2
f 325/13/47 734/13/47 307/13/47
f 749/13/47 733/13/47 734/13/47
f 741/13/4 728/13/4 726/13/4
f 754/1/3 755/2/3 753/3/3
f 756/4/4 759/5/4 755/2/4
f 760/6/1 757/7/1 759/5/1
f 757/7/2 754/14/2 753/9/2
f 759/5/5 753/10/5 755/11/5
f 756/12/48 758/8/48 760/6/48
f 762/1/3 763/2/3 761/3/3
f 764/4/4 767/5/4 763/2/4
f 768/6/1 765/7/1 767/5/1
f 766/8/2 761/9/2 765/7/2
f 767/5/5 761/10/5 763/11/5
f 764/12/6 766/8/6 768/6/6
f 770/1/3 771/2/3 769/3/3
f 772/4/4 775/5/4 771/2/4
f 776/6/1 773/7/1 775/5/1
f 774/8/2 769/9/2 773/7/2
f 775/5/5 769/10/5 771/11/5
f 772/12/6 774/8/6 776/6/6
f 778/1/3 779/2/3 777/3/3
f 780/4/4 783/5/4 779/2/4
f 784/6/1 781/7/1 783/5/1
f 782/8/2 777/9/2 781/7/2
f 783/5/5 777/10/5 779/11/5
f 780/12/6 782/8/6 784/6/6
f 786/1/3 787/2/3 785/3/3
f 788/4/4 581/5/4 787/2/4
f 580/8/2 785/9/2 579/7/2
f 581/5/5 785/10/5 787/11/5
f 788/12/6 580/8/6 582/6/6
f 790/1/49 791/2/49 789/3/49
f 792/4/4 795/5/4 791/2/4
f 796/6/1 793/7/1 795/5/1
f 793/7/2 790/14/2 789/9/2
f 795/5/5 789/10/5 791/11/5
f 792/12/6 794/8/6 796/6/6
f 798/1/3 799/2/3 797/3/3
f 800/4/4 597/5/4 799/2/4
f 596/8/2 797/9/2 595/7/2
f 597/5/5 797/10/5 799/11/5
f 800/12/6 596/8/6 598/6/6
f 802/1/3 803/2/3 801/3/3
f 804/4/4 807/5/4 803/2/4
f 808/6/1 805/7/1 807/5/1
f 806/8/2 801/9/2 805/7/2
f 807/5/5 801/10/5 803/11/5
f 804/12/6 806/8/6 808/6/6
f 810/1/3 811/2/3 809/3/3
f 812/4/4 613/5/4 811/2/4
f 611/7/2 810/14/2 809/9/2
f 613/5/5 809/10/5 811/11/5
f 812/12/50 612/8/50 614/6/50
f 814/1/51 815/2/51 813/3/51
f 816/4/4 819/5/4 815/2/4
f 820/6/52 817/7/52 819/5/52
f 817/7/2 814/14/2 813/9/2
f 819/5/5 813/10/5 815/11/5
f 816/12/6 818/8/6 820/6/6
f 822/1/51 397/2/51 821/3/51
f 402/6/52 823/7/52 401/5/52
f 823/7/2 822/14/2 821/9/2
f 401/5/5 821/10/5 397/11/5
f 398/12/6 824/8/6 402/6/6
f 839/15/52 828/7/52 826/5/52
f 828/7/2 837/16/2 832/9/2
f 839/15/6 837/17/6 840/18/6
f 826/5/5 832/10/5 830/11/5
f 831/5/5 825/10/5 827/11/5
f 835/15/6 833/17/6 836/18/6
f 829/7/2 833/16/2 825/9/2
f 835/15/52 829/7/52 831/5/52
f 834/19/4 831/5/4 827/2/4
f 833/17/51 827/2/51 825/3/51
f 838/19/4 826/5/4 830/2/4
f 837/17/51 830/2/51 832/3/51
f 842/1/3 843/2/3 841/3/3
f 844/4/4 847/5/4 843/2/4
f 848/6/1 845/7/1 847/5/1
f 846/8/2 841/9/2 845/7/2
f 847/5/5 841/10/5 843/11/5
f 844/12/6 846/8/6 848/6/6
f 850/1/3 429/2/3 849/3/3
f 434/6/1 851/7/1 433/5/1
f 852/8/2 849/9/2 851/7/2
f 433/5/5 849/10/5 429/11/5
f 430/12/6 852/8/6 434/6/6
f 854/1/3 855/2/3 853/3/3
f 856/4/4 859/5/4 855/2/4
f 860/6/1 857/7/1 859/5/1
f 858/8/2 853/9/2 857/7/2
f 859/5/5 853/10/5 855/11/5
f 856/12/6 858/8/6 860/6/6
f 862/1/3 863/2/3 861/3/3
f 864/4/4 867/5/4 863/2/4
f 868/6/1 865/7/1 867/5/1
f 866/8/2 861/9/2 865/7/2
f 867/5/5 861/10/5 863/11/5
f 864/12/6 866/8/6 868/6/6
f 871/2/1 870/1/1 869/3/1
f 875/5/4 872/4/4 871/2/4
f 873/7/3 876/6/3 875/5/3
f 869/9/2 874/8/2 873/7/2
f 869/10/5 875/5/5 871/11/5
f 874/8/6 872/12/6 876/6/6
f 877/13/53 224/13/53 679/13/53
f 878/13/2 679/13/2 680/13/2
f 461/13/32 680/13/32 223/13/32
f 879/13/39 462/13/39 877/13/39
f 880/13/2 877/13/2 878/13/2
f 465/13/33 878/13/33 461/13/33
f 882/13/2 879/13/2 880/13/2
f 469/13/34 880/13/34 465/13/34
f 881/13/40 466/13/40 879/13/40
f 883/13/41 470/13/41 881/13/41
f 882/13/2 883/13/2 881/13/2
f 473/13/35 882/13/35 469/13/35
f 884/13/2 885/13/2 883/13/2
f 477/13/36 884/13/36 473/13/36
f 885/13/42 474/13/42 883/13/42
f 887/13/54 478/13/54 885/13/54
f 481/13/55 886/13/55 477/13/55
f 888/13/2 885/13/2 886/13/2
f 888/13/56 482/13/56 887/13/56
f 890/1/3 891/2/3 889/3/3
f 892/4/4 699/5/4 891/2/4
f 698/8/2 889/9/2 697/7/2
f 699/5/5 889/10/5 891/11/5
f 892/12/6 698/8/6 700/6/6
f 2/1/1 4/4/1 3/2/1
f 4/4/2 8/6/2 7/5/2
f 8/6/3 6/8/3 5/7/3
f 6/8/4 2/14/4 1/9/4
f 7/5/5 5/7/5 1/10/5
f 4/12/6 2/20/6 6/8/6
f 10/1/1 12/4/1 11/2/1
f 12/4/2 16/6/2 15/5/2
f 16/6/3 14/8/3 13/7/3
f 14/8/4 10/14/4 9/9/4
f 15/5/5 13/7/5 9/10/5
f 12/12/6 10/20/6 14/8/6
f 18/1/1 20/4/1 19/2/1
f 20/4/2 24/6/2 23/5/2
f 24/6/3 22/8/3 21/7/3
f 22/8/4 18/14/4 17/9/4
f 23/5/5 21/7/5 17/10/5
f 20/12/6 18/20/6 22/8/6
f 26/1/1 28/4/1 27/2/1
f 28/4/2 32/6/2 31/5/2
f 32/6/3 30/8/3 29/7/3
f 30/8/4 26/14/4 25/9/4
f 31/5/5 29/7/5 25/10/5
f 28/12/6 26/20/6 30/8/6
f 34/1/1 36/4/1 35/2/1
f 36/4/2 40/6/2 39/5/2
f 40/6/3 38/8/3 37/7/3
f 38/8/4 34/14/4 33/9/4
f 39/5/5 37/7/5 33/10/5
f 36/12/6 34/20/6 38/8/6
f 44/13/7 43/13/7 41/13/7
f 46/13/8 45/13/8 43/13/8
f 48/13/9 47/13/9 45/13/9
f 50/13/10 49/13/10 47/13/10
f 52/13/11 51/13/11 49/13/11
f 54/13/12 53/13/12 55/13/12
f 56/13/12 55/13/12 51/13/12
f 56/13/12 58/13/12 57/13/12
f 60/13/13 62/13/13 61/13/13
f 62/13/14 64/13/14 63/13/14
f 64/13/15 66/13/15 65/13/15
f 66/13/16 68/13/16 67/13/16
f 68/13/17 70/13/17 69/13/17
f 73/13/18 72/13/18 71/13/18
f 70/13/19 73/13/19 74/13/19
f 75/13/18 76/13/18 74/13/18
f 74/13/20 76/13/20 58/13/20
f 42/13/2 59/13/2 61/13/2
f 55/13/4 73/13/4 70/13/4
f 62/13/4 60/13/4 41/13/4
f 69/13/2 74/13/2 56/13/2
f 65/13/2 67/13/2 50/13/2
f 72/13/4 73/13/4 55/13/4
f 68/13/4 66/13/4 47/13/4
f 64/13/4 62/13/4 43/13/4
f 61/13/2 63/13/2 46/13/2
f 70/13/4 68/13/4 49/13/4
f 58/13/2 76/13/2 75/13/2
f 60/13/21 59/13/21 42/13/21
f 50/13/2 67/13/2 69/13/2
f 47/13/4 66/13/4 64/13/4
f 75/13/22 71/13/22 54/13/22
f 71/13/22 72/13/22 53/13/22
f 63/13/2 65/13/2 48/13/2
f 78/1/1 80/4/1 79/2/1
f 80/4/2 84/6/2 83/5/2
f 84/6/3 82/8/3 81/7/3
f 81/7/4 82/8/4 78/14/4
f 83/5/5 81/7/5 77/10/5
f 80/12/23 78/20/23 82/8/23
f 86/1/1 88/4/1 87/2/1
f 88/4/2 92/6/2 91/5/2
f 92/6/3 90/8/3 89/7/3
f 90/8/4 86/14/4 85/9/4
f 91/5/5 89/7/5 85/10/5
f 88/12/6 86/20/6 90/8/6
f 94/1/1 96/4/1 95/2/1
f 96/4/2 100/6/2 99/5/2
f 100/6/3 98/8/3 97/7/3
f 98/8/4 94/14/4 93/9/4
f 99/5/5 97/7/5 93/10/5
f 96/12/6 94/20/6 98/8/6
f 102/1/1 104/4/1 103/2/1
f 104/4/2 108/6/2 107/5/2
f 108/6/3 106/8/3 105/7/3
f 106/8/4 102/14/4 101/9/4
f 107/5/5 105/7/5 101/10/5
f 104/12/6 102/20/6 106/8/6
f 110/1/1 112/4/1 111/2/1
f 112/4/2 116/6/2 115/5/2
f 116/6/3 114/8/3 113/7/3
f 114/8/4 110/14/4 109/9/4
f 115/5/5 113/7/5 109/10/5
f 112/12/6 110/20/6 114/8/6
f 118/1/24 120/4/24 119/2/24
f 120/4/2 124/6/2 123/5/2
f 124/6/3 122/8/3 121/7/3
f 121/7/4 122/8/4 118/14/4
f 123/5/5 121/7/5 117/10/5
f 120/12/6 118/20/6 122/8/6
f 126/1/1 128/4/1 127/2/1
f 128/4/2 132/6/2 131/5/2
f 132/6/3 130/8/3 129/7/3
f 130/8/4 126/14/4 125/9/4
f 131/5/5 129/7/5 125/10/5
f 128/12/6 126/20/6 130/8/6
f 134/1/1 136/4/1 135/2/1
f 136/4/2 140/6/2 139/5/2
f 140/6/3 138/8/3 137/7/3
f 138/8/4 134/14/4 133/9/4
f 139/5/5 137/7/5 133/10/5
f 136/12/6 134/20/6 138/8/6
f 142/1/1 144/4/1 143/2/1
f 144/4/2 148/6/2 147/5/2
f 148/6/3 146/8/3 145/7/3
f 145/7/4 146/8/4 142/14/4
f 147/5/5 145/7/5 141/10/5
f 144/12/25 142/20/25 146/8/25
f 150/1/26 152/4/26 151/2/26
f 152/4/2 156/6/2 155/5/2
f 156/6/27 154/8/27 153/7/27
f 153/7/4 154/8/4 150/14/4
f 155/5/5 153/7/5 149/10/5
f 152/12/6 150/20/6 154/8/6
f 158/1/26 160/4/26 159/2/26
f 160/4/2 164/6/2 163/5/2
f 164/6/27 162/8/27 161/7/27
f 161/7/4 162/8/4 158/14/4
f 163/5/5 161/7/5 157/10/5
f 160/12/6 158/20/6 162/8/6
f 179/15/27 180/18/27 168/7/27
f 168/7/4 180/18/4 177/16/4
f 179/15/6 178/19/6 177/17/6
f 166/5/5 168/7/5 172/10/5
f 171/5/5 169/7/5 165/10/5
f 175/15/6 174/19/6 173/17/6
f 169/7/4 176/18/4 173/16/4
f 175/15/27 176/18/27 169/7/27
f 174/19/2 175/15/2 171/5/2
f 173/17/26 174/19/26 167/2/26
f 178/19/2 179/15/2 166/5/2
f 177/17/26 178/19/26 170/2/26
f 182/1/1 184/4/1 183/2/1
f 184/4/2 188/6/2 187/5/2
f 188/6/3 186/8/3 185/7/3
f 186/8/4 182/14/4 181/9/4
f 187/5/5 185/7/5 181/10/5
f 184/12/6 182/20/6 186/8/6
f 190/1/1 192/4/1 191/2/1
f 192/4/2 196/6/2 195/5/2
f 196/6/3 194/8/3 193/7/3
f 194/8/4 190/14/4 189/9/4
f 195/5/5 193/7/5 189/10/5
f 192/12/6 190/20/6 194/8/6
f 198/1/1 200/4/1 199/2/1
f 200/4/2 204/6/2 203/5/2
f 204/6/3 202/8/3 201/7/3
f 202/8/4 198/14/4 197/9/4
f 203/5/5 201/7/5 197/10/5
f 200/12/6 198/20/6 202/8/6
f 206/1/1 208/4/1 207/2/1
f 208/4/2 212/6/2 211/5/2
f 212/6/3 210/8/3 209/7/3
f 210/8/4 206/14/4 205/9/4
f 211/5/5 209/7/5 205/10/5
f 208/12/6 206/20/6 210/8/6
f 215/2/3 216/4/3 214/1/3
f 219/5/2 220/6/2 216/4/2
f 217/7/1 218/8/1 220/6/1
f 213/9/4 214/14/4 218/8/4
f 213/10/5 217/7/5 219/5/5
f 218/8/6 214/20/6 216/12/6
f 225/13/57 228/13/57 224/13/57
f 226/13/4 225/13/4 221/13/4
f 227/13/58 226/13/58 222/13/58
f 229/13/14 232/13/14 228/13/14
f 230/13/4 229/13/4 225/13/4
f 231/13/8 230/13/8 226/13/8
f 234/13/4 233/13/4 229/13/4
f 235/13/9 234/13/9 230/13/9
f 233/13/15 236/13/15 232/13/15
f 237/13/16 240/13/16 236/13/16
f 234/13/4 238/13/4 237/13/4
f 239/13/10 238/13/10 234/13/10
f 238/13/4 242/13/4 241/13/4
f 243/13/11 242/13/11 238/13/11
f 241/13/17 244/13/17 240/13/17
f 245/13/29 248/13/29 244/13/29
f 247/13/30 246/13/30 242/13/30
f 246/13/4 245/13/4 241/13/4
f 246/13/31 247/13/31 248/13/31
f 250/1/1 252/4/1 251/2/1
f 252/4/2 256/6/2 255/5/2
f 256/6/3 254/8/3 253/7/3
f 254/8/4 250/14/4 249/9/4
f 255/5/5 253/7/5 249/10/5
f 252/12/6 250/20/6 254/8/6
f 259/2/3 260/4/3 258/1/3
f 7/5/2 8/6/2 260/4/2
f 257/9/4 258/14/4 6/8/4
f 257/10/5 5/7/5 7/5/5
f 6/8/6 258/20/6 260/12/6
f 263/2/3 264/4/3 262/1/3
f 267/5/2 268/6/2 264/4/2
f 265/7/1 266/8/1 268/6/1
f 261/9/4 262/14/4 266/8/4
f 261/10/5 265/7/5 267/5/5
f 266/8/6 262/20/6 264/12/6
f 271/2/3 272/4/3 270/1/3
f 275/5/2 276/6/2 272/4/2
f 273/7/1 274/8/1 276/6/1
f 269/9/4 270/14/4 274/8/4
f 269/10/5 273/7/5 275/5/5
f 274/8/6 270/20/6 272/12/6
f 279/2/3 280/4/3 278/1/3
f 283/5/2 284/6/2 280/4/2
f 281/7/1 282/8/1 284/6/1
f 277/9/4 278/14/4 282/8/4
f 277/10/5 281/7/5 283/5/5
f 282/8/6 278/20/6 280/12/6
f 287/2/3 288/4/3 286/1/3
f 291/5/2 292/6/2 288/4/2
f 289/7/1 290/8/1 292/6/1
f 285/9/4 286/14/4 290/8/4
f 285/10/5 289/7/5 291/5/5
f 290/8/6 286/20/6 288/12/6
f 41/13/32 293/13/32 294/13/32
f 293/13/33 295/13/33 296/13/33
f 295/13/34 297/13/34 298/13/34
f 297/13/35 299/13/35 300/13/35
f 299/13/36 301/13/36 302/13/36
f 305/13/37 303/13/37 304/13/37
f 301/13/37 305/13/37 306/13/37
f 307/13/37 308/13/37 306/13/37
f 311/13/38 312/13/38 310/13/38
f 313/13/39 314/13/39 312/13/39
f 315/13/40 316/13/40 314/13/40
f 317/13/41 318/13/41 316/13/41
f 319/13/42 320/13/42 318/13/42
f 321/13/43 322/13/43 323/13/43
f 324/13/44 323/13/44 320/13/44
f 324/13/43 326/13/43 325/13/43
f 308/13/45 326/13/45 324/13/45
f 42/13/2 294/13/2 311/13/2
f 305/13/4 301/13/4 320/13/4
f 41/13/4 310/13/4 312/13/4
f 306/13/2 324/13/2 319/13/2
f 300/13/2 317/13/2 315/13/2
f 305/13/4 323/13/4 322/13/4
f 297/13/4 316/13/4 318/13/4
f 293/13/4 312/13/4 314/13/4
f 296/13/2 313/13/2 311/13/2
f 299/13/4 318/13/4 320/13/4
f 308/13/2 307/13/2 325/13/2
f 42/13/46 309/13/46 310/13/46
f 300/13/2 302/13/2 319/13/2
f 297/13/4 295/13/4 314/13/4
f 304/13/47 321/13/47 325/13/47
f 303/13/47 322/13/47 321/13/47
f 298/13/2 315/13/2 313/13/2
f 329/2/3 330/4/3 328/1/3
f 333/5/2 334/6/2 330/4/2
f 331/7/1 332/8/1 334/6/1
f 331/7/4 327/9/4 328/14/4
f 327/10/5 331/7/5 333/5/5
f 332/8/48 328/20/48 330/12/48
f 337/2/3 338/4/3 336/1/3
f 341/5/2 342/6/2 338/4/2
f 339/7/1 340/8/1 342/6/1
f 335/9/4 336/14/4 340/8/4
f 335/10/5 339/7/5 341/5/5
f 340/8/6 336/20/6 338/12/6
f 345/2/3 346/4/3 344/1/3
f 349/5/2 350/6/2 346/4/2
f 347/7/1 348/8/1 350/6/1
f 343/9/4 344/14/4 348/8/4
f 343/10/5 347/7/5 349/5/5
f 348/8/6 344/20/6 346/12/6
f 353/2/3 354/4/3 352/1/3
f 357/5/2 358/6/2 354/4/2
f 355/7/1 356/8/1 358/6/1
f 351/9/4 352/14/4 356/8/4
f 351/10/5 355/7/5 357/5/5
f 356/8/6 352/20/6 354/12/6
f 361/2/3 362/4/3 360/1/3
f 115/5/2 116/6/2 362/4/2
f 359/9/4 360/14/4 114/8/4
f 359/10/5 113/7/5 115/5/5
f 114/8/6 360/20/6 362/12/6
f 365/2/49 366/4/49 364/1/49
f 369/5/2 370/6/2 366/4/2
f 367/7/1 368/8/1 370/6/1
f 367/7/4 363/9/4 364/14/4
f 363/10/5 367/7/5 369/5/5
f 368/8/6 364/20/6 366/12/6
f 373/2/3 374/4/3 372/1/3
f 131/5/2 132/6/2 374/4/2
f 371/9/4 372/14/4 130/8/4
f 371/10/5 129/7/5 131/5/5
f 130/8/6 372/20/6 374/12/6
f 377/2/3 378/4/3 376/1/3
f 381/5/2 382/6/2 378/4/2
f 379/7/1 380/8/1 382/6/1
f 375/9/4 376/14/4 380/8/4
f 375/10/5 379/7/5 381/5/5
f 380/8/6 376/20/6 378/12/6
f 385/2/3 386/4/3 384/1/3
f 147/5/2 148/6/2 386/4/2
f 145/7/4 383/9/4 384/14/4
f 383/10/5 145/7/5 147/5/5
f 146/8/50 384/20/50 386/12/50
f 389/2/51 390/4/51 388/1/51
f 393/5/2 394/6/2 390/4/2
f 391/7/52 392/8/52 394/6/52
f 391/7/4 387/9/4 388/14/4
f 387/10/5 391/7/5 393/5/5
f 392/8/6 388/20/6 390/12/6
f 397/2/51 398/4/51 396/1/51
f 401/5/2 402/6/2 398/4/2
f 399/7/52 400/8/52 402/6/52
f 399/7/4 395/9/4 396/14/4
f 395/10/5 399/7/5 401/5/5
f 400/8/6 396/20/6 398/12/6
f 406/7/52 418/18/52 417/15/52
f 406/7/4 410/9/4 415/16/4
f 415/17/6 416/19/6 417/15/6
f 410/10/5 406/7/5 404/5/5
f 403/10/5 407/7/5 409/5/5
f 411/17/6 412/19/6 413/15/6
f 407/7/4 403/9/4 411/16/4
f 407/7/52 414/18/52 413/15/52
f 409/5/2 413/15/2 412/19/2
f 405/2/51 412/19/51 411/17/51
f 404/5/2 417/15/2 416/19/2
f 408/2/51 416/19/51 415/17/51
f 421/2/3 422/4/3 420/1/3
f 425/5/2 426/6/2 422/4/2
f 423/7/1 424/8/1 426/6/1
f 419/9/4 420/14/4 424/8/4
f 419/10/5 423/7/5 425/5/5
f 424/8/6 420/20/6 422/12/6
f 429/2/3 430/4/3 428/1/3
f 433/5/2 434/6/2 430/4/2
f 431/7/1 432/8/1 434/6/1
f 427/9/4 428/14/4 432/8/4
f 427/10/5 431/7/5 433/5/5
f 432/8/6 428/20/6 430/12/6
f 437/2/3 438/4/3 436/1/3
f 441/5/2 442/6/2 438/4/2
f 439/7/1 440/8/1 442/6/1
f 435/9/4 436/14/4 440/8/4
f 435/10/5 439/7/5 441/5/5
f 440/8/6 436/20/6 438/12/6
f 445/2/3 446/4/3 444/1/3
f 449/5/2 450/6/2 446/4/2
f 447/7/1 448/8/1 450/6/1
f 443/9/4 444/14/4 448/8/4
f 443/10/5 447/7/5 449/5/5
f 448/8/6 444/20/6 446/12/6
f 452/1/1 454/4/1 453/2/1
f 454/4/2 458/6/2 457/5/2
f 458/6/3 456/8/3 455/7/3
f 456/8/4 452/14/4 451/9/4
f 457/5/5 455/7/5 451/10/5
f 454/12/6 452/20/6 456/8/6
f 224/13/59 462/13/59 459/13/59
f 221/13/4 459/13/4 460/13/4
f 222/13/60 460/13/60 461/13/60
f 462/13/39 466/13/39 463/13/39
f 459/13/4 463/13/4 464/13/4
f 460/13/33 464/13/33 465/13/33
f 463/13/4 467/13/4 468/13/4
f 464/13/34 468/13/34 469/13/34
f 466/13/40 470/13/40 467/13/40
f 470/13/41 474/13/41 471/13/41
f 468/13/4 467/13/4 471/13/4
f 468/13/35 472/13/35 473/13/35
f 472/13/4 471/13/4 475/13/4
f 472/13/36 476/13/36 477/13/36
f 474/13/42 478/13/42 475/13/42
f 478/13/54 482/13/54 479/13/54
f 476/13/55 480/13/55 481/13/55
f 475/13/4 479/13/4 480/13/4
f 482/13/56 481/13/56 480/13/56
f 485/2/3 486/4/3 484/1/3
f 255/5/2 256/6/2 486/4/2
f 483/9/4 484/14/4 254/8/4
f 483/10/5 253/7/5 255/5/5
f 254/8/6 484/20/6 486/12/6
f 3/2/1 4/4/1 488/1/1
f 489/7/3 490/8/3 8/6/3
f 487/9/2 488/14/2 490/8/2
f 487/10/5 489/7/5 7/5/5
f 490/8/6 488/20/6 4/12/6
f 11/2/1 12/4/1 492/1/1
f 493/7/3 494/8/3 16/6/3
f 491/9/2 492/14/2 494/8/2
f 491/10/5 493/7/5 15/5/5
f 494/8/6 492/20/6 12/12/6
f 497/2/1 498/4/1 496/1/1
f 501/5/4 502/6/4 498/4/4
f 499/7/3 500/8/3 502/6/3
f 495/9/2 496/14/2 500/8/2
f 495/10/5 499/7/5 501/5/5
f 500/8/6 496/20/6 498/12/6
f 27/2/1 28/4/1 504/1/1
f 505/7/3 506/8/3 32/6/3
f 503/9/2 504/14/2 506/8/2
f 503/10/5 505/7/5 31/5/5
f 506/8/6 504/20/6 28/12/6
f 35/2/1 36/4/1 508/1/1
f 509/7/3 510/8/3 40/6/3
f 507/9/2 508/14/2 510/8/2
f 507/10/5 509/7/5 39/5/5
f 510/8/6 508/20/6 36/12/6
f 511/13/7 513/13/7 514/13/7
f 513/13/8 515/13/8 516/13/8
f 515/13/9 517/13/9 518/13/9
f 517/13/10 519/13/10 520/13/10
f 519/13/11 521/13/11 522/13/11
f 525/13/12 523/13/12 524/13/12
f 521/13/12 525/13/12 526/13/12
f 57/13/12 58/13/12 526/13/12
f 529/13/13 530/13/13 528/13/13
f 531/13/14 532/13/14 530/13/14
f 533/13/15 534/13/15 532/13/15
f 535/13/16 536/13/16 534/13/16
f 537/13/17 538/13/17 536/13/17
f 539/13/18 540/13/18 541/13/18
f 542/13/19 541/13/19 538/13/19
f 542/13/18 76/13/18 75/13/18
f 58/13/20 76/13/20 542/13/20
f 512/13/4 514/13/4 529/13/4
f 525/13/2 521/13/2 538/13/2
f 511/13/2 528/13/2 530/13/2
f 526/13/4 542/13/4 537/13/4
f 520/13/4 535/13/4 533/13/4
f 525/13/2 541/13/2 540/13/2
f 517/13/2 534/13/2 536/13/2
f 513/13/2 530/13/2 532/13/2
f 516/13/4 531/13/4 529/13/4
f 519/13/2 536/13/2 538/13/2
f 512/13/21 527/13/21 528/13/21
f 520/13/4 522/13/4 537/13/4
f 517/13/2 515/13/2 532/13/2
f 524/13/22 539/13/22 75/13/22
f 523/13/22 540/13/22 539/13/22
f 518/13/4 533/13/4 531/13/4
f 545/2/1 546/4/1 544/1/1
f 549/5/4 550/6/4 546/4/4
f 547/7/3 548/8/3 550/6/3
f 547/7/2 543/9/2 544/14/2
f 543/10/5 547/7/5 549/5/5
f 548/8/23 544/20/23 546/12/23
f 553/2/1 554/4/1 552/1/1
f 557/5/4 558/6/4 554/4/4
f 555/7/3 556/8/3 558/6/3
f 551/9/2 552/14/2 556/8/2
f 551/10/5 555/7/5 557/5/5
f 556/8/6 552/20/6 554/12/6
f 561/2/1 562/4/1 560/1/1
f 565/5/4 566/6/4 562/4/4
f 563/7/3 564/8/3 566/6/3
f 559/9/2 560/14/2 564/8/2
f 559/10/5 563/7/5 565/5/5
f 564/8/6 560/20/6 562/12/6
f 569/2/1 570/4/1 568/1/1
f 573/5/4 574/6/4 570/4/4
f 571/7/3 572/8/3 574/6/3
f 567/9/2 568/14/2 572/8/2
f 567/10/5 571/7/5 573/5/5
f 572/8/6 568/20/6 570/12/6
f 577/2/1 578/4/1 576/1/1
f 581/5/4 582/6/4 578/4/4
f 579/7/3 580/8/3 582/6/3
f 575/9/2 576/14/2 580/8/2
f 575/10/5 579/7/5 581/5/5
f 580/8/6 576/20/6 578/12/6
f 585/2/24 586/4/24 584/1/24
f 589/5/4 590/6/4 586/4/4
f 587/7/3 588/8/3 590/6/3
f 587/7/2 583/9/2 584/14/2
f 583/10/5 587/7/5 589/5/5
f 588/8/6 584/20/6 586/12/6
f 593/2/1 594/4/1 592/1/1
f 597/5/4 598/6/4 594/4/4
f 595/7/3 596/8/3 598/6/3
f 591/9/2 592/14/2 596/8/2
f 591/10/5 595/7/5 597/5/5
f 596/8/6 592/20/6 594/12/6
f 601/2/1 602/4/1 600/1/1
f 605/5/4 606/6/4 602/4/4
f 603/7/3 604/8/3 606/6/3
f 599/9/2 600/14/2 604/8/2
f 599/10/5 603/7/5 605/5/5
f 604/8/6 600/20/6 602/12/6
f 609/2/1 610/4/1 608/1/1
f 613/5/4 614/6/4 610/4/4
f 611/7/3 612/8/3 614/6/3
f 611/7/2 607/9/2 608/14/2
f 607/10/5 611/7/5 613/5/5
f 612/8/25 608/20/25 610/12/25
f 617/2/26 618/4/26 616/1/26
f 621/5/4 622/6/4 618/4/4
f 619/7/27 620/8/27 622/6/27
f 619/7/2 615/9/2 616/14/2
f 615/10/5 619/7/5 621/5/5
f 620/8/6 616/20/6 618/12/6
f 159/2/26 160/4/26 624/1/26
f 625/7/27 626/8/27 164/6/27
f 625/7/2 623/9/2 624/14/2
f 623/10/5 625/7/5 163/5/5
f 626/8/6 624/20/6 160/12/6
f 630/7/27 642/18/27 641/15/27
f 630/7/2 634/9/2 639/16/2
f 639/17/6 640/19/6 641/15/6
f 634/10/5 630/7/5 628/5/5
f 627/10/5 631/7/5 633/5/5
f 635/17/6 636/19/6 637/15/6
f 631/7/2 627/9/2 635/16/2
f 631/7/27 638/18/27 637/15/27
f 633/5/4 637/15/4 636/19/4
f 629/2/26 636/19/26 635/17/26
f 628/5/4 641/15/4 640/19/4
f 632/2/26 640/19/26 639/17/26
f 645/2/1 646/4/1 644/1/1
f 649/5/4 650/6/4 646/4/4
f 647/7/3 648/8/3 650/6/3
f 643/9/2 644/14/2 648/8/2
f 643/10/5 647/7/5 649/5/5
f 648/8/6 644/20/6 646/12/6
f 191/2/1 192/4/1 652/1/1
f 653/7/3 654/8/3 196/6/3
f 651/9/2 652/14/2 654/8/2
f 651/10/5 653/7/5 195/5/5
f 654/8/6 652/20/6 192/12/6
f 657/2/1 658/4/1 656/1/1
f 661/5/4 662/6/4 658/4/4
f 659/7/3 660/8/3 662/6/3
f 655/9/2 656/14/2 660/8/2
f 655/10/5 659/7/5 661/5/5
f 660/8/6 656/20/6 658/12/6
f 665/2/1 666/4/1 664/1/1
f 669/5/4 670/6/4 666/4/4
f 667/7/3 668/8/3 670/6/3
f 663/9/2 664/14/2 668/8/2
f 663/10/5 667/7/5 669/5/5
f 668/8/6 664/20/6 666/12/6
f 672/1/3 674/4/3 673/2/3
f 674/4/4 678/6/4 677/5/4
f 678/6/1 676/8/1 675/7/1
f 676/8/2 672/14/2 671/9/2
f 677/5/5 675/7/5 671/10/5
f 674/12/6 672/20/6 676/8/6
f 224/13/57 228/13/57 681/13/57
f 679/13/2 681/13/2 682/13/2
f 680/13/58 682/13/58 227/13/58
f 228/13/14 232/13/14 683/13/14
f 681/13/2 683/13/2 684/13/2
f 682/13/8 684/13/8 231/13/8
f 683/13/2 685/13/2 686/13/2
f 684/13/9 686/13/9 235/13/9
f 232/13/15 236/13/15 685/13/15
f 236/13/16 240/13/16 687/13/16
f 686/13/2 685/13/2 687/13/2
f 686/13/10 688/13/10 239/13/10
f 688/13/2 687/13/2 689/13/2
f 688/13/11 690/13/11 243/13/11
f 240/13/17 244/13/17 689/13/17
f 244/13/29 248/13/29 691/13/29
f 690/13/30 692/13/30 247/13/30
f 689/13/2 691/13/2 692/13/2
f 248/13/31 247/13/31 692/13/31
f 695/2/1 696/4/1 694/1/1
f 699/5/4 700/6/4 696/4/4
f 697/7/3 698/8/3 700/6/3
f 693/9/2 694/14/2 698/8/2
f 693/10/5 697/7/5 699/5/5
f 698/8/6 694/20/6 696/12/6
f 702/1/3 260/4/3 259/2/3
f 490/8/2 702/14/2 701/9/2
f 7/5/5 489/7/5 701/10/5
f 260/12/6 702/20/6 490/8/6
f 704/1/3 264/4/3 263/2/3
f 268/6/1 706/8/1 705/7/1
f 706/8/2 704/14/2 703/9/2
f 267/5/5 705/7/5 703/10/5
f 264/12/6 704/20/6 706/8/6
f 708/1/3 710/4/3 709/2/3
f 710/4/4 714/6/4 713/5/4
f 714/6/1 712/8/1 711/7/1
f 712/8/2 708/14/2 707/9/2
f 713/5/5 711/7/5 707/10/5
f 710/12/6 708/20/6 712/8/6
f 716/1/3 280/4/3 279/2/3
f 284/6/1 718/8/1 717/7/1
f 718/8/2 716/14/2 715/9/2
f 283/5/5 717/7/5 715/10/5
f 280/12/6 716/20/6 718/8/6
f 720/1/3 288/4/3 287/2/3
f 292/6/1 722/8/1 721/7/1
f 722/8/2 720/14/2 719/9/2
f 291/5/5 721/7/5 719/10/5
f 288/12/6 720/20/6 722/8/6
f 724/13/32 723/13/32 511/13/32
f 726/13/33 725/13/33 723/13/33
f 728/13/34 727/13/34 725/13/34
f 730/13/35 729/13/35 727/13/35
f 732/13/36 731/13/36 729/13/36
f 734/13/37 733/13/37 735/13/37
f 736/13/37 735/13/37 731/13/37
f 736/13/37 308/13/37 307/13/37
f 738/13/38 740/13/38 739/13/38
f 740/13/39 742/13/39 741/13/39
f 742/13/40 744/13/40 743/13/40
f 744/13/41 746/13/41 745/13/41
f 746/13/42 748/13/42 747/13/42
f 751/13/43 750/13/43 749/13/43
f 748/13/44 751/13/44 752/13/44
f 325/13/43 326/13/43 752/13/43
f 752/13/45 326/13/45 308/13/45
f 512/13/4 737/13/4 739/13/4
f 735/13/2 751/13/2 748/13/2
f 740/13/2 738/13/2 511/13/2
f 747/13/4 752/13/4 736/13/4
f 743/13/4 745/13/4 730/13/4
f 750/13/2 751/13/2 735/13/2
f 746/13/2 744/13/2 727/13/2
f 742/13/2 740/13/2 723/13/2
f 739/13/4 741/13/4 726/13/4
f 748/13/2 746/13/2 729/13/2
f 738/13/46 737/13/46 512/13/46
f 730/13/4 745/13/4 747/13/4
f 727/13/2 744/13/2 742/13/2
f 325/13/47 749/13/47 734/13/47
f 749/13/47 750/13/47 733/13/47
f 741/13/4 743/13/4 728/13/4
f 754/1/3 756/4/3 755/2/3
f 756/4/4 760/6/4 759/5/4
f 760/6/1 758/8/1 757/7/1
f 757/7/2 758/8/2 754/14/2
f 759/5/5 757/7/5 753/10/5
f 756/12/48 754/20/48 758/8/48
f 762/1/3 764/4/3 763/2/3
f 764/4/4 768/6/4 767/5/4
f 768/6/1 766/8/1 765/7/1
f 766/8/2 762/14/2 761/9/2
f 767/5/5 765/7/5 761/10/5
f 764/12/6 762/20/6 766/8/6
f 770/1/3 772/4/3 771/2/3
f 772/4/4 776/6/4 775/5/4
f 776/6/1 774/8/1 773/7/1
f 774/8/2 770/14/2 769/9/2
f 775/5/5 773/7/5 769/10/5
f 772/12/6 770/20/6 774/8/6
f 778/1/3 780/4/3 779/2/3
f 780/4/4 784/6/4 783/5/4
f 784/6/1 782/8/1 781/7/1
f 782/8/2 778/14/2 777/9/2
f 783/5/5 781/7/5 777/10/5
f 780/12/6 778/20/6 782/8/6
f 786/1/3 788/4/3 787/2/3
f 788/4/4 582/6/4 581/5/4
f 580/8/2 786/14/2 785/9/2
f 581/5/5 579/7/5 785/10/5
f 788/12/6 786/20/6 580/8/6
f 790/1/49 792/4/49 791/2/49
f 792/4/4 796/6/4 795/5/4
f 796/6/1 794/8/1 793/7/1
f 793/7/2 794/8/2 790/14/2
f 795/5/5 793/7/5 789/10/5
f 792/12/6 790/20/6 794/8/6
f 798/1/3 800/4/3 799/2/3
f 800/4/4 598/6/4 597/5/4
f 596/8/2 798/14/2 797/9/2
f 597/5/5 595/7/5 797/10/5
f 800/12/6 798/20/6 596/8/6
f 802/1/3 804/4/3 803/2/3
f 804/4/4 808/6/4 807/5/4
f 808/6/1 806/8/1 805/7/1
f 806/8/2 802/14/2 801/9/2
f 807/5/5 805/7/5 801/10/5
f 804/12/6 802/20/6 806/8/6
f 810/1/3 812/4/3 811/2/3
f 812/4/4 614/6/4 613/5/4
f 611/7/2 612/8/2 810/14/2
f 613/5/5 611/7/5 809/10/5
f 812/12/50 810/20/50 612/8/50
f 814/1/51 816/4/51 815/2/51
f 816/4/4 820/6/4 819/5/4
f 820/6/52 818/8/52 817/7/52
f 817/7/2 818/8/2 814/14/2
f 819/5/5 817/7/5 813/10/5
f 816/12/6 814/20/6 818/8/6
f 822/1/51 398/4/51 397/2/51
f 402/6/52 824/8/52 823/7/52
f 823/7/2 824/8/2 822/14/2
f 401/5/5 823/7/5 821/10/5
f 398/12/6 822/20/6 824/8/6
f 839/15/52 840/18/52 828/7/52
f 828/7/2 840/18/2 837/16/2
f 839/15/6 838/19/6 837/17/6
f 826/5/5 828/7/5 832/10/5
f 831/5/5 829/7/5 825/10/5
f 835/15/6 834/19/6 833/17/6
f 829/7/2 836/18/2 833/16/2
f 835/15/52 836/18/52 829/7/52
f 834/19/4 835/15/4 831/5/4
f 833/17/51 834/19/51 827/2/51
f 838/19/4 839/15/4 826/5/4
f 837/17/51 838/19/51 830/2/51
f 842/1/3 844/4/3 843/2/3
f 844/4/4 848/6/4 847/5/4
f 848/6/1 846/8/1 845/7/1
f 846/8/2 842/14/2 841/9/2
f 847/5/5 845/7/5 841/10/5
f 844/12/6 842/20/6 846/8/6
f 850/1/3 430/4/3 429/2/3
f 434/6/1 852/8/1 851/7/1
f 852/8/2 850/14/2 849/9/2
f 433/5/5 851/7/5 849/10/5
f 430/12/6 850/20/6 852/8/6
f 854/1/3 856/4/3 855/2/3
f 856/4/4 860/6/4 859/5/4
f 860/6/1 858/8/1 857/7/1
f 858/8/2 854/14/2 853/9/2
f 859/5/5 857/7/5 853/10/5
f 856/12/6 854/20/6 858/8/6
f 862/1/3 864/4/3 863/2/3
f 864/4/4 868/6/4 867/5/4
f 868/6/1 866/8/1 865/7/1
f 866/8/2 862/14/2 861/9/2
f 867/5/5 865/7/5 861/10/5
f 864/12/6 862/20/6 866/8/6
f 871/2/1 872/4/1 870/1/1
f 875/5/4 876/6/4 872/4/4
f 873/7/3 874/8/3 876/6/3
f 869/9/2 870/14/2 874/8/2
f 869/10/5 873/7/5 875/5/5
f 874/8/6 870/20/6 872/12/6
f 877/13/59 462/13/59 224/13/59
f 878/13/2 877/13/2 679/13/2
f 461/13/60 878/13/60 680/13/60
f 879/13/39 466/13/39 462/13/39
f 880/13/2 879/13/2 877/13/2
f 465/13/33 880/13/33 878/13/33
f 882/13/2 881/13/2 879/13/2
f 469/13/34 882/13/34 880/13/34
f 881/13/40 470/13/40 466/13/40
f 883/13/41 474/13/41 470/13/41
f 882/13/2 884/13/2 883/13/2
f 473/13/35 884/13/35 882/13/35
f 884/13/2 886/13/2 885/13/2
f 477/13/36 886/13/36 884/13/36
f 885/13/42 478/13/42 474/13/42
f 887/13/54 482/13/54 478/13/54
f 481/13/55 888/13/55 886/13/55
f 888/13/2 887/13/2 885/13/2
f 888/13/56 481/13/56 482/13/56
f 890/1/3 892/4/3 891/2/3
f 892/4/4 700/6/4 699/5/4
f 698/8/2 890/14/2 889/9/2
f 699/5/5 697/7/5 889/10/5
f 892/12/6 890/20/6 698/8/6
o Collision.001
v -1.030000 1.300000 4.050000
v -1.030000 3.500000 4.050000
v -1.030000 1.300000 4.000000
v -1.030000 3.500000 4.000000
v -0.570000 1.300000 4.050000
v -0.570000 3.500000 4.050000
v -0.570000 1.300000 4.000000
v -0.570000 3.500000 4.000000
v -0.570000 1.300000 4.050000
v -0.570000 2.200000 4.050000
v -0.570000 1.300000 4.000000
v -0.570000 2.200000 4.000000
v 1.000000 1.300000 4.050000
v 1.000000 2.200000 4.050000
v 1.000000 1.300000 4.000000
v 1.000000 2.200000 4.000000
v -1.030000 3.587124 3.697141
v -1.030000 3.453568 4.031451
v -1.030000 3.633556 3.715691
v -1.030000 3.500001 4.050001
v -0.570000 3.587124 3.697141
v -0.570000 3.453568 4.031451
v -0.570000 3.633556 3.715691
v -0.570000 3.500001 4.050001
v -1.030000 1.300000 -4.050000
v -1.030000 3.500000 -4.050000
v -1.030000 1.300000 -4.000000
v -1.030000 3.500000 -4.000000
v -0.570000 1.300000 -4.050000
v -0.570000 3.500000 -4.050000
v -0.570000 1.300000 -4.000000
v -0.570000 3.500000 -4.000000
v -0.570000 1.300000 -4.050000
v -0.570000 2.200000 -4.050000
v -0.570000 1.300000 -4.000000
v -0.570000 2.200000 -4.000000
v 1.000000 1.300000 -4.050000
v 1.000000 2.200000 -4.050000
v 1.000000 1.300000 -4.000000
v 1.000000 2.200000 -4.000000
v -1.030000 3.587124 -3.697141
v -1.030000 3.453568 -4.031451
v -1.030000 3.633556 -3.715691
v -1.030000 3.500001 -4.050001
v -0.570000 3.587124 -3.697141
v -0.570000 3.453568 -4.031451
v -0.570000 3.633556 -3.715691
v -0.570000 3.500001 -4.050001
vn -1.0000 -0.0000 -0.0000
vn -0.0000 -0.0000 -1.0000
vn 1.0000 -0.0000 -0.0000
vn -0.0000 -0.0000 1.0000
vn -0.0000 -1.0000 -0.0000
vn -0.0000 1.0000 -0.0000
vn -0.0000 0.9286 0.3710
vn -0.0000 -0.9286 -0.3710
vn -0.0000 0.3710 -0.9286
vn -0.0000 -0.3710 0.9286
vn -0.0000 0.9286 -0.3710
vn -0.0000 -0.9286 0.3710
vn -0.0000 0.3710 0.9286
vn -0.0000 -0.3710 -0.9286
vt 0.625000 0.000000
vt 0.375000 0.250000
vt 0.375000 0.000000
vt 0.625000 0.250000
vt 0.375000 0.500000
vt 0.625000 0.500000
vt 0.375000 0.750000
vt 0.625000 0.750000
vt 0.375000 1.000000
vt 0.125000 0.750000
vt 0.125000 0.500000
vt 0.875000 0.500000
vt 0.625000 1.000000
vt 0.875000 0.750000
s 0
f 894/21/61 895/22/61 893/23/61
f 896/24/62 899/25/62 895/22/62
f 900/26/63 897/27/63 899/25/63
f 898/28/64 893/29/64 897/27/64
f 899/25/65 893/30/65 895/31/65
f 896/32/66 898/28/66 900/26/66
f 902/21/61 903/22/61 901/23/61
f 904/24/62 907/25/62 903/22/62
f 908/26/63 905/27/63 907/25/63
f 906/28/64 901/29/64 905/27/64
f 907/25/65 901/30/65 903/31/65
f 904/32/66 906/28/66 908/26/66
f 910/21/61 911/22/61 909/23/61
f 912/24/67 915/25/67 911/22/67
f 915/25/63 914/28/63 913/27/63
f 914/28/68 909/29/68 913/27/68
f 915/25/69 909/30/69 911/31/69
f 912/32/70 914/28/70 916/26/70
f 919/22/61 918/21/61 917/23/61
f 923/25/64 920/24/64 919/22/64
f 921/27/63 924/26/63 923/25/63
f 917/29/62 922/28/62 921/27/62
f 917/30/65 923/25/65 919/31/65
f 922/28/66 920/32/66 924/26/66
f 927/22/61 926/21/61 925/23/61
f 931/25/64 928/24/64 927/22/64
f 929/27/63 932/26/63 931/25/63
f 925/29/62 930/28/62 929/27/62
f 925/30/65 931/25/65 927/31/65
f 930/28/66 928/32/66 932/26/66
f 935/22/61 934/21/61 933/23/61
f 939/25/71 936/24/71 935/22/71
f 939/25/63 938/28/63 940/26/63
f 933/29/72 938/28/72 937/27/72
f 933/30/73 939/25/73 935/31/73
f 938/28/74 936/32/74 940/26/74
f 894/21/61 896/24/61 895/22/61
f 896/24/62 900/26/62 899/25/62
f 900/26/63 898/28/63 897/27/63
f 898/28/64 894/33/64 893/29/64
f 899/25/65 897/27/65 893/30/65
f 896/32/66 894/34/66 898/28/66
f 902/21/61 904/24/61 903/22/61
f 904/24/62 908/26/62 907/25/62
f 908/26/63 906/28/63 905/27/63
f 906/28/64 902/33/64 901/29/64
f 907/25/65 905/27/65 901/30/65
f 904/32/66 902/34/66 906/28/66
f 910/21/61 912/24/61 911/22/61
f 912/24/67 916/26/67 915/25/67
f 915/25/63 916/26/63 914/28/63
f 914/28/68 910/33/68 909/29/68
f 915/25/69 913/27/69 909/30/69
f 912/32/70 910/34/70 914/28/70
f 919/22/61 920/24/61 918/21/61
f 923/25/64 924/26/64 920/24/64
f 921/27/63 922/28/63 924/26/63
f 917/29/62 918/33/62 922/28/62
f 917/30/65 921/27/65 923/25/65
f 922/28/66 918/34/66 920/32/66
f 927/22/61 928/24/61 926/21/61
f 931/25/64 932/26/64 928/24/64
f 929/27/63 930/28/63 932/26/63
f 925/29/62 926/33/62 930/28/62
f 925/30/65 929/27/65 931/25/65
f 930/28/66 926/34/66 928/32/66
f 935/22/61 936/24/61 934/21/61
f 939/25/71 940/26/71 936/24/71
f 939/25/63 937/27/63 938/28/63
f 933/29/72 934/33/72 938/28/72
f 933/30/73 937/27/73 939/25/73
f 938/28/74 934/34/74 936/32/74
