# Blender 4.3.2
# www.blender.org
mtllib CaboseWindow02.mtl
g CaboseWindow02_Mesh
v 0.060000 0.520000 -0.150000
v 0.000000 0.040000 -0.150000
v 0.060000 0.520000 0.150000
v 0.000000 0.040000 0.150000
v 0.040000 0.520000 -0.150000
v -0.020000 0.040000 -0.150000
v 0.040000 0.520000 0.150000
v -0.020000 0.040000 0.150000
v 0.002481 0.059845 -0.130000
v 0.057519 0.500154 -0.130000
v 0.057519 0.500154 0.130000
v 0.002481 0.059845 0.130000
v -0.017519 0.059845 0.130000
v 0.037519 0.500154 0.130000
v 0.037519 0.500154 -0.130000
v -0.017519 0.059845 -0.130000
vn -0.0000 1.0000 -0.0000
vn -0.0000 -1.0000 -0.0000
vn -0.0000 -0.0000 1.0000
vn -0.0000 -0.0000 -1.0000
vn 0.9923 -0.1240 -0.0000
vn -0.9923 0.1240 -0.0000
vt 0.625000 0.000000
vt 0.375000 0.250000
vt 0.375000 0.000000
vt 0.625000 0.250000
vt 0.375000 0.500000
vt 0.625000 0.750000
vt 0.375000 0.750000
vt 0.385336 0.983333
vt 0.864664 0.516667
vt 0.614664 0.983333
vt 0.125000 0.750000
vt 0.125000 0.500000
vt 0.864664 0.733333
vt 0.614664 0.766667
vt 0.385336 0.766667
vt 0.625000 1.000000
vt 0.375000 1.000000
vt 0.875000 0.500000
vt 0.635336 0.516667
vt 0.625000 0.500000
vt 0.875000 0.750000
vt 0.635336 0.733333
s 0
f 5/1/1 3/2/1 1/3/1
f 2/4/2 8/5/2 6/2/2
f 4/5/3 7/6/3 8/7/3
f 12/8/4 14/9/4 11/10/4
f 5/5/4 2/11/4 6/12/4
f 11/10/2 15/13/2 10/14/2
f 1/6/5 9/15/5 2/7/5
f 3/16/5 10/14/5 1/6/5
f 4/17/5 11/10/5 3/16/5
f 2/7/5 12/8/5 4/17/5
f 7/18/6 13/19/6 8/20/6
f 5/21/6 14/9/6 7/18/6
f 6/6/6 15/13/6 5/21/6
f 8/20/6 16/22/6 6/6/6
f 9/15/1 13/19/1 12/8/1
f 9/15/3 15/13/3 16/22/3
f 5/1/1 7/4/1 3/2/1
f 2/4/2 4/20/2 8/5/2
f 4/5/3 3/20/3 7/6/3
f 12/8/4 13/19/4 14/9/4
f 5/5/4 1/7/4 2/11/4
f 11/10/2 14/9/2 15/13/2
f 1/6/5 10/14/5 9/15/5
f 3/16/5 11/10/5 10/14/5
f 4/17/5 12/8/5 11/10/5
f 2/7/5 9/15/5 12/8/5
f 7/18/6 14/9/6 13/19/6
f 5/21/6 15/13/6 14/9/6
f 6/6/6 16/22/6 15/13/6
f 8/20/6 13/19/6 16/22/6
f 9/15/1 16/22/1 13/19/1
f 9/15/3 10/14/3 15/13/3
