# Blender 4.3.2
# www.blender.org
mtllib CaboseWindow01.mtl
g CaboseWindow01_Mesh
v -0.050000 0.000000 0.300000
v -0.050000 0.800000 0.300000
v -0.050000 0.000000 -0.300000
v -0.050000 0.800000 -0.300000
v -0.020000 0.000000 0.300000
v -0.020000 0.800000 0.300000
v -0.020000 0.000000 -0.300000
v -0.020000 0.800000 -0.300000
v -0.050000 0.000000 0.000000
v -0.050000 0.800000 0.000000
v -0.020000 0.000000 0.000000
v -0.020000 0.800000 0.000000
v -0.050000 0.430000 0.300000
v -0.050000 0.430000 -0.300000
v -0.020000 0.430000 -0.300000
v -0.020000 0.430000 0.300000
v -0.020000 0.430000 0.000000
v -0.050000 0.430000 0.000000
v -0.050000 0.450000 -0.020000
v -0.050000 0.780000 -0.020000
v -0.050000 0.780000 -0.280000
v -0.050000 0.450000 -0.280000
v -0.020000 0.450000 0.020000
v -0.020000 0.780000 0.020000
v -0.020000 0.780000 0.280000
v -0.020000 0.450000 0.280000
v -0.020000 0.450000 -0.280000
v -0.020000 0.780000 -0.280000
v -0.020000 0.780000 -0.020000
v -0.020000 0.450000 -0.020000
v -0.050000 0.450000 0.280000
v -0.050000 0.780000 0.280000
v -0.050000 0.780000 0.020000
v -0.050000 0.450000 0.020000
v -0.050000 0.080000 0.280000
v -0.050000 0.080000 0.020000
v -0.020000 0.410000 -0.280000
v -0.020000 0.410000 -0.020000
v -0.020000 0.080000 0.020000
v -0.020000 0.410000 0.020000
v -0.020000 0.080000 0.280000
v -0.050000 0.080000 -0.020000
v -0.050000 0.410000 0.020000
v -0.050000 0.410000 0.280000
v -0.050000 0.410000 -0.020000
v -0.050000 0.410000 -0.280000
v -0.050000 0.080000 -0.280000
v -0.020000 0.080000 -0.280000
v -0.020000 0.410000 0.280000
v -0.020000 0.080000 -0.020000
vn -0.0000 -0.0000 -1.0000
vn -0.0000 -0.0000 1.0000
vn -0.0000 -1.0000 -0.0000
vn -0.0000 1.0000 -0.0000
vn -1.0000 -0.0000 -0.0000
vn 1.0000 -0.0000 -0.0000
vt 0.625000 0.250000
vt 0.500000 0.500000
vt 0.500000 0.250000
vt 0.625000 0.750000
vt 0.500000 1.000000
vt 0.500000 0.750000
vt 0.375000 0.625000
vt 0.125000 0.750000
vt 0.125000 0.625000
vt 0.875000 0.625000
vt 0.625000 0.625000
vt 0.875000 0.500000
vt 0.625000 0.500000
vt 0.375000 0.500000
vt 0.125000 0.500000
vt 0.375000 1.000000
vt 0.375000 0.750000
vt 0.375000 0.250000
vt 0.625000 0.125000
vt 0.506250 0.133333
vt 0.500000 0.125000
vt 0.618750 0.241667
vt 0.618750 0.133333
vt 0.506250 0.241667
vt 0.506250 0.633333
vt 0.500000 0.625000
vt 0.618750 0.741667
vt 0.618750 0.633333
vt 0.506250 0.741667
vt 0.506250 0.508333
vt 0.618750 0.508333
vt 0.618750 0.616667
vt 0.506250 0.616667
vt 0.625000 0.000000
vt 0.506250 0.008333
vt 0.500000 0.000000
vt 0.618750 0.008333
vt 0.618750 0.116667
vt 0.506250 0.116667
vt 0.381250 0.008333
vt 0.375000 0.000000
vt 0.493750 0.008333
vt 0.381250 0.116667
vt 0.493750 0.116667
vt 0.375000 0.125000
vt 0.381250 0.508333
vt 0.493750 0.508333
vt 0.381250 0.616667
vt 0.493750 0.616667
vt 0.381250 0.633333
vt 0.493750 0.741667
vt 0.493750 0.633333
vt 0.381250 0.741667
vt 0.381250 0.133333
vt 0.493750 0.133333
vt 0.381250 0.241667
vt 0.493750 0.241667
vt 0.625000 1.000000
vt 0.875000 0.750000
s 0
f 4/1/1 15/2/1 14/3/1
f 6/4/2 13/5/2 16/6/2
f 11/7/3 1/8/3 9/9/3
f 10/10/4 6/4/4 12/11/4
f 4/12/4 12/11/4 8/13/4
f 7/14/3 9/9/3 3/15/3
f 16/6/2 1/16/2 5/17/2
f 14/3/1 7/14/1 3/18/1
f 10/19/5 19/20/5 18/21/5
f 10/19/5 21/22/5 20/23/5
f 14/3/5 21/22/5 4/1/5
f 18/21/5 22/24/5 14/3/5
f 12/11/6 23/25/6 17/26/6
f 12/11/6 25/27/6 24/28/6
f 16/6/6 25/27/6 6/4/6
f 17/26/6 26/29/6 16/6/6
f 8/13/6 27/30/6 15/2/6
f 12/11/6 28/31/6 8/13/6
f 17/26/6 29/32/6 12/11/6
f 15/2/6 30/33/6 17/26/6
f 2/34/5 31/35/5 13/36/5
f 10/19/5 32/37/5 2/34/5
f 18/21/5 33/38/5 10/19/5
f 13/36/5 34/39/5 18/21/5
f 13/36/5 35/40/5 1/41/5
f 18/21/5 44/42/5 13/36/5
f 18/21/5 36/43/5 43/44/5
f 9/45/5 35/40/5 36/43/5
f 15/2/6 48/46/6 7/14/6
f 17/26/6 37/47/6 15/2/6
f 17/26/6 50/48/6 38/49/6
f 11/7/6 48/46/6 50/48/6
f 17/26/6 39/50/6 11/7/6
f 17/26/6 49/51/6 40/52/6
f 16/6/6 41/53/6 49/51/6
f 11/7/6 41/53/6 5/17/6
f 18/21/5 42/54/5 9/45/5
f 14/3/5 45/55/5 18/21/5
f 14/3/5 47/56/5 46/57/5
f 9/45/5 47/56/5 3/18/5
f 25/27/3 33/38/3 24/28/3
f 24/28/2 34/39/2 23/25/2
f 26/29/1 32/37/1 25/27/1
f 34/39/4 26/29/4 23/25/4
f 30/33/4 22/24/4 19/20/4
f 20/23/1 30/33/1 19/20/1
f 21/22/3 29/32/3 20/23/3
f 27/30/2 21/22/2 22/24/2
f 50/33/4 47/24/4 42/20/4
f 45/23/1 50/33/1 42/20/1
f 46/22/3 38/32/3 45/23/3
f 48/30/2 46/22/2 47/24/2
f 41/33/4 36/24/4 35/20/4
f 44/23/1 41/33/1 35/20/1
f 44/23/3 40/31/3 49/32/3
f 39/30/2 43/22/2 36/24/2
f 4/1/1 8/13/1 15/2/1
f 6/4/2 2/58/2 13/5/2
f 11/7/3 5/17/3 1/8/3
f 10/10/4 2/59/4 6/4/4
f 4/12/4 10/10/4 12/11/4
f 7/14/3 11/7/3 9/9/3
f 16/6/2 13/5/2 1/16/2
f 14/3/1 15/2/1 7/14/1
f 10/19/5 20/23/5 19/20/5
f 10/19/5 4/1/5 21/22/5
f 14/3/5 22/24/5 21/22/5
f 18/21/5 19/20/5 22/24/5
f 12/11/6 24/28/6 23/25/6
f 12/11/6 6/4/6 25/27/6
f 16/6/6 26/29/6 25/27/6
f 17/26/6 23/25/6 26/29/6
f 8/13/6 28/31/6 27/30/6
f 12/11/6 29/32/6 28/31/6
f 17/26/6 30/33/6 29/32/6
f 15/2/6 27/30/6 30/33/6
f 2/34/5 32/37/5 31/35/5
f 10/19/5 33/38/5 32/37/5
f 18/21/5 34/39/5 33/38/5
f 13/36/5 31/35/5 34/39/5
f 13/36/5 44/42/5 35/40/5
f 18/21/5 43/44/5 44/42/5
f 18/21/5 9/45/5 36/43/5
f 9/45/5 1/41/5 35/40/5
f 15/2/6 37/47/6 48/46/6
f 17/26/6 38/49/6 37/47/6
f 17/26/6 11/7/6 50/48/6
f 11/7/6 7/14/6 48/46/6
f 17/26/6 40/52/6 39/50/6
f 17/26/6 16/6/6 49/51/6
f 16/6/6 5/17/6 41/53/6
f 11/7/6 39/50/6 41/53/6
f 18/21/5 45/55/5 42/54/5
f 14/3/5 46/57/5 45/55/5
f 14/3/5 3/18/5 47/56/5
f 9/45/5 42/54/5 47/56/5
f 25/27/3 32/37/3 33/38/3
f 24/28/2 33/38/2 34/39/2
f 26/29/1 31/35/1 32/37/1
f 34/39/4 31/35/4 26/29/4
f 30/33/4 27/30/4 22/24/4
f 20/23/1 29/32/1 30/33/1
f 21/22/3 28/31/3 29/32/3
f 27/30/2 28/31/2 21/22/2
f 50/33/4 48/30/4 47/24/4
f 45/23/1 38/32/1 50/33/1
f 46/22/3 37/31/3 38/32/3
f 48/30/2 37/31/2 46/22/2
f 41/33/4 39/30/4 36/24/4
f 44/23/1 49/32/1 41/33/1
f 44/23/3 43/22/3 40/31/3
f 39/30/2 40/31/2 43/22/2
