# Blender 4.3.2
# www.blender.org
mtllib CaboseWindow03.mtl
g CaboseWindow03_Mesh
v 0.000000 0.470000 -0.020000
v 0.000000 -0.000000 -0.020000
v 0.350000 0.470000 -0.020000
v 0.350000 -0.000000 -0.020000
v 0.000000 0.470000 -0.000000
v 0.000000 -0.000000 -0.000000
v 0.350000 0.470000 -0.000000
v 0.350000 -0.000000 -0.000000
v 0.030000 0.040000 -0.020000
v 0.030000 0.430000 -0.020000
v 0.310000 0.430000 -0.020000
v 0.310000 0.040000 -0.020000
v 0.310000 0.040000 -0.000000
v 0.310000 0.430000 -0.000000
v 0.030000 0.430000 -0.000000
v 0.030000 0.040000 -0.000000
v 0.330000 0.245000 -0.025000
v 0.330000 0.245000 0.005000
v 0.338660 0.240000 -0.025000
v 0.338660 0.240000 0.005000
v 0.338660 0.230000 -0.025000
v 0.338660 0.230000 0.005000
v 0.330000 0.225000 -0.025000
v 0.330000 0.225000 0.005000
v 0.321340 0.230000 -0.025000
v 0.321340 0.230000 0.005000
v 0.321340 0.240000 -0.025000
v 0.321340 0.240000 0.005000
v 0.330000 0.250000 0.005000
v 0.330000 0.250000 0.015000
v 0.342990 0.242500 0.005000
v 0.342990 0.242500 0.015000
v 0.342990 0.227500 0.005000
v 0.342990 0.227500 0.015000
v 0.330000 0.220000 0.005000
v 0.330000 0.220000 0.015000
v 0.317010 0.227500 0.005000
v 0.317010 0.227500 0.015000
v 0.317010 0.242500 0.005000
v 0.317010 0.242500 0.015000
v 0.330000 0.250000 -0.035000
v 0.330000 0.250000 -0.025000
v 0.342990 0.242500 -0.035000
v 0.342990 0.242500 -0.025000
v 0.342990 0.227500 -0.035000
v 0.342990 0.227500 -0.025000
v 0.330000 0.220000 -0.035000
v 0.330000 0.220000 -0.025000
v 0.317010 0.227500 -0.035000
v 0.317010 0.227500 -0.025000
v 0.317010 0.242500 -0.035000
v 0.317010 0.242500 -0.025000
vn -0.0000 1.0000 -0.0000
vn -0.0000 -1.0000 -0.0000
vn 1.0000 -0.0000 -0.0000
vn -1.0000 -0.0000 -0.0000
vn -0.0000 -0.0000 -1.0000
vn -0.0000 -0.0000 1.0000
vn 0.5000 0.8660 -0.0000
vn 0.5000 -0.8660 -0.0000
vn -0.5000 -0.8660 -0.0000
vn -0.5000 0.8660 -0.0000
vt 0.625000 0.000000
vt 0.375000 0.250000
vt 0.375000 0.000000
vt 0.625000 0.250000
vt 0.375000 0.500000
vt 0.625000 0.500000
vt 0.375000 0.750000
vt 0.385336 0.983333
vt 0.864664 0.516667
vt 0.614664 0.983333
vt 0.125000 0.750000
vt 0.125000 0.500000
vt 0.614664 0.766667
vt 0.864664 0.733333
vt 0.625000 0.750000
vt 0.385336 0.766667
vt 0.625000 1.000000
vt 0.375000 1.000000
vt 0.875000 0.500000
vt 0.635336 0.516667
vt 0.875000 0.750000
vt 0.635336 0.733333
vt 1.000000 1.000000
vt 0.833333 0.500000
vt 1.000000 0.500000
vt 0.833333 1.000000
vt 0.666667 0.500000
vt 0.666667 1.000000
vt 0.500000 0.500000
vt 0.500000 1.000000
vt 0.333333 0.500000
vt 0.333333 1.000000
vt 0.166667 0.500000
vt 0.166667 1.000000
vt -0.000000 0.500000
vt 0.250000 0.490000
vt 0.042154 0.130000
vt 0.457846 0.130000
vt 0.957846 0.370000
vt 0.750000 0.010000
vt 0.542154 0.370000
vt -0.000000 1.000000
vt 0.457846 0.370000
vt 0.042154 0.370000
vt 0.250000 0.010000
vt 0.750000 0.490000
vt 0.957846 0.130000
vt 0.542154 0.130000
s 0
f 5/1/1 3/2/1 1/3/1
f 2/4/2 8/5/2 6/2/2
f 3/6/3 8/7/3 4/5/3
f 12/8/4 14/9/4 11/10/4
f 5/5/4 2/11/4 6/12/4
f 10/13/2 14/9/2 15/14/2
f 1/15/5 9/16/5 2/7/5
f 1/15/5 11/10/5 10/13/5
f 3/17/5 12/8/5 11/10/5
f 2/7/5 12/8/5 4/18/5
f 7/19/6 13/20/6 8/6/6
f 5/21/6 14/9/6 7/19/6
f 5/21/6 16/22/6 15/14/6
f 6/15/6 13/20/6 16/22/6
f 9/16/1 13/20/1 12/8/1
f 10/13/3 16/22/3 9/16/3
f 18/23/7 19/24/7 17/25/7
f 20/26/3 21/27/3 19/24/3
f 22/28/8 23/29/8 21/27/8
f 24/30/9 25/31/9 23/29/9
f 26/32/4 27/33/4 25/31/4
f 28/34/10 17/35/10 27/33/10
f 30/23/7 31/24/7 29/25/7
f 32/26/3 33/27/3 31/24/3
f 34/28/8 35/29/8 33/27/8
f 36/30/9 37/31/9 35/29/9
f 30/36/6 38/37/6 34/38/6
f 38/32/4 39/33/4 37/31/4
f 40/34/10 29/35/10 39/33/10
f 31/39/5 35/40/5 39/41/5
f 42/23/7 43/24/7 41/25/7
f 44/26/3 45/27/3 43/24/3
f 46/28/8 47/29/8 45/27/8
f 48/30/9 49/31/9 47/29/9
f 42/36/6 50/37/6 46/38/6
f 50/32/4 51/33/4 49/31/4
f 52/34/10 41/35/10 51/33/10
f 43/39/5 47/40/5 51/41/5
f 5/1/1 7/4/1 3/2/1
f 2/4/2 4/6/2 8/5/2
f 3/6/3 7/15/3 8/7/3
f 12/8/4 13/20/4 14/9/4
f 5/5/4 1/7/4 2/11/4
f 10/13/2 11/10/2 14/9/2
f 1/15/5 10/13/5 9/16/5
f 1/15/5 3/17/5 11/10/5
f 3/17/5 4/18/5 12/8/5
f 2/7/5 9/16/5 12/8/5
f 7/19/6 14/9/6 13/20/6
f 5/21/6 15/14/6 14/9/6
f 5/21/6 6/15/6 16/22/6
f 6/15/6 8/6/6 13/20/6
f 9/16/1 16/22/1 13/20/1
f 10/13/3 15/14/3 16/22/3
f 18/23/7 20/26/7 19/24/7
f 20/26/3 22/28/3 21/27/3
f 22/28/8 24/30/8 23/29/8
f 24/30/9 26/32/9 25/31/9
f 26/32/4 28/34/4 27/33/4
f 28/34/10 18/42/10 17/35/10
f 30/23/7 32/26/7 31/24/7
f 32/26/3 34/28/3 33/27/3
f 34/28/8 36/30/8 35/29/8
f 36/30/9 38/32/9 37/31/9
f 34/38/6 32/43/6 30/36/6
f 30/36/6 40/44/6 38/37/6
f 38/37/6 36/45/6 34/38/6
f 38/32/4 40/34/4 39/33/4
f 40/34/10 30/42/10 29/35/10
f 39/41/5 29/46/5 31/39/5
f 31/39/5 33/47/5 35/40/5
f 35/40/5 37/48/5 39/41/5
f 42/23/7 44/26/7 43/24/7
f 44/26/3 46/28/3 45/27/3
f 46/28/8 48/30/8 47/29/8
f 48/30/9 50/32/9 49/31/9
f 46/38/6 44/43/6 42/36/6
f 42/36/6 52/44/6 50/37/6
f 50/37/6 48/45/6 46/38/6
f 50/32/4 52/34/4 51/33/4
f 52/34/10 42/42/10 41/35/10
f 51/41/5 41/46/5 43/39/5
f 43/39/5 45/47/5 47/40/5
f 47/40/5 49/48/5 51/41/5
