# Blender 4.3.2
# www.blender.org
mtllib CaboseDoor01.mtl
g CaboseDoor01_Mesh
v 0.000000 0.000000 0.000000
v 0.000000 2.050000 0.000000
v 0.000000 0.000000 -0.040000
v 0.000000 2.050000 -0.040000
v 0.600000 0.000000 0.000000
v 0.600000 2.050000 0.000000
v 0.600000 0.000000 -0.040000
v 0.600000 2.050000 -0.040000
v 0.000000 0.870000 0.000000
v 0.000000 0.870000 -0.040000
v 0.600000 0.870000 -0.040000
v 0.600000 0.870000 0.000000
v 0.000000 1.420000 0.000000
v 0.000000 1.420000 -0.040000
v 0.600000 1.420000 -0.040000
v 0.600000 1.420000 0.000000
v 0.100000 1.420000 -0.040000
v 0.100000 1.950000 -0.040000
v 0.500000 1.950000 -0.040000
v 0.500000 1.420000 -0.040000
v 0.500000 1.420000 0.000000
v 0.500000 1.950000 0.000000
v 0.100000 1.950000 0.000000
v 0.100000 1.420000 0.000000
v 0.500000 0.020000 0.000000
v 0.500000 0.850000 0.000000
v 0.100000 0.850000 0.000000
v 0.100000 0.020000 0.000000
v 0.100000 0.020000 -0.040000
v 0.100000 0.850000 -0.040000
v 0.500000 0.850000 -0.040000
v 0.500000 0.020000 -0.040000
v 0.500000 0.890000 0.000000
v 0.090000 1.950000 -0.050000
v 0.090000 1.980000 0.010000
v 0.100000 0.890000 0.000000
v 0.100000 0.890000 -0.040000
v 0.090000 1.950000 0.010000
v 0.090000 1.980000 -0.050000
v 0.500000 0.890000 -0.040000
v 0.495000 0.839625 -0.004000
v 0.495000 0.030375 -0.004000
v 0.105000 0.030375 -0.004000
v 0.105000 0.839625 -0.004000
v 0.105000 0.839625 -0.036000
v 0.105000 0.030375 -0.036000
v 0.495000 0.030375 -0.036000
v 0.495000 0.839625 -0.036000
v 0.090000 0.890000 0.010000
v 0.090000 1.950000 0.010000
v 0.090000 0.890000 -0.050000
v 0.090000 1.950000 -0.050000
v 0.110000 0.890000 0.010000
v 0.110000 1.950000 0.010000
v 0.110000 0.890000 -0.050000
v 0.110000 1.950000 -0.050000
v 0.490000 0.890000 0.010000
v 0.490000 1.950000 0.010000
v 0.490000 0.890000 -0.050000
v 0.490000 1.950000 -0.050000
v 0.510000 0.890000 0.010000
v 0.510000 1.950000 0.010000
v 0.510000 0.890000 -0.050000
v 0.510000 1.950000 -0.050000
v 0.080000 0.860000 0.020000
v 0.080000 0.890000 0.020000
v 0.080000 0.860000 -0.060000
v 0.080000 0.890000 -0.060000
v 0.520000 0.860000 0.020000
v 0.520000 0.890000 0.020000
v 0.520000 0.860000 -0.060000
v 0.520000 0.890000 -0.060000
v 0.110000 1.400000 0.000000
v 0.110000 1.440000 0.000000
v 0.110000 1.400000 -0.040000
v 0.110000 1.440000 -0.040000
v 0.490000 1.400000 0.000000
v 0.490000 1.440000 0.000000
v 0.490000 1.400000 -0.040000
v 0.490000 1.440000 -0.040000
v 0.510000 1.950000 0.010000
v 0.510000 1.980000 0.010000
v 0.510000 1.950000 -0.050000
v 0.510000 1.980000 -0.050000
vn -1.0000 -0.0000 -0.0000
vn 1.0000 -0.0000 -0.0000
vn -0.0000 -1.0000 -0.0000
vn -0.0000 1.0000 -0.0000
vn -0.0000 0.3597 0.9331
vn 0.6247 -0.0000 0.7809
vn -0.0000 -0.0000 -1.0000
vn -0.0000 -0.0000 1.0000
vn -0.0000 -0.3597 -0.9331
vn 0.6247 -0.0000 -0.7809
vn -0.0000 -0.3597 0.9331
vn -0.6247 -0.0000 -0.7809
vn -0.6247 -0.0000 0.7809
vn -0.0000 0.3597 -0.9331
vt 0.625000 0.000000
vt 0.562500 0.250000
vt 0.562500 0.000000
vt 0.502273 0.258333
vt 0.560227 0.991667
vt 0.502273 0.991667
vt 0.625000 0.500000
vt 0.562500 0.750000
vt 0.562500 0.500000
vt 0.622727 0.991667
vt 0.564773 0.258333
vt 0.622727 0.258333
vt 0.375000 0.500000
vt 0.125000 0.750000
vt 0.125000 0.500000
vt 0.875000 0.500000
vt 0.625000 0.750000
vt 0.377632 0.758333
vt 0.377632 0.991667
vt 0.500000 0.500000
vt 0.375000 0.750000
vt 0.497368 0.991667
vt 0.500000 0.000000
vt 0.375000 0.250000
vt 0.375000 0.000000
vt 0.564773 0.758333
vt 0.622727 0.491667
vt 0.564773 0.491667
vt 0.500000 0.750000
vt 0.500000 0.250000
vt 0.625000 0.250000
vt 0.622727 0.758333
vt 0.625000 1.000000
vt 0.562500 1.000000
vt 0.375000 1.000000
vt 0.497368 0.758333
vt 0.500000 1.000000
vt 0.377632 0.258333
vt 0.497368 0.258333
vt 0.497368 0.491667
vt 0.377632 0.491667
vt 0.502273 0.758333
vt 0.502273 0.491667
vt 0.560227 0.491667
vt 0.560227 0.758333
vt 0.560227 0.258333
vt 0.564773 0.991667
vt 0.875000 0.750000
s 0
f 2/1/1 14/2/1 13/3/1
f 37/4/2 24/5/2 36/6/2
f 8/7/2 16/8/2 15/9/2
f 23/10/2 17/11/2 18/12/2
f 7/13/3 1/14/3 3/15/3
f 4/16/4 6/17/4 8/7/4
f 25/18/5 43/19/5 28/19/5
f 11/20/2 5/21/2 7/13/2
f 28/19/6 44/22/6 27/22/6
f 9/23/1 3/24/1 1/25/1
f 21/26/1 19/27/1 20/28/1
f 15/9/2 12/29/2 11/20/2
f 39/16/4 82/17/4 84/7/4
f 13/3/1 10/30/1 9/23/1
f 14/2/7 18/12/7 17/11/7
f 4/31/7 19/27/7 18/12/7
f 15/9/7 19/27/7 8/7/7
f 83/13/3 38/14/3 34/15/3
f 16/8/8 22/32/8 21/26/8
f 2/33/8 22/32/8 6/17/8
f 13/34/8 23/10/8 2/33/8
f 82/17/8 38/35/8 81/21/8
f 12/29/8 25/18/8 5/21/8
f 12/29/8 27/22/8 26/36/8
f 1/35/8 27/22/8 9/37/8
f 5/21/8 28/19/8 1/35/8
f 10/30/7 29/38/7 3/24/7
f 11/20/7 30/39/7 10/30/7
f 7/13/7 31/40/7 11/20/7
f 7/13/7 29/38/7 32/41/7
f 16/8/8 33/42/8 12/29/8
f 84/7/2 81/21/2 83/13/2
f 13/34/8 36/6/8 24/5/8
f 12/29/8 36/6/8 9/37/8
f 14/2/7 37/4/7 10/30/7
f 39/31/7 83/13/7 34/24/7
f 15/9/7 40/43/7 20/44/7
f 11/20/7 37/4/7 40/43/7
f 21/45/1 40/43/1 33/42/1
f 35/1/1 34/24/1 38/25/1
f 19/27/3 23/10/3 18/12/3
f 41/36/8 43/19/8 42/18/8
f 45/39/7 47/41/7 46/38/7
f 31/40/9 45/39/9 30/39/9
f 30/39/10 46/38/10 29/38/10
f 27/22/11 41/36/11 26/36/11
f 32/41/12 48/40/12 31/40/12
f 26/36/13 42/18/13 25/18/13
f 29/38/14 47/41/14 32/41/14
f 50/1/1 51/24/1 49/25/1
f 52/31/7 55/13/7 51/24/7
f 56/7/2 53/21/2 55/13/2
f 54/17/8 49/35/8 53/21/8
f 55/13/3 49/14/3 51/15/3
f 52/16/4 54/17/4 56/7/4
f 58/1/1 59/24/1 57/25/1
f 60/31/7 63/13/7 59/24/7
f 64/7/2 61/21/2 63/13/2
f 62/17/8 57/35/8 61/21/8
f 63/13/3 57/14/3 59/15/3
f 60/16/4 62/17/4 64/7/4
f 66/1/1 67/24/1 65/25/1
f 68/31/7 71/13/7 67/24/7
f 72/7/2 69/21/2 71/13/2
f 70/17/8 65/35/8 69/21/8
f 71/13/3 65/14/3 67/15/3
f 68/16/4 70/17/4 72/7/4
f 76/31/7 79/13/7 75/24/7
f 78/17/8 73/35/8 77/21/8
f 79/13/3 73/14/3 75/15/3
f 76/16/4 78/17/4 80/7/4
f 2/1/1 4/31/1 14/2/1
f 37/4/2 17/46/2 24/5/2
f 8/7/2 6/17/2 16/8/2
f 23/10/2 24/47/2 17/11/2
f 7/13/3 5/21/3 1/14/3
f 4/16/4 2/48/4 6/17/4
f 25/18/5 42/18/5 43/19/5
f 11/20/2 12/29/2 5/21/2
f 28/19/6 43/19/6 44/22/6
f 9/23/1 10/30/1 3/24/1
f 21/26/1 22/32/1 19/27/1
f 15/9/2 16/8/2 12/29/2
f 39/16/4 35/48/4 82/17/4
f 13/3/1 14/2/1 10/30/1
f 14/2/7 4/31/7 18/12/7
f 4/31/7 8/7/7 19/27/7
f 15/9/7 20/28/7 19/27/7
f 83/13/3 81/21/3 38/14/3
f 16/8/8 6/17/8 22/32/8
f 2/33/8 23/10/8 22/32/8
f 13/34/8 24/47/8 23/10/8
f 82/17/8 35/33/8 38/35/8
f 12/29/8 26/36/8 25/18/8
f 12/29/8 9/37/8 27/22/8
f 1/35/8 28/19/8 27/22/8
f 5/21/8 25/18/8 28/19/8
f 10/30/7 30/39/7 29/38/7
f 11/20/7 31/40/7 30/39/7
f 7/13/7 32/41/7 31/40/7
f 7/13/7 3/24/7 29/38/7
f 16/8/8 21/45/8 33/42/8
f 84/7/2 82/17/2 81/21/2
f 13/34/8 9/37/8 36/6/8
f 12/29/8 33/42/8 36/6/8
f 14/2/7 17/46/7 37/4/7
f 39/31/7 84/7/7 83/13/7
f 15/9/7 11/20/7 40/43/7
f 11/20/7 10/30/7 37/4/7
f 21/45/1 20/44/1 40/43/1
f 35/1/1 39/31/1 34/24/1
f 19/27/3 22/32/3 23/10/3
f 41/36/8 44/22/8 43/19/8
f 45/39/7 48/40/7 47/41/7
f 31/40/9 48/40/9 45/39/9
f 30/39/10 45/39/10 46/38/10
f 27/22/11 44/22/11 41/36/11
f 32/41/12 47/41/12 48/40/12
f 26/36/13 41/36/13 42/18/13
f 29/38/14 46/38/14 47/41/14
f 50/1/1 52/31/1 51/24/1
f 52/31/7 56/7/7 55/13/7
f 56/7/2 54/17/2 53/21/2
f 54/17/8 50/33/8 49/35/8
f 55/13/3 53/21/3 49/14/3
f 52/16/4 50/48/4 54/17/4
f 58/1/1 60/31/1 59/24/1
f 60/31/7 64/7/7 63/13/7
f 64/7/2 62/17/2 61/21/2
f 62/17/8 58/33/8 57/35/8
f 63/13/3 61/21/3 57/14/3
f 60/16/4 58/48/4 62/17/4
f 66/1/1 68/31/1 67/24/1
f 68/31/7 72/7/7 71/13/7
f 72/7/2 70/17/2 69/21/2
f 70/17/8 66/33/8 65/35/8
f 71/13/3 69/21/3 65/14/3
f 68/16/4 66/48/4 70/17/4
f 76/31/7 80/7/7 79/13/7
f 78/17/8 74/33/8 73/35/8
f 79/13/3 77/21/3 73/14/3
f 76/16/4 74/48/4 78/17/4
