# Blender 5.1.0
# www.blender.org
mtllib SentryGunHolder.mtl
o Cube.039
v -0.010000 0.010000 0.180000
v -0.010000 0.020000 0.180000
v -0.010000 0.010000 -0.090000
v -0.010000 0.020000 -0.090000
v 0.010000 0.010000 0.180000
v 0.010000 0.020000 0.180000
v 0.010000 0.010000 -0.090000
v 0.010000 0.020000 -0.090000
v 0.020000 0.030000 -0.090000
v 0.020000 0.020000 -0.090000
v 0.020000 0.020000 0.180000
v 0.020000 0.030000 0.180000
v -0.020000 0.020000 -0.090000
v -0.020000 0.020000 0.180000
v -0.020000 0.030000 0.180000
v -0.020000 0.030000 -0.090000
v 0.010000 0.010000 -0.090000
v -0.010000 0.010000 -0.090000
v -0.010000 0.020000 -0.090000
v 0.010000 0.020000 -0.090000
v -0.010000 0.010000 0.180000
v 0.010000 0.010000 0.180000
v 0.010000 0.020000 0.180000
v -0.010000 0.020000 0.180000
v 0.020000 0.030000 -0.090000
v 0.020000 0.030000 -0.090000
v 0.020000 0.020000 -0.090000
v 0.020000 0.030000 0.180000
v 0.020000 0.030000 0.180000
v 0.020000 0.020000 0.180000
v -0.020000 0.020000 0.180000
v -0.020000 0.030000 0.180000
v -0.020000 0.030000 0.180000
v -0.020000 0.030000 -0.090000
v -0.020000 0.030000 -0.090000
v -0.020000 0.020000 -0.090000
vn -0.0000 -0.0000 1.0000
vn 0.3827 0.9239 -0.0000
vn -0.0000 -0.0000 -1.0000
vn 0.3827 -0.9239 -0.0000
vn -0.3827 0.9239 -0.0000
vn -0.7071 0.7071 -0.0000
vn 0.7071 0.7071 -0.0000
vn -0.3827 -0.9239 -0.0000
vn 1.0000 -0.0000 -0.0000
vn 0.9239 -0.3827 -0.0000
vn -0.9239 -0.3827 -0.0000
vn -1.0000 -0.0000 -0.0000
vt 0.625000 0.250000
vt 0.375000 0.250000
vt 0.375000 0.500000
vt 0.625000 0.750000
vt 0.375000 0.750000
vt 0.375000 1.000000
vt 0.125000 0.750000
vt 0.125000 0.500000
vt 0.875000 0.500000
vt 0.625000 0.500000
vt 0.625000 0.000000
vt 0.375000 0.000000
vt 0.625000 1.000000
vt 0.875000 0.750000
s 1
f 4/1/3 13/2/3 35/1/3
f 4/1/3 17/3/3 3/2/3
f 6/4/1 11/5/1 29/4/1
f 6/4/1 1/6/1 5/5/1
f 7/3/4 21/7/8 18/8/8
f 19/9/2 23/4/5 8/10/5
f 25/10/9 30/5/10 27/3/10
f 7/3/4 30/5/10 22/5/4
f 23/4/5 26/10/6 8/10/5
f 20/10/3 10/3/3 17/3/3
f 32/11/12 36/2/11 31/12/11
f 24/13/1 14/6/1 1/6/1
f 19/9/2 15/14/7 2/14/2
f 21/7/8 36/8/11 18/8/8
f 4/1/3 3/2/3 13/2/3
f 4/1/3 20/10/3 17/3/3
f 6/4/1 5/5/1 11/5/1
f 6/4/1 24/13/1 1/6/1
f 7/3/4 22/5/4 21/7/8
f 19/9/2 2/14/2 23/4/5
f 25/10/9 28/4/9 30/5/10
f 7/3/4 27/3/10 30/5/10
f 23/4/5 12/4/6 26/10/6
f 20/10/3 9/10/3 10/3/3
f 32/11/12 34/1/12 36/2/11
f 24/13/1 33/13/1 14/6/1
f 19/9/2 16/9/7 15/14/7
f 21/7/8 31/7/11 36/8/11
