# Blender 5.1.0
# www.blender.org
mtllib SentryTop.mtl
o Cube.040
v 0.000000 0.550000 -0.040000
v 0.000000 0.590000 -0.040000
v 0.020000 0.550000 -0.034641
v 0.020000 0.590000 -0.034641
v 0.034641 0.550000 -0.020000
v 0.034641 0.590000 -0.020000
v 0.040000 0.550000 0.000000
v 0.040000 0.590000 0.000000
v 0.034641 0.550000 0.020000
v 0.034641 0.590000 0.020000
v 0.020000 0.550000 0.034641
v 0.020000 0.590000 0.034641
v 0.000000 0.550000 0.040000
v 0.000000 0.590000 0.040000
v -0.020000 0.550000 0.034641
v -0.020000 0.590000 0.034641
v -0.034641 0.550000 0.020000
v -0.034641 0.590000 0.020000
v -0.040000 0.550000 0.000000
v -0.040000 0.590000 0.000000
v -0.034641 0.550000 -0.020000
v -0.034641 0.590000 -0.020000
v -0.020000 0.550000 -0.034641
v -0.020000 0.590000 -0.034641
v -0.050000 0.600000 0.050000
v -0.050000 0.610000 0.050000
v -0.050000 0.600000 -0.050000
v -0.050000 0.610000 -0.050000
v 0.050000 0.600000 0.050000
v 0.050000 0.610000 0.050000
v 0.050000 0.600000 -0.050000
v 0.050000 0.610000 -0.050000
v 0.040000 0.600000 -0.050000
v -0.040000 0.600000 -0.050000
v -0.040000 0.610000 -0.050000
v 0.040000 0.610000 -0.050000
v -0.040000 0.600000 0.050000
v 0.040000 0.600000 0.050000
v 0.040000 0.610000 0.050000
v -0.040000 0.610000 0.050000
v -0.050000 0.700000 0.050000
v -0.050000 0.700000 -0.050000
v 0.040000 0.700000 -0.050000
v 0.050000 0.700000 -0.050000
v 0.050000 0.700000 0.050000
v -0.040000 0.700000 0.050000
v -0.040000 0.700000 -0.050000
v 0.040000 0.700000 0.050000
v -0.060000 0.650000 -0.020000
v 0.060000 0.650000 -0.020000
v -0.060000 0.640000 -0.017321
v 0.060000 0.640000 -0.017321
v -0.060000 0.632679 -0.010000
v 0.060000 0.632679 -0.010000
v -0.060000 0.630000 -0.000000
v 0.060000 0.630000 -0.000000
v -0.060000 0.632679 0.010000
v 0.060000 0.632679 0.010000
v -0.060000 0.640000 0.017320
v 0.060000 0.640000 0.017320
v -0.060000 0.650000 0.020000
v 0.060000 0.650000 0.020000
v -0.060000 0.660000 0.017320
v 0.060000 0.660000 0.017320
v -0.060000 0.667320 0.010000
v 0.060000 0.667320 0.010000
v -0.060000 0.670000 -0.000000
v 0.060000 0.670000 -0.000000
v -0.060000 0.667320 -0.010000
v 0.060000 0.667320 -0.010000
v -0.060000 0.660000 -0.017321
v 0.060000 0.660000 -0.017321
v 0.000000 0.590000 -0.050000
v 0.000000 0.600000 -0.050000
v 0.025000 0.590000 -0.043301
v 0.025000 0.600000 -0.043301
v 0.043301 0.590000 -0.025000
v 0.043301 0.600000 -0.025000
v 0.050000 0.590000 0.000000
v 0.050000 0.600000 0.000000
v 0.043301 0.590000 0.025000
v 0.043301 0.600000 0.025000
v 0.025000 0.590000 0.043301
v 0.025000 0.600000 0.043301
v 0.000000 0.590000 0.050000
v 0.000000 0.600000 0.050000
v -0.025000 0.590000 0.043301
v -0.025000 0.600000 0.043301
v -0.043301 0.590000 0.025000
v -0.043301 0.600000 0.025000
v -0.050000 0.590000 0.000000
v -0.050000 0.600000 0.000000
v -0.043301 0.590000 -0.025000
v -0.043301 0.600000 -0.025000
v -0.025000 0.590000 -0.043301
v -0.025000 0.600000 -0.043301
v 0.020000 0.730000 -0.050000
v 0.030000 0.730000 -0.050000
v 0.030000 0.730000 0.050000
v 0.020000 0.730000 0.050000
v -0.030000 0.730000 0.050000
v -0.030000 0.730000 -0.050000
v -0.020000 0.730000 0.050000
v -0.020000 0.730000 -0.050000
v 0.020000 0.820000 -0.020000
v 0.030000 0.820000 -0.020000
v 0.030000 0.820000 0.020000
v 0.020000 0.820000 0.020000
v -0.030000 0.820000 0.020000
v -0.030000 0.820000 -0.020000
v -0.020000 0.820000 0.020000
v -0.020000 0.820000 -0.020000
v -0.010000 0.570000 -0.150000
v -0.010000 0.630000 0.000000
v -0.010000 0.610000 -0.150000
v -0.010000 0.670000 0.000000
v 0.010000 0.570000 -0.150000
v 0.010000 0.630000 0.000000
v 0.010000 0.610000 -0.150000
v 0.010000 0.670000 0.000000
v -0.015000 0.590000 -0.170000
v 0.015000 0.590000 -0.170000
v -0.015000 0.580000 -0.167321
v 0.015000 0.580000 -0.167321
v -0.015000 0.572679 -0.160000
v 0.015000 0.572679 -0.160000
v -0.015000 0.570000 -0.150000
v 0.015000 0.570000 -0.150000
v -0.015000 0.572679 -0.140000
v 0.015000 0.572679 -0.140000
v -0.015000 0.580000 -0.132680
v 0.015000 0.580000 -0.132680
v -0.015000 0.590000 -0.130000
v 0.015000 0.590000 -0.130000
v -0.015000 0.600000 -0.132680
v 0.015000 0.600000 -0.132680
v -0.015000 0.607320 -0.140000
v 0.015000 0.607320 -0.140000
v -0.015000 0.610000 -0.150000
v 0.015000 0.610000 -0.150000
v -0.015000 0.607320 -0.160000
v 0.015000 0.607320 -0.160000
v -0.015000 0.600000 -0.167321
v 0.015000 0.600000 -0.167321
v 0.100000 0.600000 0.040000
v 0.106000 0.780000 0.034000
v 0.106000 0.780000 -0.034000
v 0.200000 0.600000 0.040000
v 0.194000 0.780000 0.034000
v 0.194000 0.780000 -0.034000
v 0.100000 0.690000 0.040000
v 0.100000 0.690000 -0.040000
v 0.200000 0.690000 -0.040000
v 0.200000 0.690000 0.040000
v 0.220000 0.610000 0.010000
v 0.220000 0.770000 0.010000
v 0.220000 0.610000 -0.010000
v 0.220000 0.770000 -0.010000
v 0.240000 0.610000 0.010000
v 0.240000 0.770000 0.010000
v 0.240000 0.610000 -0.010000
v 0.240000 0.770000 -0.010000
v 0.200000 0.740000 0.005000
v 0.200000 0.750000 0.005000
v 0.200000 0.740000 -0.005000
v 0.200000 0.750000 -0.005000
v 0.220000 0.740000 0.005000
v 0.220000 0.750000 0.005000
v 0.220000 0.740000 -0.005000
v 0.220000 0.750000 -0.005000
v 0.200000 0.630000 0.005000
v 0.200000 0.640000 0.005000
v 0.200000 0.630000 -0.005000
v 0.200000 0.640000 -0.005000
v 0.220000 0.630000 0.005000
v 0.220000 0.640000 0.005000
v 0.220000 0.630000 -0.005000
v 0.220000 0.640000 -0.005000
v 0.100000 0.780000 0.040000
v 0.100000 0.780000 -0.040000
v 0.200000 0.780000 -0.040000
v 0.200000 0.780000 0.040000
v 0.106000 0.770000 0.034000
v 0.106000 0.770000 -0.034000
v 0.194000 0.770000 -0.034000
v 0.194000 0.770000 0.034000
v 0.150000 0.679142 -0.089142
v 0.150000 0.663105 -0.101390
v 0.150000 0.647576 -0.106566
v 0.150000 0.636716 -0.103284
v 0.160000 0.665000 -0.099495
v 0.167321 0.650858 -0.103284
v 0.170000 0.640505 -0.099495
v 0.167321 0.670176 -0.094319
v 0.180000 0.659824 -0.094319
v 0.184641 0.650858 -0.089142
v 0.170000 0.677248 -0.087248
v 0.184641 0.672071 -0.082071
v 0.190000 0.665000 -0.075000
v 0.167321 0.684319 -0.080176
v 0.180000 0.684319 -0.069824
v 0.184641 0.679142 -0.060858
v 0.160000 0.689495 -0.075000
v 0.167321 0.693284 -0.060858
v 0.170000 0.689495 -0.050505
v 0.150000 0.691390 -0.073105
v 0.150000 0.696566 -0.057576
v 0.150000 0.693284 -0.046716
v 0.140000 0.689495 -0.075000
v 0.132679 0.693284 -0.060858
v 0.130000 0.689495 -0.050505
v 0.132679 0.684319 -0.080176
v 0.120000 0.684319 -0.069824
v 0.115359 0.679142 -0.060858
v 0.130000 0.677248 -0.087248
v 0.115359 0.672071 -0.082071
v 0.110000 0.665000 -0.075000
v 0.132679 0.670176 -0.094319
v 0.120000 0.659824 -0.094319
v 0.115359 0.650858 -0.089142
v 0.140000 0.665000 -0.099495
v 0.132679 0.650858 -0.103284
v 0.130000 0.640505 -0.099495
v 0.100000 0.620082 -0.109918
v 0.100000 0.600000 -0.101600
v 0.200000 0.600000 -0.101600
v 0.200000 0.620082 -0.109918
v 0.030000 0.740000 0.007000
v 0.030000 0.754000 0.007000
v 0.030000 0.740000 -0.007000
v 0.030000 0.754000 -0.007000
v 0.100000 0.740000 0.007000
v 0.100000 0.754000 0.007000
v 0.100000 0.740000 -0.007000
v 0.100000 0.754000 -0.007000
v 0.100000 0.620000 0.007000
v 0.086000 0.620000 0.007000
v 0.100000 0.620000 -0.007000
v 0.086000 0.620000 -0.007000
v 0.100000 0.740000 0.007000
v 0.086000 0.740000 0.007000
v 0.100000 0.740000 -0.007000
v 0.086000 0.740000 -0.007000
v 0.100000 0.646000 0.007000
v 0.086000 0.646000 0.007000
v 0.100000 0.646000 -0.007000
v 0.086000 0.646000 -0.007000
v 0.034000 0.745000 0.007000
v 0.020000 0.745000 0.007000
v 0.034000 0.745000 -0.007000
v 0.020000 0.745000 -0.007000
v -0.060000 0.770000 -0.020000
v 0.060000 0.770000 -0.020000
v -0.060000 0.760000 -0.017321
v 0.060000 0.760000 -0.017321
v -0.060000 0.752679 -0.010000
v 0.060000 0.752679 -0.010000
v -0.060000 0.750000 -0.000000
v 0.060000 0.750000 -0.000000
v -0.060000 0.752679 0.010000
v 0.060000 0.752679 0.010000
v -0.060000 0.760000 0.017320
v 0.060000 0.760000 0.017320
v -0.060000 0.770000 0.020000
v 0.060000 0.770000 0.020000
v -0.060000 0.780000 0.017320
v 0.060000 0.780000 0.017320
v -0.060000 0.787320 0.010000
v 0.060000 0.787320 0.010000
v -0.060000 0.790000 -0.000000
v 0.060000 0.790000 -0.000000
v -0.060000 0.787320 -0.010000
v 0.060000 0.787320 -0.010000
v -0.060000 0.780000 -0.017321
v 0.060000 0.780000 -0.017321
v -0.060000 0.770000 -0.020000
v 0.060000 0.770000 -0.020000
v -0.060000 0.760000 -0.017321
v 0.060000 0.760000 -0.017321
v -0.060000 0.752679 -0.010000
v 0.060000 0.752679 -0.010000
v -0.060000 0.750000 -0.000000
v 0.060000 0.750000 -0.000000
v -0.060000 0.752679 0.010000
v 0.060000 0.752679 0.010000
v -0.060000 0.760000 0.017320
v 0.060000 0.760000 0.017320
v -0.060000 0.770000 0.020000
v 0.060000 0.770000 0.020000
v -0.060000 0.780000 0.017320
v 0.060000 0.780000 0.017320
v -0.060000 0.787320 0.010000
v 0.060000 0.787320 0.010000
v -0.060000 0.790000 -0.000000
v 0.060000 0.790000 -0.000000
v -0.060000 0.787320 -0.010000
v 0.060000 0.787320 -0.010000
v -0.060000 0.780000 -0.017321
v 0.060000 0.780000 -0.017321
v 0.150000 0.638130 -0.101870
v 0.169000 0.641730 -0.098270
v 0.182909 0.651565 -0.088435
v 0.188000 0.665000 -0.075000
v 0.182909 0.678435 -0.061565
v 0.169000 0.688270 -0.051730
v 0.150000 0.691870 -0.048130
v 0.131000 0.688270 -0.051730
v 0.117091 0.678435 -0.061565
v 0.112000 0.665000 -0.075000
v 0.117091 0.651565 -0.088435
v 0.131000 0.641730 -0.098270
v 0.150000 0.633130 -0.096870
v 0.169000 0.636730 -0.093270
v 0.182909 0.646565 -0.083435
v 0.188000 0.660000 -0.070000
v 0.182909 0.673435 -0.056565
v 0.169000 0.683270 -0.046730
v 0.150000 0.686870 -0.043130
v 0.131000 0.683270 -0.046730
v 0.117091 0.673435 -0.056565
v 0.112000 0.660000 -0.070000
v 0.117091 0.646565 -0.083435
v 0.131000 0.636730 -0.093270
v 0.230000 0.760000 -0.015000
v 0.230000 0.760000 -0.010000
v 0.237071 0.757071 -0.015000
v 0.237071 0.757071 -0.010000
v 0.240000 0.750000 -0.015000
v 0.240000 0.750000 -0.010000
v 0.237071 0.742929 -0.015000
v 0.237071 0.742929 -0.010000
v 0.230000 0.740000 -0.015000
v 0.230000 0.740000 -0.010000
v 0.222929 0.742929 -0.015000
v 0.222929 0.742929 -0.010000
v 0.220000 0.750000 -0.015000
v 0.220000 0.750000 -0.010000
v 0.222929 0.757071 -0.015000
v 0.222929 0.757071 -0.010000
v 0.230000 0.730000 -0.015000
v 0.230000 0.730000 -0.010000
v 0.237071 0.727071 -0.015000
v 0.237071 0.727071 -0.010000
v 0.240000 0.720000 -0.015000
v 0.240000 0.720000 -0.010000
v 0.237071 0.712929 -0.015000
v 0.237071 0.712929 -0.010000
v 0.230000 0.710000 -0.015000
v 0.230000 0.710000 -0.010000
v 0.222929 0.712929 -0.015000
v 0.222929 0.712929 -0.010000
v 0.220000 0.720000 -0.015000
v 0.220000 0.720000 -0.010000
v 0.222929 0.727071 -0.015000
v 0.222929 0.727071 -0.010000
v 0.230000 0.700000 -0.015000
v 0.230000 0.700000 -0.010000
v 0.237071 0.697071 -0.015000
v 0.237071 0.697071 -0.010000
v 0.240000 0.690000 -0.015000
v 0.240000 0.690000 -0.010000
v 0.237071 0.682929 -0.015000
v 0.237071 0.682929 -0.010000
v 0.230000 0.680000 -0.015000
v 0.230000 0.680000 -0.010000
v 0.222929 0.682929 -0.015000
v 0.222929 0.682929 -0.010000
v 0.220000 0.690000 -0.015000
v 0.220000 0.690000 -0.010000
v 0.222929 0.697071 -0.015000
v 0.222929 0.697071 -0.010000
v 0.230000 0.670000 -0.015000
v 0.230000 0.670000 -0.010000
v 0.237071 0.667071 -0.015000
v 0.237071 0.667071 -0.010000
v 0.240000 0.660000 -0.015000
v 0.240000 0.660000 -0.010000
v 0.237071 0.652929 -0.015000
v 0.237071 0.652929 -0.010000
v 0.230000 0.650000 -0.015000
v 0.230000 0.650000 -0.010000
v 0.222929 0.652929 -0.015000
v 0.222929 0.652929 -0.010000
v 0.220000 0.660000 -0.015000
v 0.220000 0.660000 -0.010000
v 0.222929 0.667071 -0.015000
v 0.222929 0.667071 -0.010000
v 0.230000 0.640000 -0.015000
v 0.230000 0.640000 -0.010000
v 0.237071 0.637071 -0.015000
v 0.237071 0.637071 -0.010000
v 0.240000 0.630000 -0.015000
v 0.240000 0.630000 -0.010000
v 0.237071 0.622929 -0.015000
v 0.237071 0.622929 -0.010000
v 0.230000 0.620000 -0.015000
v 0.230000 0.620000 -0.010000
v 0.222929 0.622929 -0.015000
v 0.222929 0.622929 -0.010000
v 0.220000 0.630000 -0.015000
v 0.220000 0.630000 -0.010000
v 0.222929 0.637071 -0.015000
v 0.222929 0.637071 -0.010000
v -0.050000 0.600000 -0.050000
v -0.050000 0.600000 -0.050000
v -0.050000 0.600000 0.050000
v -0.050000 0.600000 0.050000
v -0.050000 0.610000 0.050000
v -0.050000 0.610000 -0.050000
v -0.040000 0.600000 -0.050000
v 0.050000 0.610000 -0.050000
v 0.050000 0.600000 -0.050000
v 0.050000 0.600000 -0.050000
v 0.050000 0.600000 0.050000
v 0.050000 0.600000 0.050000
v 0.050000 0.610000 0.050000
v 0.040000 0.600000 0.050000
v 0.040000 0.600000 -0.050000
v -0.040000 0.610000 -0.050000
v -0.040000 0.610000 -0.050000
v 0.040000 0.610000 -0.050000
v 0.040000 0.610000 -0.050000
v -0.040000 0.600000 0.050000
v 0.040000 0.610000 0.050000
v 0.040000 0.610000 0.050000
v -0.040000 0.610000 0.050000
v -0.040000 0.610000 0.050000
v -0.050000 0.700000 0.050000
v -0.050000 0.700000 0.050000
v -0.050000 0.700000 -0.050000
v -0.050000 0.700000 -0.050000
v 0.050000 0.700000 -0.050000
v 0.050000 0.700000 -0.050000
v 0.050000 0.700000 0.050000
v 0.050000 0.700000 0.050000
v 0.040000 0.700000 -0.050000
v 0.040000 0.700000 -0.050000
v 0.040000 0.700000 0.050000
v 0.040000 0.700000 0.050000
v -0.040000 0.700000 -0.050000
v -0.040000 0.700000 -0.050000
v -0.040000 0.700000 0.050000
v -0.040000 0.700000 0.050000
v -0.060000 0.650000 -0.020000
v -0.060000 0.640000 -0.017321
v 0.060000 0.640000 -0.017321
v 0.060000 0.650000 -0.020000
v -0.060000 0.632679 -0.010000
v 0.060000 0.632679 -0.010000
v -0.060000 0.630000 -0.000000
v 0.060000 0.630000 -0.000000
v -0.060000 0.632679 0.010000
v 0.060000 0.632679 0.010000
v -0.060000 0.640000 0.017320
v 0.060000 0.640000 0.017320
v -0.060000 0.650000 0.020000
v 0.060000 0.650000 0.020000
v -0.060000 0.660000 0.017320
v 0.060000 0.660000 0.017320
v -0.060000 0.667320 0.010000
v 0.060000 0.667320 0.010000
v -0.060000 0.670000 -0.000000
v 0.060000 0.670000 -0.000000
v -0.060000 0.667320 -0.010000
v 0.060000 0.667320 -0.010000
v -0.060000 0.660000 -0.017321
v 0.060000 0.660000 -0.017321
v 0.000000 0.590000 -0.050000
v 0.025000 0.590000 -0.043301
v 0.025000 0.600000 -0.043301
v 0.000000 0.600000 -0.050000
v 0.043301 0.590000 -0.025000
v 0.043301 0.600000 -0.025000
v 0.050000 0.590000 0.000000
v 0.050000 0.600000 0.000000
v 0.043301 0.590000 0.025000
v 0.043301 0.600000 0.025000
v 0.025000 0.590000 0.043301
v 0.025000 0.600000 0.043301
v 0.000000 0.590000 0.050000
v 0.000000 0.600000 0.050000
v -0.025000 0.590000 0.043301
v -0.025000 0.600000 0.043301
v -0.043301 0.590000 0.025000
v -0.043301 0.600000 0.025000
v -0.050000 0.590000 0.000000
v -0.050000 0.600000 0.000000
v -0.043301 0.590000 -0.025000
v -0.043301 0.600000 -0.025000
v -0.025000 0.590000 -0.043301
v -0.025000 0.600000 -0.043301
v 0.030000 0.730000 -0.050000
v 0.030000 0.730000 -0.050000
v 0.030000 0.730000 0.050000
v 0.030000 0.730000 0.050000
v 0.020000 0.730000 -0.050000
v 0.020000 0.730000 -0.050000
v 0.020000 0.730000 0.050000
v 0.020000 0.730000 0.050000
v -0.030000 0.730000 0.050000
v -0.030000 0.730000 0.050000
v -0.030000 0.730000 -0.050000
v -0.030000 0.730000 -0.050000
v -0.020000 0.730000 -0.050000
v -0.020000 0.730000 -0.050000
v -0.020000 0.730000 0.050000
v -0.020000 0.730000 0.050000
v 0.020000 0.820000 -0.020000
v 0.020000 0.820000 -0.020000
v 0.030000 0.820000 -0.020000
v 0.030000 0.820000 -0.020000
v 0.030000 0.820000 0.020000
v 0.030000 0.820000 0.020000
v 0.020000 0.820000 0.020000
v 0.020000 0.820000 0.020000
v -0.030000 0.820000 0.020000
v -0.030000 0.820000 0.020000
v -0.030000 0.820000 -0.020000
v -0.030000 0.820000 -0.020000
v -0.020000 0.820000 0.020000
v -0.020000 0.820000 0.020000
v -0.020000 0.820000 -0.020000
v -0.020000 0.820000 -0.020000
v -0.010000 0.610000 -0.150000
v -0.010000 0.610000 -0.150000
v -0.010000 0.570000 -0.150000
v -0.010000 0.570000 -0.150000
v -0.010000 0.630000 0.000000
v -0.010000 0.630000 0.000000
v -0.010000 0.670000 0.000000
v -0.010000 0.670000 0.000000
v 0.010000 0.610000 -0.150000
v 0.010000 0.610000 -0.150000
v 0.010000 0.670000 0.000000
v 0.010000 0.670000 0.000000
v 0.010000 0.570000 -0.150000
v 0.010000 0.570000 -0.150000
v 0.010000 0.630000 0.000000
v 0.010000 0.630000 0.000000
v -0.015000 0.590000 -0.170000
v -0.015000 0.580000 -0.167321
v 0.015000 0.580000 -0.167321
v 0.015000 0.590000 -0.170000
v -0.015000 0.572679 -0.160000
v 0.015000 0.572679 -0.160000
v -0.015000 0.570000 -0.150000
v 0.015000 0.570000 -0.150000
v -0.015000 0.572679 -0.140000
v 0.015000 0.572679 -0.140000
v -0.015000 0.580000 -0.132680
v 0.015000 0.580000 -0.132680
v -0.015000 0.590000 -0.130000
v 0.015000 0.590000 -0.130000
v -0.015000 0.600000 -0.132680
v 0.015000 0.600000 -0.132680
v -0.015000 0.607320 -0.140000
v 0.015000 0.607320 -0.140000
v -0.015000 0.610000 -0.150000
v 0.015000 0.610000 -0.150000
v -0.015000 0.607320 -0.160000
v 0.015000 0.607320 -0.160000
v -0.015000 0.600000 -0.167321
v 0.015000 0.600000 -0.167321
v 0.100000 0.690000 0.040000
v 0.100000 0.780000 0.040000
v 0.100000 0.780000 0.040000
v 0.100000 0.780000 -0.040000
v 0.100000 0.780000 -0.040000
v 0.200000 0.780000 -0.040000
v 0.200000 0.780000 -0.040000
v 0.200000 0.780000 0.040000
v 0.200000 0.780000 0.040000
v 0.200000 0.690000 0.040000
v 0.200000 0.600000 0.040000
v 0.200000 0.600000 0.040000
v 0.100000 0.600000 0.040000
v 0.100000 0.600000 0.040000
v 0.100000 0.690000 -0.040000
v 0.100000 0.690000 -0.040000
v 0.200000 0.690000 -0.040000
v 0.200000 0.690000 -0.040000
v 0.220000 0.610000 -0.010000
v 0.220000 0.610000 -0.010000
v 0.220000 0.610000 0.010000
v 0.220000 0.610000 0.010000
v 0.220000 0.770000 0.010000
v 0.220000 0.770000 0.010000
v 0.220000 0.770000 -0.010000
v 0.220000 0.770000 -0.010000
v 0.240000 0.610000 -0.010000
v 0.240000 0.610000 -0.010000
v 0.240000 0.770000 -0.010000
v 0.240000 0.770000 -0.010000
v 0.240000 0.610000 0.010000
v 0.240000 0.610000 0.010000
v 0.240000 0.770000 0.010000
v 0.240000 0.770000 0.010000
v 0.220000 0.740000 -0.005000
v 0.200000 0.740000 -0.005000
v 0.200000 0.750000 -0.005000
v 0.220000 0.750000 -0.005000
v 0.200000 0.740000 0.005000
v 0.220000 0.740000 0.005000
v 0.220000 0.750000 0.005000
v 0.200000 0.750000 0.005000
v 0.220000 0.630000 -0.005000
v 0.200000 0.630000 -0.005000
v 0.200000 0.640000 -0.005000
v 0.220000 0.640000 -0.005000
v 0.200000 0.630000 0.005000
v 0.220000 0.630000 0.005000
v 0.220000 0.640000 0.005000
v 0.200000 0.640000 0.005000
v 0.106000 0.780000 0.034000
v 0.106000 0.780000 0.034000
v 0.106000 0.780000 -0.034000
v 0.106000 0.780000 -0.034000
v 0.194000 0.780000 -0.034000
v 0.194000 0.780000 -0.034000
v 0.194000 0.780000 0.034000
v 0.194000 0.780000 0.034000
v 0.106000 0.770000 0.034000
v 0.106000 0.770000 0.034000
v 0.106000 0.770000 -0.034000
v 0.106000 0.770000 -0.034000
v 0.194000 0.770000 -0.034000
v 0.194000 0.770000 -0.034000
v 0.194000 0.770000 0.034000
v 0.194000 0.770000 0.034000
v 0.150000 0.636716 -0.103284
v 0.170000 0.640505 -0.099495
v 0.184641 0.650858 -0.089142
v 0.190000 0.665000 -0.075000
v 0.184641 0.679142 -0.060858
v 0.170000 0.689495 -0.050505
v 0.150000 0.693284 -0.046716
v 0.130000 0.689495 -0.050505
v 0.115359 0.679142 -0.060858
v 0.110000 0.665000 -0.075000
v 0.115359 0.650858 -0.089142
v 0.130000 0.640505 -0.099495
v 0.200000 0.620082 -0.109918
v 0.200000 0.620082 -0.109918
v 0.200000 0.600000 -0.101600
v 0.200000 0.600000 -0.101600
v 0.100000 0.600000 -0.101600
v 0.100000 0.600000 -0.101600
v 0.100000 0.620082 -0.109918
v 0.100000 0.620082 -0.109918
v 0.100000 0.740000 -0.007000
v 0.030000 0.740000 -0.007000
v 0.030000 0.754000 -0.007000
v 0.100000 0.754000 -0.007000
v 0.030000 0.740000 0.007000
v 0.100000 0.740000 0.007000
v 0.100000 0.754000 0.007000
v 0.030000 0.754000 0.007000
v 0.100000 0.620000 -0.007000
v 0.100000 0.620000 -0.007000
v 0.100000 0.620000 0.007000
v 0.100000 0.620000 0.007000
v 0.086000 0.620000 0.007000
v 0.086000 0.620000 0.007000
v 0.086000 0.620000 -0.007000
v 0.086000 0.620000 -0.007000
v 0.100000 0.740000 -0.007000
v 0.086000 0.740000 -0.007000
v 0.100000 0.740000 0.007000
v 0.086000 0.740000 0.007000
v 0.100000 0.646000 -0.007000
v 0.100000 0.646000 -0.007000
v 0.100000 0.646000 0.007000
v 0.100000 0.646000 0.007000
v 0.086000 0.646000 0.007000
v 0.086000 0.646000 0.007000
v 0.086000 0.646000 -0.007000
v 0.086000 0.646000 -0.007000
v 0.034000 0.745000 -0.007000
v 0.020000 0.745000 -0.007000
v 0.034000 0.745000 0.007000
v 0.020000 0.745000 0.007000
v -0.060000 0.770000 -0.020000
v -0.060000 0.760000 -0.017321
v 0.060000 0.760000 -0.017321
v 0.060000 0.770000 -0.020000
v -0.060000 0.752679 -0.010000
v 0.060000 0.752679 -0.010000
v -0.060000 0.750000 -0.000000
v 0.060000 0.750000 -0.000000
v -0.060000 0.752679 0.010000
v 0.060000 0.752679 0.010000
v -0.060000 0.760000 0.017320
v 0.060000 0.760000 0.017320
v -0.060000 0.770000 0.020000
v 0.060000 0.770000 0.020000
v -0.060000 0.780000 0.017320
v 0.060000 0.780000 0.017320
v -0.060000 0.787320 0.010000
v 0.060000 0.787320 0.010000
v -0.060000 0.790000 -0.000000
v 0.060000 0.790000 -0.000000
v -0.060000 0.787320 -0.010000
v 0.060000 0.787320 -0.010000
v -0.060000 0.780000 -0.017321
v 0.060000 0.780000 -0.017321
v -0.060000 0.770000 -0.020000
v -0.060000 0.760000 -0.017321
v 0.060000 0.760000 -0.017321
v 0.060000 0.770000 -0.020000
v -0.060000 0.752679 -0.010000
v 0.060000 0.752679 -0.010000
v -0.060000 0.750000 -0.000000
v 0.060000 0.750000 -0.000000
v -0.060000 0.752679 0.010000
v 0.060000 0.752679 0.010000
v -0.060000 0.760000 0.017320
v 0.060000 0.760000 0.017320
v -0.060000 0.770000 0.020000
v 0.060000 0.770000 0.020000
v -0.060000 0.780000 0.017320
v 0.060000 0.780000 0.017320
v -0.060000 0.787320 0.010000
v 0.060000 0.787320 0.010000
v -0.060000 0.790000 -0.000000
v 0.060000 0.790000 -0.000000
v -0.060000 0.787320 -0.010000
v 0.060000 0.787320 -0.010000
v -0.060000 0.780000 -0.017321
v 0.060000 0.780000 -0.017321
v 0.230000 0.760000 -0.015000
v 0.237071 0.757071 -0.015000
v 0.240000 0.750000 -0.015000
v 0.237071 0.742929 -0.015000
v 0.230000 0.740000 -0.015000
v 0.222929 0.742929 -0.015000
v 0.220000 0.750000 -0.015000
v 0.222929 0.757071 -0.015000
v 0.230000 0.730000 -0.015000
v 0.237071 0.727071 -0.015000
v 0.240000 0.720000 -0.015000
v 0.237071 0.712929 -0.015000
v 0.230000 0.710000 -0.015000
v 0.222929 0.712929 -0.015000
v 0.220000 0.720000 -0.015000
v 0.222929 0.727071 -0.015000
v 0.230000 0.700000 -0.015000
v 0.237071 0.697071 -0.015000
v 0.240000 0.690000 -0.015000
v 0.237071 0.682929 -0.015000
v 0.230000 0.680000 -0.015000
v 0.222929 0.682929 -0.015000
v 0.220000 0.690000 -0.015000
v 0.222929 0.697071 -0.015000
v 0.230000 0.670000 -0.015000
v 0.237071 0.667071 -0.015000
v 0.240000 0.660000 -0.015000
v 0.237071 0.652929 -0.015000
v 0.230000 0.650000 -0.015000
v 0.222929 0.652929 -0.015000
v 0.220000 0.660000 -0.015000
v 0.222929 0.667071 -0.015000
v 0.230000 0.640000 -0.015000
v 0.237071 0.637071 -0.015000
v 0.240000 0.630000 -0.015000
v 0.237071 0.622929 -0.015000
v 0.230000 0.620000 -0.015000
v 0.222929 0.622929 -0.015000
v 0.220000 0.630000 -0.015000
v 0.222929 0.637071 -0.015000
vn -0.0000 -0.0000 -1.0000
vn 0.5000 -0.0000 -0.8660
vn 0.8660 -0.0000 -0.5000
vn 1.0000 -0.0000 -0.0000
vn 0.8660 -0.0000 0.5000
vn 0.5000 -0.0000 0.8660
vn -0.0000 -0.0000 1.0000
vn -0.5000 -0.0000 0.8660
vn -0.8660 -0.0000 0.5000
vn -1.0000 -0.0000 -0.0000
vn -0.8660 -0.0000 -0.5000
vn -0.5000 -0.0000 -0.8660
vn -0.0000 -1.0000 -0.0000
vn -0.0000 1.0000 -0.0000
vn -0.8321 0.5547 -0.0000
vn -0.8320 0.5547 -0.0000
vn 0.8321 0.5547 -0.0000
vn 0.8320 0.5547 -0.0000
vn -0.0000 -0.5000 -0.8660
vn -0.0000 -0.8660 -0.5000
vn -0.0000 -0.8660 0.5000
vn -0.0000 -0.5000 0.8660
vn -0.0000 0.5000 0.8660
vn -0.0000 0.8660 0.5000
vn -0.0000 0.8660 -0.5000
vn -0.0000 0.5000 -0.8660
vn -0.0000 0.1349 0.9909
vn -0.0000 0.1969 0.9804
vn -0.0000 0.1349 -0.9909
vn -0.8321 -0.5547 -0.0000
vn -0.8320 -0.5547 -0.0000
vn -0.0000 0.3162 -0.9487
vn -0.0000 0.1969 -0.9804
vn 0.8321 -0.5547 -0.0000
vn 0.8320 -0.5547 -0.0000
vn -0.0000 0.3162 0.9487
vn -0.0000 0.9285 -0.3714
vn -0.0000 -0.9285 0.3714
vn -0.0000 -0.0200 -0.9998
vn 0.1593 0.4751 -0.8654
vn 0.3606 0.0483 -0.9315
vn -0.0000 -0.2893 -0.9573
vn 0.4407 -0.2058 -0.8738
vn -0.0000 0.4450 -0.8956
vn -0.0000 0.7071 -0.7071
vn 0.6245 0.2349 -0.7448
vn 0.7633 0.0224 -0.6456
vn 0.2759 0.5576 -0.7829
vn 0.7211 0.4899 -0.4899
vn 0.8814 0.3340 -0.3340
vn 0.3186 0.6703 -0.6703
vn 0.6245 0.7448 -0.2349
vn 0.7633 0.6456 -0.0224
vn 0.2759 0.7829 -0.5576
vn 0.3606 0.9315 -0.0483
vn 0.4407 0.8738 0.2058
vn 0.1593 0.8654 -0.4751
vn -0.0000 0.8956 -0.4450
vn -0.0000 0.9998 0.0200
vn -0.0000 0.9573 0.2893
vn -0.3606 0.9315 -0.0483
vn -0.4407 0.8738 0.2058
vn -0.1593 0.8654 -0.4751
vn -0.2759 0.7829 -0.5576
vn -0.6245 0.7448 -0.2349
vn -0.7633 0.6456 -0.0224
vn -0.7211 0.4899 -0.4899
vn -0.8814 0.3340 -0.3340
vn -0.3186 0.6703 -0.6703
vn -0.2759 0.5576 -0.7829
vn -0.6245 0.2349 -0.7448
vn -0.7633 0.0224 -0.6456
vn -0.3606 0.0483 -0.9315
vn -0.4407 -0.2058 -0.8738
vn -0.1593 0.4751 -0.8654
vn -0.0000 -0.7071 0.7071
vn -0.0000 -0.3827 -0.9239
vn -0.5000 -0.6124 -0.6124
vn -0.8660 -0.3535 -0.3535
vn 0.5000 -0.6124 -0.6124
vn -0.0000 -0.7071 -0.7071
vn -0.8660 0.3535 0.3535
vn -0.5000 0.6124 0.6124
vn -0.8660 0.3536 0.3536
vn 0.5000 0.6124 0.6124
vn 0.8660 0.3535 0.3535
vn 0.8660 0.3536 0.3536
vn 0.8660 -0.3536 -0.3536
vn -0.0000 0.7071 0.7071
vn -0.8660 -0.3536 -0.3536
vn 0.7071 0.7071 -0.0000
vn 0.7071 -0.7071 -0.0000
vn -0.7071 -0.7071 -0.0000
vn -0.7071 0.7071 -0.0000
vt 1.000000 1.000000
vt 0.916667 0.500000
vt 1.000000 0.500000
vt 0.916667 1.000000
vt 0.833333 0.500000
vt 0.833333 1.000000
vt 0.750000 0.500000
vt 0.750000 1.000000
vt 0.666667 0.500000
vt 0.666667 1.000000
vt 0.583333 0.500000
vt 0.583333 1.000000
vt 0.500000 0.500000
vt 0.500000 1.000000
vt 0.416667 0.500000
vt 0.416667 1.000000
vt 0.333333 0.500000
vt 0.333333 1.000000
vt 0.250000 0.500000
vt 0.250000 1.000000
vt 0.166667 0.500000
vt 0.166667 1.000000
vt 0.083333 0.500000
vt 0.083333 1.000000
vt 0.000000 0.500000
vt 0.625000 0.000000
vt 0.375000 0.250000
vt 0.375000 0.000000
vt 0.625000 0.416667
vt 0.375000 0.500000
vt 0.375000 0.416667
vt 0.625000 0.500000
vt 0.375000 0.750000
vt 0.625000 0.916667
vt 0.375000 1.000000
vt 0.375000 0.916667
vt 0.291667 0.750000
vt 0.291667 0.500000
vt 0.791667 0.500000
vt 0.791667 0.750000
vt 0.625000 0.250000
vt 0.625000 0.333333
vt 0.708333 0.750000
vt 0.708333 0.500000
vt 0.208333 0.500000
vt 0.125000 0.750000
vt 0.125000 0.500000
vt 0.208333 0.750000
vt 0.625000 0.750000
vt 0.375000 0.833333
vt 0.625000 0.833333
vt 0.375000 0.333333
vt 0.625000 1.000000
vt 0.042154 0.370000
vt 0.250000 0.010000
vt 0.457846 0.370000
vt 0.990000 0.250000
vt 0.630000 0.042154
vt 0.630000 0.457846
vt 0.630000 0.042154
vt 0.630000 0.457846
vt 0.875000 0.500000
vt 0.500000 0.250000
vt 0.500000 0.000000
vt 0.500000 0.500000
vt 0.500000 0.750000
vt 0.500000 1.000000
vt 0.640000 0.731250
vt 0.860000 0.731250
vt 0.860000 0.518750
vt 0.875000 0.750000
vt 0.640000 0.518750
vt 0.750000 0.666667
vt 0.666667 0.833333
vt 0.666667 0.666667
vt 0.750000 0.500000
vt 0.666667 0.500000
vt 0.750000 0.833333
vt 0.708333 1.000000
vt 0.583333 0.666667
vt 0.583333 0.500000
vt 0.583333 0.833333
vt 0.500000 0.666667
vt 0.541667 1.000000
vt 0.500000 0.833333
vt 0.416667 0.666667
vt 0.416667 0.500000
vt 0.458333 1.000000
vt 0.416667 0.833333
vt 0.333333 0.666667
vt 0.333333 0.500000
vt 0.333333 0.833333
vt 0.291667 1.000000
vt 0.250000 0.833333
vt 0.250000 0.666667
vt 0.250000 0.500000
vt 0.166667 0.666667
vt 0.166667 0.500000
vt 0.208333 1.000000
vt 0.166667 0.833333
vt 0.083333 0.833333
vt 0.083333 0.666667
vt 0.083333 0.500000
vt 0.125000 1.000000
vt 0.000000 0.666667
vt 0.000000 0.500000
vt 0.041667 1.000000
vt 0.000000 0.833333
vt 1.000000 0.666667
vt 0.916667 0.833333
vt 0.916667 0.666667
vt 0.916667 0.500000
vt 1.000000 0.833333
vt 0.958333 1.000000
vt 0.833333 0.666667
vt 0.875000 1.000000
vt 0.833333 0.833333
vt 0.791667 1.000000
vt 0.125000 0.541765
vt 0.393594 0.500000
vt 0.375000 0.541765
vt 0.402891 0.250000
vt 0.375000 0.208235
vt 0.000000 0.000000
vt 0.750000 1.000000
vt 0.250000 1.000000
vt 0.919706 0.080294
vt 0.580294 0.080294
vt 0.580294 0.419706
vt 0.000000 1.000000
vt 0.370000 0.457846
vt 0.250000 0.490000
vt 0.130000 0.457846
vt 0.010000 0.250000
vt 0.042154 0.130000
vt 0.130000 0.042154
vt 0.370000 0.042154
vt 0.457846 0.130000
vt 0.490000 0.250000
vt 0.750000 0.490000
vt 0.870000 0.457846
vt 0.957846 0.370000
vt 0.957846 0.130000
vt 0.870000 0.042154
vt 0.750000 0.010000
vt 0.542154 0.130000
vt 0.510000 0.250000
vt 0.542154 0.370000
vt 0.370000 0.457846
vt 0.250000 0.490000
vt 0.130000 0.457846
vt 0.010000 0.250000
vt 0.130000 0.042154
vt 0.370000 0.042154
vt 0.750000 0.490000
vt 0.870000 0.457846
vt 0.870000 0.042154
vt 0.000000 1.000000
vt 0.919706 0.419706
s 1
f 2/1/1 3/2/2 1/3/1
f 4/4/2 5/5/3 3/2/2
f 6/6/3 7/7/4 5/5/3
f 8/8/4 9/9/5 7/7/4
f 10/10/5 11/11/6 9/9/5
f 12/12/6 13/13/7 11/11/6
f 14/14/7 15/15/8 13/13/7
f 16/16/8 17/17/9 15/15/8
f 18/18/9 19/19/10 17/17/9
f 20/20/10 21/21/11 19/19/10
f 22/22/11 23/23/12 21/21/11
f 24/24/12 1/25/1 23/23/12
f 408/26/10 404/27/10 406/28/10
f 421/29/1 412/30/1 418/31/1
f 32/32/4 414/33/4 413/30/4
f 426/34/7 407/35/7 423/36/7
f 31/30/13 417/37/13 33/38/13
f 35/39/4 443/40/4 40/40/4
f 28/41/1 440/42/1 419/42/1
f 420/39/14 425/43/14 422/44/14
f 410/45/13 25/46/13 405/47/13
f 33/38/13 37/48/13 410/45/13
f 30/49/7 38/50/7 29/33/7
f 424/51/7 423/36/7 38/50/7
f 28/41/1 34/52/1 27/27/1
f 419/42/1 418/31/1 34/52/1
f 428/26/15 502/41/16 430/41/16
f 433/32/17 494/49/18 434/49/18
f 32/32/4 45/49/4 416/49/4
f 408/26/10 42/41/10 409/41/10
f 426/34/7 429/53/7 26/53/7
f 39/43/10 437/44/10 36/44/10
f 30/49/7 438/51/7 424/51/7
f 421/29/1 432/32/1 411/32/1
f 447/1/1 445/2/19 444/3/1
f 445/2/19 449/6/20 448/5/20
f 449/6/20 450/7/13 448/5/20
f 451/8/13 452/9/21 450/7/13
f 453/10/21 454/11/22 452/9/21
f 455/12/22 456/13/7 454/11/22
f 457/14/7 458/15/23 456/13/7
f 459/16/23 460/17/24 458/15/23
f 461/18/24 462/19/14 460/17/24
f 463/20/14 464/21/25 462/19/14
f 70/54/4 62/55/4 54/56/4
f 465/22/25 466/23/26 464/21/25
f 72/24/26 444/25/1 466/23/26
f 55/57/10 63/58/10 71/59/10
f 471/1/1 469/2/2 468/3/1
f 470/4/2 472/5/3 469/2/2
f 473/6/3 474/7/4 472/5/3
f 475/8/4 476/9/5 474/7/4
f 477/10/5 478/11/6 476/9/5
f 479/12/6 480/13/7 478/11/6
f 481/14/7 482/15/8 480/13/7
f 483/16/8 484/17/9 482/15/8
f 485/18/9 486/19/10 484/17/9
f 487/20/10 488/21/11 486/19/10
f 94/54/14 86/55/14 78/56/14
f 489/22/11 490/23/12 488/21/11
f 96/24/12 468/25/1 490/23/12
f 79/57/13 87/60/13 95/61/13
f 101/26/10 518/41/10 102/41/10
f 438/51/7 495/49/27 498/51/28
f 436/29/1 492/32/29 432/32/1
f 48/43/30 497/44/31 43/44/31
f 503/41/29 522/42/32 504/42/33
f 47/39/34 507/40/35 46/40/35
f 442/34/7 501/53/27 429/53/7
f 440/42/1 503/41/29 504/42/33
f 508/44/14 512/49/14 510/32/14
f 110/62/14 520/40/14 523/39/14
f 495/49/27 515/51/36 498/51/28
f 103/40/4 112/39/4 521/40/4
f 496/29/33 511/32/32 492/32/29
f 506/34/28 109/53/36 501/53/27
f 100/43/10 105/44/10 97/44/10
f 99/49/4 106/32/4 107/49/4
f 528/26/10 524/27/10 526/28/10
f 531/41/37 532/30/37 525/27/37
f 533/30/4 538/49/4 536/33/4
f 539/49/38 527/35/38 537/33/38
f 119/30/1 113/46/1 115/47/1
f 116/62/7 118/49/7 120/32/7
f 543/1/1 541/2/19 540/3/1
f 541/2/19 545/6/20 544/5/20
f 545/6/20 546/7/13 544/5/20
f 547/8/13 548/9/21 546/7/13
f 549/10/21 550/11/22 548/9/21
f 550/11/22 553/14/7 552/13/7
f 553/14/7 554/15/23 552/13/7
f 555/16/23 556/17/24 554/15/23
f 557/18/24 558/19/14 556/17/24
f 559/20/14 560/21/25 558/19/14
f 142/54/4 134/55/4 126/56/4
f 560/21/25 144/24/26 562/23/26
f 144/24/26 540/25/1 562/23/26
f 127/57/10 135/58/10 143/59/10
f 565/26/10 578/63/10 564/64/10
f 568/41/1 580/65/1 579/63/1
f 570/32/4 154/66/4 581/65/4
f 572/49/7 151/67/7 573/66/7
f 621/68/1 623/69/1 615/69/1
f 573/66/7 576/35/7 574/33/7
f 586/26/10 582/27/10 584/28/10
f 589/41/1 590/30/1 583/27/1
f 593/32/4 594/33/4 591/30/4
f 597/49/7 585/35/7 595/33/7
f 161/30/13 155/46/13 157/47/13
f 158/62/14 160/49/14 162/32/14
f 176/49/7 171/35/7 175/33/7
f 166/41/1 598/30/1 165/27/1
f 174/41/1 606/30/1 173/27/1
f 168/49/7 163/35/7 167/33/7
f 169/30/13 602/46/13 599/47/13
f 600/62/14 604/49/14 170/32/14
f 177/30/13 610/46/13 607/47/13
f 608/62/14 612/49/14 178/32/14
f 616/70/14 179/71/14 614/69/14
f 618/72/14 180/62/14 616/70/14
f 620/68/14 181/32/14 618/72/14
f 614/69/14 182/49/14 620/68/14
f 624/70/14 628/68/14 626/72/14
f 617/70/7 627/72/7 619/72/7
f 150/72/10 186/68/10 149/68/10
f 146/69/4 184/70/4 147/70/4
f 189/73/39 191/74/40 192/75/41
f 630/76/42 192/75/41 631/77/43
f 188/78/44 187/79/45 191/74/40
f 631/77/43 195/80/46 632/81/47
f 191/74/40 187/53/45 194/82/48
f 192/75/41 194/82/48 195/80/46
f 632/81/47 198/83/49 633/65/50
f 194/82/48 187/84/45 197/85/51
f 195/80/46 197/85/51 198/83/49
f 633/65/50 201/86/52 634/87/53
f 197/85/51 187/88/45 200/89/54
f 198/83/49 200/89/54 201/86/52
f 634/87/53 204/90/55 635/91/56
f 200/89/54 187/35/45 203/92/57
f 200/89/54 204/90/55 201/86/52
f 203/92/57 187/93/45 206/94/58
f 204/90/55 206/94/58 207/95/59
f 204/90/55 636/96/60 635/91/56
f 206/94/58 210/97/61 207/95/59
f 636/96/60 210/97/61 637/98/62
f 206/94/58 187/99/45 209/100/63
f 210/97/61 212/101/64 213/102/65
f 210/97/61 638/103/66 637/98/62
f 209/100/63 187/104/45 212/101/64
f 212/101/64 216/105/67 213/102/65
f 638/103/66 216/105/67 639/106/68
f 212/101/64 187/107/45 215/108/69
f 216/109/67 218/110/70 219/111/71
f 639/3/68 219/111/71 640/112/72
f 215/113/69 187/114/45 218/110/70
f 218/110/70 222/115/73 219/111/71
f 219/111/71 641/5/74 640/112/72
f 218/110/70 187/116/45 221/117/75
f 222/115/73 630/76/42 641/5/74
f 221/117/75 187/118/45 188/78/44
f 221/117/75 189/73/39 222/115/73
f 199/65/76 211/98/76 223/5/76
f 646/119/77 642/120/77 644/121/77
f 564/64/10 649/122/10 647/123/10
f 152/63/45 643/120/45 224/122/45
f 645/121/13 145/46/13 225/119/13
f 227/120/4 154/66/4 148/33/4
f 241/49/7 661/35/7 240/33/7
f 231/41/1 650/30/1 230/27/1
f 665/41/1 666/30/1 659/27/1
f 233/49/7 228/35/7 232/33/7
f 234/30/13 654/46/13 651/47/13
f 652/62/14 656/49/14 235/32/14
f 242/30/4 660/46/4 658/47/4
f 664/62/10 669/49/10 243/32/10
f 236/35/13 239/41/13 238/27/13
f 248/33/7 674/53/7 673/35/7
f 677/41/1 678/30/1 671/27/1
f 250/30/17 672/46/17 670/47/17
f 676/62/30 681/49/30 251/32/30
f 244/35/13 247/41/13 246/27/13
f 685/1/1 683/2/19 682/3/1
f 684/4/19 686/5/20 683/2/19
f 687/6/20 688/7/13 686/5/20
f 689/8/13 690/9/21 688/7/13
f 691/10/21 692/11/22 690/9/21
f 692/11/22 695/14/7 694/13/7
f 695/14/7 696/15/23 694/13/7
f 697/16/23 698/17/24 696/15/23
f 699/18/24 700/19/14 698/17/24
f 701/20/14 702/21/25 700/19/14
f 273/54/4 265/55/4 257/56/4
f 703/22/25 704/23/26 702/21/25
f 275/24/26 682/25/1 704/23/26
f 258/57/10 266/58/10 274/59/10
f 709/1/1 707/2/19 706/3/1
f 708/4/19 710/5/20 707/2/19
f 711/6/20 712/7/13 710/5/20
f 713/8/13 714/9/21 712/7/13
f 715/10/21 716/11/22 714/9/21
f 716/11/22 719/14/7 718/13/7
f 719/14/7 720/15/23 718/13/7
f 721/16/23 722/17/24 720/15/23
f 723/18/24 724/19/14 722/17/24
f 725/20/14 726/21/25 724/19/14
f 297/54/4 289/55/4 281/56/4
f 727/22/25 728/23/26 726/21/25
f 299/24/26 706/25/1 728/23/26
f 282/57/10 290/58/10 298/59/10
f 323/124/78 310/124/79 311/124/78
f 301/124/80 312/124/81 300/124/81
f 320/124/82 307/124/83 308/124/84
f 305/124/85 316/124/86 304/124/87
f 312/124/81 311/124/78 300/124/81
f 302/124/88 313/124/80 301/124/80
f 321/124/10 308/124/84 309/124/10
f 306/124/89 317/124/85 305/124/85
f 315/124/4 302/124/88 303/124/4
f 322/124/90 309/124/10 310/124/79
f 319/124/83 306/124/89 307/124/83
f 304/124/87 315/124/4 303/124/4
f 325/1/14 731/62/91 730/3/14
f 327/116/91 732/76/4 731/62/91
f 329/125/4 733/32/92 732/76/4
f 331/53/92 734/65/13 733/32/92
f 333/67/13 735/30/93 734/65/13
f 335/35/93 736/96/10 735/30/93
f 337/126/10 737/47/94 736/96/10
f 339/104/94 730/106/14 737/47/94
f 330/127/1 334/128/1 338/129/1
f 341/1/14 739/62/91 738/3/14
f 343/116/91 740/76/4 739/62/91
f 345/125/4 741/32/92 740/76/4
f 347/53/92 742/65/13 741/32/92
f 349/67/13 743/30/93 742/65/13
f 351/35/93 744/96/10 743/30/93
f 353/126/10 745/47/94 744/96/10
f 355/104/94 738/106/14 745/47/94
f 346/127/1 350/128/1 354/129/1
f 357/1/14 747/62/91 746/3/14
f 359/116/91 748/76/4 747/62/91
f 361/125/4 749/32/92 748/76/4
f 363/53/92 750/65/13 749/32/92
f 365/67/13 751/30/93 750/65/13
f 367/35/93 752/96/10 751/30/93
f 369/126/10 753/47/94 752/96/10
f 371/104/94 746/106/14 753/47/94
f 362/127/1 366/128/1 370/129/1
f 373/1/14 755/62/91 754/3/14
f 375/116/91 756/76/4 755/62/91
f 377/125/4 757/32/92 756/76/4
f 379/53/92 758/65/13 757/32/92
f 381/67/13 759/30/93 758/65/13
f 383/35/93 760/96/10 759/30/93
f 385/126/10 761/47/94 760/96/10
f 387/104/94 754/106/14 761/47/94
f 378/127/1 382/128/1 386/129/1
f 389/1/14 763/62/91 762/3/14
f 391/116/91 764/76/4 763/62/91
f 393/125/4 765/32/92 764/76/4
f 395/53/92 766/65/13 765/32/92
f 397/67/13 767/30/93 766/65/13
f 399/35/93 768/96/10 767/30/93
f 401/126/10 769/47/94 768/96/10
f 403/104/94 762/106/14 769/47/94
f 394/127/1 398/128/1 402/129/1
f 2/1/1 4/4/2 3/2/2
f 4/4/2 6/6/3 5/5/3
f 6/6/3 8/8/4 7/7/4
f 8/8/4 10/10/5 9/9/5
f 10/10/5 12/12/6 11/11/6
f 12/12/6 14/14/7 13/13/7
f 14/14/7 16/16/8 15/15/8
f 16/16/8 18/18/9 17/17/9
f 18/18/9 20/20/10 19/19/10
f 20/20/10 22/22/11 21/21/11
f 22/22/11 24/24/12 23/23/12
f 24/24/12 2/130/1 1/25/1
f 408/26/10 409/41/10 404/27/10
f 421/29/1 411/32/1 412/30/1
f 32/32/4 416/49/4 414/33/4
f 426/34/7 26/53/7 407/35/7
f 31/30/13 415/33/13 417/37/13
f 35/39/4 441/39/4 443/40/4
f 28/41/1 431/41/1 440/42/1
f 420/39/14 427/40/14 425/43/14
f 410/45/13 37/48/13 25/46/13
f 33/38/13 417/37/13 37/48/13
f 30/49/7 424/51/7 38/50/7
f 424/51/7 426/34/7 423/36/7
f 28/41/1 419/42/1 34/52/1
f 419/42/1 421/29/1 418/31/1
f 428/26/15 500/26/15 502/41/16
f 433/32/17 493/32/17 494/49/18
f 32/32/4 44/32/4 45/49/4
f 408/26/10 41/26/10 42/41/10
f 426/34/7 442/34/7 429/53/7
f 39/43/10 439/43/10 437/44/10
f 30/49/7 435/49/7 438/51/7
f 421/29/1 436/29/1 432/32/1
f 447/1/1 446/4/19 445/2/19
f 445/2/19 446/4/19 449/6/20
f 449/6/20 451/8/13 450/7/13
f 451/8/13 453/10/21 452/9/21
f 453/10/21 455/12/22 454/11/22
f 455/12/22 457/14/7 456/13/7
f 457/14/7 459/16/23 458/15/23
f 459/16/23 461/18/24 460/17/24
f 461/18/24 463/20/14 462/19/14
f 463/20/14 465/22/25 464/21/25
f 54/56/4 52/131/4 50/132/4
f 50/132/4 467/133/4 70/54/4
f 70/54/4 68/134/4 66/135/4
f 66/135/4 64/136/4 62/55/4
f 62/55/4 60/137/4 58/138/4
f 58/138/4 56/139/4 54/56/4
f 54/56/4 50/132/4 70/54/4
f 70/54/4 66/135/4 62/55/4
f 62/55/4 58/138/4 54/56/4
f 465/22/25 72/24/26 466/23/26
f 72/24/26 447/130/1 444/25/1
f 71/59/10 49/140/10 51/141/10
f 51/141/10 53/142/10 55/57/10
f 55/57/10 57/143/10 59/144/10
f 59/144/10 61/145/10 63/58/10
f 63/58/10 65/146/10 67/147/10
f 67/147/10 69/148/10 71/59/10
f 71/59/10 51/141/10 55/57/10
f 55/57/10 59/144/10 63/58/10
f 63/58/10 67/147/10 71/59/10
f 471/1/1 470/4/2 469/2/2
f 470/4/2 473/6/3 472/5/3
f 473/6/3 475/8/4 474/7/4
f 475/8/4 477/10/5 476/9/5
f 477/10/5 479/12/6 478/11/6
f 479/12/6 481/14/7 480/13/7
f 481/14/7 483/16/8 482/15/8
f 483/16/8 485/18/9 484/17/9
f 485/18/9 487/20/10 486/19/10
f 487/20/10 489/22/11 488/21/11
f 78/56/14 76/149/14 74/150/14
f 74/150/14 491/151/14 94/54/14
f 94/54/14 92/152/14 90/135/14
f 90/135/14 88/153/14 86/55/14
f 86/55/14 84/154/14 82/138/14
f 82/138/14 80/139/14 78/56/14
f 78/56/14 74/150/14 94/54/14
f 94/54/14 90/135/14 86/55/14
f 86/55/14 82/138/14 78/56/14
f 489/22/11 96/24/12 490/23/12
f 96/24/12 471/130/1 468/25/1
f 95/61/13 73/155/13 75/156/13
f 75/156/13 77/142/13 79/57/13
f 79/57/13 81/143/13 83/157/13
f 83/157/13 85/145/13 87/60/13
f 87/60/13 89/146/13 91/147/13
f 91/147/13 93/148/13 95/61/13
f 95/61/13 75/156/13 79/57/13
f 79/57/13 83/157/13 87/60/13
f 87/60/13 91/147/13 95/61/13
f 101/26/10 516/26/10 518/41/10
f 438/51/7 435/49/7 495/49/27
f 436/29/1 496/29/33 492/32/29
f 48/43/30 499/43/30 497/44/31
f 503/41/29 519/41/32 522/42/32
f 47/39/34 505/39/34 507/40/35
f 442/34/7 506/34/28 501/53/27
f 440/42/1 431/41/1 503/41/29
f 508/44/14 514/43/14 512/49/14
f 110/62/14 517/71/14 520/40/14
f 495/49/27 513/49/36 515/51/36
f 103/40/4 104/39/4 112/39/4
f 496/29/33 509/29/32 511/32/32
f 506/34/28 111/34/36 109/53/36
f 100/43/10 108/43/10 105/44/10
f 99/49/4 98/32/4 106/32/4
f 528/26/10 530/41/10 524/27/10
f 531/41/37 534/32/37 532/30/37
f 533/30/4 535/32/4 538/49/4
f 539/49/38 529/53/38 527/35/38
f 119/30/1 117/33/1 113/46/1
f 116/62/7 114/71/7 118/49/7
f 543/1/1 542/4/19 541/2/19
f 541/2/19 542/4/19 545/6/20
f 545/6/20 547/8/13 546/7/13
f 547/8/13 549/10/21 548/9/21
f 549/10/21 551/12/22 550/11/22
f 550/11/22 551/12/22 553/14/7
f 553/14/7 555/16/23 554/15/23
f 555/16/23 557/18/24 556/17/24
f 557/18/24 559/20/14 558/19/14
f 559/20/14 561/22/25 560/21/25
f 126/56/4 124/131/4 122/132/4
f 122/132/4 563/133/4 142/54/4
f 142/54/4 140/134/4 138/135/4
f 138/135/4 136/136/4 134/55/4
f 134/55/4 132/137/4 130/138/4
f 130/138/4 128/139/4 126/56/4
f 126/56/4 122/132/4 142/54/4
f 142/54/4 138/135/4 134/55/4
f 134/55/4 130/138/4 126/56/4
f 560/21/25 561/22/25 144/24/26
f 144/24/26 543/130/1 540/25/1
f 143/59/10 121/140/10 123/141/10
f 123/141/10 125/142/10 127/57/10
f 127/57/10 129/143/10 131/144/10
f 131/144/10 133/145/10 135/58/10
f 135/58/10 137/146/10 139/147/10
f 139/147/10 141/148/10 143/59/10
f 143/59/10 123/141/10 127/57/10
f 127/57/10 131/144/10 135/58/10
f 135/58/10 139/147/10 143/59/10
f 565/26/10 567/41/10 578/63/10
f 568/41/1 569/32/1 580/65/1
f 570/32/4 571/49/4 154/66/4
f 572/49/7 566/53/7 151/67/7
f 621/68/1 629/68/1 623/69/1
f 573/66/7 151/67/7 576/35/7
f 586/26/10 588/41/10 582/27/10
f 589/41/1 592/32/1 590/30/1
f 593/32/4 596/49/4 594/33/4
f 597/49/7 587/53/7 585/35/7
f 161/30/13 159/33/13 155/46/13
f 158/62/14 156/71/14 160/49/14
f 176/49/7 613/53/7 171/35/7
f 166/41/1 601/32/1 598/30/1
f 174/41/1 609/32/1 606/30/1
f 168/49/7 605/53/7 163/35/7
f 169/30/13 603/33/13 602/46/13
f 600/62/14 164/71/14 604/49/14
f 177/30/13 611/33/13 610/46/13
f 608/62/14 172/71/14 612/49/14
f 616/70/14 180/62/14 179/71/14
f 618/72/14 181/32/14 180/62/14
f 620/68/14 182/49/14 181/32/14
f 614/69/14 179/71/14 182/49/14
f 624/70/14 622/69/14 628/68/14
f 617/70/7 625/70/7 627/72/7
f 150/72/10 185/72/10 186/68/10
f 146/69/4 183/69/4 184/70/4
f 189/73/39 188/78/44 191/74/40
f 630/76/42 189/73/39 192/75/41
f 631/77/43 192/75/41 195/80/46
f 192/75/41 191/74/40 194/82/48
f 632/81/47 195/80/46 198/83/49
f 195/80/46 194/82/48 197/85/51
f 633/65/50 198/83/49 201/86/52
f 198/83/49 197/85/51 200/89/54
f 634/87/53 201/86/52 204/90/55
f 200/89/54 203/92/57 204/90/55
f 204/90/55 203/92/57 206/94/58
f 204/90/55 207/95/59 636/96/60
f 206/94/58 209/100/63 210/97/61
f 636/96/60 207/95/59 210/97/61
f 210/97/61 209/100/63 212/101/64
f 210/97/61 213/102/65 638/103/66
f 212/101/64 215/108/69 216/105/67
f 638/103/66 213/102/65 216/105/67
f 216/109/67 215/113/69 218/110/70
f 639/3/68 216/109/67 219/111/71
f 218/110/70 221/117/75 222/115/73
f 219/111/71 222/115/73 641/5/74
f 222/115/73 189/73/39 630/76/42
f 221/117/75 188/78/44 189/73/39
f 223/5/76 190/76/76 193/77/76
f 193/77/76 196/81/76 199/65/76
f 199/65/76 202/87/76 205/91/76
f 205/91/76 208/96/76 211/98/76
f 211/98/76 214/103/76 217/3/76
f 217/3/76 220/112/76 223/5/76
f 223/5/76 193/77/76 199/65/76
f 199/65/76 205/91/76 211/98/76
f 211/98/76 217/3/76 223/5/76
f 646/119/77 648/47/77 642/120/77
f 647/123/10 577/28/10 564/64/10
f 564/64/10 578/63/10 649/122/10
f 152/63/45 153/65/45 643/120/45
f 645/121/13 575/33/13 145/46/13
f 148/33/4 226/121/4 227/120/4
f 227/120/4 581/65/4 154/66/4
f 241/49/7 662/53/7 661/35/7
f 231/41/1 653/32/1 650/30/1
f 665/41/1 667/32/1 666/30/1
f 233/49/7 657/53/7 228/35/7
f 234/30/13 655/33/13 654/46/13
f 652/62/14 229/71/14 656/49/14
f 242/30/4 668/33/4 660/46/4
f 664/62/10 663/71/10 669/49/10
f 236/35/13 237/71/13 239/41/13
f 248/33/7 249/49/7 674/53/7
f 677/41/1 679/32/1 678/30/1
f 250/30/17 680/33/17 672/46/17
f 676/62/30 675/71/30 681/49/30
f 244/35/13 245/71/13 247/41/13
f 685/1/1 684/4/19 683/2/19
f 684/4/19 687/6/20 686/5/20
f 687/6/20 689/8/13 688/7/13
f 689/8/13 691/10/21 690/9/21
f 691/10/21 693/12/22 692/11/22
f 692/11/22 693/12/22 695/14/7
f 695/14/7 697/16/23 696/15/23
f 697/16/23 699/18/24 698/17/24
f 699/18/24 701/20/14 700/19/14
f 701/20/14 703/22/25 702/21/25
f 257/56/4 255/131/4 253/132/4
f 253/132/4 705/133/4 273/54/4
f 273/54/4 271/134/4 269/135/4
f 269/135/4 267/136/4 265/55/4
f 265/55/4 263/137/4 261/138/4
f 261/138/4 259/139/4 257/56/4
f 257/56/4 253/132/4 273/54/4
f 273/54/4 269/135/4 265/55/4
f 265/55/4 261/138/4 257/56/4
f 703/22/25 275/24/26 704/23/26
f 275/24/26 685/130/1 682/25/1
f 274/59/10 252/140/10 254/141/10
f 254/141/10 256/142/10 258/57/10
f 258/57/10 260/143/10 262/144/10
f 262/144/10 264/145/10 266/58/10
f 266/58/10 268/146/10 270/147/10
f 270/147/10 272/148/10 274/59/10
f 274/59/10 254/141/10 258/57/10
f 258/57/10 262/144/10 266/58/10
f 266/58/10 270/147/10 274/59/10
f 709/1/1 708/4/19 707/2/19
f 708/4/19 711/6/20 710/5/20
f 711/6/20 713/8/13 712/7/13
f 713/8/13 715/10/21 714/9/21
f 715/10/21 717/12/22 716/11/22
f 716/11/22 717/12/22 719/14/7
f 719/14/7 721/16/23 720/15/23
f 721/16/23 723/18/24 722/17/24
f 723/18/24 725/20/14 724/19/14
f 725/20/14 727/22/25 726/21/25
f 281/56/4 279/131/4 277/132/4
f 277/132/4 729/133/4 297/54/4
f 297/54/4 295/134/4 293/135/4
f 293/135/4 291/136/4 289/55/4
f 289/55/4 287/137/4 285/138/4
f 285/138/4 283/139/4 281/56/4
f 281/56/4 277/132/4 297/54/4
f 297/54/4 293/135/4 289/55/4
f 289/55/4 285/138/4 281/56/4
f 727/22/25 299/24/26 728/23/26
f 299/24/26 709/130/1 706/25/1
f 298/59/10 276/140/10 278/141/10
f 278/141/10 280/142/10 282/57/10
f 282/57/10 284/143/10 286/144/10
f 286/144/10 288/145/10 290/58/10
f 290/58/10 292/146/10 294/147/10
f 294/147/10 296/148/10 298/59/10
f 298/59/10 278/141/10 282/57/10
f 282/57/10 286/144/10 290/58/10
f 290/58/10 294/147/10 298/59/10
f 323/124/78 322/124/90 310/124/79
f 301/124/80 313/124/80 312/124/81
f 320/124/82 319/124/83 307/124/83
f 305/124/85 317/124/85 316/124/86
f 312/124/81 323/124/78 311/124/78
f 302/124/88 314/124/88 313/124/80
f 321/124/10 320/124/82 308/124/84
f 306/124/89 318/124/89 317/124/85
f 315/124/4 314/124/88 302/124/88
f 322/124/90 321/124/10 309/124/10
f 319/124/83 318/124/89 306/124/89
f 304/124/87 316/124/86 315/124/4
f 325/1/14 327/116/91 731/62/91
f 327/116/91 329/125/4 732/76/4
f 329/125/4 331/53/92 733/32/92
f 331/53/92 333/67/13 734/65/13
f 333/67/13 335/35/93 735/30/93
f 335/35/93 337/126/10 736/96/10
f 337/126/10 339/104/94 737/47/94
f 339/104/94 325/158/14 730/106/14
f 338/129/1 324/140/1 326/159/1
f 326/159/1 328/57/1 330/127/1
f 330/127/1 332/145/1 334/128/1
f 334/128/1 336/147/1 338/129/1
f 338/129/1 326/159/1 330/127/1
f 341/1/14 343/116/91 739/62/91
f 343/116/91 345/125/4 740/76/4
f 345/125/4 347/53/92 741/32/92
f 347/53/92 349/67/13 742/65/13
f 349/67/13 351/35/93 743/30/93
f 351/35/93 353/126/10 744/96/10
f 353/126/10 355/104/94 745/47/94
f 355/104/94 341/158/14 738/106/14
f 354/129/1 340/140/1 342/159/1
f 342/159/1 344/57/1 346/127/1
f 346/127/1 348/145/1 350/128/1
f 350/128/1 352/147/1 354/129/1
f 354/129/1 342/159/1 346/127/1
f 357/1/14 359/116/91 747/62/91
f 359/116/91 361/125/4 748/76/4
f 361/125/4 363/53/92 749/32/92
f 363/53/92 365/67/13 750/65/13
f 365/67/13 367/35/93 751/30/93
f 367/35/93 369/126/10 752/96/10
f 369/126/10 371/104/94 753/47/94
f 371/104/94 357/158/14 746/106/14
f 370/129/1 356/140/1 358/159/1
f 358/159/1 360/57/1 362/127/1
f 362/127/1 364/145/1 366/128/1
f 366/128/1 368/147/1 370/129/1
f 370/129/1 358/159/1 362/127/1
f 373/1/14 375/116/91 755/62/91
f 375/116/91 377/125/4 756/76/4
f 377/125/4 379/53/92 757/32/92
f 379/53/92 381/67/13 758/65/13
f 381/67/13 383/35/93 759/30/93
f 383/35/93 385/126/10 760/96/10
f 385/126/10 387/104/94 761/47/94
f 387/104/94 373/158/14 754/106/14
f 386/129/1 372/140/1 374/159/1
f 374/159/1 376/57/1 378/127/1
f 378/127/1 380/145/1 382/128/1
f 382/128/1 384/147/1 386/129/1
f 386/129/1 374/159/1 378/127/1
f 389/1/14 391/116/91 763/62/91
f 391/116/91 393/125/4 764/76/4
f 393/125/4 395/53/92 765/32/92
f 395/53/92 397/67/13 766/65/13
f 397/67/13 399/35/93 767/30/93
f 399/35/93 401/126/10 768/96/10
f 401/126/10 403/104/94 769/47/94
f 403/104/94 389/158/14 762/106/14
f 402/129/1 388/140/1 390/159/1
f 390/159/1 392/57/1 394/127/1
f 394/127/1 396/145/1 398/128/1
f 398/128/1 400/147/1 402/129/1
f 402/129/1 390/159/1 394/127/1
