# Blender 5.1.0
# www.blender.org
mtllib SentryLights.mtl
o Cube.041
v 0.237071 0.757071 -0.015000
v 0.230000 0.760000 -0.015000
v 0.240000 0.750000 -0.015000
v 0.237071 0.742929 -0.015000
v 0.230000 0.740000 -0.015000
v 0.222929 0.742929 -0.015000
v 0.220000 0.750000 -0.015000
v 0.222929 0.757071 -0.015000
v 0.230000 0.760000 -0.025000
v 0.222929 0.742929 -0.025000
v 0.230000 0.740000 -0.025000
v 0.237071 0.742929 -0.025000
v 0.237071 0.757071 -0.025000
v 0.230000 0.750000 -0.035000
v 0.230000 0.745000 -0.033660
v 0.233536 0.746465 -0.033660
v 0.236124 0.743876 -0.030000
v 0.235000 0.750000 -0.033660
v 0.238660 0.750000 -0.030000
v 0.240000 0.750000 -0.025000
v 0.233536 0.753536 -0.033660
v 0.236124 0.756124 -0.030000
v 0.230000 0.755000 -0.033660
v 0.230000 0.758660 -0.030000
v 0.226465 0.753536 -0.033660
v 0.223876 0.756124 -0.030000
v 0.222929 0.757071 -0.025000
v 0.225000 0.750000 -0.033660
v 0.221340 0.750000 -0.030000
v 0.220000 0.750000 -0.025000
v 0.226465 0.746465 -0.033660
v 0.223876 0.743876 -0.030000
v 0.230000 0.741340 -0.030000
v 0.237071 0.727071 -0.015000
v 0.230000 0.730000 -0.015000
v 0.240000 0.720000 -0.015000
v 0.237071 0.712929 -0.015000
v 0.230000 0.710000 -0.015000
v 0.222929 0.712929 -0.015000
v 0.220000 0.720000 -0.015000
v 0.222929 0.727071 -0.015000
v 0.230000 0.730000 -0.025000
v 0.222929 0.712929 -0.025000
v 0.230000 0.710000 -0.025000
v 0.237071 0.712929 -0.025000
v 0.237071 0.727071 -0.025000
v 0.230000 0.720000 -0.035000
v 0.230000 0.715000 -0.033660
v 0.233536 0.716465 -0.033660
v 0.236124 0.713876 -0.030000
v 0.235000 0.720000 -0.033660
v 0.238660 0.720000 -0.030000
v 0.240000 0.720000 -0.025000
v 0.233536 0.723536 -0.033660
v 0.236124 0.726124 -0.030000
v 0.230000 0.725000 -0.033660
v 0.230000 0.728660 -0.030000
v 0.226465 0.723536 -0.033660
v 0.223876 0.726124 -0.030000
v 0.222929 0.727071 -0.025000
v 0.225000 0.720000 -0.033660
v 0.221340 0.720000 -0.030000
v 0.220000 0.720000 -0.025000
v 0.226465 0.716465 -0.033660
v 0.223876 0.713876 -0.030000
v 0.230000 0.711340 -0.030000
v 0.237071 0.697071 -0.015000
v 0.230000 0.700000 -0.015000
v 0.240000 0.690000 -0.015000
v 0.237071 0.682929 -0.015000
v 0.230000 0.680000 -0.015000
v 0.222929 0.682929 -0.015000
v 0.220000 0.690000 -0.015000
v 0.222929 0.697071 -0.015000
v 0.230000 0.700000 -0.025000
v 0.222929 0.682929 -0.025000
v 0.230000 0.680000 -0.025000
v 0.237071 0.682929 -0.025000
v 0.237071 0.697071 -0.025000
v 0.230000 0.690000 -0.035000
v 0.230000 0.685000 -0.033660
v 0.233536 0.686465 -0.033660
v 0.236124 0.683876 -0.030000
v 0.235000 0.690000 -0.033660
v 0.238660 0.690000 -0.030000
v 0.240000 0.690000 -0.025000
v 0.233536 0.693536 -0.033660
v 0.236124 0.696124 -0.030000
v 0.230000 0.695000 -0.033660
v 0.230000 0.698660 -0.030000
v 0.226465 0.693536 -0.033660
v 0.223876 0.696124 -0.030000
v 0.222929 0.697071 -0.025000
v 0.225000 0.690000 -0.033660
v 0.221340 0.690000 -0.030000
v 0.220000 0.690000 -0.025000
v 0.226465 0.686465 -0.033660
v 0.223876 0.683876 -0.030000
v 0.230000 0.681340 -0.030000
v 0.237071 0.667071 -0.015000
v 0.230000 0.670000 -0.015000
v 0.240000 0.660000 -0.015000
v 0.237071 0.652929 -0.015000
v 0.230000 0.650000 -0.015000
v 0.222929 0.652929 -0.015000
v 0.220000 0.660000 -0.015000
v 0.222929 0.667071 -0.015000
v 0.230000 0.670000 -0.025000
v 0.222929 0.652929 -0.025000
v 0.230000 0.650000 -0.025000
v 0.237071 0.652929 -0.025000
v 0.237071 0.667071 -0.025000
v 0.230000 0.660000 -0.035000
v 0.230000 0.655000 -0.033660
v 0.233536 0.656465 -0.033660
v 0.236124 0.653876 -0.030000
v 0.235000 0.660000 -0.033660
v 0.238660 0.660000 -0.030000
v 0.240000 0.660000 -0.025000
v 0.233536 0.663536 -0.033660
v 0.236124 0.666124 -0.030000
v 0.230000 0.665000 -0.033660
v 0.230000 0.668660 -0.030000
v 0.226465 0.663536 -0.033660
v 0.223876 0.666124 -0.030000
v 0.222929 0.667071 -0.025000
v 0.225000 0.660000 -0.033660
v 0.221340 0.660000 -0.030000
v 0.220000 0.660000 -0.025000
v 0.226465 0.656465 -0.033660
v 0.223876 0.653876 -0.030000
v 0.230000 0.651340 -0.030000
v 0.237071 0.637071 -0.015000
v 0.230000 0.640000 -0.015000
v 0.240000 0.630000 -0.015000
v 0.237071 0.622929 -0.015000
v 0.230000 0.620000 -0.015000
v 0.222929 0.622929 -0.015000
v 0.220000 0.630000 -0.015000
v 0.222929 0.637071 -0.015000
v 0.230000 0.640000 -0.025000
v 0.222929 0.622929 -0.025000
v 0.230000 0.620000 -0.025000
v 0.237071 0.622929 -0.025000
v 0.237071 0.637071 -0.025000
v 0.230000 0.630000 -0.035000
v 0.230000 0.625000 -0.033660
v 0.233536 0.626465 -0.033660
v 0.236124 0.623876 -0.030000
v 0.235000 0.630000 -0.033660
v 0.238660 0.630000 -0.030000
v 0.240000 0.630000 -0.025000
v 0.233536 0.633536 -0.033660
v 0.236124 0.636124 -0.030000
v 0.230000 0.635000 -0.033660
v 0.230000 0.638660 -0.030000
v 0.226465 0.633536 -0.033660
v 0.223876 0.636124 -0.030000
v 0.222929 0.637071 -0.025000
v 0.225000 0.630000 -0.033660
v 0.221340 0.630000 -0.030000
v 0.220000 0.630000 -0.025000
v 0.226465 0.626465 -0.033660
v 0.223876 0.623876 -0.030000
v 0.230000 0.621340 -0.030000
v 0.230000 0.760000 -0.025000
v 0.230000 0.760000 -0.025000
v 0.237071 0.757071 -0.025000
v 0.237071 0.757071 -0.025000
v 0.237071 0.742929 -0.025000
v 0.237071 0.742929 -0.025000
v 0.230000 0.740000 -0.025000
v 0.230000 0.740000 -0.025000
v 0.222929 0.742929 -0.025000
v 0.222929 0.742929 -0.025000
v 0.222929 0.757071 -0.025000
v 0.222929 0.757071 -0.025000
v 0.220000 0.750000 -0.025000
v 0.220000 0.750000 -0.025000
v 0.240000 0.750000 -0.025000
v 0.240000 0.750000 -0.025000
v 0.230000 0.730000 -0.025000
v 0.230000 0.730000 -0.025000
v 0.237071 0.727071 -0.025000
v 0.237071 0.727071 -0.025000
v 0.237071 0.712929 -0.025000
v 0.237071 0.712929 -0.025000
v 0.230000 0.710000 -0.025000
v 0.230000 0.710000 -0.025000
v 0.222929 0.712929 -0.025000
v 0.222929 0.712929 -0.025000
v 0.222929 0.727071 -0.025000
v 0.222929 0.727071 -0.025000
v 0.220000 0.720000 -0.025000
v 0.220000 0.720000 -0.025000
v 0.240000 0.720000 -0.025000
v 0.240000 0.720000 -0.025000
v 0.230000 0.700000 -0.025000
v 0.230000 0.700000 -0.025000
v 0.237071 0.697071 -0.025000
v 0.237071 0.697071 -0.025000
v 0.237071 0.682929 -0.025000
v 0.237071 0.682929 -0.025000
v 0.230000 0.680000 -0.025000
v 0.230000 0.680000 -0.025000
v 0.222929 0.682929 -0.025000
v 0.222929 0.682929 -0.025000
v 0.222929 0.697071 -0.025000
v 0.222929 0.697071 -0.025000
v 0.220000 0.690000 -0.025000
v 0.220000 0.690000 -0.025000
v 0.240000 0.690000 -0.025000
v 0.240000 0.690000 -0.025000
v 0.230000 0.670000 -0.025000
v 0.230000 0.670000 -0.025000
v 0.237071 0.667071 -0.025000
v 0.237071 0.667071 -0.025000
v 0.237071 0.652929 -0.025000
v 0.237071 0.652929 -0.025000
v 0.230000 0.650000 -0.025000
v 0.230000 0.650000 -0.025000
v 0.222929 0.652929 -0.025000
v 0.222929 0.652929 -0.025000
v 0.222929 0.667071 -0.025000
v 0.222929 0.667071 -0.025000
v 0.220000 0.660000 -0.025000
v 0.220000 0.660000 -0.025000
v 0.240000 0.660000 -0.025000
v 0.240000 0.660000 -0.025000
v 0.230000 0.640000 -0.025000
v 0.230000 0.640000 -0.025000
v 0.237071 0.637071 -0.025000
v 0.237071 0.637071 -0.025000
v 0.237071 0.622929 -0.025000
v 0.237071 0.622929 -0.025000
v 0.230000 0.620000 -0.025000
v 0.230000 0.620000 -0.025000
v 0.222929 0.622929 -0.025000
v 0.222929 0.622929 -0.025000
v 0.222929 0.637071 -0.025000
v 0.222929 0.637071 -0.025000
v 0.220000 0.630000 -0.025000
v 0.220000 0.630000 -0.025000
v 0.240000 0.630000 -0.025000
v 0.240000 0.630000 -0.025000
vn 0.7071 0.7071 -0.0000
vn -0.0000 1.0000 -0.0000
vn 1.0000 -0.0000 -0.0000
vn 0.7071 -0.7071 -0.0000
vn -0.0000 -1.0000 -0.0000
vn -0.7071 -0.7071 -0.0000
vn -1.0000 -0.0000 -0.0000
vn -0.7071 0.7071 -0.0000
vn -0.0000 0.9659 -0.2588
vn -0.6830 -0.6830 -0.2588
vn -0.0000 -0.9659 -0.2588
vn 0.6830 -0.6830 -0.2588
vn 0.6830 0.6830 -0.2588
vn -0.0000 -0.0000 -1.0000
vn -0.0000 -0.5452 -0.8383
vn 0.3855 -0.3855 -0.8383
vn 0.6225 -0.6225 -0.4744
vn 0.5452 -0.0000 -0.8383
vn 0.8803 -0.0000 -0.4744
vn 0.3855 0.3855 -0.8383
vn 0.6225 0.6225 -0.4744
vn -0.0000 0.5452 -0.8383
vn -0.0000 0.8803 -0.4744
vn -0.3855 0.3855 -0.8383
vn -0.6225 0.6225 -0.4744
vn -0.5452 -0.0000 -0.8383
vn -0.8803 -0.0000 -0.4744
vn -0.3855 -0.3855 -0.8383
vn -0.6225 -0.6225 -0.4744
vn -0.0000 -0.8803 -0.4744
vn -0.6830 0.6830 -0.2588
vn -0.9659 -0.0000 -0.2588
vn 0.9659 -0.0000 -0.2588
vt 0.919706 0.080294
vt 0.750000 0.010000
vt 0.919706 0.419706
vt 0.750000 0.490000
vt 0.580294 0.080294
vt 0.580294 0.419706
vt 0.510000 0.250000
vt 0.990000 0.250000
vt 0.750000 0.833333
vt 0.625000 0.666667
vt 0.750000 0.666667
vt 0.750000 0.500000
vt 0.625000 0.500000
vt 0.687500 1.000000
vt 0.625000 0.833333
vt 0.500000 0.500000
vt 0.562500 1.000000
vt 0.500000 0.833333
vt 0.500000 0.666667
vt 0.375000 0.666667
vt 0.375000 0.500000
vt 0.437500 1.000000
vt 0.375000 0.833333
vt 0.250000 0.666667
vt 0.250000 0.500000
vt 0.312500 1.000000
vt 0.250000 0.833333
vt 0.125000 0.666667
vt 0.125000 0.500000
vt 0.187500 1.000000
vt 0.125000 0.833333
vt 0.062500 1.000000
vt 0.000000 0.833333
vt 0.000000 0.666667
vt 0.000000 0.500000
vt 1.000000 0.666667
vt 0.875000 0.833333
vt 0.875000 0.666667
vt 0.875000 0.500000
vt 1.000000 0.500000
vt 1.000000 0.833333
vt 0.937500 1.000000
vt 0.812500 1.000000
s 1
f 4/1/4 173/2/5 171/1/4
f 1/3/1 167/4/2 2/4/2
f 5/2/5 175/5/6 173/2/5
f 8/6/8 30/7/7 7/7/7
f 3/8/3 169/3/1 1/3/1
f 2/4/2 27/6/8 8/6/8
f 6/5/6 30/7/7 175/5/6
f 170/1/14 174/5/14 177/6/14
f 3/8/3 171/1/4 181/8/3
f 15/9/15 17/10/17 33/11/30
f 11/12/11 17/10/17 12/13/12
f 15/9/15 14/14/14 16/15/16
f 17/10/17 180/16/33 12/13/12
f 16/15/16 14/17/14 18/18/18
f 16/15/16 19/19/19 17/10/17
f 180/16/33 22/20/21 13/21/13
f 18/18/18 14/22/14 21/23/20
f 19/19/19 21/23/20 22/20/21
f 13/21/13 24/24/23 9/25/9
f 21/23/20 14/26/14 23/27/22
f 21/23/20 24/24/23 22/20/21
f 9/25/9 26/28/25 176/29/31
f 23/27/22 14/30/14 25/31/24
f 24/24/23 25/31/24 26/28/25
f 25/31/24 14/32/14 28/33/26
f 25/31/24 29/34/27 26/28/25
f 176/29/31 29/34/27 178/35/32
f 29/36/27 31/37/28 32/38/29
f 29/36/27 10/39/10 178/40/32
f 28/41/26 14/42/14 31/37/28
f 32/38/29 15/9/15 33/11/30
f 32/38/29 11/12/11 10/39/10
f 31/37/28 14/43/14 15/9/15
f 37/1/4 189/2/5 187/1/4
f 34/3/1 183/4/2 35/4/2
f 38/2/5 191/5/6 189/2/5
f 41/6/8 63/7/7 40/7/7
f 36/8/3 185/3/1 34/3/1
f 35/4/2 60/6/8 41/6/8
f 39/5/6 63/7/7 191/5/6
f 186/1/14 190/5/14 193/6/14
f 36/8/3 187/1/4 197/8/3
f 48/9/15 50/10/17 66/11/30
f 66/11/30 45/13/12 44/12/11
f 48/9/15 47/14/14 49/15/16
f 50/10/17 196/16/33 45/13/12
f 49/15/16 47/17/14 51/18/18
f 49/15/16 52/19/19 50/10/17
f 52/19/19 46/21/13 196/16/33
f 51/18/18 47/22/14 54/23/20
f 52/19/19 54/23/20 55/20/21
f 46/21/13 57/24/23 42/25/9
f 54/23/20 47/26/14 56/27/22
f 54/23/20 57/24/23 55/20/21
f 42/25/9 59/28/25 192/29/31
f 56/27/22 47/30/14 58/31/24
f 57/24/23 58/31/24 59/28/25
f 58/31/24 47/32/14 61/33/26
f 58/31/24 62/34/27 59/28/25
f 192/29/31 62/34/27 194/35/32
f 62/36/27 64/37/28 65/38/29
f 62/36/27 43/39/10 194/40/32
f 61/41/26 47/42/14 64/37/28
f 64/37/28 66/11/30 65/38/29
f 65/38/29 44/12/11 43/39/10
f 64/37/28 47/43/14 48/9/15
f 70/1/4 205/2/5 203/1/4
f 67/3/1 199/4/2 68/4/2
f 71/2/5 207/5/6 205/2/5
f 74/6/8 96/7/7 73/7/7
f 69/8/3 201/3/1 67/3/1
f 68/4/2 93/6/8 74/6/8
f 72/5/6 96/7/7 207/5/6
f 202/1/14 206/5/14 209/6/14
f 69/8/3 203/1/4 213/8/3
f 81/9/15 83/10/17 99/11/30
f 77/12/11 83/10/17 78/13/12
f 81/9/15 80/14/14 82/15/16
f 83/10/17 212/16/33 78/13/12
f 82/15/16 80/17/14 84/18/18
f 82/15/16 85/19/19 83/10/17
f 85/19/19 79/21/13 212/16/33
f 84/18/18 80/22/14 87/23/20
f 85/19/19 87/23/20 88/20/21
f 79/21/13 90/24/23 75/25/9
f 87/23/20 80/26/14 89/27/22
f 87/23/20 90/24/23 88/20/21
f 75/25/9 92/28/25 208/29/31
f 89/27/22 80/30/14 91/31/24
f 90/24/23 91/31/24 92/28/25
f 91/31/24 80/32/14 94/33/26
f 91/31/24 95/34/27 92/28/25
f 208/29/31 95/34/27 210/35/32
f 95/36/27 97/37/28 98/38/29
f 95/36/27 76/39/10 210/40/32
f 94/41/26 80/42/14 97/37/28
f 97/37/28 99/11/30 98/38/29
f 98/38/29 77/12/11 76/39/10
f 97/37/28 80/43/14 81/9/15
f 103/1/4 221/2/5 219/1/4
f 100/3/1 215/4/2 101/4/2
f 104/2/5 223/5/6 221/2/5
f 107/6/8 129/7/7 106/7/7
f 102/8/3 217/3/1 100/3/1
f 101/4/2 126/6/8 107/6/8
f 105/5/6 129/7/7 223/5/6
f 218/1/14 222/5/14 225/6/14
f 102/8/3 219/1/4 229/8/3
f 114/9/15 116/10/17 132/11/30
f 132/11/30 111/13/12 110/12/11
f 114/9/15 113/14/14 115/15/16
f 111/13/12 118/19/19 228/16/33
f 115/15/16 113/17/14 117/18/18
f 115/15/16 118/19/19 116/10/17
f 118/19/19 112/21/13 228/16/33
f 117/18/18 113/22/14 120/23/20
f 118/19/19 120/23/20 121/20/21
f 112/21/13 123/24/23 108/25/9
f 120/23/20 113/26/14 122/27/22
f 120/23/20 123/24/23 121/20/21
f 108/25/9 125/28/25 224/29/31
f 122/27/22 113/30/14 124/31/24
f 123/24/23 124/31/24 125/28/25
f 124/31/24 113/32/14 127/33/26
f 124/31/24 128/34/27 125/28/25
f 224/29/31 128/34/27 226/35/32
f 128/36/27 130/37/28 131/38/29
f 128/36/27 109/39/10 226/40/32
f 127/41/26 113/42/14 130/37/28
f 130/37/28 132/11/30 131/38/29
f 131/38/29 110/12/11 109/39/10
f 130/37/28 113/43/14 114/9/15
f 136/1/4 237/2/5 235/1/4
f 133/3/1 231/4/2 134/4/2
f 137/2/5 239/5/6 237/2/5
f 140/6/8 162/7/7 139/7/7
f 135/8/3 233/3/1 133/3/1
f 134/4/2 159/6/8 140/6/8
f 138/5/6 162/7/7 239/5/6
f 234/1/14 238/5/14 241/6/14
f 135/8/3 235/1/4 245/8/3
f 147/9/15 149/10/17 165/11/30
f 165/11/30 144/13/12 143/12/11
f 147/9/15 146/14/14 148/15/16
f 149/10/17 244/16/33 144/13/12
f 148/15/16 146/17/14 150/18/18
f 148/15/16 151/19/19 149/10/17
f 151/19/19 145/21/13 244/16/33
f 150/18/18 146/22/14 153/23/20
f 151/19/19 153/23/20 154/20/21
f 145/21/13 156/24/23 141/25/9
f 153/23/20 146/26/14 155/27/22
f 154/20/21 155/27/22 156/24/23
f 141/25/9 158/28/25 240/29/31
f 155/27/22 146/30/14 157/31/24
f 156/24/23 157/31/24 158/28/25
f 157/31/24 146/32/14 160/33/26
f 157/31/24 161/34/27 158/28/25
f 240/29/31 161/34/27 242/35/32
f 161/36/27 163/37/28 164/38/29
f 161/36/27 142/39/10 242/40/32
f 160/41/26 146/42/14 163/37/28
f 163/37/28 165/11/30 164/38/29
f 164/38/29 143/12/11 142/39/10
f 163/37/28 146/43/14 147/9/15
f 4/1/4 5/2/5 173/2/5
f 1/3/1 169/3/1 167/4/2
f 5/2/5 6/5/6 175/5/6
f 8/6/8 27/6/8 30/7/7
f 3/8/3 181/8/3 169/3/1
f 2/4/2 167/4/2 27/6/8
f 6/5/6 7/7/7 30/7/7
f 177/6/14 166/4/14 168/3/14
f 168/3/14 20/8/14 170/1/14
f 170/1/14 172/2/14 174/5/14
f 174/5/14 179/7/14 177/6/14
f 177/6/14 168/3/14 170/1/14
f 3/8/3 4/1/4 171/1/4
f 15/9/15 16/15/16 17/10/17
f 11/12/11 33/11/30 17/10/17
f 17/10/17 19/19/19 180/16/33
f 16/15/16 18/18/18 19/19/19
f 180/16/33 19/19/19 22/20/21
f 19/19/19 18/18/18 21/23/20
f 13/21/13 22/20/21 24/24/23
f 21/23/20 23/27/22 24/24/23
f 9/25/9 24/24/23 26/28/25
f 24/24/23 23/27/22 25/31/24
f 25/31/24 28/33/26 29/34/27
f 176/29/31 26/28/25 29/34/27
f 29/36/27 28/41/26 31/37/28
f 29/36/27 32/38/29 10/39/10
f 32/38/29 31/37/28 15/9/15
f 32/38/29 33/11/30 11/12/11
f 37/1/4 38/2/5 189/2/5
f 34/3/1 185/3/1 183/4/2
f 38/2/5 39/5/6 191/5/6
f 41/6/8 60/6/8 63/7/7
f 36/8/3 197/8/3 185/3/1
f 35/4/2 183/4/2 60/6/8
f 39/5/6 40/7/7 63/7/7
f 193/6/14 182/4/14 184/3/14
f 184/3/14 53/8/14 186/1/14
f 186/1/14 188/2/14 190/5/14
f 190/5/14 195/7/14 193/6/14
f 193/6/14 184/3/14 186/1/14
f 36/8/3 37/1/4 187/1/4
f 48/9/15 49/15/16 50/10/17
f 66/11/30 50/10/17 45/13/12
f 50/10/17 52/19/19 196/16/33
f 49/15/16 51/18/18 52/19/19
f 52/19/19 55/20/21 46/21/13
f 52/19/19 51/18/18 54/23/20
f 46/21/13 55/20/21 57/24/23
f 54/23/20 56/27/22 57/24/23
f 42/25/9 57/24/23 59/28/25
f 57/24/23 56/27/22 58/31/24
f 58/31/24 61/33/26 62/34/27
f 192/29/31 59/28/25 62/34/27
f 62/36/27 61/41/26 64/37/28
f 62/36/27 65/38/29 43/39/10
f 64/37/28 48/9/15 66/11/30
f 65/38/29 66/11/30 44/12/11
f 70/1/4 71/2/5 205/2/5
f 67/3/1 201/3/1 199/4/2
f 71/2/5 72/5/6 207/5/6
f 74/6/8 93/6/8 96/7/7
f 69/8/3 213/8/3 201/3/1
f 68/4/2 199/4/2 93/6/8
f 72/5/6 73/7/7 96/7/7
f 209/6/14 198/4/14 200/3/14
f 200/3/14 86/8/14 202/1/14
f 202/1/14 204/2/14 206/5/14
f 206/5/14 211/7/14 209/6/14
f 209/6/14 200/3/14 202/1/14
f 69/8/3 70/1/4 203/1/4
f 81/9/15 82/15/16 83/10/17
f 77/12/11 99/11/30 83/10/17
f 83/10/17 85/19/19 212/16/33
f 82/15/16 84/18/18 85/19/19
f 85/19/19 88/20/21 79/21/13
f 85/19/19 84/18/18 87/23/20
f 79/21/13 88/20/21 90/24/23
f 87/23/20 89/27/22 90/24/23
f 75/25/9 90/24/23 92/28/25
f 90/24/23 89/27/22 91/31/24
f 91/31/24 94/33/26 95/34/27
f 208/29/31 92/28/25 95/34/27
f 95/36/27 94/41/26 97/37/28
f 95/36/27 98/38/29 76/39/10
f 97/37/28 81/9/15 99/11/30
f 98/38/29 99/11/30 77/12/11
f 103/1/4 104/2/5 221/2/5
f 100/3/1 217/3/1 215/4/2
f 104/2/5 105/5/6 223/5/6
f 107/6/8 126/6/8 129/7/7
f 102/8/3 229/8/3 217/3/1
f 101/4/2 215/4/2 126/6/8
f 105/5/6 106/7/7 129/7/7
f 225/6/14 214/4/14 216/3/14
f 216/3/14 119/8/14 218/1/14
f 218/1/14 220/2/14 222/5/14
f 222/5/14 227/7/14 225/6/14
f 225/6/14 216/3/14 218/1/14
f 102/8/3 103/1/4 219/1/4
f 114/9/15 115/15/16 116/10/17
f 132/11/30 116/10/17 111/13/12
f 111/13/12 116/10/17 118/19/19
f 115/15/16 117/18/18 118/19/19
f 118/19/19 121/20/21 112/21/13
f 118/19/19 117/18/18 120/23/20
f 112/21/13 121/20/21 123/24/23
f 120/23/20 122/27/22 123/24/23
f 108/25/9 123/24/23 125/28/25
f 123/24/23 122/27/22 124/31/24
f 124/31/24 127/33/26 128/34/27
f 224/29/31 125/28/25 128/34/27
f 128/36/27 127/41/26 130/37/28
f 128/36/27 131/38/29 109/39/10
f 130/37/28 114/9/15 132/11/30
f 131/38/29 132/11/30 110/12/11
f 136/1/4 137/2/5 237/2/5
f 133/3/1 233/3/1 231/4/2
f 137/2/5 138/5/6 239/5/6
f 140/6/8 159/6/8 162/7/7
f 135/8/3 245/8/3 233/3/1
f 134/4/2 231/4/2 159/6/8
f 138/5/6 139/7/7 162/7/7
f 241/6/14 230/4/14 232/3/14
f 232/3/14 152/8/14 234/1/14
f 234/1/14 236/2/14 238/5/14
f 238/5/14 243/7/14 241/6/14
f 241/6/14 232/3/14 234/1/14
f 135/8/3 136/1/4 235/1/4
f 147/9/15 148/15/16 149/10/17
f 165/11/30 149/10/17 144/13/12
f 149/10/17 151/19/19 244/16/33
f 148/15/16 150/18/18 151/19/19
f 151/19/19 154/20/21 145/21/13
f 151/19/19 150/18/18 153/23/20
f 145/21/13 154/20/21 156/24/23
f 154/20/21 153/23/20 155/27/22
f 141/25/9 156/24/23 158/28/25
f 156/24/23 155/27/22 157/31/24
f 157/31/24 160/33/26 161/34/27
f 240/29/31 158/28/25 161/34/27
f 161/36/27 160/41/26 163/37/28
f 161/36/27 164/38/29 142/39/10
f 163/37/28 147/9/15 165/11/30
f 164/38/29 165/11/30 143/12/11
