# Blender 5.0.1
# www.blender.org
mtllib Crate.mtl
g Crate_Mesh
v -0.470000 1.020000 0.470000
v -0.470000 0.000000 0.470000
v -0.470000 1.020000 0.370000
v -0.470000 0.000000 0.370000
v -0.500000 1.020000 0.500000
v -0.500000 0.000000 0.500000
v -0.500000 1.020000 0.370000
v -0.500000 0.000000 0.370000
v -0.500000 0.000000 -0.370000
v -0.500000 1.020000 -0.370000
v -0.500000 0.000000 -0.500000
v -0.500000 1.020000 -0.500000
v -0.470000 0.000000 -0.370000
v -0.470000 1.020000 -0.370000
v -0.470000 0.000000 -0.470000
v -0.470000 1.020000 -0.470000
v -0.370000 1.020000 -0.500000
v -0.370000 0.000000 -0.500000
v -0.370000 0.000000 -0.470000
v -0.370000 1.020000 -0.470000
v -0.470000 0.900000 0.470000
v -0.470000 1.000000 0.470000
v -0.470000 0.900000 -0.470000
v -0.470000 1.000000 -0.470000
v -0.440000 0.900000 0.470000
v -0.440000 1.000000 0.470000
v -0.440000 0.900000 -0.470000
v -0.440000 1.000000 -0.470000
v -0.370000 1.020000 0.500000
v -0.370000 0.000000 0.500000
v -0.370000 0.000000 0.470000
v -0.370000 1.020000 0.470000
v 0.470000 1.020000 0.470000
v 0.470000 0.000000 0.470000
v 0.470000 1.020000 0.370000
v 0.470000 0.000000 0.370000
v 0.500000 1.020000 0.500000
v 0.500000 0.000000 0.500000
v 0.500000 1.020000 0.370000
v 0.500000 0.000000 0.370000
v 0.500000 0.000000 -0.370000
v 0.500000 1.020000 -0.370000
v 0.500000 0.000000 -0.500000
v 0.500000 1.020000 -0.500000
v 0.470000 0.000000 -0.370000
v 0.470000 1.020000 -0.370000
v 0.470000 0.000000 -0.470000
v 0.470000 1.020000 -0.470000
v 0.370000 1.020000 -0.500000
v 0.370000 0.000000 -0.500000
v 0.370000 0.000000 -0.470000
v 0.370000 1.020000 -0.470000
v 0.370000 1.020000 0.500000
v 0.370000 0.000000 0.500000
v 0.370000 0.000000 0.470000
v 0.370000 1.020000 0.470000
v -0.470000 0.010000 0.470000
v -0.470000 0.100000 0.470000
v -0.470000 0.010000 -0.470000
v -0.470000 0.100000 -0.470000
v -0.440000 0.010000 0.470000
v -0.440000 0.100000 0.470000
v -0.440000 0.010000 -0.470000
v -0.440000 0.100000 -0.470000
v -0.470000 0.110000 0.380000
v -0.470000 0.200000 0.470000
v -0.470000 0.800000 -0.470000
v -0.470000 0.890000 -0.380000
v -0.440000 0.110000 0.380000
v -0.440000 0.200000 0.470000
v -0.440000 0.800000 -0.470000
v -0.440000 0.890000 -0.380000
v 0.470000 0.900000 0.470000
v 0.470000 1.000000 0.470000
v 0.470000 0.900000 -0.470000
v 0.470000 1.000000 -0.470000
v 0.440000 0.900000 0.470000
v 0.440000 1.000000 0.470000
v 0.440000 0.900000 -0.470000
v 0.440000 1.000000 -0.470000
v 0.470000 0.010000 0.470000
v 0.470000 0.100000 0.470000
v 0.470000 0.010000 -0.470000
v 0.470000 0.100000 -0.470000
v 0.440000 0.010000 0.470000
v 0.440000 0.100000 0.470000
v 0.440000 0.010000 -0.470000
v 0.440000 0.100000 -0.470000
v 0.470000 0.110000 0.380000
v 0.470000 0.200000 0.470000
v 0.470000 0.800000 -0.470000
v 0.470000 0.890000 -0.380000
v 0.440000 0.110000 0.380000
v 0.440000 0.200000 0.470000
v 0.440000 0.800000 -0.470000
v 0.440000 0.890000 -0.380000
v 0.470000 0.900000 0.470000
v 0.470000 1.000000 0.470000
v -0.470000 0.900000 0.470000
v -0.470000 1.000000 0.470000
v 0.470000 0.900000 0.440000
v 0.470000 1.000000 0.440000
v -0.470000 0.900000 0.440000
v -0.470000 1.000000 0.440000
v 0.470000 0.010000 0.470000
v 0.470000 0.100000 0.470000
v -0.470000 0.010000 0.470000
v -0.470000 0.100000 0.470000
v 0.470000 0.010000 0.440000
v 0.470000 0.100000 0.440000
v -0.470000 0.010000 0.440000
v -0.470000 0.100000 0.440000
v 0.470000 0.900000 -0.470000
v 0.470000 1.000000 -0.470000
v -0.470000 0.900000 -0.470000
v -0.470000 1.000000 -0.470000
v 0.470000 0.900000 -0.440000
v 0.470000 1.000000 -0.440000
v -0.470000 0.900000 -0.440000
v -0.470000 1.000000 -0.440000
v 0.470000 0.010000 -0.470000
v 0.470000 0.100000 -0.470000
v -0.470000 0.010000 -0.470000
v -0.470000 0.100000 -0.470000
v 0.470000 0.010000 -0.440000
v 0.470000 0.100000 -0.440000
v -0.470000 0.010000 -0.440000
v -0.470000 0.100000 -0.440000
v -0.440000 0.030000 0.440000
v -0.440000 0.990000 0.440000
v -0.440000 0.030000 -0.440000
v -0.440000 0.990000 -0.440000
v 0.440000 0.030000 0.440000
v 0.440000 0.990000 0.440000
v 0.440000 0.030000 -0.440000
v 0.440000 0.990000 -0.440000
v -0.470000 1.010000 0.400000
v -0.390000 1.010000 0.470000
v 0.400000 1.010000 -0.470000
v 0.470000 1.010000 -0.390000
v -0.470000 0.990000 0.400000
v -0.390000 0.990000 0.470000
v 0.400000 0.990000 -0.470000
v 0.470000 0.990000 -0.390000
v 0.470000 0.437641 -0.066759
v 0.470000 0.527641 0.023241
v 0.440000 0.437641 -0.066759
v 0.440000 0.527641 0.023241
v -0.470000 0.474402 -0.050822
v -0.470000 0.564402 0.039178
v -0.440000 0.474402 -0.050822
v -0.440000 0.564402 0.039178
v -0.465885 0.510000 0.360879
v -0.465885 0.510000 0.460879
v -0.495885 0.510000 0.490879
v -0.495885 0.510000 0.360879
v -0.365885 0.510000 0.490879
v -0.365885 0.510000 0.460879
v 0.466603 0.654147 0.365131
v 0.466603 0.654147 0.465131
v 0.496603 0.654147 0.495131
v 0.496603 0.654147 0.365131
v 0.366603 0.654147 0.495131
v 0.366603 0.654147 0.465131
v 0.493154 0.314364 -0.366352
v 0.493154 0.314364 -0.496352
v 0.463154 0.314364 -0.466352
v 0.463154 0.314364 -0.366352
v 0.363154 0.314364 -0.496352
v 0.363154 0.314364 -0.466352
v -0.493276 0.569723 -0.362765
v -0.493276 0.569723 -0.492765
v -0.463276 0.569723 -0.462765
v -0.463276 0.569723 -0.362765
v -0.363276 0.569723 -0.492765
v -0.363276 0.569723 -0.462765
vn 1.0000 0.0081 -0.0000
vn -0.0000 1.0000 -0.0000
vn -0.0000 -1.0000 -0.0000
vn -0.0000 0.0179 -0.9998
vn -0.0000 -0.0179 -0.9998
vn -0.9999 -0.0149 -0.0000
vn -0.0000 -0.0127 0.9999
vn 0.9999 0.0149 -0.0000
vn -0.0000 0.0161 0.9999
vn -0.0000 -0.0161 -0.9999
vn -1.0000 -0.0000 -0.0000
vn -1.0000 -0.0081 -0.0000
vn -0.0000 -0.0179 0.9998
vn -1.0000 0.0093 -0.0000
vn -0.0000 0.0133 -0.9999
vn -0.0000 -0.0074 -1.0000
vn 1.0000 -0.0097 -0.0000
vn -0.0000 -0.0116 0.9999
vn -1.0000 0.0097 -0.0000
vn -0.0000 0.0052 1.0000
vn -0.0000 -0.0052 -1.0000
vn 1.0000 -0.0093 -0.0000
vn -0.0000 -0.0133 0.9999
vn -0.0000 -0.7635 -0.6458
vn -0.0000 0.7635 0.6458
vn 1.0000 -0.0000 -0.0000
vn -0.0000 -0.8064 -0.5914
vn -0.0000 0.8064 0.5914
vn -0.0000 -0.0000 1.0000
vn -0.0000 -0.0000 -1.0000
vn -0.7071 -0.0000 -0.7071
vn 0.7071 -0.0000 0.7071
vn 0.7526 -0.0000 -0.6585
vn -0.6585 -0.0000 0.7526
vn -0.0000 0.7438 0.6684
vn -0.0000 -0.7438 -0.6684
vn -0.0000 0.7897 0.6134
vn -0.0000 -0.7897 -0.6134
vn -0.0000 0.0179 0.9998
vn -1.0000 0.0081 -0.0000
vn 1.0000 -0.0081 -0.0000
vn -0.0000 0.0074 1.0000
vn 1.0000 0.0052 -0.0000
vn -1.0000 -0.0052 -0.0000
vn -0.0000 0.0116 -0.9999
vn -0.9998 -0.0218 -0.0000
vn 0.9998 0.0218 -0.0000
vn -0.0000 0.0127 -0.9999
vn 0.9999 -0.0118 -0.0000
vn -0.9999 0.0118 -0.0000
vt 0.500000 0.250000
vt 0.625000 0.500000
vt 0.625000 0.250000
vt 0.875000 0.750000
vt 0.875000 0.500000
vt 0.125000 0.750000
vt 0.375000 0.500000
vt 0.125000 0.500000
vt 0.500000 1.000000
vt 0.625000 0.750000
vt 0.500000 0.750000
vt 0.500000 0.500000
vt 0.625000 0.000000
vt 0.500000 0.000000
vt 0.375000 0.250000
vt 0.375000 0.000000
vt 0.375000 0.125000
vt 0.375000 0.625000
vt 0.125000 0.625000
vt 0.875000 0.625000
vt 0.625000 0.625000
vt 0.625000 0.125000
vt 0.375000 0.750000
vt 0.375000 1.000000
vt 0.625000 1.000000
s 0
f 157/1/1 32/2/1 29/3/1
f 1/2/2 7/4/2 5/5/2
f 8/6/3 2/7/3 6/8/3
f 156/9/4 3/10/4 153/11/4
f 154/12/1 3/10/1 1/2/1
f 154/12/5 31/7/5 2/7/5
f 10/13/6 172/1/6 171/14/6
f 173/12/7 19/7/7 176/12/7
f 173/12/8 14/10/8 174/11/8
f 14/10/9 171/9/9 174/11/9
f 15/7/3 9/6/3 11/8/3
f 16/2/2 10/4/2 14/10/2
f 175/1/8 20/2/8 176/12/8
f 15/7/3 18/8/3 19/7/3
f 16/2/2 17/5/2 12/5/2
f 172/1/10 17/3/10 175/1/10
f 22/13/11 23/15/11 21/16/11
f 155/1/12 7/13/12 156/14/12
f 58/13/11 59/15/11 57/16/11
f 27/7/3 21/6/3 23/8/3
f 24/5/2 26/10/2 28/2/2
f 2/7/3 30/8/3 6/8/3
f 29/5/2 1/2/2 5/5/2
f 155/1/13 29/3/13 5/3/13
f 163/1/14 56/2/14 164/12/14
f 33/2/2 39/4/2 35/10/2
f 34/7/3 40/6/3 38/8/3
f 35/10/15 162/9/15 159/11/15
f 160/12/14 35/10/14 159/11/14
f 160/12/16 55/7/16 164/12/16
f 166/1/17 42/13/17 165/14/17
f 167/12/18 51/7/18 47/7/18
f 167/12/19 46/10/19 48/2/19
f 165/9/20 46/10/20 168/11/20
f 41/6/3 47/7/3 43/8/3
f 48/2/2 42/4/2 44/5/2
f 169/1/19 52/2/19 49/3/19
f 47/7/3 50/8/3 43/8/3
f 49/5/2 48/2/2 44/5/2
f 166/1/21 49/3/21 44/3/21
f 39/13/22 161/1/22 162/14/22
f 34/7/3 54/8/3 55/7/3
f 33/2/2 53/5/2 37/5/2
f 161/1/23 53/3/23 163/1/23
f 63/7/3 57/6/3 59/8/3
f 60/5/2 62/10/2 64/2/2
f 149/17/11 68/3/11 67/15/11
f 151/18/24 65/6/24 149/19/24
f 150/20/25 70/10/25 152/21/25
f 75/15/26 74/13/26 73/16/26
f 83/15/26 82/13/26 81/16/26
f 73/6/3 79/7/3 75/8/3
f 78/10/2 76/5/2 80/2/2
f 132/13/2 134/15/2 136/16/2
f 81/6/3 87/7/3 83/8/3
f 86/10/2 84/5/2 88/2/2
f 145/17/26 92/3/26 146/22/26
f 135/3/3 129/7/3 131/15/3
f 89/6/27 147/18/27 145/19/27
f 94/10/28 146/20/28 148/21/28
f 98/13/29 99/15/29 97/16/29
f 134/2/29 129/23/29 133/7/29
f 106/13/29 107/15/29 105/16/29
f 103/7/3 97/6/3 99/8/3
f 104/2/2 98/4/2 102/10/2
f 136/10/26 133/24/26 135/23/26
f 111/7/3 105/6/3 107/8/3
f 112/2/2 106/4/2 110/10/2
f 115/15/30 114/13/30 113/16/30
f 132/7/30 135/6/30 131/8/30
f 123/15/30 122/13/30 121/16/30
f 115/8/3 117/23/3 119/7/3
f 118/10/2 116/5/2 120/2/2
f 130/5/11 131/10/11 129/2/11
f 123/8/3 125/23/3 127/7/3
f 126/10/2 124/5/2 128/2/2
f 137/16/2 140/3/2 139/15/2
f 143/7/31 137/6/31 139/8/31
f 140/5/32 142/10/32 144/2/32
f 78/10/11 79/7/11 77/23/11
f 103/7/30 102/10/30 101/23/30
f 27/7/26 26/10/26 25/23/26
f 118/10/29 119/7/29 117/23/29
f 140/5/33 143/7/33 139/8/33
f 138/4/34 141/23/34 142/10/34
f 148/21/35 92/5/35 96/2/35
f 145/19/36 95/7/36 91/8/36
f 89/16/26 146/22/26 90/13/26
f 68/5/37 152/21/37 72/2/37
f 71/7/38 149/19/38 67/8/38
f 65/16/11 150/22/11 149/17/11
f 30/15/39 155/1/39 6/15/39
f 8/16/40 155/1/40 156/14/40
f 32/2/4 154/12/4 1/2/4
f 4/23/41 154/12/41 2/7/41
f 4/23/5 156/9/5 153/11/5
f 31/7/41 157/1/41 30/15/41
f 161/1/42 54/15/42 38/15/42
f 40/16/43 161/1/43 38/15/43
f 160/12/15 56/2/15 33/2/15
f 160/12/44 36/23/44 34/7/44
f 36/23/16 162/9/16 40/24/16
f 163/1/44 55/7/44 54/15/44
f 50/15/45 166/1/45 43/15/45
f 51/7/46 169/1/46 50/15/46
f 45/23/18 165/9/18 168/11/18
f 45/23/46 167/12/46 47/7/46
f 52/2/20 167/12/20 48/2/20
f 41/16/47 166/1/47 165/14/47
f 172/1/48 18/15/48 11/15/48
f 175/1/49 19/7/49 18/15/49
f 13/23/7 171/9/7 9/24/7
f 173/12/49 13/23/49 15/7/49
f 173/12/9 20/2/9 16/2/9
f 9/16/50 172/1/50 11/15/50
f 86/10/11 87/7/11 85/23/11
f 111/7/30 110/10/30 109/23/30
f 63/7/26 62/10/26 61/23/26
f 126/10/29 127/7/29 125/23/29
f 157/1/1 158/12/1 32/2/1
f 1/2/2 3/10/2 7/4/2
f 8/6/3 4/23/3 2/7/3
f 156/9/4 7/25/4 3/10/4
f 154/12/1 153/11/1 3/10/1
f 154/12/5 158/12/5 31/7/5
f 10/13/6 12/3/6 172/1/6
f 173/12/7 15/7/7 19/7/7
f 173/12/8 16/2/8 14/10/8
f 14/10/9 10/25/9 171/9/9
f 15/7/3 13/23/3 9/6/3
f 16/2/2 12/5/2 10/4/2
f 175/1/8 17/3/8 20/2/8
f 15/7/3 11/8/3 18/8/3
f 16/2/2 20/2/2 17/5/2
f 172/1/10 12/3/10 17/3/10
f 22/13/11 24/3/11 23/15/11
f 155/1/12 5/3/12 7/13/12
f 58/13/11 60/3/11 59/15/11
f 27/7/3 25/23/3 21/6/3
f 24/5/2 22/4/2 26/10/2
f 2/7/3 31/7/3 30/8/3
f 29/5/2 32/2/2 1/2/2
f 155/1/13 157/1/13 29/3/13
f 163/1/14 53/3/14 56/2/14
f 33/2/2 37/5/2 39/4/2
f 34/7/3 36/23/3 40/6/3
f 35/10/15 39/25/15 162/9/15
f 160/12/14 33/2/14 35/10/14
f 160/12/16 34/7/16 55/7/16
f 166/1/17 44/3/17 42/13/17
f 167/12/18 170/12/18 51/7/18
f 167/12/19 168/11/19 46/10/19
f 165/9/20 42/25/20 46/10/20
f 41/6/3 45/23/3 47/7/3
f 48/2/2 46/10/2 42/4/2
f 169/1/19 170/12/19 52/2/19
f 47/7/3 51/7/3 50/8/3
f 49/5/2 52/2/2 48/2/2
f 166/1/21 169/1/21 49/3/21
f 39/13/22 37/3/22 161/1/22
f 34/7/3 38/8/3 54/8/3
f 33/2/2 56/2/2 53/5/2
f 161/1/23 37/3/23 53/3/23
f 63/7/3 61/23/3 57/6/3
f 60/5/2 58/4/2 62/10/2
f 149/17/11 150/22/11 68/3/11
f 151/18/24 69/23/24 65/6/24
f 150/20/25 66/4/25 70/10/25
f 75/15/26 76/3/26 74/13/26
f 83/15/26 84/3/26 82/13/26
f 73/6/3 77/23/3 79/7/3
f 78/10/2 74/4/2 76/5/2
f 132/13/2 130/3/2 134/15/2
f 81/6/3 85/23/3 87/7/3
f 86/10/2 82/4/2 84/5/2
f 145/17/26 91/15/26 92/3/26
f 135/3/3 133/2/3 129/7/3
f 89/6/27 93/23/27 147/18/27
f 94/10/28 90/4/28 146/20/28
f 98/13/29 100/3/29 99/15/29
f 134/2/29 130/10/29 129/23/29
f 106/13/29 108/3/29 107/15/29
f 103/7/3 101/23/3 97/6/3
f 104/2/2 100/5/2 98/4/2
f 136/10/26 134/25/26 133/24/26
f 111/7/3 109/23/3 105/6/3
f 112/2/2 108/5/2 106/4/2
f 115/15/30 116/3/30 114/13/30
f 132/7/30 136/23/30 135/6/30
f 123/15/30 124/3/30 122/13/30
f 115/8/3 113/6/3 117/23/3
f 118/10/2 114/4/2 116/5/2
f 130/5/11 132/4/11 131/10/11
f 123/8/3 121/6/3 125/23/3
f 126/10/2 122/4/2 124/5/2
f 137/16/2 138/13/2 140/3/2
f 143/7/31 141/23/31 137/6/31
f 140/5/32 138/4/32 142/10/32
f 78/10/11 80/2/11 79/7/11
f 103/7/30 104/2/30 102/10/30
f 27/7/26 28/2/26 26/10/26
f 118/10/29 120/2/29 119/7/29
f 140/5/33 144/2/33 143/7/33
f 138/4/34 137/6/34 141/23/34
f 148/21/35 146/20/35 92/5/35
f 145/19/36 147/18/36 95/7/36
f 89/16/26 145/17/26 146/22/26
f 68/5/37 150/20/37 152/21/37
f 71/7/38 151/18/38 149/19/38
f 65/16/11 66/13/11 150/22/11
f 30/15/39 157/1/39 155/1/39
f 8/16/40 6/15/40 155/1/40
f 32/2/4 158/12/4 154/12/4
f 4/23/41 153/11/41 154/12/41
f 4/23/5 8/24/5 156/9/5
f 31/7/41 158/12/41 157/1/41
f 161/1/42 163/1/42 54/15/42
f 40/16/43 162/14/43 161/1/43
f 160/12/15 164/12/15 56/2/15
f 160/12/44 159/11/44 36/23/44
f 36/23/16 159/11/16 162/9/16
f 163/1/44 164/12/44 55/7/44
f 50/15/45 169/1/45 166/1/45
f 51/7/46 170/12/46 169/1/46
f 45/23/18 41/24/18 165/9/18
f 45/23/46 168/11/46 167/12/46
f 52/2/20 170/12/20 167/12/20
f 41/16/47 43/15/47 166/1/47
f 172/1/48 175/1/48 18/15/48
f 175/1/49 176/12/49 19/7/49
f 13/23/7 174/11/7 171/9/7
f 173/12/49 174/11/49 13/23/49
f 173/12/9 176/12/9 20/2/9
f 9/16/50 171/14/50 172/1/50
f 86/10/11 88/2/11 87/7/11
f 111/7/30 112/2/30 110/10/30
f 63/7/26 64/2/26 62/10/26
f 126/10/29 128/2/29 127/7/29
