# Blender 4.3.2
# www.blender.org
mtllib Mixer.mtl
g Mixer_Mesh
v -1.300000 2.000000 -0.200000
v -1.300000 2.100000 -0.200000
v -1.300000 2.000000 -2.800000
v -1.300000 2.100000 -2.800000
v 1.300000 2.000000 -0.200000
v 1.300000 2.100000 -0.200000
v 1.300000 2.000000 -2.800000
v 1.300000 2.100000 -2.800000
v 0.000000 0.100000 -2.500000
v 0.000000 2.500000 -2.449020
v 0.382683 0.100000 -2.423880
v 0.363174 2.500000 -2.376781
v 0.707107 0.100000 -2.207107
v 0.671059 2.500000 -2.171059
v 0.923880 0.100000 -1.882683
v 0.876781 2.500000 -1.863174
v 1.000000 0.100000 -1.500000
v 0.949020 2.500000 -1.500000
v 0.923880 0.100000 -1.117317
v 0.876781 2.500000 -1.136826
v 0.707107 0.100000 -0.792893
v 0.671059 2.500000 -0.828941
v 0.382683 0.100000 -0.576120
v 0.363174 2.500000 -0.623219
v 0.000000 0.100000 -0.500000
v 0.000000 2.500000 -0.550979
v -0.382683 0.100000 -0.576120
v -0.363174 2.500000 -0.623219
v -0.707107 0.100000 -0.792893
v -0.671059 2.500000 -0.828941
v -0.923880 0.100000 -1.117317
v -0.876781 2.500000 -1.136826
v -1.000000 0.100000 -1.500000
v -0.949020 2.500000 -1.500000
v -0.923880 0.100000 -1.882683
v -0.876781 2.500000 -1.863174
v -0.707107 0.100000 -2.207107
v -0.671059 2.500000 -2.171059
v -0.382683 0.100000 -2.423880
v -0.363174 2.500000 -2.376781
v 0.382683 2.500000 -2.423880
v 0.000000 2.500000 -2.500000
v 0.707107 2.500000 -2.207107
v 0.923880 2.500000 -1.882683
v 1.000000 2.500000 -1.500000
v 0.923880 2.500000 -1.117317
v 0.707107 2.500000 -0.792893
v 0.382683 2.500000 -0.576120
v 0.000000 2.500000 -0.500000
v -0.382683 2.500000 -0.576120
v -0.707107 2.500000 -0.792893
v -0.923880 2.500000 -1.117317
v -1.000000 2.500000 -1.500000
v -0.923880 2.500000 -1.882683
v -0.707107 2.500000 -2.207107
v -0.382683 2.500000 -2.423880
v 0.363174 2.200000 -2.376781
v 0.000000 2.200000 -2.449020
v 0.671059 2.200000 -2.171059
v 0.876781 2.200000 -1.863174
v 0.949021 2.200000 -1.500000
v 0.876781 2.200000 -1.136826
v 0.671059 2.200000 -0.828941
v 0.363174 2.200000 -0.623219
v 0.000000 2.200000 -0.550979
v -0.363174 2.200000 -0.623219
v -0.671059 2.200000 -0.828941
v -0.876781 2.200000 -1.136826
v -0.949020 2.200000 -1.500000
v -0.876781 2.200000 -1.863174
v -0.671059 2.200000 -2.171059
v -0.363174 2.200000 -2.376781
v 0.049999 2.700000 -1.450000
v 0.049999 2.300000 -1.550000
v -0.050000 2.300000 -1.750000
v 0.049999 2.300000 -1.750000
v 0.049999 2.300000 -1.450000
v -0.050002 3.000000 -1.550000
v 0.049999 2.300000 -1.250000
v -0.050001 2.300000 -1.250000
v -0.050002 2.300000 -1.450000
v -0.050002 2.700000 -1.450000
v -0.050002 2.300000 -1.550000
v -0.050002 2.700000 -1.550000
v -0.250001 2.300000 -1.450000
v -0.250001 2.300000 -1.550000
v 0.049999 3.000000 -1.550000
v 0.049999 2.700000 -1.550000
v -0.050002 3.000000 -1.450000
v 0.049999 3.000000 -1.450000
v 0.249999 2.300000 -1.550000
v 0.249999 2.300000 -1.450000
v 0.000000 3.000000 -1.700000
v 0.000000 3.050000 -1.700000
v 0.100000 3.000000 -1.673205
v 0.100000 3.050000 -1.673205
v 0.173205 3.000000 -1.600000
v 0.173205 3.050000 -1.600000
v 0.200000 3.000000 -1.500000
v 0.200000 3.050000 -1.500000
v 0.173205 3.000000 -1.400000
v 0.173205 3.050000 -1.400000
v 0.100000 3.000000 -1.326795
v 0.100000 3.050000 -1.326795
v 0.000000 3.000000 -1.300000
v 0.000000 3.050000 -1.300000
v -0.100000 3.000000 -1.326795
v -0.100000 3.050000 -1.326795
v -0.173205 3.000000 -1.400000
v -0.173205 3.050000 -1.400000
v -0.200000 3.000000 -1.500000
v -0.200000 3.050000 -1.500000
v -0.173205 3.000000 -1.600000
v -0.173205 3.050000 -1.600000
v -0.100000 3.000000 -1.673205
v -0.100000 3.050000 -1.673205
v -0.050000 2.200000 -0.550000
v -0.050000 2.300000 -0.550000
v -0.050000 2.200000 -2.450000
v -0.050000 2.300000 -2.450000
v 0.050000 2.200000 -0.550000
v 0.050000 2.300000 -0.550000
v 0.050000 2.200000 -2.450000
v 0.050000 2.300000 -2.450000
v 0.950000 2.200000 -1.450000
v 0.950000 2.300000 -1.450000
v -0.950000 2.200000 -1.450000
v -0.950000 2.300000 -1.450000
v 0.950000 2.200000 -1.550000
v 0.950000 2.300000 -1.550000
v -0.950000 2.200000 -1.550000
v -0.950000 2.300000 -1.550000
v -1.300000 3.100000 -2.700000
v -1.300000 3.200000 -2.700000
v -1.300000 3.100000 -2.900000
v -1.300000 3.200000 -2.900000
v 1.300000 3.100000 -2.700000
v 1.300000 3.200000 -2.700000
v 1.300000 3.100000 -2.900000
v 1.300000 3.200000 -2.900000
v -0.050000 1.900000 -2.750000
v -0.050000 3.100000 -2.750000
v -0.050000 1.900000 -2.850000
v -0.050000 3.100000 -2.850000
v 0.050000 1.900000 -2.750000
v 0.050000 3.100000 -2.750000
v 0.050000 1.900000 -2.850000
v 0.050000 3.100000 -2.850000
v -1.300000 2.500000 -2.800000
v -1.300000 2.600000 -2.800000
v -1.300000 2.500000 -2.900000
v -1.300000 2.600000 -2.900000
v 1.300000 2.500000 -2.800000
v 1.300000 2.600000 -2.800000
v 1.300000 2.500000 -2.900000
v 1.300000 2.600000 -2.900000
v 1.050000 1.900000 -2.750000
v 1.050000 3.100000 -2.750000
v 1.050000 1.900000 -2.850000
v 1.050000 3.100000 -2.850000
v 1.150000 1.900000 -2.750000
v 1.150000 3.100000 -2.750000
v 1.150000 1.900000 -2.850000
v 1.150000 3.100000 -2.850000
v -1.150000 1.900000 -2.750000
v -1.150000 3.100000 -2.750000
v -1.150000 1.900000 -2.850000
v -1.150000 3.100000 -2.850000
v -1.050000 1.900000 -2.750000
v -1.050000 3.100000 -2.750000
v -1.050000 1.900000 -2.850000
v -1.050000 3.100000 -2.850000
v 1.050000 0.100000 -2.550000
v 1.050000 2.000000 -2.550000
v 1.050000 0.100000 -2.650000
v 1.050000 2.000000 -2.650000
v 1.150000 0.100000 -2.550000
v 1.150000 2.000000 -2.550000
v 1.150000 0.100000 -2.650000
v 1.150000 2.000000 -2.650000
v -1.150000 0.100000 -2.550000
v -1.150000 2.000000 -2.550000
v -1.150000 0.100000 -2.650000
v -1.150000 2.000000 -2.650000
v -1.050000 0.100000 -2.550000
v -1.050000 2.000000 -2.550000
v -1.050000 0.100000 -2.650000
v -1.050000 2.000000 -2.650000
v 1.050000 0.100000 -0.350000
v 1.050000 2.000000 -0.350000
v 1.050000 0.100000 -0.450000
v 1.050000 2.000000 -0.450000
v 1.150000 0.100000 -0.350000
v 1.150000 2.000000 -0.350000
v 1.150000 0.100000 -0.450000
v 1.150000 2.000000 -0.450000
v -1.150000 0.100000 -0.350000
v -1.150000 2.000000 -0.350000
v -1.150000 0.100000 -0.450000
v -1.150000 2.000000 -0.450000
v -1.050000 0.100000 -0.350000
v -1.050000 2.000000 -0.350000
v -1.050000 0.100000 -0.450000
v -1.050000 2.000000 -0.450000
v 1.100000 2.000000 -0.450000
v 1.100000 0.250000 -2.550000
v 1.100000 1.850000 -0.450000
v 1.100000 0.100000 -2.550000
v 1.150000 2.000000 -0.450000
v 1.150000 0.250000 -2.550000
v 1.150000 1.850000 -0.450000
v 1.150000 0.100000 -2.550000
v 1.050000 2.000000 -2.550000
v 1.050000 0.250000 -0.450000
v 1.050000 1.850000 -2.550000
v 1.050000 0.100000 -0.450000
v 1.100000 2.000000 -2.550000
v 1.100000 0.250000 -0.450000
v 1.100000 1.850000 -2.550000
v 1.100000 0.100000 -0.450000
v -1.050000 2.000000 -0.400000
v 1.049999 0.250000 -0.400000
v -1.050000 1.850000 -0.400000
v 1.049999 0.100000 -0.400000
v -1.050000 2.000000 -0.350000
v 1.049999 0.250000 -0.350000
v -1.050000 1.850000 -0.350000
v 1.049999 0.100000 -0.350000
v 1.050000 2.000000 -0.450000
v -1.050000 0.250000 -0.450000
v 1.050000 1.850000 -0.450000
v -1.050000 0.100000 -0.450000
v 1.050000 2.000000 -0.400000
v -1.050000 0.250000 -0.400000
v 1.050000 1.850000 -0.400000
v -1.050000 0.100000 -0.400000
v -1.100000 2.000000 -2.550000
v -1.100001 0.250000 -0.450000
v -1.100000 1.850000 -2.550000
v -1.100001 0.100000 -0.450000
v -1.150000 2.000000 -2.550000
v -1.150000 0.250000 -0.450000
v -1.150000 1.850000 -2.550000
v -1.150000 0.100000 -0.450000
v -1.050000 2.000000 -0.450000
v -1.050000 0.250000 -2.550000
v -1.050000 1.850000 -0.450000
v -1.050000 0.100000 -2.550000
v -1.100000 2.000000 -0.450000
v -1.100000 0.250000 -2.550000
v -1.100000 1.850000 -0.450000
v -1.100000 0.100000 -2.550000
v 1.050000 2.000000 -2.600001
v -1.050000 0.250000 -2.600001
v 1.050000 1.850000 -2.600001
v -1.050000 0.100000 -2.600001
v 1.050000 2.000000 -2.650001
v -1.050000 0.250000 -2.650001
v 1.050000 1.850000 -2.650001
v -1.050000 0.100000 -2.650001
v -1.050000 2.000000 -2.550001
v 1.050000 0.250000 -2.550000
v -1.050000 1.850000 -2.550001
v 1.050000 0.100000 -2.550000
v -1.050000 2.000000 -2.600001
v 1.050000 0.250000 -2.600000
v -1.050000 1.850000 -2.600001
v 1.050000 0.100000 -2.600000
v 0.699999 0.100000 -2.139999
v 1.019999 0.100000 -2.579999
v 1.079999 0.100000 -2.519999
v 0.639999 0.100000 -2.200000
v 0.639999 0.700000 -2.200000
v 0.700000 0.700000 -2.140000
v 0.639999 0.100000 -0.800001
v 1.079999 0.100000 -0.480001
v 1.019999 0.100000 -0.420001
v 0.700000 0.100000 -0.860001
v 0.700000 0.700000 -0.860001
v 0.640000 0.700000 -0.800000
v -0.699999 0.100000 -0.860001
v -1.019999 0.100000 -0.420001
v -1.079999 0.100000 -0.480001
v -0.639999 0.100000 -0.800000
v -0.639999 0.700000 -0.800000
v -0.700000 0.700000 -0.860000
v -0.639999 0.100000 -2.199999
v -1.079999 0.100000 -2.519999
v -1.019999 0.100000 -2.579999
v -0.700000 0.100000 -2.139999
v -0.700000 0.700000 -2.139999
v -0.640000 0.700000 -2.200000
v 0.700000 0.700000 -2.140000
v 0.700000 2.000000 -2.140000
v 0.640000 0.700000 -2.200000
v 0.640000 2.000000 -2.200000
v 0.760000 0.600000 -2.200000
v 0.760000 2.000000 -2.200000
v 0.700000 0.600000 -2.260000
v 0.700000 2.000000 -2.260000
v 0.640000 0.700000 -0.800000
v 0.640000 2.000000 -0.800000
v 0.700000 0.700000 -0.860000
v 0.700000 2.000000 -0.860000
v 0.700000 0.600000 -0.740000
v 0.700000 2.000000 -0.740000
v 0.760000 0.600000 -0.800000
v 0.760000 2.000000 -0.800000
v -0.700000 0.700000 -0.860000
v -0.700000 2.000000 -0.860000
v -0.640000 0.700000 -0.800000
v -0.640000 2.000000 -0.800000
v -0.760000 0.600000 -0.800000
v -0.760000 2.000000 -0.800000
v -0.700000 0.600000 -0.740000
v -0.700000 2.000000 -0.740000
v -0.640000 0.700000 -2.200000
v -0.640000 2.000000 -2.200000
v -0.700000 0.700000 -2.140000
v -0.700000 2.000000 -2.140000
v -0.700000 0.600000 -2.260000
v -0.700000 2.000000 -2.260000
v -0.760000 0.600000 -2.200000
v -0.760000 2.000000 -2.200000
vn -1.0000 -0.0000 -0.0000
vn -0.0000 -0.0000 -1.0000
vn 1.0000 -0.0000 -0.0000
vn -0.0000 -0.0000 1.0000
vn -0.0000 -1.0000 -0.0000
vn -0.0000 1.0000 -0.0000
vn 0.3827 -0.0000 -0.9239
vn 0.7071 -0.0000 -0.7071
vn 0.9239 -0.0000 -0.3827
vn 0.9239 -0.0000 0.3827
vn 0.7071 -0.0000 0.7071
vn 0.3827 -0.0000 0.9239
vn -0.3827 -0.0000 0.9239
vn -0.7071 -0.0000 0.7071
vn -0.9239 -0.0000 0.3827
vn -0.9239 -0.0000 -0.3827
vn -0.7071 -0.0000 -0.7071
vn -0.3827 -0.0000 -0.9239
vn -0.0000 0.4472 -0.8944
vn -0.0000 0.4472 0.8944
vn -0.8944 0.4472 -0.0000
vn 0.8944 0.4472 -0.0000
vn 0.2588 -0.0000 -0.9659
vn 0.9659 -0.0000 -0.2588
vn 0.9659 -0.0000 0.2588
vn 0.2588 -0.0000 0.9659
vn -0.2588 -0.0000 0.9659
vn -0.9659 -0.0000 0.2588
vn -0.9659 -0.0000 -0.2588
vn -0.2588 -0.0000 -0.9659
vn -0.0000 -0.7682 0.6402
vn -0.0000 0.7682 -0.6402
vn -0.0000 -0.7682 -0.6402
vn -0.0000 0.7682 0.6402
vn -0.6402 -0.7682 -0.0000
vn 0.6402 0.7682 -0.0000
vn 0.6402 -0.7682 -0.0000
vn -0.6402 0.7682 -0.0000
vn 0.5267 0.6672 -0.5267
vn 0.5267 0.6672 0.5267
vn -0.5267 0.6672 0.5267
vn -0.5267 0.6672 -0.5267
vt 0.625000 0.000000
vt 0.375000 0.250000
vt 0.375000 0.000000
vt 0.625000 0.250000
vt 0.375000 0.500000
vt 0.625000 0.500000
vt 0.375000 0.750000
vt 0.625000 0.750000
vt 0.375000 1.000000
vt 0.125000 0.750000
vt 0.125000 0.500000
vt 0.875000 0.500000
vt 1.000000 1.000000
vt 0.937500 0.500000
vt 1.000000 0.500000
vt 0.937500 1.000000
vt 0.875000 1.000000
vt 0.812500 0.500000
vt 0.812500 1.000000
vt 0.750000 0.500000
vt 0.750000 1.000000
vt 0.687500 0.500000
vt 0.687500 1.000000
vt 0.625000 1.000000
vt 0.562500 0.500000
vt 0.562500 1.000000
vt 0.500000 0.500000
vt 0.500000 1.000000
vt 0.437500 0.500000
vt 0.437500 1.000000
vt 0.312500 0.500000
vt 0.312500 1.000000
vt 0.250000 0.500000
vt 0.250000 1.000000
vt 0.187500 0.500000
vt 0.187500 1.000000
vt 0.162838 0.039573
vt 0.088946 0.088946
vt 0.125000 1.000000
vt 0.062500 0.500000
vt 0.062500 1.000000
vt 0.000000 0.500000
vt 0.337162 0.460427
vt 0.250000 0.490000
vt 0.250000 0.477765
vt 0.411054 0.411054
vt 0.341844 0.471731
vt 0.460427 0.337162
vt 0.419706 0.419706
vt 0.490000 0.250000
vt 0.471731 0.341844
vt 0.460427 0.162838
vt 0.477765 0.250000
vt 0.411054 0.088946
vt 0.471731 0.158156
vt 0.337162 0.039573
vt 0.419706 0.080294
vt 0.250000 0.010000
vt 0.341844 0.028269
vt 0.250000 0.022235
vt 0.080294 0.080294
vt 0.158156 0.028269
vt 0.039573 0.162838
vt 0.010000 0.250000
vt 0.028269 0.158156
vt 0.039573 0.337162
vt 0.022235 0.250000
vt 0.080294 0.419706
vt 0.028269 0.341844
vt 0.088946 0.411054
vt 0.158156 0.471731
vt 0.162838 0.460427
vt 0.916667 0.500000
vt 0.916667 1.000000
vt 0.833333 0.500000
vt 0.833333 1.000000
vt 0.750000 0.500000
vt 0.750000 1.000000
vt 0.666667 0.500000
vt 0.666667 1.000000
vt 0.583333 0.500000
vt 0.583333 1.000000
vt 0.500000 0.500000
vt 0.500000 1.000000
vt 0.416667 0.500000
vt 0.416667 1.000000
vt 0.333333 0.500000
vt 0.333333 1.000000
vt 0.250000 0.500000
vt 0.250000 1.000000
vt 0.166667 0.500000
vt 0.042154 0.370000
vt 0.457846 0.370000
vt 0.166667 1.000000
vt 0.083333 0.500000
vt 0.083333 1.000000
vt 0.000000 0.500000
vt 0.990000 0.250000
vt 0.630000 0.042154
vt 0.630000 0.457846
vt 0.875000 0.750000
vt 0.000000 1.000000
vt 0.370000 0.457846
vt 0.130000 0.457846
vt 0.042154 0.130000
vt 0.130000 0.042154
vt 0.370000 0.042154
vt 0.457846 0.130000
vt 0.000000 1.000000
vt 0.750000 0.490000
vt 0.870000 0.457846
vt 0.957846 0.370000
vt 0.957846 0.130000
vt 0.870000 0.042154
vt 0.750000 0.010000
vt 0.542154 0.130000
vt 0.510000 0.250000
vt 0.542154 0.370000
s 0
f 2/1/1 3/2/1 1/3/1
f 4/4/2 7/5/2 3/2/2
f 8/6/3 5/7/3 7/5/3
f 6/8/4 1/9/4 5/7/4
f 7/5/5 1/10/5 3/11/5
f 4/12/6 6/8/6 8/6/6
s 1
f 42/13/2 11/14/7 9/15/2
f 41/16/7 13/12/8 11/14/7
f 43/17/8 15/18/9 13/12/8
f 44/19/9 17/20/3 15/18/9
f 45/21/3 19/22/10 17/20/3
f 46/23/10 21/6/11 19/22/10
f 47/24/11 23/25/12 21/6/11
f 48/26/12 25/27/4 23/25/12
f 49/28/4 27/29/13 25/27/4
f 50/30/13 29/5/14 27/29/13
f 51/9/14 31/31/15 29/5/14
f 52/32/15 33/33/1 31/31/15
f 53/34/1 35/35/16 33/33/1
f 54/36/16 37/11/17 35/35/16
f 28/37/7 67/38/8 30/38/8
f 55/39/17 39/40/18 37/11/17
f 56/41/18 9/42/2 39/40/18
f 12/43/6 42/44/6 10/45/6
f 14/46/6 41/47/6 12/43/6
f 16/48/6 43/49/6 14/46/6
f 16/48/6 45/50/6 44/51/6
f 20/52/6 45/50/6 18/53/6
f 22/54/6 46/55/6 20/52/6
f 24/56/6 47/57/6 22/54/6
f 24/56/6 49/58/6 48/59/6
f 28/37/6 49/58/6 26/60/6
f 28/37/6 51/61/6 50/62/6
f 32/63/6 51/61/6 30/38/6
f 32/63/6 53/64/6 52/65/6
f 36/66/6 53/64/6 34/67/6
f 36/66/6 55/68/6 54/69/6
f 38/70/6 56/71/6 55/68/6
f 40/72/6 42/44/6 56/71/6
f 67/38/6 63/54/6 59/46/6
f 14/46/14 60/48/15 16/48/15
f 30/38/8 68/63/9 32/63/9
f 16/48/15 61/53/1 18/53/1
f 32/63/9 69/67/3 34/67/3
f 18/53/1 62/52/16 20/52/16
f 34/67/3 70/66/10 36/66/10
f 20/52/16 63/54/17 22/54/17
f 36/66/10 71/70/11 38/70/11
f 22/54/17 64/56/18 24/56/18
f 40/72/12 71/70/11 72/72/12
f 24/56/18 65/60/2 26/60/2
f 12/43/13 58/45/4 57/43/13
f 40/72/12 58/45/4 10/45/4
f 26/60/2 66/37/7 28/37/7
f 12/43/13 59/46/14 14/46/14
s 0
f 82/4/1 78/6/1 84/6/1
f 84/4/2 87/6/2 88/6/2
f 77/2/3 73/4/3 79/2/3
f 73/4/4 89/6/4 82/6/4
f 75/2/19 88/6/19 76/5/19
f 83/2/1 84/4/1 75/2/1
f 88/6/3 74/5/3 76/5/3
f 79/2/20 82/6/20 80/5/20
f 82/6/1 81/5/1 80/5/1
f 81/2/4 82/4/4 85/2/4
f 85/2/21 84/6/21 86/5/21
f 84/6/2 83/5/2 86/5/2
f 74/2/2 88/4/2 91/2/2
f 91/2/22 73/6/22 92/5/22
f 73/6/4 77/5/4 92/5/4
f 88/4/3 90/6/3 73/6/3
f 94/13/23 95/73/23 93/15/23
f 96/74/8 97/75/8 95/73/8
f 98/76/24 99/77/24 97/75/24
f 100/78/25 101/79/25 99/77/25
f 102/80/11 103/81/11 101/79/11
f 104/82/26 105/83/26 103/81/26
f 106/84/27 107/85/27 105/83/27
f 108/86/14 109/87/14 107/85/14
f 110/88/28 111/89/28 109/87/28
f 112/90/29 113/91/29 111/89/29
f 114/92/6 106/58/6 98/93/6
f 114/94/17 115/95/17 113/91/17
f 116/96/30 93/97/30 115/95/30
f 99/98/5 107/99/5 115/100/5
f 118/1/1 119/2/1 117/3/1
f 128/12/6 130/8/6 132/6/6
f 124/6/3 121/7/3 123/5/3
f 132/6/2 129/7/2 131/5/2
f 126/1/4 127/2/4 125/3/4
f 120/12/6 122/8/6 124/6/6
f 134/1/1 135/2/1 133/3/1
f 136/4/2 139/5/2 135/2/2
f 140/6/3 137/7/3 139/5/3
f 138/8/4 133/9/4 137/7/4
f 139/5/5 133/10/5 135/11/5
f 136/12/6 138/8/6 140/6/6
f 142/1/1 143/2/1 141/3/1
f 144/4/2 147/5/2 143/2/2
f 148/6/3 145/7/3 147/5/3
f 146/8/4 141/9/4 145/7/4
f 147/5/5 141/10/5 143/11/5
f 150/1/1 151/2/1 149/3/1
f 152/4/2 155/5/2 151/2/2
f 156/6/3 153/7/3 155/5/3
f 154/8/4 149/9/4 153/7/4
f 155/5/5 149/10/5 151/11/5
f 152/12/6 154/8/6 156/6/6
f 158/1/1 159/2/1 157/3/1
f 160/4/2 163/5/2 159/2/2
f 164/6/3 161/7/3 163/5/3
f 162/8/4 157/9/4 161/7/4
f 163/5/5 157/10/5 159/11/5
f 166/1/1 167/2/1 165/3/1
f 168/4/2 171/5/2 167/2/2
f 172/6/3 169/7/3 171/5/3
f 170/8/4 165/9/4 169/7/4
f 171/5/5 165/10/5 167/11/5
f 174/1/1 175/2/1 173/3/1
f 176/4/2 179/5/2 175/2/2
f 180/6/3 177/7/3 179/5/3
f 178/8/4 173/9/4 177/7/4
f 184/4/2 187/5/2 183/2/2
f 182/1/1 183/2/1 181/3/1
f 188/6/3 185/7/3 187/5/3
f 186/8/4 181/9/4 185/7/4
f 190/1/1 191/2/1 189/3/1
f 192/4/2 195/5/2 191/2/2
f 196/6/3 193/7/3 195/5/3
f 194/8/4 189/9/4 193/7/4
f 200/4/2 203/5/2 199/2/2
f 198/1/1 199/2/1 197/3/1
f 204/6/3 201/7/3 203/5/3
f 202/8/4 197/9/4 201/7/4
f 206/1/1 207/2/1 205/3/1
f 208/4/31 211/5/31 207/2/31
f 211/5/3 210/8/3 209/7/3
f 210/8/32 205/9/32 209/7/32
f 215/2/1 214/1/1 213/3/1
f 219/5/33 216/4/33 215/2/33
f 219/5/3 218/8/3 220/6/3
f 213/9/34 218/8/34 217/7/34
f 222/1/2 223/2/2 221/3/2
f 224/4/35 227/5/35 223/2/35
f 227/5/4 226/8/4 225/7/4
f 226/8/36 221/9/36 225/7/36
f 231/2/2 230/1/2 229/3/2
f 235/5/37 232/4/37 231/2/37
f 235/5/4 234/8/4 236/6/4
f 229/9/38 234/8/38 233/7/38
f 238/1/3 239/2/3 237/3/3
f 240/4/33 243/5/33 239/2/33
f 243/5/1 242/8/1 241/7/1
f 242/8/34 237/9/34 241/7/34
f 247/2/3 246/1/3 245/3/3
f 251/5/31 248/4/31 247/2/31
f 251/5/1 250/8/1 252/6/1
f 245/9/32 250/8/32 249/7/32
f 254/1/4 255/2/4 253/3/4
f 256/4/37 259/5/37 255/2/37
f 259/5/2 258/8/2 257/7/2
f 258/8/38 253/9/38 257/7/38
f 263/2/4 262/1/4 261/3/4
f 267/5/35 264/4/35 263/2/35
f 267/5/2 266/8/2 268/6/2
f 261/9/36 266/8/36 265/7/36
f 270/2/39 274/6/39 271/5/39
f 272/2/17 273/4/17 270/2/17
f 274/6/11 269/5/11 271/5/11
f 276/2/40 280/6/40 277/5/40
f 278/2/8 279/4/8 276/2/8
f 280/6/14 275/5/14 277/5/14
f 282/2/41 286/6/41 283/5/41
f 284/2/11 285/4/11 282/2/11
f 286/6/17 281/5/17 283/5/17
f 291/4/42 289/5/42 288/2/42
f 290/2/14 291/4/14 288/2/14
f 292/6/8 287/5/8 289/5/8
f 308/6/11 305/7/11 307/5/11
f 295/2/17 300/6/17 299/5/17
f 300/6/8 297/7/8 299/5/8
f 298/8/11 293/9/11 297/7/11
f 303/2/8 308/6/8 307/5/8
f 306/8/14 301/9/14 305/7/14
f 316/6/14 313/7/14 315/5/14
f 311/2/11 316/6/11 315/5/11
f 314/8/17 309/9/17 313/7/17
f 324/6/17 321/7/17 323/5/17
f 319/2/14 324/6/14 323/5/14
f 322/8/8 317/9/8 321/7/8
f 2/1/1 4/4/1 3/2/1
f 4/4/2 8/6/2 7/5/2
f 8/6/3 6/8/3 5/7/3
f 6/8/4 2/24/4 1/9/4
f 7/5/5 5/7/5 1/10/5
f 4/12/6 2/101/6 6/8/6
s 1
f 42/13/2 41/16/7 11/14/7
f 41/16/7 43/17/8 13/12/8
f 43/17/8 44/19/9 15/18/9
f 44/19/9 45/21/3 17/20/3
f 45/21/3 46/23/10 19/22/10
f 46/23/10 47/24/11 21/6/11
f 47/24/11 48/26/12 23/25/12
f 48/26/12 49/28/4 25/27/4
f 49/28/4 50/30/13 27/29/13
f 50/30/13 51/9/14 29/5/14
f 51/9/14 52/32/15 31/31/15
f 52/32/15 53/34/1 33/33/1
f 53/34/1 54/36/16 35/35/16
f 54/36/16 55/39/17 37/11/17
f 28/37/7 66/37/7 67/38/8
f 55/39/17 56/41/18 39/40/18
f 56/41/18 42/102/2 9/42/2
f 12/43/6 41/47/6 42/44/6
f 14/46/6 43/49/6 41/47/6
f 16/48/6 44/51/6 43/49/6
f 16/48/6 18/53/6 45/50/6
f 20/52/6 46/55/6 45/50/6
f 22/54/6 47/57/6 46/55/6
f 24/56/6 48/59/6 47/57/6
f 24/56/6 26/60/6 49/58/6
f 28/37/6 50/62/6 49/58/6
f 28/37/6 30/38/6 51/61/6
f 32/63/6 52/65/6 51/61/6
f 32/63/6 34/67/6 53/64/6
f 36/66/6 54/69/6 53/64/6
f 36/66/6 38/70/6 55/68/6
f 38/70/6 40/72/6 56/71/6
f 40/72/6 10/45/6 42/44/6
f 59/46/6 57/43/6 58/45/6
f 58/45/6 72/72/6 71/70/6
f 71/70/6 70/66/6 69/67/6
f 69/67/6 68/63/6 67/38/6
f 67/38/6 66/37/6 65/60/6
f 65/60/6 64/56/6 63/54/6
f 63/54/6 62/52/6 61/53/6
f 61/53/6 60/48/6 59/46/6
f 59/46/6 58/45/6 71/70/6
f 71/70/6 69/67/6 67/38/6
f 67/38/6 65/60/6 63/54/6
f 63/54/6 61/53/6 59/46/6
f 59/46/6 71/70/6 67/38/6
f 14/46/14 59/46/14 60/48/15
f 30/38/8 67/38/8 68/63/9
f 16/48/15 60/48/15 61/53/1
f 32/63/9 68/63/9 69/67/3
f 18/53/1 61/53/1 62/52/16
f 34/67/3 69/67/3 70/66/10
f 20/52/16 62/52/16 63/54/17
f 36/66/10 70/66/10 71/70/11
f 22/54/17 63/54/17 64/56/18
f 40/72/12 38/70/11 71/70/11
f 24/56/18 64/56/18 65/60/2
f 12/43/13 10/45/4 58/45/4
f 40/72/12 72/72/12 58/45/4
f 26/60/2 65/60/2 66/37/7
f 12/43/13 57/43/13 59/46/14
s 0
f 82/4/1 89/4/1 78/6/1
f 84/4/2 78/4/2 87/6/2
f 73/4/4 90/4/4 89/6/4
f 75/2/19 84/4/19 88/6/19
f 79/2/20 73/4/20 82/6/20
f 85/2/21 82/4/21 84/6/21
f 91/2/22 88/4/22 73/6/22
f 88/4/3 87/4/3 90/6/3
f 94/13/23 96/74/23 95/73/23
f 96/74/8 98/76/8 97/75/8
f 98/76/24 100/78/24 99/77/24
f 100/78/25 102/80/25 101/79/25
f 102/80/11 104/82/11 103/81/11
f 104/82/26 106/84/26 105/83/26
f 106/84/27 108/86/27 107/85/27
f 108/86/14 110/88/14 109/87/14
f 110/88/28 112/90/28 111/89/28
f 112/90/29 114/94/29 113/91/29
f 98/93/6 96/103/6 94/44/6
f 94/44/6 116/104/6 114/92/6
f 114/92/6 112/64/6 110/105/6
f 110/105/6 108/106/6 106/58/6
f 106/58/6 104/107/6 102/108/6
f 102/108/6 100/50/6 98/93/6
f 98/93/6 94/44/6 114/92/6
f 114/92/6 110/105/6 106/58/6
f 106/58/6 102/108/6 98/93/6
f 114/94/17 116/96/17 115/95/17
f 116/96/30 94/109/30 93/97/30
f 115/100/5 93/110/5 95/111/5
f 95/111/5 97/112/5 99/98/5
f 99/98/5 101/113/5 103/114/5
f 103/114/5 105/115/5 107/99/5
f 107/99/5 109/116/5 111/117/5
f 111/117/5 113/118/5 115/100/5
f 115/100/5 95/111/5 99/98/5
f 99/98/5 103/114/5 107/99/5
f 107/99/5 111/117/5 115/100/5
f 118/1/1 120/4/1 119/2/1
f 128/12/6 126/101/6 130/8/6
f 124/6/3 122/8/3 121/7/3
f 132/6/2 130/8/2 129/7/2
f 126/1/4 128/4/4 127/2/4
f 120/12/6 118/101/6 122/8/6
f 134/1/1 136/4/1 135/2/1
f 136/4/2 140/6/2 139/5/2
f 140/6/3 138/8/3 137/7/3
f 138/8/4 134/24/4 133/9/4
f 139/5/5 137/7/5 133/10/5
f 136/12/6 134/101/6 138/8/6
f 142/1/1 144/4/1 143/2/1
f 144/4/2 148/6/2 147/5/2
f 148/6/3 146/8/3 145/7/3
f 146/8/4 142/24/4 141/9/4
f 147/5/5 145/7/5 141/10/5
f 150/1/1 152/4/1 151/2/1
f 152/4/2 156/6/2 155/5/2
f 156/6/3 154/8/3 153/7/3
f 154/8/4 150/24/4 149/9/4
f 155/5/5 153/7/5 149/10/5
f 152/12/6 150/101/6 154/8/6
f 158/1/1 160/4/1 159/2/1
f 160/4/2 164/6/2 163/5/2
f 164/6/3 162/8/3 161/7/3
f 162/8/4 158/24/4 157/9/4
f 163/5/5 161/7/5 157/10/5
f 166/1/1 168/4/1 167/2/1
f 168/4/2 172/6/2 171/5/2
f 172/6/3 170/8/3 169/7/3
f 170/8/4 166/24/4 165/9/4
f 171/5/5 169/7/5 165/10/5
f 174/1/1 176/4/1 175/2/1
f 176/4/2 180/6/2 179/5/2
f 180/6/3 178/8/3 177/7/3
f 178/8/4 174/24/4 173/9/4
f 184/4/2 188/6/2 187/5/2
f 182/1/1 184/4/1 183/2/1
f 188/6/3 186/8/3 185/7/3
f 186/8/4 182/24/4 181/9/4
f 190/1/1 192/4/1 191/2/1
f 192/4/2 196/6/2 195/5/2
f 196/6/3 194/8/3 193/7/3
f 194/8/4 190/24/4 189/9/4
f 200/4/2 204/6/2 203/5/2
f 198/1/1 200/4/1 199/2/1
f 204/6/3 202/8/3 201/7/3
f 202/8/4 198/24/4 197/9/4
f 206/1/1 208/4/1 207/2/1
f 208/4/31 212/6/31 211/5/31
f 211/5/3 212/6/3 210/8/3
f 210/8/32 206/24/32 205/9/32
f 215/2/1 216/4/1 214/1/1
f 219/5/33 220/6/33 216/4/33
f 219/5/3 217/7/3 218/8/3
f 213/9/34 214/24/34 218/8/34
f 222/1/2 224/4/2 223/2/2
f 224/4/35 228/6/35 227/5/35
f 227/5/4 228/6/4 226/8/4
f 226/8/36 222/24/36 221/9/36
f 231/2/2 232/4/2 230/1/2
f 235/5/37 236/6/37 232/4/37
f 235/5/4 233/7/4 234/8/4
f 229/9/38 230/24/38 234/8/38
f 238/1/3 240/4/3 239/2/3
f 240/4/33 244/6/33 243/5/33
f 243/5/1 244/6/1 242/8/1
f 242/8/34 238/24/34 237/9/34
f 247/2/3 248/4/3 246/1/3
f 251/5/31 252/6/31 248/4/31
f 251/5/1 249/7/1 250/8/1
f 245/9/32 246/24/32 250/8/32
f 254/1/4 256/4/4 255/2/4
f 256/4/37 260/6/37 259/5/37
f 259/5/2 260/6/2 258/8/2
f 258/8/38 254/24/38 253/9/38
f 263/2/4 264/4/4 262/1/4
f 267/5/35 268/6/35 264/4/35
f 267/5/2 265/7/2 266/8/2
f 261/9/36 262/24/36 266/8/36
f 270/2/39 273/4/39 274/6/39
f 276/2/40 279/4/40 280/6/40
f 282/2/41 285/4/41 286/6/41
f 291/4/42 292/6/42 289/5/42
f 308/6/11 306/8/11 305/7/11
f 295/2/17 296/4/17 300/6/17
f 300/6/8 298/8/8 297/7/8
f 298/8/11 294/24/11 293/9/11
f 303/2/8 304/4/8 308/6/8
f 306/8/14 302/24/14 301/9/14
f 316/6/14 314/8/14 313/7/14
f 311/2/11 312/4/11 316/6/11
f 314/8/17 310/24/17 309/9/17
f 324/6/17 322/8/17 321/7/17
f 319/2/14 320/4/14 324/6/14
f 322/8/8 318/24/8 317/9/8
