# Blender 5.0.1
# www.blender.org
mtllib RackingShelf.mtl
o Cube.034
v 0.300000 0.000000 1.100000
v 0.300000 2.200000 1.100000
v 0.300000 0.000000 1.000000
v 0.300000 2.200000 1.000000
v 0.400000 0.000000 1.100000
v 0.400000 2.200000 1.100000
v 0.400000 0.000000 1.000000
v 0.400000 2.200000 1.000000
v 0.300000 0.000000 -1.000000
v 0.300000 2.200000 -1.000000
v 0.300000 0.000000 -1.100000
v 0.300000 2.200000 -1.100000
v 0.400000 0.000000 -1.000000
v 0.400000 2.200000 -1.000000
v 0.400000 0.000000 -1.100000
v 0.400000 2.200000 -1.100000
v -0.400000 0.000000 1.100000
v -0.400000 2.200000 1.100000
v -0.400000 0.000000 1.000000
v -0.400000 2.200000 1.000000
v -0.300000 0.000000 1.100000
v -0.300000 2.200000 1.100000
v -0.300000 0.000000 1.000000
v -0.300000 2.200000 1.000000
v -0.400000 0.000000 -1.000000
v -0.400000 2.200000 -1.000000
v -0.400000 0.000000 -1.100000
v -0.400000 2.200000 -1.100000
v -0.300000 0.000000 -1.000000
v -0.300000 2.200000 -1.000000
v -0.300000 0.000000 -1.100000
v -0.300000 2.200000 -1.100000
vn -1.0000 -0.0000 -0.0000
vn -0.0000 -0.0000 -1.0000
vn 1.0000 -0.0000 -0.0000
vn -0.0000 -0.0000 1.0000
vn -0.0000 1.0000 -0.0000
vt 0.625000 0.000000
vt 0.375000 0.250000
vt 0.375000 0.000000
vt 0.625000 0.250000
vt 0.375000 0.500000
vt 0.625000 0.500000
vt 0.375000 0.750000
vt 0.625000 0.750000
vt 0.375000 1.000000
vt 0.875000 0.500000
vt 0.625000 1.000000
vt 0.875000 0.750000
s 0
f 2/1/1 3/2/1 1/3/1
f 4/4/2 7/5/2 3/2/2
f 8/6/3 5/7/3 7/5/3
f 6/8/4 1/9/4 5/7/4
f 4/10/5 6/8/5 8/6/5
f 10/1/1 11/2/1 9/3/1
f 12/4/2 15/5/2 11/2/2
f 16/6/3 13/7/3 15/5/3
f 14/8/4 9/9/4 13/7/4
f 12/10/5 14/8/5 16/6/5
f 18/1/1 19/2/1 17/3/1
f 20/4/2 23/5/2 19/2/2
f 24/6/3 21/7/3 23/5/3
f 22/8/4 17/9/4 21/7/4
f 20/10/5 22/8/5 24/6/5
f 26/1/1 27/2/1 25/3/1
f 28/4/2 31/5/2 27/2/2
f 32/6/3 29/7/3 31/5/3
f 30/8/4 25/9/4 29/7/4
f 28/10/5 30/8/5 32/6/5
f 2/1/1 4/4/1 3/2/1
f 4/4/2 8/6/2 7/5/2
f 8/6/3 6/8/3 5/7/3
f 6/8/4 2/11/4 1/9/4
f 4/10/5 2/12/5 6/8/5
f 10/1/1 12/4/1 11/2/1
f 12/4/2 16/6/2 15/5/2
f 16/6/3 14/8/3 13/7/3
f 14/8/4 10/11/4 9/9/4
f 12/10/5 10/12/5 14/8/5
f 18/1/1 20/4/1 19/2/1
f 20/4/2 24/6/2 23/5/2
f 24/6/3 22/8/3 21/7/3
f 22/8/4 18/11/4 17/9/4
f 20/10/5 18/12/5 22/8/5
f 26/1/1 28/4/1 27/2/1
f 28/4/2 32/6/2 31/5/2
f 32/6/3 30/8/3 29/7/3
f 30/8/4 26/11/4 25/9/4
f 28/10/5 26/12/5 30/8/5
o Cube.036
v -0.370000 0.450000 1.000000
v -0.370000 0.500000 1.000000
v -0.370000 0.450000 -1.000000
v -0.370000 0.500000 -1.000000
v -0.330000 0.450000 1.000000
v -0.330000 0.500000 1.000000
v -0.330000 0.450000 -1.000000
v -0.330000 0.500000 -1.000000
v 0.330000 0.450000 1.000000
v 0.330000 0.500000 1.000000
v 0.330000 0.450000 -1.000000
v 0.330000 0.500000 -1.000000
v 0.370000 0.450000 1.000000
v 0.370000 0.500000 1.000000
v 0.370000 0.450000 -1.000000
v 0.370000 0.500000 -1.000000
v -0.370000 0.450000 -0.800000
v -0.370000 0.450000 -0.900000
v -0.370000 0.250000 -1.000000
v -0.370000 0.350000 -1.000000
v -0.330000 0.450000 -0.800000
v -0.330000 0.450000 -0.900000
v -0.330000 0.250000 -1.000000
v -0.330000 0.350000 -1.000000
v -0.330000 0.470000 1.030000
v -0.330000 0.490000 1.030000
v -0.330000 0.470000 -1.030000
v -0.330000 0.490000 -1.030000
v 0.330000 0.470000 1.030000
v 0.330000 0.490000 1.030000
v 0.330000 0.470000 -1.030000
v 0.330000 0.490000 -1.030000
v -0.370000 0.450000 0.800000
v -0.370000 0.450000 0.900000
v -0.370000 0.250000 1.000000
v -0.370000 0.350000 1.000000
v -0.330000 0.450000 0.800000
v -0.330000 0.450000 0.900000
v -0.330000 0.250000 1.000000
v -0.330000 0.350000 1.000000
v -0.300000 0.450000 -1.070000
v -0.300000 0.500000 -1.070000
v 0.300000 0.450000 -1.070000
v 0.300000 0.500000 -1.070000
v -0.300000 0.450000 -1.030000
v -0.300000 0.500000 -1.030000
v 0.300000 0.450000 -1.030000
v 0.300000 0.500000 -1.030000
v -0.300000 0.450000 1.030000
v -0.300000 0.500000 1.030000
v 0.300000 0.450000 1.030000
v 0.300000 0.500000 1.030000
v -0.300000 0.450000 1.070000
v -0.300000 0.500000 1.070000
v 0.300000 0.450000 1.070000
v 0.300000 0.500000 1.070000
v -0.100000 0.450000 1.030000
v -0.200000 0.450000 1.030000
v -0.300000 0.250000 1.030000
v -0.300000 0.350000 1.030000
v -0.100000 0.450000 1.070000
v -0.200000 0.450000 1.070000
v -0.300000 0.250000 1.070000
v -0.300000 0.350000 1.070000
v 0.100000 0.450000 1.070000
v 0.200000 0.450000 1.070000
v 0.300000 0.250000 1.070000
v 0.300000 0.350000 1.070000
v 0.100000 0.450000 1.030000
v 0.200000 0.450000 1.030000
v 0.300000 0.250000 1.030000
v 0.300000 0.350000 1.030000
v -0.100000 0.450000 -1.070000
v -0.200000 0.450000 -1.070000
v -0.300000 0.250000 -1.070000
v -0.300000 0.350000 -1.070000
v -0.100000 0.450000 -1.030000
v -0.200000 0.450000 -1.030000
v -0.300000 0.250000 -1.030000
v -0.300000 0.350000 -1.030000
v 0.100000 0.450000 -1.030000
v 0.200000 0.450000 -1.030000
v 0.300000 0.250000 -1.030000
v 0.300000 0.350000 -1.030000
v 0.100000 0.450000 -1.070000
v 0.200000 0.450000 -1.070000
v 0.300000 0.250000 -1.070000
v 0.300000 0.350000 -1.070000
v 0.330000 0.450000 -0.800000
v 0.330000 0.450000 -0.900000
v 0.330000 0.250000 -1.000000
v 0.330000 0.350000 -1.000000
v 0.370000 0.450000 -0.800000
v 0.370000 0.450000 -0.900000
v 0.370000 0.250000 -1.000000
v 0.370000 0.350000 -1.000000
v 0.330000 0.450000 0.800000
v 0.330000 0.450000 0.900000
v 0.330000 0.250000 1.000000
v 0.330000 0.350000 1.000000
v 0.370000 0.450000 0.800000
v 0.370000 0.450000 0.900000
v 0.370000 0.250000 1.000000
v 0.370000 0.350000 1.000000
v -0.370000 1.200000 1.000000
v -0.370000 1.250000 1.000000
v -0.370000 1.200000 -1.000000
v -0.370000 1.250000 -1.000000
v -0.330000 1.200000 1.000000
v -0.330000 1.250000 1.000000
v -0.330000 1.200000 -1.000000
v -0.330000 1.250000 -1.000000
v 0.330000 1.200000 1.000000
v 0.330000 1.250000 1.000000
v 0.330000 1.200000 -1.000000
v 0.330000 1.250000 -1.000000
v 0.370000 1.200000 1.000000
v 0.370000 1.250000 1.000000
v 0.370000 1.200000 -1.000000
v 0.370000 1.250000 -1.000000
v -0.370000 1.200000 -0.800000
v -0.370000 1.200000 -0.900000
v -0.370000 1.000000 -1.000000
v -0.370000 1.100000 -1.000000
v -0.330000 1.200000 -0.800000
v -0.330000 1.200000 -0.900000
v -0.330000 1.000000 -1.000000
v -0.330000 1.100000 -1.000000
v -0.330000 1.220000 1.030000
v -0.330000 1.240000 1.030000
v -0.330000 1.220000 -1.030000
v -0.330000 1.240000 -1.030000
v 0.330000 1.220000 1.030000
v 0.330000 1.240000 1.030000
v 0.330000 1.220000 -1.030000
v 0.330000 1.240000 -1.030000
v -0.370000 1.200000 0.800000
v -0.370000 1.200000 0.900000
v -0.370000 1.000000 1.000000
v -0.370000 1.100000 1.000000
v -0.330000 1.200000 0.800000
v -0.330000 1.200000 0.900000
v -0.330000 1.000000 1.000000
v -0.330000 1.100000 1.000000
v -0.300000 1.200000 -1.070000
v -0.300000 1.250000 -1.070000
v 0.300000 1.200000 -1.070000
v 0.300000 1.250000 -1.070000
v -0.300000 1.200000 -1.030000
v -0.300000 1.250000 -1.030000
v 0.300000 1.200000 -1.030000
v 0.300000 1.250000 -1.030000
v -0.300000 1.200000 1.030000
v -0.300000 1.250000 1.030000
v 0.300000 1.200000 1.030000
v 0.300000 1.250000 1.030000
v -0.300000 1.200000 1.070000
v -0.300000 1.250000 1.070000
v 0.300000 1.200000 1.070000
v 0.300000 1.250000 1.070000
v -0.100000 1.200000 1.030000
v -0.200000 1.200000 1.030000
v -0.300000 1.000000 1.030000
v -0.300000 1.100000 1.030000
v -0.100000 1.200000 1.070000
v -0.200000 1.200000 1.070000
v -0.300000 1.000000 1.070000
v -0.300000 1.100000 1.070000
v 0.100000 1.200000 1.070000
v 0.200000 1.200000 1.070000
v 0.300000 1.000000 1.070000
v 0.300000 1.100000 1.070000
v 0.100000 1.200000 1.030000
v 0.200000 1.200000 1.030000
v 0.300000 1.000000 1.030000
v 0.300000 1.100000 1.030000
v -0.100000 1.200000 -1.070000
v -0.200000 1.200000 -1.070000
v -0.300000 1.000000 -1.070000
v -0.300000 1.100000 -1.070000
v -0.100000 1.200000 -1.030000
v -0.200000 1.200000 -1.030000
v -0.300000 1.000000 -1.030000
v -0.300000 1.100000 -1.030000
v 0.100000 1.200000 -1.030000
v 0.200000 1.200000 -1.030000
v 0.300000 1.000000 -1.030000
v 0.300000 1.100000 -1.030000
v 0.100000 1.200000 -1.070000
v 0.200000 1.200000 -1.070000
v 0.300000 1.000000 -1.070000
v 0.300000 1.100000 -1.070000
v 0.330000 1.200000 -0.800000
v 0.330000 1.200000 -0.900000
v 0.330000 1.000000 -1.000000
v 0.330000 1.100000 -1.000000
v 0.370000 1.200000 -0.800000
v 0.370000 1.200000 -0.900000
v 0.370000 1.000000 -1.000000
v 0.370000 1.100000 -1.000000
v 0.330000 1.200000 0.800000
v 0.330000 1.200000 0.900000
v 0.330000 1.000000 1.000000
v 0.330000 1.100000 1.000000
v 0.370000 1.200000 0.800000
v 0.370000 1.200000 0.900000
v 0.370000 1.000000 1.000000
v 0.370000 1.100000 1.000000
v -0.370000 1.950000 1.000000
v -0.370000 2.000000 1.000000
v -0.370000 1.950000 -1.000000
v -0.370000 2.000000 -1.000000
v -0.330000 1.950000 1.000000
v -0.330000 2.000000 1.000000
v -0.330000 1.950000 -1.000000
v -0.330000 2.000000 -1.000000
v 0.330000 1.950000 1.000000
v 0.330000 2.000000 1.000000
v 0.330000 1.950000 -1.000000
v 0.330000 2.000000 -1.000000
v 0.370000 1.950000 1.000000
v 0.370000 2.000000 1.000000
v 0.370000 1.950000 -1.000000
v 0.370000 2.000000 -1.000000
v -0.370000 1.950000 -0.800000
v -0.370000 1.950000 -0.900000
v -0.370000 1.750000 -1.000000
v -0.370000 1.850000 -1.000000
v -0.330000 1.950000 -0.800000
v -0.330000 1.950000 -0.900000
v -0.330000 1.750000 -1.000000
v -0.330000 1.850000 -1.000000
v -0.330000 1.970000 1.030000
v -0.330000 1.990000 1.030000
v -0.330000 1.970000 -1.030000
v -0.330000 1.990000 -1.030000
v 0.330000 1.970000 1.030000
v 0.330000 1.990000 1.030000
v 0.330000 1.970000 -1.030000
v 0.330000 1.990000 -1.030000
v -0.370000 1.950000 0.800000
v -0.370000 1.950000 0.900000
v -0.370000 1.750000 1.000000
v -0.370000 1.850000 1.000000
v -0.330000 1.950000 0.800000
v -0.330000 1.950000 0.900000
v -0.330000 1.750000 1.000000
v -0.330000 1.850000 1.000000
v -0.300000 1.950000 -1.070000
v -0.300000 2.000000 -1.070000
v 0.300000 1.950000 -1.070000
v 0.300000 2.000000 -1.070000
v -0.300000 1.950000 -1.030000
v -0.300000 2.000000 -1.030000
v 0.300000 1.950000 -1.030000
v 0.300000 2.000000 -1.030000
v -0.300000 1.950000 1.030000
v -0.300000 2.000000 1.030000
v 0.300000 1.950000 1.030000
v 0.300000 2.000000 1.030000
v -0.300000 1.950000 1.070000
v -0.300000 2.000000 1.070000
v 0.300000 1.950000 1.070000
v 0.300000 2.000000 1.070000
v -0.100000 1.950000 1.030000
v -0.200000 1.950000 1.030000
v -0.300000 1.750000 1.030000
v -0.300000 1.850000 1.030000
v -0.100000 1.950000 1.070000
v -0.200000 1.950000 1.070000
v -0.300000 1.750000 1.070000
v -0.300000 1.850000 1.070000
v 0.100000 1.950000 1.070000
v 0.200000 1.950000 1.070000
v 0.300000 1.750000 1.070000
v 0.300000 1.850000 1.070000
v 0.100000 1.950000 1.030000
v 0.200000 1.950000 1.030000
v 0.300000 1.750000 1.030000
v 0.300000 1.850000 1.030000
v -0.100000 1.950000 -1.070000
v -0.200000 1.950000 -1.070000
v -0.300000 1.750000 -1.070000
v -0.300000 1.850000 -1.070000
v -0.100000 1.950000 -1.030000
v -0.200000 1.950000 -1.030000
v -0.300000 1.750000 -1.030000
v -0.300000 1.850000 -1.030000
v 0.100000 1.950000 -1.030000
v 0.200000 1.950000 -1.030000
v 0.300000 1.750000 -1.030000
v 0.300000 1.850000 -1.030000
v 0.100000 1.950000 -1.070000
v 0.200000 1.950000 -1.070000
v 0.300000 1.750000 -1.070000
v 0.300000 1.850000 -1.070000
v 0.330000 1.950000 -0.800000
v 0.330000 1.950000 -0.900000
v 0.330000 1.750000 -1.000000
v 0.330000 1.850000 -1.000000
v 0.370000 1.950000 -0.800000
v 0.370000 1.950000 -0.900000
v 0.370000 1.750000 -1.000000
v 0.370000 1.850000 -1.000000
v 0.330000 1.950000 0.800000
v 0.330000 1.950000 0.900000
v 0.330000 1.750000 1.000000
v 0.330000 1.850000 1.000000
v 0.370000 1.950000 0.800000
v 0.370000 1.950000 0.900000
v 0.370000 1.750000 1.000000
v 0.370000 1.850000 1.000000
vn -1.0000 -0.0000 -0.0000
vn -0.0000 0.7071 -0.7071
vn 1.0000 -0.0000 -0.0000
vn -0.0000 -0.7071 0.7071
vn -0.0000 -1.0000 -0.0000
vn -0.0000 1.0000 -0.0000
vn -0.0000 0.7071 0.7071
vn -0.0000 -0.7071 -0.7071
vn -0.0000 -0.0000 -1.0000
vn -0.0000 -0.0000 1.0000
vn -0.7071 0.7071 -0.0000
vn 0.7071 -0.7071 -0.0000
vn 0.7071 0.7071 -0.0000
vn -0.7071 -0.7071 -0.0000
vt 0.625000 0.000000
vt 0.375000 0.250000
vt 0.375000 0.000000
vt 0.875000 0.500000
vt 0.625000 0.750000
vt 0.625000 0.500000
vt 0.375000 0.750000
vt 0.375000 0.500000
vt 0.125000 0.750000
vt 0.125000 0.500000
vt 0.625000 0.250000
vt 0.875000 0.750000
s 0
usemtl 
f 34/13/6 35/14/6 33/15/6
f 52/16/7 54/17/7 56/18/7
f 40/18/8 37/19/8 39/20/8
f 55/20/9 49/21/9 51/22/9
f 39/20/10 33/21/10 35/22/10
f 36/16/11 38/17/11 40/18/11
f 42/13/6 43/14/6 41/15/6
f 56/18/8 53/19/8 55/20/8
f 48/18/8 45/19/8 47/20/8
f 49/15/6 52/23/6 51/14/6
f 47/20/10 41/21/10 43/22/10
f 44/16/11 46/17/11 48/18/11
f 70/17/12 68/16/12 72/18/12
f 65/21/13 71/20/13 67/22/13
f 63/20/10 57/21/10 59/22/10
f 60/16/11 62/17/11 64/18/11
f 69/19/8 72/18/8 71/20/8
f 65/15/6 68/23/6 66/13/6
f 74/13/14 75/14/14 73/15/14
f 80/18/15 77/19/15 79/20/15
f 75/22/10 77/19/10 73/21/10
f 76/16/11 78/17/11 80/18/11
f 82/13/14 83/14/14 81/15/14
f 88/18/15 85/19/15 87/20/15
f 83/22/10 85/19/10 81/21/10
f 84/16/11 86/17/11 88/18/11
f 94/17/16 92/16/16 96/18/16
f 89/21/17 95/20/17 91/22/17
f 95/20/15 94/17/15 96/18/15
f 89/15/14 92/23/14 90/13/14
f 102/17/18 100/16/18 104/18/18
f 97/21/19 103/20/19 99/22/19
f 101/19/14 104/18/14 103/20/14
f 97/15/15 100/23/15 98/13/15
f 110/17/16 108/16/16 112/18/16
f 105/21/17 111/20/17 107/22/17
f 111/20/15 110/17/15 112/18/15
f 105/15/14 108/23/14 106/13/14
f 118/17/18 116/16/18 120/18/18
f 113/21/19 119/20/19 115/22/19
f 117/19/14 120/18/14 119/20/14
f 115/14/15 114/13/15 113/15/15
f 124/16/7 126/17/7 128/18/7
f 127/20/9 121/21/9 123/22/9
f 128/18/8 125/19/8 127/20/8
f 121/15/6 124/23/6 123/14/6
f 134/17/12 132/16/12 136/18/12
f 129/21/13 135/20/13 131/22/13
f 133/19/8 136/18/8 135/20/8
f 129/15/6 132/23/6 130/13/6
f 138/13/6 139/14/6 137/15/6
f 156/16/7 158/17/7 160/18/7
f 144/18/8 141/19/8 143/20/8
f 159/20/9 153/21/9 155/22/9
f 143/20/10 137/21/10 139/22/10
f 140/16/11 142/17/11 144/18/11
f 146/13/6 147/14/6 145/15/6
f 160/18/8 157/19/8 159/20/8
f 152/18/8 149/19/8 151/20/8
f 153/15/6 156/23/6 155/14/6
f 151/20/10 145/21/10 147/22/10
f 148/16/11 150/17/11 152/18/11
f 174/17/12 172/16/12 176/18/12
f 169/21/13 175/20/13 171/22/13
f 167/20/10 161/21/10 163/22/10
f 164/16/11 166/17/11 168/18/11
f 173/19/8 176/18/8 175/20/8
f 169/15/6 172/23/6 170/13/6
f 178/13/14 179/14/14 177/15/14
f 184/18/15 181/19/15 183/20/15
f 179/22/10 181/19/10 177/21/10
f 180/16/11 182/17/11 184/18/11
f 186/13/14 187/14/14 185/15/14
f 192/18/15 189/19/15 191/20/15
f 187/22/10 189/19/10 185/21/10
f 188/16/11 190/17/11 192/18/11
f 200/18/16 194/24/16 196/16/16
f 193/21/17 199/20/17 195/22/17
f 199/20/15 198/17/15 200/18/15
f 193/15/14 196/23/14 194/13/14
f 206/17/18 204/16/18 208/18/18
f 201/21/19 207/20/19 203/22/19
f 205/19/14 208/18/14 207/20/14
f 203/14/15 202/13/15 201/15/15
f 216/18/16 210/24/16 212/16/16
f 209/21/17 215/20/17 211/22/17
f 215/20/15 214/17/15 216/18/15
f 209/15/14 212/23/14 210/13/14
f 222/17/18 220/16/18 224/18/18
f 217/21/19 223/20/19 219/22/19
f 221/19/14 224/18/14 223/20/14
f 219/14/15 218/13/15 217/15/15
f 228/16/7 230/17/7 232/18/7
f 231/20/9 225/21/9 227/22/9
f 232/18/8 229/19/8 231/20/8
f 225/15/6 228/23/6 227/14/6
f 238/17/12 236/16/12 240/18/12
f 233/21/13 239/20/13 235/22/13
f 237/19/8 240/18/8 239/20/8
f 233/15/6 236/23/6 234/13/6
f 242/13/6 243/14/6 241/15/6
f 260/16/7 262/17/7 264/18/7
f 248/18/8 245/19/8 247/20/8
f 263/20/9 257/21/9 259/22/9
f 247/20/10 241/21/10 243/22/10
f 244/16/11 246/17/11 248/18/11
f 250/13/6 251/14/6 249/15/6
f 264/18/8 261/19/8 263/20/8
f 256/18/8 253/19/8 255/20/8
f 257/15/6 260/23/6 259/14/6
f 255/20/10 249/21/10 251/22/10
f 252/16/11 254/17/11 256/18/11
f 278/17/12 276/16/12 280/18/12
f 273/21/13 279/20/13 275/22/13
f 271/20/10 265/21/10 267/22/10
f 268/16/11 270/17/11 272/18/11
f 277/19/8 280/18/8 279/20/8
f 273/15/6 276/23/6 274/13/6
f 282/13/14 283/14/14 281/15/14
f 288/18/15 285/19/15 287/20/15
f 283/22/10 285/19/10 281/21/10
f 284/16/11 286/17/11 288/18/11
f 290/13/14 291/14/14 289/15/14
f 296/18/15 293/19/15 295/20/15
f 291/22/10 293/19/10 289/21/10
f 292/16/11 294/17/11 296/18/11
f 302/17/16 300/16/16 304/18/16
f 297/21/17 303/20/17 299/22/17
f 301/19/15 304/18/15 303/20/15
f 297/15/14 300/23/14 298/13/14
f 310/17/18 308/16/18 312/18/18
f 305/21/19 311/20/19 307/22/19
f 309/19/14 312/18/14 311/20/14
f 305/15/15 308/23/15 306/13/15
f 318/17/16 316/16/16 320/18/16
f 313/21/17 319/20/17 315/22/17
f 317/19/15 320/18/15 319/20/15
f 313/15/14 316/23/14 314/13/14
f 326/17/18 324/16/18 328/18/18
f 321/21/19 327/20/19 323/22/19
f 325/19/14 328/18/14 327/20/14
f 321/15/15 324/23/15 322/13/15
f 332/16/7 334/17/7 336/18/7
f 335/20/9 329/21/9 331/22/9
f 336/18/8 333/19/8 335/20/8
f 329/15/6 332/23/6 331/14/6
f 342/17/12 340/16/12 344/18/12
f 337/21/13 343/20/13 339/22/13
f 341/19/8 344/18/8 343/20/8
f 337/15/6 340/23/6 338/13/6
f 34/13/6 36/23/6 35/14/6
f 52/16/7 50/24/7 54/17/7
f 40/18/8 38/17/8 37/19/8
f 55/20/9 53/19/9 49/21/9
f 39/20/10 37/19/10 33/21/10
f 36/16/11 34/24/11 38/17/11
f 42/13/6 44/23/6 43/14/6
f 56/18/8 54/17/8 53/19/8
f 48/18/8 46/17/8 45/19/8
f 49/15/6 50/13/6 52/23/6
f 47/20/10 45/19/10 41/21/10
f 44/16/11 42/24/11 46/17/11
f 70/17/12 66/24/12 68/16/12
f 65/21/13 69/19/13 71/20/13
f 63/20/10 61/19/10 57/21/10
f 60/16/11 58/24/11 62/17/11
f 69/19/8 70/17/8 72/18/8
f 65/15/6 67/14/6 68/23/6
f 74/13/14 76/23/14 75/14/14
f 80/18/15 78/17/15 77/19/15
f 75/22/10 79/20/10 77/19/10
f 76/16/11 74/24/11 78/17/11
f 82/13/14 84/23/14 83/14/14
f 88/18/15 86/17/15 85/19/15
f 83/22/10 87/20/10 85/19/10
f 84/16/11 82/24/11 86/17/11
f 94/17/16 90/24/16 92/16/16
f 89/21/17 93/19/17 95/20/17
f 95/20/15 93/19/15 94/17/15
f 89/15/14 91/14/14 92/23/14
f 102/17/18 98/24/18 100/16/18
f 97/21/19 101/19/19 103/20/19
f 101/19/14 102/17/14 104/18/14
f 97/15/15 99/14/15 100/23/15
f 110/17/16 106/24/16 108/16/16
f 105/21/17 109/19/17 111/20/17
f 111/20/15 109/19/15 110/17/15
f 105/15/14 107/14/14 108/23/14
f 118/17/18 114/24/18 116/16/18
f 113/21/19 117/19/19 119/20/19
f 117/19/14 118/17/14 120/18/14
f 115/14/15 116/23/15 114/13/15
f 124/16/7 122/24/7 126/17/7
f 127/20/9 125/19/9 121/21/9
f 128/18/8 126/17/8 125/19/8
f 121/15/6 122/13/6 124/23/6
f 134/17/12 130/24/12 132/16/12
f 129/21/13 133/19/13 135/20/13
f 133/19/8 134/17/8 136/18/8
f 129/15/6 131/14/6 132/23/6
f 138/13/6 140/23/6 139/14/6
f 156/16/7 154/24/7 158/17/7
f 144/18/8 142/17/8 141/19/8
f 159/20/9 157/19/9 153/21/9
f 143/20/10 141/19/10 137/21/10
f 140/16/11 138/24/11 142/17/11
f 146/13/6 148/23/6 147/14/6
f 160/18/8 158/17/8 157/19/8
f 152/18/8 150/17/8 149/19/8
f 153/15/6 154/13/6 156/23/6
f 151/20/10 149/19/10 145/21/10
f 148/16/11 146/24/11 150/17/11
f 174/17/12 170/24/12 172/16/12
f 169/21/13 173/19/13 175/20/13
f 167/20/10 165/19/10 161/21/10
f 164/16/11 162/24/11 166/17/11
f 173/19/8 174/17/8 176/18/8
f 169/15/6 171/14/6 172/23/6
f 178/13/14 180/23/14 179/14/14
f 184/18/15 182/17/15 181/19/15
f 179/22/10 183/20/10 181/19/10
f 180/16/11 178/24/11 182/17/11
f 186/13/14 188/23/14 187/14/14
f 192/18/15 190/17/15 189/19/15
f 187/22/10 191/20/10 189/19/10
f 188/16/11 186/24/11 190/17/11
f 200/18/16 198/17/16 194/24/16
f 193/21/17 197/19/17 199/20/17
f 199/20/15 197/19/15 198/17/15
f 193/15/14 195/14/14 196/23/14
f 206/17/18 202/24/18 204/16/18
f 201/21/19 205/19/19 207/20/19
f 205/19/14 206/17/14 208/18/14
f 203/14/15 204/23/15 202/13/15
f 216/18/16 214/17/16 210/24/16
f 209/21/17 213/19/17 215/20/17
f 215/20/15 213/19/15 214/17/15
f 209/15/14 211/14/14 212/23/14
f 222/17/18 218/24/18 220/16/18
f 217/21/19 221/19/19 223/20/19
f 221/19/14 222/17/14 224/18/14
f 219/14/15 220/23/15 218/13/15
f 228/16/7 226/24/7 230/17/7
f 231/20/9 229/19/9 225/21/9
f 232/18/8 230/17/8 229/19/8
f 225/15/6 226/13/6 228/23/6
f 238/17/12 234/24/12 236/16/12
f 233/21/13 237/19/13 239/20/13
f 237/19/8 238/17/8 240/18/8
f 233/15/6 235/14/6 236/23/6
f 242/13/6 244/23/6 243/14/6
f 260/16/7 258/24/7 262/17/7
f 248/18/8 246/17/8 245/19/8
f 263/20/9 261/19/9 257/21/9
f 247/20/10 245/19/10 241/21/10
f 244/16/11 242/24/11 246/17/11
f 250/13/6 252/23/6 251/14/6
f 264/18/8 262/17/8 261/19/8
f 256/18/8 254/17/8 253/19/8
f 257/15/6 258/13/6 260/23/6
f 255/20/10 253/19/10 249/21/10
f 252/16/11 250/24/11 254/17/11
f 278/17/12 274/24/12 276/16/12
f 273/21/13 277/19/13 279/20/13
f 271/20/10 269/19/10 265/21/10
f 268/16/11 266/24/11 270/17/11
f 277/19/8 278/17/8 280/18/8
f 273/15/6 275/14/6 276/23/6
f 282/13/14 284/23/14 283/14/14
f 288/18/15 286/17/15 285/19/15
f 283/22/10 287/20/10 285/19/10
f 284/16/11 282/24/11 286/17/11
f 290/13/14 292/23/14 291/14/14
f 296/18/15 294/17/15 293/19/15
f 291/22/10 295/20/10 293/19/10
f 292/16/11 290/24/11 294/17/11
f 302/17/16 298/24/16 300/16/16
f 297/21/17 301/19/17 303/20/17
f 301/19/15 302/17/15 304/18/15
f 297/15/14 299/14/14 300/23/14
f 310/17/18 306/24/18 308/16/18
f 305/21/19 309/19/19 311/20/19
f 309/19/14 310/17/14 312/18/14
f 305/15/15 307/14/15 308/23/15
f 318/17/16 314/24/16 316/16/16
f 313/21/17 317/19/17 319/20/17
f 317/19/15 318/17/15 320/18/15
f 313/15/14 315/14/14 316/23/14
f 326/17/18 322/24/18 324/16/18
f 321/21/19 325/19/19 327/20/19
f 325/19/14 326/17/14 328/18/14
f 321/15/15 323/14/15 324/23/15
f 332/16/7 330/24/7 334/17/7
f 335/20/9 333/19/9 329/21/9
f 336/18/8 334/17/8 333/19/8
f 329/15/6 330/13/6 332/23/6
f 342/17/12 338/24/12 340/16/12
f 337/21/13 341/19/13 343/20/13
f 341/19/8 342/17/8 344/18/8
f 337/15/6 339/14/6 340/23/6
