# Blender 4.4.3
# www.blender.org
mtllib Spool.mtl
g Spool_Mesh
v 0.000000 0.000000 -0.250000
v 0.000000 0.020000 -0.250000
v 0.095671 0.000000 -0.230970
v 0.095671 0.020000 -0.230970
v 0.176777 0.000000 -0.176777
v 0.176777 0.020000 -0.176777
v 0.230970 0.000000 -0.095671
v 0.230970 0.020000 -0.095671
v 0.250000 0.000000 0.000000
v 0.250000 0.020000 0.000000
v 0.230970 0.000000 0.095671
v 0.230970 0.020000 0.095671
v 0.176777 0.000000 0.176777
v 0.176777 0.020000 0.176777
v 0.095671 0.000000 0.230970
v 0.095671 0.020000 0.230970
v 0.000000 0.000000 0.250000
v 0.000000 0.020000 0.250000
v -0.095671 0.000000 0.230970
v -0.095671 0.020000 0.230970
v -0.176777 0.000000 0.176777
v -0.176777 0.020000 0.176777
v -0.230970 0.000000 0.095671
v -0.230970 0.020000 0.095671
v -0.250000 0.000000 0.000000
v -0.250000 0.020000 0.000000
v -0.230970 0.000000 -0.095671
v -0.230970 0.020000 -0.095671
v -0.176777 0.000000 -0.176777
v -0.176777 0.020000 -0.176777
v -0.095671 0.000000 -0.230970
v -0.095671 0.020000 -0.230970
v 0.000000 0.280000 -0.250000
v 0.000000 0.300000 -0.025690
v 0.095671 0.280000 -0.230970
v 0.009831 0.300000 -0.023734
v 0.176777 0.280000 -0.176777
v 0.018166 0.300000 -0.018166
v 0.230970 0.280000 -0.095671
v 0.023734 0.300000 -0.009831
v 0.250000 0.280000 0.000000
v 0.025690 0.300000 0.000000
v 0.230970 0.280000 0.095671
v 0.023734 0.300000 0.009831
v 0.176777 0.280000 0.176777
v 0.018166 0.300000 0.018166
v 0.095671 0.280000 0.230970
v 0.009831 0.300000 0.023734
v 0.000000 0.280000 0.250000
v 0.000000 0.300000 0.025690
v -0.095671 0.280000 0.230970
v -0.009831 0.300000 0.023734
v -0.176777 0.280000 0.176777
v -0.018166 0.300000 0.018166
v -0.230970 0.280000 0.095671
v -0.023734 0.300000 0.009831
v -0.250000 0.280000 0.000000
v -0.025690 0.300000 0.000000
v -0.230970 0.280000 -0.095671
v -0.023734 0.300000 -0.009831
v -0.176777 0.280000 -0.176777
v -0.018166 0.300000 -0.018166
v -0.095671 0.280000 -0.230970
v -0.009831 0.300000 -0.023734
v 0.000000 0.020000 -0.230000
v 0.000000 0.280000 -0.230000
v 0.088017 0.020000 -0.212492
v 0.088017 0.280000 -0.212492
v 0.162635 0.020000 -0.162635
v 0.162635 0.280000 -0.162635
v 0.212492 0.020000 -0.088017
v 0.212492 0.280000 -0.088017
v 0.230000 0.020000 0.000000
v 0.230000 0.280000 0.000000
v 0.212492 0.020000 0.088017
v 0.212492 0.280000 0.088017
v 0.162635 0.020000 0.162635
v 0.162635 0.280000 0.162635
v 0.088017 0.020000 0.212492
v 0.088017 0.280000 0.212492
v 0.000000 0.020000 0.230000
v 0.000000 0.280000 0.230000
v -0.088017 0.020000 0.212492
v -0.088017 0.280000 0.212492
v -0.162635 0.020000 0.162635
v -0.162635 0.280000 0.162635
v -0.212492 0.020000 0.088017
v -0.212492 0.280000 0.088017
v -0.230000 0.020000 0.000000
v -0.230000 0.280000 0.000000
v -0.212492 0.020000 -0.088017
v -0.212492 0.280000 -0.088017
v -0.162635 0.020000 -0.162635
v -0.162635 0.280000 -0.162635
v -0.088017 0.020000 -0.212492
v -0.088017 0.280000 -0.212492
v 0.095671 0.300000 -0.230970
v 0.000000 0.300000 -0.250000
v 0.176777 0.300000 -0.176777
v 0.230970 0.300000 -0.095671
v 0.250000 0.300000 0.000000
v 0.230970 0.300000 0.095671
v 0.176777 0.300000 0.176777
v 0.095671 0.300000 0.230970
v 0.000000 0.300000 0.250000
v -0.095671 0.300000 0.230970
v -0.176777 0.300000 0.176777
v -0.230970 0.300000 0.095671
v -0.250000 0.300000 0.000000
v -0.230970 0.300000 -0.095671
v -0.176777 0.300000 -0.176777
v -0.095671 0.300000 -0.230970
v 0.009831 0.050000 -0.023734
v -0.000000 0.050000 -0.025690
v 0.018165 0.050000 -0.018166
v 0.023734 0.050000 -0.009831
v 0.025690 0.050000 0.000000
v 0.023734 0.050000 0.009831
v 0.018165 0.050000 0.018166
v 0.009831 0.050000 0.023734
v -0.000000 0.050000 0.025690
v -0.009832 0.050000 0.023734
v -0.018166 0.050000 0.018166
v -0.023735 0.050000 0.009831
v -0.025690 0.050000 0.000000
v -0.023735 0.050000 -0.009831
v -0.018166 0.050000 -0.018166
v -0.009832 0.050000 -0.023734
v -0.100000 0.300000 0.220000
v -0.100000 0.320000 0.220000
v -0.100000 0.300000 -0.220000
v -0.100000 0.320000 -0.220000
v -0.080000 0.300000 0.220000
v -0.080000 0.320000 0.220000
v -0.080000 0.300000 -0.220000
v -0.080000 0.320000 -0.220000
v 0.080000 0.300000 0.220000
v 0.080000 0.320000 0.220000
v 0.080000 0.300000 -0.220000
v 0.080000 0.320000 -0.220000
v 0.100000 0.300000 0.220000
v 0.100000 0.320000 0.220000
v 0.100000 0.300000 -0.220000
v 0.100000 0.320000 -0.220000
v 0.000000 0.150000 -0.230000
v 0.088017 0.150000 -0.212492
v 0.162635 0.150000 -0.162635
v 0.212492 0.150000 -0.088017
v 0.230000 0.150000 0.000000
v 0.212492 0.150000 0.088017
v 0.162635 0.150000 0.162635
v 0.088017 0.150000 0.212492
v 0.000000 0.150000 0.230000
v -0.088017 0.150000 0.212492
v -0.162635 0.150000 0.162635
v -0.212492 0.150000 0.088017
v -0.230000 0.150000 0.000000
v -0.212492 0.150000 -0.088017
v -0.162635 0.150000 -0.162635
v -0.088017 0.150000 -0.212492
vn 0.1951 -0.0000 -0.9808
vn 0.5556 -0.0000 -0.8315
vn 0.8315 -0.0000 -0.5556
vn 0.9808 -0.0000 -0.1951
vn 0.9808 -0.0000 0.1951
vn 0.8315 -0.0000 0.5556
vn 0.5556 -0.0000 0.8315
vn 0.1951 -0.0000 0.9808
vn -0.1951 -0.0000 0.9808
vn -0.5556 -0.0000 0.8315
vn -0.8315 -0.0000 0.5556
vn -0.9808 -0.0000 0.1951
vn -0.9808 -0.0000 -0.1951
vn -0.8315 -0.0000 -0.5556
vn -0.0000 1.0000 -0.0000
vn -0.5556 -0.0000 -0.8315
vn -0.1951 -0.0000 -0.9808
vn -0.0000 -1.0000 -0.0000
vn -1.0000 -0.0000 -0.0000
vn -0.0000 -0.0000 -1.0000
vn 1.0000 -0.0000 -0.0000
vn -0.0000 -0.0000 1.0000
vt 0.320397 0.353553
vt 0.340789 0.261668
vt 0.340789 0.353553
vt 0.320397 0.261668
vt 0.340789 0.162212
vt 0.320397 0.162212
vt 0.340789 0.070326
vt 0.320397 0.070326
vt 0.340789 -0.000000
vt 0.320397 0.707107
vt 0.340789 0.615221
vt 0.340789 0.707107
vt 0.320397 0.615221
vt 0.340789 0.515765
vt 0.320397 0.515765
vt 0.340789 0.423880
vt 0.320397 0.423880
vt 0.340789 0.353553
vt 0.340789 0.353553
vt 0.361181 0.261668
vt 0.361181 0.353553
vt 0.361181 0.162212
vt 0.361181 0.070326
vt 0.361181 -0.000000
vt 0.340789 0.707107
vt 0.361181 0.636781
vt 0.361181 0.707107
vt 0.340789 0.636781
vt 0.361181 0.544895
vt 0.327782 0.401276
vt 0.342812 0.476836
vt 0.267252 0.491866
vt 0.340789 0.544895
vt 0.361181 0.445439
vt 0.340789 0.445439
vt 0.361181 0.353553
vt 0.342812 0.523164
vt 0.327782 0.598723
vt 0.252222 0.583694
vt 0.314320 0.445439
vt 0.334711 0.353553
vt 0.334711 0.445439
vt 0.277988 0.608451
vt 0.298380 0.538125
vt 0.298380 0.608451
vt 0.277988 0.538125
vt 0.298380 0.446240
vt 0.277988 0.446240
vt 0.298380 0.346783
vt 0.277988 0.346783
vt 0.298380 0.254898
vt 0.334711 0.000000
vt 0.314320 0.091886
vt 0.314320 0.000000
vt 0.334711 0.091886
vt 0.314320 0.191342
vt 0.334711 0.191342
vt 0.314320 0.283227
vt 0.334711 0.283227
vt 0.314320 0.353553
vt 0.298380 0.608451
vt 0.277988 0.678777
vt 0.298380 0.678777
vt 0.277988 0.770663
vt 0.298380 0.770663
vt 0.277988 0.870119
vt 0.298380 0.870119
vt 0.277988 0.962005
vt 0.314320 0.707107
vt 0.334711 0.636781
vt 0.334711 0.707107
vt 0.277988 0.000000
vt 0.268546 0.254898
vt 0.268546 0.000000
vt 0.314320 0.636781
vt 0.334711 0.544895
vt 0.314320 0.544895
vt 0.358940 0.384052
vt 0.334054 0.509160
vt 0.208946 0.484275
vt 0.991596 0.561323
vt 0.883535 0.479830
vt 0.883535 0.561323
vt 0.991596 0.479830
vt 0.883535 0.404541
vt 0.991596 0.404541
vt 0.883535 0.346918
vt 0.991470 0.636611
vt 0.884944 0.561323
vt 0.884944 0.636611
vt 0.991470 0.561323
vt 0.884944 0.479830
vt 0.991470 0.479830
vt 0.884944 0.404541
vt 0.991470 0.404541
vt 0.884944 0.346918
vt 0.991596 0.926305
vt 0.883535 0.851016
vt 0.883535 0.926305
vt 0.991596 0.851016
vt 0.883535 0.769524
vt 0.991596 0.769524
vt 0.883535 0.694235
vt 0.991596 0.694235
vt 0.883535 0.636611
vt 0.991470 0.926305
vt 0.884944 0.851016
vt 0.884944 0.926305
vt 0.991470 0.851016
vt 0.884944 0.769524
vt 0.991470 0.769524
vt 0.884944 0.694235
vt 0.991470 0.694235
vt 0.884944 0.636611
vt 0.883535 0.636611
vt 0.275533 0.614991
vt 0.193821 0.614811
vt 0.274682 0.611476
vt 0.277664 0.617912
vt 0.202104 0.649016
vt 0.280752 0.619796
vt 0.222846 0.677448
vt 0.284325 0.620355
vt 0.252889 0.695778
vt 0.287840 0.619504
vt 0.287660 0.701216
vt 0.290761 0.617372
vt 0.321865 0.692933
vt 0.292645 0.614285
vt 0.350297 0.672191
vt 0.293204 0.610712
vt 0.368627 0.642147
vt 0.292353 0.607197
vt 0.374065 0.607376
vt 0.290221 0.604275
vt 0.365782 0.573171
vt 0.287134 0.602392
vt 0.345040 0.544739
vt 0.283561 0.601833
vt 0.314996 0.526410
vt 0.280046 0.602684
vt 0.280225 0.520972
vt 0.277124 0.604815
vt 0.246020 0.529255
vt 0.275241 0.607903
vt 0.217588 0.549997
vt 0.199259 0.580040
vt 0.318231 0.718245
vt 0.354562 0.711018
vt 0.361788 0.747349
vt 0.270762 0.254898
vt 0.261319 0.509796
vt 0.261319 0.254898
vt 0.258326 0.254898
vt 0.258326 0.000000
vt 0.251099 0.254898
vt 0.251099 0.509796
vt 0.248884 0.000000
vt 0.241657 0.254898
vt 0.241657 0.000000
vt 0.248884 0.254898
vt 0.241657 0.509796
vt 0.241657 0.254898
vt 0.277988 0.509796
vt 0.270762 0.764693
vt 0.270762 0.509796
vt 0.314319 -0.000000
vt 0.307093 0.254898
vt 0.307093 0.000000
vt 0.261319 0.764694
vt 0.261319 0.509796
vt 0.297651 0.254898
vt 0.297651 -0.000000
vt 0.251099 0.764694
vt 0.251099 0.509796
vt 0.287430 0.254898
vt 0.287430 -0.000000
vt 0.241657 0.764694
vt 0.277988 0.254898
vt 0.277988 -0.000000
vt 0.277988 0.254898
vt 0.270762 0.509796
vt 0.195055 0.762896
vt 0.218954 0.237104
vt 0.218954 0.762896
vt 0.342881 0.237104
vt 0.366780 0.261004
vt 0.342881 0.261004
vt 0.218954 0.762896
vt 0.242854 0.237104
vt 0.242854 0.762896
vt 0.342881 0.261004
vt 0.366780 0.284904
vt 0.342881 0.284904
vt 0.290654 0.762896
vt 0.314553 0.237104
vt 0.314553 0.762896
vt 0.338453 0.237104
vt 0.338453 0.762896
vt 0.242854 0.762896
vt 0.266754 0.237104
vt 0.266754 0.762896
vt 0.366780 0.308803
vt 0.342881 0.308803
vt 0.266754 0.762896
vt 0.290654 0.237104
vt 0.290654 0.762896
vt 0.342881 0.308803
vt 0.366780 0.332703
vt 0.342881 0.332703
vt 0.338453 0.762896
vt 0.362353 0.237104
vt 0.362353 0.762896
vt 0.386252 0.237104
vt 0.386252 0.762896
vt 0.992617 0.636611
vt 0.992617 0.561323
vt 0.990438 0.636611
vt 0.990438 0.694235
vt 0.990438 0.769524
vt 0.990438 0.851016
vt 0.990438 0.926305
vt 0.992617 0.636611
vt 0.992617 0.694235
vt 0.992617 0.769524
vt 0.992617 0.851016
vt 0.992617 0.926305
vt 0.990438 0.346918
vt 0.990438 0.404541
vt 0.990438 0.479830
vt 0.990438 0.561323
vt 0.990438 0.636611
vt 0.992617 0.346918
vt 0.992617 0.404541
vt 0.992617 0.479830
vt 0.320397 -0.000000
vt 0.320397 0.353553
vt 0.340789 -0.000000
vt 0.252222 0.476836
vt 0.244088 0.457199
vt 0.244088 0.435944
vt 0.252222 0.416306
vt 0.267252 0.401277
vt 0.286889 0.393142
vt 0.308145 0.393142
vt 0.342812 0.416306
vt 0.350946 0.435944
vt 0.350946 0.457199
vt 0.327782 0.491866
vt 0.308145 0.500000
vt 0.286889 0.500000
vt 0.340789 0.353553
vt 0.244088 0.564056
vt 0.244088 0.542801
vt 0.252222 0.523164
vt 0.267252 0.508134
vt 0.286889 0.500000
vt 0.308145 0.500000
vt 0.327782 0.508134
vt 0.350946 0.542801
vt 0.350946 0.564056
vt 0.342812 0.583694
vt 0.308145 0.606857
vt 0.286889 0.606857
vt 0.267252 0.598723
vt 0.314320 0.353553
vt 0.277988 0.254898
vt 0.334711 0.353553
vt 0.298380 0.962005
vt 0.195478 0.451760
vt 0.195478 0.416566
vt 0.208946 0.384052
vt 0.233831 0.359166
vt 0.266346 0.345698
vt 0.301540 0.345698
vt 0.334054 0.359166
vt 0.372408 0.416566
vt 0.372408 0.451760
vt 0.358940 0.484275
vt 0.301540 0.522629
vt 0.266346 0.522629
vt 0.233831 0.509160
vt 0.991596 0.346918
vt 0.991470 0.346918
vt 0.991596 0.636611
vt 0.991596 0.636611
vt 0.354562 0.754576
vt 0.345119 0.758487
vt 0.334899 0.758487
vt 0.325457 0.754576
vt 0.318231 0.747349
vt 0.314319 0.737907
vt 0.314319 0.727687
vt 0.325457 0.711018
vt 0.334899 0.707107
vt 0.345120 0.707107
vt 0.361788 0.718245
vt 0.365699 0.727687
vt 0.365699 0.737907
vt 0.277988 0.764693
vt 0.314319 0.254898
vt 0.277988 0.509796
vt 0.195055 0.237104
vt 0.366780 0.237104
vt 0.218954 0.237104
vt 0.242854 0.237104
vt 0.266754 0.237104
vt 0.338453 0.237104
s 0
usemtl LumberMetal
f 2/1/1 3/2/1 1/3/1
f 4/4/2 5/5/2 3/2/2
f 6/6/3 7/7/3 5/5/3
f 8/8/4 9/9/4 7/7/4
f 10/10/5 11/11/5 9/12/5
f 12/13/6 13/14/6 11/11/6
f 14/15/7 15/16/7 13/14/7
f 16/17/8 17/18/8 15/16/8
f 18/19/9 19/20/9 17/21/9
f 20/2/10 21/22/10 19/20/10
f 22/5/11 23/23/11 21/22/11
f 24/7/12 25/24/12 23/23/12
f 26/25/13 27/26/13 25/27/13
f 28/28/14 29/29/14 27/26/14
f 22/30/15 14/31/15 6/32/15
f 30/33/16 31/34/16 29/29/16
f 32/35/17 1/36/17 31/34/17
f 15/37/18 23/38/18 31/39/18
f 98/40/1 35/41/1 33/42/1
f 97/43/2 37/44/2 35/45/2
f 99/46/3 39/47/3 37/44/3
f 100/48/4 41/49/4 39/47/4
f 101/50/5 43/51/5 41/49/5
f 102/52/6 45/53/6 43/54/6
f 103/55/7 47/56/7 45/53/7
f 104/57/8 49/58/8 47/56/8
f 105/59/9 51/60/9 49/58/9
f 106/61/10 53/62/10 51/43/10
f 107/63/11 55/64/11 53/62/11
f 108/65/12 57/66/12 55/64/12
f 109/67/13 59/68/13 57/66/13
f 110/69/14 61/70/14 59/71/14
f 60/72/6 127/73/6 62/74/6
f 111/75/16 63/76/16 61/70/16
f 112/77/17 33/42/17 63/76/17
f 47/78/18 55/79/18 63/80/18
f 66/81/1 146/82/1 145/83/1
f 68/84/2 147/85/2 146/82/2
f 70/86/3 148/87/3 147/85/3
f 72/88/4 149/89/4 148/90/4
f 74/91/5 150/92/5 149/89/5
f 76/93/6 151/94/6 150/92/6
f 78/95/7 152/96/7 151/94/7
f 80/97/8 153/98/8 152/99/8
f 82/100/9 154/101/9 153/98/9
f 84/102/10 155/103/10 154/101/10
f 86/104/11 156/105/11 155/103/11
f 88/106/12 157/107/12 156/108/12
f 90/109/13 158/110/13 157/107/13
f 92/111/14 159/112/14 158/110/14
f 94/113/16 160/114/16 159/112/16
f 160/115/17 66/81/17 145/83/17
f 36/116/15 98/117/15 34/118/15
f 38/119/15 97/120/15 36/116/15
f 40/121/15 99/122/15 38/119/15
f 42/123/15 100/124/15 40/121/15
f 44/125/15 101/126/15 42/123/15
f 46/127/15 102/128/15 44/125/15
f 48/129/15 103/130/15 46/127/15
f 50/131/15 104/132/15 48/129/15
f 52/133/15 105/134/15 50/131/15
f 54/135/15 106/136/15 52/133/15
f 56/137/15 107/138/15 54/135/15
f 58/139/15 108/140/15 56/137/15
f 60/141/15 109/142/15 58/139/15
f 62/143/15 110/144/15 60/141/15
f 64/145/15 111/146/15 62/143/15
f 34/118/15 112/147/15 64/145/15
f 123/148/15 119/149/15 115/150/15
f 46/151/16 120/152/16 48/153/16
f 62/74/7 128/154/7 64/155/7
f 50/156/17 120/152/17 121/157/17
f 34/158/9 113/159/9 36/160/9
f 64/155/8 114/161/8 34/158/8
f 50/156/1 122/162/1 52/163/1
f 36/164/10 115/165/10 38/166/10
f 52/167/2 123/168/2 54/169/2
f 38/166/11 116/170/11 40/171/11
f 54/169/3 124/172/3 56/173/3
f 40/171/12 117/174/12 42/175/12
f 56/173/4 125/176/4 58/177/4
f 42/175/13 118/178/13 44/162/13
f 58/177/5 126/179/5 60/180/5
f 44/181/14 119/182/14 46/151/14
f 130/183/19 131/184/19 129/185/19
f 132/186/20 135/187/20 131/188/20
f 136/189/21 133/190/21 135/191/21
f 134/192/22 129/193/22 133/194/22
f 135/195/18 129/196/18 131/197/18
f 132/197/15 134/198/15 136/199/15
f 138/200/19 139/201/19 137/202/19
f 140/194/20 143/203/20 139/204/20
f 144/205/21 141/206/21 143/207/21
f 142/208/22 137/209/22 141/210/22
f 143/211/18 137/212/18 139/213/18
f 140/213/15 142/214/15 144/215/15
f 95/216/17 145/83/17 65/217/17
f 159/112/16 95/218/16 93/219/16
f 158/110/14 93/219/14 91/220/14
f 157/107/13 91/220/13 89/221/13
f 156/108/12 89/221/12 87/222/12
f 155/103/11 87/223/11 85/224/11
f 154/101/10 85/224/10 83/225/10
f 153/98/9 83/225/9 81/226/9
f 152/99/8 81/226/8 79/227/8
f 151/94/7 79/228/7 77/229/7
f 150/92/6 77/229/6 75/230/6
f 149/89/5 75/230/5 73/231/5
f 148/90/4 73/231/4 71/232/4
f 147/85/3 71/233/3 69/234/3
f 146/82/2 69/234/2 67/235/2
f 145/83/1 67/235/1 65/217/1
f 2/1/1 4/4/1 3/2/1
f 4/4/2 6/6/2 5/5/2
f 6/6/3 8/8/3 7/7/3
f 8/8/4 10/236/4 9/9/4
f 10/10/5 12/13/5 11/11/5
f 12/13/6 14/15/6 13/14/6
f 14/15/7 16/17/7 15/16/7
f 16/17/8 18/237/8 17/18/8
f 18/19/9 20/2/9 19/20/9
f 20/2/10 22/5/10 21/22/10
f 22/5/11 24/7/11 23/23/11
f 24/7/12 26/238/12 25/24/12
f 26/25/13 28/28/13 27/26/13
f 28/28/14 30/33/14 29/29/14
f 6/32/15 4/239/15 2/240/15
f 2/240/15 32/241/15 30/242/15
f 30/242/15 28/243/15 26/244/15
f 26/244/15 24/245/15 22/30/15
f 22/30/15 20/246/15 18/247/15
f 18/247/15 16/248/15 14/31/15
f 14/31/15 12/249/15 10/250/15
f 10/250/15 8/251/15 6/32/15
f 6/32/15 2/240/15 30/242/15
f 30/242/15 26/244/15 22/30/15
f 22/30/15 18/247/15 14/31/15
f 14/31/15 10/250/15 6/32/15
f 6/32/15 30/242/15 22/30/15
f 30/33/16 32/35/16 31/34/16
f 32/35/17 2/252/17 1/36/17
f 31/39/18 1/253/18 3/254/18
f 3/254/18 5/255/18 7/256/18
f 7/256/18 9/257/18 11/258/18
f 11/258/18 13/259/18 15/37/18
f 15/37/18 17/260/18 19/261/18
f 19/261/18 21/262/18 23/38/18
f 23/38/18 25/263/18 27/264/18
f 27/264/18 29/265/18 31/39/18
f 31/39/18 3/254/18 7/256/18
f 7/256/18 11/258/18 15/37/18
f 15/37/18 19/261/18 23/38/18
f 23/38/18 27/264/18 31/39/18
f 31/39/18 7/256/18 15/37/18
f 98/40/1 97/266/1 35/41/1
f 97/43/2 99/46/2 37/44/2
f 99/46/3 100/48/3 39/47/3
f 100/48/4 101/50/4 41/49/4
f 101/50/5 102/267/5 43/51/5
f 102/52/6 103/55/6 45/53/6
f 103/55/7 104/57/7 47/56/7
f 104/57/8 105/59/8 49/58/8
f 105/59/9 106/268/9 51/60/9
f 106/61/10 107/63/10 53/62/10
f 107/63/11 108/65/11 55/64/11
f 108/65/12 109/67/12 57/66/12
f 109/67/13 110/269/13 59/68/13
f 110/69/14 111/75/14 61/70/14
f 60/72/6 126/181/6 127/73/6
f 111/75/16 112/77/16 63/76/16
f 112/77/17 98/40/17 33/42/17
f 63/80/18 33/270/18 35/271/18
f 35/271/18 37/272/18 39/273/18
f 39/273/18 41/274/18 43/275/18
f 43/275/18 45/276/18 47/78/18
f 47/78/18 49/277/18 51/278/18
f 51/278/18 53/279/18 55/79/18
f 55/79/18 57/280/18 59/281/18
f 59/281/18 61/282/18 63/80/18
f 63/80/18 35/271/18 39/273/18
f 39/273/18 43/275/18 47/78/18
f 47/78/18 51/278/18 55/79/18
f 55/79/18 59/281/18 63/80/18
f 63/80/18 39/273/18 47/78/18
f 66/81/1 68/84/1 146/82/1
f 68/84/2 70/86/2 147/85/2
f 70/86/3 72/283/3 148/87/3
f 72/88/4 74/91/4 149/89/4
f 74/91/5 76/93/5 150/92/5
f 76/93/6 78/95/6 151/94/6
f 78/95/7 80/284/7 152/96/7
f 80/97/8 82/100/8 153/98/8
f 82/100/9 84/102/9 154/101/9
f 84/102/10 86/104/10 155/103/10
f 86/104/11 88/285/11 156/105/11
f 88/106/12 90/109/12 157/107/12
f 90/109/13 92/111/13 158/110/13
f 92/111/14 94/113/14 159/112/14
f 94/113/16 96/88/16 160/114/16
f 160/115/17 96/286/17 66/81/17
f 36/116/15 97/120/15 98/117/15
f 38/119/15 99/122/15 97/120/15
f 40/121/15 100/124/15 99/122/15
f 42/123/15 101/126/15 100/124/15
f 44/125/15 102/128/15 101/126/15
f 46/127/15 103/130/15 102/128/15
f 48/129/15 104/132/15 103/130/15
f 50/131/15 105/134/15 104/132/15
f 52/133/15 106/136/15 105/134/15
f 54/135/15 107/138/15 106/136/15
f 56/137/15 108/140/15 107/138/15
f 58/139/15 109/142/15 108/140/15
f 60/141/15 110/144/15 109/142/15
f 62/143/15 111/146/15 110/144/15
f 64/145/15 112/147/15 111/146/15
f 34/118/15 98/117/15 112/147/15
f 115/150/15 113/287/15 114/288/15
f 114/288/15 128/289/15 127/290/15
f 127/290/15 126/291/15 125/292/15
f 125/292/15 124/293/15 123/148/15
f 123/148/15 122/294/15 121/295/15
f 121/295/15 120/296/15 119/149/15
f 119/149/15 118/297/15 117/298/15
f 117/298/15 116/299/15 115/150/15
f 115/150/15 114/288/15 127/290/15
f 127/290/15 125/292/15 123/148/15
f 123/148/15 121/295/15 119/149/15
f 119/149/15 117/298/15 115/150/15
f 115/150/15 127/290/15 123/148/15
f 46/151/16 119/182/16 120/152/16
f 62/74/7 127/73/7 128/154/7
f 50/156/17 48/153/17 120/152/17
f 34/158/9 114/161/9 113/159/9
f 64/155/8 128/154/8 114/161/8
f 50/156/1 121/157/1 122/162/1
f 36/164/10 113/300/10 115/165/10
f 52/167/2 122/301/2 123/168/2
f 38/166/11 115/165/11 116/170/11
f 54/169/3 123/168/3 124/172/3
f 40/171/12 116/170/12 117/174/12
f 56/173/4 124/172/4 125/176/4
f 42/175/13 117/174/13 118/178/13
f 58/177/5 125/176/5 126/179/5
f 44/181/14 118/302/14 119/182/14
f 130/183/19 132/303/19 131/184/19
f 132/186/20 136/304/20 135/187/20
f 136/189/21 134/305/21 133/190/21
f 134/192/22 130/187/22 129/193/22
f 135/195/18 133/206/18 129/196/18
f 132/197/15 130/196/15 134/198/15
f 138/200/19 140/306/19 139/201/19
f 140/194/20 144/193/20 143/203/20
f 144/205/21 142/307/21 141/206/21
f 142/208/22 138/203/22 137/209/22
f 143/211/18 141/308/18 137/212/18
f 140/213/15 138/212/15 142/214/15
f 95/216/17 160/115/17 145/83/17
f 159/112/16 160/114/16 95/218/16
f 158/110/14 159/112/14 93/219/14
f 157/107/13 158/110/13 91/220/13
f 156/108/12 157/107/12 89/221/12
f 155/103/11 156/105/11 87/223/11
f 154/101/10 155/103/10 85/224/10
f 153/98/9 154/101/9 83/225/9
f 152/99/8 153/98/8 81/226/8
f 151/94/7 152/96/7 79/228/7
f 150/92/6 151/94/6 77/229/6
f 149/89/5 150/92/5 75/230/5
f 148/90/4 149/89/4 73/231/4
f 147/85/3 148/87/3 71/233/3
f 146/82/2 147/85/2 69/234/2
f 145/83/1 146/82/1 67/235/1
